<?xml version="1.0" encoding="utf-8"?>
<svg style="background-color: #000;" version="1.1" viewBox="0 0 100.0 100.0" xmlns="http://www.w3.org/2000/svg" xmlns:inkscape="http://www.inkscape.org/namespaces/inkscape">
 <g id="layerA-MULLION" inkscape:groupmode="layer" inkscape:label="A-MULLION">
  <path d="M 1.0026024999999805,88.74762750000002 L 4.0026024999999805,88.74762750000002" fill="none" stroke="rgb(178,0,178)" stroke-width="0.1"/>
  <path d="M 1.0026024999999805,74.74762750000002 L 4.0026024999999805,74.74762750000002" fill="none" stroke="rgb(178,0,178)" stroke-width="0.1"/>
  <path d="M 1.0026024999999805,60.74762750000002 L 4.0026024999999805,60.74762750000002" fill="none" stroke="rgb(178,0,178)" stroke-width="0.1"/>
  <path d="M 1.0026024999999805,46.74762750000002 L 4.0026024999999805,46.74762750000002" fill="none" stroke="rgb(178,0,178)" stroke-width="0.1"/>
  <path d="M 1.0026024999999805,32.74762750000002 L 4.0026024999999805,32.74762750000002" fill="none" stroke="rgb(178,0,178)" stroke-width="0.1"/>
  <path d="M 1.0026024999999805,18.747627499999993 L 4.0026024999999805,18.747627499999993" fill="none" stroke="rgb(178,0,178)" stroke-width="0.1"/>
  <path d="M 1.0026024999999805,4.747627499999993 L 4.0026024999999805,4.747627499999993" fill="none" stroke="rgb(178,0,178)" stroke-width="0.1"/>
 </g>
 <g id="layerAXIS" inkscape:groupmode="layer" inkscape:label="AXIS">
  <path d="M 99.50070249999999,97.99562750000001 L 99.50070249999999,84.64162749999997" fill="none" stroke="rgb(0,178,0)" stroke-width="0.1"/>
  <path d="M 99.50070249999999,89.79962749999999 L 99.50070249999999,84.67962749999998" fill="none" stroke="rgb(0,178,0)" stroke-width="0.1"/>
  <path d="M 99.50070249999999,87.17962749999998 L 100.0,87.17962749999998" fill="none" stroke="rgb(0,178,0)" stroke-width="0.1"/>
 </g>
 <g id="layerAXIS_TEXT" inkscape:groupmode="layer" inkscape:label="AXIS_TEXT">
  <text fill="rgb(0,0,0)" font-family="Noto Sans CJK SC" font-size="2" transform="rotate(-0.0,97.80370249999999,82.8686275)" x="97.80370249999999" y="82.8686275">
   4
  </text>
 </g>
 <g id="layerDIM_LEAD" inkscape:groupmode="layer" inkscape:label="DIM_LEAD">
  <path d="M 85.90270249999998,98.82462750000002 L 52.28770249999998,93.82962750000002" fill="none" stroke="rgb(0,178,0)" stroke-width="0.1"/>
  <path d="M 52.28770249999998,93.82962750000002 L 35.211302499999974,93.82962750000002" fill="none" stroke="rgb(0,178,0)" stroke-width="0.1"/>
  <path d="M 5.801902499999976,82.8566275 L 12.62910249999998,75.7316275" fill="none" stroke="rgb(0,178,0)" stroke-width="0.1"/>
  <path d="M 12.62910249999998,75.7316275 L 38.66780249999998,75.7316275" fill="none" stroke="rgb(0,178,0)" stroke-width="0.1"/>
  <path d="M 86.10070249999998,98.85462749999999 A 0.2001855389382611,0.2001855389382611 0.0 1,0 85.70470249999997,98.79562750000002" fill="none" stroke="rgb(0,178,0)" stroke-width="0.1"/>
  <path d="M 85.70470249999997,98.79562750000002 A 0.2001855389382611,0.2001855389382611 0.0 0,0 86.10070249999998,98.85462749999999" fill="none" stroke="rgb(0,178,0)" stroke-width="0.1"/>
  <path d="M 5.663502499999979,83.00062750000001 A 0.2,0.2 0.0 1,0 5.940202499999977,82.7126275" fill="none" stroke="rgb(0,178,0)" stroke-width="0.1"/>
  <path d="M 5.940202499999977,82.7126275 A 0.2,0.2 0.0 1,0 5.663502499999979,83.00062750000001" fill="none" stroke="rgb(0,178,0)" stroke-width="0.1"/>
 </g>
 <g id="layerDOTE" inkscape:groupmode="layer" inkscape:label="DOTE">
  <path d="M 4.0026024999999805,60.74762750000002 L 73.50270249999998,60.74762750000002" fill="none" stroke="rgb(178,0,0)" stroke-width="0.1"/>
  <path d="M 0.0,67.24762750000002 L 100.0,67.24762750000002" fill="none" stroke="rgb(178,0,0)" stroke-width="0.1"/>
  <path d="M 0.0,18.747627499999993 L 100.0,18.747627499999993" fill="none" stroke="rgb(178,0,0)" stroke-width="0.1"/>
  <path d="M 5.0026024999999805,100.0 L 5.0026024999999805,0.0" fill="none" stroke="rgb(178,0,0)" stroke-width="0.1"/>
  <path d="M 99.50270249999997,100.0 L 99.50270249999997,0.0" fill="none" stroke="rgb(178,0,0)" stroke-width="0.1"/>
  <path d="M 80.50270249999997,100.0 L 80.50270249999997,0.0" fill="none" stroke="rgb(178,0,0)" stroke-width="0.1"/>
 </g>
 <g id="layerEQUIP_消火栓" inkscape:groupmode="layer" inkscape:label="EQUIP_消火栓">
  <path d="M 79.50070249999999,57.24762750000002 L 81.50070249999999,57.24762750000002" fill="none" stroke="rgb(0,0,0)" stroke-width="0.1"/>
  <path d="M 81.50070249999999,50.24762750000002 L 79.50070249999999,50.24762750000002" fill="none" stroke="rgb(0,0,0)" stroke-width="0.1"/>
  <path d="M 79.50070249999999,50.24762750000002 L 79.50070249999999,57.24762750000002" fill="none" stroke="rgb(0,0,0)" stroke-width="0.1"/>
  <path d="M 79.50070249999999,50.24762750000002 L 81.50070249999999,57.24762750000002" fill="none" stroke="rgb(0,0,0)" stroke-width="0.1"/>
  <path d="M 81.50070249999999,57.24762750000002 L 81.50070249999999,50.24762750000002" fill="none" stroke="rgb(0,0,0)" stroke-width="0.1"/>
  <path d="M 81.71470249999999,53.74762750000002 L 82.12470249999998,54.01262750000001" fill="none" stroke="rgb(0,0,0)" stroke-width="0.1"/>
  <path d="M 82.12470249999998,54.01262750000001 L 82.12470249999998,53.46562749999998" fill="none" stroke="rgb(0,0,0)" stroke-width="0.1"/>
  <path d="M 82.12470249999998,53.46562749999998 L 81.71470249999999,53.74762750000002" fill="none" stroke="rgb(0,0,0)" stroke-width="0.1"/>
 </g>
 <g id="layerPUB_DIM" inkscape:groupmode="layer" inkscape:label="PUB_DIM">
  <path d="M 96.50270249999997,94.74762750000002 L 92.91770249999999,94.74762750000002" fill="none" stroke="rgb(0,178,0)" stroke-width="0.1"/>
  <path d="M 95.41770249999999,100.0 L 95.41770249999999,94.74762750000002" fill="none" stroke="rgb(0,178,0)" stroke-width="0.1"/>
  <path d="M 99.50270249999997,43.60462749999999 L 99.50270249999997,45.68762750000002" fill="none" stroke="rgb(0,178,0)" stroke-width="0.1"/>
  <path d="M 99.50270249999997,43.18762750000002 L 100.0,43.18762750000002" fill="none" stroke="rgb(0,178,0)" stroke-width="0.1"/>
  <path d="M 70.50270249999998,94.74762750000002 L 65.59070249999998,94.74762750000002" fill="none" stroke="rgb(0,178,0)" stroke-width="0.1"/>
  <path d="M 68.09070249999998,100.0 L 68.09070249999998,94.74762750000002" fill="none" stroke="rgb(0,178,0)" stroke-width="0.1"/>
  <path d="M 70.50270249999998,94.74762750000002 L 65.59070249999998,94.74762750000002" fill="none" stroke="rgb(0,178,0)" stroke-width="0.1"/>
  <path d="M 70.50270249999998,83.74762750000002 L 65.59070249999998,83.74762750000002" fill="none" stroke="rgb(0,178,0)" stroke-width="0.1"/>
  <path d="M 68.09070249999998,94.74762750000002 L 68.09070249999998,83.74762750000002" fill="none" stroke="rgb(0,178,0)" stroke-width="0.1"/>
  <path d="M 70.50270249999998,83.74762750000002 L 65.59070249999998,83.74762750000002" fill="none" stroke="rgb(0,178,0)" stroke-width="0.1"/>
  <path d="M 70.50270249999998,71.24762750000002 L 65.59070249999998,71.24762750000002" fill="none" stroke="rgb(0,178,0)" stroke-width="0.1"/>
  <path d="M 68.09070249999998,83.74762750000002 L 68.09070249999998,71.24762750000002" fill="none" stroke="rgb(0,178,0)" stroke-width="0.1"/>
  <path d="M 70.50270249999998,71.24762750000002 L 65.59070249999998,71.24762750000002" fill="none" stroke="rgb(0,178,0)" stroke-width="0.1"/>
  <path d="M 70.50270249999998,70.24762750000002 L 65.59070249999998,70.24762750000002" fill="none" stroke="rgb(0,178,0)" stroke-width="0.1"/>
  <path d="M 68.09070249999998,71.24762750000002 L 68.09070249999998,72.24762750000002" fill="none" stroke="rgb(0,178,0)" stroke-width="0.1"/>
  <path d="M 68.09070249999998,70.24762750000002 L 68.09070249999998,69.24762750000002" fill="none" stroke="rgb(0,178,0)" stroke-width="0.1"/>
  <path d="M 68.09070249999998,71.24762750000002 L 68.09070249999998,70.24762750000002" fill="none" stroke="rgb(0,178,0)" stroke-width="0.1"/>
  <path d="M 70.50270249999998,70.24762750000002 L 65.59070249999998,70.24762750000002" fill="none" stroke="rgb(0,178,0)" stroke-width="0.1"/>
  <path d="M 70.50270249999998,60.74762750000002 L 65.59070249999998,60.74762750000002" fill="none" stroke="rgb(0,178,0)" stroke-width="0.1"/>
  <path d="M 68.09070249999998,70.24762750000002 L 68.09070249999998,60.74762750000002" fill="none" stroke="rgb(0,178,0)" stroke-width="0.1"/>
  <path d="M 70.50270249999998,60.74762750000002 L 65.59070249999998,60.74762750000002" fill="none" stroke="rgb(0,178,0)" stroke-width="0.1"/>
  <path d="M 70.50270249999998,51.24762750000002 L 65.59070249999998,51.24762750000002" fill="none" stroke="rgb(0,178,0)" stroke-width="0.1"/>
  <path d="M 68.09070249999998,60.74762750000002 L 68.09070249999998,51.24762750000002" fill="none" stroke="rgb(0,178,0)" stroke-width="0.1"/>
  <path d="M 70.50270249999998,51.24762750000002 L 65.59070249999998,51.24762750000002" fill="none" stroke="rgb(0,178,0)" stroke-width="0.1"/>
  <path d="M 70.50270249999998,50.24762750000002 L 65.59070249999998,50.24762750000002" fill="none" stroke="rgb(0,178,0)" stroke-width="0.1"/>
  <path d="M 68.09070249999998,51.24762750000002 L 68.09070249999998,52.24762750000002" fill="none" stroke="rgb(0,178,0)" stroke-width="0.1"/>
  <path d="M 68.09070249999998,50.24762750000002 L 68.09070249999998,49.24762750000002" fill="none" stroke="rgb(0,178,0)" stroke-width="0.1"/>
  <path d="M 68.09070249999998,51.24762750000002 L 68.09070249999998,50.24762750000002" fill="none" stroke="rgb(0,178,0)" stroke-width="0.1"/>
  <path d="M 70.50270249999998,50.24762750000002 L 65.59070249999998,50.24762750000002" fill="none" stroke="rgb(0,178,0)" stroke-width="0.1"/>
  <path d="M 70.50270249999998,37.74762750000002 L 65.59070249999998,37.74762750000002" fill="none" stroke="rgb(0,178,0)" stroke-width="0.1"/>
  <path d="M 68.09070249999998,50.24762750000002 L 68.09070249999998,37.74762750000002" fill="none" stroke="rgb(0,178,0)" stroke-width="0.1"/>
  <path d="M 70.50270249999998,37.74762750000002 L 65.59070249999998,37.74762750000002" fill="none" stroke="rgb(0,178,0)" stroke-width="0.1"/>
  <path d="M 70.50270249999998,26.74762750000002 L 65.59070249999998,26.74762750000002" fill="none" stroke="rgb(0,178,0)" stroke-width="0.1"/>
  <path d="M 68.09070249999998,37.74762750000002 L 68.09070249999998,26.74762750000002" fill="none" stroke="rgb(0,178,0)" stroke-width="0.1"/>
  <path d="M 70.50270249999998,26.74762750000002 L 65.59070249999998,26.74762750000002" fill="none" stroke="rgb(0,178,0)" stroke-width="0.1"/>
  <path d="M 70.50270249999998,18.747627499999993 L 65.59070249999998,18.747627499999993" fill="none" stroke="rgb(0,178,0)" stroke-width="0.1"/>
  <path d="M 68.09070249999998,26.74762750000002 L 68.09070249999998,18.747627499999993" fill="none" stroke="rgb(0,178,0)" stroke-width="0.1"/>
  <path d="M 70.50270249999998,18.747627499999993 L 65.59070249999998,18.747627499999993" fill="none" stroke="rgb(0,178,0)" stroke-width="0.1"/>
  <path d="M 70.50270249999998,10.747627499999993 L 65.59070249999998,10.747627499999993" fill="none" stroke="rgb(0,178,0)" stroke-width="0.1"/>
  <path d="M 68.09070249999998,18.747627499999993 L 68.09070249999998,10.747627499999993" fill="none" stroke="rgb(0,178,0)" stroke-width="0.1"/>
  <path d="M 70.50270249999998,10.747627499999993 L 65.59070249999998,10.747627499999993" fill="none" stroke="rgb(0,178,0)" stroke-width="0.1"/>
  <path d="M 68.09070249999998,10.747627499999993 L 68.09070249999998,0.0" fill="none" stroke="rgb(0,178,0)" stroke-width="0.1"/>
  <path d="M 8.00260249999998,57.74762750000002 L 13.50260249999998,57.74762750000002" fill="none" stroke="rgb(0,178,0)" stroke-width="0.1"/>
  <path d="M 8.00260249999998,60.74762750000002 L 13.50260249999998,60.74762750000002" fill="none" stroke="rgb(0,178,0)" stroke-width="0.1"/>
  <path d="M 11.00260249999998,57.74762750000002 L 11.00260249999998,60.74762750000002" fill="none" stroke="rgb(0,178,0)" stroke-width="0.1"/>
  <path d="M 8.00260249999998,60.74762750000002 L 13.50260249999998,60.74762750000002" fill="none" stroke="rgb(0,178,0)" stroke-width="0.1"/>
  <path d="M 8.00260249999998,63.74762750000002 L 13.50260249999998,63.74762750000002" fill="none" stroke="rgb(0,178,0)" stroke-width="0.1"/>
  <path d="M 11.00260249999998,60.74762750000002 L 11.00260249999998,63.74762750000002" fill="none" stroke="rgb(0,178,0)" stroke-width="0.1"/>
  <path d="M 10.002502499999977,2.747627499999993 L 17.002502499999977,2.747627499999993" fill="none" stroke="rgb(0,178,0)" stroke-width="0.1"/>
  <path d="M 14.502502499999977,2.747627499999993 L 14.502502499999977,0.0" fill="none" stroke="rgb(0,178,0)" stroke-width="0.1"/>
  <path d="M 10.002502499999977,18.747627499999993 L 17.002502499999977,18.747627499999993" fill="none" stroke="rgb(0,178,0)" stroke-width="0.1"/>
  <path d="M 10.002502499999977,2.747627499999993 L 17.002502499999977,2.747627499999993" fill="none" stroke="rgb(0,178,0)" stroke-width="0.1"/>
  <path d="M 14.502502499999977,18.747627499999993 L 14.502502499999977,2.747627499999993" fill="none" stroke="rgb(0,178,0)" stroke-width="0.1"/>
  <path d="M 10.002502499999977,34.74762750000002 L 17.002502499999977,34.74762750000002" fill="none" stroke="rgb(0,178,0)" stroke-width="0.1"/>
  <path d="M 10.002502499999977,18.747627499999993 L 17.002502499999977,18.747627499999993" fill="none" stroke="rgb(0,178,0)" stroke-width="0.1"/>
  <path d="M 14.502502499999977,34.74762750000002 L 14.502502499999977,18.747627499999993" fill="none" stroke="rgb(0,178,0)" stroke-width="0.1"/>
  <path d="M 10.002502499999977,44.74762750000002 L 17.002502499999977,44.74762750000002" fill="none" stroke="rgb(0,178,0)" stroke-width="0.1"/>
  <path d="M 10.002502499999977,34.74762750000002 L 17.002502499999977,34.74762750000002" fill="none" stroke="rgb(0,178,0)" stroke-width="0.1"/>
  <path d="M 14.502502499999977,44.74762750000002 L 14.502502499999977,34.74762750000002" fill="none" stroke="rgb(0,178,0)" stroke-width="0.1"/>
  <path d="M 10.002502499999977,60.74762750000002 L 17.002502499999977,60.74762750000002" fill="none" stroke="rgb(0,178,0)" stroke-width="0.1"/>
  <path d="M 10.002502499999977,44.74762750000002 L 17.002502499999977,44.74762750000002" fill="none" stroke="rgb(0,178,0)" stroke-width="0.1"/>
  <path d="M 14.502502499999977,60.74762750000002 L 14.502502499999977,44.74762750000002" fill="none" stroke="rgb(0,178,0)" stroke-width="0.1"/>
  <path d="M 1.0025024999999772,42.42762749999997 L 1.0025024999999772,36.10762749999998" fill="none" stroke="rgb(0,178,0)" stroke-width="0.1"/>
  <path d="M 7.002502499999977,42.42762749999997 L 7.002502499999977,36.10762749999998" fill="none" stroke="rgb(0,178,0)" stroke-width="0.1"/>
  <path d="M 1.0025024999999772,38.60762749999998 L 7.002502499999977,38.60762749999998" fill="none" stroke="rgb(0,178,0)" stroke-width="0.1"/>
  <path d="M 10.002502499999977,76.74762750000002 L 17.002502499999977,76.74762750000002" fill="none" stroke="rgb(0,178,0)" stroke-width="0.1"/>
  <path d="M 10.002502499999977,60.74762750000002 L 17.002502499999977,60.74762750000002" fill="none" stroke="rgb(0,178,0)" stroke-width="0.1"/>
  <path d="M 14.502502499999977,76.74762750000002 L 14.502502499999977,60.74762750000002" fill="none" stroke="rgb(0,178,0)" stroke-width="0.1"/>
  <path d="M 10.002502499999977,86.74762750000002 L 17.002502499999977,86.74762750000002" fill="none" stroke="rgb(0,178,0)" stroke-width="0.1"/>
  <path d="M 10.002502499999977,76.74762750000002 L 17.002502499999977,76.74762750000002" fill="none" stroke="rgb(0,178,0)" stroke-width="0.1"/>
  <path d="M 14.502502499999977,86.74762750000002 L 14.502502499999977,76.74762750000002" fill="none" stroke="rgb(0,178,0)" stroke-width="0.1"/>
  <path d="M 10.002502499999977,86.74762750000002 L 17.002502499999977,86.74762750000002" fill="none" stroke="rgb(0,178,0)" stroke-width="0.1"/>
  <path d="M 14.502502499999977,100.0 L 14.502502499999977,86.74762750000002" fill="none" stroke="rgb(0,178,0)" stroke-width="0.1"/>
  <path d="M 1.0025024999999772,84.42762749999997 L 1.0025024999999772,78.10762749999998" fill="none" stroke="rgb(0,178,0)" stroke-width="0.1"/>
  <path d="M 7.002502499999977,84.42762749999997 L 7.002502499999977,78.10762749999998" fill="none" stroke="rgb(0,178,0)" stroke-width="0.1"/>
  <path d="M 1.0025024999999772,80.60762749999998 L 7.002502499999977,80.60762749999998" fill="none" stroke="rgb(0,178,0)" stroke-width="0.1"/>
  <text fill="rgb(0,178,0)" font-family="Noto Sans CJK SC" font-size="2" transform="rotate(-90.0,67.09070249999998,93.3976275)" x="67.09070249999998" y="93.3976275">
   1100
  </text>
  <text fill="rgb(0,178,0)" font-family="Noto Sans CJK SC" font-size="2" transform="rotate(-90.0,67.09070249999998,81.6476275)" x="67.09070249999998" y="81.6476275">
   1250
  </text>
  <text fill="rgb(0,178,0)" font-family="Noto Sans CJK SC" font-size="2" transform="rotate(-90.0,63.32770249999997,73.8976275)" x="63.32770249999997" y="73.8976275">
   100
  </text>
  <text fill="rgb(0,178,0)" font-family="Noto Sans CJK SC" font-size="2" transform="rotate(-90.0,67.09070249999998,68.49762750000002)" x="67.09070249999998" y="68.49762750000002">
   950
  </text>
  <text fill="rgb(0,178,0)" font-family="Noto Sans CJK SC" font-size="2" transform="rotate(-90.0,67.09070249999998,58.99762750000002)" x="67.09070249999998" y="58.99762750000002">
   950
  </text>
  <text fill="rgb(0,178,0)" font-family="Noto Sans CJK SC" font-size="2" transform="rotate(-90.0,63.32770249999997,53.8976275)" x="63.32770249999997" y="53.8976275">
   100
  </text>
  <text fill="rgb(0,178,0)" font-family="Noto Sans CJK SC" font-size="2" transform="rotate(-90.0,67.09070249999998,48.1476275)" x="67.09070249999998" y="48.1476275">
   1250
  </text>
  <text fill="rgb(0,178,0)" font-family="Noto Sans CJK SC" font-size="2" transform="rotate(-90.0,67.09070249999998,36.3976275)" x="67.09070249999998" y="36.3976275">
   1100
  </text>
  <text fill="rgb(0,178,0)" font-family="Noto Sans CJK SC" font-size="2" transform="rotate(-90.0,67.09070249999998,25.74762750000002)" x="67.09070249999998" y="25.74762750000002">
   800
  </text>
  <text fill="rgb(0,178,0)" font-family="Noto Sans CJK SC" font-size="2" transform="rotate(-90.0,67.09070249999998,17.747627499999993)" x="67.09070249999998" y="17.747627499999993">
   800
  </text>
  <text fill="rgb(0,178,0)" font-family="Noto Sans CJK SC" font-size="2" transform="rotate(-90.0,67.09070249999998,9.397627499999999)" x="67.09070249999998" y="9.397627499999999">
   1100
  </text>
  <text fill="rgb(0,178,0)" font-family="Noto Sans CJK SC" font-size="2" transform="rotate(-90.0,15.240102499999978,57.047627499999976)" x="15.240102499999978" y="57.047627499999976">
   300
  </text>
  <text fill="rgb(0,178,0)" font-family="Noto Sans CJK SC" font-size="2" transform="rotate(-90.0,15.240102499999978,70.44762750000001)" x="15.240102499999978" y="70.44762750000001">
   300
  </text>
  <text fill="rgb(0,178,0)" font-family="Noto Sans CJK SC" font-size="2" transform="rotate(-90.0,13.240002499999981,1.8976274999999987)" x="13.240002499999981" y="1.8976274999999987">
   1000
  </text>
  <text fill="rgb(0,178,0)" font-family="Noto Sans CJK SC" font-size="2" transform="rotate(-90.0,13.240002499999981,14.897627499999999)" x="13.240002499999981" y="14.897627499999999">
   1600
  </text>
  <text fill="rgb(0,178,0)" font-family="Noto Sans CJK SC" font-size="2" transform="rotate(-90.0,13.240002499999981,30.8976275)" x="13.240002499999981" y="30.8976275">
   1600
  </text>
  <text fill="rgb(0,178,0)" font-family="Noto Sans CJK SC" font-size="2" transform="rotate(-90.0,13.240002499999981,43.8976275)" x="13.240002499999981" y="43.8976275">
   1000
  </text>
  <text fill="rgb(0,178,0)" font-family="Noto Sans CJK SC" font-size="2" transform="rotate(-90.0,13.240002499999981,56.8976275)" x="13.240002499999981" y="56.8976275">
   1600
  </text>
  <text fill="rgb(0,178,0)" font-family="Noto Sans CJK SC" font-size="2" transform="rotate(-360.0,0.95250249999998,37.3446275)" x="0.95250249999998" y="37.3446275">
   600
  </text>
  <text fill="rgb(0,178,0)" font-family="Noto Sans CJK SC" font-size="2" transform="rotate(-90.0,13.240002499999981,72.8976275)" x="13.240002499999981" y="72.8976275">
   1600
  </text>
  <text fill="rgb(0,178,0)" font-family="Noto Sans CJK SC" font-size="2" transform="rotate(-90.0,13.240002499999981,85.8976275)" x="13.240002499999981" y="85.8976275">
   1000
  </text>
  <text fill="rgb(0,178,0)" font-family="Noto Sans CJK SC" font-size="2" transform="rotate(-90.0,13.240002499999981,98.8976275)" x="13.240002499999981" y="98.8976275">
   1600
  </text>
  <text fill="rgb(0,178,0)" font-family="Noto Sans CJK SC" font-size="2" transform="rotate(-360.0,0.95250249999998,79.3446275)" x="0.95250249999998" y="79.3446275">
   600
  </text>
 </g>
 <g id="layerPUB_TEXT" inkscape:groupmode="layer" inkscape:label="PUB_TEXT">
  <text fill="rgb(0,0,0)" font-family="Noto Sans CJK SC" font-size="2" transform="rotate(-0.0,32.47000249999998,85.75962750000002)" x="32.47000249999998" y="85.75962750000002">
   办公
  </text>
  <text fill="rgb(0,0,0)" font-family="Noto Sans CJK SC" font-size="2" transform="rotate(-0.0,32.47000249999998,43.13762750000001)" x="32.47000249999998" y="43.13762750000001">
   办公
  </text>
  <text fill="rgb(0,0,0)" font-family="Noto Sans CJK SC" font-size="2" transform="rotate(-0.0,32.47000249999998,0.9676274999999919)" x="32.47000249999998" y="0.9676274999999919">
   办公
  </text>
  <text fill="rgb(0,0,0)" font-family="Noto Sans CJK SC" font-size="2" transform="rotate(-0.0,36.39960249999997,92.7796275)" x="36.39960249999997" y="92.7796275">
   电动挡烟垂壁
  </text>
  <text fill="rgb(0,0,0)" font-family="Noto Sans CJK SC" font-size="2" transform="rotate(-0.0,34.03020249999997,98.37962749999997)" x="34.03020249999997" y="98.37962749999997">
   垂壁底距地
  </text>
  <text fill="rgb(0,0,0)" font-family="Noto Sans CJK SC" font-size="2" transform="rotate(-0.0,46.31740249999997,98.37962749999997)" x="46.31740249999997" y="98.37962749999997">
   1.7m
  </text>
  <text fill="rgb(0,0,0)" font-family="Noto Sans CJK SC" font-size="2" transform="rotate(-0.0,9.100802499999979,74.68162749999999)" x="9.100802499999979" y="74.68162749999999">
   玻璃栏板
  </text>
  <text fill="rgb(0,0,0)" font-family="Noto Sans CJK SC" font-size="2" transform="rotate(-0.0,18.930602499999978,74.68162749999999)" x="18.930602499999978" y="74.68162749999999">
   ,
  </text>
  <text fill="rgb(0,0,0)" font-family="Noto Sans CJK SC" font-size="2" transform="rotate(-0.0,19.930602499999978,74.68162749999999)" x="19.930602499999978" y="74.68162749999999">
   顶距完成面
  </text>
  <text fill="rgb(0,0,0)" font-family="Noto Sans CJK SC" font-size="2" transform="rotate(-0.0,32.217802499999976,74.68162749999999)" x="32.217802499999976" y="74.68162749999999">
   900
  </text>
  <text fill="rgb(0,0,0)" font-family="Noto Sans CJK SC" font-size="2" transform="rotate(-0.0,13.750802499999978,80.28162750000001)" x="13.750802499999978" y="80.28162750000001">
   由土建完成，大样另详
  </text>
 </g>
 <g id="layerS-上空线" inkscape:groupmode="layer" inkscape:label="S-上空线">
  <path d="M 74.50270249999998,51.24762750000002 L 74.50270249999998,59.74762750000002" fill="none" stroke="rgb(63,63,63)" stroke-width="0.1"/>
  <path d="M 74.50270249999998,59.74762750000002 L 78.50270249999997,59.74762750000002" fill="none" stroke="rgb(63,63,63)" stroke-width="0.1"/>
  <path d="M 78.50270249999997,59.74762750000002 L 78.50270249999997,51.24762750000002" fill="none" stroke="rgb(63,63,63)" stroke-width="0.1"/>
  <path d="M 78.50270249999997,51.24762750000002 L 74.50270249999998,51.24762750000002" fill="none" stroke="rgb(63,63,63)" stroke-width="0.1"/>
  <path d="M 74.50270249999998,70.24762750000002 L 74.50270249999998,61.74762750000002" fill="none" stroke="rgb(63,63,63)" stroke-width="0.1"/>
  <path d="M 74.50270249999998,61.74762750000002 L 78.50270249999997,61.74762750000002" fill="none" stroke="rgb(63,63,63)" stroke-width="0.1"/>
  <path d="M 78.50270249999997,61.74762750000002 L 78.50270249999997,70.24762750000002" fill="none" stroke="rgb(63,63,63)" stroke-width="0.1"/>
  <path d="M 78.50270249999997,70.24762750000002 L 74.50270249999998,70.24762750000002" fill="none" stroke="rgb(63,63,63)" stroke-width="0.1"/>
  <path d="M 74.60270249999998,51.34762749999999 L 75.20470249999998,53.0826275" fill="none" stroke="rgb(63,63,63)" stroke-width="0.1"/>
  <path d="M 75.20470249999998,53.0826275 L 78.40270249999998,53.6476275" fill="none" stroke="rgb(63,63,63)" stroke-width="0.1"/>
  <path d="M 74.60270249999998,70.1476275 L 75.20470249999998,68.41262749999999" fill="none" stroke="rgb(63,63,63)" stroke-width="0.1"/>
  <path d="M 75.20470249999998,68.41262749999999 L 78.40270249999998,67.84762749999999" fill="none" stroke="rgb(63,63,63)" stroke-width="0.1"/>
 </g>
 <g id="layerS-幕墙" inkscape:groupmode="layer" inkscape:label="S-幕墙">
  <path d="M 5.5026024999999805,100.0 L 5.5026024999999805,61.74762750000002" fill="none" instance-id="-1" semantic-id="1" stroke="rgb(0,0,178)" stroke-width="0.1"/>
  <path d="M 6.102602499999982,100.0 L 6.102602499999982,61.74762750000002" fill="none" instance-id="-1" semantic-id="1" stroke="rgb(0,0,178)" stroke-width="0.1"/>
  <path d="M 2.5026024999999805,100.0 L 2.5026024999999805,0.0" fill="none" instance-id="-1" semantic-id="1" stroke="rgb(0,178,178)" stroke-width="0.1"/>
  <path d="M 12.50260249999998,0.0 L 12.50260249999998,100.0" fill="none" instance-id="-1" semantic-id="1" stroke="rgb(0,178,178)" stroke-width="0.1"/>
  <path d="M 4.0026024999999805,0.0 L 4.0026024999999805,100.0" fill="none" instance-id="-1" semantic-id="1" stroke="rgb(0,178,178)" stroke-width="0.1"/>
  <path d="M 1.0026024999999805,0.0 L 1.0026024999999805,100.0" fill="none" instance-id="-1" semantic-id="1" stroke="rgb(0,178,178)" stroke-width="0.1"/>
  <path d="M 3.403002499999978,0.0 L 3.403002499999978,60.3976275" fill="none" instance-id="-1" semantic-id="1" stroke="rgb(0,0,178)" stroke-width="0.1"/>
  <path d="M 1.0025024999999772,0.0 L 1.0025024999999772,2.747627499999993" fill="none" instance-id="-1" semantic-id="1" stroke="rgb(0,178,178)" stroke-width="0.1"/>
  <path d="M 1.0025024999999772,2.747627499999993 L 7.002502499999977,2.747627499999993" fill="none" instance-id="-1" semantic-id="1" stroke="rgb(0,178,178)" stroke-width="0.1"/>
  <path d="M 7.002502499999977,2.747627499999993 L 7.002502499999977,0.0" fill="none" instance-id="-1" semantic-id="1" stroke="rgb(0,178,178)" stroke-width="0.1"/>
  <path d="M 1.0025024999999772,34.74762750000002 L 1.0025024999999772,44.74762750000002" fill="none" instance-id="-1" semantic-id="1" stroke="rgb(0,178,178)" stroke-width="0.1"/>
  <path d="M 1.0025024999999772,44.74762750000002 L 7.002502499999977,44.74762750000002" fill="none" instance-id="-1" semantic-id="1" stroke="rgb(0,178,178)" stroke-width="0.1"/>
  <path d="M 7.002502499999977,44.74762750000002 L 7.002502499999977,34.74762750000002" fill="none" instance-id="-1" semantic-id="1" stroke="rgb(0,178,178)" stroke-width="0.1"/>
  <path d="M 7.002502499999977,34.74762750000002 L 1.0025024999999772,34.74762750000002" fill="none" instance-id="-1" semantic-id="1" stroke="rgb(0,178,178)" stroke-width="0.1"/>
  <path d="M 1.0025024999999772,76.74762750000002 L 1.0025024999999772,86.74762750000002" fill="none" instance-id="-1" semantic-id="1" stroke="rgb(0,178,178)" stroke-width="0.1"/>
  <path d="M 1.0025024999999772,86.74762750000002 L 7.002502499999977,86.74762750000002" fill="none" instance-id="-1" semantic-id="1" stroke="rgb(0,178,178)" stroke-width="0.1"/>
  <path d="M 7.002502499999977,86.74762750000002 L 7.002502499999977,76.74762750000002" fill="none" instance-id="-1" semantic-id="1" stroke="rgb(0,178,178)" stroke-width="0.1"/>
  <path d="M 7.002502499999977,76.74762750000002 L 1.0025024999999772,76.74762750000002" fill="none" instance-id="-1" semantic-id="1" stroke="rgb(0,178,178)" stroke-width="0.1"/>
  <path d="M 6.461769407999981,0.0 L 7.002502499999977,2.747627499999993" fill="none" instance-id="-1" semantic-id="1" stroke="rgb(0,178,178)" stroke-width="0.1"/>
  <path d="M 1.0025024999999772,34.74762750000002 L 2.780502499999976,35.99762750000002" fill="none" instance-id="-1" semantic-id="1" stroke="rgb(0,178,178)" stroke-width="0.1"/>
  <path d="M 2.780502499999976,35.99762750000002 L 7.002502499999977,44.74762750000002" fill="none" instance-id="-1" semantic-id="1" stroke="rgb(0,178,178)" stroke-width="0.1"/>
  <path d="M 1.0025024999999772,76.74762750000002 L 5.280502499999976,77.99762750000002" fill="none" instance-id="-1" semantic-id="1" stroke="rgb(0,178,178)" stroke-width="0.1"/>
  <path d="M 5.280502499999976,77.99762750000002 L 7.002502499999977,86.74762750000002" fill="none" instance-id="-1" semantic-id="1" stroke="rgb(0,178,178)" stroke-width="0.1"/>
 </g>
 <g id="layerS-幕墙开启扇" inkscape:groupmode="layer" inkscape:label="S-幕墙开启扇">
  <path d="M 0.0,46.74762750000002 L 1.0026024999999805,46.74762750000002" fill="none" stroke="rgb(121,121,121)" stroke-width="0.1"/>
  <path d="M 1.0026024999999805,46.74762750000002 L 1.0026024999999805,60.74762750000002" fill="none" stroke="rgb(121,121,121)" stroke-width="0.1"/>
  <path d="M 1.0026024999999805,60.74762750000002 L 0.0,60.74762750000002" fill="none" stroke="rgb(121,121,121)" stroke-width="0.1"/>
  <path d="M 0.0,50.75803749999994 L 1.0026024999999805,46.74762750000002" fill="none" stroke="rgb(121,121,121)" stroke-width="0.1"/>
  <path d="M 1.0026024999999805,46.74762750000002 L 0.0,46.74762750000002" fill="none" stroke="rgb(121,121,121)" stroke-width="0.1"/>
  <path d="M 0.0,56.7372175000001 L 1.0026024999999805,60.74762750000002" fill="none" stroke="rgb(121,121,121)" stroke-width="0.1"/>
  <path d="M 0.0,74.74762750000002 L 1.0026024999999805,74.74762750000002" fill="none" stroke="rgb(121,121,121)" stroke-width="0.1"/>
  <path d="M 1.0026024999999805,74.74762750000002 L 1.0026024999999805,60.74762750000002" fill="none" stroke="rgb(121,121,121)" stroke-width="0.1"/>
  <path d="M 1.0026024999999805,60.74762750000002 L 0.0,60.74762750000002" fill="none" stroke="rgb(121,121,121)" stroke-width="0.1"/>
  <path d="M 0.0,70.7372175000001 L 1.0026024999999805,74.74762750000002" fill="none" stroke="rgb(121,121,121)" stroke-width="0.1"/>
  <path d="M 1.0026024999999805,74.74762750000002 L 0.0,74.74762750000002" fill="none" stroke="rgb(121,121,121)" stroke-width="0.1"/>
  <path d="M 0.0,64.75803749999994 L 1.0026024999999805,60.74762750000002" fill="none" stroke="rgb(121,121,121)" stroke-width="0.1"/>
  <path d="M 0.0,46.74562750000001 L 1.0082024999999817,46.74562750000001" fill="none" stroke="rgb(121,121,121)" stroke-width="0.1"/>
  <path d="M 1.0082024999999817,46.74562750000001 L 1.0082024999999817,51.74562750000001" fill="none" stroke="rgb(121,121,121)" stroke-width="0.1"/>
  <path d="M 1.0082024999999817,51.74562750000001 L 0.0,51.74562750000001" fill="none" stroke="rgb(121,121,121)" stroke-width="0.1"/>
  <path d="M 0.0,48.185916785714255 L 1.0082024999999817,46.74562750000001" fill="none" stroke="rgb(121,121,121)" stroke-width="0.1"/>
  <path d="M 1.0082024999999817,46.74562750000001 L 0.0,46.74562750000001" fill="none" stroke="rgb(121,121,121)" stroke-width="0.1"/>
  <path d="M 0.0,50.30533821428577 L 1.0082024999999817,51.74562750000001" fill="none" stroke="rgb(121,121,121)" stroke-width="0.1"/>
  <path d="M 0.0,69.74562750000001 L 1.0082024999999817,69.74562750000001" fill="none" stroke="rgb(121,121,121)" stroke-width="0.1"/>
  <path d="M 1.0082024999999817,69.74562750000001 L 1.0082024999999817,74.74562750000001" fill="none" stroke="rgb(121,121,121)" stroke-width="0.1"/>
  <path d="M 1.0082024999999817,74.74562750000001 L 0.0,74.74562750000001" fill="none" stroke="rgb(121,121,121)" stroke-width="0.1"/>
  <path d="M 0.0,71.18591678571426 L 1.0082024999999817,69.74562750000001" fill="none" stroke="rgb(121,121,121)" stroke-width="0.1"/>
  <path d="M 1.0082024999999817,69.74562750000001 L 0.0,69.74562750000001" fill="none" stroke="rgb(121,121,121)" stroke-width="0.1"/>
  <path d="M 0.0,73.30533821428577 L 1.0082024999999817,74.74562750000001" fill="none" stroke="rgb(121,121,121)" stroke-width="0.1"/>
 </g>
 <g id="layerS-看线" inkscape:groupmode="layer" inkscape:label="S-看线">
  <path d="M 98.50270249999997,98.82462750000002 L 81.50270249999997,98.82462750000002" fill="none" instance-id="-1" semantic-id="1" stroke="rgb(178,0,178)" stroke-width="0.1"/>
  <path d="M 74.60270249999998,51.34762749999999 L 74.60270249999998,53.6476275" fill="none" instance-id="-1" semantic-id="1" stroke="rgb(0,178,178)" stroke-width="0.1"/>
  <path d="M 74.60270249999998,53.6476275 L 78.40270249999998,53.6476275" fill="none" instance-id="-1" semantic-id="1" stroke="rgb(0,178,178)" stroke-width="0.1"/>
  <path d="M 78.40270249999998,53.6476275 L 78.40270249999998,51.34762749999999" fill="none" instance-id="-1" semantic-id="1" stroke="rgb(0,178,178)" stroke-width="0.1"/>
  <path d="M 78.40270249999998,51.34762749999999 L 74.60270249999998,51.34762749999999" fill="none" instance-id="-1" semantic-id="1" stroke="rgb(0,178,178)" stroke-width="0.1"/>
  <path d="M 74.60270249999998,70.1476275 L 74.60270249999998,67.84762749999999" fill="none" instance-id="-1" semantic-id="1" stroke="rgb(0,178,178)" stroke-width="0.1"/>
  <path d="M 74.60270249999998,67.84762749999999 L 78.40270249999998,67.84762749999999" fill="none" instance-id="-1" semantic-id="1" stroke="rgb(0,178,178)" stroke-width="0.1"/>
  <path d="M 78.40270249999998,67.84762749999999 L 78.40270249999998,70.1476275" fill="none" instance-id="-1" semantic-id="1" stroke="rgb(0,178,178)" stroke-width="0.1"/>
  <path d="M 78.40270249999998,70.1476275 L 74.60270249999998,70.1476275" fill="none" instance-id="-1" semantic-id="1" stroke="rgb(0,178,178)" stroke-width="0.1"/>
  <path d="M 74.50270249999998,51.24762750000002 L 74.50270249999998,53.74762750000002" fill="none" instance-id="-1" semantic-id="1" stroke="rgb(0,178,178)" stroke-width="0.1"/>
  <path d="M 74.50270249999998,53.74762750000002 L 78.50270249999997,53.74762750000002" fill="none" instance-id="-1" semantic-id="1" stroke="rgb(0,178,178)" stroke-width="0.1"/>
  <path d="M 78.50270249999997,53.74762750000002 L 78.50270249999997,51.24762750000002" fill="none" instance-id="-1" semantic-id="1" stroke="rgb(0,178,178)" stroke-width="0.1"/>
  <path d="M 78.50270249999997,51.24762750000002 L 74.50270249999998,51.24762750000002" fill="none" instance-id="-1" semantic-id="1" stroke="rgb(0,178,178)" stroke-width="0.1"/>
  <path d="M 74.50270249999998,70.24762750000002 L 74.50270249999998,67.74762750000002" fill="none" instance-id="-1" semantic-id="1" stroke="rgb(0,178,178)" stroke-width="0.1"/>
  <path d="M 74.50270249999998,67.74762750000002 L 78.50270249999997,67.74762750000002" fill="none" instance-id="-1" semantic-id="1" stroke="rgb(0,178,178)" stroke-width="0.1"/>
  <path d="M 78.50270249999997,67.74762750000002 L 78.50270249999997,70.24762750000002" fill="none" instance-id="-1" semantic-id="1" stroke="rgb(0,178,178)" stroke-width="0.1"/>
  <path d="M 78.50270249999997,70.24762750000002 L 74.50270249999998,70.24762750000002" fill="none" instance-id="-1" semantic-id="1" stroke="rgb(0,178,178)" stroke-width="0.1"/>
  <circle cx="5.0026024999999805" cy="57.74762750000002" fill="none" r="0.4" stroke="rgb(0,178,178)" stroke-width="0.1"/>
  <circle cx="5.0026024999999805" cy="63.74762750000002" fill="none" r="0.4" stroke="rgb(0,178,178)" stroke-width="0.1"/>
 </g>
 <g id="layerS-结构钢柱" inkscape:groupmode="layer" inkscape:label="S-结构钢柱">
  <path d="M 10.00260249999998,100.0 L 10.00260249999998,99.99762750000002" fill="none" instance-id="-1" semantic-id="1" stroke="rgb(178,178,0)" stroke-width="0.1"/>
  <path d="M 10.00260249999998,99.99762750000002 L 4.5026024999999805,99.99762750000002" fill="none" instance-id="-1" semantic-id="1" stroke="rgb(178,178,0)" stroke-width="0.1"/>
  <path d="M 4.5026024999999805,99.99762750000002 L 4.5026024999999805,100.0" fill="none" instance-id="-1" semantic-id="1" stroke="rgb(178,178,0)" stroke-width="0.1"/>
  <path d="M 4.5026024999999805,21.497627499999993 L 10.00260249999998,21.497627499999993" fill="none" instance-id="-1" semantic-id="1" stroke="rgb(178,178,0)" stroke-width="0.1"/>
  <path d="M 10.00260249999998,21.497627499999993 L 10.00260249999998,15.997627499999993" fill="none" instance-id="-1" semantic-id="1" stroke="rgb(178,178,0)" stroke-width="0.1"/>
  <path d="M 10.00260249999998,15.997627499999993 L 4.5026024999999805,15.997627499999993" fill="none" instance-id="-1" semantic-id="1" stroke="rgb(178,178,0)" stroke-width="0.1"/>
  <path d="M 4.5026024999999805,15.997627499999993 L 4.5026024999999805,21.497627499999993" fill="none" instance-id="-1" semantic-id="1" stroke="rgb(178,178,0)" stroke-width="0.1"/>
  <path d="M 4.7526024999999805,21.247627499999993 L 9.75260249999998,21.247627499999993" fill="none" instance-id="-1" semantic-id="1" stroke="rgb(178,178,0)" stroke-width="0.1"/>
  <path d="M 9.75260249999998,21.247627499999993 L 9.75260249999998,16.247627499999993" fill="none" instance-id="-1" semantic-id="1" stroke="rgb(178,178,0)" stroke-width="0.1"/>
  <path d="M 9.75260249999998,16.247627499999993 L 4.7526024999999805,16.247627499999993" fill="none" instance-id="-1" semantic-id="1" stroke="rgb(178,178,0)" stroke-width="0.1"/>
  <path d="M 4.7526024999999805,16.247627499999993 L 4.7526024999999805,21.247627499999993" fill="none" instance-id="-1" semantic-id="1" stroke="rgb(178,178,0)" stroke-width="0.1"/>
  <path d="M 76.00270249999998,21.497627499999993 L 81.50270249999997,21.497627499999993" fill="none" instance-id="-1" semantic-id="1" stroke="rgb(178,178,0)" stroke-width="0.1"/>
  <path d="M 81.50270249999997,21.497627499999993 L 81.50270249999997,15.997627499999993" fill="none" instance-id="-1" semantic-id="1" stroke="rgb(178,178,0)" stroke-width="0.1"/>
  <path d="M 81.50270249999997,15.997627499999993 L 76.00270249999998,15.997627499999993" fill="none" instance-id="-1" semantic-id="1" stroke="rgb(178,178,0)" stroke-width="0.1"/>
  <path d="M 76.00270249999998,15.997627499999993 L 76.00270249999998,21.497627499999993" fill="none" instance-id="-1" semantic-id="1" stroke="rgb(178,178,0)" stroke-width="0.1"/>
  <path d="M 76.25270249999998,21.247627499999993 L 81.25270249999997,21.247627499999993" fill="none" instance-id="-1" semantic-id="1" stroke="rgb(178,178,0)" stroke-width="0.1"/>
  <path d="M 81.25270249999997,21.247627499999993 L 81.25270249999997,16.247627499999993" fill="none" instance-id="-1" semantic-id="1" stroke="rgb(178,178,0)" stroke-width="0.1"/>
  <path d="M 81.25270249999997,16.247627499999993 L 76.25270249999998,16.247627499999993" fill="none" instance-id="-1" semantic-id="1" stroke="rgb(178,178,0)" stroke-width="0.1"/>
  <path d="M 76.25270249999998,16.247627499999993 L 76.25270249999998,21.247627499999993" fill="none" instance-id="-1" semantic-id="1" stroke="rgb(178,178,0)" stroke-width="0.1"/>
  <path d="M 4.7526024999999805,21.247627499999993 L 9.75260249999998,21.247627499999993" fill="none" instance-id="-1" semantic-id="1" stroke="rgb(63,63,63)" stroke-width="0.1"/>
  <path d="M 9.75260249999998,21.247627499999993 L 9.75260249999998,16.247627499999993" fill="none" instance-id="-1" semantic-id="1" stroke="rgb(63,63,63)" stroke-width="0.1"/>
  <path d="M 9.75260249999998,16.247627499999993 L 4.7526024999999805,16.247627499999993" fill="none" instance-id="-1" semantic-id="1" stroke="rgb(63,63,63)" stroke-width="0.1"/>
  <path d="M 4.7526024999999805,16.247627499999993 L 4.7526024999999805,21.247627499999993" fill="none" instance-id="-1" semantic-id="1" stroke="rgb(63,63,63)" stroke-width="0.1"/>
  <path d="M 76.25270249999998,21.247627499999993 L 81.25270249999997,21.247627499999993" fill="none" instance-id="-1" semantic-id="1" stroke="rgb(63,63,63)" stroke-width="0.1"/>
  <path d="M 81.25270249999997,21.247627499999993 L 81.25270249999997,16.247627499999993" fill="none" instance-id="-1" semantic-id="1" stroke="rgb(63,63,63)" stroke-width="0.1"/>
  <path d="M 81.25270249999997,16.247627499999993 L 76.25270249999998,16.247627499999993" fill="none" instance-id="-1" semantic-id="1" stroke="rgb(63,63,63)" stroke-width="0.1"/>
  <path d="M 76.25270249999998,16.247627499999993 L 76.25270249999998,21.247627499999993" fill="none" instance-id="-1" semantic-id="1" stroke="rgb(63,63,63)" stroke-width="0.1"/>
 </g>
 <g id="layerVPIPE-凝结" inkscape:groupmode="layer" inkscape:label="VPIPE-凝结">
  <circle cx="5.906302499999981" cy="15.279627500000004" fill="none" r="0.6" stroke="rgb(0,88,178)" stroke-width="0.1"/>
  <circle cx="5.7955024999999765" cy="99.02562749999998" fill="none" r="0.6" stroke="rgb(0,88,178)" stroke-width="0.1"/>
 </g>
 <g id="layerVPIPE-消防" inkscape:groupmode="layer" inkscape:label="VPIPE-消防">
  <circle cx="78.30070249999997" cy="54.94662749999998" fill="none" r="0.6" stroke="rgb(178,0,0)" stroke-width="0.1"/>
 </g>
 <g id="layerWALL" inkscape:groupmode="layer" inkscape:label="WALL">
  <path d="M 81.50270249999997,18.747627499999993 L 81.50270249999997,10.747627499999993" fill="none" instance-id="-1" semantic-id="1" stroke="rgb(178,178,0)" stroke-width="0.1"/>
  <path d="M 81.50270249999997,10.747627499999993 L 79.50270249999997,10.747627499999993" fill="none" instance-id="-1" semantic-id="1" stroke="rgb(178,178,0)" stroke-width="0.1"/>
  <path d="M 79.50270249999997,10.747627499999993 L 79.50270249999997,17.747627499999993" fill="none" instance-id="-1" semantic-id="1" stroke="rgb(178,178,0)" stroke-width="0.1"/>
  <path d="M 81.50270249999997,100.0 L 81.50270249999997,94.74762750000002" fill="none" instance-id="-1" semantic-id="1" stroke="rgb(178,178,0)" stroke-width="0.1"/>
  <path d="M 81.50270249999997,94.74762750000002 L 79.50270249999997,94.74762750000002" fill="none" instance-id="-1" semantic-id="1" stroke="rgb(178,178,0)" stroke-width="0.1"/>
  <path d="M 79.50270249999997,94.74762750000002 L 79.50270249999997,100.0" fill="none" instance-id="-1" semantic-id="1" stroke="rgb(178,178,0)" stroke-width="0.1"/>
  <path d="M 79.50270249999997,71.24762750000002 L 79.50270249999997,83.74762750000002" fill="none" instance-id="-1" semantic-id="1" stroke="rgb(178,178,0)" stroke-width="0.1"/>
  <path d="M 79.50270249999997,83.74762750000002 L 81.50270249999997,83.74762750000002" fill="none" instance-id="-1" semantic-id="1" stroke="rgb(178,178,0)" stroke-width="0.1"/>
  <path d="M 81.50270249999997,83.74762750000002 L 81.50270249999997,71.24762750000002" fill="none" instance-id="-1" semantic-id="1" stroke="rgb(178,178,0)" stroke-width="0.1"/>
  <path d="M 81.50270249999997,71.24762750000002 L 79.50270249999997,71.24762750000002" fill="none" instance-id="-1" semantic-id="1" stroke="rgb(178,178,0)" stroke-width="0.1"/>
  <path d="M 4.0026024999999805,59.74762750000002 L 73.50270249999998,59.74762750000002" fill="none" instance-id="-1" semantic-id="1" stroke="rgb(178,178,0)" stroke-width="0.1"/>
  <path d="M 4.0026024999999805,61.74762750000002 L 73.50270249999998,61.74762750000002" fill="none" instance-id="-1" semantic-id="1" stroke="rgb(178,178,0)" stroke-width="0.1"/>
  <path d="M 4.0026024999999805,59.74762750000002 L 4.0026024999999805,61.74762750000002" fill="none" instance-id="-1" semantic-id="1" stroke="rgb(178,178,0)" stroke-width="0.1"/>
  <path d="M 73.50270249999998,59.74762750000002 L 73.50270249999998,61.74762750000002" fill="none" instance-id="-1" semantic-id="1" stroke="rgb(178,178,0)" stroke-width="0.1"/>
  <path d="M 4.0026024999999805,17.747627499999993 L 79.50270249999997,17.747627499999993" fill="none" instance-id="-1" semantic-id="1" stroke="rgb(178,178,0)" stroke-width="0.1"/>
  <path d="M 4.0026024999999805,19.747627499999993 L 79.50270249999997,19.747627499999993" fill="none" instance-id="-1" semantic-id="1" stroke="rgb(178,178,0)" stroke-width="0.1"/>
  <path d="M 4.0026024999999805,17.747627499999993 L 4.0026024999999805,19.747627499999993" fill="none" instance-id="-1" semantic-id="1" stroke="rgb(178,178,0)" stroke-width="0.1"/>
  <path d="M 79.50270249999997,19.747627499999993 L 79.50270249999997,26.74762750000002" fill="none" instance-id="-1" semantic-id="1" stroke="rgb(178,178,0)" stroke-width="0.1"/>
  <path d="M 79.50270249999997,26.74762750000002 L 81.50270249999997,26.74762750000002" fill="none" instance-id="-1" semantic-id="1" stroke="rgb(178,178,0)" stroke-width="0.1"/>
  <path d="M 81.50270249999997,26.74762750000002 L 81.50270249999997,18.747627499999993" fill="none" instance-id="-1" semantic-id="1" stroke="rgb(178,178,0)" stroke-width="0.1"/>
  <path d="M 81.50270249999997,50.24762750000002 L 81.50270249999997,37.74762750000002" fill="none" instance-id="-1" semantic-id="1" stroke="rgb(178,178,0)" stroke-width="0.1"/>
  <path d="M 81.50270249999997,37.74762750000002 L 79.50270249999997,37.74762750000002" fill="none" instance-id="-1" semantic-id="1" stroke="rgb(178,178,0)" stroke-width="0.1"/>
  <path d="M 79.50270249999997,37.74762750000002 L 79.50270249999997,50.24762750000002" fill="none" instance-id="-1" semantic-id="1" stroke="rgb(178,178,0)" stroke-width="0.1"/>
  <path d="M 79.50270249999997,50.24762750000002 L 81.50270249999997,50.24762750000002" fill="none" instance-id="-1" semantic-id="1" stroke="rgb(178,178,0)" stroke-width="0.1"/>
  <path d="M 98.50270249999997,100.0 L 98.50270249999997,93.74762750000002" fill="none" instance-id="-1" semantic-id="1" stroke="rgb(178,178,0)" stroke-width="0.1"/>
  <path d="M 98.50270249999997,93.74762750000002 L 100.0,93.74762750000002" fill="none" instance-id="-1" semantic-id="1" stroke="rgb(178,178,0)" stroke-width="0.1"/>
  <path d="M 73.50270249999998,50.24762750000002 L 81.50270249999997,50.24762750000002" fill="none" instance-id="-1" semantic-id="1" stroke="rgb(178,178,0)" stroke-width="0.1"/>
  <path d="M 74.50270249999998,51.24762750000002 L 79.50270249999997,51.24762750000002" fill="none" instance-id="-1" semantic-id="1" stroke="rgb(178,178,0)" stroke-width="0.1"/>
  <path d="M 74.50270249999998,51.24762750000002 L 74.50270249999998,70.24762750000002" fill="none" instance-id="-1" semantic-id="1" stroke="rgb(178,178,0)" stroke-width="0.1"/>
  <path d="M 73.50270249999998,50.24762750000002 L 73.50270249999998,71.24762750000002" fill="none" instance-id="-1" semantic-id="1" stroke="rgb(178,178,0)" stroke-width="0.1"/>
  <path d="M 81.50270249999997,50.24762750000002 L 81.50270249999997,71.24762750000002" fill="none" instance-id="-1" semantic-id="1" stroke="rgb(178,178,0)" stroke-width="0.1"/>
  <path d="M 79.50270249999997,51.24762750000002 L 79.50270249999997,70.24762750000002" fill="none" instance-id="-1" semantic-id="1" stroke="rgb(178,178,0)" stroke-width="0.1"/>
  <path d="M 74.50270249999998,70.24762750000002 L 79.50270249999997,70.24762750000002" fill="none" instance-id="-1" semantic-id="1" stroke="rgb(178,178,0)" stroke-width="0.1"/>
  <path d="M 73.50270249999998,71.24762750000002 L 81.50270249999997,71.24762750000002" fill="none" instance-id="-1" semantic-id="1" stroke="rgb(178,178,0)" stroke-width="0.1"/>
  <path d="M 73.50270249999998,71.24762750000002 L 81.50270249999997,71.24762750000002" fill="none" instance-id="-1" semantic-id="1" stroke="rgb(178,178,0)" stroke-width="0.1"/>
  <path d="M 81.50270249999997,71.24762750000002 L 81.50270249999997,50.24762750000002" fill="none" instance-id="-1" semantic-id="1" stroke="rgb(178,178,0)" stroke-width="0.1"/>
  <path d="M 81.50270249999997,50.24762750000002 L 73.50270249999998,50.24762750000002" fill="none" instance-id="-1" semantic-id="1" stroke="rgb(178,178,0)" stroke-width="0.1"/>
  <path d="M 73.50270249999998,50.24762750000002 L 73.50270249999998,71.24762750000002" fill="none" instance-id="-1" semantic-id="1" stroke="rgb(178,178,0)" stroke-width="0.1"/>
 </g>
 <g id="layerWINDOW" inkscape:groupmode="layer" inkscape:label="WINDOW">
  <path d="M 69.77770249999998,0.2976275000000044 L 69.77770249999998,0.0" fill="none" instance-id="3" semantic-id="3" stroke="rgb(0,178,178)" stroke-width="0.1"/>
  <path d="M 80.50270249999997,0.0 L 80.50270249999997,0.2976275000000044" fill="none" instance-id="3" semantic-id="3" stroke="rgb(0,178,178)" stroke-width="0.1"/>
  <path d="M 80.50270249999997,0.2976275000000044 L 69.77770249999998,0.2976275000000044" fill="none" instance-id="3" semantic-id="3" stroke="rgb(0,178,178)" stroke-width="0.1"/>
  <path d="M 69.77770249999998,84.29762749999998 L 69.77770249999998,83.74762750000002" fill="none" instance-id="5" semantic-id="3" stroke="rgb(0,178,178)" stroke-width="0.1"/>
  <path d="M 80.50270249999997,83.74762750000002 L 80.50270249999997,84.29762749999998" fill="none" instance-id="5" semantic-id="3" stroke="rgb(0,178,178)" stroke-width="0.1"/>
  <path d="M 80.50270249999997,83.74762750000002 L 69.77770249999998,83.74762750000002" fill="none" instance-id="5" semantic-id="3" stroke="rgb(0,178,178)" stroke-width="0.1"/>
  <path d="M 80.50270249999997,84.29762749999998 L 69.77770249999998,84.29762749999998" fill="none" instance-id="5" semantic-id="3" stroke="rgb(0,178,178)" stroke-width="0.1"/>
  <path d="M 69.77770249999998,37.19762750000001 L 69.77770249999998,37.74762750000002" fill="none" instance-id="4" semantic-id="3" stroke="rgb(0,178,178)" stroke-width="0.1"/>
  <path d="M 80.50270249999997,37.74762750000002 L 80.50270249999997,37.19762750000001" fill="none" instance-id="4" semantic-id="3" stroke="rgb(0,178,178)" stroke-width="0.1"/>
  <path d="M 80.50270249999997,37.74762750000002 L 69.77770249999998,37.74762750000002" fill="none" instance-id="4" semantic-id="3" stroke="rgb(0,178,178)" stroke-width="0.1"/>
  <path d="M 80.50270249999997,37.19762750000001 L 69.77770249999998,37.19762750000001" fill="none" instance-id="4" semantic-id="3" stroke="rgb(0,178,178)" stroke-width="0.1"/>
  <path d="M 69.78070249999998,0.2976275000000044 A 10.725,10.725 0.0 0,0 80.50270249999997,10.747627499999993" fill="none" instance-id="3" semantic-id="3" stroke="rgb(0,178,178)" stroke-width="0.1"/>
  <path d="M 69.78070249999998,84.29762749999998 A 10.725,10.725 0.0 0,0 80.50270249999997,94.74762750000002" fill="none" instance-id="5" semantic-id="3" stroke="rgb(0,178,178)" stroke-width="0.1"/>
  <path d="M 80.50270249999997,26.74762750000002 A 10.725,10.725 0.0 0,0 69.78070249999998,37.19762750000001" fill="none" instance-id="4" semantic-id="3" stroke="rgb(0,178,178)" stroke-width="0.1"/>
 </g>
 <g id="layerWINDOW_TEXT" inkscape:groupmode="layer" inkscape:label="WINDOW_TEXT">
  <text fill="rgb(0,0,0)" font-family="Noto Sans CJK SC" font-size="2" transform="rotate(-90.0,0.24570249999997884,52.94662749999998)" x="0.24570249999997884" y="52.94662749999998">
   PTC2
  </text>
  <text fill="rgb(0,0,0)" font-family="Noto Sans CJK SC" font-size="2" transform="rotate(-90.0,0.24570249999997884,75.94662749999998)" x="0.24570249999997884" y="75.94662749999998">
   PTC2
  </text>
  <text fill="rgb(0,0,0)" font-family="Noto Sans CJK SC" font-size="2" transform="rotate(-90.0,85.73970249999996,9.797627500000004)" x="85.73970249999996" y="9.797627500000004">
   M1124
  </text>
  <text fill="rgb(0,0,0)" font-family="Noto Sans CJK SC" font-size="2" transform="rotate(-90.0,85.73970249999996,93.79762749999998)" x="85.73970249999996" y="93.79762749999998">
   M1124
  </text>
  <text fill="rgb(0,0,0)" font-family="Noto Sans CJK SC" font-size="2" transform="rotate(-90.0,85.73970249999996,36.797627499999976)" x="85.73970249999996" y="36.797627499999976">
   M1124
  </text>
 </g>
 <g id="layer开启扇统计" inkscape:groupmode="layer" inkscape:label="开启扇统计">
  <path d="M 2.5082024999999817,51.74662749999999 L 2.5082024999999817,46.74662749999999" fill="none" stroke="rgb(0,0,178)" stroke-width="0.1"/>
  <path d="M 3.0082024999999817,46.74662749999999 L 3.0082024999999817,51.74662749999999" fill="none" stroke="rgb(0,0,178)" stroke-width="0.1"/>
  <path d="M 2.0082024999999817,46.74662749999999 L 2.0082024999999817,51.74662749999999" fill="none" stroke="rgb(0,0,178)" stroke-width="0.1"/>
  <path d="M 3.0082024999999817,46.74662749999999 L 2.0082024999999817,46.74662749999999" fill="none" stroke="rgb(0,0,178)" stroke-width="0.1"/>
  <path d="M 3.0082024999999817,51.74662749999999 L 2.0082024999999817,51.74662749999999" fill="none" stroke="rgb(0,0,178)" stroke-width="0.1"/>
  <path d="M 2.5082024999999817,74.74662749999999 L 2.5082024999999817,69.74662749999999" fill="none" stroke="rgb(0,0,178)" stroke-width="0.1"/>
  <path d="M 3.0082024999999817,69.74662749999999 L 3.0082024999999817,74.74662749999999" fill="none" stroke="rgb(0,0,178)" stroke-width="0.1"/>
  <path d="M 2.0082024999999817,69.74662749999999 L 2.0082024999999817,74.74662749999999" fill="none" stroke="rgb(0,0,178)" stroke-width="0.1"/>
  <path d="M 3.0082024999999817,69.74662749999999 L 2.0082024999999817,69.74662749999999" fill="none" stroke="rgb(0,0,178)" stroke-width="0.1"/>
  <path d="M 3.0082024999999817,74.74662749999999 L 2.0082024999999817,74.74662749999999" fill="none" stroke="rgb(0,0,178)" stroke-width="0.1"/>
 </g>
</svg>