<?xml version="1.0" encoding="utf-8"?>
<svg style="background-color: #000;" version="1.1" viewBox="0 0 100.0 100.0" xmlns="http://www.w3.org/2000/svg" xmlns:inkscape="http://www.inkscape.org/namespaces/inkscape">
 <g id="layerDIM_SYMB" inkscape:groupmode="layer" inkscape:label="DIM_SYMB">
  <path d="M 49.71118100000001,86.44503 L 36.43118100000001,86.44503" fill="none" stroke="rgb(0,178,0)" stroke-width="0.1"/>
  <path d="M 36.43118100000001,86.44503 L 39.43118100000001,86.44503" fill="none" stroke="rgb(0,178,0)" stroke-width="0.1"/>
  <path d="M 44.091181000000006,71.19503 L 8.776181000000008,71.19503" fill="none" stroke="rgb(0,178,0)" stroke-width="0.1"/>
  <path d="M 8.776181000000008,71.19503 L 8.776181000000008,86.44503" fill="none" stroke="rgb(0,178,0)" stroke-width="0.1"/>
  <path d="M 8.776181000000008,86.44503 L 27.936181000000005,86.44503" fill="none" stroke="rgb(0,178,0)" stroke-width="0.1"/>
  <path d="M 27.936181000000005,86.44503 L 24.936181000000005,86.44503" fill="none" stroke="rgb(0,178,0)" stroke-width="0.1"/>
 </g>
 <g id="layerDOOR_FIRE" inkscape:groupmode="layer" inkscape:label="DOOR_FIRE">
  <path d="M 92.01618100000002,62.32003 L 92.01618100000002,69.63302999999999" fill="none" instance-id="1" semantic-id="4" stroke="rgb(0,178,178)" stroke-width="0.1"/>
  <path d="M 91.64118100000002,62.32003 L 91.64118100000002,69.63302999999999" fill="none" instance-id="1" semantic-id="4" stroke="rgb(0,178,178)" stroke-width="0.1"/>
  <path d="M 92.01618100000002,69.63302999999999 L 91.64118100000002,69.63302999999999" fill="none" instance-id="1" semantic-id="4" stroke="rgb(0,178,178)" stroke-width="0.1"/>
  <path d="M 91.64118100000002,62.32003 L 92.01618100000002,62.32003" fill="none" instance-id="1" semantic-id="4" stroke="rgb(0,178,178)" stroke-width="0.1"/>
  <path d="M 99.14118100000002,62.32003 L 99.15921571055316,62.833190902514445" fill="none" instance-id="1" semantic-id="4" stroke="rgb(0,178,178)" stroke-width="0.1"/>
  <path d="M 99.15921571055316,62.833190902514445 L 99.21321747798805,63.3438210737437" fill="none" instance-id="1" semantic-id="4" stroke="rgb(0,178,178)" stroke-width="0.1"/>
  <path d="M 99.21321747798805,63.3438210737437 L 99.30292003403642,63.849402732918634" fill="none" instance-id="1" semantic-id="4" stroke="rgb(0,178,178)" stroke-width="0.1"/>
  <path d="M 99.30292003403642,63.849402732918634 L 99.42788107939208,64.34744299213403" fill="none" instance-id="1" semantic-id="4" stroke="rgb(0,178,178)" stroke-width="0.1"/>
  <path d="M 99.42788107939208,64.34744299213403 L 99.58748446457068,64.83548614811025" fill="none" instance-id="1" semantic-id="4" stroke="rgb(0,178,178)" stroke-width="0.1"/>
  <path d="M 99.58748446457068,64.83548614811025 L 99.78094322797796,65.31112579060931" fill="none" instance-id="1" semantic-id="4" stroke="rgb(0,178,178)" stroke-width="0.1"/>
  <path d="M 92.01618100000002,69.63003 A 7.3125,7.3125 0.0 0,0 99.14118100000002,62.32003" fill="none" instance-id="1" semantic-id="4" stroke="rgb(0,178,178)" stroke-width="0.1"/>
 </g>
 <g id="layerDOOR_FIRE_TEXT" inkscape:groupmode="layer" inkscape:label="DOOR_FIRE_TEXT">
  <text fill="rgb(0,0,0)" font-family="Noto Sans CJK SC" font-size="2" transform="rotate(-0.0,92.762181,60.31502999999998)" x="92.762181" y="60.31502999999998">
   FM
  </text>
  <text fill="rgb(0,0,0)" font-family="Noto Sans CJK SC" font-size="2" transform="rotate(-0.0,96.96218100000002,60.31502999999998)" x="96.96218100000002" y="60.31502999999998">
   甲
  </text>
  <text fill="rgb(0,0,0)" font-family="Noto Sans CJK SC" font-size="2" transform="rotate(-0.0,99.42018100000001,60.31502999999998)" x="99.42018100000001" y="60.31502999999998">
   1521
  </text>
 </g>
 <g id="layerDOTE" inkscape:groupmode="layer" inkscape:label="DOTE">
  <path d="M 87.64118100000002,0.0 L 87.64118100000002,62.32003" fill="none" stroke="rgb(178,0,0)" stroke-width="0.1"/>
  <path d="M 87.64118100000002,100.0 L 87.64118100000002,62.32003" fill="none" stroke="rgb(178,0,0)" stroke-width="0.1"/>
  <path d="M 87.64118100000002,62.32003 L 0.0,62.32003" fill="none" stroke="rgb(178,0,0)" stroke-width="0.1"/>
  <path d="M 71.64118100000002,100.0 L 71.64118100000002,62.32003" fill="none" stroke="rgb(178,0,0)" stroke-width="0.1"/>
  <path d="M 0.0,94.32002999999997 L 87.64118100000002,94.32002999999997" fill="none" stroke="rgb(178,0,0)" stroke-width="0.1"/>
  <path d="M 71.64118100000002,73.32003 L 87.64118100000002,73.32003" fill="none" stroke="rgb(178,0,0)" stroke-width="0.1"/>
  <path d="M 32.14118100000002,100.0 L 32.14118100000002,94.32002999999997" fill="none" stroke="rgb(178,0,0)" stroke-width="0.1"/>
  <path d="M 0.0,66.32003 L 100.0,66.32003" fill="none" stroke="rgb(178,0,0)" stroke-width="0.1"/>
 </g>
 <g id="layerEQUIP_地漏" inkscape:groupmode="layer" inkscape:label="EQUIP_地漏">
  <path d="M 82.40418100000001,75.12803 L 81.79718100000001,75.73402999999999" fill="none" stroke="rgb(0,0,0)" stroke-width="0.1"/>
  <path d="M 82.40418100000001,75.12803 L 81.79718100000001,75.73402999999999" fill="none" stroke="rgb(0,0,0)" stroke-width="0.1"/>
  <path d="M 82.73218100000001,75.16702999999998 L 81.832181,76.06702999999999" fill="none" stroke="rgb(0,0,0)" stroke-width="0.1"/>
  <path d="M 82.73218100000001,75.16702999999998 L 81.832181,76.06702999999999" fill="none" stroke="rgb(0,0,0)" stroke-width="0.1"/>
  <path d="M 83.19618100000001,75.87803 L 82.56518100000001,76.50903" fill="none" stroke="rgb(0,0,0)" stroke-width="0.1"/>
  <path d="M 83.19618100000001,75.87803 L 82.56518100000001,76.50903" fill="none" stroke="rgb(0,0,0)" stroke-width="0.1"/>
  <path d="M 83.14318100000001,75.55703 L 82.22618100000001,76.47403" fill="none" stroke="rgb(0,0,0)" stroke-width="0.1"/>
  <path d="M 83.14318100000001,75.55703 L 82.22618100000001,76.47403" fill="none" stroke="rgb(0,0,0)" stroke-width="0.1"/>
  <path d="M 82.98818100000001,75.32202999999998 L 81.99118100000001,76.31903" fill="none" stroke="rgb(0,0,0)" stroke-width="0.1"/>
  <path d="M 82.98818100000001,75.32202999999998 L 81.99118100000001,76.31903" fill="none" stroke="rgb(0,0,0)" stroke-width="0.1"/>
  <circle cx="82.48918100000002" cy="75.82003" fill="none" r="0.705" stroke="rgb(0,0,0)" stroke-width="0.1"/>
  <circle cx="82.48918100000002" cy="75.82003" fill="none" r="0.705" stroke="rgb(0,0,0)" stroke-width="0.1"/>
 </g>
 <g id="layerEQUIP_消火栓" inkscape:groupmode="layer" inkscape:label="EQUIP_消火栓">
  <path d="M 86.64118100000002,93.32002999999997 L 88.64118100000002,93.32002999999997" fill="none" stroke="rgb(0,0,0)" stroke-width="0.1"/>
  <path d="M 88.64118100000002,86.32003 L 86.64118100000002,86.32003" fill="none" stroke="rgb(0,0,0)" stroke-width="0.1"/>
  <path d="M 86.64118100000002,86.32003 L 86.64118100000002,93.32002999999997" fill="none" stroke="rgb(0,0,0)" stroke-width="0.1"/>
  <path d="M 86.64118100000002,86.32003 L 88.64118100000002,93.32002999999997" fill="none" stroke="rgb(0,0,0)" stroke-width="0.1"/>
  <path d="M 88.64118100000002,93.32002999999997 L 88.64118100000002,86.32003" fill="none" stroke="rgb(0,0,0)" stroke-width="0.1"/>
  <path d="M 88.85518100000002,89.82003 L 89.26618100000002,90.08502999999999" fill="none" stroke="rgb(0,0,0)" stroke-width="0.1"/>
  <path d="M 89.26618100000002,90.08502999999999 L 89.26618100000002,89.53802999999999" fill="none" stroke="rgb(0,0,0)" stroke-width="0.1"/>
  <path d="M 89.26618100000002,89.53802999999999 L 88.85518100000002,89.82003" fill="none" stroke="rgb(0,0,0)" stroke-width="0.1"/>
 </g>
 <g id="layerPUB_DIM" inkscape:groupmode="layer" inkscape:label="PUB_DIM">
  <path d="M 35.14118100000002,94.32002999999997 L 41.60648100000002,94.32002999999997" fill="none" stroke="rgb(0,178,0)" stroke-width="0.1"/>
  <path d="M 39.10648100000002,100.0 L 39.10648100000002,94.32002999999997" fill="none" stroke="rgb(0,178,0)" stroke-width="0.1"/>
  <path d="M 89.64118100000002,94.32002999999997 L 98.40818100000001,94.32002999999997" fill="none" stroke="rgb(0,178,0)" stroke-width="0.1"/>
  <path d="M 95.90818100000001,100.0 L 95.90818100000001,94.32002999999997" fill="none" stroke="rgb(0,178,0)" stroke-width="0.1"/>
  <path d="M 89.64118100000002,94.32002999999997 L 98.40818100000001,94.32002999999997" fill="none" stroke="rgb(0,178,0)" stroke-width="0.1"/>
  <path d="M 89.64118100000002,82.32003 L 98.40818100000001,82.32003" fill="none" stroke="rgb(0,178,0)" stroke-width="0.1"/>
  <path d="M 95.90818100000001,94.32002999999997 L 95.90818100000001,82.32003" fill="none" stroke="rgb(0,178,0)" stroke-width="0.1"/>
  <path d="M 89.64118100000002,82.32003 L 98.40818100000001,82.32003" fill="none" stroke="rgb(0,178,0)" stroke-width="0.1"/>
  <path d="M 89.64118100000002,73.32003 L 98.40818100000001,73.32003" fill="none" stroke="rgb(0,178,0)" stroke-width="0.1"/>
  <path d="M 95.90818100000001,82.32003 L 95.90818100000001,73.32003" fill="none" stroke="rgb(0,178,0)" stroke-width="0.1"/>
  <path d="M 89.64118100000002,73.32003 L 98.40818100000001,73.32003" fill="none" stroke="rgb(0,178,0)" stroke-width="0.1"/>
  <path d="M 89.64118100000002,62.32003 L 98.40818100000001,62.32003" fill="none" stroke="rgb(0,178,0)" stroke-width="0.1"/>
  <path d="M 95.90818100000001,73.32003 L 95.90818100000001,62.32003" fill="none" stroke="rgb(0,178,0)" stroke-width="0.1"/>
  <path d="M 89.64118100000002,62.32003 L 98.40818100000001,62.32003" fill="none" stroke="rgb(0,178,0)" stroke-width="0.1"/>
  <path d="M 89.64118100000002,60.32003 L 98.40818100000001,60.32003" fill="none" stroke="rgb(0,178,0)" stroke-width="0.1"/>
  <path d="M 95.90818100000001,62.32003 L 95.90818100000001,63.32003" fill="none" stroke="rgb(0,178,0)" stroke-width="0.1"/>
  <path d="M 95.90818100000001,60.32003 L 95.90818100000001,59.32003" fill="none" stroke="rgb(0,178,0)" stroke-width="0.1"/>
  <path d="M 95.90818100000001,62.32003 L 95.90818100000001,60.32003" fill="none" stroke="rgb(0,178,0)" stroke-width="0.1"/>
  <path d="M 89.64118100000002,60.32003 L 98.40818100000001,60.32003" fill="none" stroke="rgb(0,178,0)" stroke-width="0.1"/>
  <path d="M 89.64118100000002,53.32003 L 98.40818100000001,53.32003" fill="none" stroke="rgb(0,178,0)" stroke-width="0.1"/>
  <path d="M 95.90818100000001,60.32003 L 95.90818100000001,61.32003" fill="none" stroke="rgb(0,178,0)" stroke-width="0.1"/>
  <path d="M 95.90818100000001,53.32003 L 95.90818100000001,52.32003" fill="none" stroke="rgb(0,178,0)" stroke-width="0.1"/>
  <path d="M 95.90818100000001,60.32003 L 95.90818100000001,53.32003" fill="none" stroke="rgb(0,178,0)" stroke-width="0.1"/>
  <path d="M 89.64118100000002,53.32003 L 98.40818100000001,53.32003" fill="none" stroke="rgb(0,178,0)" stroke-width="0.1"/>
  <path d="M 95.90818100000001,53.32003 L 95.90818100000001,0.0" fill="none" stroke="rgb(0,178,0)" stroke-width="0.1"/>
  <path d="M 44.14118100000002,37.32003 L 44.14118100000002,30.22202999999999" fill="none" stroke="rgb(0,178,0)" stroke-width="0.1"/>
  <path d="M 0.0,32.72202999999999 L 44.14118100000002,32.72202999999999" fill="none" stroke="rgb(0,178,0)" stroke-width="0.1"/>
  <path d="M 44.14118100000002,37.32003 L 44.14118100000002,30.22202999999999" fill="none" stroke="rgb(0,178,0)" stroke-width="0.1"/>
  <path d="M 71.14118100000002,37.32003 L 71.14118100000002,30.22202999999999" fill="none" stroke="rgb(0,178,0)" stroke-width="0.1"/>
  <path d="M 44.14118100000002,32.72202999999999 L 71.14118100000002,32.72202999999999" fill="none" stroke="rgb(0,178,0)" stroke-width="0.1"/>
  <path d="M 71.14118100000002,37.32003 L 71.14118100000002,30.22202999999999" fill="none" stroke="rgb(0,178,0)" stroke-width="0.1"/>
  <path d="M 87.64118100000002,37.32003 L 87.64118100000002,30.22202999999999" fill="none" stroke="rgb(0,178,0)" stroke-width="0.1"/>
  <path d="M 71.14118100000002,32.72202999999999 L 87.64118100000002,32.72202999999999" fill="none" stroke="rgb(0,178,0)" stroke-width="0.1"/>
  <path d="M 87.64118100000002,37.32003 L 87.64118100000002,30.22202999999999" fill="none" stroke="rgb(0,178,0)" stroke-width="0.1"/>
  <path d="M 87.64118100000002,32.72202999999999 L 100.0,32.72202999999999" fill="none" stroke="rgb(0,178,0)" stroke-width="0.1"/>
  <path d="M 30.041081000000005,94.32002999999997 L 25.576481000000015,94.32002999999997" fill="none" stroke="rgb(0,178,0)" stroke-width="0.1"/>
  <path d="M 27.326481000000015,100.0 L 27.326481000000015,94.32002999999997" fill="none" stroke="rgb(0,178,0)" stroke-width="0.1"/>
  <text fill="rgb(0,178,0)" font-family="Noto Sans CJK SC" font-size="2" transform="rotate(-90.0,94.90818100000001,92.47003000000001)" x="94.90818100000001" y="92.47003000000001">
   1200
  </text>
  <text fill="rgb(0,178,0)" font-family="Noto Sans CJK SC" font-size="2" transform="rotate(-90.0,94.90818100000001,80.82003)" x="94.90818100000001" y="80.82003">
   900
  </text>
  <text fill="rgb(0,178,0)" font-family="Noto Sans CJK SC" font-size="2" transform="rotate(-90.0,94.90818100000001,71.97002999999998)" x="94.90818100000001" y="71.97002999999998">
   1100
  </text>
  <text fill="rgb(0,178,0)" font-family="Noto Sans CJK SC" font-size="2" transform="rotate(-90.0,91.14518100000001,64.32003)" x="91.14518100000001" y="64.32003">
   200
  </text>
  <text fill="rgb(0,178,0)" font-family="Noto Sans CJK SC" font-size="2" transform="rotate(-90.0,94.90818100000001,59.82003)" x="94.90818100000001" y="59.82003">
   700
  </text>
  <text fill="rgb(0,178,0)" font-family="Noto Sans CJK SC" font-size="2" transform="rotate(-90.0,94.90818100000001,21.820030000000003)" x="94.90818100000001" y="21.820030000000003">
   7100
  </text>
  <text fill="rgb(0,178,0)" font-family="Noto Sans CJK SC" font-size="2" transform="rotate(-0.0,16.14118100000001,31.72202999999999)" x="16.14118100000001" y="31.72202999999999">
   4800
  </text>
  <text fill="rgb(0,178,0)" font-family="Noto Sans CJK SC" font-size="2" transform="rotate(-0.0,53.64118100000002,31.72202999999999)" x="53.64118100000002" y="31.72202999999999">
   2700
  </text>
  <text fill="rgb(0,178,0)" font-family="Noto Sans CJK SC" font-size="2" transform="rotate(-0.0,75.24118100000001,31.72202999999999)" x="75.24118100000001" y="31.72202999999999">
   1650
  </text>
  <text fill="rgb(0,178,0)" font-family="Noto Sans CJK SC" font-size="2" transform="rotate(-0.0,94.89118100000002,31.72202999999999)" x="94.89118100000002" y="31.72202999999999">
   2250
  </text>
 </g>
 <g id="layerPUB_TEXT" inkscape:groupmode="layer" inkscape:label="PUB_TEXT">
  <text fill="rgb(0,0,0)" font-family="Noto Sans CJK SC" font-size="2" transform="rotate(-0.0,68.040181,20.312029999999993)" x="68.040181" y="20.312029999999993">
   空调机房
  </text>
  <text fill="rgb(0,0,0)" font-family="Noto Sans CJK SC" font-size="2" transform="rotate(-0.0,50.991681000000014,81.46103)" x="50.991681000000014" y="81.46103">
   8#
  </text>
  <text fill="rgb(0,0,0)" font-family="Noto Sans CJK SC" font-size="2" transform="rotate(-0.0,57.65828100000002,81.46103)" x="57.65828100000002" y="81.46103">
   楼梯
  </text>
  <text fill="rgb(0,0,0)" font-family="Noto Sans CJK SC" font-size="2" transform="rotate(-0.0,50.76118100000001,88.19503)" x="50.76118100000001" y="88.19503">
   上
  </text>
  <text fill="rgb(0,0,0)" font-family="Noto Sans CJK SC" font-size="2" transform="rotate(-0.0,45.14118100000002,72.94503)" x="45.14118100000002" y="72.94503">
   下
  </text>
  <text fill="rgb(0,0,0)" font-family="Noto Sans CJK SC" font-size="2" transform="rotate(-0.0,50.906181000000004,59.93303)" x="50.906181000000004" y="59.93303">
   空调风井
  </text>
  <text fill="rgb(0,0,0)" font-family="Noto Sans CJK SC" font-size="2" transform="rotate(-0.0,78.32118100000001,79.85503)" x="78.32118100000001" y="79.85503">
   水
  </text>
  <text fill="rgb(0,0,0)" font-family="Noto Sans CJK SC" font-size="2" transform="rotate(-0.0,76.33718100000002,70.27303)" x="76.33718100000002" y="70.27303">
   正压
  </text>
 </g>
 <g id="layerS-上空线" inkscape:groupmode="layer" inkscape:label="S-上空线">
  <path d="M 88.64118100000002,67.42603 L 90.996181,67.42603" fill="none" stroke="rgb(63,63,63)" stroke-width="0.1"/>
  <path d="M 91.94918100000001,67.42603 L 94.489181,67.42603" fill="none" stroke="rgb(63,63,63)" stroke-width="0.1"/>
  <path d="M 95.441181,67.42603 L 97.98118100000002,67.42603" fill="none" stroke="rgb(63,63,63)" stroke-width="0.1"/>
  <path d="M 98.93418100000002,67.42603 L 100.0,67.42603" fill="none" stroke="rgb(63,63,63)" stroke-width="0.1"/>
  <path d="M 88.64118100000002,70.91902999999999 L 90.996181,70.91902999999999" fill="none" stroke="rgb(63,63,63)" stroke-width="0.1"/>
  <path d="M 91.94918100000001,70.91902999999999 L 94.489181,70.91902999999999" fill="none" stroke="rgb(63,63,63)" stroke-width="0.1"/>
  <path d="M 95.441181,70.91902999999999 L 97.98118100000002,70.91902999999999" fill="none" stroke="rgb(63,63,63)" stroke-width="0.1"/>
  <path d="M 98.93418100000002,70.91902999999999 L 100.0,70.91902999999999" fill="none" stroke="rgb(63,63,63)" stroke-width="0.1"/>
  <path d="M 88.64118100000002,74.41102999999998 L 90.996181,74.41102999999998" fill="none" stroke="rgb(63,63,63)" stroke-width="0.1"/>
  <path d="M 91.94918100000001,74.41102999999998 L 94.489181,74.41102999999998" fill="none" stroke="rgb(63,63,63)" stroke-width="0.1"/>
  <path d="M 95.441181,74.41102999999998 L 97.98118100000002,74.41102999999998" fill="none" stroke="rgb(63,63,63)" stroke-width="0.1"/>
  <path d="M 98.93418100000002,74.41102999999998 L 100.0,74.41102999999998" fill="none" stroke="rgb(63,63,63)" stroke-width="0.1"/>
  <path d="M 88.64118100000002,77.90403 L 90.996181,77.90403" fill="none" stroke="rgb(63,63,63)" stroke-width="0.1"/>
  <path d="M 91.94918100000001,77.90403 L 94.489181,77.90403" fill="none" stroke="rgb(63,63,63)" stroke-width="0.1"/>
  <path d="M 95.441181,77.90403 L 97.98118100000002,77.90403" fill="none" stroke="rgb(63,63,63)" stroke-width="0.1"/>
  <path d="M 98.93418100000002,77.90403 L 100.0,77.90403" fill="none" stroke="rgb(63,63,63)" stroke-width="0.1"/>
  <path d="M 88.64118100000002,81.39603 L 90.996181,81.39603" fill="none" stroke="rgb(63,63,63)" stroke-width="0.1"/>
  <path d="M 91.94918100000001,81.39603 L 94.489181,81.39603" fill="none" stroke="rgb(63,63,63)" stroke-width="0.1"/>
  <path d="M 95.441181,81.39603 L 97.98118100000002,81.39603" fill="none" stroke="rgb(63,63,63)" stroke-width="0.1"/>
  <path d="M 98.93418100000002,81.39603 L 100.0,81.39603" fill="none" stroke="rgb(63,63,63)" stroke-width="0.1"/>
  <path d="M 91.94918100000001,81.39603 L 91.94918100000001,78.85603" fill="none" stroke="rgb(63,63,63)" stroke-width="0.1"/>
  <path d="M 91.94918100000001,77.90403 L 91.94918100000001,75.36402999999999" fill="none" stroke="rgb(63,63,63)" stroke-width="0.1"/>
  <path d="M 91.94918100000001,74.41102999999998 L 91.94918100000001,71.87102999999999" fill="none" stroke="rgb(63,63,63)" stroke-width="0.1"/>
  <path d="M 91.94918100000001,70.91902999999999 L 91.94918100000001,68.37903" fill="none" stroke="rgb(63,63,63)" stroke-width="0.1"/>
  <path d="M 91.94918100000001,67.42603 L 91.94918100000001,66.32003" fill="none" stroke="rgb(63,63,63)" stroke-width="0.1"/>
  <path d="M 95.441181,81.39603 L 95.441181,78.85603" fill="none" stroke="rgb(63,63,63)" stroke-width="0.1"/>
  <path d="M 95.441181,77.90403 L 95.441181,75.36402999999999" fill="none" stroke="rgb(63,63,63)" stroke-width="0.1"/>
  <path d="M 95.441181,74.41102999999998 L 95.441181,71.87102999999999" fill="none" stroke="rgb(63,63,63)" stroke-width="0.1"/>
  <path d="M 95.441181,70.91902999999999 L 95.441181,68.37903" fill="none" stroke="rgb(63,63,63)" stroke-width="0.1"/>
  <path d="M 95.441181,67.42603 L 95.441181,66.32003" fill="none" stroke="rgb(63,63,63)" stroke-width="0.1"/>
  <path d="M 98.93418100000002,81.39603 L 98.93418100000002,78.85603" fill="none" stroke="rgb(63,63,63)" stroke-width="0.1"/>
  <path d="M 98.93418100000002,77.90403 L 98.93418100000002,75.36402999999999" fill="none" stroke="rgb(63,63,63)" stroke-width="0.1"/>
  <path d="M 98.93418100000002,74.41102999999998 L 98.93418100000002,71.87102999999999" fill="none" stroke="rgb(63,63,63)" stroke-width="0.1"/>
  <path d="M 98.93418100000002,70.91902999999999 L 98.93418100000002,68.37903" fill="none" stroke="rgb(63,63,63)" stroke-width="0.1"/>
  <path d="M 98.93418100000002,67.42603 L 98.93418100000002,66.32003" fill="none" stroke="rgb(63,63,63)" stroke-width="0.1"/>
  <path d="M 100.0,82.32003 L 88.64118100000002,82.32003" fill="none" stroke="rgb(63,63,63)" stroke-width="0.1"/>
  <path d="M 88.64118100000002,82.32003 L 88.64118100000002,66.32003" fill="none" stroke="rgb(63,63,63)" stroke-width="0.1"/>
  <path d="M 88.64118100000002,66.32003 L 100.0,66.32003" fill="none" stroke="rgb(63,63,63)" stroke-width="0.1"/>
  <path d="M 45.14118100000002,54.32003 L 70.14118100000002,54.32003" fill="none" stroke="rgb(63,63,63)" stroke-width="0.1"/>
  <path d="M 70.14118100000002,54.32003 L 70.14118100000002,61.32003" fill="none" stroke="rgb(63,63,63)" stroke-width="0.1"/>
  <path d="M 70.14118100000002,61.32003 L 45.14118100000002,61.32003" fill="none" stroke="rgb(63,63,63)" stroke-width="0.1"/>
  <path d="M 45.14118100000002,61.32003 L 45.14118100000002,54.32003" fill="none" stroke="rgb(63,63,63)" stroke-width="0.1"/>
  <path d="M 45.14118100000002,61.32003 L 47.88578100000001,55.75002999999998" fill="none" stroke="rgb(63,63,63)" stroke-width="0.1"/>
  <path d="M 47.88578100000001,55.75002999999998 L 70.14118100000002,54.32003" fill="none" stroke="rgb(63,63,63)" stroke-width="0.1"/>
  <path d="M 86.64118100000002,63.32003 L 75.02118100000001,65.47802999999999" fill="none" stroke="rgb(63,63,63)" stroke-width="0.1"/>
  <path d="M 75.02118100000001,65.47802999999999 L 72.64118100000002,72.32003" fill="none" stroke="rgb(63,63,63)" stroke-width="0.1"/>
  <path d="M 88.64118100000002,66.32003 L 88.64118100000002,82.32003" fill="none" stroke="rgb(63,63,63)" stroke-width="0.1"/>
  <path d="M 88.64118100000002,82.32003 L 100.0,82.32003" fill="none" stroke="rgb(63,63,63)" stroke-width="0.1"/>
  <path d="M 100.0,66.32003 L 88.64118100000002,66.32003" fill="none" stroke="rgb(63,63,63)" stroke-width="0.1"/>
 </g>
 <g id="layerS-电梯" inkscape:groupmode="layer" inkscape:label="S-电梯">
  <path d="M 0.0,95.32002999999997 L 31.141181000000017,95.32002999999997" fill="none" stroke="rgb(178,0,178)" stroke-width="0.1"/>
  <path d="M 31.141181000000017,95.32002999999997 L 31.141181000000017,100.0" fill="none" stroke="rgb(178,0,178)" stroke-width="0.1"/>
  <path d="M 0.0,95.32002999999997 L 31.141181000000017,95.32002999999997" fill="none" stroke="rgb(178,0,178)" stroke-width="0.1"/>
  <path d="M 31.141181000000017,95.32002999999997 L 31.141181000000017,100.0" fill="none" stroke="rgb(178,0,178)" stroke-width="0.1"/>
 </g>
 <g id="layerS-看线" inkscape:groupmode="layer" inkscape:label="S-看线">
  <path d="M 14.691181000000007,64.32003 L 14.691181000000007,63.32003" fill="none" stroke="rgb(178,0,178)" stroke-width="0.1"/>
  <path d="M 14.691181000000007,64.32003 L 34.29118100000001,64.32003" fill="none" stroke="rgb(178,0,178)" stroke-width="0.1"/>
  <path d="M 34.29118100000001,64.32003 L 34.29118100000001,63.32003" fill="none" stroke="rgb(178,0,178)" stroke-width="0.1"/>
  <path d="M 72.64118100000002,83.32003 L 85.14118100000002,83.32003" fill="none" stroke="rgb(0,0,178)" stroke-width="0.1"/>
  <path d="M 85.14118100000002,83.32003 L 85.14118100000002,93.32002999999997" fill="none" stroke="rgb(0,0,178)" stroke-width="0.1"/>
  <path d="M 85.14118100000002,93.32002999999997 L 72.64118100000002,93.32002999999997" fill="none" stroke="rgb(0,0,178)" stroke-width="0.1"/>
  <path d="M 72.64118100000002,93.32002999999997 L 72.64118100000002,83.32003" fill="none" stroke="rgb(0,0,178)" stroke-width="0.1"/>
 </g>
 <g id="layerS-结构钢柱" inkscape:groupmode="layer" inkscape:label="S-结构钢柱">
  <path d="M 0.0,66.32003 L 0.14118100000001021,66.32003" fill="none" stroke="rgb(178,178,0)" stroke-width="0.1"/>
  <path d="M 0.14118100000001021,66.32003 L 0.14118100000001021,61.32003" fill="none" stroke="rgb(178,178,0)" stroke-width="0.1"/>
  <path d="M 0.14118100000001021,61.32003 L 0.0,61.32003" fill="none" stroke="rgb(178,178,0)" stroke-width="0.1"/>
 </g>
 <g id="layerSTAIR" inkscape:groupmode="layer" inkscape:label="STAIR">
  <path d="M 46.89118100000002,93.32002999999997 L 46.89118100000002,80.17003" fill="none" instance-id="3" semantic-id="30" stroke="rgb(0,53,107)" stroke-width="0.1"/>
  <path d="M 44.091181000000006,93.32002999999997 L 44.091181000000006,80.17003" fill="none" instance-id="3" semantic-id="30" stroke="rgb(0,53,107)" stroke-width="0.1"/>
  <path d="M 41.29118100000001,93.32002999999997 L 41.29118100000001,80.17003" fill="none" instance-id="3" semantic-id="30" stroke="rgb(0,53,107)" stroke-width="0.1"/>
  <path d="M 38.49118100000001,93.32002999999997 L 38.49118100000001,80.17003" fill="none" instance-id="3" semantic-id="30" stroke="rgb(0,53,107)" stroke-width="0.1"/>
  <path d="M 34.29118100000001,93.32002999999997 L 34.29118100000001,89.49502999999999" fill="none" instance-id="3" semantic-id="30" stroke="rgb(0,53,107)" stroke-width="0.1"/>
  <path d="M 35.691181000000014,89.92003 L 35.691181000000014,80.17003" fill="none" instance-id="3" semantic-id="30" stroke="rgb(0,53,107)" stroke-width="0.1"/>
  <path d="M 31.49118100000001,93.32002999999997 L 31.49118100000001,84.64502999999999" fill="none" instance-id="3" semantic-id="30" stroke="rgb(0,53,107)" stroke-width="0.1"/>
  <path d="M 32.89118100000002,85.07003 L 32.89118100000002,80.17003" fill="none" instance-id="3" semantic-id="30" stroke="rgb(0,53,107)" stroke-width="0.1"/>
  <path d="M 28.691181000000014,93.32002999999997 L 28.691181000000014,80.17003" fill="none" instance-id="3" semantic-id="30" stroke="rgb(0,53,107)" stroke-width="0.1"/>
  <path d="M 25.891181000000017,93.32002999999997 L 25.891181000000017,80.17003" fill="none" instance-id="3" semantic-id="30" stroke="rgb(0,53,107)" stroke-width="0.1"/>
  <path d="M 28.560981000000012,79.57003 L 25.891181000000017,79.57003" fill="none" instance-id="3" semantic-id="30" stroke="rgb(0,53,107)" stroke-width="0.1"/>
  <path d="M 36.499581000000006,93.32002999999997 L 32.84038100000001,86.98202999999998" fill="none" instance-id="3" semantic-id="30" stroke="rgb(0,53,107)" stroke-width="0.1"/>
  <path d="M 37.65428100000001,93.32002999999997 L 33.84038100000001,86.71402999999998" fill="none" instance-id="3" semantic-id="30" stroke="rgb(0,53,107)" stroke-width="0.1"/>
  <path d="M 33.84038100000001,86.71402999999998 L 32.11678100000002,87.17603" fill="none" instance-id="3" semantic-id="30" stroke="rgb(0,53,107)" stroke-width="0.1"/>
  <path d="M 32.11678100000002,87.17603 L 33.84578100000002,85.11603" fill="none" instance-id="3" semantic-id="30" stroke="rgb(0,53,107)" stroke-width="0.1"/>
  <path d="M 33.84578100000002,85.11603 L 32.041781000000015,85.59903" fill="none" instance-id="3" semantic-id="30" stroke="rgb(0,53,107)" stroke-width="0.1"/>
  <path d="M 32.041781000000015,85.59903 L 28.560981000000012,79.57003" fill="none" instance-id="3" semantic-id="30" stroke="rgb(0,53,107)" stroke-width="0.1"/>
  <path d="M 33.041781000000015,85.33103 L 29.715681000000004,79.57003" fill="none" instance-id="3" semantic-id="30" stroke="rgb(0,53,107)" stroke-width="0.1"/>
  <path d="M 14.691181000000007,64.32003 L 34.29118100000001,64.32003" fill="none" instance-id="3" semantic-id="30" stroke="rgb(0,53,107)" stroke-width="0.1"/>
  <path d="M 14.691181000000007,78.07003 L 34.29118100000001,78.07003" fill="none" instance-id="3" semantic-id="30" stroke="rgb(0,53,107)" stroke-width="0.1"/>
  <path d="M 14.691181000000007,64.32003 L 14.691181000000007,78.07003" fill="none" instance-id="3" semantic-id="30" stroke="rgb(0,53,107)" stroke-width="0.1"/>
  <path d="M 17.49118100000001,64.32003 L 17.49118100000001,78.07003" fill="none" instance-id="3" semantic-id="30" stroke="rgb(0,53,107)" stroke-width="0.1"/>
  <path d="M 20.29118100000001,64.32003 L 20.29118100000001,78.07003" fill="none" instance-id="3" semantic-id="30" stroke="rgb(0,53,107)" stroke-width="0.1"/>
  <path d="M 23.091181000000006,64.32003 L 23.091181000000006,78.07003" fill="none" instance-id="3" semantic-id="30" stroke="rgb(0,53,107)" stroke-width="0.1"/>
  <path d="M 25.891181000000017,64.32003 L 25.891181000000017,78.07003" fill="none" instance-id="3" semantic-id="30" stroke="rgb(0,53,107)" stroke-width="0.1"/>
  <path d="M 28.691181000000014,64.32003 L 28.691181000000014,78.07003" fill="none" instance-id="3" semantic-id="30" stroke="rgb(0,53,107)" stroke-width="0.1"/>
  <path d="M 31.49118100000001,64.32003 L 31.49118100000001,78.07003" fill="none" instance-id="3" semantic-id="30" stroke="rgb(0,53,107)" stroke-width="0.1"/>
  <path d="M 34.29118100000001,64.32003 L 34.29118100000001,78.07003" fill="none" instance-id="3" semantic-id="30" stroke="rgb(0,53,107)" stroke-width="0.1"/>
  <path d="M 47.49118100000001,77.47002999999998 L 47.49118100000001,80.17003" fill="none" instance-id="3" semantic-id="30" stroke="rgb(0,53,107)" stroke-width="0.1"/>
  <path d="M 47.49118100000001,80.17003 L 14.091181000000013,80.17003" fill="none" instance-id="3" semantic-id="30" stroke="rgb(0,53,107)" stroke-width="0.1"/>
  <path d="M 14.091181000000013,80.17003 L 14.091181000000013,77.47002999999998" fill="none" instance-id="3" semantic-id="30" stroke="rgb(0,53,107)" stroke-width="0.1"/>
  <path d="M 14.091181000000013,77.47002999999998 L 47.49118100000001,77.47002999999998" fill="none" instance-id="3" semantic-id="30" stroke="rgb(0,53,107)" stroke-width="0.1"/>
  <path d="M 46.89118100000002,78.07003 L 46.89118100000002,79.57003" fill="none" instance-id="3" semantic-id="30" stroke="rgb(0,53,107)" stroke-width="0.1"/>
  <path d="M 46.89118100000002,79.57003 L 14.691181000000007,79.57003" fill="none" instance-id="3" semantic-id="30" stroke="rgb(0,53,107)" stroke-width="0.1"/>
  <path d="M 14.691181000000007,79.57003 L 14.691181000000007,78.07003" fill="none" instance-id="3" semantic-id="30" stroke="rgb(0,53,107)" stroke-width="0.1"/>
  <path d="M 14.691181000000007,78.07003 L 46.89118100000002,78.07003" fill="none" instance-id="3" semantic-id="30" stroke="rgb(0,53,107)" stroke-width="0.1"/>
 </g>
 <g id="layerVPIPE-消防" inkscape:groupmode="layer" inkscape:label="VPIPE-消防">
  <circle cx="85.14118100000002" cy="90.82003" fill="none" r="0.6" stroke="rgb(178,0,0)" stroke-width="0.1"/>
 </g>
 <g id="layerWALL" inkscape:groupmode="layer" inkscape:label="WALL">
  <path d="M 43.14118100000002,61.32003 L 43.14118100000002,52.32003" fill="none" instance-id="-1" semantic-id="1" stroke="rgb(178,178,0)" stroke-width="0.1"/>
  <path d="M 45.14118100000002,61.32003 L 45.14118100000002,54.32003" fill="none" instance-id="-1" semantic-id="1" stroke="rgb(178,178,0)" stroke-width="0.1"/>
  <path d="M 43.14118100000002,61.32003 L 45.14118100000002,61.32003" fill="none" instance-id="-1" semantic-id="1" stroke="rgb(178,178,0)" stroke-width="0.1"/>
  <path d="M 70.14118100000002,61.32003 L 70.14118100000002,54.32003" fill="none" instance-id="-1" semantic-id="1" stroke="rgb(178,178,0)" stroke-width="0.1"/>
  <path d="M 72.14118100000002,61.32003 L 72.14118100000002,52.32003" fill="none" instance-id="-1" semantic-id="1" stroke="rgb(178,178,0)" stroke-width="0.1"/>
  <path d="M 70.14118100000002,61.32003 L 72.14118100000002,61.32003" fill="none" instance-id="-1" semantic-id="1" stroke="rgb(178,178,0)" stroke-width="0.1"/>
  <path d="M 43.14118100000002,52.32003 L 72.14118100000002,52.32003" fill="none" instance-id="-1" semantic-id="1" stroke="rgb(178,178,0)" stroke-width="0.1"/>
  <path d="M 45.14118100000002,54.32003 L 70.14118100000002,54.32003" fill="none" instance-id="-1" semantic-id="1" stroke="rgb(178,178,0)" stroke-width="0.1"/>
  <path d="M 88.64118100000002,63.32003 L 91.64118100000002,63.32003" fill="none" instance-id="-1" semantic-id="1" stroke="rgb(178,178,0)" stroke-width="0.1"/>
  <path d="M 91.64118100000002,63.32003 L 91.64118100000002,61.32003" fill="none" instance-id="-1" semantic-id="1" stroke="rgb(178,178,0)" stroke-width="0.1"/>
  <path d="M 91.64118100000002,61.32003 L 88.64118100000002,61.32003" fill="none" instance-id="-1" semantic-id="1" stroke="rgb(178,178,0)" stroke-width="0.1"/>
  <path d="M 88.64118100000002,61.32003 L 88.64118100000002,63.32003" fill="none" instance-id="-1" semantic-id="1" stroke="rgb(178,178,0)" stroke-width="0.1"/>
  <path d="M 31.141181000000017,95.32002999999997 L 31.141181000000017,100.0" fill="none" instance-id="-1" semantic-id="1" stroke="rgb(178,178,0)" stroke-width="0.1"/>
  <path d="M 33.14118100000002,100.0 L 33.14118100000002,95.32002999999997" fill="none" instance-id="-1" semantic-id="1" stroke="rgb(178,178,0)" stroke-width="0.1"/>
  <path d="M 0.0,93.32002999999997 L 32.14118100000002,93.32002999999997" fill="none" instance-id="-1" semantic-id="1" stroke="rgb(178,178,0)" stroke-width="0.1"/>
  <path d="M 0.0,95.32002999999997 L 31.141181000000017,95.32002999999997" fill="none" instance-id="-1" semantic-id="1" stroke="rgb(178,178,0)" stroke-width="0.1"/>
  <path d="M 86.64118100000002,100.0 L 86.64118100000002,83.32003" fill="none" instance-id="-1" semantic-id="1" stroke="rgb(178,178,0)" stroke-width="0.1"/>
  <path d="M 88.64118100000002,100.0 L 88.64118100000002,82.32003" fill="none" instance-id="-1" semantic-id="1" stroke="rgb(178,178,0)" stroke-width="0.1"/>
  <path d="M 0.0,61.32003 L 71.64118100000002,61.32003" fill="none" instance-id="-1" semantic-id="1" stroke="rgb(178,178,0)" stroke-width="0.1"/>
  <path d="M 0.0,63.32003 L 70.64118100000002,63.32003" fill="none" instance-id="-1" semantic-id="1" stroke="rgb(178,178,0)" stroke-width="0.1"/>
  <path d="M 33.14118100000002,95.32002999999997 L 55.64118100000002,95.32002999999997" fill="none" instance-id="-1" semantic-id="1" stroke="rgb(178,178,0)" stroke-width="0.1"/>
  <path d="M 55.64118100000002,95.32002999999997 L 55.64118100000002,93.32002999999997" fill="none" instance-id="-1" semantic-id="1" stroke="rgb(178,178,0)" stroke-width="0.1"/>
  <path d="M 55.64118100000002,93.32002999999997 L 32.14118100000002,93.32002999999997" fill="none" instance-id="-1" semantic-id="1" stroke="rgb(178,178,0)" stroke-width="0.1"/>
  <path d="M 70.64118100000002,93.32002999999997 L 69.64118100000002,93.32002999999997" fill="none" instance-id="-1" semantic-id="1" stroke="rgb(178,178,0)" stroke-width="0.1"/>
  <path d="M 69.64118100000002,93.32002999999997 L 69.64118100000002,95.32002999999997" fill="none" instance-id="-1" semantic-id="1" stroke="rgb(178,178,0)" stroke-width="0.1"/>
  <path d="M 69.64118100000002,95.32002999999997 L 70.64118100000002,95.32002999999997" fill="none" instance-id="-1" semantic-id="1" stroke="rgb(178,178,0)" stroke-width="0.1"/>
  <path d="M 70.64118100000002,95.32002999999997 L 70.64118100000002,100.0" fill="none" instance-id="-1" semantic-id="1" stroke="rgb(178,178,0)" stroke-width="0.1"/>
  <path d="M 72.64118100000002,100.0 L 72.64118100000002,94.32002999999997" fill="none" instance-id="-1" semantic-id="1" stroke="rgb(178,178,0)" stroke-width="0.1"/>
  <path d="M 70.64118100000002,93.32002999999997 L 70.64118100000002,82.32003" fill="none" instance-id="-1" semantic-id="1" stroke="rgb(178,178,0)" stroke-width="0.1"/>
  <path d="M 72.64118100000002,94.32002999999997 L 72.64118100000002,83.32003" fill="none" instance-id="-1" semantic-id="1" stroke="rgb(178,178,0)" stroke-width="0.1"/>
  <path d="M 71.64118100000002,61.32003 L 88.64118100000002,61.32003" fill="none" instance-id="-1" semantic-id="1" stroke="rgb(178,178,0)" stroke-width="0.1"/>
  <path d="M 72.64118100000002,63.32003 L 86.64118100000002,63.32003" fill="none" instance-id="-1" semantic-id="1" stroke="rgb(178,178,0)" stroke-width="0.1"/>
  <path d="M 72.64118100000002,72.32003 L 86.64118100000002,72.32003" fill="none" instance-id="-1" semantic-id="1" stroke="rgb(178,178,0)" stroke-width="0.1"/>
  <path d="M 72.64118100000002,74.32003 L 86.64118100000002,74.32003" fill="none" instance-id="-1" semantic-id="1" stroke="rgb(178,178,0)" stroke-width="0.1"/>
  <path d="M 72.64118100000002,72.32003 L 72.64118100000002,71.07003" fill="none" instance-id="-1" semantic-id="1" stroke="rgb(178,178,0)" stroke-width="0.1"/>
  <path d="M 72.64118100000002,71.07003 L 70.64118100000002,71.07003" fill="none" instance-id="-1" semantic-id="1" stroke="rgb(178,178,0)" stroke-width="0.1"/>
  <path d="M 70.64118100000002,71.07003 L 70.64118100000002,73.32003" fill="none" instance-id="-1" semantic-id="1" stroke="rgb(178,178,0)" stroke-width="0.1"/>
  <path d="M 70.64118100000002,63.32003 L 70.64118100000002,64.57003" fill="none" instance-id="-1" semantic-id="1" stroke="rgb(178,178,0)" stroke-width="0.1"/>
  <path d="M 70.64118100000002,64.57003 L 72.64118100000002,64.57003" fill="none" instance-id="-1" semantic-id="1" stroke="rgb(178,178,0)" stroke-width="0.1"/>
  <path d="M 72.64118100000002,64.57003 L 72.64118100000002,63.32003" fill="none" instance-id="-1" semantic-id="1" stroke="rgb(178,178,0)" stroke-width="0.1"/>
  <path d="M 86.64118100000002,72.32003 L 86.64118100000002,63.32003" fill="none" instance-id="-1" semantic-id="1" stroke="rgb(178,178,0)" stroke-width="0.1"/>
  <path d="M 88.64118100000002,73.32003 L 88.64118100000002,61.32003" fill="none" instance-id="-1" semantic-id="1" stroke="rgb(178,178,0)" stroke-width="0.1"/>
  <path d="M 72.64118100000002,81.32003 L 86.64118100000002,81.32003" fill="none" instance-id="-1" semantic-id="1" stroke="rgb(178,178,0)" stroke-width="0.1"/>
  <path d="M 72.64118100000002,83.32003 L 86.64118100000002,83.32003" fill="none" instance-id="-1" semantic-id="1" stroke="rgb(178,178,0)" stroke-width="0.1"/>
  <path d="M 70.64118100000002,82.32003 L 70.64118100000002,73.32003" fill="none" instance-id="-1" semantic-id="1" stroke="rgb(178,178,0)" stroke-width="0.1"/>
  <path d="M 72.64118100000002,81.32003 L 72.64118100000002,74.32003" fill="none" instance-id="-1" semantic-id="1" stroke="rgb(178,178,0)" stroke-width="0.1"/>
  <path d="M 88.64118100000002,82.32003 L 88.64118100000002,81.32003" fill="none" instance-id="-1" semantic-id="1" stroke="rgb(178,178,0)" stroke-width="0.1"/>
  <path d="M 88.64118100000002,81.32003 L 86.64118100000002,81.32003" fill="none" instance-id="-1" semantic-id="1" stroke="rgb(178,178,0)" stroke-width="0.1"/>
  <path d="M 86.64118100000002,74.32003 L 88.64118100000002,74.32003" fill="none" instance-id="-1" semantic-id="1" stroke="rgb(178,178,0)" stroke-width="0.1"/>
  <path d="M 88.64118100000002,74.32003 L 88.64118100000002,73.32003" fill="none" instance-id="-1" semantic-id="1" stroke="rgb(178,178,0)" stroke-width="0.1"/>
 </g>
 <g id="layerWINDOW" inkscape:groupmode="layer" inkscape:label="WINDOW">
  <path d="M 88.64118100000002,81.32003 L 88.64118100000002,74.32003" fill="none" instance-id="7" semantic-id="3" stroke="rgb(0,178,178)" stroke-width="0.1"/>
  <path d="M 86.64118100000002,81.32003 L 86.64118100000002,74.32003" fill="none" instance-id="7" semantic-id="3" stroke="rgb(0,178,178)" stroke-width="0.1"/>
  <path d="M 69.29118100000001,94.34003000000001 L 69.29118100000001,83.79003" fill="none" instance-id="5" semantic-id="4" stroke="rgb(0,178,178)" stroke-width="0.1"/>
  <path d="M 55.99118100000001,94.32002999999997 L 55.99118100000001,90.79202999999998" fill="none" instance-id="5" semantic-id="4" stroke="rgb(0,178,178)" stroke-width="0.1"/>
  <path d="M 55.64118100000002,94.32002999999997 L 55.64118100000002,90.79202999999998" fill="none" instance-id="5" semantic-id="4" stroke="rgb(0,178,178)" stroke-width="0.1"/>
  <path d="M 69.64118100000002,94.34003000000001 L 69.64118100000002,83.79003" fill="none" instance-id="5" semantic-id="4" stroke="rgb(0,178,178)" stroke-width="0.1"/>
  <path d="M 69.29118100000001,94.34003000000001 L 69.64118100000002,94.34003000000001" fill="none" instance-id="5" semantic-id="4" stroke="rgb(0,178,178)" stroke-width="0.1"/>
  <path d="M 55.99118100000001,94.32002999999997 L 55.64118100000002,94.32002999999997" fill="none" instance-id="5" semantic-id="4" stroke="rgb(0,178,178)" stroke-width="0.1"/>
  <path d="M 69.29118100000001,83.79003 L 69.64118100000002,83.79003" fill="none" instance-id="5" semantic-id="4" stroke="rgb(0,178,178)" stroke-width="0.1"/>
  <path d="M 55.99118100000001,90.79202999999998 L 55.64118100000002,90.79202999999998" fill="none" instance-id="5" semantic-id="4" stroke="rgb(0,178,178)" stroke-width="0.1"/>
  <path d="M 87.64118100000002,74.32003 L 92.591181,79.27002999999999" fill="none" instance-id="7" semantic-id="3" stroke="rgb(0,178,178)" stroke-width="0.1"/>
  <path d="M 70.64118100000002,64.57003 L 72.64118100000002,64.57003" fill="none" instance-id="6" semantic-id="11" stroke="rgb(0,178,178)" stroke-width="0.1"/>
  <path d="M 72.64118100000002,71.07003 L 70.64118100000002,71.07003" fill="none" instance-id="6" semantic-id="11" stroke="rgb(0,178,178)" stroke-width="0.1"/>
  <path d="M 70.64118100000002,64.57003 L 70.64118100000002,71.07003" fill="none" instance-id="6" semantic-id="11" stroke="rgb(0,178,178)" stroke-width="0.1"/>
  <path d="M 72.64118100000002,64.57003 L 72.64118100000002,71.07003" fill="none" instance-id="6" semantic-id="11" stroke="rgb(0,178,178)" stroke-width="0.1"/>
  <path d="M 71.97418100000002,71.07003 L 71.97418100000002,64.57003" fill="none" instance-id="6" semantic-id="11" stroke="rgb(0,178,178)" stroke-width="0.1"/>
  <path d="M 71.308181,71.07003 L 71.308181,64.57003" fill="none" instance-id="6" semantic-id="11" stroke="rgb(0,178,178)" stroke-width="0.1"/>
  <path d="M 71.308181,64.57003 L 71.97418100000002,64.98703" fill="none" instance-id="6" semantic-id="11" stroke="rgb(0,178,178)" stroke-width="0.1"/>
  <path d="M 71.308181,65.45402999999999 L 71.97418100000002,65.87102999999999" fill="none" instance-id="6" semantic-id="11" stroke="rgb(0,178,178)" stroke-width="0.1"/>
  <path d="M 71.308181,65.01202999999998 L 71.97418100000002,65.42902999999998" fill="none" instance-id="6" semantic-id="11" stroke="rgb(0,178,178)" stroke-width="0.1"/>
  <path d="M 71.308181,66.33803 L 71.97418100000002,66.75503" fill="none" instance-id="6" semantic-id="11" stroke="rgb(0,178,178)" stroke-width="0.1"/>
  <path d="M 71.308181,65.89603 L 71.97418100000002,66.31303" fill="none" instance-id="6" semantic-id="11" stroke="rgb(0,178,178)" stroke-width="0.1"/>
  <path d="M 71.308181,67.22202999999999 L 71.97418100000002,67.63802999999999" fill="none" instance-id="6" semantic-id="11" stroke="rgb(0,178,178)" stroke-width="0.1"/>
  <path d="M 71.308181,66.78002999999998 L 71.97418100000002,67.19702999999998" fill="none" instance-id="6" semantic-id="11" stroke="rgb(0,178,178)" stroke-width="0.1"/>
  <path d="M 71.308181,68.10603 L 71.97418100000002,68.52203" fill="none" instance-id="6" semantic-id="11" stroke="rgb(0,178,178)" stroke-width="0.1"/>
  <path d="M 71.308181,67.66403 L 71.97418100000002,68.08003" fill="none" instance-id="6" semantic-id="11" stroke="rgb(0,178,178)" stroke-width="0.1"/>
  <path d="M 71.308181,68.99002999999999 L 71.97418100000002,69.40602999999999" fill="none" instance-id="6" semantic-id="11" stroke="rgb(0,178,178)" stroke-width="0.1"/>
  <path d="M 71.308181,68.54802999999998 L 71.97418100000002,68.96402999999998" fill="none" instance-id="6" semantic-id="11" stroke="rgb(0,178,178)" stroke-width="0.1"/>
  <path d="M 71.308181,69.87303 L 71.97418100000002,70.29003" fill="none" instance-id="6" semantic-id="11" stroke="rgb(0,178,178)" stroke-width="0.1"/>
  <path d="M 71.308181,69.43203 L 71.97418100000002,69.84803" fill="none" instance-id="6" semantic-id="11" stroke="rgb(0,178,178)" stroke-width="0.1"/>
  <path d="M 71.308181,70.75702999999999 L 71.808181,71.07003" fill="none" instance-id="6" semantic-id="11" stroke="rgb(0,178,178)" stroke-width="0.1"/>
  <path d="M 71.308181,70.31502999999998 L 71.97418100000002,70.73202999999998" fill="none" instance-id="6" semantic-id="11" stroke="rgb(0,178,178)" stroke-width="0.1"/>
  <path d="M 69.29118100000001,83.79003 A 10.5647,10.5647 0.0 0,0 59.14118100000002,94.29602999999997" fill="none" instance-id="5" semantic-id="4" stroke="rgb(0,178,178)" stroke-width="0.1"/>
  <path d="M 59.14118100000002,94.29703 A 3.5111,3.5111 0.0 0,0 55.99118100000001,90.79202999999998" fill="none" instance-id="5" semantic-id="4" stroke="rgb(0,178,178)" stroke-width="0.1"/>
  <path d="M 87.64118100000002,81.32003 A 7.0,7.0 0.0 0,0 92.591181,79.27002999999999" fill="none" instance-id="7" semantic-id="3" stroke="rgb(0,178,178)" stroke-width="0.1"/>
 </g>
 <g id="layerWINDOW_TEXT" inkscape:groupmode="layer" inkscape:label="WINDOW_TEXT">
  <text fill="rgb(0,0,0)" font-family="Noto Sans CJK SC" font-size="2" transform="rotate(-0.0,55.61238100000001,99.82002999999997)" x="55.61238100000001" y="99.82002999999997">
   FM
  </text>
  <text fill="rgb(0,0,0)" font-family="Noto Sans CJK SC" font-size="2" transform="rotate(-0.0,59.81218100000001,99.82002999999997)" x="59.81218100000001" y="99.82002999999997">
   乙
  </text>
  <text fill="rgb(0,0,0)" font-family="Noto Sans CJK SC" font-size="2" transform="rotate(-0.0,62.27018100000001,99.82002999999997)" x="62.27018100000001" y="99.82002999999997">
   1421'
  </text>
  <text fill="rgb(0,0,0)" font-family="Noto Sans CJK SC" font-size="2" transform="rotate(-90.0,85.59218100000001,84.64902999999998)" x="85.59218100000001" y="84.64902999999998">
   FM
  </text>
  <text fill="rgb(0,0,0)" font-family="Noto Sans CJK SC" font-size="2" transform="rotate(-90.0,85.59218100000001,80.44903)" x="85.59218100000001" y="80.44903">
   丙
  </text>
  <text fill="rgb(0,0,0)" font-family="Noto Sans CJK SC" font-size="2" transform="rotate(-90.0,85.59218100000001,77.99103)" x="85.59218100000001" y="77.99103">
   0718
  </text>
  <text fill="rgb(0,0,0)" font-family="Noto Sans CJK SC" font-size="2" transform="rotate(-90.0,69.90718100000001,77.13503)" x="69.90718100000001" y="77.13503">
   百叶
  </text>
  <text fill="rgb(0,0,0)" font-family="Noto Sans CJK SC" font-size="2" transform="rotate(-90.0,69.90718100000001,73.69503)" x="69.90718100000001" y="73.69503">
   650*650(300)
  </text>
 </g>
</svg>