<?xml version="1.0" encoding="utf-8"?>
<svg style="background-color: #000;" version="1.1" viewBox="0 0 100.0 100.0" xmlns="http://www.w3.org/2000/svg" xmlns:inkscape="http://www.inkscape.org/namespaces/inkscape">
 <g id="layerDIM_LEAD" inkscape:groupmode="layer" inkscape:label="DIM_LEAD">
  <path d="M 4.491181000000012,39.90242850000004 L 4.491181000000012,63.31542850000005" fill="none" stroke="rgb(0,178,0)" stroke-width="0.1"/>
  <path d="M 4.491181000000012,63.31542850000005 L 42.08148100000001,63.31542850000005" fill="none" stroke="rgb(0,178,0)" stroke-width="0.1"/>
  <path d="M 74.12618100000002,42.66042850000002 L 66.576181,38.180428500000005" fill="none" stroke="rgb(0,178,0)" stroke-width="0.1"/>
  <path d="M 66.576181,38.180428500000005 L 48.37148100000002,38.180428500000005" fill="none" stroke="rgb(0,178,0)" stroke-width="0.1"/>
  <path d="M 77.951181,24.46542850000003 L 66.576181,29.375428499999998" fill="none" stroke="rgb(0,178,0)" stroke-width="0.1"/>
  <path d="M 66.576181,29.375428499999998 L 48.37148100000002,29.375428499999998" fill="none" stroke="rgb(0,178,0)" stroke-width="0.1"/>
 </g>
 <g id="layerDOTE" inkscape:groupmode="layer" inkscape:label="DOTE">
  <path d="M 87.64118100000002,0.0 L 87.64118100000002,46.8874285" fill="none" stroke="rgb(178,0,0)" stroke-width="0.1"/>
  <path d="M 87.64118100000002,46.8874285 L 0.0,46.8874285" fill="none" stroke="rgb(178,0,0)" stroke-width="0.1"/>
  <path d="M 71.64118100000002,0.0 L 71.64118100000002,46.8874285" fill="none" stroke="rgb(178,0,0)" stroke-width="0.1"/>
  <path d="M 87.64118100000002,21.8874285 L 71.64118100000002,21.8874285" fill="none" stroke="rgb(178,0,0)" stroke-width="0.1"/>
  <path d="M 87.64118100000002,9.887428499999999 L 71.64118100000002,9.887428499999999" fill="none" stroke="rgb(178,0,0)" stroke-width="0.1"/>
  <path d="M 32.14118100000002,46.8874285 L 32.14118100000002,0.0" fill="none" stroke="rgb(178,0,0)" stroke-width="0.1"/>
  <path d="M 35.14118100000002,17.3874285 L 0.0,17.3874285" fill="none" stroke="rgb(178,0,0)" stroke-width="0.1"/>
  <path d="M 0.0,43.3874285 L 100.0,43.3874285" fill="none" stroke="rgb(178,0,0)" stroke-width="0.1"/>
 </g>
 <g id="layerPUB_DIM" inkscape:groupmode="layer" inkscape:label="PUB_DIM">
  <path d="M 30.04118100000001,46.8874285 L 25.576481000000015,46.8874285" fill="none" stroke="rgb(0,178,0)" stroke-width="0.1"/>
  <path d="M 30.04118100000001,43.3874285 L 25.576481000000015,43.3874285" fill="none" stroke="rgb(0,178,0)" stroke-width="0.1"/>
  <path d="M 27.326481000000015,46.8874285 L 27.326481000000015,43.3874285" fill="none" stroke="rgb(0,178,0)" stroke-width="0.1"/>
  <path d="M 30.04118100000001,43.3874285 L 25.576481000000015,43.3874285" fill="none" stroke="rgb(0,178,0)" stroke-width="0.1"/>
  <path d="M 30.04118100000001,36.3874285 L 25.576481000000015,36.3874285" fill="none" stroke="rgb(0,178,0)" stroke-width="0.1"/>
  <path d="M 27.326481000000015,43.3874285 L 27.326481000000015,36.3874285" fill="none" stroke="rgb(0,178,0)" stroke-width="0.1"/>
  <path d="M 30.04118100000001,36.3874285 L 25.576481000000015,36.3874285" fill="none" stroke="rgb(0,178,0)" stroke-width="0.1"/>
  <path d="M 30.04118100000001,20.3874285 L 25.576481000000015,20.3874285" fill="none" stroke="rgb(0,178,0)" stroke-width="0.1"/>
  <path d="M 27.326481000000015,36.3874285 L 27.326481000000015,20.3874285" fill="none" stroke="rgb(0,178,0)" stroke-width="0.1"/>
  <path d="M 30.04118100000001,20.3874285 L 25.576481000000015,20.3874285" fill="none" stroke="rgb(0,178,0)" stroke-width="0.1"/>
  <path d="M 30.04118100000001,17.3874285 L 25.576481000000015,17.3874285" fill="none" stroke="rgb(0,178,0)" stroke-width="0.1"/>
  <path d="M 27.326481000000015,20.3874285 L 27.326481000000015,21.087428500000044" fill="none" stroke="rgb(0,178,0)" stroke-width="0.1"/>
  <path d="M 27.326481000000015,17.3874285 L 27.326481000000015,16.68742850000001" fill="none" stroke="rgb(0,178,0)" stroke-width="0.1"/>
  <path d="M 27.326481000000015,20.3874285 L 27.326481000000015,17.3874285" fill="none" stroke="rgb(0,178,0)" stroke-width="0.1"/>
  <path d="M 30.04118100000001,17.3874285 L 25.576481000000015,17.3874285" fill="none" stroke="rgb(0,178,0)" stroke-width="0.1"/>
  <path d="M 30.04118100000001,13.887428499999999 L 25.576481000000015,13.887428499999999" fill="none" stroke="rgb(0,178,0)" stroke-width="0.1"/>
  <path d="M 27.326481000000015,17.3874285 L 27.326481000000015,13.887428499999999" fill="none" stroke="rgb(0,178,0)" stroke-width="0.1"/>
  <path d="M 30.04118100000001,13.887428499999999 L 25.576481000000015,13.887428499999999" fill="none" stroke="rgb(0,178,0)" stroke-width="0.1"/>
  <path d="M 27.326481000000015,13.887428499999999 L 27.326481000000015,0.0" fill="none" stroke="rgb(0,178,0)" stroke-width="0.1"/>
  <path d="M 35.14118100000002,46.8874285 L 47.89648100000001,46.8874285" fill="none" stroke="rgb(0,178,0)" stroke-width="0.1"/>
  <path d="M 35.14118100000002,17.3874285 L 47.89648100000001,17.3874285" fill="none" stroke="rgb(0,178,0)" stroke-width="0.1"/>
  <path d="M 45.39648100000001,46.8874285 L 45.39648100000001,17.3874285" fill="none" stroke="rgb(0,178,0)" stroke-width="0.1"/>
  <path d="M 35.14118100000002,17.3874285 L 47.89648100000001,17.3874285" fill="none" stroke="rgb(0,178,0)" stroke-width="0.1"/>
  <path d="M 45.39648100000001,17.3874285 L 45.39648100000001,0.0" fill="none" stroke="rgb(0,178,0)" stroke-width="0.1"/>
  <path d="M 32.14118100000002,49.8874285 L 32.14118100000002,56.66942850000004" fill="none" stroke="rgb(0,178,0)" stroke-width="0.1"/>
  <path d="M 0.0,54.16942850000004 L 32.14118100000002,54.16942850000004" fill="none" stroke="rgb(0,178,0)" stroke-width="0.1"/>
  <path d="M 32.14118100000002,49.8874285 L 32.14118100000002,56.66942850000004" fill="none" stroke="rgb(0,178,0)" stroke-width="0.1"/>
  <path d="M 71.64118100000002,49.8874285 L 71.64118100000002,56.66942850000004" fill="none" stroke="rgb(0,178,0)" stroke-width="0.1"/>
  <path d="M 32.14118100000002,54.16942850000004 L 71.64118100000002,54.16942850000004" fill="none" stroke="rgb(0,178,0)" stroke-width="0.1"/>
  <path d="M 71.64118100000002,49.8874285 L 71.64118100000002,56.66942850000004" fill="none" stroke="rgb(0,178,0)" stroke-width="0.1"/>
  <path d="M 87.64118100000002,49.8874285 L 87.64118100000002,56.66942850000004" fill="none" stroke="rgb(0,178,0)" stroke-width="0.1"/>
  <path d="M 71.64118100000002,54.16942850000004 L 87.64118100000002,54.16942850000004" fill="none" stroke="rgb(0,178,0)" stroke-width="0.1"/>
  <path d="M 90.64118100000002,9.887428499999999 L 97.441181,9.887428499999999" fill="none" stroke="rgb(0,178,0)" stroke-width="0.1"/>
  <path d="M 94.941181,9.887428499999999 L 94.941181,0.0" fill="none" stroke="rgb(0,178,0)" stroke-width="0.1"/>
  <path d="M 90.64118100000002,21.8874285 L 97.441181,21.8874285" fill="none" stroke="rgb(0,178,0)" stroke-width="0.1"/>
  <path d="M 90.64118100000002,9.887428499999999 L 97.441181,9.887428499999999" fill="none" stroke="rgb(0,178,0)" stroke-width="0.1"/>
  <path d="M 94.941181,21.8874285 L 94.941181,9.887428499999999" fill="none" stroke="rgb(0,178,0)" stroke-width="0.1"/>
  <path d="M 90.64118100000002,43.3874285 L 97.441181,43.3874285" fill="none" stroke="rgb(0,178,0)" stroke-width="0.1"/>
  <path d="M 90.64118100000002,21.8874285 L 97.441181,21.8874285" fill="none" stroke="rgb(0,178,0)" stroke-width="0.1"/>
  <path d="M 94.941181,43.3874285 L 94.941181,21.8874285" fill="none" stroke="rgb(0,178,0)" stroke-width="0.1"/>
  <path d="M 90.64118100000002,46.8874285 L 97.441181,46.8874285" fill="none" stroke="rgb(0,178,0)" stroke-width="0.1"/>
  <path d="M 90.64118100000002,43.3874285 L 97.441181,43.3874285" fill="none" stroke="rgb(0,178,0)" stroke-width="0.1"/>
  <path d="M 94.941181,46.8874285 L 94.941181,43.3874285" fill="none" stroke="rgb(0,178,0)" stroke-width="0.1"/>
  <text fill="rgb(0,178,0)" font-family="Noto Sans CJK SC" font-size="2" transform="rotate(-90.0,26.44278100000001,51.57742850000005)" x="26.44278100000001" y="51.57742850000005">
   350
  </text>
  <text fill="rgb(0,178,0)" font-family="Noto Sans CJK SC" font-size="2" transform="rotate(-90.0,26.626481000000013,41.98742850000002)" x="26.626481000000013" y="41.98742850000002">
   700
  </text>
  <text fill="rgb(0,178,0)" font-family="Noto Sans CJK SC" font-size="2" transform="rotate(-90.0,26.626481000000013,31.292428500000028)" x="26.626481000000013" y="31.292428500000028">
   1600
  </text>
  <text fill="rgb(0,178,0)" font-family="Noto Sans CJK SC" font-size="2" transform="rotate(-90.0,26.626481000000013,20.98742850000002)" x="26.626481000000013" y="20.98742850000002">
   300
  </text>
  <text fill="rgb(0,178,0)" font-family="Noto Sans CJK SC" font-size="2" transform="rotate(-90.0,23.992781000000008,17.73742850000002)" x="23.992781000000008" y="17.73742850000002">
   350
  </text>
  <text fill="rgb(0,178,0)" font-family="Noto Sans CJK SC" font-size="2" transform="rotate(-90.0,26.626481000000013,8.292428500000028)" x="26.626481000000013" y="8.292428500000028">
   1700
  </text>
  <text fill="rgb(0,178,0)" font-family="Noto Sans CJK SC" font-size="2" transform="rotate(-90.0,44.39648100000001,36.1374285)" x="44.39648100000001" y="36.1374285">
   2950
  </text>
  <text fill="rgb(0,178,0)" font-family="Noto Sans CJK SC" font-size="2" transform="rotate(-90.0,44.39648100000001,6.387428499999999)" x="44.39648100000001" y="6.387428499999999">
   3000
  </text>
  <text fill="rgb(0,178,0)" font-family="Noto Sans CJK SC" font-size="2" transform="rotate(-0.0,10.14118100000001,53.16942850000004)" x="10.14118100000001" y="53.16942850000004">
   3600
  </text>
  <text fill="rgb(0,178,0)" font-family="Noto Sans CJK SC" font-size="2" transform="rotate(-0.0,47.89118100000002,53.16942850000004)" x="47.89118100000002" y="53.16942850000004">
   3950
  </text>
  <text fill="rgb(0,178,0)" font-family="Noto Sans CJK SC" font-size="2" transform="rotate(-0.0,75.49118100000001,53.16942850000004)" x="75.49118100000001" y="53.16942850000004">
   1600
  </text>
  <text fill="rgb(0,178,0)" font-family="Noto Sans CJK SC" font-size="2" transform="rotate(-90.0,93.941181,2.6374284999999986)" x="93.941181" y="2.6374284999999986">
   2250
  </text>
  <text fill="rgb(0,178,0)" font-family="Noto Sans CJK SC" font-size="2" transform="rotate(-90.0,93.941181,20.037428500000033)" x="93.941181" y="20.037428500000033">
   1200
  </text>
  <text fill="rgb(0,178,0)" font-family="Noto Sans CJK SC" font-size="2" transform="rotate(-90.0,93.941181,36.6374285)" x="93.941181" y="36.6374285">
   2150
  </text>
  <text fill="rgb(0,178,0)" font-family="Noto Sans CJK SC" font-size="2" transform="rotate(-90.0,93.679181,53.587428500000044)" x="93.679181" y="53.587428500000044">
   350
  </text>
 </g>
 <g id="layerPUB_TEXT" inkscape:groupmode="layer" inkscape:label="PUB_TEXT">
  <text fill="rgb(0,0,0)" font-family="Noto Sans CJK SC" font-size="2" transform="rotate(-0.0,68.55418100000001,78.27242850000005)" x="68.55418100000001" y="78.27242850000005">
   厨房
  </text>
  <text fill="rgb(0,0,0)" font-family="Noto Sans CJK SC" font-size="2" transform="rotate(-0.0,80.576181,78.27242850000005)" x="80.576181" y="78.27242850000005">
   169
  </text>
  <text fill="rgb(0,0,0)" font-family="Noto Sans CJK SC" font-size="2" transform="rotate(-0.0,88.507181,78.27242850000005)" x="88.507181" y="78.27242850000005">
   平方米
  </text>
  <text fill="rgb(0,0,0)" font-family="Noto Sans CJK SC" font-size="2" transform="rotate(-0.0,53.375681000000014,87.71542850000003)" x="53.375681000000014" y="87.71542850000003">
   阴影区结构降板
  </text>
  <text fill="rgb(0,0,0)" font-family="Noto Sans CJK SC" font-size="2" transform="rotate(-0.0,77.95018100000001,87.71542850000003)" x="77.95018100000001" y="87.71542850000003">
   400
  </text>
  <text fill="rgb(0,0,0)" font-family="Noto Sans CJK SC" font-size="2" transform="rotate(-0.0,48.02248100000001,17.985428500000012)" x="48.02248100000001" y="17.985428500000012">
   电梯厅
  </text>
  <text fill="rgb(0,0,0)" font-family="Noto Sans CJK SC" font-size="2" transform="rotate(-0.0,76.77618100000001,37.9354285)" x="76.77618100000001" y="37.9354285">
   强电
  </text>
  <text fill="rgb(0,0,0)" font-family="Noto Sans CJK SC" font-size="2" transform="rotate(-0.0,76.44718100000001,18.030428500000028)" x="76.44718100000001" y="18.030428500000028">
   正压
  </text>
  <text fill="rgb(0,0,0)" font-family="Noto Sans CJK SC" font-size="2" transform="rotate(-0.0,7.96308100000001,1.82642850000002)" x="7.96308100000001" y="1.82642850000002">
   货梯
  </text>
  <text fill="rgb(0,0,0)" font-family="Noto Sans CJK SC" font-size="2" transform="rotate(-0.0,16.53218100000001,1.82642850000002)" x="16.53218100000001" y="1.82642850000002">
   2.0T
  </text>
  <text fill="rgb(0,0,0)" font-family="Noto Sans CJK SC" font-size="2" transform="rotate(-0.0,7.703081000000012,29.5364285)" x="7.703081000000012" y="29.5364285">
   货梯
  </text>
  <text fill="rgb(0,0,0)" font-family="Noto Sans CJK SC" font-size="2" transform="rotate(-0.0,16.27218100000001,29.5364285)" x="16.27218100000001" y="29.5364285">
   1.6T
  </text>
  <text fill="rgb(0,0,0)" font-family="Noto Sans CJK SC" font-size="2" transform="rotate(-0.0,10.983081000000013,6.8564285000000496)" x="10.983081000000013" y="6.8564285000000496">
   DT20
  </text>
  <text fill="rgb(0,0,0)" font-family="Noto Sans CJK SC" font-size="2" transform="rotate(-0.0,11.122481000000008,34.34442850000005)" x="11.122481000000008" y="34.34442850000005">
   DT21
  </text>
  <text fill="rgb(0,0,0)" font-family="Noto Sans CJK SC" font-size="2" transform="rotate(-0.0,8.064881000000014,62.26542850000004)" x="8.064881000000014" y="62.26542850000004">
   DT20-DT21
  </text>
  <text fill="rgb(0,0,0)" font-family="Noto Sans CJK SC" font-size="2" transform="rotate(-0.0,26.064881000000014,62.26542850000004)" x="26.064881000000014" y="62.26542850000004">
   详建施通
  </text>
  <text fill="rgb(0,0,0)" font-family="Noto Sans CJK SC" font-size="2" transform="rotate(-0.0,35.89458100000002,62.26542850000004)" x="35.89458100000002" y="62.26542850000004">
   -11
  </text>
  <text fill="rgb(0,0,0)" font-family="Noto Sans CJK SC" font-size="2" transform="rotate(-0.0,48.516581000000016,37.13042850000005)" x="48.516581000000016" y="37.13042850000005">
   留洞
  </text>
  <text fill="rgb(0,0,0)" font-family="Noto Sans CJK SC" font-size="2" transform="rotate(-0.0,53.431481000000005,37.13042850000005)" x="53.431481000000005" y="37.13042850000005">
   600*350
  </text>
  <text fill="rgb(0,0,0)" font-family="Noto Sans CJK SC" font-size="2" transform="rotate(-0.0,47.716581000000005,28.325428500000044)" x="47.716581000000005" y="28.325428500000044">
   留洞
  </text>
  <text fill="rgb(0,0,0)" font-family="Noto Sans CJK SC" font-size="2" transform="rotate(-0.0,52.63148100000001,28.325428500000044)" x="52.63148100000001" y="28.325428500000044">
   1000*350
  </text>
 </g>
 <g id="layerS-上空线" inkscape:groupmode="layer" inkscape:label="S-上空线">
  <path d="M 86.64118100000002,10.887428499999999 L 75.60118100000001,13.080428500000039" fill="none" stroke="rgb(63,63,63)" stroke-width="0.1"/>
  <path d="M 75.60118100000001,13.080428500000039 L 72.64118100000002,20.8874285" fill="none" stroke="rgb(63,63,63)" stroke-width="0.1"/>
  <path d="M 76.14118100000002,38.8874285 L 75.371181,43.345428500000025" fill="none" stroke="rgb(63,63,63)" stroke-width="0.1"/>
  <path d="M 75.371181,43.345428500000025 L 72.64118100000002,44.8874285" fill="none" stroke="rgb(63,63,63)" stroke-width="0.1"/>
  <path d="M 85.64118100000002,26.3874285 L 76.183181,25.61842850000005" fill="none" stroke="rgb(63,63,63)" stroke-width="0.1"/>
  <path d="M 76.183181,25.61842850000005 L 74.64118100000002,22.8874285" fill="none" stroke="rgb(63,63,63)" stroke-width="0.1"/>
 </g>
 <g id="layerS-电梯" inkscape:groupmode="layer" inkscape:label="S-电梯">
  <path d="M 31.141181000000017,0.0 L 31.141181000000017,16.3874285" fill="none" instance-id="1" semantic-id="31" stroke="rgb(178,0,178)" stroke-width="0.1"/>
  <path d="M 31.141181000000017,16.3874285 L 0.0,16.3874285" fill="none" instance-id="1" semantic-id="31" stroke="rgb(178,0,178)" stroke-width="0.1"/>
  <path d="M 86.64118100000002,22.8874285 L 86.64118100000002,45.8874285" fill="none" stroke="rgb(178,0,178)" stroke-width="0.1"/>
  <path d="M 86.64118100000002,45.8874285 L 72.64118100000002,45.8874285" fill="none" stroke="rgb(178,0,178)" stroke-width="0.1"/>
  <path d="M 72.64118100000002,45.8874285 L 72.64118100000002,22.8874285" fill="none" stroke="rgb(178,0,178)" stroke-width="0.1"/>
  <path d="M 72.64118100000002,22.8874285 L 86.64118100000002,22.8874285" fill="none" stroke="rgb(178,0,178)" stroke-width="0.1"/>
  <path d="M 0.0,44.8874285 L 31.141181000000017,44.8874285" fill="none" instance-id="2" semantic-id="31" stroke="rgb(178,0,178)" stroke-width="0.1"/>
  <path d="M 31.141181000000017,44.8874285 L 31.141181000000017,18.3874285" fill="none" instance-id="2" semantic-id="31" stroke="rgb(178,0,178)" stroke-width="0.1"/>
  <path d="M 31.141181000000017,18.3874285 L 0.0,18.3874285" fill="none" instance-id="2" semantic-id="31" stroke="rgb(178,0,178)" stroke-width="0.1"/>
  <path d="M 24.935581000000013,40.69342850000004 L 9.406681000000013,40.69342850000004" fill="none" instance-id="2" semantic-id="31" stroke="rgb(178,0,178)" stroke-width="0.1"/>
  <path d="M 9.406681000000013,40.69342850000004 L 9.406681000000013,38.46742850000004" fill="none" instance-id="2" semantic-id="31" stroke="rgb(178,0,178)" stroke-width="0.1"/>
  <path d="M 9.406681000000013,38.46742850000004 L 24.935581000000013,38.46742850000004" fill="none" instance-id="2" semantic-id="31" stroke="rgb(178,0,178)" stroke-width="0.1"/>
  <path d="M 24.935581000000013,38.46742850000004 L 24.935581000000013,40.69342850000004" fill="none" instance-id="2" semantic-id="31" stroke="rgb(178,0,178)" stroke-width="0.1"/>
  <path d="M 31.141181000000017,0.0 L 31.141181000000017,16.3874285" fill="none" instance-id="1" semantic-id="31" stroke="rgb(178,0,178)" stroke-width="0.1"/>
  <path d="M 31.141181000000017,16.3874285 L 0.0,16.3874285" fill="none" instance-id="1" semantic-id="31" stroke="rgb(178,0,178)" stroke-width="0.1"/>
  <path d="M 29.721181000000016,36.8874285 L 29.721181000000016,19.8874285" fill="none" instance-id="2" semantic-id="31" stroke="rgb(178,0,178)" stroke-width="0.1"/>
  <path d="M 29.721181000000016,19.8874285 L 5.621181000000007,19.8874285" fill="none" instance-id="2" semantic-id="31" stroke="rgb(178,0,178)" stroke-width="0.1"/>
  <path d="M 5.621181000000007,19.8874285 L 5.621181000000007,36.8874285" fill="none" instance-id="2" semantic-id="31" stroke="rgb(178,0,178)" stroke-width="0.1"/>
  <path d="M 5.621181000000007,36.8874285 L 29.721181000000016,36.8874285" fill="none" instance-id="2" semantic-id="31" stroke="rgb(178,0,178)" stroke-width="0.1"/>
  <path d="M 29.721181000000016,36.8874285 L 5.621181000000007,19.8874285" fill="none" instance-id="2" semantic-id="31" stroke="rgb(178,0,178)" stroke-width="0.1"/>
  <path d="M 5.621181000000007,19.8874285 L 29.721181000000016,19.8874285" fill="none" instance-id="2" semantic-id="31" stroke="rgb(178,0,178)" stroke-width="0.1"/>
  <path d="M 29.721181000000016,19.8874285 L 5.621181000000007,36.8874285" fill="none" instance-id="2" semantic-id="31" stroke="rgb(178,0,178)" stroke-width="0.1"/>
  <path d="M 29.721181000000016,0.0 L 29.721181000000016,13.887428499999999" fill="none" instance-id="1" semantic-id="31" stroke="rgb(178,0,178)" stroke-width="0.1"/>
  <path d="M 29.721181000000016,13.887428499999999 L 5.621181000000007,13.887428499999999" fill="none" instance-id="1" semantic-id="31" stroke="rgb(178,0,178)" stroke-width="0.1"/>
  <path d="M 5.621181000000007,13.887428499999999 L 5.621181000000007,0.0" fill="none" instance-id="1" semantic-id="31" stroke="rgb(178,0,178)" stroke-width="0.1"/>
  <path d="M 25.308653167647066,0.0 L 5.621181000000007,13.887428499999999" fill="none" instance-id="1" semantic-id="31" stroke="rgb(178,0,178)" stroke-width="0.1"/>
  <path d="M 5.621181000000007,13.887428499999999 L 29.721181000000016,13.887428499999999" fill="none" instance-id="1" semantic-id="31" stroke="rgb(178,0,178)" stroke-width="0.1"/>
  <path d="M 29.721181000000016,13.887428499999999 L 10.03370883235295,0.0" fill="none" instance-id="1" semantic-id="31" stroke="rgb(178,0,178)" stroke-width="0.1"/>
 </g>
 <g id="layerS-看线" inkscape:groupmode="layer" inkscape:label="S-看线">
  <path d="M 0.0,50.88156065551266 L 2.9940810000000084,47.8874285" fill="none" stroke="rgb(89,89,89)" stroke-width="0.1"/>
  <path d="M 0.0,54.24945447483867 L 6.3616810000000115,47.8874285" fill="none" stroke="rgb(89,89,89)" stroke-width="0.1"/>
  <path d="M 0.0,57.61740510560378 L 9.729281000000007,47.8874285" fill="none" stroke="rgb(89,89,89)" stroke-width="0.1"/>
  <path d="M 0.0,60.984555748318826 L 13.09688100000001,47.8874285" fill="none" stroke="rgb(89,89,89)" stroke-width="0.1"/>
  <path d="M 0.0,64.35250593729074 L 16.464481000000013,47.8874285" fill="none" stroke="rgb(89,89,89)" stroke-width="0.1"/>
  <path d="M 0.0,67.71959690103307 L 19.83208100000001,47.8874285" fill="none" stroke="rgb(89,89,89)" stroke-width="0.1"/>
  <path d="M 0.0,71.08755464613279 L 23.199681000000012,47.8874285" fill="none" stroke="rgb(89,89,89)" stroke-width="0.1"/>
  <path d="M 0.0,74.45552206275556 L 26.56728100000001,47.8874285" fill="none" stroke="rgb(89,89,89)" stroke-width="0.1"/>
  <path d="M 0.0,77.82258334724207 L 29.934881000000004,47.8874285" fill="none" stroke="rgb(89,89,89)" stroke-width="0.1"/>
  <path d="M 0.0,81.19055415980762 L 33.302481000000014,47.8874285" fill="none" stroke="rgb(89,89,89)" stroke-width="0.1"/>
  <path d="M 0.0,84.55760226777505 L 36.67008100000001,47.8874285" fill="none" stroke="rgb(89,89,89)" stroke-width="0.1"/>
  <path d="M 0.0,87.92557617771268 L 40.037681000000006,47.8874285" fill="none" stroke="rgb(89,89,89)" stroke-width="0.1"/>
  <path d="M 0.0,91.29355388588243 L 43.405281000000016,47.8874285" fill="none" stroke="rgb(89,89,89)" stroke-width="0.1"/>
  <path d="M 0.0,94.66059221980004 L 46.77288100000001,47.8874285" fill="none" stroke="rgb(89,89,89)" stroke-width="0.1"/>
  <path d="M 0.0,98.0285717415145 L 50.14048100000001,47.8874285" fill="none" stroke="rgb(89,89,89)" stroke-width="0.1"/>
  <path d="M 1.3956019522708587,100.0 L 53.508081000000004,47.8874285" fill="none" stroke="rgb(89,89,89)" stroke-width="0.1"/>
  <path d="M 4.76354569797023,100.0 L 56.875681000000014,47.8874285" fill="none" stroke="rgb(89,89,89)" stroke-width="0.1"/>
  <path d="M 88.64118100000002,2.652428500000042 L 91.29355216878855,0.0" fill="none" stroke="rgb(89,89,89)" stroke-width="0.1"/>
  <path d="M 88.64118100000002,6.019428500000004 L 94.66060950000002,0.0" fill="none" stroke="rgb(89,89,89)" stroke-width="0.1"/>
  <path d="M 88.64118100000002,9.387428499999999 L 98.02843237870758,0.0" fill="none" stroke="rgb(89,89,89)" stroke-width="0.1"/>
  <path d="M 88.64118100000002,12.754428500000017 L 100.0,1.3956095000000346" fill="none" stroke="rgb(89,89,89)" stroke-width="0.1"/>
  <path d="M 88.64118100000002,16.122428500000012 L 100.0,4.763419343322084" fill="none" stroke="rgb(89,89,89)" stroke-width="0.1"/>
  <path d="M 8.130609500000034,100.0 L 60.24318100000001,47.8874285" fill="none" stroke="rgb(89,89,89)" stroke-width="0.1"/>
  <path d="M 11.498609500000029,100.0 L 63.611181000000016,47.8874285" fill="none" stroke="rgb(89,89,89)" stroke-width="0.1"/>
  <path d="M 14.86635569220914,100.0 L 66.978181,47.8874285" fill="none" stroke="rgb(89,89,89)" stroke-width="0.1"/>
  <path d="M 88.64118100000002,19.48942850000003 L 100.0,8.130609500000048" fill="none" stroke="rgb(89,89,89)" stroke-width="0.1"/>
  <path d="M 88.64118100000002,22.857428500000026 L 100.0,11.498609500000043" fill="none" stroke="rgb(89,89,89)" stroke-width="0.1"/>
  <path d="M 88.64118100000002,26.22542850000002 L 100.0,14.866609500000038" fill="none" stroke="rgb(89,89,89)" stroke-width="0.1"/>
  <path d="M 18.233537121428483,100.0 L 70.34618100000002,47.8874285" fill="none" stroke="rgb(89,89,89)" stroke-width="0.1"/>
  <path d="M 21.600971392857645,100.0 L 73.713181,47.8874285" fill="none" stroke="rgb(89,89,89)" stroke-width="0.1"/>
  <path d="M 24.968609500000014,100.0 L 77.08118100000002,47.8874285" fill="none" stroke="rgb(89,89,89)" stroke-width="0.1"/>
  <path d="M 28.3363199857139,100.0 L 80.44918100000001,47.8874285" fill="none" stroke="rgb(89,89,89)" stroke-width="0.1"/>
  <path d="M 31.70375425714306,100.0 L 83.81618100000001,47.8874285" fill="none" stroke="rgb(89,89,89)" stroke-width="0.1"/>
  <path d="M 35.07146474285696,100.0 L 87.18418100000002,47.8874285" fill="none" stroke="rgb(89,89,89)" stroke-width="0.1"/>
  <path d="M 88.64118100000002,29.59242850000004 L 100.0,18.233609500000057" fill="none" stroke="rgb(89,89,89)" stroke-width="0.1"/>
  <path d="M 88.64118100000002,32.960428500000035 L 100.0,21.601609500000052" fill="none" stroke="rgb(89,89,89)" stroke-width="0.1"/>
  <path d="M 88.64118100000002,36.32742850000005 L 100.0,24.96860950000007" fill="none" stroke="rgb(89,89,89)" stroke-width="0.1"/>
  <path d="M 88.64118100000002,39.69542850000005 L 100.0,28.336609500000066" fill="none" stroke="rgb(89,89,89)" stroke-width="0.1"/>
  <path d="M 88.64118100000002,43.06342850000004 L 100.0,31.70460950000006" fill="none" stroke="rgb(89,89,89)" stroke-width="0.1"/>
  <path d="M 88.64118100000002,46.430428500000005 L 100.0,35.07160950000002" fill="none" stroke="rgb(89,89,89)" stroke-width="0.1"/>
  <path d="M 38.43909915772605,100.0 L 100.0,38.43937668910718" fill="none" stroke="rgb(89,89,89)" stroke-width="0.1"/>
  <path d="M 41.80660950000001,100.0 L 100.0,41.806609500000036" fill="none" stroke="rgb(89,89,89)" stroke-width="0.1"/>
  <path d="M 45.17427245781218,100.0 L 100.0,45.174446019564016" fill="none" stroke="rgb(89,89,89)" stroke-width="0.1"/>
  <path d="M 48.541938863852806,100.0 L 100.0,48.542273586350746" fill="none" stroke="rgb(89,89,89)" stroke-width="0.1"/>
  <path d="M 51.90944275128702,100.0 L 100.0,51.9095231573711" fill="none" stroke="rgb(89,89,89)" stroke-width="0.1"/>
  <path d="M 55.27711214390931,100.0 L 100.0,55.277342968540665" fill="none" stroke="rgb(89,89,89)" stroke-width="0.1"/>
  <path d="M 58.64460950000003,100.0 L 100.0,58.64460950000006" fill="none" stroke="rgb(89,89,89)" stroke-width="0.1"/>
  <path d="M 62.01228213752695,100.0 L 100.0,62.01242088466569" fill="none" stroke="rgb(89,89,89)" stroke-width="0.1"/>
  <path d="M 65.37995938452728,100.0 L 100.0,65.38022030158419" fill="none" stroke="rgb(89,89,89)" stroke-width="0.1"/>
  <path d="M 68.74744819864763,100.0 L 100.0,68.74750901239918" fill="none" stroke="rgb(89,89,89)" stroke-width="0.1"/>
  <path d="M 72.11512952914208,100.0 L 100.0,72.11529782525332" fill="none" stroke="rgb(89,89,89)" stroke-width="0.1"/>
  <path d="M 75.48260950000001,100.0 L 100.0,75.48260950000002" fill="none" stroke="rgb(89,89,89)" stroke-width="0.1"/>
  <path d="M 78.8506095,100.0 L 100.0,78.85060950000002" fill="none" stroke="rgb(89,89,89)" stroke-width="0.1"/>
  <path d="M 82.21783217863063,100.0 L 100.0,82.21803128252401" fill="none" stroke="rgb(89,89,89)" stroke-width="0.1"/>
  <path d="M 85.58560950000002,100.0 L 100.0,85.58560950000003" fill="none" stroke="rgb(89,89,89)" stroke-width="0.1"/>
  <path d="M 88.95285034079322,100.0 L 100.0,88.95298412239634" fill="none" stroke="rgb(89,89,89)" stroke-width="0.1"/>
  <path d="M 92.32060950000002,100.0 L 100.0,92.32060950000005" fill="none" stroke="rgb(89,89,89)" stroke-width="0.1"/>
  <path d="M 95.68860950000001,100.0 L 100.0,95.68860950000004" fill="none" stroke="rgb(89,89,89)" stroke-width="0.1"/>
  <path d="M 99.05588391533973,100.0 L 100.0,99.05589694248204" fill="none" stroke="rgb(89,89,89)" stroke-width="0.1"/>
  <path d="M 0.0,47.8874285 L 88.64118100000002,47.8874285" fill="none" stroke="rgb(89,89,89)" stroke-width="0.1"/>
  <path d="M 88.64118100000002,47.8874285 L 88.64118100000002,0.0" fill="none" stroke="rgb(89,89,89)" stroke-width="0.1"/>
  <path d="M 88.64118100000002,47.8874285 L 0.0,47.8874285" fill="none" stroke="rgb(89,89,89)" stroke-width="0.1"/>
  <path d="M 88.64118100000002,0.0 L 88.64118100000002,47.8874285" fill="none" stroke="rgb(89,89,89)" stroke-width="0.1"/>
 </g>
 <g id="layerS-砖墙留洞" inkscape:groupmode="layer" inkscape:label="S-砖墙留洞">
  <path d="M 72.64118100000002,38.8874285 L 76.14118100000002,38.8874285" fill="none" stroke="rgb(0,0,178)" stroke-width="0.1"/>
  <path d="M 76.14118100000002,38.8874285 L 76.14118100000002,44.8874285" fill="none" stroke="rgb(0,0,178)" stroke-width="0.1"/>
  <path d="M 76.14118100000002,44.8874285 L 72.64118100000002,44.8874285" fill="none" stroke="rgb(0,0,178)" stroke-width="0.1"/>
  <path d="M 72.64118100000002,44.8874285 L 72.64118100000002,38.8874285" fill="none" stroke="rgb(0,0,178)" stroke-width="0.1"/>
  <path d="M 85.64118100000002,22.8874285 L 85.64118100000002,26.3874285" fill="none" stroke="rgb(0,0,178)" stroke-width="0.1"/>
  <path d="M 85.64118100000002,26.3874285 L 74.64118100000002,26.3874285" fill="none" stroke="rgb(0,0,178)" stroke-width="0.1"/>
  <path d="M 74.64118100000002,26.3874285 L 74.64118100000002,22.8874285" fill="none" stroke="rgb(0,0,178)" stroke-width="0.1"/>
  <path d="M 74.64118100000002,22.8874285 L 85.64118100000002,22.8874285" fill="none" stroke="rgb(0,0,178)" stroke-width="0.1"/>
 </g>
 <g id="layerS-结构钢柱" inkscape:groupmode="layer" inkscape:label="S-结构钢柱">
  <path d="M 0.0,47.8874285 L 0.14118100000001021,47.8874285" fill="none" stroke="rgb(178,178,0)" stroke-width="0.1"/>
  <path d="M 0.14118100000001021,47.8874285 L 0.14118100000001021,42.8874285" fill="none" stroke="rgb(178,178,0)" stroke-width="0.1"/>
  <path d="M 0.14118100000001021,42.8874285 L 0.0,42.8874285" fill="none" stroke="rgb(178,178,0)" stroke-width="0.1"/>
  <path d="M 34.89118100000002,47.8874285 L 42.89118100000002,47.8874285" fill="none" stroke="rgb(178,178,0)" stroke-width="0.1"/>
  <path d="M 42.89118100000002,47.8874285 L 42.89118100000002,39.8874285" fill="none" stroke="rgb(178,178,0)" stroke-width="0.1"/>
  <path d="M 42.89118100000002,39.8874285 L 34.89118100000002,39.8874285" fill="none" stroke="rgb(178,178,0)" stroke-width="0.1"/>
  <path d="M 34.89118100000002,39.8874285 L 34.89118100000002,47.8874285" fill="none" stroke="rgb(178,178,0)" stroke-width="0.1"/>
  <path d="M 35.14118100000002,47.6374285 L 42.64118100000002,47.6374285" fill="none" stroke="rgb(178,178,0)" stroke-width="0.1"/>
  <path d="M 42.64118100000002,47.6374285 L 42.64118100000002,40.1374285" fill="none" stroke="rgb(178,178,0)" stroke-width="0.1"/>
  <path d="M 42.64118100000002,40.1374285 L 35.14118100000002,40.1374285" fill="none" stroke="rgb(178,178,0)" stroke-width="0.1"/>
  <path d="M 35.14118100000002,40.1374285 L 35.14118100000002,47.6374285" fill="none" stroke="rgb(178,178,0)" stroke-width="0.1"/>
  <path d="M 35.14118100000002,47.6374285 L 42.64118100000002,47.6374285" fill="none" stroke="rgb(63,63,63)" stroke-width="0.1"/>
  <path d="M 42.64118100000002,47.6374285 L 42.64118100000002,40.1374285" fill="none" stroke="rgb(63,63,63)" stroke-width="0.1"/>
  <path d="M 42.64118100000002,40.1374285 L 35.14118100000002,40.1374285" fill="none" stroke="rgb(63,63,63)" stroke-width="0.1"/>
  <path d="M 35.14118100000002,40.1374285 L 35.14118100000002,47.6374285" fill="none" stroke="rgb(63,63,63)" stroke-width="0.1"/>
 </g>
 <g id="layerWALL" inkscape:groupmode="layer" inkscape:label="WALL">
  <path d="M 33.14118100000002,0.0 L 33.14118100000002,17.3874285" fill="none" instance-id="-1" semantic-id="1" stroke="rgb(178,178,0)" stroke-width="0.1"/>
  <path d="M 31.141181000000017,0.0 L 31.141181000000017,16.3874285" fill="none" instance-id="-1" semantic-id="1" stroke="rgb(178,178,0)" stroke-width="0.1"/>
  <path d="M 33.14118100000002,17.3874285 L 33.14118100000002,45.8874285" fill="none" instance-id="-1" semantic-id="1" stroke="rgb(178,178,0)" stroke-width="0.1"/>
  <path d="M 31.141181000000017,18.3874285 L 31.141181000000017,45.8874285" fill="none" instance-id="-1" semantic-id="1" stroke="rgb(178,178,0)" stroke-width="0.1"/>
  <path d="M 31.141181000000017,18.3874285 L 0.0,18.3874285" fill="none" instance-id="-1" semantic-id="1" stroke="rgb(178,178,0)" stroke-width="0.1"/>
  <path d="M 31.141181000000017,16.3874285 L 0.0,16.3874285" fill="none" instance-id="-1" semantic-id="1" stroke="rgb(178,178,0)" stroke-width="0.1"/>
  <path d="M 86.64118100000002,45.8874285 L 86.64118100000002,22.8874285" fill="none" instance-id="-1" semantic-id="1" stroke="rgb(178,178,0)" stroke-width="0.1"/>
  <path d="M 88.64118100000002,47.8874285 L 88.64118100000002,21.8874285" fill="none" instance-id="-1" semantic-id="1" stroke="rgb(178,178,0)" stroke-width="0.1"/>
  <path d="M 32.14118100000002,47.8874285 L 49.43118100000001,47.8874285" fill="none" instance-id="-1" semantic-id="1" stroke="rgb(178,178,0)" stroke-width="0.1"/>
  <path d="M 49.43118100000001,47.8874285 L 49.43118100000001,45.8874285" fill="none" instance-id="-1" semantic-id="1" stroke="rgb(178,178,0)" stroke-width="0.1"/>
  <path d="M 49.43118100000001,45.8874285 L 33.14118100000002,45.8874285" fill="none" instance-id="-1" semantic-id="1" stroke="rgb(178,178,0)" stroke-width="0.1"/>
  <path d="M 70.64118100000002,45.8874285 L 64.43118100000001,45.8874285" fill="none" instance-id="-1" semantic-id="1" stroke="rgb(178,178,0)" stroke-width="0.1"/>
  <path d="M 64.43118100000001,45.8874285 L 64.43118100000001,47.8874285" fill="none" instance-id="-1" semantic-id="1" stroke="rgb(178,178,0)" stroke-width="0.1"/>
  <path d="M 64.43118100000001,47.8874285 L 71.64118100000002,47.8874285" fill="none" instance-id="-1" semantic-id="1" stroke="rgb(178,178,0)" stroke-width="0.1"/>
  <path d="M 72.64118100000002,45.8874285 L 72.64118100000002,37.8874285" fill="none" instance-id="-1" semantic-id="1" stroke="rgb(178,178,0)" stroke-width="0.1"/>
  <path d="M 72.64118100000002,37.8874285 L 70.64118100000002,37.8874285" fill="none" instance-id="-1" semantic-id="1" stroke="rgb(178,178,0)" stroke-width="0.1"/>
  <path d="M 70.64118100000002,37.8874285 L 70.64118100000002,45.8874285" fill="none" instance-id="-1" semantic-id="1" stroke="rgb(178,178,0)" stroke-width="0.1"/>
  <path d="M 70.64118100000002,21.8874285 L 70.64118100000002,29.8874285" fill="none" instance-id="-1" semantic-id="1" stroke="rgb(178,178,0)" stroke-width="0.1"/>
  <path d="M 70.64118100000002,29.8874285 L 72.64118100000002,29.8874285" fill="none" instance-id="-1" semantic-id="1" stroke="rgb(178,178,0)" stroke-width="0.1"/>
  <path d="M 72.64118100000002,29.8874285 L 72.64118100000002,22.8874285" fill="none" instance-id="-1" semantic-id="1" stroke="rgb(178,178,0)" stroke-width="0.1"/>
  <path d="M 72.64118100000002,20.8874285 L 86.64118100000002,20.8874285" fill="none" instance-id="-1" semantic-id="1" stroke="rgb(178,178,0)" stroke-width="0.1"/>
  <path d="M 72.64118100000002,22.8874285 L 86.64118100000002,22.8874285" fill="none" instance-id="-1" semantic-id="1" stroke="rgb(178,178,0)" stroke-width="0.1"/>
  <path d="M 72.64118100000002,45.8874285 L 86.64118100000002,45.8874285" fill="none" instance-id="-1" semantic-id="1" stroke="rgb(178,178,0)" stroke-width="0.1"/>
  <path d="M 71.64118100000002,47.8874285 L 88.64118100000002,47.8874285" fill="none" instance-id="-1" semantic-id="1" stroke="rgb(178,178,0)" stroke-width="0.1"/>
  <path d="M 70.64118100000002,21.8874285 L 70.64118100000002,8.887428499999999" fill="none" instance-id="-1" semantic-id="1" stroke="rgb(178,178,0)" stroke-width="0.1"/>
  <path d="M 72.64118100000002,20.8874285 L 72.64118100000002,10.887428499999999" fill="none" instance-id="-1" semantic-id="1" stroke="rgb(178,178,0)" stroke-width="0.1"/>
  <path d="M 86.64118100000002,20.8874285 L 86.64118100000002,10.887428499999999" fill="none" instance-id="-1" semantic-id="1" stroke="rgb(178,178,0)" stroke-width="0.1"/>
  <path d="M 88.64118100000002,21.8874285 L 88.64118100000002,9.887428499999999" fill="none" instance-id="-1" semantic-id="1" stroke="rgb(178,178,0)" stroke-width="0.1"/>
  <path d="M 86.64118100000002,8.887428499999999 L 86.64118100000002,0.0" fill="none" instance-id="-1" semantic-id="1" stroke="rgb(178,178,0)" stroke-width="0.1"/>
  <path d="M 88.64118100000002,9.887428499999999 L 88.64118100000002,0.0" fill="none" instance-id="-1" semantic-id="1" stroke="rgb(178,178,0)" stroke-width="0.1"/>
  <path d="M 70.64118100000002,8.887428499999999 L 86.64118100000002,8.887428499999999" fill="none" instance-id="-1" semantic-id="1" stroke="rgb(178,178,0)" stroke-width="0.1"/>
  <path d="M 72.64118100000002,10.887428499999999 L 86.64118100000002,10.887428499999999" fill="none" instance-id="-1" semantic-id="1" stroke="rgb(178,178,0)" stroke-width="0.1"/>
  <path d="M 0.0,45.8874285 L 31.141181000000017,45.8874285" fill="none" instance-id="-1" semantic-id="1" stroke="rgb(178,178,0)" stroke-width="0.1"/>
  <path d="M 0.0,47.8874285 L 32.14118100000002,47.8874285" fill="none" instance-id="-1" semantic-id="1" stroke="rgb(178,178,0)" stroke-width="0.1"/>
 </g>
 <g id="layerWINDOW" inkscape:groupmode="layer" inkscape:label="WINDOW">
  <path d="M 70.64118100000002,37.8874285 L 70.64118100000002,29.8874285" fill="none" instance-id="7" semantic-id="4" stroke="rgb(0,178,178)" stroke-width="0.1"/>
  <path d="M 72.64118100000002,37.8874285 L 72.64118100000002,29.8874285" fill="none" instance-id="7" semantic-id="4" stroke="rgb(0,178,178)" stroke-width="0.1"/>
  <path d="M 71.64118100000002,37.8874285 L 68.81318100000001,35.059428500000024" fill="none" instance-id="7" semantic-id="4" stroke="rgb(0,178,178)" stroke-width="0.1"/>
  <path d="M 71.64118100000002,29.8874285 L 68.81318100000001,32.716428500000006" fill="none" instance-id="7" semantic-id="4" stroke="rgb(0,178,178)" stroke-width="0.1"/>
  <path d="M 64.43118100000001,46.8874285 L 64.43118100000001,54.200428500000044" fill="none" instance-id="8" semantic-id="4" stroke="rgb(0,178,178)" stroke-width="0.1"/>
  <path d="M 64.05618100000001,46.8874285 L 64.05618100000001,54.200428500000044" fill="none" instance-id="8" semantic-id="4" stroke="rgb(0,178,178)" stroke-width="0.1"/>
  <path d="M 64.43118100000001,46.8874285 L 64.05618100000001,46.8874285" fill="none" instance-id="8" semantic-id="4" stroke="rgb(0,178,178)" stroke-width="0.1"/>
  <path d="M 64.05618100000001,54.200428500000044 L 64.43118100000001,54.200428500000044" fill="none" instance-id="8" semantic-id="4" stroke="rgb(0,178,178)" stroke-width="0.1"/>
  <path d="M 49.80618100000001,46.8874285 L 49.80618100000001,54.200428500000044" fill="none" instance-id="8" semantic-id="4" stroke="rgb(0,178,178)" stroke-width="0.1"/>
  <path d="M 49.43118100000001,46.8874285 L 49.43118100000001,54.200428500000044" fill="none" instance-id="8" semantic-id="4" stroke="rgb(0,178,178)" stroke-width="0.1"/>
  <path d="M 49.80618100000001,54.200428500000044 L 49.43118100000001,54.200428500000044" fill="none" instance-id="8" semantic-id="4" stroke="rgb(0,178,178)" stroke-width="0.1"/>
  <path d="M 49.43118100000001,46.8874285 L 49.80618100000001,46.8874285" fill="none" instance-id="8" semantic-id="4" stroke="rgb(0,178,178)" stroke-width="0.1"/>
  <path d="M 30.551381000000006,14.454428500000006 L 30.551381000000006,5.954428500000006" fill="none" instance-id="4" semantic-id="5" stroke="rgb(0,178,178)" stroke-width="0.1"/>
  <path d="M 30.760281000000006,14.454428500000006 L 30.760281000000006,5.954428500000006" fill="none" instance-id="4" semantic-id="5" stroke="rgb(0,178,178)" stroke-width="0.1"/>
  <path d="M 30.551381000000006,14.454428500000006 L 30.760281000000006,14.454428500000006" fill="none" instance-id="4" semantic-id="5" stroke="rgb(0,178,178)" stroke-width="0.1"/>
  <path d="M 30.551381000000006,4.8214285000000245 L 30.760281000000006,4.8214285000000245" fill="none" instance-id="4" semantic-id="5" stroke="rgb(0,178,178)" stroke-width="0.1"/>
  <path d="M 30.760281000000006,4.8214285000000245 L 30.760281000000006,0.0" fill="none" instance-id="4" semantic-id="5" stroke="rgb(0,178,178)" stroke-width="0.1"/>
  <path d="M 30.551381000000006,4.8214285000000245 L 30.551324277311778,0.0" fill="none" instance-id="4" semantic-id="5" stroke="rgb(0,178,178)" stroke-width="0.1"/>
  <path d="M 30.551381000000006,5.954428500000006 L 30.760281000000006,5.954428500000006" fill="none" instance-id="4" semantic-id="5" stroke="rgb(0,178,178)" stroke-width="0.1"/>
  <path d="M 31.141181000000017,13.887428499999999 L 31.141099309244126,0.0" fill="none" instance-id="4" semantic-id="5" stroke="rgb(0,178,178)" stroke-width="0.1"/>
  <path d="M 30.551381000000006,19.85442850000004 L 30.551381000000006,27.85442850000004" fill="none" instance-id="5" semantic-id="5" stroke="rgb(0,178,178)" stroke-width="0.1"/>
  <path d="M 30.760281000000006,19.85442850000004 L 30.760281000000006,27.85442850000004" fill="none" instance-id="5" semantic-id="5" stroke="rgb(0,178,178)" stroke-width="0.1"/>
  <path d="M 30.551381000000006,36.92142850000005 L 30.760281000000006,36.92142850000005" fill="none" instance-id="5" semantic-id="5" stroke="rgb(0,178,178)" stroke-width="0.1"/>
  <path d="M 30.551381000000006,19.85442850000004 L 30.760281000000006,19.85442850000004" fill="none" instance-id="5" semantic-id="5" stroke="rgb(0,178,178)" stroke-width="0.1"/>
  <path d="M 30.551381000000006,28.921428500000047 L 30.760281000000006,28.921428500000047" fill="none" instance-id="5" semantic-id="5" stroke="rgb(0,178,178)" stroke-width="0.1"/>
  <path d="M 30.760281000000006,28.921428500000047 L 30.760281000000006,36.92142850000005" fill="none" instance-id="5" semantic-id="5" stroke="rgb(0,178,178)" stroke-width="0.1"/>
  <path d="M 30.551381000000006,28.921428500000047 L 30.551381000000006,36.92142850000005" fill="none" instance-id="5" semantic-id="5" stroke="rgb(0,178,178)" stroke-width="0.1"/>
  <path d="M 30.551381000000006,27.85442850000004 L 30.760281000000006,27.85442850000004" fill="none" instance-id="5" semantic-id="5" stroke="rgb(0,178,178)" stroke-width="0.1"/>
  <path d="M 31.141181000000017,20.3874285 L 31.141181000000017,36.3874285" fill="none" instance-id="5" semantic-id="5" stroke="rgb(0,178,178)" stroke-width="0.1"/>
  <path d="M 71.64118100000002,33.8874285 A 4.0,4.0 0.0 0,0 68.81318100000001,35.059428500000024" fill="none" instance-id="7" semantic-id="4" stroke="rgb(0,178,178)" stroke-width="0.1"/>
  <path d="M 68.81318100000001,32.716428500000006 A 4.0,4.0 0.0 0,0 71.64118100000002,33.8874285" fill="none" instance-id="7" semantic-id="4" stroke="rgb(0,178,178)" stroke-width="0.1"/>
  <path d="M 56.93118100000001,46.8874285 A 7.3125,7.3125 0.0 0,0 64.05618100000001,54.1974285" fill="none" instance-id="8" semantic-id="4" stroke="rgb(0,178,178)" stroke-width="0.1"/>
  <path d="M 49.80618100000001,54.1974285 A 7.3125,7.3125 0.0 0,0 56.93118100000001,46.8874285" fill="none" instance-id="8" semantic-id="4" stroke="rgb(0,178,178)" stroke-width="0.1"/>
 </g>
 <g id="layerWINDOW_TEXT" inkscape:groupmode="layer" inkscape:label="WINDOW_TEXT">
  <text fill="rgb(0,0,0)" font-family="Noto Sans CJK SC" font-size="2" transform="rotate(-90.0,77.14118100000002,40.716428500000006)" x="77.14118100000002" y="40.716428500000006">
   FM
  </text>
  <text fill="rgb(0,0,0)" font-family="Noto Sans CJK SC" font-size="2" transform="rotate(-90.0,77.14118100000002,36.51642850000002)" x="77.14118100000002" y="36.51642850000002">
   丙
  </text>
  <text fill="rgb(0,0,0)" font-family="Noto Sans CJK SC" font-size="2" transform="rotate(-90.0,77.14118100000002,34.059428500000024)" x="77.14118100000002" y="34.059428500000024">
   0818
  </text>
  <text fill="rgb(0,0,0)" font-family="Noto Sans CJK SC" font-size="2" transform="rotate(-0.0,50.55238100000001,44.337428500000044)" x="50.55238100000001" y="44.337428500000044">
   FM
  </text>
  <text fill="rgb(0,0,0)" font-family="Noto Sans CJK SC" font-size="2" transform="rotate(-0.0,54.752381000000014,44.337428500000044)" x="54.752381000000014" y="44.337428500000044">
   甲
  </text>
  <text fill="rgb(0,0,0)" font-family="Noto Sans CJK SC" font-size="2" transform="rotate(-0.0,57.20988100000001,44.337428500000044)" x="57.20988100000001" y="44.337428500000044">
   1521
  </text>
 </g>
</svg>