<?xml version="1.0" encoding="utf-8"?>
<svg style="background-color: #000;" version="1.1" viewBox="0 0 100.0 100.0" xmlns="http://www.w3.org/2000/svg" xmlns:inkscape="http://www.inkscape.org/namespaces/inkscape">
 <g id="layerA-MULLION" inkscape:groupmode="layer" inkscape:label="A-MULLION">
  <path d="M 56.50270249999994,75.74762750000002 L 56.50270249999994,72.74762750000002" fill="none" stroke="rgb(178,0,178)" stroke-width="0.1"/>
  <path d="M 42.50270249999994,75.74762750000002 L 42.50270249999994,72.74762750000002" fill="none" stroke="rgb(178,0,178)" stroke-width="0.1"/>
  <path d="M 28.50270249999994,75.74762750000002 L 28.50270249999994,72.74762750000002" fill="none" stroke="rgb(178,0,178)" stroke-width="0.1"/>
  <path d="M 14.502702499999941,75.74762750000002 L 14.502702499999941,72.74762750000002" fill="none" stroke="rgb(178,0,178)" stroke-width="0.1"/>
  <path d="M 0.5027024999999412,75.74762750000002 L 0.5027024999999412,72.74762750000002" fill="none" stroke="rgb(178,0,178)" stroke-width="0.1"/>
  <path d="M 98.50270249999994,75.74762750000002 L 98.50270249999994,72.74762750000002" fill="none" stroke="rgb(178,0,178)" stroke-width="0.1"/>
  <path d="M 84.50270249999994,75.74762750000002 L 84.50270249999994,72.74762750000002" fill="none" stroke="rgb(178,0,178)" stroke-width="0.1"/>
  <path d="M 70.50270249999994,75.74762750000002 L 70.50270249999994,72.74762750000002" fill="none" stroke="rgb(178,0,178)" stroke-width="0.1"/>
  <path d="M 89.50270249999994,75.74762750000002 L 89.50270249999994,72.74762750000002" fill="none" stroke="rgb(178,0,178)" stroke-width="0.1"/>
  <path d="M 23.50270249999994,75.74762750000002 L 23.50270249999994,72.74762750000002" fill="none" stroke="rgb(178,0,178)" stroke-width="0.1"/>
  <path d="M 5.502702499999941,75.74762750000002 L 5.502702499999941,72.74762750000002" fill="none" stroke="rgb(178,0,178)" stroke-width="0.1"/>
 </g>
 <g id="layerAXIS" inkscape:groupmode="layer" inkscape:label="AXIS">
  <path d="M 56.50270249999994,90.93262750000002 L 56.50270249999994,100.0" fill="none" stroke="rgb(0,178,0)" stroke-width="0.1"/>
  <path d="M 56.50270249999994,94.64362749999998 L 56.50270249999994,100.0" fill="none" stroke="rgb(0,178,0)" stroke-width="0.1"/>
  <path d="M 56.50270249999994,94.64362749999998 L 56.50270249999994,100.0" fill="none" stroke="rgb(0,178,0)" stroke-width="0.1"/>
 </g>
 <g id="layerDIM_LEAD" inkscape:groupmode="layer" inkscape:label="DIM_LEAD">
  <path d="M 22.402702500000032,68.67462749999999 L 22.402702500000032,56.13462750000002" fill="none" stroke="rgb(0,178,0)" stroke-width="0.1"/>
  <path d="M 22.402702500000032,56.13462750000002 L 55.50270249999994,56.13462750000002" fill="none" stroke="rgb(0,178,0)" stroke-width="0.1"/>
 </g>
 <g id="layerDOTE" inkscape:groupmode="layer" inkscape:label="DOTE">
  <path d="M 98.50270249999994,72.74762750000002 L 98.50270249999994,0.0" fill="none" stroke="rgb(178,0,0)" stroke-width="0.1"/>
  <path d="M 14.502702499999941,72.74762750000002 L 14.502702499999941,0.0" fill="none" stroke="rgb(178,0,0)" stroke-width="0.1"/>
  <path d="M 0.0,67.24762750000002 L 100.0,67.24762750000002" fill="none" stroke="rgb(178,0,0)" stroke-width="0.1"/>
  <path d="M 56.50270249999994,88.25262750000002 L 56.50270249999994,0.0" fill="none" stroke="rgb(178,0,0)" stroke-width="0.1"/>
 </g>
 <g id="layerEQUIP_地漏" inkscape:groupmode="layer" inkscape:label="EQUIP_地漏">
  <path d="M 60.44770249999999,70.63362749999999 L 59.6397025,69.82462750000002" fill="none" stroke="rgb(0,0,0)" stroke-width="0.1"/>
  <path d="M 60.44770249999999,70.63362749999999 L 59.6397025,69.82462750000002" fill="none" stroke="rgb(0,0,0)" stroke-width="0.1"/>
  <path d="M 60.39570249999997,71.0706275 L 59.196702500000015,69.87162749999999" fill="none" stroke="rgb(0,0,0)" stroke-width="0.1"/>
  <path d="M 60.39570249999997,71.0706275 L 59.196702500000015,69.87162749999999" fill="none" stroke="rgb(0,0,0)" stroke-width="0.1"/>
  <path d="M 59.44870249999997,71.68962749999997 L 58.60770249999996,70.84862750000002" fill="none" stroke="rgb(0,0,0)" stroke-width="0.1"/>
  <path d="M 59.44870249999997,71.68962749999997 L 58.60770249999996,70.84862750000002" fill="none" stroke="rgb(0,0,0)" stroke-width="0.1"/>
  <path d="M 59.87570249999999,71.61962749999998 L 58.65270250000003,70.39662750000002" fill="none" stroke="rgb(0,0,0)" stroke-width="0.1"/>
  <path d="M 59.87570249999999,71.61962749999998 L 58.65270250000003,70.39662750000002" fill="none" stroke="rgb(0,0,0)" stroke-width="0.1"/>
  <path d="M 60.18970249999995,71.41262749999999 L 58.8607025,70.0826275" fill="none" stroke="rgb(0,0,0)" stroke-width="0.1"/>
  <path d="M 60.18970249999995,71.41262749999999 L 58.8607025,70.0826275" fill="none" stroke="rgb(0,0,0)" stroke-width="0.1"/>
  <path d="M 51.62770249999994,70.63362749999999 L 50.81970249999995,69.82462750000002" fill="none" stroke="rgb(0,0,0)" stroke-width="0.1"/>
  <path d="M 51.62770249999994,70.63362749999999 L 50.81970249999995,69.82462750000002" fill="none" stroke="rgb(0,0,0)" stroke-width="0.1"/>
  <path d="M 51.575702500000034,71.0706275 L 50.37570249999999,69.87162749999999" fill="none" stroke="rgb(0,0,0)" stroke-width="0.1"/>
  <path d="M 51.575702500000034,71.0706275 L 50.37570249999999,69.87162749999999" fill="none" stroke="rgb(0,0,0)" stroke-width="0.1"/>
  <path d="M 50.62770249999994,71.68962749999997 L 49.78670249999993,70.84862750000002" fill="none" stroke="rgb(0,0,0)" stroke-width="0.1"/>
  <path d="M 50.62770249999994,71.68962749999997 L 49.78670249999993,70.84862750000002" fill="none" stroke="rgb(0,0,0)" stroke-width="0.1"/>
  <path d="M 51.05570249999994,71.61962749999998 L 49.83270249999998,70.39662750000002" fill="none" stroke="rgb(0,0,0)" stroke-width="0.1"/>
  <path d="M 51.05570249999994,71.61962749999998 L 49.83270249999998,70.39662750000002" fill="none" stroke="rgb(0,0,0)" stroke-width="0.1"/>
  <path d="M 51.36970250000002,71.41262749999999 L 50.04070249999995,70.0826275" fill="none" stroke="rgb(0,0,0)" stroke-width="0.1"/>
  <path d="M 51.36970250000002,71.41262749999999 L 50.04070249999995,70.0826275" fill="none" stroke="rgb(0,0,0)" stroke-width="0.1"/>
  <circle cx="59.525702499999966" cy="70.74762750000002" fill="none" r="0.94" stroke="rgb(0,0,0)" stroke-width="0.1"/>
  <circle cx="59.525702499999966" cy="70.74762750000002" fill="none" r="0.94" stroke="rgb(0,0,0)" stroke-width="0.1"/>
  <circle cx="50.70470249999994" cy="70.74762750000002" fill="none" r="0.94" stroke="rgb(0,0,0)" stroke-width="0.1"/>
  <circle cx="50.70470249999994" cy="70.74762750000002" fill="none" r="0.94" stroke="rgb(0,0,0)" stroke-width="0.1"/>
 </g>
 <g id="layerPUB_DIM" inkscape:groupmode="layer" inkscape:label="PUB_DIM">
  <path d="M 4.002702499999941,2.247627499999993 L 4.002702499999941,9.430627499999986" fill="none" stroke="rgb(0,178,0)" stroke-width="0.1"/>
  <path d="M 0.0,6.930627499999986 L 4.002702499999941,6.930627499999986" fill="none" stroke="rgb(0,178,0)" stroke-width="0.1"/>
  <path d="M 4.002702499999941,2.247627499999993 L 4.002702499999941,9.430627499999986" fill="none" stroke="rgb(0,178,0)" stroke-width="0.1"/>
  <path d="M 5.002702499999941,2.247627499999993 L 5.002702499999941,9.430627499999986" fill="none" stroke="rgb(0,178,0)" stroke-width="0.1"/>
  <path d="M 4.002702499999941,6.930627499999986 L 3.002702499999941,6.930627499999986" fill="none" stroke="rgb(0,178,0)" stroke-width="0.1"/>
  <path d="M 5.002702499999941,6.930627499999986 L 6.002702499999941,6.930627499999986" fill="none" stroke="rgb(0,178,0)" stroke-width="0.1"/>
  <path d="M 4.002702499999941,6.930627499999986 L 5.002702499999941,6.930627499999986" fill="none" stroke="rgb(0,178,0)" stroke-width="0.1"/>
  <path d="M 5.002702499999941,2.247627499999993 L 5.002702499999941,9.430627499999986" fill="none" stroke="rgb(0,178,0)" stroke-width="0.1"/>
  <path d="M 14.502702499999941,2.247627499999993 L 14.502702499999941,9.430627499999986" fill="none" stroke="rgb(0,178,0)" stroke-width="0.1"/>
  <path d="M 5.002702499999941,6.930627499999986 L 14.502702499999941,6.930627499999986" fill="none" stroke="rgb(0,178,0)" stroke-width="0.1"/>
  <path d="M 14.502702499999941,2.247627499999993 L 14.502702499999941,9.430627499999986" fill="none" stroke="rgb(0,178,0)" stroke-width="0.1"/>
  <path d="M 24.00270249999994,2.247627499999993 L 24.00270249999994,9.430627499999986" fill="none" stroke="rgb(0,178,0)" stroke-width="0.1"/>
  <path d="M 14.502702499999941,6.930627499999986 L 24.00270249999994,6.930627499999986" fill="none" stroke="rgb(0,178,0)" stroke-width="0.1"/>
  <path d="M 24.00270249999994,2.247627499999993 L 24.00270249999994,9.430627499999986" fill="none" stroke="rgb(0,178,0)" stroke-width="0.1"/>
  <path d="M 25.00270249999994,2.247627499999993 L 25.00270249999994,9.430627499999986" fill="none" stroke="rgb(0,178,0)" stroke-width="0.1"/>
  <path d="M 24.00270249999994,6.930627499999986 L 23.00270249999994,6.930627499999986" fill="none" stroke="rgb(0,178,0)" stroke-width="0.1"/>
  <path d="M 25.00270249999994,6.930627499999986 L 26.00270249999994,6.930627499999986" fill="none" stroke="rgb(0,178,0)" stroke-width="0.1"/>
  <path d="M 24.00270249999994,6.930627499999986 L 25.00270249999994,6.930627499999986" fill="none" stroke="rgb(0,178,0)" stroke-width="0.1"/>
  <path d="M 25.00270249999994,2.247627499999993 L 25.00270249999994,9.430627499999986" fill="none" stroke="rgb(0,178,0)" stroke-width="0.1"/>
  <path d="M 37.50270249999994,2.247627499999993 L 37.50270249999994,9.430627499999986" fill="none" stroke="rgb(0,178,0)" stroke-width="0.1"/>
  <path d="M 25.00270249999994,6.930627499999986 L 37.50270249999994,6.930627499999986" fill="none" stroke="rgb(0,178,0)" stroke-width="0.1"/>
  <path d="M 37.50270249999994,2.247627499999993 L 37.50270249999994,9.430627499999986" fill="none" stroke="rgb(0,178,0)" stroke-width="0.1"/>
  <path d="M 48.50270249999994,2.247627499999993 L 48.50270249999994,9.430627499999986" fill="none" stroke="rgb(0,178,0)" stroke-width="0.1"/>
  <path d="M 37.50270249999994,6.930627499999986 L 48.50270249999994,6.930627499999986" fill="none" stroke="rgb(0,178,0)" stroke-width="0.1"/>
  <path d="M 48.50270249999994,2.247627499999993 L 48.50270249999994,9.430627499999986" fill="none" stroke="rgb(0,178,0)" stroke-width="0.1"/>
  <path d="M 56.50270249999994,2.247627499999993 L 56.50270249999994,9.430627499999986" fill="none" stroke="rgb(0,178,0)" stroke-width="0.1"/>
  <path d="M 48.50270249999994,6.930627499999986 L 56.50270249999994,6.930627499999986" fill="none" stroke="rgb(0,178,0)" stroke-width="0.1"/>
  <path d="M 56.50270249999994,2.247627499999993 L 56.50270249999994,9.430627499999986" fill="none" stroke="rgb(0,178,0)" stroke-width="0.1"/>
  <path d="M 64.50270249999994,2.247627499999993 L 64.50270249999994,9.430627499999986" fill="none" stroke="rgb(0,178,0)" stroke-width="0.1"/>
  <path d="M 56.50270249999994,6.930627499999986 L 64.50270249999994,6.930627499999986" fill="none" stroke="rgb(0,178,0)" stroke-width="0.1"/>
  <path d="M 64.50270249999994,2.247627499999993 L 64.50270249999994,9.430627499999986" fill="none" stroke="rgb(0,178,0)" stroke-width="0.1"/>
  <path d="M 75.50270249999994,2.247627499999993 L 75.50270249999994,9.430627499999986" fill="none" stroke="rgb(0,178,0)" stroke-width="0.1"/>
  <path d="M 64.50270249999994,6.930627499999986 L 75.50270249999994,6.930627499999986" fill="none" stroke="rgb(0,178,0)" stroke-width="0.1"/>
  <path d="M 75.50270249999994,2.247627499999993 L 75.50270249999994,9.430627499999986" fill="none" stroke="rgb(0,178,0)" stroke-width="0.1"/>
  <path d="M 88.00270249999994,2.247627499999993 L 88.00270249999994,9.430627499999986" fill="none" stroke="rgb(0,178,0)" stroke-width="0.1"/>
  <path d="M 75.50270249999994,6.930627499999986 L 88.00270249999994,6.930627499999986" fill="none" stroke="rgb(0,178,0)" stroke-width="0.1"/>
  <path d="M 88.00270249999994,2.247627499999993 L 88.00270249999994,9.430627499999986" fill="none" stroke="rgb(0,178,0)" stroke-width="0.1"/>
  <path d="M 89.00270249999994,2.247627499999993 L 89.00270249999994,9.430627499999986" fill="none" stroke="rgb(0,178,0)" stroke-width="0.1"/>
  <path d="M 88.00270249999994,6.930627499999986 L 87.00270249999994,6.930627499999986" fill="none" stroke="rgb(0,178,0)" stroke-width="0.1"/>
  <path d="M 89.00270249999994,6.930627499999986 L 90.00270249999994,6.930627499999986" fill="none" stroke="rgb(0,178,0)" stroke-width="0.1"/>
  <path d="M 88.00270249999994,6.930627499999986 L 89.00270249999994,6.930627499999986" fill="none" stroke="rgb(0,178,0)" stroke-width="0.1"/>
  <path d="M 89.00270249999994,2.247627499999993 L 89.00270249999994,9.430627499999986" fill="none" stroke="rgb(0,178,0)" stroke-width="0.1"/>
  <path d="M 98.50270249999994,2.247627499999993 L 98.50270249999994,9.430627499999986" fill="none" stroke="rgb(0,178,0)" stroke-width="0.1"/>
  <path d="M 89.00270249999994,6.930627499999986 L 98.50270249999994,6.930627499999986" fill="none" stroke="rgb(0,178,0)" stroke-width="0.1"/>
  <path d="M 98.50270249999994,2.247627499999993 L 98.50270249999994,9.430627499999986" fill="none" stroke="rgb(0,178,0)" stroke-width="0.1"/>
  <path d="M 98.50270249999994,6.930627499999986 L 100.0,6.930627499999986" fill="none" stroke="rgb(0,178,0)" stroke-width="0.1"/>
  <path d="M 39.219702499999926,75.74762750000002 L 33.61770249999995,75.74762750000002" fill="none" stroke="rgb(0,178,0)" stroke-width="0.1"/>
  <path d="M 39.219702499999926,63.74762750000002 L 33.61770249999995,63.74762750000002" fill="none" stroke="rgb(0,178,0)" stroke-width="0.1"/>
  <path d="M 36.11770249999995,75.74762750000002 L 36.11770249999995,63.74762750000002" fill="none" stroke="rgb(0,178,0)" stroke-width="0.1"/>
  <path d="M 14.502702499999941,81.56262750000002 L 14.502702499999941,99.27062749999999" fill="none" stroke="rgb(0,178,0)" stroke-width="0.1"/>
  <path d="M 0.0,96.77062749999999 L 14.502702499999941,96.77062749999999" fill="none" stroke="rgb(0,178,0)" stroke-width="0.1"/>
  <path d="M 14.502702499999941,81.56262750000002 L 14.502702499999941,99.27062749999999" fill="none" stroke="rgb(0,178,0)" stroke-width="0.1"/>
  <path d="M 56.50270249999994,81.56262750000002 L 56.50270249999994,99.27062749999999" fill="none" stroke="rgb(0,178,0)" stroke-width="0.1"/>
  <path d="M 14.502702499999941,96.77062749999999 L 56.50270249999994,96.77062749999999" fill="none" stroke="rgb(0,178,0)" stroke-width="0.1"/>
  <path d="M 56.50270249999994,81.56262750000002 L 56.50270249999994,99.27062749999999" fill="none" stroke="rgb(0,178,0)" stroke-width="0.1"/>
  <path d="M 98.50270249999994,81.56262750000002 L 98.50270249999994,99.27062749999999" fill="none" stroke="rgb(0,178,0)" stroke-width="0.1"/>
  <path d="M 56.50270249999994,96.77062749999999 L 98.50270249999994,96.77062749999999" fill="none" stroke="rgb(0,178,0)" stroke-width="0.1"/>
  <path d="M 98.50270249999994,81.56262750000002 L 98.50270249999994,99.27062749999999" fill="none" stroke="rgb(0,178,0)" stroke-width="0.1"/>
  <path d="M 98.50270249999994,96.77062749999999 L 100.0,96.77062749999999" fill="none" stroke="rgb(0,178,0)" stroke-width="0.1"/>
  <path d="M 0.5027024999999412,82.88262750000001 L 0.5027024999999412,88.10762749999998" fill="none" stroke="rgb(0,178,0)" stroke-width="0.1"/>
  <path d="M 0.0,85.60762749999998 L 0.5027024999999412,85.60762749999998" fill="none" stroke="rgb(0,178,0)" stroke-width="0.1"/>
  <path d="M 0.5027024999999412,82.88262750000001 L 0.5027024999999412,88.10762749999998" fill="none" stroke="rgb(0,178,0)" stroke-width="0.1"/>
  <path d="M 5.502702499999941,82.88262750000001 L 5.502702499999941,88.10762749999998" fill="none" stroke="rgb(0,178,0)" stroke-width="0.1"/>
  <path d="M 0.5027024999999412,85.60762749999998 L 5.502702499999941,85.60762749999998" fill="none" stroke="rgb(0,178,0)" stroke-width="0.1"/>
  <path d="M 5.502702499999941,82.88262750000001 L 5.502702499999941,88.10762749999998" fill="none" stroke="rgb(0,178,0)" stroke-width="0.1"/>
  <path d="M 14.502702499999941,82.88262750000001 L 14.502702499999941,88.10762749999998" fill="none" stroke="rgb(0,178,0)" stroke-width="0.1"/>
  <path d="M 5.502702499999941,85.60762749999998 L 14.502702499999941,85.60762749999998" fill="none" stroke="rgb(0,178,0)" stroke-width="0.1"/>
  <path d="M 14.502702499999941,82.88262750000001 L 14.502702499999941,88.10762749999998" fill="none" stroke="rgb(0,178,0)" stroke-width="0.1"/>
  <path d="M 23.50270249999994,82.88262750000001 L 23.50270249999994,88.10762749999998" fill="none" stroke="rgb(0,178,0)" stroke-width="0.1"/>
  <path d="M 14.502702499999941,85.60762749999998 L 23.50270249999994,85.60762749999998" fill="none" stroke="rgb(0,178,0)" stroke-width="0.1"/>
  <path d="M 23.50270249999994,82.88262750000001 L 23.50270249999994,88.10762749999998" fill="none" stroke="rgb(0,178,0)" stroke-width="0.1"/>
  <path d="M 28.50270249999994,82.88262750000001 L 28.50270249999994,88.10762749999998" fill="none" stroke="rgb(0,178,0)" stroke-width="0.1"/>
  <path d="M 23.50270249999994,85.60762749999998 L 28.50270249999994,85.60762749999998" fill="none" stroke="rgb(0,178,0)" stroke-width="0.1"/>
  <path d="M 28.50270249999994,82.88262750000001 L 28.50270249999994,88.10762749999998" fill="none" stroke="rgb(0,178,0)" stroke-width="0.1"/>
  <path d="M 42.50270249999994,82.88262750000001 L 42.50270249999994,88.10762749999998" fill="none" stroke="rgb(0,178,0)" stroke-width="0.1"/>
  <path d="M 28.50270249999994,85.60762749999998 L 42.50270249999994,85.60762749999998" fill="none" stroke="rgb(0,178,0)" stroke-width="0.1"/>
  <path d="M 42.50270249999994,82.88262750000001 L 42.50270249999994,88.10762749999998" fill="none" stroke="rgb(0,178,0)" stroke-width="0.1"/>
  <path d="M 56.50270249999994,82.88262750000001 L 56.50270249999994,88.10762749999998" fill="none" stroke="rgb(0,178,0)" stroke-width="0.1"/>
  <path d="M 42.50270249999994,85.60762749999998 L 56.50270249999994,85.60762749999998" fill="none" stroke="rgb(0,178,0)" stroke-width="0.1"/>
  <path d="M 56.50270249999994,82.88262750000001 L 56.50270249999994,88.10762749999998" fill="none" stroke="rgb(0,178,0)" stroke-width="0.1"/>
  <path d="M 70.50270249999994,82.88262750000001 L 70.50270249999994,88.10762749999998" fill="none" stroke="rgb(0,178,0)" stroke-width="0.1"/>
  <path d="M 56.50270249999994,85.60762749999998 L 70.50270249999994,85.60762749999998" fill="none" stroke="rgb(0,178,0)" stroke-width="0.1"/>
  <path d="M 70.50270249999994,82.88262750000001 L 70.50270249999994,88.10762749999998" fill="none" stroke="rgb(0,178,0)" stroke-width="0.1"/>
  <path d="M 84.50270249999994,82.88262750000001 L 84.50270249999994,88.10762749999998" fill="none" stroke="rgb(0,178,0)" stroke-width="0.1"/>
  <path d="M 70.50270249999994,85.60762749999998 L 84.50270249999994,85.60762749999998" fill="none" stroke="rgb(0,178,0)" stroke-width="0.1"/>
  <path d="M 84.50270249999994,82.88262750000001 L 84.50270249999994,88.10762749999998" fill="none" stroke="rgb(0,178,0)" stroke-width="0.1"/>
  <path d="M 89.50270249999994,82.88262750000001 L 89.50270249999994,88.10762749999998" fill="none" stroke="rgb(0,178,0)" stroke-width="0.1"/>
  <path d="M 84.50270249999994,85.60762749999998 L 89.50270249999994,85.60762749999998" fill="none" stroke="rgb(0,178,0)" stroke-width="0.1"/>
  <path d="M 89.50270249999994,82.88262750000001 L 89.50270249999994,88.10762749999998" fill="none" stroke="rgb(0,178,0)" stroke-width="0.1"/>
  <path d="M 98.50270249999994,82.88262750000001 L 98.50270249999994,88.10762749999998" fill="none" stroke="rgb(0,178,0)" stroke-width="0.1"/>
  <path d="M 89.50270249999994,85.60762749999998 L 98.50270249999994,85.60762749999998" fill="none" stroke="rgb(0,178,0)" stroke-width="0.1"/>
  <path d="M 98.50270249999994,82.88262750000001 L 98.50270249999994,88.10762749999998" fill="none" stroke="rgb(0,178,0)" stroke-width="0.1"/>
  <path d="M 98.50270249999994,85.60762749999998 L 100.0,85.60762749999998" fill="none" stroke="rgb(0,178,0)" stroke-width="0.1"/>
  <path d="M 11.502702499999941,64.24762750000002 L 11.502702499999941,58.74762750000002" fill="none" stroke="rgb(0,178,0)" stroke-width="0.1"/>
  <path d="M 14.502702499999941,64.24762750000002 L 14.502702499999941,58.74762750000002" fill="none" stroke="rgb(0,178,0)" stroke-width="0.1"/>
  <path d="M 11.502702499999941,61.24762750000002 L 14.502702499999941,61.24762750000002" fill="none" stroke="rgb(0,178,0)" stroke-width="0.1"/>
  <path d="M 14.502702499999941,64.24762750000002 L 14.502702499999941,58.74762750000002" fill="none" stroke="rgb(0,178,0)" stroke-width="0.1"/>
  <path d="M 17.50270249999994,64.24762750000002 L 17.50270249999994,58.74762750000002" fill="none" stroke="rgb(0,178,0)" stroke-width="0.1"/>
  <path d="M 14.502702499999941,61.24762750000002 L 17.50270249999994,61.24762750000002" fill="none" stroke="rgb(0,178,0)" stroke-width="0.1"/>
  <path d="M 95.50270249999994,64.24762750000002 L 95.50270249999994,58.74762750000002" fill="none" stroke="rgb(0,178,0)" stroke-width="0.1"/>
  <path d="M 98.50270249999994,64.24762750000002 L 98.50270249999994,58.74762750000002" fill="none" stroke="rgb(0,178,0)" stroke-width="0.1"/>
  <path d="M 95.50270249999994,61.24762750000002 L 98.50270249999994,61.24762750000002" fill="none" stroke="rgb(0,178,0)" stroke-width="0.1"/>
  <path d="M 98.50270249999994,64.24762750000002 L 98.50270249999994,58.74762750000002" fill="none" stroke="rgb(0,178,0)" stroke-width="0.1"/>
  <path d="M 98.50270249999994,61.24762750000002 L 100.0,61.24762750000002" fill="none" stroke="rgb(0,178,0)" stroke-width="0.1"/>
  <text fill="rgb(0,178,0)" font-family="Noto Sans CJK SC" font-size="2" transform="rotate(-0.0,1.352702499999964,2.167627500000009)" x="1.352702499999964" y="2.167627500000009">
   100
  </text>
  <text fill="rgb(0,178,0)" font-family="Noto Sans CJK SC" font-size="2" transform="rotate(-0.0,6.752702499999941,5.930627499999986)" x="6.752702499999941" y="5.930627499999986">
   950
  </text>
  <text fill="rgb(0,178,0)" font-family="Noto Sans CJK SC" font-size="2" transform="rotate(-0.0,16.25270249999994,5.930627499999986)" x="16.25270249999994" y="5.930627499999986">
   950
  </text>
  <text fill="rgb(0,178,0)" font-family="Noto Sans CJK SC" font-size="2" transform="rotate(-0.0,21.352702499999964,2.167627500000009)" x="21.352702499999964" y="2.167627500000009">
   100
  </text>
  <text fill="rgb(0,178,0)" font-family="Noto Sans CJK SC" font-size="2" transform="rotate(-0.0,27.102702499999964,5.930627499999986)" x="27.102702499999964" y="5.930627499999986">
   1250
  </text>
  <text fill="rgb(0,178,0)" font-family="Noto Sans CJK SC" font-size="2" transform="rotate(-0.0,38.852702499999964,5.930627499999986)" x="38.852702499999964" y="5.930627499999986">
   1100
  </text>
  <text fill="rgb(0,178,0)" font-family="Noto Sans CJK SC" font-size="2" transform="rotate(-0.0,49.50270249999994,5.930627499999986)" x="49.50270249999994" y="5.930627499999986">
   800
  </text>
  <text fill="rgb(0,178,0)" font-family="Noto Sans CJK SC" font-size="2" transform="rotate(-0.0,57.50270249999994,5.930627499999986)" x="57.50270249999994" y="5.930627499999986">
   800
  </text>
  <text fill="rgb(0,178,0)" font-family="Noto Sans CJK SC" font-size="2" transform="rotate(-0.0,65.85270249999996,5.930627499999986)" x="65.85270249999996" y="5.930627499999986">
   1100
  </text>
  <text fill="rgb(0,178,0)" font-family="Noto Sans CJK SC" font-size="2" transform="rotate(-0.0,77.60270249999996,5.930627499999986)" x="77.60270249999996" y="5.930627499999986">
   1250
  </text>
  <text fill="rgb(0,178,0)" font-family="Noto Sans CJK SC" font-size="2" transform="rotate(-0.0,85.35270249999996,2.167627500000009)" x="85.35270249999996" y="2.167627500000009">
   100
  </text>
  <text fill="rgb(0,178,0)" font-family="Noto Sans CJK SC" font-size="2" transform="rotate(-0.0,90.75270249999994,5.930627499999986)" x="90.75270249999994" y="5.930627499999986">
   950
  </text>
  <text fill="rgb(0,178,0)" font-family="Noto Sans CJK SC" font-size="2" transform="rotate(-90.0,35.11770249999995,73.8976275)" x="35.11770249999995" y="73.8976275">
   1200
  </text>
  <text fill="rgb(0,178,0)" font-family="Noto Sans CJK SC" font-size="2" transform="rotate(-0.0,31.50270249999994,95.77062749999999)" x="31.50270249999994" y="95.77062749999999">
   4200
  </text>
  <text fill="rgb(0,178,0)" font-family="Noto Sans CJK SC" font-size="2" transform="rotate(-0.0,73.50270249999994,95.77062749999999)" x="73.50270249999994" y="95.77062749999999">
   4200
  </text>
  <text fill="rgb(0,178,0)" font-family="Noto Sans CJK SC" font-size="2" transform="rotate(-0.0,0.0027024999999412103,84.60762749999998)" x="0.0027024999999412103" y="84.60762749999998">
   500
  </text>
  <text fill="rgb(0,178,0)" font-family="Noto Sans CJK SC" font-size="2" transform="rotate(-0.0,7.002702499999941,84.60762749999998)" x="7.002702499999941" y="84.60762749999998">
   900
  </text>
  <text fill="rgb(0,178,0)" font-family="Noto Sans CJK SC" font-size="2" transform="rotate(-0.0,16.00270249999994,84.60762749999998)" x="16.00270249999994" y="84.60762749999998">
   900
  </text>
  <text fill="rgb(0,178,0)" font-family="Noto Sans CJK SC" font-size="2" transform="rotate(-0.0,23.00270249999994,84.60762749999998)" x="23.00270249999994" y="84.60762749999998">
   500
  </text>
  <text fill="rgb(0,178,0)" font-family="Noto Sans CJK SC" font-size="2" transform="rotate(-0.0,31.352702499999964,84.60762749999998)" x="31.352702499999964" y="84.60762749999998">
   1400
  </text>
  <text fill="rgb(0,178,0)" font-family="Noto Sans CJK SC" font-size="2" transform="rotate(-0.0,45.352702499999964,84.60762749999998)" x="45.352702499999964" y="84.60762749999998">
   1400
  </text>
  <text fill="rgb(0,178,0)" font-family="Noto Sans CJK SC" font-size="2" transform="rotate(-0.0,59.352702499999964,84.60762749999998)" x="59.352702499999964" y="84.60762749999998">
   1400
  </text>
  <text fill="rgb(0,178,0)" font-family="Noto Sans CJK SC" font-size="2" transform="rotate(-0.0,73.35270249999996,84.60762749999998)" x="73.35270249999996" y="84.60762749999998">
   1400
  </text>
  <text fill="rgb(0,178,0)" font-family="Noto Sans CJK SC" font-size="2" transform="rotate(-0.0,84.00270249999994,84.60762749999998)" x="84.00270249999994" y="84.60762749999998">
   500
  </text>
  <text fill="rgb(0,178,0)" font-family="Noto Sans CJK SC" font-size="2" transform="rotate(-0.0,91.00270249999994,84.60762749999998)" x="91.00270249999994" y="84.60762749999998">
   900
  </text>
  <text fill="rgb(0,178,0)" font-family="Noto Sans CJK SC" font-size="2" transform="rotate(-0.0,4.802702500000009,59.98462749999999)" x="4.802702500000009" y="59.98462749999999">
   300
  </text>
  <text fill="rgb(0,178,0)" font-family="Noto Sans CJK SC" font-size="2" transform="rotate(-0.0,18.202702499999987,59.98462749999999)" x="18.202702499999987" y="59.98462749999999">
   300
  </text>
  <text fill="rgb(0,178,0)" font-family="Noto Sans CJK SC" font-size="2" transform="rotate(-0.0,88.80270250000001,59.98462749999999)" x="88.80270250000001" y="59.98462749999999">
   300
  </text>
 </g>
 <g id="layerPUB_TEXT" inkscape:groupmode="layer" inkscape:label="PUB_TEXT">
  <text fill="rgb(0,0,0)" font-family="Noto Sans CJK SC" font-size="2" transform="rotate(-0.0,72.95170250000001,39.30062750000002)" x="72.95170250000001" y="39.30062750000002">
   办公
  </text>
  <text fill="rgb(0,0,0)" font-family="Noto Sans CJK SC" font-size="2" transform="rotate(-0.0,30.360702500000002,39.30062750000002)" x="30.360702500000002" y="39.30062750000002">
   办公
  </text>
  <text fill="rgb(0,0,0)" font-family="Noto Sans CJK SC" font-size="2" transform="rotate(-0.0,33.49370249999993,55.23462749999999)" x="33.49370249999993" y="55.23462749999999">
   示意空调室外机位置
  </text>
  <text fill="rgb(0,0,0)" font-family="Noto Sans CJK SC" font-size="2" transform="rotate(-0.0,23.8367025,60.0346275)" x="23.8367025" y="60.0346275">
   板底标高
  </text>
  <text fill="rgb(0,0,0)" font-family="Noto Sans CJK SC" font-size="2" transform="rotate(-0.0,33.436702500000024,60.0346275)" x="33.436702500000024" y="60.0346275">
   H+2.700,
  </text>
  <text fill="rgb(0,0,0)" font-family="Noto Sans CJK SC" font-size="2" transform="rotate(-0.0,50.35070250000001,60.0346275)" x="50.35070250000001" y="60.0346275">
   余同
  </text>
 </g>
 <g id="layerS-幕墙" inkscape:groupmode="layer" inkscape:label="S-幕墙">
  <path d="M 0.0,63.74762750000002 L 100.0,63.74762750000002" fill="none" stroke="rgb(0,178,178)" stroke-width="0.1"/>
  <path d="M 0.0,75.74762750000002 L 100.0,75.74762750000002" fill="none" instance-id="-1" semantic-id="2" stroke="rgb(0,178,178)" stroke-width="0.1"/>
  <path d="M 0.0,74.24762750000002 L 100.0,74.24762750000002" fill="none" instance-id="-1" semantic-id="2" stroke="rgb(0,178,178)" stroke-width="0.1"/>
  <path d="M 0.0,72.74762750000002 L 100.0,72.74762750000002" fill="none" instance-id="-1" semantic-id="2" stroke="rgb(0,178,178)" stroke-width="0.1"/>
  <path d="M 0.0,73.34762749999999 L 100.0,73.34762749999999" fill="none" instance-id="-1" semantic-id="2" stroke="rgb(0,0,178)" stroke-width="0.1"/>
 </g>
 <g id="layerS-幕墙开启扇" inkscape:groupmode="layer" inkscape:label="S-幕墙开启扇">
  <path d="M 0.5027024999999412,75.74762750000002 L 5.502702499999941,75.74762750000002" fill="none" stroke="rgb(121,121,121)" stroke-width="0.1"/>
  <path d="M 5.502702499999941,75.74762750000002 L 5.502702499999941,79.24762750000002" fill="none" stroke="rgb(121,121,121)" stroke-width="0.1"/>
  <path d="M 5.502702499999941,79.24762750000002 L 0.5027024999999412,79.24762750000002" fill="none" stroke="rgb(121,121,121)" stroke-width="0.1"/>
  <path d="M 0.5027024999999412,79.24762750000002 L 0.5027024999999412,75.74762750000002" fill="none" stroke="rgb(121,121,121)" stroke-width="0.1"/>
  <path d="M 0.5027024999999412,75.74762750000002 L 5.502702499999941,79.24762750000002" fill="none" stroke="rgb(121,121,121)" stroke-width="0.1"/>
  <path d="M 5.502702499999941,79.24762750000002 L 5.502702499999941,75.74762750000002" fill="none" stroke="rgb(121,121,121)" stroke-width="0.1"/>
  <path d="M 5.502702499999941,75.74762750000002 L 0.5027024999999412,79.24762750000002" fill="none" stroke="rgb(121,121,121)" stroke-width="0.1"/>
  <path d="M 28.50270249999994,75.74762750000002 L 23.50270249999994,75.74762750000002" fill="none" stroke="rgb(121,121,121)" stroke-width="0.1"/>
  <path d="M 23.50270249999994,75.74762750000002 L 23.50270249999994,79.24762750000002" fill="none" stroke="rgb(121,121,121)" stroke-width="0.1"/>
  <path d="M 23.50270249999994,79.24762750000002 L 28.50270249999994,79.24762750000002" fill="none" stroke="rgb(121,121,121)" stroke-width="0.1"/>
  <path d="M 28.50270249999994,79.24762750000002 L 28.50270249999994,75.74762750000002" fill="none" stroke="rgb(121,121,121)" stroke-width="0.1"/>
  <path d="M 28.50270249999994,75.74762750000002 L 23.50270249999994,79.24762750000002" fill="none" stroke="rgb(121,121,121)" stroke-width="0.1"/>
  <path d="M 23.50270249999994,79.24762750000002 L 23.50270249999994,75.74762750000002" fill="none" stroke="rgb(121,121,121)" stroke-width="0.1"/>
  <path d="M 23.50270249999994,75.74762750000002 L 28.50270249999994,79.24762750000002" fill="none" stroke="rgb(121,121,121)" stroke-width="0.1"/>
  <path d="M 84.50270249999994,75.74762750000002 L 89.50270249999994,75.74762750000002" fill="none" stroke="rgb(121,121,121)" stroke-width="0.1"/>
  <path d="M 89.50270249999994,75.74762750000002 L 89.50270249999994,79.24762750000002" fill="none" stroke="rgb(121,121,121)" stroke-width="0.1"/>
  <path d="M 89.50270249999994,79.24762750000002 L 84.50270249999994,79.24762750000002" fill="none" stroke="rgb(121,121,121)" stroke-width="0.1"/>
  <path d="M 84.50270249999994,79.24762750000002 L 84.50270249999994,75.74762750000002" fill="none" stroke="rgb(121,121,121)" stroke-width="0.1"/>
  <path d="M 84.50270249999994,75.74762750000002 L 89.50270249999994,79.24762750000002" fill="none" stroke="rgb(121,121,121)" stroke-width="0.1"/>
  <path d="M 89.50270249999994,79.24762750000002 L 89.50270249999994,75.74762750000002" fill="none" stroke="rgb(121,121,121)" stroke-width="0.1"/>
  <path d="M 89.50270249999994,75.74762750000002 L 84.50270249999994,79.24762750000002" fill="none" stroke="rgb(121,121,121)" stroke-width="0.1"/>
 </g>
 <g id="layerS-看线" inkscape:groupmode="layer" inkscape:label="S-看线">
  <path d="M 0.0,76.74762750000002 L 100.0,76.74762750000002" fill="none" stroke="rgb(0,0,178)" stroke-width="0.1"/>
  <path d="M 41.50270249999994,71.24762750000002 L 51.50270249999994,71.24762750000002" fill="none" stroke="rgb(89,89,89)" stroke-width="0.1"/>
  <path d="M 51.50270249999994,71.24762750000002 L 51.50270249999994,67.24762750000002" fill="none" stroke="rgb(89,89,89)" stroke-width="0.1"/>
  <path d="M 51.50270249999994,67.24762750000002 L 41.50270249999994,67.24762750000002" fill="none" stroke="rgb(89,89,89)" stroke-width="0.1"/>
  <path d="M 41.50270249999994,67.24762750000002 L 41.50270249999994,71.24762750000002" fill="none" stroke="rgb(89,89,89)" stroke-width="0.1"/>
  <path d="M 41.50270249999994,71.24762750000002 L 51.50270249999994,67.24762750000002" fill="none" stroke="rgb(89,89,89)" stroke-width="0.1"/>
  <path d="M 19.50270249999994,71.24762750000002 L 29.50270249999994,71.24762750000002" fill="none" stroke="rgb(89,89,89)" stroke-width="0.1"/>
  <path d="M 29.50270249999994,71.24762750000002 L 29.50270249999994,67.24762750000002" fill="none" stroke="rgb(89,89,89)" stroke-width="0.1"/>
  <path d="M 29.50270249999994,67.24762750000002 L 19.50270249999994,67.24762750000002" fill="none" stroke="rgb(89,89,89)" stroke-width="0.1"/>
  <path d="M 19.50270249999994,67.24762750000002 L 19.50270249999994,71.24762750000002" fill="none" stroke="rgb(89,89,89)" stroke-width="0.1"/>
  <path d="M 19.50270249999994,71.24762750000002 L 29.50270249999994,67.24762750000002" fill="none" stroke="rgb(89,89,89)" stroke-width="0.1"/>
  <path d="M 0.0,71.24762750000002 L 9.502702499999941,71.24762750000002" fill="none" stroke="rgb(89,89,89)" stroke-width="0.1"/>
  <path d="M 9.502702499999941,71.24762750000002 L 9.502702499999941,67.24762750000002" fill="none" stroke="rgb(89,89,89)" stroke-width="0.1"/>
  <path d="M 9.502702499999941,67.24762750000002 L 0.0,67.24762750000002" fill="none" stroke="rgb(89,89,89)" stroke-width="0.1"/>
  <path d="M 0.0,71.04870849999998 L 9.502702499999941,67.24762750000002" fill="none" stroke="rgb(89,89,89)" stroke-width="0.1"/>
  <path d="M 83.50270249999994,71.24762750000002 L 93.50270249999994,71.24762750000002" fill="none" stroke="rgb(89,89,89)" stroke-width="0.1"/>
  <path d="M 93.50270249999994,71.24762750000002 L 93.50270249999994,67.24762750000002" fill="none" stroke="rgb(89,89,89)" stroke-width="0.1"/>
  <path d="M 93.50270249999994,67.24762750000002 L 83.50270249999994,67.24762750000002" fill="none" stroke="rgb(89,89,89)" stroke-width="0.1"/>
  <path d="M 83.50270249999994,67.24762750000002 L 83.50270249999994,71.24762750000002" fill="none" stroke="rgb(89,89,89)" stroke-width="0.1"/>
  <path d="M 83.50270249999994,71.24762750000002 L 93.50270249999994,67.24762750000002" fill="none" stroke="rgb(89,89,89)" stroke-width="0.1"/>
  <path d="M 61.50270249999994,71.24762750000002 L 71.50270249999994,71.24762750000002" fill="none" stroke="rgb(89,89,89)" stroke-width="0.1"/>
  <path d="M 71.50270249999994,71.24762750000002 L 71.50270249999994,67.24762750000002" fill="none" stroke="rgb(89,89,89)" stroke-width="0.1"/>
  <path d="M 71.50270249999994,67.24762750000002 L 61.50270249999994,67.24762750000002" fill="none" stroke="rgb(89,89,89)" stroke-width="0.1"/>
  <path d="M 61.50270249999994,67.24762750000002 L 61.50270249999994,71.24762750000002" fill="none" stroke="rgb(89,89,89)" stroke-width="0.1"/>
  <path d="M 61.50270249999994,71.24762750000002 L 71.50270249999994,67.24762750000002" fill="none" stroke="rgb(89,89,89)" stroke-width="0.1"/>
  <circle cx="11.502702499999941" cy="67.24762750000002" fill="none" r="0.4" stroke="rgb(0,178,178)" stroke-width="0.1"/>
  <circle cx="17.50270249999994" cy="67.24762750000002" fill="none" r="0.4" stroke="rgb(0,178,178)" stroke-width="0.1"/>
  <circle cx="95.50270249999994" cy="67.24762750000002" fill="none" r="0.4" stroke="rgb(0,178,178)" stroke-width="0.1"/>
 </g>
 <g id="layerS-结构钢柱" inkscape:groupmode="layer" inkscape:label="S-结构钢柱">
  <path d="M 53.75270249999994,69.24762750000002 L 59.25270249999994,69.24762750000002" fill="none" instance-id="-1" semantic-id="1" stroke="rgb(178,178,0)" stroke-width="0.1"/>
  <path d="M 59.25270249999994,69.24762750000002 L 59.25270249999994,63.74762750000002" fill="none" instance-id="-1" semantic-id="1" stroke="rgb(178,178,0)" stroke-width="0.1"/>
  <path d="M 59.25270249999994,63.74762750000002 L 53.75270249999994,63.74762750000002" fill="none" instance-id="-1" semantic-id="1" stroke="rgb(178,178,0)" stroke-width="0.1"/>
  <path d="M 53.75270249999994,63.74762750000002 L 53.75270249999994,69.24762750000002" fill="none" instance-id="-1" semantic-id="1" stroke="rgb(178,178,0)" stroke-width="0.1"/>
  <path d="M 54.00270249999994,68.99762750000002 L 59.00270249999994,68.99762750000002" fill="none" instance-id="-1" semantic-id="1" stroke="rgb(178,178,0)" stroke-width="0.1"/>
  <path d="M 59.00270249999994,68.99762750000002 L 59.00270249999994,63.99762750000002" fill="none" instance-id="-1" semantic-id="1" stroke="rgb(178,178,0)" stroke-width="0.1"/>
  <path d="M 59.00270249999994,63.99762750000002 L 54.00270249999994,63.99762750000002" fill="none" instance-id="-1" semantic-id="1" stroke="rgb(178,178,0)" stroke-width="0.1"/>
  <path d="M 54.00270249999994,63.99762750000002 L 54.00270249999994,68.99762750000002" fill="none" instance-id="-1" semantic-id="1" stroke="rgb(178,178,0)" stroke-width="0.1"/>
  <path d="M 54.00270249999994,68.99762750000002 L 59.00270249999994,68.99762750000002" fill="none" instance-id="-1" semantic-id="1" stroke="rgb(63,63,63)" stroke-width="0.1"/>
  <path d="M 59.00270249999994,68.99762750000002 L 59.00270249999994,63.99762750000002" fill="none" instance-id="-1" semantic-id="1" stroke="rgb(63,63,63)" stroke-width="0.1"/>
  <path d="M 59.00270249999994,63.99762750000002 L 54.00270249999994,63.99762750000002" fill="none" instance-id="-1" semantic-id="1" stroke="rgb(63,63,63)" stroke-width="0.1"/>
  <path d="M 54.00270249999994,63.99762750000002 L 54.00270249999994,68.99762750000002" fill="none" instance-id="-1" semantic-id="1" stroke="rgb(63,63,63)" stroke-width="0.1"/>
 </g>
 <g id="layerWALL" inkscape:groupmode="layer" inkscape:label="WALL">
  <path d="M 13.502702499999941,72.74762750000002 L 13.502702499999941,0.0" fill="none" instance-id="-1" semantic-id="1" stroke="rgb(178,178,0)" stroke-width="0.1"/>
  <path d="M 15.502702499999941,72.74762750000002 L 15.502702499999941,0.0" fill="none" instance-id="-1" semantic-id="1" stroke="rgb(178,178,0)" stroke-width="0.1"/>
  <path d="M 13.502702499999941,72.74762750000002 L 15.502702499999941,72.74762750000002" fill="none" instance-id="-1" semantic-id="1" stroke="rgb(178,178,0)" stroke-width="0.1"/>
  <path d="M 97.50270249999994,72.74762750000002 L 97.50270249999994,0.0" fill="none" instance-id="-1" semantic-id="1" stroke="rgb(178,178,0)" stroke-width="0.1"/>
  <path d="M 99.50270249999994,72.74762750000002 L 99.50270249999994,0.0" fill="none" instance-id="-1" semantic-id="1" stroke="rgb(178,178,0)" stroke-width="0.1"/>
  <path d="M 97.50270249999994,72.74762750000002 L 99.50270249999994,72.74762750000002" fill="none" instance-id="-1" semantic-id="1" stroke="rgb(178,178,0)" stroke-width="0.1"/>
  <path d="M 55.50270249999994,72.74762750000002 L 55.50270249999994,0.0" fill="none" instance-id="-1" semantic-id="1" stroke="rgb(178,178,0)" stroke-width="0.1"/>
  <path d="M 57.50270249999994,72.74762750000002 L 57.50270249999994,0.0" fill="none" instance-id="-1" semantic-id="1" stroke="rgb(178,178,0)" stroke-width="0.1"/>
  <path d="M 55.50270249999994,72.74762750000002 L 57.50270249999994,72.74762750000002" fill="none" instance-id="-1" semantic-id="1" stroke="rgb(178,178,0)" stroke-width="0.1"/>
 </g>
 <g id="layerWINDOW_TEXT" inkscape:groupmode="layer" inkscape:label="WINDOW_TEXT">
  <text fill="rgb(0,0,0)" font-family="Noto Sans CJK SC" font-size="2" transform="rotate(-1.86368e-05,22.30270250000001,71.98462749999999)" x="22.30270250000001" y="71.98462749999999">
   PTC2
  </text>
  <text fill="rgb(0,0,0)" font-family="Noto Sans CJK SC" font-size="2" transform="rotate(-1.86368e-05,83.30270250000001,71.98462749999999)" x="83.30270250000001" y="71.98462749999999">
   PTC2
  </text>
 </g>
 <g id="layer开启扇统计" inkscape:groupmode="layer" inkscape:label="开启扇统计">
  <path d="M 0.5027024999999412,74.24762750000002 L 5.502702499999941,74.24762750000002" fill="none" instance-id="4" semantic-id="9" stroke="rgb(0,0,178)" stroke-width="0.1"/>
  <path d="M 5.502702499999941,74.74762750000002 L 0.5027024999999412,74.74762750000002" fill="none" instance-id="4" semantic-id="9" stroke="rgb(0,0,178)" stroke-width="0.1"/>
  <path d="M 5.502702499999941,73.74762750000002 L 0.5027024999999412,73.74762750000002" fill="none" instance-id="4" semantic-id="9" stroke="rgb(0,0,178)" stroke-width="0.1"/>
  <path d="M 5.502702499999941,74.74762750000002 L 5.502702499999941,73.74762750000002" fill="none" instance-id="4" semantic-id="9" stroke="rgb(0,0,178)" stroke-width="0.1"/>
  <path d="M 0.5027024999999412,74.74762750000002 L 0.5027024999999412,73.74762750000002" fill="none" instance-id="4" semantic-id="9" stroke="rgb(0,0,178)" stroke-width="0.1"/>
  <path d="M 23.50270249999994,74.24762750000002 L 28.50270249999994,74.24762750000002" fill="none" instance-id="5" semantic-id="9" stroke="rgb(0,0,178)" stroke-width="0.1"/>
  <path d="M 28.50270249999994,74.74762750000002 L 23.50270249999994,74.74762750000002" fill="none" instance-id="5" semantic-id="9" stroke="rgb(0,0,178)" stroke-width="0.1"/>
  <path d="M 28.50270249999994,73.74762750000002 L 23.50270249999994,73.74762750000002" fill="none" instance-id="5" semantic-id="9" stroke="rgb(0,0,178)" stroke-width="0.1"/>
  <path d="M 28.50270249999994,74.74762750000002 L 28.50270249999994,73.74762750000002" fill="none" instance-id="5" semantic-id="9" stroke="rgb(0,0,178)" stroke-width="0.1"/>
  <path d="M 23.50270249999994,74.74762750000002 L 23.50270249999994,73.74762750000002" fill="none" instance-id="5" semantic-id="9" stroke="rgb(0,0,178)" stroke-width="0.1"/>
  <path d="M 84.50270249999994,74.24762750000002 L 89.50270249999994,74.24762750000002" fill="none" instance-id="6" semantic-id="9" stroke="rgb(0,0,178)" stroke-width="0.1"/>
  <path d="M 89.50270249999994,74.74762750000002 L 84.50270249999994,74.74762750000002" fill="none" instance-id="6" semantic-id="9" stroke="rgb(0,0,178)" stroke-width="0.1"/>
  <path d="M 89.50270249999994,73.74762750000002 L 84.50270249999994,73.74762750000002" fill="none" instance-id="6" semantic-id="9" stroke="rgb(0,0,178)" stroke-width="0.1"/>
  <path d="M 89.50270249999994,74.74762750000002 L 89.50270249999994,73.74762750000002" fill="none" instance-id="6" semantic-id="9" stroke="rgb(0,0,178)" stroke-width="0.1"/>
  <path d="M 84.50270249999994,74.74762750000002 L 84.50270249999994,73.74762750000002" fill="none" instance-id="6" semantic-id="9" stroke="rgb(0,0,178)" stroke-width="0.1"/>
 </g>
</svg>