<?xml version="1.0" encoding="utf-8"?>
<svg style="background-color: #000;" version="1.1" viewBox="0 0 100.0 100.0" xmlns="http://www.w3.org/2000/svg" xmlns:inkscape="http://www.inkscape.org/namespaces/inkscape">
 <g id="layerA-MULLION" inkscape:groupmode="layer" inkscape:label="A-MULLION">
  <path d="M 0.0,86.7476275 L 1.0026024999999805,86.7476275" fill="none" stroke="rgb(178,0,178)" stroke-width="0.1"/>
  <path d="M 0.0,72.7476275 L 1.0026024999999805,72.7476275" fill="none" stroke="rgb(178,0,178)" stroke-width="0.1"/>
  <path d="M 0.0,72.7476275 L 1.0026024999999805,72.7476275" fill="none" stroke="rgb(178,0,178)" stroke-width="0.1"/>
  <path d="M 0.0,58.74762749999999 L 1.0026024999999805,58.74762749999999" fill="none" stroke="rgb(178,0,178)" stroke-width="0.1"/>
  <path d="M 0.0,44.74762749999999 L 1.0026024999999805,44.74762749999999" fill="none" stroke="rgb(178,0,178)" stroke-width="0.1"/>
  <path d="M 0.0,32.74762749999999 L 1.0026024999999805,32.74762749999999" fill="none" stroke="rgb(178,0,178)" stroke-width="0.1"/>
  <path d="M 0.0,20.74662749999999 L 1.0026024999999805,20.74662749999999" fill="none" stroke="rgb(178,0,178)" stroke-width="0.1"/>
  <path d="M 0.0,95.7476275 L 1.0026024999999805,95.7476275" fill="none" stroke="rgb(178,0,178)" stroke-width="0.1"/>
  <path d="M 0.0,77.7476275 L 1.0026024999999805,77.7476275" fill="none" stroke="rgb(178,0,178)" stroke-width="0.1"/>
  <path d="M 0.0,37.74762749999999 L 1.0026024999999805,37.74762749999999" fill="none" stroke="rgb(178,0,178)" stroke-width="0.1"/>
 </g>
 <g id="layerDIM_LEAD" inkscape:groupmode="layer" inkscape:label="DIM_LEAD">
  <path d="M 22.00260249999998,20.747627499999993 L 16.186502499999975,17.88962749999999" fill="none" stroke="rgb(0,178,0)" stroke-width="0.1"/>
  <path d="M 20.50260249999998,20.747627499999993 L 23.50260249999998,20.747627499999993" fill="none" stroke="rgb(0,178,0)" stroke-width="0.1"/>
  <path d="M 22.00260249999998,22.247627499999993 L 22.00260249999998,19.247627499999993" fill="none" stroke="rgb(0,178,0)" stroke-width="0.1"/>
  <path d="M 16.186502499999975,17.88962749999999 L 10.314602499999978,17.88962749999999" fill="none" stroke="rgb(0,178,0)" stroke-width="0.1"/>
  <path d="M 85.60170249999999,1.247627499999993 L 100.0,20.769732937931053" fill="none" stroke="rgb(0,178,0)" stroke-width="0.1"/>
  <path d="M 85.48270249999999,1.0866274999999916 A 0.2,0.2 0.0 1,0 85.71970249999998,1.4086274999999944" fill="none" stroke="rgb(0,178,0)" stroke-width="0.1"/>
  <path d="M 85.71970249999998,1.4086274999999944 A 0.2,0.2 0.0 1,0 85.48270249999999,1.0866274999999916" fill="none" stroke="rgb(0,178,0)" stroke-width="0.1"/>
 </g>
 <g id="layerDOTE" inkscape:groupmode="layer" inkscape:label="DOTE">
  <path d="M 97.50270249999997,0.0 L 97.50270249999997,79.2476275" fill="none" stroke="rgb(178,0,0)" stroke-width="0.1"/>
  <path d="M 1.0026024999999805,86.7476275 L 73.50270249999998,86.7476275" fill="none" stroke="rgb(178,0,0)" stroke-width="0.1"/>
  <path d="M 0.0,99.2476275 L 100.0,99.2476275" fill="none" stroke="rgb(178,0,0)" stroke-width="0.1"/>
  <path d="M 0.0,79.2476275 L 100.0,79.2476275" fill="none" stroke="rgb(178,0,0)" stroke-width="0.1"/>
  <path d="M 0.0,44.74762749999999 L 97.50270249999997,44.74762749999999" fill="none" stroke="rgb(178,0,0)" stroke-width="0.1"/>
  <path d="M 0.0,4.247627499999993 L 100.0,4.247627499999993" fill="none" stroke="rgb(178,0,0)" stroke-width="0.1"/>
  <path d="M 5.0026024999999805,100.0 L 5.0026024999999805,0.0" fill="none" stroke="rgb(178,0,0)" stroke-width="0.1"/>
  <path d="M 99.50270249999997,100.0 L 99.50270249999997,0.0" fill="none" stroke="rgb(178,0,0)" stroke-width="0.1"/>
  <path d="M 80.50270249999997,100.0 L 80.50270249999997,0.0" fill="none" stroke="rgb(178,0,0)" stroke-width="0.1"/>
 </g>
 <g id="layerEQUIP_地漏" inkscape:groupmode="layer" inkscape:label="EQUIP_地漏">
  <path d="M 3.925202499999976,47.640627499999994 L 3.1169024999999806,46.8326275" fill="none" stroke="rgb(0,0,0)" stroke-width="0.1"/>
  <path d="M 3.925202499999976,47.640627499999994 L 3.1169024999999806,46.8326275" fill="none" stroke="rgb(0,0,0)" stroke-width="0.1"/>
  <path d="M 3.8732024999999766,48.07862750000001 L 2.6738024999999794,46.8796275" fill="none" stroke="rgb(0,0,0)" stroke-width="0.1"/>
  <path d="M 3.8732024999999766,48.07862750000001 L 2.6738024999999794,46.8796275" fill="none" stroke="rgb(0,0,0)" stroke-width="0.1"/>
  <path d="M 2.925902499999978,48.696627500000005 L 2.0847024999999775,47.8556275" fill="none" stroke="rgb(0,0,0)" stroke-width="0.1"/>
  <path d="M 2.925902499999978,48.696627500000005 L 2.0847024999999775,47.8556275" fill="none" stroke="rgb(0,0,0)" stroke-width="0.1"/>
  <path d="M 3.3531024999999772,48.62762749999999 L 2.130402499999981,47.404627500000004" fill="none" stroke="rgb(0,0,0)" stroke-width="0.1"/>
  <path d="M 3.3531024999999772,48.62762749999999 L 2.130402499999981,47.404627500000004" fill="none" stroke="rgb(0,0,0)" stroke-width="0.1"/>
  <path d="M 3.667302499999977,48.41962749999999 L 2.337902499999977,47.09062750000001" fill="none" stroke="rgb(0,0,0)" stroke-width="0.1"/>
  <path d="M 3.667302499999977,48.41962749999999 L 2.337902499999977,47.09062750000001" fill="none" stroke="rgb(0,0,0)" stroke-width="0.1"/>
  <path d="M 3.925202499999976,38.882627499999984 L 3.1169024999999806,38.073627499999986" fill="none" stroke="rgb(0,0,0)" stroke-width="0.1"/>
  <path d="M 3.925202499999976,38.882627499999984 L 3.1169024999999806,38.073627499999986" fill="none" stroke="rgb(0,0,0)" stroke-width="0.1"/>
  <path d="M 3.8732024999999766,39.319627499999996 L 2.6738024999999794,38.12062749999998" fill="none" stroke="rgb(0,0,0)" stroke-width="0.1"/>
  <path d="M 3.8732024999999766,39.319627499999996 L 2.6738024999999794,38.12062749999998" fill="none" stroke="rgb(0,0,0)" stroke-width="0.1"/>
  <path d="M 2.925902499999978,39.938627499999996 L 2.0847024999999775,39.09762749999999" fill="none" stroke="rgb(0,0,0)" stroke-width="0.1"/>
  <path d="M 2.925902499999978,39.938627499999996 L 2.0847024999999775,39.09762749999999" fill="none" stroke="rgb(0,0,0)" stroke-width="0.1"/>
  <path d="M 3.3531024999999772,39.8686275 L 2.130402499999981,38.64562749999999" fill="none" stroke="rgb(0,0,0)" stroke-width="0.1"/>
  <path d="M 3.3531024999999772,39.8686275 L 2.130402499999981,38.64562749999999" fill="none" stroke="rgb(0,0,0)" stroke-width="0.1"/>
  <path d="M 3.667302499999977,39.66162750000001 L 2.337902499999977,38.331627499999996" fill="none" stroke="rgb(0,0,0)" stroke-width="0.1"/>
  <path d="M 3.667302499999977,39.66162750000001 L 2.337902499999977,38.331627499999996" fill="none" stroke="rgb(0,0,0)" stroke-width="0.1"/>
  <circle cx="3.0026024999999805" cy="47.7556275" fill="none" r="0.94" stroke="rgb(0,0,0)" stroke-width="0.1"/>
  <circle cx="3.0026024999999805" cy="47.7556275" fill="none" r="0.94" stroke="rgb(0,0,0)" stroke-width="0.1"/>
  <circle cx="3.0026024999999805" cy="38.99662749999999" fill="none" r="0.94" stroke="rgb(0,0,0)" stroke-width="0.1"/>
  <circle cx="3.0026024999999805" cy="38.99662749999999" fill="none" r="0.94" stroke="rgb(0,0,0)" stroke-width="0.1"/>
 </g>
 <g id="layerPUB_DIM" inkscape:groupmode="layer" inkscape:label="PUB_DIM">
  <path d="M 4.561002499999979,1.4656274999999965 L 5.902702499999975,2.9486275000000006" fill="none" stroke="rgb(0,178,0)" stroke-width="0.1"/>
  <path d="M 97.50270249999997,30.497627499999993 L 97.50270249999997,25.807627499999995" fill="none" stroke="rgb(0,178,0)" stroke-width="0.1"/>
  <path d="M 99.50270249999997,30.497627499999993 L 99.50270249999997,25.807627499999995" fill="none" stroke="rgb(0,178,0)" stroke-width="0.1"/>
  <path d="M 97.50270249999997,28.307627499999995 L 96.50270249999997,28.307627499999995" fill="none" stroke="rgb(0,178,0)" stroke-width="0.1"/>
  <path d="M 99.50270249999997,28.307627499999995 L 100.0,28.307627499999995" fill="none" stroke="rgb(0,178,0)" stroke-width="0.1"/>
  <path d="M 97.50270249999997,28.307627499999995 L 99.50270249999997,28.307627499999995" fill="none" stroke="rgb(0,178,0)" stroke-width="0.1"/>
  <path d="M 80.50270249999997,30.497627499999993 L 80.50270249999997,25.807627499999995" fill="none" stroke="rgb(0,178,0)" stroke-width="0.1"/>
  <path d="M 97.50270249999997,30.497627499999993 L 97.50270249999997,25.807627499999995" fill="none" stroke="rgb(0,178,0)" stroke-width="0.1"/>
  <path d="M 80.50270249999997,28.307627499999995 L 97.50270249999997,28.307627499999995" fill="none" stroke="rgb(0,178,0)" stroke-width="0.1"/>
  <path d="M 74.50270249999998,30.497627499999993 L 74.50270249999998,25.807627499999995" fill="none" stroke="rgb(0,178,0)" stroke-width="0.1"/>
  <path d="M 80.50270249999997,30.497627499999993 L 80.50270249999997,25.807627499999995" fill="none" stroke="rgb(0,178,0)" stroke-width="0.1"/>
  <path d="M 74.50270249999998,28.307627499999995 L 73.50270249999998,28.307627499999995" fill="none" stroke="rgb(0,178,0)" stroke-width="0.1"/>
  <path d="M 80.50270249999997,28.307627499999995 L 81.50270249999997,28.307627499999995" fill="none" stroke="rgb(0,178,0)" stroke-width="0.1"/>
  <path d="M 74.50270249999998,28.307627499999995 L 80.50270249999997,28.307627499999995" fill="none" stroke="rgb(0,178,0)" stroke-width="0.1"/>
  <path d="M 73.50270249999998,30.497627499999993 L 73.50270249999998,25.807627499999995" fill="none" stroke="rgb(0,178,0)" stroke-width="0.1"/>
  <path d="M 74.50270249999998,30.497627499999993 L 74.50270249999998,25.807627499999995" fill="none" stroke="rgb(0,178,0)" stroke-width="0.1"/>
  <path d="M 73.50270249999998,28.307627499999995 L 72.50270249999998,28.307627499999995" fill="none" stroke="rgb(0,178,0)" stroke-width="0.1"/>
  <path d="M 74.50270249999998,28.307627499999995 L 75.50270249999998,28.307627499999995" fill="none" stroke="rgb(0,178,0)" stroke-width="0.1"/>
  <path d="M 73.50270249999998,28.307627499999995 L 74.50270249999998,28.307627499999995" fill="none" stroke="rgb(0,178,0)" stroke-width="0.1"/>
  <path d="M 97.50270249999997,69.2476275 L 97.50270249999997,63.39562749999999" fill="none" stroke="rgb(0,178,0)" stroke-width="0.1"/>
  <path d="M 97.50270249999997,65.89562749999999 L 100.0,65.89562749999999" fill="none" stroke="rgb(0,178,0)" stroke-width="0.1"/>
  <path d="M 70.50270249999998,97.2476275 L 65.59070249999998,97.2476275" fill="none" stroke="rgb(0,178,0)" stroke-width="0.1"/>
  <path d="M 68.09070249999998,100.0 L 68.09070249999998,97.2476275" fill="none" stroke="rgb(0,178,0)" stroke-width="0.1"/>
  <path d="M 70.50270249999998,97.2476275 L 65.59070249999998,97.2476275" fill="none" stroke="rgb(0,178,0)" stroke-width="0.1"/>
  <path d="M 70.50270249999998,96.2476275 L 65.59070249999998,96.2476275" fill="none" stroke="rgb(0,178,0)" stroke-width="0.1"/>
  <path d="M 68.09070249999998,97.2476275 L 68.09070249999998,98.2476275" fill="none" stroke="rgb(0,178,0)" stroke-width="0.1"/>
  <path d="M 68.09070249999998,96.2476275 L 68.09070249999998,95.2476275" fill="none" stroke="rgb(0,178,0)" stroke-width="0.1"/>
  <path d="M 68.09070249999998,97.2476275 L 68.09070249999998,96.2476275" fill="none" stroke="rgb(0,178,0)" stroke-width="0.1"/>
  <path d="M 70.50270249999998,96.2476275 L 65.59070249999998,96.2476275" fill="none" stroke="rgb(0,178,0)" stroke-width="0.1"/>
  <path d="M 70.50270249999998,86.7476275 L 65.59070249999998,86.7476275" fill="none" stroke="rgb(0,178,0)" stroke-width="0.1"/>
  <path d="M 68.09070249999998,96.2476275 L 68.09070249999998,86.7476275" fill="none" stroke="rgb(0,178,0)" stroke-width="0.1"/>
  <path d="M 70.50270249999998,86.7476275 L 65.59070249999998,86.7476275" fill="none" stroke="rgb(0,178,0)" stroke-width="0.1"/>
  <path d="M 70.50270249999998,77.2476275 L 65.59070249999998,77.2476275" fill="none" stroke="rgb(0,178,0)" stroke-width="0.1"/>
  <path d="M 68.09070249999998,86.7476275 L 68.09070249999998,77.2476275" fill="none" stroke="rgb(0,178,0)" stroke-width="0.1"/>
  <path d="M 70.50270249999998,77.2476275 L 65.59070249999998,77.2476275" fill="none" stroke="rgb(0,178,0)" stroke-width="0.1"/>
  <path d="M 70.50270249999998,76.2476275 L 65.59070249999998,76.2476275" fill="none" stroke="rgb(0,178,0)" stroke-width="0.1"/>
  <path d="M 68.09070249999998,77.2476275 L 68.09070249999998,78.2476275" fill="none" stroke="rgb(0,178,0)" stroke-width="0.1"/>
  <path d="M 68.09070249999998,76.2476275 L 68.09070249999998,75.2476275" fill="none" stroke="rgb(0,178,0)" stroke-width="0.1"/>
  <path d="M 68.09070249999998,77.2476275 L 68.09070249999998,76.2476275" fill="none" stroke="rgb(0,178,0)" stroke-width="0.1"/>
  <path d="M 70.50270249999998,76.2476275 L 65.59070249999998,76.2476275" fill="none" stroke="rgb(0,178,0)" stroke-width="0.1"/>
  <path d="M 70.50270249999998,63.74762749999999 L 65.59070249999998,63.74762749999999" fill="none" stroke="rgb(0,178,0)" stroke-width="0.1"/>
  <path d="M 68.09070249999998,76.2476275 L 68.09070249999998,63.74762749999999" fill="none" stroke="rgb(0,178,0)" stroke-width="0.1"/>
  <path d="M 70.50270249999998,63.74762749999999 L 65.59070249999998,63.74762749999999" fill="none" stroke="rgb(0,178,0)" stroke-width="0.1"/>
  <path d="M 70.50270249999998,52.74762749999999 L 65.59070249999998,52.74762749999999" fill="none" stroke="rgb(0,178,0)" stroke-width="0.1"/>
  <path d="M 68.09070249999998,63.74762749999999 L 68.09070249999998,52.74762749999999" fill="none" stroke="rgb(0,178,0)" stroke-width="0.1"/>
  <path d="M 70.50270249999998,52.74762749999999 L 65.59070249999998,52.74762749999999" fill="none" stroke="rgb(0,178,0)" stroke-width="0.1"/>
  <path d="M 70.50270249999998,44.74762749999999 L 65.59070249999998,44.74762749999999" fill="none" stroke="rgb(0,178,0)" stroke-width="0.1"/>
  <path d="M 68.09070249999998,52.74762749999999 L 68.09070249999998,44.74762749999999" fill="none" stroke="rgb(0,178,0)" stroke-width="0.1"/>
  <path d="M 70.50270249999998,44.74762749999999 L 65.59070249999998,44.74762749999999" fill="none" stroke="rgb(0,178,0)" stroke-width="0.1"/>
  <path d="M 70.50270249999998,33.49762749999999 L 65.59070249999998,33.49762749999999" fill="none" stroke="rgb(0,178,0)" stroke-width="0.1"/>
  <path d="M 68.09070249999998,44.74762749999999 L 68.09070249999998,33.49762749999999" fill="none" stroke="rgb(0,178,0)" stroke-width="0.1"/>
  <path d="M 70.50270249999998,33.49762749999999 L 65.59070249999998,33.49762749999999" fill="none" stroke="rgb(0,178,0)" stroke-width="0.1"/>
  <path d="M 70.50270249999998,32.49762749999999 L 65.59070249999998,32.49762749999999" fill="none" stroke="rgb(0,178,0)" stroke-width="0.1"/>
  <path d="M 68.09070249999998,33.49762749999999 L 68.09070249999998,34.49762749999999" fill="none" stroke="rgb(0,178,0)" stroke-width="0.1"/>
  <path d="M 68.09070249999998,32.49762749999999 L 68.09070249999998,31.497627499999993" fill="none" stroke="rgb(0,178,0)" stroke-width="0.1"/>
  <path d="M 68.09070249999998,33.49762749999999 L 68.09070249999998,32.49762749999999" fill="none" stroke="rgb(0,178,0)" stroke-width="0.1"/>
  <path d="M 70.50270249999998,32.49762749999999 L 65.59070249999998,32.49762749999999" fill="none" stroke="rgb(0,178,0)" stroke-width="0.1"/>
  <path d="M 70.50270249999998,22.247627499999993 L 65.59070249999998,22.247627499999993" fill="none" stroke="rgb(0,178,0)" stroke-width="0.1"/>
  <path d="M 68.09070249999998,32.49762749999999 L 68.09070249999998,22.247627499999993" fill="none" stroke="rgb(0,178,0)" stroke-width="0.1"/>
  <path d="M 70.50270249999998,22.247627499999993 L 65.59070249999998,22.247627499999993" fill="none" stroke="rgb(0,178,0)" stroke-width="0.1"/>
  <path d="M 70.50270249999998,11.247627499999993 L 65.59070249999998,11.247627499999993" fill="none" stroke="rgb(0,178,0)" stroke-width="0.1"/>
  <path d="M 68.09070249999998,22.247627499999993 L 68.09070249999998,11.247627499999993" fill="none" stroke="rgb(0,178,0)" stroke-width="0.1"/>
  <path d="M 70.50270249999998,11.247627499999993 L 65.59070249999998,11.247627499999993" fill="none" stroke="rgb(0,178,0)" stroke-width="0.1"/>
  <path d="M 70.50270249999998,4.247627499999993 L 65.59070249999998,4.247627499999993" fill="none" stroke="rgb(0,178,0)" stroke-width="0.1"/>
  <path d="M 68.09070249999998,11.247627499999993 L 68.09070249999998,12.247627499999993" fill="none" stroke="rgb(0,178,0)" stroke-width="0.1"/>
  <path d="M 68.09070249999998,4.247627499999993 L 68.09070249999998,3.247627499999993" fill="none" stroke="rgb(0,178,0)" stroke-width="0.1"/>
  <path d="M 68.09070249999998,11.247627499999993 L 68.09070249999998,4.247627499999993" fill="none" stroke="rgb(0,178,0)" stroke-width="0.1"/>
  <path d="M 70.50270249999998,4.247627499999993 L 65.59070249999998,4.247627499999993" fill="none" stroke="rgb(0,178,0)" stroke-width="0.1"/>
  <path d="M 68.09070249999998,4.247627499999993 L 68.09070249999998,0.0" fill="none" stroke="rgb(0,178,0)" stroke-width="0.1"/>
  <path d="M 25.00260249999998,20.747627499999993 L 32.157002499999976,20.747627499999993" fill="none" stroke="rgb(0,178,0)" stroke-width="0.1"/>
  <path d="M 25.00260249999998,4.247627499999993 L 32.157002499999976,4.247627499999993" fill="none" stroke="rgb(0,178,0)" stroke-width="0.1"/>
  <path d="M 29.657002499999976,20.747627499999993 L 29.657002499999976,4.247627499999993" fill="none" stroke="rgb(0,178,0)" stroke-width="0.1"/>
  <path d="M 25.00260249999998,4.247627499999993 L 32.157002499999976,4.247627499999993" fill="none" stroke="rgb(0,178,0)" stroke-width="0.1"/>
  <path d="M 29.657002499999976,4.247627499999993 L 29.657002499999976,0.0" fill="none" stroke="rgb(0,178,0)" stroke-width="0.1"/>
  <path d="M 5.0026024999999805,23.747627499999993 L 5.0026024999999805,28.970627500000006" fill="none" stroke="rgb(0,178,0)" stroke-width="0.1"/>
  <path d="M 22.00260249999998,23.747627499999993 L 22.00260249999998,28.970627500000006" fill="none" stroke="rgb(0,178,0)" stroke-width="0.1"/>
  <path d="M 5.0026024999999805,26.470627500000006 L 22.00260249999998,26.470627500000006" fill="none" stroke="rgb(0,178,0)" stroke-width="0.1"/>
  <path d="M 5.0026024999999805,23.747627499999993 L 5.0026024999999805,28.970627500000006" fill="none" stroke="rgb(0,178,0)" stroke-width="0.1"/>
  <path d="M 0.0,26.470627500000006 L 5.0026024999999805,26.470627500000006" fill="none" stroke="rgb(0,178,0)" stroke-width="0.1"/>
  <path d="M 74.00270249999998,1.247627499999993 L 74.00270249999998,0.0" fill="none" stroke="rgb(0,178,0)" stroke-width="0.1"/>
  <path d="M 78.75270249999997,1.247627499999993 L 78.75270249999997,0.0" fill="none" stroke="rgb(0,178,0)" stroke-width="0.1"/>
  <path d="M 8.00260249999998,83.7476275 L 13.50260249999998,83.7476275" fill="none" stroke="rgb(0,178,0)" stroke-width="0.1"/>
  <path d="M 8.00260249999998,86.7476275 L 13.50260249999998,86.7476275" fill="none" stroke="rgb(0,178,0)" stroke-width="0.1"/>
  <path d="M 11.00260249999998,83.7476275 L 11.00260249999998,86.7476275" fill="none" stroke="rgb(0,178,0)" stroke-width="0.1"/>
  <path d="M 8.00260249999998,86.7476275 L 13.50260249999998,86.7476275" fill="none" stroke="rgb(0,178,0)" stroke-width="0.1"/>
  <path d="M 8.00260249999998,89.7476275 L 13.50260249999998,89.7476275" fill="none" stroke="rgb(0,178,0)" stroke-width="0.1"/>
  <path d="M 11.00260249999998,86.7476275 L 11.00260249999998,89.7476275" fill="none" stroke="rgb(0,178,0)" stroke-width="0.1"/>
  <path d="M 3.235284415430627,0.0 L 4.561002499999979,1.4656274999999965" fill="none" stroke="rgb(0,178,0)" stroke-width="0.1"/>
  <path d="M 4.561002499999979,1.4656274999999965 L 5.902702499999975,2.9486275000000006" fill="none" stroke="rgb(0,178,0)" stroke-width="0.1"/>
  <text fill="rgb(0,178,0)" font-family="Noto Sans CJK SC" font-size="2" transform="rotate(-0.0,95.50270249999997,27.307627499999995)" x="95.50270249999997" y="27.307627499999995">
   200
  </text>
  <text fill="rgb(0,178,0)" font-family="Noto Sans CJK SC" font-size="2" transform="rotate(-0.0,84.85270249999999,27.307627499999995)" x="84.85270249999999" y="27.307627499999995">
   1700
  </text>
  <text fill="rgb(0,178,0)" font-family="Noto Sans CJK SC" font-size="2" transform="rotate(-0.0,74.45270249999997,27.307627499999995)" x="74.45270249999997" y="27.307627499999995">
   600
  </text>
  <text fill="rgb(0,178,0)" font-family="Noto Sans CJK SC" font-size="2" transform="rotate(-0.0,66.85270249999998,27.045627499999995)" x="66.85270249999998" y="27.045627499999995">
   100
  </text>
  <text fill="rgb(0,178,0)" font-family="Noto Sans CJK SC" font-size="2" transform="rotate(-0.0,98.50270249999997,64.89562749999999)" x="98.50270249999997" y="64.89562749999999">
   800
  </text>
  <text fill="rgb(0,178,0)" font-family="Noto Sans CJK SC" font-size="2" transform="rotate(-90.0,63.32770249999997,99.8976275)" x="63.32770249999997" y="99.8976275">
   100
  </text>
  <text fill="rgb(0,178,0)" font-family="Noto Sans CJK SC" font-size="2" transform="rotate(-90.0,67.09070249999998,94.4976275)" x="67.09070249999998" y="94.4976275">
   950
  </text>
  <text fill="rgb(0,178,0)" font-family="Noto Sans CJK SC" font-size="2" transform="rotate(-90.0,67.09070249999998,84.9976275)" x="67.09070249999998" y="84.9976275">
   950
  </text>
  <text fill="rgb(0,178,0)" font-family="Noto Sans CJK SC" font-size="2" transform="rotate(-90.0,63.32770249999997,79.8976275)" x="63.32770249999997" y="79.8976275">
   100
  </text>
  <text fill="rgb(0,178,0)" font-family="Noto Sans CJK SC" font-size="2" transform="rotate(-90.0,67.09070249999998,74.1476275)" x="67.09070249999998" y="74.1476275">
   1250
  </text>
  <text fill="rgb(0,178,0)" font-family="Noto Sans CJK SC" font-size="2" transform="rotate(-90.0,67.09070249999998,62.3976275)" x="67.09070249999998" y="62.3976275">
   1100
  </text>
  <text fill="rgb(0,178,0)" font-family="Noto Sans CJK SC" font-size="2" transform="rotate(-90.0,67.09070249999998,51.74762749999999)" x="67.09070249999998" y="51.74762749999999">
   800
  </text>
  <text fill="rgb(0,178,0)" font-family="Noto Sans CJK SC" font-size="2" transform="rotate(-90.0,67.09070249999998,43.2726275)" x="67.09070249999998" y="43.2726275">
   1125
  </text>
  <text fill="rgb(0,178,0)" font-family="Noto Sans CJK SC" font-size="2" transform="rotate(-90.0,63.32770249999997,36.1476275)" x="63.32770249999997" y="36.1476275">
   100
  </text>
  <text fill="rgb(0,178,0)" font-family="Noto Sans CJK SC" font-size="2" transform="rotate(-90.0,67.09070249999998,31.5226275)" x="67.09070249999998" y="31.5226275">
   1025
  </text>
  <text fill="rgb(0,178,0)" font-family="Noto Sans CJK SC" font-size="2" transform="rotate(-90.0,67.09070249999998,20.8976275)" x="67.09070249999998" y="20.8976275">
   1100
  </text>
  <text fill="rgb(0,178,0)" font-family="Noto Sans CJK SC" font-size="2" transform="rotate(-90.0,67.09070249999998,10.747627499999993)" x="67.09070249999998" y="10.747627499999993">
   700
  </text>
  <text fill="rgb(0,178,0)" font-family="Noto Sans CJK SC" font-size="2" transform="rotate(-90.0,67.09070249999998,3.497627499999993)" x="67.09070249999998" y="3.497627499999993">
   750
  </text>
  <text fill="rgb(0,178,0)" font-family="Noto Sans CJK SC" font-size="2" transform="rotate(-90.0,28.657002499999976,16.6476275)" x="28.657002499999976" y="16.6476275">
   1650
  </text>
  <text fill="rgb(0,178,0)" font-family="Noto Sans CJK SC" font-size="2" transform="rotate(-90.0,28.657002499999976,3.497627499999993)" x="28.657002499999976" y="3.497627499999993">
   750
  </text>
  <text fill="rgb(0,178,0)" font-family="Noto Sans CJK SC" font-size="2" transform="rotate(-0.0,9.352602499999982,25.470627500000006)" x="9.352602499999982" y="25.470627500000006">
   1700
  </text>
  <text fill="rgb(0,178,0)" font-family="Noto Sans CJK SC" font-size="2" transform="rotate(-90.0,15.240102499999978,83.0476275)" x="15.240102499999978" y="83.0476275">
   300
  </text>
  <text fill="rgb(0,178,0)" font-family="Noto Sans CJK SC" font-size="2" transform="rotate(-90.0,15.240102499999978,96.44762750000001)" x="15.240102499999978" y="96.44762750000001">
   300
  </text>
 </g>
 <g id="layerPUB_TEXT" inkscape:groupmode="layer" inkscape:label="PUB_TEXT">
  <text fill="rgb(0,0,0)" font-family="Noto Sans CJK SC" font-size="2" transform="rotate(-0.0,32.46310249999998,68.19862749999999)" x="32.46310249999998" y="68.19862749999999">
   办公
  </text>
  <text fill="rgb(0,0,0)" font-family="Noto Sans CJK SC" font-size="2" transform="rotate(-0.0,48.96810249999997,27.154627500000004)" x="48.96810249999997" y="27.154627500000004">
   办公
  </text>
  <text fill="rgb(0,0,0)" font-family="Noto Sans CJK SC" font-size="2" transform="rotate(-0.0,11.364602499999975,16.839627500000006)" x="11.364602499999975" y="16.839627500000006">
   圆心
  </text>
  <text fill="rgb(0,0,0)" font-family="Noto Sans CJK SC" font-size="2" transform="rotate(-0.0,98.02270249999998,21.823627499999986)" x="98.02270249999998" y="21.823627499999986">
   玻璃栏板
  </text>
 </g>
 <g id="layerS-上空线" inkscape:groupmode="layer" inkscape:label="S-上空线">
  <path d="M 74.50270249999998,77.2476275 L 74.50270249999998,85.7476275" fill="none" stroke="rgb(63,63,63)" stroke-width="0.1"/>
  <path d="M 74.50270249999998,85.7476275 L 78.50270249999997,85.7476275" fill="none" stroke="rgb(63,63,63)" stroke-width="0.1"/>
  <path d="M 78.50270249999997,85.7476275 L 78.50270249999997,77.2476275" fill="none" stroke="rgb(63,63,63)" stroke-width="0.1"/>
  <path d="M 78.50270249999997,77.2476275 L 74.50270249999998,77.2476275" fill="none" stroke="rgb(63,63,63)" stroke-width="0.1"/>
  <path d="M 74.50270249999998,96.2476275 L 74.50270249999998,87.7476275" fill="none" stroke="rgb(63,63,63)" stroke-width="0.1"/>
  <path d="M 74.50270249999998,87.7476275 L 78.50270249999997,87.7476275" fill="none" stroke="rgb(63,63,63)" stroke-width="0.1"/>
  <path d="M 78.50270249999997,87.7476275 L 78.50270249999997,96.2476275" fill="none" stroke="rgb(63,63,63)" stroke-width="0.1"/>
  <path d="M 78.50270249999997,96.2476275 L 74.50270249999998,96.2476275" fill="none" stroke="rgb(63,63,63)" stroke-width="0.1"/>
  <path d="M 74.50270249999998,33.49762749999999 L 74.50270249999998,41.99762749999999" fill="none" stroke="rgb(63,63,63)" stroke-width="0.1"/>
  <path d="M 74.50270249999998,41.99762749999999 L 78.50270249999997,41.99762749999999" fill="none" stroke="rgb(63,63,63)" stroke-width="0.1"/>
  <path d="M 78.50270249999997,41.99762749999999 L 78.50270249999997,33.49762749999999" fill="none" stroke="rgb(63,63,63)" stroke-width="0.1"/>
  <path d="M 78.50270249999997,33.49762749999999 L 74.50270249999998,33.49762749999999" fill="none" stroke="rgb(63,63,63)" stroke-width="0.1"/>
  <path d="M 74.60270249999998,77.34762749999999 L 75.20470249999998,79.0826275" fill="none" stroke="rgb(63,63,63)" stroke-width="0.1"/>
  <path d="M 75.20470249999998,79.0826275 L 78.40270249999998,79.6476275" fill="none" stroke="rgb(63,63,63)" stroke-width="0.1"/>
  <path d="M 74.60270249999998,96.1476275 L 75.20470249999998,94.41262749999999" fill="none" stroke="rgb(63,63,63)" stroke-width="0.1"/>
  <path d="M 75.20470249999998,94.41262749999999 L 78.40270249999998,93.84762749999999" fill="none" stroke="rgb(63,63,63)" stroke-width="0.1"/>
  <path d="M 74.60270249999998,33.59762749999999 L 75.20470249999998,35.3326275" fill="none" stroke="rgb(63,63,63)" stroke-width="0.1"/>
  <path d="M 75.20470249999998,35.3326275 L 78.40270249999998,35.8976275" fill="none" stroke="rgb(63,63,63)" stroke-width="0.1"/>
 </g>
 <g id="layerS-幕墙" inkscape:groupmode="layer" inkscape:label="S-幕墙">
  <path d="M 81.50270249999997,1.247627499999993 L 96.50270249999997,1.247627499999993" fill="none" instance-id="-1" semantic-id="2" stroke="rgb(0,0,178)" stroke-width="0.1"/>
  <path d="M 81.50270249999997,0.6476274999999987 L 96.50270249999997,0.6476274999999987" fill="none" instance-id="-1" semantic-id="2" stroke="rgb(0,0,178)" stroke-width="0.1"/>
  <path d="M 100.0,8.747627499999993 L 97.50270249999997,8.747627499999993" fill="none" stroke="rgb(0,178,178)" stroke-width="0.1"/>
  <path d="M 9.569954275044857,0.21788525614782372 L 9.142759420504063,0.4827572879516282" fill="none" instance-id="-1" semantic-id="2" stroke="rgb(0,178,178)" stroke-width="0.1"/>
  <path d="M 9.142759420504063,0.4827572879516282 L 8.721205318159726,0.7565177229575966" fill="none" instance-id="-1" semantic-id="2" stroke="rgb(0,178,178)" stroke-width="0.1"/>
  <path d="M 8.721205318159726,0.7565177229575966 L 8.305476875573618,1.039046480791086" fill="none" instance-id="-1" semantic-id="2" stroke="rgb(0,178,178)" stroke-width="0.1"/>
  <path d="M 8.305476875573618,1.039046480791086 L 7.895756444980627,1.3302196350012423" fill="none" instance-id="-1" semantic-id="2" stroke="rgb(0,178,178)" stroke-width="0.1"/>
  <path d="M 7.895756444980627,1.3302196350012423 L 7.492223743302986,1.6299094674192816" fill="none" instance-id="-1" semantic-id="2" stroke="rgb(0,178,178)" stroke-width="0.1"/>
  <path d="M 7.492223743302986,1.6299094674192816 L 7.095055773320539,1.937984524179825" fill="none" instance-id="-1" semantic-id="2" stroke="rgb(0,178,178)" stroke-width="0.1"/>
  <path d="M 7.095055773320539,1.937984524179825 L 6.70442674603143,2.2543096733810444" fill="none" instance-id="-1" semantic-id="2" stroke="rgb(0,178,178)" stroke-width="0.1"/>
  <path d="M 6.70442674603143,2.2543096733810444 L 6.320508004237453,2.578746164357824" fill="none" instance-id="-1" semantic-id="2" stroke="rgb(0,178,178)" stroke-width="0.1"/>
  <path d="M 6.320508004237453,2.578746164357824 L 5.943467947387383,2.9111516885425317" fill="none" instance-id="-1" semantic-id="2" stroke="rgb(0,178,178)" stroke-width="0.1"/>
  <path d="M 5.943467947387383,2.9111516885425317 L 5.573471957711462,3.2513804418861127" fill="none" instance-id="-1" semantic-id="2" stroke="rgb(0,178,178)" stroke-width="0.1"/>
  <path d="M 5.573471957711462,3.2513804418861127 L 5.210682327679216,3.5992831888127057" fill="none" instance-id="-1" semantic-id="2" stroke="rgb(0,178,178)" stroke-width="0.1"/>
  <path d="M 5.210682327679216,3.5992831888127057 L 4.855258188812705,3.954707327679216" fill="none" instance-id="-1" semantic-id="2" stroke="rgb(0,178,178)" stroke-width="0.1"/>
  <path d="M 4.855258188812705,3.954707327679216 L 4.507355441886105,4.317496957711455" fill="none" instance-id="-1" semantic-id="2" stroke="rgb(0,178,178)" stroke-width="0.1"/>
  <path d="M 4.507355441886105,4.317496957711455 L 4.167126688542524,4.687492947387398" fill="none" instance-id="-1" semantic-id="2" stroke="rgb(0,178,178)" stroke-width="0.1"/>
  <path d="M 4.167126688542524,4.687492947387398 L 3.8347211643578305,5.064533004237461" fill="none" instance-id="-1" semantic-id="2" stroke="rgb(0,178,178)" stroke-width="0.1"/>
  <path d="M 3.8347211643578305,5.064533004237461 L 3.510284673381051,5.448451746031424" fill="none" instance-id="-1" semantic-id="2" stroke="rgb(0,178,178)" stroke-width="0.1"/>
  <path d="M 3.510284673381051,5.448451746031424 L 3.1939595241798315,5.839080773320546" fill="none" instance-id="-1" semantic-id="2" stroke="rgb(0,178,178)" stroke-width="0.1"/>
  <path d="M 3.1939595241798315,5.839080773320546 L 2.885884467419274,6.23624874330298" fill="none" instance-id="-1" semantic-id="2" stroke="rgb(0,178,178)" stroke-width="0.1"/>
  <path d="M 2.885884467419274,6.23624874330298 L 2.586194635001249,6.639781444980628" fill="none" instance-id="-1" semantic-id="2" stroke="rgb(0,178,178)" stroke-width="0.1"/>
  <path d="M 2.586194635001249,6.639781444980628 L 2.2950214807910854,7.04950187557364" fill="none" instance-id="-1" semantic-id="2" stroke="rgb(0,178,178)" stroke-width="0.1"/>
  <path d="M 2.2950214807910854,7.04950187557364 L 2.012492722957603,7.465230318159712" fill="none" instance-id="-1" semantic-id="2" stroke="rgb(0,178,178)" stroke-width="0.1"/>
  <path d="M 2.012492722957603,7.465230318159712 L 1.7387322879516205,7.886784420504057" fill="none" instance-id="-1" semantic-id="2" stroke="rgb(0,178,178)" stroke-width="0.1"/>
  <path d="M 1.7387322879516205,7.886784420504057 L 1.4738602561478302,8.313979275044858" fill="none" instance-id="-1" semantic-id="2" stroke="rgb(0,178,178)" stroke-width="0.1"/>
  <path d="M 1.4738602561478302,8.313979275044858 L 1.2179928091734524,8.746627499999988" fill="none" instance-id="-1" semantic-id="2" stroke="rgb(0,178,178)" stroke-width="0.1"/>
  <path d="M 1.2179928091734524,8.746627499999988 L 0.9712421789472643,9.184539321558816" fill="none" instance-id="-1" semantic-id="2" stroke="rgb(0,178,178)" stroke-width="0.1"/>
  <path d="M 0.9712421789472643,9.184539321558816 L 0.7337165984508331,9.627522657123308" fill="none" instance-id="-1" semantic-id="2" stroke="rgb(0,178,178)" stroke-width="0.1"/>
  <path d="M 0.7337165984508331,9.627522657123308 L 0.5055202542540798,10.075383199561713" fill="none" instance-id="-1" semantic-id="2" stroke="rgb(0,178,178)" stroke-width="0.1"/>
  <path d="M 0.5055202542540798,10.075383199561713 L 0.28675324081551423,10.527924502438225" fill="none" instance-id="-1" semantic-id="2" stroke="rgb(0,178,178)" stroke-width="0.1"/>
  <path d="M 0.28675324081551423,10.527924502438225 L 0.07751151657756594,10.984948066180777" fill="none" instance-id="-1" semantic-id="2" stroke="rgb(0,178,178)" stroke-width="0.1"/>
  <path d="M 13.159539287786707,0.05725261759235423 L 12.69753613825327,0.26088270017662296" fill="none" instance-id="-1" semantic-id="2" stroke="rgb(0,178,178)" stroke-width="0.1"/>
  <path d="M 12.69753613825327,0.26088270017662296 L 12.24021836985493,0.4748279721955555" fill="none" instance-id="-1" semantic-id="2" stroke="rgb(0,178,178)" stroke-width="0.1"/>
  <path d="M 12.24021836985493,0.4748279721955555 L 11.787816255860179,0.6989807057617128" fill="none" instance-id="-1" semantic-id="2" stroke="rgb(0,178,178)" stroke-width="0.1"/>
  <path d="M 11.787816255860179,0.6989807057617128 L 11.340557594357513,0.9332280332233864" fill="none" instance-id="-1" semantic-id="2" stroke="rgb(0,178,178)" stroke-width="0.1"/>
  <path d="M 11.340557594357513,0.9332280332233864 L 10.89866759355219,1.1774520039968337" fill="none" instance-id="-1" semantic-id="2" stroke="rgb(0,178,178)" stroke-width="0.1"/>
  <path d="M 10.89866759355219,1.1774520039968337 L 10.462368758367091,1.431529643958001" fill="none" instance-id="-1" semantic-id="2" stroke="rgb(0,178,178)" stroke-width="0.1"/>
  <path d="M 10.462368758367091,1.431529643958001 L 10.031880778404911,1.6953330173635948" fill="none" instance-id="-1" semantic-id="2" stroke="rgb(0,178,178)" stroke-width="0.1"/>
  <path d="M 10.031880778404911,1.6953330173635948 L 9.607420417327674,1.9687292912706766" fill="none" instance-id="-1" semantic-id="2" stroke="rgb(0,178,178)" stroke-width="0.1"/>
  <path d="M 9.607420417327674,1.9687292912706766 L 9.189201403709824,2.251580802422012" fill="none" instance-id="-1" semantic-id="2" stroke="rgb(0,178,178)" stroke-width="0.1"/>
  <path d="M 9.189201403709824,2.251580802422012 L 8.777434323419335,2.543745126563664" fill="none" instance-id="-1" semantic-id="2" stroke="rgb(0,178,178)" stroke-width="0.1"/>
  <path d="M 8.777434323419335,2.543745126563664 L 8.372326513581534,2.8450751501599143" fill="none" instance-id="-1" semantic-id="2" stroke="rgb(0,178,178)" stroke-width="0.1"/>
  <path d="M 8.372326513581534,2.8450751501599143 L 7.974081958178488,3.155419144469306" fill="none" instance-id="-1" semantic-id="2" stroke="rgb(0,178,178)" stroke-width="0.1"/>
  <path d="M 7.974081958178488,3.155419144469306 L 7.582901185336951,3.474620841944727" fill="none" instance-id="-1" semantic-id="2" stroke="rgb(0,178,178)" stroke-width="0.1"/>
  <path d="M 7.582901185336951,3.474620841944727 L 7.198981166356454,3.8025195149187425" fill="none" instance-id="-1" semantic-id="2" stroke="rgb(0,178,178)" stroke-width="0.1"/>
  <path d="M 7.198981166356454,3.8025195149187425 L 6.822515216528309,4.1389500565348385" fill="none" instance-id="-1" semantic-id="2" stroke="rgb(0,178,178)" stroke-width="0.1"/>
  <path d="M 6.822515216528309,4.1389500565348385 L 6.453692897795534,4.483743063883679" fill="none" instance-id="-1" semantic-id="2" stroke="rgb(0,178,178)" stroke-width="0.1"/>
  <path d="M 6.453692897795534,4.483743063883679 L 6.092699923302668,4.836724923302654" fill="none" instance-id="-1" semantic-id="2" stroke="rgb(0,178,178)" stroke-width="0.1"/>
  <path d="M 6.092699923302668,4.836724923302654 L 5.739718063883686,5.197717897795513" fill="none" instance-id="-1" semantic-id="2" stroke="rgb(0,178,178)" stroke-width="0.1"/>
  <path d="M 5.739718063883686,5.197717897795513 L 5.394925056534831,5.566540216528296" fill="none" instance-id="-1" semantic-id="2" stroke="rgb(0,178,178)" stroke-width="0.1"/>
  <path d="M 5.394925056534831,5.566540216528296 L 5.058494514918742,5.94300616635644" fill="none" instance-id="-1" semantic-id="2" stroke="rgb(0,178,178)" stroke-width="0.1"/>
  <path d="M 5.058494514918742,5.94300616635644 L 4.730595841944734,6.32692618533693" fill="none" instance-id="-1" semantic-id="2" stroke="rgb(0,178,178)" stroke-width="0.1"/>
  <path d="M 4.730595841944734,6.32692618533693 L 4.4113941444693126,6.718106958178481" fill="none" instance-id="-1" semantic-id="2" stroke="rgb(0,178,178)" stroke-width="0.1"/>
  <path d="M 4.4113941444693126,6.718106958178481 L 4.101050150159914,7.11635151358152" fill="none" instance-id="-1" semantic-id="2" stroke="rgb(0,178,178)" stroke-width="0.1"/>
  <path d="M 4.101050150159914,7.11635151358152 L 3.7997201265636704,7.521459323419322" fill="none" instance-id="-1" semantic-id="2" stroke="rgb(0,178,178)" stroke-width="0.1"/>
  <path d="M 3.7997201265636704,7.521459323419322 L 3.5075558024220044,7.933226403709824" fill="none" instance-id="-1" semantic-id="2" stroke="rgb(0,178,178)" stroke-width="0.1"/>
  <path d="M 3.5075558024220044,7.933226403709824 L 3.224704291270683,8.351445417327682" fill="none" instance-id="-1" semantic-id="2" stroke="rgb(0,178,178)" stroke-width="0.1"/>
  <path d="M 3.224704291270683,8.351445417327682 L 2.951308017363594,8.775905778404905" fill="none" instance-id="-1" semantic-id="2" stroke="rgb(0,178,178)" stroke-width="0.1"/>
  <path d="M 2.951308017363594,8.775905778404905 L 2.6875046439579933,9.206393758367085" fill="none" instance-id="-1" semantic-id="2" stroke="rgb(0,178,178)" stroke-width="0.1"/>
  <path d="M 2.6875046439579933,9.206393758367085 L 2.43342700399684,9.64269259355217" fill="none" instance-id="-1" semantic-id="2" stroke="rgb(0,178,178)" stroke-width="0.1"/>
  <path d="M 2.43342700399684,9.64269259355217 L 2.1892030332233787,10.0845825943575" fill="none" instance-id="-1" semantic-id="2" stroke="rgb(0,178,178)" stroke-width="0.1"/>
  <path d="M 2.1892030332233787,10.0845825943575 L 1.954955705761705,10.531841255860172" fill="none" instance-id="-1" semantic-id="2" stroke="rgb(0,178,178)" stroke-width="0.1"/>
  <path d="M 1.954955705761705,10.531841255860172 L 1.7308029721955478,10.984243369854937" fill="none" instance-id="-1" semantic-id="2" stroke="rgb(0,178,178)" stroke-width="0.1"/>
  <path d="M 1.7308029721955478,10.984243369854937 L 1.5168577001766295,11.441561138253263" fill="none" instance-id="-1" semantic-id="2" stroke="rgb(0,178,178)" stroke-width="0.1"/>
  <path d="M 1.5168577001766295,11.441561138253263 L 1.3132276175923465,11.903564287786708" fill="none" instance-id="-1" semantic-id="2" stroke="rgb(0,178,178)" stroke-width="0.1"/>
  <path d="M 1.3132276175923465,11.903564287786708 L 1.120015258321608,12.370020185956207" fill="none" instance-id="-1" semantic-id="2" stroke="rgb(0,178,178)" stroke-width="0.1"/>
  <path d="M 1.120015258321608,12.370020185956207 L 0.9373179106058984,12.840693958169766" fill="none" instance-id="-1" semantic-id="2" stroke="rgb(0,178,178)" stroke-width="0.1"/>
  <path d="M 0.9373179106058984,12.840693958169766 L 0.765227568061718,13.315348606008712" fill="none" instance-id="-1" semantic-id="2" stroke="rgb(0,178,178)" stroke-width="0.1"/>
  <path d="M 0.765227568061718,13.315348606008712 L 0.6038308833590236,13.793745126563664" fill="none" instance-id="-1" semantic-id="2" stroke="rgb(0,178,178)" stroke-width="0.1"/>
  <path d="M 0.6038308833590236,13.793745126563664 L 0.45320912458905127,14.27564263277958" fill="none" instance-id="-1" semantic-id="2" stroke="rgb(0,178,178)" stroke-width="0.1"/>
  <path d="M 0.45320912458905127,14.27564263277958 L 0.3134381343432864,14.760798474749805" fill="none" instance-id="-1" semantic-id="2" stroke="rgb(0,178,178)" stroke-width="0.1"/>
  <path d="M 0.3134381343432864,14.760798474749805 L 0.18458829152452694,15.248968361897369" fill="none" instance-id="-1" semantic-id="2" stroke="rgb(0,178,178)" stroke-width="0.1"/>
  <path d="M 0.18458829152452694,15.248968361897369 L 0.06672447590895558,15.739906485982914" fill="none" instance-id="-1" semantic-id="2" stroke="rgb(0,178,178)" stroke-width="0.1"/>
  <path d="M 18.467104631712175,0.046379800435317975 L 17.9679414355721,0.137854851072305" fill="none" instance-id="-1" semantic-id="2" stroke="rgb(0,178,178)" stroke-width="0.1"/>
  <path d="M 17.9679414355721,0.137854851072305 L 17.47113436787606,0.24136484458527718" fill="none" instance-id="-1" semantic-id="2" stroke="rgb(0,178,178)" stroke-width="0.1"/>
  <path d="M 17.47113436787606,0.24136484458527718 L 16.976973549961272,0.356849334052896" fill="none" instance-id="-1" semantic-id="2" stroke="rgb(0,178,178)" stroke-width="0.1"/>
  <path d="M 16.976973549961272,0.356849334052896 L 16.485747557829654,0.4842408797854034" fill="none" instance-id="-1" semantic-id="2" stroke="rgb(0,178,178)" stroke-width="0.1"/>
  <path d="M 16.485747557829654,0.4842408797854034 L 15.997743253627505,0.6234650887074906" fill="none" instance-id="-1" semantic-id="2" stroke="rgb(0,178,178)" stroke-width="0.1"/>
  <path d="M 15.997743253627505,0.6234650887074906 L 15.513245618126092,0.7744406578017617" fill="none" instance-id="-1" semantic-id="2" stroke="rgb(0,178,178)" stroke-width="0.1"/>
  <path d="M 15.513245618126092,0.7744406578017617 L 15.032537584300883,0.9370794215873843" fill="none" instance-id="-1" semantic-id="2" stroke="rgb(0,178,178)" stroke-width="0.1"/>
  <path d="M 15.032537584300883,0.9370794215873843 L 14.555899872106735,1.1112864036062717" fill="none" instance-id="-1" semantic-id="2" stroke="rgb(0,178,178)" stroke-width="0.1"/>
  <path d="M 14.555899872106735,1.1112864036062717 L 14.083610824545246,1.2969598718866848" fill="none" instance-id="-1" semantic-id="2" stroke="rgb(0,178,178)" stroke-width="0.1"/>
  <path d="M 14.083610824545246,1.2969598718866848 L 13.615946245120377,1.4939913983517528" fill="none" instance-id="-1" semantic-id="2" stroke="rgb(0,178,178)" stroke-width="0.1"/>
  <path d="M 13.615946245120377,1.4939913983517528 L 13.153179236776872,1.7022659221385368" fill="none" instance-id="-1" semantic-id="2" stroke="rgb(0,178,178)" stroke-width="0.1"/>
  <path d="M 13.153179236776872,1.7022659221385368 L 12.695580042415912,1.9216618167902055" fill="none" instance-id="-1" semantic-id="2" stroke="rgb(0,178,178)" stroke-width="0.1"/>
  <path d="M 12.695580042415912,1.9216618167902055 L 12.243415887080843,2.1520509612825833" fill="none" instance-id="-1" semantic-id="2" stroke="rgb(0,178,178)" stroke-width="0.1"/>
  <path d="M 12.243415887080843,2.1520509612825833 L 11.796950821905263,2.3932988148431065" fill="none" instance-id="-1" semantic-id="2" stroke="rgb(0,178,178)" stroke-width="0.1"/>
  <path d="M 11.796950821905263,2.3932988148431065 L 11.356445569914591,2.645264495518944" fill="none" instance-id="-1" semantic-id="2" stroke="rgb(0,178,178)" stroke-width="0.1"/>
  <path d="M 11.356445569914591,2.645264495518944 L 10.9221573737712,2.907800862448042" fill="none" instance-id="-1" semantic-id="2" stroke="rgb(0,178,178)" stroke-width="0.1"/>
  <path d="M 10.9221573737712,2.907800862448042 L 10.494339845551913,3.1807546017852246" fill="none" instance-id="-1" semantic-id="2" stroke="rgb(0,178,178)" stroke-width="0.1"/>
  <path d="M 10.494339845551913,3.1807546017852246 L 10.07324281864571,3.4639663162332113" fill="none" instance-id="-1" semantic-id="2" stroke="rgb(0,178,178)" stroke-width="0.1"/>
  <path d="M 10.07324281864571,3.4639663162332113 L 9.65911220185805,3.7572706181260855" fill="none" instance-id="-1" semantic-id="2" stroke="rgb(0,178,178)" stroke-width="0.1"/>
  <path d="M 9.65911220185805,3.7572706181260855 L 9.252189835807052,4.060496226011139" fill="none" instance-id="-1" semantic-id="2" stroke="rgb(0,178,178)" stroke-width="0.1"/>
  <path d="M 9.252189835807052,4.060496226011139 L 8.852713351695392,4.3734660646723285" fill="none" instance-id="-1" semantic-id="2" stroke="rgb(0,178,178)" stroke-width="0.1"/>
  <path d="M 8.852713351695392,4.3734660646723285 L 8.460916032540403,4.695997368537178" fill="none" instance-id="-1" semantic-id="2" stroke="rgb(0,178,178)" stroke-width="0.1"/>
  <path d="M 8.460916032540403,4.695997368537178 L 8.077026676943284,5.027901788406865" fill="none" instance-id="-1" semantic-id="2" stroke="rgb(0,178,178)" stroke-width="0.1"/>
  <path d="M 8.077026676943284,5.027901788406865 L 7.701269465477239,5.36898550144673" fill="none" instance-id="-1" semantic-id="2" stroke="rgb(0,178,178)" stroke-width="0.1"/>
  <path d="M 7.701269465477239,5.36898550144673 L 7.333863829772305,5.7190493243734295" fill="none" instance-id="-1" semantic-id="2" stroke="rgb(0,178,178)" stroke-width="0.1"/>
  <path d="M 7.333863829772305,5.7190493243734295 L 6.975024324373436,6.07788882977232" fill="none" instance-id="-1" semantic-id="2" stroke="rgb(0,178,178)" stroke-width="0.1"/>
  <path d="M 6.975024324373436,6.07788882977232 L 6.624960501446743,6.445294465477247" fill="none" instance-id="-1" semantic-id="2" stroke="rgb(0,178,178)" stroke-width="0.1"/>
  <path d="M 6.624960501446743,6.445294465477247 L 6.2838767884068645,6.821051676943284" fill="none" instance-id="-1" semantic-id="2" stroke="rgb(0,178,178)" stroke-width="0.1"/>
  <path d="M 6.2838767884068645,6.821051676943284 L 5.95197236853717,7.204941032540404" fill="none" instance-id="-1" semantic-id="2" stroke="rgb(0,178,178)" stroke-width="0.1"/>
  <path d="M 5.95197236853717,7.204941032540404 L 5.629441064672314,7.596738351695393" fill="none" instance-id="-1" semantic-id="2" stroke="rgb(0,178,178)" stroke-width="0.1"/>
  <path d="M 5.629441064672314,7.596738351695393 L 5.316471226011146,7.996214835807052" fill="none" instance-id="-1" semantic-id="2" stroke="rgb(0,178,178)" stroke-width="0.1"/>
  <path d="M 5.316471226011146,7.996214835807052 L 5.013245618126092,8.403137201858044" fill="none" instance-id="-1" semantic-id="2" stroke="rgb(0,178,178)" stroke-width="0.1"/>
  <path d="M 5.013245618126092,8.403137201858044 L 4.719941316233204,8.817267818645718" fill="none" instance-id="-1" semantic-id="2" stroke="rgb(0,178,178)" stroke-width="0.1"/>
  <path d="M 4.719941316233204,8.817267818645718 L 4.436729601785224,9.2383648455519" fill="none" instance-id="-1" semantic-id="2" stroke="rgb(0,178,178)" stroke-width="0.1"/>
  <path d="M 4.436729601785224,9.2383648455519 L 4.163775862448041,9.666182373771193" fill="none" instance-id="-1" semantic-id="2" stroke="rgb(0,178,178)" stroke-width="0.1"/>
  <path d="M 4.163775862448041,9.666182373771193 L 3.9012394955189507,10.100470569914592" fill="none" instance-id="-1" semantic-id="2" stroke="rgb(0,178,178)" stroke-width="0.1"/>
  <path d="M 3.9012394955189507,10.100470569914592 L 3.649273814843106,10.54097582190525" fill="none" instance-id="-1" semantic-id="2" stroke="rgb(0,178,178)" stroke-width="0.1"/>
  <path d="M 3.649273814843106,10.54097582190525 L 3.4080259612825756,10.98744088708085" fill="none" instance-id="-1" semantic-id="2" stroke="rgb(0,178,178)" stroke-width="0.1"/>
  <path d="M 3.4080259612825756,10.98744088708085 L 3.177636816790198,11.439605042415906" fill="none" instance-id="-1" semantic-id="2" stroke="rgb(0,178,178)" stroke-width="0.1"/>
  <path d="M 3.177636816790198,11.439605042415906 L 2.958240922138529,11.897204236776872" fill="none" instance-id="-1" semantic-id="2" stroke="rgb(0,178,178)" stroke-width="0.1"/>
  <path d="M 2.958240922138529,11.897204236776872 L 2.749966398351752,12.359971245120363" fill="none" instance-id="-1" semantic-id="2" stroke="rgb(0,178,178)" stroke-width="0.1"/>
  <path d="M 2.749966398351752,12.359971245120363 L 2.552934871886677,12.82763582454524" fill="none" instance-id="-1" semantic-id="2" stroke="rgb(0,178,178)" stroke-width="0.1"/>
  <path d="M 2.552934871886677,12.82763582454524 L 2.367261403606271,13.299924872106743" fill="none" instance-id="-1" semantic-id="2" stroke="rgb(0,178,178)" stroke-width="0.1"/>
  <path d="M 2.367261403606271,13.299924872106743 L 2.1930544215873766,13.776562584300876" fill="none" instance-id="-1" semantic-id="2" stroke="rgb(0,178,178)" stroke-width="0.1"/>
  <path d="M 2.1930544215873766,13.776562584300876 L 2.030415657801754,14.257270618126086" fill="none" instance-id="-1" semantic-id="2" stroke="rgb(0,178,178)" stroke-width="0.1"/>
  <path d="M 2.030415657801754,14.257270618126086 L 1.8794400887074971,14.741768253627498" fill="none" instance-id="-1" semantic-id="2" stroke="rgb(0,178,178)" stroke-width="0.1"/>
  <path d="M 1.8794400887074971,14.741768253627498 L 1.7402158797854028,15.229772557829648" fill="none" instance-id="-1" semantic-id="2" stroke="rgb(0,178,178)" stroke-width="0.1"/>
  <path d="M 1.7402158797854028,15.229772557829648 L 1.6128243340528883,15.72099854996128" fill="none" instance-id="-1" semantic-id="2" stroke="rgb(0,178,178)" stroke-width="0.1"/>
  <path d="M 1.6128243340528883,15.72099854996128 L 1.4973398445852695,16.215159367876055" fill="none" instance-id="-1" semantic-id="2" stroke="rgb(0,178,178)" stroke-width="0.1"/>
  <path d="M 1.4973398445852695,16.215159367876055 L 1.3938298510722973,16.711966435572094" fill="none" instance-id="-1" semantic-id="2" stroke="rgb(0,178,178)" stroke-width="0.1"/>
  <path d="M 1.3938298510722973,16.711966435572094 L 1.3023548004353103,17.21112963171217" fill="none" instance-id="-1" semantic-id="2" stroke="rgb(0,178,178)" stroke-width="0.1"/>
  <path d="M 1.3023548004353103,17.21112963171217 L 1.222968111527905,17.71235745904633" fill="none" instance-id="-1" semantic-id="2" stroke="rgb(0,178,178)" stroke-width="0.1"/>
  <path d="M 1.222968111527905,17.71235745904633 L 1.1557161439408503,18.215357214638175" fill="none" instance-id="-1" semantic-id="2" stroke="rgb(0,178,178)" stroke-width="0.1"/>
  <path d="M 1.1557161439408503,18.215357214638175 L 1.1006381709293578,18.719835160795157" fill="none" instance-id="-1" semantic-id="2" stroke="rgb(0,178,178)" stroke-width="0.1"/>
  <path d="M 1.1006381709293578,18.719835160795157 L 1.0577663564786661,19.22549669660296" fill="none" instance-id="-1" semantic-id="2" stroke="rgb(0,178,178)" stroke-width="0.1"/>
  <path d="M 1.0577663564786661,19.22549669660296 L 1.0271257365211284,19.73204652996432" fill="none" instance-id="-1" semantic-id="2" stroke="rgb(0,178,178)" stroke-width="0.1"/>
  <path d="M 1.0271257365211284,19.73204652996432 L 1.0087342043159282,20.239188850041188" fill="none" instance-id="-1" semantic-id="2" stroke="rgb(0,178,178)" stroke-width="0.1"/>
  <path d="M 1.0087342043159282,20.239188850041188 L 1.0026024999999805,20.74662749999999" fill="none" instance-id="-1" semantic-id="2" stroke="rgb(0,178,178)" stroke-width="0.1"/>
  <path d="M 1.0026024999999805,20.74662749999999 L 1.0026024999999805,100.0" fill="none" instance-id="-1" semantic-id="2" stroke="rgb(0,178,178)" stroke-width="0.1"/>
  <path d="M 35.50260249999998,0.0 L 35.50260249999998,8.747627499999993" fill="none" stroke="rgb(0,178,178)" stroke-width="0.1"/>
  <path d="M 35.50260249999998,8.747627499999993 L 22.00260249999998,8.747627499999993" fill="none" stroke="rgb(0,178,178)" stroke-width="0.1"/>
  <path d="M 22.00260249999998,8.747627499999993 A 12.0,12.0 0.0 0,0 10.00260249999998,20.747627499999993" fill="none" stroke="rgb(0,178,178)" stroke-width="0.1"/>
  <path d="M 10.00260249999998,20.747627499999993 L 10.00260249999998,100.0" fill="none" stroke="rgb(0,178,178)" stroke-width="0.1"/>
  <path d="M 15.521251266501409,0.1420915684003745 L 15.040007785258453,0.29970341318565374" fill="none" instance-id="-1" semantic-id="2" stroke="rgb(0,0,178)" stroke-width="0.1"/>
  <path d="M 15.040007785258453,0.29970341318565374 L 14.562591395829472,0.4685535626082782" fill="none" instance-id="-1" semantic-id="2" stroke="rgb(0,0,178)" stroke-width="0.1"/>
  <path d="M 14.562591395829472,0.4685535626082782 L 14.089264502026424,0.6485492110507067" fill="none" instance-id="-1" semantic-id="2" stroke="rgb(0,0,178)" stroke-width="0.1"/>
  <path d="M 14.089264502026424,0.6485492110507067 L 13.620287259939438,0.83959142696105" fill="none" instance-id="-1" semantic-id="2" stroke="rgb(0,0,178)" stroke-width="0.1"/>
  <path d="M 13.620287259939438,0.83959142696105 L 13.155917434946439,1.0415752072292435" fill="none" instance-id="-1" semantic-id="2" stroke="rgb(0,0,178)" stroke-width="0.1"/>
  <path d="M 13.155917434946439,1.0415752072292435 L 12.696410260036778,1.254389534900099" fill="none" instance-id="-1" semantic-id="2" stroke="rgb(0,0,178)" stroke-width="0.1"/>
  <path d="M 12.696410260036778,1.254389534900099 L 12.24201829552677,1.4779174401919875" fill="none" instance-id="-1" semantic-id="2" stroke="rgb(0,0,178)" stroke-width="0.1"/>
  <path d="M 12.24201829552677,1.4779174401919875 L 11.792991290244153,1.71203606478727" fill="none" instance-id="-1" semantic-id="2" stroke="rgb(0,0,178)" stroke-width="0.1"/>
  <path d="M 11.792991290244153,1.71203606478727 L 11.349576044257972,1.9566167293592258" fill="none" instance-id="-1" semantic-id="2" stroke="rgb(0,0,178)" stroke-width="0.1"/>
  <path d="M 11.349576044257972,1.9566167293592258 L 10.912016273229,2.2115250042985366" fill="none" instance-id="-1" semantic-id="2" stroke="rgb(0,0,178)" stroke-width="0.1"/>
  <path d="M 10.912016273229,2.2115250042985366 L 10.480552474455685,2.4766207836001968" fill="none" instance-id="-1" semantic-id="2" stroke="rgb(0,0,178)" stroke-width="0.1"/>
  <path d="M 10.480552474455685,2.4766207836001968 L 10.055421794688812,2.7517583618704293" fill="none" instance-id="-1" semantic-id="2" stroke="rgb(0,0,178)" stroke-width="0.1"/>
  <path d="M 10.055421794688812,2.7517583618704293 L 9.636857899787813,3.0367865144111192" fill="none" instance-id="-1" semantic-id="2" stroke="rgb(0,0,178)" stroke-width="0.1"/>
  <path d="M 9.636857899787813,3.0367865144111192 L 9.225090846290371,3.3315485803380085" fill="none" instance-id="-1" semantic-id="2" stroke="rgb(0,0,178)" stroke-width="0.1"/>
  <path d="M 9.225090846290371,3.3315485803380085 L 8.820346954965657,3.6358825486865527" fill="none" instance-id="-1" semantic-id="2" stroke="rgb(0,0,178)" stroke-width="0.1"/>
  <path d="M 8.820346954965657,3.6358825486865527 L 8.42284868642102,3.9496211474586573" fill="none" instance-id="-1" semantic-id="2" stroke="rgb(0,0,178)" stroke-width="0.1"/>
  <path d="M 8.42284868642102,3.9496211474586573 L 8.032814518830307,4.272591935560712" fill="none" instance-id="-1" semantic-id="2" stroke="rgb(0,0,178)" stroke-width="0.1"/>
  <path d="M 8.032814518830307,4.272591935560712 L 7.650458827850969,4.604617397583098" fill="none" instance-id="-1" semantic-id="2" stroke="rgb(0,0,178)" stroke-width="0.1"/>
  <path d="M 7.650458827850969,4.604617397583098 L 7.275991768796203,4.945515041368338" fill="none" instance-id="-1" semantic-id="2" stroke="rgb(0,0,178)" stroke-width="0.1"/>
  <path d="M 7.275991768796203,4.945515041368338 L 6.909619161126599,5.295097498314931" fill="none" instance-id="-1" semantic-id="2" stroke="rgb(0,0,178)" stroke-width="0.1"/>
  <path d="M 6.909619161126599,5.295097498314931 L 6.551542375324978,5.653172626361339" fill="none" instance-id="-1" semantic-id="2" stroke="rgb(0,0,178)" stroke-width="0.1"/>
  <path d="M 6.551542375324978,5.653172626361339 L 6.201958222216568,6.019543615593449" fill="none" instance-id="-1" semantic-id="2" stroke="rgb(0,0,178)" stroke-width="0.1"/>
  <path d="M 6.201958222216568,6.019543615593449 L 5.861058844795203,6.394009096418046" fill="none" instance-id="-1" semantic-id="2" stroke="rgb(0,0,178)" stroke-width="0.1"/>
  <path d="M 5.861058844795203,6.394009096418046 L 5.529031612615256,6.7763632502419" fill="none" instance-id="-1" semantic-id="2" stroke="rgb(0,0,178)" stroke-width="0.1"/>
  <path d="M 5.529031612615256,6.7763632502419 L 5.206059018807096,7.166395922596763" fill="none" instance-id="-1" semantic-id="2" stroke="rgb(0,0,178)" stroke-width="0.1"/>
  <path d="M 5.206059018807096,7.166395922596763 L 4.892318579772855,7.563892738647013" fill="none" instance-id="-1" semantic-id="2" stroke="rgb(0,0,178)" stroke-width="0.1"/>
  <path d="M 4.892318579772855,7.563892738647013 L 4.587982737617587,7.968635221017081" fill="none" instance-id="-1" semantic-id="2" stroke="rgb(0,0,178)" stroke-width="0.1"/>
  <path d="M 4.587982737617587,7.968635221017081 L 4.293218765369325,8.380400909874083" fill="none" instance-id="-1" semantic-id="2" stroke="rgb(0,0,178)" stroke-width="0.1"/>
  <path d="M 4.293218765369325,8.380400909874083 L 4.008188675040358,8.798963485198868" fill="none" instance-id="-1" semantic-id="2" stroke="rgb(0,0,178)" stroke-width="0.1"/>
  <path d="M 4.008188675040358,8.798963485198868 L 3.733049128580049,9.224092891179055" fill="none" instance-id="-1" semantic-id="2" stroke="rgb(0,0,178)" stroke-width="0.1"/>
  <path d="M 3.733049128580049,9.224092891179055 L 3.4679513517682636,9.655555462655315" fill="none" instance-id="-1" semantic-id="2" stroke="rgb(0,0,178)" stroke-width="0.1"/>
  <path d="M 3.4679513517682636,9.655555462655315 L 3.2130410510966882,10.093114053551403" fill="none" instance-id="-1" semantic-id="2" stroke="rgb(0,0,178)" stroke-width="0.1"/>
  <path d="M 3.2130410510966882,10.093114053551403 L 2.968458333683749,10.536528167217568" fill="none" instance-id="-1" semantic-id="2" stroke="rgb(0,0,178)" stroke-width="0.1"/>
  <path d="M 2.968458333683749,10.536528167217568 L 2.7343376302670634,10.985554088615373" fill="none" instance-id="-1" semantic-id="2" stroke="rgb(0,0,178)" stroke-width="0.1"/>
  <path d="M 2.7343376302670634,10.985554088615373 L 2.5108076213159336,11.439945018271487" fill="none" instance-id="-1" semantic-id="2" stroke="rgb(0,0,178)" stroke-width="0.1"/>
  <path d="M 2.5108076213159336,11.439945018271487 L 2.297991166304243,11.899451207926973" fill="none" instance-id="-1" semantic-id="2" stroke="rgb(0,0,178)" stroke-width="0.1"/>
  <path d="M 2.297991166304243,11.899451207926973 L 2.09600523618289,12.363820097807093" fill="none" instance-id="-1" semantic-id="2" stroke="rgb(0,0,178)" stroke-width="0.1"/>
  <path d="M 2.09600523618289,12.363820097807093 L 1.9049608490886811,12.83279645543638" fill="none" instance-id="-1" semantic-id="2" stroke="rgb(0,0,178)" stroke-width="0.1"/>
  <path d="M 1.9049608490886811,12.83279645543638 L 1.7249630093250516,13.306122515923107" fill="none" instance-id="-1" semantic-id="2" stroke="rgb(0,0,178)" stroke-width="0.1"/>
  <path d="M 1.7249630093250516,13.306122515923107 L 1.5561106496482822,13.783538123635111" fill="none" instance-id="-1" semantic-id="2" stroke="rgb(0,0,178)" stroke-width="0.1"/>
  <path d="M 1.5561106496482822,13.783538123635111 L 1.3984965768907784,14.264780875190127" fill="none" instance-id="-1" semantic-id="2" stroke="rgb(0,0,178)" stroke-width="0.1"/>
  <path d="M 1.3984965768907784,14.264780875190127 L 1.2522074209513505,14.749586263681238" fill="none" instance-id="-1" semantic-id="2" stroke="rgb(0,0,178)" stroke-width="0.1"/>
  <path d="M 1.2522074209513505,14.749586263681238 L 1.1173235871805929,15.237687824058526" fill="none" instance-id="-1" semantic-id="2" stroke="rgb(0,0,178)" stroke-width="0.1"/>
  <path d="M 1.1173235871805929,15.237687824058526 L 0.9939192121874072,15.728817279587304" fill="none" instance-id="-1" semantic-id="2" stroke="rgb(0,0,178)" stroke-width="0.1"/>
  <path d="M 0.9939192121874072,15.728817279587304 L 0.8820621230911456,16.22270468930165" fill="none" instance-id="-1" semantic-id="2" stroke="rgb(0,0,178)" stroke-width="0.1"/>
  <path d="M 0.8820621230911456,16.22270468930165 L 0.7818138002414798,16.71907859637301" fill="none" instance-id="-1" semantic-id="2" stroke="rgb(0,0,178)" stroke-width="0.1"/>
  <path d="M 0.7818138002414798,16.71907859637301 L 0.6932293434268644,17.21766617731174" fill="none" instance-id="-1" semantic-id="2" stroke="rgb(0,0,178)" stroke-width="0.1"/>
  <path d="M 0.6932293434268644,17.21766617731174 L 0.6163574415898267,17.718193391919897" fill="none" instance-id="-1" semantic-id="2" stroke="rgb(0,0,178)" stroke-width="0.1"/>
  <path d="M 0.6163574415898267,17.718193391919897 L 0.5512403460659456,18.220385133912913" fill="none" instance-id="-1" semantic-id="2" stroke="rgb(0,0,178)" stroke-width="0.1"/>
  <path d="M 0.5512403460659456,18.220385133912913 L 0.49791384736109023,18.723965382126977" fill="none" instance-id="-1" semantic-id="2" stroke="rgb(0,0,178)" stroke-width="0.1"/>
  <path d="M 0.49791384736109023,18.723965382126977 L 0.4564072554797889,19.22865735222939" fill="none" instance-id="-1" semantic-id="2" stroke="rgb(0,0,178)" stroke-width="0.1"/>
  <path d="M 0.4564072554797889,19.22865735222939 L 0.4267433838154915,19.734183648848415" fill="none" instance-id="-1" semantic-id="2" stroke="rgb(0,0,178)" stroke-width="0.1"/>
  <path d="M 0.4267433838154915,19.734183648848415 L 0.4089385366115721,20.240266418038885" fill="none" instance-id="-1" semantic-id="2" stroke="rgb(0,0,178)" stroke-width="0.1"/>
  <path d="M 0.4089385366115721,20.240266418038885 L 0.40300249999997817,20.74662749999999" fill="none" instance-id="-1" semantic-id="2" stroke="rgb(0,0,178)" stroke-width="0.1"/>
  <path d="M 0.40300249999997817,20.74662749999999 L 0.40300249999997817,100.0" fill="none" instance-id="-1" semantic-id="2" stroke="rgb(0,0,178)" stroke-width="0.1"/>
 </g>
 <g id="layerS-看线" inkscape:groupmode="layer" inkscape:label="S-看线">
  <path d="M 22.00260249999998,20.747627499999993 L 5.979702499999981,2.879627499999998" fill="none" stroke="rgb(0,178,178)" stroke-width="0.1"/>
  <path d="M 7.800983831721084,0.17303085265858442 L 7.389551759752756,0.4631815360856706" fill="none" stroke="rgb(0,0,178)" stroke-width="0.1"/>
  <path d="M 7.389551759752756,0.4631815360856706 L 6.984045894050503,0.7615584149124714" fill="none" stroke="rgb(0,0,178)" stroke-width="0.1"/>
  <path d="M 6.984045894050503,0.7615584149124714 L 6.5846306842864095,1.0680404847737321" fill="none" stroke="rgb(0,0,178)" stroke-width="0.1"/>
  <path d="M 6.5846306842864095,1.0680404847737321 L 6.191468110115551,1.3825034543086332" fill="none" stroke="rgb(0,0,178)" stroke-width="0.1"/>
  <path d="M 6.191468110115551,1.3825034543086332 L 5.80471761548651,1.70481979556601" fill="none" stroke="rgb(0,0,178)" stroke-width="0.1"/>
  <path d="M 5.80471761548651,1.70481979556601 L 5.424536043980098,2.034858795722471" fill="none" stroke="rgb(0,0,178)" stroke-width="0.1"/>
  <path d="M 5.424536043980098,2.034858795722471 L 5.0510775752027115,2.3724866100917694" fill="none" stroke="rgb(0,0,178)" stroke-width="0.1"/>
  <path d="M 5.0510775752027115,2.3724866100917694 L 4.684493662259996,2.7175663164046284" fill="none" stroke="rgb(0,0,178)" stroke-width="0.1"/>
  <path d="M 4.684493662259996,2.7175663164046284 L 4.324932970336292,3.0699579703363042" fill="none" stroke="rgb(0,0,178)" stroke-width="0.1"/>
  <path d="M 4.324932970336292,3.0699579703363042 L 3.97254131640463,3.4295186622599942" fill="none" stroke="rgb(0,0,178)" stroke-width="0.1"/>
  <path d="M 3.97254131640463,3.4295186622599942 L 3.627461610091764,3.796102575202724" fill="none" stroke="rgb(0,0,178)" stroke-width="0.1"/>
  <path d="M 3.627461610091764,3.796102575202724 L 3.2898337957224584,4.16956104398011" fill="none" stroke="rgb(0,0,178)" stroke-width="0.1"/>
  <path d="M 3.2898337957224584,4.16956104398011 L 2.9597947955659976,4.549742615486537" fill="none" stroke="rgb(0,0,178)" stroke-width="0.1"/>
  <path d="M 2.9597947955659976,4.549742615486537 L 2.6374784543086207,4.936493110115549" fill="none" stroke="rgb(0,0,178)" stroke-width="0.1"/>
  <path d="M 2.6374784543086207,4.936493110115549 L 2.3230154847737268,5.329655684286422" fill="none" stroke="rgb(0,0,178)" stroke-width="0.1"/>
  <path d="M 2.3230154847737268,5.329655684286422 L 2.0165334149124448,5.729070894050523" fill="none" stroke="rgb(0,0,178)" stroke-width="0.1"/>
  <path d="M 2.0165334149124448,5.729070894050523 L 1.718156536085658,6.134576759752775" fill="none" stroke="rgb(0,0,178)" stroke-width="0.1"/>
  <path d="M 1.718156536085658,6.134576759752775 L 1.428005852658572,6.54600883172111" fill="none" stroke="rgb(0,0,178)" stroke-width="0.1"/>
  <path d="M 1.428005852658572,6.54600883172111 L 1.1461990329284433,6.96320025695772" fill="none" stroke="rgb(0,0,178)" stroke-width="0.1"/>
  <path d="M 1.1461990329284433,6.96320025695772 L 0.8728503614051135,7.385981846804981" fill="none" stroke="rgb(0,0,178)" stroke-width="0.1"/>
  <path d="M 0.8728503614051135,7.385981846804981 L 0.608070692463798,7.814182145558561" fill="none" stroke="rgb(0,0,178)" stroke-width="0.1"/>
  <path d="M 0.608070692463798,7.814182145558561 L 0.3519674053890114,8.247627499999993" fill="none" stroke="rgb(0,0,178)" stroke-width="0.1"/>
  <path d="M 0.3519674053890114,8.247627499999993 L 0.10464436082778406,8.686142129820155" fill="none" stroke="rgb(0,0,178)" stroke-width="0.1"/>
  <path d="M 74.60270249999998,77.34762749999999 L 74.60270249999998,79.6476275" fill="none" stroke="rgb(0,178,178)" stroke-width="0.1"/>
  <path d="M 74.60270249999998,79.6476275 L 78.40270249999998,79.6476275" fill="none" stroke="rgb(0,178,178)" stroke-width="0.1"/>
  <path d="M 78.40270249999998,79.6476275 L 78.40270249999998,77.34762749999999" fill="none" stroke="rgb(0,178,178)" stroke-width="0.1"/>
  <path d="M 78.40270249999998,77.34762749999999 L 74.60270249999998,77.34762749999999" fill="none" stroke="rgb(0,178,178)" stroke-width="0.1"/>
  <path d="M 74.60270249999998,96.1476275 L 74.60270249999998,93.84762749999999" fill="none" stroke="rgb(0,178,178)" stroke-width="0.1"/>
  <path d="M 74.60270249999998,93.84762749999999 L 78.40270249999998,93.84762749999999" fill="none" stroke="rgb(0,178,178)" stroke-width="0.1"/>
  <path d="M 78.40270249999998,93.84762749999999 L 78.40270249999998,96.1476275" fill="none" stroke="rgb(0,178,178)" stroke-width="0.1"/>
  <path d="M 78.40270249999998,96.1476275 L 74.60270249999998,96.1476275" fill="none" stroke="rgb(0,178,178)" stroke-width="0.1"/>
  <path d="M 74.60270249999998,33.59762749999999 L 74.60270249999998,35.8976275" fill="none" stroke="rgb(0,0,0)" stroke-width="0.1"/>
  <path d="M 74.60270249999998,35.8976275 L 78.40270249999998,35.8976275" fill="none" stroke="rgb(0,0,0)" stroke-width="0.1"/>
  <path d="M 78.40270249999998,35.8976275 L 78.40270249999998,33.59762749999999" fill="none" stroke="rgb(0,0,0)" stroke-width="0.1"/>
  <path d="M 78.40270249999998,33.59762749999999 L 74.60270249999998,33.59762749999999" fill="none" stroke="rgb(0,0,0)" stroke-width="0.1"/>
  <path d="M 74.50270249999998,77.2476275 L 74.50270249999998,79.7476275" fill="none" stroke="rgb(0,178,178)" stroke-width="0.1"/>
  <path d="M 74.50270249999998,79.7476275 L 78.50270249999997,79.7476275" fill="none" stroke="rgb(0,178,178)" stroke-width="0.1"/>
  <path d="M 78.50270249999997,79.7476275 L 78.50270249999997,77.2476275" fill="none" stroke="rgb(0,178,178)" stroke-width="0.1"/>
  <path d="M 78.50270249999997,77.2476275 L 74.50270249999998,77.2476275" fill="none" stroke="rgb(0,178,178)" stroke-width="0.1"/>
  <path d="M 74.50270249999998,96.2476275 L 74.50270249999998,93.7476275" fill="none" stroke="rgb(0,178,178)" stroke-width="0.1"/>
  <path d="M 74.50270249999998,93.7476275 L 78.50270249999997,93.7476275" fill="none" stroke="rgb(0,178,178)" stroke-width="0.1"/>
  <path d="M 78.50270249999997,93.7476275 L 78.50270249999997,96.2476275" fill="none" stroke="rgb(0,178,178)" stroke-width="0.1"/>
  <path d="M 78.50270249999997,96.2476275 L 74.50270249999998,96.2476275" fill="none" stroke="rgb(0,178,178)" stroke-width="0.1"/>
  <path d="M 74.50270249999998,33.49762749999999 L 74.50270249999998,35.99762749999999" fill="none" stroke="rgb(0,0,0)" stroke-width="0.1"/>
  <path d="M 74.50270249999998,35.99762749999999 L 78.50270249999997,35.99762749999999" fill="none" stroke="rgb(0,0,0)" stroke-width="0.1"/>
  <path d="M 78.50270249999997,35.99762749999999 L 78.50270249999997,33.49762749999999" fill="none" stroke="rgb(0,0,0)" stroke-width="0.1"/>
  <path d="M 78.50270249999997,33.49762749999999 L 74.50270249999998,33.49762749999999" fill="none" stroke="rgb(0,0,0)" stroke-width="0.1"/>
  <path d="M 6.0026024999999805,59.74762749999999 L 6.0026024999999805,49.74762749999999" fill="none" instance-id="4" semantic-id="21" stroke="rgb(89,89,89)" stroke-width="0.1"/>
  <path d="M 6.0026024999999805,49.74762749999999 L 2.0026024999999805,49.74762749999999" fill="none" instance-id="4" semantic-id="21" stroke="rgb(89,89,89)" stroke-width="0.1"/>
  <path d="M 2.0026024999999805,49.74762749999999 L 2.0026024999999805,59.74762749999999" fill="none" instance-id="4" semantic-id="21" stroke="rgb(89,89,89)" stroke-width="0.1"/>
  <path d="M 2.0026024999999805,59.74762749999999 L 6.0026024999999805,59.74762749999999" fill="none" instance-id="4" semantic-id="21" stroke="rgb(89,89,89)" stroke-width="0.1"/>
  <path d="M 6.0026024999999805,59.74762749999999 L 2.0026024999999805,49.74762749999999" fill="none" instance-id="4" semantic-id="21" stroke="rgb(89,89,89)" stroke-width="0.1"/>
  <path d="M 6.0026024999999805,81.7476275 L 6.0026024999999805,71.7476275" fill="none" instance-id="3" semantic-id="21" stroke="rgb(89,89,89)" stroke-width="0.1"/>
  <path d="M 6.0026024999999805,71.7476275 L 2.0026024999999805,71.7476275" fill="none" instance-id="3" semantic-id="21" stroke="rgb(89,89,89)" stroke-width="0.1"/>
  <path d="M 2.0026024999999805,71.7476275 L 2.0026024999999805,81.7476275" fill="none" instance-id="3" semantic-id="21" stroke="rgb(89,89,89)" stroke-width="0.1"/>
  <path d="M 2.0026024999999805,81.7476275 L 6.0026024999999805,81.7476275" fill="none" instance-id="3" semantic-id="21" stroke="rgb(89,89,89)" stroke-width="0.1"/>
  <path d="M 6.0026024999999805,81.7476275 L 2.0026024999999805,71.7476275" fill="none" instance-id="3" semantic-id="21" stroke="rgb(89,89,89)" stroke-width="0.1"/>
  <path d="M 6.0026024999999805,41.49762749999999 L 6.0026024999999805,31.497627499999993" fill="none" instance-id="5" semantic-id="21" stroke="rgb(89,89,89)" stroke-width="0.1"/>
  <path d="M 6.0026024999999805,31.497627499999993 L 2.0026024999999805,31.497627499999993" fill="none" instance-id="5" semantic-id="21" stroke="rgb(89,89,89)" stroke-width="0.1"/>
  <path d="M 2.0026024999999805,31.497627499999993 L 2.0026024999999805,41.49762749999999" fill="none" instance-id="5" semantic-id="21" stroke="rgb(89,89,89)" stroke-width="0.1"/>
  <path d="M 2.0026024999999805,41.49762749999999 L 6.0026024999999805,41.49762749999999" fill="none" instance-id="5" semantic-id="21" stroke="rgb(89,89,89)" stroke-width="0.1"/>
  <path d="M 6.0026024999999805,41.49762749999999 L 2.0026024999999805,31.497627499999993" fill="none" instance-id="5" semantic-id="21" stroke="rgb(89,89,89)" stroke-width="0.1"/>
  <path d="M 8.002502499999977,21.747627499999993 L 8.002502499999977,11.747627499999993" fill="none" instance-id="6" semantic-id="21" stroke="rgb(89,89,89)" stroke-width="0.1"/>
  <path d="M 8.002502499999977,11.747627499999993 L 4.002502499999977,11.747627499999993" fill="none" instance-id="6" semantic-id="21" stroke="rgb(89,89,89)" stroke-width="0.1"/>
  <path d="M 4.002502499999977,11.747627499999993 L 4.002502499999977,21.747627499999993" fill="none" instance-id="6" semantic-id="21" stroke="rgb(89,89,89)" stroke-width="0.1"/>
  <path d="M 4.002502499999977,21.747627499999993 L 8.002502499999977,21.747627499999993" fill="none" instance-id="6" semantic-id="21" stroke="rgb(89,89,89)" stroke-width="0.1"/>
  <path d="M 8.002502499999977,21.747627499999993 L 4.002502499999977,11.747627499999993" fill="none" instance-id="6" semantic-id="21" stroke="rgb(89,89,89)" stroke-width="0.1"/>
  <path d="M 6.0026024999999805,100.0 L 6.0026024999999805,91.7476275" fill="none" instance-id="2" semantic-id="21" stroke="rgb(89,89,89)" stroke-width="0.1"/>
  <path d="M 6.0026024999999805,91.7476275 L 2.0026024999999805,91.7476275" fill="none" instance-id="2" semantic-id="21" stroke="rgb(89,89,89)" stroke-width="0.1"/>
  <path d="M 2.0026024999999805,91.7476275 L 2.0026024999999805,100.0" fill="none" instance-id="2" semantic-id="21" stroke="rgb(89,89,89)" stroke-width="0.1"/>
  <path d="M 5.303551499999983,100.0 L 2.0026024999999805,91.7476275" fill="none" instance-id="2" semantic-id="21" stroke="rgb(89,89,89)" stroke-width="0.1"/>
  <path d="M 6.0026024999999805,100.0 L 6.0026024999999805,91.7476275" fill="none" instance-id="2" semantic-id="21" stroke="rgb(89,89,89)" stroke-width="0.1"/>
  <path d="M 6.0026024999999805,91.7476275 L 2.0026024999999805,91.7476275" fill="none" instance-id="2" semantic-id="21" stroke="rgb(89,89,89)" stroke-width="0.1"/>
  <path d="M 2.0026024999999805,91.7476275 L 2.0026024999999805,100.0" fill="none" instance-id="2" semantic-id="21" stroke="rgb(89,89,89)" stroke-width="0.1"/>
  <path d="M 5.303551499999983,100.0 L 2.0026024999999805,91.7476275" fill="none" instance-id="2" semantic-id="21" stroke="rgb(89,89,89)" stroke-width="0.1"/>
  <circle cx="74.00270249999998" cy="4.247627499999993" fill="none" r="0.4" stroke="rgb(0,178,178)" stroke-width="0.1"/>
  <circle cx="5.0026024999999805" cy="83.7476275" fill="none" r="0.4" stroke="rgb(0,178,178)" stroke-width="0.1"/>
  <circle cx="5.0026024999999805" cy="89.7476275" fill="none" r="0.4" stroke="rgb(0,178,178)" stroke-width="0.1"/>
 </g>
 <g id="layerS-结构钢柱" inkscape:groupmode="layer" inkscape:label="S-结构钢柱">
  <path d="M 10.00260249999998,43.48362750000001 L 10.738402499999978,42.74762749999999" fill="none" stroke="rgb(89,89,89)" stroke-width="0.1"/>
  <path d="M 11.22860249999998,46.74762749999999 L 15.22860249999998,42.74762749999999" fill="none" stroke="rgb(89,89,89)" stroke-width="0.1"/>
  <path d="M 15.718702499999978,46.74762749999999 L 19.718702499999978,42.74762749999999" fill="none" stroke="rgb(89,89,89)" stroke-width="0.1"/>
  <path d="M 20.20890249999998,46.74762749999999 L 24.208802499999976,42.74762749999999" fill="none" stroke="rgb(89,89,89)" stroke-width="0.1"/>
  <path d="M 24.699002499999978,46.74762749999999 L 28.698902499999974,42.74762749999999" fill="none" stroke="rgb(89,89,89)" stroke-width="0.1"/>
  <path d="M 29.189102499999976,46.74762749999999 L 33.189102499999976,42.74762749999999" fill="none" stroke="rgb(89,89,89)" stroke-width="0.1"/>
  <path d="M 33.679202499999974,46.74762749999999 L 37.679202499999974,42.74762749999999" fill="none" stroke="rgb(89,89,89)" stroke-width="0.1"/>
  <path d="M 38.169402499999975,46.74762749999999 L 42.16930249999997,42.74762749999999" fill="none" stroke="rgb(89,89,89)" stroke-width="0.1"/>
  <path d="M 42.659502499999974,46.74762749999999 L 46.659502499999974,42.74762749999999" fill="none" stroke="rgb(89,89,89)" stroke-width="0.1"/>
  <path d="M 47.14960249999997,46.74762749999999 L 51.149702499999975,42.74762749999999" fill="none" stroke="rgb(89,89,89)" stroke-width="0.1"/>
  <path d="M 51.639702499999984,46.74762749999999 L 55.639702499999984,42.74762749999999" fill="none" stroke="rgb(89,89,89)" stroke-width="0.1"/>
  <path d="M 56.12970249999998,46.74762749999999 L 60.12970249999998,42.74762749999999" fill="none" stroke="rgb(89,89,89)" stroke-width="0.1"/>
  <path d="M 60.619702499999974,46.74762749999999 L 64.61970249999997,42.74762749999999" fill="none" stroke="rgb(89,89,89)" stroke-width="0.1"/>
  <path d="M 65.10970249999998,46.74762749999999 L 69.10970249999998,42.74762749999999" fill="none" stroke="rgb(89,89,89)" stroke-width="0.1"/>
  <path d="M 69.60070249999998,46.74762749999999 L 73.60070249999998,42.74762749999999" fill="none" stroke="rgb(89,89,89)" stroke-width="0.1"/>
  <path d="M 74.09070249999998,46.74762749999999 L 76.00270249999998,44.83562749999999" fill="none" stroke="rgb(89,89,89)" stroke-width="0.1"/>
  <path d="M 4.5026024999999805,47.49762749999999 L 10.00260249999998,47.49762749999999" fill="none" stroke="rgb(178,178,0)" stroke-width="0.1"/>
  <path d="M 10.00260249999998,47.49762749999999 L 10.00260249999998,41.99762749999999" fill="none" stroke="rgb(178,178,0)" stroke-width="0.1"/>
  <path d="M 10.00260249999998,41.99762749999999 L 4.5026024999999805,41.99762749999999" fill="none" stroke="rgb(178,178,0)" stroke-width="0.1"/>
  <path d="M 4.5026024999999805,41.99762749999999 L 4.5026024999999805,47.49762749999999" fill="none" stroke="rgb(178,178,0)" stroke-width="0.1"/>
  <path d="M 4.7526024999999805,47.24762749999999 L 9.75260249999998,47.24762749999999" fill="none" stroke="rgb(178,178,0)" stroke-width="0.1"/>
  <path d="M 9.75260249999998,47.24762749999999 L 9.75260249999998,42.24762749999999" fill="none" stroke="rgb(178,178,0)" stroke-width="0.1"/>
  <path d="M 9.75260249999998,42.24762749999999 L 4.7526024999999805,42.24762749999999" fill="none" stroke="rgb(178,178,0)" stroke-width="0.1"/>
  <path d="M 4.7526024999999805,42.24762749999999 L 4.7526024999999805,47.24762749999999" fill="none" stroke="rgb(178,178,0)" stroke-width="0.1"/>
  <path d="M 76.00270249999998,47.49762749999999 L 81.50270249999997,47.49762749999999" fill="none" stroke="rgb(178,178,0)" stroke-width="0.1"/>
  <path d="M 81.50270249999997,47.49762749999999 L 81.50270249999997,41.99762749999999" fill="none" stroke="rgb(178,178,0)" stroke-width="0.1"/>
  <path d="M 81.50270249999997,41.99762749999999 L 76.00270249999998,41.99762749999999" fill="none" stroke="rgb(178,178,0)" stroke-width="0.1"/>
  <path d="M 76.00270249999998,41.99762749999999 L 76.00270249999998,47.49762749999999" fill="none" stroke="rgb(178,178,0)" stroke-width="0.1"/>
  <path d="M 76.25270249999998,47.24762749999999 L 81.25270249999997,47.24762749999999" fill="none" stroke="rgb(178,178,0)" stroke-width="0.1"/>
  <path d="M 81.25270249999997,47.24762749999999 L 81.25270249999997,42.24762749999999" fill="none" stroke="rgb(178,178,0)" stroke-width="0.1"/>
  <path d="M 81.25270249999997,42.24762749999999 L 76.25270249999998,42.24762749999999" fill="none" stroke="rgb(178,178,0)" stroke-width="0.1"/>
  <path d="M 76.25270249999998,42.24762749999999 L 76.25270249999998,47.24762749999999" fill="none" stroke="rgb(178,178,0)" stroke-width="0.1"/>
  <path d="M 76.00270249999998,8.747627499999993 L 81.50270249999997,8.748627499999998" fill="none" stroke="rgb(178,178,0)" stroke-width="0.1"/>
  <path d="M 81.50270249999997,8.748627499999998 L 81.50270249999997,3.248627499999998" fill="none" stroke="rgb(178,178,0)" stroke-width="0.1"/>
  <path d="M 81.50270249999997,3.248627499999998 L 76.00270249999998,3.247627499999993" fill="none" stroke="rgb(178,178,0)" stroke-width="0.1"/>
  <path d="M 76.00270249999998,3.247627499999993 L 76.00270249999998,8.747627499999993" fill="none" stroke="rgb(178,178,0)" stroke-width="0.1"/>
  <path d="M 76.25270249999998,8.497627499999993 L 81.25270249999997,8.498627499999998" fill="none" stroke="rgb(178,178,0)" stroke-width="0.1"/>
  <path d="M 81.25270249999997,8.498627499999998 L 81.25270249999997,3.498627499999998" fill="none" stroke="rgb(178,178,0)" stroke-width="0.1"/>
  <path d="M 81.25270249999997,3.498627499999998 L 76.25270249999998,3.497627499999993" fill="none" stroke="rgb(178,178,0)" stroke-width="0.1"/>
  <path d="M 76.25270249999998,3.497627499999993 L 76.25270249999998,8.497627499999993" fill="none" stroke="rgb(178,178,0)" stroke-width="0.1"/>
  <path d="M 76.00270249999998,42.74762749999999 L 76.00270249999998,46.74762749999999" fill="none" stroke="rgb(89,89,89)" stroke-width="0.1"/>
  <path d="M 76.00270249999998,46.74762749999999 L 10.00260249999998,46.74762749999999" fill="none" stroke="rgb(89,89,89)" stroke-width="0.1"/>
  <path d="M 10.00260249999998,46.74762749999999 L 10.00260249999998,42.74762749999999" fill="none" stroke="rgb(89,89,89)" stroke-width="0.1"/>
  <path d="M 10.00260249999998,42.74762749999999 L 76.00270249999998,42.74762749999999" fill="none" stroke="rgb(89,89,89)" stroke-width="0.1"/>
  <path d="M 10.00260249999998,46.74762749999999 L 76.00270249999998,46.74762749999999" fill="none" stroke="rgb(89,89,89)" stroke-width="0.1"/>
  <path d="M 76.00270249999998,46.74762749999999 L 76.00270249999998,42.74762749999999" fill="none" stroke="rgb(89,89,89)" stroke-width="0.1"/>
  <path d="M 76.00270249999998,42.74762749999999 L 10.00260249999998,42.74762749999999" fill="none" stroke="rgb(89,89,89)" stroke-width="0.1"/>
  <path d="M 10.00260249999998,42.74762749999999 L 10.00260249999998,46.74762749999999" fill="none" stroke="rgb(89,89,89)" stroke-width="0.1"/>
  <path d="M 10.00260249999998,46.74762749999999 L 76.00270249999998,42.74762749999999" fill="none" stroke="rgb(89,89,89)" stroke-width="0.1"/>
  <path d="M 76.00270249999998,42.74762749999999 L 76.00270249999998,46.74762749999999" fill="none" stroke="rgb(89,89,89)" stroke-width="0.1"/>
  <path d="M 76.00270249999998,46.74762749999999 L 10.00260249999998,42.74762749999999" fill="none" stroke="rgb(89,89,89)" stroke-width="0.1"/>
  <path d="M 4.7526024999999805,47.24762749999999 L 9.75260249999998,47.24762749999999" fill="none" stroke="rgb(63,63,63)" stroke-width="0.1"/>
  <path d="M 9.75260249999998,47.24762749999999 L 9.75260249999998,42.24762749999999" fill="none" stroke="rgb(63,63,63)" stroke-width="0.1"/>
  <path d="M 9.75260249999998,42.24762749999999 L 4.7526024999999805,42.24762749999999" fill="none" stroke="rgb(63,63,63)" stroke-width="0.1"/>
  <path d="M 4.7526024999999805,42.24762749999999 L 4.7526024999999805,47.24762749999999" fill="none" stroke="rgb(63,63,63)" stroke-width="0.1"/>
  <path d="M 76.25270249999998,47.24762749999999 L 81.25270249999997,47.24762749999999" fill="none" stroke="rgb(63,63,63)" stroke-width="0.1"/>
  <path d="M 81.25270249999997,47.24762749999999 L 81.25270249999997,42.24762749999999" fill="none" stroke="rgb(63,63,63)" stroke-width="0.1"/>
  <path d="M 81.25270249999997,42.24762749999999 L 76.25270249999998,42.24762749999999" fill="none" stroke="rgb(63,63,63)" stroke-width="0.1"/>
  <path d="M 76.25270249999998,42.24762749999999 L 76.25270249999998,47.24762749999999" fill="none" stroke="rgb(63,63,63)" stroke-width="0.1"/>
  <path d="M 76.25270249999998,8.497627499999993 L 81.25270249999997,8.498627499999998" fill="none" stroke="rgb(63,63,63)" stroke-width="0.1"/>
  <path d="M 81.25270249999997,8.498627499999998 L 81.25270249999997,3.498627499999998" fill="none" stroke="rgb(63,63,63)" stroke-width="0.1"/>
  <path d="M 81.25270249999997,3.498627499999998 L 76.25270249999998,3.497627499999993" fill="none" stroke="rgb(63,63,63)" stroke-width="0.1"/>
  <path d="M 76.25270249999998,3.497627499999993 L 76.25270249999998,8.497627499999993" fill="none" stroke="rgb(63,63,63)" stroke-width="0.1"/>
  <path d="M 10.00260249999998,42.74762749999999 L 10.00260249999998,46.74762749999999" fill="none" stroke="rgb(89,89,89)" stroke-width="0.1"/>
  <path d="M 10.00260249999998,46.74762749999999 L 76.00270249999998,46.74762749999999" fill="none" stroke="rgb(89,89,89)" stroke-width="0.1"/>
  <path d="M 76.00270249999998,46.74762749999999 L 76.00270249999998,42.74762749999999" fill="none" stroke="rgb(89,89,89)" stroke-width="0.1"/>
  <path d="M 76.00270249999998,42.74762749999999 L 10.00260249999998,42.74762749999999" fill="none" stroke="rgb(89,89,89)" stroke-width="0.1"/>
 </g>
 <g id="layerVPIPE-雨水" inkscape:groupmode="layer" inkscape:label="VPIPE-雨水">
  <circle cx="78.30270249999998" cy="80.84662750000001" fill="none" r="0.6" stroke="rgb(0,178,178)" stroke-width="0.1"/>
 </g>
 <g id="layerWALL" inkscape:groupmode="layer" inkscape:label="WALL">
  <path d="M 98.50270249999997,0.0 L 98.50270249999997,78.2476275" fill="none" instance-id="-1" semantic-id="1" stroke="rgb(178,178,0)" stroke-width="0.1"/>
  <path d="M 96.50270249999997,0.0 L 96.50270249999997,80.2476275" fill="none" instance-id="-1" semantic-id="1" stroke="rgb(178,178,0)" stroke-width="0.1"/>
  <path d="M 96.50270249999997,80.2476275 L 100.0,80.2476275" fill="none" instance-id="-1" semantic-id="1" stroke="rgb(178,178,0)" stroke-width="0.1"/>
  <path d="M 100.0,78.2476275 L 98.50270249999997,78.2476275" fill="none" instance-id="-1" semantic-id="1" stroke="rgb(178,178,0)" stroke-width="0.1"/>
  <path d="M 79.50270249999997,0.0 L 79.50270249999997,11.247627499999993" fill="none" instance-id="-1" semantic-id="1" stroke="rgb(178,178,0)" stroke-width="0.1"/>
  <path d="M 79.50270249999997,11.247627499999993 L 81.50270249999997,11.247627499999993" fill="none" instance-id="-1" semantic-id="1" stroke="rgb(178,178,0)" stroke-width="0.1"/>
  <path d="M 81.50270249999997,11.247627499999993 L 81.50270249999997,0.0" fill="none" instance-id="-1" semantic-id="1" stroke="rgb(178,178,0)" stroke-width="0.1"/>
  <path d="M 81.50270249999997,33.49762749999999 L 81.50270249999997,22.247627499999993" fill="none" instance-id="-1" semantic-id="1" stroke="rgb(178,178,0)" stroke-width="0.1"/>
  <path d="M 81.50270249999997,22.247627499999993 L 79.50270249999997,22.247627499999993" fill="none" instance-id="-1" semantic-id="1" stroke="rgb(178,178,0)" stroke-width="0.1"/>
  <path d="M 79.50270249999997,22.247627499999993 L 79.50270249999997,32.49762749999999" fill="none" instance-id="-1" semantic-id="1" stroke="rgb(178,178,0)" stroke-width="0.1"/>
  <path d="M 73.50270249999998,32.49762749999999 L 79.50270249999997,32.49762749999999" fill="none" instance-id="-1" semantic-id="1" stroke="rgb(178,178,0)" stroke-width="0.1"/>
  <path d="M 74.50270249999998,33.49762749999999 L 79.50270249999997,33.49762749999999" fill="none" instance-id="-1" semantic-id="1" stroke="rgb(178,178,0)" stroke-width="0.1"/>
  <path d="M 74.50270249999998,33.49762749999999 L 74.50270249999998,43.74762749999999" fill="none" instance-id="-1" semantic-id="1" stroke="rgb(178,178,0)" stroke-width="0.1"/>
  <path d="M 73.50270249999998,32.49762749999999 L 73.50270249999998,43.74762749999999" fill="none" instance-id="-1" semantic-id="1" stroke="rgb(178,178,0)" stroke-width="0.1"/>
  <path d="M 81.50270249999997,33.49762749999999 L 81.50270249999997,41.99762749999999" fill="none" instance-id="-1" semantic-id="1" stroke="rgb(178,178,0)" stroke-width="0.1"/>
  <path d="M 79.50270249999997,33.49762749999999 L 79.50270249999997,41.99762749999999" fill="none" instance-id="-1" semantic-id="1" stroke="rgb(178,178,0)" stroke-width="0.1"/>
  <path d="M 81.50270249999997,41.99762749999999 L 79.50270249999997,41.99762749999999" fill="none" instance-id="-1" semantic-id="1" stroke="rgb(178,178,0)" stroke-width="0.1"/>
  <path d="M 79.50270249999997,97.2476275 L 79.50270249999997,100.0" fill="none" instance-id="-1" semantic-id="1" stroke="rgb(178,178,0)" stroke-width="0.1"/>
  <path d="M 81.50270249999997,100.0 L 81.50270249999997,97.2476275" fill="none" instance-id="-1" semantic-id="1" stroke="rgb(178,178,0)" stroke-width="0.1"/>
  <path d="M 81.50270249999997,97.2476275 L 79.50270249999997,97.2476275" fill="none" instance-id="-1" semantic-id="1" stroke="rgb(178,178,0)" stroke-width="0.1"/>
  <path d="M 1.0026024999999805,85.7476275 L 73.50270249999998,85.7476275" fill="none" instance-id="-1" semantic-id="1" stroke="rgb(178,178,0)" stroke-width="0.1"/>
  <path d="M 1.0026024999999805,87.7476275 L 73.50270249999998,87.7476275" fill="none" instance-id="-1" semantic-id="1" stroke="rgb(178,178,0)" stroke-width="0.1"/>
  <path d="M 1.0026024999999805,85.7476275 L 1.0026024999999805,87.7476275" fill="none" instance-id="-1" semantic-id="1" stroke="rgb(178,178,0)" stroke-width="0.1"/>
  <path d="M 73.50270249999998,85.7476275 L 73.50270249999998,87.7476275" fill="none" instance-id="-1" semantic-id="1" stroke="rgb(178,178,0)" stroke-width="0.1"/>
  <path d="M 1.0026024999999805,43.74762749999999 L 73.50270249999998,43.74762749999999" fill="none" instance-id="-1" semantic-id="1" stroke="rgb(178,178,0)" stroke-width="0.1"/>
  <path d="M 1.0026024999999805,45.74762749999999 L 73.50270249999998,45.74762749999999" fill="none" instance-id="-1" semantic-id="1" stroke="rgb(178,178,0)" stroke-width="0.1"/>
  <path d="M 1.0026024999999805,43.74762749999999 L 1.0026024999999805,45.74762749999999" fill="none" instance-id="-1" semantic-id="1" stroke="rgb(178,178,0)" stroke-width="0.1"/>
  <path d="M 79.50270249999997,45.74762749999999 L 79.50270249999997,52.74762749999999" fill="none" instance-id="-1" semantic-id="1" stroke="rgb(178,178,0)" stroke-width="0.1"/>
  <path d="M 79.50270249999997,52.74762749999999 L 81.50270249999997,52.74762749999999" fill="none" instance-id="-1" semantic-id="1" stroke="rgb(178,178,0)" stroke-width="0.1"/>
  <path d="M 81.50270249999997,52.74762749999999 L 81.50270249999997,43.74762749999999" fill="none" instance-id="-1" semantic-id="1" stroke="rgb(178,178,0)" stroke-width="0.1"/>
  <path d="M 81.50270249999997,76.2476275 L 81.50270249999997,63.74762749999999" fill="none" instance-id="-1" semantic-id="1" stroke="rgb(178,178,0)" stroke-width="0.1"/>
  <path d="M 81.50270249999997,63.74762749999999 L 79.50270249999997,63.74762749999999" fill="none" instance-id="-1" semantic-id="1" stroke="rgb(178,178,0)" stroke-width="0.1"/>
  <path d="M 79.50270249999997,63.74762749999999 L 79.50270249999997,76.2476275" fill="none" instance-id="-1" semantic-id="1" stroke="rgb(178,178,0)" stroke-width="0.1"/>
  <path d="M 79.50270249999997,76.2476275 L 81.50270249999997,76.2476275" fill="none" instance-id="-1" semantic-id="1" stroke="rgb(178,178,0)" stroke-width="0.1"/>
  <path d="M 74.50270249999998,43.74762749999999 L 81.50270249999997,43.74762749999999" fill="none" instance-id="-1" semantic-id="1" stroke="rgb(178,178,0)" stroke-width="0.1"/>
  <path d="M 73.50270249999998,45.74762749999999 L 79.50270249999997,45.74762749999999" fill="none" instance-id="-1" semantic-id="1" stroke="rgb(178,178,0)" stroke-width="0.1"/>
  <path d="M 73.50270249999998,76.2476275 L 81.50270249999997,76.2476275" fill="none" instance-id="-1" semantic-id="1" stroke="rgb(178,178,0)" stroke-width="0.1"/>
  <path d="M 74.50270249999998,77.2476275 L 79.50270249999997,77.2476275" fill="none" instance-id="-1" semantic-id="1" stroke="rgb(178,178,0)" stroke-width="0.1"/>
  <path d="M 74.50270249999998,77.2476275 L 74.50270249999998,96.2476275" fill="none" instance-id="-1" semantic-id="1" stroke="rgb(178,178,0)" stroke-width="0.1"/>
  <path d="M 73.50270249999998,76.2476275 L 73.50270249999998,97.2476275" fill="none" instance-id="-1" semantic-id="1" stroke="rgb(178,178,0)" stroke-width="0.1"/>
  <path d="M 81.50270249999997,76.2476275 L 81.50270249999997,97.2476275" fill="none" instance-id="-1" semantic-id="1" stroke="rgb(178,178,0)" stroke-width="0.1"/>
  <path d="M 79.50270249999997,77.2476275 L 79.50270249999997,96.2476275" fill="none" instance-id="-1" semantic-id="1" stroke="rgb(178,178,0)" stroke-width="0.1"/>
  <path d="M 74.50270249999998,96.2476275 L 79.50270249999997,96.2476275" fill="none" instance-id="-1" semantic-id="1" stroke="rgb(178,178,0)" stroke-width="0.1"/>
  <path d="M 73.50270249999998,97.2476275 L 81.50270249999997,97.2476275" fill="none" instance-id="-1" semantic-id="1" stroke="rgb(178,178,0)" stroke-width="0.1"/>
  <path d="M 73.50270249999998,97.2476275 L 81.50270249999997,97.2476275" fill="none" instance-id="-1" semantic-id="1" stroke="rgb(178,178,0)" stroke-width="0.1"/>
  <path d="M 81.50270249999997,97.2476275 L 81.50270249999997,76.2476275" fill="none" instance-id="-1" semantic-id="1" stroke="rgb(178,178,0)" stroke-width="0.1"/>
  <path d="M 81.50270249999997,76.2476275 L 73.50270249999998,76.2476275" fill="none" instance-id="-1" semantic-id="1" stroke="rgb(178,178,0)" stroke-width="0.1"/>
  <path d="M 73.50270249999998,76.2476275 L 73.50270249999998,97.2476275" fill="none" instance-id="-1" semantic-id="1" stroke="rgb(178,178,0)" stroke-width="0.1"/>
 </g>
 <g id="layerWINDOW" inkscape:groupmode="layer" inkscape:label="WINDOW">
  <path d="M 69.77770249999998,21.69762750000001 L 69.77770249999998,22.247627499999993" fill="none" instance-id="7" semantic-id="3" stroke="rgb(0,178,178)" stroke-width="0.1"/>
  <path d="M 80.50270249999997,22.247627499999993 L 80.50270249999997,21.69762750000001" fill="none" instance-id="7" semantic-id="3" stroke="rgb(0,178,178)" stroke-width="0.1"/>
  <path d="M 80.50270249999997,22.247627499999993 L 69.77770249999998,22.247627499999993" fill="none" instance-id="7" semantic-id="3" stroke="rgb(0,178,178)" stroke-width="0.1"/>
  <path d="M 80.50270249999997,21.69762750000001 L 69.77770249999998,21.69762750000001" fill="none" instance-id="7" semantic-id="3" stroke="rgb(0,178,178)" stroke-width="0.1"/>
  <path d="M 69.77770249999998,63.19762750000001 L 69.77770249999998,63.74762749999999" fill="none" instance-id="8" semantic-id="3" stroke="rgb(0,178,178)" stroke-width="0.1"/>
  <path d="M 80.50270249999997,63.74762749999999 L 80.50270249999997,63.19762750000001" fill="none" instance-id="8" semantic-id="3" stroke="rgb(0,178,178)" stroke-width="0.1"/>
  <path d="M 80.50270249999997,63.74762749999999 L 69.77770249999998,63.74762749999999" fill="none" instance-id="8" semantic-id="3" stroke="rgb(0,178,178)" stroke-width="0.1"/>
  <path d="M 80.50270249999997,63.19762750000001 L 69.77770249999998,63.19762750000001" fill="none" instance-id="8" semantic-id="3" stroke="rgb(0,178,178)" stroke-width="0.1"/>
  <path d="M 80.50270249999997,11.247627499999993 A 10.725,10.725 0.0 0,0 69.78070249999998,21.69762750000001" fill="none" instance-id="7" semantic-id="3" stroke="rgb(0,178,178)" stroke-width="0.1"/>
  <path d="M 80.50270249999997,52.74762749999999 A 10.725,10.725 0.0 0,0 69.78070249999998,63.19762750000001" fill="none" instance-id="8" semantic-id="3" stroke="rgb(0,178,178)" stroke-width="0.1"/>
 </g>
 <g id="layerWINDOW_TEXT" inkscape:groupmode="layer" inkscape:label="WINDOW_TEXT">
  <text fill="rgb(0,0,0)" font-family="Noto Sans CJK SC" font-size="2" transform="rotate(-360.0,34.310102499999985,3.4856274999999926)" x="34.310102499999985" y="3.4856274999999926">
   PTC2
  </text>
  <text fill="rgb(0,0,0)" font-family="Noto Sans CJK SC" font-size="2" transform="rotate(-90.0,4.7456024999999755,78.9466275)" x="4.7456024999999755" y="78.9466275">
   PTC2
  </text>
  <text fill="rgb(0,0,0)" font-family="Noto Sans CJK SC" font-size="2" transform="rotate(-90.0,4.7456024999999755,38.946627500000005)" x="4.7456024999999755" y="38.946627500000005">
   PTC2
  </text>
  <text fill="rgb(0,0,0)" font-family="Noto Sans CJK SC" font-size="2" transform="rotate(-90.0,85.73970249999996,21.297627500000004)" x="85.73970249999996" y="21.297627500000004">
   M1124
  </text>
  <text fill="rgb(0,0,0)" font-family="Noto Sans CJK SC" font-size="2" transform="rotate(-90.0,85.73970249999996,62.797627500000004)" x="85.73970249999996" y="62.797627500000004">
   M1124
  </text>
 </g>
 <g id="layer开启扇统计" inkscape:groupmode="layer" inkscape:label="开启扇统计">
  <path d="M 0.008102499999978363,72.74662749999999 L 0.008102499999978363,77.74662749999999" fill="none" stroke="rgb(0,0,178)" stroke-width="0.1"/>
  <path d="M 0.0,72.74662749999999 L 0.008102499999978363,72.74662749999999" fill="none" stroke="rgb(0,0,178)" stroke-width="0.1"/>
  <path d="M 0.0,77.74662749999999 L 0.008102499999978363,77.74662749999999" fill="none" stroke="rgb(0,0,178)" stroke-width="0.1"/>
  <path d="M 0.008102499999978363,95.74662749999999 L 0.008102499999978363,100.0" fill="none" stroke="rgb(0,0,178)" stroke-width="0.1"/>
  <path d="M 0.0,95.74662749999999 L 0.008102499999978363,95.74662749999999" fill="none" stroke="rgb(0,0,178)" stroke-width="0.1"/>
  <path d="M 0.008102499999978363,32.74662749999999 L 0.008102499999978363,37.74662749999999" fill="none" stroke="rgb(0,0,178)" stroke-width="0.1"/>
  <path d="M 0.0,32.74662749999999 L 0.008102499999978363,32.74662749999999" fill="none" stroke="rgb(0,0,178)" stroke-width="0.1"/>
  <path d="M 0.0,37.74662749999999 L 0.008102499999978363,37.74662749999999" fill="none" stroke="rgb(0,0,178)" stroke-width="0.1"/>
 </g>
</svg>