<?xml version="1.0" encoding="utf-8"?>
<svg style="background-color: #000;" version="1.1" viewBox="0 0 100.0 100.0" xmlns="http://www.w3.org/2000/svg" xmlns:inkscape="http://www.inkscape.org/namespaces/inkscape">
 <g id="layerDIM_LEAD" inkscape:groupmode="layer" inkscape:label="DIM_LEAD">
  <path d="M 8.502702499999998,84.00162749999998 L 12.473702500000002,86.7596275" fill="none" stroke="rgb(0,178,0)" stroke-width="0.1"/>
  <path d="M 12.473702500000002,86.7596275 L 30.90370249999995,86.7596275" fill="none" stroke="rgb(0,178,0)" stroke-width="0.1"/>
  <path d="M 55.60170249999999,1.247627499999993 L 65.46370249999995,23.27062749999999" fill="none" stroke="rgb(0,178,0)" stroke-width="0.1"/>
  <path d="M 65.46370249999995,23.27062749999999 L 91.5027025,23.27062749999999" fill="none" stroke="rgb(0,178,0)" stroke-width="0.1"/>
  <path d="M 0.0,19.242627499999998 L 7.0007024999999885,19.242627499999998" fill="none" stroke="rgb(0,178,0)" stroke-width="0.1"/>
  <path d="M 8.338702499999954,83.88762750000001 A 0.2,0.2 0.0 1,0 8.666702499999985,84.11562749999999" fill="none" stroke="rgb(0,178,0)" stroke-width="0.1"/>
  <path d="M 8.666702499999985,84.11562749999999 A 0.2,0.2 0.0 1,0 8.338702499999954,83.88762750000001" fill="none" stroke="rgb(0,178,0)" stroke-width="0.1"/>
  <path d="M 55.519702499999994,1.0646275000000003 A 0.2,0.2 0.0 1,0 55.682702500000005,1.4296274999999952" fill="none" stroke="rgb(0,178,0)" stroke-width="0.1"/>
  <path d="M 55.682702500000005,1.4296274999999952 A 0.2,0.2 0.0 1,0 55.519702499999994,1.0646275000000003" fill="none" stroke="rgb(0,178,0)" stroke-width="0.1"/>
 </g>
 <g id="layerDOTE" inkscape:groupmode="layer" inkscape:label="DOTE">
  <path d="M 8.502702499999998,0.0 L 8.502702499999998,72.2476275" fill="none" stroke="rgb(178,0,0)" stroke-width="0.1"/>
  <path d="M 92.5027025,0.0 L 92.5027025,72.2476275" fill="none" stroke="rgb(178,0,0)" stroke-width="0.1"/>
  <path d="M 0.0,99.2476275 L 100.0,99.2476275" fill="none" stroke="rgb(178,0,0)" stroke-width="0.1"/>
  <path d="M 0.0,79.2476275 L 100.0,79.2476275" fill="none" stroke="rgb(178,0,0)" stroke-width="0.1"/>
  <path d="M 0.0,4.247627499999993 L 100.0,4.247627499999993" fill="none" stroke="rgb(178,0,0)" stroke-width="0.1"/>
  <path d="M 50.5027025,100.0 L 50.5027025,0.0" fill="none" stroke="rgb(178,0,0)" stroke-width="0.1"/>
  <path d="M 8.502702499999998,100.0 L 8.502702499999998,0.0" fill="none" stroke="rgb(178,0,0)" stroke-width="0.1"/>
  <path d="M 92.5027025,100.0 L 92.5027025,0.0" fill="none" stroke="rgb(178,0,0)" stroke-width="0.1"/>
 </g>
 <g id="layerEQUIP_消火栓" inkscape:groupmode="layer" inkscape:label="EQUIP_消火栓">
  <path d="M 96.0027025,78.2476275 L 96.0027025,80.2476275" fill="none" stroke="rgb(0,0,0)" stroke-width="0.1"/>
  <path d="M 100.0,78.2476275 L 96.0027025,78.2476275" fill="none" stroke="rgb(0,0,0)" stroke-width="0.1"/>
  <path d="M 100.0,79.10554249999998 L 96.0027025,80.2476275" fill="none" stroke="rgb(0,0,0)" stroke-width="0.1"/>
  <path d="M 96.0027025,80.2476275 L 100.0,80.2476275" fill="none" stroke="rgb(0,0,0)" stroke-width="0.1"/>
  <path d="M 99.5027025,80.46162749999999 L 99.23770249999995,80.87162749999999" fill="none" stroke="rgb(0,0,0)" stroke-width="0.1"/>
  <path d="M 99.23770249999995,80.87162749999999 L 99.78470249999998,80.87162749999999" fill="none" stroke="rgb(0,0,0)" stroke-width="0.1"/>
  <path d="M 99.78470249999998,80.87162749999999 L 99.5027025,80.46162749999999" fill="none" stroke="rgb(0,0,0)" stroke-width="0.1"/>
 </g>
 <g id="layerPUB_DIM" inkscape:groupmode="layer" inkscape:label="PUB_DIM">
  <path d="M 0.0,65.89562749999999 L 0.0027024999999980537,65.89562749999999" fill="none" stroke="rgb(0,178,0)" stroke-width="0.1"/>
  <path d="M 8.502702499999998,69.2476275 L 8.502702499999998,63.39562749999999" fill="none" stroke="rgb(0,178,0)" stroke-width="0.1"/>
  <path d="M 0.0,65.89562749999999 L 8.502702499999998,65.89562749999999" fill="none" stroke="rgb(0,178,0)" stroke-width="0.1"/>
  <path d="M 8.502702499999998,69.2476275 L 8.502702499999998,63.39562749999999" fill="none" stroke="rgb(0,178,0)" stroke-width="0.1"/>
  <path d="M 18.002702499999998,69.2476275 L 18.002702499999998,63.39562749999999" fill="none" stroke="rgb(0,178,0)" stroke-width="0.1"/>
  <path d="M 8.502702499999998,65.89562749999999 L 18.002702499999998,65.89562749999999" fill="none" stroke="rgb(0,178,0)" stroke-width="0.1"/>
  <path d="M 18.002702499999998,69.2476275 L 18.002702499999998,63.39562749999999" fill="none" stroke="rgb(0,178,0)" stroke-width="0.1"/>
  <path d="M 19.002702499999998,69.2476275 L 19.002702499999998,63.39562749999999" fill="none" stroke="rgb(0,178,0)" stroke-width="0.1"/>
  <path d="M 18.002702499999998,65.89562749999999 L 17.002702499999998,65.89562749999999" fill="none" stroke="rgb(0,178,0)" stroke-width="0.1"/>
  <path d="M 19.002702499999998,65.89562749999999 L 20.002702499999998,65.89562749999999" fill="none" stroke="rgb(0,178,0)" stroke-width="0.1"/>
  <path d="M 18.002702499999998,65.89562749999999 L 19.002702499999998,65.89562749999999" fill="none" stroke="rgb(0,178,0)" stroke-width="0.1"/>
  <path d="M 19.002702499999998,69.2476275 L 19.002702499999998,63.39562749999999" fill="none" stroke="rgb(0,178,0)" stroke-width="0.1"/>
  <path d="M 31.502702499999998,69.2476275 L 31.502702499999998,63.39562749999999" fill="none" stroke="rgb(0,178,0)" stroke-width="0.1"/>
  <path d="M 19.002702499999998,65.89562749999999 L 31.502702499999998,65.89562749999999" fill="none" stroke="rgb(0,178,0)" stroke-width="0.1"/>
  <path d="M 31.502702499999998,69.2476275 L 31.502702499999998,63.39562749999999" fill="none" stroke="rgb(0,178,0)" stroke-width="0.1"/>
  <path d="M 42.5027025,69.2476275 L 42.5027025,63.39562749999999" fill="none" stroke="rgb(0,178,0)" stroke-width="0.1"/>
  <path d="M 31.502702499999998,65.89562749999999 L 42.5027025,65.89562749999999" fill="none" stroke="rgb(0,178,0)" stroke-width="0.1"/>
  <path d="M 42.5027025,69.2476275 L 42.5027025,63.39562749999999" fill="none" stroke="rgb(0,178,0)" stroke-width="0.1"/>
  <path d="M 50.5027025,69.2476275 L 50.5027025,63.39562749999999" fill="none" stroke="rgb(0,178,0)" stroke-width="0.1"/>
  <path d="M 42.5027025,65.89562749999999 L 50.5027025,65.89562749999999" fill="none" stroke="rgb(0,178,0)" stroke-width="0.1"/>
  <path d="M 50.5027025,69.2476275 L 50.5027025,63.39562749999999" fill="none" stroke="rgb(0,178,0)" stroke-width="0.1"/>
  <path d="M 58.5027025,69.2476275 L 58.5027025,63.39562749999999" fill="none" stroke="rgb(0,178,0)" stroke-width="0.1"/>
  <path d="M 50.5027025,65.89562749999999 L 58.5027025,65.89562749999999" fill="none" stroke="rgb(0,178,0)" stroke-width="0.1"/>
  <path d="M 58.5027025,69.2476275 L 58.5027025,63.39562749999999" fill="none" stroke="rgb(0,178,0)" stroke-width="0.1"/>
  <path d="M 69.5027025,69.2476275 L 69.5027025,63.39562749999999" fill="none" stroke="rgb(0,178,0)" stroke-width="0.1"/>
  <path d="M 58.5027025,65.89562749999999 L 69.5027025,65.89562749999999" fill="none" stroke="rgb(0,178,0)" stroke-width="0.1"/>
  <path d="M 69.5027025,69.2476275 L 69.5027025,63.39562749999999" fill="none" stroke="rgb(0,178,0)" stroke-width="0.1"/>
  <path d="M 82.0027025,69.2476275 L 82.0027025,63.39562749999999" fill="none" stroke="rgb(0,178,0)" stroke-width="0.1"/>
  <path d="M 69.5027025,65.89562749999999 L 82.0027025,65.89562749999999" fill="none" stroke="rgb(0,178,0)" stroke-width="0.1"/>
  <path d="M 82.0027025,69.2476275 L 82.0027025,63.39562749999999" fill="none" stroke="rgb(0,178,0)" stroke-width="0.1"/>
  <path d="M 83.0027025,69.2476275 L 83.0027025,63.39562749999999" fill="none" stroke="rgb(0,178,0)" stroke-width="0.1"/>
  <path d="M 82.0027025,65.89562749999999 L 81.0027025,65.89562749999999" fill="none" stroke="rgb(0,178,0)" stroke-width="0.1"/>
  <path d="M 83.0027025,65.89562749999999 L 84.0027025,65.89562749999999" fill="none" stroke="rgb(0,178,0)" stroke-width="0.1"/>
  <path d="M 82.0027025,65.89562749999999 L 83.0027025,65.89562749999999" fill="none" stroke="rgb(0,178,0)" stroke-width="0.1"/>
  <path d="M 83.0027025,69.2476275 L 83.0027025,63.39562749999999" fill="none" stroke="rgb(0,178,0)" stroke-width="0.1"/>
  <path d="M 92.5027025,69.2476275 L 92.5027025,63.39562749999999" fill="none" stroke="rgb(0,178,0)" stroke-width="0.1"/>
  <path d="M 83.0027025,65.89562749999999 L 92.5027025,65.89562749999999" fill="none" stroke="rgb(0,178,0)" stroke-width="0.1"/>
  <path d="M 92.5027025,69.2476275 L 92.5027025,63.39562749999999" fill="none" stroke="rgb(0,178,0)" stroke-width="0.1"/>
  <path d="M 92.5027025,65.89562749999999 L 100.0,65.89562749999999" fill="none" stroke="rgb(0,178,0)" stroke-width="0.1"/>
  <path d="M 53.5027025,7.247627499999993 L 53.5027025,12.747627499999993" fill="none" stroke="rgb(0,178,0)" stroke-width="0.1"/>
  <path d="M 50.5027025,7.247627499999993 L 50.5027025,12.747627499999993" fill="none" stroke="rgb(0,178,0)" stroke-width="0.1"/>
  <path d="M 53.5027025,10.247627499999993 L 50.5027025,10.247627499999993" fill="none" stroke="rgb(0,178,0)" stroke-width="0.1"/>
  <path d="M 50.5027025,7.247627499999993 L 50.5027025,12.747627499999993" fill="none" stroke="rgb(0,178,0)" stroke-width="0.1"/>
  <path d="M 47.5027025,7.247627499999993 L 47.5027025,12.747627499999993" fill="none" stroke="rgb(0,178,0)" stroke-width="0.1"/>
  <path d="M 50.5027025,10.247627499999993 L 47.5027025,10.247627499999993" fill="none" stroke="rgb(0,178,0)" stroke-width="0.1"/>
  <path d="M 8.502702499999998,8.747627499999993 L 8.502702499999998,15.747627499999993" fill="none" stroke="rgb(0,178,0)" stroke-width="0.1"/>
  <path d="M 0.0,13.247627499999993 L 8.502702499999998,13.247627499999993" fill="none" stroke="rgb(0,178,0)" stroke-width="0.1"/>
  <path d="M 92.5027025,8.747627499999993 L 92.5027025,15.747627499999993" fill="none" stroke="rgb(0,178,0)" stroke-width="0.1"/>
  <path d="M 92.5027025,13.247627499999993 L 100.0,13.247627499999993" fill="none" stroke="rgb(0,178,0)" stroke-width="0.1"/>
  <path d="M 76.5027025,8.747627499999993 L 76.5027025,15.747627499999993" fill="none" stroke="rgb(0,178,0)" stroke-width="0.1"/>
  <path d="M 92.5027025,8.747627499999993 L 92.5027025,15.747627499999993" fill="none" stroke="rgb(0,178,0)" stroke-width="0.1"/>
  <path d="M 76.5027025,13.247627499999993 L 92.5027025,13.247627499999993" fill="none" stroke="rgb(0,178,0)" stroke-width="0.1"/>
  <path d="M 66.5027025,8.747627499999993 L 66.5027025,15.747627499999993" fill="none" stroke="rgb(0,178,0)" stroke-width="0.1"/>
  <path d="M 76.5027025,8.747627499999993 L 76.5027025,15.747627499999993" fill="none" stroke="rgb(0,178,0)" stroke-width="0.1"/>
  <path d="M 66.5027025,13.247627499999993 L 76.5027025,13.247627499999993" fill="none" stroke="rgb(0,178,0)" stroke-width="0.1"/>
  <path d="M 50.5027025,8.747627499999993 L 50.5027025,15.747627499999993" fill="none" stroke="rgb(0,178,0)" stroke-width="0.1"/>
  <path d="M 66.5027025,8.747627499999993 L 66.5027025,15.747627499999993" fill="none" stroke="rgb(0,178,0)" stroke-width="0.1"/>
  <path d="M 50.5027025,13.247627499999993 L 66.5027025,13.247627499999993" fill="none" stroke="rgb(0,178,0)" stroke-width="0.1"/>
  <path d="M 69.5027025,5.747627499999993 L 75.82270249999999,5.747627499999993" fill="none" stroke="rgb(0,178,0)" stroke-width="0.1"/>
  <path d="M 73.32270249999999,5.747627499999993 L 73.32270249999999,0.0" fill="none" stroke="rgb(0,178,0)" stroke-width="0.1"/>
  <path d="M 34.5027025,8.747627499999993 L 34.5027025,15.747627499999993" fill="none" stroke="rgb(0,178,0)" stroke-width="0.1"/>
  <path d="M 50.5027025,8.747627499999993 L 50.5027025,15.747627499999993" fill="none" stroke="rgb(0,178,0)" stroke-width="0.1"/>
  <path d="M 34.5027025,13.247627499999993 L 50.5027025,13.247627499999993" fill="none" stroke="rgb(0,178,0)" stroke-width="0.1"/>
  <path d="M 24.502702499999998,8.747627499999993 L 24.502702499999998,15.747627499999993" fill="none" stroke="rgb(0,178,0)" stroke-width="0.1"/>
  <path d="M 34.5027025,8.747627499999993 L 34.5027025,15.747627499999993" fill="none" stroke="rgb(0,178,0)" stroke-width="0.1"/>
  <path d="M 24.502702499999998,13.247627499999993 L 34.5027025,13.247627499999993" fill="none" stroke="rgb(0,178,0)" stroke-width="0.1"/>
  <path d="M 8.502702499999998,8.747627499999993 L 8.502702499999998,15.747627499999993" fill="none" stroke="rgb(0,178,0)" stroke-width="0.1"/>
  <path d="M 24.502702499999998,8.747627499999993 L 24.502702499999998,15.747627499999993" fill="none" stroke="rgb(0,178,0)" stroke-width="0.1"/>
  <path d="M 8.502702499999998,13.247627499999993 L 24.502702499999998,13.247627499999993" fill="none" stroke="rgb(0,178,0)" stroke-width="0.1"/>
  <path d="M 27.502702499999998,5.747627499999993 L 33.82270249999999,5.747627499999993" fill="none" stroke="rgb(0,178,0)" stroke-width="0.1"/>
  <path d="M 31.32270249999999,5.747627499999993 L 31.32270249999999,0.0" fill="none" stroke="rgb(0,178,0)" stroke-width="0.1"/>
  <text fill="rgb(0,178,0)" font-family="Noto Sans CJK SC" font-size="2" transform="rotate(-0.0,0.752702499999998,64.89562749999999)" x="0.752702499999998" y="64.89562749999999">
   950
  </text>
  <text fill="rgb(0,178,0)" font-family="Noto Sans CJK SC" font-size="2" transform="rotate(-0.0,10.252702499999998,64.89562749999999)" x="10.252702499999998" y="64.89562749999999">
   950
  </text>
  <text fill="rgb(0,178,0)" font-family="Noto Sans CJK SC" font-size="2" transform="rotate(-0.0,15.352702499999964,61.132627499999984)" x="15.352702499999964" y="61.132627499999984">
   100
  </text>
  <text fill="rgb(0,178,0)" font-family="Noto Sans CJK SC" font-size="2" transform="rotate(-0.0,21.102702499999964,64.89562749999999)" x="21.102702499999964" y="64.89562749999999">
   1250
  </text>
  <text fill="rgb(0,178,0)" font-family="Noto Sans CJK SC" font-size="2" transform="rotate(-0.0,32.852702499999964,64.89562749999999)" x="32.852702499999964" y="64.89562749999999">
   1100
  </text>
  <text fill="rgb(0,178,0)" font-family="Noto Sans CJK SC" font-size="2" transform="rotate(-0.0,43.5027025,64.89562749999999)" x="43.5027025" y="64.89562749999999">
   800
  </text>
  <text fill="rgb(0,178,0)" font-family="Noto Sans CJK SC" font-size="2" transform="rotate(-0.0,51.5027025,64.89562749999999)" x="51.5027025" y="64.89562749999999">
   800
  </text>
  <text fill="rgb(0,178,0)" font-family="Noto Sans CJK SC" font-size="2" transform="rotate(-0.0,59.852702499999964,64.89562749999999)" x="59.852702499999964" y="64.89562749999999">
   1100
  </text>
  <text fill="rgb(0,178,0)" font-family="Noto Sans CJK SC" font-size="2" transform="rotate(-0.0,71.60270249999996,64.89562749999999)" x="71.60270249999996" y="64.89562749999999">
   1250
  </text>
  <text fill="rgb(0,178,0)" font-family="Noto Sans CJK SC" font-size="2" transform="rotate(-0.0,79.35270249999996,61.132627499999984)" x="79.35270249999996" y="61.132627499999984">
   100
  </text>
  <text fill="rgb(0,178,0)" font-family="Noto Sans CJK SC" font-size="2" transform="rotate(-0.0,84.7527025,64.89562749999999)" x="84.7527025" y="64.89562749999999">
   950
  </text>
  <text fill="rgb(0,178,0)" font-family="Noto Sans CJK SC" font-size="2" transform="rotate(-0.0,94.2527025,64.89562749999999)" x="94.2527025" y="64.89562749999999">
   950
  </text>
  <text fill="rgb(0,178,0)" font-family="Noto Sans CJK SC" font-size="2" transform="rotate(-0.0,99.35270249999996,61.132627499999984)" x="99.35270249999996" y="61.132627499999984">
   100
  </text>
  <text fill="rgb(0,178,0)" font-family="Noto Sans CJK SC" font-size="2" transform="rotate(-180.0,60.20270249999999,11.509627499999993)" x="60.20270249999999" y="11.509627499999993">
   300
  </text>
  <text fill="rgb(0,178,0)" font-family="Noto Sans CJK SC" font-size="2" transform="rotate(-180.0,46.80270249999995,11.509627499999993)" x="46.80270249999995" y="11.509627499999993">
   300
  </text>
  <text fill="rgb(0,178,0)" font-family="Noto Sans CJK SC" font-size="2" transform="rotate(8.33764e-12,96.35270249999996,11.984627499999988)" x="96.35270249999996" y="11.984627499999988">
   1600
  </text>
  <text fill="rgb(0,178,0)" font-family="Noto Sans CJK SC" font-size="2" transform="rotate(8.33763e-12,80.35270249999996,11.984627499999988)" x="80.35270249999996" y="11.984627499999988">
   1600
  </text>
  <text fill="rgb(0,178,0)" font-family="Noto Sans CJK SC" font-size="2" transform="rotate(-0.0,67.35270249999996,11.984627499999988)" x="67.35270249999996" y="11.984627499999988">
   1000
  </text>
  <text fill="rgb(0,178,0)" font-family="Noto Sans CJK SC" font-size="2" transform="rotate(8.33764e-12,54.352702499999964,11.984627499999988)" x="54.352702499999964" y="11.984627499999988">
   1600
  </text>
  <text fill="rgb(0,178,0)" font-family="Noto Sans CJK SC" font-size="2" transform="rotate(-90.0,72.05970249999996,5.797627500000004)" x="72.05970249999996" y="5.797627500000004">
   600
  </text>
  <text fill="rgb(0,178,0)" font-family="Noto Sans CJK SC" font-size="2" transform="rotate(8.33763e-12,38.352702499999964,11.984627499999988)" x="38.352702499999964" y="11.984627499999988">
   1600
  </text>
  <text fill="rgb(0,178,0)" font-family="Noto Sans CJK SC" font-size="2" transform="rotate(-0.0,25.352702499999964,11.984627499999988)" x="25.352702499999964" y="11.984627499999988">
   1000
  </text>
  <text fill="rgb(0,178,0)" font-family="Noto Sans CJK SC" font-size="2" transform="rotate(8.33764e-12,12.352702499999964,11.984627499999988)" x="12.352702499999964" y="11.984627499999988">
   1600
  </text>
  <text fill="rgb(0,178,0)" font-family="Noto Sans CJK SC" font-size="2" transform="rotate(-90.0,30.059702499999958,5.797627500000004)" x="30.059702499999958" y="5.797627500000004">
   600
  </text>
 </g>
 <g id="layerPUB_TEXT" inkscape:groupmode="layer" inkscape:label="PUB_TEXT">
  <text fill="rgb(0,0,0)" font-family="Noto Sans CJK SC" font-size="2" transform="rotate(-0.0,65.01170249999996,42.17362750000001)" x="65.01170249999996" y="42.17362750000001">
   办公
  </text>
  <text fill="rgb(0,0,0)" font-family="Noto Sans CJK SC" font-size="2" transform="rotate(-0.0,24.007702499999994,42.17362750000001)" x="24.007702499999994" y="42.17362750000001">
   办公
  </text>
  <text fill="rgb(0,0,0)" font-family="Noto Sans CJK SC" font-size="2" transform="rotate(-0.0,14.338702499999954,85.70962750000001)" x="14.338702499999954" y="85.70962750000001">
   电动挡烟垂壁
  </text>
  <text fill="rgb(0,0,0)" font-family="Noto Sans CJK SC" font-size="2" transform="rotate(-0.0,11.969702499999983,91.3096275)" x="11.969702499999983" y="91.3096275">
   垂壁底距地
  </text>
  <text fill="rgb(0,0,0)" font-family="Noto Sans CJK SC" font-size="2" transform="rotate(-0.0,24.25670249999996,91.3096275)" x="24.25670249999996" y="91.3096275">
   1.7m
  </text>
  <text fill="rgb(0,0,0)" font-family="Noto Sans CJK SC" font-size="2" transform="rotate(-0.0,61.93570249999999,22.220627500000006)" x="61.93570249999999" y="22.220627500000006">
   玻璃栏板
  </text>
  <text fill="rgb(0,0,0)" font-family="Noto Sans CJK SC" font-size="2" transform="rotate(-0.0,71.76570249999997,22.220627500000006)" x="71.76570249999997" y="22.220627500000006">
   ,
  </text>
  <text fill="rgb(0,0,0)" font-family="Noto Sans CJK SC" font-size="2" transform="rotate(-0.0,72.76570249999997,22.220627500000006)" x="72.76570249999997" y="22.220627500000006">
   顶距完成面
  </text>
  <text fill="rgb(0,0,0)" font-family="Noto Sans CJK SC" font-size="2" transform="rotate(-0.0,85.05270249999995,22.220627500000006)" x="85.05270249999995" y="22.220627500000006">
   900
  </text>
  <text fill="rgb(0,0,0)" font-family="Noto Sans CJK SC" font-size="2" transform="rotate(-0.0,66.58570249999997,27.8206275)" x="66.58570249999997" y="27.8206275">
   由土建完成，大样另详
  </text>
  <text fill="rgb(0,0,0)" font-family="Noto Sans CJK SC" font-size="2" transform="rotate(-0.0,1.6687024999999949,17.625627500000007)" x="1.6687024999999949" y="17.625627500000007">
   余同
  </text>
 </g>
 <g id="layerS-上空线" inkscape:groupmode="layer" inkscape:label="S-上空线">
  <path d="M 100.0,73.2476275 L 93.5027025,73.2476275" fill="none" stroke="rgb(63,63,63)" stroke-width="0.1"/>
  <path d="M 93.5027025,73.2476275 L 93.5027025,77.2476275" fill="none" stroke="rgb(63,63,63)" stroke-width="0.1"/>
  <path d="M 93.5027025,77.2476275 L 100.0,77.2476275" fill="none" stroke="rgb(63,63,63)" stroke-width="0.1"/>
  <path d="M 83.0027025,73.2476275 L 91.5027025,73.2476275" fill="none" stroke="rgb(63,63,63)" stroke-width="0.1"/>
  <path d="M 91.5027025,73.2476275 L 91.5027025,77.2476275" fill="none" stroke="rgb(63,63,63)" stroke-width="0.1"/>
  <path d="M 91.5027025,77.2476275 L 83.0027025,77.2476275" fill="none" stroke="rgb(63,63,63)" stroke-width="0.1"/>
  <path d="M 83.0027025,77.2476275 L 83.0027025,73.2476275" fill="none" stroke="rgb(63,63,63)" stroke-width="0.1"/>
  <path d="M 18.002702499999998,73.2476275 L 9.502702499999998,73.2476275" fill="none" stroke="rgb(63,63,63)" stroke-width="0.1"/>
  <path d="M 9.502702499999998,73.2476275 L 9.502702499999998,77.2476275" fill="none" stroke="rgb(63,63,63)" stroke-width="0.1"/>
  <path d="M 9.502702499999998,77.2476275 L 18.002702499999998,77.2476275" fill="none" stroke="rgb(63,63,63)" stroke-width="0.1"/>
  <path d="M 18.002702499999998,77.2476275 L 18.002702499999998,73.2476275" fill="none" stroke="rgb(63,63,63)" stroke-width="0.1"/>
  <path d="M 0.0,73.2476275 L 7.502702499999998,73.2476275" fill="none" stroke="rgb(63,63,63)" stroke-width="0.1"/>
  <path d="M 7.502702499999998,73.2476275 L 7.502702499999998,77.2476275" fill="none" stroke="rgb(63,63,63)" stroke-width="0.1"/>
  <path d="M 7.502702499999998,77.2476275 L 0.0,77.2476275" fill="none" stroke="rgb(63,63,63)" stroke-width="0.1"/>
  <path d="M 100.0,74.89885333185819 L 99.60270249999996,77.1476275" fill="none" stroke="rgb(63,63,63)" stroke-width="0.1"/>
  <path d="M 83.10270249999996,73.34762749999999 L 84.83770249999998,73.94962749999999" fill="none" stroke="rgb(63,63,63)" stroke-width="0.1"/>
  <path d="M 84.83770249999998,73.94962749999999 L 85.40270249999998,77.1476275" fill="none" stroke="rgb(63,63,63)" stroke-width="0.1"/>
  <path d="M 17.902702499999975,73.34762749999999 L 16.16770249999996,73.94962749999999" fill="none" stroke="rgb(63,63,63)" stroke-width="0.1"/>
  <path d="M 16.16770249999996,73.94962749999999 L 15.602702499999964,77.1476275" fill="none" stroke="rgb(63,63,63)" stroke-width="0.1"/>
  <path d="M 0.0,73.65896645965418 L 0.8377024999999776,73.94962749999999" fill="none" stroke="rgb(63,63,63)" stroke-width="0.1"/>
  <path d="M 0.8377024999999776,73.94962749999999 L 1.4027024999999753,77.1476275" fill="none" stroke="rgb(63,63,63)" stroke-width="0.1"/>
 </g>
 <g id="layerS-幕墙" inkscape:groupmode="layer" inkscape:label="S-幕墙">
  <path d="M 51.5027025,1.247627499999993 L 91.5027025,1.247627499999993" fill="none" stroke="rgb(0,0,178)" stroke-width="0.1"/>
  <path d="M 51.5027025,0.6476274999999987 L 91.5027025,0.6476274999999987" fill="none" stroke="rgb(0,0,178)" stroke-width="0.1"/>
  <path d="M 100.0,11.247627499999993 L 0.0,11.247627499999993" fill="none" stroke="rgb(0,178,178)" stroke-width="0.1"/>
  <path d="M 66.5027025,0.0 L 66.5027025,5.747627499999993" fill="none" stroke="rgb(0,178,178)" stroke-width="0.1"/>
  <path d="M 66.5027025,5.747627499999993 L 76.5027025,5.747627499999993" fill="none" stroke="rgb(0,178,178)" stroke-width="0.1"/>
  <path d="M 76.5027025,5.747627499999993 L 76.5027025,0.0" fill="none" stroke="rgb(0,178,178)" stroke-width="0.1"/>
  <path d="M 24.502702499999998,0.0 L 24.502702499999998,5.747627499999993" fill="none" stroke="rgb(0,178,178)" stroke-width="0.1"/>
  <path d="M 24.502702499999998,5.747627499999993 L 34.5027025,5.747627499999993" fill="none" stroke="rgb(0,178,178)" stroke-width="0.1"/>
  <path d="M 34.5027025,5.747627499999993 L 34.5027025,0.0" fill="none" stroke="rgb(0,178,178)" stroke-width="0.1"/>
  <path d="M 76.42896111968207,0.0 L 75.2527025,4.025627499999985" fill="none" stroke="rgb(0,178,178)" stroke-width="0.1"/>
  <path d="M 75.2527025,4.025627499999985 L 66.5027025,5.747627499999993" fill="none" stroke="rgb(0,178,178)" stroke-width="0.1"/>
  <path d="M 34.42896111968207,0.0 L 33.2527025,4.025627499999985" fill="none" stroke="rgb(0,178,178)" stroke-width="0.1"/>
  <path d="M 33.2527025,4.025627499999985 L 24.502702499999998,5.747627499999993" fill="none" stroke="rgb(0,178,178)" stroke-width="0.1"/>
 </g>
 <g id="layerS-看线" inkscape:groupmode="layer" inkscape:label="S-看线">
  <path d="M 8.502702499999998,80.2476275 L 8.502702499999998,98.2476275" fill="none" stroke="rgb(178,0,178)" stroke-width="0.1"/>
  <path d="M 100.0,73.34762749999999 L 99.60270249999996,73.34762749999999" fill="none" stroke="rgb(0,178,178)" stroke-width="0.1"/>
  <path d="M 99.60270249999996,73.34762749999999 L 99.60270249999996,77.1476275" fill="none" stroke="rgb(0,178,178)" stroke-width="0.1"/>
  <path d="M 99.60270249999996,77.1476275 L 100.0,77.1476275" fill="none" stroke="rgb(0,178,178)" stroke-width="0.1"/>
  <path d="M 83.10270249999996,73.34762749999999 L 85.40270249999998,73.34762749999999" fill="none" stroke="rgb(0,178,178)" stroke-width="0.1"/>
  <path d="M 85.40270249999998,73.34762749999999 L 85.40270249999998,77.1476275" fill="none" stroke="rgb(0,178,178)" stroke-width="0.1"/>
  <path d="M 85.40270249999998,77.1476275 L 83.10270249999996,77.1476275" fill="none" stroke="rgb(0,178,178)" stroke-width="0.1"/>
  <path d="M 83.10270249999996,77.1476275 L 83.10270249999996,73.34762749999999" fill="none" stroke="rgb(0,178,178)" stroke-width="0.1"/>
  <path d="M 17.902702499999975,73.34762749999999 L 15.602702499999964,73.34762749999999" fill="none" stroke="rgb(0,178,178)" stroke-width="0.1"/>
  <path d="M 15.602702499999964,73.34762749999999 L 15.602702499999964,77.1476275" fill="none" stroke="rgb(0,178,178)" stroke-width="0.1"/>
  <path d="M 15.602702499999964,77.1476275 L 17.902702499999975,77.1476275" fill="none" stroke="rgb(0,178,178)" stroke-width="0.1"/>
  <path d="M 17.902702499999975,77.1476275 L 17.902702499999975,73.34762749999999" fill="none" stroke="rgb(0,178,178)" stroke-width="0.1"/>
  <path d="M 0.0,73.34762749999999 L 1.4027024999999753,73.34762749999999" fill="none" stroke="rgb(0,178,178)" stroke-width="0.1"/>
  <path d="M 1.4027024999999753,73.34762749999999 L 1.4027024999999753,77.1476275" fill="none" stroke="rgb(0,178,178)" stroke-width="0.1"/>
  <path d="M 1.4027024999999753,77.1476275 L 0.0,77.1476275" fill="none" stroke="rgb(0,178,178)" stroke-width="0.1"/>
  <path d="M 100.0,73.2476275 L 99.5027025,73.2476275" fill="none" stroke="rgb(0,178,178)" stroke-width="0.1"/>
  <path d="M 99.5027025,73.2476275 L 99.5027025,77.2476275" fill="none" stroke="rgb(0,178,178)" stroke-width="0.1"/>
  <path d="M 99.5027025,77.2476275 L 100.0,77.2476275" fill="none" stroke="rgb(0,178,178)" stroke-width="0.1"/>
  <path d="M 83.0027025,73.2476275 L 85.5027025,73.2476275" fill="none" stroke="rgb(0,178,178)" stroke-width="0.1"/>
  <path d="M 85.5027025,73.2476275 L 85.5027025,77.2476275" fill="none" stroke="rgb(0,178,178)" stroke-width="0.1"/>
  <path d="M 85.5027025,77.2476275 L 83.0027025,77.2476275" fill="none" stroke="rgb(0,178,178)" stroke-width="0.1"/>
  <path d="M 83.0027025,77.2476275 L 83.0027025,73.2476275" fill="none" stroke="rgb(0,178,178)" stroke-width="0.1"/>
  <path d="M 18.002702499999998,73.2476275 L 15.502702499999998,73.2476275" fill="none" stroke="rgb(0,178,178)" stroke-width="0.1"/>
  <path d="M 15.502702499999998,73.2476275 L 15.502702499999998,77.2476275" fill="none" stroke="rgb(0,178,178)" stroke-width="0.1"/>
  <path d="M 15.502702499999998,77.2476275 L 18.002702499999998,77.2476275" fill="none" stroke="rgb(0,178,178)" stroke-width="0.1"/>
  <path d="M 18.002702499999998,77.2476275 L 18.002702499999998,73.2476275" fill="none" stroke="rgb(0,178,178)" stroke-width="0.1"/>
  <path d="M 0.0,73.2476275 L 1.502702499999998,73.2476275" fill="none" stroke="rgb(0,178,178)" stroke-width="0.1"/>
  <path d="M 1.502702499999998,73.2476275 L 1.502702499999998,77.2476275" fill="none" stroke="rgb(0,178,178)" stroke-width="0.1"/>
  <path d="M 1.502702499999998,77.2476275 L 0.0,77.2476275" fill="none" stroke="rgb(0,178,178)" stroke-width="0.1"/>
  <circle cx="53.5027025" cy="4.247627499999993" fill="none" r="0.4" stroke="rgb(0,178,178)" stroke-width="0.1"/>
  <circle cx="47.5027025" cy="4.247627499999993" fill="none" r="0.4" stroke="rgb(0,178,178)" stroke-width="0.1"/>
 </g>
 <g id="layerS-结构钢柱" inkscape:groupmode="layer" inkscape:label="S-结构钢柱">
  <path d="M 10.752702499999998,100.0 L 10.752702499999998,98.2476275" fill="none" stroke="rgb(178,178,0)" stroke-width="0.1"/>
  <path d="M 10.752702499999998,98.2476275 L 5.752702499999998,98.2476275" fill="none" stroke="rgb(178,178,0)" stroke-width="0.1"/>
  <path d="M 5.752702499999998,98.2476275 L 5.752702499999998,100.0" fill="none" stroke="rgb(178,178,0)" stroke-width="0.1"/>
  <path d="M 10.502702499999998,100.0 L 10.502702499999998,98.4976275" fill="none" stroke="rgb(178,178,0)" stroke-width="0.1"/>
  <path d="M 10.502702499999998,98.4976275 L 6.002702499999998,98.4976275" fill="none" stroke="rgb(178,178,0)" stroke-width="0.1"/>
  <path d="M 6.002702499999998,98.4976275 L 6.002702499999998,100.0" fill="none" stroke="rgb(178,178,0)" stroke-width="0.1"/>
  <path d="M 5.752702499999998,8.747627499999993 L 11.252702499999998,8.747627499999993" fill="none" stroke="rgb(178,178,0)" stroke-width="0.1"/>
  <path d="M 11.252702499999998,8.747627499999993 L 11.252702499999998,3.247627499999993" fill="none" stroke="rgb(178,178,0)" stroke-width="0.1"/>
  <path d="M 11.252702499999998,3.247627499999993 L 5.752702499999998,3.247627499999993" fill="none" stroke="rgb(178,178,0)" stroke-width="0.1"/>
  <path d="M 5.752702499999998,3.247627499999993 L 5.752702499999998,8.747627499999993" fill="none" stroke="rgb(178,178,0)" stroke-width="0.1"/>
  <path d="M 6.002702499999998,8.497627499999993 L 11.002702499999998,8.497627499999993" fill="none" stroke="rgb(178,178,0)" stroke-width="0.1"/>
  <path d="M 11.002702499999998,8.497627499999993 L 11.002702499999998,3.497627499999993" fill="none" stroke="rgb(178,178,0)" stroke-width="0.1"/>
  <path d="M 11.002702499999998,3.497627499999993 L 6.002702499999998,3.497627499999993" fill="none" stroke="rgb(178,178,0)" stroke-width="0.1"/>
  <path d="M 6.002702499999998,3.497627499999993 L 6.002702499999998,8.497627499999993" fill="none" stroke="rgb(178,178,0)" stroke-width="0.1"/>
  <path d="M 95.2527025,100.0 L 95.2527025,98.2476275" fill="none" stroke="rgb(178,178,0)" stroke-width="0.1"/>
  <path d="M 95.2527025,98.2476275 L 89.7527025,98.2476275" fill="none" stroke="rgb(178,178,0)" stroke-width="0.1"/>
  <path d="M 89.7527025,98.2476275 L 89.7527025,100.0" fill="none" stroke="rgb(178,178,0)" stroke-width="0.1"/>
  <path d="M 95.0027025,100.0 L 95.0027025,98.4976275" fill="none" stroke="rgb(178,178,0)" stroke-width="0.1"/>
  <path d="M 95.0027025,98.4976275 L 90.0027025,98.4976275" fill="none" stroke="rgb(178,178,0)" stroke-width="0.1"/>
  <path d="M 90.0027025,98.4976275 L 90.0027025,100.0" fill="none" stroke="rgb(178,178,0)" stroke-width="0.1"/>
  <path d="M 89.7527025,8.747627499999993 L 95.2527025,8.747627499999993" fill="none" stroke="rgb(178,178,0)" stroke-width="0.1"/>
  <path d="M 95.2527025,8.747627499999993 L 95.2527025,3.247627499999993" fill="none" stroke="rgb(178,178,0)" stroke-width="0.1"/>
  <path d="M 95.2527025,3.247627499999993 L 89.7527025,3.247627499999993" fill="none" stroke="rgb(178,178,0)" stroke-width="0.1"/>
  <path d="M 89.7527025,3.247627499999993 L 89.7527025,8.747627499999993" fill="none" stroke="rgb(178,178,0)" stroke-width="0.1"/>
  <path d="M 90.0027025,8.497627499999993 L 95.0027025,8.497627499999993" fill="none" stroke="rgb(178,178,0)" stroke-width="0.1"/>
  <path d="M 95.0027025,8.497627499999993 L 95.0027025,3.497627499999993" fill="none" stroke="rgb(178,178,0)" stroke-width="0.1"/>
  <path d="M 95.0027025,3.497627499999993 L 90.0027025,3.497627499999993" fill="none" stroke="rgb(178,178,0)" stroke-width="0.1"/>
  <path d="M 90.0027025,3.497627499999993 L 90.0027025,8.497627499999993" fill="none" stroke="rgb(178,178,0)" stroke-width="0.1"/>
  <path d="M 10.502702499999998,100.0 L 10.502702499999998,98.4976275" fill="none" stroke="rgb(63,63,63)" stroke-width="0.1"/>
  <path d="M 10.502702499999998,98.4976275 L 6.002702499999998,98.4976275" fill="none" stroke="rgb(63,63,63)" stroke-width="0.1"/>
  <path d="M 6.002702499999998,98.4976275 L 6.002702499999998,100.0" fill="none" stroke="rgb(63,63,63)" stroke-width="0.1"/>
  <path d="M 6.002702499999998,8.497627499999993 L 11.002702499999998,8.497627499999993" fill="none" stroke="rgb(63,63,63)" stroke-width="0.1"/>
  <path d="M 11.002702499999998,8.497627499999993 L 11.002702499999998,3.497627499999993" fill="none" stroke="rgb(63,63,63)" stroke-width="0.1"/>
  <path d="M 11.002702499999998,3.497627499999993 L 6.002702499999998,3.497627499999993" fill="none" stroke="rgb(63,63,63)" stroke-width="0.1"/>
  <path d="M 6.002702499999998,3.497627499999993 L 6.002702499999998,8.497627499999993" fill="none" stroke="rgb(63,63,63)" stroke-width="0.1"/>
  <path d="M 95.0027025,100.0 L 95.0027025,98.4976275" fill="none" stroke="rgb(63,63,63)" stroke-width="0.1"/>
  <path d="M 95.0027025,98.4976275 L 90.0027025,98.4976275" fill="none" stroke="rgb(63,63,63)" stroke-width="0.1"/>
  <path d="M 90.0027025,98.4976275 L 90.0027025,100.0" fill="none" stroke="rgb(63,63,63)" stroke-width="0.1"/>
  <path d="M 90.0027025,8.497627499999993 L 95.0027025,8.497627499999993" fill="none" stroke="rgb(63,63,63)" stroke-width="0.1"/>
  <path d="M 95.0027025,8.497627499999993 L 95.0027025,3.497627499999993" fill="none" stroke="rgb(63,63,63)" stroke-width="0.1"/>
  <path d="M 95.0027025,3.497627499999993 L 90.0027025,3.497627499999993" fill="none" stroke="rgb(63,63,63)" stroke-width="0.1"/>
  <path d="M 90.0027025,3.497627499999993 L 90.0027025,8.497627499999993" fill="none" stroke="rgb(63,63,63)" stroke-width="0.1"/>
 </g>
 <g id="layerVPIPE-消防" inkscape:groupmode="layer" inkscape:label="VPIPE-消防">
  <circle cx="98.40270249999998" cy="77.1476275" fill="none" r="0.6" stroke="rgb(178,0,0)" stroke-width="0.1"/>
 </g>
 <g id="layerWALL" inkscape:groupmode="layer" inkscape:label="WALL">
  <path d="M 9.502702499999998,0.0 L 9.502702499999998,72.2476275" fill="none" instance-id="-1" semantic-id="1" stroke="rgb(178,178,0)" stroke-width="0.1"/>
  <path d="M 7.502702499999998,0.0 L 7.502702499999998,72.2476275" fill="none" instance-id="-1" semantic-id="1" stroke="rgb(178,178,0)" stroke-width="0.1"/>
  <path d="M 9.502702499999998,72.2476275 L 7.502702499999998,72.2476275" fill="none" instance-id="-1" semantic-id="1" stroke="rgb(178,178,0)" stroke-width="0.1"/>
  <path d="M 49.5027025,78.2476275 L 42.5027025,78.2476275" fill="none" instance-id="-1" semantic-id="1" stroke="rgb(178,178,0)" stroke-width="0.1"/>
  <path d="M 42.5027025,78.2476275 L 42.5027025,80.2476275" fill="none" instance-id="-1" semantic-id="1" stroke="rgb(178,178,0)" stroke-width="0.1"/>
  <path d="M 42.5027025,80.2476275 L 50.5027025,80.2476275" fill="none" instance-id="-1" semantic-id="1" stroke="rgb(178,178,0)" stroke-width="0.1"/>
  <path d="M 19.002702499999998,80.2476275 L 31.502702499999998,80.2476275" fill="none" instance-id="-1" semantic-id="1" stroke="rgb(178,178,0)" stroke-width="0.1"/>
  <path d="M 31.502702499999998,80.2476275 L 31.502702499999998,78.2476275" fill="none" instance-id="-1" semantic-id="1" stroke="rgb(178,178,0)" stroke-width="0.1"/>
  <path d="M 31.502702499999998,78.2476275 L 19.002702499999998,78.2476275" fill="none" instance-id="-1" semantic-id="1" stroke="rgb(178,178,0)" stroke-width="0.1"/>
  <path d="M 19.002702499999998,78.2476275 L 19.002702499999998,80.2476275" fill="none" instance-id="-1" semantic-id="1" stroke="rgb(178,178,0)" stroke-width="0.1"/>
  <path d="M 93.5027025,0.0 L 93.5027025,72.2476275" fill="none" instance-id="-1" semantic-id="1" stroke="rgb(178,178,0)" stroke-width="0.1"/>
  <path d="M 91.5027025,0.0 L 91.5027025,72.2476275" fill="none" instance-id="-1" semantic-id="1" stroke="rgb(178,178,0)" stroke-width="0.1"/>
  <path d="M 93.5027025,72.2476275 L 91.5027025,72.2476275" fill="none" instance-id="-1" semantic-id="1" stroke="rgb(178,178,0)" stroke-width="0.1"/>
  <path d="M 51.5027025,0.0 L 51.5027025,78.2476275" fill="none" instance-id="-1" semantic-id="1" stroke="rgb(178,178,0)" stroke-width="0.1"/>
  <path d="M 49.5027025,0.0 L 49.5027025,78.2476275" fill="none" instance-id="-1" semantic-id="1" stroke="rgb(178,178,0)" stroke-width="0.1"/>
  <path d="M 50.5027025,80.2476275 L 58.5027025,80.2476275" fill="none" instance-id="-1" semantic-id="1" stroke="rgb(178,178,0)" stroke-width="0.1"/>
  <path d="M 58.5027025,80.2476275 L 58.5027025,78.2476275" fill="none" instance-id="-1" semantic-id="1" stroke="rgb(178,178,0)" stroke-width="0.1"/>
  <path d="M 58.5027025,78.2476275 L 51.5027025,78.2476275" fill="none" instance-id="-1" semantic-id="1" stroke="rgb(178,178,0)" stroke-width="0.1"/>
  <path d="M 82.0027025,78.2476275 L 69.5027025,78.2476275" fill="none" instance-id="-1" semantic-id="1" stroke="rgb(178,178,0)" stroke-width="0.1"/>
  <path d="M 69.5027025,78.2476275 L 69.5027025,80.2476275" fill="none" instance-id="-1" semantic-id="1" stroke="rgb(178,178,0)" stroke-width="0.1"/>
  <path d="M 69.5027025,80.2476275 L 82.0027025,80.2476275" fill="none" instance-id="-1" semantic-id="1" stroke="rgb(178,178,0)" stroke-width="0.1"/>
  <path d="M 82.0027025,80.2476275 L 82.0027025,78.2476275" fill="none" instance-id="-1" semantic-id="1" stroke="rgb(178,178,0)" stroke-width="0.1"/>
  <path d="M 100.0,98.2476275 L 95.5027025,98.2476275" fill="none" instance-id="-1" semantic-id="1" stroke="rgb(178,178,0)" stroke-width="0.1"/>
  <path d="M 95.5027025,98.2476275 L 95.5027025,100.0" fill="none" instance-id="-1" semantic-id="1" stroke="rgb(178,178,0)" stroke-width="0.1"/>
  <path d="M 89.5027025,98.2476275 L 44.2527025,98.2476275" fill="none" instance-id="-1" semantic-id="1" stroke="rgb(178,178,0)" stroke-width="0.1"/>
  <path d="M 44.2527025,98.2476275 L 44.2527025,100.0" fill="none" instance-id="-1" semantic-id="1" stroke="rgb(178,178,0)" stroke-width="0.1"/>
  <path d="M 89.5027025,100.0 L 89.5027025,98.2476275" fill="none" instance-id="-1" semantic-id="1" stroke="rgb(178,178,0)" stroke-width="0.1"/>
  <path d="M 33.2527025,100.0 L 33.2527025,98.2476275" fill="none" instance-id="-1" semantic-id="1" stroke="rgb(178,178,0)" stroke-width="0.1"/>
  <path d="M 33.2527025,98.2476275 L 5.752702499999998,98.2476275" fill="none" instance-id="-1" semantic-id="1" stroke="rgb(178,178,0)" stroke-width="0.1"/>
  <path d="M 5.752702499999998,100.0 L 5.752702499999998,98.2476275" fill="none" instance-id="-1" semantic-id="1" stroke="rgb(178,178,0)" stroke-width="0.1"/>
  <path d="M 100.0,73.2476275 L 83.0027025,73.2476275" fill="none" instance-id="-1" semantic-id="1" stroke="rgb(178,178,0)" stroke-width="0.1"/>
  <path d="M 100.0,72.2476275 L 82.0027025,72.2476275" fill="none" instance-id="-1" semantic-id="1" stroke="rgb(178,178,0)" stroke-width="0.1"/>
  <path d="M 100.0,80.2476275 L 82.0027025,80.2476275" fill="none" instance-id="-1" semantic-id="1" stroke="rgb(178,178,0)" stroke-width="0.1"/>
  <path d="M 100.0,78.2476275 L 83.0027025,78.2476275" fill="none" instance-id="-1" semantic-id="1" stroke="rgb(178,178,0)" stroke-width="0.1"/>
  <path d="M 83.0027025,73.2476275 L 83.0027025,78.2476275" fill="none" instance-id="-1" semantic-id="1" stroke="rgb(178,178,0)" stroke-width="0.1"/>
  <path d="M 82.0027025,72.2476275 L 82.0027025,80.2476275" fill="none" instance-id="-1" semantic-id="1" stroke="rgb(178,178,0)" stroke-width="0.1"/>
  <path d="M 19.002702499999998,72.2476275 L 19.002702499999998,80.2476275" fill="none" instance-id="-1" semantic-id="1" stroke="rgb(178,178,0)" stroke-width="0.1"/>
  <path d="M 18.002702499999998,73.2476275 L 18.002702499999998,78.2476275" fill="none" instance-id="-1" semantic-id="1" stroke="rgb(178,178,0)" stroke-width="0.1"/>
  <path d="M 18.002702499999998,73.2476275 L 0.0,73.2476275" fill="none" instance-id="-1" semantic-id="1" stroke="rgb(178,178,0)" stroke-width="0.1"/>
  <path d="M 19.002702499999998,72.2476275 L 0.0,72.2476275" fill="none" instance-id="-1" semantic-id="1" stroke="rgb(178,178,0)" stroke-width="0.1"/>
  <path d="M 19.002702499999998,80.2476275 L 0.0,80.2476275" fill="none" instance-id="-1" semantic-id="1" stroke="rgb(178,178,0)" stroke-width="0.1"/>
  <path d="M 18.002702499999998,78.2476275 L 0.0,78.2476275" fill="none" instance-id="-1" semantic-id="1" stroke="rgb(178,178,0)" stroke-width="0.1"/>
  <path d="M 82.0027025,72.2476275 L 82.0027025,80.2476275" fill="none" instance-id="-1" semantic-id="1" stroke="rgb(178,178,0)" stroke-width="0.1"/>
  <path d="M 82.0027025,80.2476275 L 100.0,80.2476275" fill="none" instance-id="-1" semantic-id="1" stroke="rgb(178,178,0)" stroke-width="0.1"/>
  <path d="M 100.0,72.2476275 L 82.0027025,72.2476275" fill="none" instance-id="-1" semantic-id="1" stroke="rgb(178,178,0)" stroke-width="0.1"/>
  <path d="M 0.0,80.2476275 L 19.002702499999998,80.2476275" fill="none" instance-id="-1" semantic-id="1" stroke="rgb(178,178,0)" stroke-width="0.1"/>
  <path d="M 19.002702499999998,80.2476275 L 19.002702499999998,72.2476275" fill="none" instance-id="-1" semantic-id="1" stroke="rgb(178,178,0)" stroke-width="0.1"/>
  <path d="M 19.002702499999998,72.2476275 L 0.0,72.2476275" fill="none" instance-id="-1" semantic-id="1" stroke="rgb(178,178,0)" stroke-width="0.1"/>
 </g>
 <g id="layerWINDOW" inkscape:groupmode="layer" inkscape:label="WINDOW">
  <path d="M 32.05270249999995,68.5226275 L 31.502702499999998,68.5226275" fill="none" instance-id="2" semantic-id="3" stroke="rgb(0,178,178)" stroke-width="0.1"/>
  <path d="M 31.502702499999998,79.2476275 L 32.05270249999995,79.2476275" fill="none" instance-id="2" semantic-id="3" stroke="rgb(0,178,178)" stroke-width="0.1"/>
  <path d="M 31.502702499999998,79.2476275 L 31.502702499999998,68.5226275" fill="none" instance-id="2" semantic-id="3" stroke="rgb(0,178,178)" stroke-width="0.1"/>
  <path d="M 32.05270249999995,79.2476275 L 32.05270249999995,68.5226275" fill="none" instance-id="2" semantic-id="3" stroke="rgb(0,178,178)" stroke-width="0.1"/>
  <path d="M 68.95270249999999,68.5226275 L 69.5027025,68.5226275" fill="none" instance-id="3" semantic-id="3" stroke="rgb(0,178,178)" stroke-width="0.1"/>
  <path d="M 69.5027025,79.2476275 L 68.95270249999999,79.2476275" fill="none" instance-id="3" semantic-id="3" stroke="rgb(0,178,178)" stroke-width="0.1"/>
  <path d="M 69.5027025,79.2476275 L 69.5027025,68.5226275" fill="none" instance-id="3" semantic-id="3" stroke="rgb(0,178,178)" stroke-width="0.1"/>
  <path d="M 68.95270249999999,79.2476275 L 68.95270249999999,68.5226275" fill="none" instance-id="3" semantic-id="3" stroke="rgb(0,178,178)" stroke-width="0.1"/>
  <path d="M 33.2527025,99.2476275 L 33.80270249999995,99.2476275" fill="none" stroke="rgb(0,178,178)" stroke-width="0.1"/>
  <path d="M 33.2527025,99.2476275 L 33.2527025,100.0" fill="none" stroke="rgb(0,178,178)" stroke-width="0.1"/>
  <path d="M 33.80270249999995,99.2476275 L 33.80270249999995,100.0" fill="none" stroke="rgb(0,178,178)" stroke-width="0.1"/>
  <path d="M 42.5027025,79.2476275 A 10.725,10.725 0.0 0,0 32.05270249999995,68.52562749999998" fill="none" instance-id="2" semantic-id="3" stroke="rgb(0,178,178)" stroke-width="0.1"/>
  <path d="M 68.95270249999999,68.52562749999998 A 10.725,10.725 0.0 0,0 58.5027025,79.2476275" fill="none" instance-id="3" semantic-id="3" stroke="rgb(0,178,178)" stroke-width="0.1"/>
  <path d="M 44.24092653460593,99.74960372647502 L 44.2527025,99.2476275" fill="none" stroke="rgb(0,178,178)" stroke-width="0.1"/>
 </g>
 <g id="layerWINDOW_TEXT" inkscape:groupmode="layer" inkscape:label="WINDOW_TEXT">
  <text fill="rgb(0,0,0)" font-family="Noto Sans CJK SC" font-size="2" transform="rotate(-360.0,77.30970249999996,3.4856274999999926)" x="77.30970249999996" y="3.4856274999999926">
   PTC2
  </text>
  <text fill="rgb(0,0,0)" font-family="Noto Sans CJK SC" font-size="2" transform="rotate(-360.0,16.309702499999958,3.4856274999999926)" x="16.309702499999958" y="3.4856274999999926">
   PTC2
  </text>
  <text fill="rgb(0,0,0)" font-family="Noto Sans CJK SC" font-size="2" transform="rotate(-0.0,32.45270249999999,84.48462749999999)" x="32.45270249999999" y="84.48462749999999">
   M1124
  </text>
  <text fill="rgb(0,0,0)" font-family="Noto Sans CJK SC" font-size="2" transform="rotate(-0.0,59.45270249999999,84.48462749999999)" x="59.45270249999999" y="84.48462749999999">
   M1124
  </text>
  <text fill="rgb(0,0,0)" font-family="Noto Sans CJK SC" font-size="2" transform="rotate(-0.0,34.20270249999999,96.98462749999999)" x="34.20270249999999" y="96.98462749999999">
   M1124
  </text>
 </g>
</svg>