<?xml version="1.0" encoding="utf-8"?>
<svg style="background-color: #000;" version="1.1" viewBox="0 0 100.0 100.0" xmlns="http://www.w3.org/2000/svg" xmlns:inkscape="http://www.inkscape.org/namespaces/inkscape">
 <g id="layerCOLUMN" inkscape:groupmode="layer" inkscape:label="COLUMN">
  <circle cx="40.537193000000116" cy="43.90255549999998" fill="none" r="4.5" stroke="rgb(134,134,134)" stroke-width="0.1"/>
 </g>
 <g id="layerCURTWALL" inkscape:groupmode="layer" inkscape:label="CURTWALL">
  <path d="M 70.87719300000003,86.90255549999998 L 70.87719300000003,100.0" fill="none" instance-id="-1" semantic-id="2" stroke="rgb(0,178,178)" stroke-width="0.1"/>
  <path d="M 70.20719299999996,86.90255549999998 L 70.20719299999996,100.0" fill="none" instance-id="-1" semantic-id="2" stroke="rgb(0,178,178)" stroke-width="0.1"/>
  <path d="M 71.53719300000012,86.90255549999998 L 71.53719300000012,100.0" fill="none" instance-id="-1" semantic-id="2" stroke="rgb(0,178,178)" stroke-width="0.1"/>
  <path d="M 69.53719300000012,86.90255549999998 L 69.53719300000012,100.0" fill="none" instance-id="-1" semantic-id="2" stroke="rgb(0,178,178)" stroke-width="0.1"/>
  <path d="M 0.0,25.56955549999998 L 9.537193000000116,25.56955549999998" fill="none" instance-id="-1" semantic-id="2" stroke="rgb(0,178,178)" stroke-width="0.1"/>
  <path d="M 0.0,26.235555499999975 L 9.537193000000116,26.235555499999975" fill="none" instance-id="-1" semantic-id="2" stroke="rgb(0,178,178)" stroke-width="0.1"/>
  <path d="M 0.0,24.902555499999977 L 9.537193000000116,24.902555499999977" fill="none" instance-id="-1" semantic-id="2" stroke="rgb(0,178,178)" stroke-width="0.1"/>
  <path d="M 0.0,26.902555499999977 L 9.537193000000116,26.902555499999977" fill="none" instance-id="-1" semantic-id="2" stroke="rgb(0,178,178)" stroke-width="0.1"/>
  <path d="M 70.20719299999996,86.90255549999998 A 60.6667,60.6667 0.0 0,0 9.537193000000116,26.235555499999975" fill="none" instance-id="-1" semantic-id="2" stroke="rgb(0,178,178)" stroke-width="0.1"/>
  <path d="M 70.87719300000003,86.90255549999998 A 61.3333,61.3333 0.0 0,0 9.537193000000116,25.56955549999998" fill="none" instance-id="-1" semantic-id="2" stroke="rgb(0,178,178)" stroke-width="0.1"/>
  <path d="M 69.53719300000012,86.90255549999998 A 60.0,60.0 0.0 0,0 9.537193000000116,26.902555499999977" fill="none" instance-id="-1" semantic-id="2" stroke="rgb(0,178,178)" stroke-width="0.1"/>
  <path d="M 71.53719300000012,86.90255549999998 A 62.0,62.0 0.0 0,0 9.537193000000116,24.902555499999977" fill="none" instance-id="-1" semantic-id="2" stroke="rgb(0,178,178)" stroke-width="0.1"/>
 </g>
 <g id="layerDOTE" inkscape:groupmode="layer" inkscape:label="DOTE">
  <path d="M 0.0,43.90255549999998 L 100.0,43.90255549999998" fill="none" stroke="rgb(178,0,0)" stroke-width="0.1"/>
  <path d="M 65.53719300000012,100.0 L 65.53719300000012,0.0" fill="none" stroke="rgb(178,0,0)" stroke-width="0.1"/>
 </g>
 <g id="layerPUB_DIM" inkscape:groupmode="layer" inkscape:label="PUB_DIM">
  <path d="M 77.08719300000007,86.15955549999998 L 97.64719300000002,84.13455549999998" fill="none" stroke="rgb(0,178,0)" stroke-width="0.1"/>
  <path d="M 75.93719299999998,74.4535555 L 96.48719299999993,72.42955549999999" fill="none" stroke="rgb(0,178,0)" stroke-width="0.1"/>
  <path d="M 75.64719300000002,72.9955555 L 95.407193,67.00055549999999" fill="none" stroke="rgb(0,178,0)" stroke-width="0.1"/>
  <path d="M 72.22719299999994,61.74055549999997 L 91.99719299999992,55.74455549999999" fill="none" stroke="rgb(0,178,0)" stroke-width="0.1"/>
  <path d="M 71.667193,60.366555499999976 L 89.87719300000003,50.630555499999986" fill="none" stroke="rgb(0,178,0)" stroke-width="0.1"/>
  <path d="M 66.11719300000004,49.993555499999985 L 84.33719300000007,40.257555499999995" fill="none" stroke="rgb(0,178,0)" stroke-width="0.1"/>
  <path d="M 65.2971930000001,48.757555499999995 L 81.25719300000014,35.65455549999999" fill="none" stroke="rgb(0,178,0)" stroke-width="0.1"/>
  <path d="M 57.82719300000008,39.66455549999998 L 73.7971930000001,26.562555499999974" fill="none" stroke="rgb(0,178,0)" stroke-width="0.1"/>
  <path d="M 56.777193000000125,38.61355549999999 L 69.87719300000003,22.648555499999986" fill="none" stroke="rgb(0,178,0)" stroke-width="0.1"/>
  <path d="M 47.68719299999998,31.151555499999972 L 60.787193000000116,15.186555499999997" fill="none" stroke="rgb(0,178,0)" stroke-width="0.1"/>
  <path d="M 46.44719299999997,30.326555499999984 L 56.18719299999998,12.11155549999998" fill="none" stroke="rgb(0,178,0)" stroke-width="0.1"/>
  <path d="M 36.07719300000008,24.781555499999996 L 45.81719300000009,6.566555499999993" fill="none" stroke="rgb(0,178,0)" stroke-width="0.1"/>
  <path d="M 34.70719299999996,24.21255549999998 L 40.69719299999997,4.448555499999998" fill="none" stroke="rgb(0,178,0)" stroke-width="0.1"/>
  <path d="M 23.44719299999997,20.798555499999992 L 29.44719299999997,1.034555499999982" fill="none" stroke="rgb(0,178,0)" stroke-width="0.1"/>
  <path d="M 22.117193000000043,20.547555499999987 L 24.477192999999943,0.030555499999991298" fill="none" stroke="rgb(0,178,0)" stroke-width="0.1"/>
  <path d="M 12.407193000000007,19.427555499999983 L 14.651346947214734,0.0" fill="none" stroke="rgb(0,178,0)" stroke-width="0.1"/>
  <path d="M 93.907193,84.50255549999997 A 84.4032,84.4032 0.0 0,0 92.75719300000014,72.79655549999998" fill="none" stroke="rgb(0,178,0)" stroke-width="0.1"/>
  <path d="M 99.77759972420608,73.39403336279844 L 99.37719300000003,73.08055549999997" fill="none" stroke="rgb(0,0,0)" stroke-width="0.1"/>
  <path d="M 91.81719300000009,68.08855549999998 A 84.4032,84.4032 0.0 0,0 88.407193,56.83355549999999" fill="none" stroke="rgb(0,178,0)" stroke-width="0.1"/>
  <path d="M 97.82719300000008,65.2935555 A 6.60638,6.60638 0.0 0,0 94.95719299999996,55.81955549999998" fill="none" stroke="rgb(0,0,0)" stroke-width="0.1"/>
  <path d="M 86.56719300000009,52.398555499999986 A 84.4032,84.4032 0.0 0,0 81.02719300000012,42.025555499999996" fill="none" stroke="rgb(0,178,0)" stroke-width="0.1"/>
  <path d="M 91.917193,48.4845555 A 6.60638,6.60638 0.0 0,0 87.24719299999992,39.753555499999976" fill="none" stroke="rgb(0,0,0)" stroke-width="0.1"/>
  <path d="M 78.35719300000005,38.03355549999998 A 84.4032,84.4032 0.0 0,0 70.89719300000002,28.941555499999993" fill="none" stroke="rgb(0,178,0)" stroke-width="0.1"/>
  <path d="M 82.83719300000007,33.15155549999997 A 6.60638,6.60638 0.0 0,0 76.5571930000001,25.49855549999998" fill="none" stroke="rgb(0,0,0)" stroke-width="0.1"/>
  <path d="M 67.50719300000014,25.547555499999987 A 84.4032,84.4032 0.0 0,0 58.40719300000001,18.085555499999998" fill="none" stroke="rgb(0,178,0)" stroke-width="0.1"/>
  <path d="M 70.94719299999997,19.884555499999976 A 6.60638,6.60638 0.0 0,0 63.29719300000011,13.604555499999975" fill="none" stroke="rgb(0,0,0)" stroke-width="0.1"/>
  <path d="M 54.417193,15.418555499999997 A 84.4032,84.4032 0.0 0,0 44.04719300000011,9.874555499999985" fill="none" stroke="rgb(0,178,0)" stroke-width="0.1"/>
  <path d="M 56.68719299999998,9.193555499999974 A 6.60638,6.60638 0.0 0,0 47.95719299999996,4.526555499999972" fill="none" stroke="rgb(0,0,0)" stroke-width="0.1"/>
  <path d="M 39.60719300000005,8.037555499999996 A 84.4032,84.4032 0.0 0,0 28.357193000000052,4.622555499999976" fill="none" stroke="rgb(0,178,0)" stroke-width="0.1"/>
  <path d="M 40.627193000000034,1.487555499999985 L 40.397864269579486,1.0332084015055187" fill="none" stroke="rgb(0,0,0)" stroke-width="0.1"/>
  <path d="M 40.397864269579486,1.0332084015055187 L 40.13423999528959,0.5978634870851351" fill="none" stroke="rgb(0,0,0)" stroke-width="0.1"/>
  <path d="M 40.13423999528959,0.5978634870851351 L 39.83788475270171,0.1841044718391771" fill="none" stroke="rgb(0,0,0)" stroke-width="0.1"/>
  <path d="M 24.047193000000107,3.7555554999999856 A 84.4032,84.4032 0.0 0,0 14.347193000000061,2.636555499999986" fill="none" stroke="rgb(0,178,0)" stroke-width="0.1"/>
  <path d="M 93.907193,84.50255549999997 L 93.77719300000012,81.50555549999999" fill="none" stroke="rgb(0,178,0)" stroke-width="0.1"/>
  <path d="M 93.20719299999996,75.7635555 L 92.75719300000014,72.79655549999998" fill="none" stroke="rgb(0,178,0)" stroke-width="0.1"/>
  <path d="M 91.81719300000009,68.08855549999998 L 91.09719300000006,65.17655549999998" fill="none" stroke="rgb(0,178,0)" stroke-width="0.1"/>
  <path d="M 89.42719299999999,59.65455549999999 L 88.407193,56.83355549999999" fill="none" stroke="rgb(0,178,0)" stroke-width="0.1"/>
  <path d="M 86.56719300000009,52.398555499999986 L 85.2971930000001,49.68255549999998" fill="none" stroke="rgb(0,178,0)" stroke-width="0.1"/>
  <path d="M 82.57719300000008,44.59355549999998 L 81.02719300000012,42.025555499999996" fill="none" stroke="rgb(0,178,0)" stroke-width="0.1"/>
  <path d="M 78.35719300000005,38.03355549999998 L 76.57719300000008,35.61955549999999" fill="none" stroke="rgb(0,178,0)" stroke-width="0.1"/>
  <path d="M 72.917193,31.158555499999977 L 70.89719300000002,28.941555499999993" fill="none" stroke="rgb(0,178,0)" stroke-width="0.1"/>
  <path d="M 67.50719300000014,25.547555499999987 L 65.28719300000012,23.526555499999972" fill="none" stroke="rgb(0,178,0)" stroke-width="0.1"/>
  <path d="M 60.82719300000008,19.86555549999997 L 58.40719300000001,18.085555499999998" fill="none" stroke="rgb(0,178,0)" stroke-width="0.1"/>
  <path d="M 54.417193,15.418555499999997 L 51.84719300000006,13.86955549999999" fill="none" stroke="rgb(0,178,0)" stroke-width="0.1"/>
  <path d="M 46.75719300000014,11.148555499999986 L 44.04719300000011,9.874555499999985" fill="none" stroke="rgb(0,178,0)" stroke-width="0.1"/>
  <path d="M 39.60719300000005,8.037555499999996 L 36.787193000000116,7.018555499999991" fill="none" stroke="rgb(0,178,0)" stroke-width="0.1"/>
  <path d="M 31.267193000000134,5.3435554999999795 L 28.357193000000052,4.622555499999976" fill="none" stroke="rgb(0,178,0)" stroke-width="0.1"/>
  <path d="M 24.047193000000107,3.7555554999999856 L 21.08719300000007,3.2925554999999918" fill="none" stroke="rgb(0,178,0)" stroke-width="0.1"/>
  <path d="M 17.33719300000007,2.859555499999985 L 14.347193000000061,2.636555499999986" fill="none" stroke="rgb(0,178,0)" stroke-width="0.1"/>
  <path d="M 17.107193000000052,80.36655549999998 L 53.43719299999998,48.99255549999998" fill="none" stroke="rgb(0,178,0)" stroke-width="0.1"/>
  <path d="M 53.43719299999998,48.99255549999998 L 56.46719299999995,46.37755549999997" fill="none" stroke="rgb(0,178,0)" stroke-width="0.1"/>
  <text fill="rgb(0,0,0)" font-family="Noto Sans CJK SC" font-size="2" transform="rotate(-275.625,94.93719299999998,73.51755549999999)" x="94.93719299999998" y="73.51755549999999">
   1178
  </text>
  <text fill="rgb(0,0,0)" font-family="Noto Sans CJK SC" font-size="2" transform="rotate(-286.875,90.68719299999998,57.114555499999994)" x="90.68719299999998" y="57.114555499999994">
   1178
  </text>
  <text fill="rgb(0,0,0)" font-family="Noto Sans CJK SC" font-size="2" transform="rotate(-298.125,83.31719300000009,41.856555499999985)" x="83.31719300000009" y="41.856555499999985">
   1178
  </text>
  <text fill="rgb(0,0,0)" font-family="Noto Sans CJK SC" font-size="2" transform="rotate(-309.375,73.10719300000005,28.329555499999998)" x="73.10719300000005" y="28.329555499999998">
   1178
  </text>
  <text fill="rgb(0,0,0)" font-family="Noto Sans CJK SC" font-size="2" transform="rotate(-320.625,60.45719299999996,17.053555499999987)" x="60.45719299999996" y="17.053555499999987">
   1178
  </text>
  <text fill="rgb(0,0,0)" font-family="Noto Sans CJK SC" font-size="2" transform="rotate(-331.875,45.85719300000005,8.461555499999974)" x="45.85719300000005" y="8.461555499999974">
   1178
  </text>
  <text fill="rgb(0,0,0)" font-family="Noto Sans CJK SC" font-size="2" transform="rotate(-343.125,29.857193000000052,2.8845554999999905)" x="29.857193000000052" y="2.8845554999999905">
   1178
  </text>
  <text fill="rgb(0,0,0)" font-family="Noto Sans CJK SC" font-size="2" transform="rotate(-353.42,15.407193000000007,0.7095554999999791)" x="15.407193000000007" y="0.7095554999999791">
   978
  </text>
  <text fill="rgb(0,0,0)" font-family="Noto Sans CJK SC" font-size="2" transform="rotate(-40.8153,16.977192999999943,77.14855549999999)" x="16.977192999999943" y="77.14855549999999">
   R6200
  </text>
 </g>
 <g id="layerPUB_HATCH" inkscape:groupmode="layer" inkscape:label="PUB_HATCH">
  <path d="M 38.287193000000116,43.90255549999998 L 42.787193000000116,43.90255549999998" fill="none" stroke="rgb(89,89,89)" stroke-width="0.1"/>
  <path d="M 42.787193000000116,43.90255549999998 L 38.287193000000116,43.90255549999998" fill="none" stroke="rgb(89,89,89)" stroke-width="0.1"/>
 </g>
 <g id="layerTK_LABEL" inkscape:groupmode="layer" inkscape:label="TK_LABEL">
  <path d="M 21.247192999999925,28.055555499999997 L 21.637193000000025,26.09355549999998" fill="none" stroke="rgb(178,178,0)" stroke-width="0.1"/>
  <path d="M 32.50719300000014,31.469555499999984 L 33.267193000000134,29.62155549999997" fill="none" stroke="rgb(178,178,0)" stroke-width="0.1"/>
  <path d="M 42.877193000000034,37.01455549999997 L 43.987192999999934,35.35155549999999" fill="none" stroke="rgb(178,178,0)" stroke-width="0.1"/>
  <path d="M 59.42719299999999,53.568555499999974 L 61.09719300000006,52.457555499999984" fill="none" stroke="rgb(178,178,0)" stroke-width="0.1"/>
  <path d="M 64.97719299999994,63.94155549999999 L 66.82719300000008,63.17655549999998" fill="none" stroke="rgb(178,178,0)" stroke-width="0.1"/>
  <path d="M 68.38719300000002,75.19755549999999 L 70.34719300000006,74.80655549999997" fill="none" stroke="rgb(178,178,0)" stroke-width="0.1"/>
  <path d="M 51.96719299999995,44.47655549999999 L 53.387193000000025,43.0615555" fill="none" stroke="rgb(178,178,0)" stroke-width="0.1"/>
  <path d="M 11.537193000000116,26.935555499999992 L 11.537193000000116,24.934555499999988" fill="none" stroke="rgb(178,178,0)" stroke-width="0.1"/>
  <path d="M 71.53719300000012,86.90255549999998 L 69.53719300000012,86.90255549999998" fill="none" stroke="rgb(178,178,0)" stroke-width="0.1"/>
  <path d="M 71.53719300000012,98.90255549999998 L 69.53719300000012,98.90255549999998" fill="none" stroke="rgb(178,178,0)" stroke-width="0.1"/>
 </g>
 <g id="layer投影线" inkscape:groupmode="layer" inkscape:label="投影线">
  <path d="M 0.0,18.902555499999977 L 9.537193000000116,18.902555499999977" fill="none" stroke="rgb(121,121,121)" stroke-width="0.1"/>
  <path d="M 77.53719300000012,86.90255549999998 A 68.0,68.0 0.0 0,0 9.537193000000116,18.902555499999977" fill="none" stroke="rgb(121,121,121)" stroke-width="0.1"/>
  <path d="M 77.53719300000012,86.90255549999998 L 77.53719300000012,100.0" fill="none" stroke="rgb(121,121,121)" stroke-width="0.1"/>
 </g>
 <g id="layer格栅" inkscape:groupmode="layer" inkscape:label="格栅">
  <path d="M 0.5371930000001157,24.902555499999977 L 0.5371930000001157,23.402555499999977" fill="none" stroke="rgb(255,194,12)" stroke-width="0.1"/>
  <path d="M 12.537193000000116,24.902555499999977 L 12.537193000000116,23.402555499999977" fill="none" stroke="rgb(255,194,12)" stroke-width="0.1"/>
  <path d="M 10.537193000000116,23.402555499999977 L 10.537193000000116,24.902555499999977" fill="none" stroke="rgb(255,194,12)" stroke-width="0.1"/>
  <path d="M 22.617193000000043,26.288555499999973 L 22.907193000000007,24.817555499999997" fill="none" stroke="rgb(255,194,12)" stroke-width="0.1"/>
  <path d="M 20.94719299999997,24.427555499999983 L 20.657193000000007,25.898555499999986" fill="none" stroke="rgb(255,194,12)" stroke-width="0.1"/>
  <path d="M 34.19719299999997,30.00455549999998 L 34.767193000000134,28.618555499999985" fill="none" stroke="rgb(255,194,12)" stroke-width="0.1"/>
  <path d="M 32.917193,27.8535555 L 32.34719300000006,29.239555499999994" fill="none" stroke="rgb(255,194,12)" stroke-width="0.1"/>
  <path d="M 44.81719300000009,35.906555499999996 L 45.65719300000001,34.65955549999998" fill="none" stroke="rgb(255,194,12)" stroke-width="0.1"/>
  <path d="M 43.987192999999934,33.54855549999999 L 43.15719300000001,34.79555549999998" fill="none" stroke="rgb(255,194,12)" stroke-width="0.1"/>
  <path d="M 54.08719300000007,43.76855549999999 L 55.147193000000016,42.70855549999999" fill="none" stroke="rgb(255,194,12)" stroke-width="0.1"/>
  <path d="M 53.737192999999934,41.29455549999997 L 52.67719299999999,42.354555499999975" fill="none" stroke="rgb(255,194,12)" stroke-width="0.1"/>
  <path d="M 61.647193000000016,53.28855549999997 L 62.897193000000016,52.455555499999974" fill="none" stroke="rgb(255,194,12)" stroke-width="0.1"/>
  <path d="M 61.787193000000116,50.79255549999999 L 60.537193000000116,51.62555549999999" fill="none" stroke="rgb(255,194,12)" stroke-width="0.1"/>
  <path d="M 67.19719299999997,64.08655549999997 L 68.58719300000007,63.51555549999998" fill="none" stroke="rgb(255,194,12)" stroke-width="0.1"/>
  <path d="M 67.82719300000008,61.66655549999999 L 66.43719299999998,62.23655549999998" fill="none" stroke="rgb(255,194,12)" stroke-width="0.1"/>
  <path d="M 70.53719300000012,75.77255549999998 L 72.00719300000014,75.4845555" fill="none" stroke="rgb(255,194,12)" stroke-width="0.1"/>
  <path d="M 71.62719300000003,73.52155549999998 L 70.157193,73.80955549999999" fill="none" stroke="rgb(255,194,12)" stroke-width="0.1"/>
  <path d="M 71.53719300000012,87.90255549999998 L 73.03719300000012,87.90255549999998" fill="none" stroke="rgb(255,194,12)" stroke-width="0.1"/>
  <path d="M 73.03719300000012,85.90255549999998 L 71.53719300000012,85.90255549999998" fill="none" stroke="rgb(255,194,12)" stroke-width="0.1"/>
  <path d="M 71.53719300000012,99.90255549999998 L 73.03719300000012,99.90255549999998" fill="none" stroke="rgb(255,194,12)" stroke-width="0.1"/>
  <path d="M 73.03719300000012,97.90255549999998 L 71.53719300000012,97.90255549999998" fill="none" stroke="rgb(255,194,12)" stroke-width="0.1"/>
  <path d="M 0.5371930000001157,23.402555499999977 A 31.2938,31.2938 0.0 0,0 0.38719300000002477,20.273555499999986" fill="none" stroke="rgb(255,194,12)" stroke-width="0.1"/>
  <path d="M 0.38719300000002477,20.273555499999986 L 0.24988389396094135,19.67439159129816" fill="none" stroke="rgb(255,194,12)" stroke-width="0.1"/>
  <path d="M 10.69719299999997,20.273555499999986 A 31.2938,31.2938 0.0 0,0 10.537193000000116,23.402555499999977" fill="none" stroke="rgb(255,194,12)" stroke-width="0.1"/>
  <path d="M 11.117193000000043,19.128555499999976 A 2.44005,2.44005 0.0 0,0 10.69719299999997,20.273555499999986" fill="none" stroke="rgb(255,194,12)" stroke-width="0.1"/>
  <path d="M 11.967192999999952,19.128555499999976 A 0.506294,0.506294 0.0 0,0 11.117193000000043,19.128555499999976" fill="none" stroke="rgb(255,194,12)" stroke-width="0.1"/>
  <path d="M 12.537193000000116,23.402555499999977 A 31.2938,31.2938 0.0 0,0 12.387193000000025,20.273555499999986" fill="none" stroke="rgb(255,194,12)" stroke-width="0.1"/>
  <path d="M 12.387193000000025,20.273555499999986 A 2.44005,2.44005 0.0 0,0 11.967192999999952,19.128555499999976" fill="none" stroke="rgb(255,194,12)" stroke-width="0.1"/>
  <path d="M 21.717192999999952,21.38955549999997 A 31.2938,31.2938 0.0 0,0 20.94719299999997,24.427555499999983" fill="none" stroke="rgb(255,194,12)" stroke-width="0.1"/>
  <path d="M 22.34719300000006,20.348555499999975 A 2.44005,2.44005 0.0 0,0 21.717192999999952,21.38955549999997" fill="none" stroke="rgb(255,194,12)" stroke-width="0.1"/>
  <path d="M 23.17719299999999,20.513555499999995 A 0.506294,0.506294 0.0 0,0 22.34719300000006,20.348555499999975" fill="none" stroke="rgb(255,194,12)" stroke-width="0.1"/>
  <path d="M 22.907193000000007,24.817555499999997 A 31.2938,31.2938 0.0 0,0 23.367193000000043,21.71855549999998" fill="none" stroke="rgb(255,194,12)" stroke-width="0.1"/>
  <path d="M 23.367193000000043,21.71855549999998 A 2.44005,2.44005 0.0 0,0 23.17719299999999,20.513555499999995" fill="none" stroke="rgb(255,194,12)" stroke-width="0.1"/>
  <path d="M 34.25719300000014,25.02255549999998 A 31.2938,31.2938 0.0 0,0 32.917193,27.8535555" fill="none" stroke="rgb(255,194,12)" stroke-width="0.1"/>
  <path d="M 35.08719300000007,24.126555499999995 A 2.44005,2.44005 0.0 0,0 34.25719300000014,25.02255549999998" fill="none" stroke="rgb(255,194,12)" stroke-width="0.1"/>
  <path d="M 35.86719300000004,24.449555499999974 A 0.506294,0.506294 0.0 0,0 35.08719300000007,24.126555499999995" fill="none" stroke="rgb(255,194,12)" stroke-width="0.1"/>
  <path d="M 34.767193000000134,28.618555499999985 A 31.2938,31.2938 0.0 0,0 35.81719300000009,25.66755549999999" fill="none" stroke="rgb(255,194,12)" stroke-width="0.1"/>
  <path d="M 35.81719300000009,25.66755549999999 A 2.44005,2.44005 0.0 0,0 35.86719300000004,24.449555499999974" fill="none" stroke="rgb(255,194,12)" stroke-width="0.1"/>
  <path d="M 45.85719300000005,31.033555499999977 A 31.2938,31.2938 0.0 0,0 43.987192999999934,33.54855549999999" fill="none" stroke="rgb(255,194,12)" stroke-width="0.1"/>
  <path d="M 46.84719300000006,30.316555499999993 A 2.44005,2.44005 0.0 0,0 45.85719300000005,31.033555499999977" fill="none" stroke="rgb(255,194,12)" stroke-width="0.1"/>
  <path d="M 47.54719300000011,30.785555499999987 A 0.506294,0.506294 0.0 0,0 46.84719300000006,30.316555499999993" fill="none" stroke="rgb(255,194,12)" stroke-width="0.1"/>
  <path d="M 45.65719300000001,34.65955549999998 A 31.2938,31.2938 0.0 0,0 47.25719300000014,31.97055549999999" fill="none" stroke="rgb(255,194,12)" stroke-width="0.1"/>
  <path d="M 47.25719300000014,31.97055549999999 A 2.44005,2.44005 0.0 0,0 47.54719300000011,30.785555499999987" fill="none" stroke="rgb(255,194,12)" stroke-width="0.1"/>
  <path d="M 56.0571930000001,39.1925555 A 31.2938,31.2938 0.0 0,0 53.737192999999934,41.29455549999997" fill="none" stroke="rgb(255,194,12)" stroke-width="0.1"/>
  <path d="M 57.167193,38.68155549999997 A 2.44005,2.44005 0.0 0,0 56.0571930000001,39.1925555" fill="none" stroke="rgb(255,194,12)" stroke-width="0.1"/>
  <path d="M 57.767193000000134,39.27755549999998 A 0.506294,0.506294 0.0 0,0 57.167193,38.68155549999997" fill="none" stroke="rgb(255,194,12)" stroke-width="0.1"/>
  <path d="M 55.147193000000016,42.70855549999999 A 31.2938,31.2938 0.0 0,0 57.25719300000014,40.384555499999976" fill="none" stroke="rgb(255,194,12)" stroke-width="0.1"/>
  <path d="M 57.25719300000014,40.384555499999976 A 2.44005,2.44005 0.0 0,0 57.767193000000134,39.27755549999998" fill="none" stroke="rgb(255,194,12)" stroke-width="0.1"/>
  <path d="M 64.47719299999994,49.18455549999999 A 31.2938,31.2938 0.0 0,0 61.787193000000116,50.79255549999999" fill="none" stroke="rgb(255,194,12)" stroke-width="0.1"/>
  <path d="M 65.657193,48.898555499999986 A 2.44005,2.44005 0.0 0,0 64.47719299999994,49.18455549999999" fill="none" stroke="rgb(255,194,12)" stroke-width="0.1"/>
  <path d="M 66.12719300000003,49.600555499999984 A 0.506294,0.506294 0.0 0,0 65.657193,48.898555499999986" fill="none" stroke="rgb(255,194,12)" stroke-width="0.1"/>
  <path d="M 62.897193000000016,52.455555499999974 A 31.2938,31.2938 0.0 0,0 65.407193,50.586555499999974" fill="none" stroke="rgb(255,194,12)" stroke-width="0.1"/>
  <path d="M 65.407193,50.586555499999974 A 2.44005,2.44005 0.0 0,0 66.12719300000003,49.600555499999984" fill="none" stroke="rgb(255,194,12)" stroke-width="0.1"/>
  <path d="M 70.77719300000012,60.62155549999997 A 31.2938,31.2938 0.0 0,0 67.82719300000008,61.66655549999999" fill="none" stroke="rgb(255,194,12)" stroke-width="0.1"/>
  <path d="M 71.99719299999992,60.57555549999998 A 2.44005,2.44005 0.0 0,0 70.77719300000012,60.62155549999997" fill="none" stroke="rgb(255,194,12)" stroke-width="0.1"/>
  <path d="M 72.31719300000009,61.356555499999985 A 0.506294,0.506294 0.0 0,0 71.99719299999992,60.57555549999998" fill="none" stroke="rgb(255,194,12)" stroke-width="0.1"/>
  <path d="M 68.58719300000007,63.51555549999998 A 31.2938,31.2938 0.0 0,0 71.417193,62.18155549999997" fill="none" stroke="rgb(255,194,12)" stroke-width="0.1"/>
  <path d="M 71.417193,62.18155549999997 A 2.44005,2.44005 0.0 0,0 72.31719300000009,61.356555499999985" fill="none" stroke="rgb(255,194,12)" stroke-width="0.1"/>
  <path d="M 74.72719299999994,73.0735555 A 31.2938,31.2938 0.0 0,0 71.62719300000003,73.52155549999998" fill="none" stroke="rgb(255,194,12)" stroke-width="0.1"/>
  <path d="M 75.93719299999998,73.26755549999999 A 2.44005,2.44005 0.0 0,0 74.72719299999994,73.0735555" fill="none" stroke="rgb(255,194,12)" stroke-width="0.1"/>
  <path d="M 76.09719300000006,74.09555549999999 A 0.506294,0.506294 0.0 0,0 75.93719299999998,73.26755549999999" fill="none" stroke="rgb(255,194,12)" stroke-width="0.1"/>
  <path d="M 72.00719300000014,75.4845555 A 31.2938,31.2938 0.0 0,0 75.0571930000001,74.7285555" fill="none" stroke="rgb(255,194,12)" stroke-width="0.1"/>
  <path d="M 75.0571930000001,74.7285555 A 2.44005,2.44005 0.0 0,0 76.09719300000006,74.09555549999999" fill="none" stroke="rgb(255,194,12)" stroke-width="0.1"/>
  <path d="M 76.167193,86.05955549999999 A 31.2938,31.2938 0.0 0,0 73.03719300000012,85.90255549999998" fill="none" stroke="rgb(255,194,12)" stroke-width="0.1"/>
  <path d="M 77.31719300000009,86.48055549999998 A 2.44005,2.44005 0.0 0,0 76.167193,86.05955549999999" fill="none" stroke="rgb(255,194,12)" stroke-width="0.1"/>
  <path d="M 77.31719300000009,87.32455549999997 A 0.506294,0.506294 0.0 0,0 77.31719300000009,86.48055549999998" fill="none" stroke="rgb(255,194,12)" stroke-width="0.1"/>
  <path d="M 73.03719300000012,87.90255549999998 A 31.2938,31.2938 0.0 0,0 76.167193,87.7455555" fill="none" stroke="rgb(255,194,12)" stroke-width="0.1"/>
  <path d="M 76.167193,87.7455555 A 2.44005,2.44005 0.0 0,0 77.31719300000009,87.32455549999997" fill="none" stroke="rgb(255,194,12)" stroke-width="0.1"/>
  <path d="M 76.167193,98.05955549999999 A 31.2938,31.2938 0.0 0,0 73.03719300000012,97.90255549999998" fill="none" stroke="rgb(255,194,12)" stroke-width="0.1"/>
  <path d="M 77.31719300000009,98.48055549999998 A 2.44005,2.44005 0.0 0,0 76.167193,98.05955549999999" fill="none" stroke="rgb(255,194,12)" stroke-width="0.1"/>
  <path d="M 77.31719300000009,99.32455549999997 A 0.506294,0.506294 0.0 0,0 77.31719300000009,98.48055549999998" fill="none" stroke="rgb(255,194,12)" stroke-width="0.1"/>
  <path d="M 73.03719300000012,99.90255549999998 A 31.2938,31.2938 0.0 0,0 76.167193,99.7455555" fill="none" stroke="rgb(255,194,12)" stroke-width="0.1"/>
  <path d="M 76.167193,99.7455555 A 2.44005,2.44005 0.0 0,0 77.31719300000009,99.32455549999997" fill="none" stroke="rgb(255,194,12)" stroke-width="0.1"/>
 </g>
</svg>