<?xml version="1.0" encoding="utf-8"?>
<svg style="background-color: #000;" version="1.1" viewBox="0 0 100.0 99.99999999999994" xmlns="http://www.w3.org/2000/svg" xmlns:inkscape="http://www.inkscape.org/namespaces/inkscape">
 <g id="layerAXIS" inkscape:groupmode="layer" inkscape:label="AXIS">
  <path d="M 100.0,54.61155400000001 L 0.0,54.61155400000001" fill="none" stroke="rgb(0,178,0)" stroke-width="0.1"/>
  <path d="M 87.83054850000002,35.61155400000001 L 87.83054850000002,99.99999999999994" fill="none" stroke="rgb(0,178,0)" stroke-width="0.1"/>
  <path d="M 87.83054850000002,63.53955400000001 L 87.83054850000002,92.12855399999995" fill="none" stroke="rgb(0,178,0)" stroke-width="0.1"/>
  <path d="M 0.0,87.12855399999995 L 87.83054850000002,87.12855399999995" fill="none" stroke="rgb(0,178,0)" stroke-width="0.1"/>
  <path d="M 87.83054850000002,63.53955400000001 L 87.83054850000002,92.12855399999995" fill="none" stroke="rgb(0,178,0)" stroke-width="0.1"/>
  <path d="M 87.83054850000002,87.12855399999995 L 100.0,87.12855399999995" fill="none" stroke="rgb(0,178,0)" stroke-width="0.1"/>
  <text fill="rgb(0,178,0)" font-family="Noto Sans CJK SC" font-size="2" transform="rotate(-0.0,34.83054850000002,85.12855399999995)" x="34.83054850000002" y="85.12855399999995">
   9000
  </text>
 </g>
 <g id="layerCOLUMN" inkscape:groupmode="layer" inkscape:label="COLUMN">
  <path d="M 85.83054850000002,17.611554000000012 L 89.83054850000002,17.611554000000012" fill="none" stroke="rgb(134,134,134)" stroke-width="0.1"/>
  <path d="M 89.83054850000002,17.611554000000012 L 89.83054850000002,13.611554000000012" fill="none" stroke="rgb(134,134,134)" stroke-width="0.1"/>
  <path d="M 89.83054850000002,13.611554000000012 L 85.83054850000002,13.611554000000012" fill="none" stroke="rgb(134,134,134)" stroke-width="0.1"/>
  <path d="M 85.83054850000002,13.611554000000012 L 85.83054850000002,17.611554000000012" fill="none" stroke="rgb(134,134,134)" stroke-width="0.1"/>
 </g>
 <g id="layerCURTWALL" inkscape:groupmode="layer" inkscape:label="CURTWALL">
  <path d="M 0.0,18.278553999999986 L 100.0,18.278553999999986" fill="none" instance-id="-1" semantic-id="1" stroke="rgb(0,178,178)" stroke-width="0.1"/>
  <path d="M 0.0,18.944553999999982 L 100.0,18.944553999999982" fill="none" instance-id="-1" semantic-id="1" stroke="rgb(0,178,178)" stroke-width="0.1"/>
  <path d="M 0.0,17.611554000000012 L 100.0,17.611554000000012" fill="none" instance-id="-1" semantic-id="1" stroke="rgb(0,178,178)" stroke-width="0.1"/>
  <path d="M 0.0,19.611554000000012 L 100.0,19.611554000000012" fill="none" instance-id="-1" semantic-id="1" stroke="rgb(0,178,178)" stroke-width="0.1"/>
  <path d="M 100.0,58.61155400000001 L 0.0,58.61155400000001" fill="none" instance-id="-1" semantic-id="1" stroke="rgb(0,178,178)" stroke-width="0.1"/>
  <path d="M 100.0,58.11155400000001 L 0.0,58.11155400000001" fill="none" instance-id="-1" semantic-id="1" stroke="rgb(0,178,178)" stroke-width="0.1"/>
 </g>
 <g id="layerDOTE" inkscape:groupmode="layer" inkscape:label="DOTE">
  <path d="M 87.83054850000002,35.61155400000001 L 87.83054850000002,0.0" fill="none" stroke="rgb(178,0,0)" stroke-width="0.1"/>
 </g>
 <g id="layerPUB_DIM" inkscape:groupmode="layer" inkscape:label="PUB_DIM">
  <path d="M 36.00554850000003,17.611554000000012 L 22.725548500000002,17.611554000000012" fill="none" stroke="rgb(0,178,0)" stroke-width="0.1"/>
  <path d="M 27.725548500000002,17.611554000000012 L 27.725548500000002,0.0" fill="none" stroke="rgb(0,178,0)" stroke-width="0.1"/>
  <path d="M 36.00554850000003,19.611554000000012 L 22.725548500000002,19.611554000000012" fill="none" stroke="rgb(0,178,0)" stroke-width="0.1"/>
  <path d="M 36.00554850000003,17.611554000000012 L 22.725548500000002,17.611554000000012" fill="none" stroke="rgb(0,178,0)" stroke-width="0.1"/>
  <path d="M 27.725548500000002,19.611554000000012 L 27.725548500000002,21.611554000000012" fill="none" stroke="rgb(0,178,0)" stroke-width="0.1"/>
  <path d="M 27.725548500000002,17.611554000000012 L 27.725548500000002,15.611554000000012" fill="none" stroke="rgb(0,178,0)" stroke-width="0.1"/>
  <path d="M 27.725548500000002,19.611554000000012 L 27.725548500000002,17.611554000000012" fill="none" stroke="rgb(0,178,0)" stroke-width="0.1"/>
  <path d="M 36.00554850000003,25.611554000000012 L 22.725548500000002,25.611554000000012" fill="none" stroke="rgb(0,178,0)" stroke-width="0.1"/>
  <path d="M 36.00554850000003,19.611554000000012 L 22.725548500000002,19.611554000000012" fill="none" stroke="rgb(0,178,0)" stroke-width="0.1"/>
  <path d="M 27.725548500000002,25.611554000000012 L 27.725548500000002,27.611554000000012" fill="none" stroke="rgb(0,178,0)" stroke-width="0.1"/>
  <path d="M 27.725548500000002,19.611554000000012 L 27.725548500000002,17.611554000000012" fill="none" stroke="rgb(0,178,0)" stroke-width="0.1"/>
  <path d="M 27.725548500000002,25.611554000000012 L 27.725548500000002,19.611554000000012" fill="none" stroke="rgb(0,178,0)" stroke-width="0.1"/>
  <path d="M 36.00554850000003,59.61155400000001 L 22.725548500000002,59.61155400000001" fill="none" stroke="rgb(0,178,0)" stroke-width="0.1"/>
  <path d="M 36.00554850000003,25.611554000000012 L 22.725548500000002,25.611554000000012" fill="none" stroke="rgb(0,178,0)" stroke-width="0.1"/>
  <path d="M 27.725548500000002,59.61155400000001 L 27.725548500000002,25.611554000000012" fill="none" stroke="rgb(0,178,0)" stroke-width="0.1"/>
  <path d="M 36.00554850000003,61.61155400000001 L 22.725548500000002,61.61155400000001" fill="none" stroke="rgb(0,178,0)" stroke-width="0.1"/>
  <path d="M 36.00554850000003,59.61155400000001 L 22.725548500000002,59.61155400000001" fill="none" stroke="rgb(0,178,0)" stroke-width="0.1"/>
  <path d="M 27.725548500000002,61.61155400000001 L 27.725548500000002,63.61155400000001" fill="none" stroke="rgb(0,178,0)" stroke-width="0.1"/>
  <path d="M 27.725548500000002,59.61155400000001 L 27.725548500000002,57.61155400000001" fill="none" stroke="rgb(0,178,0)" stroke-width="0.1"/>
  <path d="M 27.725548500000002,61.61155400000001 L 27.725548500000002,59.61155400000001" fill="none" stroke="rgb(0,178,0)" stroke-width="0.1"/>
  <path d="M 36.00554850000003,67.61155400000001 L 22.725548500000002,67.61155400000001" fill="none" stroke="rgb(0,178,0)" stroke-width="0.1"/>
  <path d="M 36.00554850000003,61.61155400000001 L 22.725548500000002,61.61155400000001" fill="none" stroke="rgb(0,178,0)" stroke-width="0.1"/>
  <path d="M 27.725548500000002,67.61155400000001 L 27.725548500000002,61.61155400000001" fill="none" stroke="rgb(0,178,0)" stroke-width="0.1"/>
  <text fill="rgb(0,178,0)" font-family="Noto Sans CJK SC" font-size="2" transform="rotate(-90.0,36.200548500000025,24.611554000000012)" x="36.200548500000025" y="24.611554000000012">
   200
  </text>
  <text fill="rgb(0,178,0)" font-family="Noto Sans CJK SC" font-size="2" transform="rotate(-90.0,25.725548500000002,28.71155399999998)" x="25.725548500000002" y="28.71155399999998">
   600
  </text>
  <text fill="rgb(0,178,0)" font-family="Noto Sans CJK SC" font-size="2" transform="rotate(-90.0,25.725548500000002,50.61155400000001)" x="25.725548500000002" y="50.61155400000001">
   3400
  </text>
  <text fill="rgb(0,178,0)" font-family="Noto Sans CJK SC" font-size="2" transform="rotate(-90.0,25.725548500000002,66.61155400000001)" x="25.725548500000002" y="66.61155400000001">
   200
  </text>
  <text fill="rgb(0,178,0)" font-family="Noto Sans CJK SC" font-size="2" transform="rotate(-90.0,25.200548500000025,81.11155400000001)" x="25.200548500000025" y="81.11155400000001">
   600
  </text>
 </g>
 <g id="layerWALL" inkscape:groupmode="layer" inkscape:label="WALL">
  <path d="M 88.83054850000002,0.0 L 88.83054850000002,13.611554000000012" fill="none" instance-id="-1" semantic-id="1" stroke="rgb(178,178,0)" stroke-width="0.1"/>
  <path d="M 86.83054850000002,0.0 L 86.83054850000002,13.611554000000012" fill="none" instance-id="-1" semantic-id="1" stroke="rgb(178,178,0)" stroke-width="0.1"/>
  <path d="M 88.83054850000002,13.611554000000012 L 86.83054850000002,13.611554000000012" fill="none" instance-id="-1" semantic-id="1" stroke="rgb(178,178,0)" stroke-width="0.1"/>
 </g>
 <g id="layer投影线" inkscape:groupmode="layer" inkscape:label="投影线">
  <path d="M 100.0,59.61155400000001 L 0.0,59.61155400000001" fill="none" stroke="rgb(121,121,121)" stroke-width="0.1"/>
  <path d="M 100.0,61.61155400000001 L 0.0,61.61155400000001" fill="none" stroke="rgb(121,121,121)" stroke-width="0.1"/>
  <path d="M 100.0,67.61155400000001 L 0.0,67.61155400000001" fill="none" stroke="rgb(121,121,121)" stroke-width="0.1"/>
  <path d="M 0.0,25.611554000000012 L 100.0,25.611554000000012" fill="none" stroke="rgb(121,121,121)" stroke-width="0.1"/>
 </g>
</svg>