<?xml version="1.0" encoding="utf-8"?>
<svg style="background-color: #000;" version="1.1" viewBox="0 0 100.0 100.0" xmlns="http://www.w3.org/2000/svg" xmlns:inkscape="http://www.inkscape.org/namespaces/inkscape">
 <g id="layerAXIS" inkscape:groupmode="layer" inkscape:label="AXIS">
  <path d="M 64.2328675,50.5 L 0.0,50.5" fill="none" stroke="rgb(0,178,0)" stroke-width="0.1"/>
  <path d="M 58.2328675,50.5 L 9.232867499999998,50.5" fill="none" stroke="rgb(0,178,0)" stroke-width="0.1"/>
  <path d="M 14.232867499999998,100.0 L 14.232867499999998,50.5" fill="none" stroke="rgb(0,178,0)" stroke-width="0.1"/>
  <path d="M 58.2328675,50.5 L 9.232867499999998,50.5" fill="none" stroke="rgb(0,178,0)" stroke-width="0.1"/>
  <path d="M 14.232867499999998,50.5 L 14.232867499999998,0.0" fill="none" stroke="rgb(0,178,0)" stroke-width="0.1"/>
  <text fill="rgb(0,178,0)" font-family="Noto Sans CJK SC" font-size="2" transform="rotate(-90.0,12.232867499999998,10.5)" x="12.232867499999998" y="10.5">
   9600
  </text>
 </g>
 <g id="layerCOLUMN" inkscape:groupmode="layer" inkscape:label="COLUMN">
  <path d="M 70.2328675,55.5 L 78.2328675,55.5" fill="none" stroke="rgb(134,134,134)" stroke-width="0.1"/>
  <path d="M 78.2328675,55.5 L 78.2328675,47.5" fill="none" stroke="rgb(134,134,134)" stroke-width="0.1"/>
  <path d="M 78.2328675,47.5 L 70.2328675,47.5" fill="none" stroke="rgb(134,134,134)" stroke-width="0.1"/>
  <path d="M 70.2328675,47.5 L 70.2328675,55.5" fill="none" stroke="rgb(134,134,134)" stroke-width="0.1"/>
 </g>
 <g id="layerCURTWALL" inkscape:groupmode="layer" inkscape:label="CURTWALL">
  <path d="M 68.8998675,26.5 L 68.8998675,0.0" fill="none" instance-id="-1" semantic-id="2" stroke="rgb(0,178,178)" stroke-width="0.1"/>
  <path d="M 69.5658675,26.5 L 69.5658675,0.0" fill="none" instance-id="-1" semantic-id="2" stroke="rgb(0,178,178)" stroke-width="0.1"/>
  <path d="M 68.2328675,26.5 L 68.2328675,0.0" fill="none" instance-id="-1" semantic-id="2" stroke="rgb(0,178,178)" stroke-width="0.1"/>
  <path d="M 70.2328675,26.5 L 70.2328675,0.0" fill="none" instance-id="-1" semantic-id="2" stroke="rgb(0,178,178)" stroke-width="0.1"/>
  <path d="M 68.8998675,100.0 L 68.8998675,26.5" fill="none" instance-id="-1" semantic-id="2" stroke="rgb(0,178,178)" stroke-width="0.1"/>
  <path d="M 69.5658675,100.0 L 69.5658675,26.5" fill="none" instance-id="-1" semantic-id="2" stroke="rgb(0,178,178)" stroke-width="0.1"/>
  <path d="M 68.2328675,100.0 L 68.2328675,26.5" fill="none" instance-id="-1" semantic-id="2" stroke="rgb(0,178,178)" stroke-width="0.1"/>
  <path d="M 70.2328675,100.0 L 70.2328675,26.5" fill="none" instance-id="-1" semantic-id="2" stroke="rgb(0,178,178)" stroke-width="0.1"/>
 </g>
 <g id="layerDOTE" inkscape:groupmode="layer" inkscape:label="DOTE">
  <path d="M 64.2328675,50.5 L 100.0,50.5" fill="none" stroke="rgb(178,0,0)" stroke-width="0.1"/>
  <path d="M 74.2328675,100.0 L 74.2328675,0.0" fill="none" stroke="rgb(178,0,0)" stroke-width="0.1"/>
 </g>
 <g id="layerJ-PUB_DIM" inkscape:groupmode="layer" inkscape:label="J-PUB_DIM">
  <path d="M 94.7398675,95.512 L 100.0,95.512" fill="none" stroke="rgb(0,178,0)" stroke-width="0.1"/>
 </g>
 <g id="layerPUB_DIM" inkscape:groupmode="layer" inkscape:label="PUB_DIM">
  <path d="M 48.929967500000004,9.5 L 28.492667499999996,9.5" fill="none" stroke="rgb(0,178,0)" stroke-width="0.1"/>
  <path d="M 33.492667499999996,9.5 L 33.492667499999996,0.0" fill="none" stroke="rgb(0,178,0)" stroke-width="0.1"/>
  <path d="M 48.929967500000004,21.5 L 28.492667499999996,21.5" fill="none" stroke="rgb(0,178,0)" stroke-width="0.1"/>
  <path d="M 48.929967500000004,9.5 L 28.492667499999996,9.5" fill="none" stroke="rgb(0,178,0)" stroke-width="0.1"/>
  <path d="M 33.492667499999996,21.5 L 33.492667499999996,23.5" fill="none" stroke="rgb(0,178,0)" stroke-width="0.1"/>
  <path d="M 33.492667499999996,9.5 L 33.492667499999996,7.5" fill="none" stroke="rgb(0,178,0)" stroke-width="0.1"/>
  <path d="M 33.492667499999996,21.5 L 33.492667499999996,9.5" fill="none" stroke="rgb(0,178,0)" stroke-width="0.1"/>
  <path d="M 48.929967500000004,33.5 L 28.492667499999996,33.5" fill="none" stroke="rgb(0,178,0)" stroke-width="0.1"/>
  <path d="M 48.929967500000004,21.5 L 28.492667499999996,21.5" fill="none" stroke="rgb(0,178,0)" stroke-width="0.1"/>
  <path d="M 33.492667499999996,33.5 L 33.492667499999996,21.5" fill="none" stroke="rgb(0,178,0)" stroke-width="0.1"/>
  <path d="M 48.929967500000004,45.5 L 28.492667499999996,45.5" fill="none" stroke="rgb(0,178,0)" stroke-width="0.1"/>
  <path d="M 48.929967500000004,33.5 L 28.492667499999996,33.5" fill="none" stroke="rgb(0,178,0)" stroke-width="0.1"/>
  <path d="M 33.492667499999996,45.5 L 33.492667499999996,47.5" fill="none" stroke="rgb(0,178,0)" stroke-width="0.1"/>
  <path d="M 33.492667499999996,33.5 L 33.492667499999996,31.5" fill="none" stroke="rgb(0,178,0)" stroke-width="0.1"/>
  <path d="M 33.492667499999996,45.5 L 33.492667499999996,33.5" fill="none" stroke="rgb(0,178,0)" stroke-width="0.1"/>
  <path d="M 48.929967500000004,57.5 L 28.492667499999996,57.5" fill="none" stroke="rgb(0,178,0)" stroke-width="0.1"/>
  <path d="M 48.929967500000004,45.5 L 28.492667499999996,45.5" fill="none" stroke="rgb(0,178,0)" stroke-width="0.1"/>
  <path d="M 33.492667499999996,57.5 L 33.492667499999996,45.5" fill="none" stroke="rgb(0,178,0)" stroke-width="0.1"/>
  <path d="M 48.929967500000004,69.5 L 28.492667499999996,69.5" fill="none" stroke="rgb(0,178,0)" stroke-width="0.1"/>
  <path d="M 48.929967500000004,57.5 L 28.492667499999996,57.5" fill="none" stroke="rgb(0,178,0)" stroke-width="0.1"/>
  <path d="M 33.492667499999996,69.5 L 33.492667499999996,71.5" fill="none" stroke="rgb(0,178,0)" stroke-width="0.1"/>
  <path d="M 33.492667499999996,57.5 L 33.492667499999996,55.5" fill="none" stroke="rgb(0,178,0)" stroke-width="0.1"/>
  <path d="M 33.492667499999996,69.5 L 33.492667499999996,57.5" fill="none" stroke="rgb(0,178,0)" stroke-width="0.1"/>
  <path d="M 48.929967500000004,81.5 L 28.492667499999996,81.5" fill="none" stroke="rgb(0,178,0)" stroke-width="0.1"/>
  <path d="M 48.929967500000004,69.5 L 28.492667499999996,69.5" fill="none" stroke="rgb(0,178,0)" stroke-width="0.1"/>
  <path d="M 33.492667499999996,81.5 L 33.492667499999996,69.5" fill="none" stroke="rgb(0,178,0)" stroke-width="0.1"/>
  <path d="M 48.929967500000004,93.5 L 28.492667499999996,93.5" fill="none" stroke="rgb(0,178,0)" stroke-width="0.1"/>
  <path d="M 48.929967500000004,81.5 L 28.492667499999996,81.5" fill="none" stroke="rgb(0,178,0)" stroke-width="0.1"/>
  <path d="M 33.492667499999996,93.5 L 33.492667499999996,95.5" fill="none" stroke="rgb(0,178,0)" stroke-width="0.1"/>
  <path d="M 33.492667499999996,81.5 L 33.492667499999996,79.5" fill="none" stroke="rgb(0,178,0)" stroke-width="0.1"/>
  <path d="M 33.492667499999996,93.5 L 33.492667499999996,81.5" fill="none" stroke="rgb(0,178,0)" stroke-width="0.1"/>
  <path d="M 48.929967500000004,93.5 L 28.492667499999996,93.5" fill="none" stroke="rgb(0,178,0)" stroke-width="0.1"/>
  <path d="M 33.492667499999996,100.0 L 33.492667499999996,93.5" fill="none" stroke="rgb(0,178,0)" stroke-width="0.1"/>
  <text fill="rgb(0,178,0)" font-family="Noto Sans CJK SC" font-size="2" transform="rotate(-90.0,31.492667499999996,23.80000000000001)" x="31.492667499999996" y="23.80000000000001">
   1200
  </text>
  <text fill="rgb(0,178,0)" font-family="Noto Sans CJK SC" font-size="2" transform="rotate(-90.0,41.967667500000005,35.80000000000001)" x="41.967667500000005" y="35.80000000000001">
   1200
  </text>
  <text fill="rgb(0,178,0)" font-family="Noto Sans CJK SC" font-size="2" transform="rotate(-90.0,31.492667499999996,47.80000000000001)" x="31.492667499999996" y="47.80000000000001">
   1200
  </text>
  <text fill="rgb(0,178,0)" font-family="Noto Sans CJK SC" font-size="2" transform="rotate(-90.0,41.967667500000005,59.80000000000001)" x="41.967667500000005" y="59.80000000000001">
   1200
  </text>
  <text fill="rgb(0,178,0)" font-family="Noto Sans CJK SC" font-size="2" transform="rotate(-90.0,31.492667499999996,71.80000000000001)" x="31.492667499999996" y="71.80000000000001">
   1200
  </text>
  <text fill="rgb(0,178,0)" font-family="Noto Sans CJK SC" font-size="2" transform="rotate(-90.0,41.967667500000005,83.80000000000001)" x="41.967667500000005" y="83.80000000000001">
   1200
  </text>
  <text fill="rgb(0,178,0)" font-family="Noto Sans CJK SC" font-size="2" transform="rotate(-90.0,31.492667499999996,95.80000000000001)" x="31.492667499999996" y="95.80000000000001">
   1200
  </text>
 </g>
 <g id="layerTK_LABEL" inkscape:groupmode="layer" inkscape:label="TK_LABEL">
  <path d="M 68.2328675,9.5 L 70.2328675,9.5" fill="none" stroke="rgb(178,178,0)" stroke-width="0.1"/>
  <path d="M 68.2328675,21.5 L 70.2328675,21.5" fill="none" stroke="rgb(178,178,0)" stroke-width="0.1"/>
  <path d="M 68.2328675,33.5 L 70.2328675,33.5" fill="none" stroke="rgb(178,178,0)" stroke-width="0.1"/>
  <path d="M 68.2328675,45.5 L 70.2328675,45.5" fill="none" stroke="rgb(178,178,0)" stroke-width="0.1"/>
  <path d="M 68.2328675,57.5 L 70.2328675,57.5" fill="none" stroke="rgb(178,178,0)" stroke-width="0.1"/>
  <path d="M 68.2328675,69.5 L 70.2328675,69.5" fill="none" stroke="rgb(178,178,0)" stroke-width="0.1"/>
  <path d="M 68.2328675,81.5 L 70.2328675,81.5" fill="none" stroke="rgb(178,178,0)" stroke-width="0.1"/>
  <path d="M 68.2328675,93.5 L 70.2328675,93.5" fill="none" stroke="rgb(178,178,0)" stroke-width="0.1"/>
 </g>
 <g id="layerWALL" inkscape:groupmode="layer" inkscape:label="WALL">
  <path d="M 78.2328675,49.5 L 100.0,49.5" fill="none" instance-id="-1" semantic-id="1" stroke="rgb(178,178,0)" stroke-width="0.1"/>
  <path d="M 100.0,47.5 L 78.2328675,47.5" fill="none" instance-id="-1" semantic-id="1" stroke="rgb(178,178,0)" stroke-width="0.1"/>
  <path d="M 70.2328675,26.5 L 100.0,26.5" fill="none" instance-id="-1" semantic-id="1" stroke="rgb(178,178,0)" stroke-width="0.1"/>
  <path d="M 100.0,24.5 L 70.2328675,24.5" fill="none" instance-id="-1" semantic-id="1" stroke="rgb(178,178,0)" stroke-width="0.1"/>
 </g>
 <g id="layer投影线" inkscape:groupmode="layer" inkscape:label="投影线">
  <path d="M 66.7328675,100.0 L 66.7328675,0.0" fill="none" stroke="rgb(121,121,121)" stroke-width="0.1"/>
 </g>
 <g id="layer格栅" inkscape:groupmode="layer" inkscape:label="格栅">
  <path d="M 68.2328675,10.5 L 66.7328675,10.5" fill="none" stroke="rgb(255,194,12)" stroke-width="0.1"/>
  <path d="M 66.7328675,8.5 L 68.2328675,8.5" fill="none" stroke="rgb(255,194,12)" stroke-width="0.1"/>
  <path d="M 68.2328675,22.5 L 66.7328675,22.5" fill="none" stroke="rgb(255,194,12)" stroke-width="0.1"/>
  <path d="M 66.7328675,20.5 L 68.2328675,20.5" fill="none" stroke="rgb(255,194,12)" stroke-width="0.1"/>
  <path d="M 68.2328675,34.5 L 66.7328675,34.5" fill="none" stroke="rgb(255,194,12)" stroke-width="0.1"/>
  <path d="M 66.7328675,32.5 L 68.2328675,32.5" fill="none" stroke="rgb(255,194,12)" stroke-width="0.1"/>
  <path d="M 68.2328675,46.5 L 66.7328675,46.5" fill="none" stroke="rgb(255,194,12)" stroke-width="0.1"/>
  <path d="M 66.7328675,44.5 L 68.2328675,44.5" fill="none" stroke="rgb(255,194,12)" stroke-width="0.1"/>
  <path d="M 68.2328675,58.5 L 66.7328675,58.5" fill="none" stroke="rgb(255,194,12)" stroke-width="0.1"/>
  <path d="M 66.7328675,56.5 L 68.2328675,56.5" fill="none" stroke="rgb(255,194,12)" stroke-width="0.1"/>
  <path d="M 68.2328675,70.5 L 66.7328675,70.5" fill="none" stroke="rgb(255,194,12)" stroke-width="0.1"/>
  <path d="M 66.7328675,68.5 L 68.2328675,68.5" fill="none" stroke="rgb(255,194,12)" stroke-width="0.1"/>
  <path d="M 68.2328675,82.5 L 66.7328675,82.5" fill="none" stroke="rgb(255,194,12)" stroke-width="0.1"/>
  <path d="M 66.7328675,80.5 L 68.2328675,80.5" fill="none" stroke="rgb(255,194,12)" stroke-width="0.1"/>
  <path d="M 68.2328675,94.5 L 66.7328675,94.5" fill="none" stroke="rgb(255,194,12)" stroke-width="0.1"/>
  <path d="M 66.7328675,92.5 L 68.2328675,92.5" fill="none" stroke="rgb(255,194,12)" stroke-width="0.1"/>
  <path d="M 66.7328675,8.5 A 31.2938,31.2938 0.0 0,0 63.6036675,8.65700000000001" fill="none" stroke="rgb(255,194,12)" stroke-width="0.1"/>
  <path d="M 63.6036675,8.65700000000001 A 2.44005,2.44005 0.0 0,0 62.459267499999996,9.078000000000003" fill="none" stroke="rgb(255,194,12)" stroke-width="0.1"/>
  <path d="M 62.459267499999996,9.078000000000003 A 0.506294,0.506294 0.0 0,0 62.459267499999996,9.921999999999997" fill="none" stroke="rgb(255,194,12)" stroke-width="0.1"/>
  <path d="M 63.6036675,10.34299999999999 A 31.2938,31.2938 0.0 0,0 66.7328675,10.5" fill="none" stroke="rgb(255,194,12)" stroke-width="0.1"/>
  <path d="M 62.459267499999996,9.921999999999997 A 2.44005,2.44005 0.0 0,0 63.6036675,10.34299999999999" fill="none" stroke="rgb(255,194,12)" stroke-width="0.1"/>
  <path d="M 66.7328675,20.5 A 31.2938,31.2938 0.0 0,0 63.6036675,20.65700000000001" fill="none" stroke="rgb(255,194,12)" stroke-width="0.1"/>
  <path d="M 63.6036675,20.65700000000001 A 2.44005,2.44005 0.0 0,0 62.459267499999996,21.078000000000003" fill="none" stroke="rgb(255,194,12)" stroke-width="0.1"/>
  <path d="M 62.459267499999996,21.078000000000003 A 0.506294,0.506294 0.0 0,0 62.459267499999996,21.921999999999997" fill="none" stroke="rgb(255,194,12)" stroke-width="0.1"/>
  <path d="M 63.6036675,22.34299999999999 A 31.2938,31.2938 0.0 0,0 66.7328675,22.5" fill="none" stroke="rgb(255,194,12)" stroke-width="0.1"/>
  <path d="M 62.459267499999996,21.921999999999997 A 2.44005,2.44005 0.0 0,0 63.6036675,22.34299999999999" fill="none" stroke="rgb(255,194,12)" stroke-width="0.1"/>
  <path d="M 66.7328675,32.5 A 31.2938,31.2938 0.0 0,0 63.6036675,32.65700000000001" fill="none" stroke="rgb(255,194,12)" stroke-width="0.1"/>
  <path d="M 63.6036675,32.65700000000001 A 2.44005,2.44005 0.0 0,0 62.459267499999996,33.078" fill="none" stroke="rgb(255,194,12)" stroke-width="0.1"/>
  <path d="M 62.459267499999996,33.078 A 0.506294,0.506294 0.0 0,0 62.459267499999996,33.922" fill="none" stroke="rgb(255,194,12)" stroke-width="0.1"/>
  <path d="M 63.6036675,34.34299999999999 A 31.2938,31.2938 0.0 0,0 66.7328675,34.5" fill="none" stroke="rgb(255,194,12)" stroke-width="0.1"/>
  <path d="M 62.459267499999996,33.922 A 2.44005,2.44005 0.0 0,0 63.6036675,34.34299999999999" fill="none" stroke="rgb(255,194,12)" stroke-width="0.1"/>
  <path d="M 66.7328675,44.5 A 31.2938,31.2938 0.0 0,0 63.6036675,44.65700000000001" fill="none" stroke="rgb(255,194,12)" stroke-width="0.1"/>
  <path d="M 63.6036675,44.65700000000001 A 2.44005,2.44005 0.0 0,0 62.459267499999996,45.078" fill="none" stroke="rgb(255,194,12)" stroke-width="0.1"/>
  <path d="M 62.459267499999996,45.078 A 0.506294,0.506294 0.0 0,0 62.459267499999996,45.922" fill="none" stroke="rgb(255,194,12)" stroke-width="0.1"/>
  <path d="M 63.6036675,46.34299999999999 A 31.2938,31.2938 0.0 0,0 66.7328675,46.5" fill="none" stroke="rgb(255,194,12)" stroke-width="0.1"/>
  <path d="M 62.459267499999996,45.922 A 2.44005,2.44005 0.0 0,0 63.6036675,46.34299999999999" fill="none" stroke="rgb(255,194,12)" stroke-width="0.1"/>
  <path d="M 66.7328675,56.5 A 31.2938,31.2938 0.0 0,0 63.6036675,56.65700000000001" fill="none" stroke="rgb(255,194,12)" stroke-width="0.1"/>
  <path d="M 63.6036675,56.65700000000001 A 2.44005,2.44005 0.0 0,0 62.459267499999996,57.078" fill="none" stroke="rgb(255,194,12)" stroke-width="0.1"/>
  <path d="M 62.459267499999996,57.078 A 0.506294,0.506294 0.0 0,0 62.459267499999996,57.922" fill="none" stroke="rgb(255,194,12)" stroke-width="0.1"/>
  <path d="M 63.6036675,58.34299999999999 A 31.2938,31.2938 0.0 0,0 66.7328675,58.5" fill="none" stroke="rgb(255,194,12)" stroke-width="0.1"/>
  <path d="M 62.459267499999996,57.922 A 2.44005,2.44005 0.0 0,0 63.6036675,58.34299999999999" fill="none" stroke="rgb(255,194,12)" stroke-width="0.1"/>
  <path d="M 66.7328675,68.5 A 31.2938,31.2938 0.0 0,0 63.6036675,68.65700000000001" fill="none" stroke="rgb(255,194,12)" stroke-width="0.1"/>
  <path d="M 63.6036675,68.65700000000001 A 2.44005,2.44005 0.0 0,0 62.459267499999996,69.078" fill="none" stroke="rgb(255,194,12)" stroke-width="0.1"/>
  <path d="M 62.459267499999996,69.078 A 0.506294,0.506294 0.0 0,0 62.459267499999996,69.922" fill="none" stroke="rgb(255,194,12)" stroke-width="0.1"/>
  <path d="M 63.6036675,70.34299999999999 A 31.2938,31.2938 0.0 0,0 66.7328675,70.5" fill="none" stroke="rgb(255,194,12)" stroke-width="0.1"/>
  <path d="M 62.459267499999996,69.922 A 2.44005,2.44005 0.0 0,0 63.6036675,70.34299999999999" fill="none" stroke="rgb(255,194,12)" stroke-width="0.1"/>
  <path d="M 66.7328675,80.5 A 31.2938,31.2938 0.0 0,0 63.6036675,80.65700000000001" fill="none" stroke="rgb(255,194,12)" stroke-width="0.1"/>
  <path d="M 63.6036675,80.65700000000001 A 2.44005,2.44005 0.0 0,0 62.459267499999996,81.078" fill="none" stroke="rgb(255,194,12)" stroke-width="0.1"/>
  <path d="M 62.459267499999996,81.078 A 0.506294,0.506294 0.0 0,0 62.459267499999996,81.922" fill="none" stroke="rgb(255,194,12)" stroke-width="0.1"/>
  <path d="M 63.6036675,82.34299999999999 A 31.2938,31.2938 0.0 0,0 66.7328675,82.5" fill="none" stroke="rgb(255,194,12)" stroke-width="0.1"/>
  <path d="M 62.459267499999996,81.922 A 2.44005,2.44005 0.0 0,0 63.6036675,82.34299999999999" fill="none" stroke="rgb(255,194,12)" stroke-width="0.1"/>
  <path d="M 66.7328675,92.5 A 31.2938,31.2938 0.0 0,0 63.6036675,92.65699999999998" fill="none" stroke="rgb(255,194,12)" stroke-width="0.1"/>
  <path d="M 63.6036675,92.65699999999998 A 2.44005,2.44005 0.0 0,0 62.459267499999996,93.07799999999997" fill="none" stroke="rgb(255,194,12)" stroke-width="0.1"/>
  <path d="M 62.459267499999996,93.07799999999997 A 0.506294,0.506294 0.0 0,0 62.459267499999996,93.92200000000003" fill="none" stroke="rgb(255,194,12)" stroke-width="0.1"/>
  <path d="M 63.6036675,94.34300000000002 A 31.2938,31.2938 0.0 0,0 66.7328675,94.5" fill="none" stroke="rgb(255,194,12)" stroke-width="0.1"/>
  <path d="M 62.459267499999996,93.92200000000003 A 2.44005,2.44005 0.0 0,0 63.6036675,94.34300000000002" fill="none" stroke="rgb(255,194,12)" stroke-width="0.1"/>
 </g>
</svg>