<?xml version="1.0" encoding="utf-8"?>
<svg style="background-color: #000;" version="1.1" viewBox="0 0 100.0 100.0" xmlns="http://www.w3.org/2000/svg" xmlns:inkscape="http://www.inkscape.org/namespaces/inkscape">
 <g id="layerCOLUMN" inkscape:groupmode="layer" inkscape:label="COLUMN">
  <path d="M 7.782500000000027,48.40255549999998 L 16.782500000000027,48.40255549999998" fill="none" stroke="rgb(134,134,134)" stroke-width="0.1"/>
  <path d="M 16.782500000000027,48.40255549999998 L 16.782500000000027,39.40255549999998" fill="none" stroke="rgb(134,134,134)" stroke-width="0.1"/>
  <path d="M 16.782500000000027,39.40255549999998 L 7.782500000000027,39.40255549999998" fill="none" stroke="rgb(134,134,134)" stroke-width="0.1"/>
  <path d="M 7.782500000000027,39.40255549999998 L 7.782500000000027,48.40255549999998" fill="none" stroke="rgb(134,134,134)" stroke-width="0.1"/>
  <path d="M 72.28250000000003,49.90255549999998 L 82.28250000000003,49.90255549999998" fill="none" stroke="rgb(134,134,134)" stroke-width="0.1"/>
  <path d="M 82.28250000000003,49.90255549999998 L 82.28250000000003,39.90255549999998" fill="none" stroke="rgb(134,134,134)" stroke-width="0.1"/>
  <path d="M 82.28250000000003,39.90255549999998 L 72.28250000000003,39.90255549999998" fill="none" stroke="rgb(134,134,134)" stroke-width="0.1"/>
  <path d="M 72.28250000000003,39.90255549999998 L 72.28250000000003,49.90255549999998" fill="none" stroke="rgb(134,134,134)" stroke-width="0.1"/>
 </g>
 <g id="layerCURTWALL" inkscape:groupmode="layer" inkscape:label="CURTWALL">
  <path d="M 43.28250000000003,26.235555499999975 L 22.902499999999918,26.235555499999975" fill="none" instance-id="-1" semantic-id="2" stroke="rgb(0,178,178)" stroke-width="0.1"/>
  <path d="M 43.28250000000003,25.56955549999998 L 22.902499999999918,25.56955549999998" fill="none" instance-id="-1" semantic-id="2" stroke="rgb(0,178,178)" stroke-width="0.1"/>
  <path d="M 43.28250000000003,26.902555499999977 L 22.902499999999918,26.902555499999977" fill="none" instance-id="-1" semantic-id="2" stroke="rgb(0,178,178)" stroke-width="0.1"/>
  <path d="M 43.28250000000003,24.902555499999977 L 22.902499999999918,24.902555499999977" fill="none" instance-id="-1" semantic-id="2" stroke="rgb(0,178,178)" stroke-width="0.1"/>
  <path d="M 43.28250000000003,25.56955549999998 L 77.62249999999995,25.56955549999998" fill="none" instance-id="-1" semantic-id="2" stroke="rgb(0,178,178)" stroke-width="0.1"/>
  <path d="M 43.28250000000003,26.235555499999975 L 76.95249999999987,26.235555499999975" fill="none" instance-id="-1" semantic-id="2" stroke="rgb(0,178,178)" stroke-width="0.1"/>
  <path d="M 43.28250000000003,24.902555499999977 L 78.28250000000003,24.902555499999977" fill="none" instance-id="-1" semantic-id="2" stroke="rgb(0,178,178)" stroke-width="0.1"/>
  <path d="M 43.28250000000003,26.902555499999977 L 76.28250000000003,26.902555499999977" fill="none" instance-id="-1" semantic-id="2" stroke="rgb(0,178,178)" stroke-width="0.1"/>
  <path d="M 77.62249999999995,25.56955549999998 L 77.62249999999995,38.56955549999998" fill="none" instance-id="-1" semantic-id="2" stroke="rgb(0,178,178)" stroke-width="0.1"/>
  <path d="M 76.95249999999987,26.235555499999975 L 76.95249999999987,39.235555499999975" fill="none" instance-id="-1" semantic-id="2" stroke="rgb(0,178,178)" stroke-width="0.1"/>
  <path d="M 78.28250000000003,24.902555499999977 L 78.28250000000003,37.90255549999998" fill="none" instance-id="-1" semantic-id="2" stroke="rgb(0,178,178)" stroke-width="0.1"/>
  <path d="M 76.28250000000003,26.902555499999977 L 76.28250000000003,39.90255549999998" fill="none" instance-id="-1" semantic-id="2" stroke="rgb(0,178,178)" stroke-width="0.1"/>
  <path d="M 77.62249999999995,38.56955549999998 L 100.0,38.56955549999998" fill="none" instance-id="-1" semantic-id="2" stroke="rgb(0,178,178)" stroke-width="0.1"/>
  <path d="M 76.95249999999987,39.235555499999975 L 100.0,39.235555499999975" fill="none" instance-id="-1" semantic-id="2" stroke="rgb(0,178,178)" stroke-width="0.1"/>
  <path d="M 78.28250000000003,37.90255549999998 L 100.0,37.90255549999998" fill="none" instance-id="-1" semantic-id="2" stroke="rgb(0,178,178)" stroke-width="0.1"/>
  <path d="M 76.28250000000003,39.90255549999998 L 100.0,39.90255549999998" fill="none" instance-id="-1" semantic-id="2" stroke="rgb(0,178,178)" stroke-width="0.1"/>
  <path d="M 22.902499999999918,26.235555499999975 L 22.402153160300713,26.23679520012098" fill="none" stroke="rgb(0,178,178)" stroke-width="0.1"/>
  <path d="M 22.402153160300713,26.23679520012098 L 21.90181865858949,26.240521223619083" fill="none" stroke="rgb(0,178,178)" stroke-width="0.1"/>
  <path d="M 21.90181865858949,26.240521223619083 L 21.401508849827906,26.24673347848602" fill="none" stroke="rgb(0,178,178)" stroke-width="0.1"/>
  <path d="M 21.401508849827906,26.24673347848602 L 20.90123608836734,26.255431811320165" fill="none" stroke="rgb(0,178,178)" stroke-width="0.1"/>
  <path d="M 20.90123608836734,26.255431811320165 L 20.40101272764423,26.266616007330015" fill="none" stroke="rgb(0,178,178)" stroke-width="0.1"/>
  <path d="M 20.40101272764423,26.266616007330015 L 19.900851119875142,26.280285790339747" fill="none" stroke="rgb(0,178,178)" stroke-width="0.1"/>
  <path d="M 19.900851119875142,26.280285790339747 L 19.40076361575234,26.296440822795944" fill="none" stroke="rgb(0,178,178)" stroke-width="0.1"/>
  <path d="M 19.40076361575234,26.296440822795944 L 18.900762564137267,26.315080705775813" fill="none" stroke="rgb(0,178,178)" stroke-width="0.1"/>
  <path d="M 18.900762564137267,26.315080705775813 L 18.40086031175747,26.336204978997273" fill="none" stroke="rgb(0,178,178)" stroke-width="0.1"/>
  <path d="M 18.40086031175747,26.336204978997273 L 17.90106920290009,26.359813120830154" fill="none" stroke="rgb(0,178,178)" stroke-width="0.1"/>
  <path d="M 17.90106920290009,26.359813120830154 L 17.40140157910855,26.3859045483091" fill="none" stroke="rgb(0,178,178)" stroke-width="0.1"/>
  <path d="M 17.40140157910855,26.3859045483091 L 16.901869778875835,26.414478617147978" fill="none" stroke="rgb(0,178,178)" stroke-width="0.1"/>
  <path d="M 16.901869778875835,26.414478617147978 L 16.402486137342294,26.445534621755826" fill="none" stroke="rgb(0,178,178)" stroke-width="0.1"/>
  <path d="M 16.402486137342294,26.445534621755826 L 15.903262985988704,26.479071795254242" fill="none" stroke="rgb(0,178,178)" stroke-width="0.1"/>
  <path d="M 15.903262985988704,26.479071795254242 L 15.404212652333626,26.51508930949626" fill="none" stroke="rgb(0,178,178)" stroke-width="0.1"/>
  <path d="M 15.404212652333626,26.51508930949626 L 14.905347459627365,26.55358627508693" fill="none" stroke="rgb(0,178,178)" stroke-width="0.1"/>
  <path d="M 14.905347459627365,26.55358627508693 L 14.406679726548873,26.594561741405187" fill="none" stroke="rgb(0,178,178)" stroke-width="0.1"/>
  <path d="M 14.406679726548873,26.594561741405187 L 13.908221766901306,26.63801469662741" fill="none" stroke="rgb(0,178,178)" stroke-width="0.1"/>
  <path d="M 13.908221766901306,26.63801469662741 L 13.409985889307563,26.683944067752236" fill="none" stroke="rgb(0,178,178)" stroke-width="0.1"/>
  <path d="M 13.409985889307563,26.683944067752236 L 12.911984396906519,26.732348720627215" fill="none" stroke="rgb(0,178,178)" stroke-width="0.1"/>
  <path d="M 12.911984396906519,26.732348720627215 L 12.414229587049476,26.783227459976814" fill="none" stroke="rgb(0,178,178)" stroke-width="0.1"/>
  <path d="M 12.414229587049476,26.783227459976814 L 11.9167337509964,26.836579029431846" fill="none" stroke="rgb(0,178,178)" stroke-width="0.1"/>
  <path d="M 11.9167337509964,26.836579029431846 L 11.419509173611686,26.8924021115605" fill="none" stroke="rgb(0,178,178)" stroke-width="0.1"/>
  <path d="M 11.419509173611686,26.8924021115605 L 10.922568133062441,26.950695327901002" fill="none" stroke="rgb(0,178,178)" stroke-width="0.1"/>
  <path d="M 10.922568133062441,26.950695327901002 L 10.425922900513342,27.01145723899549" fill="none" stroke="rgb(0,178,178)" stroke-width="0.1"/>
  <path d="M 10.425922900513342,27.01145723899549 L 9.929585739825143,27.0746863444256" fill="none" stroke="rgb(0,178,178)" stroke-width="0.1"/>
  <path d="M 9.929585739825143,27.0746863444256 L 9.433568907250901,27.14038108284967" fill="none" stroke="rgb(0,178,178)" stroke-width="0.1"/>
  <path d="M 9.433568907250901,27.14038108284967 L 8.937884651134027,27.208539832041026" fill="none" stroke="rgb(0,178,178)" stroke-width="0.1"/>
  <path d="M 8.937884651134027,27.208539832041026 L 8.442545211604966,27.279160908928276" fill="none" stroke="rgb(0,178,178)" stroke-width="0.1"/>
  <path d="M 8.442545211604966,27.279160908928276 L 7.9475628202801545,27.352242569636758" fill="none" stroke="rgb(0,178,178)" stroke-width="0.1"/>
  <path d="M 7.9475628202801545,27.352242569636758 L 7.452949699958708,27.427783009531623" fill="none" stroke="rgb(0,178,178)" stroke-width="0.1"/>
  <path d="M 7.452949699958708,27.427783009531623 L 6.958718064321602,27.505780363262375" fill="none" stroke="rgb(0,178,178)" stroke-width="0.1"/>
  <path d="M 6.958718064321602,27.505780363262375 L 6.464880117629264,27.586232704808992" fill="none" stroke="rgb(0,178,178)" stroke-width="0.1"/>
  <path d="M 6.464880117629264,27.586232704808992 L 5.971448054420989,27.66913804752943" fill="none" stroke="rgb(0,178,178)" stroke-width="0.1"/>
  <path d="M 5.971448054420989,27.66913804752943 L 5.478434059213214,27.754494344208695" fill="none" stroke="rgb(0,178,178)" stroke-width="0.1"/>
  <path d="M 5.478434059213214,27.754494344208695 L 4.985850306198699,27.842299487109415" fill="none" stroke="rgb(0,178,178)" stroke-width="0.1"/>
  <path d="M 4.985850306198699,27.842299487109415 L 4.493708958946627,27.932551308023875" fill="none" stroke="rgb(0,178,178)" stroke-width="0.1"/>
  <path d="M 4.493708958946627,27.932551308023875 L 4.002022170100872,28.025247578327537" fill="none" stroke="rgb(0,178,178)" stroke-width="0.1"/>
  <path d="M 4.002022170100872,28.025247578327537 L 3.510802081081465,28.12038600903412" fill="none" stroke="rgb(0,178,178)" stroke-width="0.1"/>
  <path d="M 3.510802081081465,28.12038600903412 L 3.020060821783545,28.217964250852077" fill="none" stroke="rgb(0,178,178)" stroke-width="0.1"/>
  <path d="M 3.020060821783545,28.217964250852077 L 2.529810510278594,28.317979894242598" fill="none" stroke="rgb(0,178,178)" stroke-width="0.1"/>
  <path d="M 2.529810510278594,28.317979894242598 L 2.0400632525147557,28.420430469479157" fill="none" stroke="rgb(0,178,178)" stroke-width="0.1"/>
  <path d="M 2.0400632525147557,28.420430469479157 L 1.550831142018069,28.52531344670848" fill="none" stroke="rgb(0,178,178)" stroke-width="0.1"/>
  <path d="M 1.550831142018069,28.52531344670848 L 1.0621262595936969,28.632626236013067" fill="none" stroke="rgb(0,178,178)" stroke-width="0.1"/>
  <path d="M 1.0621262595936969,28.632626236013067 L 0.5739606730285232,28.742366187474943" fill="none" stroke="rgb(0,178,178)" stroke-width="0.1"/>
  <path d="M 0.5739606730285232,28.742366187474943 L 0.08634643679101828,28.854530591241428" fill="none" stroke="rgb(0,178,178)" stroke-width="0.1"/>
  <path d="M 22.902499999999918,25.56955549999998 L 22.402115870429043,25.570766317803646" fill="none" stroke="rgb(0,178,178)" stroke-width="0.1"/>
  <path d="M 22.402115870429043,25.570766317803646 L 21.901743816495127,25.574447465452153" fill="none" stroke="rgb(0,178,178)" stroke-width="0.1"/>
  <path d="M 21.901743816495127,25.574447465452153 L 21.4013960338134,25.580598853224558" fill="none" stroke="rgb(0,178,178)" stroke-width="0.1"/>
  <path d="M 21.4013960338134,25.580598853224558 L 20.901084717407457,25.58922033119248" fill="none" stroke="rgb(0,178,178)" stroke-width="0.1"/>
  <path d="M 20.901084717407457,25.58922033119248 L 20.400822061412327,25.600311689223844" fill="none" stroke="rgb(0,178,178)" stroke-width="0.1"/>
  <path d="M 20.400822061412327,25.600311689223844 L 19.90062025877728,25.613872656987922" fill="none" stroke="rgb(0,178,178)" stroke-width="0.1"/>
  <path d="M 19.90062025877728,25.613872656987922 L 19.400491500967746,25.629902903961977" fill="none" stroke="rgb(0,178,178)" stroke-width="0.1"/>
  <path d="M 19.400491500967746,25.629902903961977 L 18.900447977669273,25.648402039439304" fill="none" stroke="rgb(0,178,178)" stroke-width="0.1"/>
  <path d="M 18.900447977669273,25.648402039439304 L 18.400501876489898,25.669369612538674" fill="none" stroke="rgb(0,178,178)" stroke-width="0.1"/>
  <path d="M 18.400501876489898,25.669369612538674 L 17.900665382663192,25.692805112215467" fill="none" stroke="rgb(0,178,178)" stroke-width="0.1"/>
  <path d="M 17.900665382663192,25.692805112215467 L 17.400950678751087,25.7187079672741" fill="none" stroke="rgb(0,178,178)" stroke-width="0.1"/>
  <path d="M 17.400950678751087,25.7187079672741 L 16.901369944347152,25.747077546381746" fill="none" stroke="rgb(0,178,178)" stroke-width="0.1"/>
  <path d="M 16.901369944347152,25.747077546381746 L 16.401935355780324,25.777913158084004" fill="none" stroke="rgb(0,178,178)" stroke-width="0.1"/>
  <path d="M 16.401935355780324,25.777913158084004 L 15.902659085816367,25.81121405082166" fill="none" stroke="rgb(0,178,178)" stroke-width="0.1"/>
  <path d="M 15.902659085816367,25.81121405082166 L 15.403553303363424,25.846979412948826" fill="none" stroke="rgb(0,178,178)" stroke-width="0.1"/>
  <path d="M 15.403553303363424,25.846979412948826 L 14.904630173173473,25.88520837275297" fill="none" stroke="rgb(0,178,178)" stroke-width="0.1"/>
  <path d="M 14.904630173173473,25.88520837275297 L 14.405901855547427,25.925899998476098" fill="none" stroke="rgb(0,178,178)" stroke-width="0.1"/>
  <path d="M 14.405901855547427,25.925899998476098 L 13.90738050603727,25.969053298337315" fill="none" stroke="rgb(0,178,178)" stroke-width="0.1"/>
  <path d="M 13.90738050603727,25.969053298337315 L 13.409078275151387,26.014667220557214" fill="none" stroke="rgb(0,178,178)" stroke-width="0.1"/>
  <path d="M 13.409078275151387,26.014667220557214 L 12.911007308056924,26.062740653383315" fill="none" stroke="rgb(0,178,178)" stroke-width="0.1"/>
  <path d="M 12.911007308056924,26.062740653383315 L 12.413179744284662,26.113272425117316" fill="none" stroke="rgb(0,178,178)" stroke-width="0.1"/>
  <path d="M 12.413179744284662,26.113272425117316 L 11.915607717432522,26.16626130414363" fill="none" stroke="rgb(0,178,178)" stroke-width="0.1"/>
  <path d="M 11.915607717432522,26.16626130414363 L 11.418303354870659,26.22170599895921" fill="none" stroke="rgb(0,178,178)" stroke-width="0.1"/>
  <path d="M 11.418303354870659,26.22170599895921 L 10.921278777445423,26.279605158205328" fill="none" stroke="rgb(0,178,178)" stroke-width="0.1"/>
  <path d="M 10.921278777445423,26.279605158205328 L 10.424546099183772,26.33995737070032" fill="none" stroke="rgb(0,178,178)" stroke-width="0.1"/>
  <path d="M 10.424546099183772,26.33995737070032 L 9.928117426997915,26.402761165473976" fill="none" stroke="rgb(0,178,178)" stroke-width="0.1"/>
  <path d="M 9.928117426997915,26.402761165473976 L 9.432004860390862,26.46801501180346" fill="none" stroke="rgb(0,178,178)" stroke-width="0.1"/>
  <path d="M 9.432004860390862,26.46801501180346 L 8.936220491161293,26.535717319250693" fill="none" stroke="rgb(0,178,178)" stroke-width="0.1"/>
  <path d="M 8.936220491161293,26.535717319250693 L 8.440776403107975,26.605866437700882" fill="none" stroke="rgb(0,178,178)" stroke-width="0.1"/>
  <path d="M 8.440776403107975,26.605866437700882 L 7.945684671736899,26.67846065740295" fill="none" stroke="rgb(0,178,178)" stroke-width="0.1"/>
  <path d="M 7.945684671736899,26.67846065740295 L 7.450957363965472,26.753498209011127" fill="none" stroke="rgb(0,178,178)" stroke-width="0.1"/>
  <path d="M 7.450957363965472,26.753498209011127 L 6.956606537828975,26.830977263628057" fill="none" stroke="rgb(0,178,178)" stroke-width="0.1"/>
  <path d="M 6.956606537828975,26.830977263628057 L 6.462644242187025,26.910895932849456" fill="none" stroke="rgb(0,178,178)" stroke-width="0.1"/>
  <path d="M 6.462644242187025,26.910895932849456 L 5.969082516428898,26.993252268810068" fill="none" stroke="rgb(0,178,178)" stroke-width="0.1"/>
  <path d="M 5.969082516428898,26.993252268810068 L 5.475933390181353,27.078044264231096" fill="none" stroke="rgb(0,178,178)" stroke-width="0.1"/>
  <path d="M 5.475933390181353,27.078044264231096 L 4.98320888301464,27.165269852469237" fill="none" stroke="rgb(0,178,178)" stroke-width="0.1"/>
  <path d="M 4.98320888301464,27.165269852469237 L 4.490921004149641,27.25492690756704" fill="none" stroke="rgb(0,178,178)" stroke-width="0.1"/>
  <path d="M 4.490921004149641,27.25492690756704 L 3.9990817521654662,27.34701324430455" fill="none" stroke="rgb(0,178,178)" stroke-width="0.1"/>
  <path d="M 3.9990817521654662,27.34701324430455 L 3.5077031147063735,27.44152661825288" fill="none" stroke="rgb(0,178,178)" stroke-width="0.1"/>
  <path d="M 3.5077031147063735,27.44152661825288 L 3.0167970681907263,27.53846472582859" fill="none" stroke="rgb(0,178,178)" stroke-width="0.1"/>
  <path d="M 3.0167970681907263,27.53846472582859 L 2.526375577517456,27.63782520435001" fill="none" stroke="rgb(0,178,178)" stroke-width="0.1"/>
  <path d="M 2.526375577517456,27.63782520435001 L 2.0364505957761594,27.73960563209488" fill="none" stroke="rgb(0,178,178)" stroke-width="0.1"/>
  <path d="M 2.0364505957761594,27.73960563209488 L 1.5470340639544702,27.84380352835916" fill="none" stroke="rgb(0,178,178)" stroke-width="0.1"/>
  <path d="M 1.5470340639544702,27.84380352835916 L 1.0581379106481563,27.95041635351771" fill="none" stroke="rgb(0,178,178)" stroke-width="0.1"/>
  <path d="M 1.0581379106481563,27.95041635351771 L 0.569774051768718,28.05944150908607" fill="none" stroke="rgb(0,178,178)" stroke-width="0.1"/>
  <path d="M 0.569774051768718,28.05944150908607 L 0.08195439025530504,28.170876337783824" fill="none" stroke="rgb(0,178,178)" stroke-width="0.1"/>
  <path d="M 22.902499999999918,26.902555499999977 L 22.402127023670346,26.903771350487148" fill="none" stroke="rgb(0,178,178)" stroke-width="0.1"/>
  <path d="M 22.402127023670346,26.903771350487148 L 21.90176639088145,26.907490340748325" fill="none" stroke="rgb(0,178,178)" stroke-width="0.1"/>
  <path d="M 21.90176639088145,26.907490340748325 L 21.401430623631768,26.913712377712272" fill="none" stroke="rgb(0,178,178)" stroke-width="0.1"/>
  <path d="M 21.401430623631768,26.913712377712272 L 20.90113224329707,26.922437305666563" fill="none" stroke="rgb(0,178,178)" stroke-width="0.1"/>
  <path d="M 20.90113224329707,26.922437305666563 L 20.400883770317705,26.933664906261697" fill="none" stroke="rgb(0,178,178)" stroke-width="0.1"/>
  <path d="M 20.400883770317705,26.933664906261697 L 19.900697723884832,26.94739489851628" fill="none" stroke="rgb(0,178,178)" stroke-width="0.1"/>
  <path d="M 19.900697723884832,26.94739489851628 L 19.40058662162778,26.96362693882429" fill="none" stroke="rgb(0,178,178)" stroke-width="0.1"/>
  <path d="M 19.40058662162778,26.96362693882429 L 18.900562979300048,26.98236062096359" fill="none" stroke="rgb(0,178,178)" stroke-width="0.1"/>
  <path d="M 18.900562979300048,26.98236062096359 L 18.400639310465976,27.003595476106" fill="none" stroke="rgb(0,178,178)" stroke-width="0.1"/>
  <path d="M 18.400639310465976,27.003595476106 L 17.9008281261888,27.027330972829247" fill="none" stroke="rgb(0,178,178)" stroke-width="0.1"/>
  <path d="M 17.9008281261888,27.027330972829247 L 17.40114193471595,27.053566517130037" fill="none" stroke="rgb(0,178,178)" stroke-width="0.1"/>
  <path d="M 17.40114193471595,27.053566517130037 L 16.901593241167348,27.082301452439026" fill="none" stroke="rgb(0,178,178)" stroke-width="0.1"/>
  <path d="M 16.901593241167348,27.082301452439026 L 16.402194547221598,27.113535059637314" fill="none" stroke="rgb(0,178,178)" stroke-width="0.1"/>
  <path d="M 16.402194547221598,27.113535059637314 L 15.902958350803601,27.147266557074317" fill="none" stroke="rgb(0,178,178)" stroke-width="0.1"/>
  <path d="M 15.902958350803601,27.147266557074317 L 15.403897145771225,27.18349510058738" fill="none" stroke="rgb(0,178,178)" stroke-width="0.1"/>
  <path d="M 15.403897145771225,27.18349510058738 L 14.905023421603573,27.222219783522974" fill="none" stroke="rgb(0,178,178)" stroke-width="0.1"/>
  <path d="M 14.905023421603573,27.222219783522974 L 14.40634966308744,27.263439636759188" fill="none" stroke="rgb(0,178,178)" stroke-width="0.1"/>
  <path d="M 14.40634966308744,27.263439636759188 L 13.907888350005805,27.307153628730248" fill="none" stroke="rgb(0,178,178)" stroke-width="0.1"/>
  <path d="M 13.907888350005805,27.307153628730248 L 13.409651956824064,27.353360665452186" fill="none" stroke="rgb(0,178,178)" stroke-width="0.1"/>
  <path d="M 13.409651956824064,27.353360665452186 L 12.911652952379654,27.402059590550124" fill="none" stroke="rgb(0,178,178)" stroke-width="0.1"/>
  <path d="M 12.911652952379654,27.402059590550124 L 12.413903799568743,27.453249185287405" fill="none" stroke="rgb(0,178,178)" stroke-width="0.1"/>
  <path d="M 12.413903799568743,27.453249185287405 L 11.91641695503472,27.506928168596005" fill="none" stroke="rgb(0,178,178)" stroke-width="0.1"/>
  <path d="M 11.91641695503472,27.506928168596005 L 11.419204868856923,27.563095197108566" fill="none" stroke="rgb(0,178,178)" stroke-width="0.1"/>
  <path d="M 11.419204868856923,27.563095197108566 L 10.922279984237775,27.621748865192046" fill="none" stroke="rgb(0,178,178)" stroke-width="0.1"/>
  <path d="M 10.922279984237775,27.621748865192046 L 10.425654737192872,27.68288770498293" fill="none" stroke="rgb(0,178,178)" stroke-width="0.1"/>
  <path d="M 10.425654737192872,27.68288770498293 L 9.929341556239024,27.746510186423933" fill="none" stroke="rgb(0,178,178)" stroke-width="0.1"/>
  <path d="M 9.929341556239024,27.746510186423933 L 9.433352862082756,27.81261471730221" fill="none" stroke="rgb(0,178,178)" stroke-width="0.1"/>
  <path d="M 9.433352862082756,27.81261471730221 L 8.937701067310854,27.881199643289364" fill="none" stroke="rgb(0,178,178)" stroke-width="0.1"/>
  <path d="M 8.937701067310854,27.881199643289364 L 8.442398576078176,27.952263247982728" fill="none" stroke="rgb(0,178,178)" stroke-width="0.1"/>
  <path d="M 8.442398576078176,27.952263247982728 L 7.9474577837982,28.02580375294832" fill="none" stroke="rgb(0,178,178)" stroke-width="0.1"/>
  <path d="M 7.9474577837982,28.02580375294832 L 7.4528910768324295,28.10181931776549" fill="none" stroke="rgb(0,178,178)" stroke-width="0.1"/>
  <path d="M 7.4528910768324295,28.10181931776549 L 6.958710832180941,28.180308040072816" fill="none" stroke="rgb(0,178,178)" stroke-width="0.1"/>
  <path d="M 6.958710832180941,28.180308040072816 L 6.464929417171561,28.261267955615665" fill="none" stroke="rgb(0,178,178)" stroke-width="0.1"/>
  <path d="M 6.464929417171561,28.261267955615665 L 5.971559189151549,28.344697038295664" fill="none" stroke="rgb(0,178,178)" stroke-width="0.1"/>
  <path d="M 5.971559189151549,28.344697038295664 L 5.478612495177686,28.43059320022104" fill="none" stroke="rgb(0,178,178)" stroke-width="0.1"/>
  <path d="M 5.478612495177686,28.43059320022104 L 4.986101671707047,28.51895429175903" fill="none" stroke="rgb(0,178,178)" stroke-width="0.1"/>
  <path d="M 4.986101671707047,28.51895429175903 L 4.494039044289593,28.609778101589797" fill="none" stroke="rgb(0,178,178)" stroke-width="0.1"/>
  <path d="M 4.494039044289593,28.609778101589797 L 4.0024369272573495,28.703062356761507" fill="none" stroke="rgb(0,178,178)" stroke-width="0.1"/>
  <path d="M 4.0024369272573495,28.703062356761507 L 3.511307623419043,28.798804722747462" fill="none" stroke="rgb(0,178,178)" stroke-width="0.1"/>
  <path d="M 3.511307623419043,28.798804722747462 L 3.0206634237499657,28.897002803504364" fill="none" stroke="rgb(0,178,178)" stroke-width="0.1"/>
  <path d="M 3.0206634237499657,28.897002803504364 L 2.5305166070852465,28.99765414153231" fill="none" stroke="rgb(0,178,178)" stroke-width="0.1"/>
  <path d="M 2.5305166070852465,28.99765414153231 L 2.0408794398128975,29.10075621793635" fill="none" stroke="rgb(0,178,178)" stroke-width="0.1"/>
  <path d="M 2.0408794398128975,29.10075621793635 L 1.551764175566177,29.206306452489457" fill="none" stroke="rgb(0,178,178)" stroke-width="0.1"/>
  <path d="M 1.551764175566177,29.206306452489457 L 1.0631830549173173,29.314302203697196" fill="none" stroke="rgb(0,178,178)" stroke-width="0.1"/>
  <path d="M 1.0631830549173173,29.314302203697196 L 0.5751483050712523,29.42474076886367" fill="none" stroke="rgb(0,178,178)" stroke-width="0.1"/>
  <path d="M 0.5751483050712523,29.42474076886367 L 0.08767213955934494,29.537619384159314" fill="none" stroke="rgb(0,178,178)" stroke-width="0.1"/>
  <path d="M 22.902499999999918,24.902555499999977 L 22.402073946272367,24.903748354567426" fill="none" stroke="rgb(0,178,178)" stroke-width="0.1"/>
  <path d="M 22.402073946272367,24.903748354567426 L 21.90165976352705,24.907395800056065" fill="none" stroke="rgb(0,178,178)" stroke-width="0.1"/>
  <path d="M 21.90165976352705,24.907395800056065 L 21.401269491465428,24.913497748710313" fill="none" stroke="rgb(0,178,178)" stroke-width="0.1"/>
  <path d="M 21.401269491465428,24.913497748710313 L 20.900915169213704,24.922054053720444" fill="none" stroke="rgb(0,178,178)" stroke-width="0.1"/>
  <path d="M 20.900915169213704,24.922054053720444 L 20.40060883503338,24.933064509226313" fill="none" stroke="rgb(0,178,178)" stroke-width="0.1"/>
  <path d="M 20.40060883503338,24.933064509226313 L 19.90036252603136,24.946528850322125" fill="none" stroke="rgb(0,178,178)" stroke-width="0.1"/>
  <path d="M 19.90036252603136,24.946528850322125 L 19.400188277870257,24.962446753062977" fill="none" stroke="rgb(0,178,178)" stroke-width="0.1"/>
  <path d="M 19.400188277870257,24.962446753062977 L 18.900098124478518,24.980817834472475" fill="none" stroke="rgb(0,178,178)" stroke-width="0.1"/>
  <path d="M 18.900098124478518,24.980817834472475 L 18.400104097762323,25.00164165255211" fill="none" stroke="rgb(0,178,178)" stroke-width="0.1"/>
  <path d="M 18.400104097762323,25.00164165255211 L 17.900218227314326,25.024917706291745" fill="none" stroke="rgb(0,178,178)" stroke-width="0.1"/>
  <path d="M 17.900218227314326,25.024917706291745 L 17.400452540125116,25.050645435681815" fill="none" stroke="rgb(0,178,178)" stroke-width="0.1"/>
  <path d="M 17.400452540125116,25.050645435681815 L 16.90081906029377,25.078824221726734" fill="none" stroke="rgb(0,178,178)" stroke-width="0.1"/>
  <path d="M 16.90081906029377,25.078824221726734 L 16.401329808738637,25.109453386459734" fill="none" stroke="rgb(0,178,178)" stroke-width="0.1"/>
  <path d="M 16.401329808738637,25.109453386459734 L 15.901996802907888,25.14253219295921" fill="none" stroke="rgb(0,178,178)" stroke-width="0.1"/>
  <path d="M 15.901996802907888,25.14253219295921 L 15.402832056490752,25.17805984536659" fill="none" stroke="rgb(0,178,178)" stroke-width="0.1"/>
  <path d="M 15.402832056490752,25.17805984536659 L 14.903847579127842,25.21603548890519" fill="none" stroke="rgb(0,178,178)" stroke-width="0.1"/>
  <path d="M 14.903847579127842,25.21603548890519 L 14.405055376122618,25.256458209901098" fill="none" stroke="rgb(0,178,178)" stroke-width="0.1"/>
  <path d="M 14.405055376122618,25.256458209901098 L 13.90646744815308,25.299327035804907" fill="none" stroke="rgb(0,178,178)" stroke-width="0.1"/>
  <path d="M 13.90646744815308,25.299327035804907 L 13.408095790982088,25.344640935215295" fill="none" stroke="rgb(0,178,178)" stroke-width="0.1"/>
  <path d="M 13.408095790982088,25.344640935215295 L 12.909952395168602,25.392398817903654" fill="none" stroke="rgb(0,178,178)" stroke-width="0.1"/>
  <path d="M 12.909952395168602,25.392398817903654 L 12.412049245780736,25.442599534840497" fill="none" stroke="rgb(0,178,178)" stroke-width="0.1"/>
  <path d="M 12.412049245780736,25.442599534840497 L 11.914398322105853,25.495241878223112" fill="none" stroke="rgb(0,178,178)" stroke-width="0.1"/>
  <path d="M 11.914398322105853,25.495241878223112 L 11.417011597362944,25.550324581504356" fill="none" stroke="rgb(0,178,178)" stroke-width="0.1"/>
  <path d="M 11.417011597362944,25.550324581504356 L 10.91990103841431,25.60784631942346" fill="none" stroke="rgb(0,178,178)" stroke-width="0.1"/>
  <path d="M 10.91990103841431,25.60784631942346 L 10.423078605478395,25.66780570803769" fill="none" stroke="rgb(0,178,178)" stroke-width="0.1"/>
  <path d="M 10.423078605478395,25.66780570803769 L 9.926556251841248,25.73020130475578" fill="none" stroke="rgb(0,178,178)" stroke-width="0.1"/>
  <path d="M 9.926556251841248,25.73020130475578 L 9.430345923568666,25.79503160837251" fill="none" stroke="rgb(0,178,178)" stroke-width="0.1"/>
  <path d="M 9.430345923568666,25.79503160837251 L 8.934459559219931,25.86229505910495" fill="none" stroke="rgb(0,178,178)" stroke-width="0.1"/>
  <path d="M 8.934459559219931,25.86229505910495 L 8.438909089559957,25.93199003862992" fill="none" stroke="rgb(0,178,178)" stroke-width="0.1"/>
  <path d="M 8.438909089559957,25.93199003862992 L 7.94370643727143,26.00411487012292" fill="none" stroke="rgb(0,178,178)" stroke-width="0.1"/>
  <path d="M 7.94370643727143,26.00411487012292 L 7.4488635166696895,26.078667818298527" fill="none" stroke="rgb(0,178,178)" stroke-width="0.1"/>
  <path d="M 7.4488635166696895,26.078667818298527 L 6.954392233414637,26.15564708945203" fill="none" stroke="rgb(0,178,178)" stroke-width="0.1"/>
  <path d="M 6.954392233414637,26.15564708945203 L 6.460304484224707,26.235050831502804" fill="none" stroke="rgb(0,178,178)" stroke-width="0.1"/>
  <path d="M 6.460304484224707,26.235050831502804 L 5.9666121565906,26.316877134038634" fill="none" stroke="rgb(0,178,178)" stroke-width="0.1"/>
  <path d="M 5.9666121565906,26.316877134038634 L 5.473327128489927,26.40112402836172" fill="none" stroke="rgb(0,178,178)" stroke-width="0.1"/>
  <path d="M 5.473327128489927,26.40112402836172 L 4.980461268100498,26.487789487536247" fill="none" stroke="rgb(0,178,178)" stroke-width="0.1"/>
  <path d="M 4.980461268100498,26.487789487536247 L 4.488026433515415,26.576871426436924" fill="none" stroke="rgb(0,178,178)" stroke-width="0.1"/>
  <path d="M 4.488026433515415,26.576871426436924 L 3.996034472456813,26.66836770179924" fill="none" stroke="rgb(0,178,178)" stroke-width="0.1"/>
  <path d="M 3.996034472456813,26.66836770179924 L 3.504497221992551,26.76227611227094" fill="none" stroke="rgb(0,178,178)" stroke-width="0.1"/>
  <path d="M 3.504497221992551,26.76227611227094 L 3.0134265082497222,26.858594398465243" fill="none" stroke="rgb(0,178,178)" stroke-width="0.1"/>
  <path d="M 3.0134265082497222,26.858594398465243 L 2.52283414613089,26.957320243014863" fill="none" stroke="rgb(0,178,178)" stroke-width="0.1"/>
  <path d="M 2.52283414613089,26.957320243014863 L 2.0327319390298726,27.05845127062804" fill="none" stroke="rgb(0,178,178)" stroke-width="0.1"/>
  <path d="M 2.0327319390298726,27.05845127062804 L 1.543131678547752,27.16198504814554" fill="none" stroke="rgb(0,178,178)" stroke-width="0.1"/>
  <path d="M 1.543131678547752,27.16198504814554 L 1.0540451442084304,27.267919084599185" fill="none" stroke="rgb(0,178,178)" stroke-width="0.1"/>
  <path d="M 1.0540451442084304,27.267919084599185 L 0.565484103176459,27.376250831271875" fill="none" stroke="rgb(0,178,178)" stroke-width="0.1"/>
  <path d="M 0.565484103176459,27.376250831271875 L 0.0774603099732758,27.4869776817589" fill="none" stroke="rgb(0,178,178)" stroke-width="0.1"/>
 </g>
 <g id="layerDOTE" inkscape:groupmode="layer" inkscape:label="DOTE">
  <path d="M 0.0,43.90255549999998 L 100.0,43.90255549999998" fill="none" stroke="rgb(178,0,0)" stroke-width="0.1"/>
  <path d="M 77.28250000000003,100.0 L 77.28250000000003,0.0" fill="none" stroke="rgb(178,0,0)" stroke-width="0.1"/>
 </g>
 <g id="layerEQUIP_地漏" inkscape:groupmode="layer" inkscape:label="EQUIP_地漏">
  <path d="M 93.15249999999992,74.0735555 L 94.36249999999995,75.28655549999999" fill="none" stroke="rgb(0,0,0)" stroke-width="0.1"/>
  <path d="M 93.15249999999992,74.0735555 L 94.36249999999995,75.28655549999999" fill="none" stroke="rgb(0,0,0)" stroke-width="0.1"/>
  <path d="M 93.22249999999985,73.41755549999999 L 95.02250000000004,75.2165555" fill="none" stroke="rgb(0,0,0)" stroke-width="0.1"/>
  <path d="M 93.22249999999985,73.41755549999999 L 95.02250000000004,75.2165555" fill="none" stroke="rgb(0,0,0)" stroke-width="0.1"/>
  <path d="M 94.64249999999993,72.4895555 L 95.91249999999991,73.7515555" fill="none" stroke="rgb(0,0,0)" stroke-width="0.1"/>
  <path d="M 94.64249999999993,72.4895555 L 95.91249999999991,73.7515555" fill="none" stroke="rgb(0,0,0)" stroke-width="0.1"/>
  <path d="M 94.00250000000005,72.59455549999998 L 95.84249999999997,74.42855549999999" fill="none" stroke="rgb(0,0,0)" stroke-width="0.1"/>
  <path d="M 94.00250000000005,72.59455549999998 L 95.84249999999997,74.42855549999999" fill="none" stroke="rgb(0,0,0)" stroke-width="0.1"/>
  <path d="M 93.53250000000003,72.90555549999999 L 95.53250000000003,74.89955549999999" fill="none" stroke="rgb(0,0,0)" stroke-width="0.1"/>
  <path d="M 93.53250000000003,72.90555549999999 L 95.53250000000003,74.89955549999999" fill="none" stroke="rgb(0,0,0)" stroke-width="0.1"/>
  <path d="M 91.60249999999996,43.287555499999996 L 92.8125,42.074555499999974" fill="none" stroke="rgb(0,0,0)" stroke-width="0.1"/>
  <path d="M 91.60249999999996,43.287555499999996 L 92.8125,42.074555499999974" fill="none" stroke="rgb(0,0,0)" stroke-width="0.1"/>
  <path d="M 90.94249999999988,43.20955549999999 L 92.74249999999984,41.41055549999999" fill="none" stroke="rgb(0,0,0)" stroke-width="0.1"/>
  <path d="M 90.94249999999988,43.20955549999999 L 92.74249999999984,41.41055549999999" fill="none" stroke="rgb(0,0,0)" stroke-width="0.1"/>
  <path d="M 90.02250000000004,41.78855549999997 L 91.28250000000003,40.52655549999997" fill="none" stroke="rgb(0,0,0)" stroke-width="0.1"/>
  <path d="M 90.02250000000004,41.78855549999997 L 91.28250000000003,40.52655549999997" fill="none" stroke="rgb(0,0,0)" stroke-width="0.1"/>
  <path d="M 90.12249999999995,42.42955549999999 L 91.95249999999987,40.59555549999999" fill="none" stroke="rgb(0,0,0)" stroke-width="0.1"/>
  <path d="M 90.12249999999995,42.42955549999999 L 91.95249999999987,40.59555549999999" fill="none" stroke="rgb(0,0,0)" stroke-width="0.1"/>
  <path d="M 90.43249999999989,42.900555499999996 L 92.43249999999989,40.906555499999996" fill="none" stroke="rgb(0,0,0)" stroke-width="0.1"/>
  <path d="M 90.43249999999989,42.900555499999996 L 92.43249999999989,40.906555499999996" fill="none" stroke="rgb(0,0,0)" stroke-width="0.1"/>
  <circle cx="94.53250000000003" cy="73.90255549999998" fill="none" r="1.41" stroke="rgb(0,0,0)" stroke-width="0.1"/>
  <circle cx="94.53250000000003" cy="73.90255549999998" fill="none" r="1.41" stroke="rgb(0,0,0)" stroke-width="0.1"/>
  <circle cx="91.43249999999989" cy="41.90355549999998" fill="none" r="1.41" stroke="rgb(0,0,0)" stroke-width="0.1"/>
  <circle cx="91.43249999999989" cy="41.90355549999998" fill="none" r="1.41" stroke="rgb(0,0,0)" stroke-width="0.1"/>
 </g>
 <g id="layerJ-开洞" inkscape:groupmode="layer" inkscape:label="J-开洞">
  <path d="M 55.28250000000003,50.90255549999998 L 58.602499999999964,53.608555499999994" fill="none" stroke="rgb(178,0,178)" stroke-width="0.1"/>
  <path d="M 58.602499999999964,53.608555499999994 L 59.28250000000003,66.90255549999998" fill="none" stroke="rgb(178,0,178)" stroke-width="0.1"/>
 </g>
 <g id="layerJ-洁具" inkscape:groupmode="layer" inkscape:label="J-洁具">
  <path d="M 81.28250000000003,45.90255549999998 L 81.28250000000003,47.90255549999998" fill="none" stroke="rgb(12,133,255)" stroke-width="0.1"/>
  <path d="M 81.28250000000003,47.90255549999998 L 94.03250000000003,47.90255549999998" fill="none" stroke="rgb(12,133,255)" stroke-width="0.1"/>
  <path d="M 81.28250000000003,45.90255549999998 L 81.28250000000003,47.90255549999998" fill="none" stroke="rgb(12,133,255)" stroke-width="0.1"/>
  <path d="M 94.03250000000003,47.90255549999998 L 94.03250000000003,39.90255549999998" fill="none" stroke="rgb(12,133,255)" stroke-width="0.1"/>
  <path d="M 100.0,99.14810550000013 L 98.66249999999991,96.83155549999998" fill="none" stroke="rgb(12,133,255)" stroke-width="0.1"/>
  <path d="M 93.44249999999988,69.14255549999999 L 91.13249999999994,69.14255549999999" fill="none" instance-id="14" semantic-id="28" stroke="rgb(12,133,255)" stroke-width="0.1"/>
  <path d="M 91.85249999999996,67.74655549999997 L 91.04250000000002,68.98755549999998" fill="none" instance-id="14" semantic-id="28" stroke="rgb(12,133,255)" stroke-width="0.1"/>
  <path d="M 93.53250000000003,68.98755549999998 L 92.72249999999985,67.74655549999997" fill="none" instance-id="14" semantic-id="28" stroke="rgb(12,133,255)" stroke-width="0.1"/>
  <path d="M 100.0,69.14255549999999 L 98.63249999999994,69.14255549999999" fill="none" instance-id="15" semantic-id="28" stroke="rgb(12,133,255)" stroke-width="0.1"/>
  <path d="M 99.35249999999996,67.74655549999997 L 98.54250000000002,68.98755549999998" fill="none" instance-id="15" semantic-id="28" stroke="rgb(12,133,255)" stroke-width="0.1"/>
  <path d="M 94.03250000000003,39.90255549999998 L 94.03250000000003,51.90255549999998" fill="none" stroke="rgb(12,133,255)" stroke-width="0.1"/>
  <path d="M 94.28250000000003,39.90255549999998 L 94.28250000000003,51.65255549999998" fill="none" stroke="rgb(12,133,255)" stroke-width="0.1"/>
  <path d="M 94.28250000000003,51.65255549999998 L 95.66249999999991,51.65255549999998" fill="none" stroke="rgb(12,133,255)" stroke-width="0.1"/>
  <path d="M 95.66249999999991,51.65255549999998 L 95.66249999999991,51.90255549999998" fill="none" instance-id="12" semantic-id="3" stroke="rgb(12,133,255)" stroke-width="0.1"/>
  <path d="M 95.66249999999991,51.90255549999998 L 94.03250000000003,51.90255549999998" fill="none" stroke="rgb(12,133,255)" stroke-width="0.1"/>
  <path d="M 95.66249999999991,51.77755549999998 L 98.66249999999991,56.973555499999975" fill="none" instance-id="12" semantic-id="3" stroke="rgb(12,133,255)" stroke-width="0.1"/>
  <path d="M 87.94249999999988,43.3475555 L 87.63249999999994,43.3475555" fill="none" instance-id="2" semantic-id="23" stroke="rgb(12,133,255)" stroke-width="0.1"/>
  <path d="M 87.63249999999994,43.3475555 L 87.63249999999994,44.628555499999976" fill="none" instance-id="2" semantic-id="23" stroke="rgb(12,133,255)" stroke-width="0.1"/>
  <path d="M 87.94249999999988,43.3475555 L 87.94249999999988,44.628555499999976" fill="none" instance-id="2" semantic-id="23" stroke="rgb(12,133,255)" stroke-width="0.1"/>
  <path d="M 87.63249999999994,43.89755549999998 L 85.68249999999989,43.89755549999998" fill="none" instance-id="2" semantic-id="23" stroke="rgb(12,133,255)" stroke-width="0.1"/>
  <path d="M 85.58249999999998,43.997555499999976 L 85.58249999999998,47.19755549999999" fill="none" instance-id="2" semantic-id="23" stroke="rgb(12,133,255)" stroke-width="0.1"/>
  <path d="M 85.68249999999989,47.29755549999999 L 89.88249999999994,47.29755549999999" fill="none" instance-id="2" semantic-id="23" stroke="rgb(12,133,255)" stroke-width="0.1"/>
  <path d="M 89.98249999999985,47.19755549999999 L 89.98249999999985,43.997555499999976" fill="none" instance-id="2" semantic-id="23" stroke="rgb(12,133,255)" stroke-width="0.1"/>
  <path d="M 89.88249999999994,43.89755549999998 L 87.94249999999988,43.89755549999998" fill="none" instance-id="2" semantic-id="23" stroke="rgb(12,133,255)" stroke-width="0.1"/>
  <path d="M 90.28250000000003,43.0975555 L 85.28250000000003,43.0975555" fill="none" instance-id="2" semantic-id="23" stroke="rgb(12,133,255)" stroke-width="0.1"/>
  <path d="M 85.28250000000003,43.0975555 L 85.28250000000003,47.5975555" fill="none" instance-id="2" semantic-id="23" stroke="rgb(12,133,255)" stroke-width="0.1"/>
  <path d="M 85.28250000000003,47.5975555 L 90.28250000000003,47.5975555" fill="none" instance-id="2" semantic-id="23" stroke="rgb(12,133,255)" stroke-width="0.1"/>
  <path d="M 90.28250000000003,47.5975555 L 90.28250000000003,43.0975555" fill="none" instance-id="2" semantic-id="23" stroke="rgb(12,133,255)" stroke-width="0.1"/>
  <path d="M 59.382499999999936,32.26455549999997 L 59.382499999999936,32.54055549999998" fill="none" instance-id="3" semantic-id="23" stroke="rgb(12,133,255)" stroke-width="0.1"/>
  <path d="M 59.382499999999936,32.54055549999998 L 58.232499999999845,32.54055549999998" fill="none" instance-id="3" semantic-id="23" stroke="rgb(12,133,255)" stroke-width="0.1"/>
  <path d="M 59.382499999999936,32.26455549999997 L 58.232499999999845,32.26455549999997" fill="none" instance-id="3" semantic-id="23" stroke="rgb(12,133,255)" stroke-width="0.1"/>
  <path d="M 58.882499999999936,32.54055549999998 L 58.882499999999936,34.29255549999999" fill="none" instance-id="3" semantic-id="23" stroke="rgb(12,133,255)" stroke-width="0.1"/>
  <path d="M 58.79250000000002,34.382555499999995 L 55.91249999999991,34.382555499999995" fill="none" instance-id="3" semantic-id="23" stroke="rgb(12,133,255)" stroke-width="0.1"/>
  <path d="M 55.82249999999999,34.29255549999999 L 55.82249999999999,30.51255549999999" fill="none" instance-id="3" semantic-id="23" stroke="rgb(12,133,255)" stroke-width="0.1"/>
  <path d="M 55.91249999999991,30.422555499999987 L 58.79250000000002,30.422555499999987" fill="none" instance-id="3" semantic-id="23" stroke="rgb(12,133,255)" stroke-width="0.1"/>
  <path d="M 58.882499999999936,30.51255549999999 L 58.882499999999936,32.26455549999997" fill="none" instance-id="3" semantic-id="23" stroke="rgb(12,133,255)" stroke-width="0.1"/>
  <path d="M 59.602499999999964,30.152555499999977 L 59.602499999999964,34.65255549999998" fill="none" instance-id="3" semantic-id="23" stroke="rgb(12,133,255)" stroke-width="0.1"/>
  <path d="M 59.602499999999964,34.65255549999998 L 55.55250000000001,34.65255549999998" fill="none" instance-id="3" semantic-id="23" stroke="rgb(12,133,255)" stroke-width="0.1"/>
  <path d="M 55.55250000000001,34.65255549999998 L 55.55250000000001,30.152555499999977" fill="none" instance-id="3" semantic-id="23" stroke="rgb(12,133,255)" stroke-width="0.1"/>
  <path d="M 55.55250000000001,30.152555499999977 L 59.602499999999964,30.152555499999977" fill="none" instance-id="3" semantic-id="23" stroke="rgb(12,133,255)" stroke-width="0.1"/>
  <path d="M 98.66249999999991,96.83155549999998 L 98.22105178650122,97.11278837136658" fill="none" stroke="rgb(12,133,255)" stroke-width="0.1"/>
  <path d="M 98.22105178650122,97.11278837136658 L 97.80579380197696,97.43142493459663" fill="none" stroke="rgb(12,133,255)" stroke-width="0.1"/>
  <path d="M 97.80579380197696,97.43142493459663 L 97.41988625719569,97.78504029062515" fill="none" stroke="rgb(12,133,255)" stroke-width="0.1"/>
  <path d="M 97.41988625719569,97.78504029062515 L 97.06626599918809,98.17094334356054" fill="none" stroke="rgb(12,133,255)" stroke-width="0.1"/>
  <path d="M 97.06626599918809,98.17094334356054 L 96.74762416115072,98.58619728055629" fill="none" stroke="rgb(12,133,255)" stroke-width="0.1"/>
  <path d="M 96.74762416115072,98.58619728055629 L 96.46638568229127,99.02764192164636" fill="none" stroke="rgb(12,133,255)" stroke-width="0.1"/>
  <path d="M 96.46638568229127,99.02764192164636 L 96.22469085347143,99.49191776945668" fill="none" stroke="rgb(12,133,255)" stroke-width="0.1"/>
  <path d="M 96.22469085347143,99.49191776945668 L 96.0243790290906,99.9754915757691" fill="none" stroke="rgb(12,133,255)" stroke-width="0.1"/>
  <path d="M 92.72249999999985,67.74655549999997 A 0.5,0.5 0.0 0,0 91.85249999999996,67.74655549999997" fill="none" instance-id="14" semantic-id="28" stroke="rgb(12,133,255)" stroke-width="0.1"/>
  <path d="M 93.44249999999988,69.14255549999999 A 0.1,0.1 0.0 0,0 93.53250000000003,68.98755549999998" fill="none" instance-id="14" semantic-id="28" stroke="rgb(12,133,255)" stroke-width="0.1"/>
  <path d="M 91.04250000000002,68.98755549999998 A 0.1,0.1 0.0 0,0 91.13249999999994,69.14255549999999" fill="none" instance-id="14" semantic-id="28" stroke="rgb(12,133,255)" stroke-width="0.1"/>
  <path d="M 99.78749999999991,67.4930813607125 L 99.35249999999996,67.74655549999997" fill="none" instance-id="15" semantic-id="28" stroke="rgb(12,133,255)" stroke-width="0.1"/>
  <path d="M 98.54250000000002,68.98755549999998 A 0.1,0.1 0.0 0,0 98.63249999999994,69.14255549999999" fill="none" instance-id="15" semantic-id="28" stroke="rgb(12,133,255)" stroke-width="0.1"/>
  <path d="M 98.66249999999991,56.973555499999975 L 99.1039482134986,56.69232262863338" fill="none" instance-id="12" semantic-id="3" stroke="rgb(12,133,255)" stroke-width="0.1"/>
  <path d="M 99.1039482134986,56.69232262863338 L 99.51920619802286,56.37368606540332" fill="none" instance-id="12" semantic-id="3" stroke="rgb(12,133,255)" stroke-width="0.1"/>
  <path d="M 99.51920619802286,56.37368606540332 L 99.90511374280413,56.02007070937481" fill="none" instance-id="12" semantic-id="3" stroke="rgb(12,133,255)" stroke-width="0.1"/>
  <path d="M 85.68249999999989,43.89755549999998 A 0.1,0.1 0.0 0,0 85.58249999999998,43.997555499999976" fill="none" stroke="rgb(12,133,255)" stroke-width="0.1"/>
  <path d="M 85.58249999999998,47.19755549999999 A 0.1,0.1 0.0 0,0 85.68249999999989,47.29755549999999" fill="none" stroke="rgb(12,133,255)" stroke-width="0.1"/>
  <path d="M 89.88249999999994,47.29755549999999 A 0.1,0.1 0.0 0,0 89.98249999999985,47.19755549999999" fill="none" stroke="rgb(12,133,255)" stroke-width="0.1"/>
  <path d="M 89.98249999999985,43.997555499999976 A 0.1,0.1 0.0 0,0 89.88249999999994,43.89755549999998" fill="none" stroke="rgb(12,133,255)" stroke-width="0.1"/>
  <path d="M 58.79250000000002,34.382555499999995 A 0.09,0.09 0.0 0,0 58.882499999999936,34.29255549999999" fill="none" stroke="rgb(12,133,255)" stroke-width="0.1"/>
  <path d="M 55.82249999999999,34.29255549999999 A 0.09,0.09 0.0 0,0 55.91249999999991,34.382555499999995" fill="none" stroke="rgb(12,133,255)" stroke-width="0.1"/>
  <path d="M 55.91249999999991,30.422555499999987 A 0.09,0.09 0.0 0,0 55.82249999999999,30.51255549999999" fill="none" stroke="rgb(12,133,255)" stroke-width="0.1"/>
  <path d="M 58.882499999999936,30.51255549999999 A 0.09,0.09 0.0 0,0 58.79250000000002,30.422555499999987" fill="none" stroke="rgb(12,133,255)" stroke-width="0.1"/>
  <path d="M 87.79250000000002,44.69755549999999 A 0.153333,0.0687035 -8.27649e-11 0,0 87.94249999999988,44.628555499999976" fill="none" stroke="rgb(12,133,255)" stroke-width="0.1"/>
  <path d="M 87.63249999999994,44.628555499999976 A 0.153333,0.0687035 -6.44634e-10 0,0 87.78250000000003,44.69755549999999" fill="none" stroke="rgb(12,133,255)" stroke-width="0.1"/>
  <path d="M 87.63249999999994,44.53055549999999 A 0.15499999999997274,0.06945042815309246 -3.50835e-15 1,0 87.94249999999988,44.53055549999999" fill="none" instance-id="2" semantic-id="23" stroke="rgb(12,133,255)" stroke-width="0.1"/>
  <path d="M 87.63249999999994,44.517555499999986 A 0.15499999999997274,0.06945042815309246 -3.50835e-15 1,0 87.94249999999988,44.517555499999986" fill="none" instance-id="2" semantic-id="23" stroke="rgb(12,133,255)" stroke-width="0.1"/>
  <path d="M 87.63249999999994,44.517555499999986 A 0.15499999999997274,0.06945042815309246 -3.50835e-15 1,0 87.94249999999988,44.517555499999986" fill="none" instance-id="2" semantic-id="23" stroke="rgb(12,133,255)" stroke-width="0.1"/>
  <path d="M 87.63249999999994,44.53055549999999 A 0.15499999999997274,0.06945042815309246 -3.50835e-15 1,0 87.94249999999988,44.53055549999999" fill="none" instance-id="2" semantic-id="23" stroke="rgb(12,133,255)" stroke-width="0.1"/>
  <path d="M 87.63249999999994,44.628555499999976 A 0.15499999999997274,0.06945042815309246 -3.50835e-15 1,0 87.94249999999988,44.628555499999976" fill="none" instance-id="2" semantic-id="23" stroke="rgb(12,133,255)" stroke-width="0.1"/>
  <path d="M 58.232499999999845,32.54055549999998 A 0.138,0.0618331 -90.0 0,0 58.29250000000002,32.40255549999998" fill="none" stroke="rgb(12,133,255)" stroke-width="0.1"/>
  <path d="M 58.29250000000002,32.40255549999998 A 0.138,0.0618331 -90.0 0,0 58.232499999999845,32.26455549999997" fill="none" stroke="rgb(12,133,255)" stroke-width="0.1"/>
  <path d="M 58.32249999999999,32.54055549999998 A 0.13800000000000523,0.06183310000000233 -90.0 1,0 58.32249999999999,32.26455549999997" fill="none" instance-id="3" semantic-id="23" stroke="rgb(12,133,255)" stroke-width="0.1"/>
  <path d="M 58.33249999999998,32.54055549999998 A 0.13800000000000523,0.06183310000000233 -90.0 1,0 58.33249999999998,32.26455549999997" fill="none" instance-id="3" semantic-id="23" stroke="rgb(12,133,255)" stroke-width="0.1"/>
  <path d="M 58.33249999999998,32.54055549999998 A 0.13800000000000523,0.06183310000000233 -90.0 1,0 58.33249999999998,32.26455549999997" fill="none" instance-id="3" semantic-id="23" stroke="rgb(12,133,255)" stroke-width="0.1"/>
  <path d="M 58.32249999999999,32.54055549999998 A 0.13800000000000523,0.06183310000000233 -90.0 1,0 58.32249999999999,32.26455549999997" fill="none" instance-id="3" semantic-id="23" stroke="rgb(12,133,255)" stroke-width="0.1"/>
  <path d="M 58.232499999999845,32.54055549999998 A 0.13800000000000523,0.06183310000000233 -90.0 1,0 58.232499999999845,32.26455549999997" fill="none" instance-id="3" semantic-id="23" stroke="rgb(12,133,255)" stroke-width="0.1"/>
  <path d="M 92.98249999999985,67.5965555 A 0.8,0.8 0.0 0,0 91.59249999999997,67.5965555" fill="none" instance-id="14" semantic-id="28" stroke="rgb(12,133,255)" stroke-width="0.1"/>
  <path d="M 92.98249999999985,67.5965555 L 93.90249999999992,69.01855549999999" fill="none" instance-id="14" semantic-id="28" stroke="rgb(12,133,255)" stroke-width="0.1"/>
  <path d="M 93.99249999999984,69.29155549999999 A 0.5,0.5 0.0 0,0 93.90249999999992,69.01855549999999" fill="none" instance-id="14" semantic-id="28" stroke="rgb(12,133,255)" stroke-width="0.1"/>
  <path d="M 93.99249999999984,69.29155549999999 L 93.99249999999984,69.90255549999998" fill="none" instance-id="14" semantic-id="28" stroke="rgb(12,133,255)" stroke-width="0.1"/>
  <path d="M 93.99249999999984,69.90255549999998 L 90.59249999999997,69.90255549999998" fill="none" instance-id="14" semantic-id="28" stroke="rgb(12,133,255)" stroke-width="0.1"/>
  <path d="M 90.59249999999997,69.90255549999998 L 90.59249999999997,69.29155549999999" fill="none" instance-id="14" semantic-id="28" stroke="rgb(12,133,255)" stroke-width="0.1"/>
  <path d="M 90.6724999999999,69.01855549999999 A 0.5,0.5 0.0 0,0 90.59249999999997,69.29155549999999" fill="none" instance-id="14" semantic-id="28" stroke="rgb(12,133,255)" stroke-width="0.1"/>
  <path d="M 90.6724999999999,69.01855549999999 L 91.59249999999997,67.5965555" fill="none" instance-id="14" semantic-id="28" stroke="rgb(12,133,255)" stroke-width="0.1"/>
  <path d="M 99.51251234518236,67.24150272772107 L 99.09249999999997,67.5965555" fill="none" instance-id="15" semantic-id="28" stroke="rgb(12,133,255)" stroke-width="0.1"/>
  <path d="M 100.0,69.90255549999998 L 98.09249999999997,69.90255549999998" fill="none" instance-id="15" semantic-id="28" stroke="rgb(12,133,255)" stroke-width="0.1"/>
  <path d="M 98.09249999999997,69.90255549999998 L 98.09249999999997,69.29155549999999" fill="none" instance-id="15" semantic-id="28" stroke="rgb(12,133,255)" stroke-width="0.1"/>
  <path d="M 98.1724999999999,69.01855549999999 A 0.5,0.5 0.0 0,0 98.09249999999997,69.29155549999999" fill="none" instance-id="15" semantic-id="28" stroke="rgb(12,133,255)" stroke-width="0.1"/>
  <path d="M 98.1724999999999,69.01855549999999 L 99.09249999999997,67.5965555" fill="none" instance-id="15" semantic-id="28" stroke="rgb(12,133,255)" stroke-width="0.1"/>
  <path d="M 99.48249999999985,45.4725555 L 99.86824753303222,45.05042715530789" fill="none" instance-id="4" semantic-id="29" stroke="rgb(12,133,255)" stroke-width="0.1"/>
  <path d="M 99.48249999999985,45.4725555 L 98.89249999999993,45.67955549999999" fill="none" instance-id="4" semantic-id="29" stroke="rgb(12,133,255)" stroke-width="0.1"/>
  <path d="M 98.89249999999993,45.67955549999999 L 98.30250000000001,45.68155549999997" fill="none" instance-id="4" semantic-id="29" stroke="rgb(12,133,255)" stroke-width="0.1"/>
  <path d="M 98.30250000000001,45.68155549999997 L 97.84249999999997,45.4725555" fill="none" instance-id="4" semantic-id="29" stroke="rgb(12,133,255)" stroke-width="0.1"/>
  <path d="M 97.02250000000004,42.33155549999998 A 2.96518,2.96518 0.0 0,0 97.84249999999997,45.4725555" fill="none" instance-id="4" semantic-id="29" stroke="rgb(12,133,255)" stroke-width="0.1"/>
  <path d="M 97.02250000000004,42.33155549999998 A 2.96791,2.96791 0.0 0,0 97.4224999999999,41.574555499999974" fill="none" instance-id="4" semantic-id="29" stroke="rgb(12,133,255)" stroke-width="0.1"/>
  <path d="M 97.58249999999998,42.15455549999999 A 1.85685,1.85685 0.0 0,0 97.22249999999985,44.17255549999999" fill="none" instance-id="4" semantic-id="29" stroke="rgb(12,133,255)" stroke-width="0.1"/>
  <path d="M 97.22249999999985,44.17255549999999 A 4.36842,4.36842 0.0 0,0 97.9224999999999,45.28055549999999" fill="none" instance-id="4" semantic-id="29" stroke="rgb(12,133,255)" stroke-width="0.1"/>
  <path d="M 97.9224999999999,45.28055549999999 L 98.4224999999999,45.42555549999997" fill="none" instance-id="4" semantic-id="29" stroke="rgb(12,133,255)" stroke-width="0.1"/>
  <path d="M 98.4224999999999,45.42555549999997 L 98.79250000000002,45.42655549999998" fill="none" instance-id="4" semantic-id="29" stroke="rgb(12,133,255)" stroke-width="0.1"/>
  <path d="M 98.79250000000002,45.42655549999998 L 99.40249999999992,45.28055549999999" fill="none" instance-id="4" semantic-id="29" stroke="rgb(12,133,255)" stroke-width="0.1"/>
  <path d="M 99.40249999999992,45.28055549999999 L 99.78226482026616,44.822639867983526" fill="none" instance-id="4" semantic-id="29" stroke="rgb(12,133,255)" stroke-width="0.1"/>
  <path d="M 99.73249999999985,42.15455549999999 A 1.7036,1.7036 0.0 0,0 97.58249999999998,42.15455549999999" fill="none" instance-id="4" semantic-id="29" stroke="rgb(12,133,255)" stroke-width="0.1"/>
  <path d="M 100.0,41.56455549999998 L 96.68249999999989,41.56455549999998" fill="none" instance-id="4" semantic-id="29" stroke="rgb(12,133,255)" stroke-width="0.1"/>
  <path d="M 96.48249999999985,41.364555499999994 A 0.2,0.2 0.0 0,0 96.68249999999989,41.56455549999998" fill="none" instance-id="4" semantic-id="29" stroke="rgb(12,133,255)" stroke-width="0.1"/>
  <path d="M 96.48249999999985,41.364555499999994 L 96.48249999999985,39.90255549999998" fill="none" instance-id="4" semantic-id="29" stroke="rgb(12,133,255)" stroke-width="0.1"/>
  <path d="M 96.48249999999985,39.90255549999998 L 100.0,39.90255549999998" fill="none" instance-id="4" semantic-id="29" stroke="rgb(12,133,255)" stroke-width="0.1"/>
  <path d="M 96.29250000000002,66.40255549999998 L 96.04250000000002,66.40255549999998" fill="none" stroke="rgb(12,133,255)" stroke-width="0.1"/>
  <path d="M 96.04250000000002,66.40255549999998 L 96.04250000000002,69.90255549999998" fill="none" stroke="rgb(12,133,255)" stroke-width="0.1"/>
  <path d="M 96.04250000000002,69.90255549999998 L 96.29250000000002,69.90255549999998" fill="none" stroke="rgb(12,133,255)" stroke-width="0.1"/>
  <path d="M 96.29250000000002,69.90255549999998 L 96.29250000000002,66.40255549999998" fill="none" stroke="rgb(12,133,255)" stroke-width="0.1"/>
  <circle cx="92.29250000000002" cy="69.52255549999998" fill="none" instance-id="14" r="0.176663" semantic-id="28" stroke="rgb(12,133,255)" stroke-width="0.1"/>
  <circle cx="92.28250000000003" cy="68.1325555" fill="none" instance-id="14" r="0.2" semantic-id="28" stroke="rgb(12,133,255)" stroke-width="0.1"/>
  <circle cx="99.79250000000002" cy="69.52255549999998" fill="none" instance-id="15" r="0.176663" semantic-id="28" stroke="rgb(12,133,255)" stroke-width="0.1"/>
  <circle cx="99.78250000000003" cy="68.1325555" fill="none" instance-id="15" r="0.2" semantic-id="28" stroke="rgb(12,133,255)" stroke-width="0.1"/>
  <circle cx="87.78250000000003" cy="44.94755549999999" fill="none" instance-id="2" r="0.25" semantic-id="23" stroke="rgb(12,133,255)" stroke-width="0.1"/>
  <circle cx="87.78250000000003" cy="44.94755549999999" fill="none" instance-id="2" r="0.2" semantic-id="23" stroke="rgb(12,133,255)" stroke-width="0.1"/>
  <circle cx="57.94249999999988" cy="32.40255549999998" fill="none" instance-id="3" r="0.225" semantic-id="23" stroke="rgb(12,133,255)" stroke-width="0.1"/>
  <circle cx="57.94249999999988" cy="32.40255549999998" fill="none" instance-id="3" r="0.18" semantic-id="23" stroke="rgb(12,133,255)" stroke-width="0.1"/>
 </g>
 <g id="layerPUB_DIM" inkscape:groupmode="layer" inkscape:label="PUB_DIM">
  <path d="M 76.28250000000003,16.15555549999999 L 76.28250000000003,0.0" fill="none" instance-id="-1" semantic-id="35" stroke="rgb(0,178,0)" stroke-width="0.1"/>
  <path d="M 77.28250000000003,16.15555549999999 L 77.28250000000003,0.0" fill="none" instance-id="-1" semantic-id="35" stroke="rgb(0,178,0)" stroke-width="0.1"/>
  <path d="M 76.28250000000003,4.824555499999974 L 74.28250000000003,4.824555499999974" fill="none" instance-id="-1" semantic-id="35" stroke="rgb(0,178,0)" stroke-width="0.1"/>
  <path d="M 77.28250000000003,4.824555499999974 L 79.28250000000003,4.824555499999974" fill="none" instance-id="-1" semantic-id="35" stroke="rgb(0,178,0)" stroke-width="0.1"/>
  <path d="M 76.28250000000003,4.824555499999974 L 77.28250000000003,4.824555499999974" fill="none" instance-id="-1" semantic-id="35" stroke="rgb(0,178,0)" stroke-width="0.1"/>
  <path d="M 77.28250000000003,16.15555549999999 L 77.28250000000003,0.0" fill="none" instance-id="-1" semantic-id="35" stroke="rgb(0,178,0)" stroke-width="0.1"/>
  <path d="M 77.28250000000003,4.824555499999974 L 100.0,4.824555499999974" fill="none" instance-id="-1" semantic-id="35" stroke="rgb(0,178,0)" stroke-width="0.1"/>
  <path d="M 84.28250000000003,37.90255549999998 L 96.68249999999989,37.90255549999998" fill="none" instance-id="-1" semantic-id="35" stroke="rgb(0,178,0)" stroke-width="0.1"/>
  <path d="M 84.28250000000003,24.902555499999977 L 96.68249999999989,24.902555499999977" fill="none" instance-id="-1" semantic-id="35" stroke="rgb(0,178,0)" stroke-width="0.1"/>
  <path d="M 91.68249999999989,37.90255549999998 L 91.68249999999989,24.902555499999977" fill="none" instance-id="-1" semantic-id="35" stroke="rgb(0,178,0)" stroke-width="0.1"/>
  <path d="M 84.28250000000003,39.90255549999998 L 96.68249999999989,39.90255549999998" fill="none" instance-id="-1" semantic-id="35" stroke="rgb(0,178,0)" stroke-width="0.1"/>
  <path d="M 84.28250000000003,37.90255549999998 L 96.68249999999989,37.90255549999998" fill="none" instance-id="-1" semantic-id="35" stroke="rgb(0,178,0)" stroke-width="0.1"/>
  <path d="M 91.68249999999989,39.90255549999998 L 91.68249999999989,41.90255549999998" fill="none" instance-id="-1" semantic-id="35" stroke="rgb(0,178,0)" stroke-width="0.1"/>
  <path d="M 91.68249999999989,37.90255549999998 L 91.68249999999989,35.90255549999998" fill="none" instance-id="-1" semantic-id="35" stroke="rgb(0,178,0)" stroke-width="0.1"/>
  <path d="M 91.68249999999989,39.90255549999998 L 91.68249999999989,37.90255549999998" fill="none" instance-id="-1" semantic-id="35" stroke="rgb(0,178,0)" stroke-width="0.1"/>
  <path d="M 84.28250000000003,43.90255549999998 L 96.68249999999989,43.90255549999998" fill="none" instance-id="-1" semantic-id="35" stroke="rgb(0,178,0)" stroke-width="0.1"/>
  <path d="M 84.28250000000003,39.90255549999998 L 96.68249999999989,39.90255549999998" fill="none" instance-id="-1" semantic-id="35" stroke="rgb(0,178,0)" stroke-width="0.1"/>
  <path d="M 91.68249999999989,43.90255549999998 L 91.68249999999989,45.90255549999998" fill="none" instance-id="-1" semantic-id="35" stroke="rgb(0,178,0)" stroke-width="0.1"/>
  <path d="M 91.68249999999989,39.90255549999998 L 91.68249999999989,37.90255549999998" fill="none" instance-id="-1" semantic-id="35" stroke="rgb(0,178,0)" stroke-width="0.1"/>
  <path d="M 91.68249999999989,43.90255549999998 L 91.68249999999989,39.90255549999998" fill="none" instance-id="-1" semantic-id="35" stroke="rgb(0,178,0)" stroke-width="0.1"/>
  <path d="M 42.222499999999854,49.90255549999998 L 30.122499999999945,49.90255549999998" fill="none" instance-id="-1" semantic-id="35" stroke="rgb(0,178,0)" stroke-width="0.1"/>
  <path d="M 42.222499999999854,43.90255549999998 L 30.122499999999945,43.90255549999998" fill="none" instance-id="-1" semantic-id="35" stroke="rgb(0,178,0)" stroke-width="0.1"/>
  <path d="M 35.122499999999945,49.90255549999998 L 35.122499999999945,43.90255549999998" fill="none" instance-id="-1" semantic-id="35" stroke="rgb(0,178,0)" stroke-width="0.1"/>
  <path d="M 42.222499999999854,50.90255549999998 L 30.122499999999945,50.90255549999998" fill="none" instance-id="-1" semantic-id="35" stroke="rgb(0,178,0)" stroke-width="0.1"/>
  <path d="M 42.222499999999854,49.90255549999998 L 30.122499999999945,49.90255549999998" fill="none" instance-id="-1" semantic-id="35" stroke="rgb(0,178,0)" stroke-width="0.1"/>
  <path d="M 35.122499999999945,50.90255549999998 L 35.122499999999945,52.90255549999998" fill="none" instance-id="-1" semantic-id="35" stroke="rgb(0,178,0)" stroke-width="0.1"/>
  <path d="M 35.122499999999945,49.90255549999998 L 35.122499999999945,47.90255549999998" fill="none" instance-id="-1" semantic-id="35" stroke="rgb(0,178,0)" stroke-width="0.1"/>
  <path d="M 35.122499999999945,50.90255549999998 L 35.122499999999945,49.90255549999998" fill="none" instance-id="-1" semantic-id="35" stroke="rgb(0,178,0)" stroke-width="0.1"/>
  <path d="M 42.222499999999854,66.90255549999998 L 30.122499999999945,66.90255549999998" fill="none" instance-id="-1" semantic-id="35" stroke="rgb(0,178,0)" stroke-width="0.1"/>
  <path d="M 42.222499999999854,50.90255549999998 L 30.122499999999945,50.90255549999998" fill="none" instance-id="-1" semantic-id="35" stroke="rgb(0,178,0)" stroke-width="0.1"/>
  <path d="M 35.122499999999945,66.90255549999998 L 35.122499999999945,50.90255549999998" fill="none" instance-id="-1" semantic-id="35" stroke="rgb(0,178,0)" stroke-width="0.1"/>
  <path d="M 42.222499999999854,67.90255549999998 L 30.122499999999945,67.90255549999998" fill="none" instance-id="-1" semantic-id="35" stroke="rgb(0,178,0)" stroke-width="0.1"/>
  <path d="M 42.222499999999854,66.90255549999998 L 30.122499999999945,66.90255549999998" fill="none" instance-id="-1" semantic-id="35" stroke="rgb(0,178,0)" stroke-width="0.1"/>
  <path d="M 35.122499999999945,67.90255549999998 L 35.122499999999945,69.90255549999998" fill="none" instance-id="-1" semantic-id="35" stroke="rgb(0,178,0)" stroke-width="0.1"/>
  <path d="M 35.122499999999945,66.90255549999998 L 35.122499999999945,64.90255549999998" fill="none" instance-id="-1" semantic-id="35" stroke="rgb(0,178,0)" stroke-width="0.1"/>
  <path d="M 35.122499999999945,67.90255549999998 L 35.122499999999945,66.90255549999998" fill="none" instance-id="-1" semantic-id="35" stroke="rgb(0,178,0)" stroke-width="0.1"/>
  <path d="M 72.28250000000003,79.9775555 L 72.28250000000003,89.36055549999998" fill="none" instance-id="-1" semantic-id="35" stroke="rgb(0,178,0)" stroke-width="0.1"/>
  <path d="M 77.28250000000003,79.9775555 L 77.28250000000003,89.36055549999998" fill="none" instance-id="-1" semantic-id="35" stroke="rgb(0,178,0)" stroke-width="0.1"/>
  <path d="M 72.28250000000003,84.36055549999998 L 77.28250000000003,84.36055549999998" fill="none" instance-id="-1" semantic-id="35" stroke="rgb(0,178,0)" stroke-width="0.1"/>
  <path d="M 55.28250000000003,79.9775555 L 55.28250000000003,89.36055549999998" fill="none" instance-id="-1" semantic-id="35" stroke="rgb(0,178,0)" stroke-width="0.1"/>
  <path d="M 72.28250000000003,79.9775555 L 72.28250000000003,89.36055549999998" fill="none" instance-id="-1" semantic-id="35" stroke="rgb(0,178,0)" stroke-width="0.1"/>
  <path d="M 55.28250000000003,84.36055549999998 L 53.28250000000003,84.36055549999998" fill="none" instance-id="-1" semantic-id="35" stroke="rgb(0,178,0)" stroke-width="0.1"/>
  <path d="M 72.28250000000003,84.36055549999998 L 74.28250000000003,84.36055549999998" fill="none" instance-id="-1" semantic-id="35" stroke="rgb(0,178,0)" stroke-width="0.1"/>
  <path d="M 55.28250000000003,84.36055549999998 L 72.28250000000003,84.36055549999998" fill="none" instance-id="-1" semantic-id="35" stroke="rgb(0,178,0)" stroke-width="0.1"/>
  <path d="M 53.28250000000003,79.9775555 L 53.28250000000003,89.36055549999998" fill="none" instance-id="-1" semantic-id="35" stroke="rgb(0,178,0)" stroke-width="0.1"/>
  <path d="M 55.28250000000003,79.9775555 L 55.28250000000003,89.36055549999998" fill="none" instance-id="-1" semantic-id="35" stroke="rgb(0,178,0)" stroke-width="0.1"/>
  <path d="M 53.28250000000003,84.36055549999998 L 51.28250000000003,84.36055549999998" fill="none" instance-id="-1" semantic-id="35" stroke="rgb(0,178,0)" stroke-width="0.1"/>
  <path d="M 55.28250000000003,84.36055549999998 L 57.28250000000003,84.36055549999998" fill="none" instance-id="-1" semantic-id="35" stroke="rgb(0,178,0)" stroke-width="0.1"/>
  <path d="M 53.28250000000003,84.36055549999998 L 55.28250000000003,84.36055549999998" fill="none" instance-id="-1" semantic-id="35" stroke="rgb(0,178,0)" stroke-width="0.1"/>
  <text fill="rgb(0,178,0)" font-family="Noto Sans CJK SC" font-size="2" transform="rotate(-0.0,62.982499999999845,2.2995554999999825)" x="62.982499999999845" y="2.2995554999999825">
   100
  </text>
  <text fill="rgb(0,178,0)" font-family="Noto Sans CJK SC" font-size="2" transform="rotate(-0.0,86.78250000000003,2.8245554999999882)" x="86.78250000000003" y="2.8245554999999882">
   3500
  </text>
  <text fill="rgb(0,178,0)" font-family="Noto Sans CJK SC" font-size="2" transform="rotate(-90.0,89.16249999999991,24.20255549999999)" x="89.16249999999991" y="24.20255549999999">
   1300
  </text>
  <text fill="rgb(0,178,0)" font-family="Noto Sans CJK SC" font-size="2" transform="rotate(-90.0,89.68249999999989,44.90255549999998)" x="89.68249999999989" y="44.90255549999998">
   200
  </text>
  <text fill="rgb(0,178,0)" font-family="Noto Sans CJK SC" font-size="2" transform="rotate(-90.0,89.16249999999991,57.30255549999998)" x="89.16249999999991" y="57.30255549999998">
   400
  </text>
  <text fill="rgb(0,178,0)" font-family="Noto Sans CJK SC" font-size="2" transform="rotate(-90.0,32.602499999999964,42.602555499999994)" x="32.602499999999964" y="42.602555499999994">
   600
  </text>
  <text fill="rgb(0,178,0)" font-family="Noto Sans CJK SC" font-size="2" transform="rotate(-90.0,33.122499999999945,56.70255549999999)" x="33.122499999999945" y="56.70255549999999">
   100
  </text>
  <text fill="rgb(0,178,0)" font-family="Noto Sans CJK SC" font-size="2" transform="rotate(-90.0,43.602499999999964,67.20255549999999)" x="43.602499999999964" y="67.20255549999999">
   1600
  </text>
  <text fill="rgb(0,178,0)" font-family="Noto Sans CJK SC" font-size="2" transform="rotate(-90.0,32.602499999999964,81.20255549999999)" x="32.602499999999964" y="81.20255549999999">
   100
  </text>
  <text fill="rgb(0,178,0)" font-family="Noto Sans CJK SC" font-size="2" transform="rotate(-0.0,71.23249999999985,81.8355555)" x="71.23249999999985" y="81.8355555">
   500
  </text>
  <text fill="rgb(0,178,0)" font-family="Noto Sans CJK SC" font-size="2" transform="rotate(-0.0,55.482499999999845,82.36055549999998)" x="55.482499999999845" y="82.36055549999998">
   1700
  </text>
  <text fill="rgb(0,178,0)" font-family="Noto Sans CJK SC" font-size="2" transform="rotate(-0.0,39.882499999999936,81.8355555)" x="39.882499999999936" y="81.8355555">
   200
  </text>
 </g>
 <g id="layerPUB_TEXT" inkscape:groupmode="layer" inkscape:label="PUB_TEXT">
  <path d="M 51.0625,26.902555499999977 L 65.28250000000003,26.902555499999977" fill="none" stroke="rgb(0,0,0)" stroke-width="0.1"/>
  <text fill="rgb(0,0,0)" font-family="Noto Sans CJK SC" font-size="2" transform="rotate(-0.0,60.03250000000003,37.18355549999998)" x="60.03250000000003" y="37.18355549999998">
   茶水间
  </text>
  <text fill="rgb(0,0,0)" font-family="Noto Sans CJK SC" font-size="2" transform="rotate(-0.0,54.65249999999992,62.37555549999999)" x="54.65249999999992" y="62.37555549999999">
   排烟
  </text>
  <text fill="rgb(0,0,0)" font-family="Noto Sans CJK SC" font-size="2" transform="rotate(-0.0,96.84249999999997,96.0255555)" x="96.84249999999997" y="96.0255555">
   女卫
  </text>
  <text fill="rgb(0,0,0)" font-family="Noto Sans CJK SC" font-size="2" transform="rotate(-0.0,97.73249999999985,63.16555549999998)" x="97.73249999999985" y="63.16555549999998">
   男卫
  </text>
  <text fill="rgb(0,0,0)" font-family="Noto Sans CJK SC" font-size="2" transform="rotate(-0.0,90.35249999999996,83.45855549999999)" x="90.35249999999996" y="83.45855549999999">
   清洁间
  </text>
  <text fill="rgb(0,0,0)" font-family="Noto Sans CJK SC" font-size="2" transform="rotate(-0.0,55.16249999999991,96.86055549999998)" x="55.16249999999991" y="96.86055549999998">
   卫生间2
  </text>
 </g>
 <g id="layerTK_LABEL" inkscape:groupmode="layer" inkscape:label="TK_LABEL">
  <path d="M 41.28250000000003,24.934555499999988 L 41.28250000000003,26.935555499999992" fill="none" stroke="rgb(178,178,0)" stroke-width="0.1"/>
  <path d="M 53.28250000000003,24.902555499999977 L 53.28250000000003,26.902555499999977" fill="none" stroke="rgb(178,178,0)" stroke-width="0.1"/>
  <path d="M 65.28250000000003,24.902555499999977 L 65.28250000000003,26.902555499999977" fill="none" stroke="rgb(178,178,0)" stroke-width="0.1"/>
  <path d="M 41.28250000000003,26.935555499999992 L 41.28250000000003,24.934555499999988" fill="none" stroke="rgb(178,178,0)" stroke-width="0.1"/>
 </g>
 <g id="layerWALL" inkscape:groupmode="layer" inkscape:label="WALL">
  <path d="M 53.28250000000003,66.90255549999998 L 53.28250000000003,100.0" fill="none" instance-id="-1" semantic-id="1" stroke="rgb(178,178,0)" stroke-width="0.1"/>
  <path d="M 55.28250000000003,100.0 L 55.28250000000003,67.90255549999998" fill="none" instance-id="-1" semantic-id="1" stroke="rgb(178,178,0)" stroke-width="0.1"/>
  <path d="M 60.28250000000003,67.90255549999998 L 59.28250000000003,67.90255549999998" fill="none" instance-id="-1" semantic-id="1" stroke="rgb(178,178,0)" stroke-width="0.1"/>
  <path d="M 60.28250000000003,67.90255549999998 L 60.28250000000003,66.90255549999998" fill="none" instance-id="-1" semantic-id="1" stroke="rgb(178,178,0)" stroke-width="0.1"/>
  <path d="M 88.78250000000003,69.90255549999998 L 85.28250000000003,69.90255549999998" fill="none" instance-id="-1" semantic-id="1" stroke="rgb(178,178,0)" stroke-width="0.1"/>
  <path d="M 85.28250000000003,69.90255549999998 L 85.28250000000003,71.90255549999998" fill="none" instance-id="-1" semantic-id="1" stroke="rgb(178,178,0)" stroke-width="0.1"/>
  <path d="M 85.28250000000003,71.90255549999998 L 87.78250000000003,71.90255549999998" fill="none" instance-id="-1" semantic-id="1" stroke="rgb(178,178,0)" stroke-width="0.1"/>
  <path d="M 72.29250000000002,71.90255549999998 L 76.28250000000003,71.90255549999998" fill="none" instance-id="-1" semantic-id="1" stroke="rgb(178,178,0)" stroke-width="0.1"/>
  <path d="M 76.28250000000003,71.90255549999998 L 76.28250000000003,69.90255549999998" fill="none" instance-id="-1" semantic-id="1" stroke="rgb(178,178,0)" stroke-width="0.1"/>
  <path d="M 76.28250000000003,69.90255549999998 L 74.28250000000003,69.90255549999998" fill="none" instance-id="-1" semantic-id="1" stroke="rgb(178,178,0)" stroke-width="0.1"/>
  <path d="M 72.28250000000003,100.0 L 72.28250000000003,86.90255549999998" fill="none" instance-id="-1" semantic-id="1" stroke="rgb(178,178,0)" stroke-width="0.1"/>
  <path d="M 74.28250000000003,100.0 L 74.28250000000003,88.90255549999998" fill="none" instance-id="-1" semantic-id="1" stroke="rgb(178,178,0)" stroke-width="0.1"/>
  <path d="M 72.29250000000002,71.90255549999998 L 72.28250000000003,49.84355549999998" fill="none" instance-id="-1" semantic-id="1" stroke="rgb(178,178,0)" stroke-width="0.1"/>
  <path d="M 74.28250000000003,69.90255549999998 L 74.28250000000003,49.90255549999998" fill="none" instance-id="-1" semantic-id="1" stroke="rgb(178,178,0)" stroke-width="0.1"/>
  <path d="M 89.78250000000003,86.90255549999998 L 89.78250000000003,82.90255549999998" fill="none" instance-id="-1" semantic-id="1" stroke="rgb(178,178,0)" stroke-width="0.1"/>
  <path d="M 89.78250000000003,82.90255549999998 L 87.78250000000003,82.90255549999998" fill="none" instance-id="-1" semantic-id="1" stroke="rgb(178,178,0)" stroke-width="0.1"/>
  <path d="M 87.78250000000003,82.90255549999998 L 87.78250000000003,86.90255549999998" fill="none" instance-id="-1" semantic-id="1" stroke="rgb(178,178,0)" stroke-width="0.1"/>
  <path d="M 87.78250000000003,71.90255549999998 L 87.78250000000003,73.90255549999998" fill="none" instance-id="-1" semantic-id="1" stroke="rgb(178,178,0)" stroke-width="0.1"/>
  <path d="M 87.78250000000003,73.90255549999998 L 89.78250000000003,73.90255549999998" fill="none" instance-id="-1" semantic-id="1" stroke="rgb(178,178,0)" stroke-width="0.1"/>
  <path d="M 89.78250000000003,73.90255549999998 L 89.78250000000003,71.90255549999998" fill="none" instance-id="-1" semantic-id="1" stroke="rgb(178,178,0)" stroke-width="0.1"/>
  <path d="M 100.0,88.90255549999998 L 88.78250000000003,88.90255549999998" fill="none" instance-id="-1" semantic-id="1" stroke="rgb(178,178,0)" stroke-width="0.1"/>
  <path d="M 100.0,86.90255549999998 L 89.78250000000003,86.90255549999998" fill="none" instance-id="-1" semantic-id="1" stroke="rgb(178,178,0)" stroke-width="0.1"/>
  <path d="M 100.0,71.90255549999998 L 89.78250000000003,71.90255549999998" fill="none" instance-id="-1" semantic-id="1" stroke="rgb(178,178,0)" stroke-width="0.1"/>
  <path d="M 100.0,69.90255549999998 L 88.78250000000003,69.90255549999998" fill="none" instance-id="-1" semantic-id="1" stroke="rgb(178,178,0)" stroke-width="0.1"/>
  <path d="M 53.28250000000003,66.90255549999998 L 53.28250000000003,49.90255549999998" fill="none" instance-id="-1" semantic-id="1" stroke="rgb(178,178,0)" stroke-width="0.1"/>
  <path d="M 55.28250000000003,66.90255549999998 L 55.28250000000003,50.90255549999998" fill="none" instance-id="-1" semantic-id="1" stroke="rgb(178,178,0)" stroke-width="0.1"/>
  <path d="M 59.28250000000003,50.90255549999998 L 55.28250000000003,50.90255549999998" fill="none" instance-id="-1" semantic-id="1" stroke="rgb(178,178,0)" stroke-width="0.1"/>
  <path d="M 60.28250000000003,49.90255549999998 L 55.28250000000003,49.90255549999998" fill="none" instance-id="-1" semantic-id="1" stroke="rgb(178,178,0)" stroke-width="0.1"/>
  <path d="M 59.28250000000003,66.90255549999998 L 59.28250000000003,50.90255549999998" fill="none" instance-id="-1" semantic-id="1" stroke="rgb(178,178,0)" stroke-width="0.1"/>
  <path d="M 60.28250000000003,66.90255549999998 L 60.28250000000003,49.90255549999998" fill="none" instance-id="-1" semantic-id="1" stroke="rgb(178,178,0)" stroke-width="0.1"/>
  <path d="M 53.28250000000003,49.90255549999998 L 53.28250000000003,26.902555499999977" fill="none" instance-id="-1" semantic-id="1" stroke="rgb(178,178,0)" stroke-width="0.1"/>
  <path d="M 55.28250000000003,49.90255549999998 L 55.28250000000003,26.902555499999977" fill="none" instance-id="-1" semantic-id="1" stroke="rgb(178,178,0)" stroke-width="0.1"/>
  <path d="M 53.28250000000003,26.902555499999977 L 55.28250000000003,26.902555499999977" fill="none" instance-id="-1" semantic-id="1" stroke="rgb(178,178,0)" stroke-width="0.1"/>
  <path d="M 59.28250000000003,67.90255549999998 L 55.28250000000003,67.90255549999998" fill="none" instance-id="-1" semantic-id="1" stroke="rgb(178,178,0)" stroke-width="0.1"/>
  <path d="M 59.28250000000003,66.90255549999998 L 55.28250000000003,66.90255549999998" fill="none" instance-id="-1" semantic-id="1" stroke="rgb(178,178,0)" stroke-width="0.1"/>
  <path d="M 87.78250000000003,86.90255549999998 L 85.28250000000003,86.90255549999998" fill="none" instance-id="-1" semantic-id="1" stroke="rgb(178,178,0)" stroke-width="0.1"/>
  <path d="M 85.28250000000003,86.90255549999998 L 85.28250000000003,88.90255549999998" fill="none" instance-id="-1" semantic-id="1" stroke="rgb(178,178,0)" stroke-width="0.1"/>
  <path d="M 85.28250000000003,88.90255549999998 L 88.78250000000003,88.90255549999998" fill="none" instance-id="-1" semantic-id="1" stroke="rgb(178,178,0)" stroke-width="0.1"/>
  <path d="M 74.28250000000003,88.90255549999998 L 76.28250000000003,88.90255549999998" fill="none" instance-id="-1" semantic-id="1" stroke="rgb(178,178,0)" stroke-width="0.1"/>
  <path d="M 76.28250000000003,88.90255549999998 L 76.28250000000003,86.90255549999998" fill="none" instance-id="-1" semantic-id="1" stroke="rgb(178,178,0)" stroke-width="0.1"/>
  <path d="M 76.28250000000003,86.90255549999998 L 72.28250000000003,86.90255549999998" fill="none" instance-id="-1" semantic-id="1" stroke="rgb(178,178,0)" stroke-width="0.1"/>
 </g>
 <g id="layerWINDOW" inkscape:groupmode="layer" inkscape:label="WINDOW">
  <path d="M 85.28250000000003,69.90255549999998 L 76.28250000000003,69.90255549999998" fill="none" instance-id="17" semantic-id="3" stroke="rgb(0,178,178)" stroke-width="0.1"/>
  <path d="M 89.78250000000003,82.90255549999998 L 89.78250000000003,73.90255549999998" fill="none" instance-id="18" semantic-id="3" stroke="rgb(0,178,178)" stroke-width="0.1"/>
  <path d="M 85.28250000000003,88.90255549999998 L 76.28250000000003,88.90255549999998" fill="none" instance-id="20" semantic-id="3" stroke="rgb(0,178,178)" stroke-width="0.1"/>
  <path d="M 76.73249999999985,62.12755549999997 L 76.28250000000003,62.12755549999997" fill="none" instance-id="17" semantic-id="3" stroke="rgb(0,178,178)" stroke-width="0.1"/>
  <path d="M 76.28250000000003,70.90255549999998 L 76.73249999999985,70.90255549999998" fill="none" instance-id="17" semantic-id="3" stroke="rgb(0,178,178)" stroke-width="0.1"/>
  <path d="M 76.28250000000003,70.90255549999998 L 76.28250000000003,62.12755549999997" fill="none" instance-id="17" semantic-id="3" stroke="rgb(0,178,178)" stroke-width="0.1"/>
  <path d="M 76.73249999999985,70.90255549999998 L 76.73249999999985,62.12755549999997" fill="none" instance-id="17" semantic-id="3" stroke="rgb(0,178,178)" stroke-width="0.1"/>
  <path d="M 97.5625,74.3525555 L 97.5625,73.90255549999998" fill="none" instance-id="18" semantic-id="3" stroke="rgb(0,178,178)" stroke-width="0.1"/>
  <path d="M 88.78250000000003,73.90255549999998 L 88.78250000000003,74.3525555" fill="none" instance-id="18" semantic-id="3" stroke="rgb(0,178,178)" stroke-width="0.1"/>
  <path d="M 88.78250000000003,73.90255549999998 L 97.5625,73.90255549999998" fill="none" instance-id="18" semantic-id="3" stroke="rgb(0,178,178)" stroke-width="0.1"/>
  <path d="M 88.78250000000003,74.3525555 L 97.5625,74.3525555" fill="none" instance-id="18" semantic-id="3" stroke="rgb(0,178,178)" stroke-width="0.1"/>
  <path d="M 76.73249999999985,96.67755549999998 L 76.28250000000003,96.67755549999998" fill="none" instance-id="20" semantic-id="3" stroke="rgb(0,178,178)" stroke-width="0.1"/>
  <path d="M 76.28250000000003,87.90255549999998 L 76.73249999999985,87.90255549999998" fill="none" instance-id="20" semantic-id="3" stroke="rgb(0,178,178)" stroke-width="0.1"/>
  <path d="M 76.28250000000003,87.90255549999998 L 76.28250000000003,96.67755549999998" fill="none" instance-id="20" semantic-id="3" stroke="rgb(0,178,178)" stroke-width="0.1"/>
  <path d="M 76.73249999999985,87.90255549999998 L 76.73249999999985,96.67755549999998" fill="none" instance-id="20" semantic-id="3" stroke="rgb(0,178,178)" stroke-width="0.1"/>
  <path d="M 85.28250000000003,70.90255549999998 A 8.775,8.775 0.0 0,0 76.73249999999985,62.130555499999986" fill="none" instance-id="17" semantic-id="3" stroke="rgb(0,178,178)" stroke-width="0.1"/>
  <path d="M 88.78250000000003,82.90255549999998 A 8.775,8.775 0.0 0,0 97.5625,74.3525555" fill="none" instance-id="18" semantic-id="3" stroke="rgb(0,178,178)" stroke-width="0.1"/>
  <path d="M 76.73249999999985,96.6745555 A 8.775,8.775 0.0 0,0 85.28250000000003,87.90255549999998" fill="none" instance-id="20" semantic-id="3" stroke="rgb(0,178,178)" stroke-width="0.1"/>
 </g>
 <g id="layerWINDOW_TEXT" inkscape:groupmode="layer" inkscape:label="WINDOW_TEXT">
  <text fill="rgb(0,0,0)" font-family="Noto Sans CJK SC" font-size="2" transform="rotate(-360.0,75.03250000000003,67.28855549999997)" x="75.03250000000003" y="67.28855549999997">
   MM0923
  </text>
  <text fill="rgb(0,0,0)" font-family="Noto Sans CJK SC" font-size="2" transform="rotate(-90.0,88.20249999999987,88.19155549999999)" x="88.20249999999987" y="88.19155549999999">
   MM0923
  </text>
  <text fill="rgb(0,0,0)" font-family="Noto Sans CJK SC" font-size="2" transform="rotate(-6.46289e-12,77.55250000000001,95.05055549999997)" x="77.55250000000001" y="95.05055549999997">
   MM0923
  </text>
 </g>
 <g id="layerfur" inkscape:groupmode="layer" inkscape:label="fur">
  <path d="M 60.29250000000002,26.902555499999977 L 60.28250000000003,66.90255549999998" fill="none" stroke="rgb(53,93,107)" stroke-width="0.1"/>
 </g>
 <g id="layer投影线" inkscape:groupmode="layer" inkscape:label="投影线">
  <path d="M 77.28250000000003,18.902555499999977 L 22.892499999999927,18.902555499999977" fill="none" stroke="rgb(121,121,121)" stroke-width="0.1"/>
  <path d="M 22.892499999999927,18.902555499999977 L 22.390058155481483,18.903753583104788" fill="none" stroke="rgb(121,121,121)" stroke-width="0.1"/>
  <path d="M 22.390058155481483,18.903753583104788 L 21.887627322021217,18.907289133261287" fill="none" stroke="rgb(121,121,121)" stroke-width="0.1"/>
  <path d="M 21.887627322021217,18.907289133261287 L 21.38521837395797,18.913162073948" fill="none" stroke="rgb(121,121,121)" stroke-width="0.1"/>
  <path d="M 21.38521837395797,18.913162073948 L 20.882842185156505,18.92137227805418" fill="none" stroke="rgb(121,121,121)" stroke-width="0.1"/>
  <path d="M 20.882842185156505,18.92137227805418 L 20.380509628772188,18.931919567882687" fill="none" stroke="rgb(121,121,121)" stroke-width="0.1"/>
  <path d="M 20.380509628772188,18.931919567882687 L 19.87823157701655,18.944803715153682" fill="none" stroke="rgb(121,121,121)" stroke-width="0.1"/>
  <path d="M 19.87823157701655,18.944803715153682 L 19.37601890092128,18.960024441009807" fill="none" stroke="rgb(121,121,121)" stroke-width="0.1"/>
  <path d="M 19.37601890092128,18.960024441009807 L 18.873882470103126,18.977581416021962" fill="none" stroke="rgb(121,121,121)" stroke-width="0.1"/>
  <path d="M 18.873882470103126,18.977581416021962 L 18.371833152528552,18.997474260196498" fill="none" stroke="rgb(121,121,121)" stroke-width="0.1"/>
  <path d="M 18.371833152528552,18.997474260196498 L 17.86988181427887,19.01970254298368" fill="none" stroke="rgb(121,121,121)" stroke-width="0.1"/>
  <path d="M 17.86988181427887,19.01970254298368 L 17.368039319314448,19.04426578328662" fill="none" stroke="rgb(121,121,121)" stroke-width="0.1"/>
  <path d="M 17.368039319314448,19.04426578328662 L 16.866316529240066,19.07116344947198" fill="none" stroke="rgb(121,121,121)" stroke-width="0.1"/>
  <path d="M 16.866316529240066,19.07116344947198 L 16.36472430306935,19.10039495938139" fill="none" stroke="rgb(121,121,121)" stroke-width="0.1"/>
  <path d="M 16.36472430306935,19.10039495938139 L 15.863273496990814,19.13195968034404" fill="none" stroke="rgb(121,121,121)" stroke-width="0.1"/>
  <path d="M 15.863273496990814,19.13195968034404 L 15.361974964131377,19.165856929190284" fill="none" stroke="rgb(121,121,121)" stroke-width="0.1"/>
  <path d="M 15.361974964131377,19.165856929190284 L 14.860839554322865,19.202085972266673" fill="none" stroke="rgb(121,121,121)" stroke-width="0.1"/>
  <path d="M 14.860839554322865,19.202085972266673 L 14.359878113865761,19.240646025451582" fill="none" stroke="rgb(121,121,121)" stroke-width="0.1"/>
  <path d="M 14.359878113865761,19.240646025451582 L 13.859101485296378,19.281536254172238" fill="none" stroke="rgb(121,121,121)" stroke-width="0.1"/>
  <path d="M 13.859101485296378,19.281536254172238 L 13.358520507149706,19.324755773422908" fill="none" stroke="rgb(121,121,121)" stroke-width="0.1"/>
  <path d="M 13.358520507149706,19.324755773422908 L 12.858146013727719,19.370303647783942" fill="none" stroke="rgb(121,121,121)" stroke-width="0.1"/>
  <path d="M 12.858146013727719,19.370303647783942 L 12.357988834861771,19.41817889144201" fill="none" stroke="rgb(121,121,121)" stroke-width="0.1"/>
  <path d="M 12.357988834861771,19.41817889144201 L 11.858059795681129,19.468380468211535" fill="none" stroke="rgb(121,121,121)" stroke-width="0.1"/>
  <path d="M 11.858059795681129,19.468380468211535 L 11.358369716376274,19.520907291556966" fill="none" stroke="rgb(121,121,121)" stroke-width="0.1"/>
  <path d="M 11.358369716376274,19.520907291556966 L 10.858929411966756,19.575758224616493" fill="none" stroke="rgb(121,121,121)" stroke-width="0.1"/>
  <path d="M 10.858929411966756,19.575758224616493 L 10.35974969206518,19.632932080226453" fill="none" stroke="rgb(121,121,121)" stroke-width="0.1"/>
  <path d="M 10.35974969206518,19.632932080226453 L 9.8608413606446,19.6924276209472" fill="none" stroke="rgb(121,121,121)" stroke-width="0.1"/>
  <path d="M 9.8608413606446,19.6924276209472 L 9.362215215804781,19.75424355908973" fill="none" stroke="rgb(121,121,121)" stroke-width="0.1"/>
  <path d="M 9.362215215804781,19.75424355908973 L 8.863882049537324,19.818378556743653" fill="none" stroke="rgb(121,121,121)" stroke-width="0.1"/>
  <path d="M 8.863882049537324,19.818378556743653 L 8.36585264749283,19.884831225806124" fill="none" stroke="rgb(121,121,121)" stroke-width="0.1"/>
  <path d="M 8.36585264749283,19.884831225806124 L 7.868137788747617,19.953600128011914" fill="none" stroke="rgb(121,121,121)" stroke-width="0.1"/>
  <path d="M 7.868137788747617,19.953600128011914 L 7.370748245570212,20.024683774964444" fill="none" stroke="rgb(121,121,121)" stroke-width="0.1"/>
  <path d="M 7.370748245570212,20.024683774964444 L 6.87369478318783,20.098080628168134" fill="none" stroke="rgb(121,121,121)" stroke-width="0.1"/>
  <path d="M 6.87369478318783,20.098080628168134 L 6.3769881595544575,20.173789099061565" fill="none" stroke="rgb(121,121,121)" stroke-width="0.1"/>
  <path d="M 6.3769881595544575,20.173789099061565 L 5.880639125116659,20.25180754905199" fill="none" stroke="rgb(121,121,121)" stroke-width="0.1"/>
  <path d="M 5.880639125116659,20.25180754905199 L 5.384658422581651,20.33213428955071" fill="none" stroke="rgb(121,121,121)" stroke-width="0.1"/>
  <path d="M 5.384658422581651,20.33213428955071 L 4.889056786684478,20.41476758200963" fill="none" stroke="rgb(121,121,121)" stroke-width="0.1"/>
  <path d="M 4.889056786684478,20.41476758200963 L 4.393844943956765,20.49970563795887" fill="none" stroke="rgb(121,121,121)" stroke-width="0.1"/>
  <path d="M 4.393844943956765,20.49970563795887 L 3.8990336124925307,20.586946619045676" fill="none" stroke="rgb(121,121,121)" stroke-width="0.1"/>
  <path d="M 3.8990336124925307,20.586946619045676 L 3.404633501718081,20.676488637073845" fill="none" stroke="rgb(121,121,121)" stroke-width="0.1"/>
  <path d="M 3.404633501718081,20.676488637073845 L 2.910655312159406,20.768329754044885" fill="none" stroke="rgb(121,121,121)" stroke-width="0.1"/>
  <path d="M 2.910655312159406,20.768329754044885 L 2.4171097352100333,20.862467982199803" fill="none" stroke="rgb(121,121,121)" stroke-width="0.1"/>
  <path d="M 2.4171097352100333,20.862467982199803 L 1.9240074529011508,20.958901284062335" fill="none" stroke="rgb(121,121,121)" stroke-width="0.1"/>
  <path d="M 1.9240074529011508,20.958901284062335 L 1.4313591376690056,21.05762757248266" fill="none" stroke="rgb(121,121,121)" stroke-width="0.1"/>
  <path d="M 1.4313591376690056,21.05762757248266 L 0.939175452124573,21.158644710683063" fill="none" stroke="rgb(121,121,121)" stroke-width="0.1"/>
  <path d="M 0.939175452124573,21.158644710683063 L 0.4474670488225456,21.261950512303713" fill="none" stroke="rgb(121,121,121)" stroke-width="0.1"/>
 </g>
 <g id="layer格栅" inkscape:groupmode="layer" inkscape:label="格栅">
  <path d="M 54.28250000000003,24.902555499999977 L 54.28250000000003,23.402555499999977" fill="none" stroke="rgb(255,194,12)" stroke-width="0.1"/>
  <path d="M 52.28250000000003,23.402555499999977 L 52.28250000000003,24.902555499999977" fill="none" stroke="rgb(255,194,12)" stroke-width="0.1"/>
  <path d="M 66.28250000000003,24.902555499999977 L 66.28250000000003,23.402555499999977" fill="none" stroke="rgb(255,194,12)" stroke-width="0.1"/>
  <path d="M 64.28250000000003,23.402555499999977 L 64.28250000000003,24.902555499999977" fill="none" stroke="rgb(255,194,12)" stroke-width="0.1"/>
  <path d="M 78.28250000000003,24.902555499999977 L 78.28250000000003,23.402555499999977" fill="none" stroke="rgb(255,194,12)" stroke-width="0.1"/>
  <path d="M 76.28250000000003,23.402555499999977 L 76.28250000000003,24.902555499999977" fill="none" stroke="rgb(255,194,12)" stroke-width="0.1"/>
  <path d="M 42.28250000000003,24.902555499999977 L 42.28250000000003,23.402555499999977" fill="none" stroke="rgb(255,194,12)" stroke-width="0.1"/>
  <path d="M 40.28250000000003,23.402555499999977 L 40.28250000000003,24.902555499999977" fill="none" stroke="rgb(255,194,12)" stroke-width="0.1"/>
  <path d="M 52.44249999999988,20.273555499999986 A 31.2938,31.2938 0.0 0,0 52.28250000000003,23.402555499999977" fill="none" stroke="rgb(255,194,12)" stroke-width="0.1"/>
  <path d="M 52.862499999999955,19.128555499999976 A 2.44005,2.44005 0.0 0,0 52.44249999999988,20.273555499999986" fill="none" stroke="rgb(255,194,12)" stroke-width="0.1"/>
  <path d="M 53.712499999999864,19.128555499999976 A 0.506294,0.506294 0.0 0,0 52.862499999999955,19.128555499999976" fill="none" stroke="rgb(255,194,12)" stroke-width="0.1"/>
  <path d="M 54.28250000000003,23.402555499999977 A 31.2938,31.2938 0.0 0,0 54.132499999999936,20.273555499999986" fill="none" stroke="rgb(255,194,12)" stroke-width="0.1"/>
  <path d="M 54.132499999999936,20.273555499999986 A 2.44005,2.44005 0.0 0,0 53.712499999999864,19.128555499999976" fill="none" stroke="rgb(255,194,12)" stroke-width="0.1"/>
  <path d="M 64.44249999999988,20.273555499999986 A 31.2938,31.2938 0.0 0,0 64.28250000000003,23.402555499999977" fill="none" stroke="rgb(255,194,12)" stroke-width="0.1"/>
  <path d="M 64.86249999999995,19.128555499999976 A 2.44005,2.44005 0.0 0,0 64.44249999999988,20.273555499999986" fill="none" stroke="rgb(255,194,12)" stroke-width="0.1"/>
  <path d="M 65.71249999999986,19.128555499999976 A 0.506294,0.506294 0.0 0,0 64.86249999999995,19.128555499999976" fill="none" stroke="rgb(255,194,12)" stroke-width="0.1"/>
  <path d="M 66.28250000000003,23.402555499999977 A 31.2938,31.2938 0.0 0,0 66.13249999999994,20.273555499999986" fill="none" stroke="rgb(255,194,12)" stroke-width="0.1"/>
  <path d="M 66.13249999999994,20.273555499999986 A 2.44005,2.44005 0.0 0,0 65.71249999999986,19.128555499999976" fill="none" stroke="rgb(255,194,12)" stroke-width="0.1"/>
  <path d="M 76.44249999999988,20.273555499999986 A 31.2938,31.2938 0.0 0,0 76.28250000000003,23.402555499999977" fill="none" stroke="rgb(255,194,12)" stroke-width="0.1"/>
  <path d="M 76.86249999999995,19.128555499999976 A 2.44005,2.44005 0.0 0,0 76.44249999999988,20.273555499999986" fill="none" stroke="rgb(255,194,12)" stroke-width="0.1"/>
  <path d="M 77.71249999999986,19.128555499999976 A 0.506294,0.506294 0.0 0,0 76.86249999999995,19.128555499999976" fill="none" stroke="rgb(255,194,12)" stroke-width="0.1"/>
  <path d="M 78.28250000000003,23.402555499999977 A 31.2938,31.2938 0.0 0,0 78.13249999999994,20.273555499999986" fill="none" stroke="rgb(255,194,12)" stroke-width="0.1"/>
  <path d="M 78.13249999999994,20.273555499999986 A 2.44005,2.44005 0.0 0,0 77.71249999999986,19.128555499999976" fill="none" stroke="rgb(255,194,12)" stroke-width="0.1"/>
  <path d="M 40.44249999999988,20.273555499999986 A 31.2938,31.2938 0.0 0,0 40.28250000000003,23.402555499999977" fill="none" stroke="rgb(255,194,12)" stroke-width="0.1"/>
  <path d="M 40.862499999999955,19.128555499999976 A 2.44005,2.44005 0.0 0,0 40.44249999999988,20.273555499999986" fill="none" stroke="rgb(255,194,12)" stroke-width="0.1"/>
  <path d="M 41.712499999999864,19.128555499999976 A 0.506294,0.506294 0.0 0,0 40.862499999999955,19.128555499999976" fill="none" stroke="rgb(255,194,12)" stroke-width="0.1"/>
  <path d="M 42.28250000000003,23.402555499999977 A 31.2938,31.2938 0.0 0,0 42.132499999999936,20.273555499999986" fill="none" stroke="rgb(255,194,12)" stroke-width="0.1"/>
  <path d="M 42.132499999999936,20.273555499999986 A 2.44005,2.44005 0.0 0,0 41.712499999999864,19.128555499999976" fill="none" stroke="rgb(255,194,12)" stroke-width="0.1"/>
 </g>
</svg>