<?xml version="1.0" encoding="utf-8"?>
<svg style="background-color: #000;" version="1.1" viewBox="0 0 100.0 100.0" xmlns="http://www.w3.org/2000/svg" xmlns:inkscape="http://www.inkscape.org/namespaces/inkscape">
 <g id="layerCOLUMN" inkscape:groupmode="layer" inkscape:label="COLUMN">
  <path d="M 87.70351100000016,29.741614999999967 L 98.69351100000017,29.741614999999967" fill="none" stroke="rgb(134,134,134)" stroke-width="0.1"/>
  <path d="M 98.69351100000017,29.741614999999967 L 98.69351100000017,18.741614999999967" fill="none" stroke="rgb(134,134,134)" stroke-width="0.1"/>
  <path d="M 98.69351100000017,18.741614999999967 L 87.70351100000016,18.741614999999967" fill="none" stroke="rgb(134,134,134)" stroke-width="0.1"/>
  <path d="M 87.70351100000016,18.741614999999967 L 87.70351100000016,29.741614999999967" fill="none" stroke="rgb(134,134,134)" stroke-width="0.1"/>
  <path d="M 0.0,31.241614999999967 L 8.193511000000171,31.241614999999967" fill="none" stroke="rgb(134,134,134)" stroke-width="0.1"/>
  <path d="M 8.193511000000171,31.241614999999967 L 8.193511000000171,20.241614999999967" fill="none" stroke="rgb(134,134,134)" stroke-width="0.1"/>
  <path d="M 8.193511000000171,20.241614999999967 L 0.0,20.241614999999967" fill="none" stroke="rgb(134,134,134)" stroke-width="0.1"/>
 </g>
 <g id="layerCURTWALL" inkscape:groupmode="layer" inkscape:label="CURTWALL">
  <path d="M 0.0,5.907614999999964 L 3.5335110000000896,5.907614999999964" fill="none" instance-id="-1" semantic-id="2" stroke="rgb(0,178,178)" stroke-width="0.1"/>
  <path d="M 0.0,6.574614999999966 L 2.863511000000017,6.574614999999966" fill="none" instance-id="-1" semantic-id="2" stroke="rgb(0,178,178)" stroke-width="0.1"/>
  <path d="M 4.193511000000171,5.2416149999999675 L 0.0,5.2416149999999675" fill="none" instance-id="-1" semantic-id="2" stroke="rgb(0,178,178)" stroke-width="0.1"/>
  <path d="M 0.0,7.2416149999999675 L 2.1935110000001714,7.2416149999999675" fill="none" instance-id="-1" semantic-id="2" stroke="rgb(0,178,178)" stroke-width="0.1"/>
  <path d="M 3.5335110000000896,5.907614999999964 L 3.5335110000000896,18.907614999999964" fill="none" instance-id="-1" semantic-id="2" stroke="rgb(0,178,178)" stroke-width="0.1"/>
  <path d="M 2.863511000000017,6.574614999999966 L 2.863511000000017,19.574614999999966" fill="none" instance-id="-1" semantic-id="2" stroke="rgb(0,178,178)" stroke-width="0.1"/>
  <path d="M 4.193511000000171,5.2416149999999675 L 4.193511000000171,18.241614999999967" fill="none" instance-id="-1" semantic-id="2" stroke="rgb(0,178,178)" stroke-width="0.1"/>
  <path d="M 2.1935110000001714,7.2416149999999675 L 2.1935110000001714,20.241614999999967" fill="none" instance-id="-1" semantic-id="2" stroke="rgb(0,178,178)" stroke-width="0.1"/>
  <path d="M 3.5335110000000896,18.907614999999964 L 38.86351100000002,18.907614999999964" fill="none" instance-id="-1" semantic-id="2" stroke="rgb(0,178,178)" stroke-width="0.1"/>
  <path d="M 2.863511000000017,19.574614999999966 L 39.53351100000009,19.574614999999966" fill="none" instance-id="-1" semantic-id="2" stroke="rgb(0,178,178)" stroke-width="0.1"/>
  <path d="M 4.193511000000171,18.241614999999967 L 38.19351100000017,18.241614999999967" fill="none" instance-id="-1" semantic-id="2" stroke="rgb(0,178,178)" stroke-width="0.1"/>
  <path d="M 2.1935110000001714,20.241614999999967 L 40.19351100000017,20.241614999999967" fill="none" instance-id="-1" semantic-id="2" stroke="rgb(0,178,178)" stroke-width="0.1"/>
  <path d="M 38.86351100000002,18.907614999999964 L 38.86351100000002,5.907614999999964" fill="none" instance-id="-1" semantic-id="2" stroke="rgb(0,178,178)" stroke-width="0.1"/>
  <path d="M 39.53351100000009,19.574614999999966 L 39.53351100000009,6.574614999999966" fill="none" instance-id="-1" semantic-id="2" stroke="rgb(0,178,178)" stroke-width="0.1"/>
  <path d="M 38.19351100000017,18.241614999999967 L 38.19351100000017,5.2416149999999675" fill="none" instance-id="-1" semantic-id="2" stroke="rgb(0,178,178)" stroke-width="0.1"/>
  <path d="M 40.19351100000017,20.241614999999967 L 40.19351100000017,7.2416149999999675" fill="none" instance-id="-1" semantic-id="2" stroke="rgb(0,178,178)" stroke-width="0.1"/>
  <path d="M 38.86351100000002,5.907614999999964 L 100.0,5.907614999999964" fill="none" instance-id="-1" semantic-id="2" stroke="rgb(0,178,178)" stroke-width="0.1"/>
  <path d="M 39.53351100000009,6.574614999999966 L 100.0,6.574614999999966" fill="none" instance-id="-1" semantic-id="2" stroke="rgb(0,178,178)" stroke-width="0.1"/>
  <path d="M 38.19351100000017,5.2416149999999675 L 100.0,5.2416149999999675" fill="none" instance-id="-1" semantic-id="2" stroke="rgb(0,178,178)" stroke-width="0.1"/>
  <path d="M 40.19351100000017,7.2416149999999675 L 100.0,7.2416149999999675" fill="none" instance-id="-1" semantic-id="2" stroke="rgb(0,178,178)" stroke-width="0.1"/>
 </g>
 <g id="layerDIM_LEAD" inkscape:groupmode="layer" inkscape:label="DIM_LEAD">
  <path d="M 32.03351100000009,45.73461499999999 L 62.14351099999999,38.25761499999999" fill="none" stroke="rgb(0,178,0)" stroke-width="0.1"/>
  <path d="M 62.14351099999999,38.25761499999999 L 93.19351100000017,38.25761499999999" fill="none" stroke="rgb(0,178,0)" stroke-width="0.1"/>
  <path d="M 31.64351099999999,45.830614999999966 A 0.4,0.4 0.0 1,0 32.4135110000002,45.63761499999998" fill="none" stroke="rgb(0,178,0)" stroke-width="0.1"/>
  <path d="M 32.4135110000002,45.63761499999998 A 0.4,0.4 0.0 1,0 31.64351099999999,45.830614999999966" fill="none" stroke="rgb(0,178,0)" stroke-width="0.1"/>
 </g>
 <g id="layerDOTE" inkscape:groupmode="layer" inkscape:label="DOTE">
  <path d="M 0.0,24.241614999999967 L 100.0,24.241614999999967" fill="none" stroke="rgb(178,0,0)" stroke-width="0.1"/>
  <path d="M 3.1935110000001714,100.0 L 3.1935110000001714,0.0" fill="none" stroke="rgb(178,0,0)" stroke-width="0.1"/>
  <path d="M 93.19351100000017,100.0 L 93.19351100000017,0.0" fill="none" stroke="rgb(178,0,0)" stroke-width="0.1"/>
 </g>
 <g id="layerEQUIP_地漏" inkscape:groupmode="layer" inkscape:label="EQUIP_地漏">
  <path d="M 11.833511000000044,93.76461499999996 L 13.04351100000008,92.55261499999997" fill="none" stroke="rgb(0,0,0)" stroke-width="0.1"/>
  <path d="M 11.833511000000044,93.76461499999996 L 13.04351100000008,92.55261499999997" fill="none" stroke="rgb(0,0,0)" stroke-width="0.1"/>
  <path d="M 11.17351100000019,93.68661499999999 L 12.973511000000144,91.88761499999998" fill="none" stroke="rgb(0,0,0)" stroke-width="0.1"/>
  <path d="M 11.17351100000019,93.68661499999999 L 12.973511000000144,91.88761499999998" fill="none" stroke="rgb(0,0,0)" stroke-width="0.1"/>
  <path d="M 10.243511000000126,92.26561499999997 L 11.503511000000117,91.00361499999997" fill="none" stroke="rgb(0,0,0)" stroke-width="0.1"/>
  <path d="M 10.243511000000126,92.26561499999997 L 11.503511000000117,91.00361499999997" fill="none" stroke="rgb(0,0,0)" stroke-width="0.1"/>
  <path d="M 10.353511000000026,92.90661499999999 L 12.18351100000018,91.07261499999998" fill="none" stroke="rgb(0,0,0)" stroke-width="0.1"/>
  <path d="M 10.353511000000026,92.90661499999999 L 12.18351100000018,91.07261499999998" fill="none" stroke="rgb(0,0,0)" stroke-width="0.1"/>
  <path d="M 10.663511000000199,93.37761499999999 L 12.65351099999998,91.38361499999996" fill="none" stroke="rgb(0,0,0)" stroke-width="0.1"/>
  <path d="M 10.663511000000199,93.37761499999999 L 12.65351099999998,91.38361499999996" fill="none" stroke="rgb(0,0,0)" stroke-width="0.1"/>
  <path d="M 18.063511000000062,54.41261499999999 L 19.2735110000001,55.62461499999998" fill="none" stroke="rgb(0,0,0)" stroke-width="0.1"/>
  <path d="M 18.063511000000062,54.41261499999999 L 19.2735110000001,55.62461499999998" fill="none" stroke="rgb(0,0,0)" stroke-width="0.1"/>
  <path d="M 18.14351099999999,53.75561499999998 L 19.93351100000018,55.554614999999984" fill="none" stroke="rgb(0,0,0)" stroke-width="0.1"/>
  <path d="M 18.14351099999999,53.75561499999998 L 19.93351100000018,55.554614999999984" fill="none" stroke="rgb(0,0,0)" stroke-width="0.1"/>
  <path d="M 19.563511000000062,52.828614999999985 L 20.823511000000053,54.08961499999998" fill="none" stroke="rgb(0,0,0)" stroke-width="0.1"/>
  <path d="M 19.563511000000062,52.828614999999985 L 20.823511000000053,54.08961499999998" fill="none" stroke="rgb(0,0,0)" stroke-width="0.1"/>
  <path d="M 18.92351100000019,52.93261499999997 L 20.753511000000117,54.76661499999997" fill="none" stroke="rgb(0,0,0)" stroke-width="0.1"/>
  <path d="M 18.92351100000019,52.93261499999997 L 20.753511000000117,54.76661499999997" fill="none" stroke="rgb(0,0,0)" stroke-width="0.1"/>
  <path d="M 18.44351100000017,53.24461499999998 L 20.44351100000017,55.23861499999998" fill="none" stroke="rgb(0,0,0)" stroke-width="0.1"/>
  <path d="M 18.44351100000017,53.24461499999998 L 20.44351100000017,55.23861499999998" fill="none" stroke="rgb(0,0,0)" stroke-width="0.1"/>
  <path d="M 16.513511000000108,23.625614999999982 L 17.723511000000144,22.413614999999965" fill="none" stroke="rgb(0,0,0)" stroke-width="0.1"/>
  <path d="M 16.513511000000108,23.625614999999982 L 17.723511000000144,22.413614999999965" fill="none" stroke="rgb(0,0,0)" stroke-width="0.1"/>
  <path d="M 15.863511000000017,23.54761499999998 L 17.65351099999998,21.748614999999972" fill="none" stroke="rgb(0,0,0)" stroke-width="0.1"/>
  <path d="M 15.863511000000017,23.54761499999998 L 17.65351099999998,21.748614999999972" fill="none" stroke="rgb(0,0,0)" stroke-width="0.1"/>
  <path d="M 14.93351100000018,22.126614999999987 L 16.19351100000017,20.86561499999999" fill="none" stroke="rgb(0,0,0)" stroke-width="0.1"/>
  <path d="M 14.93351100000018,22.126614999999987 L 16.19351100000017,20.86561499999999" fill="none" stroke="rgb(0,0,0)" stroke-width="0.1"/>
  <path d="M 15.03351100000009,22.767614999999978 L 16.873511000000008,20.933614999999975" fill="none" stroke="rgb(0,0,0)" stroke-width="0.1"/>
  <path d="M 15.03351100000009,22.767614999999978 L 16.873511000000008,20.933614999999975" fill="none" stroke="rgb(0,0,0)" stroke-width="0.1"/>
  <path d="M 15.343511000000035,23.23861499999998 L 17.343511000000035,21.244614999999982" fill="none" stroke="rgb(0,0,0)" stroke-width="0.1"/>
  <path d="M 15.343511000000035,23.23861499999998 L 17.343511000000035,21.244614999999982" fill="none" stroke="rgb(0,0,0)" stroke-width="0.1"/>
  <circle cx="11.663511000000199" cy="92.38061499999998" fill="none" r="1.41" stroke="rgb(0,0,0)" stroke-width="0.1"/>
  <circle cx="11.663511000000199" cy="92.38061499999998" fill="none" r="1.41" stroke="rgb(0,0,0)" stroke-width="0.1"/>
  <circle cx="19.44351100000017" cy="54.24161499999997" fill="none" r="1.41" stroke="rgb(0,0,0)" stroke-width="0.1"/>
  <circle cx="19.44351100000017" cy="54.24161499999997" fill="none" r="1.41" stroke="rgb(0,0,0)" stroke-width="0.1"/>
  <circle cx="16.343511000000035" cy="22.241614999999967" fill="none" r="1.41" stroke="rgb(0,0,0)" stroke-width="0.1"/>
  <circle cx="16.343511000000035" cy="22.241614999999967" fill="none" r="1.41" stroke="rgb(0,0,0)" stroke-width="0.1"/>
 </g>
 <g id="layerEQUIP_消火栓" inkscape:groupmode="layer" inkscape:label="EQUIP_消火栓">
  <path d="M 8.193511000000171,96.23561499999997 L 2.4235110000001896,97.68461499999998" fill="none" stroke="rgb(178,0,0)" stroke-width="0.1"/>
  <path d="M 1.1935110000001714,94.23561499999997 L 1.1935110000001714,96.23561499999997" fill="none" stroke="rgb(178,0,0)" stroke-width="0.1"/>
  <path d="M 8.193511000000171,96.23561499999997 L 8.193511000000171,94.23561499999997" fill="none" stroke="rgb(178,0,0)" stroke-width="0.1"/>
  <path d="M 8.193511000000171,94.23561499999997 L 1.1935110000001714,94.23561499999997" fill="none" stroke="rgb(178,0,0)" stroke-width="0.1"/>
  <path d="M 8.193511000000171,94.23561499999997 L 1.1935110000001714,96.23561499999997" fill="none" stroke="rgb(178,0,0)" stroke-width="0.1"/>
  <path d="M 1.1935110000001714,96.23561499999997 L 8.193511000000171,96.23561499999997" fill="none" stroke="rgb(178,0,0)" stroke-width="0.1"/>
  <path d="M 93.19351100000017,96.23561499999997 L 98.96351100000015,97.68461499999998" fill="none" stroke="rgb(178,0,0)" stroke-width="0.1"/>
  <path d="M 93.19351100000017,96.23561499999997 L 93.19351100000017,94.23561499999997" fill="none" stroke="rgb(178,0,0)" stroke-width="0.1"/>
  <path d="M 93.19351100000017,94.23561499999997 L 100.0,94.23561499999997" fill="none" stroke="rgb(178,0,0)" stroke-width="0.1"/>
  <path d="M 93.19351100000017,94.23561499999997 L 100.0,96.18032614285707" fill="none" stroke="rgb(178,0,0)" stroke-width="0.1"/>
  <path d="M 100.0,96.23561499999997 L 93.19351100000017,96.23561499999997" fill="none" stroke="rgb(178,0,0)" stroke-width="0.1"/>
 </g>
 <g id="layerJ-PUB_DIM" inkscape:groupmode="layer" inkscape:label="J-PUB_DIM">
  <path d="M 93.19351100000017,38.25761499999999 L 100.0,38.25761499999999" fill="none" stroke="rgb(0,178,0)" stroke-width="0.1"/>
  <text fill="rgb(0,178,0)" font-family="Noto Sans CJK SC" font-size="2" transform="rotate(-0.0,98.86351100000002,37.79161499999998)" x="98.86351100000002" y="37.79161499999998">
   3
  </text>
  <text fill="rgb(0,178,0)" font-family="Noto Sans CJK SC" font-size="2" transform="rotate(-0.0,96.1635110000002,44.18261499999997)" x="96.1635110000002" y="44.18261499999997">
   24
  </text>
 </g>
 <g id="layerJ-开洞" inkscape:groupmode="layer" inkscape:label="J-开洞">
  <path d="M 32.19351100000017,67.24161499999997 L 33.42351100000019,53.66161499999998" fill="none" stroke="rgb(178,0,178)" stroke-width="0.1"/>
  <path d="M 33.42351100000019,53.66161499999998 L 38.19351100000017,52.24161499999997" fill="none" stroke="rgb(178,0,178)" stroke-width="0.1"/>
 </g>
 <g id="layerJ-洁具" inkscape:groupmode="layer" inkscape:label="J-洁具">
  <path d="M 7.193511000000171,26.241614999999967 L 7.193511000000171,28.241614999999967" fill="none" stroke="rgb(12,133,255)" stroke-width="0.1"/>
  <path d="M 7.193511000000171,26.241614999999967 L 7.193511000000171,28.241614999999967" fill="none" stroke="rgb(12,133,255)" stroke-width="0.1"/>
  <path d="M 0.0,88.24161499999997 L 18.94351100000017,88.24161499999997" fill="none" stroke="rgb(12,133,255)" stroke-width="0.1"/>
  <path d="M 8.193511000000171,28.241614999999967 L 19.94351100000017,28.241614999999967" fill="none" stroke="rgb(12,133,255)" stroke-width="0.1"/>
  <path d="M 19.94351100000017,28.241614999999967 L 19.94351100000017,20.241614999999967" fill="none" stroke="rgb(12,133,255)" stroke-width="0.1"/>
  <path d="M 6.353511000000026,92.79561499999997 L 6.0435110000000805,92.79561499999997" fill="none" instance-id="11" semantic-id="23" stroke="rgb(12,133,255)" stroke-width="0.1"/>
  <path d="M 6.0435110000000805,92.79561499999997 L 6.0435110000000805,91.51461499999996" fill="none" instance-id="11" semantic-id="23" stroke="rgb(12,133,255)" stroke-width="0.1"/>
  <path d="M 6.353511000000026,92.79561499999997 L 6.353511000000026,91.51461499999996" fill="none" instance-id="11" semantic-id="23" stroke="rgb(12,133,255)" stroke-width="0.1"/>
  <path d="M 6.0435110000000805,92.24561499999999 L 4.093511000000035,92.24561499999999" fill="none" instance-id="11" semantic-id="23" stroke="rgb(12,133,255)" stroke-width="0.1"/>
  <path d="M 3.993511000000126,92.14561499999996 L 3.993511000000126,88.94561499999998" fill="none" instance-id="11" semantic-id="23" stroke="rgb(12,133,255)" stroke-width="0.1"/>
  <path d="M 4.093511000000035,88.84561499999998 L 8.29351100000008,88.84561499999998" fill="none" instance-id="11" semantic-id="23" stroke="rgb(12,133,255)" stroke-width="0.1"/>
  <path d="M 8.39351099999999,88.94561499999998 L 8.39351099999999,92.14561499999996" fill="none" instance-id="11" semantic-id="23" stroke="rgb(12,133,255)" stroke-width="0.1"/>
  <path d="M 8.29351100000008,92.24561499999999 L 6.353511000000026,92.24561499999999" fill="none" instance-id="11" semantic-id="23" stroke="rgb(12,133,255)" stroke-width="0.1"/>
  <path d="M 8.693511000000171,93.04561499999997 L 3.6935110000001714,93.04561499999997" fill="none" instance-id="11" semantic-id="23" stroke="rgb(12,133,255)" stroke-width="0.1"/>
  <path d="M 3.6935110000001714,93.04561499999997 L 3.6935110000001714,88.54561499999997" fill="none" instance-id="11" semantic-id="23" stroke="rgb(12,133,255)" stroke-width="0.1"/>
  <path d="M 3.6935110000001714,88.54561499999997 L 8.693511000000171,88.54561499999997" fill="none" instance-id="11" semantic-id="23" stroke="rgb(12,133,255)" stroke-width="0.1"/>
  <path d="M 8.693511000000171,88.54561499999997 L 8.693511000000171,93.04561499999997" fill="none" instance-id="11" semantic-id="23" stroke="rgb(12,133,255)" stroke-width="0.1"/>
  <path d="M 29.19351100000017,94.24161499999997 L 29.203511000000162,82.24161499999997" fill="none" stroke="rgb(12,133,255)" stroke-width="0.1"/>
  <path d="M 28.94351100000017,94.24161499999997 L 28.953511000000162,82.49161499999997" fill="none" stroke="rgb(12,133,255)" stroke-width="0.1"/>
  <path d="M 19.953511000000162,82.24161499999997 L 21.573511000000053,82.24161499999997" fill="none" instance-id="9" semantic-id="3" stroke="rgb(12,133,255)" stroke-width="0.1"/>
  <path d="M 21.573511000000053,82.24161499999997 L 21.573511000000053,82.49161499999997" fill="none" instance-id="9" semantic-id="3" stroke="rgb(12,133,255)" stroke-width="0.1"/>
  <path d="M 21.573511000000053,82.49161499999997 L 20.203511000000162,82.49161499999997" fill="none" instance-id="9" semantic-id="3" stroke="rgb(12,133,255)" stroke-width="0.1"/>
  <path d="M 28.953511000000162,82.49161499999997 L 27.573511000000053,82.49161499999997" fill="none" instance-id="9" semantic-id="3" stroke="rgb(12,133,255)" stroke-width="0.1"/>
  <path d="M 27.573511000000053,82.49161499999997 L 27.573511000000053,82.24161499999997" fill="none" instance-id="9" semantic-id="3" stroke="rgb(12,133,255)" stroke-width="0.1"/>
  <path d="M 27.573511000000053,82.24161499999997 L 29.203511000000162,82.24161499999997" fill="none" stroke="rgb(12,133,255)" stroke-width="0.1"/>
  <path d="M 20.19351100000017,94.24161499999997 L 20.203511000000162,82.49161499999997" fill="none" stroke="rgb(12,133,255)" stroke-width="0.1"/>
  <path d="M 19.94351100000017,94.24161499999997 L 19.953511000000162,82.24161499999997" fill="none" stroke="rgb(12,133,255)" stroke-width="0.1"/>
  <path d="M 20.19351100000017,94.24161499999997 L 19.94351100000017,94.24161499999997" fill="none" stroke="rgb(12,133,255)" stroke-width="0.1"/>
  <path d="M 27.573511000000053,82.36661499999997 L 24.573511000000053,77.16961499999996" fill="none" instance-id="9" semantic-id="3" stroke="rgb(12,133,255)" stroke-width="0.1"/>
  <path d="M 38.19351100000017,94.24161499999997 L 38.20351100000016,82.24161499999997" fill="none" stroke="rgb(12,133,255)" stroke-width="0.1"/>
  <path d="M 37.94351100000017,94.24161499999997 L 37.95351100000016,82.49161499999997" fill="none" stroke="rgb(12,133,255)" stroke-width="0.1"/>
  <path d="M 28.953511000000162,82.24161499999997 L 30.573511000000053,82.24161499999997" fill="none" stroke="rgb(12,133,255)" stroke-width="0.1"/>
  <path d="M 30.573511000000053,82.24161499999997 L 30.573511000000053,82.49161499999997" fill="none" instance-id="10" semantic-id="3" stroke="rgb(12,133,255)" stroke-width="0.1"/>
  <path d="M 30.573511000000053,82.49161499999997 L 29.203511000000162,82.49161499999997" fill="none" stroke="rgb(12,133,255)" stroke-width="0.1"/>
  <path d="M 37.95351100000016,82.49161499999997 L 36.57351100000005,82.49161499999997" fill="none" stroke="rgb(12,133,255)" stroke-width="0.1"/>
  <path d="M 36.57351100000005,82.49161499999997 L 36.57351100000005,82.24161499999997" fill="none" instance-id="10" semantic-id="3" stroke="rgb(12,133,255)" stroke-width="0.1"/>
  <path d="M 36.57351100000005,82.24161499999997 L 38.20351100000016,82.24161499999997" fill="none" stroke="rgb(12,133,255)" stroke-width="0.1"/>
  <path d="M 29.19351100000017,94.24161499999997 L 29.203511000000162,82.49161499999997" fill="none" stroke="rgb(12,133,255)" stroke-width="0.1"/>
  <path d="M 28.94351100000017,94.24161499999997 L 28.953511000000162,82.24161499999997" fill="none" stroke="rgb(12,133,255)" stroke-width="0.1"/>
  <path d="M 29.19351100000017,94.24161499999997 L 28.94351100000017,94.24161499999997" fill="none" stroke="rgb(12,133,255)" stroke-width="0.1"/>
  <path d="M 36.57351100000005,82.36661499999997 L 33.57351100000005,77.16961499999996" fill="none" instance-id="10" semantic-id="3" stroke="rgb(12,133,255)" stroke-width="0.1"/>
  <path d="M 13.853511000000026,23.68661499999999 L 13.54351100000008,23.68661499999999" fill="none" instance-id="5" semantic-id="23" stroke="rgb(12,133,255)" stroke-width="0.1"/>
  <path d="M 13.54351100000008,23.68661499999999 L 13.54351100000008,24.967614999999967" fill="none" instance-id="5" semantic-id="23" stroke="rgb(12,133,255)" stroke-width="0.1"/>
  <path d="M 13.853511000000026,23.68661499999999 L 13.853511000000026,24.967614999999967" fill="none" instance-id="5" semantic-id="23" stroke="rgb(12,133,255)" stroke-width="0.1"/>
  <path d="M 13.54351100000008,24.236614999999972 L 11.593511000000035,24.236614999999972" fill="none" instance-id="5" semantic-id="23" stroke="rgb(12,133,255)" stroke-width="0.1"/>
  <path d="M 11.493511000000126,24.336614999999966 L 11.493511000000126,27.536614999999983" fill="none" instance-id="5" semantic-id="23" stroke="rgb(12,133,255)" stroke-width="0.1"/>
  <path d="M 11.593511000000035,27.636614999999978 L 15.79351100000008,27.636614999999978" fill="none" instance-id="5" semantic-id="23" stroke="rgb(12,133,255)" stroke-width="0.1"/>
  <path d="M 15.89351099999999,27.536614999999983 L 15.89351099999999,24.336614999999966" fill="none" instance-id="5" semantic-id="23" stroke="rgb(12,133,255)" stroke-width="0.1"/>
  <path d="M 15.79351100000008,24.236614999999972 L 13.853511000000026,24.236614999999972" fill="none" instance-id="5" semantic-id="23" stroke="rgb(12,133,255)" stroke-width="0.1"/>
  <path d="M 16.19351100000017,23.43661499999999 L 11.193511000000171,23.43661499999999" fill="none" instance-id="5" semantic-id="23" stroke="rgb(12,133,255)" stroke-width="0.1"/>
  <path d="M 11.193511000000171,23.43661499999999 L 11.193511000000171,27.93661499999999" fill="none" instance-id="5" semantic-id="23" stroke="rgb(12,133,255)" stroke-width="0.1"/>
  <path d="M 11.193511000000171,27.93661499999999 L 16.19351100000017,27.93661499999999" fill="none" instance-id="5" semantic-id="23" stroke="rgb(12,133,255)" stroke-width="0.1"/>
  <path d="M 16.19351100000017,27.93661499999999 L 16.19351100000017,23.43661499999999" fill="none" instance-id="5" semantic-id="23" stroke="rgb(12,133,255)" stroke-width="0.1"/>
  <path d="M 19.353511000000026,49.48161499999998 L 17.04351100000008,49.48161499999998" fill="none" instance-id="6" semantic-id="28" stroke="rgb(12,133,255)" stroke-width="0.1"/>
  <path d="M 17.763511000000108,48.08561499999999 L 16.953511000000162,49.326614999999975" fill="none" instance-id="6" semantic-id="28" stroke="rgb(12,133,255)" stroke-width="0.1"/>
  <path d="M 19.44351100000017,49.326614999999975 L 18.633511,48.08561499999999" fill="none" instance-id="6" semantic-id="28" stroke="rgb(12,133,255)" stroke-width="0.1"/>
  <path d="M 26.853511000000026,49.48161499999998 L 24.54351100000008,49.48161499999998" fill="none" instance-id="7" semantic-id="28" stroke="rgb(12,133,255)" stroke-width="0.1"/>
  <path d="M 25.263511000000108,48.08561499999999 L 24.453511000000162,49.326614999999975" fill="none" instance-id="7" semantic-id="28" stroke="rgb(12,133,255)" stroke-width="0.1"/>
  <path d="M 26.94351100000017,49.326614999999975 L 26.133511,48.08561499999999" fill="none" instance-id="7" semantic-id="28" stroke="rgb(12,133,255)" stroke-width="0.1"/>
  <path d="M 28.94351100000017,20.241614999999967 L 28.94351100000017,32.24161499999997" fill="none" stroke="rgb(12,133,255)" stroke-width="0.1"/>
  <path d="M 29.19351100000017,20.241614999999967 L 29.19351100000017,31.991614999999967" fill="none" stroke="rgb(12,133,255)" stroke-width="0.1"/>
  <path d="M 38.19351100000017,32.24161499999997 L 36.57351100000005,32.24161499999997" fill="none" stroke="rgb(12,133,255)" stroke-width="0.1"/>
  <path d="M 36.57351100000005,32.24161499999997 L 36.57351100000005,31.991614999999967" fill="none" instance-id="4" semantic-id="3" stroke="rgb(12,133,255)" stroke-width="0.1"/>
  <path d="M 36.57351100000005,31.991614999999967 L 37.94351100000017,31.991614999999967" fill="none" stroke="rgb(12,133,255)" stroke-width="0.1"/>
  <path d="M 29.19351100000017,31.991614999999967 L 30.573511000000053,31.991614999999967" fill="none" stroke="rgb(12,133,255)" stroke-width="0.1"/>
  <path d="M 30.573511000000053,31.991614999999967 L 30.573511000000053,32.24161499999997" fill="none" instance-id="4" semantic-id="3" stroke="rgb(12,133,255)" stroke-width="0.1"/>
  <path d="M 30.573511000000053,32.24161499999997 L 28.94351100000017,32.24161499999997" fill="none" stroke="rgb(12,133,255)" stroke-width="0.1"/>
  <path d="M 37.94351100000017,20.241614999999967 L 37.94351100000017,31.991614999999967" fill="none" stroke="rgb(12,133,255)" stroke-width="0.1"/>
  <path d="M 38.19351100000017,20.241614999999967 L 38.19351100000017,32.24161499999997" fill="none" stroke="rgb(12,133,255)" stroke-width="0.1"/>
  <path d="M 37.94351100000017,20.241614999999967 L 38.19351100000017,20.241614999999967" fill="none" stroke="rgb(12,133,255)" stroke-width="0.1"/>
  <path d="M 30.573511000000053,32.11661499999997 L 33.57351100000005,37.312614999999965" fill="none" instance-id="4" semantic-id="3" stroke="rgb(12,133,255)" stroke-width="0.1"/>
  <path d="M 19.94351100000017,20.241614999999967 L 19.94351100000017,32.24161499999997" fill="none" stroke="rgb(12,133,255)" stroke-width="0.1"/>
  <path d="M 20.19351100000017,20.241614999999967 L 20.19351100000017,31.991614999999967" fill="none" stroke="rgb(12,133,255)" stroke-width="0.1"/>
  <path d="M 29.19351100000017,32.24161499999997 L 27.573511000000053,32.24161499999997" fill="none" stroke="rgb(12,133,255)" stroke-width="0.1"/>
  <path d="M 27.573511000000053,32.24161499999997 L 27.573511000000053,31.991614999999967" fill="none" instance-id="3" semantic-id="3" stroke="rgb(12,133,255)" stroke-width="0.1"/>
  <path d="M 27.573511000000053,31.991614999999967 L 28.94351100000017,31.991614999999967" fill="none" stroke="rgb(12,133,255)" stroke-width="0.1"/>
  <path d="M 20.19351100000017,31.991614999999967 L 21.573511000000053,31.991614999999967" fill="none" stroke="rgb(12,133,255)" stroke-width="0.1"/>
  <path d="M 21.573511000000053,31.991614999999967 L 21.573511000000053,32.24161499999997" fill="none" instance-id="3" semantic-id="3" stroke="rgb(12,133,255)" stroke-width="0.1"/>
  <path d="M 21.573511000000053,32.24161499999997 L 19.94351100000017,32.24161499999997" fill="none" stroke="rgb(12,133,255)" stroke-width="0.1"/>
  <path d="M 28.94351100000017,20.241614999999967 L 28.94351100000017,31.991614999999967" fill="none" stroke="rgb(12,133,255)" stroke-width="0.1"/>
  <path d="M 29.19351100000017,20.241614999999967 L 29.19351100000017,32.24161499999997" fill="none" stroke="rgb(12,133,255)" stroke-width="0.1"/>
  <path d="M 28.94351100000017,20.241614999999967 L 29.19351100000017,20.241614999999967" fill="none" stroke="rgb(12,133,255)" stroke-width="0.1"/>
  <path d="M 21.573511000000053,32.11661499999997 L 24.573511000000053,37.312614999999965" fill="none" instance-id="3" semantic-id="3" stroke="rgb(12,133,255)" stroke-width="0.1"/>
  <path d="M 34.353511000000026,49.48161499999998 L 32.04351100000008,49.48161499999998" fill="none" instance-id="8" semantic-id="28" stroke="rgb(12,133,255)" stroke-width="0.1"/>
  <path d="M 32.76351100000011,48.08561499999999 L 31.953511000000162,49.326614999999975" fill="none" instance-id="8" semantic-id="28" stroke="rgb(12,133,255)" stroke-width="0.1"/>
  <path d="M 34.44351100000017,49.326614999999975 L 33.633511,48.08561499999999" fill="none" instance-id="8" semantic-id="28" stroke="rgb(12,133,255)" stroke-width="0.1"/>
  <path d="M 3.993511000000126,92.14561499999996 A 0.1,0.1 0.0 0,0 4.093511000000035,92.24561499999999" fill="none" stroke="rgb(12,133,255)" stroke-width="0.1"/>
  <path d="M 4.093511000000035,88.84561499999998 A 0.1,0.1 0.0 0,0 3.993511000000126,88.94561499999998" fill="none" stroke="rgb(12,133,255)" stroke-width="0.1"/>
  <path d="M 8.39351099999999,88.94561499999998 A 0.1,0.1 0.0 0,0 8.29351100000008,88.84561499999998" fill="none" stroke="rgb(12,133,255)" stroke-width="0.1"/>
  <path d="M 8.29351100000008,92.24561499999999 A 0.1,0.1 0.0 0,0 8.39351099999999,92.14561499999996" fill="none" stroke="rgb(12,133,255)" stroke-width="0.1"/>
  <path d="M 24.573511000000053,77.16961499999996 A 6.0,6.0 0.0 0,0 21.573511000000053,82.36661499999997" fill="none" instance-id="9" semantic-id="3" stroke="rgb(12,133,255)" stroke-width="0.1"/>
  <path d="M 33.57351100000005,77.16961499999996 A 6.0,6.0 0.0 0,0 30.573511000000053,82.36661499999997" fill="none" instance-id="10" semantic-id="3" stroke="rgb(12,133,255)" stroke-width="0.1"/>
  <path d="M 11.593511000000035,24.236614999999972 A 0.1,0.1 0.0 0,0 11.493511000000126,24.336614999999966" fill="none" stroke="rgb(12,133,255)" stroke-width="0.1"/>
  <path d="M 11.493511000000126,27.536614999999983 A 0.1,0.1 0.0 0,0 11.593511000000035,27.636614999999978" fill="none" stroke="rgb(12,133,255)" stroke-width="0.1"/>
  <path d="M 15.79351100000008,27.636614999999978 A 0.1,0.1 0.0 0,0 15.89351099999999,27.536614999999983" fill="none" stroke="rgb(12,133,255)" stroke-width="0.1"/>
  <path d="M 15.89351099999999,24.336614999999966 A 0.1,0.1 0.0 0,0 15.79351100000008,24.236614999999972" fill="none" stroke="rgb(12,133,255)" stroke-width="0.1"/>
  <path d="M 18.633511,48.08561499999999 A 0.5,0.5 0.0 0,0 17.763511000000108,48.08561499999999" fill="none" instance-id="6" semantic-id="28" stroke="rgb(12,133,255)" stroke-width="0.1"/>
  <path d="M 19.353511000000026,49.48161499999998 A 0.1,0.1 0.0 0,0 19.44351100000017,49.326614999999975" fill="none" instance-id="6" semantic-id="28" stroke="rgb(12,133,255)" stroke-width="0.1"/>
  <path d="M 16.953511000000162,49.326614999999975 A 0.1,0.1 0.0 0,0 17.04351100000008,49.48161499999998" fill="none" instance-id="6" semantic-id="28" stroke="rgb(12,133,255)" stroke-width="0.1"/>
  <path d="M 26.133511,48.08561499999999 A 0.5,0.5 0.0 0,0 25.263511000000108,48.08561499999999" fill="none" instance-id="7" semantic-id="28" stroke="rgb(12,133,255)" stroke-width="0.1"/>
  <path d="M 26.853511000000026,49.48161499999998 A 0.1,0.1 0.0 0,0 26.94351100000017,49.326614999999975" fill="none" instance-id="7" semantic-id="28" stroke="rgb(12,133,255)" stroke-width="0.1"/>
  <path d="M 24.453511000000162,49.326614999999975 A 0.1,0.1 0.0 0,0 24.54351100000008,49.48161499999998" fill="none" instance-id="7" semantic-id="28" stroke="rgb(12,133,255)" stroke-width="0.1"/>
  <path d="M 33.57351100000005,37.312614999999965 A 6.0,6.0 0.0 0,0 36.57351100000005,32.11661499999997" fill="none" instance-id="4" semantic-id="3" stroke="rgb(12,133,255)" stroke-width="0.1"/>
  <path d="M 24.573511000000053,37.312614999999965 A 6.0,6.0 0.0 0,0 27.573511000000053,32.11661499999997" fill="none" instance-id="3" semantic-id="3" stroke="rgb(12,133,255)" stroke-width="0.1"/>
  <path d="M 33.633511,48.08561499999999 A 0.5,0.5 0.0 0,0 32.76351100000011,48.08561499999999" fill="none" instance-id="8" semantic-id="28" stroke="rgb(12,133,255)" stroke-width="0.1"/>
  <path d="M 34.353511000000026,49.48161499999998 A 0.1,0.1 0.0 0,0 34.44351100000017,49.326614999999975" fill="none" instance-id="8" semantic-id="28" stroke="rgb(12,133,255)" stroke-width="0.1"/>
  <path d="M 31.953511000000162,49.326614999999975 A 0.1,0.1 0.0 0,0 32.04351100000008,49.48161499999998" fill="none" instance-id="8" semantic-id="28" stroke="rgb(12,133,255)" stroke-width="0.1"/>
  <path d="M 6.0435110000000805,91.51461499999996 A 0.153333,0.0687035 8.27719e-11 0,0 6.193511000000171,91.58361499999998" fill="none" stroke="rgb(12,133,255)" stroke-width="0.1"/>
  <path d="M 6.203511000000162,91.58361499999998 A 0.153333,0.0687035 6.44641e-10 0,0 6.353511000000026,91.51461499999996" fill="none" stroke="rgb(12,133,255)" stroke-width="0.1"/>
  <path d="M 6.0435110000000805,91.61261499999998 A 0.15499999999997274,0.06945042815309246 1.05251e-14 1,0 6.353511000000026,91.61261499999998" fill="none" instance-id="11" semantic-id="23" stroke="rgb(12,133,255)" stroke-width="0.1"/>
  <path d="M 6.0435110000000805,91.62661499999999 A 0.15499999999997274,0.06945042815309246 1.05251e-14 1,0 6.353511000000026,91.62661499999999" fill="none" instance-id="11" semantic-id="23" stroke="rgb(12,133,255)" stroke-width="0.1"/>
  <path d="M 6.0435110000000805,91.62661499999999 A 0.15499999999997274,0.06945042815309246 1.05251e-14 1,0 6.353511000000026,91.62661499999999" fill="none" instance-id="11" semantic-id="23" stroke="rgb(12,133,255)" stroke-width="0.1"/>
  <path d="M 6.0435110000000805,91.61261499999998 A 0.15499999999997274,0.06945042815309246 1.05251e-14 1,0 6.353511000000026,91.61261499999998" fill="none" instance-id="11" semantic-id="23" stroke="rgb(12,133,255)" stroke-width="0.1"/>
  <path d="M 6.0435110000000805,91.51461499999996 A 0.15499999999997274,0.06945042815309246 1.05251e-14 1,0 6.353511000000026,91.51461499999996" fill="none" instance-id="11" semantic-id="23" stroke="rgb(12,133,255)" stroke-width="0.1"/>
  <path d="M 13.703511000000162,25.036614999999983 A 0.153333,0.0687035 -8.27649e-11 0,0 13.853511000000026,24.967614999999967" fill="none" stroke="rgb(12,133,255)" stroke-width="0.1"/>
  <path d="M 13.54351100000008,24.967614999999967 A 0.153333,0.0687035 -6.44634e-10 0,0 13.693511000000171,25.036614999999983" fill="none" stroke="rgb(12,133,255)" stroke-width="0.1"/>
  <path d="M 13.54351100000008,24.869614999999982 A 0.15499999999997274,0.06945042815309246 -3.50835e-15 1,0 13.853511000000026,24.869614999999982" fill="none" instance-id="5" semantic-id="23" stroke="rgb(12,133,255)" stroke-width="0.1"/>
  <path d="M 13.54351100000008,24.855614999999972 A 0.15499999999997274,0.06945042815309246 -3.50835e-15 1,0 13.853511000000026,24.855614999999972" fill="none" instance-id="5" semantic-id="23" stroke="rgb(12,133,255)" stroke-width="0.1"/>
  <path d="M 13.54351100000008,24.855614999999972 A 0.15499999999997274,0.06945042815309246 -3.50835e-15 1,0 13.853511000000026,24.855614999999972" fill="none" instance-id="5" semantic-id="23" stroke="rgb(12,133,255)" stroke-width="0.1"/>
  <path d="M 13.54351100000008,24.869614999999982 A 0.15499999999997274,0.06945042815309246 -3.50835e-15 1,0 13.853511000000026,24.869614999999982" fill="none" instance-id="5" semantic-id="23" stroke="rgb(12,133,255)" stroke-width="0.1"/>
  <path d="M 13.54351100000008,24.967614999999967 A 0.15499999999997274,0.06945042815309246 -3.50835e-15 1,0 13.853511000000026,24.967614999999967" fill="none" instance-id="5" semantic-id="23" stroke="rgb(12,133,255)" stroke-width="0.1"/>
  <path d="M 23.333511000000044,92.56961499999997 A 2.69021,2.69021 0.0 0,0 22.963511000000153,91.81161499999999" fill="none" instance-id="12" semantic-id="29" stroke="rgb(12,133,255)" stroke-width="0.1"/>
  <path d="M 23.753511000000117,88.67161499999997 A 2.89864,2.89864 0.0 0,0 22.963511000000153,91.81161499999999" fill="none" instance-id="12" semantic-id="29" stroke="rgb(12,133,255)" stroke-width="0.1"/>
  <path d="M 23.753511000000117,88.67161499999997 L 24.343511000000035,88.46461499999998" fill="none" instance-id="12" semantic-id="29" stroke="rgb(12,133,255)" stroke-width="0.1"/>
  <path d="M 24.343511000000035,88.46461499999998 L 24.93351100000018,88.46261499999997" fill="none" instance-id="12" semantic-id="29" stroke="rgb(12,133,255)" stroke-width="0.1"/>
  <path d="M 24.93351100000018,88.46261499999997 L 25.39351099999999,88.67161499999997" fill="none" instance-id="12" semantic-id="29" stroke="rgb(12,133,255)" stroke-width="0.1"/>
  <path d="M 26.213511000000153,91.81161499999999 A 2.96518,2.96518 0.0 0,0 25.39351099999999,88.67161499999997" fill="none" instance-id="12" semantic-id="29" stroke="rgb(12,133,255)" stroke-width="0.1"/>
  <path d="M 26.213511000000153,91.81161499999999 A 2.96791,2.96791 0.0 0,0 25.813511000000062,92.56961499999997" fill="none" instance-id="12" semantic-id="29" stroke="rgb(12,133,255)" stroke-width="0.1"/>
  <path d="M 25.64351099999999,91.98961499999999 A 1.85685,1.85685 0.0 0,0 26.003511000000117,89.97161499999999" fill="none" instance-id="12" semantic-id="29" stroke="rgb(12,133,255)" stroke-width="0.1"/>
  <path d="M 26.003511000000117,89.97161499999999 A 4.36842,4.36842 0.0 0,0 25.313511000000062,88.86361499999998" fill="none" instance-id="12" semantic-id="29" stroke="rgb(12,133,255)" stroke-width="0.1"/>
  <path d="M 25.313511000000062,88.86361499999998 L 24.813511000000062,88.71861499999997" fill="none" instance-id="12" semantic-id="29" stroke="rgb(12,133,255)" stroke-width="0.1"/>
  <path d="M 24.813511000000062,88.71861499999997 L 24.44351100000017,88.71761499999997" fill="none" instance-id="12" semantic-id="29" stroke="rgb(12,133,255)" stroke-width="0.1"/>
  <path d="M 24.44351100000017,88.71761499999997 L 23.833511000000044,88.86361499999998" fill="none" instance-id="12" semantic-id="29" stroke="rgb(12,133,255)" stroke-width="0.1"/>
  <path d="M 23.833511000000044,88.86361499999998 A 2.71577,2.71577 0.0 0,0 23.013511000000108,91.02161499999997" fill="none" instance-id="12" semantic-id="29" stroke="rgb(12,133,255)" stroke-width="0.1"/>
  <path d="M 23.013511000000108,91.02161499999997 A 1.42876,1.42876 0.0 0,0 23.493511000000126,91.98961499999999" fill="none" instance-id="12" semantic-id="29" stroke="rgb(12,133,255)" stroke-width="0.1"/>
  <path d="M 23.493511000000126,91.98961499999999 A 1.7036,1.7036 0.0 0,0 25.64351099999999,91.98961499999999" fill="none" instance-id="12" semantic-id="29" stroke="rgb(12,133,255)" stroke-width="0.1"/>
  <path d="M 22.593511000000035,92.57961499999999 L 26.55351100000007,92.57961499999999" fill="none" instance-id="12" semantic-id="29" stroke="rgb(12,133,255)" stroke-width="0.1"/>
  <path d="M 26.753511000000117,92.77961499999998 A 0.2,0.2 0.0 0,0 26.55351100000007,92.57961499999999" fill="none" instance-id="12" semantic-id="29" stroke="rgb(12,133,255)" stroke-width="0.1"/>
  <path d="M 26.753511000000117,92.77961499999998 L 26.753511000000117,94.24161499999997" fill="none" instance-id="12" semantic-id="29" stroke="rgb(12,133,255)" stroke-width="0.1"/>
  <path d="M 26.753511000000117,94.24161499999997 L 22.39351099999999,94.24161499999997" fill="none" instance-id="12" semantic-id="29" stroke="rgb(12,133,255)" stroke-width="0.1"/>
  <path d="M 22.39351099999999,94.24161499999997 L 22.39351099999999,92.77961499999998" fill="none" instance-id="12" semantic-id="29" stroke="rgb(12,133,255)" stroke-width="0.1"/>
  <path d="M 22.593511000000035,92.57961499999999 A 0.2,0.2 0.0 0,0 22.39351099999999,92.77961499999998" fill="none" instance-id="12" semantic-id="29" stroke="rgb(12,133,255)" stroke-width="0.1"/>
  <path d="M 32.333511000000044,92.56961499999997 A 2.69021,2.69021 0.0 0,0 31.963511000000153,91.81161499999999" fill="none" instance-id="13" semantic-id="29" stroke="rgb(12,133,255)" stroke-width="0.1"/>
  <path d="M 32.75351100000012,88.67161499999997 A 2.89864,2.89864 0.0 0,0 31.963511000000153,91.81161499999999" fill="none" instance-id="13" semantic-id="29" stroke="rgb(12,133,255)" stroke-width="0.1"/>
  <path d="M 32.75351100000012,88.67161499999997 L 33.343511000000035,88.46461499999998" fill="none" instance-id="13" semantic-id="29" stroke="rgb(12,133,255)" stroke-width="0.1"/>
  <path d="M 33.343511000000035,88.46461499999998 L 33.93351100000018,88.46261499999997" fill="none" instance-id="13" semantic-id="29" stroke="rgb(12,133,255)" stroke-width="0.1"/>
  <path d="M 33.93351100000018,88.46261499999997 L 34.39351099999999,88.67161499999997" fill="none" instance-id="13" semantic-id="29" stroke="rgb(12,133,255)" stroke-width="0.1"/>
  <path d="M 35.21351100000015,91.81161499999999 A 2.96518,2.96518 0.0 0,0 34.39351099999999,88.67161499999997" fill="none" instance-id="13" semantic-id="29" stroke="rgb(12,133,255)" stroke-width="0.1"/>
  <path d="M 35.21351100000015,91.81161499999999 A 2.96791,2.96791 0.0 0,0 34.81351100000006,92.56961499999997" fill="none" instance-id="13" semantic-id="29" stroke="rgb(12,133,255)" stroke-width="0.1"/>
  <path d="M 34.64351099999999,91.98961499999999 A 1.85685,1.85685 0.0 0,0 35.00351100000012,89.97161499999999" fill="none" instance-id="13" semantic-id="29" stroke="rgb(12,133,255)" stroke-width="0.1"/>
  <path d="M 35.00351100000012,89.97161499999999 A 4.36842,4.36842 0.0 0,0 34.31351100000006,88.86361499999998" fill="none" instance-id="13" semantic-id="29" stroke="rgb(12,133,255)" stroke-width="0.1"/>
  <path d="M 34.31351100000006,88.86361499999998 L 33.81351100000006,88.71861499999997" fill="none" instance-id="13" semantic-id="29" stroke="rgb(12,133,255)" stroke-width="0.1"/>
  <path d="M 33.81351100000006,88.71861499999997 L 33.44351100000017,88.71761499999997" fill="none" instance-id="13" semantic-id="29" stroke="rgb(12,133,255)" stroke-width="0.1"/>
  <path d="M 33.44351100000017,88.71761499999997 L 32.833511000000044,88.86361499999998" fill="none" instance-id="13" semantic-id="29" stroke="rgb(12,133,255)" stroke-width="0.1"/>
  <path d="M 32.833511000000044,88.86361499999998 A 2.71577,2.71577 0.0 0,0 32.01351100000011,91.02161499999997" fill="none" instance-id="13" semantic-id="29" stroke="rgb(12,133,255)" stroke-width="0.1"/>
  <path d="M 32.01351100000011,91.02161499999997 A 1.42876,1.42876 0.0 0,0 32.493511000000126,91.98961499999999" fill="none" instance-id="13" semantic-id="29" stroke="rgb(12,133,255)" stroke-width="0.1"/>
  <path d="M 32.493511000000126,91.98961499999999 A 1.7036,1.7036 0.0 0,0 34.64351099999999,91.98961499999999" fill="none" instance-id="13" semantic-id="29" stroke="rgb(12,133,255)" stroke-width="0.1"/>
  <path d="M 31.593511000000035,92.57961499999999 L 35.55351100000007,92.57961499999999" fill="none" instance-id="13" semantic-id="29" stroke="rgb(12,133,255)" stroke-width="0.1"/>
  <path d="M 35.75351100000012,92.77961499999998 A 0.2,0.2 0.0 0,0 35.55351100000007,92.57961499999999" fill="none" instance-id="13" semantic-id="29" stroke="rgb(12,133,255)" stroke-width="0.1"/>
  <path d="M 35.75351100000012,92.77961499999998 L 35.75351100000012,94.24161499999997" fill="none" instance-id="13" semantic-id="29" stroke="rgb(12,133,255)" stroke-width="0.1"/>
  <path d="M 35.75351100000012,94.24161499999997 L 31.39351099999999,94.24161499999997" fill="none" instance-id="13" semantic-id="29" stroke="rgb(12,133,255)" stroke-width="0.1"/>
  <path d="M 31.39351099999999,94.24161499999997 L 31.39351099999999,92.77961499999998" fill="none" instance-id="13" semantic-id="29" stroke="rgb(12,133,255)" stroke-width="0.1"/>
  <path d="M 31.593511000000035,92.57961499999999 A 0.2,0.2 0.0 0,0 31.39351099999999,92.77961499999998" fill="none" instance-id="13" semantic-id="29" stroke="rgb(12,133,255)" stroke-width="0.1"/>
  <path d="M 18.89351099999999,47.935614999999984 A 0.8,0.8 0.0 0,0 17.503511000000117,47.935614999999984" fill="none" instance-id="6" semantic-id="28" stroke="rgb(12,133,255)" stroke-width="0.1"/>
  <path d="M 18.89351099999999,47.935614999999984 L 19.813511000000062,49.35661499999998" fill="none" instance-id="6" semantic-id="28" stroke="rgb(12,133,255)" stroke-width="0.1"/>
  <path d="M 19.90351099999998,49.62961499999997 A 0.5,0.5 0.0 0,0 19.813511000000062,49.35661499999998" fill="none" instance-id="6" semantic-id="28" stroke="rgb(12,133,255)" stroke-width="0.1"/>
  <path d="M 19.90351099999998,49.62961499999997 L 19.90351099999998,50.24161499999997" fill="none" instance-id="6" semantic-id="28" stroke="rgb(12,133,255)" stroke-width="0.1"/>
  <path d="M 19.90351099999998,50.24161499999997 L 16.503511000000117,50.24161499999997" fill="none" instance-id="6" semantic-id="28" stroke="rgb(12,133,255)" stroke-width="0.1"/>
  <path d="M 16.503511000000117,50.24161499999997 L 16.503511000000117,49.62961499999997" fill="none" instance-id="6" semantic-id="28" stroke="rgb(12,133,255)" stroke-width="0.1"/>
  <path d="M 16.583511000000044,49.35661499999998 A 0.5,0.5 0.0 0,0 16.503511000000117,49.62961499999997" fill="none" instance-id="6" semantic-id="28" stroke="rgb(12,133,255)" stroke-width="0.1"/>
  <path d="M 16.583511000000044,49.35661499999998 L 17.503511000000117,47.935614999999984" fill="none" instance-id="6" semantic-id="28" stroke="rgb(12,133,255)" stroke-width="0.1"/>
  <path d="M 26.39351099999999,47.935614999999984 A 0.8,0.8 0.0 0,0 25.003511000000117,47.935614999999984" fill="none" instance-id="7" semantic-id="28" stroke="rgb(12,133,255)" stroke-width="0.1"/>
  <path d="M 26.39351099999999,47.935614999999984 L 27.313511000000062,49.35661499999998" fill="none" instance-id="7" semantic-id="28" stroke="rgb(12,133,255)" stroke-width="0.1"/>
  <path d="M 27.40351099999998,49.62961499999997 A 0.5,0.5 0.0 0,0 27.313511000000062,49.35661499999998" fill="none" instance-id="7" semantic-id="28" stroke="rgb(12,133,255)" stroke-width="0.1"/>
  <path d="M 27.40351099999998,49.62961499999997 L 27.40351099999998,50.24161499999997" fill="none" instance-id="7" semantic-id="28" stroke="rgb(12,133,255)" stroke-width="0.1"/>
  <path d="M 27.40351099999998,50.24161499999997 L 24.003511000000117,50.24161499999997" fill="none" instance-id="7" semantic-id="28" stroke="rgb(12,133,255)" stroke-width="0.1"/>
  <path d="M 24.003511000000117,50.24161499999997 L 24.003511000000117,49.62961499999997" fill="none" instance-id="7" semantic-id="28" stroke="rgb(12,133,255)" stroke-width="0.1"/>
  <path d="M 24.083511000000044,49.35661499999998 A 0.5,0.5 0.0 0,0 24.003511000000117,49.62961499999997" fill="none" instance-id="7" semantic-id="28" stroke="rgb(12,133,255)" stroke-width="0.1"/>
  <path d="M 24.083511000000044,49.35661499999998 L 25.003511000000117,47.935614999999984" fill="none" instance-id="7" semantic-id="28" stroke="rgb(12,133,255)" stroke-width="0.1"/>
  <path d="M 34.81351100000006,21.913614999999965 A 2.69021,2.69021 0.0 0,0 35.18351100000018,22.67061499999997" fill="none" instance-id="2" semantic-id="29" stroke="rgb(12,133,255)" stroke-width="0.1"/>
  <path d="M 34.39351099999999,25.81161499999999 A 2.89864,2.89864 0.0 0,0 35.18351100000018,22.67061499999997" fill="none" instance-id="2" semantic-id="29" stroke="rgb(12,133,255)" stroke-width="0.1"/>
  <path d="M 34.39351099999999,25.81161499999999 L 33.80351100000007,26.017614999999978" fill="none" instance-id="2" semantic-id="29" stroke="rgb(12,133,255)" stroke-width="0.1"/>
  <path d="M 33.80351100000007,26.017614999999978 L 33.21351100000015,26.019614999999988" fill="none" instance-id="2" semantic-id="29" stroke="rgb(12,133,255)" stroke-width="0.1"/>
  <path d="M 33.21351100000015,26.019614999999988 L 32.75351100000012,25.81161499999999" fill="none" instance-id="2" semantic-id="29" stroke="rgb(12,133,255)" stroke-width="0.1"/>
  <path d="M 31.93351100000018,22.67061499999997 A 2.96518,2.96518 0.0 0,0 32.75351100000012,25.81161499999999" fill="none" instance-id="2" semantic-id="29" stroke="rgb(12,133,255)" stroke-width="0.1"/>
  <path d="M 31.93351100000018,22.67061499999997 A 2.96791,2.96791 0.0 0,0 32.333511000000044,21.913614999999965" fill="none" instance-id="2" semantic-id="29" stroke="rgb(12,133,255)" stroke-width="0.1"/>
  <path d="M 32.493511000000126,22.493614999999977 A 1.85685,1.85685 0.0 0,0 32.133511,24.511614999999978" fill="none" instance-id="2" semantic-id="29" stroke="rgb(12,133,255)" stroke-width="0.1"/>
  <path d="M 32.133511,24.511614999999978 A 4.36842,4.36842 0.0 0,0 32.833511000000044,25.619614999999982" fill="none" instance-id="2" semantic-id="29" stroke="rgb(12,133,255)" stroke-width="0.1"/>
  <path d="M 32.833511000000044,25.619614999999982 L 33.333511000000044,25.763614999999987" fill="none" instance-id="2" semantic-id="29" stroke="rgb(12,133,255)" stroke-width="0.1"/>
  <path d="M 33.333511000000044,25.763614999999987 L 33.70351100000016,25.764614999999964" fill="none" instance-id="2" semantic-id="29" stroke="rgb(12,133,255)" stroke-width="0.1"/>
  <path d="M 33.70351100000016,25.764614999999964 L 34.31351100000006,25.619614999999982" fill="none" instance-id="2" semantic-id="29" stroke="rgb(12,133,255)" stroke-width="0.1"/>
  <path d="M 34.31351100000006,25.619614999999982 A 2.71577,2.71577 0.0 0,0 35.133511,23.461614999999966" fill="none" instance-id="2" semantic-id="29" stroke="rgb(12,133,255)" stroke-width="0.1"/>
  <path d="M 35.133511,23.461614999999966 A 1.42876,1.42876 0.0 0,0 34.64351099999999,22.493614999999977" fill="none" instance-id="2" semantic-id="29" stroke="rgb(12,133,255)" stroke-width="0.1"/>
  <path d="M 34.64351099999999,22.493614999999977 A 1.7036,1.7036 0.0 0,0 32.493511000000126,22.493614999999977" fill="none" instance-id="2" semantic-id="29" stroke="rgb(12,133,255)" stroke-width="0.1"/>
  <path d="M 35.55351100000007,21.903614999999974 L 31.593511000000035,21.903614999999974" fill="none" instance-id="2" semantic-id="29" stroke="rgb(12,133,255)" stroke-width="0.1"/>
  <path d="M 31.39351099999999,21.703614999999985 A 0.2,0.2 0.0 0,0 31.593511000000035,21.903614999999974" fill="none" instance-id="2" semantic-id="29" stroke="rgb(12,133,255)" stroke-width="0.1"/>
  <path d="M 31.39351099999999,21.703614999999985 L 31.39351099999999,20.241614999999967" fill="none" instance-id="2" semantic-id="29" stroke="rgb(12,133,255)" stroke-width="0.1"/>
  <path d="M 31.39351099999999,20.241614999999967 L 35.75351100000012,20.241614999999967" fill="none" instance-id="2" semantic-id="29" stroke="rgb(12,133,255)" stroke-width="0.1"/>
  <path d="M 35.75351100000012,20.241614999999967 L 35.75351100000012,21.703614999999985" fill="none" instance-id="2" semantic-id="29" stroke="rgb(12,133,255)" stroke-width="0.1"/>
  <path d="M 35.55351100000007,21.903614999999974 A 0.2,0.2 0.0 0,0 35.75351100000012,21.703614999999985" fill="none" instance-id="2" semantic-id="29" stroke="rgb(12,133,255)" stroke-width="0.1"/>
  <path d="M 25.813511000000062,21.913614999999965 A 2.69021,2.69021 0.0 0,0 26.18351100000018,22.67061499999997" fill="none" instance-id="1" semantic-id="29" stroke="rgb(12,133,255)" stroke-width="0.1"/>
  <path d="M 25.39351099999999,25.81161499999999 A 2.89864,2.89864 0.0 0,0 26.18351100000018,22.67061499999997" fill="none" instance-id="1" semantic-id="29" stroke="rgb(12,133,255)" stroke-width="0.1"/>
  <path d="M 25.39351099999999,25.81161499999999 L 24.80351100000007,26.017614999999978" fill="none" instance-id="1" semantic-id="29" stroke="rgb(12,133,255)" stroke-width="0.1"/>
  <path d="M 24.80351100000007,26.017614999999978 L 24.213511000000153,26.019614999999988" fill="none" instance-id="1" semantic-id="29" stroke="rgb(12,133,255)" stroke-width="0.1"/>
  <path d="M 24.213511000000153,26.019614999999988 L 23.753511000000117,25.81161499999999" fill="none" instance-id="1" semantic-id="29" stroke="rgb(12,133,255)" stroke-width="0.1"/>
  <path d="M 22.93351100000018,22.67061499999997 A 2.96518,2.96518 0.0 0,0 23.753511000000117,25.81161499999999" fill="none" instance-id="1" semantic-id="29" stroke="rgb(12,133,255)" stroke-width="0.1"/>
  <path d="M 22.93351100000018,22.67061499999997 A 2.96791,2.96791 0.0 0,0 23.333511000000044,21.913614999999965" fill="none" instance-id="1" semantic-id="29" stroke="rgb(12,133,255)" stroke-width="0.1"/>
  <path d="M 23.493511000000126,22.493614999999977 A 1.85685,1.85685 0.0 0,0 23.133511,24.511614999999978" fill="none" instance-id="1" semantic-id="29" stroke="rgb(12,133,255)" stroke-width="0.1"/>
  <path d="M 23.133511,24.511614999999978 A 4.36842,4.36842 0.0 0,0 23.833511000000044,25.619614999999982" fill="none" instance-id="1" semantic-id="29" stroke="rgb(12,133,255)" stroke-width="0.1"/>
  <path d="M 23.833511000000044,25.619614999999982 L 24.333511000000044,25.763614999999987" fill="none" instance-id="1" semantic-id="29" stroke="rgb(12,133,255)" stroke-width="0.1"/>
  <path d="M 24.333511000000044,25.763614999999987 L 24.703511000000162,25.764614999999964" fill="none" instance-id="1" semantic-id="29" stroke="rgb(12,133,255)" stroke-width="0.1"/>
  <path d="M 24.703511000000162,25.764614999999964 L 25.313511000000062,25.619614999999982" fill="none" instance-id="1" semantic-id="29" stroke="rgb(12,133,255)" stroke-width="0.1"/>
  <path d="M 25.313511000000062,25.619614999999982 A 2.71577,2.71577 0.0 0,0 26.133511,23.461614999999966" fill="none" instance-id="1" semantic-id="29" stroke="rgb(12,133,255)" stroke-width="0.1"/>
  <path d="M 26.133511,23.461614999999966 A 1.42876,1.42876 0.0 0,0 25.64351099999999,22.493614999999977" fill="none" instance-id="1" semantic-id="29" stroke="rgb(12,133,255)" stroke-width="0.1"/>
  <path d="M 25.64351099999999,22.493614999999977 A 1.7036,1.7036 0.0 0,0 23.493511000000126,22.493614999999977" fill="none" instance-id="1" semantic-id="29" stroke="rgb(12,133,255)" stroke-width="0.1"/>
  <path d="M 26.55351100000007,21.903614999999974 L 22.593511000000035,21.903614999999974" fill="none" instance-id="1" semantic-id="29" stroke="rgb(12,133,255)" stroke-width="0.1"/>
  <path d="M 22.39351099999999,21.703614999999985 A 0.2,0.2 0.0 0,0 22.593511000000035,21.903614999999974" fill="none" instance-id="1" semantic-id="29" stroke="rgb(12,133,255)" stroke-width="0.1"/>
  <path d="M 22.39351099999999,21.703614999999985 L 22.39351099999999,20.241614999999967" fill="none" instance-id="1" semantic-id="29" stroke="rgb(12,133,255)" stroke-width="0.1"/>
  <path d="M 22.39351099999999,20.241614999999967 L 26.753511000000117,20.241614999999967" fill="none" instance-id="1" semantic-id="29" stroke="rgb(12,133,255)" stroke-width="0.1"/>
  <path d="M 26.753511000000117,20.241614999999967 L 26.753511000000117,21.703614999999985" fill="none" instance-id="1" semantic-id="29" stroke="rgb(12,133,255)" stroke-width="0.1"/>
  <path d="M 26.55351100000007,21.903614999999974 A 0.2,0.2 0.0 0,0 26.753511000000117,21.703614999999985" fill="none" instance-id="1" semantic-id="29" stroke="rgb(12,133,255)" stroke-width="0.1"/>
  <path d="M 33.89351099999999,47.935614999999984 A 0.8,0.8 0.0 0,0 32.50351100000012,47.935614999999984" fill="none" instance-id="8" semantic-id="28" stroke="rgb(12,133,255)" stroke-width="0.1"/>
  <path d="M 33.89351099999999,47.935614999999984 L 34.81351100000006,49.35661499999998" fill="none" instance-id="8" semantic-id="28" stroke="rgb(12,133,255)" stroke-width="0.1"/>
  <path d="M 34.90351099999998,49.62961499999997 A 0.5,0.5 0.0 0,0 34.81351100000006,49.35661499999998" fill="none" instance-id="8" semantic-id="28" stroke="rgb(12,133,255)" stroke-width="0.1"/>
  <path d="M 34.90351099999998,49.62961499999997 L 34.90351099999998,50.24161499999997" fill="none" instance-id="8" semantic-id="28" stroke="rgb(12,133,255)" stroke-width="0.1"/>
  <path d="M 34.90351099999998,50.24161499999997 L 31.503511000000117,50.24161499999997" fill="none" instance-id="8" semantic-id="28" stroke="rgb(12,133,255)" stroke-width="0.1"/>
  <path d="M 31.503511000000117,50.24161499999997 L 31.503511000000117,49.62961499999997" fill="none" instance-id="8" semantic-id="28" stroke="rgb(12,133,255)" stroke-width="0.1"/>
  <path d="M 31.583511000000044,49.35661499999998 A 0.5,0.5 0.0 0,0 31.503511000000117,49.62961499999997" fill="none" instance-id="8" semantic-id="28" stroke="rgb(12,133,255)" stroke-width="0.1"/>
  <path d="M 31.583511000000044,49.35661499999998 L 32.50351100000012,47.935614999999984" fill="none" instance-id="8" semantic-id="28" stroke="rgb(12,133,255)" stroke-width="0.1"/>
  <path d="M 22.203511000000162,46.74161499999997 L 21.953511000000162,46.74161499999997" fill="none" stroke="rgb(12,133,255)" stroke-width="0.1"/>
  <path d="M 21.953511000000162,46.74161499999997 L 21.953511000000162,50.24161499999997" fill="none" stroke="rgb(12,133,255)" stroke-width="0.1"/>
  <path d="M 21.953511000000162,50.24161499999997 L 22.203511000000162,50.24161499999997" fill="none" stroke="rgb(12,133,255)" stroke-width="0.1"/>
  <path d="M 22.203511000000162,50.24161499999997 L 22.203511000000162,46.74161499999997" fill="none" stroke="rgb(12,133,255)" stroke-width="0.1"/>
  <path d="M 29.703511000000162,46.74161499999997 L 29.453511000000162,46.74161499999997" fill="none" stroke="rgb(12,133,255)" stroke-width="0.1"/>
  <path d="M 29.453511000000162,46.74161499999997 L 29.453511000000162,50.24161499999997" fill="none" stroke="rgb(12,133,255)" stroke-width="0.1"/>
  <path d="M 29.453511000000162,50.24161499999997 L 29.703511000000162,50.24161499999997" fill="none" stroke="rgb(12,133,255)" stroke-width="0.1"/>
  <path d="M 29.703511000000162,50.24161499999997 L 29.703511000000162,46.74161499999997" fill="none" stroke="rgb(12,133,255)" stroke-width="0.1"/>
  <path d="M 22.39351099999999,93.60561499999997 L 22.253511000000117,93.60561499999997" fill="none" stroke="rgb(12,133,255)" stroke-width="0.1"/>
  <path d="M 22.253511000000117,93.60561499999997 L 22.253511000000117,93.01761499999998" fill="none" instance-id="12" semantic-id="29" stroke="rgb(12,133,255)" stroke-width="0.1"/>
  <path d="M 22.253511000000117,93.01761499999998 L 22.39351099999999,93.01761499999998" fill="none" stroke="rgb(12,133,255)" stroke-width="0.1"/>
  <path d="M 22.39351099999999,93.01761499999998 L 22.39351099999999,93.60561499999997" fill="none" instance-id="12" semantic-id="29" stroke="rgb(12,133,255)" stroke-width="0.1"/>
  <path d="M 31.39351099999999,93.60561499999997 L 31.253511000000117,93.60561499999997" fill="none" stroke="rgb(12,133,255)" stroke-width="0.1"/>
  <path d="M 31.253511000000117,93.60561499999997 L 31.253511000000117,93.01761499999998" fill="none" instance-id="13" semantic-id="29" stroke="rgb(12,133,255)" stroke-width="0.1"/>
  <path d="M 31.253511000000117,93.01761499999998 L 31.39351099999999,93.01761499999998" fill="none" stroke="rgb(12,133,255)" stroke-width="0.1"/>
  <path d="M 31.39351099999999,93.01761499999998 L 31.39351099999999,93.60561499999997" fill="none" instance-id="13" semantic-id="29" stroke="rgb(12,133,255)" stroke-width="0.1"/>
  <path d="M 35.75351100000012,20.876614999999987 L 35.89351099999999,20.876614999999987" fill="none" stroke="rgb(12,133,255)" stroke-width="0.1"/>
  <path d="M 35.89351099999999,20.876614999999987 L 35.89351099999999,21.46461499999998" fill="none" instance-id="2" semantic-id="29" stroke="rgb(12,133,255)" stroke-width="0.1"/>
  <path d="M 35.89351099999999,21.46461499999998 L 35.75351100000012,21.46461499999998" fill="none" stroke="rgb(12,133,255)" stroke-width="0.1"/>
  <path d="M 35.75351100000012,21.46461499999998 L 35.75351100000012,20.876614999999987" fill="none" instance-id="2" semantic-id="29" stroke="rgb(12,133,255)" stroke-width="0.1"/>
  <path d="M 26.753511000000117,20.876614999999987 L 26.89351099999999,20.876614999999987" fill="none" stroke="rgb(12,133,255)" stroke-width="0.1"/>
  <path d="M 26.89351099999999,20.876614999999987 L 26.89351099999999,21.46461499999998" fill="none" instance-id="1" semantic-id="29" stroke="rgb(12,133,255)" stroke-width="0.1"/>
  <path d="M 26.89351099999999,21.46461499999998 L 26.753511000000117,21.46461499999998" fill="none" stroke="rgb(12,133,255)" stroke-width="0.1"/>
  <path d="M 26.753511000000117,21.46461499999998 L 26.753511000000117,20.876614999999987" fill="none" instance-id="1" semantic-id="29" stroke="rgb(12,133,255)" stroke-width="0.1"/>
  <circle cx="6.193511000000171" cy="91.19561499999998" fill="none" instance-id="11" r="0.25" semantic-id="23" stroke="rgb(12,133,255)" stroke-width="0.1"/>
  <circle cx="6.193511000000171" cy="91.19561499999998" fill="none" instance-id="11" r="0.2" semantic-id="23" stroke="rgb(12,133,255)" stroke-width="0.1"/>
  <circle cx="13.693511000000171" cy="25.286614999999983" fill="none" instance-id="5" r="0.25" semantic-id="23" stroke="rgb(12,133,255)" stroke-width="0.1"/>
  <circle cx="13.693511000000171" cy="25.286614999999983" fill="none" instance-id="5" r="0.2" semantic-id="23" stroke="rgb(12,133,255)" stroke-width="0.1"/>
  <circle cx="18.203511000000162" cy="49.86161499999997" fill="none" instance-id="6" r="0.176663" semantic-id="28" stroke="rgb(12,133,255)" stroke-width="0.1"/>
  <circle cx="18.19351100000017" cy="48.471614999999986" fill="none" instance-id="6" r="0.2" semantic-id="28" stroke="rgb(12,133,255)" stroke-width="0.1"/>
  <circle cx="25.703511000000162" cy="49.86161499999997" fill="none" instance-id="7" r="0.176663" semantic-id="28" stroke="rgb(12,133,255)" stroke-width="0.1"/>
  <circle cx="25.69351100000017" cy="48.471614999999986" fill="none" instance-id="7" r="0.2" semantic-id="28" stroke="rgb(12,133,255)" stroke-width="0.1"/>
  <circle cx="33.20351100000016" cy="49.86161499999997" fill="none" instance-id="8" r="0.176663" semantic-id="28" stroke="rgb(12,133,255)" stroke-width="0.1"/>
  <circle cx="33.19351100000017" cy="48.471614999999986" fill="none" instance-id="8" r="0.2" semantic-id="28" stroke="rgb(12,133,255)" stroke-width="0.1"/>
 </g>
 <g id="layerPUB_DIM" inkscape:groupmode="layer" inkscape:label="PUB_DIM">
  <path d="M 10.193511000000171,18.241614999999967 L 22.593511000000035,18.241614999999967" fill="none" stroke="rgb(0,178,0)" stroke-width="0.1"/>
  <path d="M 10.193511000000171,5.2416149999999675 L 22.593511000000035,5.2416149999999675" fill="none" stroke="rgb(0,178,0)" stroke-width="0.1"/>
  <path d="M 17.593511000000035,18.241614999999967 L 17.593511000000035,5.2416149999999675" fill="none" stroke="rgb(0,178,0)" stroke-width="0.1"/>
  <path d="M 10.193511000000171,20.241614999999967 L 22.593511000000035,20.241614999999967" fill="none" stroke="rgb(0,178,0)" stroke-width="0.1"/>
  <path d="M 10.193511000000171,18.241614999999967 L 22.593511000000035,18.241614999999967" fill="none" stroke="rgb(0,178,0)" stroke-width="0.1"/>
  <path d="M 17.593511000000035,20.241614999999967 L 17.593511000000035,22.241614999999967" fill="none" stroke="rgb(0,178,0)" stroke-width="0.1"/>
  <path d="M 17.593511000000035,18.241614999999967 L 17.593511000000035,16.241614999999967" fill="none" stroke="rgb(0,178,0)" stroke-width="0.1"/>
  <path d="M 17.593511000000035,20.241614999999967 L 17.593511000000035,18.241614999999967" fill="none" stroke="rgb(0,178,0)" stroke-width="0.1"/>
  <path d="M 10.193511000000171,24.241614999999967 L 22.593511000000035,24.241614999999967" fill="none" stroke="rgb(0,178,0)" stroke-width="0.1"/>
  <path d="M 10.193511000000171,20.241614999999967 L 22.593511000000035,20.241614999999967" fill="none" stroke="rgb(0,178,0)" stroke-width="0.1"/>
  <path d="M 17.593511000000035,24.241614999999967 L 17.593511000000035,26.241614999999967" fill="none" stroke="rgb(0,178,0)" stroke-width="0.1"/>
  <path d="M 17.593511000000035,20.241614999999967 L 17.593511000000035,18.241614999999967" fill="none" stroke="rgb(0,178,0)" stroke-width="0.1"/>
  <path d="M 17.593511000000035,24.241614999999967 L 17.593511000000035,20.241614999999967" fill="none" stroke="rgb(0,178,0)" stroke-width="0.1"/>
  <path d="M 97.82351100000005,89.24161499999997 L 84.09351100000003,89.24161499999997" fill="none" stroke="rgb(0,178,0)" stroke-width="0.1"/>
  <path d="M 97.82351100000005,87.24161499999997 L 84.09351100000003,87.24161499999997" fill="none" stroke="rgb(0,178,0)" stroke-width="0.1"/>
  <path d="M 89.09351100000003,89.24161499999997 L 89.09351100000003,91.24161499999997" fill="none" stroke="rgb(0,178,0)" stroke-width="0.1"/>
  <path d="M 89.09351100000003,87.24161499999997 L 89.09351100000003,85.24161499999997" fill="none" stroke="rgb(0,178,0)" stroke-width="0.1"/>
  <path d="M 89.09351100000003,89.24161499999997 L 89.09351100000003,87.24161499999997" fill="none" stroke="rgb(0,178,0)" stroke-width="0.1"/>
  <path d="M 97.82351100000005,96.24161499999997 L 84.09351100000003,96.24161499999997" fill="none" stroke="rgb(0,178,0)" stroke-width="0.1"/>
  <path d="M 97.82351100000005,89.24161499999997 L 84.09351100000003,89.24161499999997" fill="none" stroke="rgb(0,178,0)" stroke-width="0.1"/>
  <path d="M 89.09351100000003,96.24161499999997 L 89.09351100000003,98.24161499999997" fill="none" stroke="rgb(0,178,0)" stroke-width="0.1"/>
  <path d="M 89.09351100000003,89.24161499999997 L 89.09351100000003,87.24161499999997" fill="none" stroke="rgb(0,178,0)" stroke-width="0.1"/>
  <path d="M 89.09351100000003,96.24161499999997 L 89.09351100000003,89.24161499999997" fill="none" stroke="rgb(0,178,0)" stroke-width="0.1"/>
  <path d="M 97.82351100000005,96.24161499999997 L 84.09351100000003,96.24161499999997" fill="none" stroke="rgb(0,178,0)" stroke-width="0.1"/>
  <path d="M 89.09351100000003,100.0 L 89.09351100000003,96.24161499999997" fill="none" stroke="rgb(0,178,0)" stroke-width="0.1"/>
  <path d="M 40.19351100000017,73.02861499999997 L 40.19351100000017,63.42261499999998" fill="none" stroke="rgb(0,178,0)" stroke-width="0.1"/>
  <path d="M 43.19351100000017,73.02861499999997 L 43.19351100000017,63.42261499999998" fill="none" stroke="rgb(0,178,0)" stroke-width="0.1"/>
  <path d="M 40.19351100000017,68.42261499999998 L 38.19351100000017,68.42261499999998" fill="none" stroke="rgb(0,178,0)" stroke-width="0.1"/>
  <path d="M 43.19351100000017,68.42261499999998 L 45.19351100000017,68.42261499999998" fill="none" stroke="rgb(0,178,0)" stroke-width="0.1"/>
  <path d="M 40.19351100000017,68.42261499999998 L 43.19351100000017,68.42261499999998" fill="none" stroke="rgb(0,178,0)" stroke-width="0.1"/>
  <path d="M 43.19351100000017,73.02861499999997 L 43.19351100000017,63.42261499999998" fill="none" stroke="rgb(0,178,0)" stroke-width="0.1"/>
  <path d="M 58.19351100000017,73.02861499999997 L 58.19351100000017,63.42261499999998" fill="none" stroke="rgb(0,178,0)" stroke-width="0.1"/>
  <path d="M 43.19351100000017,68.42261499999998 L 58.19351100000017,68.42261499999998" fill="none" stroke="rgb(0,178,0)" stroke-width="0.1"/>
  <path d="M 58.19351100000017,73.02861499999997 L 58.19351100000017,63.42261499999998" fill="none" stroke="rgb(0,178,0)" stroke-width="0.1"/>
  <path d="M 60.19351100000017,73.02861499999997 L 60.19351100000017,63.42261499999998" fill="none" stroke="rgb(0,178,0)" stroke-width="0.1"/>
  <path d="M 58.19351100000017,68.42261499999998 L 56.19351100000017,68.42261499999998" fill="none" stroke="rgb(0,178,0)" stroke-width="0.1"/>
  <path d="M 60.19351100000017,68.42261499999998 L 62.19351100000017,68.42261499999998" fill="none" stroke="rgb(0,178,0)" stroke-width="0.1"/>
  <path d="M 58.19351100000017,68.42261499999998 L 60.19351100000017,68.42261499999998" fill="none" stroke="rgb(0,178,0)" stroke-width="0.1"/>
  <path d="M 60.19351100000017,73.02861499999997 L 60.19351100000017,63.42261499999998" fill="none" stroke="rgb(0,178,0)" stroke-width="0.1"/>
  <path d="M 62.19351100000017,73.02861499999997 L 62.19351100000017,63.42261499999998" fill="none" stroke="rgb(0,178,0)" stroke-width="0.1"/>
  <path d="M 60.19351100000017,68.42261499999998 L 58.19351100000017,68.42261499999998" fill="none" stroke="rgb(0,178,0)" stroke-width="0.1"/>
  <path d="M 62.19351100000017,68.42261499999998 L 64.19351100000017,68.42261499999998" fill="none" stroke="rgb(0,178,0)" stroke-width="0.1"/>
  <path d="M 60.19351100000017,68.42261499999998 L 62.19351100000017,68.42261499999998" fill="none" stroke="rgb(0,178,0)" stroke-width="0.1"/>
  <path d="M 62.19351100000017,73.02861499999997 L 62.19351100000017,63.42261499999998" fill="none" stroke="rgb(0,178,0)" stroke-width="0.1"/>
  <path d="M 93.19351100000017,73.02861499999997 L 93.19351100000017,63.42261499999998" fill="none" stroke="rgb(0,178,0)" stroke-width="0.1"/>
  <path d="M 62.19351100000017,68.42261499999998 L 93.19351100000017,68.42261499999998" fill="none" stroke="rgb(0,178,0)" stroke-width="0.1"/>
  <text fill="rgb(0,178,0)" font-family="Noto Sans CJK SC" font-size="2" transform="rotate(-90.0,15.073511000000053,4.541614999999979)" x="15.073511000000053" y="4.541614999999979">
   1300
  </text>
  <text fill="rgb(0,178,0)" font-family="Noto Sans CJK SC" font-size="2" transform="rotate(-90.0,15.593511000000035,25.241614999999967)" x="15.593511000000035" y="25.241614999999967">
   200
  </text>
  <text fill="rgb(0,178,0)" font-family="Noto Sans CJK SC" font-size="2" transform="rotate(-90.0,15.073511000000053,37.64161499999997)" x="15.073511000000053" y="37.64161499999997">
   400
  </text>
  <text fill="rgb(0,178,0)" font-family="Noto Sans CJK SC" font-size="2" transform="rotate(-90.0,86.57351100000005,85.84161499999999)" x="86.57351100000005" y="85.84161499999999">
   200
  </text>
  <text fill="rgb(0,178,0)" font-family="Noto Sans CJK SC" font-size="2" transform="rotate(-90.0,87.09351100000003,98.74161499999997)" x="87.09351100000003" y="98.74161499999997">
   700
  </text>
  <text fill="rgb(0,178,0)" font-family="Noto Sans CJK SC" font-size="2" transform="rotate(-0.0,37.65351099999998,76.86061499999997)" x="37.65351099999998" y="76.86061499999997">
   300
  </text>
  <text fill="rgb(0,178,0)" font-family="Noto Sans CJK SC" font-size="2" transform="rotate(-0.0,45.89351099999999,65.89761499999997)" x="45.89351099999999" y="65.89761499999997">
   1500
  </text>
  <text fill="rgb(0,178,0)" font-family="Noto Sans CJK SC" font-size="2" transform="rotate(-0.0,53.19351100000017,76.89761499999997)" x="53.19351100000017" y="76.89761499999997">
   200
  </text>
  <text fill="rgb(0,178,0)" font-family="Noto Sans CJK SC" font-size="2" transform="rotate(-0.0,58.96351100000015,58.89761499999997)" x="58.96351100000015" y="58.89761499999997">
   200
  </text>
  <text fill="rgb(0,178,0)" font-family="Noto Sans CJK SC" font-size="2" transform="rotate(-0.0,69.69351100000017,66.42261499999998)" x="69.69351100000017" y="66.42261499999998">
   3100
  </text>
 </g>
 <g id="layerPUB_TEXT" inkscape:groupmode="layer" inkscape:label="PUB_TEXT">
  <text fill="rgb(0,0,0)" font-family="Noto Sans CJK SC" font-size="2" transform="rotate(-0.0,64.5235110000001,36.157614999999964)" x="64.5235110000001" y="36.157614999999964">
   卫生间大样详
  </text>
  <text fill="rgb(0,0,0)" font-family="Noto Sans CJK SC" font-size="2" transform="rotate(-0.0,24.14351099999999,76.92361499999998)" x="24.14351099999999" y="76.92361499999998">
   女卫
  </text>
  <text fill="rgb(0,0,0)" font-family="Noto Sans CJK SC" font-size="2" transform="rotate(-0.0,16.493511000000126,63.159614999999974)" x="16.493511000000126" y="63.159614999999974">
   清洁间
  </text>
  <text fill="rgb(0,0,0)" font-family="Noto Sans CJK SC" font-size="2" transform="rotate(-0.0,30.603511000000026,63.159614999999974)" x="30.603511000000026" y="63.159614999999974">
   冷媒
  </text>
  <text fill="rgb(0,0,0)" font-family="Noto Sans CJK SC" font-size="2" transform="rotate(-0.0,19.503511000000117,43.330614999999966)" x="19.503511000000117" y="43.330614999999966">
   男卫
  </text>
 </g>
 <g id="layerTK_LABEL" inkscape:groupmode="layer" inkscape:label="TK_LABEL">
  <path d="M 51.19351100000017,5.2416149999999675 L 51.19351100000017,7.2416149999999675" fill="none" stroke="rgb(178,178,0)" stroke-width="0.1"/>
  <path d="M 63.19351100000017,5.2416149999999675 L 63.19351100000017,7.2416149999999675" fill="none" stroke="rgb(178,178,0)" stroke-width="0.1"/>
  <path d="M 75.19351100000017,5.2416149999999675 L 75.19351100000017,7.2416149999999675" fill="none" stroke="rgb(178,178,0)" stroke-width="0.1"/>
  <path d="M 87.19351100000017,5.2416149999999675 L 87.19351100000017,7.2416149999999675" fill="none" stroke="rgb(178,178,0)" stroke-width="0.1"/>
  <path d="M 99.19351100000017,5.2416149999999675 L 99.19351100000017,7.2416149999999675" fill="none" stroke="rgb(178,178,0)" stroke-width="0.1"/>
 </g>
 <g id="layerWALL" inkscape:groupmode="layer" inkscape:label="WALL">
  <path d="M 38.19351100000017,94.24161499999997 L 38.19351100000017,89.24161499999997" fill="none" instance-id="-1" semantic-id="1" stroke="rgb(178,178,0)" stroke-width="0.1"/>
  <path d="M 40.19351100000017,96.24161499999997 L 40.19351100000017,89.24161499999997" fill="none" instance-id="-1" semantic-id="1" stroke="rgb(178,178,0)" stroke-width="0.1"/>
  <path d="M 100.0,96.24161499999997 L 60.19351100000017,96.24161499999997" fill="none" instance-id="-1" semantic-id="1" stroke="rgb(178,178,0)" stroke-width="0.1"/>
  <path d="M 100.0,94.24161499999997 L 62.19351100000017,94.24161499999997" fill="none" instance-id="-1" semantic-id="1" stroke="rgb(178,178,0)" stroke-width="0.1"/>
  <path d="M 14.693511000000171,50.24161499999997 L 10.203511000000162,50.24161499999997" fill="none" instance-id="-1" semantic-id="1" stroke="rgb(178,178,0)" stroke-width="0.1"/>
  <path d="M 10.203511000000162,50.24161499999997 L 10.203511000000162,52.24161499999997" fill="none" instance-id="-1" semantic-id="1" stroke="rgb(178,178,0)" stroke-width="0.1"/>
  <path d="M 10.203511000000162,52.24161499999997 L 13.693511000000171,52.24161499999997" fill="none" instance-id="-1" semantic-id="1" stroke="rgb(178,178,0)" stroke-width="0.1"/>
  <path d="M 0.0,52.24161499999997 L 1.2035110000001623,52.24161499999997" fill="none" instance-id="-1" semantic-id="1" stroke="rgb(178,178,0)" stroke-width="0.1"/>
  <path d="M 1.2035110000001623,52.24161499999997 L 1.2035110000001623,50.24161499999997" fill="none" instance-id="-1" semantic-id="1" stroke="rgb(178,178,0)" stroke-width="0.1"/>
  <path d="M 1.2035110000001623,50.24161499999997 L 0.0,50.24161499999997" fill="none" instance-id="-1" semantic-id="1" stroke="rgb(178,178,0)" stroke-width="0.1"/>
  <path d="M 9.193511000000171,96.24161499999997 L 9.193511000000171,99.24161499999997" fill="none" instance-id="-1" semantic-id="1" stroke="rgb(178,178,0)" stroke-width="0.1"/>
  <path d="M 9.193511000000171,99.24161499999997 L 11.193511000000171,99.24161499999997" fill="none" instance-id="-1" semantic-id="1" stroke="rgb(178,178,0)" stroke-width="0.1"/>
  <path d="M 11.193511000000171,99.24161499999997 L 11.193511000000171,96.24161499999997" fill="none" instance-id="-1" semantic-id="1" stroke="rgb(178,178,0)" stroke-width="0.1"/>
  <path d="M 19.94351100000017,82.24161499999997 L 19.94351100000017,94.24161499999997" fill="none" instance-id="-1" semantic-id="1" stroke="rgb(178,178,0)" stroke-width="0.1"/>
  <path d="M 18.94351100000017,82.24161499999997 L 18.94351100000017,94.24161499999997" fill="none" instance-id="-1" semantic-id="1" stroke="rgb(178,178,0)" stroke-width="0.1"/>
  <path d="M 19.94351100000017,82.24161499999997 L 18.94351100000017,82.24161499999997" fill="none" instance-id="-1" semantic-id="1" stroke="rgb(178,178,0)" stroke-width="0.1"/>
  <path d="M 40.19351100000017,96.24161499999997 L 18.94351100000017,96.24161499999997" fill="none" instance-id="-1" semantic-id="1" stroke="rgb(178,178,0)" stroke-width="0.1"/>
  <path d="M 38.19351100000017,94.24161499999997 L 19.94351100000017,94.24161499999997" fill="none" instance-id="-1" semantic-id="1" stroke="rgb(178,178,0)" stroke-width="0.1"/>
  <path d="M 38.19351100000017,69.24161499999997 L 31.19351100000017,69.24161499999997" fill="none" instance-id="-1" semantic-id="1" stroke="rgb(178,178,0)" stroke-width="0.1"/>
  <path d="M 38.19351100000017,67.24161499999997 L 32.19351100000017,67.24161499999997" fill="none" instance-id="-1" semantic-id="1" stroke="rgb(178,178,0)" stroke-width="0.1"/>
  <path d="M 38.19351100000017,52.24161499999997 L 32.19351100000017,52.24161499999997" fill="none" instance-id="-1" semantic-id="1" stroke="rgb(178,178,0)" stroke-width="0.1"/>
  <path d="M 38.19351100000017,50.24161499999997 L 31.19351100000017,50.24161499999997" fill="none" instance-id="-1" semantic-id="1" stroke="rgb(178,178,0)" stroke-width="0.1"/>
  <path d="M 15.693511000000171,67.24161499999997 L 15.693511000000171,63.24161499999997" fill="none" instance-id="-1" semantic-id="1" stroke="rgb(178,178,0)" stroke-width="0.1"/>
  <path d="M 15.693511000000171,63.24161499999997 L 13.693511000000171,63.24161499999997" fill="none" instance-id="-1" semantic-id="1" stroke="rgb(178,178,0)" stroke-width="0.1"/>
  <path d="M 13.693511000000171,63.24161499999997 L 13.693511000000171,67.24161499999997" fill="none" instance-id="-1" semantic-id="1" stroke="rgb(178,178,0)" stroke-width="0.1"/>
  <path d="M 13.693511000000171,52.24161499999997 L 13.693511000000171,54.24161499999997" fill="none" instance-id="-1" semantic-id="1" stroke="rgb(178,178,0)" stroke-width="0.1"/>
  <path d="M 13.693511000000171,54.24161499999997 L 15.693511000000171,54.24161499999997" fill="none" instance-id="-1" semantic-id="1" stroke="rgb(178,178,0)" stroke-width="0.1"/>
  <path d="M 15.693511000000171,54.24161499999997 L 15.693511000000171,52.24161499999997" fill="none" instance-id="-1" semantic-id="1" stroke="rgb(178,178,0)" stroke-width="0.1"/>
  <path d="M 30.19351100000017,67.24161499999997 L 30.19351100000017,52.24161499999997" fill="none" instance-id="-1" semantic-id="1" stroke="rgb(178,178,0)" stroke-width="0.1"/>
  <path d="M 32.19351100000017,67.24161499999997 L 32.19351100000017,52.24161499999997" fill="none" instance-id="-1" semantic-id="1" stroke="rgb(178,178,0)" stroke-width="0.1"/>
  <path d="M 31.19351100000017,69.24161499999997 L 14.693511000000171,69.24161499999997" fill="none" instance-id="-1" semantic-id="1" stroke="rgb(178,178,0)" stroke-width="0.1"/>
  <path d="M 30.19351100000017,67.24161499999997 L 15.693511000000171,67.24161499999997" fill="none" instance-id="-1" semantic-id="1" stroke="rgb(178,178,0)" stroke-width="0.1"/>
  <path d="M 30.19351100000017,52.24161499999997 L 15.693511000000171,52.24161499999997" fill="none" instance-id="-1" semantic-id="1" stroke="rgb(178,178,0)" stroke-width="0.1"/>
  <path d="M 31.19351100000017,50.24161499999997 L 14.693511000000171,50.24161499999997" fill="none" instance-id="-1" semantic-id="1" stroke="rgb(178,178,0)" stroke-width="0.1"/>
  <path d="M 13.693511000000171,67.24161499999997 L 10.203511000000162,67.24161499999997" fill="none" instance-id="-1" semantic-id="1" stroke="rgb(178,178,0)" stroke-width="0.1"/>
  <path d="M 10.203511000000162,67.24161499999997 L 10.203511000000162,69.24161499999997" fill="none" instance-id="-1" semantic-id="1" stroke="rgb(178,178,0)" stroke-width="0.1"/>
  <path d="M 10.203511000000162,69.24161499999997 L 14.693511000000171,69.24161499999997" fill="none" instance-id="-1" semantic-id="1" stroke="rgb(178,178,0)" stroke-width="0.1"/>
  <path d="M 0.0,69.24161499999997 L 1.2035110000001623,69.24161499999997" fill="none" instance-id="-1" semantic-id="1" stroke="rgb(178,178,0)" stroke-width="0.1"/>
  <path d="M 1.2035110000001623,69.24161499999997 L 1.2035110000001623,67.24161499999997" fill="none" instance-id="-1" semantic-id="1" stroke="rgb(178,178,0)" stroke-width="0.1"/>
  <path d="M 1.2035110000001623,67.24161499999997 L 0.0,67.24161499999997" fill="none" instance-id="-1" semantic-id="1" stroke="rgb(178,178,0)" stroke-width="0.1"/>
  <path d="M 18.94351100000017,96.24161499999997 L 11.193511000000171,96.24161499999997" fill="none" instance-id="-1" semantic-id="1" stroke="rgb(178,178,0)" stroke-width="0.1"/>
  <path d="M 18.94351100000017,94.24161499999997 L 10.193511000000171,94.24161499999997" fill="none" instance-id="-1" semantic-id="1" stroke="rgb(178,178,0)" stroke-width="0.1"/>
  <path d="M 40.19351100000017,68.24161499999997 L 40.19351100000017,61.24161499999997" fill="none" instance-id="-1" semantic-id="1" stroke="rgb(178,178,0)" stroke-width="0.1"/>
  <path d="M 40.19351100000017,61.24161499999997 L 38.19351100000017,61.24161499999997" fill="none" instance-id="-1" semantic-id="1" stroke="rgb(178,178,0)" stroke-width="0.1"/>
  <path d="M 38.19351100000017,61.24161499999997 L 38.19351100000017,67.24161499999997" fill="none" instance-id="-1" semantic-id="1" stroke="rgb(178,178,0)" stroke-width="0.1"/>
  <path d="M 38.19351100000017,52.24161499999997 L 38.19351100000017,53.24161499999997" fill="none" instance-id="-1" semantic-id="1" stroke="rgb(178,178,0)" stroke-width="0.1"/>
  <path d="M 38.19351100000017,53.24161499999997 L 40.19351100000017,53.24161499999997" fill="none" instance-id="-1" semantic-id="1" stroke="rgb(178,178,0)" stroke-width="0.1"/>
  <path d="M 40.19351100000017,53.24161499999997 L 40.19351100000017,51.24161499999997" fill="none" instance-id="-1" semantic-id="1" stroke="rgb(178,178,0)" stroke-width="0.1"/>
  <path d="M 38.19351100000017,50.24161499999997 L 38.19351100000017,20.241614999999967" fill="none" instance-id="-1" semantic-id="1" stroke="rgb(178,178,0)" stroke-width="0.1"/>
  <path d="M 40.19351100000017,51.24161499999997 L 40.19351100000017,20.241614999999967" fill="none" instance-id="-1" semantic-id="1" stroke="rgb(178,178,0)" stroke-width="0.1"/>
  <path d="M 38.19351100000017,20.241614999999967 L 40.19351100000017,20.241614999999967" fill="none" instance-id="-1" semantic-id="1" stroke="rgb(178,178,0)" stroke-width="0.1"/>
  <path d="M 60.19351100000017,96.24161499999997 L 60.19351100000017,89.24161499999997" fill="none" instance-id="-1" semantic-id="1" stroke="rgb(178,178,0)" stroke-width="0.1"/>
  <path d="M 62.19351100000017,94.24161499999997 L 62.19351100000017,87.24161499999997" fill="none" instance-id="-1" semantic-id="1" stroke="rgb(178,178,0)" stroke-width="0.1"/>
  <path d="M 62.19351100000017,87.24161499999997 L 58.19351100000017,87.24161499999997" fill="none" instance-id="-1" semantic-id="1" stroke="rgb(178,178,0)" stroke-width="0.1"/>
  <path d="M 58.19351100000017,87.24161499999997 L 58.19351100000017,89.24161499999997" fill="none" instance-id="-1" semantic-id="1" stroke="rgb(178,178,0)" stroke-width="0.1"/>
  <path d="M 58.19351100000017,89.24161499999997 L 60.19351100000017,89.24161499999997" fill="none" instance-id="-1" semantic-id="1" stroke="rgb(178,178,0)" stroke-width="0.1"/>
  <path d="M 40.19351100000017,89.24161499999997 L 43.19351100000017,89.24161499999997" fill="none" instance-id="-1" semantic-id="1" stroke="rgb(178,178,0)" stroke-width="0.1"/>
  <path d="M 43.19351100000017,89.24161499999997 L 43.19351100000017,87.24161499999997" fill="none" instance-id="-1" semantic-id="1" stroke="rgb(178,178,0)" stroke-width="0.1"/>
  <path d="M 43.19351100000017,87.24161499999997 L 40.19351100000017,87.24161499999997" fill="none" instance-id="-1" semantic-id="1" stroke="rgb(178,178,0)" stroke-width="0.1"/>
  <path d="M 38.19351100000017,89.24161499999997 L 38.19351100000017,69.24161499999997" fill="none" instance-id="-1" semantic-id="1" stroke="rgb(178,178,0)" stroke-width="0.1"/>
  <path d="M 40.19351100000017,87.24161499999997 L 40.19351100000017,68.24161499999997" fill="none" instance-id="-1" semantic-id="1" stroke="rgb(178,178,0)" stroke-width="0.1"/>
  <path d="M 9.193511000000171,96.24161499999997 L 0.0,96.24161499999997" fill="none" instance-id="-1" semantic-id="1" stroke="rgb(178,178,0)" stroke-width="0.1"/>
  <path d="M 10.193511000000171,94.24161499999997 L 0.0,94.24161499999997" fill="none" instance-id="-1" semantic-id="1" stroke="rgb(178,178,0)" stroke-width="0.1"/>
 </g>
 <g id="layerWINDOW" inkscape:groupmode="layer" inkscape:label="WINDOW">
  <path d="M 10.203511000000162,50.24161499999997 L 1.2035110000001623,50.24161499999997" fill="none" instance-id="16" semantic-id="3" stroke="rgb(0,178,178)" stroke-width="0.1"/>
  <path d="M 15.693511000000171,63.24161499999997 L 15.693511000000171,54.24161499999997" fill="none" instance-id="19" semantic-id="3" stroke="rgb(0,178,178)" stroke-width="0.1"/>
  <path d="M 10.203511000000162,69.24161499999997 L 1.2035110000001623,69.24161499999997" fill="none" instance-id="17" semantic-id="3" stroke="rgb(0,178,178)" stroke-width="0.1"/>
  <path d="M 40.19351100000017,61.24161499999997 L 40.19351100000017,53.24161499999997" fill="none" instance-id="14" semantic-id="3" stroke="rgb(0,178,178)" stroke-width="0.1"/>
  <path d="M 38.19351100000017,61.24161499999997 L 38.19351100000017,53.24161499999997" fill="none" instance-id="14" semantic-id="3" stroke="rgb(0,178,178)" stroke-width="0.1"/>
  <path d="M 1.6535109999999804,42.46661499999999 L 1.2035110000001623,42.46661499999999" fill="none" instance-id="16" semantic-id="3" stroke="rgb(0,178,178)" stroke-width="0.1"/>
  <path d="M 1.2035110000001623,51.24161499999997 L 1.6535109999999804,51.24161499999997" fill="none" instance-id="16" semantic-id="3" stroke="rgb(0,178,178)" stroke-width="0.1"/>
  <path d="M 1.2035110000001623,51.24161499999997 L 1.2035110000001623,42.46661499999999" fill="none" instance-id="16" semantic-id="3" stroke="rgb(0,178,178)" stroke-width="0.1"/>
  <path d="M 1.6535109999999804,51.24161499999997 L 1.6535109999999804,42.46661499999999" fill="none" instance-id="16" semantic-id="3" stroke="rgb(0,178,178)" stroke-width="0.1"/>
  <path d="M 23.473511000000144,54.691614999999985 L 23.473511000000144,54.24161499999997" fill="none" instance-id="19" semantic-id="3" stroke="rgb(0,178,178)" stroke-width="0.1"/>
  <path d="M 14.693511000000171,54.24161499999997 L 14.693511000000171,54.691614999999985" fill="none" instance-id="19" semantic-id="3" stroke="rgb(0,178,178)" stroke-width="0.1"/>
  <path d="M 14.693511000000171,54.24161499999997 L 23.473511000000144,54.24161499999997" fill="none" instance-id="19" semantic-id="3" stroke="rgb(0,178,178)" stroke-width="0.1"/>
  <path d="M 14.693511000000171,54.691614999999985 L 23.473511000000144,54.691614999999985" fill="none" instance-id="19" semantic-id="3" stroke="rgb(0,178,178)" stroke-width="0.1"/>
  <path d="M 1.6535109999999804,77.01661499999997 L 1.2035110000001623,77.01661499999997" fill="none" instance-id="17" semantic-id="3" stroke="rgb(0,178,178)" stroke-width="0.1"/>
  <path d="M 1.2035110000001623,68.24161499999997 L 1.6535109999999804,68.24161499999997" fill="none" instance-id="17" semantic-id="3" stroke="rgb(0,178,178)" stroke-width="0.1"/>
  <path d="M 1.2035110000001623,68.24161499999997 L 1.2035110000001623,77.01661499999997" fill="none" instance-id="17" semantic-id="3" stroke="rgb(0,178,178)" stroke-width="0.1"/>
  <path d="M 1.6535109999999804,68.24161499999997 L 1.6535109999999804,77.01661499999997" fill="none" instance-id="17" semantic-id="3" stroke="rgb(0,178,178)" stroke-width="0.1"/>
  <path d="M 43.19351100000017,88.24161499999997 L 43.19351100000017,95.55361499999998" fill="none" instance-id="15" semantic-id="4" stroke="rgb(0,178,178)" stroke-width="0.1"/>
  <path d="M 43.57351100000005,88.24161499999997 L 43.57351100000005,95.55361499999998" fill="none" instance-id="15" semantic-id="4" stroke="rgb(0,178,178)" stroke-width="0.1"/>
  <path d="M 43.19351100000017,88.24161499999997 L 43.57351100000005,88.24161499999997" fill="none" instance-id="15" semantic-id="4" stroke="rgb(0,178,178)" stroke-width="0.1"/>
  <path d="M 43.57351100000005,95.55361499999998 L 43.19351100000017,95.55361499999998" fill="none" instance-id="15" semantic-id="4" stroke="rgb(0,178,178)" stroke-width="0.1"/>
  <path d="M 57.82351100000005,88.24161499999997 L 57.82351100000005,95.55361499999998" fill="none" instance-id="15" semantic-id="4" stroke="rgb(0,178,178)" stroke-width="0.1"/>
  <path d="M 58.19351100000017,88.24161499999997 L 58.19351100000017,95.55361499999998" fill="none" instance-id="15" semantic-id="4" stroke="rgb(0,178,178)" stroke-width="0.1"/>
  <path d="M 57.82351100000005,95.55361499999998 L 58.19351100000017,95.55361499999998" fill="none" instance-id="15" semantic-id="4" stroke="rgb(0,178,178)" stroke-width="0.1"/>
  <path d="M 58.19351100000017,88.24161499999997 L 57.82351100000005,88.24161499999997" fill="none" instance-id="15" semantic-id="4" stroke="rgb(0,178,178)" stroke-width="0.1"/>
  <path d="M 39.19351100000017,53.24161499999997 L 46.12351100000001,57.24161499999997" fill="none" instance-id="14" semantic-id="3" stroke="rgb(0,178,178)" stroke-width="0.1"/>
  <path d="M 10.193511000000171,99.24161499999997 L 2.8835109999999986,99.24161499999997" fill="none" stroke="rgb(0,178,178)" stroke-width="0.1"/>
  <path d="M 10.193511000000171,99.61661499999997 L 2.8835109999999986,99.61661499999997" fill="none" stroke="rgb(0,178,178)" stroke-width="0.1"/>
  <path d="M 10.193511000000171,99.24161499999997 L 10.193511000000171,99.61661499999997" fill="none" stroke="rgb(0,178,178)" stroke-width="0.1"/>
  <path d="M 2.8835109999999986,99.61661499999997 L 2.8835109999999986,99.24161499999997" fill="none" stroke="rgb(0,178,178)" stroke-width="0.1"/>
  <path d="M 10.203511000000162,51.24161499999997 A 8.775,8.775 0.0 0,0 1.6535109999999804,42.46861499999997" fill="none" instance-id="16" semantic-id="3" stroke="rgb(0,178,178)" stroke-width="0.1"/>
  <path d="M 14.693511000000171,63.24161499999997 A 8.775,8.775 0.0 0,0 23.473511000000144,54.691614999999985" fill="none" instance-id="19" semantic-id="3" stroke="rgb(0,178,178)" stroke-width="0.1"/>
  <path d="M 1.6535109999999804,77.01361499999999 A 8.775,8.775 0.0 0,0 10.203511000000162,68.24161499999997" fill="none" instance-id="17" semantic-id="3" stroke="rgb(0,178,178)" stroke-width="0.1"/>
  <path d="M 43.57351100000005,95.55161499999997 A 7.3125,7.3125 0.0 0,0 50.69351100000017,88.24161499999997" fill="none" instance-id="15" semantic-id="4" stroke="rgb(0,178,178)" stroke-width="0.1"/>
  <path d="M 50.69351100000017,88.24161499999997 A 7.3125,7.3125 0.0 0,0 57.82351100000005,95.55161499999997" fill="none" instance-id="15" semantic-id="4" stroke="rgb(0,178,178)" stroke-width="0.1"/>
  <path d="M 39.19351100000017,61.24161499999997 A 8.0,8.0 0.0 0,0 46.12351100000001,57.24161499999997" fill="none" instance-id="14" semantic-id="3" stroke="rgb(0,178,178)" stroke-width="0.1"/>
 </g>
 <g id="layerWINDOW_TEXT" inkscape:groupmode="layer" inkscape:label="WINDOW_TEXT">
  <text fill="rgb(0,0,0)" font-family="Noto Sans CJK SC" font-size="2" transform="rotate(-360.0,6.503511000000117,48.020614999999964)" x="6.503511000000117" y="48.020614999999964">
   乙
  </text>
  <text fill="rgb(0,0,0)" font-family="Noto Sans CJK SC" font-size="2" transform="rotate(-360.0,10.18351100000018,48.020614999999964)" x="10.18351100000018" y="48.020614999999964">
   0923
  </text>
  <text fill="rgb(0,0,0)" font-family="Noto Sans CJK SC" font-size="2" transform="rotate(-90.0,14.513511000000108,71.57261499999998)" x="14.513511000000108" y="71.57261499999998">
   FHM
  </text>
  <text fill="rgb(0,0,0)" font-family="Noto Sans CJK SC" font-size="2" transform="rotate(-90.0,14.513511000000108,61.97261499999999)" x="14.513511000000108" y="61.97261499999999">
   乙
  </text>
  <text fill="rgb(0,0,0)" font-family="Noto Sans CJK SC" font-size="2" transform="rotate(-90.0,14.513511000000108,58.28661499999998)" x="14.513511000000108" y="58.28661499999998">
   0923
  </text>
  <text fill="rgb(0,0,0)" font-family="Noto Sans CJK SC" font-size="2" transform="rotate(-8.09133e-12,9.023511000000099,75.78261499999996)" x="9.023511000000099" y="75.78261499999996">
   乙
  </text>
  <text fill="rgb(0,0,0)" font-family="Noto Sans CJK SC" font-size="2" transform="rotate(-8.09133e-12,12.703511000000162,75.78261499999996)" x="12.703511000000162" y="75.78261499999996">
   0923
  </text>
  <text fill="rgb(0,0,0)" font-family="Noto Sans CJK SC" font-size="2" transform="rotate(-360.0,41.36351100000002,85.30261499999997)" x="41.36351100000002" y="85.30261499999997">
   FHM
  </text>
  <text fill="rgb(0,0,0)" font-family="Noto Sans CJK SC" font-size="2" transform="rotate(-360.0,50.96351100000015,85.30261499999997)" x="50.96351100000015" y="85.30261499999997">
   乙
  </text>
  <text fill="rgb(0,0,0)" font-family="Noto Sans CJK SC" font-size="2" transform="rotate(-360.0,54.65351099999998,85.30261499999997)" x="54.65351099999998" y="85.30261499999997">
   1523
  </text>
  <text fill="rgb(0,0,0)" font-family="Noto Sans CJK SC" font-size="2" transform="rotate(-90.0,48.983511000000135,59.87561499999998)" x="48.983511000000135" y="59.87561499999998">
   FHM
  </text>
  <text fill="rgb(0,0,0)" font-family="Noto Sans CJK SC" font-size="2" transform="rotate(-90.0,48.983511000000135,47.07561499999997)" x="48.983511000000135" y="47.07561499999997">
   乙
  </text>
  <text fill="rgb(0,0,0)" font-family="Noto Sans CJK SC" font-size="2" transform="rotate(-90.0,48.983511000000135,42.16061499999998)" x="48.983511000000135" y="42.16061499999998">
   0823
  </text>
 </g>
 <g id="layer格栅" inkscape:groupmode="layer" inkscape:label="格栅">
  <path d="M 4.193511000000171,5.2416149999999675 L 4.193511000000171,3.7416149999999675" fill="none" stroke="rgb(255,194,12)" stroke-width="0.1"/>
  <path d="M 2.1935110000001714,3.7416149999999675 L 2.1935110000001714,5.2416149999999675" fill="none" stroke="rgb(255,194,12)" stroke-width="0.1"/>
  <path d="M 40.19351100000017,5.2416149999999675 L 40.19351100000017,3.7416149999999675" fill="none" stroke="rgb(255,194,12)" stroke-width="0.1"/>
  <path d="M 38.19351100000017,3.7416149999999675 L 38.19351100000017,5.2416149999999675" fill="none" stroke="rgb(255,194,12)" stroke-width="0.1"/>
  <path d="M 52.19351100000017,5.2416149999999675 L 52.19351100000017,3.7416149999999675" fill="none" stroke="rgb(255,194,12)" stroke-width="0.1"/>
  <path d="M 50.19351100000017,3.7416149999999675 L 50.19351100000017,5.2416149999999675" fill="none" stroke="rgb(255,194,12)" stroke-width="0.1"/>
  <path d="M 64.19351100000017,5.2416149999999675 L 64.19351100000017,3.7416149999999675" fill="none" stroke="rgb(255,194,12)" stroke-width="0.1"/>
  <path d="M 62.19351100000017,3.7416149999999675 L 62.19351100000017,5.2416149999999675" fill="none" stroke="rgb(255,194,12)" stroke-width="0.1"/>
  <path d="M 76.19351100000017,5.2416149999999675 L 76.19351100000017,3.7416149999999675" fill="none" stroke="rgb(255,194,12)" stroke-width="0.1"/>
  <path d="M 74.19351100000017,3.7416149999999675 L 74.19351100000017,5.2416149999999675" fill="none" stroke="rgb(255,194,12)" stroke-width="0.1"/>
  <path d="M 88.19351100000017,5.2416149999999675 L 88.19351100000017,3.7416149999999675" fill="none" stroke="rgb(255,194,12)" stroke-width="0.1"/>
  <path d="M 86.19351100000017,3.7416149999999675 L 86.19351100000017,5.2416149999999675" fill="none" stroke="rgb(255,194,12)" stroke-width="0.1"/>
  <path d="M 98.19351100000017,3.7416149999999675 L 98.19351100000017,5.2416149999999675" fill="none" stroke="rgb(255,194,12)" stroke-width="0.1"/>
  <path d="M 2.353511000000026,0.611614999999972 A 31.2938,31.2938 0.0 0,0 2.1935110000001714,3.7416149999999675" fill="none" stroke="rgb(255,194,12)" stroke-width="0.1"/>
  <path d="M 2.4909413261314057,0.012972287565702345 L 2.353511000000026,0.611614999999972" fill="none" stroke="rgb(255,194,12)" stroke-width="0.1"/>
  <path d="M 4.193511000000171,3.7416149999999675 A 31.2938,31.2938 0.0 0,0 4.0435110000000805,0.611614999999972" fill="none" stroke="rgb(255,194,12)" stroke-width="0.1"/>
  <path d="M 4.0435110000000805,0.611614999999972 L 3.9060806738687006,0.012972287565702345" fill="none" stroke="rgb(255,194,12)" stroke-width="0.1"/>
  <path d="M 38.353511000000026,0.611614999999972 A 31.2938,31.2938 0.0 0,0 38.19351100000017,3.7416149999999675" fill="none" stroke="rgb(255,194,12)" stroke-width="0.1"/>
  <path d="M 38.490941326131406,0.012972287565702345 L 38.353511000000026,0.611614999999972" fill="none" stroke="rgb(255,194,12)" stroke-width="0.1"/>
  <path d="M 40.19351100000017,3.7416149999999675 A 31.2938,31.2938 0.0 0,0 40.04351100000008,0.611614999999972" fill="none" stroke="rgb(255,194,12)" stroke-width="0.1"/>
  <path d="M 40.04351100000008,0.611614999999972 L 39.9060806738687,0.012972287565702345" fill="none" stroke="rgb(255,194,12)" stroke-width="0.1"/>
  <path d="M 50.353511000000026,0.611614999999972 A 31.2938,31.2938 0.0 0,0 50.19351100000017,3.7416149999999675" fill="none" stroke="rgb(255,194,12)" stroke-width="0.1"/>
  <path d="M 50.490941326131406,0.012972287565702345 L 50.353511000000026,0.611614999999972" fill="none" stroke="rgb(255,194,12)" stroke-width="0.1"/>
  <path d="M 52.19351100000017,3.7416149999999675 A 31.2938,31.2938 0.0 0,0 52.04351100000008,0.611614999999972" fill="none" stroke="rgb(255,194,12)" stroke-width="0.1"/>
  <path d="M 52.04351100000008,0.611614999999972 L 51.9060806738687,0.012972287565702345" fill="none" stroke="rgb(255,194,12)" stroke-width="0.1"/>
  <path d="M 62.353511000000026,0.611614999999972 A 31.2938,31.2938 0.0 0,0 62.19351100000017,3.7416149999999675" fill="none" stroke="rgb(255,194,12)" stroke-width="0.1"/>
  <path d="M 62.490941326131406,0.012972287565702345 L 62.353511000000026,0.611614999999972" fill="none" stroke="rgb(255,194,12)" stroke-width="0.1"/>
  <path d="M 64.19351100000017,3.7416149999999675 A 31.2938,31.2938 0.0 0,0 64.04351100000008,0.611614999999972" fill="none" stroke="rgb(255,194,12)" stroke-width="0.1"/>
  <path d="M 64.04351100000008,0.611614999999972 L 63.9060806738687,0.012972287565702345" fill="none" stroke="rgb(255,194,12)" stroke-width="0.1"/>
  <path d="M 74.35351100000003,0.611614999999972 A 31.2938,31.2938 0.0 0,0 74.19351100000017,3.7416149999999675" fill="none" stroke="rgb(255,194,12)" stroke-width="0.1"/>
  <path d="M 74.4909413261314,0.012972287565702345 L 74.35351100000003,0.611614999999972" fill="none" stroke="rgb(255,194,12)" stroke-width="0.1"/>
  <path d="M 76.19351100000017,3.7416149999999675 A 31.2938,31.2938 0.0 0,0 76.04351100000008,0.611614999999972" fill="none" stroke="rgb(255,194,12)" stroke-width="0.1"/>
  <path d="M 76.04351100000008,0.611614999999972 L 75.9060806738687,0.012972287565702345" fill="none" stroke="rgb(255,194,12)" stroke-width="0.1"/>
  <path d="M 86.35351100000003,0.611614999999972 A 31.2938,31.2938 0.0 0,0 86.19351100000017,3.7416149999999675" fill="none" stroke="rgb(255,194,12)" stroke-width="0.1"/>
  <path d="M 86.4909413261314,0.012972287565702345 L 86.35351100000003,0.611614999999972" fill="none" stroke="rgb(255,194,12)" stroke-width="0.1"/>
  <path d="M 88.19351100000017,3.7416149999999675 A 31.2938,31.2938 0.0 0,0 88.04351100000008,0.611614999999972" fill="none" stroke="rgb(255,194,12)" stroke-width="0.1"/>
  <path d="M 88.04351100000008,0.611614999999972 L 87.9060806738687,0.012972287565702345" fill="none" stroke="rgb(255,194,12)" stroke-width="0.1"/>
  <path d="M 98.35351100000003,0.611614999999972 A 31.2938,31.2938 0.0 0,0 98.19351100000017,3.7416149999999675" fill="none" stroke="rgb(255,194,12)" stroke-width="0.1"/>
  <path d="M 98.4909413261314,0.012972287565702345 L 98.35351100000003,0.611614999999972" fill="none" stroke="rgb(255,194,12)" stroke-width="0.1"/>
 </g>
</svg>