<?xml version="1.0" encoding="utf-8"?>
<svg style="background-color: #000;" version="1.1" viewBox="0 0 99.99999999999997 100.0" xmlns="http://www.w3.org/2000/svg" xmlns:inkscape="http://www.inkscape.org/namespaces/inkscape">
 <g id="layer0" inkscape:groupmode="layer" inkscape:label="0">
  <path d="M 77.08197149999998,0.0 L 77.08197149999998,42.06903349999999" fill="none" stroke="rgb(178,178,0)" stroke-width="0.1"/>
  <path d="M 77.08197149999998,41.06903349999999 L 80.83197149999998,41.06903349999999" fill="none" stroke="rgb(178,178,0)" stroke-width="0.1"/>
  <path d="M 76.2769715,57.42603349999999 L 71.80216463235135,100.0" fill="none" stroke="rgb(178,178,0)" stroke-width="0.1"/>
  <path d="M 85.60097149999999,58.40603349999998 L 76.2769715,57.42603349999999" fill="none" stroke="rgb(178,178,0)" stroke-width="0.1"/>
  <path d="M 86.45697149999998,42.06903349999999 L 77.08197149999998,42.06903349999999" fill="none" stroke="rgb(178,178,0)" stroke-width="0.1"/>
  <path d="M 86.45697149999998,50.4700335 L 86.45697149999998,42.06903349999999" fill="none" stroke="rgb(178,178,0)" stroke-width="0.1"/>
  <path d="M 86.47897149999997,50.05203349999999 L 85.60097149999999,58.40603349999998" fill="none" stroke="rgb(178,178,0)" stroke-width="0.1"/>
  <path d="M 0.0,45.729147403062825 L 39.985971500000005,47.82503349999999" fill="none" stroke="rgb(0,0,0)" stroke-width="0.1"/>
  <path d="M 91.5279715,62.330033499999985 L 88.82497149999998,62.04603349999999" fill="none" stroke="rgb(0,0,0)" stroke-width="0.1"/>
  <path d="M 88.82497149999998,62.04603349999999 L 88.93597149999997,60.983033499999976" fill="none" stroke="rgb(0,0,0)" stroke-width="0.1"/>
  <path d="M 88.93597149999997,60.983033499999976 L 91.6389715,61.2680335" fill="none" stroke="rgb(0,0,0)" stroke-width="0.1"/>
  <path d="M 91.6389715,61.2680335 L 91.5279715,62.330033499999985" fill="none" stroke="rgb(0,0,0)" stroke-width="0.1"/>
  <path d="M 92.76097150000001,38.7860335 L 90.04397149999997,38.7860335" fill="none" stroke="rgb(0,0,0)" stroke-width="0.1"/>
  <path d="M 90.04397149999997,38.7860335 L 90.04397149999997,39.854033499999986" fill="none" stroke="rgb(0,0,0)" stroke-width="0.1"/>
  <path d="M 90.04397149999997,39.854033499999986 L 92.76097150000001,39.854033499999986" fill="none" stroke="rgb(0,0,0)" stroke-width="0.1"/>
  <path d="M 92.76097150000001,39.854033499999986 L 92.76097150000001,38.7860335" fill="none" stroke="rgb(0,0,0)" stroke-width="0.1"/>
  <circle cx="92.47897149999997" cy="61.9340335" fill="none" r="0.75" stroke="rgb(0,0,0)" stroke-width="0.1"/>
  <circle cx="93.66597149999998" cy="39.2800335" fill="none" r="0.75" stroke="rgb(0,0,0)" stroke-width="0.1"/>
 </g>
 <g id="layer0-design-木栏杆" inkscape:groupmode="layer" inkscape:label="0-design-木栏杆">
  <path d="M 91.70697149999998,50.5350335 L 91.70697149999998,38.31903349999999" fill="none" stroke="rgb(107,53,0)" stroke-width="0.1"/>
  <path d="M 91.20697149999998,50.50903349999999 L 91.20697149999998,38.31903349999999" fill="none" stroke="rgb(107,53,0)" stroke-width="0.1"/>
  <path d="M 91.70697149999998,50.5350335 L 90.4299715,62.6840335" fill="none" stroke="rgb(107,53,0)" stroke-width="0.1"/>
  <path d="M 91.20697149999998,50.50903349999999 L 89.93297149999998,62.63203349999998" fill="none" stroke="rgb(107,53,0)" stroke-width="0.1"/>
 </g>
 <g id="layer0-design-瓦" inkscape:groupmode="layer" inkscape:label="0-design-瓦">
  <path d="M 99.99999999999997,35.23403349999998 L 91.08197149999998,35.23403349999998" fill="none" stroke="rgb(35,35,35)" stroke-width="0.1"/>
  <path d="M 99.99999999999997,33.73403349999998 L 91.08197149999998,33.73403349999998" fill="none" stroke="rgb(35,35,35)" stroke-width="0.1"/>
  <path d="M 99.99999999999997,32.23403349999998 L 91.08197149999998,32.23403349999998" fill="none" stroke="rgb(35,35,35)" stroke-width="0.1"/>
  <path d="M 99.99999999999997,30.73403349999998 L 91.08197149999998,30.73403349999998" fill="none" stroke="rgb(35,35,35)" stroke-width="0.1"/>
  <path d="M 99.99999999999997,29.23403349999998 L 91.08197149999998,29.23403349999998" fill="none" stroke="rgb(35,35,35)" stroke-width="0.1"/>
  <path d="M 99.99999999999997,27.73403349999998 L 91.08197149999998,27.73403349999998" fill="none" stroke="rgb(35,35,35)" stroke-width="0.1"/>
  <path d="M 99.99999999999997,26.23403349999998 L 91.08197149999998,26.23403349999998" fill="none" stroke="rgb(35,35,35)" stroke-width="0.1"/>
  <path d="M 99.99999999999997,24.73403349999998 L 91.08197149999998,24.73403349999998" fill="none" stroke="rgb(35,35,35)" stroke-width="0.1"/>
  <path d="M 99.99999999999997,23.23403349999998 L 91.08197149999998,23.23403349999998" fill="none" stroke="rgb(35,35,35)" stroke-width="0.1"/>
  <path d="M 99.99999999999997,21.73403349999998 L 91.08197149999998,21.73403349999998" fill="none" stroke="rgb(35,35,35)" stroke-width="0.1"/>
  <path d="M 99.99999999999997,20.23403349999998 L 91.08197149999998,20.23403349999998" fill="none" stroke="rgb(35,35,35)" stroke-width="0.1"/>
  <path d="M 99.99999999999997,18.73403349999998 L 91.08197149999998,18.73403349999998" fill="none" stroke="rgb(35,35,35)" stroke-width="0.1"/>
  <path d="M 99.99999999999997,17.23403349999998 L 91.08197149999998,17.23403349999998" fill="none" stroke="rgb(35,35,35)" stroke-width="0.1"/>
  <path d="M 99.99999999999997,15.734033499999981 L 91.08197149999998,15.734033499999981" fill="none" stroke="rgb(35,35,35)" stroke-width="0.1"/>
  <path d="M 99.99999999999997,14.234033499999981 L 91.08197149999998,14.234033499999981" fill="none" stroke="rgb(35,35,35)" stroke-width="0.1"/>
  <path d="M 99.99999999999997,12.734033499999981 L 91.08197149999998,12.734033499999981" fill="none" stroke="rgb(35,35,35)" stroke-width="0.1"/>
  <path d="M 99.99999999999997,11.234033499999981 L 91.08197149999998,11.234033499999981" fill="none" stroke="rgb(35,35,35)" stroke-width="0.1"/>
  <path d="M 99.99999999999997,9.734033499999981 L 91.08197149999998,9.734033499999981" fill="none" stroke="rgb(35,35,35)" stroke-width="0.1"/>
  <path d="M 99.99999999999997,8.234033499999981 L 91.08197149999998,8.234033499999981" fill="none" stroke="rgb(35,35,35)" stroke-width="0.1"/>
  <path d="M 99.99999999999997,6.734033499999981 L 91.08197149999998,6.734033499999981" fill="none" stroke="rgb(35,35,35)" stroke-width="0.1"/>
  <path d="M 99.99999999999997,5.234033499999981 L 91.08197149999998,5.234033499999981" fill="none" stroke="rgb(35,35,35)" stroke-width="0.1"/>
  <path d="M 99.99999999999997,3.734033499999981 L 91.08197149999998,3.734033499999981" fill="none" stroke="rgb(35,35,35)" stroke-width="0.1"/>
  <path d="M 99.99999999999997,2.234033499999981 L 91.08197149999998,2.234033499999981" fill="none" stroke="rgb(35,35,35)" stroke-width="0.1"/>
  <path d="M 91.08197149999998,35.23403349999998 L 83.33197149999998,35.23403349999998" fill="none" stroke="rgb(35,35,35)" stroke-width="0.1"/>
  <path d="M 91.08197149999998,33.73403349999998 L 83.33197149999998,33.73403349999998" fill="none" stroke="rgb(35,35,35)" stroke-width="0.1"/>
  <path d="M 91.08197149999998,32.23403349999998 L 83.33197149999998,32.23403349999998" fill="none" stroke="rgb(35,35,35)" stroke-width="0.1"/>
  <path d="M 91.08197149999998,30.73403349999998 L 83.33197149999998,30.73403349999998" fill="none" stroke="rgb(35,35,35)" stroke-width="0.1"/>
  <path d="M 91.08197149999998,29.23403349999998 L 83.33197149999998,29.23403349999998" fill="none" stroke="rgb(35,35,35)" stroke-width="0.1"/>
  <path d="M 91.08197149999998,27.73403349999998 L 83.33197149999998,27.73403349999998" fill="none" stroke="rgb(35,35,35)" stroke-width="0.1"/>
  <path d="M 91.08197149999998,26.23403349999998 L 83.33197149999998,26.23403349999998" fill="none" stroke="rgb(35,35,35)" stroke-width="0.1"/>
  <path d="M 91.08197149999998,24.73403349999998 L 83.33197149999998,24.73403349999998" fill="none" stroke="rgb(35,35,35)" stroke-width="0.1"/>
  <path d="M 91.08197149999998,23.23403349999998 L 83.33197149999998,23.23403349999998" fill="none" stroke="rgb(35,35,35)" stroke-width="0.1"/>
  <path d="M 91.08197149999998,21.73403349999998 L 83.33197149999998,21.73403349999998" fill="none" stroke="rgb(35,35,35)" stroke-width="0.1"/>
  <path d="M 91.08197149999998,20.23403349999998 L 83.33197149999998,20.23403349999998" fill="none" stroke="rgb(35,35,35)" stroke-width="0.1"/>
  <path d="M 91.08197149999998,18.73403349999998 L 83.33197149999998,18.73403349999998" fill="none" stroke="rgb(35,35,35)" stroke-width="0.1"/>
  <path d="M 91.08197149999998,17.23403349999998 L 83.33197149999998,17.23403349999998" fill="none" stroke="rgb(35,35,35)" stroke-width="0.1"/>
  <path d="M 91.08197149999998,15.734033499999981 L 83.33197149999998,15.734033499999981" fill="none" stroke="rgb(35,35,35)" stroke-width="0.1"/>
  <path d="M 91.08197149999998,14.234033499999981 L 83.33197149999998,14.234033499999981" fill="none" stroke="rgb(35,35,35)" stroke-width="0.1"/>
  <path d="M 91.08197149999998,12.734033499999981 L 83.33197149999998,12.734033499999981" fill="none" stroke="rgb(35,35,35)" stroke-width="0.1"/>
  <path d="M 91.08197149999998,11.234033499999981 L 83.33197149999998,11.234033499999981" fill="none" stroke="rgb(35,35,35)" stroke-width="0.1"/>
  <path d="M 91.08197149999998,9.734033499999981 L 83.33197149999998,9.734033499999981" fill="none" stroke="rgb(35,35,35)" stroke-width="0.1"/>
  <path d="M 91.08197149999998,8.234033499999981 L 83.33197149999998,8.234033499999981" fill="none" stroke="rgb(35,35,35)" stroke-width="0.1"/>
  <path d="M 91.08197149999998,6.734033499999981 L 83.33197149999998,6.734033499999981" fill="none" stroke="rgb(35,35,35)" stroke-width="0.1"/>
  <path d="M 91.08197149999998,5.234033499999981 L 83.33197149999998,5.234033499999981" fill="none" stroke="rgb(35,35,35)" stroke-width="0.1"/>
  <path d="M 91.08197149999998,3.734033499999981 L 83.33197149999998,3.734033499999981" fill="none" stroke="rgb(35,35,35)" stroke-width="0.1"/>
  <path d="M 91.08197149999998,2.234033499999981 L 83.33197149999998,2.234033499999981" fill="none" stroke="rgb(35,35,35)" stroke-width="0.1"/>
  <path d="M 95.98597149999998,99.51603349999999 L 86.03997150000001,98.4700335" fill="none" stroke="rgb(35,35,35)" stroke-width="0.1"/>
  <path d="M 96.14197149999998,98.0240335 L 86.19697149999999,96.97903349999999" fill="none" stroke="rgb(35,35,35)" stroke-width="0.1"/>
  <path d="M 96.29897149999996,96.53203349999998 L 86.35397149999997,95.4870335" fill="none" stroke="rgb(35,35,35)" stroke-width="0.1"/>
  <path d="M 96.4559715,95.04003349999999 L 86.51097150000001,93.99503349999998" fill="none" stroke="rgb(35,35,35)" stroke-width="0.1"/>
  <path d="M 96.61297149999999,93.54903349999998 L 86.6679715,92.50303349999999" fill="none" stroke="rgb(35,35,35)" stroke-width="0.1"/>
  <path d="M 96.76997149999997,92.05703349999999 L 86.8239715,91.0120335" fill="none" stroke="rgb(35,35,35)" stroke-width="0.1"/>
  <path d="M 96.92597149999997,90.5650335 L 86.98097149999998,89.52003349999998" fill="none" stroke="rgb(35,35,35)" stroke-width="0.1"/>
  <path d="M 97.08297150000001,89.07303349999998 L 87.13797150000002,88.02803349999999" fill="none" stroke="rgb(35,35,35)" stroke-width="0.1"/>
  <path d="M 97.2399715,87.58103349999999 L 87.2949715,86.5360335" fill="none" stroke="rgb(35,35,35)" stroke-width="0.1"/>
  <path d="M 97.39697149999998,86.09003349999998 L 87.45197149999998,85.04403349999998" fill="none" stroke="rgb(35,35,35)" stroke-width="0.1"/>
  <path d="M 97.55397150000002,84.59803349999999 L 87.60797149999999,83.5530335" fill="none" stroke="rgb(35,35,35)" stroke-width="0.1"/>
  <path d="M 97.70997149999997,83.1060335 L 87.76497149999997,82.06103349999998" fill="none" stroke="rgb(35,35,35)" stroke-width="0.1"/>
  <path d="M 97.8669715,81.61403349999998 L 87.92197150000001,80.56903349999999" fill="none" stroke="rgb(35,35,35)" stroke-width="0.1"/>
  <path d="M 98.02397149999999,80.12303349999999 L 88.0789715,79.0770335" fill="none" stroke="rgb(35,35,35)" stroke-width="0.1"/>
  <path d="M 98.18097149999997,78.6310335 L 88.23597149999998,77.58603349999998" fill="none" stroke="rgb(35,35,35)" stroke-width="0.1"/>
  <path d="M 98.33797150000001,77.13903349999998 L 88.39197149999998,76.0940335" fill="none" stroke="rgb(35,35,35)" stroke-width="0.1"/>
  <path d="M 98.49397150000001,75.64703349999999 L 88.54897149999996,74.60203349999998" fill="none" stroke="rgb(35,35,35)" stroke-width="0.1"/>
  <path d="M 98.6509715,74.1550335 L 88.7059715,73.11003349999999" fill="none" stroke="rgb(35,35,35)" stroke-width="0.1"/>
  <path d="M 98.80797149999998,72.66403349999999 L 88.86297149999999,71.6180335" fill="none" stroke="rgb(35,35,35)" stroke-width="0.1"/>
  <path d="M 98.96497150000002,71.1720335 L 89.01897149999999,70.12703349999998" fill="none" stroke="rgb(35,35,35)" stroke-width="0.1"/>
  <path d="M 99.12097149999997,69.68003349999998 L 89.17597149999997,68.63503349999999" fill="none" stroke="rgb(35,35,35)" stroke-width="0.1"/>
  <path d="M 99.2779715,68.18803349999999 L 89.33297150000001,67.1430335" fill="none" stroke="rgb(35,35,35)" stroke-width="0.1"/>
  <path d="M 99.43497149999999,66.69703349999997 L 89.4899715,65.65103349999998" fill="none" stroke="rgb(35,35,35)" stroke-width="0.1"/>
  <path d="M 86.03997150000001,98.4700335 L 78.33297149999999,97.6600335" fill="none" stroke="rgb(35,35,35)" stroke-width="0.1"/>
  <path d="M 86.19697149999999,96.97903349999999 L 78.4899715,96.16903349999998" fill="none" stroke="rgb(35,35,35)" stroke-width="0.1"/>
  <path d="M 86.35397149999997,95.4870335 L 78.6459715,94.6770335" fill="none" stroke="rgb(35,35,35)" stroke-width="0.1"/>
  <path d="M 86.51097150000001,93.99503349999998 L 78.80297149999998,93.1850335" fill="none" stroke="rgb(35,35,35)" stroke-width="0.1"/>
  <path d="M 86.6679715,92.50303349999999 L 78.9599715,91.69303349999998" fill="none" stroke="rgb(35,35,35)" stroke-width="0.1"/>
  <path d="M 86.8239715,91.0120335 L 79.1169715,90.2010335" fill="none" stroke="rgb(35,35,35)" stroke-width="0.1"/>
  <path d="M 86.98097149999998,89.52003349999998 L 79.27397149999999,88.71003349999998" fill="none" stroke="rgb(35,35,35)" stroke-width="0.1"/>
  <path d="M 87.13797150000002,88.02803349999999 L 79.4299715,87.21803349999999" fill="none" stroke="rgb(35,35,35)" stroke-width="0.1"/>
  <path d="M 87.2949715,86.5360335 L 79.5869715,85.7260335" fill="none" stroke="rgb(35,35,35)" stroke-width="0.1"/>
  <path d="M 87.45197149999998,85.04403349999998 L 79.74397149999999,84.23403349999998" fill="none" stroke="rgb(35,35,35)" stroke-width="0.1"/>
  <path d="M 87.60797149999999,83.5530335 L 79.9009715,82.7430335" fill="none" stroke="rgb(35,35,35)" stroke-width="0.1"/>
  <path d="M 87.76497149999997,82.06103349999998 L 80.05797149999998,81.25103349999998" fill="none" stroke="rgb(35,35,35)" stroke-width="0.1"/>
  <path d="M 87.92197150000001,80.56903349999999 L 80.21397149999999,79.75903349999999" fill="none" stroke="rgb(35,35,35)" stroke-width="0.1"/>
  <path d="M 88.0789715,79.0770335 L 80.3709715,78.2670335" fill="none" stroke="rgb(35,35,35)" stroke-width="0.1"/>
  <path d="M 88.23597149999998,77.58603349999998 L 80.5279715,76.77503349999998" fill="none" stroke="rgb(35,35,35)" stroke-width="0.1"/>
  <path d="M 88.39197149999998,76.0940335 L 80.68497149999999,75.28403349999999" fill="none" stroke="rgb(35,35,35)" stroke-width="0.1"/>
  <path d="M 88.54897149999996,74.60203349999998 L 80.8419715,73.7920335" fill="none" stroke="rgb(35,35,35)" stroke-width="0.1"/>
  <path d="M 88.7059715,73.11003349999999 L 80.9979715,72.30003349999998" fill="none" stroke="rgb(35,35,35)" stroke-width="0.1"/>
  <path d="M 88.86297149999999,71.6180335 L 81.15497149999999,70.8080335" fill="none" stroke="rgb(35,35,35)" stroke-width="0.1"/>
  <path d="M 89.01897149999999,70.12703349999998 L 81.3119715,69.3160335" fill="none" stroke="rgb(35,35,35)" stroke-width="0.1"/>
  <path d="M 89.17597149999997,68.63503349999999 L 81.46897149999998,67.82503349999999" fill="none" stroke="rgb(35,35,35)" stroke-width="0.1"/>
  <path d="M 89.33297150000001,67.1430335 L 81.62597149999999,66.3330335" fill="none" stroke="rgb(35,35,35)" stroke-width="0.1"/>
  <path d="M 89.4899715,65.65103349999998 L 81.78197149999997,64.84103349999998" fill="none" stroke="rgb(35,35,35)" stroke-width="0.1"/>
  <path d="M 83.33197149999998,35.81903349999999 L 91.08197149999998,35.81903349999999" fill="none" stroke="rgb(35,35,35)" stroke-width="0.1"/>
  <path d="M 91.08197149999998,35.81903349999999 L 99.99999999999997,35.81903349999999" fill="none" stroke="rgb(35,35,35)" stroke-width="0.1"/>
  <path d="M 99.99999999999997,1.319033499999989 L 91.08197149999998,1.319033499999989" fill="none" stroke="rgb(35,35,35)" stroke-width="0.1"/>
  <path d="M 91.08197149999998,1.319033499999989 L 83.33197149999998,1.319033499999989" fill="none" stroke="rgb(35,35,35)" stroke-width="0.1"/>
  <path d="M 83.33197149999998,1.319033499999989 L 83.33197149999998,35.81903349999999" fill="none" stroke="rgb(35,35,35)" stroke-width="0.1"/>
  <path d="M 91.08197149999998,35.81903349999999 L 91.08197149999998,1.319033499999989" fill="none" stroke="rgb(35,35,35)" stroke-width="0.1"/>
  <path d="M 91.08197149999998,1.319033499999989 L 91.08197149999998,35.81903349999999" fill="none" stroke="rgb(35,35,35)" stroke-width="0.1"/>
  <path d="M 85.94097150000002,99.4160335 L 91.49311953298289,100.0" fill="none" stroke="rgb(35,35,35)" stroke-width="0.1"/>
  <path d="M 95.93453006142349,100.0 L 99.4919715,66.15103349999998" fill="none" stroke="rgb(35,35,35)" stroke-width="0.1"/>
  <path d="M 99.4919715,66.15103349999998 L 89.54697150000001,65.10503349999999" fill="none" stroke="rgb(35,35,35)" stroke-width="0.1"/>
  <path d="M 89.54697150000001,65.10503349999999 L 81.83997150000002,64.29503349999999" fill="none" stroke="rgb(35,35,35)" stroke-width="0.1"/>
  <path d="M 81.83997150000002,64.29503349999999 L 78.23297149999999,98.6060335" fill="none" stroke="rgb(35,35,35)" stroke-width="0.1"/>
  <path d="M 78.23297149999999,98.6060335 L 85.94097150000002,99.4160335" fill="none" stroke="rgb(35,35,35)" stroke-width="0.1"/>
  <path d="M 89.54697150000001,65.10503349999999 L 85.94097150000002,99.4160335" fill="none" stroke="rgb(35,35,35)" stroke-width="0.1"/>
  <path d="M 85.94097150000002,99.4160335 L 89.54697150000001,65.10503349999999" fill="none" stroke="rgb(35,35,35)" stroke-width="0.1"/>
 </g>
 <g id="layer0-屋面标注" inkscape:groupmode="layer" inkscape:label="0-屋面标注">
  <path d="M 99.99999999999997,22.76938625439996 L 85.3359715,14.97203349999998" fill="none" stroke="rgb(0,178,0)" stroke-width="0.1"/>
  <path d="M 85.3359715,22.94803349999998 L 99.99999999999997,22.94803349999998" fill="none" stroke="rgb(0,178,0)" stroke-width="0.1"/>
  <path d="M 85.3359715,14.97203349999998 L 85.3359715,22.94803349999998" fill="none" stroke="rgb(0,178,0)" stroke-width="0.1"/>
  <path d="M 97.40497150000002,78.87303349999999 L 81.65397149999998,85.2370335" fill="none" stroke="rgb(0,178,0)" stroke-width="0.1"/>
  <path d="M 82.48697150000001,77.30503349999998 L 97.40497150000002,78.87303349999999" fill="none" stroke="rgb(0,178,0)" stroke-width="0.1"/>
  <path d="M 81.65397149999998,85.2370335 L 82.48697150000001,77.30503349999998" fill="none" stroke="rgb(0,178,0)" stroke-width="0.1"/>
 </g>
 <g id="layerCOLUMN" inkscape:groupmode="layer" inkscape:label="COLUMN">
  <path d="M 34.876971499999996,97.31703349999998 L 34.595050937657106,100.0" fill="none" stroke="rgb(178,178,0)" stroke-width="0.1"/>
  <path d="M 38.61697351181499,100.0 L 38.854971500000005,97.73503349999999" fill="none" stroke="rgb(178,178,0)" stroke-width="0.1"/>
  <path d="M 38.854971500000005,97.73503349999999 L 34.876971499999996,97.31703349999998" fill="none" stroke="rgb(178,178,0)" stroke-width="0.1"/>
  <path d="M 39.88097149999999,49.822033499999975 L 43.87597149999999,50.03103349999998" fill="none" stroke="rgb(178,178,0)" stroke-width="0.1"/>
  <path d="M 43.87597149999999,50.03103349999998 L 44.084971499999995,46.03703349999998" fill="none" stroke="rgb(178,178,0)" stroke-width="0.1"/>
  <path d="M 44.084971499999995,46.03703349999998 L 40.090971499999995,45.8270335" fill="none" stroke="rgb(178,178,0)" stroke-width="0.1"/>
  <path d="M 40.090971499999995,45.8270335 L 39.88097149999999,49.822033499999975" fill="none" stroke="rgb(178,178,0)" stroke-width="0.1"/>
 </g>
 <g id="layerDIM_ELEV" inkscape:groupmode="layer" inkscape:label="DIM_ELEV">
  <path d="M 61.91197149999999,18.310033500000003 L 64.91197149999999,21.310033500000003" fill="none" stroke="rgb(0,178,0)" stroke-width="0.1"/>
  <path d="M 61.91197149999999,18.310033500000003 L 58.91197149999999,21.310033500000003" fill="none" stroke="rgb(0,178,0)" stroke-width="0.1"/>
  <path d="M 64.91197149999999,21.310033500000003 L 51.6579715,21.310033500000003" fill="none" stroke="rgb(0,178,0)" stroke-width="0.1"/>
  <path d="M 8.711971500000004,29.193033499999984 L 11.711971500000004,32.193033499999984" fill="none" stroke="rgb(0,178,0)" stroke-width="0.1"/>
  <path d="M 8.711971500000004,29.193033499999984 L 5.711971500000004,32.193033499999984" fill="none" stroke="rgb(0,178,0)" stroke-width="0.1"/>
  <path d="M 11.711971500000004,32.193033499999984 L 0.0,32.193033499999984" fill="none" stroke="rgb(0,178,0)" stroke-width="0.1"/>
  <path d="M 99.99999999999997,15.699005 L 98.08197149999998,17.61703349999999" fill="none" stroke="rgb(0,178,0)" stroke-width="0.1"/>
  <path d="M 98.08197149999998,17.61703349999999 L 99.99999999999997,17.61703349999999" fill="none" stroke="rgb(0,178,0)" stroke-width="0.1"/>
  <path d="M 92.98897150000002,0.06903349999998909 L 89.98897150000002,3.069033499999989" fill="none" stroke="rgb(0,178,0)" stroke-width="0.1"/>
  <path d="M 92.98897150000002,0.06903349999998909 L 95.98897150000002,3.069033499999989" fill="none" stroke="rgb(0,178,0)" stroke-width="0.1"/>
  <path d="M 89.98897150000002,3.069033499999989 L 99.99999999999997,3.069033499999989" fill="none" stroke="rgb(0,178,0)" stroke-width="0.1"/>
  <path d="M 97.5449715,84.68203349999999 L 94.5449715,87.68203349999999" fill="none" stroke="rgb(0,178,0)" stroke-width="0.1"/>
  <path d="M 97.5449715,84.68203349999999 L 99.99999999999997,87.13706199999996" fill="none" stroke="rgb(0,178,0)" stroke-width="0.1"/>
  <path d="M 94.5449715,87.68203349999999 L 99.99999999999997,87.68203349999999" fill="none" stroke="rgb(0,178,0)" stroke-width="0.1"/>
  <path d="M 92.98897150000002,37.06903349999999 L 89.98897150000002,40.06903349999999" fill="none" stroke="rgb(0,178,0)" stroke-width="0.1"/>
  <path d="M 92.98897150000002,37.06903349999999 L 95.98897150000002,40.06903349999999" fill="none" stroke="rgb(0,178,0)" stroke-width="0.1"/>
  <path d="M 89.98897150000002,40.06903349999999 L 99.99999999999997,40.06903349999999" fill="none" stroke="rgb(0,178,0)" stroke-width="0.1"/>
  <path d="M 86.84793799999997,100.0 L 84.70697149999998,97.85903349999998" fill="none" stroke="rgb(0,178,0)" stroke-width="0.1"/>
  <path d="M 88.56600499999999,100.0 L 90.70697149999998,97.85903349999998" fill="none" stroke="rgb(0,178,0)" stroke-width="0.1"/>
  <path d="M 84.70697149999998,97.85903349999998 L 97.9609715,97.85903349999998" fill="none" stroke="rgb(0,178,0)" stroke-width="0.1"/>
  <path d="M 91.57497149999998,64.06203349999998 L 88.57497149999998,61.062033499999984" fill="none" stroke="rgb(0,178,0)" stroke-width="0.1"/>
  <path d="M 91.57497149999998,64.06203349999998 L 94.57497149999998,61.062033499999984" fill="none" stroke="rgb(0,178,0)" stroke-width="0.1"/>
  <path d="M 88.57497149999998,61.062033499999984 L 99.99999999999997,61.062033499999984" fill="none" stroke="rgb(0,178,0)" stroke-width="0.1"/>
 </g>
 <g id="layerDIM_IDEN" inkscape:groupmode="layer" inkscape:label="DIM_IDEN">
  <path d="M 79.29197149999999,22.655033500000002 L 99.99999999999997,22.655033500000002" fill="none" stroke="rgb(0,178,0)" stroke-width="0.1"/>
  <path d="M 79.29197149999999,21.155033500000002 L 99.99999999999997,21.155033500000002" fill="none" stroke="rgb(0,178,0)" stroke-width="0.1"/>
 </g>
 <g id="layerDIM_LEAD" inkscape:groupmode="layer" inkscape:label="DIM_LEAD">
  <path d="M 14.110971500000005,46.5770335 L 14.110971500000005,54.5530335" fill="none" stroke="rgb(0,178,0)" stroke-width="0.1"/>
  <path d="M 14.110971500000005,54.5530335 L 32.6869715,54.5530335" fill="none" stroke="rgb(0,178,0)" stroke-width="0.1"/>
  <path d="M 14.110971500000005,46.37703349999998 A 0.20000000000000287,0.20000000000000287 0.0 1,0 14.110971500000005,46.77703349999999" fill="none" stroke="rgb(0,178,0)" stroke-width="0.1"/>
  <path d="M 14.110971500000005,46.77703349999999 A 0.20000000000000287,0.20000000000000287 0.0 1,0 14.110971500000005,46.37703349999998" fill="none" stroke="rgb(0,178,0)" stroke-width="0.1"/>
 </g>
 <g id="layerDIM_SYMB" inkscape:groupmode="layer" inkscape:label="DIM_SYMB">
  <path d="M 85.5089715,26.20603349999999 L 97.1099715,26.20603349999999" fill="none" stroke="rgb(0,178,0)" stroke-width="0.1"/>
  <path d="M 97.1099715,26.20603349999999 L 99.99999999999997,26.20603349999999" fill="none" stroke="rgb(0,178,0)" stroke-width="0.1"/>
  <path d="M 79.29197149999999,27.160033499999997 L 79.29197149999999,21.134033499999987" fill="none" stroke="rgb(0,178,0)" stroke-width="0.1"/>
  <path d="M 79.29197149999999,21.134033499999987 L 79.29197149999999,18.134033499999987" fill="none" stroke="rgb(0,178,0)" stroke-width="0.1"/>
  <path d="M 58.4429715,56.55703349999999 L 65.33797149999998,57.28203349999998" fill="none" stroke="rgb(0,178,0)" stroke-width="0.1"/>
  <path d="M 65.33797149999998,57.28203349999998 L 68.32197149999999,57.596033499999976" fill="none" stroke="rgb(0,178,0)" stroke-width="0.1"/>
  <path d="M 76.08997149999999,80.34103349999998 L 76.71997149999999,74.34703349999998" fill="none" stroke="rgb(0,178,0)" stroke-width="0.1"/>
  <path d="M 76.71997149999999,74.34703349999998 L 77.0339715,71.3630335" fill="none" stroke="rgb(0,178,0)" stroke-width="0.1"/>
  <path d="M 82.99897150000001,74.0830335 L 94.53697150000002,75.2960335" fill="none" stroke="rgb(0,178,0)" stroke-width="0.1"/>
  <path d="M 94.53697150000002,75.2960335 L 97.5209715,75.60903349999998" fill="none" stroke="rgb(0,178,0)" stroke-width="0.1"/>
 </g>
 <g id="layerDOTE" inkscape:groupmode="layer" inkscape:label="DOTE">
  <path d="M 99.99999999999997,41.06903349999999 L 0.0,41.06903349999999" fill="none" stroke="rgb(178,0,0)" stroke-width="0.1"/>
  <path d="M 43.08197149999998,41.06903349999999 L 43.08197149999998,31.06903349999999" fill="none" stroke="rgb(178,0,0)" stroke-width="0.1"/>
  <path d="M 91.08197149999998,41.06903349999999 L 91.08197149999998,31.06903349999999" fill="none" stroke="rgb(178,0,0)" stroke-width="0.1"/>
  <path d="M 99.99999999999997,41.06903349999999 L 0.0,41.06903349999999" fill="none" stroke="rgb(178,0,0)" stroke-width="0.1"/>
  <path d="M 43.08197149999998,0.0 L 43.08197149999998,47.987033499999995" fill="none" stroke="rgb(178,0,0)" stroke-width="0.1"/>
  <path d="M 91.08197149999998,0.0 L 91.08197149999998,50.50203349999998" fill="none" stroke="rgb(178,0,0)" stroke-width="0.1"/>
  <path d="M 81.08197149999998,41.06903349999999 L 99.99999999999997,41.06903349999999" fill="none" stroke="rgb(178,0,0)" stroke-width="0.1"/>
  <path d="M 81.08197149999998,0.06903349999998909 L 99.99999999999997,0.06903349999998909" fill="none" stroke="rgb(178,0,0)" stroke-width="0.1"/>
  <path d="M 82.08197149999998,0.0 L 82.08197149999998,50.03103349999998" fill="none" stroke="rgb(178,0,0)" stroke-width="0.1"/>
  <path d="M 99.99999999999997,60.92472736062487 L 0.0,50.41464260625568" fill="none" stroke="rgb(178,0,0)" stroke-width="0.1"/>
  <path d="M 37.615206558408346,100.0 L 42.358971499999996,54.86703349999999" fill="none" stroke="rgb(178,0,0)" stroke-width="0.1"/>
  <path d="M 85.87945573063749,100.0 L 91.08197149999998,50.50203349999998" fill="none" stroke="rgb(178,0,0)" stroke-width="0.1"/>
  <path d="M 0.0,95.66254256855521 L 41.267444714357225,100.0" fill="none" stroke="rgb(178,0,0)" stroke-width="0.1"/>
  <path d="M 31.582632292355726,100.0 L 31.792971499999993,97.9990335" fill="none" stroke="rgb(178,0,0)" stroke-width="0.1"/>
  <path d="M 75.8649715,99.61403349999998 L 79.53654474318529,100.0" fill="none" stroke="rgb(178,0,0)" stroke-width="0.1"/>
  <path d="M 43.08197149999998,47.987033499999995 L 41.31397149999998,64.81203349999998" fill="none" stroke="rgb(178,0,0)" stroke-width="0.1"/>
  <path d="M 80.1509715,58.8390335 L 99.99999999999997,60.92472829964805" fill="none" stroke="rgb(178,0,0)" stroke-width="0.1"/>
  <path d="M 82.08197149999998,50.03103349999998 L 76.8299158481808,100.0" fill="none" stroke="rgb(178,0,0)" stroke-width="0.1"/>
  <path d="M 99.99999999999997,50.969581449289706 L 0.0,45.72873725874018" fill="none" stroke="rgb(178,0,0)" stroke-width="0.1"/>
  <path d="M 79.73297149999999,62.81703349999998 L 99.62297149999998,64.90703349999998" fill="none" stroke="rgb(178,0,0)" stroke-width="0.1"/>
  <path d="M 81.08197149999998,37.06903349999999 L 99.99999999999997,37.06903349999999" fill="none" stroke="rgb(178,0,0)" stroke-width="0.1"/>
 </g>
 <g id="layerPUB-TEXT" inkscape:groupmode="layer" inkscape:label="PUB-TEXT">
  <text fill="rgb(178,178,0)" font-family="Noto Sans CJK SC" font-size="2" transform="rotate(-0.0,52.3479715,30.270033499999982)" x="52.3479715" y="30.270033499999982">
   (不上人平屋面)
  </text>
  <text fill="rgb(178,178,0)" font-family="Noto Sans CJK SC" font-size="2" transform="rotate(-354.0,58.102971499999995,60.959033499999975)" x="58.102971499999995" y="60.959033499999975">
   建筑找坡
  </text>
 </g>
 <g id="layerPUB_HATCH" inkscape:groupmode="layer" inkscape:label="PUB_HATCH">
  <path d="M 38.61697351181499,100.0 L 38.854971500000005,97.73503349999999" fill="none" stroke="rgb(89,89,89)" stroke-width="0.1"/>
  <path d="M 38.854971500000005,97.73503349999999 L 34.876971499999996,97.31703349999998" fill="none" stroke="rgb(89,89,89)" stroke-width="0.1"/>
  <path d="M 34.876971499999996,97.31703349999998 L 34.595050937657106,100.0" fill="none" stroke="rgb(89,89,89)" stroke-width="0.1"/>
  <path d="M 39.88097149999999,49.822033499999975 L 43.87597149999999,50.03103349999998" fill="none" stroke="rgb(89,89,89)" stroke-width="0.1"/>
  <path d="M 43.87597149999999,50.03103349999998 L 44.084971499999995,46.03703349999998" fill="none" stroke="rgb(89,89,89)" stroke-width="0.1"/>
  <path d="M 44.084971499999995,46.03703349999998 L 40.090971499999995,45.8270335" fill="none" stroke="rgb(89,89,89)" stroke-width="0.1"/>
  <path d="M 40.090971499999995,45.8270335 L 39.88097149999999,49.822033499999975" fill="none" stroke="rgb(89,89,89)" stroke-width="0.1"/>
 </g>
 <g id="layerPUB_TEXT" inkscape:groupmode="layer" inkscape:label="PUB_TEXT">
  <text fill="rgb(0,0,0)" font-family="Noto Sans CJK SC" font-size="2" transform="rotate(-0.0,51.35797149999999,25.860033499999986)" x="51.35797149999999" y="25.860033499999986">
   3.400(
  </text>
  <text fill="rgb(0,0,0)" font-family="Noto Sans CJK SC" font-size="2" transform="rotate(-0.0,61.7579715,25.860033499999986)" x="61.7579715" y="25.860033499999986">
   结构标高
  </text>
  <text fill="rgb(0,0,0)" font-family="Noto Sans CJK SC" font-size="2" transform="rotate(-0.0,71.58797149999998,25.860033499999986)" x="71.58797149999998" y="25.860033499999986">
   )
  </text>
  <text fill="rgb(0,0,0)" font-family="Noto Sans CJK SC" font-size="2" transform="rotate(-0.0,94.5429715,7.6190335000000005)" x="94.5429715" y="7.6190335000000005">
   4.700
  </text>
  <text fill="rgb(0,0,0)" font-family="Noto Sans CJK SC" font-size="2" transform="rotate(-0.0,77.5919715,31.185033500000003)" x="77.5919715" y="31.185033500000003">
   1%
  </text>
  <text fill="rgb(0,0,0)" font-family="Noto Sans CJK SC" font-size="2" transform="rotate(-0.0,53.598971500000005,57.9350335)" x="53.598971500000005" y="57.9350335">
   2%
  </text>
  <text fill="rgb(0,0,0)" font-family="Noto Sans CJK SC" font-size="2" transform="rotate(-0.0,74.28097149999999,84.36003349999999)" x="74.28097149999999" y="84.36003349999999">
   1%
  </text>
  <text fill="rgb(0,0,0)" font-family="Noto Sans CJK SC" font-size="2" transform="rotate(-0.0,99.0979715,92.2320335)" x="99.0979715" y="92.2320335">
   3.522
  </text>
  <text fill="rgb(0,0,0)" font-family="Noto Sans CJK SC" font-size="2" transform="rotate(-0.0,94.5429715,44.6190335)" x="94.5429715" y="44.6190335">
   4.700
  </text>
  <text fill="rgb(0,0,0)" font-family="Noto Sans CJK SC" font-size="2" transform="rotate(-0.0,89.26097150000001,96.8090335)" x="89.26097150000001" y="96.8090335">
   4.700
  </text>
  <text fill="rgb(0,0,0)" font-family="Noto Sans CJK SC" font-size="2" transform="rotate(-0.0,93.1289715,60.0120335)" x="93.1289715" y="60.0120335">
   4.700
  </text>
  <text fill="rgb(0,0,0)" font-family="Noto Sans CJK SC" font-size="2" transform="rotate(-0.0,8.806971500000003,53.50303349999999)" x="8.806971500000003" y="53.50303349999999">
   600
  </text>
  <text fill="rgb(0,0,0)" font-family="Noto Sans CJK SC" font-size="2" transform="rotate(-0.0,14.806971500000003,53.50303349999999)" x="14.806971500000003" y="53.50303349999999">
   ，乙级防火玻璃
  </text>
  <text fill="rgb(0,0,0)" font-family="Noto Sans CJK SC" font-size="2" transform="rotate(-0.0,17.406971499999997,59.10303349999998)" x="17.406971499999997" y="59.10303349999998">
   底标高为
  </text>
  <text fill="rgb(0,0,0)" font-family="Noto Sans CJK SC" font-size="2" transform="rotate(-0.0,27.23697149999998,59.10303349999998)" x="27.23697149999998" y="59.10303349999998">
   6.0
  </text>
 </g>
 <g id="layerWALL" inkscape:groupmode="layer" inkscape:label="WALL">
  <path d="M 42.07797149999999,0.0 L 42.07797149999999,5.069033499999989" fill="none" instance-id="-1" semantic-id="1" stroke="rgb(0,0,0)" stroke-width="0.1"/>
  <path d="M 42.07797149999999,5.069033499999989 L 44.07797149999999,5.069033499999989" fill="none" instance-id="-1" semantic-id="1" stroke="rgb(0,0,0)" stroke-width="0.1"/>
  <path d="M 44.07797149999999,5.069033499999989 L 44.07797149999999,0.0" fill="none" instance-id="-1" semantic-id="1" stroke="rgb(0,0,0)" stroke-width="0.1"/>
  <path d="M 44.07797149999999,48.03903349999999 L 44.07797149999999,46.16403349999999" fill="none" instance-id="-1" semantic-id="1" stroke="rgb(0,0,0)" stroke-width="0.1"/>
  <path d="M 44.07797149999999,46.0360335 L 44.07797149999999,32.06903349999999" fill="none" instance-id="-1" semantic-id="1" stroke="rgb(0,0,0)" stroke-width="0.1"/>
  <path d="M 44.07797149999999,32.06903349999999 L 42.07797149999999,32.06903349999999" fill="none" instance-id="-1" semantic-id="1" stroke="rgb(0,0,0)" stroke-width="0.1"/>
  <path d="M 42.07797149999999,32.06903349999999 L 42.07797149999999,45.931033499999984" fill="none" instance-id="-1" semantic-id="1" stroke="rgb(0,0,0)" stroke-width="0.1"/>
  <path d="M 42.07797149999999,12.069033499999989 L 42.07797149999999,14.069033499999989" fill="none" instance-id="-1" semantic-id="1" stroke="rgb(0,0,0)" stroke-width="0.1"/>
  <path d="M 42.07797149999999,14.069033499999989 L 44.07797149999999,14.069033499999989" fill="none" instance-id="-1" semantic-id="1" stroke="rgb(0,0,0)" stroke-width="0.1"/>
  <path d="M 44.07797149999999,14.069033499999989 L 44.07797149999999,12.069033499999989" fill="none" instance-id="-1" semantic-id="1" stroke="rgb(0,0,0)" stroke-width="0.1"/>
  <path d="M 44.07797149999999,12.069033499999989 L 42.07797149999999,12.069033499999989" fill="none" instance-id="-1" semantic-id="1" stroke="rgb(0,0,0)" stroke-width="0.1"/>
  <path d="M 38.854971500000005,97.73503349999999 L 39.586971500000004,90.7740335" fill="none" instance-id="-1" semantic-id="1" stroke="rgb(0,0,0)" stroke-width="0.1"/>
  <path d="M 39.586971500000004,90.7740335 L 37.5979715,90.5650335" fill="none" instance-id="-1" semantic-id="1" stroke="rgb(0,0,0)" stroke-width="0.1"/>
  <path d="M 37.5979715,90.5650335 L 36.8659715,97.52603349999998" fill="none" instance-id="-1" semantic-id="1" stroke="rgb(0,0,0)" stroke-width="0.1"/>
  <path d="M 41.86897149999999,49.92603349999999 L 40.4199715,63.713033499999995" fill="none" instance-id="-1" semantic-id="1" stroke="rgb(0,0,0)" stroke-width="0.1"/>
  <path d="M 40.4199715,63.713033499999995 L 42.40897150000001,63.9220335" fill="none" instance-id="-1" semantic-id="1" stroke="rgb(0,0,0)" stroke-width="0.1"/>
  <path d="M 42.40897150000001,63.9220335 L 43.86897149999999,50.03103349999998" fill="none" instance-id="-1" semantic-id="1" stroke="rgb(0,0,0)" stroke-width="0.1"/>
  <path d="M 43.88197149999999,49.9040335 L 44.07797149999999,48.03903349999999" fill="none" instance-id="-1" semantic-id="1" stroke="rgb(0,0,0)" stroke-width="0.1"/>
  <path d="M 40.3189715,83.81203349999998 L 40.52797150000001,81.82303349999998" fill="none" instance-id="-1" semantic-id="1" stroke="rgb(0,0,0)" stroke-width="0.1"/>
  <path d="M 40.52797150000001,81.82303349999998 L 38.5389715,81.61403349999998" fill="none" instance-id="-1" semantic-id="1" stroke="rgb(0,0,0)" stroke-width="0.1"/>
  <path d="M 38.5389715,81.61403349999998 L 38.328971499999994,83.60303349999998" fill="none" instance-id="-1" semantic-id="1" stroke="rgb(0,0,0)" stroke-width="0.1"/>
  <path d="M 38.328971499999994,83.60303349999998 L 40.3189715,83.81203349999998" fill="none" instance-id="-1" semantic-id="1" stroke="rgb(0,0,0)" stroke-width="0.1"/>
  <path d="M 30.588971499999985,99.88303349999998 L 30.5766703780414,100.0" fill="none" instance-id="-1" semantic-id="1" stroke="rgb(0,0,0)" stroke-width="0.1"/>
  <path d="M 32.68297149999998,99.09803349999999 L 34.66797149999999,99.30603349999998" fill="none" instance-id="-1" semantic-id="1" stroke="rgb(0,0,0)" stroke-width="0.1"/>
  <path d="M 30.588971499999985,99.88303349999998 L 30.693971500000004,98.88903349999998" fill="none" instance-id="-1" semantic-id="1" stroke="rgb(0,0,0)" stroke-width="0.1"/>
  <path d="M 30.693971500000004,98.88903349999998 L 32.68297149999998,99.09803349999999" fill="none" instance-id="-1" semantic-id="1" stroke="rgb(0,0,0)" stroke-width="0.1"/>
 </g>
 <g id="layerWINDOW" inkscape:groupmode="layer" inkscape:label="WINDOW">
  <path d="M 44.07797149999999,14.069033499999989 L 42.07797149999999,14.069033499999989" fill="none" instance-id="3" semantic-id="9" stroke="rgb(0,178,178)" stroke-width="0.1"/>
  <path d="M 42.07797149999999,32.06903349999999 L 44.07797149999999,32.06903349999999" fill="none" instance-id="3" semantic-id="9" stroke="rgb(0,178,178)" stroke-width="0.1"/>
  <path d="M 42.74497149999999,14.069033499999989 L 42.74497149999999,32.06903349999999" fill="none" instance-id="3" semantic-id="9" stroke="rgb(0,178,178)" stroke-width="0.1"/>
  <path d="M 43.41197149999999,14.069033499999989 L 43.41197149999999,32.06903349999999" fill="none" instance-id="3" semantic-id="9" stroke="rgb(0,178,178)" stroke-width="0.1"/>
  <path d="M 44.07797149999999,32.06903349999999 L 44.07797149999999,14.069033499999989" fill="none" instance-id="3" semantic-id="9" stroke="rgb(0,178,178)" stroke-width="0.1"/>
  <path d="M 42.07797149999999,32.06903349999999 L 42.07797149999999,14.069033499999989" fill="none" instance-id="3" semantic-id="9" stroke="rgb(0,178,178)" stroke-width="0.1"/>
  <path d="M 42.07797149999999,5.069033499999989 L 44.07797149999999,5.069033499999989" fill="none" instance-id="2" semantic-id="9" stroke="rgb(0,178,178)" stroke-width="0.1"/>
  <path d="M 44.07797149999999,12.069033499999989 L 42.07797149999999,12.069033499999989" fill="none" instance-id="2" semantic-id="9" stroke="rgb(0,178,178)" stroke-width="0.1"/>
  <path d="M 43.41197149999999,5.069033499999989 L 43.41197149999999,12.069033499999989" fill="none" instance-id="2" semantic-id="9" stroke="rgb(0,178,178)" stroke-width="0.1"/>
  <path d="M 42.74497149999999,5.069033499999989 L 42.74497149999999,12.069033499999989" fill="none" instance-id="2" semantic-id="9" stroke="rgb(0,178,178)" stroke-width="0.1"/>
  <path d="M 42.07797149999999,12.069033499999989 L 42.07797149999999,5.069033499999989" fill="none" instance-id="2" semantic-id="9" stroke="rgb(0,178,178)" stroke-width="0.1"/>
  <path d="M 44.07797149999999,12.069033499999989 L 44.07797149999999,5.069033499999989" fill="none" instance-id="2" semantic-id="9" stroke="rgb(0,178,178)" stroke-width="0.1"/>
  <path d="M 40.52797150000001,81.82303349999998 L 38.5389715,81.61403349999998" fill="none" instance-id="4" semantic-id="9" stroke="rgb(0,178,178)" stroke-width="0.1"/>
  <path d="M 40.4199715,63.713033499999995 L 42.40897150000001,63.9220335" fill="none" instance-id="4" semantic-id="9" stroke="rgb(0,178,178)" stroke-width="0.1"/>
  <path d="M 39.201971499999985,81.6840335 L 41.082971499999985,63.78203349999998" fill="none" instance-id="4" semantic-id="9" stroke="rgb(0,178,178)" stroke-width="0.1"/>
  <path d="M 39.864971499999996,81.75303349999999 L 41.745971499999996,63.852033499999976" fill="none" instance-id="4" semantic-id="9" stroke="rgb(0,178,178)" stroke-width="0.1"/>
  <path d="M 42.40897150000001,63.9220335 L 40.52797150000001,81.82303349999998" fill="none" instance-id="4" semantic-id="9" stroke="rgb(0,178,178)" stroke-width="0.1"/>
  <path d="M 40.4199715,63.713033499999995 L 38.5389715,81.61403349999998" fill="none" instance-id="4" semantic-id="9" stroke="rgb(0,178,178)" stroke-width="0.1"/>
  <path d="M 37.5979715,90.5650335 L 39.586971500000004,90.7740335" fill="none" instance-id="5" semantic-id="9" stroke="rgb(0,178,178)" stroke-width="0.1"/>
  <path d="M 40.3189715,83.81203349999998 L 38.328971499999994,83.60303349999998" fill="none" instance-id="5" semantic-id="9" stroke="rgb(0,178,178)" stroke-width="0.1"/>
  <path d="M 38.92397149999999,90.70403349999998 L 39.65497149999999,83.74203349999999" fill="none" instance-id="5" semantic-id="9" stroke="rgb(0,178,178)" stroke-width="0.1"/>
  <path d="M 38.26097149999998,90.63403349999999 L 38.991971500000005,83.6730335" fill="none" instance-id="5" semantic-id="9" stroke="rgb(0,178,178)" stroke-width="0.1"/>
  <path d="M 38.328971499999994,83.60303349999998 L 37.5979715,90.5650335" fill="none" instance-id="5" semantic-id="9" stroke="rgb(0,178,178)" stroke-width="0.1"/>
  <path d="M 40.3189715,83.81203349999998 L 39.586971500000004,90.7740335" fill="none" instance-id="5" semantic-id="9" stroke="rgb(0,178,178)" stroke-width="0.1"/>
 </g>
 <g id="layerWINDOW_TEXT" inkscape:groupmode="layer" inkscape:label="WINDOW_TEXT">
  <text fill="rgb(0,0,0)" font-family="Noto Sans CJK SC" font-size="2" transform="rotate(-90.0,48.31597149999999,24.769033499999978)" x="48.31597149999999" y="24.769033499999978">
   C9
  </text>
  <text fill="rgb(0,0,0)" font-family="Noto Sans CJK SC" font-size="2" transform="rotate(-90.0,48.63097149999999,10.546033499999993)" x="48.63097149999999" y="10.546033499999993">
   C8
  </text>
  <text fill="rgb(0,0,0)" font-family="Noto Sans CJK SC" font-size="2" transform="rotate(-84.0,45.50497149999998,75.0060335)" x="45.50497149999998" y="75.0060335">
   C9
  </text>
  <text fill="rgb(0,0,0)" font-family="Noto Sans CJK SC" font-size="2" transform="rotate(-84.0,44.128971500000006,89.84703349999998)" x="44.128971500000006" y="89.84703349999998">
   C8
  </text>
 </g>
 <g id="layer面积" inkscape:groupmode="layer" inkscape:label="面积">
  <path d="M 99.99999999999997,1.069033499999989 L 83.08197149999998,1.069033499999989" fill="none" instance-id="-1" semantic-id="1" stroke="rgb(178,178,0)" stroke-width="0.1"/>
  <path d="M 99.99999999999997,1.319033499999989 L 83.33197149999998,1.319033499999989" fill="none" instance-id="-1" semantic-id="1" stroke="rgb(0,0,178)" stroke-width="0.1"/>
  <path d="M 81.08197149999998,0.0 L 81.08197149999998,38.06903349999999" fill="none" instance-id="-1" semantic-id="1" stroke="rgb(178,178,0)" stroke-width="0.1"/>
  <path d="M 80.83197149999998,0.0 L 80.83197149999998,38.31903349999999" fill="none" instance-id="-1" semantic-id="1" stroke="rgb(0,0,178)" stroke-width="0.1"/>
  <path d="M 83.08197149999998,1.069033499999989 L 83.08197149999998,36.06903349999999" fill="none" instance-id="-1" semantic-id="1" stroke="rgb(178,178,0)" stroke-width="0.1"/>
  <path d="M 83.33197149999998,1.319033499999989 L 83.33197149999998,35.81903349999999" fill="none" instance-id="-1" semantic-id="1" stroke="rgb(0,0,178)" stroke-width="0.1"/>
  <path d="M 89.10276273684227,100.0 L 77.95897149999999,98.82903349999998" fill="none" instance-id="-1" semantic-id="1" stroke="rgb(178,178,0)" stroke-width="0.1"/>
  <path d="M 91.49268897236979,100.0 L 78.23297149999999,98.6060335" fill="none" instance-id="-1" semantic-id="1" stroke="rgb(0,0,178)" stroke-width="0.1"/>
  <path d="M 77.95897149999999,98.82903349999998 L 81.6169715,64.02103349999999" fill="none" instance-id="-1" semantic-id="1" stroke="rgb(178,178,0)" stroke-width="0.1"/>
  <path d="M 78.23297149999999,98.6060335 L 81.83997150000002,64.29503349999999" fill="none" instance-id="-1" semantic-id="1" stroke="rgb(0,0,178)" stroke-width="0.1"/>
  <path d="M 79.8369715,61.822033499999975 L 75.82497285473224,100.0" fill="none" instance-id="-1" semantic-id="1" stroke="rgb(178,178,0)" stroke-width="0.1"/>
  <path d="M 79.6149715,61.5480335 L 75.57332066685336,100.0" fill="none" instance-id="-1" semantic-id="1" stroke="rgb(0,0,178)" stroke-width="0.1"/>
  <path d="M 99.4919715,66.15103349999998 L 95.93453006142349,100.0" fill="none" instance-id="-1" semantic-id="1" stroke="rgb(0,0,178)" stroke-width="0.1"/>
  <path d="M 99.7279715,63.91303349999998 L 99.51897149999999,65.90203349999999" fill="none" instance-id="-1" semantic-id="1" stroke="rgb(178,178,0)" stroke-width="0.1"/>
  <path d="M 99.99999999999997,63.70881940229907 L 99.74097149999997,66.1770335" fill="none" instance-id="-1" semantic-id="1" stroke="rgb(0,0,178)" stroke-width="0.1"/>
  <path d="M 99.7279715,63.91303349999998 L 79.8369715,61.822033499999975" fill="none" instance-id="-1" semantic-id="1" stroke="rgb(178,178,0)" stroke-width="0.1"/>
  <path d="M 99.99999999999997,63.689826360499325 L 79.6149715,61.5480335" fill="none" instance-id="-1" semantic-id="1" stroke="rgb(0,0,178)" stroke-width="0.1"/>
  <path d="M 99.51897149999999,65.90203349999999 L 81.6169715,64.02103349999999" fill="none" instance-id="-1" semantic-id="1" stroke="rgb(178,178,0)" stroke-width="0.1"/>
  <path d="M 99.74097149999997,66.1770335 L 81.83997150000002,64.29503349999999" fill="none" instance-id="-1" semantic-id="1" stroke="rgb(0,0,178)" stroke-width="0.1"/>
  <path d="M 99.99999999999997,38.06903349999999 L 81.08197149999998,38.06903349999999" fill="none" instance-id="-1" semantic-id="1" stroke="rgb(178,178,0)" stroke-width="0.1"/>
  <path d="M 99.99999999999997,38.31903349999999 L 80.83197149999998,38.31903349999999" fill="none" instance-id="-1" semantic-id="1" stroke="rgb(0,0,178)" stroke-width="0.1"/>
  <path d="M 99.99999999999997,36.06903349999999 L 83.08197149999998,36.06903349999999" fill="none" instance-id="-1" semantic-id="1" stroke="rgb(178,178,0)" stroke-width="0.1"/>
  <path d="M 99.99999999999997,35.81903349999999 L 83.33197149999998,35.81903349999999" fill="none" instance-id="-1" semantic-id="1" stroke="rgb(0,0,178)" stroke-width="0.1"/>
  <path d="M 92.45697149999998,50.574033499999985 L 92.45697149999998,38.31903349999999" fill="none" instance-id="-1" semantic-id="1" stroke="rgb(0,0,178)" stroke-width="0.1"/>
  <path d="M 90.45697149999998,50.4700335 L 90.45697149999998,38.31903349999999" fill="none" instance-id="-1" semantic-id="1" stroke="rgb(0,0,178)" stroke-width="0.1"/>
  <path d="M 92.45697149999998,50.574033499999985 L 91.17597149999997,62.76303349999998" fill="none" instance-id="-1" semantic-id="1" stroke="rgb(0,0,178)" stroke-width="0.1"/>
  <path d="M 90.45697149999998,50.4700335 L 89.1869715,62.5540335" fill="none" instance-id="-1" semantic-id="1" stroke="rgb(0,0,178)" stroke-width="0.1"/>
 </g>
</svg>