<?xml version="1.0" encoding="utf-8"?>
<svg style="background-color: #000;" version="1.1" viewBox="0 0 100.0 100.0" xmlns="http://www.w3.org/2000/svg" xmlns:inkscape="http://www.inkscape.org/namespaces/inkscape">
 <g id="layer0" inkscape:groupmode="layer" inkscape:label="0">
  <path d="M 10.3663715,23.455033500000013 L 11.620671499999986,11.521033499999987" fill="none" stroke="rgb(178,178,0)" stroke-width="0.1"/>
  <path d="M 11.829771499999993,9.532033500000011 L 12.456971499999995,3.5650334999999984" fill="none" stroke="rgb(178,178,0)" stroke-width="0.1"/>
  <path d="M 100.0,67.06317503228371 L 71.4559715,64.06303350000002" fill="none" stroke="rgb(178,178,0)" stroke-width="0.1"/>
  <path d="M 71.4559715,64.06303350000002 L 73.1289715,48.15103349999998" fill="none" stroke="rgb(178,178,0)" stroke-width="0.1"/>
  <path d="M 73.1289715,48.15103349999998 L 2.5176714999999916,40.729033500000014" fill="none" stroke="rgb(178,178,0)" stroke-width="0.1"/>
  <path d="M 2.5176714999999916,40.729033500000014 L 6.7985077414020765,0.0" fill="none" stroke="rgb(178,178,0)" stroke-width="0.1"/>
  <path d="M 71.4559715,64.06303350000002 L 78.0509715,58.723033499999985" fill="none" stroke="rgb(178,178,0)" stroke-width="0.1"/>
  <path d="M 73.1289715,48.15103349999998 L 79.7229715,42.81103350000001" fill="none" stroke="rgb(178,178,0)" stroke-width="0.1"/>
  <path d="M 2.5176714999999916,40.729033500000014 L 9.111971499999996,35.38903349999998" fill="none" stroke="rgb(178,178,0)" stroke-width="0.1"/>
  <circle cx="78.2399715" cy="43.61303349999997" fill="none" r="0.75" stroke="rgb(0,0,0)" stroke-width="0.1"/>
 </g>
 <g id="layer0-WINDOW" inkscape:groupmode="layer" inkscape:label="0-WINDOW">
  <path d="M 45.51052470288991,0.0 L 45.06597149999999,4.227033499999976" fill="none" stroke="rgb(0,88,178)" stroke-width="0.1"/>
  <path d="M 44.5439715,9.199033499999985 L 43.837971499999995,15.912033500000007" fill="none" stroke="rgb(0,88,178)" stroke-width="0.1"/>
 </g>
 <g id="layer0-卫生间隔断" inkscape:groupmode="layer" inkscape:label="0-卫生间隔断">
  <path d="M 23.61827149999999,15.999033499999996 L 14.722171499999988,15.064033499999994" fill="none" stroke="rgb(73,12,255)" stroke-width="0.1"/>
  <path d="M 29.18757149999999,16.58503350000001 L 20.236871499999992,15.644033499999978" fill="none" stroke="rgb(73,12,255)" stroke-width="0.1"/>
  <path d="M 29.208471499999987,16.386033499999996 L 20.25777149999999,15.445033499999965" fill="none" stroke="rgb(73,12,255)" stroke-width="0.1"/>
  <path d="M 28.802071499999997,27.906033499999978 L 28.958871499999987,26.415033499999993" fill="none" instance-id="2" semantic-id="3" stroke="rgb(73,12,255)" stroke-width="0.1"/>
  <path d="M 28.802071499999997,27.906033499999978 L 28.958871499999987,26.415033499999993" fill="none" instance-id="2" semantic-id="3" stroke="rgb(73,12,255)" stroke-width="0.1"/>
  <path d="M 29.00097149999999,27.927033499999993 L 29.157771499999996,26.436033500000008" fill="none" instance-id="2" semantic-id="3" stroke="rgb(73,12,255)" stroke-width="0.1"/>
  <path d="M 28.01807149999999,35.36503349999998 L 28.174871499999995,33.874033499999996" fill="none" instance-id="2" semantic-id="3" stroke="rgb(73,12,255)" stroke-width="0.1"/>
  <path d="M 28.01807149999999,35.36503349999998 L 28.174871499999995,33.874033499999996" fill="none" instance-id="2" semantic-id="3" stroke="rgb(73,12,255)" stroke-width="0.1"/>
  <path d="M 28.2169715,35.386033499999996 L 28.37377149999999,33.89403349999998" fill="none" instance-id="2" semantic-id="3" stroke="rgb(73,12,255)" stroke-width="0.1"/>
  <path d="M 20.25777149999999,15.445033499999965 L 20.236871499999992,15.644033499999978" fill="none" instance-id="1" semantic-id="3" stroke="rgb(73,12,255)" stroke-width="0.1"/>
  <path d="M 14.290671499999988,14.818033500000013 L 14.26977149999999,15.017033499999968" fill="none" instance-id="1" semantic-id="3" stroke="rgb(73,12,255)" stroke-width="0.1"/>
  <path d="M 14.26977149999999,15.017033499999968 L 19.353571499999987,18.203033500000004" fill="none" instance-id="1" semantic-id="3" stroke="rgb(73,12,255)" stroke-width="0.1"/>
  <path d="M 14.375971499999991,14.847033500000009 L 19.456971499999995,18.03203350000001" fill="none" instance-id="1" semantic-id="3" stroke="rgb(73,12,255)" stroke-width="0.1"/>
  <path d="M 14.26977149999999,15.017033499999968 L 14.375971499999991,14.847033500000009" fill="none" instance-id="1" semantic-id="3" stroke="rgb(73,12,255)" stroke-width="0.1"/>
  <path d="M 19.456971499999995,18.03203350000001 L 19.350771499999993,18.20203349999997" fill="none" instance-id="1" semantic-id="3" stroke="rgb(73,12,255)" stroke-width="0.1"/>
  <path d="M 29.00097149999999,27.927033499999993 L 28.802071499999997,27.906033499999978" fill="none" instance-id="2" semantic-id="3" stroke="rgb(73,12,255)" stroke-width="0.1"/>
  <path d="M 28.37377149999999,33.89403349999998 L 28.174871499999995,33.874033499999996" fill="none" stroke="rgb(73,12,255)" stroke-width="0.1"/>
  <path d="M 28.174871499999995,33.874033499999996 L 26.114871499999992,28.238033499999972" fill="none" instance-id="2" semantic-id="3" stroke="rgb(73,12,255)" stroke-width="0.1"/>
  <path d="M 28.36267149999999,33.80503349999998 L 26.303771499999996,28.173033499999974" fill="none" instance-id="2" semantic-id="3" stroke="rgb(73,12,255)" stroke-width="0.1"/>
  <path d="M 28.174871499999995,33.874033499999996 L 28.36267149999999,33.80503349999998" fill="none" instance-id="2" semantic-id="3" stroke="rgb(73,12,255)" stroke-width="0.1"/>
  <path d="M 26.303771499999996,28.173033499999974 L 26.115971499999986,28.241033500000015" fill="none" stroke="rgb(73,12,255)" stroke-width="0.1"/>
  <path d="M 19.456971499999995,18.03203350000001 A 6.0,6.0 0.0 0,0 20.236871499999992,15.644033499999978" fill="none" instance-id="1" semantic-id="3" stroke="rgb(73,12,255)" stroke-width="0.1"/>
  <path d="M 28.802071499999997,27.906033499999978 A 6.0,6.0 0.0 0,0 26.303771499999996,28.173033499999974" fill="none" instance-id="2" semantic-id="3" stroke="rgb(73,12,255)" stroke-width="0.1"/>
  <path d="M 47.15897149999999,27.364033500000005 L 44.248971499999996,27.058033499999965" fill="none" stroke="rgb(73,12,255)" stroke-width="0.1"/>
  <path d="M 44.248971499999996,27.058033499999965 L 44.2699715,26.85503349999999" fill="none" stroke="rgb(73,12,255)" stroke-width="0.1"/>
  <path d="M 44.2699715,26.85503349999999 L 47.1809715,27.161033499999974" fill="none" stroke="rgb(73,12,255)" stroke-width="0.1"/>
  <path d="M 47.1809715,27.161033499999974 L 47.15897149999999,27.364033500000005" fill="none" stroke="rgb(73,12,255)" stroke-width="0.1"/>
 </g>
 <g id="layer0-洁具" inkscape:groupmode="layer" inkscape:label="0-洁具">
  <path d="M 29.003171499999993,18.33903349999997 L 26.502371499999995,18.076033499999994" fill="none" instance-id="5" semantic-id="23" stroke="rgb(0,107,142)" stroke-width="0.1"/>
  <path d="M 28.477471499999993,23.34103349999998 L 25.976671499999995,23.078033500000004" fill="none" instance-id="5" semantic-id="23" stroke="rgb(0,107,142)" stroke-width="0.1"/>
  <path d="M 27.8881715,22.934033499999998 L 26.6377715,22.80303349999997" fill="none" instance-id="5" semantic-id="23" stroke="rgb(0,107,142)" stroke-width="0.1"/>
  <path d="M 28.342171499999992,18.61503349999998 L 27.091771499999993,18.483033499999976" fill="none" instance-id="5" semantic-id="23" stroke="rgb(0,107,142)" stroke-width="0.1"/>
  <path d="M 28.477471499999993,23.34103349999998 L 29.003171499999993,18.33903349999997" fill="none" instance-id="5" semantic-id="23" stroke="rgb(0,107,142)" stroke-width="0.1"/>
  <path d="M 28.162071499999996,22.733033499999976 L 28.568371499999998,18.868033499999967" fill="none" instance-id="5" semantic-id="23" stroke="rgb(0,107,142)" stroke-width="0.1"/>
  <path d="M 28.568371499999998,18.868033499999967 L 28.342171499999992,18.61503349999998" fill="none" instance-id="5" semantic-id="23" stroke="rgb(0,107,142)" stroke-width="0.1"/>
  <path d="M 27.8881715,22.934033499999998 L 28.162071499999996,22.733033499999976" fill="none" instance-id="5" semantic-id="23" stroke="rgb(0,107,142)" stroke-width="0.1"/>
  <path d="M 26.502371499999995,18.076033499999994 L 26.40677149999999,18.986033499999962" fill="none" instance-id="5" semantic-id="23" stroke="rgb(0,107,142)" stroke-width="0.1"/>
  <path d="M 26.859171499999988,19.493033499999967 L 26.40677149999999,18.986033499999962" fill="none" instance-id="5" semantic-id="23" stroke="rgb(0,107,142)" stroke-width="0.1"/>
  <path d="M 25.976671499999995,23.078033500000004 L 26.0722715,22.169033500000012" fill="none" instance-id="5" semantic-id="23" stroke="rgb(0,107,142)" stroke-width="0.1"/>
  <path d="M 26.620171499999998,21.767033499999968 L 26.0722715,22.169033500000012" fill="none" instance-id="5" semantic-id="23" stroke="rgb(0,107,142)" stroke-width="0.1"/>
  <path d="M 26.620171499999998,21.767033499999968 L 26.859171499999988,19.493033499999967" fill="none" instance-id="5" semantic-id="23" stroke="rgb(0,107,142)" stroke-width="0.1"/>
  <path d="M 26.411571499999994,22.549033500000007 L 26.432571499999995,22.349033499999962" fill="none" instance-id="5" semantic-id="23" stroke="rgb(0,107,142)" stroke-width="0.1"/>
  <path d="M 26.980471499999993,21.947033499999975 L 27.24917149999999,19.391033499999992" fill="none" instance-id="5" semantic-id="23" stroke="rgb(0,107,142)" stroke-width="0.1"/>
  <path d="M 26.817771499999992,18.684033499999998 L 26.79677149999999,18.884033499999987" fill="none" instance-id="5" semantic-id="23" stroke="rgb(0,107,142)" stroke-width="0.1"/>
  <path d="M 27.091771499999993,18.483033499999976 L 26.817771499999992,18.684033499999998" fill="none" instance-id="5" semantic-id="23" stroke="rgb(0,107,142)" stroke-width="0.1"/>
  <path d="M 26.411571499999994,22.549033500000007 L 26.6377715,22.80303349999997" fill="none" instance-id="5" semantic-id="23" stroke="rgb(0,107,142)" stroke-width="0.1"/>
  <path d="M 26.980471499999993,21.947033499999975 L 26.432571499999995,22.349033499999962" fill="none" instance-id="5" semantic-id="23" stroke="rgb(0,107,142)" stroke-width="0.1"/>
  <path d="M 27.24917149999999,19.391033499999992 L 26.79677149999999,18.884033499999987" fill="none" instance-id="5" semantic-id="23" stroke="rgb(0,107,142)" stroke-width="0.1"/>
  <path d="M 26.311171499999986,19.89503350000001 L 26.16787149999999,21.259033499999987" fill="none" instance-id="5" semantic-id="23" stroke="rgb(0,107,142)" stroke-width="0.1"/>
  <path d="M 26.16787149999999,21.259033499999987 L 25.88617149999999,21.23003349999999" fill="none" instance-id="5" semantic-id="23" stroke="rgb(0,107,142)" stroke-width="0.1"/>
  <path d="M 26.311171499999986,19.89503350000001 L 26.02957149999999,19.866033500000015" fill="none" instance-id="5" semantic-id="23" stroke="rgb(0,107,142)" stroke-width="0.1"/>
  <path d="M 26.02447149999999,22.623033499999963 L 25.774371499999987,22.59703350000001" fill="none" instance-id="5" semantic-id="23" stroke="rgb(0,107,142)" stroke-width="0.1"/>
  <path d="M 25.774371499999987,22.59703350000001 L 25.834171499999997,22.02903349999997" fill="none" instance-id="5" semantic-id="23" stroke="rgb(0,107,142)" stroke-width="0.1"/>
  <path d="M 26.084171499999997,22.05503349999998 L 26.0722715,22.169033500000012" fill="none" stroke="rgb(0,107,142)" stroke-width="0.1"/>
  <path d="M 44.492971499999996,29.2440335 L 46.93497149999999,29.500033499999972" fill="none" instance-id="8" semantic-id="28" stroke="rgb(0,107,142)" stroke-width="0.1"/>
  <path d="M 46.4639715,33.97603349999997 L 43.98897149999999,33.715033500000004" fill="none" instance-id="8" semantic-id="28" stroke="rgb(0,107,142)" stroke-width="0.1"/>
  <path d="M 46.93497149999999,29.500033499999972 L 46.4639715,33.97603349999997" fill="none" instance-id="8" semantic-id="28" stroke="rgb(0,107,142)" stroke-width="0.1"/>
  <path d="M 44.9639715,24.7680335 L 47.40497149999999,25.025033500000006" fill="none" instance-id="7" semantic-id="28" stroke="rgb(0,107,142)" stroke-width="0.1"/>
  <path d="M 47.87597149999999,20.549033500000007 L 45.39997149999999,20.289033500000016" fill="none" instance-id="7" semantic-id="28" stroke="rgb(0,107,142)" stroke-width="0.1"/>
  <path d="M 47.40497149999999,25.025033500000006 L 47.87597149999999,20.549033500000007" fill="none" instance-id="7" semantic-id="28" stroke="rgb(0,107,142)" stroke-width="0.1"/>
  <path d="M 13.028871499999994,26.824033499999985 L 15.529671499999992,27.086033499999985" fill="none" instance-id="6" semantic-id="29" stroke="rgb(0,107,142)" stroke-width="0.1"/>
  <path d="M 12.503171499999993,31.82503349999996 L 15.003971499999992,32.088033499999995" fill="none" instance-id="6" semantic-id="29" stroke="rgb(0,107,142)" stroke-width="0.1"/>
  <path d="M 13.164171499999995,31.550033499999984 L 14.414571499999994,31.681033500000012" fill="none" instance-id="6" semantic-id="29" stroke="rgb(0,107,142)" stroke-width="0.1"/>
  <path d="M 13.618171499999988,27.23003349999999 L 14.868571499999987,27.362033499999995" fill="none" instance-id="6" semantic-id="29" stroke="rgb(0,107,142)" stroke-width="0.1"/>
  <path d="M 12.503171499999993,31.82503349999996 L 13.028871499999994,26.824033499999985" fill="none" instance-id="6" semantic-id="29" stroke="rgb(0,107,142)" stroke-width="0.1"/>
  <path d="M 12.937971499999989,31.296033499999965 L 13.344171499999987,27.431033500000012" fill="none" instance-id="6" semantic-id="29" stroke="rgb(0,107,142)" stroke-width="0.1"/>
  <path d="M 13.344171499999987,27.431033500000012 L 13.618171499999988,27.23003349999999" fill="none" instance-id="6" semantic-id="29" stroke="rgb(0,107,142)" stroke-width="0.1"/>
  <path d="M 13.164171499999995,31.550033499999984 L 12.937971499999989,31.296033499999965" fill="none" instance-id="6" semantic-id="29" stroke="rgb(0,107,142)" stroke-width="0.1"/>
  <path d="M 15.529671499999992,27.086033499999985 L 15.434071499999988,27.99603350000001" fill="none" instance-id="6" semantic-id="29" stroke="rgb(0,107,142)" stroke-width="0.1"/>
  <path d="M 14.8860715,28.398033499999997 L 15.434071499999988,27.99603350000001" fill="none" instance-id="6" semantic-id="29" stroke="rgb(0,107,142)" stroke-width="0.1"/>
  <path d="M 15.003971499999992,32.088033499999995 L 15.099571499999996,31.179033500000003" fill="none" instance-id="6" semantic-id="29" stroke="rgb(0,107,142)" stroke-width="0.1"/>
  <path d="M 14.647171499999999,30.671033499999965 L 15.099571499999996,31.179033500000003" fill="none" instance-id="6" semantic-id="29" stroke="rgb(0,107,142)" stroke-width="0.1"/>
  <path d="M 14.647171499999999,30.671033499999965 L 14.8860715,28.398033499999997" fill="none" instance-id="6" semantic-id="29" stroke="rgb(0,107,142)" stroke-width="0.1"/>
  <path d="M 14.688571499999995,31.48003349999999 L 14.709571499999996,31.281033499999978" fill="none" instance-id="6" semantic-id="29" stroke="rgb(0,107,142)" stroke-width="0.1"/>
  <path d="M 14.257171499999998,30.773033499999997 L 14.525871499999994,28.217033500000014" fill="none" instance-id="6" semantic-id="29" stroke="rgb(0,107,142)" stroke-width="0.1"/>
  <path d="M 15.094771499999993,27.61503349999998 L 15.073771499999992,27.81503349999997" fill="none" instance-id="6" semantic-id="29" stroke="rgb(0,107,142)" stroke-width="0.1"/>
  <path d="M 14.868571499999987,27.362033499999995 L 15.094771499999993,27.61503349999998" fill="none" instance-id="6" semantic-id="29" stroke="rgb(0,107,142)" stroke-width="0.1"/>
  <path d="M 14.688571499999995,31.48003349999999 L 14.414571499999994,31.681033500000012" fill="none" instance-id="6" semantic-id="29" stroke="rgb(0,107,142)" stroke-width="0.1"/>
  <path d="M 14.257171499999998,30.773033499999997 L 14.709571499999996,31.281033499999978" fill="none" instance-id="6" semantic-id="29" stroke="rgb(0,107,142)" stroke-width="0.1"/>
  <path d="M 14.525871499999994,28.217033500000014 L 15.073771499999992,27.81503349999997" fill="none" instance-id="6" semantic-id="29" stroke="rgb(0,107,142)" stroke-width="0.1"/>
  <path d="M 15.338471499999997,28.905033500000002 L 15.195071499999997,30.269033499999978" fill="none" instance-id="6" semantic-id="29" stroke="rgb(0,107,142)" stroke-width="0.1"/>
  <path d="M 15.195071499999997,30.269033499999978 L 15.476771499999998,30.299033500000007" fill="none" instance-id="6" semantic-id="29" stroke="rgb(0,107,142)" stroke-width="0.1"/>
  <path d="M 15.338471499999997,28.905033500000002 L 15.620071499999995,28.935033499999975" fill="none" instance-id="6" semantic-id="29" stroke="rgb(0,107,142)" stroke-width="0.1"/>
  <path d="M 15.051771499999987,31.63303350000001 L 15.30187149999999,31.660033499999997" fill="none" instance-id="6" semantic-id="29" stroke="rgb(0,107,142)" stroke-width="0.1"/>
  <path d="M 15.30187149999999,31.660033499999997 L 15.361571499999997,31.09103349999998" fill="none" instance-id="6" semantic-id="29" stroke="rgb(0,107,142)" stroke-width="0.1"/>
  <path d="M 15.111471499999993,31.06503349999997 L 15.099571499999996,31.179033500000003" fill="none" stroke="rgb(0,107,142)" stroke-width="0.1"/>
  <path d="M 21.526671499999992,3.512033500000001 L 21.78947149999999,1.0120335000000011" fill="none" stroke="rgb(0,107,142)" stroke-width="0.1"/>
  <path d="M 16.525071499999996,2.9870334999999955 L 16.787871499999994,0.4860334999999907" fill="none" stroke="rgb(0,107,142)" stroke-width="0.1"/>
  <path d="M 16.931771499999996,2.397033499999992 L 17.063171499999996,1.147033499999992" fill="none" stroke="rgb(0,107,142)" stroke-width="0.1"/>
  <path d="M 21.25137149999999,2.8510334999999998 L 21.38277149999999,1.6010334999999998" fill="none" stroke="rgb(0,107,142)" stroke-width="0.1"/>
  <path d="M 16.525071499999996,2.9870334999999955 L 21.526671499999992,3.512033500000001" fill="none" stroke="rgb(0,107,142)" stroke-width="0.1"/>
  <path d="M 17.13277149999999,2.671033499999993 L 20.9977715,3.077033499999999" fill="none" stroke="rgb(0,107,142)" stroke-width="0.1"/>
  <path d="M 20.9977715,3.077033499999999 L 21.25137149999999,2.8510334999999998" fill="none" stroke="rgb(0,107,142)" stroke-width="0.1"/>
  <path d="M 16.931771499999996,2.397033499999992 L 17.13277149999999,2.671033499999993" fill="none" stroke="rgb(0,107,142)" stroke-width="0.1"/>
  <path d="M 21.78947149999999,1.0120335000000011 L 20.88017149999999,0.9160334999999975" fill="none" stroke="rgb(0,107,142)" stroke-width="0.1"/>
  <path d="M 20.372871499999988,1.3680334999999957 L 20.88017149999999,0.9160334999999975" fill="none" stroke="rgb(0,107,142)" stroke-width="0.1"/>
  <path d="M 16.787871499999994,0.4860334999999907 L 17.6972715,0.5810334999999895" fill="none" stroke="rgb(0,107,142)" stroke-width="0.1"/>
  <path d="M 18.09937149999999,1.1290334999999914 L 17.6972715,0.5810334999999895" fill="none" stroke="rgb(0,107,142)" stroke-width="0.1"/>
  <path d="M 18.09937149999999,1.1290334999999914 L 20.372871499999988,1.3680334999999957" fill="none" stroke="rgb(0,107,142)" stroke-width="0.1"/>
  <path d="M 17.316771499999987,0.921033499999993 L 17.516571499999998,0.9420334999999795" fill="none" stroke="rgb(0,107,142)" stroke-width="0.1"/>
  <path d="M 17.918671499999988,1.4900334999999814 L 20.4746715,1.758033499999982" fill="none" stroke="rgb(0,107,142)" stroke-width="0.1"/>
  <path d="M 21.181771499999996,1.3270334999999989 L 20.981971499999986,1.3060334999999839" fill="none" stroke="rgb(0,107,142)" stroke-width="0.1"/>
  <path d="M 21.38277149999999,1.6010334999999998 L 21.181771499999996,1.3270334999999989" fill="none" stroke="rgb(0,107,142)" stroke-width="0.1"/>
  <path d="M 17.316771499999987,0.921033499999993 L 17.063171499999996,1.147033499999992" fill="none" stroke="rgb(0,107,142)" stroke-width="0.1"/>
  <path d="M 17.918671499999988,1.4900334999999814 L 17.516571499999998,0.9420334999999795" fill="none" stroke="rgb(0,107,142)" stroke-width="0.1"/>
  <path d="M 20.4746715,1.758033499999982 L 20.981971499999986,1.3060334999999839" fill="none" stroke="rgb(0,107,142)" stroke-width="0.1"/>
  <path d="M 19.970771499999998,0.8200334999999939 L 18.60667149999999,0.6770334999999932" fill="none" stroke="rgb(0,107,142)" stroke-width="0.1"/>
  <path d="M 18.60667149999999,0.6770334999999932 L 18.636271499999992,0.3950334999999825" fill="none" stroke="rgb(0,107,142)" stroke-width="0.1"/>
  <path d="M 19.970771499999998,0.8200334999999939 L 20.0003715,0.539033499999988" fill="none" stroke="rgb(0,107,142)" stroke-width="0.1"/>
  <path d="M 17.242571499999997,0.5340334999999925 L 17.26887149999999,0.2840334999999925" fill="none" stroke="rgb(0,107,142)" stroke-width="0.1"/>
  <path d="M 17.26887149999999,0.2840334999999925 L 17.837171499999997,0.34303349999999" fill="none" stroke="rgb(0,107,142)" stroke-width="0.1"/>
  <path d="M 17.810971499999994,0.59303349999999 L 17.6972715,0.5810334999999895" fill="none" stroke="rgb(0,107,142)" stroke-width="0.1"/>
  <path d="M 47.8209715,6.885033499999992 L 46.74697149999999,6.772033499999992" fill="none" instance-id="3" semantic-id="23" stroke="rgb(0,107,142)" stroke-width="0.1"/>
  <path d="M 46.7169715,7.059033499999998 L 47.7909715,7.172033499999998" fill="none" instance-id="3" semantic-id="23" stroke="rgb(0,107,142)" stroke-width="0.1"/>
  <path d="M 46.74697149999999,6.772033499999992 L 46.7169715,7.059033499999998" fill="none" instance-id="3" semantic-id="23" stroke="rgb(0,107,142)" stroke-width="0.1"/>
  <path d="M 47.8209715,6.885033499999992 L 47.7909715,7.172033499999998" fill="none" instance-id="3" semantic-id="23" stroke="rgb(0,107,142)" stroke-width="0.1"/>
  <path d="M 44.484971499999986,29.251033500000005 A 0.26244475609163453,0.26244475609163453 0.0 0,0 44.42997149999999,29.773033499999997" fill="none" instance-id="8" semantic-id="28" stroke="rgb(0,107,142)" stroke-width="0.1"/>
  <path d="M 43.932971499999994,30.56903349999999 A 0.581189,0.581189 0.0 0,0 44.55197149999999,29.81703349999998" fill="none" instance-id="8" semantic-id="28" stroke="rgb(0,107,142)" stroke-width="0.1"/>
  <path d="M 43.932971499999994,30.56903349999999 A 0.925204,0.925204 0.0 0,0 43.74497149999999,32.36303349999997" fill="none" instance-id="8" semantic-id="28" stroke="rgb(0,107,142)" stroke-width="0.1"/>
  <path d="M 44.12897149999999,33.235033499999986 A 0.647929,0.647929 0.0 0,0 43.74497149999999,32.36303349999997" fill="none" instance-id="8" semantic-id="28" stroke="rgb(0,107,142)" stroke-width="0.1"/>
  <path d="M 43.9369715,30.77003350000001 A 0.781189,0.781189 0.0 0,0 44.77197149999999,29.888033500000006" fill="none" instance-id="8" semantic-id="28" stroke="rgb(0,107,142)" stroke-width="0.1"/>
  <path d="M 43.93797149999999,30.77003350000001 A 0.725204,0.725204 0.0 0,0 43.8089715,32.173033499999974" fill="none" instance-id="8" semantic-id="28" stroke="rgb(0,107,142)" stroke-width="0.1"/>
  <path d="M 44.3509715,33.20503350000001 A 0.847929,0.847929 0.0 0,0 43.8089715,32.173033499999974" fill="none" instance-id="8" semantic-id="28" stroke="rgb(0,107,142)" stroke-width="0.1"/>
  <path d="M 44.0919715,33.23603349999996 A 1.75752,1.75752 0.0 0,0 44.435971499999994,29.771033499999987" fill="none" instance-id="8" semantic-id="28" stroke="rgb(0,107,142)" stroke-width="0.1"/>
  <path d="M 44.06597149999999,33.23603349999996 A 0.245343,0.245343 0.0 1,0 44.04897149999999,33.721033499999976" fill="none" instance-id="8" semantic-id="28" stroke="rgb(0,107,142)" stroke-width="0.1"/>
  <path d="M 45.01197149999999,24.237033499999995 A 0.26244475609163453,0.26244475609163453 0.0 0,0 44.956971499999995,24.759033499999987" fill="none" instance-id="7" semantic-id="28" stroke="rgb(0,107,142)" stroke-width="0.1"/>
  <path d="M 45.13997149999999,24.2200335 A 0.581189,0.581189 0.0 0,0 44.69097149999999,23.356033499999967" fill="none" instance-id="7" semantic-id="28" stroke="rgb(0,107,142)" stroke-width="0.1"/>
  <path d="M 44.879971499999996,21.562033499999984 A 0.925204,0.925204 0.0 0,0 44.69097149999999,23.356033499999967" fill="none" instance-id="7" semantic-id="28" stroke="rgb(0,107,142)" stroke-width="0.1"/>
  <path d="M 44.879971499999996,21.562033499999984 A 0.647929,0.647929 0.0 0,0 45.4369715,20.788033499999983" fill="none" instance-id="7" semantic-id="28" stroke="rgb(0,107,142)" stroke-width="0.1"/>
  <path d="M 45.36997149999999,24.1960335 A 0.781189,0.781189 0.0 0,0 44.736971499999996,23.160033499999997" fill="none" instance-id="7" semantic-id="28" stroke="rgb(0,107,142)" stroke-width="0.1"/>
  <path d="M 44.9039715,21.760033499999963 A 0.725204,0.725204 0.0 0,0 44.737971499999986,23.160033499999997" fill="none" instance-id="7" semantic-id="28" stroke="rgb(0,107,142)" stroke-width="0.1"/>
  <path d="M 44.9039715,21.760033499999963 A 0.847929,0.847929 0.0 0,0 45.6479715,20.864033500000005" fill="none" instance-id="7" semantic-id="28" stroke="rgb(0,107,142)" stroke-width="0.1"/>
  <path d="M 45.0169715,24.24003349999998 A 1.75752,1.75752 0.0 0,0 45.4009715,20.780033500000002" fill="none" instance-id="7" semantic-id="28" stroke="rgb(0,107,142)" stroke-width="0.1"/>
  <path d="M 45.45897149999999,20.297033499999998 A 0.245343,0.245343 0.0 1,0 45.37597149999999,20.775033500000006" fill="none" instance-id="7" semantic-id="28" stroke="rgb(0,107,142)" stroke-width="0.1"/>
  <path d="M 23.648071499999986,20.30503349999998 A 1.21174,1.10158 6.0 0,0 23.5110715,19.679033500000003" fill="none" instance-id="5" semantic-id="23" stroke="rgb(0,107,142)" stroke-width="0.1"/>
  <path d="M 23.383871499999998,20.889033499999982 A 1.21174,1.10158 6.0 0,0 23.648071499999986,20.30503349999998" fill="none" instance-id="5" semantic-id="23" stroke="rgb(0,107,142)" stroke-width="0.1"/>
  <path d="M 26.158771499999986,13.637033499999973 A 4.8115,4.37409 6.0 0,0 24.974071499999994,13.372033499999986" fill="none" stroke="rgb(0,107,142)" stroke-width="0.1"/>
  <path d="M 26.0264715,16.625033499999972 A 3.32113,3.01921 6.0 0,0 25.141571499999998,16.16803349999998" fill="none" stroke="rgb(0,107,142)" stroke-width="0.1"/>
  <path d="M 24.24877149999999,24.662033500000007 A 3.32113,3.01921 6.0 0,0 25.209471499999992,24.399033499999973" fill="none" instance-id="5" semantic-id="23" stroke="rgb(0,107,142)" stroke-width="0.1"/>
  <path d="M 22.448171499999987,20.868033499999967 A 1.88595,1.7145 6.0 0,0 24.059671499999993,22.072033499999975" fill="none" instance-id="5" semantic-id="23" stroke="rgb(0,107,142)" stroke-width="0.1"/>
  <path d="M 24.418071499999996,18.662033500000007 A 1.88595,1.7145 6.0 0,0 22.591471499999997,19.50403349999999" fill="none" instance-id="5" semantic-id="23" stroke="rgb(0,107,142)" stroke-width="0.1"/>
  <path d="M 22.315271499999994,25.296033499999965 A 2.26187,2.05625 6.0 0,0 24.244271499999996,26.188033500000017" fill="none" stroke="rgb(0,107,142)" stroke-width="0.1"/>
  <path d="M 25.454471499999997,14.674033500000007 A 2.26187,2.05625 6.0 0,0 23.3821715,15.146033499999987" fill="none" stroke="rgb(0,107,142)" stroke-width="0.1"/>
  <path d="M 25.834171499999997,22.02903349999997 A 0.12573,0.1143 6.0 0,0 26.084171499999997,22.05503349999998" fill="none" instance-id="5" semantic-id="23" stroke="rgb(0,107,142)" stroke-width="0.1"/>
  <path d="M 23.503671499999996,27.362033499999995 A 4.8115,4.37409 6.0 0,0 24.717471499999988,27.349033499999962" fill="none" stroke="rgb(0,107,142)" stroke-width="0.1"/>
  <path d="M 25.336471499999988,18.82503349999996 A 2.24711,2.04283 6.0 0,0 24.721171499999997,18.153033499999992" fill="none" instance-id="5" semantic-id="23" stroke="rgb(0,107,142)" stroke-width="0.1"/>
  <path d="M 24.250271499999997,22.63303350000001 A 2.24711,2.04283 6.0 0,0 24.9917715,22.104033500000014" fill="none" instance-id="5" semantic-id="23" stroke="rgb(0,107,142)" stroke-width="0.1"/>
  <path d="M 20.004271499999987,30.697033499999975 A 1.21174,1.10158 -174.0 0,0 20.26847149999999,30.113033499999972" fill="none" instance-id="6" semantic-id="29" stroke="rgb(0,107,142)" stroke-width="0.1"/>
  <path d="M 20.26847149999999,30.113033499999972 A 1.21174,1.10158 -174.0 0,0 20.13147149999999,29.487033499999995" fill="none" instance-id="6" semantic-id="29" stroke="rgb(0,107,142)" stroke-width="0.1"/>
  <path d="M 17.08827149999999,31.503033500000015 A 4.8115,4.37409 -174.0 0,0 18.302071499999997,31.49003349999998" fill="none" instance-id="6" semantic-id="29" stroke="rgb(0,107,142)" stroke-width="0.1"/>
  <path d="M 18.302071499999997,31.49003349999998 A 3.32113,3.01921 -174.0 0,0 19.2627715,31.22603349999997" fill="none" instance-id="6" semantic-id="29" stroke="rgb(0,107,142)" stroke-width="0.1"/>
  <path d="M 19.5161715,28.81503349999997 A 3.32113,3.01921 -174.0 0,0 18.631371499999986,28.3570335" fill="none" instance-id="6" semantic-id="29" stroke="rgb(0,107,142)" stroke-width="0.1"/>
  <path d="M 17.446671499999994,28.092033500000014 A 1.88595,1.7145 -174.0 0,0 15.620071499999995,28.935033499999975" fill="none" instance-id="6" semantic-id="29" stroke="rgb(0,107,142)" stroke-width="0.1"/>
  <path d="M 15.476771499999998,30.299033500000007 A 1.88595,1.7145 -174.0 0,0 17.08827149999999,31.503033500000015" fill="none" instance-id="6" semantic-id="29" stroke="rgb(0,107,142)" stroke-width="0.1"/>
  <path d="M 17.08827149999999,31.503033500000015 A 2.26187,2.05625 -174.0 0,0 15.015871499999989,31.974033499999962" fill="none" instance-id="6" semantic-id="29" stroke="rgb(0,107,142)" stroke-width="0.1"/>
  <path d="M 15.517671499999992,27.20003349999996 A 2.26187,2.05625 -174.0 0,0 17.446671499999994,28.092033500000014" fill="none" instance-id="6" semantic-id="29" stroke="rgb(0,107,142)" stroke-width="0.1"/>
  <path d="M 15.361571499999997,31.09103349999998 A 0.12573,0.1143 -174.0 0,0 15.111471499999993,31.06503349999997" fill="none" instance-id="6" semantic-id="29" stroke="rgb(0,107,142)" stroke-width="0.1"/>
  <path d="M 18.631371499999986,28.3570335 A 4.8115,4.37409 -174.0 0,0 17.446671499999994,28.092033500000014" fill="none" instance-id="6" semantic-id="29" stroke="rgb(0,107,142)" stroke-width="0.1"/>
  <path d="M 19.2627715,31.22603349999997 A 2.24711,2.04283 -174.0 0,0 20.004271499999987,30.697033499999975" fill="none" instance-id="6" semantic-id="29" stroke="rgb(0,107,142)" stroke-width="0.1"/>
  <path d="M 20.13147149999999,29.487033499999995 A 2.24711,2.04283 -174.0 0,0 19.5161715,28.81503349999997" fill="none" instance-id="6" semantic-id="29" stroke="rgb(0,107,142)" stroke-width="0.1"/>
  <path d="M 26.229271499999996,0.6680334999999786 L 26.395749629623083,0.08400824192582945" fill="none" stroke="rgb(0,107,142)" stroke-width="0.1"/>
  <path d="M 17.837171499999997,0.34303349999999 A 0.12573,0.1143 96.0 0,0 17.810971499999994,0.59303349999999" fill="none" stroke="rgb(0,107,142)" stroke-width="0.1"/>
  <path d="M 47.17697149999999,7.1070335 L 47.00897149999999,8.70403349999998" fill="none" instance-id="3" semantic-id="23" stroke="rgb(0,107,142)" stroke-width="0.1"/>
  <path d="M 47.00897149999999,8.70403349999998 L 43.52797149999999,8.3390335" fill="none" instance-id="3" semantic-id="23" stroke="rgb(0,107,142)" stroke-width="0.1"/>
  <path d="M 43.52797149999999,8.3390335 L 43.89397149999999,4.858033499999976" fill="none" instance-id="3" semantic-id="23" stroke="rgb(0,107,142)" stroke-width="0.1"/>
  <path d="M 43.89397149999999,4.858033499999976 L 47.37497149999999,5.22403349999999" fill="none" instance-id="3" semantic-id="23" stroke="rgb(0,107,142)" stroke-width="0.1"/>
  <path d="M 47.37497149999999,5.22403349999999 L 47.206971499999995,6.821033499999999" fill="none" instance-id="3" semantic-id="23" stroke="rgb(0,107,142)" stroke-width="0.1"/>
  <path d="M 43.05197149999999,9.043033499999979 L 48.02497149999999,9.56503349999997" fill="none" instance-id="3" semantic-id="23" stroke="rgb(0,107,142)" stroke-width="0.1"/>
  <path d="M 48.02497149999999,9.56503349999997 L 48.5469715,4.59303349999999" fill="none" instance-id="3" semantic-id="23" stroke="rgb(0,107,142)" stroke-width="0.1"/>
  <path d="M 48.5469715,4.59303349999999 L 43.57497149999999,4.070033499999994" fill="none" instance-id="3" semantic-id="23" stroke="rgb(0,107,142)" stroke-width="0.1"/>
  <path d="M 43.57497149999999,4.070033499999994 L 43.05197149999999,9.043033499999979" fill="none" instance-id="3" semantic-id="23" stroke="rgb(0,107,142)" stroke-width="0.1"/>
  <circle cx="45.32197149999999" cy="31.618033499999967" fill="none" instance-id="8" r="0.182654" semantic-id="28" stroke="rgb(0,107,142)" stroke-width="0.1"/>
  <circle cx="45.32197149999999" cy="31.618033499999967" fill="none" instance-id="8" r="0.123628" semantic-id="28" stroke="rgb(0,107,142)" stroke-width="0.1"/>
  <circle cx="46.26797149999999" cy="22.618033499999967" fill="none" instance-id="7" r="0.182654" semantic-id="28" stroke="rgb(0,107,142)" stroke-width="0.1"/>
  <circle cx="46.26797149999999" cy="22.618033499999967" fill="none" instance-id="7" r="0.123628" semantic-id="28" stroke="rgb(0,107,142)" stroke-width="0.1"/>
  <circle cx="47.61397149999999" cy="7.3950334999999825" fill="none" instance-id="3" r="0.144" semantic-id="23" stroke="rgb(0,107,142)" stroke-width="0.1"/>
  <circle cx="47.6869715" cy="6.571033499999999" fill="none" instance-id="3" r="0.144" semantic-id="23" stroke="rgb(0,107,142)" stroke-width="0.1"/>
  <ellipse cx="26.210071499999998" cy="19.655033500000002" fill="none" instance-id="5" rx="0.12573" ry="0.1143" semantic-id="23" stroke="rgb(0,107,142)" stroke-width="0.1" transform="rotate(6.0,26.210071499999998,19.655033500000002)"/>
  <ellipse cx="26.01887149999999" cy="21.473033499999985" fill="none" instance-id="5" rx="0.12573" ry="0.1143" semantic-id="23" stroke="rgb(0,107,142)" stroke-width="0.1" transform="rotate(6.0,26.01887149999999,21.473033499999985)"/>
  <ellipse cx="15.487471499999998" cy="28.691033500000003" fill="none" instance-id="6" rx="0.12573" ry="0.1143" semantic-id="29" stroke="rgb(0,107,142)" stroke-width="0.1" transform="rotate(-174.0,15.487471499999998,28.691033500000003)"/>
  <ellipse cx="15.296271499999989" cy="30.510033499999963" fill="none" instance-id="6" rx="0.12573" ry="0.1143" semantic-id="29" stroke="rgb(0,107,142)" stroke-width="0.1" transform="rotate(-174.0,15.296271499999989,30.510033499999963)"/>
  <ellipse cx="20.211271499999995" cy="0.7190334999999948" fill="none" rx="0.12573" ry="0.1143" stroke="rgb(0,107,142)" stroke-width="0.1" transform="rotate(96.0,20.211271499999995,0.7190334999999948)"/>
  <ellipse cx="18.3924715" cy="0.5280334999999923" fill="none" rx="0.12573" ry="0.1143" stroke="rgb(0,107,142)" stroke-width="0.1" transform="rotate(96.0,18.3924715,0.5280334999999923)"/>
 </g>
 <g id="layerAXIS" inkscape:groupmode="layer" inkscape:label="AXIS">
  <path d="M 78.1039715,67.77803349999999 L 74.71742913212336,100.0" fill="none" stroke="rgb(0,178,0)" stroke-width="0.1"/>
  <path d="M 43.29597149999999,64.12003349999998 L 39.52497177811014,100.0" fill="none" stroke="rgb(0,178,0)" stroke-width="0.1"/>
  <path d="M 7.493371499999995,60.3570335 L 3.32667957345717,100.0" fill="none" stroke="rgb(0,178,0)" stroke-width="0.1"/>
  <path d="M 78.6269715,62.80603350000001 L 76.06597149999999,87.1720335" fill="none" stroke="rgb(0,178,0)" stroke-width="0.1"/>
  <path d="M 76.32697149999998,84.68503349999997 L 100.0,87.17307012209477" fill="none" stroke="rgb(0,178,0)" stroke-width="0.1"/>
  <path d="M 65.6979715,61.447033499999975 L 63.13697149999999,85.81303350000002" fill="none" stroke="rgb(0,178,0)" stroke-width="0.1"/>
  <path d="M 78.6269715,62.80603350000001 L 76.06597149999999,87.1720335" fill="none" stroke="rgb(0,178,0)" stroke-width="0.1"/>
  <path d="M 63.39897149999999,83.3260335 L 76.32697149999998,84.68503349999997" fill="none" stroke="rgb(0,178,0)" stroke-width="0.1"/>
  <path d="M 56.74797149999999,60.5060335 L 54.1869715,84.87203349999999" fill="none" stroke="rgb(0,178,0)" stroke-width="0.1"/>
  <path d="M 65.6979715,61.447033499999975 L 63.13697149999999,85.81303350000002" fill="none" stroke="rgb(0,178,0)" stroke-width="0.1"/>
  <path d="M 54.447971499999994,82.3860335 L 53.45297149999999,82.28103349999998" fill="none" stroke="rgb(0,178,0)" stroke-width="0.1"/>
  <path d="M 63.39897149999999,83.3260335 L 64.39297149999999,83.43103350000001" fill="none" stroke="rgb(0,178,0)" stroke-width="0.1"/>
  <path d="M 54.447971499999994,82.3860335 L 63.39897149999999,83.3260335" fill="none" stroke="rgb(0,178,0)" stroke-width="0.1"/>
  <path d="M 43.81897149999999,59.147033499999964 L 41.2579715,83.5130335" fill="none" stroke="rgb(0,178,0)" stroke-width="0.1"/>
  <path d="M 56.74797149999999,60.5060335 L 54.1869715,84.87203349999999" fill="none" stroke="rgb(0,178,0)" stroke-width="0.1"/>
  <path d="M 41.51897149999999,81.02703350000002 L 54.447971499999994,82.3860335" fill="none" stroke="rgb(0,178,0)" stroke-width="0.1"/>
  <path d="M 36.359971499999986,58.36303349999997 L 33.79887149999999,82.72903350000001" fill="none" stroke="rgb(0,178,0)" stroke-width="0.1"/>
  <path d="M 43.81897149999999,59.147033499999964 L 41.2579715,83.5130335" fill="none" stroke="rgb(0,178,0)" stroke-width="0.1"/>
  <path d="M 34.060171499999996,80.24303349999997 L 33.06567149999999,80.1380335" fill="none" stroke="rgb(0,178,0)" stroke-width="0.1"/>
  <path d="M 41.51897149999999,81.02703350000002 L 42.5139715,81.1310335" fill="none" stroke="rgb(0,178,0)" stroke-width="0.1"/>
  <path d="M 34.060171499999996,80.24303349999997 L 41.51897149999999,81.02703350000002" fill="none" stroke="rgb(0,178,0)" stroke-width="0.1"/>
  <path d="M 27.4091715,57.423033499999974 L 24.848171499999992,81.78803349999998" fill="none" stroke="rgb(0,178,0)" stroke-width="0.1"/>
  <path d="M 36.359971499999986,58.36303349999997 L 33.79887149999999,82.72903350000001" fill="none" stroke="rgb(0,178,0)" stroke-width="0.1"/>
  <path d="M 25.109471499999998,79.3020335 L 24.114971499999996,79.19703349999997" fill="none" stroke="rgb(0,178,0)" stroke-width="0.1"/>
  <path d="M 34.060171499999996,80.24303349999997 L 35.05477149999999,80.34703350000001" fill="none" stroke="rgb(0,178,0)" stroke-width="0.1"/>
  <path d="M 25.109471499999998,79.3020335 L 34.060171499999996,80.24303349999997" fill="none" stroke="rgb(0,178,0)" stroke-width="0.1"/>
  <path d="M 8.015971499999992,55.38403349999999 L 5.455071499999988,79.75003349999997" fill="none" stroke="rgb(0,178,0)" stroke-width="0.1"/>
  <path d="M 27.4091715,57.423033499999974 L 24.848171499999992,81.78803349999998" fill="none" stroke="rgb(0,178,0)" stroke-width="0.1"/>
  <path d="M 5.716371499999994,77.26403349999998 L 25.109471499999998,79.3020335" fill="none" stroke="rgb(0,178,0)" stroke-width="0.1"/>
  <path d="M 7.02147149999999,55.2800335 L 4.460471499999997,79.64503350000001" fill="none" stroke="rgb(0,178,0)" stroke-width="0.1"/>
  <path d="M 8.015971499999992,55.38403349999999 L 5.455071499999988,79.75003349999997" fill="none" stroke="rgb(0,178,0)" stroke-width="0.1"/>
  <path d="M 4.721871499999992,77.15903349999996 L 3.7272714999999863,77.05503349999998" fill="none" stroke="rgb(0,178,0)" stroke-width="0.1"/>
  <path d="M 5.716371499999994,77.26403349999998 L 6.710871499999996,77.36803349999997" fill="none" stroke="rgb(0,178,0)" stroke-width="0.1"/>
  <path d="M 4.721871499999992,77.15903349999996 L 5.716371499999994,77.26403349999998" fill="none" stroke="rgb(0,178,0)" stroke-width="0.1"/>
  <path d="M 77.79097149999998,70.76203349999997 L 75.2299715,95.12803350000002" fill="none" stroke="rgb(0,178,0)" stroke-width="0.1"/>
  <path d="M 75.4909715,92.64103349999999 L 100.0,95.21733776836282" fill="none" stroke="rgb(0,178,0)" stroke-width="0.1"/>
  <path d="M 42.98297149999999,67.10303349999998 L 40.4219715,91.46903349999997" fill="none" stroke="rgb(0,178,0)" stroke-width="0.1"/>
  <path d="M 77.79097149999998,70.76203349999997 L 75.2299715,95.12803350000002" fill="none" stroke="rgb(0,178,0)" stroke-width="0.1"/>
  <path d="M 40.682971499999994,88.98303349999998 L 75.4909715,92.64103349999999" fill="none" stroke="rgb(0,178,0)" stroke-width="0.1"/>
  <path d="M 7.179771499999987,63.340033500000004 L 4.618771499999994,87.70603349999999" fill="none" stroke="rgb(0,178,0)" stroke-width="0.1"/>
  <path d="M 42.98297149999999,67.10303349999998 L 40.4219715,91.46903349999997" fill="none" stroke="rgb(0,178,0)" stroke-width="0.1"/>
  <path d="M 4.8800715,85.2200335 L 40.682971499999994,88.98303349999998" fill="none" stroke="rgb(0,178,0)" stroke-width="0.1"/>
  <path d="M 6.185171499999996,63.23603349999996 L 3.624271499999992,87.6020335" fill="none" stroke="rgb(0,178,0)" stroke-width="0.1"/>
  <path d="M 7.179771499999987,63.340033500000004 L 4.618771499999994,87.70603349999999" fill="none" stroke="rgb(0,178,0)" stroke-width="0.1"/>
  <path d="M 3.8855714999999975,85.11503349999998 L 2.8910714999999954,85.0110335" fill="none" stroke="rgb(0,178,0)" stroke-width="0.1"/>
  <path d="M 4.8800715,85.2200335 L 5.874671499999991,85.32403349999998" fill="none" stroke="rgb(0,178,0)" stroke-width="0.1"/>
  <path d="M 3.8855714999999975,85.11503349999998 L 4.8800715,85.2200335" fill="none" stroke="rgb(0,178,0)" stroke-width="0.1"/>
  <path d="M 6.185171499999996,63.23603349999996 L 2.7880714999999867,95.55803349999996" fill="none" stroke="rgb(0,178,0)" stroke-width="0.1"/>
  <path d="M 3.0493714999999924,93.07203349999997 L 68.96505428032503,100.0" fill="none" stroke="rgb(0,178,0)" stroke-width="0.1"/>
  <text fill="rgb(0,178,0)" font-family="Noto Sans CJK SC" font-size="2" transform="rotate(-354.0,65.30297149999998,82.0180335)" x="65.30297149999998" y="82.0180335">
   1300
  </text>
  <text fill="rgb(0,178,0)" font-family="Noto Sans CJK SC" font-size="2" transform="rotate(-354.0,55.66997149999999,81.0060335)" x="55.66997149999999" y="81.0060335">
   900
  </text>
  <text fill="rgb(0,178,0)" font-family="Noto Sans CJK SC" font-size="2" transform="rotate(-354.0,43.42297149999999,79.71903349999997)" x="43.42297149999999" y="79.71903349999997">
   1300
  </text>
  <text fill="rgb(0,178,0)" font-family="Noto Sans CJK SC" font-size="2" transform="rotate(-354.0,34.5366715,78.7850335)" x="34.5366715" y="78.7850335">
   750
  </text>
  <text fill="rgb(0,178,0)" font-family="Noto Sans CJK SC" font-size="2" transform="rotate(-354.0,26.33187149999999,77.9220335)" x="26.33187149999999" y="77.9220335">
   900
  </text>
  <text fill="rgb(0,178,0)" font-family="Noto Sans CJK SC" font-size="2" transform="rotate(-354.0,10.852871499999992,76.29503349999999)" x="10.852871499999992" y="76.29503349999999">
   1950
  </text>
  <text fill="rgb(0,178,0)" font-family="Noto Sans CJK SC" font-size="2" transform="rotate(-354.0,53.69697149999999,88.84303349999999)" x="53.69697149999999" y="88.84303349999999">
   3500
  </text>
  <text fill="rgb(0,178,0)" font-family="Noto Sans CJK SC" font-size="2" transform="rotate(-354.0,18.391871499999993,85.13203349999998)" x="18.391871499999993" y="85.13203349999998">
   3600
  </text>
 </g>
 <g id="layerCOLUMN" inkscape:groupmode="layer" inkscape:label="COLUMN">
  <path d="M 9.530171499999994,31.411033499999974 L 9.111971499999996,35.38903349999998" fill="none" stroke="rgb(178,178,0)" stroke-width="0.1"/>
  <path d="M 9.111971499999996,35.38903349999998 L 13.090071499999993,35.80703349999999" fill="none" stroke="rgb(178,178,0)" stroke-width="0.1"/>
  <path d="M 13.090071499999993,35.80703349999999 L 13.508171499999989,31.82903349999998" fill="none" stroke="rgb(178,178,0)" stroke-width="0.1"/>
  <path d="M 13.508171499999989,31.82903349999998 L 9.530171499999994,31.411033499999974" fill="none" stroke="rgb(178,178,0)" stroke-width="0.1"/>
  <path d="M 45.3329715,35.17403350000001 L 44.91497149999999,39.152033500000016" fill="none" stroke="rgb(178,178,0)" stroke-width="0.1"/>
  <path d="M 44.91497149999999,39.152033500000016 L 48.89297149999999,39.570033499999965" fill="none" stroke="rgb(178,178,0)" stroke-width="0.1"/>
  <path d="M 48.89297149999999,39.570033499999965 L 49.310971499999994,35.592033500000014" fill="none" stroke="rgb(178,178,0)" stroke-width="0.1"/>
  <path d="M 49.310971499999994,35.592033500000014 L 45.3329715,35.17403350000001" fill="none" stroke="rgb(178,178,0)" stroke-width="0.1"/>
  <path d="M 78.46897149999998,54.74503349999998 L 78.0509715,58.723033499999985" fill="none" stroke="rgb(178,178,0)" stroke-width="0.1"/>
  <path d="M 78.0509715,58.723033499999985 L 82.02897149999998,59.14103349999999" fill="none" stroke="rgb(178,178,0)" stroke-width="0.1"/>
  <path d="M 82.02897149999998,59.14103349999999 L 82.44697149999999,55.16303349999998" fill="none" stroke="rgb(178,178,0)" stroke-width="0.1"/>
  <path d="M 82.44697149999999,55.16303349999998 L 78.46897149999998,54.74503349999998" fill="none" stroke="rgb(178,178,0)" stroke-width="0.1"/>
  <path d="M 78.1519715,38.624033499999996 L 77.7339715,42.602033500000005" fill="none" stroke="rgb(178,178,0)" stroke-width="0.1"/>
  <path d="M 77.7339715,42.602033500000005 L 81.7119715,43.02003350000001" fill="none" stroke="rgb(178,178,0)" stroke-width="0.1"/>
  <path d="M 81.7119715,43.02003350000001 L 82.12997149999998,39.0420335" fill="none" stroke="rgb(178,178,0)" stroke-width="0.1"/>
  <path d="M 82.12997149999998,39.0420335 L 78.1519715,38.624033499999996" fill="none" stroke="rgb(178,178,0)" stroke-width="0.1"/>
 </g>
 <g id="layerDIM_SYMB" inkscape:groupmode="layer" inkscape:label="DIM_SYMB">
  <path d="M 59.587548740449066,0.0 L 59.2879715,2.8560334999999952" fill="none" stroke="rgb(0,178,0)" stroke-width="0.1"/>
 </g>
 <g id="layerDOTE" inkscape:groupmode="layer" inkscape:label="DOTE">
  <path d="M 83.22597149999999,19.047033499999998 L 100.0,20.810072507938457" fill="none" stroke="rgb(178,0,0)" stroke-width="0.1"/>
  <path d="M 0.0,49.513878122100266 L 100.0,60.02444449411979" fill="none" stroke="rgb(178,0,0)" stroke-width="0.1"/>
  <path d="M 0.2658714999999887,33.45403349999998 L 80.82197149999999,41.921033499999965" fill="none" stroke="rgb(178,0,0)" stroke-width="0.1"/>
  <path d="M 13.837143707176608,0.0 L 7.493371499999995,60.3570335" fill="none" stroke="rgb(178,0,0)" stroke-width="0.1"/>
  <path d="M 50.03531142430087,0.0 L 43.29597149999999,64.12003349999998" fill="none" stroke="rgb(178,0,0)" stroke-width="0.1"/>
  <path d="M 85.22793270148432,0.0 L 78.1039715,67.77803349999999" fill="none" stroke="rgb(178,0,0)" stroke-width="0.1"/>
 </g>
 <g id="layerPUB-TEXT" inkscape:groupmode="layer" inkscape:label="PUB-TEXT">
  <text fill="rgb(178,178,0)" font-family="Noto Sans CJK SC" font-size="2" transform="rotate(-354.0,34.23457149999999,28.60903350000001)" x="34.23457149999999" y="28.60903350000001">
   男卫
  </text>
  <text fill="rgb(178,178,0)" font-family="Noto Sans CJK SC" font-size="2" transform="rotate(-354.0,17.25567149999999,12.557033499999989)" x="17.25567149999999" y="12.557033499999989">
   女卫
  </text>
  <text fill="rgb(178,178,0)" font-family="Noto Sans CJK SC" font-size="2" transform="rotate(-0.0,65.3949715,18.19403349999999)" x="65.3949715" y="18.19403349999999">
   楼梯甲
  </text>
 </g>
 <g id="layerPUB_DIM" inkscape:groupmode="layer" inkscape:label="PUB_DIM">
  <path d="M 32.941764673859765,0.0 L 32.6681715,2.603033499999981" fill="none" stroke="rgb(0,178,0)" stroke-width="0.1"/>
  <path d="M 40.98605716916269,0.0 L 40.623971499999996,3.4390334999999936" fill="none" stroke="rgb(0,178,0)" stroke-width="0.1"/>
  <path d="M 32.92947149999999,0.11703349999999091 L 31.93497149999999,0.01203350000000114" fill="none" stroke="rgb(0,178,0)" stroke-width="0.1"/>
  <path d="M 40.8859715,0.9530334999999752 L 41.879971499999996,1.0570334999999886" fill="none" stroke="rgb(0,178,0)" stroke-width="0.1"/>
  <path d="M 32.92947149999999,0.11703349999999091 L 40.8859715,0.9530334999999752" fill="none" stroke="rgb(0,178,0)" stroke-width="0.1"/>
  <path d="M 31.93623148952564,0.0 L 31.673671499999998,2.498033499999991" fill="none" stroke="rgb(0,178,0)" stroke-width="0.1"/>
  <path d="M 32.941764673859765,0.0 L 32.6681715,2.603033499999981" fill="none" stroke="rgb(0,178,0)" stroke-width="0.1"/>
  <path d="M 31.93497149999999,0.01203350000000114 L 31.820997064285706,0.0" fill="none" stroke="rgb(0,178,0)" stroke-width="0.1"/>
  <path d="M 32.92947149999999,0.11703349999999091 L 33.92397149999999,0.2210334999999759" fill="none" stroke="rgb(0,178,0)" stroke-width="0.1"/>
  <path d="M 31.93497149999999,0.01203350000000114 L 32.92947149999999,0.11703349999999091" fill="none" stroke="rgb(0,178,0)" stroke-width="0.1"/>
  <path d="M 26.4339715,14.083033499999999 L 21.67597149999999,13.583033499999999" fill="none" stroke="rgb(0,178,0)" stroke-width="0.1"/>
  <path d="M 27.270271499999993,6.127033499999982 L 22.512171499999994,5.627033499999982" fill="none" stroke="rgb(0,178,0)" stroke-width="0.1"/>
  <path d="M 24.16227149999999,13.844033499999966 L 24.057771499999987,14.839033499999971" fill="none" stroke="rgb(0,178,0)" stroke-width="0.1"/>
  <path d="M 24.998471499999994,5.8880334999999775 L 25.1030715,4.894033499999978" fill="none" stroke="rgb(0,178,0)" stroke-width="0.1"/>
  <path d="M 24.16227149999999,13.844033499999966 L 24.998471499999994,5.8880334999999775" fill="none" stroke="rgb(0,178,0)" stroke-width="0.1"/>
  <path d="M 27.270271499999993,6.127033499999982 L 22.512171499999994,5.627033499999982" fill="none" stroke="rgb(0,178,0)" stroke-width="0.1"/>
  <path d="M 27.374771499999994,5.132033499999977 L 22.616671499999995,4.632033499999977" fill="none" stroke="rgb(0,178,0)" stroke-width="0.1"/>
  <path d="M 24.998471499999994,5.8880334999999775 L 24.893971499999992,6.883033499999982" fill="none" stroke="rgb(0,178,0)" stroke-width="0.1"/>
  <path d="M 25.1030715,4.894033499999978 L 25.207571499999986,3.8990335000000016" fill="none" stroke="rgb(0,178,0)" stroke-width="0.1"/>
  <path d="M 24.998471499999994,5.8880334999999775 L 25.1030715,4.894033499999978" fill="none" stroke="rgb(0,178,0)" stroke-width="0.1"/>
  <path d="M 30.98847149999999,18.584033499999975 L 30.438071499999992,23.820033499999965" fill="none" stroke="rgb(0,178,0)" stroke-width="0.1"/>
  <path d="M 38.944971499999994,19.420033499999988 L 38.39397149999999,24.65703350000001" fill="none" stroke="rgb(0,178,0)" stroke-width="0.1"/>
  <path d="M 30.699471499999987,21.334033499999975 L 29.704871499999996,21.23003349999999" fill="none" stroke="rgb(0,178,0)" stroke-width="0.1"/>
  <path d="M 38.65597149999999,22.170033499999988 L 39.64997149999999,22.275033500000006" fill="none" stroke="rgb(0,178,0)" stroke-width="0.1"/>
  <path d="M 30.699471499999987,21.334033499999975 L 38.65597149999999,22.170033499999988" fill="none" stroke="rgb(0,178,0)" stroke-width="0.1"/>
  <path d="M 29.993971499999986,18.479033500000014 L 29.44357149999999,23.71603349999998" fill="none" stroke="rgb(0,178,0)" stroke-width="0.1"/>
  <path d="M 30.98847149999999,18.584033499999975 L 30.438071499999992,23.820033499999965" fill="none" stroke="rgb(0,178,0)" stroke-width="0.1"/>
  <path d="M 29.704871499999996,21.23003349999999 L 28.710371499999994,21.125033499999972" fill="none" stroke="rgb(0,178,0)" stroke-width="0.1"/>
  <path d="M 30.699471499999987,21.334033499999975 L 31.69397149999999,21.439033499999994" fill="none" stroke="rgb(0,178,0)" stroke-width="0.1"/>
  <path d="M 29.704871499999996,21.23003349999999 L 30.699471499999987,21.334033499999975" fill="none" stroke="rgb(0,178,0)" stroke-width="0.1"/>
  <text fill="rgb(0,178,0)" font-family="Noto Sans CJK SC" font-size="2" transform="rotate(-354.0,16.040371499999992,0.7680335000000014)" x="16.040371499999992" y="0.7680335000000014">
   200
  </text>
  <text fill="rgb(0,178,0)" font-family="Noto Sans CJK SC" font-size="2" transform="rotate(-354.0,24.356471499999998,4.193033499999984)" x="24.356471499999998" y="4.193033499999984">
   100
  </text>
  <text fill="rgb(0,178,0)" font-family="Noto Sans CJK SC" font-size="2" transform="rotate(-84.0,22.730171499999997,13.1190335)" x="22.730171499999997" y="13.1190335">
   800
  </text>
  <text fill="rgb(0,178,0)" font-family="Noto Sans CJK SC" font-size="2" transform="rotate(-84.0,30.01547149999999,5.511033499999996)" x="30.01547149999999" y="5.511033499999996">
   100
  </text>
  <text fill="rgb(0,178,0)" font-family="Noto Sans CJK SC" font-size="2" transform="rotate(-354.0,31.4245715,19.902033500000016)" x="31.4245715" y="19.902033500000016">
   800
  </text>
  <text fill="rgb(0,178,0)" font-family="Noto Sans CJK SC" font-size="2" transform="rotate(-354.0,22.3303715,23.4700335)" x="22.3303715" y="23.4700335">
   100
  </text>
 </g>
 <g id="layerPUB_HATCH" inkscape:groupmode="layer" inkscape:label="PUB_HATCH">
  <path d="M 9.111971499999996,35.38903349999998 L 13.090071499999993,35.80703349999999" fill="none" stroke="rgb(89,89,89)" stroke-width="0.1"/>
  <path d="M 13.090071499999993,35.80703349999999 L 13.508171499999989,31.82903349999998" fill="none" stroke="rgb(89,89,89)" stroke-width="0.1"/>
  <path d="M 13.508171499999989,31.82903349999998 L 9.530171499999994,31.411033499999974" fill="none" stroke="rgb(89,89,89)" stroke-width="0.1"/>
  <path d="M 9.530171499999994,31.411033499999974 L 9.111971499999996,35.38903349999998" fill="none" stroke="rgb(89,89,89)" stroke-width="0.1"/>
  <path d="M 44.91497149999999,39.152033500000016 L 48.89297149999999,39.570033499999965" fill="none" stroke="rgb(89,89,89)" stroke-width="0.1"/>
  <path d="M 48.89297149999999,39.570033499999965 L 49.310971499999994,35.592033500000014" fill="none" stroke="rgb(89,89,89)" stroke-width="0.1"/>
  <path d="M 49.310971499999994,35.592033500000014 L 45.3329715,35.17403350000001" fill="none" stroke="rgb(89,89,89)" stroke-width="0.1"/>
  <path d="M 45.3329715,35.17403350000001 L 44.91497149999999,39.152033500000016" fill="none" stroke="rgb(89,89,89)" stroke-width="0.1"/>
  <path d="M 78.0509715,58.723033499999985 L 82.02897149999998,59.14103349999999" fill="none" stroke="rgb(89,89,89)" stroke-width="0.1"/>
  <path d="M 82.02897149999998,59.14103349999999 L 82.44697149999999,55.16303349999998" fill="none" stroke="rgb(89,89,89)" stroke-width="0.1"/>
  <path d="M 82.44697149999999,55.16303349999998 L 78.46897149999998,54.74503349999998" fill="none" stroke="rgb(89,89,89)" stroke-width="0.1"/>
  <path d="M 78.46897149999998,54.74503349999998 L 78.0509715,58.723033499999985" fill="none" stroke="rgb(89,89,89)" stroke-width="0.1"/>
  <path d="M 77.7339715,42.602033500000005 L 81.7119715,43.02003350000001" fill="none" stroke="rgb(89,89,89)" stroke-width="0.1"/>
  <path d="M 81.7119715,43.02003350000001 L 82.12997149999998,39.0420335" fill="none" stroke="rgb(89,89,89)" stroke-width="0.1"/>
  <path d="M 82.12997149999998,39.0420335 L 78.1519715,38.624033499999996" fill="none" stroke="rgb(89,89,89)" stroke-width="0.1"/>
  <path d="M 78.1519715,38.624033499999996 L 77.7339715,42.602033500000005" fill="none" stroke="rgb(89,89,89)" stroke-width="0.1"/>
 </g>
 <g id="layerQ-TOILET" inkscape:groupmode="layer" inkscape:label="Q-TOILET">
  <path d="M 23.791616470011874,0.0 L 23.401771499999995,3.7090334999999754" fill="none" stroke="rgb(0,0,178)" stroke-width="0.1"/>
  <path d="M 23.48995815647268,0.0 L 23.103371499999994,3.678033499999998" fill="none" stroke="rgb(0,0,178)" stroke-width="0.1"/>
 </g>
 <g id="layerSTAIR" inkscape:groupmode="layer" inkscape:label="STAIR">
  <path d="M 66.4419715,0.7920335000000023 L 58.90528594950176,0.0" fill="none" stroke="rgb(178,133,0)" stroke-width="0.1"/>
  <path d="M 61.6989715,3.109033499999981 L 51.828971499999994,2.072033499999975" fill="none" stroke="rgb(178,133,0)" stroke-width="0.1"/>
  <path d="M 56.5829715,5.387033500000001 L 51.53597149999999,4.8570335" fill="none" stroke="rgb(178,133,0)" stroke-width="0.1"/>
  <path d="M 51.4669715,7.665033499999993 L 51.242971499999996,7.641033499999992" fill="none" stroke="rgb(178,133,0)" stroke-width="0.1"/>
  <path d="M 52.04639615028506,0.0 L 51.22997149999999,7.771033499999987" fill="none" stroke="rgb(178,133,0)" stroke-width="0.1"/>
  <path d="M 67.12923811933129,0.0 L 67.05297149999998,0.7260334999999998" fill="none" stroke="rgb(178,133,0)" stroke-width="0.1"/>
  <path d="M 51.22997149999999,7.771033499999987 L 58.50297149999999,4.532033499999983" fill="none" stroke="rgb(178,133,0)" stroke-width="0.1"/>
  <path d="M 58.50297149999999,4.532033499999983 L 58.29197149999999,3.1990334999999845" fill="none" stroke="rgb(178,133,0)" stroke-width="0.1"/>
  <path d="M 58.29197149999999,3.1990334999999845 L 60.1599715,5.134033499999987" fill="none" stroke="rgb(178,133,0)" stroke-width="0.1"/>
  <path d="M 60.1599715,5.134033499999987 L 59.96197149999999,3.883033499999982" fill="none" stroke="rgb(178,133,0)" stroke-width="0.1"/>
  <path d="M 59.96197149999999,3.883033499999982 L 67.05297149999998,0.7260334999999998" fill="none" stroke="rgb(178,133,0)" stroke-width="0.1"/>
  <path d="M 67.12929744344711,0.0 L 67.05297149999998,0.7260334999999998" fill="none" stroke="rgb(178,133,0)" stroke-width="0.1"/>
  <path d="M 66.52591277447002,0.0 L 66.4199715,1.008033499999982" fill="none" stroke="rgb(178,133,0)" stroke-width="0.1"/>
 </g>
 <g id="layerWALL" inkscape:groupmode="layer" inkscape:label="WALL">
  <path d="M 80.45797149999999,54.95403349999998 L 80.7709715,51.971033499999976" fill="none" instance-id="-1" semantic-id="1" stroke="rgb(0,0,0)" stroke-width="0.1"/>
  <path d="M 80.7709715,51.971033499999976 L 78.7819715,51.761033499999996" fill="none" instance-id="-1" semantic-id="1" stroke="rgb(0,0,0)" stroke-width="0.1"/>
  <path d="M 78.7819715,51.761033499999996 L 78.46897149999998,54.74503349999998" fill="none" instance-id="-1" semantic-id="1" stroke="rgb(0,0,0)" stroke-width="0.1"/>
  <path d="M 80.1409715,38.8330335 L 84.2224551955037,0.0" fill="none" instance-id="-1" semantic-id="1" stroke="rgb(0,0,0)" stroke-width="0.1"/>
  <path d="M 82.12997149999998,39.0420335 L 86.23342180525518,0.0" fill="none" instance-id="-1" semantic-id="1" stroke="rgb(0,0,0)" stroke-width="0.1"/>
  <path d="M 46.3269715,35.27903349999997 L 48.20897149999999,17.377033499999982" fill="none" instance-id="-1" semantic-id="1" stroke="rgb(0,0,0)" stroke-width="0.1"/>
  <path d="M 48.316971499999994,35.48803349999997 L 50.3029715,16.592033500000014" fill="none" instance-id="-1" semantic-id="1" stroke="rgb(0,0,0)" stroke-width="0.1"/>
  <path d="M 9.530171499999994,31.411033499999974 L 10.3663715,23.455033500000013" fill="none" instance-id="-1" semantic-id="1" stroke="rgb(0,0,0)" stroke-width="0.1"/>
  <path d="M 12.513671499999987,31.725033499999995 L 13.24537149999999,24.763033500000006" fill="none" instance-id="-1" semantic-id="1" stroke="rgb(0,0,0)" stroke-width="0.1"/>
  <path d="M 48.89297149999999,39.570033499999965 L 58.837971499999995,40.616033500000015" fill="none" instance-id="-1" semantic-id="1" stroke="rgb(0,0,0)" stroke-width="0.1"/>
  <path d="M 58.837971499999995,40.616033500000015 L 59.0469715,38.62703349999998" fill="none" instance-id="-1" semantic-id="1" stroke="rgb(0,0,0)" stroke-width="0.1"/>
  <path d="M 59.0469715,38.62703349999998 L 49.10197149999999,37.58103349999999" fill="none" instance-id="-1" semantic-id="1" stroke="rgb(0,0,0)" stroke-width="0.1"/>
  <path d="M 77.9429715,40.61303349999997 L 67.9979715,39.56703349999998" fill="none" instance-id="-1" semantic-id="1" stroke="rgb(0,0,0)" stroke-width="0.1"/>
  <path d="M 67.9979715,39.56703349999998 L 67.7889715,41.55603350000001" fill="none" instance-id="-1" semantic-id="1" stroke="rgb(0,0,0)" stroke-width="0.1"/>
  <path d="M 67.7889715,41.55603350000001 L 77.7339715,42.602033500000005" fill="none" instance-id="-1" semantic-id="1" stroke="rgb(0,0,0)" stroke-width="0.1"/>
  <path d="M 82.23797149999999,57.152033500000016 L 100.0,59.0190350053777" fill="none" instance-id="-1" semantic-id="1" stroke="rgb(0,0,0)" stroke-width="0.1"/>
  <path d="M 82.02897149999998,59.14103349999999 L 100.0,61.030003403560556" fill="none" instance-id="-1" semantic-id="1" stroke="rgb(0,0,0)" stroke-width="0.1"/>
  <path d="M 13.090071499999993,35.80703349999999 L 29.49967149999999,37.53203350000001" fill="none" instance-id="-1" semantic-id="1" stroke="rgb(0,0,0)" stroke-width="0.1"/>
  <path d="M 29.49967149999999,37.53203350000001 L 29.708771499999997,35.54303349999998" fill="none" instance-id="-1" semantic-id="1" stroke="rgb(0,0,0)" stroke-width="0.1"/>
  <path d="M 29.708771499999997,35.54303349999998 L 13.2991715,33.81803350000001" fill="none" instance-id="-1" semantic-id="1" stroke="rgb(0,0,0)" stroke-width="0.1"/>
  <path d="M 45.123971499999996,37.16303349999998 L 38.65897149999999,36.48403350000001" fill="none" instance-id="-1" semantic-id="1" stroke="rgb(0,0,0)" stroke-width="0.1"/>
  <path d="M 38.65897149999999,36.48403350000001 L 38.44997149999999,38.473033499999985" fill="none" instance-id="-1" semantic-id="1" stroke="rgb(0,0,0)" stroke-width="0.1"/>
  <path d="M 38.44997149999999,38.473033499999985 L 44.91497149999999,39.152033500000016" fill="none" instance-id="-1" semantic-id="1" stroke="rgb(0,0,0)" stroke-width="0.1"/>
  <path d="M 13.349971499999995,23.769033499999978 L 28.267771499999995,25.33703349999996" fill="none" instance-id="-1" semantic-id="1" stroke="rgb(0,0,0)" stroke-width="0.1"/>
  <path d="M 13.24537149999999,24.763033500000006 L 29.157771499999996,26.436033500000008" fill="none" instance-id="-1" semantic-id="1" stroke="rgb(0,0,0)" stroke-width="0.1"/>
  <path d="M 13.349971499999995,23.769033499999978 L 10.3663715,23.455033500000013" fill="none" instance-id="-1" semantic-id="1" stroke="rgb(0,0,0)" stroke-width="0.1"/>
  <path d="M 12.561471499999996,2.570033499999994 L 12.456971499999995,3.5650334999999984" fill="none" instance-id="-1" semantic-id="1" stroke="rgb(0,0,0)" stroke-width="0.1"/>
  <path d="M 12.456971499999995,3.5650334999999984 L 15.440471499999987,3.8780334999999866" fill="none" instance-id="-1" semantic-id="1" stroke="rgb(0,0,0)" stroke-width="0.1"/>
  <path d="M 14.604271499999996,11.834033499999975 L 14.813371499999988,9.8450335" fill="none" instance-id="-1" semantic-id="1" stroke="rgb(0,0,0)" stroke-width="0.1"/>
  <path d="M 14.813371499999988,9.8450335 L 11.829771499999993,9.532033500000011" fill="none" instance-id="-1" semantic-id="1" stroke="rgb(0,0,0)" stroke-width="0.1"/>
  <path d="M 11.829771499999993,9.532033500000011 L 11.620671499999986,11.521033499999987" fill="none" instance-id="-1" semantic-id="1" stroke="rgb(0,0,0)" stroke-width="0.1"/>
  <path d="M 11.620671499999986,11.521033499999987 L 14.604271499999996,11.834033499999975" fill="none" instance-id="-1" semantic-id="1" stroke="rgb(0,0,0)" stroke-width="0.1"/>
  <path d="M 28.267771499999995,25.33703349999996 L 29.417571499999994,14.397033499999964" fill="none" instance-id="-1" semantic-id="1" stroke="rgb(0,0,0)" stroke-width="0.1"/>
  <path d="M 29.157771499999996,26.436033500000008 L 30.307571499999995,15.49603350000001" fill="none" instance-id="-1" semantic-id="1" stroke="rgb(0,0,0)" stroke-width="0.1"/>
  <path d="M 15.545071499999992,2.884033499999987 L 30.46287149999999,4.452033499999999" fill="none" instance-id="-1" semantic-id="1" stroke="rgb(0,0,0)" stroke-width="0.1"/>
  <path d="M 15.440471499999987,3.8780334999999866 L 30.35837149999999,5.446033499999999" fill="none" instance-id="-1" semantic-id="1" stroke="rgb(0,0,0)" stroke-width="0.1"/>
  <path d="M 12.561471499999996,2.570033499999994 L 12.831602824037205,0.0" fill="none" instance-id="-1" semantic-id="1" stroke="rgb(0,0,0)" stroke-width="0.1"/>
  <path d="M 15.545071499999992,2.884033499999987 L 15.848147290689724,0.0" fill="none" instance-id="-1" semantic-id="1" stroke="rgb(0,0,0)" stroke-width="0.1"/>
  <path d="M 30.46287149999999,4.452033499999999 L 30.930787383308626,0.0" fill="none" instance-id="-1" semantic-id="1" stroke="rgb(0,0,0)" stroke-width="0.1"/>
  <path d="M 31.457371499999994,4.556033499999984 L 31.936258967733337,0.0" fill="none" instance-id="-1" semantic-id="1" stroke="rgb(0,0,0)" stroke-width="0.1"/>
  <path d="M 30.307571499999995,15.49603350000001 L 31.302071499999997,15.600033499999995" fill="none" instance-id="-1" semantic-id="1" stroke="rgb(0,0,0)" stroke-width="0.1"/>
  <path d="M 31.302071499999997,15.600033499999995 L 31.4065715,14.606033499999967" fill="none" instance-id="-1" semantic-id="1" stroke="rgb(0,0,0)" stroke-width="0.1"/>
  <path d="M 31.4065715,14.606033499999967 L 30.412071499999996,14.501033500000005" fill="none" instance-id="-1" semantic-id="1" stroke="rgb(0,0,0)" stroke-width="0.1"/>
  <path d="M 48.313971499999994,16.38303350000001 L 39.362971499999986,15.44203349999998" fill="none" instance-id="-1" semantic-id="1" stroke="rgb(0,0,0)" stroke-width="0.1"/>
  <path d="M 39.362971499999986,15.44203349999998 L 39.2579715,16.437033499999984" fill="none" instance-id="-1" semantic-id="1" stroke="rgb(0,0,0)" stroke-width="0.1"/>
  <path d="M 39.2579715,16.437033499999984 L 48.20897149999999,17.377033499999982" fill="none" instance-id="-1" semantic-id="1" stroke="rgb(0,0,0)" stroke-width="0.1"/>
  <path d="M 48.313971499999994,16.38303350000001 L 50.03517394336647,0.0" fill="none" instance-id="-1" semantic-id="1" stroke="rgb(0,0,0)" stroke-width="0.1"/>
  <path d="M 50.3029715,16.592033500000014 L 52.046619428273075,0.0" fill="none" instance-id="-1" semantic-id="1" stroke="rgb(0,0,0)" stroke-width="0.1"/>
  <path d="M 30.412071499999996,14.501033500000005 L 29.417571499999994,14.397033499999964" fill="none" instance-id="-1" semantic-id="1" stroke="rgb(0,0,0)" stroke-width="0.1"/>
  <path d="M 30.35837149999999,5.446033499999999 L 30.2537715,6.441033500000003" fill="none" instance-id="-1" semantic-id="1" stroke="rgb(0,0,0)" stroke-width="0.1"/>
  <path d="M 30.2537715,6.441033500000003 L 31.248271499999987,6.545033499999988" fill="none" instance-id="-1" semantic-id="1" stroke="rgb(0,0,0)" stroke-width="0.1"/>
  <path d="M 31.248271499999987,6.545033499999988 L 31.457371499999994,4.556033499999984" fill="none" instance-id="-1" semantic-id="1" stroke="rgb(0,0,0)" stroke-width="0.1"/>
 </g>
 <g id="layerWINDOW" inkscape:groupmode="layer" inkscape:label="WINDOW">
  <path d="M 78.75597149999999,52.01003349999996 L 78.5079715,51.98403350000001" fill="none" instance-id="10" semantic-id="9" stroke="rgb(0,178,178)" stroke-width="0.1"/>
  <path d="M 78.5079715,51.98403350000001 L 79.4739715,42.7850335" fill="none" instance-id="10" semantic-id="9" stroke="rgb(0,178,178)" stroke-width="0.1"/>
  <path d="M 68.03697149999999,41.5830335 L 68.01097149999998,41.83103349999999" fill="none" instance-id="11" semantic-id="9" stroke="rgb(0,0,178)" stroke-width="0.1"/>
  <path d="M 68.01097149999998,41.83103349999999 L 58.56297149999999,40.838033499999995" fill="none" instance-id="11" semantic-id="9" stroke="rgb(0,0,178)" stroke-width="0.1"/>
  <path d="M 58.58997149999999,40.590033500000004 L 58.56297149999999,40.838033499999995" fill="none" instance-id="11" semantic-id="9" stroke="rgb(0,0,178)" stroke-width="0.1"/>
  <path d="M 38.6989715,38.499033499999996 L 38.67297149999999,38.74803349999996" fill="none" instance-id="12" semantic-id="9" stroke="rgb(0,0,178)" stroke-width="0.1"/>
  <path d="M 38.67297149999999,38.74803349999996 L 29.224971499999995,37.75503349999997" fill="none" instance-id="12" semantic-id="9" stroke="rgb(0,0,178)" stroke-width="0.1"/>
  <path d="M 29.251071499999995,37.5060335 L 29.224971499999995,37.75503349999997" fill="none" stroke="rgb(0,0,178)" stroke-width="0.1"/>
  <path d="M 79.7229715,42.81103350000001 L 81.7119715,43.02003350000001" fill="none" instance-id="10" semantic-id="9" stroke="rgb(0,178,178)" stroke-width="0.1"/>
  <path d="M 80.7709715,51.971033499999976 L 78.7819715,51.761033499999996" fill="none" instance-id="10" semantic-id="9" stroke="rgb(0,178,178)" stroke-width="0.1"/>
  <path d="M 81.0489715,42.95003349999996 L 80.10797149999999,51.90103349999998" fill="none" instance-id="10" semantic-id="9" stroke="rgb(0,178,178)" stroke-width="0.1"/>
  <path d="M 80.38597149999998,42.88003349999997 L 79.44497149999998,51.83103349999999" fill="none" instance-id="10" semantic-id="9" stroke="rgb(0,178,178)" stroke-width="0.1"/>
  <path d="M 78.7819715,51.761033499999996 L 79.7229715,42.81103350000001" fill="none" instance-id="10" semantic-id="9" stroke="rgb(0,178,178)" stroke-width="0.1"/>
  <path d="M 80.7709715,51.971033499999976 L 81.7119715,43.02003350000001" fill="none" instance-id="10" semantic-id="9" stroke="rgb(0,178,178)" stroke-width="0.1"/>
  <path d="M 58.837971499999995,40.616033500000015 L 59.0469715,38.62703349999998" fill="none" instance-id="11" semantic-id="9" stroke="rgb(0,178,178)" stroke-width="0.1"/>
  <path d="M 67.9979715,39.56703349999998 L 67.7889715,41.55603350000001" fill="none" instance-id="11" semantic-id="9" stroke="rgb(0,178,178)" stroke-width="0.1"/>
  <path d="M 58.977971499999995,39.29003349999999 L 67.92797149999998,40.23003349999999" fill="none" instance-id="11" semantic-id="9" stroke="rgb(0,178,178)" stroke-width="0.1"/>
  <path d="M 58.90797149999999,39.953033500000004 L 67.8589715,40.8930335" fill="none" instance-id="11" semantic-id="9" stroke="rgb(0,178,178)" stroke-width="0.1"/>
  <path d="M 67.7889715,41.55603350000001 L 58.837971499999995,40.616033500000015" fill="none" instance-id="11" semantic-id="9" stroke="rgb(0,178,178)" stroke-width="0.1"/>
  <path d="M 67.9979715,39.56703349999998 L 59.0469715,38.62703349999998" fill="none" instance-id="11" semantic-id="9" stroke="rgb(0,178,178)" stroke-width="0.1"/>
  <path d="M 10.3663715,23.455033500000013 L 13.349971499999995,23.769033499999978" fill="none" instance-id="13" semantic-id="9" stroke="rgb(0,178,178)" stroke-width="0.1"/>
  <path d="M 14.604271499999996,11.834033499999975 L 11.620671499999986,11.521033499999987" fill="none" instance-id="13" semantic-id="9" stroke="rgb(0,178,178)" stroke-width="0.1"/>
  <path d="M 14.604271499999996,11.834033499999975 L 13.349971499999995,23.769033499999978" fill="none" instance-id="13" semantic-id="9" stroke="rgb(0,178,178)" stroke-width="0.1"/>
  <path d="M 11.360871499999988,23.560033499999975 L 12.615271499999992,11.625033499999972" fill="none" instance-id="13" semantic-id="9" stroke="rgb(0,178,178)" stroke-width="0.1"/>
  <path d="M 12.35537149999999,23.664033500000016 L 13.609771499999994,11.73003349999999" fill="none" instance-id="13" semantic-id="9" stroke="rgb(0,178,178)" stroke-width="0.1"/>
  <path d="M 11.829771499999993,9.532033500000011 L 14.813371499999988,9.8450335" fill="none" instance-id="14" semantic-id="9" stroke="rgb(0,178,178)" stroke-width="0.1"/>
  <path d="M 15.440471499999987,3.8780334999999866 L 12.456971499999995,3.5650334999999984" fill="none" instance-id="14" semantic-id="9" stroke="rgb(0,178,178)" stroke-width="0.1"/>
  <path d="M 15.440471499999987,3.8780334999999866 L 14.813371499999988,9.8450335" fill="none" instance-id="14" semantic-id="9" stroke="rgb(0,178,178)" stroke-width="0.1"/>
  <path d="M 12.824271499999995,9.636033499999996 L 13.451471499999997,3.6690334999999834" fill="none" instance-id="14" semantic-id="9" stroke="rgb(0,178,178)" stroke-width="0.1"/>
  <path d="M 13.818771499999997,9.741033500000015 L 14.445971499999999,3.7740335000000016" fill="none" instance-id="14" semantic-id="9" stroke="rgb(0,178,178)" stroke-width="0.1"/>
  <path d="M 29.49967149999999,37.53203350000001 L 29.708771499999997,35.54303349999998" fill="none" instance-id="12" semantic-id="9" stroke="rgb(0,178,178)" stroke-width="0.1"/>
  <path d="M 38.65897149999999,36.48403350000001 L 38.44997149999999,38.473033499999985" fill="none" instance-id="12" semantic-id="9" stroke="rgb(0,178,178)" stroke-width="0.1"/>
  <path d="M 29.6390715,36.20603349999999 L 38.58997149999999,37.147033499999964" fill="none" instance-id="12" semantic-id="9" stroke="rgb(0,178,178)" stroke-width="0.1"/>
  <path d="M 29.56937149999999,36.8690335 L 38.5199715,37.810033499999975" fill="none" instance-id="12" semantic-id="9" stroke="rgb(0,178,178)" stroke-width="0.1"/>
  <path d="M 38.44997149999999,38.473033499999985 L 29.49967149999999,37.53203350000001" fill="none" instance-id="12" semantic-id="9" stroke="rgb(0,178,178)" stroke-width="0.1"/>
  <path d="M 38.65897149999999,36.48403350000001 L 29.708771499999997,35.54303349999998" fill="none" instance-id="12" semantic-id="9" stroke="rgb(0,178,178)" stroke-width="0.1"/>
  <path d="M 22.9519715,6.075033499999989 L 22.993771499999994,5.678033499999998" fill="none" instance-id="16" semantic-id="3" stroke="rgb(0,178,178)" stroke-width="0.1"/>
  <path d="M 30.751071499999995,6.493033499999996 L 30.7092715,6.891033499999992" fill="none" instance-id="16" semantic-id="3" stroke="rgb(0,178,178)" stroke-width="0.1"/>
  <path d="M 30.751071499999995,6.493033499999996 L 22.993771499999994,5.678033499999998" fill="none" instance-id="16" semantic-id="3" stroke="rgb(0,178,178)" stroke-width="0.1"/>
  <path d="M 30.7092715,6.891033499999992 L 22.9519715,6.075033499999989" fill="none" instance-id="16" semantic-id="3" stroke="rgb(0,178,178)" stroke-width="0.1"/>
  <path d="M 30.936871499999995,22.902033500000016 L 30.53907149999999,22.860033499999986" fill="none" instance-id="15" semantic-id="3" stroke="rgb(0,178,178)" stroke-width="0.1"/>
  <path d="M 31.3543715,15.103033499999981 L 31.75217149999999,15.145033500000011" fill="none" instance-id="15" semantic-id="3" stroke="rgb(0,178,178)" stroke-width="0.1"/>
  <path d="M 31.3543715,15.103033499999981 L 30.53907149999999,22.860033499999986" fill="none" instance-id="15" semantic-id="3" stroke="rgb(0,178,178)" stroke-width="0.1"/>
  <path d="M 31.75217149999999,15.145033500000011 L 30.936871499999995,22.902033500000016" fill="none" instance-id="15" semantic-id="3" stroke="rgb(0,178,178)" stroke-width="0.1"/>
  <path d="M 32.97517149999999,3.509033499999987 L 32.5773715,3.4670334999999852" fill="none" stroke="rgb(0,178,178)" stroke-width="0.1"/>
  <path d="M 32.94177428619956,0.0 L 32.5773715,3.4670334999999852" fill="none" stroke="rgb(0,178,178)" stroke-width="0.1"/>
  <path d="M 33.343988698988,0.0 L 32.97517149999999,3.509033499999987" fill="none" stroke="rgb(0,178,178)" stroke-width="0.1"/>
  <path d="M 22.9545715,6.076033499999994 A 7.8,7.8 0.0 0,0 29.91487149999999,14.449033499999985" fill="none" instance-id="16" semantic-id="3" stroke="rgb(0,178,178)" stroke-width="0.1"/>
  <path d="M 30.937071499999988,22.900033500000006 A 7.8,7.8 0.0 0,0 39.310971499999994,15.939033499999994" fill="none" instance-id="15" semantic-id="3" stroke="rgb(0,178,178)" stroke-width="0.1"/>
  <path d="M 32.975371499999994,3.506033500000001 L 33.47690368225548,3.529578873866825" fill="none" stroke="rgb(0,178,178)" stroke-width="0.1"/>
  <path d="M 33.47690368225548,3.529578873866825 L 33.97891164811834,3.520808658435101" fill="none" stroke="rgb(0,178,178)" stroke-width="0.1"/>
  <path d="M 33.97891164811834,3.520808658435101 L 34.47931534099473,3.479759192858154" fill="none" stroke="rgb(0,178,178)" stroke-width="0.1"/>
  <path d="M 34.47931534099473,3.479759192858154 L 34.976041351553064,3.4066005644998256" fill="none" stroke="rgb(0,178,178)" stroke-width="0.1"/>
  <path d="M 34.976041351553064,3.4066005644998256 L 35.46703150884021,3.301635904182035" fill="none" stroke="rgb(0,178,178)" stroke-width="0.1"/>
  <path d="M 35.46703150884021,3.301635904182035 L 35.95025140825777,3.1653001301703796" fill="none" stroke="rgb(0,178,178)" stroke-width="0.1"/>
  <path d="M 35.95025140825777,3.1653001301703796 L 36.423698841063256,2.9981581461018436" fill="none" stroke="rgb(0,178,178)" stroke-width="0.1"/>
  <path d="M 36.423698841063256,2.9981581461018436 L 36.88541209046848,2.800902500321655" fill="none" stroke="rgb(0,178,178)" stroke-width="0.1"/>
  <path d="M 36.88541209046848,2.800902500321655 L 37.333478059960626,2.5743505163278257" fill="none" stroke="rgb(0,178,178)" stroke-width="0.1"/>
  <path d="M 37.333478059960626,2.5743505163278257 L 37.766040200166614,2.3194409062130035" fill="none" stroke="rgb(0,178,178)" stroke-width="0.1"/>
  <path d="M 37.766040200166614,2.3194409062130035 L 38.18130620141574,2.037229881135943" fill="none" stroke="rgb(0,178,178)" stroke-width="0.1"/>
  <path d="M 38.18130620141574,2.037229881135943 L 38.57755542012697,1.7288867749389567" fill="none" stroke="rgb(0,178,178)" stroke-width="0.1"/>
  <path d="M 38.57755542012697,1.7288867749389567 L 38.95314600824962,1.3956891990441704" fill="none" stroke="rgb(0,178,178)" stroke-width="0.1"/>
  <path d="M 38.95314600824962,1.3956891990441704 L 39.30652171621688,1.0390177487049073" fill="none" stroke="rgb(0,178,178)" stroke-width="0.1"/>
  <path d="M 39.30652171621688,1.0390177487049073 L 39.63621834122432,0.6603502825460339" fill="none" stroke="rgb(0,178,178)" stroke-width="0.1"/>
  <path d="M 39.63621834122432,0.6603502825460339 L 39.940869794115116,0.2612557990962898" fill="none" stroke="rgb(0,178,178)" stroke-width="0.1"/>
 </g>
 <g id="layerWINDOW_TEXT" inkscape:groupmode="layer" inkscape:label="WINDOW_TEXT">
  <text fill="rgb(0,0,0)" font-family="Noto Sans CJK SC" font-size="2" transform="rotate(-84.0,78.3109715,48.947033499999975)" x="78.3109715" y="48.947033499999975">
   C3
  </text>
  <text fill="rgb(0,0,0)" font-family="Noto Sans CJK SC" font-size="2" transform="rotate(-354.0,61.0799715,45.112033499999995)" x="61.0799715" y="45.112033499999995">
   C4
  </text>
  <text fill="rgb(0,0,0)" font-family="Noto Sans CJK SC" font-size="2" transform="rotate(-84.0,9.554971499999994,19.096033499999976)" x="9.554971499999994" y="19.096033499999976">
   C5
  </text>
  <text fill="rgb(0,0,0)" font-family="Noto Sans CJK SC" font-size="2" transform="rotate(-84.0,11.7045715,8.211033499999985)" x="11.7045715" y="8.211033499999985">
   C6
  </text>
  <text fill="rgb(0,0,0)" font-family="Noto Sans CJK SC" font-size="2" transform="rotate(-354.0,31.74197149999999,42.02903349999997)" x="31.74197149999999" y="42.02903349999997">
   C4
  </text>
  <text fill="rgb(0,0,0)" font-family="Noto Sans CJK SC" font-size="2" transform="rotate(-84.0,34.348671499999995,12.80303349999997)" x="34.348671499999995" y="12.80303349999997">
   M2
  </text>
  <text fill="rgb(0,0,0)" font-family="Noto Sans CJK SC" font-size="2" transform="rotate(-354.0,33.5225715,14.564033499999994)" x="33.5225715" y="14.564033499999994">
   M2
  </text>
 </g>
</svg>