<?xml version="1.0" encoding="utf-8"?>
<svg style="background-color: #000;" version="1.1" viewBox="0 0 100.0 100.0" xmlns="http://www.w3.org/2000/svg" xmlns:inkscape="http://www.inkscape.org/namespaces/inkscape">
 <g id="layer0" inkscape:groupmode="layer" inkscape:label="0">
  <path d="M 81.85051700000002,49.76000399999998 L 89.85051700000002,49.76000399999998" fill="none" stroke="rgb(89,89,89)" stroke-width="0.1"/>
  <path d="M 89.85051700000002,49.76000399999998 L 89.85051700000002,65.76000399999998" fill="none" stroke="rgb(89,89,89)" stroke-width="0.1"/>
  <path d="M 89.85051700000002,65.76000399999998 L 81.85051700000002,65.76000399999998" fill="none" stroke="rgb(89,89,89)" stroke-width="0.1"/>
  <path d="M 81.85051700000002,65.76000399999998 L 81.85051700000002,49.76000399999998" fill="none" stroke="rgb(89,89,89)" stroke-width="0.1"/>
 </g>
 <g id="layerA-COLUMN" inkscape:groupmode="layer" inkscape:label="A-COLUMN">
  <path d="M 85.85051700000002,73.76000399999998 L 93.85051700000002,73.76000399999998" fill="none" stroke="rgb(178,0,0)" stroke-width="0.1"/>
  <path d="M 93.85051700000002,73.76000399999998 L 93.85051700000002,65.76000399999998" fill="none" stroke="rgb(178,0,0)" stroke-width="0.1"/>
  <path d="M 93.85051700000002,65.76000399999998 L 85.85051700000002,65.76000399999998" fill="none" stroke="rgb(178,0,0)" stroke-width="0.1"/>
  <path d="M 85.85051700000002,65.76000399999998 L 85.85051700000002,73.76000399999998" fill="none" stroke="rgb(178,0,0)" stroke-width="0.1"/>
  <path d="M 24.350517000000025,73.26000399999998 L 31.350517000000025,73.26000399999998" fill="none" stroke="rgb(178,0,0)" stroke-width="0.1"/>
  <path d="M 31.350517000000025,73.26000399999998 L 31.350517000000025,66.26000399999998" fill="none" stroke="rgb(178,0,0)" stroke-width="0.1"/>
  <path d="M 31.350517000000025,66.26000399999998 L 24.350517000000025,66.26000399999998" fill="none" stroke="rgb(178,0,0)" stroke-width="0.1"/>
  <path d="M 24.350517000000025,66.26000399999998 L 24.350517000000025,73.26000399999998" fill="none" stroke="rgb(178,0,0)" stroke-width="0.1"/>
 </g>
 <g id="layerA-DOOR_FIRE" inkscape:groupmode="layer" inkscape:label="A-DOOR_FIRE">
  <path d="M 24.350517000000025,69.76000399999998 L 24.350517000000025,77.07200399999999" fill="none" instance-id="2" semantic-id="4" stroke="rgb(53,133,160)" stroke-width="0.1"/>
  <path d="M 23.975517000000025,69.76000399999998 L 23.975517000000025,77.07200399999999" fill="none" instance-id="2" semantic-id="4" stroke="rgb(53,133,160)" stroke-width="0.1"/>
  <path d="M 24.350517000000025,69.76000399999998 L 23.975517000000025,69.76000399999998" fill="none" instance-id="2" semantic-id="4" stroke="rgb(53,133,160)" stroke-width="0.1"/>
  <path d="M 23.975517000000025,77.07200399999999 L 24.350517000000025,77.07200399999999" fill="none" instance-id="2" semantic-id="4" stroke="rgb(53,133,160)" stroke-width="0.1"/>
  <path d="M 9.725517000000025,69.76000399999998 L 9.725517000000025,77.07200399999999" fill="none" instance-id="2" semantic-id="4" stroke="rgb(53,133,160)" stroke-width="0.1"/>
  <path d="M 9.350517000000025,69.76000399999998 L 9.350517000000025,77.07200399999999" fill="none" instance-id="2" semantic-id="4" stroke="rgb(53,133,160)" stroke-width="0.1"/>
  <path d="M 9.725517000000025,77.07200399999999 L 9.350517000000025,77.07200399999999" fill="none" instance-id="2" semantic-id="4" stroke="rgb(53,133,160)" stroke-width="0.1"/>
  <path d="M 9.350517000000025,69.76000399999998 L 9.725517000000025,69.76000399999998" fill="none" instance-id="2" semantic-id="4" stroke="rgb(53,133,160)" stroke-width="0.1"/>
  <path d="M 32.350517000000025,39.01000399999998 L 31.850517000000025,39.01000399999998" fill="none" instance-id="1" semantic-id="3" stroke="rgb(53,133,160)" stroke-width="0.1"/>
  <path d="M 31.850517000000025,48.76000399999998 L 32.350517000000025,48.76000399999998" fill="none" instance-id="1" semantic-id="3" stroke="rgb(53,133,160)" stroke-width="0.1"/>
  <path d="M 31.850517000000025,48.76000399999998 L 31.850517000000025,39.01000399999998" fill="none" instance-id="1" semantic-id="3" stroke="rgb(53,133,160)" stroke-width="0.1"/>
  <path d="M 32.350517000000025,48.76000399999998 L 32.350517000000025,39.01000399999998" fill="none" instance-id="1" semantic-id="3" stroke="rgb(53,133,160)" stroke-width="0.1"/>
  <path d="M 16.850517000000025,69.76000399999998 A 7.3125,7.3125 0.0 0,0 23.975517000000025,77.07000399999998" fill="none" instance-id="2" semantic-id="4" stroke="rgb(53,133,160)" stroke-width="0.1"/>
  <path d="M 9.725517000000025,77.07000399999998 A 7.3125,7.3125 0.0 0,0 16.850517000000025,69.76000399999998" fill="none" instance-id="2" semantic-id="4" stroke="rgb(53,133,160)" stroke-width="0.1"/>
  <path d="M 41.850517000000025,48.76000399999998 A 9.75,9.75 0.0 0,0 32.350517000000025,39.01300399999997" fill="none" instance-id="1" semantic-id="3" stroke="rgb(53,133,160)" stroke-width="0.1"/>
 </g>
 <g id="layerA-DOOR_FIRE_TEXT" inkscape:groupmode="layer" inkscape:label="A-DOOR_FIRE_TEXT">
  <text fill="rgb(0,0,0)" font-family="Noto Sans CJK SC" font-size="2" transform="rotate(-360.0,12.326517000000024,67.24900399999996)" x="12.326517000000024" y="67.24900399999996">
   FM
  </text>
  <text fill="rgb(0,0,0)" font-family="Noto Sans CJK SC" font-size="2" transform="rotate(-360.0,15.266517000000022,67.24900399999996)" x="15.266517000000022" y="67.24900399999996">
   乙
  </text>
  <text fill="rgb(0,0,0)" font-family="Noto Sans CJK SC" font-size="2" transform="rotate(-360.0,16.986516999999992,67.24900399999996)" x="16.986516999999992" y="67.24900399999996">
   1523
  </text>
  <text fill="rgb(0,0,0)" font-family="Noto Sans CJK SC" font-size="2" transform="rotate(-360.0,32.38551699999999,54.30900399999996)" x="32.38551699999999" y="54.30900399999996">
   FM
  </text>
  <text fill="rgb(0,0,0)" font-family="Noto Sans CJK SC" font-size="2" transform="rotate(-360.0,35.32551699999999,54.30900399999996)" x="35.32551699999999" y="54.30900399999996">
   甲
  </text>
  <text fill="rgb(0,0,0)" font-family="Noto Sans CJK SC" font-size="2" transform="rotate(-360.0,37.04551700000002,54.30900399999996)" x="37.04551700000002" y="54.30900399999996">
   1021
  </text>
 </g>
 <g id="layerA-DOTE" inkscape:groupmode="layer" inkscape:label="A-DOTE">
  <path d="M 27.850517000000025,0.0 L 27.850517000000025,100.0" fill="none" stroke="rgb(107,0,0)" stroke-width="0.1"/>
  <path d="M 90.85051700000002,0.0 L 90.85051700000002,100.0" fill="none" stroke="rgb(107,0,0)" stroke-width="0.1"/>
  <path d="M 0.0,69.76000399999998 L 100.0,69.76000399999998" fill="none" stroke="rgb(107,0,0)" stroke-width="0.1"/>
 </g>
 <g id="layerA-PUB_DIM" inkscape:groupmode="layer" inkscape:label="A-PUB_DIM">
  <path d="M 7.850517000000025,93.76300399999997 L 7.850517000000025,88.834004" fill="none" stroke="rgb(0,142,142)" stroke-width="0.1"/>
  <path d="M 27.850517000000025,93.76300399999997 L 27.850517000000025,88.834004" fill="none" stroke="rgb(0,142,142)" stroke-width="0.1"/>
  <path d="M 7.850517000000025,91.334004 L 27.850517000000025,91.334004" fill="none" stroke="rgb(0,142,142)" stroke-width="0.1"/>
  <path d="M 80.85051700000002,47.41500399999995 L 80.85051700000002,40.187004" fill="none" stroke="rgb(0,142,142)" stroke-width="0.1"/>
  <path d="M 90.85051700000002,47.41500399999995 L 90.85051700000002,40.187004" fill="none" stroke="rgb(0,142,142)" stroke-width="0.1"/>
  <path d="M 80.85051700000002,42.687004 L 90.85051700000002,42.687004" fill="none" stroke="rgb(0,142,142)" stroke-width="0.1"/>
  <path d="M 27.850517000000025,41.28900399999998 L 27.850517000000025,35.17400399999997" fill="none" stroke="rgb(0,142,142)" stroke-width="0.1"/>
  <path d="M 31.850517000000025,41.28900399999998 L 31.850517000000025,35.17400399999997" fill="none" stroke="rgb(0,142,142)" stroke-width="0.1"/>
  <path d="M 27.850517000000025,37.67400399999997 L 26.850517000000025,37.67400399999997" fill="none" stroke="rgb(0,142,142)" stroke-width="0.1"/>
  <path d="M 31.850517000000025,37.67400399999997 L 32.850517000000025,37.67400399999997" fill="none" stroke="rgb(0,142,142)" stroke-width="0.1"/>
  <path d="M 27.850517000000025,37.67400399999997 L 31.850517000000025,37.67400399999997" fill="none" stroke="rgb(0,142,142)" stroke-width="0.1"/>
  <path d="M 31.850517000000025,41.28900399999998 L 31.850517000000025,35.17400399999997" fill="none" stroke="rgb(0,142,142)" stroke-width="0.1"/>
  <path d="M 41.850517000000025,41.28900399999998 L 41.850517000000025,35.17400399999997" fill="none" stroke="rgb(0,142,142)" stroke-width="0.1"/>
  <path d="M 31.850517000000025,37.67400399999997 L 41.850517000000025,37.67400399999997" fill="none" stroke="rgb(0,142,142)" stroke-width="0.1"/>
  <path d="M 48.39151700000002,75.76000399999998 L 42.326517000000024,75.76000399999998" fill="none" stroke="rgb(0,142,142)" stroke-width="0.1"/>
  <path d="M 44.826517000000024,100.0 L 44.826517000000024,75.76000399999998" fill="none" stroke="rgb(0,142,142)" stroke-width="0.1"/>
  <path d="M 48.39151700000002,75.76000399999998 L 42.326517000000024,75.76000399999998" fill="none" stroke="rgb(0,142,142)" stroke-width="0.1"/>
  <path d="M 48.39151700000002,69.76000399999998 L 42.326517000000024,69.76000399999998" fill="none" stroke="rgb(0,142,142)" stroke-width="0.1"/>
  <path d="M 44.826517000000024,75.76000399999998 L 44.826517000000024,76.76000399999998" fill="none" stroke="rgb(0,142,142)" stroke-width="0.1"/>
  <path d="M 44.826517000000024,69.76000399999998 L 44.826517000000024,68.76000399999998" fill="none" stroke="rgb(0,142,142)" stroke-width="0.1"/>
  <path d="M 44.826517000000024,75.76000399999998 L 44.826517000000024,69.76000399999998" fill="none" stroke="rgb(0,142,142)" stroke-width="0.1"/>
  <path d="M 48.39151700000002,69.76000399999998 L 42.326517000000024,69.76000399999998" fill="none" stroke="rgb(0,142,142)" stroke-width="0.1"/>
  <path d="M 48.39151700000002,48.76000399999998 L 42.326517000000024,48.76000399999998" fill="none" stroke="rgb(0,142,142)" stroke-width="0.1"/>
  <path d="M 44.826517000000024,69.76000399999998 L 44.826517000000024,48.76000399999998" fill="none" stroke="rgb(0,142,142)" stroke-width="0.1"/>
  <path d="M 7.850517000000025,64.42400399999997 L 7.850517000000025,58.517003999999986" fill="none" stroke="rgb(0,142,142)" stroke-width="0.1"/>
  <path d="M 0.0,61.017003999999986 L 7.850517000000025,61.017003999999986" fill="none" stroke="rgb(0,142,142)" stroke-width="0.1"/>
  <path d="M 7.850517000000025,64.42400399999997 L 7.850517000000025,58.517003999999986" fill="none" stroke="rgb(0,142,142)" stroke-width="0.1"/>
  <path d="M 9.350517000000025,64.42400399999997 L 9.350517000000025,58.517003999999986" fill="none" stroke="rgb(0,142,142)" stroke-width="0.1"/>
  <path d="M 7.850517000000025,61.017003999999986 L 6.850517000000025,61.017003999999986" fill="none" stroke="rgb(0,142,142)" stroke-width="0.1"/>
  <path d="M 9.350517000000025,61.017003999999986 L 10.350517000000025,61.017003999999986" fill="none" stroke="rgb(0,142,142)" stroke-width="0.1"/>
  <path d="M 7.850517000000025,61.017003999999986 L 9.350517000000025,61.017003999999986" fill="none" stroke="rgb(0,142,142)" stroke-width="0.1"/>
  <path d="M 9.350517000000025,64.42400399999997 L 9.350517000000025,58.517003999999986" fill="none" stroke="rgb(0,142,142)" stroke-width="0.1"/>
  <path d="M 24.350517000000025,64.42400399999997 L 24.350517000000025,58.517003999999986" fill="none" stroke="rgb(0,142,142)" stroke-width="0.1"/>
  <path d="M 9.350517000000025,61.017003999999986 L 24.350517000000025,61.017003999999986" fill="none" stroke="rgb(0,142,142)" stroke-width="0.1"/>
  <path d="M 24.350517000000025,64.42400399999997 L 24.350517000000025,58.517003999999986" fill="none" stroke="rgb(0,142,142)" stroke-width="0.1"/>
  <path d="M 27.850517000000025,64.42400399999997 L 27.850517000000025,58.517003999999986" fill="none" stroke="rgb(0,142,142)" stroke-width="0.1"/>
  <path d="M 24.350517000000025,61.017003999999986 L 27.850517000000025,61.017003999999986" fill="none" stroke="rgb(0,142,142)" stroke-width="0.1"/>
  <path d="M 27.850517000000025,64.42400399999997 L 27.850517000000025,58.517003999999986" fill="none" stroke="rgb(0,142,142)" stroke-width="0.1"/>
  <path d="M 29.850517000000025,64.42400399999997 L 29.850517000000025,58.517003999999986" fill="none" stroke="rgb(0,142,142)" stroke-width="0.1"/>
  <path d="M 27.850517000000025,61.017003999999986 L 26.850517000000025,61.017003999999986" fill="none" stroke="rgb(0,142,142)" stroke-width="0.1"/>
  <path d="M 29.850517000000025,61.017003999999986 L 30.850517000000025,61.017003999999986" fill="none" stroke="rgb(0,142,142)" stroke-width="0.1"/>
  <path d="M 27.850517000000025,61.017003999999986 L 29.850517000000025,61.017003999999986" fill="none" stroke="rgb(0,142,142)" stroke-width="0.1"/>
  <text fill="rgb(0,142,142)" font-family="Noto Sans CJK SC" font-size="2" transform="rotate(-0.0,15.050517000000013,90.07200399999999)" x="15.050517000000013" y="90.07200399999999">
   2000
  </text>
  <text fill="rgb(0,142,142)" font-family="Noto Sans CJK SC" font-size="2" transform="rotate(-0.0,82.945517,41.425004)" x="82.945517" y="41.425004">
   1000
  </text>
  <text fill="rgb(0,142,142)" font-family="Noto Sans CJK SC" font-size="2" transform="rotate(-0.0,27.750517000000002,36.41200399999997)" x="27.750517000000002" y="36.41200399999997">
   400
  </text>
  <text fill="rgb(0,142,142)" font-family="Noto Sans CJK SC" font-size="2" transform="rotate(-0.0,33.945516999999995,36.41200399999997)" x="33.945516999999995" y="36.41200399999997">
   1000
  </text>
  <text fill="rgb(0,142,142)" font-family="Noto Sans CJK SC" font-size="2" transform="rotate(-90.0,43.56351699999999,92.56000399999999)" x="43.56351699999999" y="92.56000399999999">
   2800
  </text>
  <text fill="rgb(0,142,142)" font-family="Noto Sans CJK SC" font-size="2" transform="rotate(-90.0,43.56351699999999,74.89500399999997)" x="43.56351699999999" y="74.89500399999997">
   600
  </text>
  <text fill="rgb(0,142,142)" font-family="Noto Sans CJK SC" font-size="2" transform="rotate(-90.0,43.56351699999999,62.06000399999999)" x="43.56351699999999" y="62.06000399999999">
   2100
  </text>
  <text fill="rgb(0,142,142)" font-family="Noto Sans CJK SC" font-size="2" transform="rotate(-0.0,6.395516999999984,59.75400400000001)" x="6.395516999999984" y="59.75400400000001">
   150
  </text>
  <text fill="rgb(0,142,142)" font-family="Noto Sans CJK SC" font-size="2" transform="rotate(-0.0,13.945516999999995,59.75400400000001)" x="13.945516999999995" y="59.75400400000001">
   1500
  </text>
  <text fill="rgb(0,142,142)" font-family="Noto Sans CJK SC" font-size="2" transform="rotate(-0.0,24.146517000000017,54.967003999999974)" x="24.146517000000017" y="54.967003999999974">
   350
  </text>
  <text fill="rgb(0,142,142)" font-family="Noto Sans CJK SC" font-size="2" transform="rotate(-0.0,30.64051699999999,59.75400400000001)" x="30.64051699999999" y="59.75400400000001">
   200
  </text>
 </g>
 <g id="layerA-PUB_HATCH" inkscape:groupmode="layer" inkscape:label="A-PUB_HATCH">
  <path d="M 89.85051700000002,0.0 L 89.85051700000002,48.76000399999998" fill="none" instance-id="-1" semantic-id="1" stroke="rgb(44,44,88)" stroke-width="0.1"/>
  <path d="M 89.85051700000002,48.76000399999998 L 93.85051700000002,48.76000399999998" fill="none" instance-id="-1" semantic-id="1" stroke="rgb(44,44,88)" stroke-width="0.1"/>
  <path d="M 93.85051700000002,48.76000399999998 L 93.85051700000002,0.0" fill="none" instance-id="-1" semantic-id="1" stroke="rgb(44,44,88)" stroke-width="0.1"/>
  <path d="M 93.85051700000002,100.0 L 93.85051700000002,73.76000399999998" fill="none" instance-id="-1" semantic-id="1" stroke="rgb(44,44,88)" stroke-width="0.1"/>
  <path d="M 93.85051700000002,73.76000399999998 L 89.85051700000002,73.76000399999998" fill="none" instance-id="-1" semantic-id="1" stroke="rgb(44,44,88)" stroke-width="0.1"/>
  <path d="M 89.85051700000002,73.76000399999998 L 89.85051700000002,100.0" fill="none" instance-id="-1" semantic-id="1" stroke="rgb(44,44,88)" stroke-width="0.1"/>
  <path d="M 89.85051700000002,65.76000399999998 L 93.85051700000002,65.76000399999998" fill="none" instance-id="-1" semantic-id="1" stroke="rgb(44,44,88)" stroke-width="0.1"/>
  <path d="M 93.85051700000002,65.76000399999998 L 93.85051700000002,48.76000399999998" fill="none" instance-id="-1" semantic-id="1" stroke="rgb(44,44,88)" stroke-width="0.1"/>
  <path d="M 93.85051700000002,48.76000399999998 L 89.85051700000002,48.76000399999998" fill="none" instance-id="-1" semantic-id="1" stroke="rgb(44,44,88)" stroke-width="0.1"/>
  <path d="M 89.85051700000002,48.76000399999998 L 89.85051700000002,65.76000399999998" fill="none" instance-id="-1" semantic-id="1" stroke="rgb(44,44,88)" stroke-width="0.1"/>
 </g>
 <g id="layerA-PUB_TEXT" inkscape:groupmode="layer" inkscape:label="A-PUB_TEXT">
  <text fill="rgb(0,0,0)" font-family="Noto Sans CJK SC" font-size="2" transform="rotate(-0.0,54.34151700000001,63.269003999999995)" x="54.34151700000001" y="63.269003999999995">
   送风机房
  </text>
  <text fill="rgb(0,0,0)" font-family="Noto Sans CJK SC" font-size="2" transform="rotate(-0.0,83.62951700000002,59.682004000000006)" x="83.62951700000002" y="59.682004000000006">
   送风井
  </text>
 </g>
 <g id="layerA-SWALL" inkscape:groupmode="layer" inkscape:label="A-SWALL">
  <path d="M 93.85051700000002,0.0 L 93.85051700000002,48.76000399999998" fill="none" instance-id="-1" semantic-id="1" stroke="rgb(178,0,0)" stroke-width="0.1"/>
  <path d="M 89.85051700000002,0.0 L 89.85051700000002,48.76000399999998" fill="none" instance-id="-1" semantic-id="1" stroke="rgb(178,0,0)" stroke-width="0.1"/>
  <path d="M 93.85051700000002,73.76000399999998 L 93.85051700000002,100.0" fill="none" instance-id="-1" semantic-id="1" stroke="rgb(178,0,0)" stroke-width="0.1"/>
  <path d="M 89.85051700000002,73.76000399999998 L 89.85051700000002,100.0" fill="none" instance-id="-1" semantic-id="1" stroke="rgb(178,0,0)" stroke-width="0.1"/>
  <path d="M 93.85051700000002,48.76000399999998 L 93.85051700000002,65.76000399999998" fill="none" instance-id="-1" semantic-id="1" stroke="rgb(178,0,0)" stroke-width="0.1"/>
  <path d="M 89.85051700000002,48.76000399999998 L 89.85051700000002,65.76000399999998" fill="none" instance-id="-1" semantic-id="1" stroke="rgb(178,0,0)" stroke-width="0.1"/>
 </g>
 <g id="layerA-WALL" inkscape:groupmode="layer" inkscape:label="A-WALL">
  <path d="M 30.850517000000025,49.76000399999998 L 30.850517000000025,66.26000399999998" fill="none" instance-id="-1" semantic-id="1" stroke="rgb(134,134,134)" stroke-width="0.1"/>
  <path d="M 28.850517000000025,47.76000399999998 L 28.850517000000025,66.26000399999998" fill="none" instance-id="-1" semantic-id="1" stroke="rgb(134,134,134)" stroke-width="0.1"/>
  <path d="M 30.850517000000025,74.76000399999998 L 55.65051699999998,74.76000399999998" fill="none" instance-id="-1" semantic-id="1" stroke="rgb(134,134,134)" stroke-width="0.1"/>
  <path d="M 28.850517000000025,76.76000399999998 L 55.65051699999998,76.76000399999998" fill="none" instance-id="-1" semantic-id="1" stroke="rgb(134,134,134)" stroke-width="0.1"/>
  <path d="M 55.65051699999998,74.76000399999998 L 55.65051699999998,76.76000399999998" fill="none" instance-id="-1" semantic-id="1" stroke="rgb(134,134,134)" stroke-width="0.1"/>
  <path d="M 30.850517000000025,49.76000399999998 L 31.850517000000025,49.76000399999998" fill="none" instance-id="-1" semantic-id="1" stroke="rgb(134,134,134)" stroke-width="0.1"/>
  <path d="M 31.850517000000025,49.76000399999998 L 31.850517000000025,47.76000399999998" fill="none" instance-id="-1" semantic-id="1" stroke="rgb(134,134,134)" stroke-width="0.1"/>
  <path d="M 31.850517000000025,47.76000399999998 L 28.850517000000025,47.76000399999998" fill="none" instance-id="-1" semantic-id="1" stroke="rgb(134,134,134)" stroke-width="0.1"/>
  <path d="M 80.85051700000002,47.76000399999998 L 41.850517000000025,47.76000399999998" fill="none" instance-id="-1" semantic-id="1" stroke="rgb(134,134,134)" stroke-width="0.1"/>
  <path d="M 41.850517000000025,47.76000399999998 L 41.850517000000025,49.76000399999998" fill="none" instance-id="-1" semantic-id="1" stroke="rgb(134,134,134)" stroke-width="0.1"/>
  <path d="M 41.850517000000025,49.76000399999998 L 79.85051700000002,49.76000399999998" fill="none" instance-id="-1" semantic-id="1" stroke="rgb(134,134,134)" stroke-width="0.1"/>
  <path d="M 30.850517000000025,73.26000399999998 L 30.850517000000025,74.76000399999998" fill="none" instance-id="-1" semantic-id="1" stroke="rgb(134,134,134)" stroke-width="0.1"/>
  <path d="M 28.850517000000025,73.26000399999998 L 28.850517000000025,76.76000399999998" fill="none" instance-id="-1" semantic-id="1" stroke="rgb(134,134,134)" stroke-width="0.1"/>
  <path d="M 81.85051700000002,49.76000399999998 L 81.85051700000002,74.76000399999998" fill="none" instance-id="-1" semantic-id="1" stroke="rgb(134,134,134)" stroke-width="0.1"/>
  <path d="M 79.85051700000002,49.76000399999998 L 79.85051700000002,74.76000399999998" fill="none" instance-id="-1" semantic-id="1" stroke="rgb(134,134,134)" stroke-width="0.1"/>
  <path d="M 81.85051700000002,74.76000399999998 L 79.85051700000002,74.76000399999998" fill="none" instance-id="-1" semantic-id="1" stroke="rgb(134,134,134)" stroke-width="0.1"/>
  <path d="M 80.85051700000002,47.76000399999998 L 89.85051700000002,47.76000399999998" fill="none" instance-id="-1" semantic-id="1" stroke="rgb(134,134,134)" stroke-width="0.1"/>
  <path d="M 81.85051700000002,49.76000399999998 L 89.85051700000002,49.76000399999998" fill="none" instance-id="-1" semantic-id="1" stroke="rgb(134,134,134)" stroke-width="0.1"/>
 </g>
 <g id="layerA-WINDOW" inkscape:groupmode="layer" inkscape:label="A-WINDOW">
  <path d="M 55.65051699999998,86.96000399999997 L 55.65051699999998,100.0" fill="none" stroke="rgb(53,133,160)" stroke-width="0.1"/>
  <path d="M 59.65051699999998,100.0 L 59.65051699999998,86.96000399999997" fill="none" stroke="rgb(53,133,160)" stroke-width="0.1"/>
 </g>
 <g id="layerA_WALL" inkscape:groupmode="layer" inkscape:label="A_WALL">
  <path d="M 7.850517000000025,68.76000399999998 L 0.0,68.76000399999998" fill="none" instance-id="-1" semantic-id="1" stroke="rgb(134,134,134)" stroke-width="0.1"/>
  <path d="M 0.0,70.76000399999998 L 6.850517000000025,70.76000399999998" fill="none" instance-id="-1" semantic-id="1" stroke="rgb(134,134,134)" stroke-width="0.1"/>
  <path d="M 8.850517000000025,70.76000399999998 L 8.850517000000025,100.0" fill="none" instance-id="-1" semantic-id="1" stroke="rgb(134,134,134)" stroke-width="0.1"/>
  <path d="M 6.850517000000025,70.76000399999998 L 6.850517000000025,100.0" fill="none" instance-id="-1" semantic-id="1" stroke="rgb(134,134,134)" stroke-width="0.1"/>
  <path d="M 8.850517000000025,70.76000399999998 L 9.350517000000025,70.76000399999998" fill="none" instance-id="-1" semantic-id="1" stroke="rgb(134,134,134)" stroke-width="0.1"/>
  <path d="M 9.350517000000025,70.76000399999998 L 9.350517000000025,68.76000399999998" fill="none" instance-id="-1" semantic-id="1" stroke="rgb(134,134,134)" stroke-width="0.1"/>
  <path d="M 9.350517000000025,68.76000399999998 L 7.850517000000025,68.76000399999998" fill="none" instance-id="-1" semantic-id="1" stroke="rgb(134,134,134)" stroke-width="0.1"/>
 </g>
 <g id="layerDIM_SYMB" inkscape:groupmode="layer" inkscape:label="DIM_SYMB">
  <path d="M 66.95051699999999,100.0 L 66.95051699999999,95.46000399999997" fill="none" stroke="rgb(0,178,0)" stroke-width="0.1"/>
  <path d="M 66.95051699999999,95.46000399999997 L 82.55051700000001,95.46000399999997" fill="none" stroke="rgb(0,178,0)" stroke-width="0.1"/>
  <path d="M 82.55051700000001,95.46000399999997 L 82.55051700000001,100.0" fill="none" stroke="rgb(0,178,0)" stroke-width="0.1"/>
 </g>
 <g id="layerPUB_HATCH" inkscape:groupmode="layer" inkscape:label="PUB_HATCH">
  <path d="M 56.05051700000001,75.16000399999996 L 59.250517,77.360004" fill="none" instance-id="-1" semantic-id="1" stroke="rgb(89,89,89)" stroke-width="0.1"/>
  <path d="M 59.250517,77.360004 L 59.65051699999998,77.76000399999998" fill="none" instance-id="-1" semantic-id="1" stroke="rgb(89,89,89)" stroke-width="0.1"/>
  <path d="M 59.65051699999998,77.76000399999998 L 89.85051700000002,77.76000399999998" fill="none" instance-id="-1" semantic-id="1" stroke="rgb(89,89,89)" stroke-width="0.1"/>
  <path d="M 89.85051700000002,77.76000399999998 L 90.250517,77.360004" fill="none" instance-id="-1" semantic-id="1" stroke="rgb(89,89,89)" stroke-width="0.1"/>
  <path d="M 90.250517,77.360004 L 93.45051699999999,75.16000399999996" fill="none" instance-id="-1" semantic-id="1" stroke="rgb(89,89,89)" stroke-width="0.1"/>
  <path d="M 93.45051699999999,75.16000399999996 L 93.85051700000002,74.76000399999998" fill="none" instance-id="-1" semantic-id="1" stroke="rgb(89,89,89)" stroke-width="0.1"/>
  <path d="M 93.85051700000002,74.76000399999998 L 55.65051699999998,74.76000399999998" fill="none" instance-id="-1" semantic-id="1" stroke="rgb(89,89,89)" stroke-width="0.1"/>
  <path d="M 55.65051699999998,74.76000399999998 L 56.05051700000001,75.16000399999996" fill="none" instance-id="-1" semantic-id="1" stroke="rgb(89,89,89)" stroke-width="0.1"/>
  <path d="M 58.31751700000001,85.46000399999997 L 59.250517,86.56000399999999" fill="none" instance-id="-1" semantic-id="1" stroke="rgb(89,89,89)" stroke-width="0.1"/>
  <path d="M 59.250517,86.56000399999999 L 59.65051699999998,86.96000399999997" fill="none" instance-id="-1" semantic-id="1" stroke="rgb(89,89,89)" stroke-width="0.1"/>
  <path d="M 59.65051699999998,86.96000399999997 L 89.85051700000002,86.96000399999997" fill="none" instance-id="-1" semantic-id="1" stroke="rgb(89,89,89)" stroke-width="0.1"/>
  <path d="M 89.85051700000002,86.96000399999997 L 90.250517,86.56000399999999" fill="none" instance-id="-1" semantic-id="1" stroke="rgb(89,89,89)" stroke-width="0.1"/>
  <path d="M 90.250517,86.56000399999999 L 91.183517,85.46000399999997" fill="none" instance-id="-1" semantic-id="1" stroke="rgb(89,89,89)" stroke-width="0.1"/>
  <path d="M 91.183517,85.46000399999997 L 90.250517,84.360004" fill="none" instance-id="-1" semantic-id="1" stroke="rgb(89,89,89)" stroke-width="0.1"/>
  <path d="M 90.250517,84.360004 L 89.85051700000002,83.96000399999997" fill="none" instance-id="-1" semantic-id="1" stroke="rgb(89,89,89)" stroke-width="0.1"/>
  <path d="M 89.85051700000002,83.96000399999997 L 59.65051699999998,83.96000399999997" fill="none" instance-id="-1" semantic-id="1" stroke="rgb(89,89,89)" stroke-width="0.1"/>
  <path d="M 59.65051699999998,83.96000399999997 L 59.250517,84.360004" fill="none" instance-id="-1" semantic-id="1" stroke="rgb(89,89,89)" stroke-width="0.1"/>
  <path d="M 59.250517,84.360004 L 58.31751700000001,85.46000399999997" fill="none" instance-id="-1" semantic-id="1" stroke="rgb(89,89,89)" stroke-width="0.1"/>
  <path d="M 58.31751700000001,85.46000399999997 L 59.250517,84.360004" fill="none" instance-id="-1" semantic-id="1" stroke="rgb(89,89,89)" stroke-width="0.1"/>
  <path d="M 59.250517,84.360004 L 59.65051699999998,83.96000399999997" fill="none" instance-id="-1" semantic-id="1" stroke="rgb(89,89,89)" stroke-width="0.1"/>
  <path d="M 59.65051699999998,83.96000399999997 L 59.65051699999998,77.76000399999998" fill="none" instance-id="-1" semantic-id="1" stroke="rgb(89,89,89)" stroke-width="0.1"/>
  <path d="M 59.65051699999998,77.76000399999998 L 59.250517,77.360004" fill="none" instance-id="-1" semantic-id="1" stroke="rgb(89,89,89)" stroke-width="0.1"/>
  <path d="M 59.250517,77.360004 L 56.05051700000001,75.16000399999996" fill="none" instance-id="-1" semantic-id="1" stroke="rgb(89,89,89)" stroke-width="0.1"/>
  <path d="M 56.05051700000001,75.16000399999996 L 55.65051699999998,74.76000399999998" fill="none" instance-id="-1" semantic-id="1" stroke="rgb(89,89,89)" stroke-width="0.1"/>
  <path d="M 55.65051699999998,74.76000399999998 L 55.65051699999998,85.46000399999997" fill="none" instance-id="-1" semantic-id="1" stroke="rgb(89,89,89)" stroke-width="0.1"/>
  <path d="M 55.65051699999998,85.46000399999997 L 58.31751700000001,85.46000399999997" fill="none" instance-id="-1" semantic-id="1" stroke="rgb(89,89,89)" stroke-width="0.1"/>
  <path d="M 90.250517,77.360004 L 89.85051700000002,77.76000399999998" fill="none" instance-id="-1" semantic-id="1" stroke="rgb(89,89,89)" stroke-width="0.1"/>
  <path d="M 89.85051700000002,77.76000399999998 L 89.85051700000002,83.96000399999997" fill="none" instance-id="-1" semantic-id="1" stroke="rgb(89,89,89)" stroke-width="0.1"/>
  <path d="M 89.85051700000002,83.96000399999997 L 90.250517,84.360004" fill="none" instance-id="-1" semantic-id="1" stroke="rgb(89,89,89)" stroke-width="0.1"/>
  <path d="M 90.250517,84.360004 L 91.183517,85.46000399999997" fill="none" instance-id="-1" semantic-id="1" stroke="rgb(89,89,89)" stroke-width="0.1"/>
  <path d="M 91.183517,85.46000399999997 L 93.85051700000002,85.46000399999997" fill="none" instance-id="-1" semantic-id="1" stroke="rgb(89,89,89)" stroke-width="0.1"/>
  <path d="M 93.85051700000002,85.46000399999997 L 93.85051700000002,74.76000399999998" fill="none" instance-id="-1" semantic-id="1" stroke="rgb(89,89,89)" stroke-width="0.1"/>
  <path d="M 93.85051700000002,74.76000399999998 L 93.45051699999999,75.16000399999996" fill="none" instance-id="-1" semantic-id="1" stroke="rgb(89,89,89)" stroke-width="0.1"/>
  <path d="M 93.45051699999999,75.16000399999996 L 90.250517,77.360004" fill="none" instance-id="-1" semantic-id="1" stroke="rgb(89,89,89)" stroke-width="0.1"/>
  <path d="M 90.250517,86.56000399999999 L 89.85051700000002,86.96000399999997" fill="none" instance-id="-1" semantic-id="1" stroke="rgb(89,89,89)" stroke-width="0.1"/>
  <path d="M 89.85051700000002,86.96000399999997 L 89.85051700000002,100.0" fill="none" instance-id="-1" semantic-id="1" stroke="rgb(89,89,89)" stroke-width="0.1"/>
  <path d="M 93.85051700000002,100.0 L 93.85051700000002,85.46000399999997" fill="none" instance-id="-1" semantic-id="1" stroke="rgb(89,89,89)" stroke-width="0.1"/>
  <path d="M 93.85051700000002,85.46000399999997 L 91.183517,85.46000399999997" fill="none" instance-id="-1" semantic-id="1" stroke="rgb(89,89,89)" stroke-width="0.1"/>
  <path d="M 91.183517,85.46000399999997 L 90.250517,86.56000399999999" fill="none" instance-id="-1" semantic-id="1" stroke="rgb(89,89,89)" stroke-width="0.1"/>
  <path d="M 55.65051699999998,85.46000399999997 L 55.65051699999998,86.96000399999997" fill="none" instance-id="-1" semantic-id="1" stroke="rgb(89,89,89)" stroke-width="0.1"/>
  <path d="M 55.65051699999998,86.96000399999997 L 59.65051699999998,86.96000399999997" fill="none" instance-id="-1" semantic-id="1" stroke="rgb(89,89,89)" stroke-width="0.1"/>
  <path d="M 59.65051699999998,86.96000399999997 L 59.250517,86.56000399999999" fill="none" instance-id="-1" semantic-id="1" stroke="rgb(89,89,89)" stroke-width="0.1"/>
  <path d="M 59.250517,86.56000399999999 L 58.31751700000001,85.46000399999997" fill="none" instance-id="-1" semantic-id="1" stroke="rgb(89,89,89)" stroke-width="0.1"/>
  <path d="M 58.31751700000001,85.46000399999997 L 55.65051699999998,85.46000399999997" fill="none" instance-id="-1" semantic-id="1" stroke="rgb(89,89,89)" stroke-width="0.1"/>
 </g>
 <g id="layerPUB_WALL" inkscape:groupmode="layer" inkscape:label="PUB_WALL">
  <path d="M 30.45051699999999,66.26000399999998 L 30.850517000000025,66.26000399999998" fill="none" instance-id="-1" semantic-id="1" stroke="rgb(134,134,134)" stroke-width="0.1"/>
  <path d="M 30.850517000000025,66.26000399999998 L 30.850517000000025,49.76000399999998" fill="none" instance-id="-1" semantic-id="1" stroke="rgb(134,134,134)" stroke-width="0.1"/>
  <path d="M 30.850517000000025,49.76000399999998 L 30.45051699999999,49.360004" fill="none" instance-id="-1" semantic-id="1" stroke="rgb(134,134,134)" stroke-width="0.1"/>
  <path d="M 30.45051699999999,49.360004 L 30.45051699999999,66.26000399999998" fill="none" instance-id="-1" semantic-id="1" stroke="rgb(134,134,134)" stroke-width="0.1"/>
  <path d="M 28.850517000000025,66.26000399999998 L 29.250517000000002,66.26000399999998" fill="none" instance-id="-1" semantic-id="1" stroke="rgb(134,134,134)" stroke-width="0.1"/>
  <path d="M 29.250517000000002,66.26000399999998 L 29.250517000000002,48.16000399999996" fill="none" instance-id="-1" semantic-id="1" stroke="rgb(134,134,134)" stroke-width="0.1"/>
  <path d="M 29.250517000000002,48.16000399999996 L 28.850517000000025,47.76000399999998" fill="none" instance-id="-1" semantic-id="1" stroke="rgb(134,134,134)" stroke-width="0.1"/>
  <path d="M 28.850517000000025,47.76000399999998 L 28.850517000000025,66.26000399999998" fill="none" instance-id="-1" semantic-id="1" stroke="rgb(134,134,134)" stroke-width="0.1"/>
  <path d="M 0.0,69.16000399999996 L 7.850517000000025,69.16000399999996" fill="none" instance-id="-1" semantic-id="1" stroke="rgb(134,134,134)" stroke-width="0.1"/>
  <path d="M 7.850517000000025,69.16000399999996 L 7.850517000000025,68.76000399999998" fill="none" instance-id="-1" semantic-id="1" stroke="rgb(134,134,134)" stroke-width="0.1"/>
  <path d="M 7.850517000000025,68.76000399999998 L 0.0,68.76000399999998" fill="none" instance-id="-1" semantic-id="1" stroke="rgb(134,134,134)" stroke-width="0.1"/>
  <path d="M 0.0,70.76000399999998 L 6.850517000000025,70.76000399999998" fill="none" instance-id="-1" semantic-id="1" stroke="rgb(134,134,134)" stroke-width="0.1"/>
  <path d="M 6.850517000000025,70.76000399999998 L 7.250517000000002,70.360004" fill="none" instance-id="-1" semantic-id="1" stroke="rgb(134,134,134)" stroke-width="0.1"/>
  <path d="M 7.250517000000002,70.360004 L 0.0,70.360004" fill="none" instance-id="-1" semantic-id="1" stroke="rgb(134,134,134)" stroke-width="0.1"/>
  <path d="M 24.350517000000025,73.26000399999998 L 31.350517000000025,73.26000399999998" fill="none" instance-id="-1" semantic-id="1" stroke="rgb(134,134,134)" stroke-width="0.1"/>
  <path d="M 31.350517000000025,73.26000399999998 L 30.95051699999999,72.860004" fill="none" instance-id="-1" semantic-id="1" stroke="rgb(134,134,134)" stroke-width="0.1"/>
  <path d="M 30.95051699999999,72.860004 L 24.750517000000002,72.860004" fill="none" instance-id="-1" semantic-id="1" stroke="rgb(134,134,134)" stroke-width="0.1"/>
  <path d="M 24.750517000000002,72.860004 L 24.350517000000025,73.26000399999998" fill="none" instance-id="-1" semantic-id="1" stroke="rgb(134,134,134)" stroke-width="0.1"/>
  <path d="M 31.350517000000025,66.26000399999998 L 30.95051699999999,66.66000399999996" fill="none" instance-id="-1" semantic-id="1" stroke="rgb(134,134,134)" stroke-width="0.1"/>
  <path d="M 30.95051699999999,66.66000399999996 L 30.95051699999999,72.860004" fill="none" instance-id="-1" semantic-id="1" stroke="rgb(134,134,134)" stroke-width="0.1"/>
  <path d="M 30.95051699999999,72.860004 L 31.350517000000025,73.26000399999998" fill="none" instance-id="-1" semantic-id="1" stroke="rgb(134,134,134)" stroke-width="0.1"/>
  <path d="M 31.350517000000025,73.26000399999998 L 31.350517000000025,66.26000399999998" fill="none" instance-id="-1" semantic-id="1" stroke="rgb(134,134,134)" stroke-width="0.1"/>
  <path d="M 24.350517000000025,66.26000399999998 L 24.750517000000002,66.66000399999996" fill="none" instance-id="-1" semantic-id="1" stroke="rgb(134,134,134)" stroke-width="0.1"/>
  <path d="M 24.750517000000002,66.66000399999996 L 30.95051699999999,66.66000399999996" fill="none" instance-id="-1" semantic-id="1" stroke="rgb(134,134,134)" stroke-width="0.1"/>
  <path d="M 30.95051699999999,66.66000399999996 L 31.350517000000025,66.26000399999998" fill="none" instance-id="-1" semantic-id="1" stroke="rgb(134,134,134)" stroke-width="0.1"/>
  <path d="M 31.350517000000025,66.26000399999998 L 24.350517000000025,66.26000399999998" fill="none" instance-id="-1" semantic-id="1" stroke="rgb(134,134,134)" stroke-width="0.1"/>
  <path d="M 24.350517000000025,66.26000399999998 L 24.350517000000025,73.26000399999998" fill="none" instance-id="-1" semantic-id="1" stroke="rgb(134,134,134)" stroke-width="0.1"/>
  <path d="M 24.350517000000025,73.26000399999998 L 24.750517000000002,72.860004" fill="none" instance-id="-1" semantic-id="1" stroke="rgb(134,134,134)" stroke-width="0.1"/>
  <path d="M 24.750517000000002,72.860004 L 24.750517000000002,66.66000399999996" fill="none" instance-id="-1" semantic-id="1" stroke="rgb(134,134,134)" stroke-width="0.1"/>
  <path d="M 24.750517000000002,66.66000399999996 L 24.350517000000025,66.26000399999998" fill="none" instance-id="-1" semantic-id="1" stroke="rgb(134,134,134)" stroke-width="0.1"/>
  <path d="M 93.45051699999999,0.0 L 93.45051699999999,48.76000399999998" fill="none" instance-id="-1" semantic-id="1" stroke="rgb(134,134,134)" stroke-width="0.1"/>
  <path d="M 93.45051699999999,48.76000399999998 L 93.85051700000002,48.76000399999998" fill="none" instance-id="-1" semantic-id="1" stroke="rgb(134,134,134)" stroke-width="0.1"/>
  <path d="M 93.85051700000002,48.76000399999998 L 93.85051700000002,0.0" fill="none" instance-id="-1" semantic-id="1" stroke="rgb(134,134,134)" stroke-width="0.1"/>
  <path d="M 89.85051700000002,0.0 L 89.85051700000002,48.76000399999998" fill="none" instance-id="-1" semantic-id="1" stroke="rgb(134,134,134)" stroke-width="0.1"/>
  <path d="M 89.85051700000002,48.76000399999998 L 90.250517,48.76000399999998" fill="none" instance-id="-1" semantic-id="1" stroke="rgb(134,134,134)" stroke-width="0.1"/>
  <path d="M 90.250517,48.76000399999998 L 90.250517,0.0" fill="none" instance-id="-1" semantic-id="1" stroke="rgb(134,134,134)" stroke-width="0.1"/>
  <path d="M 93.85051700000002,100.0 L 93.85051700000002,73.76000399999998" fill="none" instance-id="-1" semantic-id="1" stroke="rgb(134,134,134)" stroke-width="0.1"/>
  <path d="M 93.85051700000002,73.76000399999998 L 93.45051699999999,73.76000399999998" fill="none" instance-id="-1" semantic-id="1" stroke="rgb(134,134,134)" stroke-width="0.1"/>
  <path d="M 93.45051699999999,73.76000399999998 L 93.45051699999999,100.0" fill="none" instance-id="-1" semantic-id="1" stroke="rgb(134,134,134)" stroke-width="0.1"/>
  <path d="M 90.250517,100.0 L 90.250517,73.76000399999998" fill="none" instance-id="-1" semantic-id="1" stroke="rgb(134,134,134)" stroke-width="0.1"/>
  <path d="M 90.250517,73.76000399999998 L 89.85051700000002,73.76000399999998" fill="none" instance-id="-1" semantic-id="1" stroke="rgb(134,134,134)" stroke-width="0.1"/>
  <path d="M 89.85051700000002,73.76000399999998 L 89.85051700000002,100.0" fill="none" instance-id="-1" semantic-id="1" stroke="rgb(134,134,134)" stroke-width="0.1"/>
  <path d="M 30.45051699999999,75.16000399999996 L 55.65051699999998,75.16000399999996" fill="none" instance-id="-1" semantic-id="1" stroke="rgb(134,134,134)" stroke-width="0.1"/>
  <path d="M 55.65051699999998,75.16000399999996 L 55.65051699999998,74.76000399999998" fill="none" instance-id="-1" semantic-id="1" stroke="rgb(134,134,134)" stroke-width="0.1"/>
  <path d="M 55.65051699999998,74.76000399999998 L 30.850517000000025,74.76000399999998" fill="none" instance-id="-1" semantic-id="1" stroke="rgb(134,134,134)" stroke-width="0.1"/>
  <path d="M 30.850517000000025,74.76000399999998 L 30.45051699999999,75.16000399999996" fill="none" instance-id="-1" semantic-id="1" stroke="rgb(134,134,134)" stroke-width="0.1"/>
  <path d="M 28.850517000000025,76.76000399999998 L 55.65051699999998,76.76000399999998" fill="none" instance-id="-1" semantic-id="1" stroke="rgb(134,134,134)" stroke-width="0.1"/>
  <path d="M 55.65051699999998,76.76000399999998 L 55.65051699999998,76.360004" fill="none" instance-id="-1" semantic-id="1" stroke="rgb(134,134,134)" stroke-width="0.1"/>
  <path d="M 55.65051699999998,76.360004 L 29.250517000000002,76.360004" fill="none" instance-id="-1" semantic-id="1" stroke="rgb(134,134,134)" stroke-width="0.1"/>
  <path d="M 29.250517000000002,76.360004 L 28.850517000000025,76.76000399999998" fill="none" instance-id="-1" semantic-id="1" stroke="rgb(134,134,134)" stroke-width="0.1"/>
  <path d="M 55.250517,74.76000399999998 L 55.250517,76.76000399999998" fill="none" instance-id="-1" semantic-id="1" stroke="rgb(134,134,134)" stroke-width="0.1"/>
  <path d="M 55.250517,76.76000399999998 L 55.65051699999998,76.76000399999998" fill="none" instance-id="-1" semantic-id="1" stroke="rgb(134,134,134)" stroke-width="0.1"/>
  <path d="M 55.65051699999998,76.76000399999998 L 55.65051699999998,74.76000399999998" fill="none" instance-id="-1" semantic-id="1" stroke="rgb(134,134,134)" stroke-width="0.1"/>
  <path d="M 55.65051699999998,74.76000399999998 L 55.250517,74.76000399999998" fill="none" instance-id="-1" semantic-id="1" stroke="rgb(134,134,134)" stroke-width="0.1"/>
  <path d="M 8.45051699999999,70.360004 L 8.45051699999999,100.0" fill="none" instance-id="-1" semantic-id="1" stroke="rgb(134,134,134)" stroke-width="0.1"/>
  <path d="M 8.850517000000025,100.0 L 8.850517000000025,70.76000399999998" fill="none" instance-id="-1" semantic-id="1" stroke="rgb(134,134,134)" stroke-width="0.1"/>
  <path d="M 8.850517000000025,70.76000399999998 L 8.45051699999999,70.360004" fill="none" instance-id="-1" semantic-id="1" stroke="rgb(134,134,134)" stroke-width="0.1"/>
  <path d="M 7.250517000000002,100.0 L 7.250517000000002,70.360004" fill="none" instance-id="-1" semantic-id="1" stroke="rgb(134,134,134)" stroke-width="0.1"/>
  <path d="M 7.250517000000002,70.360004 L 6.850517000000025,70.76000399999998" fill="none" instance-id="-1" semantic-id="1" stroke="rgb(134,134,134)" stroke-width="0.1"/>
  <path d="M 6.850517000000025,70.76000399999998 L 6.850517000000025,100.0" fill="none" instance-id="-1" semantic-id="1" stroke="rgb(134,134,134)" stroke-width="0.1"/>
  <path d="M 8.850517000000025,70.76000399999998 L 9.350517000000025,70.76000399999998" fill="none" instance-id="-1" semantic-id="1" stroke="rgb(134,134,134)" stroke-width="0.1"/>
  <path d="M 9.350517000000025,70.76000399999998 L 8.95051699999999,70.360004" fill="none" instance-id="-1" semantic-id="1" stroke="rgb(134,134,134)" stroke-width="0.1"/>
  <path d="M 8.95051699999999,70.360004 L 8.45051699999999,70.360004" fill="none" instance-id="-1" semantic-id="1" stroke="rgb(134,134,134)" stroke-width="0.1"/>
  <path d="M 8.45051699999999,70.360004 L 8.850517000000025,70.76000399999998" fill="none" instance-id="-1" semantic-id="1" stroke="rgb(134,134,134)" stroke-width="0.1"/>
  <path d="M 9.350517000000025,70.76000399999998 L 9.350517000000025,68.76000399999998" fill="none" instance-id="-1" semantic-id="1" stroke="rgb(134,134,134)" stroke-width="0.1"/>
  <path d="M 9.350517000000025,68.76000399999998 L 8.95051699999999,69.16000399999996" fill="none" instance-id="-1" semantic-id="1" stroke="rgb(134,134,134)" stroke-width="0.1"/>
  <path d="M 8.95051699999999,69.16000399999996 L 8.95051699999999,70.360004" fill="none" instance-id="-1" semantic-id="1" stroke="rgb(134,134,134)" stroke-width="0.1"/>
  <path d="M 8.95051699999999,70.360004 L 9.350517000000025,70.76000399999998" fill="none" instance-id="-1" semantic-id="1" stroke="rgb(134,134,134)" stroke-width="0.1"/>
  <path d="M 7.850517000000025,68.76000399999998 L 7.850517000000025,69.16000399999996" fill="none" instance-id="-1" semantic-id="1" stroke="rgb(134,134,134)" stroke-width="0.1"/>
  <path d="M 7.850517000000025,69.16000399999996 L 8.95051699999999,69.16000399999996" fill="none" instance-id="-1" semantic-id="1" stroke="rgb(134,134,134)" stroke-width="0.1"/>
  <path d="M 8.95051699999999,69.16000399999996 L 9.350517000000025,68.76000399999998" fill="none" instance-id="-1" semantic-id="1" stroke="rgb(134,134,134)" stroke-width="0.1"/>
  <path d="M 9.350517000000025,68.76000399999998 L 7.850517000000025,68.76000399999998" fill="none" instance-id="-1" semantic-id="1" stroke="rgb(134,134,134)" stroke-width="0.1"/>
  <path d="M 30.850517000000025,49.76000399999998 L 31.850517000000025,49.76000399999998" fill="none" instance-id="-1" semantic-id="1" stroke="rgb(134,134,134)" stroke-width="0.1"/>
  <path d="M 31.850517000000025,49.76000399999998 L 31.45051699999999,49.360004" fill="none" instance-id="-1" semantic-id="1" stroke="rgb(134,134,134)" stroke-width="0.1"/>
  <path d="M 31.45051699999999,49.360004 L 30.45051699999999,49.360004" fill="none" instance-id="-1" semantic-id="1" stroke="rgb(134,134,134)" stroke-width="0.1"/>
  <path d="M 30.45051699999999,49.360004 L 30.850517000000025,49.76000399999998" fill="none" instance-id="-1" semantic-id="1" stroke="rgb(134,134,134)" stroke-width="0.1"/>
  <path d="M 31.850517000000025,49.76000399999998 L 31.850517000000025,47.76000399999998" fill="none" instance-id="-1" semantic-id="1" stroke="rgb(134,134,134)" stroke-width="0.1"/>
  <path d="M 31.850517000000025,47.76000399999998 L 31.45051699999999,48.16000399999996" fill="none" instance-id="-1" semantic-id="1" stroke="rgb(134,134,134)" stroke-width="0.1"/>
  <path d="M 31.45051699999999,48.16000399999996 L 31.45051699999999,49.360004" fill="none" instance-id="-1" semantic-id="1" stroke="rgb(134,134,134)" stroke-width="0.1"/>
  <path d="M 31.45051699999999,49.360004 L 31.850517000000025,49.76000399999998" fill="none" instance-id="-1" semantic-id="1" stroke="rgb(134,134,134)" stroke-width="0.1"/>
  <path d="M 28.850517000000025,47.76000399999998 L 29.250517000000002,48.16000399999996" fill="none" instance-id="-1" semantic-id="1" stroke="rgb(134,134,134)" stroke-width="0.1"/>
  <path d="M 29.250517000000002,48.16000399999996 L 31.45051699999999,48.16000399999996" fill="none" instance-id="-1" semantic-id="1" stroke="rgb(134,134,134)" stroke-width="0.1"/>
  <path d="M 31.45051699999999,48.16000399999996 L 31.850517000000025,47.76000399999998" fill="none" instance-id="-1" semantic-id="1" stroke="rgb(134,134,134)" stroke-width="0.1"/>
  <path d="M 31.850517000000025,47.76000399999998 L 28.850517000000025,47.76000399999998" fill="none" instance-id="-1" semantic-id="1" stroke="rgb(134,134,134)" stroke-width="0.1"/>
  <path d="M 41.850517000000025,47.76000399999998 L 42.250517,48.16000399999996" fill="none" instance-id="-1" semantic-id="1" stroke="rgb(134,134,134)" stroke-width="0.1"/>
  <path d="M 42.250517,48.16000399999996 L 80.85051700000002,48.16000399999996" fill="none" instance-id="-1" semantic-id="1" stroke="rgb(134,134,134)" stroke-width="0.1"/>
  <path d="M 80.85051700000002,48.16000399999996 L 80.85051700000002,47.76000399999998" fill="none" instance-id="-1" semantic-id="1" stroke="rgb(134,134,134)" stroke-width="0.1"/>
  <path d="M 80.85051700000002,47.76000399999998 L 41.850517000000025,47.76000399999998" fill="none" instance-id="-1" semantic-id="1" stroke="rgb(134,134,134)" stroke-width="0.1"/>
  <path d="M 41.850517000000025,49.76000399999998 L 42.250517,49.360004" fill="none" instance-id="-1" semantic-id="1" stroke="rgb(134,134,134)" stroke-width="0.1"/>
  <path d="M 42.250517,49.360004 L 42.250517,48.16000399999996" fill="none" instance-id="-1" semantic-id="1" stroke="rgb(134,134,134)" stroke-width="0.1"/>
  <path d="M 42.250517,48.16000399999996 L 41.850517000000025,47.76000399999998" fill="none" instance-id="-1" semantic-id="1" stroke="rgb(134,134,134)" stroke-width="0.1"/>
  <path d="M 41.850517000000025,47.76000399999998 L 41.850517000000025,49.76000399999998" fill="none" instance-id="-1" semantic-id="1" stroke="rgb(134,134,134)" stroke-width="0.1"/>
  <path d="M 41.850517000000025,49.76000399999998 L 79.85051700000002,49.76000399999998" fill="none" instance-id="-1" semantic-id="1" stroke="rgb(134,134,134)" stroke-width="0.1"/>
  <path d="M 79.85051700000002,49.76000399999998 L 80.250517,49.360004" fill="none" instance-id="-1" semantic-id="1" stroke="rgb(134,134,134)" stroke-width="0.1"/>
  <path d="M 80.250517,49.360004 L 42.250517,49.360004" fill="none" instance-id="-1" semantic-id="1" stroke="rgb(134,134,134)" stroke-width="0.1"/>
  <path d="M 42.250517,49.360004 L 41.850517000000025,49.76000399999998" fill="none" instance-id="-1" semantic-id="1" stroke="rgb(134,134,134)" stroke-width="0.1"/>
  <path d="M 93.45051699999999,65.76000399999998 L 93.85051700000002,65.76000399999998" fill="none" instance-id="-1" semantic-id="1" stroke="rgb(134,134,134)" stroke-width="0.1"/>
  <path d="M 93.85051700000002,65.76000399999998 L 93.85051700000002,48.76000399999998" fill="none" instance-id="-1" semantic-id="1" stroke="rgb(134,134,134)" stroke-width="0.1"/>
  <path d="M 93.85051700000002,48.76000399999998 L 93.45051699999999,48.76000399999998" fill="none" instance-id="-1" semantic-id="1" stroke="rgb(134,134,134)" stroke-width="0.1"/>
  <path d="M 93.45051699999999,48.76000399999998 L 93.45051699999999,65.76000399999998" fill="none" instance-id="-1" semantic-id="1" stroke="rgb(134,134,134)" stroke-width="0.1"/>
  <path d="M 89.85051700000002,65.76000399999998 L 90.250517,65.76000399999998" fill="none" instance-id="-1" semantic-id="1" stroke="rgb(134,134,134)" stroke-width="0.1"/>
  <path d="M 90.250517,65.76000399999998 L 90.250517,48.76000399999998" fill="none" instance-id="-1" semantic-id="1" stroke="rgb(134,134,134)" stroke-width="0.1"/>
  <path d="M 90.250517,48.76000399999998 L 89.85051700000002,48.76000399999998" fill="none" instance-id="-1" semantic-id="1" stroke="rgb(134,134,134)" stroke-width="0.1"/>
  <path d="M 89.85051700000002,48.76000399999998 L 89.85051700000002,65.76000399999998" fill="none" instance-id="-1" semantic-id="1" stroke="rgb(134,134,134)" stroke-width="0.1"/>
  <path d="M 30.45051699999999,73.26000399999998 L 30.45051699999999,75.16000399999996" fill="none" instance-id="-1" semantic-id="1" stroke="rgb(134,134,134)" stroke-width="0.1"/>
  <path d="M 30.45051699999999,75.16000399999996 L 30.850517000000025,74.76000399999998" fill="none" instance-id="-1" semantic-id="1" stroke="rgb(134,134,134)" stroke-width="0.1"/>
  <path d="M 30.850517000000025,74.76000399999998 L 30.850517000000025,73.26000399999998" fill="none" instance-id="-1" semantic-id="1" stroke="rgb(134,134,134)" stroke-width="0.1"/>
  <path d="M 30.850517000000025,73.26000399999998 L 30.45051699999999,73.26000399999998" fill="none" instance-id="-1" semantic-id="1" stroke="rgb(134,134,134)" stroke-width="0.1"/>
  <path d="M 28.850517000000025,73.26000399999998 L 28.850517000000025,76.76000399999998" fill="none" instance-id="-1" semantic-id="1" stroke="rgb(134,134,134)" stroke-width="0.1"/>
  <path d="M 28.850517000000025,76.76000399999998 L 29.250517000000002,76.360004" fill="none" instance-id="-1" semantic-id="1" stroke="rgb(134,134,134)" stroke-width="0.1"/>
  <path d="M 29.250517000000002,76.360004 L 29.250517000000002,73.26000399999998" fill="none" instance-id="-1" semantic-id="1" stroke="rgb(134,134,134)" stroke-width="0.1"/>
  <path d="M 29.250517000000002,73.26000399999998 L 28.850517000000025,73.26000399999998" fill="none" instance-id="-1" semantic-id="1" stroke="rgb(134,134,134)" stroke-width="0.1"/>
  <path d="M 81.45051699999999,49.360004 L 81.45051699999999,74.76000399999998" fill="none" instance-id="-1" semantic-id="1" stroke="rgb(134,134,134)" stroke-width="0.1"/>
  <path d="M 81.45051699999999,74.76000399999998 L 81.85051700000002,74.76000399999998" fill="none" instance-id="-1" semantic-id="1" stroke="rgb(134,134,134)" stroke-width="0.1"/>
  <path d="M 81.85051700000002,74.76000399999998 L 81.85051700000002,49.76000399999998" fill="none" instance-id="-1" semantic-id="1" stroke="rgb(134,134,134)" stroke-width="0.1"/>
  <path d="M 81.85051700000002,49.76000399999998 L 81.45051699999999,49.360004" fill="none" instance-id="-1" semantic-id="1" stroke="rgb(134,134,134)" stroke-width="0.1"/>
  <path d="M 79.85051700000002,74.76000399999998 L 80.250517,74.76000399999998" fill="none" instance-id="-1" semantic-id="1" stroke="rgb(134,134,134)" stroke-width="0.1"/>
  <path d="M 80.250517,74.76000399999998 L 80.250517,49.360004" fill="none" instance-id="-1" semantic-id="1" stroke="rgb(134,134,134)" stroke-width="0.1"/>
  <path d="M 80.250517,49.360004 L 79.85051700000002,49.76000399999998" fill="none" instance-id="-1" semantic-id="1" stroke="rgb(134,134,134)" stroke-width="0.1"/>
  <path d="M 79.85051700000002,49.76000399999998 L 79.85051700000002,74.76000399999998" fill="none" instance-id="-1" semantic-id="1" stroke="rgb(134,134,134)" stroke-width="0.1"/>
  <path d="M 81.85051700000002,74.76000399999998 L 81.85051700000002,74.360004" fill="none" instance-id="-1" semantic-id="1" stroke="rgb(134,134,134)" stroke-width="0.1"/>
  <path d="M 81.85051700000002,74.360004 L 79.85051700000002,74.360004" fill="none" instance-id="-1" semantic-id="1" stroke="rgb(134,134,134)" stroke-width="0.1"/>
  <path d="M 79.85051700000002,74.360004 L 79.85051700000002,74.76000399999998" fill="none" instance-id="-1" semantic-id="1" stroke="rgb(134,134,134)" stroke-width="0.1"/>
  <path d="M 79.85051700000002,74.76000399999998 L 81.85051700000002,74.76000399999998" fill="none" instance-id="-1" semantic-id="1" stroke="rgb(134,134,134)" stroke-width="0.1"/>
  <path d="M 80.85051700000002,48.16000399999996 L 89.85051700000002,48.16000399999996" fill="none" instance-id="-1" semantic-id="1" stroke="rgb(134,134,134)" stroke-width="0.1"/>
  <path d="M 89.85051700000002,48.16000399999996 L 89.85051700000002,47.76000399999998" fill="none" instance-id="-1" semantic-id="1" stroke="rgb(134,134,134)" stroke-width="0.1"/>
  <path d="M 89.85051700000002,47.76000399999998 L 80.85051700000002,47.76000399999998" fill="none" instance-id="-1" semantic-id="1" stroke="rgb(134,134,134)" stroke-width="0.1"/>
  <path d="M 80.85051700000002,47.76000399999998 L 80.85051700000002,48.16000399999996" fill="none" instance-id="-1" semantic-id="1" stroke="rgb(134,134,134)" stroke-width="0.1"/>
  <path d="M 81.85051700000002,49.76000399999998 L 89.85051700000002,49.76000399999998" fill="none" instance-id="-1" semantic-id="1" stroke="rgb(134,134,134)" stroke-width="0.1"/>
  <path d="M 89.85051700000002,49.76000399999998 L 89.85051700000002,49.360004" fill="none" instance-id="-1" semantic-id="1" stroke="rgb(134,134,134)" stroke-width="0.1"/>
  <path d="M 89.85051700000002,49.360004 L 81.45051699999999,49.360004" fill="none" instance-id="-1" semantic-id="1" stroke="rgb(134,134,134)" stroke-width="0.1"/>
  <path d="M 81.45051699999999,49.360004 L 81.85051700000002,49.76000399999998" fill="none" instance-id="-1" semantic-id="1" stroke="rgb(134,134,134)" stroke-width="0.1"/>
  <path d="M 55.65051699999998,74.76000399999998 L 56.05051700000001,75.16000399999996" fill="none" instance-id="-1" semantic-id="1" stroke="rgb(134,134,134)" stroke-width="0.1"/>
  <path d="M 56.05051700000001,75.16000399999996 L 93.45051699999999,75.16000399999996" fill="none" instance-id="-1" semantic-id="1" stroke="rgb(134,134,134)" stroke-width="0.1"/>
  <path d="M 93.45051699999999,75.16000399999996 L 93.85051700000002,74.76000399999998" fill="none" instance-id="-1" semantic-id="1" stroke="rgb(134,134,134)" stroke-width="0.1"/>
  <path d="M 93.85051700000002,74.76000399999998 L 55.65051699999998,74.76000399999998" fill="none" instance-id="-1" semantic-id="1" stroke="rgb(134,134,134)" stroke-width="0.1"/>
  <path d="M 59.65051699999998,77.76000399999998 L 89.85051700000002,77.76000399999998" fill="none" instance-id="-1" semantic-id="1" stroke="rgb(134,134,134)" stroke-width="0.1"/>
  <path d="M 89.85051700000002,77.76000399999998 L 90.250517,77.360004" fill="none" instance-id="-1" semantic-id="1" stroke="rgb(134,134,134)" stroke-width="0.1"/>
  <path d="M 90.250517,77.360004 L 59.250517,77.360004" fill="none" instance-id="-1" semantic-id="1" stroke="rgb(134,134,134)" stroke-width="0.1"/>
  <path d="M 59.250517,77.360004 L 59.65051699999998,77.76000399999998" fill="none" instance-id="-1" semantic-id="1" stroke="rgb(134,134,134)" stroke-width="0.1"/>
  <path d="M 59.250517,84.360004 L 90.250517,84.360004" fill="none" instance-id="-1" semantic-id="1" stroke="rgb(134,134,134)" stroke-width="0.1"/>
  <path d="M 90.250517,84.360004 L 89.85051700000002,83.96000399999997" fill="none" instance-id="-1" semantic-id="1" stroke="rgb(134,134,134)" stroke-width="0.1"/>
  <path d="M 89.85051700000002,83.96000399999997 L 59.65051699999998,83.96000399999997" fill="none" instance-id="-1" semantic-id="1" stroke="rgb(134,134,134)" stroke-width="0.1"/>
  <path d="M 59.65051699999998,83.96000399999997 L 59.250517,84.360004" fill="none" instance-id="-1" semantic-id="1" stroke="rgb(134,134,134)" stroke-width="0.1"/>
  <path d="M 59.65051699999998,86.96000399999997 L 89.85051700000002,86.96000399999997" fill="none" instance-id="-1" semantic-id="1" stroke="rgb(134,134,134)" stroke-width="0.1"/>
  <path d="M 89.85051700000002,86.96000399999997 L 90.250517,86.56000399999999" fill="none" instance-id="-1" semantic-id="1" stroke="rgb(134,134,134)" stroke-width="0.1"/>
  <path d="M 90.250517,86.56000399999999 L 59.250517,86.56000399999999" fill="none" instance-id="-1" semantic-id="1" stroke="rgb(134,134,134)" stroke-width="0.1"/>
  <path d="M 59.250517,86.56000399999999 L 59.65051699999998,86.96000399999997" fill="none" instance-id="-1" semantic-id="1" stroke="rgb(134,134,134)" stroke-width="0.1"/>
  <path d="M 55.65051699999998,85.46000399999997 L 56.05051700000001,85.46000399999997" fill="none" instance-id="-1" semantic-id="1" stroke="rgb(134,134,134)" stroke-width="0.1"/>
  <path d="M 56.05051700000001,85.46000399999997 L 56.05051700000001,75.16000399999996" fill="none" instance-id="-1" semantic-id="1" stroke="rgb(134,134,134)" stroke-width="0.1"/>
  <path d="M 56.05051700000001,75.16000399999996 L 55.65051699999998,74.76000399999998" fill="none" instance-id="-1" semantic-id="1" stroke="rgb(134,134,134)" stroke-width="0.1"/>
  <path d="M 55.65051699999998,74.76000399999998 L 55.65051699999998,85.46000399999997" fill="none" instance-id="-1" semantic-id="1" stroke="rgb(134,134,134)" stroke-width="0.1"/>
  <path d="M 59.65051699999998,83.96000399999997 L 59.65051699999998,77.76000399999998" fill="none" instance-id="-1" semantic-id="1" stroke="rgb(134,134,134)" stroke-width="0.1"/>
  <path d="M 59.65051699999998,77.76000399999998 L 59.250517,77.360004" fill="none" instance-id="-1" semantic-id="1" stroke="rgb(134,134,134)" stroke-width="0.1"/>
  <path d="M 59.250517,77.360004 L 59.250517,84.360004" fill="none" instance-id="-1" semantic-id="1" stroke="rgb(134,134,134)" stroke-width="0.1"/>
  <path d="M 59.250517,84.360004 L 59.65051699999998,83.96000399999997" fill="none" instance-id="-1" semantic-id="1" stroke="rgb(134,134,134)" stroke-width="0.1"/>
  <path d="M 93.45051699999999,75.16000399999996 L 93.45051699999999,85.46000399999997" fill="none" instance-id="-1" semantic-id="1" stroke="rgb(134,134,134)" stroke-width="0.1"/>
  <path d="M 93.45051699999999,85.46000399999997 L 93.85051700000002,85.46000399999997" fill="none" instance-id="-1" semantic-id="1" stroke="rgb(134,134,134)" stroke-width="0.1"/>
  <path d="M 93.85051700000002,85.46000399999997 L 93.85051700000002,74.76000399999998" fill="none" instance-id="-1" semantic-id="1" stroke="rgb(134,134,134)" stroke-width="0.1"/>
  <path d="M 93.85051700000002,74.76000399999998 L 93.45051699999999,75.16000399999996" fill="none" instance-id="-1" semantic-id="1" stroke="rgb(134,134,134)" stroke-width="0.1"/>
  <path d="M 89.85051700000002,83.96000399999997 L 90.250517,84.360004" fill="none" instance-id="-1" semantic-id="1" stroke="rgb(134,134,134)" stroke-width="0.1"/>
  <path d="M 90.250517,84.360004 L 90.250517,77.360004" fill="none" instance-id="-1" semantic-id="1" stroke="rgb(134,134,134)" stroke-width="0.1"/>
  <path d="M 90.250517,77.360004 L 89.85051700000002,77.76000399999998" fill="none" instance-id="-1" semantic-id="1" stroke="rgb(134,134,134)" stroke-width="0.1"/>
  <path d="M 89.85051700000002,77.76000399999998 L 89.85051700000002,83.96000399999997" fill="none" instance-id="-1" semantic-id="1" stroke="rgb(134,134,134)" stroke-width="0.1"/>
  <path d="M 93.45051699999999,85.46000399999997 L 93.45051699999999,100.0" fill="none" instance-id="-1" semantic-id="1" stroke="rgb(134,134,134)" stroke-width="0.1"/>
  <path d="M 93.85051700000002,100.0 L 93.85051700000002,85.46000399999997" fill="none" instance-id="-1" semantic-id="1" stroke="rgb(134,134,134)" stroke-width="0.1"/>
  <path d="M 93.85051700000002,85.46000399999997 L 93.45051699999999,85.46000399999997" fill="none" instance-id="-1" semantic-id="1" stroke="rgb(134,134,134)" stroke-width="0.1"/>
  <path d="M 90.250517,100.0 L 90.250517,86.56000399999999" fill="none" instance-id="-1" semantic-id="1" stroke="rgb(134,134,134)" stroke-width="0.1"/>
  <path d="M 90.250517,86.56000399999999 L 89.85051700000002,86.96000399999997" fill="none" instance-id="-1" semantic-id="1" stroke="rgb(134,134,134)" stroke-width="0.1"/>
  <path d="M 89.85051700000002,86.96000399999997 L 89.85051700000002,100.0" fill="none" instance-id="-1" semantic-id="1" stroke="rgb(134,134,134)" stroke-width="0.1"/>
  <path d="M 55.65051699999998,86.96000399999997 L 56.05051700000001,86.56000399999999" fill="none" instance-id="-1" semantic-id="1" stroke="rgb(134,134,134)" stroke-width="0.1"/>
  <path d="M 56.05051700000001,86.56000399999999 L 56.05051700000001,85.46000399999997" fill="none" instance-id="-1" semantic-id="1" stroke="rgb(134,134,134)" stroke-width="0.1"/>
  <path d="M 56.05051700000001,85.46000399999997 L 55.65051699999998,85.46000399999997" fill="none" instance-id="-1" semantic-id="1" stroke="rgb(134,134,134)" stroke-width="0.1"/>
  <path d="M 55.65051699999998,85.46000399999997 L 55.65051699999998,86.96000399999997" fill="none" instance-id="-1" semantic-id="1" stroke="rgb(134,134,134)" stroke-width="0.1"/>
  <path d="M 55.65051699999998,86.96000399999997 L 59.65051699999998,86.96000399999997" fill="none" instance-id="-1" semantic-id="1" stroke="rgb(134,134,134)" stroke-width="0.1"/>
  <path d="M 59.65051699999998,86.96000399999997 L 59.250517,86.56000399999999" fill="none" instance-id="-1" semantic-id="1" stroke="rgb(134,134,134)" stroke-width="0.1"/>
  <path d="M 59.250517,86.56000399999999 L 56.05051700000001,86.56000399999999" fill="none" instance-id="-1" semantic-id="1" stroke="rgb(134,134,134)" stroke-width="0.1"/>
  <path d="M 56.05051700000001,86.56000399999999 L 55.65051699999998,86.96000399999997" fill="none" instance-id="-1" semantic-id="1" stroke="rgb(134,134,134)" stroke-width="0.1"/>
 </g>
 <g id="layerSTAIR" inkscape:groupmode="layer" inkscape:label="STAIR">
  <path d="M 89.85051700000002,100.0 L 89.85051700000002,86.96000399999997" fill="none" stroke="rgb(0,178,178)" stroke-width="0.1"/>
  <path d="M 89.85051700000002,86.96000399999997 L 59.65051699999998,86.96000399999997" fill="none" stroke="rgb(0,178,178)" stroke-width="0.1"/>
  <path d="M 59.65051699999998,86.96000399999997 L 59.65051699999998,100.0" fill="none" stroke="rgb(0,178,178)" stroke-width="0.1"/>
 </g>
 <g id="layerW-EQUIP_消火栓" inkscape:groupmode="layer" inkscape:label="W-EQUIP_消火栓">
  <path d="M 29.850517000000025,63.26000399999998 L 27.850517000000025,63.26000399999998" fill="none" stroke="rgb(0,0,0)" stroke-width="0.1"/>
  <path d="M 27.850517000000025,56.26000399999998 L 29.850517000000025,56.26000399999998" fill="none" stroke="rgb(0,0,0)" stroke-width="0.1"/>
  <path d="M 29.850517000000025,56.26000399999998 L 29.850517000000025,63.26000399999998" fill="none" stroke="rgb(0,0,0)" stroke-width="0.1"/>
  <path d="M 29.850517000000025,56.26000399999998 L 27.850517000000025,63.26000399999998" fill="none" stroke="rgb(0,0,0)" stroke-width="0.1"/>
  <path d="M 27.850517000000025,63.26000399999998 L 27.850517000000025,56.26000399999998" fill="none" stroke="rgb(0,0,0)" stroke-width="0.1"/>
 </g>
 <g id="layerW-EQUIP_灭火器" inkscape:groupmode="layer" inkscape:label="W-EQUIP_灭火器">
  <path d="M 25.678517,61.716004 L 25.96651700000001,61.42800399999999" fill="none" stroke="rgb(0,0,0)" stroke-width="0.1"/>
  <path d="M 25.678517,62.158004000000005 L 26.408517000000018,61.42800399999999" fill="none" stroke="rgb(0,0,0)" stroke-width="0.1"/>
  <path d="M 25.678517,62.600003999999956 L 26.850517000000025,61.42800399999999" fill="none" stroke="rgb(0,0,0)" stroke-width="0.1"/>
  <path d="M 25.678517,63.04200399999996 L 27.292516999999975,61.42800399999999" fill="none" stroke="rgb(0,0,0)" stroke-width="0.1"/>
  <path d="M 26.110517000000016,63.05100399999998 L 27.30151699999999,61.86100399999998" fill="none" stroke="rgb(0,0,0)" stroke-width="0.1"/>
  <path d="M 26.552517000000023,63.05100399999998 L 27.30151699999999,62.30300399999999" fill="none" stroke="rgb(0,0,0)" stroke-width="0.1"/>
  <path d="M 26.99451700000003,63.05100399999998 L 27.30151699999999,62.745003999999994" fill="none" stroke="rgb(0,0,0)" stroke-width="0.1"/>
  <path d="M 25.678517,56.85500400000001 L 26.064517000000023,56.469003999999984" fill="none" stroke="rgb(0,0,0)" stroke-width="0.1"/>
  <path d="M 25.678517,57.29700399999996 L 26.50651700000003,56.469003999999984" fill="none" stroke="rgb(0,0,0)" stroke-width="0.1"/>
  <path d="M 25.678517,57.73800399999999 L 26.94851699999998,56.469003999999984" fill="none" stroke="rgb(0,0,0)" stroke-width="0.1"/>
  <path d="M 25.767516999999998,58.092003999999974 L 27.30151699999999,56.557004000000006" fill="none" stroke="rgb(0,0,0)" stroke-width="0.1"/>
  <path d="M 26.209517000000005,58.092003999999974 L 27.30151699999999,56.99900399999996" fill="none" stroke="rgb(0,0,0)" stroke-width="0.1"/>
  <path d="M 26.651517000000013,58.092003999999974 L 27.30151699999999,57.441003999999964" fill="none" stroke="rgb(0,0,0)" stroke-width="0.1"/>
  <path d="M 27.09351700000002,58.092003999999974 L 27.30151699999999,57.88300399999997" fill="none" stroke="rgb(0,0,0)" stroke-width="0.1"/>
  <path d="M 23.55551700000001,62.240004 L 27.850517000000025,59.76000399999998" fill="none" stroke="rgb(0,0,0)" stroke-width="0.1"/>
  <path d="M 27.850517000000025,59.76000399999998 L 27.850517000000025,64.72000399999996" fill="none" stroke="rgb(0,0,0)" stroke-width="0.1"/>
  <path d="M 27.850517000000025,64.72000399999996 L 23.55551700000001,62.240004" fill="none" stroke="rgb(0,0,0)" stroke-width="0.1"/>
  <path d="M 25.678517,61.42800399999999 L 25.678517,63.05100399999998" fill="none" stroke="rgb(0,0,0)" stroke-width="0.1"/>
  <path d="M 25.678517,63.05100399999998 L 27.30151699999999,63.05100399999998" fill="none" stroke="rgb(0,0,0)" stroke-width="0.1"/>
  <path d="M 27.30151699999999,63.05100399999998 L 27.30151699999999,61.42800399999999" fill="none" stroke="rgb(0,0,0)" stroke-width="0.1"/>
  <path d="M 27.30151699999999,61.42800399999999 L 25.678517,61.42800399999999" fill="none" stroke="rgb(0,0,0)" stroke-width="0.1"/>
  <path d="M 23.55551700000001,57.28000399999996 L 27.850517000000025,54.800004" fill="none" stroke="rgb(0,0,0)" stroke-width="0.1"/>
  <path d="M 27.850517000000025,54.800004 L 27.850517000000025,59.76000399999998" fill="none" stroke="rgb(0,0,0)" stroke-width="0.1"/>
  <path d="M 27.850517000000025,59.76000399999998 L 23.55551700000001,57.28000399999996" fill="none" stroke="rgb(0,0,0)" stroke-width="0.1"/>
  <path d="M 25.678517,56.469003999999984 L 25.678517,58.092003999999974" fill="none" stroke="rgb(0,0,0)" stroke-width="0.1"/>
  <path d="M 25.678517,58.092003999999974 L 27.30151699999999,58.092003999999974" fill="none" stroke="rgb(0,0,0)" stroke-width="0.1"/>
  <path d="M 27.30151699999999,58.092003999999974 L 27.30151699999999,56.469003999999984" fill="none" stroke="rgb(0,0,0)" stroke-width="0.1"/>
  <path d="M 27.30151699999999,56.469003999999984 L 25.678517,56.469003999999984" fill="none" stroke="rgb(0,0,0)" stroke-width="0.1"/>
  <path d="M 25.678517,63.05100399999998 L 27.30151699999999,63.05100399999998" fill="none" stroke="rgb(0,0,0)" stroke-width="0.1"/>
  <path d="M 27.30151699999999,63.05100399999998 L 27.30151699999999,61.42800399999999" fill="none" stroke="rgb(0,0,0)" stroke-width="0.1"/>
  <path d="M 27.30151699999999,61.42800399999999 L 25.678517,61.42800399999999" fill="none" stroke="rgb(0,0,0)" stroke-width="0.1"/>
  <path d="M 25.678517,61.42800399999999 L 25.678517,63.05100399999998" fill="none" stroke="rgb(0,0,0)" stroke-width="0.1"/>
  <path d="M 25.678517,58.092003999999974 L 27.30151699999999,58.092003999999974" fill="none" stroke="rgb(0,0,0)" stroke-width="0.1"/>
  <path d="M 27.30151699999999,58.092003999999974 L 27.30151699999999,56.469003999999984" fill="none" stroke="rgb(0,0,0)" stroke-width="0.1"/>
  <path d="M 27.30151699999999,56.469003999999984 L 25.678517,56.469003999999984" fill="none" stroke="rgb(0,0,0)" stroke-width="0.1"/>
  <path d="M 25.678517,56.469003999999984 L 25.678517,58.092003999999974" fill="none" stroke="rgb(0,0,0)" stroke-width="0.1"/>
 </g>
 <g id="layerWINDOW" inkscape:groupmode="layer" inkscape:label="WINDOW">
  <path d="M 89.85051700000002,77.76000399999998 L 63.55151699999999,80.40000399999997" fill="none" stroke="rgb(53,133,160)" stroke-width="0.1"/>
  <path d="M 63.55151699999999,80.40000399999997 L 59.65051699999998,83.51000399999998" fill="none" stroke="rgb(53,133,160)" stroke-width="0.1"/>
  <path d="M 89.85051700000002,77.76000399999998 L 59.65051699999998,77.76000399999998" fill="none" stroke="rgb(53,133,160)" stroke-width="0.1"/>
  <path d="M 59.65051699999998,77.76000399999998 L 59.65051699999998,83.96000399999997" fill="none" stroke="rgb(53,133,160)" stroke-width="0.1"/>
  <path d="M 59.65051699999998,83.96000399999997 L 89.85051700000002,83.96000399999997" fill="none" stroke="rgb(53,133,160)" stroke-width="0.1"/>
  <path d="M 89.85051700000002,83.96000399999997 L 89.85051700000002,77.76000399999998" fill="none" stroke="rgb(53,133,160)" stroke-width="0.1"/>
 </g>
 <g id="layer人防墙" inkscape:groupmode="layer" inkscape:label="人防墙">
  <path d="M 55.65051699999998,74.76000399999998 L 93.85051700000002,74.76000399999998" fill="none" instance-id="-1" semantic-id="1" stroke="rgb(160,53,79)" stroke-width="0.1"/>
  <path d="M 59.65051699999998,77.76000399999998 L 89.85051700000002,77.76000399999998" fill="none" instance-id="-1" semantic-id="1" stroke="rgb(160,53,79)" stroke-width="0.1"/>
  <path d="M 59.65051699999998,83.96000399999997 L 89.85051700000002,83.96000399999997" fill="none" instance-id="-1" semantic-id="1" stroke="rgb(160,53,79)" stroke-width="0.1"/>
  <path d="M 59.65051699999998,86.96000399999997 L 89.85051700000002,86.96000399999997" fill="none" instance-id="-1" semantic-id="1" stroke="rgb(160,53,79)" stroke-width="0.1"/>
  <path d="M 55.65051699999998,85.46000399999997 L 55.65051699999998,74.76000399999998" fill="none" instance-id="-1" semantic-id="1" stroke="rgb(160,53,79)" stroke-width="0.1"/>
  <path d="M 59.65051699999998,83.96000399999997 L 59.65051699999998,77.76000399999998" fill="none" instance-id="-1" semantic-id="1" stroke="rgb(160,53,79)" stroke-width="0.1"/>
  <path d="M 93.85051700000002,74.76000399999998 L 93.85051700000002,85.46000399999997" fill="none" instance-id="-1" semantic-id="1" stroke="rgb(160,53,79)" stroke-width="0.1"/>
  <path d="M 89.85051700000002,77.76000399999998 L 89.85051700000002,83.96000399999997" fill="none" instance-id="-1" semantic-id="1" stroke="rgb(160,53,79)" stroke-width="0.1"/>
  <path d="M 93.85051700000002,85.46000399999997 L 93.85051700000002,100.0" fill="none" instance-id="-1" semantic-id="1" stroke="rgb(160,53,79)" stroke-width="0.1"/>
  <path d="M 89.85051700000002,86.96000399999997 L 89.85051700000002,100.0" fill="none" instance-id="-1" semantic-id="1" stroke="rgb(160,53,79)" stroke-width="0.1"/>
  <path d="M 55.65051699999998,85.46000399999997 L 55.65051699999998,86.96000399999997" fill="none" instance-id="-1" semantic-id="1" stroke="rgb(160,53,79)" stroke-width="0.1"/>
  <path d="M 55.65051699999998,86.96000399999997 L 59.65051699999998,86.96000399999997" fill="none" instance-id="-1" semantic-id="1" stroke="rgb(160,53,79)" stroke-width="0.1"/>
 </g>
</svg>