<?xml version="1.0" encoding="utf-8"?>
<svg style="background-color: #000;" version="1.1" viewBox="0 0 100.0 100.0" xmlns="http://www.w3.org/2000/svg" xmlns:inkscape="http://www.inkscape.org/namespaces/inkscape">
 <g id="layerA-COLUMN" inkscape:groupmode="layer" inkscape:label="A-COLUMN">
  <path d="M 34.69749999999999,7.260001999999986 L 42.69749999999999,7.260001999999986" fill="none" stroke="rgb(178,0,0)" stroke-width="0.1"/>
  <path d="M 42.69749999999999,7.260001999999986 L 42.69749999999999,0.26000199999998586" fill="none" stroke="rgb(178,0,0)" stroke-width="0.1"/>
  <path d="M 42.69749999999999,0.26000199999998586 L 34.69749999999999,0.26000199999998586" fill="none" stroke="rgb(178,0,0)" stroke-width="0.1"/>
  <path d="M 34.69749999999999,0.26000199999998586 L 34.69749999999999,7.260001999999986" fill="none" stroke="rgb(178,0,0)" stroke-width="0.1"/>
  <path d="M 22.69749999999999,86.76000199999999 L 42.69749999999999,86.76000199999999" fill="none" stroke="rgb(178,0,0)" stroke-width="0.1"/>
  <path d="M 42.69749999999999,86.76000199999999 L 42.69749999999999,74.76000199999999" fill="none" stroke="rgb(178,0,0)" stroke-width="0.1"/>
  <path d="M 42.69749999999999,74.76000199999999 L 22.69749999999999,74.76000199999999" fill="none" stroke="rgb(178,0,0)" stroke-width="0.1"/>
  <path d="M 22.69749999999999,74.76000199999999 L 22.69749999999999,86.76000199999999" fill="none" stroke="rgb(178,0,0)" stroke-width="0.1"/>
 </g>
 <g id="layerA-DIM_LEAD" inkscape:groupmode="layer" inkscape:label="A-DIM_LEAD">
  <path d="M 84.70749999999998,23.94100199999997 L 71.88449999999999,23.94100199999997" fill="none" stroke="rgb(0,178,0)" stroke-width="0.1"/>
  <path d="M 71.88449999999999,23.94100199999997 L 62.96549999999999,23.94100199999997" fill="none" stroke="rgb(0,178,0)" stroke-width="0.1"/>
  <path d="M 87.49849999999998,11.119001999999966 L 74.6745,11.119001999999966" fill="none" stroke="rgb(0,178,0)" stroke-width="0.1"/>
  <path d="M 74.6745,11.119001999999966 L 54.761499999999984,11.119001999999966" fill="none" stroke="rgb(0,178,0)" stroke-width="0.1"/>
  <path d="M 89.5315,58.30700200000001 L 100.0,58.30700200000001" fill="none" stroke="rgb(0,178,0)" stroke-width="0.1"/>
  <path d="M 84.9075,23.94100199999997 A 0.20000000000000287,0.20000000000000287 0.0 1,0 84.5075,23.94100199999997" fill="none" stroke="rgb(0,178,0)" stroke-width="0.1"/>
  <path d="M 84.5075,23.94100199999997 A 0.20000000000000287,0.20000000000000287 0.0 1,0 84.9075,23.94100199999997" fill="none" stroke="rgb(0,178,0)" stroke-width="0.1"/>
  <path d="M 87.6985,11.119001999999966 A 0.20000000000000287,0.20000000000000287 0.0 1,0 87.29849999999999,11.119001999999966" fill="none" stroke="rgb(0,178,0)" stroke-width="0.1"/>
  <path d="M 87.29849999999999,11.119001999999966 A 0.20000000000000287,0.20000000000000287 0.0 1,0 87.6985,11.119001999999966" fill="none" stroke="rgb(0,178,0)" stroke-width="0.1"/>
  <path d="M 89.33149999999998,58.30700200000001 A 0.20000000000000287,0.20000000000000287 0.0 1,0 89.73149999999998,58.30700200000001" fill="none" stroke="rgb(0,178,0)" stroke-width="0.1"/>
  <path d="M 89.73149999999998,58.30700200000001 A 0.20000000000000287,0.20000000000000287 0.0 1,0 89.33149999999998,58.30700200000001" fill="none" stroke="rgb(0,178,0)" stroke-width="0.1"/>
 </g>
 <g id="layerA-DIM_SYMB" inkscape:groupmode="layer" inkscape:label="A-DIM_SYMB">
  <path d="M 84.55349999999999,78.262002 L 84.55349999999999,65.97300200000001" fill="none" stroke="rgb(0,178,0)" stroke-width="0.1"/>
  <path d="M 84.55349999999999,65.97300200000001 L 84.55349999999999,68.97300200000001" fill="none" stroke="rgb(0,178,0)" stroke-width="0.1"/>
  <path d="M 84.55349999999999,0.0 L 84.55349999999999,6.4670019999999795" fill="none" stroke="rgb(0,178,0)" stroke-width="0.1"/>
  <path d="M 84.55349999999999,6.4670019999999795 L 84.55349999999999,3.4670019999999795" fill="none" stroke="rgb(0,178,0)" stroke-width="0.1"/>
  <path d="M 59.46849999999999,32.212001999999984 L 43.60669999999999,32.212001999999984" fill="none" stroke="rgb(0,178,0)" stroke-width="0.1"/>
  <path d="M 43.60669999999999,32.212001999999984 L 46.6065,32.212001999999984" fill="none" stroke="rgb(0,178,0)" stroke-width="0.1"/>
 </g>
 <g id="layerA-DOTE" inkscape:groupmode="layer" inkscape:label="A-DOTE">
  <path d="M 31.69749999999999,0.0 L 31.69749999999999,100.0" fill="none" stroke="rgb(107,0,0)" stroke-width="0.1"/>
  <path d="M 37.69749999999999,0.0 L 37.69749999999999,100.0" fill="none" stroke="rgb(107,0,0)" stroke-width="0.1"/>
  <path d="M 0.0,3.760001999999986 L 100.0,3.760001999999986" fill="none" stroke="rgb(107,0,0)" stroke-width="0.1"/>
  <path d="M 86.19749999999999,78.76000199999999 L 86.19749999999999,0.0" fill="none" stroke="rgb(107,0,0)" stroke-width="0.1"/>
  <path d="M 69.19749999999999,0.0 L 69.19749999999999,100.0" fill="none" stroke="rgb(178,0,0)" stroke-width="0.1"/>
  <path d="M 0.0,81.76000199999999 L 100.0,81.76000199999999" fill="none" stroke="rgb(107,0,0)" stroke-width="0.1"/>
 </g>
 <g id="layerA-E_LINE_3" inkscape:groupmode="layer" inkscape:label="A-E_LINE_3">
  <path d="M 0.0,30.760001999999986 L 18.210099999999997,30.760001999999986" fill="none" stroke="rgb(0,53,107)" stroke-width="0.1"/>
 </g>
 <g id="layerA-LVTRY" inkscape:groupmode="layer" inkscape:label="A-LVTRY">
  <path d="M 83.19749999999999,78.76000199999999 L 83.19749999999999,0.0" fill="none" stroke="rgb(53,79,160)" stroke-width="0.1"/>
  <path d="M 83.19749999999999,33.260001999999986 L 0.0,33.260001999999986" fill="none" stroke="rgb(53,79,160)" stroke-width="0.1"/>
  <path d="M 83.19749999999999,1.1070019999999658 L 85.69749999999999,1.1070019999999658" fill="none" stroke="rgb(53,79,160)" stroke-width="0.1"/>
  <path d="M 83.19749999999999,3.489001999999971 L 85.69749999999999,3.489001999999971" fill="none" stroke="rgb(53,79,160)" stroke-width="0.1"/>
  <path d="M 83.19749999999999,5.8700019999999995 L 85.69749999999999,5.8700019999999995" fill="none" stroke="rgb(53,79,160)" stroke-width="0.1"/>
  <path d="M 83.19749999999999,8.251001999999971 L 85.69749999999999,8.251001999999971" fill="none" stroke="rgb(53,79,160)" stroke-width="0.1"/>
  <path d="M 83.19749999999999,10.632002 L 85.69749999999999,10.632002" fill="none" stroke="rgb(53,79,160)" stroke-width="0.1"/>
  <path d="M 83.19749999999999,13.014002000000005 L 85.69749999999999,13.014002000000005" fill="none" stroke="rgb(53,79,160)" stroke-width="0.1"/>
  <path d="M 83.19749999999999,15.395001999999977 L 85.69749999999999,15.395001999999977" fill="none" stroke="rgb(53,79,160)" stroke-width="0.1"/>
  <path d="M 83.19749999999999,17.776002000000005 L 85.69749999999999,17.776002000000005" fill="none" stroke="rgb(53,79,160)" stroke-width="0.1"/>
  <path d="M 83.19749999999999,20.157001999999977 L 85.69749999999999,20.157001999999977" fill="none" stroke="rgb(53,79,160)" stroke-width="0.1"/>
  <path d="M 83.19749999999999,22.539001999999982 L 85.69749999999999,22.539001999999982" fill="none" stroke="rgb(53,79,160)" stroke-width="0.1"/>
  <path d="M 83.19749999999999,24.92000200000001 L 85.69749999999999,24.92000200000001" fill="none" stroke="rgb(53,79,160)" stroke-width="0.1"/>
  <path d="M 83.19749999999999,27.301001999999983 L 85.69749999999999,27.301001999999983" fill="none" stroke="rgb(53,79,160)" stroke-width="0.1"/>
  <path d="M 83.19749999999999,29.68200200000001 L 85.69749999999999,29.68200200000001" fill="none" stroke="rgb(53,79,160)" stroke-width="0.1"/>
  <path d="M 83.19749999999999,32.06400199999996 L 85.69749999999999,32.06400199999996" fill="none" stroke="rgb(53,79,160)" stroke-width="0.1"/>
  <path d="M 83.19749999999999,34.44500199999999 L 85.69749999999999,34.44500199999999" fill="none" stroke="rgb(53,79,160)" stroke-width="0.1"/>
  <path d="M 83.19749999999999,36.82600199999996 L 85.69749999999999,36.82600199999996" fill="none" stroke="rgb(53,79,160)" stroke-width="0.1"/>
  <path d="M 83.19749999999999,39.20700199999999 L 85.69749999999999,39.20700199999999" fill="none" stroke="rgb(53,79,160)" stroke-width="0.1"/>
  <path d="M 83.19749999999999,41.589001999999994 L 85.69749999999999,41.589001999999994" fill="none" stroke="rgb(53,79,160)" stroke-width="0.1"/>
  <path d="M 83.19749999999999,43.970001999999965 L 85.69749999999999,43.970001999999965" fill="none" stroke="rgb(53,79,160)" stroke-width="0.1"/>
  <path d="M 83.19749999999999,46.351001999999994 L 85.69749999999999,46.351001999999994" fill="none" stroke="rgb(53,79,160)" stroke-width="0.1"/>
  <path d="M 83.19749999999999,48.732001999999966 L 85.69749999999999,48.732001999999966" fill="none" stroke="rgb(53,79,160)" stroke-width="0.1"/>
  <path d="M 83.19749999999999,51.11400199999997 L 85.69749999999999,51.11400199999997" fill="none" stroke="rgb(53,79,160)" stroke-width="0.1"/>
  <path d="M 83.19749999999999,53.495002 L 85.69749999999999,53.495002" fill="none" stroke="rgb(53,79,160)" stroke-width="0.1"/>
  <path d="M 83.19749999999999,55.87600199999997 L 85.69749999999999,55.87600199999997" fill="none" stroke="rgb(53,79,160)" stroke-width="0.1"/>
  <path d="M 83.19749999999999,58.257002 L 85.69749999999999,58.257002" fill="none" stroke="rgb(53,79,160)" stroke-width="0.1"/>
  <path d="M 83.19749999999999,60.639002000000005 L 85.69749999999999,60.639002000000005" fill="none" stroke="rgb(53,79,160)" stroke-width="0.1"/>
  <path d="M 83.19749999999999,63.02000199999998 L 85.69749999999999,63.02000199999998" fill="none" stroke="rgb(53,79,160)" stroke-width="0.1"/>
  <path d="M 83.19749999999999,65.401002 L 85.69749999999999,65.401002" fill="none" stroke="rgb(53,79,160)" stroke-width="0.1"/>
  <path d="M 83.19749999999999,67.78200199999998 L 85.69749999999999,67.78200199999998" fill="none" stroke="rgb(53,79,160)" stroke-width="0.1"/>
  <path d="M 83.19749999999999,70.16400199999998 L 85.69749999999999,70.16400199999998" fill="none" stroke="rgb(53,79,160)" stroke-width="0.1"/>
  <path d="M 83.19749999999999,72.54500200000001 L 85.69749999999999,72.54500200000001" fill="none" stroke="rgb(53,79,160)" stroke-width="0.1"/>
  <path d="M 83.19749999999999,74.92600199999998 L 85.69749999999999,74.92600199999998" fill="none" stroke="rgb(53,79,160)" stroke-width="0.1"/>
  <path d="M 83.19749999999999,77.30700200000001 L 85.69749999999999,77.30700200000001" fill="none" stroke="rgb(53,79,160)" stroke-width="0.1"/>
  <path d="M 83.19749999999999,1.9010020000000054 L 85.69749999999999,1.9010020000000054" fill="none" stroke="rgb(53,79,160)" stroke-width="0.1"/>
  <path d="M 83.19749999999999,4.282001999999977 L 85.69749999999999,4.282001999999977" fill="none" stroke="rgb(53,79,160)" stroke-width="0.1"/>
  <path d="M 83.19749999999999,6.664001999999982 L 85.69749999999999,6.664001999999982" fill="none" stroke="rgb(53,79,160)" stroke-width="0.1"/>
  <path d="M 83.19749999999999,9.04500200000001 L 85.69749999999999,9.04500200000001" fill="none" stroke="rgb(53,79,160)" stroke-width="0.1"/>
  <path d="M 83.19749999999999,11.426001999999983 L 85.69749999999999,11.426001999999983" fill="none" stroke="rgb(53,79,160)" stroke-width="0.1"/>
  <path d="M 83.19749999999999,13.807002000000011 L 85.69749999999999,13.807002000000011" fill="none" stroke="rgb(53,79,160)" stroke-width="0.1"/>
  <path d="M 83.19749999999999,16.18900199999996 L 85.69749999999999,16.18900199999996" fill="none" stroke="rgb(53,79,160)" stroke-width="0.1"/>
  <path d="M 83.19749999999999,18.570001999999988 L 85.69749999999999,18.570001999999988" fill="none" stroke="rgb(53,79,160)" stroke-width="0.1"/>
  <path d="M 83.19749999999999,20.95100199999996 L 85.69749999999999,20.95100199999996" fill="none" stroke="rgb(53,79,160)" stroke-width="0.1"/>
  <path d="M 83.19749999999999,23.33200199999999 L 85.69749999999999,23.33200199999999" fill="none" stroke="rgb(53,79,160)" stroke-width="0.1"/>
  <path d="M 83.19749999999999,25.714001999999994 L 85.69749999999999,25.714001999999994" fill="none" stroke="rgb(53,79,160)" stroke-width="0.1"/>
  <path d="M 83.19749999999999,28.095001999999965 L 85.69749999999999,28.095001999999965" fill="none" stroke="rgb(53,79,160)" stroke-width="0.1"/>
  <path d="M 83.19749999999999,30.476001999999994 L 85.69749999999999,30.476001999999994" fill="none" stroke="rgb(53,79,160)" stroke-width="0.1"/>
  <path d="M 83.19749999999999,32.857001999999966 L 85.69749999999999,32.857001999999966" fill="none" stroke="rgb(53,79,160)" stroke-width="0.1"/>
  <path d="M 83.19749999999999,35.23900199999997 L 85.69749999999999,35.23900199999997" fill="none" stroke="rgb(53,79,160)" stroke-width="0.1"/>
  <path d="M 83.19749999999999,37.620002 L 85.69749999999999,37.620002" fill="none" stroke="rgb(53,79,160)" stroke-width="0.1"/>
  <path d="M 83.19749999999999,40.00100199999997 L 85.69749999999999,40.00100199999997" fill="none" stroke="rgb(53,79,160)" stroke-width="0.1"/>
  <path d="M 83.19749999999999,42.382002 L 85.69749999999999,42.382002" fill="none" stroke="rgb(53,79,160)" stroke-width="0.1"/>
  <path d="M 83.19749999999999,44.764002000000005 L 85.69749999999999,44.764002000000005" fill="none" stroke="rgb(53,79,160)" stroke-width="0.1"/>
  <path d="M 83.19749999999999,47.14500199999998 L 85.69749999999999,47.14500199999998" fill="none" stroke="rgb(53,79,160)" stroke-width="0.1"/>
  <path d="M 83.19749999999999,49.526002000000005 L 85.69749999999999,49.526002000000005" fill="none" stroke="rgb(53,79,160)" stroke-width="0.1"/>
  <path d="M 83.19749999999999,51.90700199999998 L 85.69749999999999,51.90700199999998" fill="none" stroke="rgb(53,79,160)" stroke-width="0.1"/>
  <path d="M 83.19749999999999,54.28900199999998 L 85.69749999999999,54.28900199999998" fill="none" stroke="rgb(53,79,160)" stroke-width="0.1"/>
  <path d="M 83.19749999999999,56.67000200000001 L 85.69749999999999,56.67000200000001" fill="none" stroke="rgb(53,79,160)" stroke-width="0.1"/>
  <path d="M 83.19749999999999,59.05100199999998 L 85.69749999999999,59.05100199999998" fill="none" stroke="rgb(53,79,160)" stroke-width="0.1"/>
  <path d="M 83.19749999999999,61.43200200000001 L 85.69749999999999,61.43200200000001" fill="none" stroke="rgb(53,79,160)" stroke-width="0.1"/>
  <path d="M 83.19749999999999,63.81400199999996 L 85.69749999999999,63.81400199999996" fill="none" stroke="rgb(53,79,160)" stroke-width="0.1"/>
  <path d="M 83.19749999999999,66.19500199999999 L 85.69749999999999,66.19500199999999" fill="none" stroke="rgb(53,79,160)" stroke-width="0.1"/>
  <path d="M 83.19749999999999,68.57600199999996 L 85.69749999999999,68.57600199999996" fill="none" stroke="rgb(53,79,160)" stroke-width="0.1"/>
  <path d="M 83.19749999999999,70.95700199999999 L 85.69749999999999,70.95700199999999" fill="none" stroke="rgb(53,79,160)" stroke-width="0.1"/>
  <path d="M 83.19749999999999,73.339002 L 85.69749999999999,73.339002" fill="none" stroke="rgb(53,79,160)" stroke-width="0.1"/>
  <path d="M 83.19749999999999,75.72000199999997 L 85.69749999999999,75.72000199999997" fill="none" stroke="rgb(53,79,160)" stroke-width="0.1"/>
  <path d="M 83.19749999999999,78.101002 L 85.69749999999999,78.101002" fill="none" stroke="rgb(53,79,160)" stroke-width="0.1"/>
  <path d="M 0.08989999999999299,33.260001999999986 L 0.08989999999999299,30.760001999999986" fill="none" stroke="rgb(53,79,160)" stroke-width="0.1"/>
  <path d="M 2.4710999999999927,33.260001999999986 L 2.4710999999999927,30.760001999999986" fill="none" stroke="rgb(53,79,160)" stroke-width="0.1"/>
  <path d="M 4.852399999999989,33.260001999999986 L 4.852399999999989,30.760001999999986" fill="none" stroke="rgb(53,79,160)" stroke-width="0.1"/>
  <path d="M 7.2335999999999885,33.260001999999986 L 7.2335999999999885,30.760001999999986" fill="none" stroke="rgb(53,79,160)" stroke-width="0.1"/>
  <path d="M 9.614899999999992,33.260001999999986 L 9.614899999999992,30.760001999999986" fill="none" stroke="rgb(53,79,160)" stroke-width="0.1"/>
  <path d="M 11.996099999999984,33.260001999999986 L 11.996099999999984,30.760001999999986" fill="none" stroke="rgb(53,79,160)" stroke-width="0.1"/>
  <path d="M 14.377399999999994,33.260001999999986 L 14.377399999999994,30.760001999999986" fill="none" stroke="rgb(53,79,160)" stroke-width="0.1"/>
  <path d="M 16.758599999999987,33.260001999999986 L 16.758599999999987,30.760001999999986" fill="none" stroke="rgb(53,79,160)" stroke-width="0.1"/>
  <path d="M 19.139899999999997,33.260001999999986 L 19.139899999999997,30.760001999999986" fill="none" stroke="rgb(53,79,160)" stroke-width="0.1"/>
  <path d="M 21.52109999999999,33.260001999999986 L 21.52109999999999,30.760001999999986" fill="none" stroke="rgb(53,79,160)" stroke-width="0.1"/>
  <path d="M 23.902399999999986,33.260001999999986 L 23.902399999999986,30.760001999999986" fill="none" stroke="rgb(53,79,160)" stroke-width="0.1"/>
  <path d="M 26.283599999999993,33.260001999999986 L 26.283599999999993,30.760001999999986" fill="none" stroke="rgb(53,79,160)" stroke-width="0.1"/>
  <path d="M 28.66489999999999,33.260001999999986 L 28.66489999999999,30.760001999999986" fill="none" stroke="rgb(53,79,160)" stroke-width="0.1"/>
  <path d="M 31.046099999999996,33.260001999999986 L 31.046099999999996,30.760001999999986" fill="none" stroke="rgb(53,79,160)" stroke-width="0.1"/>
  <path d="M 33.42739999999999,33.260001999999986 L 33.42739999999999,30.760001999999986" fill="none" stroke="rgb(53,79,160)" stroke-width="0.1"/>
  <path d="M 35.808599999999984,33.260001999999986 L 35.808599999999984,30.760001999999986" fill="none" stroke="rgb(53,79,160)" stroke-width="0.1"/>
  <path d="M 38.189899999999994,33.260001999999986 L 38.189899999999994,30.760001999999986" fill="none" stroke="rgb(53,79,160)" stroke-width="0.1"/>
  <path d="M 40.57109999999999,33.260001999999986 L 40.57109999999999,30.760001999999986" fill="none" stroke="rgb(53,79,160)" stroke-width="0.1"/>
  <path d="M 42.9524,33.260001999999986 L 42.9524,30.760001999999986" fill="none" stroke="rgb(53,79,160)" stroke-width="0.1"/>
  <path d="M 45.33349999999999,33.260001999999986 L 45.33349999999999,30.760001999999986" fill="none" stroke="rgb(53,79,160)" stroke-width="0.1"/>
  <path d="M 47.71449999999999,33.260001999999986 L 47.71449999999999,30.760001999999986" fill="none" stroke="rgb(53,79,160)" stroke-width="0.1"/>
  <path d="M 50.09649999999999,33.260001999999986 L 50.09649999999999,30.760001999999986" fill="none" stroke="rgb(53,79,160)" stroke-width="0.1"/>
  <path d="M 52.47749999999999,33.260001999999986 L 52.47749999999999,30.760001999999986" fill="none" stroke="rgb(53,79,160)" stroke-width="0.1"/>
  <path d="M 54.85849999999999,33.260001999999986 L 54.85849999999999,30.760001999999986" fill="none" stroke="rgb(53,79,160)" stroke-width="0.1"/>
  <path d="M 57.23949999999999,33.260001999999986 L 57.23949999999999,30.760001999999986" fill="none" stroke="rgb(53,79,160)" stroke-width="0.1"/>
  <path d="M 59.6215,33.260001999999986 L 59.6215,30.760001999999986" fill="none" stroke="rgb(53,79,160)" stroke-width="0.1"/>
  <path d="M 62.0025,33.260001999999986 L 62.0025,30.760001999999986" fill="none" stroke="rgb(53,79,160)" stroke-width="0.1"/>
  <path d="M 64.3835,33.260001999999986 L 64.3835,30.760001999999986" fill="none" stroke="rgb(53,79,160)" stroke-width="0.1"/>
  <path d="M 66.76449999999998,33.260001999999986 L 66.76449999999998,30.760001999999986" fill="none" stroke="rgb(53,79,160)" stroke-width="0.1"/>
  <path d="M 69.14649999999999,33.260001999999986 L 69.14649999999999,30.760001999999986" fill="none" stroke="rgb(53,79,160)" stroke-width="0.1"/>
  <path d="M 71.52749999999999,33.260001999999986 L 71.52749999999999,30.760001999999986" fill="none" stroke="rgb(53,79,160)" stroke-width="0.1"/>
  <path d="M 73.9085,33.260001999999986 L 73.9085,30.760001999999986" fill="none" stroke="rgb(53,79,160)" stroke-width="0.1"/>
  <path d="M 76.2895,33.260001999999986 L 76.2895,30.760001999999986" fill="none" stroke="rgb(53,79,160)" stroke-width="0.1"/>
  <path d="M 78.67149999999998,33.260001999999986 L 78.67149999999998,30.760001999999986" fill="none" stroke="rgb(53,79,160)" stroke-width="0.1"/>
  <path d="M 81.05249999999998,33.260001999999986 L 81.05249999999998,30.760001999999986" fill="none" stroke="rgb(53,79,160)" stroke-width="0.1"/>
  <path d="M 0.8835999999999942,33.260001999999986 L 0.8835999999999942,30.760001999999986" fill="none" stroke="rgb(53,79,160)" stroke-width="0.1"/>
  <path d="M 3.26489999999999,33.260001999999986 L 3.26489999999999,30.760001999999986" fill="none" stroke="rgb(53,79,160)" stroke-width="0.1"/>
  <path d="M 5.64609999999999,33.260001999999986 L 5.64609999999999,30.760001999999986" fill="none" stroke="rgb(53,79,160)" stroke-width="0.1"/>
  <path d="M 8.027399999999993,33.260001999999986 L 8.027399999999993,30.760001999999986" fill="none" stroke="rgb(53,79,160)" stroke-width="0.1"/>
  <path d="M 10.408599999999993,33.260001999999986 L 10.408599999999993,30.760001999999986" fill="none" stroke="rgb(53,79,160)" stroke-width="0.1"/>
  <path d="M 12.789899999999989,33.260001999999986 L 12.789899999999989,30.760001999999986" fill="none" stroke="rgb(53,79,160)" stroke-width="0.1"/>
  <path d="M 15.171099999999996,33.260001999999986 L 15.171099999999996,30.760001999999986" fill="none" stroke="rgb(53,79,160)" stroke-width="0.1"/>
  <path d="M 17.55239999999999,33.260001999999986 L 17.55239999999999,30.760001999999986" fill="none" stroke="rgb(53,79,160)" stroke-width="0.1"/>
  <path d="M 19.933599999999984,33.260001999999986 L 19.933599999999984,30.760001999999986" fill="none" stroke="rgb(53,79,160)" stroke-width="0.1"/>
  <path d="M 22.314899999999994,33.260001999999986 L 22.314899999999994,30.760001999999986" fill="none" stroke="rgb(53,79,160)" stroke-width="0.1"/>
  <path d="M 24.696099999999987,33.260001999999986 L 24.696099999999987,30.760001999999986" fill="none" stroke="rgb(53,79,160)" stroke-width="0.1"/>
  <path d="M 27.077399999999997,33.260001999999986 L 27.077399999999997,30.760001999999986" fill="none" stroke="rgb(53,79,160)" stroke-width="0.1"/>
  <path d="M 29.45859999999999,33.260001999999986 L 29.45859999999999,30.760001999999986" fill="none" stroke="rgb(53,79,160)" stroke-width="0.1"/>
  <path d="M 31.839899999999986,33.260001999999986 L 31.839899999999986,30.760001999999986" fill="none" stroke="rgb(53,79,160)" stroke-width="0.1"/>
  <path d="M 34.22109999999999,33.260001999999986 L 34.22109999999999,30.760001999999986" fill="none" stroke="rgb(53,79,160)" stroke-width="0.1"/>
  <path d="M 36.60239999999999,33.260001999999986 L 36.60239999999999,30.760001999999986" fill="none" stroke="rgb(53,79,160)" stroke-width="0.1"/>
  <path d="M 38.983599999999996,33.260001999999986 L 38.983599999999996,30.760001999999986" fill="none" stroke="rgb(53,79,160)" stroke-width="0.1"/>
  <path d="M 41.36489999999999,33.260001999999986 L 41.36489999999999,30.760001999999986" fill="none" stroke="rgb(53,79,160)" stroke-width="0.1"/>
  <path d="M 43.746099999999984,33.260001999999986 L 43.746099999999984,30.760001999999986" fill="none" stroke="rgb(53,79,160)" stroke-width="0.1"/>
  <path d="M 46.1275,33.260001999999986 L 46.1275,30.760001999999986" fill="none" stroke="rgb(53,79,160)" stroke-width="0.1"/>
  <path d="M 48.5085,33.260001999999986 L 48.5085,30.760001999999986" fill="none" stroke="rgb(53,79,160)" stroke-width="0.1"/>
  <path d="M 50.889499999999984,33.260001999999986 L 50.889499999999984,30.760001999999986" fill="none" stroke="rgb(53,79,160)" stroke-width="0.1"/>
  <path d="M 53.27149999999999,33.260001999999986 L 53.27149999999999,30.760001999999986" fill="none" stroke="rgb(53,79,160)" stroke-width="0.1"/>
  <path d="M 55.65249999999999,33.260001999999986 L 55.65249999999999,30.760001999999986" fill="none" stroke="rgb(53,79,160)" stroke-width="0.1"/>
  <path d="M 58.03349999999999,33.260001999999986 L 58.03349999999999,30.760001999999986" fill="none" stroke="rgb(53,79,160)" stroke-width="0.1"/>
  <path d="M 60.41449999999999,33.260001999999986 L 60.41449999999999,30.760001999999986" fill="none" stroke="rgb(53,79,160)" stroke-width="0.1"/>
  <path d="M 62.796499999999995,33.260001999999986 L 62.796499999999995,30.760001999999986" fill="none" stroke="rgb(53,79,160)" stroke-width="0.1"/>
  <path d="M 65.1775,33.260001999999986 L 65.1775,30.760001999999986" fill="none" stroke="rgb(53,79,160)" stroke-width="0.1"/>
  <path d="M 67.5585,33.260001999999986 L 67.5585,30.760001999999986" fill="none" stroke="rgb(53,79,160)" stroke-width="0.1"/>
  <path d="M 69.9395,33.260001999999986 L 69.9395,30.760001999999986" fill="none" stroke="rgb(53,79,160)" stroke-width="0.1"/>
  <path d="M 72.32149999999999,33.260001999999986 L 72.32149999999999,30.760001999999986" fill="none" stroke="rgb(53,79,160)" stroke-width="0.1"/>
  <path d="M 74.70249999999999,33.260001999999986 L 74.70249999999999,30.760001999999986" fill="none" stroke="rgb(53,79,160)" stroke-width="0.1"/>
  <path d="M 77.08349999999999,33.260001999999986 L 77.08349999999999,30.760001999999986" fill="none" stroke="rgb(53,79,160)" stroke-width="0.1"/>
  <path d="M 79.46449999999999,33.260001999999986 L 79.46449999999999,30.760001999999986" fill="none" stroke="rgb(53,79,160)" stroke-width="0.1"/>
  <path d="M 81.84649999999999,33.260001999999986 L 81.84649999999999,30.760001999999986" fill="none" stroke="rgb(53,79,160)" stroke-width="0.1"/>
  <path d="M 83.19749999999999,78.76000199999999 L 85.69749999999999,78.76000199999999" fill="none" stroke="rgb(53,79,160)" stroke-width="0.1"/>
  <path d="M 85.69749999999999,78.76000199999999 L 85.69749999999999,0.0" fill="none" stroke="rgb(53,79,160)" stroke-width="0.1"/>
  <path d="M 83.19749999999999,0.0 L 83.19749999999999,78.76000199999999" fill="none" stroke="rgb(53,79,160)" stroke-width="0.1"/>
  <path d="M 83.19749999999999,30.760001999999986 L 0.0,30.760001999999986" fill="none" stroke="rgb(53,79,160)" stroke-width="0.1"/>
  <path d="M 0.0,33.260001999999986 L 83.19749999999999,33.260001999999986" fill="none" stroke="rgb(53,79,160)" stroke-width="0.1"/>
  <path d="M 83.19749999999999,33.260001999999986 L 83.19749999999999,30.760001999999986" fill="none" stroke="rgb(53,79,160)" stroke-width="0.1"/>
  <path d="M 83.19749999999999,78.76000199999999 L 85.69749999999999,78.76000199999999" fill="none" stroke="rgb(53,79,160)" stroke-width="0.1"/>
  <path d="M 85.69749999999999,78.76000199999999 L 85.69749999999999,0.0" fill="none" stroke="rgb(53,79,160)" stroke-width="0.1"/>
  <path d="M 83.19749999999999,0.0 L 83.19749999999999,78.76000199999999" fill="none" stroke="rgb(53,79,160)" stroke-width="0.1"/>
  <path d="M 0.0,33.260001999999986 L 83.19749999999999,33.260001999999986" fill="none" stroke="rgb(53,79,160)" stroke-width="0.1"/>
  <path d="M 83.19749999999999,33.260001999999986 L 83.19749999999999,30.760001999999986" fill="none" stroke="rgb(53,79,160)" stroke-width="0.1"/>
  <path d="M 83.19749999999999,30.760001999999986 L 0.0,30.760001999999986" fill="none" stroke="rgb(53,79,160)" stroke-width="0.1"/>
 </g>
 <g id="layerA-PUB_DIM" inkscape:groupmode="layer" inkscape:label="A-PUB_DIM">
  <path d="M 92.69749999999999,78.76000199999999 L 100.0,78.76000199999999" fill="none" stroke="rgb(0,142,142)" stroke-width="0.1"/>
  <path d="M 92.69749999999999,65.76000199999999 L 100.0,65.76000199999999" fill="none" stroke="rgb(0,142,142)" stroke-width="0.1"/>
  <path d="M 98.4855,78.76000199999999 L 98.4855,65.76000199999999" fill="none" stroke="rgb(0,142,142)" stroke-width="0.1"/>
  <path d="M 92.69749999999999,65.76000199999999 L 100.0,65.76000199999999" fill="none" stroke="rgb(0,142,142)" stroke-width="0.1"/>
  <path d="M 92.69749999999999,57.760001999999986 L 100.0,57.760001999999986" fill="none" stroke="rgb(0,142,142)" stroke-width="0.1"/>
  <path d="M 98.4855,65.76000199999999 L 98.4855,57.760001999999986" fill="none" stroke="rgb(0,142,142)" stroke-width="0.1"/>
  <path d="M 92.69749999999999,57.760001999999986 L 100.0,57.760001999999986" fill="none" stroke="rgb(0,142,142)" stroke-width="0.1"/>
  <path d="M 92.69749999999999,33.010001999999986 L 100.0,33.010001999999986" fill="none" stroke="rgb(0,142,142)" stroke-width="0.1"/>
  <path d="M 98.4855,57.760001999999986 L 98.4855,33.010001999999986" fill="none" stroke="rgb(0,142,142)" stroke-width="0.1"/>
  <path d="M 93.81549999999999,29.010001999999986 L 98.0025,29.010001999999986" fill="none" stroke="rgb(0,142,142)" stroke-width="0.1"/>
  <path d="M 93.81549999999999,15.510001999999986 L 98.0025,15.510001999999986" fill="none" stroke="rgb(0,142,142)" stroke-width="0.1"/>
  <path d="M 95.5025,29.010001999999986 L 95.5025,15.510001999999986" fill="none" stroke="rgb(0,142,142)" stroke-width="0.1"/>
  <path d="M 93.81549999999999,15.510001999999986 L 98.0025,15.510001999999986" fill="none" stroke="rgb(0,142,142)" stroke-width="0.1"/>
  <path d="M 93.81549999999999,7.510001999999986 L 98.0025,7.510001999999986" fill="none" stroke="rgb(0,142,142)" stroke-width="0.1"/>
  <path d="M 95.5025,15.510001999999986 L 95.5025,7.510001999999986" fill="none" stroke="rgb(0,142,142)" stroke-width="0.1"/>
  <path d="M 93.81549999999999,7.510001999999986 L 98.0025,7.510001999999986" fill="none" stroke="rgb(0,142,142)" stroke-width="0.1"/>
  <path d="M 93.81549999999999,3.760001999999986 L 98.0025,3.760001999999986" fill="none" stroke="rgb(0,142,142)" stroke-width="0.1"/>
  <path d="M 95.5025,7.510001999999986 L 95.5025,8.510001999999986" fill="none" stroke="rgb(0,142,142)" stroke-width="0.1"/>
  <path d="M 95.5025,3.760001999999986 L 95.5025,2.760001999999986" fill="none" stroke="rgb(0,142,142)" stroke-width="0.1"/>
  <path d="M 95.5025,7.510001999999986 L 95.5025,3.760001999999986" fill="none" stroke="rgb(0,142,142)" stroke-width="0.1"/>
  <path d="M 93.81549999999999,3.760001999999986 L 98.0025,3.760001999999986" fill="none" stroke="rgb(0,142,142)" stroke-width="0.1"/>
  <path d="M 95.5025,3.760001999999986 L 95.5025,0.0" fill="none" stroke="rgb(0,142,142)" stroke-width="0.1"/>
  <path d="M 45.692499999999995,81.76000199999999 L 44.403499999999994,81.76000199999999" fill="none" stroke="rgb(0,142,142)" stroke-width="0.1"/>
  <path d="M 45.692499999999995,33.260001999999986 L 44.403499999999994,33.260001999999986" fill="none" stroke="rgb(0,142,142)" stroke-width="0.1"/>
  <path d="M 46.903499999999994,81.76000199999999 L 46.903499999999994,33.260001999999986" fill="none" stroke="rgb(0,142,142)" stroke-width="0.1"/>
  <path d="M 45.692499999999995,33.260001999999986 L 44.403499999999994,33.260001999999986" fill="none" stroke="rgb(0,142,142)" stroke-width="0.1"/>
  <path d="M 45.692499999999995,30.760001999999986 L 44.403499999999994,30.760001999999986" fill="none" stroke="rgb(0,142,142)" stroke-width="0.1"/>
  <path d="M 46.903499999999994,33.260001999999986 L 46.903499999999994,34.260001999999986" fill="none" stroke="rgb(0,142,142)" stroke-width="0.1"/>
  <path d="M 46.903499999999994,30.760001999999986 L 46.903499999999994,29.760001999999986" fill="none" stroke="rgb(0,142,142)" stroke-width="0.1"/>
  <path d="M 46.903499999999994,33.260001999999986 L 46.903499999999994,30.760001999999986" fill="none" stroke="rgb(0,142,142)" stroke-width="0.1"/>
  <path d="M 31.69749999999999,40.04500200000001 L 31.69749999999999,38.06800199999998" fill="none" stroke="rgb(0,142,142)" stroke-width="0.1"/>
  <path d="M 0.0,40.56800199999998 L 31.69749999999999,40.56800199999998" fill="none" stroke="rgb(0,142,142)" stroke-width="0.1"/>
  <path d="M 0.0,81.76000199999999 L 5.194299999999991,81.76000199999999" fill="none" stroke="rgb(0,142,142)" stroke-width="0.1"/>
  <path d="M 0.0,73.76000199999999 L 5.194299999999991,73.76000199999999" fill="none" stroke="rgb(0,142,142)" stroke-width="0.1"/>
  <path d="M 2.6942999999999913,81.76000199999999 L 2.6942999999999913,73.76000199999999" fill="none" stroke="rgb(0,142,142)" stroke-width="0.1"/>
  <path d="M 31.69749999999999,70.76000199999999 L 31.69749999999999,68.29700199999996" fill="none" stroke="rgb(0,142,142)" stroke-width="0.1"/>
  <path d="M 0.0,70.79700199999996 L 31.69749999999999,70.79700199999996" fill="none" stroke="rgb(0,142,142)" stroke-width="0.1"/>
  <path d="M 37.69749999999999,52.76700199999999 L 37.69749999999999,47.639002000000005" fill="none" stroke="rgb(0,142,142)" stroke-width="0.1"/>
  <path d="M 83.19749999999999,52.76700199999999 L 83.19749999999999,47.639002000000005" fill="none" stroke="rgb(0,142,142)" stroke-width="0.1"/>
  <path d="M 37.69749999999999,50.139002000000005 L 83.19749999999999,50.139002000000005" fill="none" stroke="rgb(0,142,142)" stroke-width="0.1"/>
  <path d="M 83.19749999999999,52.76700199999999 L 83.19749999999999,47.639002000000005" fill="none" stroke="rgb(0,142,142)" stroke-width="0.1"/>
  <path d="M 85.69749999999999,52.76700199999999 L 85.69749999999999,47.639002000000005" fill="none" stroke="rgb(0,142,142)" stroke-width="0.1"/>
  <path d="M 83.19749999999999,50.139002000000005 L 82.19749999999999,50.139002000000005" fill="none" stroke="rgb(0,142,142)" stroke-width="0.1"/>
  <path d="M 85.69749999999999,50.139002000000005 L 86.69749999999999,50.139002000000005" fill="none" stroke="rgb(0,142,142)" stroke-width="0.1"/>
  <path d="M 83.19749999999999,50.139002000000005 L 85.69749999999999,50.139002000000005" fill="none" stroke="rgb(0,142,142)" stroke-width="0.1"/>
  <path d="M 97.0975,40.03400199999999 L 97.0975,36.65200199999998" fill="none" stroke="rgb(0,142,142)" stroke-width="0.1"/>
  <path d="M 97.0975,39.15200199999998 L 96.0975,39.15200199999998" fill="none" stroke="rgb(0,142,142)" stroke-width="0.1"/>
  <path d="M 97.0975,39.15200199999998 L 100.0,39.15200199999998" fill="none" stroke="rgb(0,142,142)" stroke-width="0.1"/>
  <path d="M 89.69749999999999,40.03400199999999 L 89.69749999999999,36.65200199999998" fill="none" stroke="rgb(0,142,142)" stroke-width="0.1"/>
  <path d="M 97.0975,40.03400199999999 L 97.0975,36.65200199999998" fill="none" stroke="rgb(0,142,142)" stroke-width="0.1"/>
  <path d="M 89.69749999999999,39.15200199999998 L 97.0975,39.15200199999998" fill="none" stroke="rgb(0,142,142)" stroke-width="0.1"/>
  <text fill="rgb(0,142,142)" font-family="Noto Sans CJK SC" font-size="2" transform="rotate(-90.0,97.2225,75.16500199999996)" x="97.2225" y="75.16500199999996">
   1300
  </text>
  <text fill="rgb(0,142,142)" font-family="Noto Sans CJK SC" font-size="2" transform="rotate(-90.0,97.2225,63.86000200000001)" x="97.2225" y="63.86000200000001">
   800
  </text>
  <text fill="rgb(0,142,142)" font-family="Noto Sans CJK SC" font-size="2" transform="rotate(-90.0,97.2225,48.185002)" x="97.2225" y="48.185002">
   2475
  </text>
  <text fill="rgb(0,142,142)" font-family="Noto Sans CJK SC" font-size="2" transform="rotate(-90.0,94.2405,25.16500199999996)" x="94.2405" y="25.16500199999996">
   1350
  </text>
  <text fill="rgb(0,142,142)" font-family="Noto Sans CJK SC" font-size="2" transform="rotate(-90.0,94.2405,13.610002000000009)" x="94.2405" y="13.610002000000009">
   800
  </text>
  <text fill="rgb(0,142,142)" font-family="Noto Sans CJK SC" font-size="2" transform="rotate(-90.0,94.2405,7.735002000000009)" x="94.2405" y="7.735002000000009">
   375
  </text>
  <text fill="rgb(0,142,142)" font-family="Noto Sans CJK SC" font-size="2" transform="rotate(-90.0,45.64149999999999,62.27800199999996)" x="45.64149999999999" y="62.27800199999996">
   4850
  </text>
  <text fill="rgb(0,142,142)" font-family="Noto Sans CJK SC" font-size="2" transform="rotate(-90.0,45.64149999999999,30.36600199999998)" x="45.64149999999999" y="30.36600199999998">
   250
  </text>
  <text fill="rgb(0,142,142)" font-family="Noto Sans CJK SC" font-size="2" transform="rotate(-0.0,9.899599999999992,39.305002)" x="9.899599999999992" y="39.305002">
   3800
  </text>
  <text fill="rgb(0,142,142)" font-family="Noto Sans CJK SC" font-size="2" transform="rotate(-90.0,1.4317999999999884,79.86000200000001)" x="1.4317999999999884" y="79.86000200000001">
   800
  </text>
  <text fill="rgb(0,142,142)" font-family="Noto Sans CJK SC" font-size="2" transform="rotate(-0.0,10.397499999999994,69.53400199999999)" x="10.397499999999994" y="69.53400199999999">
   3700
  </text>
  <text fill="rgb(0,142,142)" font-family="Noto Sans CJK SC" font-size="2" transform="rotate(-0.0,57.647499999999994,48.87600199999997)" x="57.647499999999994" y="48.87600199999997">
   4550
  </text>
  <text fill="rgb(0,142,142)" font-family="Noto Sans CJK SC" font-size="2" transform="rotate(-0.0,79.28049999999999,48.87600199999997)" x="79.28049999999999" y="48.87600199999997">
   250
  </text>
  <text fill="rgb(0,142,142)" font-family="Noto Sans CJK SC" font-size="2" transform="rotate(-0.0,97.29749999999999,37.889002000000005)" x="97.29749999999999" y="37.889002000000005">
   460
  </text>
  <text fill="rgb(0,142,142)" font-family="Noto Sans CJK SC" font-size="2" transform="rotate(-0.0,91.29749999999999,37.889002000000005)" x="91.29749999999999" y="37.889002000000005">
   740
  </text>
 </g>
 <g id="layerA-PUB_HATCH" inkscape:groupmode="layer" inkscape:label="A-PUB_HATCH">
  <path d="M 22.69749999999999,82.76000199999999 L 0.0,82.76000199999999" fill="none" instance-id="-1" semantic-id="1" stroke="rgb(44,44,88)" stroke-width="0.1"/>
  <path d="M 0.0,86.76000199999999 L 22.69749999999999,86.76000199999999" fill="none" instance-id="-1" semantic-id="1" stroke="rgb(44,44,88)" stroke-width="0.1"/>
  <path d="M 22.69749999999999,86.76000199999999 L 22.69749999999999,82.76000199999999" fill="none" instance-id="-1" semantic-id="1" stroke="rgb(44,44,88)" stroke-width="0.1"/>
  <path d="M 42.69749999999999,78.76000199999999 L 42.69749999999999,82.76000199999999" fill="none" instance-id="-1" semantic-id="1" stroke="rgb(44,44,88)" stroke-width="0.1"/>
  <path d="M 42.69749999999999,82.76000199999999 L 87.69749999999999,82.76000199999999" fill="none" instance-id="-1" semantic-id="1" stroke="rgb(44,44,88)" stroke-width="0.1"/>
  <path d="M 87.69749999999999,82.76000199999999 L 87.69749999999999,80.09300200000001" fill="none" instance-id="-1" semantic-id="1" stroke="rgb(44,44,88)" stroke-width="0.1"/>
  <path d="M 87.69749999999999,80.09300200000001 L 86.0975,79.16000199999996" fill="none" instance-id="-1" semantic-id="1" stroke="rgb(44,44,88)" stroke-width="0.1"/>
  <path d="M 86.0975,79.16000199999996 L 85.69749999999999,78.76000199999999" fill="none" instance-id="-1" semantic-id="1" stroke="rgb(44,44,88)" stroke-width="0.1"/>
  <path d="M 85.69749999999999,78.76000199999999 L 42.69749999999999,78.76000199999999" fill="none" instance-id="-1" semantic-id="1" stroke="rgb(44,44,88)" stroke-width="0.1"/>
  <path d="M 87.69749999999999,80.09300200000001 L 89.29749999999999,79.16000199999996" fill="none" instance-id="-1" semantic-id="1" stroke="rgb(44,44,88)" stroke-width="0.1"/>
  <path d="M 89.29749999999999,79.16000199999996 L 89.69749999999999,78.76000199999999" fill="none" instance-id="-1" semantic-id="1" stroke="rgb(44,44,88)" stroke-width="0.1"/>
  <path d="M 89.69749999999999,78.76000199999999 L 89.69749999999999,33.010001999999986" fill="none" instance-id="-1" semantic-id="1" stroke="rgb(44,44,88)" stroke-width="0.1"/>
  <path d="M 89.69749999999999,33.010001999999986 L 89.29749999999999,32.61000200000001" fill="none" instance-id="-1" semantic-id="1" stroke="rgb(44,44,88)" stroke-width="0.1"/>
  <path d="M 89.29749999999999,32.61000200000001 L 88.36449999999999,31.010001999999986" fill="none" instance-id="-1" semantic-id="1" stroke="rgb(44,44,88)" stroke-width="0.1"/>
  <path d="M 88.36449999999999,31.010001999999986 L 85.69749999999999,31.010001999999986" fill="none" instance-id="-1" semantic-id="1" stroke="rgb(44,44,88)" stroke-width="0.1"/>
  <path d="M 85.69749999999999,31.010001999999986 L 85.69749999999999,78.76000199999999" fill="none" instance-id="-1" semantic-id="1" stroke="rgb(44,44,88)" stroke-width="0.1"/>
  <path d="M 85.69749999999999,78.76000199999999 L 86.0975,79.16000199999996" fill="none" instance-id="-1" semantic-id="1" stroke="rgb(44,44,88)" stroke-width="0.1"/>
  <path d="M 86.0975,79.16000199999996 L 87.69749999999999,80.09300200000001" fill="none" instance-id="-1" semantic-id="1" stroke="rgb(44,44,88)" stroke-width="0.1"/>
  <path d="M 100.0,29.010001999999986 L 89.69749999999999,29.010001999999986" fill="none" instance-id="-1" semantic-id="1" stroke="rgb(44,44,88)" stroke-width="0.1"/>
  <path d="M 89.69749999999999,29.010001999999986 L 89.29749999999999,29.410001999999963" fill="none" instance-id="-1" semantic-id="1" stroke="rgb(44,44,88)" stroke-width="0.1"/>
  <path d="M 89.29749999999999,29.410001999999963 L 88.36449999999999,31.010001999999986" fill="none" instance-id="-1" semantic-id="1" stroke="rgb(44,44,88)" stroke-width="0.1"/>
  <path d="M 88.36449999999999,31.010001999999986 L 89.29749999999999,32.61000200000001" fill="none" instance-id="-1" semantic-id="1" stroke="rgb(44,44,88)" stroke-width="0.1"/>
  <path d="M 89.29749999999999,32.61000200000001 L 89.69749999999999,33.010001999999986" fill="none" instance-id="-1" semantic-id="1" stroke="rgb(44,44,88)" stroke-width="0.1"/>
  <path d="M 89.69749999999999,33.010001999999986 L 100.0,33.010001999999986" fill="none" instance-id="-1" semantic-id="1" stroke="rgb(44,44,88)" stroke-width="0.1"/>
  <path d="M 88.36449999999999,31.010001999999986 L 89.29749999999999,29.410001999999963" fill="none" instance-id="-1" semantic-id="1" stroke="rgb(44,44,88)" stroke-width="0.1"/>
  <path d="M 89.29749999999999,29.410001999999963 L 89.69749999999999,29.010001999999986" fill="none" instance-id="-1" semantic-id="1" stroke="rgb(44,44,88)" stroke-width="0.1"/>
  <path d="M 89.69749999999999,29.010001999999986 L 89.69749999999999,0.0" fill="none" instance-id="-1" semantic-id="1" stroke="rgb(44,44,88)" stroke-width="0.1"/>
  <path d="M 85.69749999999999,0.0 L 85.69749999999999,31.010001999999986" fill="none" instance-id="-1" semantic-id="1" stroke="rgb(44,44,88)" stroke-width="0.1"/>
  <path d="M 85.69749999999999,31.010001999999986 L 88.36449999999999,31.010001999999986" fill="none" instance-id="-1" semantic-id="1" stroke="rgb(44,44,88)" stroke-width="0.1"/>
  <path d="M 100.0,78.76000199999999 L 89.69749999999999,78.76000199999999" fill="none" instance-id="-1" semantic-id="1" stroke="rgb(44,44,88)" stroke-width="0.1"/>
  <path d="M 89.69749999999999,78.76000199999999 L 89.29749999999999,79.16000199999996" fill="none" instance-id="-1" semantic-id="1" stroke="rgb(44,44,88)" stroke-width="0.1"/>
  <path d="M 89.29749999999999,79.16000199999996 L 87.69749999999999,80.09300200000001" fill="none" instance-id="-1" semantic-id="1" stroke="rgb(44,44,88)" stroke-width="0.1"/>
  <path d="M 87.69749999999999,80.09300200000001 L 87.69749999999999,82.76000199999999" fill="none" instance-id="-1" semantic-id="1" stroke="rgb(44,44,88)" stroke-width="0.1"/>
  <path d="M 87.69749999999999,82.76000199999999 L 100.0,82.76000199999999" fill="none" instance-id="-1" semantic-id="1" stroke="rgb(44,44,88)" stroke-width="0.1"/>
 </g>
 <g id="layerA-PUB_TEXT" inkscape:groupmode="layer" inkscape:label="A-PUB_TEXT">
  <text fill="rgb(0,0,0)" font-family="Noto Sans CJK SC" font-size="2" transform="rotate(-0.0,6.445999999999991,13.351001999999994)" x="6.445999999999991" y="13.351001999999994">
   消防泵房
  </text>
  <text fill="rgb(0,0,0)" font-family="Noto Sans CJK SC" font-size="2" transform="rotate(-90.0,83.5035,73.30700200000001)" x="83.5035" y="73.30700200000001">
   1%
  </text>
  <text fill="rgb(0,0,0)" font-family="Noto Sans CJK SC" font-size="2" transform="rotate(-0.0,64.01549999999999,22.891001999999958)" x="64.01549999999999" y="22.891001999999958">
   排水沟
  </text>
  <text fill="rgb(0,0,0)" font-family="Noto Sans CJK SC" font-size="2" transform="rotate(-0.0,64.01549999999999,28.49100199999998)" x="64.01549999999999" y="28.49100199999998">
   沟底最浅处深
  </text>
  <text fill="rgb(0,0,0)" font-family="Noto Sans CJK SC" font-size="2" transform="rotate(-0.0,74.33749999999998,28.49100199999998)" x="74.33749999999998" y="28.49100199999998">
   100
  </text>
  <text fill="rgb(0,0,0)" font-family="Noto Sans CJK SC" font-size="2" transform="rotate(-0.0,89.88049999999998,52.184001999999964)" x="89.88049999999998" y="52.184001999999964">
   吸水槽
  </text>
  <text fill="rgb(0,0,0)" font-family="Noto Sans CJK SC" font-size="2" transform="rotate(-0.0,90.0615,1.8800019999999904)" x="90.0615" y="1.8800019999999904">
   吸水槽
  </text>
  <text fill="rgb(0,0,0)" font-family="Noto Sans CJK SC" font-size="2" transform="rotate(-90.0,83.5035,1.7320019999999658)" x="83.5035" y="1.7320019999999658">
   1%
  </text>
  <text fill="rgb(0,0,0)" font-family="Noto Sans CJK SC" font-size="2" transform="rotate(-0.0,50.3475,31.162001999999973)" x="50.3475" y="31.162001999999973">
   1%
  </text>
  <text fill="rgb(0,0,0)" font-family="Noto Sans CJK SC" font-size="2" transform="rotate(-0.0,55.811499999999995,8.511001999999962)" x="55.811499999999995" y="8.511001999999962">
   800(
  </text>
  <text fill="rgb(0,0,0)" font-family="Noto Sans CJK SC" font-size="2" transform="rotate(-0.0,60.99149999999999,8.511001999999962)" x="60.99149999999999" y="8.511001999999962">
   宽）
  </text>
  <text fill="rgb(0,0,0)" font-family="Noto Sans CJK SC" font-size="2" transform="rotate(-0.0,64.43249999999999,8.511001999999962)" x="64.43249999999999" y="8.511001999999962">
   X600
  </text>
  <text fill="rgb(0,0,0)" font-family="Noto Sans CJK SC" font-size="2" transform="rotate(-0.0,70.03249999999998,8.511001999999962)" x="70.03249999999998" y="8.511001999999962">
   （高）检修口
  </text>
  <text fill="rgb(0,0,0)" font-family="Noto Sans CJK SC" font-size="2" transform="rotate(-0.0,55.811499999999995,15.669001999999978)" x="55.811499999999995" y="15.669001999999978">
   洞顶贴板底
  </text>
 </g>
 <g id="layerA-SWALL" inkscape:groupmode="layer" inkscape:label="A-SWALL">
  <path d="M 22.69749999999999,86.76000199999999 L 0.0,86.76000199999999" fill="none" instance-id="-1" semantic-id="1" stroke="rgb(178,0,0)" stroke-width="0.1"/>
  <path d="M 22.69749999999999,82.76000199999999 L 0.0,82.76000199999999" fill="none" instance-id="-1" semantic-id="1" stroke="rgb(178,0,0)" stroke-width="0.1"/>
  <path d="M 87.69749999999999,82.76000199999999 L 42.69749999999999,82.76000199999999" fill="none" instance-id="-1" semantic-id="1" stroke="rgb(178,0,0)" stroke-width="0.1"/>
  <path d="M 85.69749999999999,78.76000199999999 L 42.69749999999999,78.76000199999999" fill="none" instance-id="-1" semantic-id="1" stroke="rgb(178,0,0)" stroke-width="0.1"/>
  <path d="M 85.69749999999999,78.76000199999999 L 85.69749999999999,31.010001999999986" fill="none" instance-id="-1" semantic-id="1" stroke="rgb(178,0,0)" stroke-width="0.1"/>
  <path d="M 89.69749999999999,78.76000199999999 L 89.69749999999999,33.010001999999986" fill="none" instance-id="-1" semantic-id="1" stroke="rgb(178,0,0)" stroke-width="0.1"/>
  <path d="M 100.0,33.010001999999986 L 89.69749999999999,33.010001999999986" fill="none" instance-id="-1" semantic-id="1" stroke="rgb(178,0,0)" stroke-width="0.1"/>
  <path d="M 100.0,29.010001999999986 L 89.69749999999999,29.010001999999986" fill="none" instance-id="-1" semantic-id="1" stroke="rgb(178,0,0)" stroke-width="0.1"/>
  <path d="M 85.69749999999999,31.010001999999986 L 85.69749999999999,0.0" fill="none" instance-id="-1" semantic-id="1" stroke="rgb(178,0,0)" stroke-width="0.1"/>
  <path d="M 89.69749999999999,29.010001999999986 L 89.69749999999999,0.0" fill="none" instance-id="-1" semantic-id="1" stroke="rgb(178,0,0)" stroke-width="0.1"/>
  <path d="M 100.0,82.76000199999999 L 87.69749999999999,82.76000199999999" fill="none" instance-id="-1" semantic-id="1" stroke="rgb(178,0,0)" stroke-width="0.1"/>
  <path d="M 100.0,78.76000199999999 L 89.69749999999999,78.76000199999999" fill="none" instance-id="-1" semantic-id="1" stroke="rgb(178,0,0)" stroke-width="0.1"/>
 </g>
 <g id="layerA-WINDOW" inkscape:groupmode="layer" inkscape:label="A-WINDOW">
  <path d="M 97.0975,78.76000199999999 L 97.0975,32.510001999999986" fill="none" stroke="rgb(53,133,160)" stroke-width="0.1"/>
  <path d="M 97.0975,29.510001999999986 L 97.0975,0.0" fill="none" stroke="rgb(53,133,160)" stroke-width="0.1"/>
 </g>
 <g id="layerA_WALL" inkscape:groupmode="layer" inkscape:label="A_WALL">
  <path d="M 85.69749999999999,15.510001999999986 L 89.69749999999999,7.510001999999986" fill="none" stroke="rgb(134,134,134)" stroke-width="0.1"/>
  <path d="M 85.69749999999999,7.510001999999986 L 89.69749999999999,15.510001999999986" fill="none" stroke="rgb(134,134,134)" stroke-width="0.1"/>
  <path d="M 85.69749999999999,57.760001999999986 L 89.69749999999999,65.76000199999999" fill="none" stroke="rgb(134,134,134)" stroke-width="0.1"/>
  <path d="M 85.69749999999999,65.76000199999999 L 89.69749999999999,57.760001999999986" fill="none" stroke="rgb(134,134,134)" stroke-width="0.1"/>
  <path d="M 85.69749999999999,15.510001999999986 L 89.69749999999999,15.510001999999986" fill="none" stroke="rgb(134,134,134)" stroke-width="0.1"/>
  <path d="M 89.69749999999999,15.510001999999986 L 89.69749999999999,7.510001999999986" fill="none" stroke="rgb(134,134,134)" stroke-width="0.1"/>
  <path d="M 89.69749999999999,7.510001999999986 L 85.69749999999999,7.510001999999986" fill="none" stroke="rgb(134,134,134)" stroke-width="0.1"/>
  <path d="M 85.69749999999999,7.510001999999986 L 85.69749999999999,15.510001999999986" fill="none" stroke="rgb(134,134,134)" stroke-width="0.1"/>
  <path d="M 85.69749999999999,57.760001999999986 L 89.69749999999999,57.760001999999986" fill="none" stroke="rgb(134,134,134)" stroke-width="0.1"/>
  <path d="M 89.69749999999999,57.760001999999986 L 89.69749999999999,65.76000199999999" fill="none" stroke="rgb(134,134,134)" stroke-width="0.1"/>
  <path d="M 89.69749999999999,65.76000199999999 L 85.69749999999999,65.76000199999999" fill="none" stroke="rgb(134,134,134)" stroke-width="0.1"/>
  <path d="M 85.69749999999999,65.76000199999999 L 85.69749999999999,57.760001999999986" fill="none" stroke="rgb(134,134,134)" stroke-width="0.1"/>
 </g>
 <g id="layerH-DUCT-加压送风法兰" inkscape:groupmode="layer" inkscape:label="H-DUCT-加压送风法兰">
  <circle cx="46.675499999999985" cy="75.793002" fill="none" r="2" stroke="rgb(178,178,0)" stroke-width="0.1"/>
  <circle cx="53.69749999999999" cy="75.793002" fill="none" r="2" stroke="rgb(178,178,0)" stroke-width="0.1"/>
 </g>
 <g id="layerPUB_WALL" inkscape:groupmode="layer" inkscape:label="PUB_WALL">
  <path d="M 22.69749999999999,86.36000200000001 L 0.0,86.36000200000001" fill="none" stroke="rgb(134,134,134)" stroke-width="0.1"/>
  <path d="M 0.0,86.76000199999999 L 22.69749999999999,86.76000199999999" fill="none" stroke="rgb(134,134,134)" stroke-width="0.1"/>
  <path d="M 22.69749999999999,86.76000199999999 L 22.69749999999999,86.36000200000001" fill="none" stroke="rgb(134,134,134)" stroke-width="0.1"/>
  <path d="M 22.69749999999999,82.76000199999999 L 0.0,82.76000199999999" fill="none" stroke="rgb(134,134,134)" stroke-width="0.1"/>
  <path d="M 0.0,83.16000199999996 L 22.69749999999999,83.16000199999996" fill="none" stroke="rgb(134,134,134)" stroke-width="0.1"/>
  <path d="M 22.69749999999999,83.16000199999996 L 22.69749999999999,82.76000199999999" fill="none" stroke="rgb(134,134,134)" stroke-width="0.1"/>
  <path d="M 42.69749999999999,82.76000199999999 L 87.69749999999999,82.76000199999999" fill="none" stroke="rgb(134,134,134)" stroke-width="0.1"/>
  <path d="M 87.69749999999999,82.76000199999999 L 87.69749999999999,82.36000200000001" fill="none" stroke="rgb(134,134,134)" stroke-width="0.1"/>
  <path d="M 87.69749999999999,82.36000200000001 L 42.69749999999999,82.36000200000001" fill="none" stroke="rgb(134,134,134)" stroke-width="0.1"/>
  <path d="M 42.69749999999999,82.36000200000001 L 42.69749999999999,82.76000199999999" fill="none" stroke="rgb(134,134,134)" stroke-width="0.1"/>
  <path d="M 42.69749999999999,79.16000199999996 L 86.0975,79.16000199999996" fill="none" stroke="rgb(134,134,134)" stroke-width="0.1"/>
  <path d="M 86.0975,79.16000199999996 L 85.69749999999999,78.76000199999999" fill="none" stroke="rgb(134,134,134)" stroke-width="0.1"/>
  <path d="M 85.69749999999999,78.76000199999999 L 42.69749999999999,78.76000199999999" fill="none" stroke="rgb(134,134,134)" stroke-width="0.1"/>
  <path d="M 42.69749999999999,78.76000199999999 L 42.69749999999999,79.16000199999996" fill="none" stroke="rgb(134,134,134)" stroke-width="0.1"/>
  <path d="M 85.69749999999999,78.76000199999999 L 86.0975,79.16000199999996" fill="none" stroke="rgb(134,134,134)" stroke-width="0.1"/>
  <path d="M 86.0975,79.16000199999996 L 86.0975,31.010001999999986" fill="none" stroke="rgb(134,134,134)" stroke-width="0.1"/>
  <path d="M 86.0975,31.010001999999986 L 85.69749999999999,31.010001999999986" fill="none" stroke="rgb(134,134,134)" stroke-width="0.1"/>
  <path d="M 85.69749999999999,31.010001999999986 L 85.69749999999999,78.76000199999999" fill="none" stroke="rgb(134,134,134)" stroke-width="0.1"/>
  <path d="M 89.69749999999999,78.76000199999999 L 89.69749999999999,33.010001999999986" fill="none" stroke="rgb(134,134,134)" stroke-width="0.1"/>
  <path d="M 89.69749999999999,33.010001999999986 L 89.29749999999999,32.61000200000001" fill="none" stroke="rgb(134,134,134)" stroke-width="0.1"/>
  <path d="M 89.29749999999999,32.61000200000001 L 89.29749999999999,79.16000199999996" fill="none" stroke="rgb(134,134,134)" stroke-width="0.1"/>
  <path d="M 89.29749999999999,79.16000199999996 L 89.69749999999999,78.76000199999999" fill="none" stroke="rgb(134,134,134)" stroke-width="0.1"/>
  <path d="M 100.0,32.61000200000001 L 89.29749999999999,32.61000200000001" fill="none" stroke="rgb(134,134,134)" stroke-width="0.1"/>
  <path d="M 89.29749999999999,32.61000200000001 L 89.69749999999999,33.010001999999986" fill="none" stroke="rgb(134,134,134)" stroke-width="0.1"/>
  <path d="M 89.69749999999999,33.010001999999986 L 100.0,33.010001999999986" fill="none" stroke="rgb(134,134,134)" stroke-width="0.1"/>
  <path d="M 89.69749999999999,29.010001999999986 L 89.29749999999999,29.410001999999963" fill="none" stroke="rgb(134,134,134)" stroke-width="0.1"/>
  <path d="M 89.29749999999999,29.410001999999963 L 100.0,29.410001999999963" fill="none" stroke="rgb(134,134,134)" stroke-width="0.1"/>
  <path d="M 100.0,29.010001999999986 L 89.69749999999999,29.010001999999986" fill="none" stroke="rgb(134,134,134)" stroke-width="0.1"/>
  <path d="M 85.69749999999999,31.010001999999986 L 86.0975,31.010001999999986" fill="none" stroke="rgb(134,134,134)" stroke-width="0.1"/>
  <path d="M 86.0975,31.010001999999986 L 86.0975,0.0" fill="none" stroke="rgb(134,134,134)" stroke-width="0.1"/>
  <path d="M 85.69749999999999,0.0 L 85.69749999999999,31.010001999999986" fill="none" stroke="rgb(134,134,134)" stroke-width="0.1"/>
  <path d="M 89.69749999999999,29.010001999999986 L 89.69749999999999,0.0" fill="none" stroke="rgb(134,134,134)" stroke-width="0.1"/>
  <path d="M 89.29749999999999,0.0 L 89.29749999999999,29.410001999999963" fill="none" stroke="rgb(134,134,134)" stroke-width="0.1"/>
  <path d="M 89.29749999999999,29.410001999999963 L 89.69749999999999,29.010001999999986" fill="none" stroke="rgb(134,134,134)" stroke-width="0.1"/>
  <path d="M 34.69749999999999,7.260001999999986 L 42.69749999999999,7.260001999999986" fill="none" stroke="rgb(134,134,134)" stroke-width="0.1"/>
  <path d="M 42.69749999999999,7.260001999999986 L 42.297499999999985,6.860002000000009" fill="none" stroke="rgb(134,134,134)" stroke-width="0.1"/>
  <path d="M 42.297499999999985,6.860002000000009 L 35.0975,6.860002000000009" fill="none" stroke="rgb(134,134,134)" stroke-width="0.1"/>
  <path d="M 35.0975,6.860002000000009 L 34.69749999999999,7.260001999999986" fill="none" stroke="rgb(134,134,134)" stroke-width="0.1"/>
  <path d="M 42.69749999999999,0.26000199999998586 L 42.297499999999985,0.6600019999999631" fill="none" stroke="rgb(134,134,134)" stroke-width="0.1"/>
  <path d="M 42.297499999999985,0.6600019999999631 L 42.297499999999985,6.860002000000009" fill="none" stroke="rgb(134,134,134)" stroke-width="0.1"/>
  <path d="M 42.297499999999985,6.860002000000009 L 42.69749999999999,7.260001999999986" fill="none" stroke="rgb(134,134,134)" stroke-width="0.1"/>
  <path d="M 42.69749999999999,7.260001999999986 L 42.69749999999999,0.26000199999998586" fill="none" stroke="rgb(134,134,134)" stroke-width="0.1"/>
  <path d="M 34.69749999999999,0.26000199999998586 L 35.0975,0.6600019999999631" fill="none" stroke="rgb(134,134,134)" stroke-width="0.1"/>
  <path d="M 35.0975,0.6600019999999631 L 42.297499999999985,0.6600019999999631" fill="none" stroke="rgb(134,134,134)" stroke-width="0.1"/>
  <path d="M 42.297499999999985,0.6600019999999631 L 42.69749999999999,0.26000199999998586" fill="none" stroke="rgb(134,134,134)" stroke-width="0.1"/>
  <path d="M 42.69749999999999,0.26000199999998586 L 34.69749999999999,0.26000199999998586" fill="none" stroke="rgb(134,134,134)" stroke-width="0.1"/>
  <path d="M 34.69749999999999,0.26000199999998586 L 34.69749999999999,7.260001999999986" fill="none" stroke="rgb(134,134,134)" stroke-width="0.1"/>
  <path d="M 34.69749999999999,7.260001999999986 L 35.0975,6.860002000000009" fill="none" stroke="rgb(134,134,134)" stroke-width="0.1"/>
  <path d="M 35.0975,6.860002000000009 L 35.0975,0.6600019999999631" fill="none" stroke="rgb(134,134,134)" stroke-width="0.1"/>
  <path d="M 35.0975,0.6600019999999631 L 34.69749999999999,0.26000199999998586" fill="none" stroke="rgb(134,134,134)" stroke-width="0.1"/>
  <path d="M 29.69749999999999,86.76000199999999 L 42.69749999999999,86.76000199999999" fill="none" stroke="rgb(134,134,134)" stroke-width="0.1"/>
  <path d="M 42.69749999999999,86.76000199999999 L 42.297499999999985,86.36000200000001" fill="none" stroke="rgb(134,134,134)" stroke-width="0.1"/>
  <path d="M 42.297499999999985,86.36000200000001 L 23.097499999999997,86.36000200000001" fill="none" stroke="rgb(134,134,134)" stroke-width="0.1"/>
  <path d="M 23.097499999999997,86.36000200000001 L 29.69749999999999,86.76000199999999" fill="none" stroke="rgb(134,134,134)" stroke-width="0.1"/>
  <path d="M 42.69749999999999,86.76000199999999 L 42.69749999999999,82.76000199999999" fill="none" stroke="rgb(134,134,134)" stroke-width="0.1"/>
  <path d="M 42.69749999999999,82.76000199999999 L 42.297499999999985,82.36000200000001" fill="none" stroke="rgb(134,134,134)" stroke-width="0.1"/>
  <path d="M 42.297499999999985,82.36000200000001 L 42.297499999999985,86.36000200000001" fill="none" stroke="rgb(134,134,134)" stroke-width="0.1"/>
  <path d="M 42.297499999999985,86.36000200000001 L 42.69749999999999,86.76000199999999" fill="none" stroke="rgb(134,134,134)" stroke-width="0.1"/>
  <path d="M 42.69749999999999,74.76000199999999 L 42.297499999999985,75.16000199999996" fill="none" stroke="rgb(134,134,134)" stroke-width="0.1"/>
  <path d="M 42.297499999999985,75.16000199999996 L 42.297499999999985,79.16000199999996" fill="none" stroke="rgb(134,134,134)" stroke-width="0.1"/>
  <path d="M 42.297499999999985,79.16000199999996 L 42.69749999999999,78.76000199999999" fill="none" stroke="rgb(134,134,134)" stroke-width="0.1"/>
  <path d="M 42.69749999999999,78.76000199999999 L 42.69749999999999,74.76000199999999" fill="none" stroke="rgb(134,134,134)" stroke-width="0.1"/>
  <path d="M 22.69749999999999,74.76000199999999 L 23.097499999999997,75.16000199999996" fill="none" stroke="rgb(134,134,134)" stroke-width="0.1"/>
  <path d="M 23.097499999999997,75.16000199999996 L 42.297499999999985,75.16000199999996" fill="none" stroke="rgb(134,134,134)" stroke-width="0.1"/>
  <path d="M 42.297499999999985,75.16000199999996 L 42.69749999999999,74.76000199999999" fill="none" stroke="rgb(134,134,134)" stroke-width="0.1"/>
  <path d="M 42.69749999999999,74.76000199999999 L 22.69749999999999,74.76000199999999" fill="none" stroke="rgb(134,134,134)" stroke-width="0.1"/>
  <path d="M 22.69749999999999,74.76000199999999 L 22.69749999999999,82.76000199999999" fill="none" stroke="rgb(134,134,134)" stroke-width="0.1"/>
  <path d="M 22.69749999999999,82.76000199999999 L 23.097499999999997,83.16000199999996" fill="none" stroke="rgb(134,134,134)" stroke-width="0.1"/>
  <path d="M 23.097499999999997,83.16000199999996 L 23.097499999999997,75.16000199999996" fill="none" stroke="rgb(134,134,134)" stroke-width="0.1"/>
  <path d="M 23.097499999999997,75.16000199999996 L 22.69749999999999,74.76000199999999" fill="none" stroke="rgb(134,134,134)" stroke-width="0.1"/>
  <path d="M 100.0,82.36000200000001 L 87.69749999999999,82.36000200000001" fill="none" stroke="rgb(134,134,134)" stroke-width="0.1"/>
  <path d="M 87.69749999999999,82.36000200000001 L 87.69749999999999,82.76000199999999" fill="none" stroke="rgb(134,134,134)" stroke-width="0.1"/>
  <path d="M 87.69749999999999,82.76000199999999 L 100.0,82.76000199999999" fill="none" stroke="rgb(134,134,134)" stroke-width="0.1"/>
  <path d="M 100.0,78.76000199999999 L 89.69749999999999,78.76000199999999" fill="none" stroke="rgb(134,134,134)" stroke-width="0.1"/>
  <path d="M 89.69749999999999,78.76000199999999 L 89.29749999999999,79.16000199999996" fill="none" stroke="rgb(134,134,134)" stroke-width="0.1"/>
  <path d="M 89.29749999999999,79.16000199999996 L 100.0,79.16000199999996" fill="none" stroke="rgb(134,134,134)" stroke-width="0.1"/>
 </g>
</svg>