<?xml version="1.0" encoding="utf-8"?>
<svg style="background-color: #000;" version="1.1" viewBox="0 0 100.0 100.0" xmlns="http://www.w3.org/2000/svg" xmlns:inkscape="http://www.inkscape.org/namespaces/inkscape">
 <g id="layer0" inkscape:groupmode="layer" inkscape:label="0">
  <path d="M 23.960000000000022,73.24123250000002 L 29.339700000000022,79.76523250000002" fill="none" stroke="rgb(44,44,88)" stroke-width="0.1"/>
  <path d="M 29.339700000000022,79.76523250000002 L 33.96000000000002,95.74123250000002" fill="none" stroke="rgb(44,44,88)" stroke-width="0.1"/>
 </g>
 <g id="layerA-COLUMN" inkscape:groupmode="layer" inkscape:label="A-COLUMN">
  <path d="M 19.960000000000022,74.24123250000002 L 26.960000000000022,74.24123250000002" fill="none" stroke="rgb(178,0,0)" stroke-width="0.1"/>
  <path d="M 26.960000000000022,74.24123250000002 L 26.960000000000022,66.24123250000002" fill="none" stroke="rgb(178,0,0)" stroke-width="0.1"/>
  <path d="M 26.960000000000022,66.24123250000002 L 19.960000000000022,66.24123250000002" fill="none" stroke="rgb(178,0,0)" stroke-width="0.1"/>
  <path d="M 19.960000000000022,66.24123250000002 L 19.960000000000022,74.24123250000002" fill="none" stroke="rgb(178,0,0)" stroke-width="0.1"/>
  <path d="M 79.46000000000001,73.74123250000002 L 86.46000000000001,73.74123250000002" fill="none" stroke="rgb(178,0,0)" stroke-width="0.1"/>
  <path d="M 86.46000000000001,73.74123250000002 L 86.46000000000001,66.74123250000002" fill="none" stroke="rgb(178,0,0)" stroke-width="0.1"/>
  <path d="M 86.46000000000001,66.74123250000002 L 79.46000000000001,66.74123250000002" fill="none" stroke="rgb(178,0,0)" stroke-width="0.1"/>
  <path d="M 79.46000000000001,66.74123250000002 L 79.46000000000001,73.74123250000002" fill="none" stroke="rgb(178,0,0)" stroke-width="0.1"/>
 </g>
 <g id="layerA-DOOR" inkscape:groupmode="layer" inkscape:label="A-DOOR">
  <path d="M 86.46000000000001,71.24123250000002 L 100.0,71.24123250000002" fill="none" stroke="rgb(53,133,160)" stroke-width="0.1"/>
 </g>
 <g id="layerA-DOTE" inkscape:groupmode="layer" inkscape:label="A-DOTE">
  <path d="M 82.96000000000001,0.0 L 82.96000000000001,100.0" fill="none" stroke="rgb(107,0,0)" stroke-width="0.1"/>
  <path d="M 0.0,71.24123250000002 L 100.0,71.24123250000002" fill="none" stroke="rgb(107,0,0)" stroke-width="0.1"/>
  <path d="M 22.960000000000022,0.0 L 22.960000000000022,100.0" fill="none" stroke="rgb(107,0,0)" stroke-width="0.1"/>
 </g>
 <g id="layerA-PUB_HATCH" inkscape:groupmode="layer" inkscape:label="A-PUB_HATCH">
  <path d="M 19.960000000000022,0.0 L 19.960000000000022,66.24123250000002" fill="none" instance-id="-1" semantic-id="1" stroke="rgb(44,44,88)" stroke-width="0.1"/>
  <path d="M 19.960000000000022,66.24123250000002 L 23.960000000000022,66.24123250000002" fill="none" instance-id="-1" semantic-id="1" stroke="rgb(44,44,88)" stroke-width="0.1"/>
  <path d="M 23.960000000000022,66.24123250000002 L 23.960000000000022,0.0" fill="none" instance-id="-1" semantic-id="1" stroke="rgb(44,44,88)" stroke-width="0.1"/>
  <path d="M 19.960000000000022,74.24123250000002 L 19.960000000000022,100.0" fill="none" instance-id="-1" semantic-id="1" stroke="rgb(44,44,88)" stroke-width="0.1"/>
  <path d="M 23.960000000000022,100.0 L 23.960000000000022,74.24123250000002" fill="none" instance-id="-1" semantic-id="1" stroke="rgb(44,44,88)" stroke-width="0.1"/>
  <path d="M 23.960000000000022,74.24123250000002 L 19.960000000000022,74.24123250000002" fill="none" instance-id="-1" semantic-id="1" stroke="rgb(44,44,88)" stroke-width="0.1"/>
 </g>
 <g id="layerA-PUB_TEXT" inkscape:groupmode="layer" inkscape:label="A-PUB_TEXT">
  <text fill="rgb(0,0,0)" font-family="Noto Sans CJK SC" font-size="2" transform="rotate(-0.0,68.43100000000003,90.11623250000002)" x="68.43100000000003" y="90.11623250000002">
   排烟机房
  </text>
  <text fill="rgb(0,0,0)" font-family="Noto Sans CJK SC" font-size="2" transform="rotate(-0.0,25.610400000000027,85.41123249999998)" x="25.610400000000027" y="85.41123249999998">
   排烟井
  </text>
 </g>
 <g id="layerA-SWALL" inkscape:groupmode="layer" inkscape:label="A-SWALL">
  <path d="M 19.960000000000022,66.24123250000002 L 19.960000000000022,0.0" fill="none" instance-id="-1" semantic-id="1" stroke="rgb(178,0,0)" stroke-width="0.1"/>
  <path d="M 23.960000000000022,66.24123250000002 L 23.960000000000022,0.0" fill="none" instance-id="-1" semantic-id="1" stroke="rgb(178,0,0)" stroke-width="0.1"/>
  <path d="M 19.960000000000022,100.0 L 19.960000000000022,74.24123250000002" fill="none" instance-id="-1" semantic-id="1" stroke="rgb(178,0,0)" stroke-width="0.1"/>
  <path d="M 23.960000000000022,100.0 L 23.960000000000022,74.24123250000002" fill="none" instance-id="-1" semantic-id="1" stroke="rgb(178,0,0)" stroke-width="0.1"/>
 </g>
 <g id="layerCOLUMN" inkscape:groupmode="layer" inkscape:label="COLUMN">
  <path d="M 79.46000000000001,73.74123250000002 L 86.46000000000001,73.74123250000002" fill="none" stroke="rgb(134,134,134)" stroke-width="0.1"/>
  <path d="M 86.46000000000001,73.74123250000002 L 86.46000000000001,66.74123250000002" fill="none" stroke="rgb(134,134,134)" stroke-width="0.1"/>
  <path d="M 86.46000000000001,66.74123250000002 L 79.46000000000001,66.74123250000002" fill="none" stroke="rgb(134,134,134)" stroke-width="0.1"/>
  <path d="M 79.46000000000001,66.74123250000002 L 79.46000000000001,73.74123250000002" fill="none" stroke="rgb(134,134,134)" stroke-width="0.1"/>
 </g>
 <g id="layerPUB_HATCH" inkscape:groupmode="layer" inkscape:label="PUB_HATCH">
  <path d="M 19.960000000000022,67.99123250000002 L 19.960000000000022,100.0" fill="none" instance-id="-1" semantic-id="1" stroke="rgb(89,89,89)" stroke-width="0.1"/>
  <path d="M 23.960000000000022,100.0 L 23.960000000000022,69.24123250000002" fill="none" instance-id="-1" semantic-id="1" stroke="rgb(89,89,89)" stroke-width="0.1"/>
  <path d="M 23.960000000000022,69.24123250000002 L 23.560000000000016,68.84123249999999" fill="none" instance-id="-1" semantic-id="1" stroke="rgb(89,89,89)" stroke-width="0.1"/>
  <path d="M 23.560000000000016,68.84123249999999 L 22.626700000000014,67.99123250000002" fill="none" instance-id="-1" semantic-id="1" stroke="rgb(89,89,89)" stroke-width="0.1"/>
  <path d="M 22.626700000000014,67.99123250000002 L 19.960000000000022,67.99123250000002" fill="none" instance-id="-1" semantic-id="1" stroke="rgb(89,89,89)" stroke-width="0.1"/>
  <path d="M 38.860000000000014,68.84123249999999 L 38.46000000000002,69.24123250000002" fill="none" instance-id="-1" semantic-id="1" stroke="rgb(89,89,89)" stroke-width="0.1"/>
  <path d="M 38.46000000000002,69.24123250000002 L 38.46000000000002,88.74123250000002" fill="none" instance-id="-1" semantic-id="1" stroke="rgb(89,89,89)" stroke-width="0.1"/>
  <path d="M 38.46000000000002,88.74123250000002 L 40.96000000000002,88.74123250000002" fill="none" instance-id="-1" semantic-id="1" stroke="rgb(89,89,89)" stroke-width="0.1"/>
  <path d="M 40.96000000000002,88.74123250000002 L 40.96000000000002,69.24123250000002" fill="none" instance-id="-1" semantic-id="1" stroke="rgb(89,89,89)" stroke-width="0.1"/>
  <path d="M 40.96000000000002,69.24123250000002 L 40.56000000000002,68.84123249999999" fill="none" instance-id="-1" semantic-id="1" stroke="rgb(89,89,89)" stroke-width="0.1"/>
  <path d="M 40.56000000000002,68.84123249999999 L 39.626700000000014,68.4082325" fill="none" instance-id="-1" semantic-id="1" stroke="rgb(89,89,89)" stroke-width="0.1"/>
  <path d="M 39.626700000000014,68.4082325 L 38.860000000000014,68.84123249999999" fill="none" instance-id="-1" semantic-id="1" stroke="rgb(89,89,89)" stroke-width="0.1"/>
  <path d="M 22.626700000000014,67.99123250000002 L 23.560000000000016,68.84123249999999" fill="none" instance-id="-1" semantic-id="1" stroke="rgb(89,89,89)" stroke-width="0.1"/>
  <path d="M 23.560000000000016,68.84123249999999 L 23.960000000000022,69.24123250000002" fill="none" instance-id="-1" semantic-id="1" stroke="rgb(89,89,89)" stroke-width="0.1"/>
  <path d="M 23.960000000000022,69.24123250000002 L 38.46000000000002,69.24123250000002" fill="none" instance-id="-1" semantic-id="1" stroke="rgb(89,89,89)" stroke-width="0.1"/>
  <path d="M 38.46000000000002,69.24123250000002 L 38.860000000000014,68.84123249999999" fill="none" instance-id="-1" semantic-id="1" stroke="rgb(89,89,89)" stroke-width="0.1"/>
  <path d="M 38.860000000000014,68.84123249999999 L 39.626700000000014,68.4082325" fill="none" instance-id="-1" semantic-id="1" stroke="rgb(89,89,89)" stroke-width="0.1"/>
  <path d="M 39.626700000000014,68.4082325 L 39.46000000000002,67.1412325" fill="none" instance-id="-1" semantic-id="1" stroke="rgb(89,89,89)" stroke-width="0.1"/>
  <path d="M 39.46000000000002,67.1412325 L 39.46000000000002,66.74123250000002" fill="none" instance-id="-1" semantic-id="1" stroke="rgb(89,89,89)" stroke-width="0.1"/>
  <path d="M 39.46000000000002,66.74123250000002 L 23.960000000000022,66.74123250000002" fill="none" instance-id="-1" semantic-id="1" stroke="rgb(89,89,89)" stroke-width="0.1"/>
  <path d="M 23.960000000000022,66.74123250000002 L 23.560000000000016,67.1412325" fill="none" instance-id="-1" semantic-id="1" stroke="rgb(89,89,89)" stroke-width="0.1"/>
  <path d="M 23.560000000000016,67.1412325 L 22.626700000000014,67.99123250000002" fill="none" instance-id="-1" semantic-id="1" stroke="rgb(89,89,89)" stroke-width="0.1"/>
  <path d="M 36.96000000000002,88.74123250000002 L 36.96000000000002,91.23623250000003" fill="none" instance-id="-1" semantic-id="1" stroke="rgb(89,89,89)" stroke-width="0.1"/>
  <path d="M 36.96000000000002,91.23623250000003 L 41.96000000000002,91.23623250000003" fill="none" instance-id="-1" semantic-id="1" stroke="rgb(89,89,89)" stroke-width="0.1"/>
  <path d="M 41.96000000000002,91.23623250000003 L 41.96000000000002,88.74123250000002" fill="none" instance-id="-1" semantic-id="1" stroke="rgb(89,89,89)" stroke-width="0.1"/>
  <path d="M 41.96000000000002,88.74123250000002 L 36.96000000000002,88.74123250000002" fill="none" instance-id="-1" semantic-id="1" stroke="rgb(89,89,89)" stroke-width="0.1"/>
  <path d="M 41.96000000000002,100.0 L 41.96000000000002,99.23623250000003" fill="none" instance-id="-1" semantic-id="1" stroke="rgb(89,89,89)" stroke-width="0.1"/>
  <path d="M 41.96000000000002,99.23623250000003 L 36.96000000000002,99.23623250000003" fill="none" instance-id="-1" semantic-id="1" stroke="rgb(89,89,89)" stroke-width="0.1"/>
  <path d="M 36.96000000000002,99.23623250000003 L 36.96000000000002,100.0" fill="none" instance-id="-1" semantic-id="1" stroke="rgb(89,89,89)" stroke-width="0.1"/>
  <path d="M 39.626700000000014,68.4082325 L 40.56000000000002,68.84123249999999" fill="none" instance-id="-1" semantic-id="1" stroke="rgb(89,89,89)" stroke-width="0.1"/>
  <path d="M 40.56000000000002,68.84123249999999 L 40.96000000000002,69.24123250000002" fill="none" instance-id="-1" semantic-id="1" stroke="rgb(89,89,89)" stroke-width="0.1"/>
  <path d="M 40.96000000000002,69.24123250000002 L 55.96000000000002,69.24123250000002" fill="none" instance-id="-1" semantic-id="1" stroke="rgb(89,89,89)" stroke-width="0.1"/>
  <path d="M 55.96000000000002,69.24123250000002 L 55.96000000000002,66.74123250000002" fill="none" instance-id="-1" semantic-id="1" stroke="rgb(89,89,89)" stroke-width="0.1"/>
  <path d="M 55.96000000000002,66.74123250000002 L 39.46000000000002,66.74123250000002" fill="none" instance-id="-1" semantic-id="1" stroke="rgb(89,89,89)" stroke-width="0.1"/>
  <path d="M 39.46000000000002,66.74123250000002 L 39.46000000000002,67.1412325" fill="none" instance-id="-1" semantic-id="1" stroke="rgb(89,89,89)" stroke-width="0.1"/>
  <path d="M 39.46000000000002,67.1412325 L 39.626700000000014,68.4082325" fill="none" instance-id="-1" semantic-id="1" stroke="rgb(89,89,89)" stroke-width="0.1"/>
  <path d="M 19.960000000000022,0.0 L 19.960000000000022,67.99123250000002" fill="none" instance-id="-1" semantic-id="1" stroke="rgb(89,89,89)" stroke-width="0.1"/>
  <path d="M 19.960000000000022,67.99123250000002 L 22.626700000000014,67.99123250000002" fill="none" instance-id="-1" semantic-id="1" stroke="rgb(89,89,89)" stroke-width="0.1"/>
  <path d="M 22.626700000000014,67.99123250000002 L 23.560000000000016,67.1412325" fill="none" instance-id="-1" semantic-id="1" stroke="rgb(89,89,89)" stroke-width="0.1"/>
  <path d="M 23.560000000000016,67.1412325 L 23.960000000000022,66.74123250000002" fill="none" instance-id="-1" semantic-id="1" stroke="rgb(89,89,89)" stroke-width="0.1"/>
  <path d="M 23.960000000000022,66.74123250000002 L 23.960000000000022,0.0" fill="none" instance-id="-1" semantic-id="1" stroke="rgb(89,89,89)" stroke-width="0.1"/>
  <path d="M 79.46000000000001,69.24123250000002 L 79.46000000000001,66.74123250000002" fill="none" instance-id="-1" semantic-id="1" stroke="rgb(89,89,89)" stroke-width="0.1"/>
  <path d="M 79.46000000000001,66.74123250000002 L 55.96000000000002,66.74123250000002" fill="none" instance-id="-1" semantic-id="1" stroke="rgb(89,89,89)" stroke-width="0.1"/>
  <path d="M 55.96000000000002,66.74123250000002 L 55.96000000000002,69.24123250000002" fill="none" instance-id="-1" semantic-id="1" stroke="rgb(89,89,89)" stroke-width="0.1"/>
  <path d="M 55.96000000000002,69.24123250000002 L 79.46000000000001,69.24123250000002" fill="none" instance-id="-1" semantic-id="1" stroke="rgb(89,89,89)" stroke-width="0.1"/>
 </g>
 <g id="layerPUB_WALL" inkscape:groupmode="layer" inkscape:label="PUB_WALL">
  <path d="M 23.560000000000016,68.84123249999999 L 23.560000000000016,100.0" fill="none" instance-id="-1" semantic-id="1" stroke="rgb(134,134,134)" stroke-width="0.1"/>
  <path d="M 23.960000000000022,100.0 L 23.960000000000022,69.24123250000002" fill="none" instance-id="-1" semantic-id="1" stroke="rgb(134,134,134)" stroke-width="0.1"/>
  <path d="M 23.960000000000022,69.24123250000002 L 23.560000000000016,68.84123249999999" fill="none" instance-id="-1" semantic-id="1" stroke="rgb(134,134,134)" stroke-width="0.1"/>
  <path d="M 19.960000000000022,67.99123250000002 L 19.960000000000022,100.0" fill="none" instance-id="-1" semantic-id="1" stroke="rgb(134,134,134)" stroke-width="0.1"/>
  <path d="M 20.360000000000014,100.0 L 20.360000000000014,67.99123250000002" fill="none" instance-id="-1" semantic-id="1" stroke="rgb(134,134,134)" stroke-width="0.1"/>
  <path d="M 20.360000000000014,67.99123250000002 L 19.960000000000022,67.99123250000002" fill="none" instance-id="-1" semantic-id="1" stroke="rgb(134,134,134)" stroke-width="0.1"/>
  <path d="M 86.06000000000003,66.74123250000002 L 86.06000000000003,69.24123250000002" fill="none" instance-id="-1" semantic-id="1" stroke="rgb(134,134,134)" stroke-width="0.1"/>
  <path d="M 86.06000000000003,69.24123250000002 L 86.46000000000001,69.24123250000002" fill="none" instance-id="-1" semantic-id="1" stroke="rgb(134,134,134)" stroke-width="0.1"/>
  <path d="M 86.46000000000001,69.24123250000002 L 86.46000000000001,66.74123250000002" fill="none" instance-id="-1" semantic-id="1" stroke="rgb(134,134,134)" stroke-width="0.1"/>
  <path d="M 86.46000000000001,66.74123250000002 L 86.06000000000003,66.74123250000002" fill="none" instance-id="-1" semantic-id="1" stroke="rgb(134,134,134)" stroke-width="0.1"/>
  <path d="M 81.96000000000001,75.24123250000002 L 82.36000000000001,74.84123249999999" fill="none" instance-id="-1" semantic-id="1" stroke="rgb(134,134,134)" stroke-width="0.1"/>
  <path d="M 82.36000000000001,74.84123249999999 L 82.36000000000001,73.74123250000002" fill="none" instance-id="-1" semantic-id="1" stroke="rgb(134,134,134)" stroke-width="0.1"/>
  <path d="M 82.36000000000001,73.74123250000002 L 81.96000000000001,73.74123250000002" fill="none" instance-id="-1" semantic-id="1" stroke="rgb(134,134,134)" stroke-width="0.1"/>
  <path d="M 81.96000000000001,73.74123250000002 L 81.96000000000001,75.24123250000002" fill="none" instance-id="-1" semantic-id="1" stroke="rgb(134,134,134)" stroke-width="0.1"/>
  <path d="M 81.96000000000001,75.24123250000002 L 83.96000000000001,75.24123250000002" fill="none" instance-id="-1" semantic-id="1" stroke="rgb(134,134,134)" stroke-width="0.1"/>
  <path d="M 83.96000000000001,75.24123250000002 L 83.56000000000003,74.84123249999999" fill="none" instance-id="-1" semantic-id="1" stroke="rgb(134,134,134)" stroke-width="0.1"/>
  <path d="M 83.56000000000003,74.84123249999999 L 82.36000000000001,74.84123249999999" fill="none" instance-id="-1" semantic-id="1" stroke="rgb(134,134,134)" stroke-width="0.1"/>
  <path d="M 82.36000000000001,74.84123249999999 L 81.96000000000001,75.24123250000002" fill="none" instance-id="-1" semantic-id="1" stroke="rgb(134,134,134)" stroke-width="0.1"/>
  <path d="M 83.96000000000001,75.24123250000002 L 83.96000000000001,73.74123250000002" fill="none" instance-id="-1" semantic-id="1" stroke="rgb(134,134,134)" stroke-width="0.1"/>
  <path d="M 83.96000000000001,73.74123250000002 L 83.56000000000003,73.74123250000002" fill="none" instance-id="-1" semantic-id="1" stroke="rgb(134,134,134)" stroke-width="0.1"/>
  <path d="M 83.56000000000003,73.74123250000002 L 83.56000000000003,74.84123249999999" fill="none" instance-id="-1" semantic-id="1" stroke="rgb(134,134,134)" stroke-width="0.1"/>
  <path d="M 83.56000000000003,74.84123249999999 L 83.96000000000001,75.24123250000002" fill="none" instance-id="-1" semantic-id="1" stroke="rgb(134,134,134)" stroke-width="0.1"/>
  <path d="M 83.96000000000001,100.0 L 83.96000000000001,85.24123250000002" fill="none" instance-id="-1" semantic-id="1" stroke="rgb(134,134,134)" stroke-width="0.1"/>
  <path d="M 83.96000000000001,85.24123250000002 L 83.56000000000003,85.6412325" fill="none" instance-id="-1" semantic-id="1" stroke="rgb(134,134,134)" stroke-width="0.1"/>
  <path d="M 83.56000000000003,85.6412325 L 83.56000000000003,100.0" fill="none" instance-id="-1" semantic-id="1" stroke="rgb(134,134,134)" stroke-width="0.1"/>
  <path d="M 81.96000000000001,85.24123250000002 L 82.36000000000001,85.6412325" fill="none" instance-id="-1" semantic-id="1" stroke="rgb(134,134,134)" stroke-width="0.1"/>
  <path d="M 82.36000000000001,85.6412325 L 83.56000000000003,85.6412325" fill="none" instance-id="-1" semantic-id="1" stroke="rgb(134,134,134)" stroke-width="0.1"/>
  <path d="M 83.56000000000003,85.6412325 L 83.96000000000001,85.24123250000002" fill="none" instance-id="-1" semantic-id="1" stroke="rgb(134,134,134)" stroke-width="0.1"/>
  <path d="M 83.96000000000001,85.24123250000002 L 81.96000000000001,85.24123250000002" fill="none" instance-id="-1" semantic-id="1" stroke="rgb(134,134,134)" stroke-width="0.1"/>
  <path d="M 82.36000000000001,100.0 L 82.36000000000001,85.6412325" fill="none" instance-id="-1" semantic-id="1" stroke="rgb(134,134,134)" stroke-width="0.1"/>
  <path d="M 82.36000000000001,85.6412325 L 81.96000000000001,85.24123250000002" fill="none" instance-id="-1" semantic-id="1" stroke="rgb(134,134,134)" stroke-width="0.1"/>
  <path d="M 81.96000000000001,85.24123250000002 L 81.96000000000001,100.0" fill="none" instance-id="-1" semantic-id="1" stroke="rgb(134,134,134)" stroke-width="0.1"/>
  <path d="M 40.56000000000002,68.84123249999999 L 40.56000000000002,88.74123250000002" fill="none" instance-id="-1" semantic-id="1" stroke="rgb(134,134,134)" stroke-width="0.1"/>
  <path d="M 40.56000000000002,88.74123250000002 L 40.96000000000002,88.74123250000002" fill="none" instance-id="-1" semantic-id="1" stroke="rgb(134,134,134)" stroke-width="0.1"/>
  <path d="M 40.96000000000002,88.74123250000002 L 40.96000000000002,69.24123250000002" fill="none" instance-id="-1" semantic-id="1" stroke="rgb(134,134,134)" stroke-width="0.1"/>
  <path d="M 40.96000000000002,69.24123250000002 L 40.56000000000002,68.84123249999999" fill="none" instance-id="-1" semantic-id="1" stroke="rgb(134,134,134)" stroke-width="0.1"/>
  <path d="M 38.46000000000002,69.24123250000002 L 38.46000000000002,88.74123250000002" fill="none" instance-id="-1" semantic-id="1" stroke="rgb(134,134,134)" stroke-width="0.1"/>
  <path d="M 38.46000000000002,88.74123250000002 L 38.860000000000014,88.74123250000002" fill="none" instance-id="-1" semantic-id="1" stroke="rgb(134,134,134)" stroke-width="0.1"/>
  <path d="M 38.860000000000014,88.74123250000002 L 38.860000000000014,68.84123249999999" fill="none" instance-id="-1" semantic-id="1" stroke="rgb(134,134,134)" stroke-width="0.1"/>
  <path d="M 38.860000000000014,68.84123249999999 L 38.46000000000002,69.24123250000002" fill="none" instance-id="-1" semantic-id="1" stroke="rgb(134,134,134)" stroke-width="0.1"/>
  <path d="M 23.560000000000016,67.1412325 L 39.46000000000002,67.1412325" fill="none" instance-id="-1" semantic-id="1" stroke="rgb(134,134,134)" stroke-width="0.1"/>
  <path d="M 39.46000000000002,67.1412325 L 39.46000000000002,66.74123250000002" fill="none" instance-id="-1" semantic-id="1" stroke="rgb(134,134,134)" stroke-width="0.1"/>
  <path d="M 39.46000000000002,66.74123250000002 L 23.960000000000022,66.74123250000002" fill="none" instance-id="-1" semantic-id="1" stroke="rgb(134,134,134)" stroke-width="0.1"/>
  <path d="M 23.960000000000022,66.74123250000002 L 23.560000000000016,67.1412325" fill="none" instance-id="-1" semantic-id="1" stroke="rgb(134,134,134)" stroke-width="0.1"/>
  <path d="M 23.960000000000022,69.24123250000002 L 38.46000000000002,69.24123250000002" fill="none" instance-id="-1" semantic-id="1" stroke="rgb(134,134,134)" stroke-width="0.1"/>
  <path d="M 38.46000000000002,69.24123250000002 L 38.860000000000014,68.84123249999999" fill="none" instance-id="-1" semantic-id="1" stroke="rgb(134,134,134)" stroke-width="0.1"/>
  <path d="M 38.860000000000014,68.84123249999999 L 23.560000000000016,68.84123249999999" fill="none" instance-id="-1" semantic-id="1" stroke="rgb(134,134,134)" stroke-width="0.1"/>
  <path d="M 23.560000000000016,68.84123249999999 L 23.960000000000022,69.24123250000002" fill="none" instance-id="-1" semantic-id="1" stroke="rgb(134,134,134)" stroke-width="0.1"/>
  <path d="M 36.96000000000002,88.74123250000002 L 37.360000000000014,89.1412325" fill="none" instance-id="-1" semantic-id="1" stroke="rgb(134,134,134)" stroke-width="0.1"/>
  <path d="M 37.360000000000014,89.1412325 L 38.860000000000014,89.1412325" fill="none" instance-id="-1" semantic-id="1" stroke="rgb(134,134,134)" stroke-width="0.1"/>
  <path d="M 38.860000000000014,89.1412325 L 38.860000000000014,88.74123250000002" fill="none" instance-id="-1" semantic-id="1" stroke="rgb(134,134,134)" stroke-width="0.1"/>
  <path d="M 38.860000000000014,88.74123250000002 L 36.96000000000002,88.74123250000002" fill="none" instance-id="-1" semantic-id="1" stroke="rgb(134,134,134)" stroke-width="0.1"/>
  <path d="M 36.96000000000002,91.23623250000003 L 37.360000000000014,90.8362325" fill="none" instance-id="-1" semantic-id="1" stroke="rgb(134,134,134)" stroke-width="0.1"/>
  <path d="M 37.360000000000014,90.8362325 L 37.360000000000014,89.1412325" fill="none" instance-id="-1" semantic-id="1" stroke="rgb(134,134,134)" stroke-width="0.1"/>
  <path d="M 37.360000000000014,89.1412325 L 36.96000000000002,88.74123250000002" fill="none" instance-id="-1" semantic-id="1" stroke="rgb(134,134,134)" stroke-width="0.1"/>
  <path d="M 36.96000000000002,88.74123250000002 L 36.96000000000002,91.23623250000003" fill="none" instance-id="-1" semantic-id="1" stroke="rgb(134,134,134)" stroke-width="0.1"/>
  <path d="M 36.96000000000002,91.23623250000003 L 41.96000000000002,91.23623250000003" fill="none" instance-id="-1" semantic-id="1" stroke="rgb(134,134,134)" stroke-width="0.1"/>
  <path d="M 41.96000000000002,91.23623250000003 L 41.56000000000002,90.8362325" fill="none" instance-id="-1" semantic-id="1" stroke="rgb(134,134,134)" stroke-width="0.1"/>
  <path d="M 41.56000000000002,90.8362325 L 37.360000000000014,90.8362325" fill="none" instance-id="-1" semantic-id="1" stroke="rgb(134,134,134)" stroke-width="0.1"/>
  <path d="M 37.360000000000014,90.8362325 L 36.96000000000002,91.23623250000003" fill="none" instance-id="-1" semantic-id="1" stroke="rgb(134,134,134)" stroke-width="0.1"/>
  <path d="M 41.96000000000002,88.74123250000002 L 41.56000000000002,89.1412325" fill="none" instance-id="-1" semantic-id="1" stroke="rgb(134,134,134)" stroke-width="0.1"/>
  <path d="M 41.56000000000002,89.1412325 L 41.56000000000002,90.8362325" fill="none" instance-id="-1" semantic-id="1" stroke="rgb(134,134,134)" stroke-width="0.1"/>
  <path d="M 41.56000000000002,90.8362325 L 41.96000000000002,91.23623250000003" fill="none" instance-id="-1" semantic-id="1" stroke="rgb(134,134,134)" stroke-width="0.1"/>
  <path d="M 41.96000000000002,91.23623250000003 L 41.96000000000002,88.74123250000002" fill="none" instance-id="-1" semantic-id="1" stroke="rgb(134,134,134)" stroke-width="0.1"/>
  <path d="M 40.56000000000002,88.74123250000002 L 40.56000000000002,89.1412325" fill="none" instance-id="-1" semantic-id="1" stroke="rgb(134,134,134)" stroke-width="0.1"/>
  <path d="M 40.56000000000002,89.1412325 L 41.56000000000002,89.1412325" fill="none" instance-id="-1" semantic-id="1" stroke="rgb(134,134,134)" stroke-width="0.1"/>
  <path d="M 41.56000000000002,89.1412325 L 41.96000000000002,88.74123250000002" fill="none" instance-id="-1" semantic-id="1" stroke="rgb(134,134,134)" stroke-width="0.1"/>
  <path d="M 41.96000000000002,88.74123250000002 L 40.56000000000002,88.74123250000002" fill="none" instance-id="-1" semantic-id="1" stroke="rgb(134,134,134)" stroke-width="0.1"/>
  <path d="M 41.96000000000002,100.0 L 41.96000000000002,99.23623250000003" fill="none" instance-id="-1" semantic-id="1" stroke="rgb(134,134,134)" stroke-width="0.1"/>
  <path d="M 41.96000000000002,99.23623250000003 L 41.56000000000002,99.6362325" fill="none" instance-id="-1" semantic-id="1" stroke="rgb(134,134,134)" stroke-width="0.1"/>
  <path d="M 41.56000000000002,99.6362325 L 41.56000000000002,100.0" fill="none" instance-id="-1" semantic-id="1" stroke="rgb(134,134,134)" stroke-width="0.1"/>
  <path d="M 36.96000000000002,99.23623250000003 L 37.360000000000014,99.6362325" fill="none" instance-id="-1" semantic-id="1" stroke="rgb(134,134,134)" stroke-width="0.1"/>
  <path d="M 37.360000000000014,99.6362325 L 41.56000000000002,99.6362325" fill="none" instance-id="-1" semantic-id="1" stroke="rgb(134,134,134)" stroke-width="0.1"/>
  <path d="M 41.56000000000002,99.6362325 L 41.96000000000002,99.23623250000003" fill="none" instance-id="-1" semantic-id="1" stroke="rgb(134,134,134)" stroke-width="0.1"/>
  <path d="M 41.96000000000002,99.23623250000003 L 36.96000000000002,99.23623250000003" fill="none" instance-id="-1" semantic-id="1" stroke="rgb(134,134,134)" stroke-width="0.1"/>
  <path d="M 36.96000000000002,99.23623250000003 L 36.96000000000002,100.0" fill="none" instance-id="-1" semantic-id="1" stroke="rgb(134,134,134)" stroke-width="0.1"/>
  <path d="M 37.360000000000014,100.0 L 37.360000000000014,99.6362325" fill="none" instance-id="-1" semantic-id="1" stroke="rgb(134,134,134)" stroke-width="0.1"/>
  <path d="M 37.360000000000014,99.6362325 L 36.96000000000002,99.23623250000003" fill="none" instance-id="-1" semantic-id="1" stroke="rgb(134,134,134)" stroke-width="0.1"/>
  <path d="M 54.96000000000002,69.24123250000002 L 54.96000000000002,91.49123250000002" fill="none" instance-id="-1" semantic-id="1" stroke="rgb(134,134,134)" stroke-width="0.1"/>
  <path d="M 54.96000000000002,91.49123250000002 L 55.360000000000014,91.09123249999999" fill="none" instance-id="-1" semantic-id="1" stroke="rgb(134,134,134)" stroke-width="0.1"/>
  <path d="M 55.360000000000014,91.09123249999999 L 55.360000000000014,69.24123250000002" fill="none" instance-id="-1" semantic-id="1" stroke="rgb(134,134,134)" stroke-width="0.1"/>
  <path d="M 55.360000000000014,69.24123250000002 L 54.96000000000002,69.24123250000002" fill="none" instance-id="-1" semantic-id="1" stroke="rgb(134,134,134)" stroke-width="0.1"/>
  <path d="M 54.96000000000002,91.49123250000002 L 56.96000000000002,91.49123250000002" fill="none" instance-id="-1" semantic-id="1" stroke="rgb(134,134,134)" stroke-width="0.1"/>
  <path d="M 56.96000000000002,91.49123250000002 L 56.56000000000002,91.09123249999999" fill="none" instance-id="-1" semantic-id="1" stroke="rgb(134,134,134)" stroke-width="0.1"/>
  <path d="M 56.56000000000002,91.09123249999999 L 55.360000000000014,91.09123249999999" fill="none" instance-id="-1" semantic-id="1" stroke="rgb(134,134,134)" stroke-width="0.1"/>
  <path d="M 55.360000000000014,91.09123249999999 L 54.96000000000002,91.49123250000002" fill="none" instance-id="-1" semantic-id="1" stroke="rgb(134,134,134)" stroke-width="0.1"/>
  <path d="M 56.96000000000002,69.24123250000002 L 56.56000000000002,69.24123250000002" fill="none" instance-id="-1" semantic-id="1" stroke="rgb(134,134,134)" stroke-width="0.1"/>
  <path d="M 56.56000000000002,69.24123250000002 L 56.56000000000002,91.09123249999999" fill="none" instance-id="-1" semantic-id="1" stroke="rgb(134,134,134)" stroke-width="0.1"/>
  <path d="M 56.56000000000002,91.09123249999999 L 56.96000000000002,91.49123250000002" fill="none" instance-id="-1" semantic-id="1" stroke="rgb(134,134,134)" stroke-width="0.1"/>
  <path d="M 56.96000000000002,91.49123250000002 L 56.96000000000002,69.24123250000002" fill="none" instance-id="-1" semantic-id="1" stroke="rgb(134,134,134)" stroke-width="0.1"/>
  <path d="M 39.46000000000002,67.1412325 L 55.96000000000002,67.1412325" fill="none" instance-id="-1" semantic-id="1" stroke="rgb(134,134,134)" stroke-width="0.1"/>
  <path d="M 55.96000000000002,67.1412325 L 55.96000000000002,66.74123250000002" fill="none" instance-id="-1" semantic-id="1" stroke="rgb(134,134,134)" stroke-width="0.1"/>
  <path d="M 55.96000000000002,66.74123250000002 L 39.46000000000002,66.74123250000002" fill="none" instance-id="-1" semantic-id="1" stroke="rgb(134,134,134)" stroke-width="0.1"/>
  <path d="M 39.46000000000002,66.74123250000002 L 39.46000000000002,67.1412325" fill="none" instance-id="-1" semantic-id="1" stroke="rgb(134,134,134)" stroke-width="0.1"/>
  <path d="M 40.96000000000002,69.24123250000002 L 55.96000000000002,69.24123250000002" fill="none" instance-id="-1" semantic-id="1" stroke="rgb(134,134,134)" stroke-width="0.1"/>
  <path d="M 55.96000000000002,69.24123250000002 L 55.96000000000002,68.84123249999999" fill="none" instance-id="-1" semantic-id="1" stroke="rgb(134,134,134)" stroke-width="0.1"/>
  <path d="M 55.96000000000002,68.84123249999999 L 40.56000000000002,68.84123249999999" fill="none" instance-id="-1" semantic-id="1" stroke="rgb(134,134,134)" stroke-width="0.1"/>
  <path d="M 40.56000000000002,68.84123249999999 L 40.96000000000002,69.24123250000002" fill="none" instance-id="-1" semantic-id="1" stroke="rgb(134,134,134)" stroke-width="0.1"/>
  <path d="M 23.560000000000016,0.0 L 23.560000000000016,67.1412325" fill="none" instance-id="-1" semantic-id="1" stroke="rgb(134,134,134)" stroke-width="0.1"/>
  <path d="M 23.560000000000016,67.1412325 L 23.960000000000022,66.74123250000002" fill="none" instance-id="-1" semantic-id="1" stroke="rgb(134,134,134)" stroke-width="0.1"/>
  <path d="M 23.960000000000022,66.74123250000002 L 23.960000000000022,0.0" fill="none" instance-id="-1" semantic-id="1" stroke="rgb(134,134,134)" stroke-width="0.1"/>
  <path d="M 19.960000000000022,0.0 L 19.960000000000022,67.99123250000002" fill="none" instance-id="-1" semantic-id="1" stroke="rgb(134,134,134)" stroke-width="0.1"/>
  <path d="M 19.960000000000022,67.99123250000002 L 20.360000000000014,67.99123250000002" fill="none" instance-id="-1" semantic-id="1" stroke="rgb(134,134,134)" stroke-width="0.1"/>
  <path d="M 20.360000000000014,67.99123250000002 L 20.360000000000014,0.0" fill="none" instance-id="-1" semantic-id="1" stroke="rgb(134,134,134)" stroke-width="0.1"/>
  <path d="M 79.46000000000001,67.1412325 L 79.46000000000001,66.74123250000002" fill="none" instance-id="-1" semantic-id="1" stroke="rgb(134,134,134)" stroke-width="0.1"/>
  <path d="M 79.46000000000001,66.74123250000002 L 55.96000000000002,66.74123250000002" fill="none" instance-id="-1" semantic-id="1" stroke="rgb(134,134,134)" stroke-width="0.1"/>
  <path d="M 55.96000000000002,66.74123250000002 L 55.96000000000002,67.1412325" fill="none" instance-id="-1" semantic-id="1" stroke="rgb(134,134,134)" stroke-width="0.1"/>
  <path d="M 55.96000000000002,67.1412325 L 79.46000000000001,67.1412325" fill="none" instance-id="-1" semantic-id="1" stroke="rgb(134,134,134)" stroke-width="0.1"/>
  <path d="M 79.46000000000001,69.24123250000002 L 79.46000000000001,68.84123249999999" fill="none" instance-id="-1" semantic-id="1" stroke="rgb(134,134,134)" stroke-width="0.1"/>
  <path d="M 79.46000000000001,68.84123249999999 L 55.96000000000002,68.84123249999999" fill="none" instance-id="-1" semantic-id="1" stroke="rgb(134,134,134)" stroke-width="0.1"/>
  <path d="M 55.96000000000002,68.84123249999999 L 55.96000000000002,69.24123250000002" fill="none" instance-id="-1" semantic-id="1" stroke="rgb(134,134,134)" stroke-width="0.1"/>
  <path d="M 55.96000000000002,69.24123250000002 L 79.46000000000001,69.24123250000002" fill="none" instance-id="-1" semantic-id="1" stroke="rgb(134,134,134)" stroke-width="0.1"/>
  <path d="M 19.960000000000022,0.0 L 19.960000000000022,66.24123250000002" fill="none" instance-id="-1" semantic-id="1" stroke="rgb(134,134,134)" stroke-width="0.1"/>
  <path d="M 19.960000000000022,66.24123250000002 L 20.360000000000014,66.24123250000002" fill="none" instance-id="-1" semantic-id="1" stroke="rgb(134,134,134)" stroke-width="0.1"/>
  <path d="M 20.360000000000014,66.24123250000002 L 20.360000000000014,0.0" fill="none" instance-id="-1" semantic-id="1" stroke="rgb(134,134,134)" stroke-width="0.1"/>
  <path d="M 23.560000000000016,0.0 L 23.560000000000016,66.24123250000002" fill="none" instance-id="-1" semantic-id="1" stroke="rgb(134,134,134)" stroke-width="0.1"/>
  <path d="M 23.560000000000016,66.24123250000002 L 23.960000000000022,66.24123250000002" fill="none" instance-id="-1" semantic-id="1" stroke="rgb(134,134,134)" stroke-width="0.1"/>
  <path d="M 23.960000000000022,66.24123250000002 L 23.960000000000022,0.0" fill="none" instance-id="-1" semantic-id="1" stroke="rgb(134,134,134)" stroke-width="0.1"/>
  <path d="M 19.960000000000022,74.24123250000002 L 19.960000000000022,100.0" fill="none" instance-id="-1" semantic-id="1" stroke="rgb(134,134,134)" stroke-width="0.1"/>
  <path d="M 20.360000000000014,100.0 L 20.360000000000014,74.24123250000002" fill="none" instance-id="-1" semantic-id="1" stroke="rgb(134,134,134)" stroke-width="0.1"/>
  <path d="M 20.360000000000014,74.24123250000002 L 19.960000000000022,74.24123250000002" fill="none" instance-id="-1" semantic-id="1" stroke="rgb(134,134,134)" stroke-width="0.1"/>
  <path d="M 23.560000000000016,74.24123250000002 L 23.560000000000016,100.0" fill="none" instance-id="-1" semantic-id="1" stroke="rgb(134,134,134)" stroke-width="0.1"/>
  <path d="M 23.960000000000022,100.0 L 23.960000000000022,74.24123250000002" fill="none" instance-id="-1" semantic-id="1" stroke="rgb(134,134,134)" stroke-width="0.1"/>
  <path d="M 23.960000000000022,74.24123250000002 L 23.560000000000016,74.24123250000002" fill="none" instance-id="-1" semantic-id="1" stroke="rgb(134,134,134)" stroke-width="0.1"/>
  <path d="M 79.46000000000001,73.74123250000002 L 86.46000000000001,73.74123250000002" fill="none" instance-id="-1" semantic-id="1" stroke="rgb(134,134,134)" stroke-width="0.1"/>
  <path d="M 86.46000000000001,73.74123250000002 L 86.06000000000003,73.34123249999999" fill="none" instance-id="-1" semantic-id="1" stroke="rgb(134,134,134)" stroke-width="0.1"/>
  <path d="M 86.06000000000003,73.34123249999999 L 79.86000000000001,73.34123249999999" fill="none" instance-id="-1" semantic-id="1" stroke="rgb(134,134,134)" stroke-width="0.1"/>
  <path d="M 79.86000000000001,73.34123249999999 L 79.46000000000001,73.74123250000002" fill="none" instance-id="-1" semantic-id="1" stroke="rgb(134,134,134)" stroke-width="0.1"/>
  <path d="M 86.46000000000001,73.74123250000002 L 86.46000000000001,66.74123250000002" fill="none" instance-id="-1" semantic-id="1" stroke="rgb(134,134,134)" stroke-width="0.1"/>
  <path d="M 86.46000000000001,66.74123250000002 L 86.06000000000003,67.1412325" fill="none" instance-id="-1" semantic-id="1" stroke="rgb(134,134,134)" stroke-width="0.1"/>
  <path d="M 86.06000000000003,67.1412325 L 86.06000000000003,73.34123249999999" fill="none" instance-id="-1" semantic-id="1" stroke="rgb(134,134,134)" stroke-width="0.1"/>
  <path d="M 86.06000000000003,73.34123249999999 L 86.46000000000001,73.74123250000002" fill="none" instance-id="-1" semantic-id="1" stroke="rgb(134,134,134)" stroke-width="0.1"/>
  <path d="M 79.46000000000001,66.74123250000002 L 79.86000000000001,67.1412325" fill="none" instance-id="-1" semantic-id="1" stroke="rgb(134,134,134)" stroke-width="0.1"/>
  <path d="M 79.86000000000001,67.1412325 L 86.06000000000003,67.1412325" fill="none" instance-id="-1" semantic-id="1" stroke="rgb(134,134,134)" stroke-width="0.1"/>
  <path d="M 86.06000000000003,67.1412325 L 86.46000000000001,66.74123250000002" fill="none" instance-id="-1" semantic-id="1" stroke="rgb(134,134,134)" stroke-width="0.1"/>
  <path d="M 86.46000000000001,66.74123250000002 L 79.46000000000001,66.74123250000002" fill="none" instance-id="-1" semantic-id="1" stroke="rgb(134,134,134)" stroke-width="0.1"/>
  <path d="M 79.46000000000001,66.74123250000002 L 79.46000000000001,73.74123250000002" fill="none" instance-id="-1" semantic-id="1" stroke="rgb(134,134,134)" stroke-width="0.1"/>
  <path d="M 79.46000000000001,73.74123250000002 L 79.86000000000001,73.34123249999999" fill="none" instance-id="-1" semantic-id="1" stroke="rgb(134,134,134)" stroke-width="0.1"/>
  <path d="M 79.86000000000001,73.34123249999999 L 79.86000000000001,67.1412325" fill="none" instance-id="-1" semantic-id="1" stroke="rgb(134,134,134)" stroke-width="0.1"/>
  <path d="M 79.86000000000001,67.1412325 L 79.46000000000001,66.74123250000002" fill="none" instance-id="-1" semantic-id="1" stroke="rgb(134,134,134)" stroke-width="0.1"/>
 </g>
 <g id="layerWALL" inkscape:groupmode="layer" inkscape:label="WALL">
  <path d="M 81.96000000000001,73.74123250000002 L 81.96000000000001,75.24123250000002" fill="none" instance-id="-1" semantic-id="1" stroke="rgb(178,178,0)" stroke-width="0.1"/>
  <path d="M 81.96000000000001,75.24123250000002 L 83.96000000000001,75.24123250000002" fill="none" instance-id="-1" semantic-id="1" stroke="rgb(178,178,0)" stroke-width="0.1"/>
  <path d="M 83.96000000000001,75.24123250000002 L 83.96000000000001,73.74123250000002" fill="none" instance-id="-1" semantic-id="1" stroke="rgb(178,178,0)" stroke-width="0.1"/>
  <path d="M 83.96000000000001,100.0 L 83.96000000000001,85.24123250000002" fill="none" instance-id="-1" semantic-id="1" stroke="rgb(178,178,0)" stroke-width="0.1"/>
  <path d="M 83.96000000000001,85.24123250000002 L 81.96000000000001,85.24123250000002" fill="none" instance-id="-1" semantic-id="1" stroke="rgb(178,178,0)" stroke-width="0.1"/>
  <path d="M 81.96000000000001,85.24123250000002 L 81.96000000000001,100.0" fill="none" instance-id="-1" semantic-id="1" stroke="rgb(178,178,0)" stroke-width="0.1"/>
  <path d="M 54.96000000000002,69.24123250000002 L 54.96000000000002,91.49123250000002" fill="none" instance-id="-1" semantic-id="1" stroke="rgb(178,178,0)" stroke-width="0.1"/>
  <path d="M 54.96000000000002,91.49123250000002 L 56.96000000000002,91.49123250000002" fill="none" instance-id="-1" semantic-id="1" stroke="rgb(178,178,0)" stroke-width="0.1"/>
  <path d="M 56.96000000000002,91.49123250000002 L 56.96000000000002,69.24123250000002" fill="none" instance-id="-1" semantic-id="1" stroke="rgb(178,178,0)" stroke-width="0.1"/>
 </g>
 <g id="layerWINDOW" inkscape:groupmode="layer" inkscape:label="WINDOW">
  <path d="M 36.96000000000002,91.23623250000003 L 36.96000000000002,99.23623250000003" fill="none" stroke="rgb(53,133,160)" stroke-width="0.1"/>
  <path d="M 41.96000000000002,91.23623250000003 L 41.96000000000002,99.23623250000003" fill="none" stroke="rgb(53,133,160)" stroke-width="0.1"/>
  <path d="M 92.71000000000001,75.74123250000002 L 92.71000000000001,75.24123250000002" fill="none" instance-id="2" semantic-id="3" stroke="rgb(53,133,160)" stroke-width="0.1"/>
  <path d="M 82.96000000000001,75.24123250000002 L 82.96000000000001,75.74123250000002" fill="none" instance-id="2" semantic-id="3" stroke="rgb(53,133,160)" stroke-width="0.1"/>
  <path d="M 82.96000000000001,75.24123250000002 L 92.71000000000001,75.24123250000002" fill="none" instance-id="2" semantic-id="3" stroke="rgb(53,133,160)" stroke-width="0.1"/>
  <path d="M 82.96000000000001,75.74123250000002 L 92.71000000000001,75.74123250000002" fill="none" instance-id="2" semantic-id="3" stroke="rgb(53,133,160)" stroke-width="0.1"/>
  <path d="M 86.46000000000001,65.24123250000002 L 100.0,57.42400878485057" fill="none" stroke="rgb(53,133,160)" stroke-width="0.1"/>
  <path d="M 38.660000000000025,99.23623250000003 L 34.660000000000025,92.30823249999997" fill="none" stroke="rgb(53,133,160)" stroke-width="0.1"/>
  <path d="M 41.394700000000014,99.69323250000002 L 45.394700000000014,92.76523250000002" fill="none" stroke="rgb(53,133,160)" stroke-width="0.1"/>
  <path d="M 40.60290000000002,99.23623250000003 L 44.60290000000002,92.30823249999997" fill="none" stroke="rgb(53,133,160)" stroke-width="0.1"/>
  <path d="M 82.96000000000001,85.24123250000002 A 9.75,9.75 0.0 0,0 92.70700000000002,75.74123250000002" fill="none" instance-id="2" semantic-id="3" stroke="rgb(53,133,160)" stroke-width="0.1"/>
  <path d="M 55.96000000000002,91.49123250000002 L 55.45804724123458,91.50416163113778" fill="none" instance-id="3" semantic-id="3" stroke="rgb(53,133,160)" stroke-width="0.1"/>
  <path d="M 55.45804724123458,91.50416163113778 L 54.957425741149024,91.54291531633424" fill="none" instance-id="3" semantic-id="3" stroke="rgb(53,133,160)" stroke-width="0.1"/>
  <path d="M 54.957425741149024,91.54291531633424 L 54.459463242672015,91.6073907734845" fill="none" instance-id="3" semantic-id="3" stroke="rgb(53,133,160)" stroke-width="0.1"/>
  <path d="M 54.459463242672015,91.6073907734845 L 53.96548043655686,91.69741700147847" fill="none" instance-id="3" semantic-id="3" stroke="rgb(53,133,160)" stroke-width="0.1"/>
  <path d="M 53.96548043655686,91.69741700147847 L 53.476787458659885,91.81275523372778" fill="none" instance-id="3" semantic-id="3" stroke="rgb(53,133,160)" stroke-width="0.1"/>
  <path d="M 53.476787458659885,91.81275523372778 L 52.99468041521217,91.95309957142018" fill="none" instance-id="3" semantic-id="3" stroke="rgb(53,133,160)" stroke-width="0.1"/>
  <path d="M 52.99468041521217,91.95309957142018 L 52.520437945300685,92.11807779482092" fill="none" instance-id="3" semantic-id="3" stroke="rgb(53,133,160)" stroke-width="0.1"/>
  <path d="M 52.520437945300685,92.11807779482092 L 52.055317829675545,92.3072523504701" fill="none" instance-id="3" semantic-id="3" stroke="rgb(53,133,160)" stroke-width="0.1"/>
  <path d="M 52.055317829675545,92.3072523504701 L 51.60055365487743,92.52012151165701" fill="none" instance-id="3" semantic-id="3" stroke="rgb(53,133,160)" stroke-width="0.1"/>
  <path d="M 51.60055365487743,92.52012151165701 L 51.15735154153279,92.75612070909432" fill="none" instance-id="3" semantic-id="3" stroke="rgb(53,133,160)" stroke-width="0.1"/>
  <path d="M 51.15735154153279,92.75612070909432 L 50.72688694549372,93.0146240282628" fill="none" instance-id="3" semantic-id="3" stroke="rgb(53,133,160)" stroke-width="0.1"/>
  <path d="M 50.72688694549372,93.0146240282628 L 50.31030154030664,93.29494586945492" fill="none" instance-id="3" semantic-id="3" stroke="rgb(53,133,160)" stroke-width="0.1"/>
  <path d="M 50.31030154030664,93.29494586945492 L 49.90870018927809,93.5963427661149" fill="none" instance-id="3" semantic-id="3" stroke="rgb(53,133,160)" stroke-width="0.1"/>
  <path d="M 49.90870018927809,93.5963427661149 L 49.52314801516826,93.9180153566528" fill="none" instance-id="3" semantic-id="3" stroke="rgb(53,133,160)" stroke-width="0.1"/>
  <path d="M 49.52314801516826,93.9180153566528 L 49.15466757528381,94.25911050450276" fill="none" instance-id="3" semantic-id="3" stroke="rgb(53,133,160)" stroke-width="0.1"/>
  <path d="M 49.15466757528381,94.25911050450276 L 48.804236149462554,94.61872356080232" fill="none" instance-id="3" semantic-id="3" stroke="rgb(53,133,160)" stroke-width="0.1"/>
  <path d="M 48.804236149462554,94.61872356080232 L 48.47278314814237,94.99590076369248" fill="none" instance-id="3" semantic-id="3" stroke="rgb(53,133,160)" stroke-width="0.1"/>
  <path d="M 48.47278314814237,94.99590076369248 L 48.16118764738894,95.3896417678747" fill="none" instance-id="3" semantic-id="3" stroke="rgb(53,133,160)" stroke-width="0.1"/>
  <path d="M 48.16118764738894,95.3896417678747 L 47.870276057419645,95.7989022977157" fill="none" instance-id="3" semantic-id="3" stroke="rgb(53,133,160)" stroke-width="0.1"/>
  <path d="M 47.870276057419645,95.7989022977157 L 47.600819930807404,96.22259691686418" fill="none" instance-id="3" semantic-id="3" stroke="rgb(53,133,160)" stroke-width="0.1"/>
  <path d="M 47.600819930807404,96.22259691686418 L 47.35353391617724,96.6596019070331" fill="none" instance-id="3" semantic-id="3" stroke="rgb(53,133,160)" stroke-width="0.1"/>
  <path d="M 47.35353391617724,96.6596019070331 L 47.129073862822935,97.1087582483135" fill="none" instance-id="3" semantic-id="3" stroke="rgb(53,133,160)" stroke-width="0.1"/>
  <path d="M 47.129073862822935,97.1087582483135 L 46.92803508127058,97.56887469311431" fill="none" instance-id="3" semantic-id="3" stroke="rgb(53,133,160)" stroke-width="0.1"/>
  <path d="M 46.92803508127058,97.56887469311431 L 46.750950764402546,98.03873092557654" fill="none" instance-id="3" semantic-id="3" stroke="rgb(53,133,160)" stroke-width="0.1"/>
  <path d="M 46.750950764402546,98.03873092557654 L 46.59829057332897,98.51708079808157" fill="none" instance-id="3" semantic-id="3" stroke="rgb(53,133,160)" stroke-width="0.1"/>
  <path d="M 46.59829057332897,98.51708079808157 L 46.4704593917577,99.00265563627062" fill="none" instance-id="3" semantic-id="3" stroke="rgb(53,133,160)" stroke-width="0.1"/>
  <path d="M 46.4704593917577,99.00265563627062 L 46.36779625216609,99.49416760380893" fill="none" instance-id="3" semantic-id="3" stroke="rgb(53,133,160)" stroke-width="0.1"/>
  <path d="M 46.36779625216609,99.49416760380893 L 46.29057343662275,99.99031311797165" fill="none" instance-id="3" semantic-id="3" stroke="rgb(53,133,160)" stroke-width="0.1"/>
 </g>
 <g id="layerWINDOW_TEXT" inkscape:groupmode="layer" inkscape:label="WINDOW_TEXT">
  <text fill="rgb(0,0,0)" font-family="Noto Sans CJK SC" font-size="2" transform="rotate(-90.0,61.96000000000002,93.0352325)" x="61.96000000000002" y="93.0352325">
   甲
  </text>
  <text fill="rgb(0,0,0)" font-family="Noto Sans CJK SC" font-size="2" transform="rotate(-90.0,46.764600000000016,91.58223249999998)" x="46.764600000000016" y="91.58223249999998">
   左
  </text>
 </g>
 <g id="layer人防墙" inkscape:groupmode="layer" inkscape:label="人防墙">
  <path d="M 23.960000000000022,69.24123250000002 L 23.960000000000022,100.0" fill="none" instance-id="-1" semantic-id="1" stroke="rgb(160,53,79)" stroke-width="0.1"/>
  <path d="M 19.960000000000022,67.99123250000002 L 19.960000000000022,100.0" fill="none" instance-id="-1" semantic-id="1" stroke="rgb(160,53,79)" stroke-width="0.1"/>
  <path d="M 86.46000000000001,66.74123250000002 L 86.46000000000001,69.24123250000002" fill="none" instance-id="-1" semantic-id="1" stroke="rgb(160,53,79)" stroke-width="0.1"/>
  <path d="M 40.96000000000002,69.24123250000002 L 40.96000000000002,88.74123250000002" fill="none" instance-id="-1" semantic-id="1" stroke="rgb(160,53,79)" stroke-width="0.1"/>
  <path d="M 38.46000000000002,69.24123250000002 L 38.46000000000002,88.74123250000002" fill="none" instance-id="-1" semantic-id="1" stroke="rgb(160,53,79)" stroke-width="0.1"/>
  <path d="M 23.960000000000022,66.74123250000002 L 39.46000000000002,66.74123250000002" fill="none" instance-id="-1" semantic-id="1" stroke="rgb(160,53,79)" stroke-width="0.1"/>
  <path d="M 23.960000000000022,69.24123250000002 L 38.46000000000002,69.24123250000002" fill="none" instance-id="-1" semantic-id="1" stroke="rgb(160,53,79)" stroke-width="0.1"/>
  <path d="M 38.46000000000002,88.74123250000002 L 36.96000000000002,88.74123250000002" fill="none" instance-id="-1" semantic-id="1" stroke="rgb(160,53,79)" stroke-width="0.1"/>
  <path d="M 36.96000000000002,88.74123250000002 L 36.96000000000002,91.23623250000003" fill="none" instance-id="-1" semantic-id="1" stroke="rgb(160,53,79)" stroke-width="0.1"/>
  <path d="M 36.96000000000002,91.23623250000003 L 41.96000000000002,91.23623250000003" fill="none" instance-id="-1" semantic-id="1" stroke="rgb(160,53,79)" stroke-width="0.1"/>
  <path d="M 41.96000000000002,91.23623250000003 L 41.96000000000002,88.74123250000002" fill="none" instance-id="-1" semantic-id="1" stroke="rgb(160,53,79)" stroke-width="0.1"/>
  <path d="M 41.96000000000002,88.74123250000002 L 40.96000000000002,88.74123250000002" fill="none" instance-id="-1" semantic-id="1" stroke="rgb(160,53,79)" stroke-width="0.1"/>
  <path d="M 41.96000000000002,100.0 L 41.96000000000002,99.23623250000003" fill="none" instance-id="-1" semantic-id="1" stroke="rgb(160,53,79)" stroke-width="0.1"/>
  <path d="M 41.96000000000002,99.23623250000003 L 36.96000000000002,99.23623250000003" fill="none" instance-id="-1" semantic-id="1" stroke="rgb(160,53,79)" stroke-width="0.1"/>
  <path d="M 36.96000000000002,99.23623250000003 L 36.96000000000002,100.0" fill="none" instance-id="-1" semantic-id="1" stroke="rgb(160,53,79)" stroke-width="0.1"/>
  <path d="M 39.46000000000002,66.74123250000002 L 55.96000000000002,66.74123250000002" fill="none" instance-id="-1" semantic-id="1" stroke="rgb(160,53,79)" stroke-width="0.1"/>
  <path d="M 40.96000000000002,69.24123250000002 L 55.96000000000002,69.24123250000002" fill="none" instance-id="-1" semantic-id="1" stroke="rgb(160,53,79)" stroke-width="0.1"/>
  <path d="M 23.960000000000022,0.0 L 23.960000000000022,66.74123250000002" fill="none" instance-id="-1" semantic-id="1" stroke="rgb(160,53,79)" stroke-width="0.1"/>
  <path d="M 19.960000000000022,0.0 L 19.960000000000022,67.99123250000002" fill="none" instance-id="-1" semantic-id="1" stroke="rgb(160,53,79)" stroke-width="0.1"/>
  <path d="M 55.96000000000002,66.74123250000002 L 79.46000000000001,66.74123250000002" fill="none" instance-id="-1" semantic-id="1" stroke="rgb(160,53,79)" stroke-width="0.1"/>
  <path d="M 55.96000000000002,69.24123250000002 L 79.46000000000001,69.24123250000002" fill="none" instance-id="-1" semantic-id="1" stroke="rgb(160,53,79)" stroke-width="0.1"/>
 </g>
 <g id="layer洁具" inkscape:groupmode="layer" inkscape:label="洁具">
  <path d="M 23.960000000000022,73.24123250000002 L 33.96000000000002,73.24123250000002" fill="none" stroke="rgb(44,44,88)" stroke-width="0.1"/>
  <path d="M 33.96000000000002,73.24123250000002 L 33.96000000000002,95.74123250000002" fill="none" stroke="rgb(44,44,88)" stroke-width="0.1"/>
  <path d="M 33.96000000000002,95.74123250000002 L 23.960000000000022,95.74123250000002" fill="none" stroke="rgb(44,44,88)" stroke-width="0.1"/>
  <path d="M 23.960000000000022,95.74123250000002 L 23.960000000000022,73.24123250000002" fill="none" stroke="rgb(44,44,88)" stroke-width="0.1"/>
 </g>
 <g id="layer立体车位" inkscape:groupmode="layer" inkscape:label="立体车位">
  <path d="M 32.96000000000002,65.24123250000002 L 80.98479614583337,0.0" fill="none" stroke="rgb(0,178,178)" stroke-width="0.1"/>
  <path d="M 37.93520385416667,0.0 L 85.96000000000001,65.24123250000002" fill="none" stroke="rgb(0,178,178)" stroke-width="0.1"/>
 </g>
 <g id="layer车位" inkscape:groupmode="layer" inkscape:label="车位">
  <path d="M 43.96000000000002,62.741232500000024 L 43.96000000000002,43.741232500000024" fill="none" instance-id="-1" semantic-id="35" stroke="rgb(0,178,178)" stroke-width="0.1"/>
  <path d="M 43.96000000000002,43.741232500000024 L 45.96000000000002,43.741232500000024" fill="none" instance-id="-1" semantic-id="35" stroke="rgb(0,178,178)" stroke-width="0.1"/>
  <path d="M 45.96000000000002,43.741232500000024 L 45.96000000000002,62.741232500000024" fill="none" instance-id="-1" semantic-id="35" stroke="rgb(0,178,178)" stroke-width="0.1"/>
  <path d="M 45.96000000000002,62.741232500000024 L 43.96000000000002,62.741232500000024" fill="none" instance-id="-1" semantic-id="35" stroke="rgb(0,178,178)" stroke-width="0.1"/>
  <path d="M 85.96000000000001,65.24123250000002 L 85.96000000000001,41.241232500000024" fill="none" instance-id="-1" semantic-id="35" stroke="rgb(0,178,178)" stroke-width="0.1"/>
  <path d="M 85.96000000000001,41.241232500000024 L 32.96000000000002,41.241232500000024" fill="none" instance-id="-1" semantic-id="35" stroke="rgb(0,178,178)" stroke-width="0.1"/>
  <path d="M 32.96000000000002,41.241232500000024 L 32.96000000000002,65.24123250000002" fill="none" instance-id="-1" semantic-id="35" stroke="rgb(0,178,178)" stroke-width="0.1"/>
  <path d="M 32.96000000000002,65.24123250000002 L 85.96000000000001,65.24123250000002" fill="none" instance-id="-1" semantic-id="35" stroke="rgb(0,178,178)" stroke-width="0.1"/>
  <path d="M 43.96000000000002,38.741232500000024 L 43.96000000000002,19.741232500000024" fill="none" instance-id="-1" semantic-id="35" stroke="rgb(0,178,178)" stroke-width="0.1"/>
  <path d="M 43.96000000000002,19.741232500000024 L 45.96000000000002,19.741232500000024" fill="none" instance-id="-1" semantic-id="35" stroke="rgb(0,178,178)" stroke-width="0.1"/>
  <path d="M 45.96000000000002,19.741232500000024 L 45.96000000000002,38.741232500000024" fill="none" instance-id="-1" semantic-id="35" stroke="rgb(0,178,178)" stroke-width="0.1"/>
  <path d="M 45.96000000000002,38.741232500000024 L 43.96000000000002,38.741232500000024" fill="none" instance-id="-1" semantic-id="35" stroke="rgb(0,178,178)" stroke-width="0.1"/>
  <path d="M 85.96000000000001,41.241232500000024 L 85.96000000000001,17.241232500000024" fill="none" instance-id="-1" semantic-id="35" stroke="rgb(0,178,178)" stroke-width="0.1"/>
  <path d="M 85.96000000000001,17.241232500000024 L 32.96000000000002,17.241232500000024" fill="none" instance-id="-1" semantic-id="35" stroke="rgb(0,178,178)" stroke-width="0.1"/>
  <path d="M 32.96000000000002,17.241232500000024 L 32.96000000000002,41.241232500000024" fill="none" instance-id="-1" semantic-id="35" stroke="rgb(0,178,178)" stroke-width="0.1"/>
  <path d="M 32.96000000000002,41.241232500000024 L 85.96000000000001,41.241232500000024" fill="none" instance-id="-1" semantic-id="35" stroke="rgb(0,178,178)" stroke-width="0.1"/>
  <path d="M 43.96000000000002,14.741232500000024 L 43.96000000000002,0.0" fill="none" instance-id="-1" semantic-id="35" stroke="rgb(0,178,178)" stroke-width="0.1"/>
  <path d="M 45.96000000000002,0.0 L 45.96000000000002,14.741232500000024" fill="none" instance-id="-1" semantic-id="35" stroke="rgb(0,178,178)" stroke-width="0.1"/>
  <path d="M 45.96000000000002,14.741232500000024 L 43.96000000000002,14.741232500000024" fill="none" instance-id="-1" semantic-id="35" stroke="rgb(0,178,178)" stroke-width="0.1"/>
  <path d="M 85.96000000000001,17.241232500000024 L 85.96000000000001,0.0" fill="none" instance-id="-1" semantic-id="35" stroke="rgb(0,178,178)" stroke-width="0.1"/>
  <path d="M 32.96000000000002,0.0 L 32.96000000000002,17.241232500000024" fill="none" instance-id="-1" semantic-id="35" stroke="rgb(0,178,178)" stroke-width="0.1"/>
  <path d="M 32.96000000000002,17.241232500000024 L 85.96000000000001,17.241232500000024" fill="none" instance-id="-1" semantic-id="35" stroke="rgb(0,178,178)" stroke-width="0.1"/>
 </g>
</svg>