<?xml version="1.0" encoding="utf-8"?>
<svg style="background-color: #000;" version="1.1" viewBox="0 0 100.0 100.0" xmlns="http://www.w3.org/2000/svg" xmlns:inkscape="http://www.inkscape.org/namespaces/inkscape">
 <g id="layerA-COLUMN" inkscape:groupmode="layer" inkscape:label="A-COLUMN">
  <path d="M 3.4600000000000364,73.74123250000002 L 10.460000000000036,73.74123250000002" fill="none" stroke="rgb(178,0,0)" stroke-width="0.1"/>
  <path d="M 10.460000000000036,73.74123250000002 L 10.460000000000036,66.74123250000002" fill="none" stroke="rgb(178,0,0)" stroke-width="0.1"/>
  <path d="M 10.460000000000036,66.74123250000002 L 3.4600000000000364,66.74123250000002" fill="none" stroke="rgb(178,0,0)" stroke-width="0.1"/>
  <path d="M 3.4600000000000364,66.74123250000002 L 3.4600000000000364,73.74123250000002" fill="none" stroke="rgb(178,0,0)" stroke-width="0.1"/>
  <path d="M 99.46000000000004,73.74123250000002 L 100.0,73.74123250000002" fill="none" stroke="rgb(178,0,0)" stroke-width="0.1"/>
  <path d="M 100.0,66.74123250000002 L 99.46000000000004,66.74123250000002" fill="none" stroke="rgb(178,0,0)" stroke-width="0.1"/>
  <path d="M 99.46000000000004,66.74123250000002 L 99.46000000000004,73.74123250000002" fill="none" stroke="rgb(178,0,0)" stroke-width="0.1"/>
 </g>
 <g id="layerA-DIM_ELEV" inkscape:groupmode="layer" inkscape:label="A-DIM_ELEV">
  <path d="M 58.49600000000004,32.021232499999996 L 55.49600000000004,29.021232499999996" fill="none" stroke="rgb(0,178,0)" stroke-width="0.1"/>
  <path d="M 58.49600000000004,32.021232499999996 L 61.49600000000004,29.021232499999996" fill="none" stroke="rgb(0,178,0)" stroke-width="0.1"/>
  <path d="M 55.49600000000004,29.021232499999996 L 71.14600000000002,29.021232499999996" fill="none" stroke="rgb(0,178,0)" stroke-width="0.1"/>
 </g>
 <g id="layerA-DIM_LEAD" inkscape:groupmode="layer" inkscape:label="A-DIM_LEAD">
  <path d="M 0.0,55.70823250000001 L 17.40700000000004,55.70823250000001" fill="none" stroke="rgb(0,178,0)" stroke-width="0.1"/>
 </g>
 <g id="layerA-DOOR" inkscape:groupmode="layer" inkscape:label="A-DOOR">
  <path d="M 10.460000000000036,71.24123250000002 L 99.46000000000004,71.24123250000002" fill="none" stroke="rgb(53,133,160)" stroke-width="0.1"/>
 </g>
 <g id="layerA-DOTE" inkscape:groupmode="layer" inkscape:label="A-DOTE">
  <path d="M 6.960000000000036,0.0 L 6.960000000000036,100.0" fill="none" stroke="rgb(107,0,0)" stroke-width="0.1"/>
  <path d="M 0.0,71.24123250000002 L 100.0,71.24123250000002" fill="none" stroke="rgb(107,0,0)" stroke-width="0.1"/>
 </g>
 <g id="layerA-PKNG-TSRP" inkscape:groupmode="layer" inkscape:label="A-PKNG-TSRP">
  <path d="M 100.0,40.741232500000024 L 87.96000000000004,40.741232500000024" fill="none" instance-id="-1" semantic-id="35" stroke="rgb(44,88,77)" stroke-width="0.1"/>
  <path d="M 87.96000000000004,40.741232500000024 L 87.96000000000004,64.74123250000002" fill="none" instance-id="-1" semantic-id="35" stroke="rgb(44,88,77)" stroke-width="0.1"/>
  <path d="M 87.96000000000004,64.74123250000002 L 100.0,64.74123250000002" fill="none" instance-id="-1" semantic-id="35" stroke="rgb(44,88,77)" stroke-width="0.1"/>
  <path d="M 0.0,40.741232500000024 L 29.160000000000025,40.741232500000024" fill="none" instance-id="-1" semantic-id="35" stroke="rgb(44,88,77)" stroke-width="0.1"/>
  <path d="M 29.160000000000025,40.741232500000024 L 29.160000000000025,64.74123250000002" fill="none" instance-id="-1" semantic-id="35" stroke="rgb(44,88,77)" stroke-width="0.1"/>
  <path d="M 29.160000000000025,64.74123250000002 L 0.0,64.74123250000002" fill="none" instance-id="-1" semantic-id="35" stroke="rgb(44,88,77)" stroke-width="0.1"/>
 </g>
 <g id="layerA-PUB_TEXT" inkscape:groupmode="layer" inkscape:label="A-PUB_TEXT">
  <text fill="rgb(0,0,0)" font-family="Noto Sans CJK SC" font-size="2" transform="rotate(-0.0,63.146000000000015,27.971232499999985)" x="63.146000000000015" y="27.971232499999985">
   -9.900
  </text>
  <text fill="rgb(0,0,0)" font-family="Noto Sans CJK SC" font-size="2" transform="rotate(-0.0,56.668000000000006,21.899232499999982)" x="56.668000000000006" y="21.899232499999982">
   地下车库
  </text>
 </g>
 <g id="layerA-WINDOW_TEXT" inkscape:groupmode="layer" inkscape:label="A-WINDOW_TEXT">
  <text fill="rgb(0,0,0)" font-family="Noto Sans CJK SC" font-size="2" transform="rotate(-0.0,50.375,76.47823249999999)" x="50.375" y="76.47823249999999">
   FJM8939
  </text>
 </g>
 <g id="layerPUB_HATCH" inkscape:groupmode="layer" inkscape:label="PUB_HATCH">
  <path d="M 10.460000000000036,66.74123250000002 L 0.0,66.74123250000002" fill="none" instance-id="-1" semantic-id="1" stroke="rgb(89,89,89)" stroke-width="0.1"/>
  <path d="M 0.0,69.24123250000002 L 10.460000000000036,69.24123250000002" fill="none" instance-id="-1" semantic-id="1" stroke="rgb(89,89,89)" stroke-width="0.1"/>
  <path d="M 10.460000000000036,69.24123250000002 L 10.460000000000036,66.74123250000002" fill="none" instance-id="-1" semantic-id="1" stroke="rgb(89,89,89)" stroke-width="0.1"/>
  <path d="M 100.0,66.74123250000002 L 99.46000000000004,66.74123250000002" fill="none" instance-id="-1" semantic-id="1" stroke="rgb(89,89,89)" stroke-width="0.1"/>
  <path d="M 99.46000000000004,66.74123250000002 L 99.46000000000004,69.24123250000002" fill="none" instance-id="-1" semantic-id="1" stroke="rgb(89,89,89)" stroke-width="0.1"/>
  <path d="M 99.46000000000004,69.24123250000002 L 100.0,69.24123250000002" fill="none" instance-id="-1" semantic-id="1" stroke="rgb(89,89,89)" stroke-width="0.1"/>
 </g>
 <g id="layerPUB_WALL" inkscape:groupmode="layer" inkscape:label="PUB_WALL">
  <path d="M 10.460000000000036,66.74123250000002 L 0.0,66.74123250000002" fill="none" instance-id="-1" semantic-id="1" stroke="rgb(134,134,134)" stroke-width="0.1"/>
  <path d="M 0.0,67.1412325 L 10.460000000000036,67.1412325" fill="none" instance-id="-1" semantic-id="1" stroke="rgb(134,134,134)" stroke-width="0.1"/>
  <path d="M 10.460000000000036,67.1412325 L 10.460000000000036,66.74123250000002" fill="none" instance-id="-1" semantic-id="1" stroke="rgb(134,134,134)" stroke-width="0.1"/>
  <path d="M 10.460000000000036,68.84123249999999 L 0.0,68.84123249999999" fill="none" instance-id="-1" semantic-id="1" stroke="rgb(134,134,134)" stroke-width="0.1"/>
  <path d="M 0.0,69.24123250000002 L 10.460000000000036,69.24123250000002" fill="none" instance-id="-1" semantic-id="1" stroke="rgb(134,134,134)" stroke-width="0.1"/>
  <path d="M 10.460000000000036,69.24123250000002 L 10.460000000000036,68.84123249999999" fill="none" instance-id="-1" semantic-id="1" stroke="rgb(134,134,134)" stroke-width="0.1"/>
  <path d="M 100.0,66.74123250000002 L 99.46000000000004,66.74123250000002" fill="none" instance-id="-1" semantic-id="1" stroke="rgb(134,134,134)" stroke-width="0.1"/>
  <path d="M 99.46000000000004,66.74123250000002 L 99.46000000000004,67.1412325" fill="none" instance-id="-1" semantic-id="1" stroke="rgb(134,134,134)" stroke-width="0.1"/>
  <path d="M 99.46000000000004,67.1412325 L 100.0,67.1412325" fill="none" instance-id="-1" semantic-id="1" stroke="rgb(134,134,134)" stroke-width="0.1"/>
  <path d="M 100.0,68.84123249999999 L 99.46000000000004,68.84123249999999" fill="none" instance-id="-1" semantic-id="1" stroke="rgb(134,134,134)" stroke-width="0.1"/>
  <path d="M 99.46000000000004,68.84123249999999 L 99.46000000000004,69.24123250000002" fill="none" instance-id="-1" semantic-id="1" stroke="rgb(134,134,134)" stroke-width="0.1"/>
  <path d="M 99.46000000000004,69.24123250000002 L 100.0,69.24123250000002" fill="none" instance-id="-1" semantic-id="1" stroke="rgb(134,134,134)" stroke-width="0.1"/>
  <path d="M 29.560000000000002,66.74123250000002 L 29.560000000000002,69.24123250000002" fill="none" instance-id="-1" semantic-id="1" stroke="rgb(134,134,134)" stroke-width="0.1"/>
  <path d="M 29.560000000000002,69.24123250000002 L 29.960000000000036,69.24123250000002" fill="none" instance-id="-1" semantic-id="1" stroke="rgb(134,134,134)" stroke-width="0.1"/>
  <path d="M 29.960000000000036,69.24123250000002 L 29.960000000000036,66.74123250000002" fill="none" instance-id="-1" semantic-id="1" stroke="rgb(134,134,134)" stroke-width="0.1"/>
  <path d="M 29.960000000000036,66.74123250000002 L 29.560000000000002,66.74123250000002" fill="none" instance-id="-1" semantic-id="1" stroke="rgb(134,134,134)" stroke-width="0.1"/>
  <path d="M 84.96000000000004,66.74123250000002 L 84.96000000000004,69.24123250000002" fill="none" instance-id="-1" semantic-id="1" stroke="rgb(134,134,134)" stroke-width="0.1"/>
  <path d="M 84.96000000000004,69.24123250000002 L 85.36000000000001,69.24123250000002" fill="none" instance-id="-1" semantic-id="1" stroke="rgb(134,134,134)" stroke-width="0.1"/>
  <path d="M 85.36000000000001,69.24123250000002 L 85.36000000000001,66.74123250000002" fill="none" instance-id="-1" semantic-id="1" stroke="rgb(134,134,134)" stroke-width="0.1"/>
  <path d="M 85.36000000000001,66.74123250000002 L 84.96000000000004,66.74123250000002" fill="none" instance-id="-1" semantic-id="1" stroke="rgb(134,134,134)" stroke-width="0.1"/>
  <path d="M 3.4600000000000364,73.74123250000002 L 10.460000000000036,73.74123250000002" fill="none" instance-id="-1" semantic-id="1" stroke="rgb(134,134,134)" stroke-width="0.1"/>
  <path d="M 10.460000000000036,73.74123250000002 L 10.060000000000002,73.34123249999999" fill="none" instance-id="-1" semantic-id="1" stroke="rgb(134,134,134)" stroke-width="0.1"/>
  <path d="M 10.060000000000002,73.34123249999999 L 3.8600000000000136,73.34123249999999" fill="none" instance-id="-1" semantic-id="1" stroke="rgb(134,134,134)" stroke-width="0.1"/>
  <path d="M 3.8600000000000136,73.34123249999999 L 3.4600000000000364,73.74123250000002" fill="none" instance-id="-1" semantic-id="1" stroke="rgb(134,134,134)" stroke-width="0.1"/>
  <path d="M 10.460000000000036,73.74123250000002 L 10.460000000000036,66.74123250000002" fill="none" instance-id="-1" semantic-id="1" stroke="rgb(134,134,134)" stroke-width="0.1"/>
  <path d="M 10.460000000000036,66.74123250000002 L 10.060000000000002,67.1412325" fill="none" instance-id="-1" semantic-id="1" stroke="rgb(134,134,134)" stroke-width="0.1"/>
  <path d="M 10.060000000000002,67.1412325 L 10.060000000000002,73.34123249999999" fill="none" instance-id="-1" semantic-id="1" stroke="rgb(134,134,134)" stroke-width="0.1"/>
  <path d="M 10.060000000000002,73.34123249999999 L 10.460000000000036,73.74123250000002" fill="none" instance-id="-1" semantic-id="1" stroke="rgb(134,134,134)" stroke-width="0.1"/>
  <path d="M 3.4600000000000364,66.74123250000002 L 3.8600000000000136,67.1412325" fill="none" instance-id="-1" semantic-id="1" stroke="rgb(134,134,134)" stroke-width="0.1"/>
  <path d="M 3.8600000000000136,67.1412325 L 10.060000000000002,67.1412325" fill="none" instance-id="-1" semantic-id="1" stroke="rgb(134,134,134)" stroke-width="0.1"/>
  <path d="M 10.060000000000002,67.1412325 L 10.460000000000036,66.74123250000002" fill="none" instance-id="-1" semantic-id="1" stroke="rgb(134,134,134)" stroke-width="0.1"/>
  <path d="M 10.460000000000036,66.74123250000002 L 3.4600000000000364,66.74123250000002" fill="none" instance-id="-1" semantic-id="1" stroke="rgb(134,134,134)" stroke-width="0.1"/>
  <path d="M 3.4600000000000364,66.74123250000002 L 3.4600000000000364,73.74123250000002" fill="none" instance-id="-1" semantic-id="1" stroke="rgb(134,134,134)" stroke-width="0.1"/>
  <path d="M 3.4600000000000364,73.74123250000002 L 3.8600000000000136,73.34123249999999" fill="none" instance-id="-1" semantic-id="1" stroke="rgb(134,134,134)" stroke-width="0.1"/>
  <path d="M 3.8600000000000136,73.34123249999999 L 3.8600000000000136,67.1412325" fill="none" instance-id="-1" semantic-id="1" stroke="rgb(134,134,134)" stroke-width="0.1"/>
  <path d="M 3.8600000000000136,67.1412325 L 3.4600000000000364,66.74123250000002" fill="none" instance-id="-1" semantic-id="1" stroke="rgb(134,134,134)" stroke-width="0.1"/>
  <path d="M 99.46000000000004,73.74123250000002 L 100.0,73.74123250000002" fill="none" instance-id="-1" semantic-id="1" stroke="rgb(134,134,134)" stroke-width="0.1"/>
  <path d="M 100.0,73.34123249999999 L 99.86000000000001,73.34123249999999" fill="none" instance-id="-1" semantic-id="1" stroke="rgb(134,134,134)" stroke-width="0.1"/>
  <path d="M 99.86000000000001,73.34123249999999 L 99.46000000000004,73.74123250000002" fill="none" instance-id="-1" semantic-id="1" stroke="rgb(134,134,134)" stroke-width="0.1"/>
  <path d="M 99.46000000000004,66.74123250000002 L 99.86000000000001,67.1412325" fill="none" instance-id="-1" semantic-id="1" stroke="rgb(134,134,134)" stroke-width="0.1"/>
  <path d="M 99.86000000000001,67.1412325 L 100.0,67.1412325" fill="none" instance-id="-1" semantic-id="1" stroke="rgb(134,134,134)" stroke-width="0.1"/>
  <path d="M 100.0,66.74123250000002 L 99.46000000000004,66.74123250000002" fill="none" instance-id="-1" semantic-id="1" stroke="rgb(134,134,134)" stroke-width="0.1"/>
  <path d="M 99.46000000000004,66.74123250000002 L 99.46000000000004,73.74123250000002" fill="none" instance-id="-1" semantic-id="1" stroke="rgb(134,134,134)" stroke-width="0.1"/>
  <path d="M 99.46000000000004,73.74123250000002 L 99.86000000000001,73.34123249999999" fill="none" instance-id="-1" semantic-id="1" stroke="rgb(134,134,134)" stroke-width="0.1"/>
  <path d="M 99.86000000000001,73.34123249999999 L 99.86000000000001,67.1412325" fill="none" instance-id="-1" semantic-id="1" stroke="rgb(134,134,134)" stroke-width="0.1"/>
  <path d="M 99.86000000000001,67.1412325 L 99.46000000000004,66.74123250000002" fill="none" instance-id="-1" semantic-id="1" stroke="rgb(134,134,134)" stroke-width="0.1"/>
 </g>
 <g id="layerWINDOW" inkscape:groupmode="layer" inkscape:label="WINDOW">
  <path d="M 29.960000000000036,65.24123250000002 L 53.77600000000001,51.491232500000024" fill="none" stroke="rgb(53,133,160)" stroke-width="0.1"/>
  <path d="M 84.96000000000004,65.24123250000002 L 61.144000000000005,51.491232500000024" fill="none" stroke="rgb(53,133,160)" stroke-width="0.1"/>
 </g>
 <g id="layerWINDOW_TEXT" inkscape:groupmode="layer" inkscape:label="WINDOW_TEXT">
  <text fill="rgb(0,0,0)" font-family="Noto Sans CJK SC" font-size="2" transform="rotate(-1.08457e-12,57.05000000000001,80.58423249999998)" x="57.05000000000001" y="80.58423249999998">
   GHSFM5530(6)
  </text>
 </g>
 <g id="layer人防墙" inkscape:groupmode="layer" inkscape:label="人防墙">
  <path d="M 0.0,66.74123250000002 L 10.460000000000036,66.74123250000002" fill="none" instance-id="-1" semantic-id="1" stroke="rgb(160,53,79)" stroke-width="0.1"/>
  <path d="M 0.0,69.24123250000002 L 10.460000000000036,69.24123250000002" fill="none" instance-id="-1" semantic-id="1" stroke="rgb(160,53,79)" stroke-width="0.1"/>
  <path d="M 99.46000000000004,66.74123250000002 L 100.0,66.74123250000002" fill="none" instance-id="-1" semantic-id="1" stroke="rgb(160,53,79)" stroke-width="0.1"/>
  <path d="M 99.46000000000004,69.24123250000002 L 100.0,69.24123250000002" fill="none" instance-id="-1" semantic-id="1" stroke="rgb(160,53,79)" stroke-width="0.1"/>
  <path d="M 29.960000000000036,66.74123250000002 L 29.960000000000036,69.24123250000002" fill="none" instance-id="-1" semantic-id="1" stroke="rgb(160,53,79)" stroke-width="0.1"/>
  <path d="M 84.96000000000004,66.74123250000002 L 84.96000000000004,69.24123250000002" fill="none" instance-id="-1" semantic-id="1" stroke="rgb(160,53,79)" stroke-width="0.1"/>
  <path d="M 10.460000000000036,69.74123250000002 L 29.960000000000036,69.74123250000002" fill="none" instance-id="-1" semantic-id="1" stroke="rgb(160,53,79)" stroke-width="0.1"/>
  <path d="M 29.960000000000036,69.74123250000002 L 29.960000000000036,66.74123250000002" fill="none" instance-id="-1" semantic-id="1" stroke="rgb(160,53,79)" stroke-width="0.1"/>
  <path d="M 29.960000000000036,66.74123250000002 L 10.460000000000036,66.74123250000002" fill="none" instance-id="-1" semantic-id="1" stroke="rgb(160,53,79)" stroke-width="0.1"/>
  <path d="M 10.460000000000036,66.74123250000002 L 10.460000000000036,69.74123250000002" fill="none" instance-id="-1" semantic-id="1" stroke="rgb(160,53,79)" stroke-width="0.1"/>
  <path d="M 84.96000000000004,69.74123250000002 L 99.46000000000004,69.74123250000002" fill="none" instance-id="-1" semantic-id="1" stroke="rgb(160,53,79)" stroke-width="0.1"/>
  <path d="M 99.46000000000004,69.74123250000002 L 99.46000000000004,66.74123250000002" fill="none" instance-id="-1" semantic-id="1" stroke="rgb(160,53,79)" stroke-width="0.1"/>
  <path d="M 99.46000000000004,66.74123250000002 L 84.96000000000004,66.74123250000002" fill="none" instance-id="-1" semantic-id="1" stroke="rgb(160,53,79)" stroke-width="0.1"/>
  <path d="M 84.96000000000004,66.74123250000002 L 84.96000000000004,69.74123250000002" fill="none" instance-id="-1" semantic-id="1" stroke="rgb(160,53,79)" stroke-width="0.1"/>
 </g>
 <g id="layer洁具" inkscape:groupmode="layer" inkscape:label="洁具">
  <path d="M 58.685,0.0 L 58.685,100.0" fill="none" stroke="rgb(44,44,88)" stroke-width="0.1"/>
  <path d="M 0.0,13.241232500000024 L 100.0,13.241232500000024" fill="none" stroke="rgb(44,44,88)" stroke-width="0.1"/>
  <path d="M 58.685,73.24123250000002 L 58.682905681236434,72.73992035626384" fill="none" stroke="rgb(44,44,88)" stroke-width="0.1"/>
  <path d="M 58.682905681236434,72.73992035626384 L 58.67662287115144,72.23864320944199" fill="none" stroke="rgb(44,44,88)" stroke-width="0.1"/>
  <path d="M 58.67662287115144,72.23864320944199 L 58.6661520083519,71.73743605400551" fill="none" stroke="rgb(44,44,88)" stroke-width="0.1"/>
  <path d="M 58.6661520083519,71.73743605400551 L 58.65149382381526,71.23633387953953" fill="none" stroke="rgb(44,44,88)" stroke-width="0.1"/>
  <path d="M 58.65149382381526,71.23633387953953 L 58.63264934083867,70.73537166830022" fill="none" stroke="rgb(44,44,88)" stroke-width="0.1"/>
  <path d="M 58.63264934083867,70.73537166830022 L 58.609619874967166,70.23458439277289" fill="none" stroke="rgb(44,44,88)" stroke-width="0.1"/>
  <path d="M 58.609619874967166,70.23458439277289 L 58.5824070339022,69.73400701323038" fill="none" stroke="rgb(44,44,88)" stroke-width="0.1"/>
  <path d="M 58.5824070339022,69.73400701323038 L 58.5510127173892,69.23367447529273" fill="none" stroke="rgb(44,44,88)" stroke-width="0.1"/>
  <path d="M 58.5510127173892,69.23367447529273 L 58.515439117085066,68.73362170748732" fill="none" stroke="rgb(44,44,88)" stroke-width="0.1"/>
  <path d="M 58.515439117085066,68.73362170748732 L 58.4756887164051,68.23388361881064" fill="none" stroke="rgb(44,44,88)" stroke-width="0.1"/>
  <path d="M 58.4756887164051,68.23388361881064 L 58.43176429034958,67.7344950962912" fill="none" stroke="rgb(44,44,88)" stroke-width="0.1"/>
  <path d="M 58.43176429034958,67.7344950962912 L 58.38366890531023,67.23549100255411" fill="none" stroke="rgb(44,44,88)" stroke-width="0.1"/>
  <path d="M 58.38366890531023,67.23549100255411 L 58.33140591885592,66.7369061733873" fill="none" stroke="rgb(44,44,88)" stroke-width="0.1"/>
  <path d="M 58.33140591885592,66.7369061733873 L 58.27497897949843,66.23877541530948" fill="none" stroke="rgb(44,44,88)" stroke-width="0.1"/>
  <path d="M 58.27497897949843,66.23877541530948 L 58.214392026437736,65.74113350314042" fill="none" stroke="rgb(44,44,88)" stroke-width="0.1"/>
  <path d="M 58.214392026437736,65.74113350314042 L 58.1496492892868,65.24401517757332" fill="none" stroke="rgb(44,44,88)" stroke-width="0.1"/>
  <path d="M 58.1496492892868,65.24401517757332 L 58.0807552877767,64.74745514274935" fill="none" stroke="rgb(44,44,88)" stroke-width="0.1"/>
  <path d="M 58.0807552877767,64.74745514274935 L 58.00771483144075,64.25148806383515" fill="none" stroke="rgb(44,44,88)" stroke-width="0.1"/>
  <path d="M 58.00771483144075,64.25148806383515 L 57.930533019278926,63.756148564602654" fill="none" stroke="rgb(44,44,88)" stroke-width="0.1"/>
  <path d="M 57.930533019278926,63.756148564602654 L 57.8492152394017,63.2614712250122" fill="none" stroke="rgb(44,44,88)" stroke-width="0.1"/>
  <path d="M 57.8492152394017,63.2614712250122 L 57.76376716865428,62.76749057879823" fill="none" stroke="rgb(44,44,88)" stroke-width="0.1"/>
  <path d="M 57.76376716865428,62.76749057879823 L 57.674194772219835,62.274241111058586" fill="none" stroke="rgb(44,44,88)" stroke-width="0.1"/>
  <path d="M 57.674194772219835,62.274241111058586 L 57.580504303203384,61.78175725584714" fill="none" stroke="rgb(44,44,88)" stroke-width="0.1"/>
  <path d="M 57.580504303203384,61.78175725584714 L 57.48270230219521,61.29007339376989" fill="none" stroke="rgb(44,44,88)" stroke-width="0.1"/>
  <path d="M 57.48270230219521,61.29007339376989 L 57.38079559681415,60.79922384958462" fill="none" stroke="rgb(44,44,88)" stroke-width="0.1"/>
  <path d="M 57.38079559681415,60.79922384958462 L 57.27479130123106,60.309242889805205" fill="none" stroke="rgb(44,44,88)" stroke-width="0.1"/>
  <path d="M 57.27479130123106,60.309242889805205 L 57.16469681567213,59.82016472030881" fill="none" stroke="rgb(44,44,88)" stroke-width="0.1"/>
  <path d="M 57.16469681567213,59.82016472030881 L 57.050519825902256,59.33202348394832" fill="none" stroke="rgb(44,44,88)" stroke-width="0.1"/>
  <path d="M 57.050519825902256,59.33202348394832 L 56.93226830268844,58.844853258168826" fill="none" stroke="rgb(44,44,88)" stroke-width="0.1"/>
  <path d="M 56.93226830268844,58.844853258168826 L 56.80995050124352,58.35868805262845" fill="none" stroke="rgb(44,44,88)" stroke-width="0.1"/>
  <path d="M 56.80995050124352,58.35868805262845 L 56.683574960649764,57.87356180682423" fill="none" stroke="rgb(44,44,88)" stroke-width="0.1"/>
  <path d="M 56.683574960649764,57.87356180682423 L 56.5531505032626,57.389508387722856" fill="none" stroke="rgb(44,44,88)" stroke-width="0.1"/>
  <path d="M 56.5531505032626,57.389508387722856 L 56.41868623409505,56.906561587396254" fill="none" stroke="rgb(44,44,88)" stroke-width="0.1"/>
  <path d="M 56.41868623409505,56.906561587396254 L 56.280191540181875,56.42475512066267" fill="none" stroke="rgb(44,44,88)" stroke-width="0.1"/>
  <path d="M 56.280191540181875,56.42475512066267 L 56.137676089924184,55.94412262273278" fill="none" stroke="rgb(44,44,88)" stroke-width="0.1"/>
  <path d="M 56.137676089924184,55.94412262273278 L 55.99114983241475,55.464697646861964" fill="none" stroke="rgb(44,44,88)" stroke-width="0.1"/>
  <path d="M 55.99114983241475,55.464697646861964 L 55.840622996743264,54.98651366200767" fill="none" stroke="rgb(44,44,88)" stroke-width="0.1"/>
  <path d="M 55.840622996743264,54.98651366200767 L 55.68610609128223,54.50960405049284" fill="none" stroke="rgb(44,44,88)" stroke-width="0.1"/>
  <path d="M 55.68610609128223,54.50960405049284 L 55.52760990295354,54.034002105675825" fill="none" stroke="rgb(44,44,88)" stroke-width="0.1"/>
  <path d="M 55.52760990295354,54.034002105675825 L 55.36514549647512,53.559741029625854" fill="none" stroke="rgb(44,44,88)" stroke-width="0.1"/>
  <path d="M 55.36514549647512,53.559741029625854 L 55.19872421358889,53.08685393080532" fill="none" stroke="rgb(44,44,88)" stroke-width="0.1"/>
  <path d="M 55.19872421358889,53.08685393080532 L 55.02835767226867,52.615373821758226" fill="none" stroke="rgb(44,44,88)" stroke-width="0.1"/>
  <path d="M 55.02835767226867,52.615373821758226 L 54.85405776590926,52.145333616806" fill="none" stroke="rgb(44,44,88)" stroke-width="0.1"/>
  <path d="M 54.85405776590926,52.145333616806 L 54.675836662496124,51.67676612974924" fill="none" stroke="rgb(44,44,88)" stroke-width="0.1"/>
  <path d="M 54.675836662496124,51.67676612974924 L 54.49370680375603,51.20970407157739" fill="none" stroke="rgb(44,44,88)" stroke-width="0.1"/>
  <path d="M 54.49370680375603,51.20970407157739 L 54.30768090428825,50.744180048184774" fill="none" stroke="rgb(44,44,88)" stroke-width="0.1"/>
  <path d="M 54.30768090428825,50.744180048184774 L 54.117771950677195,50.280226558094625" fill="none" stroke="rgb(44,44,88)" stroke-width="0.1"/>
  <path d="M 54.117771950677195,50.280226558094625 L 53.9239932005857,49.817875990190316" fill="none" stroke="rgb(44,44,88)" stroke-width="0.1"/>
  <path d="M 53.9239932005857,49.817875990190316 L 53.72635818182954,49.35716062145417" fill="none" stroke="rgb(44,44,88)" stroke-width="0.1"/>
  <path d="M 53.72635818182954,49.35716062145417 L 53.52488069143294,48.898112614714194" fill="none" stroke="rgb(44,44,88)" stroke-width="0.1"/>
  <path d="M 53.52488069143294,48.898112614714194 L 53.319574794665584,48.44076401639887" fill="none" stroke="rgb(44,44,88)" stroke-width="0.1"/>
  <path d="M 53.319574794665584,48.44076401639887 L 53.11045482406047,47.98514675429993" fill="none" stroke="rgb(44,44,88)" stroke-width="0.1"/>
  <path d="M 53.11045482406047,47.98514675429993 L 52.89753537841352,47.531292635343334" fill="none" stroke="rgb(44,44,88)" stroke-width="0.1"/>
  <path d="M 52.89753537841352,47.531292635343334 L 52.68083132176446,47.07923334336908" fill="none" stroke="rgb(44,44,88)" stroke-width="0.1"/>
  <path d="M 52.68083132176446,47.07923334336908 L 52.46035778235904,46.629000436919" fill="none" stroke="rgb(44,44,88)" stroke-width="0.1"/>
  <path d="M 52.46035778235904,46.629000436919 L 52.236130151592874,46.180625347033924" fill="none" stroke="rgb(44,44,88)" stroke-width="0.1"/>
  <path d="M 52.236130151592874,46.180625347033924 L 52.008164082937185,45.73413937505933" fill="none" stroke="rgb(44,44,88)" stroke-width="0.1"/>
  <path d="M 52.008164082937185,45.73413937505933 L 51.77647549084571,45.289573690460145" fill="none" stroke="rgb(44,44,88)" stroke-width="0.1"/>
  <path d="M 51.77647549084571,45.289573690460145 L 51.54108054964405,44.846959328644914" fill="none" stroke="rgb(44,44,88)" stroke-width="0.1"/>
  <path d="M 51.54108054964405,44.846959328644914 L 51.30199569240028,44.406327188799025" fill="none" stroke="rgb(44,44,88)" stroke-width="0.1"/>
  <path d="M 51.30199569240028,44.406327188799025 L 51.059237609777824,43.96770803172774" fill="none" stroke="rgb(44,44,88)" stroke-width="0.1"/>
  <path d="M 51.059237609777824,43.96770803172774 L 50.81282324887019,43.53113247770881" fill="none" stroke="rgb(44,44,88)" stroke-width="0.1"/>
  <path d="M 50.81282324887019,43.53113247770881 L 50.562769812018075,43.09663100435466" fill="none" stroke="rgb(44,44,88)" stroke-width="0.1"/>
  <path d="M 50.562769812018075,43.09663100435466 L 50.309094755608385,42.66423394448498" fill="none" stroke="rgb(44,44,88)" stroke-width="0.1"/>
  <path d="M 50.309094755608385,42.66423394448498 L 50.05181578885532,42.23397148400886" fill="none" stroke="rgb(44,44,88)" stroke-width="0.1"/>
  <path d="M 50.05181578885532,42.23397148400886 L 49.790950872564565,41.805873659817905" fill="none" stroke="rgb(44,44,88)" stroke-width="0.1"/>
  <path d="M 49.790950872564565,41.805873659817905 L 49.52651821787907,41.379970357688876" fill="none" stroke="rgb(44,44,88)" stroke-width="0.1"/>
  <path d="M 49.52651821787907,41.379970357688876 L 49.258536285007835,40.956291310197685" fill="none" stroke="rgb(44,44,88)" stroke-width="0.1"/>
  <path d="M 49.258536285007835,40.956291310197685 L 48.98702378193718,40.53486609464363" fill="none" stroke="rgb(44,44,88)" stroke-width="0.1"/>
  <path d="M 48.98702378193718,40.53486609464363 L 48.7119996631248,40.11572413098463" fill="none" stroke="rgb(44,44,88)" stroke-width="0.1"/>
  <path d="M 48.7119996631248,40.11572413098463 L 48.433483128176476,39.69889467978328" fill="none" stroke="rgb(44,44,88)" stroke-width="0.1"/>
  <path d="M 48.433483128176476,39.69889467978328 L 48.15149362050562,39.28440684016431" fill="none" stroke="rgb(44,44,88)" stroke-width="0.1"/>
  <path d="M 48.15149362050562,39.28440684016431 L 47.866050825976174,38.872289547783055" fill="none" stroke="rgb(44,44,88)" stroke-width="0.1"/>
  <path d="M 47.866050825976174,38.872289547783055 L 47.57717467152821,38.46257157280536" fill="none" stroke="rgb(44,44,88)" stroke-width="0.1"/>
  <path d="M 47.57717467152821,38.46257157280536 L 47.28488532378668,38.05528151789946" fill="none" stroke="rgb(44,44,88)" stroke-width="0.1"/>
  <path d="M 47.28488532378668,38.05528151789946 L 46.9892031876538,37.65044781623874" fill="none" stroke="rgb(44,44,88)" stroke-width="0.1"/>
  <path d="M 46.9892031876538,37.65044781623874 L 46.69014890488438,37.248098729517096" fill="none" stroke="rgb(44,44,88)" stroke-width="0.1"/>
  <path d="M 46.69014890488438,37.248098729517096 L 46.387743352644975,36.84826234597597" fill="none" stroke="rgb(44,44,88)" stroke-width="0.1"/>
  <path d="M 46.387743352644975,36.84826234597597 L 46.08200764205634,36.4509665784434" fill="none" stroke="rgb(44,44,88)" stroke-width="0.1"/>
  <path d="M 46.08200764205634,36.4509665784434 L 45.772963116719666,36.05623916238534" fill="none" stroke="rgb(44,44,88)" stroke-width="0.1"/>
  <path d="M 45.772963116719666,36.05623916238534 L 45.46063135122654,35.66410765396961" fill="none" stroke="rgb(44,44,88)" stroke-width="0.1"/>
  <path d="M 45.46063135122654,35.66410765396961 L 45.145034149652815,35.274599428142096" fill="none" stroke="rgb(44,44,88)" stroke-width="0.1"/>
  <path d="M 45.145034149652815,35.274599428142096 L 44.826193544036585,34.88774167671568" fill="none" stroke="rgb(44,44,88)" stroke-width="0.1"/>
  <path d="M 44.826193544036585,34.88774167671568 L 44.50413179283993,34.503561406471874" fill="none" stroke="rgb(44,44,88)" stroke-width="0.1"/>
  <path d="M 44.50413179283993,34.503561406471874 L 44.178871379395105,34.1220854372757" fill="none" stroke="rgb(44,44,88)" stroke-width="0.1"/>
  <path d="M 44.178871379395105,34.1220854372757 L 43.850435010335104,33.743340400203124" fill="none" stroke="rgb(44,44,88)" stroke-width="0.1"/>
  <path d="M 43.850435010335104,33.743340400203124 L 43.51884561400817,33.36735273568212" fill="none" stroke="rgb(44,44,88)" stroke-width="0.1"/>
  <path d="M 43.51884561400817,33.36735273568212 L 43.184126338877434,32.994148691646615" fill="none" stroke="rgb(44,44,88)" stroke-width="0.1"/>
  <path d="M 43.184126338877434,32.994148691646615 L 42.84630055190496,32.62375432170444" fill="none" stroke="rgb(44,44,88)" stroke-width="0.1"/>
  <path d="M 42.84630055190496,32.62375432170444 L 42.50539183692018,32.25619548331821" fill="none" stroke="rgb(44,44,88)" stroke-width="0.1"/>
  <path d="M 42.50539183692018,32.25619548331821 L 42.16142399297365,31.89149783600027" fill="none" stroke="rgb(44,44,88)" stroke-width="0.1"/>
  <path d="M 42.16142399297365,31.89149783600027 L 41.81442103267574,31.529686839521503" fill="none" stroke="rgb(44,44,88)" stroke-width="0.1"/>
  <path d="M 41.81442103267574,31.529686839521503 L 41.4644071805202,31.17078775213389" fill="none" stroke="rgb(44,44,88)" stroke-width="0.1"/>
  <path d="M 41.4644071805202,31.17078775213389 L 41.111406871192855,30.81482562880717" fill="none" stroke="rgb(44,44,88)" stroke-width="0.1"/>
  <path d="M 41.111406871192855,30.81482562880717 L 40.755444747866136,30.46182531947983" fill="none" stroke="rgb(44,44,88)" stroke-width="0.1"/>
  <path d="M 40.755444747866136,30.46182531947983 L 40.39654566047852,30.111811467324287" fill="none" stroke="rgb(44,44,88)" stroke-width="0.1"/>
  <path d="M 40.39654566047852,30.111811467324287 L 40.03473466399976,29.764808507026373" fill="none" stroke="rgb(44,44,88)" stroke-width="0.1"/>
  <path d="M 40.03473466399976,29.764808507026373 L 39.670037016681874,29.4208406630799" fill="none" stroke="rgb(44,44,88)" stroke-width="0.1"/>
  <path d="M 39.670037016681874,29.4208406630799 L 39.30247817829559,29.079931948095066" fill="none" stroke="rgb(44,44,88)" stroke-width="0.1"/>
  <path d="M 39.30247817829559,29.079931948095066 L 38.93208380835341,28.742106161122592" fill="none" stroke="rgb(44,44,88)" stroke-width="0.1"/>
  <path d="M 38.93208380835341,28.742106161122592 L 38.55887976431791,28.40738688599191" fill="none" stroke="rgb(44,44,88)" stroke-width="0.1"/>
  <path d="M 38.55887976431791,28.40738688599191 L 38.1828920997969,28.07579748966492" fill="none" stroke="rgb(44,44,88)" stroke-width="0.1"/>
  <path d="M 38.1828920997969,28.07579748966492 L 37.804147062724326,27.74736112060492" fill="none" stroke="rgb(44,44,88)" stroke-width="0.1"/>
  <path d="M 37.804147062724326,27.74736112060492 L 37.42267109352815,27.422100707160098" fill="none" stroke="rgb(44,44,88)" stroke-width="0.1"/>
  <path d="M 37.42267109352815,27.422100707160098 L 37.03849082328435,27.10003895596344" fill="none" stroke="rgb(44,44,88)" stroke-width="0.1"/>
  <path d="M 37.03849082328435,27.10003895596344 L 36.65163307185793,26.78119835034721" fill="none" stroke="rgb(44,44,88)" stroke-width="0.1"/>
  <path d="M 36.65163307185793,26.78119835034721 L 36.26212484603042,26.465601148773487" fill="none" stroke="rgb(44,44,88)" stroke-width="0.1"/>
  <path d="M 36.26212484603042,26.465601148773487 L 35.86999333761469,26.15326938328036" fill="none" stroke="rgb(44,44,88)" stroke-width="0.1"/>
  <path d="M 35.86999333761469,26.15326938328036 L 35.47526592155663,25.844224857943686" fill="none" stroke="rgb(44,44,88)" stroke-width="0.1"/>
  <path d="M 35.47526592155663,25.844224857943686 L 35.07797015402406,25.53848914735505" fill="none" stroke="rgb(44,44,88)" stroke-width="0.1"/>
  <path d="M 35.07797015402406,25.53848914735505 L 34.67813377048293,25.236083595115645" fill="none" stroke="rgb(44,44,88)" stroke-width="0.1"/>
  <path d="M 34.67813377048293,25.236083595115645 L 34.275784683761344,24.937029312346283" fill="none" stroke="rgb(44,44,88)" stroke-width="0.1"/>
  <path d="M 34.275784683761344,24.937029312346283 L 33.87095098210057,24.641347176213344" fill="none" stroke="rgb(44,44,88)" stroke-width="0.1"/>
  <path d="M 33.87095098210057,24.641347176213344 L 33.46366092719467,24.349057828471814" fill="none" stroke="rgb(44,44,88)" stroke-width="0.1"/>
  <path d="M 33.46366092719467,24.349057828471814 L 33.05394295221703,24.060181674023852" fill="none" stroke="rgb(44,44,88)" stroke-width="0.1"/>
  <path d="M 33.05394295221703,24.060181674023852 L 32.64182565983572,23.774738879494407" fill="none" stroke="rgb(44,44,88)" stroke-width="0.1"/>
  <path d="M 32.64182565983572,23.774738879494407 L 32.227337820216746,23.49274937182355" fill="none" stroke="rgb(44,44,88)" stroke-width="0.1"/>
  <path d="M 32.227337820216746,23.49274937182355 L 31.810508369015395,23.214232836875226" fill="none" stroke="rgb(44,44,88)" stroke-width="0.1"/>
  <path d="M 31.810508369015395,23.214232836875226 L 31.391366405356393,22.939208718062844" fill="none" stroke="rgb(44,44,88)" stroke-width="0.1"/>
  <path d="M 31.391366405356393,22.939208718062844 L 30.96994118980234,22.66769621499219" fill="none" stroke="rgb(44,44,88)" stroke-width="0.1"/>
  <path d="M 30.96994118980234,22.66769621499219 L 30.546262142311207,22.399714282120954" fill="none" stroke="rgb(44,44,88)" stroke-width="0.1"/>
  <path d="M 30.546262142311207,22.399714282120954 L 30.12035884018212,22.13528162743546" fill="none" stroke="rgb(44,44,88)" stroke-width="0.1"/>
  <path d="M 30.12035884018212,22.13528162743546 L 29.692261015991107,21.874416711144704" fill="none" stroke="rgb(44,44,88)" stroke-width="0.1"/>
  <path d="M 29.692261015991107,21.874416711144704 L 29.26199855551505,21.61713774439164" fill="none" stroke="rgb(44,44,88)" stroke-width="0.1"/>
  <path d="M 29.26199855551505,21.61713774439164 L 28.829601495645363,21.363462687981894" fill="none" stroke="rgb(44,44,88)" stroke-width="0.1"/>
  <path d="M 28.829601495645363,21.363462687981894 L 28.395100022291217,21.113409251129838" fill="none" stroke="rgb(44,44,88)" stroke-width="0.1"/>
  <path d="M 28.395100022291217,21.113409251129838 L 27.958524468272287,20.8669948902222" fill="none" stroke="rgb(44,44,88)" stroke-width="0.1"/>
  <path d="M 27.958524468272287,20.8669948902222 L 27.519905311201057,20.624236807599743" fill="none" stroke="rgb(44,44,88)" stroke-width="0.1"/>
  <path d="M 27.519905311201057,20.624236807599743 L 27.079273171355112,20.38515195035592" fill="none" stroke="rgb(44,44,88)" stroke-width="0.1"/>
  <path d="M 27.079273171355112,20.38515195035592 L 26.63665880953988,20.149757009154314" fill="none" stroke="rgb(44,44,88)" stroke-width="0.1"/>
  <path d="M 26.63665880953988,20.149757009154314 L 26.192093124940698,19.91806841706284" fill="none" stroke="rgb(44,44,88)" stroke-width="0.1"/>
  <path d="M 26.192093124940698,19.91806841706284 L 25.7456071529661,19.69010234840715" fill="none" stroke="rgb(44,44,88)" stroke-width="0.1"/>
  <path d="M 25.7456071529661,19.69010234840715 L 25.297232063081026,19.465874717640986" fill="none" stroke="rgb(44,44,88)" stroke-width="0.1"/>
  <path d="M 25.297232063081026,19.465874717640986 L 24.846999156630943,19.245401178235568" fill="none" stroke="rgb(44,44,88)" stroke-width="0.1"/>
  <path d="M 24.846999156630943,19.245401178235568 L 24.394939864656692,19.028697121586504" fill="none" stroke="rgb(44,44,88)" stroke-width="0.1"/>
  <path d="M 24.394939864656692,19.028697121586504 L 23.941085745700093,18.815777675939557" fill="none" stroke="rgb(44,44,88)" stroke-width="0.1"/>
  <path d="M 23.941085745700093,18.815777675939557 L 23.485468483601153,18.60665770533444" fill="none" stroke="rgb(44,44,88)" stroke-width="0.1"/>
  <path d="M 23.485468483601153,18.60665770533444 L 23.028119885285832,18.401351808567085" fill="none" stroke="rgb(44,44,88)" stroke-width="0.1"/>
  <path d="M 23.028119885285832,18.401351808567085 L 22.569071878545856,18.199874318170487" fill="none" stroke="rgb(44,44,88)" stroke-width="0.1"/>
  <path d="M 22.569071878545856,18.199874318170487 L 22.10835650980971,18.00223929941427" fill="none" stroke="rgb(44,44,88)" stroke-width="0.1"/>
  <path d="M 22.10835650980971,18.00223929941427 L 21.6460059419054,17.80846054932283" fill="none" stroke="rgb(44,44,88)" stroke-width="0.1"/>
  <path d="M 21.6460059419054,17.80846054932283 L 21.182052451815252,17.61855159571178" fill="none" stroke="rgb(44,44,88)" stroke-width="0.1"/>
  <path d="M 21.182052451815252,17.61855159571178 L 20.716528428422635,17.432525696244" fill="none" stroke="rgb(44,44,88)" stroke-width="0.1"/>
  <path d="M 20.716528428422635,17.432525696244 L 20.249466370250786,17.250395837503845" fill="none" stroke="rgb(44,44,88)" stroke-width="0.1"/>
  <path d="M 20.249466370250786,17.250395837503845 L 19.780898883194027,17.072174734090765" fill="none" stroke="rgb(44,44,88)" stroke-width="0.1"/>
  <path d="M 19.780898883194027,17.072174734090765 L 19.3108586782418,16.897874827731357" fill="none" stroke="rgb(44,44,88)" stroke-width="0.1"/>
  <path d="M 19.3108586782418,16.897874827731357 L 18.839378569194707,16.727508286411137" fill="none" stroke="rgb(44,44,88)" stroke-width="0.1"/>
  <path d="M 18.839378569194707,16.727508286411137 L 18.36649147037417,16.561087003524904" fill="none" stroke="rgb(44,44,88)" stroke-width="0.1"/>
  <path d="M 18.36649147037417,16.561087003524904 L 17.8922303943242,16.39862259704654" fill="none" stroke="rgb(44,44,88)" stroke-width="0.1"/>
  <path d="M 17.8922303943242,16.39862259704654 L 17.416628449507186,16.2401264087178" fill="none" stroke="rgb(44,44,88)" stroke-width="0.1"/>
  <path d="M 17.416628449507186,16.2401264087178 L 16.93971883799236,16.085609503256762" fill="none" stroke="rgb(44,44,88)" stroke-width="0.1"/>
  <path d="M 16.93971883799236,16.085609503256762 L 16.461534853138062,15.935082667585277" fill="none" stroke="rgb(44,44,88)" stroke-width="0.1"/>
  <path d="M 16.461534853138062,15.935082667585277 L 15.982109877267249,15.788556410075842" fill="none" stroke="rgb(44,44,88)" stroke-width="0.1"/>
  <path d="M 15.982109877267249,15.788556410075842 L 15.50147737933736,15.646040959818208" fill="none" stroke="rgb(44,44,88)" stroke-width="0.1"/>
  <path d="M 15.50147737933736,15.646040959818208 L 15.019670912603772,15.507546265904978" fill="none" stroke="rgb(44,44,88)" stroke-width="0.1"/>
  <path d="M 15.019670912603772,15.507546265904978 L 14.53672411227717,15.373081996737426" fill="none" stroke="rgb(44,44,88)" stroke-width="0.1"/>
  <path d="M 14.53672411227717,15.373081996737426 L 14.052670693175799,15.242657539350319" fill="none" stroke="rgb(44,44,88)" stroke-width="0.1"/>
  <path d="M 14.052670693175799,15.242657539350319 L 13.567544447371574,15.116281998756506" fill="none" stroke="rgb(44,44,88)" stroke-width="0.1"/>
  <path d="M 13.567544447371574,15.116281998756506 L 13.0813792418312,14.993964197311584" fill="none" stroke="rgb(44,44,88)" stroke-width="0.1"/>
  <path d="M 13.0813792418312,14.993964197311584 L 12.594209016051707,14.87571267409777" fill="none" stroke="rgb(44,44,88)" stroke-width="0.1"/>
  <path d="M 12.594209016051707,14.87571267409777 L 12.106067779691216,14.761535684327896" fill="none" stroke="rgb(44,44,88)" stroke-width="0.1"/>
  <path d="M 12.106067779691216,14.761535684327896 L 11.616989610194821,14.651441198768964" fill="none" stroke="rgb(44,44,88)" stroke-width="0.1"/>
  <path d="M 11.616989610194821,14.651441198768964 L 11.127008650415348,14.545436903185873" fill="none" stroke="rgb(44,44,88)" stroke-width="0.1"/>
  <path d="M 11.127008650415348,14.545436903185873 L 10.636159106230139,14.443530197804819" fill="none" stroke="rgb(44,44,88)" stroke-width="0.1"/>
  <path d="M 10.636159106230139,14.443530197804819 L 10.144475244152886,14.345728196796642" fill="none" stroke="rgb(44,44,88)" stroke-width="0.1"/>
  <path d="M 10.144475244152886,14.345728196796642 L 9.65199138894144,14.252037727780191" fill="none" stroke="rgb(44,44,88)" stroke-width="0.1"/>
  <path d="M 9.65199138894144,14.252037727780191 L 9.158741921201795,14.162465331345743" fill="none" stroke="rgb(44,44,88)" stroke-width="0.1"/>
  <path d="M 9.158741921201795,14.162465331345743 L 8.664761274987825,14.077017260598325" fill="none" stroke="rgb(44,44,88)" stroke-width="0.1"/>
  <path d="M 8.664761274987825,14.077017260598325 L 8.170083935397372,13.9956994807211" fill="none" stroke="rgb(44,44,88)" stroke-width="0.1"/>
  <path d="M 8.170083935397372,13.9956994807211 L 7.674744436164872,13.918517668559275" fill="none" stroke="rgb(44,44,88)" stroke-width="0.1"/>
  <path d="M 7.674744436164872,13.918517668559275 L 7.178777357250681,13.84547721222333" fill="none" stroke="rgb(44,44,88)" stroke-width="0.1"/>
  <path d="M 7.178777357250681,13.84547721222333 L 6.682217322426766,13.776583210713227" fill="none" stroke="rgb(44,44,88)" stroke-width="0.1"/>
  <path d="M 6.682217322426766,13.776583210713227 L 6.185098996859608,13.71184047356229" fill="none" stroke="rgb(44,44,88)" stroke-width="0.1"/>
  <path d="M 6.185098996859608,13.71184047356229 L 5.68745708469055,13.651253520501598" fill="none" stroke="rgb(44,44,88)" stroke-width="0.1"/>
  <path d="M 5.68745708469055,13.651253520501598 L 5.189326326612729,13.594826581144105" fill="none" stroke="rgb(44,44,88)" stroke-width="0.1"/>
  <path d="M 5.189326326612729,13.594826581144105 L 4.690741497445913,13.542563594689796" fill="none" stroke="rgb(44,44,88)" stroke-width="0.1"/>
  <path d="M 4.690741497445913,13.542563594689796 L 4.191737403708828,13.494468209650393" fill="none" stroke="rgb(44,44,88)" stroke-width="0.1"/>
  <path d="M 4.191737403708828,13.494468209650393 L 3.692348881189389,13.450543783594924" fill="none" stroke="rgb(44,44,88)" stroke-width="0.1"/>
  <path d="M 3.692348881189389,13.450543783594924 L 3.19261079251271,13.41079338291496" fill="none" stroke="rgb(44,44,88)" stroke-width="0.1"/>
  <path d="M 3.19261079251271,13.41079338291496 L 2.6925580247072958,13.375219782610827" fill="none" stroke="rgb(44,44,88)" stroke-width="0.1"/>
  <path d="M 2.6925580247072958,13.375219782610827 L 2.192225486769644,13.343825466097826" fill="none" stroke="rgb(44,44,88)" stroke-width="0.1"/>
  <path d="M 2.192225486769644,13.343825466097826 L 1.691648107227138,13.31661262503286" fill="none" stroke="rgb(44,44,88)" stroke-width="0.1"/>
  <path d="M 1.691648107227138,13.31661262503286 L 1.1908608316998084,13.293583159161358" fill="none" stroke="rgb(44,44,88)" stroke-width="0.1"/>
  <path d="M 1.1908608316998084,13.293583159161358 L 0.6898986204604967,13.274738676184768" fill="none" stroke="rgb(44,44,88)" stroke-width="0.1"/>
  <path d="M 0.6898986204604967,13.274738676184768 L 0.1887964459945124,13.260080491648125" fill="none" stroke="rgb(44,44,88)" stroke-width="0.1"/>
  <path d="M 0.1887964459945124,13.222384508351922 L 0.6898986204604967,13.20772632381528" fill="none" stroke="rgb(44,44,88)" stroke-width="0.1"/>
  <path d="M 0.6898986204604967,13.20772632381528 L 1.1908608316998084,13.18888184083869" fill="none" stroke="rgb(44,44,88)" stroke-width="0.1"/>
  <path d="M 1.1908608316998084,13.18888184083869 L 1.691648107227138,13.165852374967187" fill="none" stroke="rgb(44,44,88)" stroke-width="0.1"/>
  <path d="M 1.691648107227138,13.165852374967187 L 2.192225486769644,13.138639533902222" fill="none" stroke="rgb(44,44,88)" stroke-width="0.1"/>
  <path d="M 2.192225486769644,13.138639533902222 L 2.6925580247072958,13.10724521738922" fill="none" stroke="rgb(44,44,88)" stroke-width="0.1"/>
  <path d="M 2.6925580247072958,13.10724521738922 L 3.19261079251271,13.071671617085087" fill="none" stroke="rgb(44,44,88)" stroke-width="0.1"/>
  <path d="M 3.19261079251271,13.071671617085087 L 3.692348881189389,13.031921216405124" fill="none" stroke="rgb(44,44,88)" stroke-width="0.1"/>
  <path d="M 3.692348881189389,13.031921216405124 L 4.191737403708828,12.987996790349598" fill="none" stroke="rgb(44,44,88)" stroke-width="0.1"/>
  <path d="M 4.191737403708828,12.987996790349598 L 4.690741497445913,12.939901405310252" fill="none" stroke="rgb(44,44,88)" stroke-width="0.1"/>
  <path d="M 4.690741497445913,12.939901405310252 L 5.189326326612729,12.887638418855943" fill="none" stroke="rgb(44,44,88)" stroke-width="0.1"/>
  <path d="M 5.189326326612729,12.887638418855943 L 5.68745708469055,12.83121147949845" fill="none" stroke="rgb(44,44,88)" stroke-width="0.1"/>
  <path d="M 5.68745708469055,12.83121147949845 L 6.185098996859608,12.770624526437757" fill="none" stroke="rgb(44,44,88)" stroke-width="0.1"/>
  <path d="M 6.185098996859608,12.770624526437757 L 6.682217322426766,12.70588178928682" fill="none" stroke="rgb(44,44,88)" stroke-width="0.1"/>
  <path d="M 6.682217322426766,12.70588178928682 L 7.178777357250681,12.636987787776718" fill="none" stroke="rgb(44,44,88)" stroke-width="0.1"/>
  <path d="M 7.178777357250681,12.636987787776718 L 7.674744436164872,12.563947331440772" fill="none" stroke="rgb(44,44,88)" stroke-width="0.1"/>
  <path d="M 7.674744436164872,12.563947331440772 L 8.170083935397372,12.486765519278947" fill="none" stroke="rgb(44,44,88)" stroke-width="0.1"/>
  <path d="M 8.170083935397372,12.486765519278947 L 8.664761274987825,12.405447739401723" fill="none" stroke="rgb(44,44,88)" stroke-width="0.1"/>
  <path d="M 8.664761274987825,12.405447739401723 L 9.158741921201795,12.319999668654305" fill="none" stroke="rgb(44,44,88)" stroke-width="0.1"/>
  <path d="M 9.158741921201795,12.319999668654305 L 9.65199138894144,12.230427272219856" fill="none" stroke="rgb(44,44,88)" stroke-width="0.1"/>
  <path d="M 9.65199138894144,12.230427272219856 L 10.144475244152886,12.136736803203405" fill="none" stroke="rgb(44,44,88)" stroke-width="0.1"/>
  <path d="M 10.144475244152886,12.136736803203405 L 10.636159106230139,12.038934802195229" fill="none" stroke="rgb(44,44,88)" stroke-width="0.1"/>
  <path d="M 10.636159106230139,12.038934802195229 L 11.127008650415348,11.937028096814174" fill="none" stroke="rgb(44,44,88)" stroke-width="0.1"/>
  <path d="M 11.127008650415348,11.937028096814174 L 11.616989610194821,11.831023801231083" fill="none" stroke="rgb(44,44,88)" stroke-width="0.1"/>
  <path d="M 11.616989610194821,11.831023801231083 L 12.106067779691216,11.720929315672151" fill="none" stroke="rgb(44,44,88)" stroke-width="0.1"/>
  <path d="M 12.106067779691216,11.720929315672151 L 12.594209016051707,11.606752325902278" fill="none" stroke="rgb(44,44,88)" stroke-width="0.1"/>
  <path d="M 12.594209016051707,11.606752325902278 L 13.0813792418312,11.488500802688463" fill="none" stroke="rgb(44,44,88)" stroke-width="0.1"/>
  <path d="M 13.0813792418312,11.488500802688463 L 13.567544447371574,11.366183001243542" fill="none" stroke="rgb(44,44,88)" stroke-width="0.1"/>
  <path d="M 13.567544447371574,11.366183001243542 L 14.052670693175799,11.239807460649729" fill="none" stroke="rgb(44,44,88)" stroke-width="0.1"/>
  <path d="M 14.052670693175799,11.239807460649729 L 14.53672411227717,11.109383003262622" fill="none" stroke="rgb(44,44,88)" stroke-width="0.1"/>
  <path d="M 14.53672411227717,11.109383003262622 L 15.019670912603772,10.97491873409507" fill="none" stroke="rgb(44,44,88)" stroke-width="0.1"/>
  <path d="M 15.019670912603772,10.97491873409507 L 15.50147737933736,10.83642404018184" fill="none" stroke="rgb(44,44,88)" stroke-width="0.1"/>
  <path d="M 15.50147737933736,10.83642404018184 L 15.982109877267249,10.693908589924206" fill="none" stroke="rgb(44,44,88)" stroke-width="0.1"/>
  <path d="M 15.982109877267249,10.693908589924206 L 16.461534853138062,10.54738233241477" fill="none" stroke="rgb(44,44,88)" stroke-width="0.1"/>
  <path d="M 16.461534853138062,10.54738233241477 L 16.93971883799236,10.396855496743285" fill="none" stroke="rgb(44,44,88)" stroke-width="0.1"/>
  <path d="M 16.93971883799236,10.396855496743285 L 17.416628449507186,10.242338591282248" fill="none" stroke="rgb(44,44,88)" stroke-width="0.1"/>
  <path d="M 17.416628449507186,10.242338591282248 L 17.8922303943242,10.083842402953508" fill="none" stroke="rgb(44,44,88)" stroke-width="0.1"/>
  <path d="M 17.8922303943242,10.083842402953508 L 18.36649147037417,9.921377996475144" fill="none" stroke="rgb(44,44,88)" stroke-width="0.1"/>
  <path d="M 18.36649147037417,9.921377996475144 L 18.839378569194707,9.75495671358891" fill="none" stroke="rgb(44,44,88)" stroke-width="0.1"/>
  <path d="M 18.839378569194707,9.75495671358891 L 19.3108586782418,9.58459017226869" fill="none" stroke="rgb(44,44,88)" stroke-width="0.1"/>
  <path d="M 19.3108586782418,9.58459017226869 L 19.780898883194027,9.410290265909282" fill="none" stroke="rgb(44,44,88)" stroke-width="0.1"/>
  <path d="M 19.780898883194027,9.410290265909282 L 20.249466370250786,9.232069162496202" fill="none" stroke="rgb(44,44,88)" stroke-width="0.1"/>
  <path d="M 20.249466370250786,9.232069162496202 L 20.716528428422635,9.049939303756048" fill="none" stroke="rgb(44,44,88)" stroke-width="0.1"/>
  <path d="M 20.716528428422635,9.049939303756048 L 21.182052451815252,8.863913404288269" fill="none" stroke="rgb(44,44,88)" stroke-width="0.1"/>
  <path d="M 21.182052451815252,8.863913404288269 L 21.6460059419054,8.674004450677216" fill="none" stroke="rgb(44,44,88)" stroke-width="0.1"/>
  <path d="M 21.6460059419054,8.674004450677216 L 22.10835650980971,8.480225700585777" fill="none" stroke="rgb(44,44,88)" stroke-width="0.1"/>
  <path d="M 22.10835650980971,8.480225700585777 L 22.569071878545856,8.28259068182956" fill="none" stroke="rgb(44,44,88)" stroke-width="0.1"/>
  <path d="M 22.569071878545856,8.28259068182956 L 23.028119885285832,8.081113191432962" fill="none" stroke="rgb(44,44,88)" stroke-width="0.1"/>
  <path d="M 23.028119885285832,8.081113191432962 L 23.485468483601153,7.875807294665606" fill="none" stroke="rgb(44,44,88)" stroke-width="0.1"/>
  <path d="M 23.485468483601153,7.875807294665606 L 23.941085745700093,7.66668732406049" fill="none" stroke="rgb(44,44,88)" stroke-width="0.1"/>
  <path d="M 23.941085745700093,7.66668732406049 L 24.394939864656692,7.453767878413544" fill="none" stroke="rgb(44,44,88)" stroke-width="0.1"/>
  <path d="M 24.394939864656692,7.453767878413544 L 24.846999156630943,7.23706382176448" fill="none" stroke="rgb(44,44,88)" stroke-width="0.1"/>
  <path d="M 24.846999156630943,7.23706382176448 L 25.297232063081026,7.016590282359061" fill="none" stroke="rgb(44,44,88)" stroke-width="0.1"/>
  <path d="M 25.297232063081026,7.016590282359061 L 25.7456071529661,6.792362651592896" fill="none" stroke="rgb(44,44,88)" stroke-width="0.1"/>
  <path d="M 25.7456071529661,6.792362651592896 L 26.192093124940698,6.564396582937206" fill="none" stroke="rgb(44,44,88)" stroke-width="0.1"/>
  <path d="M 26.192093124940698,6.564396582937206 L 26.63665880953988,6.3327079908457335" fill="none" stroke="rgb(44,44,88)" stroke-width="0.1"/>
  <path d="M 26.63665880953988,6.3327079908457335 L 27.079273171355112,6.097313049644129" fill="none" stroke="rgb(44,44,88)" stroke-width="0.1"/>
  <path d="M 27.079273171355112,6.097313049644129 L 27.519905311201057,5.858228192400304" fill="none" stroke="rgb(44,44,88)" stroke-width="0.1"/>
  <path d="M 27.519905311201057,5.858228192400304 L 27.958524468272287,5.615470109777846" fill="none" stroke="rgb(44,44,88)" stroke-width="0.1"/>
  <path d="M 27.958524468272287,5.615470109777846 L 28.395100022291217,5.36905574887021" fill="none" stroke="rgb(44,44,88)" stroke-width="0.1"/>
  <path d="M 28.395100022291217,5.36905574887021 L 28.829601495645363,5.119002312018154" fill="none" stroke="rgb(44,44,88)" stroke-width="0.1"/>
  <path d="M 28.829601495645363,5.119002312018154 L 29.26199855551505,4.865327255608406" fill="none" stroke="rgb(44,44,88)" stroke-width="0.1"/>
  <path d="M 29.26199855551505,4.865327255608406 L 29.692261015991164,4.608048288855343" fill="none" stroke="rgb(44,44,88)" stroke-width="0.1"/>
  <path d="M 29.692261015991164,4.608048288855343 L 30.12035884018212,4.3471833725645865" fill="none" stroke="rgb(44,44,88)" stroke-width="0.1"/>
  <path d="M 30.12035884018212,4.3471833725645865 L 30.54626214231115,4.082750717879094" fill="none" stroke="rgb(44,44,88)" stroke-width="0.1"/>
  <path d="M 30.54626214231115,4.082750717879094 L 30.96994118980234,3.814768785007857" fill="none" stroke="rgb(44,44,88)" stroke-width="0.1"/>
  <path d="M 30.96994118980234,3.814768785007857 L 31.391366405356393,3.5432562819372038" fill="none" stroke="rgb(44,44,88)" stroke-width="0.1"/>
  <path d="M 31.391366405356393,3.5432562819372038 L 31.810508369015395,3.2682321631248215" fill="none" stroke="rgb(44,44,88)" stroke-width="0.1"/>
  <path d="M 31.810508369015395,3.2682321631248215 L 32.227337820216746,2.989715628176498" fill="none" stroke="rgb(44,44,88)" stroke-width="0.1"/>
  <path d="M 32.227337820216746,2.989715628176498 L 32.64182565983572,2.70772612050564" fill="none" stroke="rgb(44,44,88)" stroke-width="0.1"/>
  <path d="M 32.64182565983572,2.70772612050564 L 33.05394295221703,2.4222833259761956" fill="none" stroke="rgb(44,44,88)" stroke-width="0.1"/>
  <path d="M 33.05394295221703,2.4222833259761956 L 33.46366092719467,2.1334071715282334" fill="none" stroke="rgb(44,44,88)" stroke-width="0.1"/>
  <path d="M 33.46366092719467,2.1334071715282334 L 33.87095098210057,1.8411178237867034" fill="none" stroke="rgb(44,44,88)" stroke-width="0.1"/>
  <path d="M 33.87095098210057,1.8411178237867034 L 34.27578468376129,1.5454356876538213" fill="none" stroke="rgb(44,44,88)" stroke-width="0.1"/>
  <path d="M 34.27578468376129,1.5454356876538213 L 34.67813377048293,1.2463814048844029" fill="none" stroke="rgb(44,44,88)" stroke-width="0.1"/>
  <path d="M 34.67813377048293,1.2463814048844029 L 35.07797015402406,0.9439758526449964" fill="none" stroke="rgb(44,44,88)" stroke-width="0.1"/>
  <path d="M 35.07797015402406,0.9439758526449964 L 35.47526592155663,0.638240142056361" fill="none" stroke="rgb(44,44,88)" stroke-width="0.1"/>
  <path d="M 35.47526592155663,0.638240142056361 L 35.86999333761469,0.3291956167196872" fill="none" stroke="rgb(44,44,88)" stroke-width="0.1"/>
  <path d="M 35.86999333761469,0.3291956167196872 L 36.26212484603042,0.0168638512265602" fill="none" stroke="rgb(44,44,88)" stroke-width="0.1"/>
  <path d="M 99.95337155049282,16.2401264087178 L 99.4777696056758,16.398622597046483" fill="none" stroke="rgb(44,44,88)" stroke-width="0.1"/>
  <path d="M 99.4777696056758,16.398622597046483 L 99.00350852962589,16.561087003524904" fill="none" stroke="rgb(44,44,88)" stroke-width="0.1"/>
  <path d="M 99.00350852962589,16.561087003524904 L 98.5306214308053,16.727508286411137" fill="none" stroke="rgb(44,44,88)" stroke-width="0.1"/>
  <path d="M 98.5306214308053,16.727508286411137 L 98.0591413217582,16.897874827731357" fill="none" stroke="rgb(44,44,88)" stroke-width="0.1"/>
  <path d="M 98.0591413217582,16.897874827731357 L 97.58910111680598,17.072174734090765" fill="none" stroke="rgb(44,44,88)" stroke-width="0.1"/>
  <path d="M 97.58910111680598,17.072174734090765 L 97.12053362974922,17.250395837503845" fill="none" stroke="rgb(44,44,88)" stroke-width="0.1"/>
  <path d="M 97.12053362974922,17.250395837503845 L 96.65347157157737,17.432525696244" fill="none" stroke="rgb(44,44,88)" stroke-width="0.1"/>
  <path d="M 96.65347157157737,17.432525696244 L 96.18794754818475,17.61855159571178" fill="none" stroke="rgb(44,44,88)" stroke-width="0.1"/>
  <path d="M 96.18794754818475,17.61855159571178 L 95.7239940580946,17.80846054932283" fill="none" stroke="rgb(44,44,88)" stroke-width="0.1"/>
  <path d="M 95.7239940580946,17.80846054932283 L 95.2616434901903,18.00223929941427" fill="none" stroke="rgb(44,44,88)" stroke-width="0.1"/>
  <path d="M 95.2616434901903,18.00223929941427 L 94.80092812145415,18.199874318170487" fill="none" stroke="rgb(44,44,88)" stroke-width="0.1"/>
  <path d="M 94.80092812145415,18.199874318170487 L 94.34188011471417,18.401351808567085" fill="none" stroke="rgb(44,44,88)" stroke-width="0.1"/>
  <path d="M 94.34188011471417,18.401351808567085 L 93.88453151639885,18.60665770533444" fill="none" stroke="rgb(44,44,88)" stroke-width="0.1"/>
  <path d="M 93.88453151639885,18.60665770533444 L 93.42891425429991,18.815777675939557" fill="none" stroke="rgb(44,44,88)" stroke-width="0.1"/>
  <path d="M 93.42891425429991,18.815777675939557 L 92.97506013534331,19.028697121586504" fill="none" stroke="rgb(44,44,88)" stroke-width="0.1"/>
  <path d="M 92.97506013534331,19.028697121586504 L 92.523000843369,19.245401178235568" fill="none" stroke="rgb(44,44,88)" stroke-width="0.1"/>
  <path d="M 92.523000843369,19.245401178235568 L 92.07276793691898,19.465874717640986" fill="none" stroke="rgb(44,44,88)" stroke-width="0.1"/>
  <path d="M 92.07276793691898,19.465874717640986 L 91.6243928470339,19.69010234840715" fill="none" stroke="rgb(44,44,88)" stroke-width="0.1"/>
  <path d="M 91.6243928470339,19.69010234840715 L 91.1779068750593,19.91806841706284" fill="none" stroke="rgb(44,44,88)" stroke-width="0.1"/>
  <path d="M 91.1779068750593,19.91806841706284 L 90.73334119046012,20.149757009154314" fill="none" stroke="rgb(44,44,88)" stroke-width="0.1"/>
  <path d="M 90.73334119046012,20.149757009154314 L 90.29072682864484,20.385151950355976" fill="none" stroke="rgb(44,44,88)" stroke-width="0.1"/>
  <path d="M 90.29072682864484,20.385151950355976 L 89.850094688799,20.624236807599743" fill="none" stroke="rgb(44,44,88)" stroke-width="0.1"/>
  <path d="M 89.850094688799,20.624236807599743 L 89.41147553172772,20.8669948902222" fill="none" stroke="rgb(44,44,88)" stroke-width="0.1"/>
  <path d="M 89.41147553172772,20.8669948902222 L 88.97489997770879,21.113409251129838" fill="none" stroke="rgb(44,44,88)" stroke-width="0.1"/>
  <path d="M 88.97489997770879,21.113409251129838 L 88.54039850435464,21.363462687981894" fill="none" stroke="rgb(44,44,88)" stroke-width="0.1"/>
  <path d="M 88.54039850435464,21.363462687981894 L 88.10800144448496,21.61713774439164" fill="none" stroke="rgb(44,44,88)" stroke-width="0.1"/>
  <path d="M 88.10800144448496,21.61713774439164 L 87.6777389840089,21.874416711144704" fill="none" stroke="rgb(44,44,88)" stroke-width="0.1"/>
  <path d="M 87.6777389840089,21.874416711144704 L 87.24964115981788,22.13528162743546" fill="none" stroke="rgb(44,44,88)" stroke-width="0.1"/>
  <path d="M 87.24964115981788,22.13528162743546 L 86.8237378576888,22.399714282120954" fill="none" stroke="rgb(44,44,88)" stroke-width="0.1"/>
  <path d="M 86.8237378576888,22.399714282120954 L 86.40005881019766,22.66769621499219" fill="none" stroke="rgb(44,44,88)" stroke-width="0.1"/>
  <path d="M 86.40005881019766,22.66769621499219 L 85.97863359464361,22.939208718062844" fill="none" stroke="rgb(44,44,88)" stroke-width="0.1"/>
  <path d="M 85.97863359464361,22.939208718062844 L 85.55949163098461,23.21423283687517" fill="none" stroke="rgb(44,44,88)" stroke-width="0.1"/>
  <path d="M 85.55949163098461,23.21423283687517 L 85.14266217978326,23.49274937182355" fill="none" stroke="rgb(44,44,88)" stroke-width="0.1"/>
  <path d="M 85.14266217978326,23.49274937182355 L 84.72817434016429,23.774738879494407" fill="none" stroke="rgb(44,44,88)" stroke-width="0.1"/>
  <path d="M 84.72817434016429,23.774738879494407 L 84.31605704778303,24.060181674023795" fill="none" stroke="rgb(44,44,88)" stroke-width="0.1"/>
  <path d="M 84.31605704778303,24.060181674023795 L 83.90633907280534,24.349057828471814" fill="none" stroke="rgb(44,44,88)" stroke-width="0.1"/>
  <path d="M 83.90633907280534,24.349057828471814 L 83.49904901789944,24.641347176213344" fill="none" stroke="rgb(44,44,88)" stroke-width="0.1"/>
  <path d="M 83.49904901789944,24.641347176213344 L 83.09421531623872,24.937029312346226" fill="none" stroke="rgb(44,44,88)" stroke-width="0.1"/>
  <path d="M 83.09421531623872,24.937029312346226 L 82.69186622951707,25.236083595115645" fill="none" stroke="rgb(44,44,88)" stroke-width="0.1"/>
  <path d="M 82.69186622951707,25.236083595115645 L 82.29202984597595,25.53848914735505" fill="none" stroke="rgb(44,44,88)" stroke-width="0.1"/>
  <path d="M 82.29202984597595,25.53848914735505 L 81.89473407844338,25.844224857943686" fill="none" stroke="rgb(44,44,88)" stroke-width="0.1"/>
  <path d="M 81.89473407844338,25.844224857943686 L 81.50000666238532,26.15326938328036" fill="none" stroke="rgb(44,44,88)" stroke-width="0.1"/>
  <path d="M 81.50000666238532,26.15326938328036 L 81.10787515396964,26.465601148773487" fill="none" stroke="rgb(44,44,88)" stroke-width="0.1"/>
  <path d="M 81.10787515396964,26.465601148773487 L 80.71836692814207,26.78119835034721" fill="none" stroke="rgb(44,44,88)" stroke-width="0.1"/>
  <path d="M 80.71836692814207,26.78119835034721 L 80.33150917671566,27.10003895596344" fill="none" stroke="rgb(44,44,88)" stroke-width="0.1"/>
  <path d="M 80.33150917671566,27.10003895596344 L 79.94732890647185,27.422100707160098" fill="none" stroke="rgb(44,44,88)" stroke-width="0.1"/>
  <path d="M 79.94732890647185,27.422100707160098 L 79.56585293727568,27.74736112060492" fill="none" stroke="rgb(44,44,88)" stroke-width="0.1"/>
  <path d="M 79.56585293727568,27.74736112060492 L 79.1871079002031,28.07579748966492" fill="none" stroke="rgb(44,44,88)" stroke-width="0.1"/>
  <path d="M 79.1871079002031,28.07579748966492 L 78.81112023568204,28.40738688599191" fill="none" stroke="rgb(44,44,88)" stroke-width="0.1"/>
  <path d="M 78.81112023568204,28.40738688599191 L 78.4379161916466,28.742106161122535" fill="none" stroke="rgb(44,44,88)" stroke-width="0.1"/>
  <path d="M 78.4379161916466,28.742106161122535 L 78.06752182170442,29.079931948095066" fill="none" stroke="rgb(44,44,88)" stroke-width="0.1"/>
  <path d="M 78.06752182170442,29.079931948095066 L 77.69996298331813,29.4208406630799" fill="none" stroke="rgb(44,44,88)" stroke-width="0.1"/>
  <path d="M 77.69996298331813,29.4208406630799 L 77.33526533600019,29.764808507026373" fill="none" stroke="rgb(44,44,88)" stroke-width="0.1"/>
  <path d="M 77.33526533600019,29.764808507026373 L 76.97345433952148,30.111811467324287" fill="none" stroke="rgb(44,44,88)" stroke-width="0.1"/>
  <path d="M 76.97345433952148,30.111811467324287 L 76.61455525213387,30.46182531947983" fill="none" stroke="rgb(44,44,88)" stroke-width="0.1"/>
  <path d="M 76.61455525213387,30.46182531947983 L 76.25859312880715,30.81482562880717" fill="none" stroke="rgb(44,44,88)" stroke-width="0.1"/>
  <path d="M 76.25859312880715,30.81482562880717 L 75.9055928194798,31.17078775213389" fill="none" stroke="rgb(44,44,88)" stroke-width="0.1"/>
  <path d="M 75.9055928194798,31.17078775213389 L 75.55557896732427,31.529686839521503" fill="none" stroke="rgb(44,44,88)" stroke-width="0.1"/>
  <path d="M 75.55557896732427,31.529686839521503 L 75.20857600702635,31.891497836000212" fill="none" stroke="rgb(44,44,88)" stroke-width="0.1"/>
  <path d="M 75.20857600702635,31.891497836000212 L 74.86460816307982,32.25619548331821" fill="none" stroke="rgb(44,44,88)" stroke-width="0.1"/>
  <path d="M 74.86460816307982,32.25619548331821 L 74.52369944809504,32.62375432170444" fill="none" stroke="rgb(44,44,88)" stroke-width="0.1"/>
  <path d="M 74.52369944809504,32.62375432170444 L 74.18587366112257,32.994148691646615" fill="none" stroke="rgb(44,44,88)" stroke-width="0.1"/>
  <path d="M 74.18587366112257,32.994148691646615 L 73.85115438599189,33.36735273568206" fill="none" stroke="rgb(44,44,88)" stroke-width="0.1"/>
  <path d="M 73.85115438599189,33.36735273568206 L 73.5195649896649,33.743340400203124" fill="none" stroke="rgb(44,44,88)" stroke-width="0.1"/>
  <path d="M 73.5195649896649,33.743340400203124 L 73.1911286206049,34.1220854372757" fill="none" stroke="rgb(44,44,88)" stroke-width="0.1"/>
  <path d="M 73.1911286206049,34.1220854372757 L 72.86586820716008,34.503561406471874" fill="none" stroke="rgb(44,44,88)" stroke-width="0.1"/>
  <path d="M 72.86586820716008,34.503561406471874 L 72.54380645596342,34.88774167671562" fill="none" stroke="rgb(44,44,88)" stroke-width="0.1"/>
  <path d="M 72.54380645596342,34.88774167671562 L 72.22496585034719,35.274599428142096" fill="none" stroke="rgb(44,44,88)" stroke-width="0.1"/>
  <path d="M 72.22496585034719,35.274599428142096 L 71.90936864877347,35.664107653969666" fill="none" stroke="rgb(44,44,88)" stroke-width="0.1"/>
  <path d="M 71.90936864877347,35.664107653969666 L 71.59703688328034,36.05623916238534" fill="none" stroke="rgb(44,44,88)" stroke-width="0.1"/>
  <path d="M 71.59703688328034,36.05623916238534 L 71.28799235794366,36.45096657844334" fill="none" stroke="rgb(44,44,88)" stroke-width="0.1"/>
  <path d="M 71.28799235794366,36.45096657844334 L 70.98225664735503,36.84826234597597" fill="none" stroke="rgb(44,44,88)" stroke-width="0.1"/>
  <path d="M 70.98225664735503,36.84826234597597 L 70.67985109511562,37.248098729517096" fill="none" stroke="rgb(44,44,88)" stroke-width="0.1"/>
  <path d="M 70.67985109511562,37.248098729517096 L 70.3807968123462,37.65044781623868" fill="none" stroke="rgb(44,44,88)" stroke-width="0.1"/>
  <path d="M 70.3807968123462,37.65044781623868 L 70.08511467621332,38.05528151789946" fill="none" stroke="rgb(44,44,88)" stroke-width="0.1"/>
  <path d="M 70.08511467621332,38.05528151789946 L 69.79282532847179,38.46257157280536" fill="none" stroke="rgb(44,44,88)" stroke-width="0.1"/>
  <path d="M 69.79282532847179,38.46257157280536 L 69.50394917402383,38.872289547783055" fill="none" stroke="rgb(44,44,88)" stroke-width="0.1"/>
  <path d="M 69.50394917402383,38.872289547783055 L 69.21850637949439,39.28440684016431" fill="none" stroke="rgb(44,44,88)" stroke-width="0.1"/>
  <path d="M 69.21850637949439,39.28440684016431 L 68.93651687182353,39.69889467978328" fill="none" stroke="rgb(44,44,88)" stroke-width="0.1"/>
  <path d="M 68.93651687182353,39.69889467978328 L 68.6580003368752,40.11572413098463" fill="none" stroke="rgb(44,44,88)" stroke-width="0.1"/>
  <path d="M 68.6580003368752,40.11572413098463 L 68.38297621806282,40.53486609464363" fill="none" stroke="rgb(44,44,88)" stroke-width="0.1"/>
  <path d="M 68.38297621806282,40.53486609464363 L 68.11146371499217,40.95629131019763" fill="none" stroke="rgb(44,44,88)" stroke-width="0.1"/>
  <path d="M 68.11146371499217,40.95629131019763 L 67.84348178212093,41.379970357688876" fill="none" stroke="rgb(44,44,88)" stroke-width="0.1"/>
  <path d="M 67.84348178212093,41.379970357688876 L 67.57904912743544,41.805873659817905" fill="none" stroke="rgb(44,44,88)" stroke-width="0.1"/>
  <path d="M 67.57904912743544,41.805873659817905 L 67.31818421114468,42.23397148400886" fill="none" stroke="rgb(44,44,88)" stroke-width="0.1"/>
  <path d="M 67.31818421114468,42.23397148400886 L 67.06090524439168,42.66423394448498" fill="none" stroke="rgb(44,44,88)" stroke-width="0.1"/>
  <path d="M 67.06090524439168,42.66423394448498 L 66.80723018798193,43.09663100435466" fill="none" stroke="rgb(44,44,88)" stroke-width="0.1"/>
  <path d="M 66.80723018798193,43.09663100435466 L 66.55717675112982,43.53113247770881" fill="none" stroke="rgb(44,44,88)" stroke-width="0.1"/>
  <path d="M 66.55717675112982,43.53113247770881 L 66.31076239022224,43.96770803172774" fill="none" stroke="rgb(44,44,88)" stroke-width="0.1"/>
  <path d="M 66.31076239022224,43.96770803172774 L 66.06800430759972,44.40632718879897" fill="none" stroke="rgb(44,44,88)" stroke-width="0.1"/>
  <path d="M 66.06800430759972,44.40632718879897 L 65.82891945035595,44.846959328644914" fill="none" stroke="rgb(44,44,88)" stroke-width="0.1"/>
  <path d="M 65.82891945035595,44.846959328644914 L 65.59352450915429,45.289573690460145" fill="none" stroke="rgb(44,44,88)" stroke-width="0.1"/>
  <path d="M 65.59352450915429,45.289573690460145 L 65.36183591706282,45.73413937505933" fill="none" stroke="rgb(44,44,88)" stroke-width="0.1"/>
  <path d="M 65.36183591706282,45.73413937505933 L 65.13386984840713,46.180625347033924" fill="none" stroke="rgb(44,44,88)" stroke-width="0.1"/>
  <path d="M 65.13386984840713,46.180625347033924 L 64.90964221764096,46.629000436919" fill="none" stroke="rgb(44,44,88)" stroke-width="0.1"/>
  <path d="M 64.90964221764096,46.629000436919 L 64.68916867823555,47.07923334336908" fill="none" stroke="rgb(44,44,88)" stroke-width="0.1"/>
  <path d="M 64.68916867823555,47.07923334336908 L 64.47246462158648,47.531292635343334" fill="none" stroke="rgb(44,44,88)" stroke-width="0.1"/>
  <path d="M 64.47246462158648,47.531292635343334 L 64.25954517593959,47.985146754299876" fill="none" stroke="rgb(44,44,88)" stroke-width="0.1"/>
  <path d="M 64.25954517593959,47.985146754299876 L 64.05042520533442,48.44076401639887" fill="none" stroke="rgb(44,44,88)" stroke-width="0.1"/>
  <path d="M 64.05042520533442,48.44076401639887 L 63.84511930856701,48.898112614714194" fill="none" stroke="rgb(44,44,88)" stroke-width="0.1"/>
  <path d="M 63.84511930856701,48.898112614714194 L 63.643641818170465,49.35716062145417" fill="none" stroke="rgb(44,44,88)" stroke-width="0.1"/>
  <path d="M 63.643641818170465,49.35716062145417 L 63.446006799414306,49.817875990190316" fill="none" stroke="rgb(44,44,88)" stroke-width="0.1"/>
  <path d="M 63.446006799414306,49.817875990190316 L 63.25222804932281,50.280226558094625" fill="none" stroke="rgb(44,44,88)" stroke-width="0.1"/>
  <path d="M 63.25222804932281,50.280226558094625 L 63.06231909571176,50.744180048184774" fill="none" stroke="rgb(44,44,88)" stroke-width="0.1"/>
  <path d="M 63.06231909571176,50.744180048184774 L 62.87629319624398,51.20970407157739" fill="none" stroke="rgb(44,44,88)" stroke-width="0.1"/>
  <path d="M 62.87629319624398,51.20970407157739 L 62.69416333750388,51.67676612974924" fill="none" stroke="rgb(44,44,88)" stroke-width="0.1"/>
  <path d="M 62.69416333750388,51.67676612974924 L 62.515942234090744,52.145333616806" fill="none" stroke="rgb(44,44,88)" stroke-width="0.1"/>
  <path d="M 62.515942234090744,52.145333616806 L 62.341642327731336,52.615373821758226" fill="none" stroke="rgb(44,44,88)" stroke-width="0.1"/>
  <path d="M 62.341642327731336,52.615373821758226 L 62.171275786411115,53.08685393080532" fill="none" stroke="rgb(44,44,88)" stroke-width="0.1"/>
  <path d="M 62.171275786411115,53.08685393080532 L 62.00485450352488,53.559741029625854" fill="none" stroke="rgb(44,44,88)" stroke-width="0.1"/>
  <path d="M 62.00485450352488,53.559741029625854 L 61.84239009704646,54.034002105675825" fill="none" stroke="rgb(44,44,88)" stroke-width="0.1"/>
  <path d="M 61.84239009704646,54.034002105675825 L 61.68389390871778,54.50960405049284" fill="none" stroke="rgb(44,44,88)" stroke-width="0.1"/>
  <path d="M 61.68389390871778,54.50960405049284 L 61.52937700325674,54.98651366200761" fill="none" stroke="rgb(44,44,88)" stroke-width="0.1"/>
  <path d="M 61.52937700325674,54.98651366200761 L 61.378850167585256,55.464697646861964" fill="none" stroke="rgb(44,44,88)" stroke-width="0.1"/>
  <path d="M 61.378850167585256,55.464697646861964 L 61.23232391007582,55.94412262273278" fill="none" stroke="rgb(44,44,88)" stroke-width="0.1"/>
  <path d="M 61.23232391007582,55.94412262273278 L 61.08980845981813,56.42475512066267" fill="none" stroke="rgb(44,44,88)" stroke-width="0.1"/>
  <path d="M 61.08980845981813,56.42475512066267 L 60.951313765904956,56.90656158739631" fill="none" stroke="rgb(44,44,88)" stroke-width="0.1"/>
  <path d="M 60.951313765904956,56.90656158739631 L 60.816849496737404,57.389508387722856" fill="none" stroke="rgb(44,44,88)" stroke-width="0.1"/>
  <path d="M 60.816849496737404,57.389508387722856 L 60.6864250393503,57.87356180682423" fill="none" stroke="rgb(44,44,88)" stroke-width="0.1"/>
  <path d="M 60.6864250393503,57.87356180682423 L 60.560049498756484,58.35868805262845" fill="none" stroke="rgb(44,44,88)" stroke-width="0.1"/>
  <path d="M 60.560049498756484,58.35868805262845 L 60.43773169731156,58.84485325816877" fill="none" stroke="rgb(44,44,88)" stroke-width="0.1"/>
  <path d="M 60.43773169731156,58.84485325816877 L 60.31948017409775,59.33202348394832" fill="none" stroke="rgb(44,44,88)" stroke-width="0.1"/>
  <path d="M 60.31948017409775,59.33202348394832 L 60.205303184327875,59.82016472030881" fill="none" stroke="rgb(44,44,88)" stroke-width="0.1"/>
  <path d="M 60.205303184327875,59.82016472030881 L 60.09520869876894,60.309242889805205" fill="none" stroke="rgb(44,44,88)" stroke-width="0.1"/>
  <path d="M 60.09520869876894,60.309242889805205 L 59.98920440318585,60.79922384958468" fill="none" stroke="rgb(44,44,88)" stroke-width="0.1"/>
  <path d="M 59.98920440318585,60.79922384958468 L 59.8872976978048,61.29007339376983" fill="none" stroke="rgb(44,44,88)" stroke-width="0.1"/>
  <path d="M 59.8872976978048,61.29007339376983 L 59.78949569679662,61.78175725584714" fill="none" stroke="rgb(44,44,88)" stroke-width="0.1"/>
  <path d="M 59.78949569679662,61.78175725584714 L 59.69580522778023,62.274241111058586" fill="none" stroke="rgb(44,44,88)" stroke-width="0.1"/>
  <path d="M 59.69580522778023,62.274241111058586 L 59.60623283134572,62.76749057879823" fill="none" stroke="rgb(44,44,88)" stroke-width="0.1"/>
  <path d="M 59.60623283134572,62.76749057879823 L 59.5207847605983,63.2614712250122" fill="none" stroke="rgb(44,44,88)" stroke-width="0.1"/>
  <path d="M 59.5207847605983,63.2614712250122 L 59.43946698072108,63.75614856460271" fill="none" stroke="rgb(44,44,88)" stroke-width="0.1"/>
  <path d="M 59.43946698072108,63.75614856460271 L 59.362285168559254,64.25148806383515" fill="none" stroke="rgb(44,44,88)" stroke-width="0.1"/>
  <path d="M 59.362285168559254,64.25148806383515 L 59.28924471222331,64.74745514274929" fill="none" stroke="rgb(44,44,88)" stroke-width="0.1"/>
  <path d="M 59.28924471222331,64.74745514274929 L 59.220350710713205,65.24401517757326" fill="none" stroke="rgb(44,44,88)" stroke-width="0.1"/>
  <path d="M 59.220350710713205,65.24401517757326 L 59.15560797356227,65.74113350314042" fill="none" stroke="rgb(44,44,88)" stroke-width="0.1"/>
  <path d="M 59.15560797356227,65.74113350314042 L 59.09502102050158,66.23877541530942" fill="none" stroke="rgb(44,44,88)" stroke-width="0.1"/>
  <path d="M 59.09502102050158,66.23877541530942 L 59.03859408114408,66.73690617338724" fill="none" stroke="rgb(44,44,88)" stroke-width="0.1"/>
  <path d="M 59.03859408114408,66.73690617338724 L 58.986331094689774,67.23549100255411" fill="none" stroke="rgb(44,44,88)" stroke-width="0.1"/>
  <path d="M 58.986331094689774,67.23549100255411 L 58.93823570965043,67.7344950962912" fill="none" stroke="rgb(44,44,88)" stroke-width="0.1"/>
  <path d="M 58.93823570965043,67.7344950962912 L 58.8943112835949,68.23388361881064" fill="none" stroke="rgb(44,44,88)" stroke-width="0.1"/>
  <path d="M 58.8943112835949,68.23388361881064 L 58.85456088291494,68.73362170748732" fill="none" stroke="rgb(44,44,88)" stroke-width="0.1"/>
  <path d="M 58.85456088291494,68.73362170748732 L 58.818987282610806,69.23367447529273" fill="none" stroke="rgb(44,44,88)" stroke-width="0.1"/>
  <path d="M 58.818987282610806,69.23367447529273 L 58.787592966097804,69.73400701323038" fill="none" stroke="rgb(44,44,88)" stroke-width="0.1"/>
  <path d="M 58.787592966097804,69.73400701323038 L 58.76038012503284,70.23458439277283" fill="none" stroke="rgb(44,44,88)" stroke-width="0.1"/>
  <path d="M 58.76038012503284,70.23458439277283 L 58.737350659161336,70.73537166830022" fill="none" stroke="rgb(44,44,88)" stroke-width="0.1"/>
  <path d="M 58.737350659161336,70.73537166830022 L 58.718506176184746,71.23633387953953" fill="none" stroke="rgb(44,44,88)" stroke-width="0.1"/>
  <path d="M 58.718506176184746,71.23633387953953 L 58.703847991648104,71.73743605400557" fill="none" stroke="rgb(44,44,88)" stroke-width="0.1"/>
  <path d="M 58.703847991648104,71.73743605400557 L 58.69337712884857,72.23864320944199" fill="none" stroke="rgb(44,44,88)" stroke-width="0.1"/>
  <path d="M 58.69337712884857,72.23864320944199 L 58.68709431876357,72.73992035626384" fill="none" stroke="rgb(44,44,88)" stroke-width="0.1"/>
  <path d="M 58.68709431876357,72.73992035626384 L 58.685,73.24123250000002" fill="none" stroke="rgb(44,44,88)" stroke-width="0.1"/>
  <path d="M 81.10787515396964,0.0168638512265602 L 81.50000666238532,0.3291956167196872" fill="none" stroke="rgb(44,44,88)" stroke-width="0.1"/>
  <path d="M 81.50000666238532,0.3291956167196872 L 81.89473407844338,0.638240142056361" fill="none" stroke="rgb(44,44,88)" stroke-width="0.1"/>
  <path d="M 81.89473407844338,0.638240142056361 L 82.29202984597595,0.9439758526449964" fill="none" stroke="rgb(44,44,88)" stroke-width="0.1"/>
  <path d="M 82.29202984597595,0.9439758526449964 L 82.69186622951707,1.2463814048844029" fill="none" stroke="rgb(44,44,88)" stroke-width="0.1"/>
  <path d="M 82.69186622951707,1.2463814048844029 L 83.09421531623872,1.5454356876538213" fill="none" stroke="rgb(44,44,88)" stroke-width="0.1"/>
  <path d="M 83.09421531623872,1.5454356876538213 L 83.49904901789944,1.8411178237867034" fill="none" stroke="rgb(44,44,88)" stroke-width="0.1"/>
  <path d="M 83.49904901789944,1.8411178237867034 L 83.90633907280534,2.1334071715282334" fill="none" stroke="rgb(44,44,88)" stroke-width="0.1"/>
  <path d="M 83.90633907280534,2.1334071715282334 L 84.31605704778303,2.4222833259762524" fill="none" stroke="rgb(44,44,88)" stroke-width="0.1"/>
  <path d="M 84.31605704778303,2.4222833259762524 L 84.72817434016429,2.70772612050564" fill="none" stroke="rgb(44,44,88)" stroke-width="0.1"/>
  <path d="M 84.72817434016429,2.70772612050564 L 85.14266217978326,2.989715628176498" fill="none" stroke="rgb(44,44,88)" stroke-width="0.1"/>
  <path d="M 85.14266217978326,2.989715628176498 L 85.55949163098461,3.2682321631248215" fill="none" stroke="rgb(44,44,88)" stroke-width="0.1"/>
  <path d="M 85.55949163098461,3.2682321631248215 L 85.97863359464361,3.5432562819372038" fill="none" stroke="rgb(44,44,88)" stroke-width="0.1"/>
  <path d="M 85.97863359464361,3.5432562819372038 L 86.40005881019766,3.814768785007857" fill="none" stroke="rgb(44,44,88)" stroke-width="0.1"/>
  <path d="M 86.40005881019766,3.814768785007857 L 86.8237378576888,4.082750717879094" fill="none" stroke="rgb(44,44,88)" stroke-width="0.1"/>
  <path d="M 86.8237378576888,4.082750717879094 L 87.24964115981788,4.3471833725645865" fill="none" stroke="rgb(44,44,88)" stroke-width="0.1"/>
  <path d="M 87.24964115981788,4.3471833725645865 L 87.6777389840089,4.608048288855343" fill="none" stroke="rgb(44,44,88)" stroke-width="0.1"/>
  <path d="M 87.6777389840089,4.608048288855343 L 88.10800144448496,4.865327255608406" fill="none" stroke="rgb(44,44,88)" stroke-width="0.1"/>
  <path d="M 88.10800144448496,4.865327255608406 L 88.54039850435464,5.119002312018154" fill="none" stroke="rgb(44,44,88)" stroke-width="0.1"/>
  <path d="M 88.54039850435464,5.119002312018154 L 88.97489997770879,5.36905574887021" fill="none" stroke="rgb(44,44,88)" stroke-width="0.1"/>
  <path d="M 88.97489997770879,5.36905574887021 L 89.41147553172772,5.615470109777846" fill="none" stroke="rgb(44,44,88)" stroke-width="0.1"/>
  <path d="M 89.41147553172772,5.615470109777846 L 89.850094688799,5.858228192400304" fill="none" stroke="rgb(44,44,88)" stroke-width="0.1"/>
  <path d="M 89.850094688799,5.858228192400304 L 90.29072682864484,6.097313049644072" fill="none" stroke="rgb(44,44,88)" stroke-width="0.1"/>
  <path d="M 90.29072682864484,6.097313049644072 L 90.73334119046012,6.3327079908457335" fill="none" stroke="rgb(44,44,88)" stroke-width="0.1"/>
  <path d="M 90.73334119046012,6.3327079908457335 L 91.1779068750593,6.564396582937206" fill="none" stroke="rgb(44,44,88)" stroke-width="0.1"/>
  <path d="M 91.1779068750593,6.564396582937206 L 91.6243928470339,6.792362651592896" fill="none" stroke="rgb(44,44,88)" stroke-width="0.1"/>
  <path d="M 91.6243928470339,6.792362651592896 L 92.07276793691898,7.016590282359061" fill="none" stroke="rgb(44,44,88)" stroke-width="0.1"/>
  <path d="M 92.07276793691898,7.016590282359061 L 92.523000843369,7.23706382176448" fill="none" stroke="rgb(44,44,88)" stroke-width="0.1"/>
  <path d="M 92.523000843369,7.23706382176448 L 92.97506013534331,7.453767878413544" fill="none" stroke="rgb(44,44,88)" stroke-width="0.1"/>
  <path d="M 92.97506013534331,7.453767878413544 L 93.42891425429991,7.66668732406049" fill="none" stroke="rgb(44,44,88)" stroke-width="0.1"/>
  <path d="M 93.42891425429991,7.66668732406049 L 93.88453151639885,7.875807294665606" fill="none" stroke="rgb(44,44,88)" stroke-width="0.1"/>
  <path d="M 93.88453151639885,7.875807294665606 L 94.34188011471417,8.081113191432962" fill="none" stroke="rgb(44,44,88)" stroke-width="0.1"/>
  <path d="M 94.34188011471417,8.081113191432962 L 94.80092812145415,8.28259068182956" fill="none" stroke="rgb(44,44,88)" stroke-width="0.1"/>
  <path d="M 94.80092812145415,8.28259068182956 L 95.2616434901903,8.480225700585777" fill="none" stroke="rgb(44,44,88)" stroke-width="0.1"/>
  <path d="M 95.2616434901903,8.480225700585777 L 95.7239940580946,8.674004450677216" fill="none" stroke="rgb(44,44,88)" stroke-width="0.1"/>
  <path d="M 95.7239940580946,8.674004450677216 L 96.18794754818475,8.863913404288269" fill="none" stroke="rgb(44,44,88)" stroke-width="0.1"/>
  <path d="M 96.18794754818475,8.863913404288269 L 96.65347157157737,9.049939303756048" fill="none" stroke="rgb(44,44,88)" stroke-width="0.1"/>
  <path d="M 96.65347157157737,9.049939303756048 L 97.12053362974922,9.232069162496202" fill="none" stroke="rgb(44,44,88)" stroke-width="0.1"/>
  <path d="M 97.12053362974922,9.232069162496202 L 97.58910111680598,9.410290265909282" fill="none" stroke="rgb(44,44,88)" stroke-width="0.1"/>
  <path d="M 97.58910111680598,9.410290265909282 L 98.0591413217582,9.58459017226869" fill="none" stroke="rgb(44,44,88)" stroke-width="0.1"/>
  <path d="M 98.0591413217582,9.58459017226869 L 98.5306214308053,9.75495671358891" fill="none" stroke="rgb(44,44,88)" stroke-width="0.1"/>
  <path d="M 98.5306214308053,9.75495671358891 L 99.00350852962589,9.921377996475144" fill="none" stroke="rgb(44,44,88)" stroke-width="0.1"/>
  <path d="M 99.00350852962589,9.921377996475144 L 99.4777696056758,10.083842402953564" fill="none" stroke="rgb(44,44,88)" stroke-width="0.1"/>
  <path d="M 99.4777696056758,10.083842402953564 L 99.95337155049282,10.242338591282248" fill="none" stroke="rgb(44,44,88)" stroke-width="0.1"/>
 </g>
 <g id="layer立体车位" inkscape:groupmode="layer" inkscape:label="立体车位">
  <path d="M 100.0,90.09745891509431 L 87.96000000000004,73.74123250000002" fill="none" stroke="rgb(0,178,178)" stroke-width="0.1"/>
  <path d="M 10.630629479166714,100.0 L 29.960000000000036,73.74123250000002" fill="none" stroke="rgb(0,178,178)" stroke-width="0.1"/>
 </g>
 <g id="layer车位" inkscape:groupmode="layer" inkscape:label="车位">
  <path d="M 87.96000000000004,100.0 L 87.96000000000004,97.74123250000002" fill="none" instance-id="-1" semantic-id="35" stroke="rgb(0,178,178)" stroke-width="0.1"/>
  <path d="M 87.96000000000004,97.74123250000002 L 100.0,97.74123250000002" fill="none" instance-id="-1" semantic-id="35" stroke="rgb(0,178,178)" stroke-width="0.1"/>
  <path d="M 87.96000000000004,97.74123250000002 L 87.96000000000004,73.74123250000002" fill="none" instance-id="-1" semantic-id="35" stroke="rgb(0,178,178)" stroke-width="0.1"/>
  <path d="M 87.96000000000004,73.74123250000002 L 100.0,73.74123250000002" fill="none" instance-id="-1" semantic-id="35" stroke="rgb(0,178,178)" stroke-width="0.1"/>
  <path d="M 100.0,97.74123250000002 L 87.96000000000004,97.74123250000002" fill="none" instance-id="-1" semantic-id="35" stroke="rgb(0,178,178)" stroke-width="0.1"/>
  <path d="M 29.960000000000036,100.0 L 29.960000000000036,97.74123250000002" fill="none" instance-id="-1" semantic-id="35" stroke="rgb(0,178,178)" stroke-width="0.1"/>
  <path d="M 29.960000000000036,97.74123250000002 L 0.0,97.74123250000002" fill="none" instance-id="-1" semantic-id="35" stroke="rgb(0,178,178)" stroke-width="0.1"/>
  <path d="M 29.960000000000036,97.74123250000002 L 29.960000000000036,73.74123250000002" fill="none" instance-id="-1" semantic-id="35" stroke="rgb(0,178,178)" stroke-width="0.1"/>
  <path d="M 29.960000000000036,73.74123250000002 L 0.0,73.74123250000002" fill="none" instance-id="-1" semantic-id="35" stroke="rgb(0,178,178)" stroke-width="0.1"/>
  <path d="M 0.0,97.74123250000002 L 29.960000000000036,97.74123250000002" fill="none" instance-id="-1" semantic-id="35" stroke="rgb(0,178,178)" stroke-width="0.1"/>
 </g>
</svg>