<?xml version="1.0" encoding="utf-8"?>
<svg style="background-color: #000;" version="1.1" viewBox="0 0 100.0 100.0" xmlns="http://www.w3.org/2000/svg" xmlns:inkscape="http://www.inkscape.org/namespaces/inkscape">
 <g id="layerA-COLUMN" inkscape:groupmode="layer" inkscape:label="A-COLUMN">
  <path d="M 53.46000000000001,6.260003999999981 L 60.46000000000001,6.260003999999981" fill="none" stroke="rgb(178,0,0)" stroke-width="0.1"/>
  <path d="M 60.46000000000001,6.260003999999981 L 60.46000000000001,0.0" fill="none" stroke="rgb(178,0,0)" stroke-width="0.1"/>
  <path d="M 53.46000000000001,0.0 L 53.46000000000001,6.260003999999981" fill="none" stroke="rgb(178,0,0)" stroke-width="0.1"/>
  <path d="M 51.96000000000001,96.76000399999998 L 61.96000000000001,96.76000399999998" fill="none" stroke="rgb(178,0,0)" stroke-width="0.1"/>
  <path d="M 61.96000000000001,96.76000399999998 L 61.96000000000001,78.26000399999998" fill="none" stroke="rgb(178,0,0)" stroke-width="0.1"/>
  <path d="M 61.96000000000001,78.26000399999998 L 51.96000000000001,78.26000399999998" fill="none" stroke="rgb(178,0,0)" stroke-width="0.1"/>
  <path d="M 51.96000000000001,78.26000399999998 L 51.96000000000001,96.76000399999998" fill="none" stroke="rgb(178,0,0)" stroke-width="0.1"/>
 </g>
 <g id="layerA-DIM_LEAD" inkscape:groupmode="layer" inkscape:label="A-DIM_LEAD">
  <path d="M 91.14100000000002,0.6977039999999803 L 91.73840698693738,0.0" fill="none" stroke="rgb(0,178,0)" stroke-width="0.1"/>
  <path d="M 91.01100000000002,0.849603999999978 A 0.2,0.2 0.0 1,0 91.27100000000002,0.5458039999999826" fill="none" stroke="rgb(0,178,0)" stroke-width="0.1"/>
  <path d="M 91.27100000000002,0.5458039999999826 A 0.2,0.2 0.0 0,0 91.01100000000002,0.849603999999978" fill="none" stroke="rgb(0,178,0)" stroke-width="0.1"/>
 </g>
 <g id="layerA-DOOR" inkscape:groupmode="layer" inkscape:label="A-DOOR">
  <path d="M 0.0,3.760003999999981 L 53.46000000000001,3.760003999999981" fill="none" stroke="rgb(53,133,160)" stroke-width="0.1"/>
 </g>
 <g id="layerA-DOTE" inkscape:groupmode="layer" inkscape:label="A-DOTE">
  <path d="M 56.96000000000001,0.0 L 56.96000000000001,100.0" fill="none" stroke="rgb(107,0,0)" stroke-width="0.1"/>
  <path d="M 0.0,3.760003999999981 L 100.0,3.760003999999981" fill="none" stroke="rgb(107,0,0)" stroke-width="0.1"/>
  <path d="M 0.0,81.76000399999998 L 100.0,81.76000399999998" fill="none" stroke="rgb(107,0,0)" stroke-width="0.1"/>
  <path d="M 0.0,87.76000399999998 L 100.0,87.76000399999998" fill="none" stroke="rgb(107,0,0)" stroke-width="0.1"/>
 </g>
 <g id="layerA-PKNG-TSRP" inkscape:groupmode="layer" inkscape:label="A-PKNG-TSRP">
  <path d="M 58.96000000000001,100.0 L 58.96000000000001,96.76000399999998" fill="none" instance-id="-1" semantic-id="35" stroke="rgb(44,88,77)" stroke-width="0.1"/>
  <path d="M 58.96000000000001,96.76000399999998 L 100.0,96.76000399999998" fill="none" instance-id="-1" semantic-id="35" stroke="rgb(44,88,77)" stroke-width="0.1"/>
  <path d="M 65.76000000000002,100.0 L 65.76000000000002,99.76000399999998" fill="none" instance-id="-1" semantic-id="35" stroke="rgb(44,88,77)" stroke-width="0.1"/>
  <path d="M 65.76000000000002,99.76000399999998 L 64.26000000000002,99.76000399999998" fill="none" instance-id="-1" semantic-id="35" stroke="rgb(44,88,77)" stroke-width="0.1"/>
  <path d="M 64.26000000000002,99.76000399999998 L 64.26000000000002,100.0" fill="none" instance-id="-1" semantic-id="35" stroke="rgb(44,88,77)" stroke-width="0.1"/>
 </g>
 <g id="layerA-PUB_DIM" inkscape:groupmode="layer" inkscape:label="A-PUB_DIM">
  <path d="M 88.50900000000001,3.760003999999981 L 93.38600000000002,3.760003999999981" fill="none" stroke="rgb(0,142,142)" stroke-width="0.1"/>
  <path d="M 88.50900000000001,1.2600039999999808 L 93.38600000000002,1.2600039999999808" fill="none" stroke="rgb(0,142,142)" stroke-width="0.1"/>
  <path d="M 90.88600000000002,3.760003999999981 L 90.88600000000002,4.760003999999981" fill="none" stroke="rgb(0,142,142)" stroke-width="0.1"/>
  <path d="M 90.88600000000002,1.2600039999999808 L 90.88600000000002,0.2600039999999808" fill="none" stroke="rgb(0,142,142)" stroke-width="0.1"/>
  <path d="M 90.88600000000002,3.760003999999981 L 90.88600000000002,1.2600039999999808" fill="none" stroke="rgb(0,142,142)" stroke-width="0.1"/>
  <text fill="rgb(0,142,142)" font-family="Noto Sans CJK SC" font-size="2" transform="rotate(-90.0,94.69800000000004,7.945803999999981)" x="94.69800000000004" y="7.945803999999981">
   250
  </text>
 </g>
 <g id="layerA-WINDOW_TEXT" inkscape:groupmode="layer" inkscape:label="A-WINDOW_TEXT">
  <text fill="rgb(0,0,0)" font-family="Noto Sans CJK SC" font-size="2" transform="rotate(-0.0,10.375000000000028,8.997503999999978)" x="10.375000000000028" y="8.997503999999978">
   FJM7739
  </text>
 </g>
 <g id="layerA_WALL" inkscape:groupmode="layer" inkscape:label="A_WALL">
  <path d="M 82.21000000000001,0.2600039999999808 L 92.21000000000001,0.2600039999999808" fill="none" stroke="rgb(134,134,134)" stroke-width="0.1"/>
  <path d="M 82.21000000000001,2.260003999999981 L 92.21000000000001,2.260003999999981" fill="none" stroke="rgb(134,134,134)" stroke-width="0.1"/>
  <path d="M 82.21000000000001,0.2600039999999808 L 82.21000000000001,2.260003999999981" fill="none" stroke="rgb(134,134,134)" stroke-width="0.1"/>
  <path d="M 92.21000000000001,0.2600039999999808 L 92.21000000000001,2.260003999999981" fill="none" stroke="rgb(134,134,134)" stroke-width="0.1"/>
 </g>
 <g id="layerPUB_HATCH" inkscape:groupmode="layer" inkscape:label="PUB_HATCH">
  <path d="M 97.21000000000004,0.0 L 97.21000000000004,1.7600039999999808" fill="none" instance-id="-1" semantic-id="1" stroke="rgb(89,89,89)" stroke-width="0.1"/>
  <path d="M 97.21000000000004,1.7600039999999808 L 100.0,1.7600039999999808" fill="none" instance-id="-1" semantic-id="1" stroke="rgb(89,89,89)" stroke-width="0.1"/>
  <path d="M 77.21000000000001,3.760003999999981 L 82.21000000000001,3.760003999999981" fill="none" instance-id="-1" semantic-id="1" stroke="rgb(89,89,89)" stroke-width="0.1"/>
  <path d="M 82.21000000000001,3.760003999999981 L 82.21000000000001,0.0" fill="none" instance-id="-1" semantic-id="1" stroke="rgb(89,89,89)" stroke-width="0.1"/>
  <path d="M 77.21000000000001,0.0 L 77.21000000000001,3.760003999999981" fill="none" instance-id="-1" semantic-id="1" stroke="rgb(89,89,89)" stroke-width="0.1"/>
  <path d="M 92.21000000000001,0.0 L 92.21000000000001,3.760003999999981" fill="none" instance-id="-1" semantic-id="1" stroke="rgb(89,89,89)" stroke-width="0.1"/>
  <path d="M 92.21000000000001,3.760003999999981 L 97.21000000000004,3.760003999999981" fill="none" instance-id="-1" semantic-id="1" stroke="rgb(89,89,89)" stroke-width="0.1"/>
  <path d="M 97.21000000000004,3.760003999999981 L 97.21000000000004,0.0" fill="none" instance-id="-1" semantic-id="1" stroke="rgb(89,89,89)" stroke-width="0.1"/>
  <path d="M 53.46000000000001,1.7600039999999808 L 77.21000000000001,1.7600039999999808" fill="none" instance-id="-1" semantic-id="1" stroke="rgb(89,89,89)" stroke-width="0.1"/>
  <path d="M 77.21000000000001,1.7600039999999808 L 77.21000000000001,0.0" fill="none" instance-id="-1" semantic-id="1" stroke="rgb(89,89,89)" stroke-width="0.1"/>
  <path d="M 53.46000000000001,0.0 L 53.46000000000001,1.7600039999999808" fill="none" instance-id="-1" semantic-id="1" stroke="rgb(89,89,89)" stroke-width="0.1"/>
 </g>
 <g id="layerPUB_WALL" inkscape:groupmode="layer" inkscape:label="PUB_WALL">
  <path d="M 100.0,1.3600039999999822 L 97.21000000000004,1.3600039999999822" fill="none" stroke="rgb(134,134,134)" stroke-width="0.1"/>
  <path d="M 97.21000000000004,1.3600039999999822 L 97.21000000000004,1.7600039999999808" fill="none" stroke="rgb(134,134,134)" stroke-width="0.1"/>
  <path d="M 97.21000000000004,1.7600039999999808 L 100.0,1.7600039999999808" fill="none" stroke="rgb(134,134,134)" stroke-width="0.1"/>
  <path d="M 97.21000000000004,1.7600039999999808 L 97.61000000000001,1.7600039999999808" fill="none" stroke="rgb(134,134,134)" stroke-width="0.1"/>
  <path d="M 97.61000000000001,1.7600039999999808 L 97.61000000000001,0.0" fill="none" stroke="rgb(134,134,134)" stroke-width="0.1"/>
  <path d="M 97.21000000000004,0.0 L 97.21000000000004,1.7600039999999808" fill="none" stroke="rgb(134,134,134)" stroke-width="0.1"/>
  <path d="M 77.21000000000001,3.760003999999981 L 82.21000000000001,3.760003999999981" fill="none" stroke="rgb(134,134,134)" stroke-width="0.1"/>
  <path d="M 82.21000000000001,3.760003999999981 L 81.81000000000003,3.3600039999999822" fill="none" stroke="rgb(134,134,134)" stroke-width="0.1"/>
  <path d="M 81.81000000000003,3.3600039999999822 L 77.61000000000001,3.3600039999999822" fill="none" stroke="rgb(134,134,134)" stroke-width="0.1"/>
  <path d="M 77.61000000000001,3.3600039999999822 L 77.21000000000001,3.760003999999981" fill="none" stroke="rgb(134,134,134)" stroke-width="0.1"/>
  <path d="M 82.21000000000001,3.760003999999981 L 82.21000000000001,0.0" fill="none" stroke="rgb(134,134,134)" stroke-width="0.1"/>
  <path d="M 81.81000000000003,0.0 L 81.81000000000003,3.3600039999999822" fill="none" stroke="rgb(134,134,134)" stroke-width="0.1"/>
  <path d="M 81.81000000000003,3.3600039999999822 L 82.21000000000001,3.760003999999981" fill="none" stroke="rgb(134,134,134)" stroke-width="0.1"/>
  <path d="M 77.21000000000001,3.760003999999981 L 77.61000000000001,3.3600039999999822" fill="none" stroke="rgb(134,134,134)" stroke-width="0.1"/>
  <path d="M 77.61000000000001,3.3600039999999822 L 77.61000000000001,0.0" fill="none" stroke="rgb(134,134,134)" stroke-width="0.1"/>
  <path d="M 77.21000000000001,0.0 L 77.21000000000001,3.760003999999981" fill="none" stroke="rgb(134,134,134)" stroke-width="0.1"/>
  <path d="M 92.21000000000001,3.760003999999981 L 92.61000000000001,3.3600039999999822" fill="none" stroke="rgb(134,134,134)" stroke-width="0.1"/>
  <path d="M 92.61000000000001,3.3600039999999822 L 92.61000000000001,0.0" fill="none" stroke="rgb(134,134,134)" stroke-width="0.1"/>
  <path d="M 92.21000000000001,0.0 L 92.21000000000001,3.760003999999981" fill="none" stroke="rgb(134,134,134)" stroke-width="0.1"/>
  <path d="M 92.21000000000001,3.760003999999981 L 97.21000000000004,3.760003999999981" fill="none" stroke="rgb(134,134,134)" stroke-width="0.1"/>
  <path d="M 97.21000000000004,3.760003999999981 L 96.81,3.3600039999999822" fill="none" stroke="rgb(134,134,134)" stroke-width="0.1"/>
  <path d="M 96.81,3.3600039999999822 L 92.61000000000001,3.3600039999999822" fill="none" stroke="rgb(134,134,134)" stroke-width="0.1"/>
  <path d="M 92.61000000000001,3.3600039999999822 L 92.21000000000001,3.760003999999981" fill="none" stroke="rgb(134,134,134)" stroke-width="0.1"/>
  <path d="M 97.21000000000004,3.760003999999981 L 97.21000000000004,0.0" fill="none" stroke="rgb(134,134,134)" stroke-width="0.1"/>
  <path d="M 96.81,0.0 L 96.81,3.3600039999999822" fill="none" stroke="rgb(134,134,134)" stroke-width="0.1"/>
  <path d="M 96.81,3.3600039999999822 L 97.21000000000004,3.760003999999981" fill="none" stroke="rgb(134,134,134)" stroke-width="0.1"/>
  <path d="M 31.460000000000008,0.0 L 31.460000000000008,1.7600039999999808" fill="none" stroke="rgb(134,134,134)" stroke-width="0.1"/>
  <path d="M 31.460000000000008,1.7600039999999808 L 31.860000000000014,1.7600039999999808" fill="none" stroke="rgb(134,134,134)" stroke-width="0.1"/>
  <path d="M 31.860000000000014,1.7600039999999808 L 31.860000000000014,0.0" fill="none" stroke="rgb(134,134,134)" stroke-width="0.1"/>
  <path d="M 53.46000000000001,1.7600039999999808 L 77.21000000000001,1.7600039999999808" fill="none" stroke="rgb(134,134,134)" stroke-width="0.1"/>
  <path d="M 77.21000000000001,1.7600039999999808 L 77.21000000000001,1.3600039999999822" fill="none" stroke="rgb(134,134,134)" stroke-width="0.1"/>
  <path d="M 77.21000000000001,1.3600039999999822 L 53.46000000000001,1.3600039999999822" fill="none" stroke="rgb(134,134,134)" stroke-width="0.1"/>
  <path d="M 53.46000000000001,1.3600039999999822 L 53.46000000000001,1.7600039999999808" fill="none" stroke="rgb(134,134,134)" stroke-width="0.1"/>
  <path d="M 76.81000000000003,0.0 L 76.81000000000003,1.7600039999999808" fill="none" stroke="rgb(134,134,134)" stroke-width="0.1"/>
  <path d="M 76.81000000000003,1.7600039999999808 L 77.21000000000001,1.7600039999999808" fill="none" stroke="rgb(134,134,134)" stroke-width="0.1"/>
  <path d="M 77.21000000000001,1.7600039999999808 L 77.21000000000001,0.0" fill="none" stroke="rgb(134,134,134)" stroke-width="0.1"/>
  <path d="M 53.46000000000001,6.260003999999981 L 60.46000000000001,6.260003999999981" fill="none" stroke="rgb(134,134,134)" stroke-width="0.1"/>
  <path d="M 60.46000000000001,6.260003999999981 L 60.06000000000003,5.860003999999982" fill="none" stroke="rgb(134,134,134)" stroke-width="0.1"/>
  <path d="M 60.06000000000003,5.860003999999982 L 53.860000000000014,5.860003999999982" fill="none" stroke="rgb(134,134,134)" stroke-width="0.1"/>
  <path d="M 53.860000000000014,5.860003999999982 L 53.46000000000001,6.260003999999981" fill="none" stroke="rgb(134,134,134)" stroke-width="0.1"/>
  <path d="M 60.46000000000001,6.260003999999981 L 60.46000000000001,0.0" fill="none" stroke="rgb(134,134,134)" stroke-width="0.1"/>
  <path d="M 60.06000000000003,0.0 L 60.06000000000003,5.860003999999982" fill="none" stroke="rgb(134,134,134)" stroke-width="0.1"/>
  <path d="M 60.06000000000003,5.860003999999982 L 60.46000000000001,6.260003999999981" fill="none" stroke="rgb(134,134,134)" stroke-width="0.1"/>
  <path d="M 53.46000000000001,0.0 L 53.46000000000001,6.260003999999981" fill="none" stroke="rgb(134,134,134)" stroke-width="0.1"/>
  <path d="M 53.46000000000001,6.260003999999981 L 53.860000000000014,5.860003999999982" fill="none" stroke="rgb(134,134,134)" stroke-width="0.1"/>
  <path d="M 53.860000000000014,5.860003999999982 L 53.860000000000014,0.0" fill="none" stroke="rgb(134,134,134)" stroke-width="0.1"/>
  <path d="M 51.96000000000001,96.76000399999998 L 61.96000000000001,96.76000399999998" fill="none" stroke="rgb(134,134,134)" stroke-width="0.1"/>
  <path d="M 61.96000000000001,96.76000399999998 L 61.56000000000003,96.36000399999998" fill="none" stroke="rgb(134,134,134)" stroke-width="0.1"/>
  <path d="M 61.56000000000003,96.36000399999998 L 52.360000000000014,96.36000399999998" fill="none" stroke="rgb(134,134,134)" stroke-width="0.1"/>
  <path d="M 52.360000000000014,96.36000399999998 L 51.96000000000001,96.76000399999998" fill="none" stroke="rgb(134,134,134)" stroke-width="0.1"/>
  <path d="M 61.96000000000001,78.26000399999998 L 61.56000000000003,78.66000399999999" fill="none" stroke="rgb(134,134,134)" stroke-width="0.1"/>
  <path d="M 61.56000000000003,78.66000399999999 L 61.56000000000003,96.36000399999998" fill="none" stroke="rgb(134,134,134)" stroke-width="0.1"/>
  <path d="M 61.56000000000003,96.36000399999998 L 61.96000000000001,96.76000399999998" fill="none" stroke="rgb(134,134,134)" stroke-width="0.1"/>
  <path d="M 61.96000000000001,96.76000399999998 L 61.96000000000001,78.26000399999998" fill="none" stroke="rgb(134,134,134)" stroke-width="0.1"/>
  <path d="M 51.96000000000001,78.26000399999998 L 52.360000000000014,78.66000399999999" fill="none" stroke="rgb(134,134,134)" stroke-width="0.1"/>
  <path d="M 52.360000000000014,78.66000399999999 L 61.56000000000003,78.66000399999999" fill="none" stroke="rgb(134,134,134)" stroke-width="0.1"/>
  <path d="M 61.56000000000003,78.66000399999999 L 61.96000000000001,78.26000399999998" fill="none" stroke="rgb(134,134,134)" stroke-width="0.1"/>
  <path d="M 61.96000000000001,78.26000399999998 L 51.96000000000001,78.26000399999998" fill="none" stroke="rgb(134,134,134)" stroke-width="0.1"/>
  <path d="M 51.96000000000001,78.26000399999998 L 51.96000000000001,96.76000399999998" fill="none" stroke="rgb(134,134,134)" stroke-width="0.1"/>
  <path d="M 51.96000000000001,96.76000399999998 L 52.360000000000014,96.36000399999998" fill="none" stroke="rgb(134,134,134)" stroke-width="0.1"/>
  <path d="M 52.360000000000014,96.36000399999998 L 52.360000000000014,78.66000399999999" fill="none" stroke="rgb(134,134,134)" stroke-width="0.1"/>
  <path d="M 52.360000000000014,78.66000399999999 L 51.96000000000001,78.26000399999998" fill="none" stroke="rgb(134,134,134)" stroke-width="0.1"/>
  <path d="M 82.21000000000001,0.6600039999999794 L 92.21000000000001,0.6600039999999794" fill="none" stroke="rgb(134,134,134)" stroke-width="0.1"/>
  <path d="M 92.21000000000001,0.6600039999999794 L 92.21000000000001,0.2600039999999808" fill="none" stroke="rgb(134,134,134)" stroke-width="0.1"/>
  <path d="M 92.21000000000001,0.2600039999999808 L 82.21000000000001,0.2600039999999808" fill="none" stroke="rgb(134,134,134)" stroke-width="0.1"/>
  <path d="M 82.21000000000001,0.2600039999999808 L 82.21000000000001,0.6600039999999794" fill="none" stroke="rgb(134,134,134)" stroke-width="0.1"/>
  <path d="M 82.21000000000001,2.260003999999981 L 92.21000000000001,2.260003999999981" fill="none" stroke="rgb(134,134,134)" stroke-width="0.1"/>
  <path d="M 92.21000000000001,2.260003999999981 L 92.21000000000001,1.8600039999999822" fill="none" stroke="rgb(134,134,134)" stroke-width="0.1"/>
  <path d="M 92.21000000000001,1.8600039999999822 L 82.21000000000001,1.8600039999999822" fill="none" stroke="rgb(134,134,134)" stroke-width="0.1"/>
  <path d="M 82.21000000000001,1.8600039999999822 L 82.21000000000001,2.260003999999981" fill="none" stroke="rgb(134,134,134)" stroke-width="0.1"/>
  <path d="M 82.21000000000001,2.260003999999981 L 82.61000000000001,2.260003999999981" fill="none" stroke="rgb(134,134,134)" stroke-width="0.1"/>
  <path d="M 82.61000000000001,2.260003999999981 L 82.61000000000001,0.2600039999999808" fill="none" stroke="rgb(134,134,134)" stroke-width="0.1"/>
  <path d="M 82.61000000000001,0.2600039999999808 L 82.21000000000001,0.2600039999999808" fill="none" stroke="rgb(134,134,134)" stroke-width="0.1"/>
  <path d="M 82.21000000000001,0.2600039999999808 L 82.21000000000001,2.260003999999981" fill="none" stroke="rgb(134,134,134)" stroke-width="0.1"/>
  <path d="M 91.81000000000003,0.2600039999999808 L 91.81000000000003,2.260003999999981" fill="none" stroke="rgb(134,134,134)" stroke-width="0.1"/>
  <path d="M 91.81000000000003,2.260003999999981 L 92.21000000000001,2.260003999999981" fill="none" stroke="rgb(134,134,134)" stroke-width="0.1"/>
  <path d="M 92.21000000000001,2.260003999999981 L 92.21000000000001,0.2600039999999808" fill="none" stroke="rgb(134,134,134)" stroke-width="0.1"/>
  <path d="M 92.21000000000001,0.2600039999999808 L 91.81000000000003,0.2600039999999808" fill="none" stroke="rgb(134,134,134)" stroke-width="0.1"/>
 </g>
 <g id="layerWINDOW" inkscape:groupmode="layer" inkscape:label="WINDOW">
  <path d="M 82.21000000000001,3.760003999999981 L 92.21000000000001,3.760003999999981" fill="none" instance-id="4" semantic-id="3" stroke="rgb(53,133,160)" stroke-width="0.1"/>
  <path d="M 82.21000000000001,3.135003999999981 L 90.87000000000003,8.13500399999998" fill="none" instance-id="4" semantic-id="3" stroke="rgb(53,133,160)" stroke-width="0.1"/>
  <path d="M 82.21000000000001,0.2600039999999808 L 82.66032692799999,0.0" fill="none" instance-id="4" semantic-id="3" stroke="rgb(53,133,160)" stroke-width="0.1"/>
 </g>
 <g id="layerWINDOW_TEXT" inkscape:groupmode="layer" inkscape:label="WINDOW_TEXT">
  <text fill="rgb(0,0,0)" font-family="Noto Sans CJK SC" font-size="2" transform="rotate(-0.0,79.27600000000001,13.335903999999985)" x="79.27600000000001" y="13.335903999999985">
   HFM1020(6)
  </text>
  <text fill="rgb(0,0,0)" font-family="Noto Sans CJK SC" font-size="2" transform="rotate(-0.0,92.436,13.335903999999985)" x="92.436" y="13.335903999999985">
   左
  </text>
 </g>
 <g id="layer人防墙" inkscape:groupmode="layer" inkscape:label="人防墙">
  <path d="M 97.21000000000004,1.7600039999999808 L 100.0,1.7600039999999808" fill="none" instance-id="-1" semantic-id="1" stroke="rgb(160,53,79)" stroke-width="0.1"/>
  <path d="M 97.21000000000004,0.0 L 97.21000000000004,1.7600039999999808" fill="none" instance-id="-1" semantic-id="1" stroke="rgb(160,53,79)" stroke-width="0.1"/>
  <path d="M 77.21000000000001,3.760003999999981 L 82.21000000000001,3.760003999999981" fill="none" instance-id="-1" semantic-id="1" stroke="rgb(160,53,79)" stroke-width="0.1"/>
  <path d="M 82.21000000000001,3.760003999999981 L 82.21000000000001,0.0" fill="none" instance-id="-1" semantic-id="1" stroke="rgb(160,53,79)" stroke-width="0.1"/>
  <path d="M 77.21000000000001,0.0 L 77.21000000000001,3.760003999999981" fill="none" instance-id="-1" semantic-id="1" stroke="rgb(160,53,79)" stroke-width="0.1"/>
  <path d="M 92.21000000000001,0.0 L 92.21000000000001,3.760003999999981" fill="none" instance-id="-1" semantic-id="1" stroke="rgb(160,53,79)" stroke-width="0.1"/>
  <path d="M 92.21000000000001,3.760003999999981 L 97.21000000000004,3.760003999999981" fill="none" instance-id="-1" semantic-id="1" stroke="rgb(160,53,79)" stroke-width="0.1"/>
  <path d="M 97.21000000000004,3.760003999999981 L 97.21000000000004,0.0" fill="none" instance-id="-1" semantic-id="1" stroke="rgb(160,53,79)" stroke-width="0.1"/>
  <path d="M 31.460000000000008,0.0 L 31.460000000000008,1.7600039999999808" fill="none" instance-id="-1" semantic-id="1" stroke="rgb(160,53,79)" stroke-width="0.1"/>
  <path d="M 53.46000000000001,1.7600039999999808 L 77.21000000000001,1.7600039999999808" fill="none" instance-id="-1" semantic-id="1" stroke="rgb(160,53,79)" stroke-width="0.1"/>
  <path d="M 77.21000000000001,0.0 L 77.21000000000001,1.7600039999999808" fill="none" instance-id="-1" semantic-id="1" stroke="rgb(160,53,79)" stroke-width="0.1"/>
  <path d="M 31.460000000000008,2.260003999999981 L 53.46000000000001,2.260003999999981" fill="none" instance-id="-1" semantic-id="1" stroke="rgb(160,53,79)" stroke-width="0.1"/>
  <path d="M 53.46000000000001,2.260003999999981 L 53.46000000000001,0.0" fill="none" instance-id="-1" semantic-id="1" stroke="rgb(160,53,79)" stroke-width="0.1"/>
  <path d="M 31.460000000000008,0.0 L 31.460000000000008,2.260003999999981" fill="none" instance-id="-1" semantic-id="1" stroke="rgb(160,53,79)" stroke-width="0.1"/>
 </g>
 <g id="layer洁具" inkscape:groupmode="layer" inkscape:label="洁具">
  <path d="M 4.960000000000008,0.0 L 4.960000000000008,100.0" fill="none" stroke="rgb(44,44,88)" stroke-width="0.1"/>
  <path d="M 5.213235709650405,0.2532665962911693 L 5.169311283594908,0.752655118810587" fill="none" stroke="rgb(44,44,88)" stroke-width="0.1"/>
  <path d="M 5.169311283594908,0.752655118810587 L 5.129560882914944,1.252393207487259" fill="none" stroke="rgb(44,44,88)" stroke-width="0.1"/>
  <path d="M 5.129560882914944,1.252393207487259 L 5.0939872826108115,1.7524459752926802" fill="none" stroke="rgb(44,44,88)" stroke-width="0.1"/>
  <path d="M 5.0939872826108115,1.7524459752926802 L 5.062592966097839,2.2527785132303393" fill="none" stroke="rgb(44,44,88)" stroke-width="0.1"/>
  <path d="M 5.062592966097839,2.2527785132303393 L 5.035380125032873,2.7533558927728023" fill="none" stroke="rgb(44,44,88)" stroke-width="0.1"/>
  <path d="M 5.035380125032873,2.7533558927728023 L 5.0123506591613705,3.2541431683001534" fill="none" stroke="rgb(44,44,88)" stroke-width="0.1"/>
  <path d="M 5.0123506591613705,3.2541431683001534 L 4.993506176184724,3.755105379539515" fill="none" stroke="rgb(44,44,88)" stroke-width="0.1"/>
  <path d="M 4.993506176184724,3.755105379539515 L 4.978847991648138,4.256207554005506" fill="none" stroke="rgb(44,44,88)" stroke-width="0.1"/>
  <path d="M 4.978847991648138,4.256207554005506 L 4.968377128848601,4.757414709441925" fill="none" stroke="rgb(44,44,88)" stroke-width="0.1"/>
  <path d="M 4.968377128848601,4.757414709441925 L 4.962094318763576,5.2586918562637806" fill="none" stroke="rgb(44,44,88)" stroke-width="0.1"/>
  <path d="M 4.962094318763576,5.2586918562637806 L 4.960000000000008,5.760003999999981" fill="none" stroke="rgb(44,44,88)" stroke-width="0.1"/>
 </g>
 <g id="layer立体车位" inkscape:groupmode="layer" inkscape:label="立体车位">
  <path d="M 86.96000000000001,78.26000399999998 L 100.0,60.545287018867924" fill="none" stroke="rgb(0,178,178)" stroke-width="0.1"/>
  <path d="M 86.96000000000001,6.260003999999981 L 100.0,23.974720981132037" fill="none" stroke="rgb(0,178,178)" stroke-width="0.1"/>
  <path d="M 86.96000000000001,78.26000399999998 L 33.96000000000001,6.260003999999981" fill="none" stroke="rgb(0,178,178)" stroke-width="0.1"/>
  <path d="M 86.96000000000001,6.260003999999981 L 33.96000000000001,78.26000399999998" fill="none" stroke="rgb(0,178,178)" stroke-width="0.1"/>
 </g>
 <g id="layer车位" inkscape:groupmode="layer" inkscape:label="车位">
  <path d="M 97.96000000000004,75.76000399999998 L 97.96000000000004,56.76000399999998" fill="none" instance-id="-1" semantic-id="35" stroke="rgb(0,178,178)" stroke-width="0.1"/>
  <path d="M 97.96000000000004,56.76000399999998 L 99.96000000000004,56.76000399999998" fill="none" instance-id="-1" semantic-id="35" stroke="rgb(0,178,178)" stroke-width="0.1"/>
  <path d="M 99.96000000000004,56.76000399999998 L 99.96000000000004,75.76000399999998" fill="none" instance-id="-1" semantic-id="35" stroke="rgb(0,178,178)" stroke-width="0.1"/>
  <path d="M 99.96000000000004,75.76000399999998 L 97.96000000000004,75.76000399999998" fill="none" instance-id="-1" semantic-id="35" stroke="rgb(0,178,178)" stroke-width="0.1"/>
  <path d="M 100.0,54.26000399999998 L 86.96000000000001,54.26000399999998" fill="none" instance-id="-1" semantic-id="35" stroke="rgb(0,178,178)" stroke-width="0.1"/>
  <path d="M 86.96000000000001,54.26000399999998 L 86.96000000000001,78.26000399999998" fill="none" instance-id="-1" semantic-id="35" stroke="rgb(0,178,178)" stroke-width="0.1"/>
  <path d="M 86.96000000000001,78.26000399999998 L 100.0,78.26000399999998" fill="none" instance-id="-1" semantic-id="35" stroke="rgb(0,178,178)" stroke-width="0.1"/>
  <path d="M 97.96000000000004,51.76000399999998 L 97.96000000000004,32.76000399999998" fill="none" instance-id="-1" semantic-id="35" stroke="rgb(0,178,178)" stroke-width="0.1"/>
  <path d="M 97.96000000000004,32.76000399999998 L 99.96000000000004,32.76000399999998" fill="none" instance-id="-1" semantic-id="35" stroke="rgb(0,178,178)" stroke-width="0.1"/>
  <path d="M 99.96000000000004,32.76000399999998 L 99.96000000000004,51.76000399999998" fill="none" instance-id="-1" semantic-id="35" stroke="rgb(0,178,178)" stroke-width="0.1"/>
  <path d="M 99.96000000000004,51.76000399999998 L 97.96000000000004,51.76000399999998" fill="none" instance-id="-1" semantic-id="35" stroke="rgb(0,178,178)" stroke-width="0.1"/>
  <path d="M 100.0,30.26000399999998 L 86.96000000000001,30.26000399999998" fill="none" instance-id="-1" semantic-id="35" stroke="rgb(0,178,178)" stroke-width="0.1"/>
  <path d="M 86.96000000000001,30.26000399999998 L 86.96000000000001,54.26000399999998" fill="none" instance-id="-1" semantic-id="35" stroke="rgb(0,178,178)" stroke-width="0.1"/>
  <path d="M 86.96000000000001,54.26000399999998 L 100.0,54.26000399999998" fill="none" instance-id="-1" semantic-id="35" stroke="rgb(0,178,178)" stroke-width="0.1"/>
  <path d="M 97.96000000000004,27.76000399999998 L 97.96000000000004,8.76000399999998" fill="none" instance-id="-1" semantic-id="35" stroke="rgb(0,178,178)" stroke-width="0.1"/>
  <path d="M 97.96000000000004,8.76000399999998 L 99.96000000000004,8.76000399999998" fill="none" instance-id="-1" semantic-id="35" stroke="rgb(0,178,178)" stroke-width="0.1"/>
  <path d="M 99.96000000000004,8.76000399999998 L 99.96000000000004,27.76000399999998" fill="none" instance-id="-1" semantic-id="35" stroke="rgb(0,178,178)" stroke-width="0.1"/>
  <path d="M 99.96000000000004,27.76000399999998 L 97.96000000000004,27.76000399999998" fill="none" instance-id="-1" semantic-id="35" stroke="rgb(0,178,178)" stroke-width="0.1"/>
  <path d="M 100.0,6.260003999999981 L 86.96000000000001,6.260003999999981" fill="none" stroke="rgb(0,178,178)" stroke-width="0.1"/>
  <path d="M 86.96000000000001,6.260003999999981 L 86.96000000000001,30.26000399999998" fill="none" instance-id="-1" semantic-id="35" stroke="rgb(0,178,178)" stroke-width="0.1"/>
  <path d="M 86.96000000000001,30.26000399999998 L 100.0,30.26000399999998" fill="none" instance-id="-1" semantic-id="35" stroke="rgb(0,178,178)" stroke-width="0.1"/>
  <path d="M 75.96000000000001,75.76000399999998 L 75.96000000000001,56.76000399999998" fill="none" instance-id="-1" semantic-id="35" stroke="rgb(0,178,178)" stroke-width="0.1"/>
  <path d="M 75.96000000000001,56.76000399999998 L 73.96000000000001,56.76000399999998" fill="none" instance-id="-1" semantic-id="35" stroke="rgb(0,178,178)" stroke-width="0.1"/>
  <path d="M 73.96000000000001,56.76000399999998 L 73.96000000000001,75.76000399999998" fill="none" instance-id="-1" semantic-id="35" stroke="rgb(0,178,178)" stroke-width="0.1"/>
  <path d="M 73.96000000000001,75.76000399999998 L 75.96000000000001,75.76000399999998" fill="none" instance-id="-1" semantic-id="35" stroke="rgb(0,178,178)" stroke-width="0.1"/>
  <path d="M 33.96000000000001,78.26000399999998 L 33.96000000000001,54.26000399999998" fill="none" instance-id="-1" semantic-id="35" stroke="rgb(0,178,178)" stroke-width="0.1"/>
  <path d="M 33.96000000000001,54.26000399999998 L 86.96000000000001,54.26000399999998" fill="none" instance-id="-1" semantic-id="35" stroke="rgb(0,178,178)" stroke-width="0.1"/>
  <path d="M 86.96000000000001,54.26000399999998 L 86.96000000000001,78.26000399999998" fill="none" instance-id="-1" semantic-id="35" stroke="rgb(0,178,178)" stroke-width="0.1"/>
  <path d="M 86.96000000000001,78.26000399999998 L 33.96000000000001,78.26000399999998" fill="none" instance-id="-1" semantic-id="35" stroke="rgb(0,178,178)" stroke-width="0.1"/>
  <path d="M 75.96000000000001,51.76000399999998 L 75.96000000000001,32.76000399999998" fill="none" instance-id="-1" semantic-id="35" stroke="rgb(0,178,178)" stroke-width="0.1"/>
  <path d="M 75.96000000000001,32.76000399999998 L 73.96000000000001,32.76000399999998" fill="none" instance-id="-1" semantic-id="35" stroke="rgb(0,178,178)" stroke-width="0.1"/>
  <path d="M 73.96000000000001,32.76000399999998 L 73.96000000000001,51.76000399999998" fill="none" instance-id="-1" semantic-id="35" stroke="rgb(0,178,178)" stroke-width="0.1"/>
  <path d="M 73.96000000000001,51.76000399999998 L 75.96000000000001,51.76000399999998" fill="none" instance-id="-1" semantic-id="35" stroke="rgb(0,178,178)" stroke-width="0.1"/>
  <path d="M 33.96000000000001,54.26000399999998 L 33.96000000000001,30.26000399999998" fill="none" instance-id="-1" semantic-id="35" stroke="rgb(0,178,178)" stroke-width="0.1"/>
  <path d="M 33.96000000000001,30.26000399999998 L 86.96000000000001,30.26000399999998" fill="none" instance-id="-1" semantic-id="35" stroke="rgb(0,178,178)" stroke-width="0.1"/>
  <path d="M 86.96000000000001,30.26000399999998 L 86.96000000000001,54.26000399999998" fill="none" instance-id="-1" semantic-id="35" stroke="rgb(0,178,178)" stroke-width="0.1"/>
  <path d="M 86.96000000000001,54.26000399999998 L 33.96000000000001,54.26000399999998" fill="none" instance-id="-1" semantic-id="35" stroke="rgb(0,178,178)" stroke-width="0.1"/>
  <path d="M 75.96000000000001,27.76000399999998 L 75.96000000000001,8.76000399999998" fill="none" instance-id="-1" semantic-id="35" stroke="rgb(0,178,178)" stroke-width="0.1"/>
  <path d="M 75.96000000000001,8.76000399999998 L 73.96000000000001,8.76000399999998" fill="none" instance-id="-1" semantic-id="35" stroke="rgb(0,178,178)" stroke-width="0.1"/>
  <path d="M 73.96000000000001,8.76000399999998 L 73.96000000000001,27.76000399999998" fill="none" instance-id="-1" semantic-id="35" stroke="rgb(0,178,178)" stroke-width="0.1"/>
  <path d="M 73.96000000000001,27.76000399999998 L 75.96000000000001,27.76000399999998" fill="none" instance-id="-1" semantic-id="35" stroke="rgb(0,178,178)" stroke-width="0.1"/>
  <path d="M 33.96000000000001,30.26000399999998 L 33.96000000000001,6.260003999999981" fill="none" instance-id="-1" semantic-id="35" stroke="rgb(0,178,178)" stroke-width="0.1"/>
  <path d="M 33.96000000000001,6.260003999999981 L 86.96000000000001,6.260003999999981" fill="none" stroke="rgb(0,178,178)" stroke-width="0.1"/>
  <path d="M 86.96000000000001,6.260003999999981 L 86.96000000000001,30.26000399999998" fill="none" instance-id="-1" semantic-id="35" stroke="rgb(0,178,178)" stroke-width="0.1"/>
  <path d="M 86.96000000000001,30.26000399999998 L 33.96000000000001,30.26000399999998" fill="none" instance-id="-1" semantic-id="35" stroke="rgb(0,178,178)" stroke-width="0.1"/>
 </g>
</svg>