<?xml version="1.0" encoding="utf-8"?>
<svg style="background-color: #000;" version="1.1" viewBox="0 0 100.0 99.99999999999997" xmlns="http://www.w3.org/2000/svg" xmlns:inkscape="http://www.inkscape.org/namespaces/inkscape">
 <g id="layerA-AXIS" inkscape:groupmode="layer" inkscape:label="A-AXIS">
  <path d="M 7.5,92.76607149999998 L 7.5,99.99999999999997" fill="none" stroke="rgb(66,107,53)" stroke-width="0.1"/>
  <path d="M 70.5,92.76607149999998 L 70.5,99.99999999999997" fill="none" stroke="rgb(66,107,53)" stroke-width="0.1"/>
  <path d="M 81.0,92.76607149999998 L 81.0,99.99999999999997" fill="none" stroke="rgb(66,107,53)" stroke-width="0.1"/>
  <path d="M 0.5,95.76607149999998 L 0.5,99.99999999999997" fill="none" stroke="rgb(66,107,53)" stroke-width="0.1"/>
  <path d="M 0.5,95.76607149999998 L 0.5,99.99999999999997" fill="none" stroke="rgb(66,107,53)" stroke-width="0.1"/>
  <path d="M 1.5,95.76607149999998 L 1.5,99.99999999999997" fill="none" stroke="rgb(66,107,53)" stroke-width="0.1"/>
  <path d="M 1.5,95.76607149999998 L 1.5,99.99999999999997" fill="none" stroke="rgb(66,107,53)" stroke-width="0.1"/>
  <path d="M 7.5,95.76607149999998 L 7.5,99.99999999999997" fill="none" stroke="rgb(66,107,53)" stroke-width="0.1"/>
  <path d="M 7.5,95.76607149999998 L 7.5,99.99999999999997" fill="none" stroke="rgb(66,107,53)" stroke-width="0.1"/>
  <path d="M 20.0,95.76607149999998 L 20.0,99.99999999999997" fill="none" stroke="rgb(66,107,53)" stroke-width="0.1"/>
  <path d="M 20.0,95.76607149999998 L 20.0,99.99999999999997" fill="none" stroke="rgb(66,107,53)" stroke-width="0.1"/>
  <path d="M 21.0,95.76607149999998 L 21.0,99.99999999999997" fill="none" stroke="rgb(66,107,53)" stroke-width="0.1"/>
  <path d="M 21.0,95.76607149999998 L 21.0,99.99999999999997" fill="none" stroke="rgb(66,107,53)" stroke-width="0.1"/>
  <path d="M 39.5,95.76607149999998 L 39.5,99.99999999999997" fill="none" stroke="rgb(66,107,53)" stroke-width="0.1"/>
  <path d="M 39.5,95.76607149999998 L 39.5,99.99999999999997" fill="none" stroke="rgb(66,107,53)" stroke-width="0.1"/>
  <path d="M 40.5,95.76607149999998 L 40.5,99.99999999999997" fill="none" stroke="rgb(66,107,53)" stroke-width="0.1"/>
  <path d="M 40.5,95.76607149999998 L 40.5,99.99999999999997" fill="none" stroke="rgb(66,107,53)" stroke-width="0.1"/>
  <path d="M 59.0,95.76607149999998 L 59.0,99.99999999999997" fill="none" stroke="rgb(66,107,53)" stroke-width="0.1"/>
  <path d="M 59.0,95.76607149999998 L 59.0,99.99999999999997" fill="none" stroke="rgb(66,107,53)" stroke-width="0.1"/>
  <path d="M 60.0,95.76607149999998 L 60.0,99.99999999999997" fill="none" stroke="rgb(66,107,53)" stroke-width="0.1"/>
  <path d="M 60.0,95.76607149999998 L 60.0,99.99999999999997" fill="none" stroke="rgb(66,107,53)" stroke-width="0.1"/>
  <path d="M 70.5,95.76607149999998 L 70.5,99.99999999999997" fill="none" stroke="rgb(66,107,53)" stroke-width="0.1"/>
  <path d="M 70.5,95.76607149999998 L 70.5,99.99999999999997" fill="none" stroke="rgb(66,107,53)" stroke-width="0.1"/>
  <path d="M 78.5,95.76607149999998 L 78.5,99.99999999999997" fill="none" stroke="rgb(66,107,53)" stroke-width="0.1"/>
  <path d="M 78.5,95.76607149999998 L 78.5,99.99999999999997" fill="none" stroke="rgb(66,107,53)" stroke-width="0.1"/>
  <path d="M 79.5,95.76607149999998 L 79.5,99.99999999999997" fill="none" stroke="rgb(66,107,53)" stroke-width="0.1"/>
  <path d="M 79.5,95.76607149999998 L 79.5,99.99999999999997" fill="none" stroke="rgb(66,107,53)" stroke-width="0.1"/>
  <path d="M 81.0,95.76607149999998 L 81.0,99.99999999999997" fill="none" stroke="rgb(66,107,53)" stroke-width="0.1"/>
  <path d="M 81.0,95.76607149999998 L 81.0,99.99999999999997" fill="none" stroke="rgb(66,107,53)" stroke-width="0.1"/>
  <path d="M 86.0,95.76607149999998 L 86.0,99.99999999999997" fill="none" stroke="rgb(66,107,53)" stroke-width="0.1"/>
  <path d="M 7.5,95.76607149999998 L 7.5,99.99999999999997" fill="none" stroke="rgb(66,107,53)" stroke-width="0.1"/>
  <path d="M 7.5,95.76607149999998 L 7.5,99.99999999999997" fill="none" stroke="rgb(66,107,53)" stroke-width="0.1"/>
  <path d="M 70.5,95.76607149999998 L 70.5,99.99999999999997" fill="none" stroke="rgb(66,107,53)" stroke-width="0.1"/>
  <path d="M 70.5,95.76607149999998 L 70.5,99.99999999999997" fill="none" stroke="rgb(66,107,53)" stroke-width="0.1"/>
  <path d="M 81.0,95.76607149999998 L 81.0,99.99999999999997" fill="none" stroke="rgb(66,107,53)" stroke-width="0.1"/>
  <path d="M 81.0,95.76607149999998 L 81.0,99.99999999999997" fill="none" stroke="rgb(66,107,53)" stroke-width="0.1"/>
  <path d="M 86.0,95.76607149999998 L 86.0,99.99999999999997" fill="none" stroke="rgb(66,107,53)" stroke-width="0.1"/>
  <text fill="rgb(66,107,53)" font-family="Noto Sans CJK SC" font-size="2" transform="rotate(-0.0,78.02699999999999,99.0030715)" x="78.02699999999999" y="99.0030715">
   150
  </text>
 </g>
 <g id="layerA-COLUMN" inkscape:groupmode="layer" inkscape:label="A-COLUMN">
  <path d="M 67.5,62.26607149999998 L 73.5,62.26607149999998" fill="none" stroke="rgb(178,0,0)" stroke-width="0.1"/>
  <path d="M 73.5,62.26607149999998 L 73.5,56.26607149999998" fill="none" stroke="rgb(178,0,0)" stroke-width="0.1"/>
  <path d="M 73.5,56.26607149999998 L 67.5,56.26607149999998" fill="none" stroke="rgb(178,0,0)" stroke-width="0.1"/>
  <path d="M 67.5,56.26607149999998 L 67.5,62.26607149999998" fill="none" stroke="rgb(178,0,0)" stroke-width="0.1"/>
  <path d="M 4.5,62.26607149999998 L 10.5,62.26607149999998" fill="none" stroke="rgb(178,0,0)" stroke-width="0.1"/>
  <path d="M 10.5,62.26607149999998 L 10.5,56.26607149999998" fill="none" stroke="rgb(178,0,0)" stroke-width="0.1"/>
  <path d="M 10.5,56.26607149999998 L 4.5,56.26607149999998" fill="none" stroke="rgb(178,0,0)" stroke-width="0.1"/>
  <path d="M 4.5,56.26607149999998 L 4.5,62.26607149999998" fill="none" stroke="rgb(178,0,0)" stroke-width="0.1"/>
 </g>
 <g id="layerA-CURTWALL_METAL" inkscape:groupmode="layer" inkscape:label="A-CURTWALL_METAL">
  <path d="M 11.25,74.76607149999998 L 10.25,74.76607149999998" fill="none" stroke="rgb(133,12,255)" stroke-width="0.1"/>
  <path d="M 10.25,74.76607149999998 L 10.25,76.26607149999998" fill="none" stroke="rgb(133,12,255)" stroke-width="0.1"/>
  <path d="M 10.25,76.26607149999998 L 11.25,76.26607149999998" fill="none" stroke="rgb(133,12,255)" stroke-width="0.1"/>
  <path d="M 11.25,76.26607149999998 L 11.25,74.76607149999998" fill="none" stroke="rgb(133,12,255)" stroke-width="0.1"/>
  <path d="M 11.149999999999977,74.8660715 L 10.350000000000023,74.8660715" fill="none" stroke="rgb(133,12,255)" stroke-width="0.1"/>
  <path d="M 10.350000000000023,74.8660715 L 10.350000000000023,76.16607150000002" fill="none" stroke="rgb(133,12,255)" stroke-width="0.1"/>
  <path d="M 10.350000000000023,76.16607150000002 L 11.149999999999977,76.16607150000002" fill="none" stroke="rgb(133,12,255)" stroke-width="0.1"/>
  <path d="M 11.149999999999977,76.16607150000002 L 11.149999999999977,74.8660715" fill="none" stroke="rgb(133,12,255)" stroke-width="0.1"/>
  <path d="M 30.75,74.76607149999998 L 29.75,74.76607149999998" fill="none" stroke="rgb(133,12,255)" stroke-width="0.1"/>
  <path d="M 29.75,74.76607149999998 L 29.75,76.26607149999998" fill="none" stroke="rgb(133,12,255)" stroke-width="0.1"/>
  <path d="M 29.75,76.26607149999998 L 30.75,76.26607149999998" fill="none" stroke="rgb(133,12,255)" stroke-width="0.1"/>
  <path d="M 30.75,76.26607149999998 L 30.75,74.76607149999998" fill="none" stroke="rgb(133,12,255)" stroke-width="0.1"/>
  <path d="M 30.649999999999977,74.8660715 L 29.850000000000023,74.8660715" fill="none" stroke="rgb(133,12,255)" stroke-width="0.1"/>
  <path d="M 29.850000000000023,74.8660715 L 29.850000000000023,76.16607150000002" fill="none" stroke="rgb(133,12,255)" stroke-width="0.1"/>
  <path d="M 29.850000000000023,76.16607150000002 L 30.649999999999977,76.16607150000002" fill="none" stroke="rgb(133,12,255)" stroke-width="0.1"/>
  <path d="M 30.649999999999977,76.16607150000002 L 30.649999999999977,74.8660715" fill="none" stroke="rgb(133,12,255)" stroke-width="0.1"/>
  <path d="M 50.25,74.76607149999998 L 49.25,74.76607149999998" fill="none" stroke="rgb(133,12,255)" stroke-width="0.1"/>
  <path d="M 49.25,74.76607149999998 L 49.25,76.26607149999998" fill="none" stroke="rgb(133,12,255)" stroke-width="0.1"/>
  <path d="M 49.25,76.26607149999998 L 50.25,76.26607149999998" fill="none" stroke="rgb(133,12,255)" stroke-width="0.1"/>
  <path d="M 50.25,76.26607149999998 L 50.25,74.76607149999998" fill="none" stroke="rgb(133,12,255)" stroke-width="0.1"/>
  <path d="M 50.14999999999998,74.8660715 L 49.35000000000002,74.8660715" fill="none" stroke="rgb(133,12,255)" stroke-width="0.1"/>
  <path d="M 49.35000000000002,74.8660715 L 49.35000000000002,76.16607150000002" fill="none" stroke="rgb(133,12,255)" stroke-width="0.1"/>
  <path d="M 49.35000000000002,76.16607150000002 L 50.14999999999998,76.16607150000002" fill="none" stroke="rgb(133,12,255)" stroke-width="0.1"/>
  <path d="M 50.14999999999998,76.16607150000002 L 50.14999999999998,74.8660715" fill="none" stroke="rgb(133,12,255)" stroke-width="0.1"/>
  <path d="M 69.75,74.76607149999998 L 68.75,74.76607149999998" fill="none" stroke="rgb(133,12,255)" stroke-width="0.1"/>
  <path d="M 68.75,74.76607149999998 L 68.75,76.26607149999998" fill="none" stroke="rgb(133,12,255)" stroke-width="0.1"/>
  <path d="M 68.75,76.26607149999998 L 69.75,76.26607149999998" fill="none" stroke="rgb(133,12,255)" stroke-width="0.1"/>
  <path d="M 69.75,76.26607149999998 L 69.75,74.76607149999998" fill="none" stroke="rgb(133,12,255)" stroke-width="0.1"/>
  <path d="M 69.64999999999998,74.8660715 L 68.85000000000002,74.8660715" fill="none" stroke="rgb(133,12,255)" stroke-width="0.1"/>
  <path d="M 68.85000000000002,74.8660715 L 68.85000000000002,76.16607150000002" fill="none" stroke="rgb(133,12,255)" stroke-width="0.1"/>
  <path d="M 68.85000000000002,76.16607150000002 L 69.64999999999998,76.16607150000002" fill="none" stroke="rgb(133,12,255)" stroke-width="0.1"/>
  <path d="M 69.64999999999998,76.16607150000002 L 69.64999999999998,74.8660715" fill="none" stroke="rgb(133,12,255)" stroke-width="0.1"/>
  <path d="M 83.0,71.26607149999998 L 83.0,70.26607149999998" fill="none" stroke="rgb(133,12,255)" stroke-width="0.1"/>
  <path d="M 83.0,70.26607149999998 L 84.5,70.26607149999998" fill="none" stroke="rgb(133,12,255)" stroke-width="0.1"/>
  <path d="M 84.5,70.26607149999998 L 84.5,71.26607149999998" fill="none" stroke="rgb(133,12,255)" stroke-width="0.1"/>
  <path d="M 84.5,71.26607149999998 L 83.0,71.26607149999998" fill="none" stroke="rgb(133,12,255)" stroke-width="0.1"/>
  <path d="M 83.10000000000002,71.16607150000002 L 83.10000000000002,70.3660715" fill="none" stroke="rgb(133,12,255)" stroke-width="0.1"/>
  <path d="M 83.10000000000002,70.3660715 L 84.39999999999998,70.3660715" fill="none" stroke="rgb(133,12,255)" stroke-width="0.1"/>
  <path d="M 84.39999999999998,70.3660715 L 84.39999999999998,71.16607150000002" fill="none" stroke="rgb(133,12,255)" stroke-width="0.1"/>
  <path d="M 84.39999999999998,71.16607150000002 L 83.10000000000002,71.16607150000002" fill="none" stroke="rgb(133,12,255)" stroke-width="0.1"/>
  <path d="M 82.10000000000002,71.66607150000002 L 82.89999999999998,71.66607150000002" fill="none" stroke="rgb(133,12,255)" stroke-width="0.1"/>
  <path d="M 82.89999999999998,71.66607150000002 L 82.89999999999998,69.8660715" fill="none" stroke="rgb(133,12,255)" stroke-width="0.1"/>
  <path d="M 82.89999999999998,69.8660715 L 82.10000000000002,69.8660715" fill="none" stroke="rgb(133,12,255)" stroke-width="0.1"/>
  <path d="M 82.10000000000002,69.8660715 L 82.10000000000002,71.66607150000002" fill="none" stroke="rgb(133,12,255)" stroke-width="0.1"/>
  <path d="M 83.0,60.416071500000015 L 83.0,61.416071500000015" fill="none" stroke="rgb(133,12,255)" stroke-width="0.1"/>
  <path d="M 83.0,61.416071500000015 L 84.5,61.416071500000015" fill="none" stroke="rgb(133,12,255)" stroke-width="0.1"/>
  <path d="M 84.5,61.416071500000015 L 84.5,60.416071500000015" fill="none" stroke="rgb(133,12,255)" stroke-width="0.1"/>
  <path d="M 84.5,60.416071500000015 L 83.0,60.416071500000015" fill="none" stroke="rgb(133,12,255)" stroke-width="0.1"/>
  <path d="M 83.10000000000002,60.51607149999998 L 83.10000000000002,61.31607149999999" fill="none" stroke="rgb(133,12,255)" stroke-width="0.1"/>
  <path d="M 83.10000000000002,61.31607149999999 L 84.39999999999998,61.31607149999999" fill="none" stroke="rgb(133,12,255)" stroke-width="0.1"/>
  <path d="M 84.39999999999998,61.31607149999999 L 84.39999999999998,60.51607149999998" fill="none" stroke="rgb(133,12,255)" stroke-width="0.1"/>
  <path d="M 84.39999999999998,60.51607149999998 L 83.10000000000002,60.51607149999998" fill="none" stroke="rgb(133,12,255)" stroke-width="0.1"/>
  <path d="M 83.0,51.56607149999999 L 83.0,50.56607149999999" fill="none" stroke="rgb(133,12,255)" stroke-width="0.1"/>
  <path d="M 83.0,50.56607149999999 L 84.5,50.56607149999999" fill="none" stroke="rgb(133,12,255)" stroke-width="0.1"/>
  <path d="M 84.5,50.56607149999999 L 84.5,51.56607149999999" fill="none" stroke="rgb(133,12,255)" stroke-width="0.1"/>
  <path d="M 84.5,51.56607149999999 L 83.0,51.56607149999999" fill="none" stroke="rgb(133,12,255)" stroke-width="0.1"/>
  <path d="M 83.10000000000002,51.46607150000003 L 83.10000000000002,50.666071500000015" fill="none" stroke="rgb(133,12,255)" stroke-width="0.1"/>
  <path d="M 83.10000000000002,50.666071500000015 L 84.39999999999998,50.666071500000015" fill="none" stroke="rgb(133,12,255)" stroke-width="0.1"/>
  <path d="M 84.39999999999998,50.666071500000015 L 84.39999999999998,51.46607150000003" fill="none" stroke="rgb(133,12,255)" stroke-width="0.1"/>
  <path d="M 84.39999999999998,51.46607150000003 L 83.10000000000002,51.46607150000003" fill="none" stroke="rgb(133,12,255)" stroke-width="0.1"/>
  <path d="M 82.10000000000002,51.96607150000003 L 82.89999999999998,51.96607150000003" fill="none" stroke="rgb(133,12,255)" stroke-width="0.1"/>
  <path d="M 82.89999999999998,51.96607150000003 L 82.89999999999998,50.166071500000015" fill="none" stroke="rgb(133,12,255)" stroke-width="0.1"/>
  <path d="M 82.89999999999998,50.166071500000015 L 82.10000000000002,50.166071500000015" fill="none" stroke="rgb(133,12,255)" stroke-width="0.1"/>
  <path d="M 82.10000000000002,50.166071500000015 L 82.10000000000002,51.96607150000003" fill="none" stroke="rgb(133,12,255)" stroke-width="0.1"/>
  <path d="M 83.0,40.71607150000003 L 83.0,41.71607150000003" fill="none" stroke="rgb(133,12,255)" stroke-width="0.1"/>
  <path d="M 83.0,41.71607150000003 L 84.5,41.71607150000003" fill="none" stroke="rgb(133,12,255)" stroke-width="0.1"/>
  <path d="M 84.5,41.71607150000003 L 84.5,40.71607150000003" fill="none" stroke="rgb(133,12,255)" stroke-width="0.1"/>
  <path d="M 84.5,40.71607150000003 L 83.0,40.71607150000003" fill="none" stroke="rgb(133,12,255)" stroke-width="0.1"/>
  <path d="M 83.10000000000002,40.81607149999999 L 83.10000000000002,41.616071500000004" fill="none" stroke="rgb(133,12,255)" stroke-width="0.1"/>
  <path d="M 83.10000000000002,41.616071500000004 L 84.39999999999998,41.616071500000004" fill="none" stroke="rgb(133,12,255)" stroke-width="0.1"/>
  <path d="M 84.39999999999998,41.616071500000004 L 84.39999999999998,40.81607149999999" fill="none" stroke="rgb(133,12,255)" stroke-width="0.1"/>
  <path d="M 84.39999999999998,40.81607149999999 L 83.10000000000002,40.81607149999999" fill="none" stroke="rgb(133,12,255)" stroke-width="0.1"/>
  <path d="M 83.0,31.866071500000004 L 83.0,30.866071500000004" fill="none" stroke="rgb(133,12,255)" stroke-width="0.1"/>
  <path d="M 83.0,30.866071500000004 L 84.5,30.866071500000004" fill="none" stroke="rgb(133,12,255)" stroke-width="0.1"/>
  <path d="M 84.5,30.866071500000004 L 84.5,31.866071500000004" fill="none" stroke="rgb(133,12,255)" stroke-width="0.1"/>
  <path d="M 84.5,31.866071500000004 L 83.0,31.866071500000004" fill="none" stroke="rgb(133,12,255)" stroke-width="0.1"/>
  <path d="M 83.10000000000002,31.76607149999998 L 83.10000000000002,30.966071500000027" fill="none" stroke="rgb(133,12,255)" stroke-width="0.1"/>
  <path d="M 83.10000000000002,30.966071500000027 L 84.39999999999998,30.966071500000027" fill="none" stroke="rgb(133,12,255)" stroke-width="0.1"/>
  <path d="M 84.39999999999998,30.966071500000027 L 84.39999999999998,31.76607149999998" fill="none" stroke="rgb(133,12,255)" stroke-width="0.1"/>
  <path d="M 84.39999999999998,31.76607149999998 L 83.10000000000002,31.76607149999998" fill="none" stroke="rgb(133,12,255)" stroke-width="0.1"/>
  <path d="M 82.10000000000002,32.26607149999998 L 82.89999999999998,32.26607149999998" fill="none" stroke="rgb(133,12,255)" stroke-width="0.1"/>
  <path d="M 82.89999999999998,32.26607149999998 L 82.89999999999998,30.466071500000027" fill="none" stroke="rgb(133,12,255)" stroke-width="0.1"/>
  <path d="M 82.89999999999998,30.466071500000027 L 82.10000000000002,30.466071500000027" fill="none" stroke="rgb(133,12,255)" stroke-width="0.1"/>
  <path d="M 82.10000000000002,30.466071500000027 L 82.10000000000002,32.26607149999998" fill="none" stroke="rgb(133,12,255)" stroke-width="0.1"/>
  <path d="M 83.0,21.01607149999998 L 83.0,22.01607149999998" fill="none" stroke="rgb(133,12,255)" stroke-width="0.1"/>
  <path d="M 83.0,22.01607149999998 L 84.5,22.01607149999998" fill="none" stroke="rgb(133,12,255)" stroke-width="0.1"/>
  <path d="M 84.5,22.01607149999998 L 84.5,21.01607149999998" fill="none" stroke="rgb(133,12,255)" stroke-width="0.1"/>
  <path d="M 84.5,21.01607149999998 L 83.0,21.01607149999998" fill="none" stroke="rgb(133,12,255)" stroke-width="0.1"/>
  <path d="M 83.10000000000002,21.116071500000004 L 83.10000000000002,21.916071500000015" fill="none" stroke="rgb(133,12,255)" stroke-width="0.1"/>
  <path d="M 83.10000000000002,21.916071500000015 L 84.39999999999998,21.916071500000015" fill="none" stroke="rgb(133,12,255)" stroke-width="0.1"/>
  <path d="M 84.39999999999998,21.916071500000015 L 84.39999999999998,21.116071500000004" fill="none" stroke="rgb(133,12,255)" stroke-width="0.1"/>
  <path d="M 84.39999999999998,21.116071500000004 L 83.10000000000002,21.116071500000004" fill="none" stroke="rgb(133,12,255)" stroke-width="0.1"/>
  <path d="M 83.0,12.166071500000015 L 83.0,11.166071500000015" fill="none" stroke="rgb(133,12,255)" stroke-width="0.1"/>
  <path d="M 83.0,11.166071500000015 L 84.5,11.166071500000015" fill="none" stroke="rgb(133,12,255)" stroke-width="0.1"/>
  <path d="M 84.5,11.166071500000015 L 84.5,12.166071500000015" fill="none" stroke="rgb(133,12,255)" stroke-width="0.1"/>
  <path d="M 84.5,12.166071500000015 L 83.0,12.166071500000015" fill="none" stroke="rgb(133,12,255)" stroke-width="0.1"/>
  <path d="M 83.10000000000002,12.066071499999993 L 83.10000000000002,11.266071499999981" fill="none" stroke="rgb(133,12,255)" stroke-width="0.1"/>
  <path d="M 83.10000000000002,11.266071499999981 L 84.39999999999998,11.266071499999981" fill="none" stroke="rgb(133,12,255)" stroke-width="0.1"/>
  <path d="M 84.39999999999998,11.266071499999981 L 84.39999999999998,12.066071499999993" fill="none" stroke="rgb(133,12,255)" stroke-width="0.1"/>
  <path d="M 84.39999999999998,12.066071499999993 L 83.10000000000002,12.066071499999993" fill="none" stroke="rgb(133,12,255)" stroke-width="0.1"/>
  <path d="M 82.10000000000002,12.566071499999993 L 82.89999999999998,12.566071499999993" fill="none" stroke="rgb(133,12,255)" stroke-width="0.1"/>
  <path d="M 82.89999999999998,12.566071499999993 L 82.89999999999998,10.766071499999981" fill="none" stroke="rgb(133,12,255)" stroke-width="0.1"/>
  <path d="M 82.89999999999998,10.766071499999981 L 82.10000000000002,10.766071499999981" fill="none" stroke="rgb(133,12,255)" stroke-width="0.1"/>
  <path d="M 82.10000000000002,10.766071499999981 L 82.10000000000002,12.566071499999993" fill="none" stroke="rgb(133,12,255)" stroke-width="0.1"/>
  <path d="M 83.0,1.3160714999999925 L 83.0,2.3160714999999925" fill="none" stroke="rgb(133,12,255)" stroke-width="0.1"/>
  <path d="M 83.0,2.3160714999999925 L 84.5,2.3160714999999925" fill="none" stroke="rgb(133,12,255)" stroke-width="0.1"/>
  <path d="M 84.5,2.3160714999999925 L 84.5,1.3160714999999925" fill="none" stroke="rgb(133,12,255)" stroke-width="0.1"/>
  <path d="M 84.5,1.3160714999999925 L 83.0,1.3160714999999925" fill="none" stroke="rgb(133,12,255)" stroke-width="0.1"/>
  <path d="M 83.10000000000002,1.4160715000000152 L 83.10000000000002,2.2160715000000266" fill="none" stroke="rgb(133,12,255)" stroke-width="0.1"/>
  <path d="M 83.10000000000002,2.2160715000000266 L 84.39999999999998,2.2160715000000266" fill="none" stroke="rgb(133,12,255)" stroke-width="0.1"/>
  <path d="M 84.39999999999998,2.2160715000000266 L 84.39999999999998,1.4160715000000152" fill="none" stroke="rgb(133,12,255)" stroke-width="0.1"/>
  <path d="M 84.39999999999998,1.4160715000000152 L 83.10000000000002,1.4160715000000152" fill="none" stroke="rgb(133,12,255)" stroke-width="0.1"/>
  <path d="M 79.5,74.76607149999998 L 78.5,74.76607149999998" fill="none" stroke="rgb(133,12,255)" stroke-width="0.1"/>
  <path d="M 78.5,74.76607149999998 L 78.5,76.26607149999998" fill="none" stroke="rgb(133,12,255)" stroke-width="0.1"/>
  <path d="M 78.5,76.26607149999998 L 79.5,76.26607149999998" fill="none" stroke="rgb(133,12,255)" stroke-width="0.1"/>
  <path d="M 79.5,76.26607149999998 L 79.5,74.76607149999998" fill="none" stroke="rgb(133,12,255)" stroke-width="0.1"/>
  <path d="M 79.39999999999998,74.8660715 L 78.60000000000002,74.8660715" fill="none" stroke="rgb(133,12,255)" stroke-width="0.1"/>
  <path d="M 78.60000000000002,74.8660715 L 78.60000000000002,76.16607150000002" fill="none" stroke="rgb(133,12,255)" stroke-width="0.1"/>
  <path d="M 78.60000000000002,76.16607150000002 L 79.39999999999998,76.16607150000002" fill="none" stroke="rgb(133,12,255)" stroke-width="0.1"/>
  <path d="M 79.39999999999998,76.16607150000002 L 79.39999999999998,74.8660715" fill="none" stroke="rgb(133,12,255)" stroke-width="0.1"/>
  <path d="M 79.89999999999998,73.8660715 L 79.89999999999998,74.66607150000002" fill="none" stroke="rgb(133,12,255)" stroke-width="0.1"/>
  <path d="M 79.89999999999998,74.66607150000002 L 78.10000000000002,74.66607150000002" fill="none" stroke="rgb(133,12,255)" stroke-width="0.1"/>
  <path d="M 78.10000000000002,74.66607150000002 L 78.10000000000002,73.8660715" fill="none" stroke="rgb(133,12,255)" stroke-width="0.1"/>
  <path d="M 78.10000000000002,73.8660715 L 79.89999999999998,73.8660715" fill="none" stroke="rgb(133,12,255)" stroke-width="0.1"/>
  <path d="M 60.0,74.76607149999998 L 59.0,74.76607149999998" fill="none" stroke="rgb(133,12,255)" stroke-width="0.1"/>
  <path d="M 59.0,74.76607149999998 L 59.0,76.26607149999998" fill="none" stroke="rgb(133,12,255)" stroke-width="0.1"/>
  <path d="M 59.0,76.26607149999998 L 60.0,76.26607149999998" fill="none" stroke="rgb(133,12,255)" stroke-width="0.1"/>
  <path d="M 60.0,76.26607149999998 L 60.0,74.76607149999998" fill="none" stroke="rgb(133,12,255)" stroke-width="0.1"/>
  <path d="M 59.89999999999998,74.8660715 L 59.10000000000002,74.8660715" fill="none" stroke="rgb(133,12,255)" stroke-width="0.1"/>
  <path d="M 59.10000000000002,74.8660715 L 59.10000000000002,76.16607150000002" fill="none" stroke="rgb(133,12,255)" stroke-width="0.1"/>
  <path d="M 59.10000000000002,76.16607150000002 L 59.89999999999998,76.16607150000002" fill="none" stroke="rgb(133,12,255)" stroke-width="0.1"/>
  <path d="M 59.89999999999998,76.16607150000002 L 59.89999999999998,74.8660715" fill="none" stroke="rgb(133,12,255)" stroke-width="0.1"/>
  <path d="M 60.39999999999998,73.8660715 L 60.39999999999998,74.66607150000002" fill="none" stroke="rgb(133,12,255)" stroke-width="0.1"/>
  <path d="M 60.39999999999998,74.66607150000002 L 58.60000000000002,74.66607150000002" fill="none" stroke="rgb(133,12,255)" stroke-width="0.1"/>
  <path d="M 58.60000000000002,74.66607150000002 L 58.60000000000002,73.8660715" fill="none" stroke="rgb(133,12,255)" stroke-width="0.1"/>
  <path d="M 58.60000000000002,73.8660715 L 60.39999999999998,73.8660715" fill="none" stroke="rgb(133,12,255)" stroke-width="0.1"/>
  <path d="M 40.5,74.76607149999998 L 39.5,74.76607149999998" fill="none" stroke="rgb(133,12,255)" stroke-width="0.1"/>
  <path d="M 39.5,74.76607149999998 L 39.5,76.26607149999998" fill="none" stroke="rgb(133,12,255)" stroke-width="0.1"/>
  <path d="M 39.5,76.26607149999998 L 40.5,76.26607149999998" fill="none" stroke="rgb(133,12,255)" stroke-width="0.1"/>
  <path d="M 40.5,76.26607149999998 L 40.5,74.76607149999998" fill="none" stroke="rgb(133,12,255)" stroke-width="0.1"/>
  <path d="M 40.39999999999998,74.8660715 L 39.60000000000002,74.8660715" fill="none" stroke="rgb(133,12,255)" stroke-width="0.1"/>
  <path d="M 39.60000000000002,74.8660715 L 39.60000000000002,76.16607150000002" fill="none" stroke="rgb(133,12,255)" stroke-width="0.1"/>
  <path d="M 39.60000000000002,76.16607150000002 L 40.39999999999998,76.16607150000002" fill="none" stroke="rgb(133,12,255)" stroke-width="0.1"/>
  <path d="M 40.39999999999998,76.16607150000002 L 40.39999999999998,74.8660715" fill="none" stroke="rgb(133,12,255)" stroke-width="0.1"/>
  <path d="M 40.89999999999998,73.8660715 L 40.89999999999998,74.66607150000002" fill="none" stroke="rgb(133,12,255)" stroke-width="0.1"/>
  <path d="M 40.89999999999998,74.66607150000002 L 39.10000000000002,74.66607150000002" fill="none" stroke="rgb(133,12,255)" stroke-width="0.1"/>
  <path d="M 39.10000000000002,74.66607150000002 L 39.10000000000002,73.8660715" fill="none" stroke="rgb(133,12,255)" stroke-width="0.1"/>
  <path d="M 39.10000000000002,73.8660715 L 40.89999999999998,73.8660715" fill="none" stroke="rgb(133,12,255)" stroke-width="0.1"/>
  <path d="M 21.0,74.76607149999998 L 20.0,74.76607149999998" fill="none" stroke="rgb(133,12,255)" stroke-width="0.1"/>
  <path d="M 20.0,74.76607149999998 L 20.0,76.26607149999998" fill="none" stroke="rgb(133,12,255)" stroke-width="0.1"/>
  <path d="M 20.0,76.26607149999998 L 21.0,76.26607149999998" fill="none" stroke="rgb(133,12,255)" stroke-width="0.1"/>
  <path d="M 21.0,76.26607149999998 L 21.0,74.76607149999998" fill="none" stroke="rgb(133,12,255)" stroke-width="0.1"/>
  <path d="M 20.899999999999977,74.8660715 L 20.100000000000023,74.8660715" fill="none" stroke="rgb(133,12,255)" stroke-width="0.1"/>
  <path d="M 20.100000000000023,74.8660715 L 20.100000000000023,76.16607150000002" fill="none" stroke="rgb(133,12,255)" stroke-width="0.1"/>
  <path d="M 20.100000000000023,76.16607150000002 L 20.899999999999977,76.16607150000002" fill="none" stroke="rgb(133,12,255)" stroke-width="0.1"/>
  <path d="M 20.899999999999977,76.16607150000002 L 20.899999999999977,74.8660715" fill="none" stroke="rgb(133,12,255)" stroke-width="0.1"/>
  <path d="M 21.399999999999977,73.8660715 L 21.399999999999977,74.66607150000002" fill="none" stroke="rgb(133,12,255)" stroke-width="0.1"/>
  <path d="M 21.399999999999977,74.66607150000002 L 19.600000000000023,74.66607150000002" fill="none" stroke="rgb(133,12,255)" stroke-width="0.1"/>
  <path d="M 19.600000000000023,74.66607150000002 L 19.600000000000023,73.8660715" fill="none" stroke="rgb(133,12,255)" stroke-width="0.1"/>
  <path d="M 19.600000000000023,73.8660715 L 21.399999999999977,73.8660715" fill="none" stroke="rgb(133,12,255)" stroke-width="0.1"/>
  <path d="M 1.5,74.76607149999998 L 0.5,74.76607149999998" fill="none" stroke="rgb(133,12,255)" stroke-width="0.1"/>
  <path d="M 0.5,74.76607149999998 L 0.5,76.26607149999998" fill="none" stroke="rgb(133,12,255)" stroke-width="0.1"/>
  <path d="M 0.5,76.26607149999998 L 1.5,76.26607149999998" fill="none" stroke="rgb(133,12,255)" stroke-width="0.1"/>
  <path d="M 1.5,76.26607149999998 L 1.5,74.76607149999998" fill="none" stroke="rgb(133,12,255)" stroke-width="0.1"/>
  <path d="M 1.3999999999999773,74.8660715 L 0.6000000000000227,74.8660715" fill="none" stroke="rgb(133,12,255)" stroke-width="0.1"/>
  <path d="M 0.6000000000000227,74.8660715 L 0.6000000000000227,76.16607150000002" fill="none" stroke="rgb(133,12,255)" stroke-width="0.1"/>
  <path d="M 0.6000000000000227,76.16607150000002 L 1.3999999999999773,76.16607150000002" fill="none" stroke="rgb(133,12,255)" stroke-width="0.1"/>
  <path d="M 1.3999999999999773,76.16607150000002 L 1.3999999999999773,74.8660715" fill="none" stroke="rgb(133,12,255)" stroke-width="0.1"/>
  <path d="M 1.8999999999999773,73.8660715 L 1.8999999999999773,74.66607150000002" fill="none" stroke="rgb(133,12,255)" stroke-width="0.1"/>
  <path d="M 1.8999999999999773,74.66607150000002 L 0.10000000000002274,74.66607150000002" fill="none" stroke="rgb(133,12,255)" stroke-width="0.1"/>
  <path d="M 0.10000000000002274,74.66607150000002 L 0.10000000000002274,73.8660715" fill="none" stroke="rgb(133,12,255)" stroke-width="0.1"/>
  <path d="M 0.10000000000002274,73.8660715 L 1.8999999999999773,73.8660715" fill="none" stroke="rgb(133,12,255)" stroke-width="0.1"/>
  <path d="M 82.0,71.76607149999998 L 83.0,71.76607149999998" fill="none" stroke="rgb(133,12,255)" stroke-width="0.1"/>
  <path d="M 83.0,71.76607149999998 L 83.0,69.76607149999998" fill="none" stroke="rgb(133,12,255)" stroke-width="0.1"/>
  <path d="M 83.0,69.76607149999998 L 82.0,69.76607149999998" fill="none" stroke="rgb(133,12,255)" stroke-width="0.1"/>
  <path d="M 82.0,69.76607149999998 L 82.0,71.76607149999998" fill="none" stroke="rgb(133,12,255)" stroke-width="0.1"/>
  <path d="M 82.0,52.06607149999999 L 83.0,52.06607149999999" fill="none" stroke="rgb(133,12,255)" stroke-width="0.1"/>
  <path d="M 83.0,52.06607149999999 L 83.0,50.06607149999999" fill="none" stroke="rgb(133,12,255)" stroke-width="0.1"/>
  <path d="M 83.0,50.06607149999999 L 82.0,50.06607149999999" fill="none" stroke="rgb(133,12,255)" stroke-width="0.1"/>
  <path d="M 82.0,50.06607149999999 L 82.0,52.06607149999999" fill="none" stroke="rgb(133,12,255)" stroke-width="0.1"/>
  <path d="M 82.0,32.366071500000004 L 83.0,32.366071500000004" fill="none" stroke="rgb(133,12,255)" stroke-width="0.1"/>
  <path d="M 83.0,32.366071500000004 L 83.0,30.366071500000004" fill="none" stroke="rgb(133,12,255)" stroke-width="0.1"/>
  <path d="M 83.0,30.366071500000004 L 82.0,30.366071500000004" fill="none" stroke="rgb(133,12,255)" stroke-width="0.1"/>
  <path d="M 82.0,30.366071500000004 L 82.0,32.366071500000004" fill="none" stroke="rgb(133,12,255)" stroke-width="0.1"/>
  <path d="M 82.0,12.666071500000015 L 83.0,12.666071500000015" fill="none" stroke="rgb(133,12,255)" stroke-width="0.1"/>
  <path d="M 83.0,12.666071500000015 L 83.0,10.666071500000015" fill="none" stroke="rgb(133,12,255)" stroke-width="0.1"/>
  <path d="M 83.0,10.666071500000015 L 82.0,10.666071500000015" fill="none" stroke="rgb(133,12,255)" stroke-width="0.1"/>
  <path d="M 82.0,10.666071500000015 L 82.0,12.666071500000015" fill="none" stroke="rgb(133,12,255)" stroke-width="0.1"/>
  <path d="M 80.0,73.76607149999998 L 80.0,74.76607149999998" fill="none" stroke="rgb(133,12,255)" stroke-width="0.1"/>
  <path d="M 80.0,74.76607149999998 L 78.0,74.76607149999998" fill="none" stroke="rgb(133,12,255)" stroke-width="0.1"/>
  <path d="M 78.0,74.76607149999998 L 78.0,73.76607149999998" fill="none" stroke="rgb(133,12,255)" stroke-width="0.1"/>
  <path d="M 78.0,73.76607149999998 L 80.0,73.76607149999998" fill="none" stroke="rgb(133,12,255)" stroke-width="0.1"/>
  <path d="M 60.5,73.76607149999998 L 60.5,74.76607149999998" fill="none" stroke="rgb(133,12,255)" stroke-width="0.1"/>
  <path d="M 60.5,74.76607149999998 L 58.5,74.76607149999998" fill="none" stroke="rgb(133,12,255)" stroke-width="0.1"/>
  <path d="M 58.5,74.76607149999998 L 58.5,73.76607149999998" fill="none" stroke="rgb(133,12,255)" stroke-width="0.1"/>
  <path d="M 58.5,73.76607149999998 L 60.5,73.76607149999998" fill="none" stroke="rgb(133,12,255)" stroke-width="0.1"/>
  <path d="M 41.0,73.76607149999998 L 41.0,74.76607149999998" fill="none" stroke="rgb(133,12,255)" stroke-width="0.1"/>
  <path d="M 41.0,74.76607149999998 L 39.0,74.76607149999998" fill="none" stroke="rgb(133,12,255)" stroke-width="0.1"/>
  <path d="M 39.0,74.76607149999998 L 39.0,73.76607149999998" fill="none" stroke="rgb(133,12,255)" stroke-width="0.1"/>
  <path d="M 39.0,73.76607149999998 L 41.0,73.76607149999998" fill="none" stroke="rgb(133,12,255)" stroke-width="0.1"/>
  <path d="M 21.5,73.76607149999998 L 21.5,74.76607149999998" fill="none" stroke="rgb(133,12,255)" stroke-width="0.1"/>
  <path d="M 21.5,74.76607149999998 L 19.5,74.76607149999998" fill="none" stroke="rgb(133,12,255)" stroke-width="0.1"/>
  <path d="M 19.5,74.76607149999998 L 19.5,73.76607149999998" fill="none" stroke="rgb(133,12,255)" stroke-width="0.1"/>
  <path d="M 19.5,73.76607149999998 L 21.5,73.76607149999998" fill="none" stroke="rgb(133,12,255)" stroke-width="0.1"/>
  <path d="M 2.0,73.76607149999998 L 2.0,74.76607149999998" fill="none" stroke="rgb(133,12,255)" stroke-width="0.1"/>
  <path d="M 2.0,74.76607149999998 L 0.0,74.76607149999998" fill="none" stroke="rgb(133,12,255)" stroke-width="0.1"/>
  <path d="M 0.0,73.76607149999998 L 2.0,73.76607149999998" fill="none" stroke="rgb(133,12,255)" stroke-width="0.1"/>
 </g>
 <g id="layerA-DOTE" inkscape:groupmode="layer" inkscape:label="A-DOTE">
  <path d="M 7.5,0.0 L 7.5,92.76607149999998" fill="none" stroke="rgb(107,0,0)" stroke-width="0.1"/>
  <path d="M 70.5,0.0 L 70.5,92.76607149999998" fill="none" stroke="rgb(107,0,0)" stroke-width="0.1"/>
  <path d="M 81.0,0.0 L 81.0,92.76607149999998" fill="none" stroke="rgb(107,0,0)" stroke-width="0.1"/>
  <path d="M 0.0,61.26607149999998 L 100.0,61.26607149999998" fill="none" stroke="rgb(107,0,0)" stroke-width="0.1"/>
  <path d="M 0.0,72.76607149999998 L 100.0,72.76607149999998" fill="none" stroke="rgb(107,0,0)" stroke-width="0.1"/>
 </g>
 <g id="layerA-WALL" inkscape:groupmode="layer" inkscape:label="A-WALL">
  <path d="M 82.0,73.76607149999998 L 76.0,73.76607149999998" fill="none" stroke="rgb(134,134,134)" stroke-width="0.1"/>
  <path d="M 80.0,71.76607149999998 L 76.0,71.76607149999998" fill="none" stroke="rgb(134,134,134)" stroke-width="0.1"/>
  <path d="M 62.5,73.76607149999998 L 56.5,73.76607149999998" fill="none" stroke="rgb(134,134,134)" stroke-width="0.1"/>
  <path d="M 62.5,71.76607149999998 L 56.5,71.76607149999998" fill="none" stroke="rgb(134,134,134)" stroke-width="0.1"/>
  <path d="M 43.0,73.76607149999998 L 37.0,73.76607149999998" fill="none" stroke="rgb(134,134,134)" stroke-width="0.1"/>
  <path d="M 43.0,71.76607149999998 L 37.0,71.76607149999998" fill="none" stroke="rgb(134,134,134)" stroke-width="0.1"/>
  <path d="M 82.0,8.666071500000015 L 82.0,14.666071500000015" fill="none" stroke="rgb(134,134,134)" stroke-width="0.1"/>
  <path d="M 80.0,8.666071500000015 L 80.0,14.666071500000015" fill="none" stroke="rgb(134,134,134)" stroke-width="0.1"/>
  <path d="M 82.0,28.366071500000004 L 82.0,34.366071500000004" fill="none" stroke="rgb(134,134,134)" stroke-width="0.1"/>
  <path d="M 80.0,28.366071500000004 L 80.0,34.366071500000004" fill="none" stroke="rgb(134,134,134)" stroke-width="0.1"/>
  <path d="M 82.0,48.06607149999999 L 82.0,54.06607149999999" fill="none" stroke="rgb(134,134,134)" stroke-width="0.1"/>
  <path d="M 80.0,48.06607149999999 L 80.0,54.06607149999999" fill="none" stroke="rgb(134,134,134)" stroke-width="0.1"/>
  <path d="M 82.0,67.76607149999998 L 82.0,73.76607149999998" fill="none" stroke="rgb(134,134,134)" stroke-width="0.1"/>
  <path d="M 80.0,67.76607149999998 L 80.0,71.76607149999998" fill="none" stroke="rgb(134,134,134)" stroke-width="0.1"/>
  <path d="M 4.0,73.76607149999998 L 0.0,73.76607149999998" fill="none" stroke="rgb(134,134,134)" stroke-width="0.1"/>
  <path d="M 4.0,71.76607149999998 L 0.0,71.76607149999998" fill="none" stroke="rgb(134,134,134)" stroke-width="0.1"/>
  <path d="M 23.5,73.76607149999998 L 17.5,73.76607149999998" fill="none" stroke="rgb(134,134,134)" stroke-width="0.1"/>
  <path d="M 23.5,71.76607149999998 L 17.5,71.76607149999998" fill="none" stroke="rgb(134,134,134)" stroke-width="0.1"/>
  <path d="M 56.5,71.76607149999998 L 56.5,73.76607149999998" fill="none" stroke="rgb(134,134,134)" stroke-width="0.1"/>
  <path d="M 43.0,71.76607149999998 L 43.0,73.76607149999998" fill="none" stroke="rgb(134,134,134)" stroke-width="0.1"/>
  <path d="M 76.0,71.76607149999998 L 76.0,73.76607149999998" fill="none" stroke="rgb(134,134,134)" stroke-width="0.1"/>
  <path d="M 62.5,71.76607149999998 L 62.5,73.76607149999998" fill="none" stroke="rgb(134,134,134)" stroke-width="0.1"/>
  <path d="M 80.0,54.06607149999999 L 82.0,54.06607149999999" fill="none" stroke="rgb(134,134,134)" stroke-width="0.1"/>
  <path d="M 80.0,67.76607149999998 L 82.0,67.76607149999998" fill="none" stroke="rgb(134,134,134)" stroke-width="0.1"/>
  <path d="M 80.0,34.366071500000004 L 82.0,34.366071500000004" fill="none" stroke="rgb(134,134,134)" stroke-width="0.1"/>
  <path d="M 80.0,48.06607149999999 L 82.0,48.06607149999999" fill="none" stroke="rgb(134,134,134)" stroke-width="0.1"/>
  <path d="M 80.0,14.666071500000015 L 82.0,14.666071500000015" fill="none" stroke="rgb(134,134,134)" stroke-width="0.1"/>
  <path d="M 80.0,28.366071500000004 L 82.0,28.366071500000004" fill="none" stroke="rgb(134,134,134)" stroke-width="0.1"/>
  <path d="M 80.0,8.666071500000015 L 82.0,8.666071500000015" fill="none" stroke="rgb(134,134,134)" stroke-width="0.1"/>
  <path d="M 37.0,71.76607149999998 L 37.0,73.76607149999998" fill="none" stroke="rgb(134,134,134)" stroke-width="0.1"/>
  <path d="M 23.5,71.76607149999998 L 23.5,73.76607149999998" fill="none" stroke="rgb(134,134,134)" stroke-width="0.1"/>
  <path d="M 17.5,71.76607149999998 L 17.5,73.76607149999998" fill="none" stroke="rgb(134,134,134)" stroke-width="0.1"/>
  <path d="M 4.0,71.76607149999998 L 4.0,73.76607149999998" fill="none" stroke="rgb(134,134,134)" stroke-width="0.1"/>
  <path d="M 84.0,70.26607149999998 L 83.5,70.26607149999998" fill="none" stroke="rgb(134,134,134)" stroke-width="0.1"/>
  <path d="M 84.0,61.416071500000015 L 83.5,61.416071500000015" fill="none" stroke="rgb(134,134,134)" stroke-width="0.1"/>
  <path d="M 84.0,60.416071500000015 L 83.5,60.416071500000015" fill="none" stroke="rgb(134,134,134)" stroke-width="0.1"/>
  <path d="M 84.0,51.56607149999999 L 83.5,51.56607149999999" fill="none" stroke="rgb(134,134,134)" stroke-width="0.1"/>
  <path d="M 84.0,50.56607149999999 L 83.5,50.56607149999999" fill="none" stroke="rgb(134,134,134)" stroke-width="0.1"/>
  <path d="M 84.0,41.71607150000003 L 83.5,41.71607150000003" fill="none" stroke="rgb(134,134,134)" stroke-width="0.1"/>
  <path d="M 84.0,40.71607150000003 L 83.5,40.71607150000003" fill="none" stroke="rgb(134,134,134)" stroke-width="0.1"/>
  <path d="M 84.0,31.866071500000004 L 83.5,31.866071500000004" fill="none" stroke="rgb(134,134,134)" stroke-width="0.1"/>
  <path d="M 84.0,30.866071500000004 L 83.5,30.866071500000004" fill="none" stroke="rgb(134,134,134)" stroke-width="0.1"/>
  <path d="M 84.0,22.01607149999998 L 83.5,22.01607149999998" fill="none" stroke="rgb(134,134,134)" stroke-width="0.1"/>
  <path d="M 84.0,1.3160714999999925 L 83.5,1.3160714999999925" fill="none" stroke="rgb(134,134,134)" stroke-width="0.1"/>
  <path d="M 84.0,21.01607149999998 L 83.5,21.01607149999998" fill="none" stroke="rgb(134,134,134)" stroke-width="0.1"/>
  <path d="M 84.0,12.166071500000015 L 83.5,12.166071500000015" fill="none" stroke="rgb(134,134,134)" stroke-width="0.1"/>
  <path d="M 84.0,11.166071500000015 L 83.5,11.166071500000015" fill="none" stroke="rgb(134,134,134)" stroke-width="0.1"/>
  <path d="M 84.0,2.3160714999999925 L 83.5,2.3160714999999925" fill="none" stroke="rgb(134,134,134)" stroke-width="0.1"/>
  <path d="M 0.5,75.76607149999998 L 0.5,75.26607149999998" fill="none" stroke="rgb(134,134,134)" stroke-width="0.1"/>
  <path d="M 10.25,75.26607149999998 L 10.25,75.76607149999998" fill="none" stroke="rgb(134,134,134)" stroke-width="0.1"/>
  <path d="M 1.5,75.26607149999998 L 1.5,75.76607149999998" fill="none" stroke="rgb(134,134,134)" stroke-width="0.1"/>
  <path d="M 11.25,75.76607149999998 L 11.25,75.26607149999998" fill="none" stroke="rgb(134,134,134)" stroke-width="0.1"/>
  <path d="M 20.0,75.76607149999998 L 20.0,75.26607149999998" fill="none" stroke="rgb(134,134,134)" stroke-width="0.1"/>
  <path d="M 29.75,75.26607149999998 L 29.75,75.76607149999998" fill="none" stroke="rgb(134,134,134)" stroke-width="0.1"/>
  <path d="M 21.0,75.26607149999998 L 21.0,75.76607149999998" fill="none" stroke="rgb(134,134,134)" stroke-width="0.1"/>
  <path d="M 30.75,75.76607149999998 L 30.75,75.26607149999998" fill="none" stroke="rgb(134,134,134)" stroke-width="0.1"/>
  <path d="M 39.5,75.76607149999998 L 39.5,75.26607149999998" fill="none" stroke="rgb(134,134,134)" stroke-width="0.1"/>
  <path d="M 49.25,75.26607149999998 L 49.25,75.76607149999998" fill="none" stroke="rgb(134,134,134)" stroke-width="0.1"/>
  <path d="M 40.5,75.26607149999998 L 40.5,75.76607149999998" fill="none" stroke="rgb(134,134,134)" stroke-width="0.1"/>
  <path d="M 50.25,75.76607149999998 L 50.25,75.26607149999998" fill="none" stroke="rgb(134,134,134)" stroke-width="0.1"/>
  <path d="M 59.0,75.76607149999998 L 59.0,75.26607149999998" fill="none" stroke="rgb(134,134,134)" stroke-width="0.1"/>
  <path d="M 68.75,75.26607149999998 L 68.75,75.76607149999998" fill="none" stroke="rgb(134,134,134)" stroke-width="0.1"/>
  <path d="M 60.0,75.26607149999998 L 60.0,75.76607149999998" fill="none" stroke="rgb(134,134,134)" stroke-width="0.1"/>
  <path d="M 69.75,75.76607149999998 L 69.75,75.26607149999998" fill="none" stroke="rgb(134,134,134)" stroke-width="0.1"/>
  <path d="M 78.5,75.76607149999998 L 78.5,75.26607149999998" fill="none" stroke="rgb(134,134,134)" stroke-width="0.1"/>
  <path d="M 83.5,75.26607149999998 L 83.5,75.76607149999998" fill="none" stroke="rgb(134,134,134)" stroke-width="0.1"/>
  <path d="M 83.5,75.76607149999998 L 84.0,75.76607149999998" fill="none" stroke="rgb(134,134,134)" stroke-width="0.1"/>
  <path d="M 79.5,75.26607149999998 L 79.5,75.76607149999998" fill="none" stroke="rgb(134,134,134)" stroke-width="0.1"/>
  <path d="M 84.0,71.26607149999998 L 84.0,75.76607149999998" fill="none" stroke="rgb(134,134,134)" stroke-width="0.1"/>
  <path d="M 83.5,71.26607149999998 L 83.5,75.26607149999998" fill="none" stroke="rgb(134,134,134)" stroke-width="0.1"/>
  <path d="M 84.0,71.26607149999998 L 83.5,71.26607149999998" fill="none" stroke="rgb(134,134,134)" stroke-width="0.1"/>
  <path d="M 87.0,0.0 L 87.0,78.76607149999998" fill="none" stroke="rgb(134,134,134)" stroke-width="0.1"/>
  <path d="M 87.0,78.76607149999998 L 0.0,78.76607149999998" fill="none" stroke="rgb(134,134,134)" stroke-width="0.1"/>
 </g>
 <g id="layerA-WINDOW" inkscape:groupmode="layer" inkscape:label="A-WINDOW">
  <path d="M 43.0,71.76607149999998 L 43.0,74.76607149999998" fill="none" stroke="rgb(53,133,160)" stroke-width="0.1"/>
  <path d="M 56.5,74.76607149999998 L 56.5,71.76607149999998" fill="none" stroke="rgb(53,133,160)" stroke-width="0.1"/>
  <path d="M 56.5,71.76607149999998 L 43.0,71.76607149999998" fill="none" stroke="rgb(53,133,160)" stroke-width="0.1"/>
  <path d="M 56.5,74.76607149999998 L 43.0,74.76607149999998" fill="none" instance-id="-1" semantic-id="2" stroke="rgb(53,133,160)" stroke-width="0.1"/>
  <path d="M 62.5,71.76607149999998 L 62.5,74.76607149999998" fill="none" stroke="rgb(53,133,160)" stroke-width="0.1"/>
  <path d="M 76.0,74.76607149999998 L 76.0,71.76607149999998" fill="none" stroke="rgb(53,133,160)" stroke-width="0.1"/>
  <path d="M 76.0,71.76607149999998 L 62.5,71.76607149999998" fill="none" stroke="rgb(53,133,160)" stroke-width="0.1"/>
  <path d="M 76.0,74.76607149999998 L 62.5,74.76607149999998" fill="none" instance-id="-1" semantic-id="2" stroke="rgb(53,133,160)" stroke-width="0.1"/>
  <path d="M 80.0,67.76607149999998 L 83.0,67.76607149999998" fill="none" stroke="rgb(53,133,160)" stroke-width="0.1"/>
  <path d="M 83.0,54.06607149999999 L 80.0,54.06607149999999" fill="none" stroke="rgb(53,133,160)" stroke-width="0.1"/>
  <path d="M 80.0,54.06607149999999 L 80.0,67.76607149999998" fill="none" stroke="rgb(53,133,160)" stroke-width="0.1"/>
  <path d="M 83.0,54.06607149999999 L 83.0,67.76607149999998" fill="none" instance-id="-1" semantic-id="2" stroke="rgb(53,133,160)" stroke-width="0.1"/>
  <path d="M 80.0,48.06607149999999 L 83.0,48.06607149999999" fill="none" stroke="rgb(53,133,160)" stroke-width="0.1"/>
  <path d="M 83.0,34.366071500000004 L 80.0,34.366071500000004" fill="none" stroke="rgb(53,133,160)" stroke-width="0.1"/>
  <path d="M 80.0,34.366071500000004 L 80.0,48.06607149999999" fill="none" stroke="rgb(53,133,160)" stroke-width="0.1"/>
  <path d="M 83.0,34.366071500000004 L 83.0,48.06607149999999" fill="none" instance-id="-1" semantic-id="2" stroke="rgb(53,133,160)" stroke-width="0.1"/>
  <path d="M 80.0,28.366071500000004 L 83.0,28.366071500000004" fill="none" stroke="rgb(53,133,160)" stroke-width="0.1"/>
  <path d="M 83.0,14.666071500000015 L 80.0,14.666071500000015" fill="none" stroke="rgb(53,133,160)" stroke-width="0.1"/>
  <path d="M 80.0,14.666071500000015 L 80.0,28.366071500000004" fill="none" stroke="rgb(53,133,160)" stroke-width="0.1"/>
  <path d="M 83.0,14.666071500000015 L 83.0,28.366071500000004" fill="none" instance-id="-1" semantic-id="2" stroke="rgb(53,133,160)" stroke-width="0.1"/>
  <path d="M 80.0,8.666071500000015 L 83.0,8.666071500000015" fill="none" stroke="rgb(53,133,160)" stroke-width="0.1"/>
  <path d="M 80.0,0.0 L 80.0,8.666071500000015" fill="none" stroke="rgb(53,133,160)" stroke-width="0.1"/>
  <path d="M 83.0,0.0 L 83.0,8.666071500000015" fill="none" instance-id="-1" semantic-id="2" stroke="rgb(53,133,160)" stroke-width="0.1"/>
  <path d="M 23.5,71.76607149999998 L 23.5,74.76607149999998" fill="none" stroke="rgb(53,133,160)" stroke-width="0.1"/>
  <path d="M 37.0,74.76607149999998 L 37.0,71.76607149999998" fill="none" stroke="rgb(53,133,160)" stroke-width="0.1"/>
  <path d="M 37.0,71.76607149999998 L 23.5,71.76607149999998" fill="none" stroke="rgb(53,133,160)" stroke-width="0.1"/>
  <path d="M 37.0,74.76607149999998 L 23.5,74.76607149999998" fill="none" instance-id="-1" semantic-id="2" stroke="rgb(53,133,160)" stroke-width="0.1"/>
  <path d="M 4.0,71.76607149999998 L 4.0,74.76607149999998" fill="none" stroke="rgb(53,133,160)" stroke-width="0.1"/>
  <path d="M 17.5,74.76607149999998 L 17.5,71.76607149999998" fill="none" stroke="rgb(53,133,160)" stroke-width="0.1"/>
  <path d="M 17.5,71.76607149999998 L 4.0,71.76607149999998" fill="none" stroke="rgb(53,133,160)" stroke-width="0.1"/>
  <path d="M 17.5,74.76607149999998 L 4.0,74.76607149999998" fill="none" instance-id="-1" semantic-id="2" stroke="rgb(53,133,160)" stroke-width="0.1"/>
  <path d="M 83.5,71.26607149999998 L 84.0,71.26607149999998" fill="none" instance-id="-1" semantic-id="2" stroke="rgb(53,133,160)" stroke-width="0.1"/>
  <path d="M 79.5,75.26607149999998 L 79.5,75.76607149999998" fill="none" instance-id="-1" semantic-id="2" stroke="rgb(53,133,160)" stroke-width="0.1"/>
  <path d="M 84.0,61.416071500000015 L 83.5,61.416071500000015" fill="none" instance-id="-1" semantic-id="2" stroke="rgb(53,133,160)" stroke-width="0.1"/>
  <path d="M 83.5,70.26607149999998 L 84.0,70.26607149999998" fill="none" instance-id="-1" semantic-id="2" stroke="rgb(53,133,160)" stroke-width="0.1"/>
  <path d="M 83.66699999999997,61.416071500000015 L 83.66699999999997,70.26607149999998" fill="none" instance-id="-1" semantic-id="2" stroke="rgb(53,133,160)" stroke-width="0.1"/>
  <path d="M 83.83300000000003,61.416071500000015 L 83.83300000000003,70.26607149999998" fill="none" instance-id="-1" semantic-id="2" stroke="rgb(53,133,160)" stroke-width="0.1"/>
  <path d="M 84.0,70.26607149999998 L 84.0,61.416071500000015" fill="none" instance-id="-1" semantic-id="2" stroke="rgb(53,133,160)" stroke-width="0.1"/>
  <path d="M 83.5,70.26607149999998 L 83.5,61.416071500000015" fill="none" instance-id="-1" semantic-id="2" stroke="rgb(53,133,160)" stroke-width="0.1"/>
  <path d="M 84.0,41.71607150000003 L 83.5,41.71607150000003" fill="none" instance-id="-1" semantic-id="2" stroke="rgb(53,133,160)" stroke-width="0.1"/>
  <path d="M 83.5,50.56607149999999 L 84.0,50.56607149999999" fill="none" instance-id="-1" semantic-id="2" stroke="rgb(53,133,160)" stroke-width="0.1"/>
  <path d="M 83.66699999999997,41.71607150000003 L 83.66699999999997,50.56607149999999" fill="none" instance-id="-1" semantic-id="2" stroke="rgb(53,133,160)" stroke-width="0.1"/>
  <path d="M 83.83300000000003,41.71607150000003 L 83.83300000000003,50.56607149999999" fill="none" instance-id="-1" semantic-id="2" stroke="rgb(53,133,160)" stroke-width="0.1"/>
  <path d="M 84.0,50.56607149999999 L 84.0,41.71607150000003" fill="none" instance-id="-1" semantic-id="2" stroke="rgb(53,133,160)" stroke-width="0.1"/>
  <path d="M 83.5,50.56607149999999 L 83.5,41.71607150000003" fill="none" instance-id="-1" semantic-id="2" stroke="rgb(53,133,160)" stroke-width="0.1"/>
  <path d="M 84.0,22.01607149999998 L 83.5,22.01607149999998" fill="none" instance-id="-1" semantic-id="2" stroke="rgb(53,133,160)" stroke-width="0.1"/>
  <path d="M 83.5,30.866071500000004 L 84.0,30.866071500000004" fill="none" instance-id="-1" semantic-id="2" stroke="rgb(53,133,160)" stroke-width="0.1"/>
  <path d="M 83.66699999999997,22.01607149999998 L 83.66699999999997,30.866071500000004" fill="none" instance-id="-1" semantic-id="2" stroke="rgb(53,133,160)" stroke-width="0.1"/>
  <path d="M 83.83300000000003,22.01607149999998 L 83.83300000000003,30.866071500000004" fill="none" instance-id="-1" semantic-id="2" stroke="rgb(53,133,160)" stroke-width="0.1"/>
  <path d="M 84.0,30.866071500000004 L 84.0,22.01607149999998" fill="none" instance-id="-1" semantic-id="2" stroke="rgb(53,133,160)" stroke-width="0.1"/>
  <path d="M 83.5,30.866071500000004 L 83.5,22.01607149999998" fill="none" instance-id="-1" semantic-id="2" stroke="rgb(53,133,160)" stroke-width="0.1"/>
  <path d="M 84.0,2.3160714999999925 L 83.5,2.3160714999999925" fill="none" instance-id="-1" semantic-id="2" stroke="rgb(53,133,160)" stroke-width="0.1"/>
  <path d="M 83.5,11.166071500000015 L 84.0,11.166071500000015" fill="none" instance-id="-1" semantic-id="2" stroke="rgb(53,133,160)" stroke-width="0.1"/>
  <path d="M 83.66699999999997,2.3160714999999925 L 83.66699999999997,11.166071500000015" fill="none" instance-id="-1" semantic-id="2" stroke="rgb(53,133,160)" stroke-width="0.1"/>
  <path d="M 83.83300000000003,2.3160714999999925 L 83.83300000000003,11.166071500000015" fill="none" instance-id="-1" semantic-id="2" stroke="rgb(53,133,160)" stroke-width="0.1"/>
  <path d="M 84.0,11.166071500000015 L 84.0,2.3160714999999925" fill="none" instance-id="-1" semantic-id="2" stroke="rgb(53,133,160)" stroke-width="0.1"/>
  <path d="M 83.5,11.166071500000015 L 83.5,2.3160714999999925" fill="none" instance-id="-1" semantic-id="2" stroke="rgb(53,133,160)" stroke-width="0.1"/>
  <path d="M 0.5,75.26607149999998 L 0.5,75.76607149999998" fill="none" instance-id="-1" semantic-id="2" stroke="rgb(53,133,160)" stroke-width="0.1"/>
  <path d="M 0.0,75.43307150000001 L 0.5,75.43307150000001" fill="none" instance-id="-1" semantic-id="2" stroke="rgb(53,133,160)" stroke-width="0.1"/>
  <path d="M 0.0,75.59907150000001 L 0.5,75.59907150000001" fill="none" instance-id="-1" semantic-id="2" stroke="rgb(53,133,160)" stroke-width="0.1"/>
  <path d="M 0.5,75.76607149999998 L 0.0,75.76607149999998" fill="none" instance-id="-1" semantic-id="2" stroke="rgb(53,133,160)" stroke-width="0.1"/>
  <path d="M 0.5,75.26607149999998 L 0.0,75.26607149999998" fill="none" instance-id="-1" semantic-id="2" stroke="rgb(53,133,160)" stroke-width="0.1"/>
  <path d="M 11.25,75.76607149999998 L 11.25,75.26607149999998" fill="none" instance-id="-1" semantic-id="2" stroke="rgb(53,133,160)" stroke-width="0.1"/>
  <path d="M 20.0,75.26607149999998 L 20.0,75.76607149999998" fill="none" instance-id="-1" semantic-id="2" stroke="rgb(53,133,160)" stroke-width="0.1"/>
  <path d="M 11.25,75.43307150000001 L 20.0,75.43307150000001" fill="none" instance-id="-1" semantic-id="2" stroke="rgb(53,133,160)" stroke-width="0.1"/>
  <path d="M 11.25,75.59907150000001 L 20.0,75.59907150000001" fill="none" instance-id="-1" semantic-id="2" stroke="rgb(53,133,160)" stroke-width="0.1"/>
  <path d="M 20.0,75.76607149999998 L 11.25,75.76607149999998" fill="none" instance-id="-1" semantic-id="2" stroke="rgb(53,133,160)" stroke-width="0.1"/>
  <path d="M 20.0,75.26607149999998 L 11.25,75.26607149999998" fill="none" instance-id="-1" semantic-id="2" stroke="rgb(53,133,160)" stroke-width="0.1"/>
  <path d="M 30.75,75.76607149999998 L 30.75,75.26607149999998" fill="none" instance-id="-1" semantic-id="2" stroke="rgb(53,133,160)" stroke-width="0.1"/>
  <path d="M 39.5,75.26607149999998 L 39.5,75.76607149999998" fill="none" instance-id="-1" semantic-id="2" stroke="rgb(53,133,160)" stroke-width="0.1"/>
  <path d="M 30.75,75.43307150000001 L 39.5,75.43307150000001" fill="none" instance-id="-1" semantic-id="2" stroke="rgb(53,133,160)" stroke-width="0.1"/>
  <path d="M 30.75,75.59907150000001 L 39.5,75.59907150000001" fill="none" instance-id="-1" semantic-id="2" stroke="rgb(53,133,160)" stroke-width="0.1"/>
  <path d="M 39.5,75.76607149999998 L 30.75,75.76607149999998" fill="none" instance-id="-1" semantic-id="2" stroke="rgb(53,133,160)" stroke-width="0.1"/>
  <path d="M 39.5,75.26607149999998 L 30.75,75.26607149999998" fill="none" instance-id="-1" semantic-id="2" stroke="rgb(53,133,160)" stroke-width="0.1"/>
  <path d="M 50.25,75.76607149999998 L 50.25,75.26607149999998" fill="none" instance-id="-1" semantic-id="2" stroke="rgb(53,133,160)" stroke-width="0.1"/>
  <path d="M 59.0,75.26607149999998 L 59.0,75.76607149999998" fill="none" instance-id="-1" semantic-id="2" stroke="rgb(53,133,160)" stroke-width="0.1"/>
  <path d="M 50.25,75.43307150000001 L 59.0,75.43307150000001" fill="none" instance-id="-1" semantic-id="2" stroke="rgb(53,133,160)" stroke-width="0.1"/>
  <path d="M 50.25,75.59907150000001 L 59.0,75.59907150000001" fill="none" instance-id="-1" semantic-id="2" stroke="rgb(53,133,160)" stroke-width="0.1"/>
  <path d="M 59.0,75.76607149999998 L 50.25,75.76607149999998" fill="none" instance-id="-1" semantic-id="2" stroke="rgb(53,133,160)" stroke-width="0.1"/>
  <path d="M 59.0,75.26607149999998 L 50.25,75.26607149999998" fill="none" instance-id="-1" semantic-id="2" stroke="rgb(53,133,160)" stroke-width="0.1"/>
  <path d="M 69.75,75.76607149999998 L 69.75,75.26607149999998" fill="none" instance-id="-1" semantic-id="2" stroke="rgb(53,133,160)" stroke-width="0.1"/>
  <path d="M 78.5,75.26607149999998 L 78.5,75.76607149999998" fill="none" instance-id="-1" semantic-id="2" stroke="rgb(53,133,160)" stroke-width="0.1"/>
  <path d="M 69.75,75.43307150000001 L 78.5,75.43307150000001" fill="none" instance-id="-1" semantic-id="2" stroke="rgb(53,133,160)" stroke-width="0.1"/>
  <path d="M 69.75,75.59907150000001 L 78.5,75.59907150000001" fill="none" instance-id="-1" semantic-id="2" stroke="rgb(53,133,160)" stroke-width="0.1"/>
  <path d="M 78.5,75.76607149999998 L 69.75,75.76607149999998" fill="none" instance-id="-1" semantic-id="2" stroke="rgb(53,133,160)" stroke-width="0.1"/>
  <path d="M 78.5,75.26607149999998 L 69.75,75.26607149999998" fill="none" instance-id="-1" semantic-id="2" stroke="rgb(53,133,160)" stroke-width="0.1"/>
  <path d="M 10.25,75.76607149999998 L 10.25,75.26607149999998" fill="none" instance-id="-1" semantic-id="2" stroke="rgb(53,133,160)" stroke-width="0.1"/>
  <path d="M 1.5,75.26607149999998 L 1.5,75.76607149999998" fill="none" instance-id="-1" semantic-id="2" stroke="rgb(53,133,160)" stroke-width="0.1"/>
  <path d="M 10.25,75.43307150000001 L 1.5,75.43307150000001" fill="none" instance-id="-1" semantic-id="2" stroke="rgb(53,133,160)" stroke-width="0.1"/>
  <path d="M 10.25,75.59907150000001 L 1.5,75.59907150000001" fill="none" instance-id="-1" semantic-id="2" stroke="rgb(53,133,160)" stroke-width="0.1"/>
  <path d="M 1.5,75.76607149999998 L 10.25,75.76607149999998" fill="none" instance-id="-1" semantic-id="2" stroke="rgb(53,133,160)" stroke-width="0.1"/>
  <path d="M 1.5,75.26607149999998 L 10.25,75.26607149999998" fill="none" instance-id="-1" semantic-id="2" stroke="rgb(53,133,160)" stroke-width="0.1"/>
  <path d="M 29.75,75.76607149999998 L 29.75,75.26607149999998" fill="none" instance-id="-1" semantic-id="2" stroke="rgb(53,133,160)" stroke-width="0.1"/>
  <path d="M 21.0,75.26607149999998 L 21.0,75.76607149999998" fill="none" instance-id="-1" semantic-id="2" stroke="rgb(53,133,160)" stroke-width="0.1"/>
  <path d="M 29.75,75.43307150000001 L 21.0,75.43307150000001" fill="none" instance-id="-1" semantic-id="2" stroke="rgb(53,133,160)" stroke-width="0.1"/>
  <path d="M 29.75,75.59907150000001 L 21.0,75.59907150000001" fill="none" instance-id="-1" semantic-id="2" stroke="rgb(53,133,160)" stroke-width="0.1"/>
  <path d="M 21.0,75.76607149999998 L 29.75,75.76607149999998" fill="none" instance-id="-1" semantic-id="2" stroke="rgb(53,133,160)" stroke-width="0.1"/>
  <path d="M 21.0,75.26607149999998 L 29.75,75.26607149999998" fill="none" instance-id="-1" semantic-id="2" stroke="rgb(53,133,160)" stroke-width="0.1"/>
  <path d="M 49.25,75.76607149999998 L 49.25,75.26607149999998" fill="none" instance-id="-1" semantic-id="2" stroke="rgb(53,133,160)" stroke-width="0.1"/>
  <path d="M 40.5,75.26607149999998 L 40.5,75.76607149999998" fill="none" instance-id="-1" semantic-id="2" stroke="rgb(53,133,160)" stroke-width="0.1"/>
  <path d="M 49.25,75.43307150000001 L 40.5,75.43307150000001" fill="none" instance-id="-1" semantic-id="2" stroke="rgb(53,133,160)" stroke-width="0.1"/>
  <path d="M 49.25,75.59907150000001 L 40.5,75.59907150000001" fill="none" instance-id="-1" semantic-id="2" stroke="rgb(53,133,160)" stroke-width="0.1"/>
  <path d="M 40.5,75.76607149999998 L 49.25,75.76607149999998" fill="none" instance-id="-1" semantic-id="2" stroke="rgb(53,133,160)" stroke-width="0.1"/>
  <path d="M 40.5,75.26607149999998 L 49.25,75.26607149999998" fill="none" instance-id="-1" semantic-id="2" stroke="rgb(53,133,160)" stroke-width="0.1"/>
  <path d="M 68.75,75.76607149999998 L 68.75,75.26607149999998" fill="none" instance-id="-1" semantic-id="2" stroke="rgb(53,133,160)" stroke-width="0.1"/>
  <path d="M 60.0,75.26607149999998 L 60.0,75.76607149999998" fill="none" instance-id="-1" semantic-id="2" stroke="rgb(53,133,160)" stroke-width="0.1"/>
  <path d="M 68.75,75.43307150000001 L 60.0,75.43307150000001" fill="none" instance-id="-1" semantic-id="2" stroke="rgb(53,133,160)" stroke-width="0.1"/>
  <path d="M 68.75,75.59907150000001 L 60.0,75.59907150000001" fill="none" instance-id="-1" semantic-id="2" stroke="rgb(53,133,160)" stroke-width="0.1"/>
  <path d="M 60.0,75.76607149999998 L 68.75,75.76607149999998" fill="none" instance-id="-1" semantic-id="2" stroke="rgb(53,133,160)" stroke-width="0.1"/>
  <path d="M 60.0,75.26607149999998 L 68.75,75.26607149999998" fill="none" instance-id="-1" semantic-id="2" stroke="rgb(53,133,160)" stroke-width="0.1"/>
  <path d="M 84.0,1.3160714999999925 L 83.5,1.3160714999999925" fill="none" instance-id="-1" semantic-id="2" stroke="rgb(53,133,160)" stroke-width="0.1"/>
  <path d="M 83.66699999999997,1.3160714999999925 L 83.66699999999997,0.0" fill="none" instance-id="-1" semantic-id="2" stroke="rgb(53,133,160)" stroke-width="0.1"/>
  <path d="M 83.83300000000003,1.3160714999999925 L 83.83300000000003,0.0" fill="none" instance-id="-1" semantic-id="2" stroke="rgb(53,133,160)" stroke-width="0.1"/>
  <path d="M 84.0,0.0 L 84.0,1.3160714999999925" fill="none" instance-id="-1" semantic-id="2" stroke="rgb(53,133,160)" stroke-width="0.1"/>
  <path d="M 83.5,0.0 L 83.5,1.3160714999999925" fill="none" instance-id="-1" semantic-id="2" stroke="rgb(53,133,160)" stroke-width="0.1"/>
  <path d="M 84.0,21.01607149999998 L 83.5,21.01607149999998" fill="none" instance-id="-1" semantic-id="2" stroke="rgb(53,133,160)" stroke-width="0.1"/>
  <path d="M 83.5,12.166071500000015 L 84.0,12.166071500000015" fill="none" instance-id="-1" semantic-id="2" stroke="rgb(53,133,160)" stroke-width="0.1"/>
  <path d="M 83.66699999999997,21.01607149999998 L 83.66699999999997,12.166071500000015" fill="none" instance-id="-1" semantic-id="2" stroke="rgb(53,133,160)" stroke-width="0.1"/>
  <path d="M 83.83300000000003,21.01607149999998 L 83.83300000000003,12.166071500000015" fill="none" instance-id="-1" semantic-id="2" stroke="rgb(53,133,160)" stroke-width="0.1"/>
  <path d="M 84.0,12.166071500000015 L 84.0,21.01607149999998" fill="none" instance-id="-1" semantic-id="2" stroke="rgb(53,133,160)" stroke-width="0.1"/>
  <path d="M 83.5,12.166071500000015 L 83.5,21.01607149999998" fill="none" instance-id="-1" semantic-id="2" stroke="rgb(53,133,160)" stroke-width="0.1"/>
  <path d="M 84.0,40.71607150000003 L 83.5,40.71607150000003" fill="none" instance-id="-1" semantic-id="2" stroke="rgb(53,133,160)" stroke-width="0.1"/>
  <path d="M 83.5,31.866071500000004 L 84.0,31.866071500000004" fill="none" instance-id="-1" semantic-id="2" stroke="rgb(53,133,160)" stroke-width="0.1"/>
  <path d="M 83.66699999999997,40.71607150000003 L 83.66699999999997,31.866071500000004" fill="none" instance-id="-1" semantic-id="2" stroke="rgb(53,133,160)" stroke-width="0.1"/>
  <path d="M 83.83300000000003,40.71607150000003 L 83.83300000000003,31.866071500000004" fill="none" instance-id="-1" semantic-id="2" stroke="rgb(53,133,160)" stroke-width="0.1"/>
  <path d="M 84.0,31.866071500000004 L 84.0,40.71607150000003" fill="none" instance-id="-1" semantic-id="2" stroke="rgb(53,133,160)" stroke-width="0.1"/>
  <path d="M 83.5,31.866071500000004 L 83.5,40.71607150000003" fill="none" instance-id="-1" semantic-id="2" stroke="rgb(53,133,160)" stroke-width="0.1"/>
  <path d="M 84.0,60.416071500000015 L 83.5,60.416071500000015" fill="none" instance-id="-1" semantic-id="2" stroke="rgb(53,133,160)" stroke-width="0.1"/>
  <path d="M 83.5,51.56607149999999 L 84.0,51.56607149999999" fill="none" instance-id="-1" semantic-id="2" stroke="rgb(53,133,160)" stroke-width="0.1"/>
  <path d="M 83.66699999999997,60.416071500000015 L 83.66699999999997,51.56607149999999" fill="none" instance-id="-1" semantic-id="2" stroke="rgb(53,133,160)" stroke-width="0.1"/>
  <path d="M 83.83300000000003,60.416071500000015 L 83.83300000000003,51.56607149999999" fill="none" instance-id="-1" semantic-id="2" stroke="rgb(53,133,160)" stroke-width="0.1"/>
  <path d="M 84.0,51.56607149999999 L 84.0,60.416071500000015" fill="none" instance-id="-1" semantic-id="2" stroke="rgb(53,133,160)" stroke-width="0.1"/>
  <path d="M 83.5,51.56607149999999 L 83.5,60.416071500000015" fill="none" instance-id="-1" semantic-id="2" stroke="rgb(53,133,160)" stroke-width="0.1"/>
  <path d="M 83.5,71.26607149999998 L 83.5,75.26607149999998" fill="none" instance-id="-1" semantic-id="2" stroke="rgb(53,133,160)" stroke-width="0.1"/>
  <path d="M 83.5,75.26607149999998 L 79.5,75.26607149999998" fill="none" instance-id="-1" semantic-id="2" stroke="rgb(53,133,160)" stroke-width="0.1"/>
  <path d="M 83.83300000000003,71.26607149999998 L 83.83300000000003,75.59907150000001" fill="none" instance-id="-1" semantic-id="2" stroke="rgb(53,133,160)" stroke-width="0.1"/>
  <path d="M 83.83300000000003,75.59907150000001 L 79.5,75.59907150000001" fill="none" instance-id="-1" semantic-id="2" stroke="rgb(53,133,160)" stroke-width="0.1"/>
  <path d="M 83.66699999999997,71.26607149999998 L 83.66699999999997,75.43307150000001" fill="none" instance-id="-1" semantic-id="2" stroke="rgb(53,133,160)" stroke-width="0.1"/>
  <path d="M 83.66699999999997,75.43307150000001 L 79.5,75.43307150000001" fill="none" instance-id="-1" semantic-id="2" stroke="rgb(53,133,160)" stroke-width="0.1"/>
  <path d="M 84.0,71.26607149999998 L 84.0,75.76607149999998" fill="none" instance-id="-1" semantic-id="2" stroke="rgb(53,133,160)" stroke-width="0.1"/>
  <path d="M 84.0,75.76607149999998 L 79.5,75.76607149999998" fill="none" instance-id="-1" semantic-id="2" stroke="rgb(53,133,160)" stroke-width="0.1"/>
 </g>
 <g id="layerA-WINDOW_TEXT" inkscape:groupmode="layer" inkscape:label="A-WINDOW_TEXT">
  <text fill="rgb(0,0,0)" font-family="Noto Sans CJK SC" font-size="2" transform="rotate(-0.0,78.43400000000003,82.55307150000002)" x="78.43400000000003" y="82.55307150000002">
   BLM0958
  </text>
  <text fill="rgb(0,0,0)" font-family="Noto Sans CJK SC" font-size="2" transform="rotate(-0.0,4.625,82.55207149999998)" x="4.625" y="82.55207149999998">
   BLM1858a
  </text>
  <text fill="rgb(0,0,0)" font-family="Noto Sans CJK SC" font-size="2" transform="rotate(-0.0,24.754999999999995,82.55207149999998)" x="24.754999999999995" y="82.55207149999998">
   BLM1858
  </text>
  <text fill="rgb(0,0,0)" font-family="Noto Sans CJK SC" font-size="2" transform="rotate(-0.0,43.625,82.55207149999998)" x="43.625" y="82.55207149999998">
   BLM1858a
  </text>
  <text fill="rgb(0,0,0)" font-family="Noto Sans CJK SC" font-size="2" transform="rotate(-0.0,63.754999999999995,82.55207149999998)" x="63.754999999999995" y="82.55207149999998">
   BLM1858
  </text>
  <text fill="rgb(0,0,0)" font-family="Noto Sans CJK SC" font-size="2" transform="rotate(-90.0,90.786,5.611071500000008)" x="90.786" y="5.611071500000008">
   BLM1958
  </text>
  <text fill="rgb(0,0,0)" font-family="Noto Sans CJK SC" font-size="2" transform="rotate(-90.0,90.786,25.311071499999997)" x="90.786" y="25.311071499999997">
   BLM1958
  </text>
  <text fill="rgb(0,0,0)" font-family="Noto Sans CJK SC" font-size="2" transform="rotate(-90.0,90.786,45.64107149999998)" x="90.786" y="45.64107149999998">
   BLM1958b
  </text>
  <text fill="rgb(0,0,0)" font-family="Noto Sans CJK SC" font-size="2" transform="rotate(-90.0,90.786,64.71107149999997)" x="90.786" y="64.71107149999997">
   BLM1958
  </text>
 </g>
 <g id="layerCOLU" inkscape:groupmode="layer" inkscape:label="COLU">
  <path d="M 3.5,62.26607149999998 L 11.5,62.26607149999998" fill="none" stroke="rgb(178,0,178)" stroke-width="0.1"/>
  <path d="M 11.5,62.26607149999998 L 11.5,54.26607149999998" fill="none" stroke="rgb(178,0,178)" stroke-width="0.1"/>
  <path d="M 11.5,54.26607149999998 L 3.5,54.26607149999998" fill="none" stroke="rgb(178,0,178)" stroke-width="0.1"/>
  <path d="M 3.5,54.26607149999998 L 3.5,62.26607149999998" fill="none" stroke="rgb(178,0,178)" stroke-width="0.1"/>
  <path d="M 65.5,62.26607149999998 L 73.5,62.26607149999998" fill="none" stroke="rgb(178,0,178)" stroke-width="0.1"/>
  <path d="M 73.5,62.26607149999998 L 73.5,54.26607149999998" fill="none" stroke="rgb(178,0,178)" stroke-width="0.1"/>
  <path d="M 73.5,54.26607149999998 L 65.5,54.26607149999998" fill="none" stroke="rgb(178,0,178)" stroke-width="0.1"/>
  <path d="M 65.5,54.26607149999998 L 65.5,62.26607149999998" fill="none" stroke="rgb(178,0,178)" stroke-width="0.1"/>
 </g>
 <g id="layerCOLU_HATCH" inkscape:groupmode="layer" inkscape:label="COLU_HATCH">
  <path d="M 3.5,62.26607149999998 L 11.5,62.26607149999998" fill="none" stroke="rgb(44,44,88)" stroke-width="0.1"/>
  <path d="M 11.5,62.26607149999998 L 11.5,54.26607149999998" fill="none" stroke="rgb(44,44,88)" stroke-width="0.1"/>
  <path d="M 11.5,54.26607149999998 L 3.5,54.26607149999998" fill="none" stroke="rgb(44,44,88)" stroke-width="0.1"/>
  <path d="M 3.5,54.26607149999998 L 3.5,62.26607149999998" fill="none" stroke="rgb(44,44,88)" stroke-width="0.1"/>
  <path d="M 65.5,62.26607149999998 L 73.5,62.26607149999998" fill="none" stroke="rgb(44,44,88)" stroke-width="0.1"/>
  <path d="M 73.5,62.26607149999998 L 73.5,54.26607149999998" fill="none" stroke="rgb(44,44,88)" stroke-width="0.1"/>
  <path d="M 73.5,54.26607149999998 L 65.5,54.26607149999998" fill="none" stroke="rgb(44,44,88)" stroke-width="0.1"/>
  <path d="M 65.5,54.26607149999998 L 65.5,62.26607149999998" fill="none" stroke="rgb(44,44,88)" stroke-width="0.1"/>
 </g>
 <g id="layerPUB_WALL" inkscape:groupmode="layer" inkscape:label="PUB_WALL">
  <path d="M 67.5,62.26607149999998 L 73.5,62.26607149999998" fill="none" stroke="rgb(134,134,134)" stroke-width="0.1"/>
  <path d="M 73.5,62.26607149999998 L 73.10000000000002,61.866071500000004" fill="none" stroke="rgb(134,134,134)" stroke-width="0.1"/>
  <path d="M 73.10000000000002,61.866071500000004 L 67.89999999999998,61.866071500000004" fill="none" stroke="rgb(134,134,134)" stroke-width="0.1"/>
  <path d="M 67.89999999999998,61.866071500000004 L 67.5,62.26607149999998" fill="none" stroke="rgb(134,134,134)" stroke-width="0.1"/>
  <path d="M 73.5,62.26607149999998 L 73.5,56.26607149999998" fill="none" stroke="rgb(134,134,134)" stroke-width="0.1"/>
  <path d="M 73.5,56.26607149999998 L 73.10000000000002,56.666071500000015" fill="none" stroke="rgb(134,134,134)" stroke-width="0.1"/>
  <path d="M 73.10000000000002,56.666071500000015 L 73.10000000000002,61.866071500000004" fill="none" stroke="rgb(134,134,134)" stroke-width="0.1"/>
  <path d="M 73.10000000000002,61.866071500000004 L 73.5,62.26607149999998" fill="none" stroke="rgb(134,134,134)" stroke-width="0.1"/>
  <path d="M 67.5,56.26607149999998 L 67.89999999999998,56.666071500000015" fill="none" stroke="rgb(134,134,134)" stroke-width="0.1"/>
  <path d="M 67.89999999999998,56.666071500000015 L 73.10000000000002,56.666071500000015" fill="none" stroke="rgb(134,134,134)" stroke-width="0.1"/>
  <path d="M 73.10000000000002,56.666071500000015 L 73.5,56.26607149999998" fill="none" stroke="rgb(134,134,134)" stroke-width="0.1"/>
  <path d="M 73.5,56.26607149999998 L 67.5,56.26607149999998" fill="none" stroke="rgb(134,134,134)" stroke-width="0.1"/>
  <path d="M 67.5,62.26607149999998 L 67.89999999999998,61.866071500000004" fill="none" stroke="rgb(134,134,134)" stroke-width="0.1"/>
  <path d="M 67.89999999999998,61.866071500000004 L 67.89999999999998,56.666071500000015" fill="none" stroke="rgb(134,134,134)" stroke-width="0.1"/>
  <path d="M 67.89999999999998,56.666071500000015 L 67.5,56.26607149999998" fill="none" stroke="rgb(134,134,134)" stroke-width="0.1"/>
  <path d="M 67.5,56.26607149999998 L 67.5,62.26607149999998" fill="none" stroke="rgb(134,134,134)" stroke-width="0.1"/>
  <path d="M 4.5,62.26607149999998 L 10.5,62.26607149999998" fill="none" stroke="rgb(134,134,134)" stroke-width="0.1"/>
  <path d="M 10.5,62.26607149999998 L 10.100000000000023,61.866071500000004" fill="none" stroke="rgb(134,134,134)" stroke-width="0.1"/>
  <path d="M 10.100000000000023,61.866071500000004 L 4.899999999999977,61.866071500000004" fill="none" stroke="rgb(134,134,134)" stroke-width="0.1"/>
  <path d="M 4.899999999999977,61.866071500000004 L 4.5,62.26607149999998" fill="none" stroke="rgb(134,134,134)" stroke-width="0.1"/>
  <path d="M 10.5,62.26607149999998 L 10.5,56.26607149999998" fill="none" stroke="rgb(134,134,134)" stroke-width="0.1"/>
  <path d="M 10.5,56.26607149999998 L 10.100000000000023,56.666071500000015" fill="none" stroke="rgb(134,134,134)" stroke-width="0.1"/>
  <path d="M 10.100000000000023,56.666071500000015 L 10.100000000000023,61.866071500000004" fill="none" stroke="rgb(134,134,134)" stroke-width="0.1"/>
  <path d="M 10.100000000000023,61.866071500000004 L 10.5,62.26607149999998" fill="none" stroke="rgb(134,134,134)" stroke-width="0.1"/>
  <path d="M 4.5,56.26607149999998 L 4.899999999999977,56.666071500000015" fill="none" stroke="rgb(134,134,134)" stroke-width="0.1"/>
  <path d="M 4.899999999999977,56.666071500000015 L 10.100000000000023,56.666071500000015" fill="none" stroke="rgb(134,134,134)" stroke-width="0.1"/>
  <path d="M 10.100000000000023,56.666071500000015 L 10.5,56.26607149999998" fill="none" stroke="rgb(134,134,134)" stroke-width="0.1"/>
  <path d="M 10.5,56.26607149999998 L 4.5,56.26607149999998" fill="none" stroke="rgb(134,134,134)" stroke-width="0.1"/>
  <path d="M 4.5,62.26607149999998 L 4.899999999999977,61.866071500000004" fill="none" stroke="rgb(134,134,134)" stroke-width="0.1"/>
  <path d="M 4.899999999999977,61.866071500000004 L 4.899999999999977,56.666071500000015" fill="none" stroke="rgb(134,134,134)" stroke-width="0.1"/>
  <path d="M 4.899999999999977,56.666071500000015 L 4.5,56.26607149999998" fill="none" stroke="rgb(134,134,134)" stroke-width="0.1"/>
  <path d="M 4.5,56.26607149999998 L 4.5,62.26607149999998" fill="none" stroke="rgb(134,134,134)" stroke-width="0.1"/>
  <path d="M 81.60000000000002,73.3660715 L 76.0,73.3660715" fill="none" stroke="rgb(134,134,134)" stroke-width="0.1"/>
  <path d="M 76.0,73.3660715 L 76.0,73.76607149999998" fill="none" stroke="rgb(134,134,134)" stroke-width="0.1"/>
  <path d="M 76.0,73.76607149999998 L 82.0,73.76607149999998" fill="none" stroke="rgb(134,134,134)" stroke-width="0.1"/>
  <path d="M 82.0,73.76607149999998 L 81.60000000000002,73.3660715" fill="none" stroke="rgb(134,134,134)" stroke-width="0.1"/>
  <path d="M 76.0,71.76607149999998 L 76.0,72.16607150000002" fill="none" stroke="rgb(134,134,134)" stroke-width="0.1"/>
  <path d="M 76.0,72.16607150000002 L 80.39999999999998,72.16607150000002" fill="none" stroke="rgb(134,134,134)" stroke-width="0.1"/>
  <path d="M 80.39999999999998,72.16607150000002 L 80.0,71.76607149999998" fill="none" stroke="rgb(134,134,134)" stroke-width="0.1"/>
  <path d="M 80.0,71.76607149999998 L 76.0,71.76607149999998" fill="none" stroke="rgb(134,134,134)" stroke-width="0.1"/>
  <path d="M 62.5,73.76607149999998 L 62.5,73.3660715" fill="none" stroke="rgb(134,134,134)" stroke-width="0.1"/>
  <path d="M 62.5,73.3660715 L 56.5,73.3660715" fill="none" stroke="rgb(134,134,134)" stroke-width="0.1"/>
  <path d="M 56.5,73.3660715 L 56.5,73.76607149999998" fill="none" stroke="rgb(134,134,134)" stroke-width="0.1"/>
  <path d="M 56.5,73.76607149999998 L 62.5,73.76607149999998" fill="none" stroke="rgb(134,134,134)" stroke-width="0.1"/>
  <path d="M 56.5,71.76607149999998 L 56.5,72.16607150000002" fill="none" stroke="rgb(134,134,134)" stroke-width="0.1"/>
  <path d="M 56.5,72.16607150000002 L 62.5,72.16607150000002" fill="none" stroke="rgb(134,134,134)" stroke-width="0.1"/>
  <path d="M 62.5,72.16607150000002 L 62.5,71.76607149999998" fill="none" stroke="rgb(134,134,134)" stroke-width="0.1"/>
  <path d="M 62.5,71.76607149999998 L 56.5,71.76607149999998" fill="none" stroke="rgb(134,134,134)" stroke-width="0.1"/>
  <path d="M 43.0,73.76607149999998 L 43.0,73.3660715" fill="none" stroke="rgb(134,134,134)" stroke-width="0.1"/>
  <path d="M 43.0,73.3660715 L 37.0,73.3660715" fill="none" stroke="rgb(134,134,134)" stroke-width="0.1"/>
  <path d="M 37.0,73.3660715 L 37.0,73.76607149999998" fill="none" stroke="rgb(134,134,134)" stroke-width="0.1"/>
  <path d="M 37.0,73.76607149999998 L 43.0,73.76607149999998" fill="none" stroke="rgb(134,134,134)" stroke-width="0.1"/>
  <path d="M 37.0,71.76607149999998 L 37.0,72.16607150000002" fill="none" stroke="rgb(134,134,134)" stroke-width="0.1"/>
  <path d="M 37.0,72.16607150000002 L 43.0,72.16607150000002" fill="none" stroke="rgb(134,134,134)" stroke-width="0.1"/>
  <path d="M 43.0,72.16607150000002 L 43.0,71.76607149999998" fill="none" stroke="rgb(134,134,134)" stroke-width="0.1"/>
  <path d="M 43.0,71.76607149999998 L 37.0,71.76607149999998" fill="none" stroke="rgb(134,134,134)" stroke-width="0.1"/>
  <path d="M 81.60000000000002,8.666071500000015 L 81.60000000000002,14.666071500000015" fill="none" stroke="rgb(134,134,134)" stroke-width="0.1"/>
  <path d="M 81.60000000000002,14.666071500000015 L 82.0,14.666071500000015" fill="none" stroke="rgb(134,134,134)" stroke-width="0.1"/>
  <path d="M 82.0,14.666071500000015 L 82.0,8.666071500000015" fill="none" stroke="rgb(134,134,134)" stroke-width="0.1"/>
  <path d="M 82.0,8.666071500000015 L 81.60000000000002,8.666071500000015" fill="none" stroke="rgb(134,134,134)" stroke-width="0.1"/>
  <path d="M 80.0,14.666071500000015 L 80.39999999999998,14.666071500000015" fill="none" stroke="rgb(134,134,134)" stroke-width="0.1"/>
  <path d="M 80.39999999999998,14.666071500000015 L 80.39999999999998,8.666071500000015" fill="none" stroke="rgb(134,134,134)" stroke-width="0.1"/>
  <path d="M 80.39999999999998,8.666071500000015 L 80.0,8.666071500000015" fill="none" stroke="rgb(134,134,134)" stroke-width="0.1"/>
  <path d="M 80.0,8.666071500000015 L 80.0,14.666071500000015" fill="none" stroke="rgb(134,134,134)" stroke-width="0.1"/>
  <path d="M 81.60000000000002,28.366071500000004 L 81.60000000000002,34.366071500000004" fill="none" stroke="rgb(134,134,134)" stroke-width="0.1"/>
  <path d="M 81.60000000000002,34.366071500000004 L 82.0,34.366071500000004" fill="none" stroke="rgb(134,134,134)" stroke-width="0.1"/>
  <path d="M 82.0,34.366071500000004 L 82.0,28.366071500000004" fill="none" stroke="rgb(134,134,134)" stroke-width="0.1"/>
  <path d="M 82.0,28.366071500000004 L 81.60000000000002,28.366071500000004" fill="none" stroke="rgb(134,134,134)" stroke-width="0.1"/>
  <path d="M 80.0,34.366071500000004 L 80.39999999999998,34.366071500000004" fill="none" stroke="rgb(134,134,134)" stroke-width="0.1"/>
  <path d="M 80.39999999999998,34.366071500000004 L 80.39999999999998,28.366071500000004" fill="none" stroke="rgb(134,134,134)" stroke-width="0.1"/>
  <path d="M 80.39999999999998,28.366071500000004 L 80.0,28.366071500000004" fill="none" stroke="rgb(134,134,134)" stroke-width="0.1"/>
  <path d="M 80.0,28.366071500000004 L 80.0,34.366071500000004" fill="none" stroke="rgb(134,134,134)" stroke-width="0.1"/>
  <path d="M 81.60000000000002,48.06607149999999 L 81.60000000000002,54.06607149999999" fill="none" stroke="rgb(134,134,134)" stroke-width="0.1"/>
  <path d="M 81.60000000000002,54.06607149999999 L 82.0,54.06607149999999" fill="none" stroke="rgb(134,134,134)" stroke-width="0.1"/>
  <path d="M 82.0,54.06607149999999 L 82.0,48.06607149999999" fill="none" stroke="rgb(134,134,134)" stroke-width="0.1"/>
  <path d="M 82.0,48.06607149999999 L 81.60000000000002,48.06607149999999" fill="none" stroke="rgb(134,134,134)" stroke-width="0.1"/>
  <path d="M 80.0,54.06607149999999 L 80.39999999999998,54.06607149999999" fill="none" stroke="rgb(134,134,134)" stroke-width="0.1"/>
  <path d="M 80.39999999999998,54.06607149999999 L 80.39999999999998,48.06607149999999" fill="none" stroke="rgb(134,134,134)" stroke-width="0.1"/>
  <path d="M 80.39999999999998,48.06607149999999 L 80.0,48.06607149999999" fill="none" stroke="rgb(134,134,134)" stroke-width="0.1"/>
  <path d="M 80.0,48.06607149999999 L 80.0,54.06607149999999" fill="none" stroke="rgb(134,134,134)" stroke-width="0.1"/>
  <path d="M 81.60000000000002,67.76607149999998 L 81.60000000000002,73.3660715" fill="none" stroke="rgb(134,134,134)" stroke-width="0.1"/>
  <path d="M 81.60000000000002,73.3660715 L 82.0,73.76607149999998" fill="none" stroke="rgb(134,134,134)" stroke-width="0.1"/>
  <path d="M 82.0,73.76607149999998 L 82.0,67.76607149999998" fill="none" stroke="rgb(134,134,134)" stroke-width="0.1"/>
  <path d="M 82.0,67.76607149999998 L 81.60000000000002,67.76607149999998" fill="none" stroke="rgb(134,134,134)" stroke-width="0.1"/>
  <path d="M 80.0,71.76607149999998 L 80.39999999999998,72.16607150000002" fill="none" stroke="rgb(134,134,134)" stroke-width="0.1"/>
  <path d="M 80.39999999999998,72.16607150000002 L 80.39999999999998,67.76607149999998" fill="none" stroke="rgb(134,134,134)" stroke-width="0.1"/>
  <path d="M 80.39999999999998,67.76607149999998 L 80.0,67.76607149999998" fill="none" stroke="rgb(134,134,134)" stroke-width="0.1"/>
  <path d="M 80.0,67.76607149999998 L 80.0,71.76607149999998" fill="none" stroke="rgb(134,134,134)" stroke-width="0.1"/>
  <path d="M 4.0,73.76607149999998 L 4.0,73.3660715" fill="none" stroke="rgb(134,134,134)" stroke-width="0.1"/>
  <path d="M 4.0,73.3660715 L 0.0,73.3660715" fill="none" stroke="rgb(134,134,134)" stroke-width="0.1"/>
  <path d="M 0.0,73.76607149999998 L 4.0,73.76607149999998" fill="none" stroke="rgb(134,134,134)" stroke-width="0.1"/>
  <path d="M 0.0,72.16607150000002 L 4.0,72.16607150000002" fill="none" stroke="rgb(134,134,134)" stroke-width="0.1"/>
  <path d="M 4.0,72.16607150000002 L 4.0,71.76607149999998" fill="none" stroke="rgb(134,134,134)" stroke-width="0.1"/>
  <path d="M 4.0,71.76607149999998 L 0.0,71.76607149999998" fill="none" stroke="rgb(134,134,134)" stroke-width="0.1"/>
  <path d="M 23.5,73.76607149999998 L 23.5,73.3660715" fill="none" stroke="rgb(134,134,134)" stroke-width="0.1"/>
  <path d="M 23.5,73.3660715 L 17.5,73.3660715" fill="none" stroke="rgb(134,134,134)" stroke-width="0.1"/>
  <path d="M 17.5,73.3660715 L 17.5,73.76607149999998" fill="none" stroke="rgb(134,134,134)" stroke-width="0.1"/>
  <path d="M 17.5,73.76607149999998 L 23.5,73.76607149999998" fill="none" stroke="rgb(134,134,134)" stroke-width="0.1"/>
  <path d="M 17.5,71.76607149999998 L 17.5,72.16607150000002" fill="none" stroke="rgb(134,134,134)" stroke-width="0.1"/>
  <path d="M 17.5,72.16607150000002 L 23.5,72.16607150000002" fill="none" stroke="rgb(134,134,134)" stroke-width="0.1"/>
  <path d="M 23.5,72.16607150000002 L 23.5,71.76607149999998" fill="none" stroke="rgb(134,134,134)" stroke-width="0.1"/>
  <path d="M 23.5,71.76607149999998 L 17.5,71.76607149999998" fill="none" stroke="rgb(134,134,134)" stroke-width="0.1"/>
  <path d="M 56.5,73.76607149999998 L 56.89999999999998,73.76607149999998" fill="none" stroke="rgb(134,134,134)" stroke-width="0.1"/>
  <path d="M 56.89999999999998,73.76607149999998 L 56.89999999999998,71.76607149999998" fill="none" stroke="rgb(134,134,134)" stroke-width="0.1"/>
  <path d="M 56.89999999999998,71.76607149999998 L 56.5,71.76607149999998" fill="none" stroke="rgb(134,134,134)" stroke-width="0.1"/>
  <path d="M 56.5,71.76607149999998 L 56.5,73.76607149999998" fill="none" stroke="rgb(134,134,134)" stroke-width="0.1"/>
  <path d="M 42.60000000000002,71.76607149999998 L 42.60000000000002,73.76607149999998" fill="none" stroke="rgb(134,134,134)" stroke-width="0.1"/>
  <path d="M 42.60000000000002,73.76607149999998 L 43.0,73.76607149999998" fill="none" stroke="rgb(134,134,134)" stroke-width="0.1"/>
  <path d="M 43.0,73.76607149999998 L 43.0,71.76607149999998" fill="none" stroke="rgb(134,134,134)" stroke-width="0.1"/>
  <path d="M 43.0,71.76607149999998 L 42.60000000000002,71.76607149999998" fill="none" stroke="rgb(134,134,134)" stroke-width="0.1"/>
  <path d="M 76.0,73.76607149999998 L 76.39999999999998,73.76607149999998" fill="none" stroke="rgb(134,134,134)" stroke-width="0.1"/>
  <path d="M 76.39999999999998,73.76607149999998 L 76.39999999999998,71.76607149999998" fill="none" stroke="rgb(134,134,134)" stroke-width="0.1"/>
  <path d="M 76.39999999999998,71.76607149999998 L 76.0,71.76607149999998" fill="none" stroke="rgb(134,134,134)" stroke-width="0.1"/>
  <path d="M 76.0,71.76607149999998 L 76.0,73.76607149999998" fill="none" stroke="rgb(134,134,134)" stroke-width="0.1"/>
  <path d="M 62.10000000000002,71.76607149999998 L 62.10000000000002,73.76607149999998" fill="none" stroke="rgb(134,134,134)" stroke-width="0.1"/>
  <path d="M 62.10000000000002,73.76607149999998 L 62.5,73.76607149999998" fill="none" stroke="rgb(134,134,134)" stroke-width="0.1"/>
  <path d="M 62.5,73.76607149999998 L 62.5,71.76607149999998" fill="none" stroke="rgb(134,134,134)" stroke-width="0.1"/>
  <path d="M 62.5,71.76607149999998 L 62.10000000000002,71.76607149999998" fill="none" stroke="rgb(134,134,134)" stroke-width="0.1"/>
  <path d="M 80.0,54.06607149999999 L 82.0,54.06607149999999" fill="none" stroke="rgb(134,134,134)" stroke-width="0.1"/>
  <path d="M 82.0,54.06607149999999 L 82.0,53.666071500000015" fill="none" stroke="rgb(134,134,134)" stroke-width="0.1"/>
  <path d="M 82.0,53.666071500000015 L 80.0,53.666071500000015" fill="none" stroke="rgb(134,134,134)" stroke-width="0.1"/>
  <path d="M 80.0,53.666071500000015 L 80.0,54.06607149999999" fill="none" stroke="rgb(134,134,134)" stroke-width="0.1"/>
  <path d="M 80.0,68.16607150000002 L 82.0,68.16607150000002" fill="none" stroke="rgb(134,134,134)" stroke-width="0.1"/>
  <path d="M 82.0,68.16607150000002 L 82.0,67.76607149999998" fill="none" stroke="rgb(134,134,134)" stroke-width="0.1"/>
  <path d="M 82.0,67.76607149999998 L 80.0,67.76607149999998" fill="none" stroke="rgb(134,134,134)" stroke-width="0.1"/>
  <path d="M 80.0,67.76607149999998 L 80.0,68.16607150000002" fill="none" stroke="rgb(134,134,134)" stroke-width="0.1"/>
  <path d="M 80.0,34.366071500000004 L 82.0,34.366071500000004" fill="none" stroke="rgb(134,134,134)" stroke-width="0.1"/>
  <path d="M 82.0,34.366071500000004 L 82.0,33.96607150000003" fill="none" stroke="rgb(134,134,134)" stroke-width="0.1"/>
  <path d="M 82.0,33.96607150000003 L 80.0,33.96607150000003" fill="none" stroke="rgb(134,134,134)" stroke-width="0.1"/>
  <path d="M 80.0,33.96607150000003 L 80.0,34.366071500000004" fill="none" stroke="rgb(134,134,134)" stroke-width="0.1"/>
  <path d="M 80.0,48.46607150000003 L 82.0,48.46607150000003" fill="none" stroke="rgb(134,134,134)" stroke-width="0.1"/>
  <path d="M 82.0,48.46607150000003 L 82.0,48.06607149999999" fill="none" stroke="rgb(134,134,134)" stroke-width="0.1"/>
  <path d="M 82.0,48.06607149999999 L 80.0,48.06607149999999" fill="none" stroke="rgb(134,134,134)" stroke-width="0.1"/>
  <path d="M 80.0,48.06607149999999 L 80.0,48.46607150000003" fill="none" stroke="rgb(134,134,134)" stroke-width="0.1"/>
  <path d="M 80.0,14.666071500000015 L 82.0,14.666071500000015" fill="none" stroke="rgb(134,134,134)" stroke-width="0.1"/>
  <path d="M 82.0,14.666071500000015 L 82.0,14.266071499999981" fill="none" stroke="rgb(134,134,134)" stroke-width="0.1"/>
  <path d="M 82.0,14.266071499999981 L 80.0,14.266071499999981" fill="none" stroke="rgb(134,134,134)" stroke-width="0.1"/>
  <path d="M 80.0,14.266071499999981 L 80.0,14.666071500000015" fill="none" stroke="rgb(134,134,134)" stroke-width="0.1"/>
  <path d="M 80.0,28.76607149999998 L 82.0,28.76607149999998" fill="none" stroke="rgb(134,134,134)" stroke-width="0.1"/>
  <path d="M 82.0,28.76607149999998 L 82.0,28.366071500000004" fill="none" stroke="rgb(134,134,134)" stroke-width="0.1"/>
  <path d="M 82.0,28.366071500000004 L 80.0,28.366071500000004" fill="none" stroke="rgb(134,134,134)" stroke-width="0.1"/>
  <path d="M 80.0,28.366071500000004 L 80.0,28.76607149999998" fill="none" stroke="rgb(134,134,134)" stroke-width="0.1"/>
  <path d="M 80.0,9.066071499999993 L 82.0,9.066071499999993" fill="none" stroke="rgb(134,134,134)" stroke-width="0.1"/>
  <path d="M 82.0,9.066071499999993 L 82.0,8.666071500000015" fill="none" stroke="rgb(134,134,134)" stroke-width="0.1"/>
  <path d="M 82.0,8.666071500000015 L 80.0,8.666071500000015" fill="none" stroke="rgb(134,134,134)" stroke-width="0.1"/>
  <path d="M 80.0,8.666071500000015 L 80.0,9.066071499999993" fill="none" stroke="rgb(134,134,134)" stroke-width="0.1"/>
  <path d="M 37.0,73.76607149999998 L 37.39999999999998,73.76607149999998" fill="none" stroke="rgb(134,134,134)" stroke-width="0.1"/>
  <path d="M 37.39999999999998,73.76607149999998 L 37.39999999999998,71.76607149999998" fill="none" stroke="rgb(134,134,134)" stroke-width="0.1"/>
  <path d="M 37.39999999999998,71.76607149999998 L 37.0,71.76607149999998" fill="none" stroke="rgb(134,134,134)" stroke-width="0.1"/>
  <path d="M 37.0,71.76607149999998 L 37.0,73.76607149999998" fill="none" stroke="rgb(134,134,134)" stroke-width="0.1"/>
  <path d="M 23.100000000000023,71.76607149999998 L 23.100000000000023,73.76607149999998" fill="none" stroke="rgb(134,134,134)" stroke-width="0.1"/>
  <path d="M 23.100000000000023,73.76607149999998 L 23.5,73.76607149999998" fill="none" stroke="rgb(134,134,134)" stroke-width="0.1"/>
  <path d="M 23.5,73.76607149999998 L 23.5,71.76607149999998" fill="none" stroke="rgb(134,134,134)" stroke-width="0.1"/>
  <path d="M 23.5,71.76607149999998 L 23.100000000000023,71.76607149999998" fill="none" stroke="rgb(134,134,134)" stroke-width="0.1"/>
  <path d="M 17.5,73.76607149999998 L 17.899999999999977,73.76607149999998" fill="none" stroke="rgb(134,134,134)" stroke-width="0.1"/>
  <path d="M 17.899999999999977,73.76607149999998 L 17.899999999999977,71.76607149999998" fill="none" stroke="rgb(134,134,134)" stroke-width="0.1"/>
  <path d="M 17.899999999999977,71.76607149999998 L 17.5,71.76607149999998" fill="none" stroke="rgb(134,134,134)" stroke-width="0.1"/>
  <path d="M 17.5,71.76607149999998 L 17.5,73.76607149999998" fill="none" stroke="rgb(134,134,134)" stroke-width="0.1"/>
  <path d="M 3.6000000000000227,71.76607149999998 L 3.6000000000000227,73.76607149999998" fill="none" stroke="rgb(134,134,134)" stroke-width="0.1"/>
  <path d="M 3.6000000000000227,73.76607149999998 L 4.0,73.76607149999998" fill="none" stroke="rgb(134,134,134)" stroke-width="0.1"/>
  <path d="M 4.0,73.76607149999998 L 4.0,71.76607149999998" fill="none" stroke="rgb(134,134,134)" stroke-width="0.1"/>
  <path d="M 4.0,71.76607149999998 L 3.6000000000000227,71.76607149999998" fill="none" stroke="rgb(134,134,134)" stroke-width="0.1"/>
  <path d="M 83.5,75.26607149999998 L 83.5,75.76607149999998" fill="none" stroke="rgb(134,134,134)" stroke-width="0.1"/>
  <path d="M 83.5,75.76607149999998 L 83.89999999999998,75.3660715" fill="none" stroke="rgb(134,134,134)" stroke-width="0.1"/>
  <path d="M 83.89999999999998,75.3660715 L 83.89999999999998,75.66607150000002" fill="none" stroke="rgb(134,134,134)" stroke-width="0.1"/>
  <path d="M 83.89999999999998,75.66607150000002 L 83.5,75.26607149999998" fill="none" stroke="rgb(134,134,134)" stroke-width="0.1"/>
  <path d="M 83.5,75.76607149999998 L 84.0,75.76607149999998" fill="none" stroke="rgb(134,134,134)" stroke-width="0.1"/>
  <path d="M 84.0,75.76607149999998 L 83.60000000000002,75.3660715" fill="none" stroke="rgb(134,134,134)" stroke-width="0.1"/>
  <path d="M 83.60000000000002,75.3660715 L 83.89999999999998,75.3660715" fill="none" stroke="rgb(134,134,134)" stroke-width="0.1"/>
  <path d="M 83.89999999999998,75.3660715 L 83.5,75.76607149999998" fill="none" stroke="rgb(134,134,134)" stroke-width="0.1"/>
  <path d="M 83.60000000000002,71.26607149999998 L 83.60000000000002,75.3660715" fill="none" stroke="rgb(134,134,134)" stroke-width="0.1"/>
  <path d="M 83.60000000000002,75.3660715 L 84.0,75.76607149999998" fill="none" stroke="rgb(134,134,134)" stroke-width="0.1"/>
  <path d="M 84.0,75.76607149999998 L 84.0,71.26607149999998" fill="none" stroke="rgb(134,134,134)" stroke-width="0.1"/>
  <path d="M 84.0,71.26607149999998 L 83.60000000000002,71.26607149999998" fill="none" stroke="rgb(134,134,134)" stroke-width="0.1"/>
  <path d="M 83.5,75.26607149999998 L 83.89999999999998,75.66607150000002" fill="none" stroke="rgb(134,134,134)" stroke-width="0.1"/>
  <path d="M 83.89999999999998,75.66607150000002 L 83.89999999999998,71.26607149999998" fill="none" stroke="rgb(134,134,134)" stroke-width="0.1"/>
  <path d="M 83.89999999999998,71.26607149999998 L 83.5,71.26607149999998" fill="none" stroke="rgb(134,134,134)" stroke-width="0.1"/>
  <path d="M 83.5,71.26607149999998 L 83.5,75.26607149999998" fill="none" stroke="rgb(134,134,134)" stroke-width="0.1"/>
  <path d="M 83.5,71.26607149999998 L 83.5,71.66607150000002" fill="none" stroke="rgb(134,134,134)" stroke-width="0.1"/>
  <path d="M 83.5,71.66607150000002 L 84.0,71.66607150000002" fill="none" stroke="rgb(134,134,134)" stroke-width="0.1"/>
  <path d="M 84.0,71.66607150000002 L 84.0,71.26607149999998" fill="none" stroke="rgb(134,134,134)" stroke-width="0.1"/>
  <path d="M 84.0,71.26607149999998 L 83.5,71.26607149999998" fill="none" stroke="rgb(134,134,134)" stroke-width="0.1"/>
 </g>
</svg>