<?xml version="1.0" encoding="utf-8"?>
<svg style="background-color: #000;" version="1.1" viewBox="0 0 100.0 100.0" xmlns="http://www.w3.org/2000/svg" xmlns:inkscape="http://www.inkscape.org/namespaces/inkscape">
 <g id="layer0" inkscape:groupmode="layer" inkscape:label="0">
  <path d="M 56.99323399999997,16.00000399999999 L 59.58965824906305,0.0" fill="none" stroke="rgb(178,0,178)" stroke-width="0.1"/>
 </g>
 <g id="layerA-BALCONY" inkscape:groupmode="layer" inkscape:label="A-BALCONY">
  <path d="M 30.993233999999973,70.50000399999999 L 30.993233999999973,59.50000399999999" fill="none" stroke="rgb(107,79,53)" stroke-width="0.1"/>
  <path d="M 30.993233999999973,59.50000399999999 L 50.74323399999997,59.50000399999999" fill="none" stroke="rgb(107,79,53)" stroke-width="0.1"/>
  <path d="M 50.74323399999997,59.50000399999999 L 50.74323399999997,74.50000399999999" fill="none" stroke="rgb(107,79,53)" stroke-width="0.1"/>
 </g>
 <g id="layerA-COLUMN" inkscape:groupmode="layer" inkscape:label="A-COLUMN">
  <path d="M 52.99323399999997,72.50000399999999 L 58.99323399999997,72.50000399999999" fill="none" stroke="rgb(178,0,0)" stroke-width="0.1"/>
  <path d="M 58.99323399999997,72.50000399999999 L 58.99323399999997,66.50000399999999" fill="none" stroke="rgb(178,0,0)" stroke-width="0.1"/>
  <path d="M 58.99323399999997,66.50000399999999 L 52.99323399999997,66.50000399999999" fill="none" stroke="rgb(178,0,0)" stroke-width="0.1"/>
  <path d="M 52.99323399999997,66.50000399999999 L 52.99323399999997,72.50000399999999" fill="none" stroke="rgb(178,0,0)" stroke-width="0.1"/>
  <path d="M 30.993233999999973,74.50000399999999 L 24.993233999999973,74.50000399999999" fill="none" stroke="rgb(178,0,0)" stroke-width="0.1"/>
  <path d="M 24.993233999999973,74.50000399999999 L 24.993233999999973,80.50000399999999" fill="none" stroke="rgb(178,0,0)" stroke-width="0.1"/>
  <path d="M 24.993233999999973,80.50000399999999 L 30.993233999999973,80.50000399999999" fill="none" stroke="rgb(178,0,0)" stroke-width="0.1"/>
  <path d="M 30.993233999999973,80.50000399999999 L 30.993233999999973,74.50000399999999" fill="none" stroke="rgb(178,0,0)" stroke-width="0.1"/>
 </g>
 <g id="layerA-CURTWALL_GLAZE" inkscape:groupmode="layer" inkscape:label="A-CURTWALL_GLAZE">
  <path d="M 51.40993399999998,0.0 L 51.40993399999998,71.00000399999999" fill="none" instance-id="1" semantic-id="9" stroke="rgb(53,133,160)" stroke-width="0.1"/>
  <path d="M 51.07653399999997,0.0 L 51.07653399999997,71.00000399999999" fill="none" instance-id="1" semantic-id="9" stroke="rgb(53,133,160)" stroke-width="0.1"/>
  <path d="M 51.74323399999997,0.0 L 51.74323399999997,71.00000399999999" fill="none" instance-id="1" semantic-id="9" stroke="rgb(53,133,160)" stroke-width="0.1"/>
  <path d="M 50.74323399999997,0.0 L 50.74323399999997,71.00000399999999" fill="none" instance-id="1" semantic-id="9" stroke="rgb(53,133,160)" stroke-width="0.1"/>
 </g>
 <g id="layerA-CURTWALL_METAL" inkscape:groupmode="layer" inkscape:label="A-CURTWALL_METAL">
  <path d="M 19.993233999999973,78.00000399999999 L 19.993233999999973,77.00000399999999" fill="none" stroke="rgb(133,12,255)" stroke-width="0.1"/>
  <path d="M 19.993233999999973,77.00000399999999 L 18.493233999999973,77.00000399999999" fill="none" stroke="rgb(133,12,255)" stroke-width="0.1"/>
  <path d="M 18.493233999999973,77.00000399999999 L 18.493233999999973,78.00000399999999" fill="none" stroke="rgb(133,12,255)" stroke-width="0.1"/>
  <path d="M 18.493233999999973,78.00000399999999 L 19.993233999999973,78.00000399999999" fill="none" stroke="rgb(133,12,255)" stroke-width="0.1"/>
  <path d="M 19.89323399999998,77.90000399999997 L 19.89323399999998,77.10000400000001" fill="none" stroke="rgb(133,12,255)" stroke-width="0.1"/>
  <path d="M 19.89323399999998,77.10000400000001 L 18.593233999999967,77.10000400000001" fill="none" stroke="rgb(133,12,255)" stroke-width="0.1"/>
  <path d="M 18.593233999999967,77.10000400000001 L 18.593233999999967,77.90000399999997" fill="none" stroke="rgb(133,12,255)" stroke-width="0.1"/>
  <path d="M 18.593233999999967,77.90000399999997 L 19.89323399999998,77.90000399999997" fill="none" stroke="rgb(133,12,255)" stroke-width="0.1"/>
  <path d="M 20.89323399999998,78.40000399999997 L 20.093233999999967,78.40000399999997" fill="none" stroke="rgb(133,12,255)" stroke-width="0.1"/>
  <path d="M 20.093233999999967,78.40000399999997 L 20.093233999999967,76.60000400000001" fill="none" stroke="rgb(133,12,255)" stroke-width="0.1"/>
  <path d="M 20.093233999999967,76.60000400000001 L 20.89323399999998,76.60000400000001" fill="none" stroke="rgb(133,12,255)" stroke-width="0.1"/>
  <path d="M 20.89323399999998,76.60000400000001 L 20.89323399999998,78.40000399999997" fill="none" stroke="rgb(133,12,255)" stroke-width="0.1"/>
  <path d="M 19.493233999999973,80.50000399999999 L 19.493233999999973,80.00000399999999" fill="none" stroke="rgb(133,12,255)" stroke-width="0.1"/>
  <path d="M 19.493233999999973,80.00000399999999 L 18.993233999999973,80.00000399999999" fill="none" stroke="rgb(133,12,255)" stroke-width="0.1"/>
  <path d="M 18.993233999999973,80.00000399999999 L 18.993233999999973,80.50000399999999" fill="none" stroke="rgb(133,12,255)" stroke-width="0.1"/>
  <path d="M 18.993233999999973,80.50000399999999 L 19.493233999999973,80.50000399999999" fill="none" stroke="rgb(133,12,255)" stroke-width="0.1"/>
  <path d="M 19.43323399999997,80.44000399999999 L 19.43323399999997,80.06000399999999" fill="none" stroke="rgb(133,12,255)" stroke-width="0.1"/>
  <path d="M 19.43323399999997,80.06000399999999 L 19.053233999999975,80.06000399999999" fill="none" stroke="rgb(133,12,255)" stroke-width="0.1"/>
  <path d="M 19.053233999999975,80.06000399999999 L 19.053233999999975,80.44000399999999" fill="none" stroke="rgb(133,12,255)" stroke-width="0.1"/>
  <path d="M 19.053233999999975,80.44000399999999 L 19.43323399999997,80.44000399999999" fill="none" stroke="rgb(133,12,255)" stroke-width="0.1"/>
  <path d="M 19.493233999999973,80.00000399999999 L 19.493233999999973,78.00000399999999" fill="none" stroke="rgb(133,12,255)" stroke-width="0.1"/>
  <path d="M 19.493233999999973,78.00000399999999 L 18.993233999999973,78.00000399999999" fill="none" stroke="rgb(133,12,255)" stroke-width="0.1"/>
  <path d="M 18.993233999999973,78.00000399999999 L 18.993233999999973,80.00000399999999" fill="none" stroke="rgb(133,12,255)" stroke-width="0.1"/>
  <path d="M 18.993233999999973,80.00000399999999 L 19.493233999999973,80.00000399999999" fill="none" stroke="rgb(133,12,255)" stroke-width="0.1"/>
  <path d="M 19.43323399999997,79.94000399999999 L 19.43323399999997,78.06000399999999" fill="none" stroke="rgb(133,12,255)" stroke-width="0.1"/>
  <path d="M 19.43323399999997,78.06000399999999 L 19.053233999999975,78.06000399999999" fill="none" stroke="rgb(133,12,255)" stroke-width="0.1"/>
  <path d="M 19.053233999999975,78.06000399999999 L 19.053233999999975,79.94000399999999" fill="none" stroke="rgb(133,12,255)" stroke-width="0.1"/>
  <path d="M 19.053233999999975,79.94000399999999 L 19.43323399999997,79.94000399999999" fill="none" stroke="rgb(133,12,255)" stroke-width="0.1"/>
  <path d="M 19.493233999999973,74.50000399999999 L 19.493233999999973,75.00000399999999" fill="none" stroke="rgb(133,12,255)" stroke-width="0.1"/>
  <path d="M 19.493233999999973,75.00000399999999 L 18.993233999999973,75.00000399999999" fill="none" stroke="rgb(133,12,255)" stroke-width="0.1"/>
  <path d="M 18.993233999999973,75.00000399999999 L 18.993233999999973,74.50000399999999" fill="none" stroke="rgb(133,12,255)" stroke-width="0.1"/>
  <path d="M 18.993233999999973,74.50000399999999 L 19.493233999999973,74.50000399999999" fill="none" stroke="rgb(133,12,255)" stroke-width="0.1"/>
  <path d="M 19.43323399999997,74.56000399999999 L 19.43323399999997,74.94000399999999" fill="none" stroke="rgb(133,12,255)" stroke-width="0.1"/>
  <path d="M 19.43323399999997,74.94000399999999 L 19.053233999999975,74.94000399999999" fill="none" stroke="rgb(133,12,255)" stroke-width="0.1"/>
  <path d="M 19.053233999999975,74.94000399999999 L 19.053233999999975,74.56000399999999" fill="none" stroke="rgb(133,12,255)" stroke-width="0.1"/>
  <path d="M 19.053233999999975,74.56000399999999 L 19.43323399999997,74.56000399999999" fill="none" stroke="rgb(133,12,255)" stroke-width="0.1"/>
  <path d="M 19.493233999999973,75.00000399999999 L 19.493233999999973,77.00000399999999" fill="none" stroke="rgb(133,12,255)" stroke-width="0.1"/>
  <path d="M 19.493233999999973,77.00000399999999 L 18.993233999999973,77.00000399999999" fill="none" stroke="rgb(133,12,255)" stroke-width="0.1"/>
  <path d="M 18.993233999999973,77.00000399999999 L 18.993233999999973,75.00000399999999" fill="none" stroke="rgb(133,12,255)" stroke-width="0.1"/>
  <path d="M 18.993233999999973,75.00000399999999 L 19.493233999999973,75.00000399999999" fill="none" stroke="rgb(133,12,255)" stroke-width="0.1"/>
  <path d="M 19.43323399999997,75.06000399999999 L 19.43323399999997,76.94000399999999" fill="none" stroke="rgb(133,12,255)" stroke-width="0.1"/>
  <path d="M 19.43323399999997,76.94000399999999 L 19.053233999999975,76.94000399999999" fill="none" stroke="rgb(133,12,255)" stroke-width="0.1"/>
  <path d="M 19.053233999999975,76.94000399999999 L 19.053233999999975,75.06000399999999" fill="none" stroke="rgb(133,12,255)" stroke-width="0.1"/>
  <path d="M 19.053233999999975,75.06000399999999 L 19.43323399999997,75.06000399999999" fill="none" stroke="rgb(133,12,255)" stroke-width="0.1"/>
  <path d="M 20.993233999999973,78.50000399999999 L 19.993233999999973,78.50000399999999" fill="none" stroke="rgb(133,12,255)" stroke-width="0.1"/>
  <path d="M 19.993233999999973,78.50000399999999 L 19.993233999999973,76.50000399999999" fill="none" stroke="rgb(133,12,255)" stroke-width="0.1"/>
  <path d="M 19.993233999999973,76.50000399999999 L 20.993233999999973,76.50000399999999" fill="none" stroke="rgb(133,12,255)" stroke-width="0.1"/>
  <path d="M 20.993233999999973,76.50000399999999 L 20.993233999999973,78.50000399999999" fill="none" stroke="rgb(133,12,255)" stroke-width="0.1"/>
  <path d="M 20.993233999999973,80.50000399999999 L 20.993233999999973,80.14000399999998" fill="none" stroke="rgb(133,12,255)" stroke-width="0.1"/>
  <path d="M 20.993233999999973,80.14000399999998 L 20.93323399999997,80.14000399999998" fill="none" stroke="rgb(133,12,255)" stroke-width="0.1"/>
  <path d="M 20.93323399999997,80.14000399999998 L 20.93323399999997,80.44000399999999" fill="none" stroke="rgb(133,12,255)" stroke-width="0.1"/>
  <path d="M 20.93323399999997,80.44000399999999 L 19.553233999999975,80.44000399999999" fill="none" stroke="rgb(133,12,255)" stroke-width="0.1"/>
  <path d="M 19.553233999999975,80.44000399999999 L 19.553233999999975,80.14000399999998" fill="none" stroke="rgb(133,12,255)" stroke-width="0.1"/>
  <path d="M 19.553233999999975,80.14000399999998 L 19.493233999999973,80.14000399999998" fill="none" stroke="rgb(133,12,255)" stroke-width="0.1"/>
  <path d="M 19.493233999999973,80.14000399999998 L 19.493233999999973,80.50000399999999" fill="none" stroke="rgb(133,12,255)" stroke-width="0.1"/>
  <path d="M 19.493233999999973,80.50000399999999 L 20.993233999999973,80.50000399999999" fill="none" stroke="rgb(133,12,255)" stroke-width="0.1"/>
  <path d="M 20.993233999999973,74.50000399999999 L 20.993233999999973,74.860004" fill="none" stroke="rgb(133,12,255)" stroke-width="0.1"/>
  <path d="M 20.993233999999973,74.860004 L 20.93323399999997,74.860004" fill="none" stroke="rgb(133,12,255)" stroke-width="0.1"/>
  <path d="M 20.93323399999997,74.860004 L 20.93323399999997,74.56000399999999" fill="none" stroke="rgb(133,12,255)" stroke-width="0.1"/>
  <path d="M 20.93323399999997,74.56000399999999 L 19.553233999999975,74.56000399999999" fill="none" stroke="rgb(133,12,255)" stroke-width="0.1"/>
  <path d="M 19.553233999999975,74.56000399999999 L 19.553233999999975,74.860004" fill="none" stroke="rgb(133,12,255)" stroke-width="0.1"/>
  <path d="M 19.553233999999975,74.860004 L 19.493233999999973,74.860004" fill="none" stroke="rgb(133,12,255)" stroke-width="0.1"/>
  <path d="M 19.493233999999973,74.860004 L 19.493233999999973,74.50000399999999" fill="none" stroke="rgb(133,12,255)" stroke-width="0.1"/>
  <path d="M 19.493233999999973,74.50000399999999 L 20.993233999999973,74.50000399999999" fill="none" stroke="rgb(133,12,255)" stroke-width="0.1"/>
 </g>
 <g id="layerA-DECK" inkscape:groupmode="layer" inkscape:label="A-DECK">
  <path d="M 8.993233999999973,70.50000399999999 L 8.993233999999973,80.50000399999999" fill="none" stroke="rgb(53,53,160)" stroke-width="0.1"/>
  <path d="M 8.993233999999973,80.50000399999999 L 22.993233999999973,80.50000399999999" fill="none" stroke="rgb(53,53,160)" stroke-width="0.1"/>
  <path d="M 22.993233999999973,80.50000399999999 L 22.993233999999973,80.10000400000001" fill="none" stroke="rgb(53,53,160)" stroke-width="0.1"/>
  <path d="M 22.993233999999973,80.10000400000001 L 22.913233999999974,80.10000400000001" fill="none" stroke="rgb(53,53,160)" stroke-width="0.1"/>
  <path d="M 22.913233999999974,80.10000400000001 L 22.913233999999974,80.420004" fill="none" stroke="rgb(53,53,160)" stroke-width="0.1"/>
  <path d="M 22.913233999999974,80.420004 L 9.073233999999971,80.420004" fill="none" stroke="rgb(53,53,160)" stroke-width="0.1"/>
  <path d="M 9.073233999999971,80.420004 L 9.073233999999971,70.58000399999997" fill="none" stroke="rgb(53,53,160)" stroke-width="0.1"/>
  <path d="M 9.073233999999971,70.58000399999997 L 43.913233999999974,70.58000399999997" fill="none" stroke="rgb(53,53,160)" stroke-width="0.1"/>
  <path d="M 43.913233999999974,70.58000399999997 L 43.913233999999974,74.50000399999999" fill="none" stroke="rgb(53,53,160)" stroke-width="0.1"/>
  <path d="M 43.913233999999974,74.50000399999999 L 43.99323399999997,74.50000399999999" fill="none" stroke="rgb(53,53,160)" stroke-width="0.1"/>
  <path d="M 43.99323399999997,74.50000399999999 L 43.99323399999997,70.50000399999999" fill="none" stroke="rgb(53,53,160)" stroke-width="0.1"/>
  <path d="M 43.99323399999997,70.50000399999999 L 8.993233999999973,70.50000399999999" fill="none" stroke="rgb(53,53,160)" stroke-width="0.1"/>
 </g>
 <g id="layerA-DIM_IDEN" inkscape:groupmode="layer" inkscape:label="A-DIM_IDEN">
  <path d="M 37.981733999999975,5.527003999999977 L 27.981733999999975,5.527003999999977" fill="none" stroke="rgb(0,178,0)" stroke-width="0.1"/>
  <path d="M 44.605933999999976,5.527003999999977 L 37.981733999999975,5.527003999999977" fill="none" stroke="rgb(0,178,0)" stroke-width="0.1"/>
  <path d="M 71.77523399999997,5.527003999999977 L 44.605933999999976,5.527003999999977" fill="none" stroke="rgb(0,178,0)" stroke-width="0.1"/>
  <path d="M 71.77523399999997,7.027003999999977 L 48.32023399999997,7.027003999999977" fill="none" stroke="rgb(0,178,0)" stroke-width="0.1"/>
  <circle cx="32.981733999999975" cy="5.527003999999977" fill="none" r="5" stroke="rgb(0,178,0)" stroke-width="0.1"/>
 </g>
 <g id="layerA-DIM_SYMB" inkscape:groupmode="layer" inkscape:label="A-DIM_SYMB">
  <path d="M 100.0,87.57500399999998 L 81.99323399999997,87.57500399999998" fill="none" stroke="rgb(0,178,0)" stroke-width="0.1"/>
  <path d="M 81.99323399999997,87.57500399999998 L 84.99323399999997,87.57500399999998" fill="none" stroke="rgb(0,178,0)" stroke-width="0.1"/>
  <path d="M 49.59323399999997,87.57500399999998 L 70.79323399999997,87.57500399999998" fill="none" stroke="rgb(0,178,0)" stroke-width="0.1"/>
  <path d="M 70.79323399999997,87.57500399999998 L 67.79323399999997,87.57500399999998" fill="none" stroke="rgb(0,178,0)" stroke-width="0.1"/>
 </g>
 <g id="layerA-DOTE" inkscape:groupmode="layer" inkscape:label="A-DOTE">
  <path d="M 25.993233999999973,0.0 L 25.993233999999973,100.0" fill="none" stroke="rgb(107,0,0)" stroke-width="0.1"/>
  <path d="M 55.99323399999997,0.0 L 55.99323399999997,75.50000399999999" fill="none" stroke="rgb(107,0,0)" stroke-width="0.1"/>
  <path d="M 0.0,69.50000399999999 L 100.0,69.50000399999999" fill="none" stroke="rgb(107,0,0)" stroke-width="0.1"/>
  <path d="M 0.0,75.50000399999999 L 100.0,75.50000399999999" fill="none" stroke="rgb(107,0,0)" stroke-width="0.1"/>
  <path d="M 45.49323399999997,82.50000399999999 L 45.49323399999997,0.0" fill="none" stroke="rgb(107,0,0)" stroke-width="0.1"/>
 </g>
 <g id="layerA-PUB_DIM" inkscape:groupmode="layer" inkscape:label="A-PUB_DIM">
  <path d="M 30.993233999999973,56.50000399999999 L 30.993233999999973,49.00000399999999" fill="none" stroke="rgb(0,142,142)" stroke-width="0.1"/>
  <path d="M 45.49323399999997,56.50000399999999 L 45.49323399999997,49.00000399999999" fill="none" stroke="rgb(0,142,142)" stroke-width="0.1"/>
  <path d="M 30.993233999999973,51.50000399999999 L 45.49323399999997,51.50000399999999" fill="none" stroke="rgb(0,142,142)" stroke-width="0.1"/>
  <path d="M 45.49323399999997,56.50000399999999 L 45.49323399999997,49.00000399999999" fill="none" stroke="rgb(0,142,142)" stroke-width="0.1"/>
  <path d="M 55.99323399999997,56.50000399999999 L 55.99323399999997,49.00000399999999" fill="none" stroke="rgb(0,142,142)" stroke-width="0.1"/>
  <path d="M 45.49323399999997,51.50000399999999 L 55.99323399999997,51.50000399999999" fill="none" stroke="rgb(0,142,142)" stroke-width="0.1"/>
  <path d="M 42.49323399999997,75.50000399999999 L 35.99323399999997,75.50000399999999" fill="none" stroke="rgb(0,142,142)" stroke-width="0.1"/>
  <path d="M 42.49323399999997,69.50000399999999 L 35.99323399999997,69.50000399999999" fill="none" stroke="rgb(0,142,142)" stroke-width="0.1"/>
  <path d="M 38.49323399999997,75.50000399999999 L 38.49323399999997,76.50000399999999" fill="none" stroke="rgb(0,142,142)" stroke-width="0.1"/>
  <path d="M 38.49323399999997,69.50000399999999 L 38.49323399999997,68.50000399999999" fill="none" stroke="rgb(0,142,142)" stroke-width="0.1"/>
  <path d="M 38.49323399999997,75.50000399999999 L 38.49323399999997,69.50000399999999" fill="none" stroke="rgb(0,142,142)" stroke-width="0.1"/>
  <path d="M 42.49323399999997,69.50000399999999 L 35.99323399999997,69.50000399999999" fill="none" stroke="rgb(0,142,142)" stroke-width="0.1"/>
  <path d="M 42.49323399999997,59.50000399999999 L 35.99323399999997,59.50000399999999" fill="none" stroke="rgb(0,142,142)" stroke-width="0.1"/>
  <path d="M 38.49323399999997,69.50000399999999 L 38.49323399999997,59.50000399999999" fill="none" stroke="rgb(0,142,142)" stroke-width="0.1"/>
  <text fill="rgb(0,142,142)" font-family="Noto Sans CJK SC" font-size="2" transform="rotate(-0.0,35.33823399999997,50.23700400000001)" x="35.33823399999997" y="50.23700400000001">
   1450
  </text>
  <text fill="rgb(0,142,142)" font-family="Noto Sans CJK SC" font-size="2" transform="rotate(-0.0,47.83823399999997,50.23700400000001)" x="47.83823399999997" y="50.23700400000001">
   1050
  </text>
  <text fill="rgb(0,142,142)" font-family="Noto Sans CJK SC" font-size="2" transform="rotate(-90.0,37.23073399999997,74.63500399999998)" x="37.23073399999997" y="74.63500399999998">
   600
  </text>
  <text fill="rgb(0,142,142)" font-family="Noto Sans CJK SC" font-size="2" transform="rotate(-90.0,37.23073399999997,67.40500399999996)" x="37.23073399999997" y="67.40500399999996">
   1000
  </text>
 </g>
 <g id="layerA-PUB_TEXT" inkscape:groupmode="layer" inkscape:label="A-PUB_TEXT">
  <text fill="rgb(0,0,0)" font-family="Noto Sans CJK SC" font-size="2" transform="rotate(-0.0,47.083633999999975,89.32500399999998)" x="47.083633999999975" y="89.32500399999998">
   上
  </text>
  <text fill="rgb(0,0,0)" font-family="Noto Sans CJK SC" font-size="2" transform="rotate(-0.0,59.83823399999997,5.315003999999988)" x="59.83823399999997" y="5.315003999999988">
   排风井
  </text>
  <text fill="rgb(0,0,0)" font-family="Noto Sans CJK SC" font-size="2" transform="rotate(-0.0,31.23803399999997,4.54000400000001)" x="31.23803399999997" y="4.54000400000001">
   09
  </text>
  <text fill="rgb(0,0,0)" font-family="Noto Sans CJK SC" font-size="2" transform="rotate(-0.0,31.203533999999976,8.714003999999989)" x="31.203533999999976" y="8.714003999999989">
   52
  </text>
 </g>
 <g id="layerA-STAIR" inkscape:groupmode="layer" inkscape:label="A-STAIR">
  <path d="M 97.49323399999997,96.90000399999997 L 97.49323399999997,99.10000400000001" fill="none" stroke="rgb(254,255,12)" stroke-width="0.1"/>
  <path d="M 97.49323399999997,99.10000400000001 L 52.49323399999997,99.10000400000001" fill="none" stroke="rgb(254,255,12)" stroke-width="0.1"/>
  <path d="M 52.49323399999997,99.10000400000001 L 52.49323399999997,96.90000399999997" fill="none" stroke="rgb(254,255,12)" stroke-width="0.1"/>
  <path d="M 52.49323399999997,96.90000399999997 L 97.49323399999997,96.90000399999997" fill="none" stroke="rgb(254,255,12)" stroke-width="0.1"/>
  <path d="M 96.89323399999998,97.50000399999999 L 96.89323399999998,98.50000399999999" fill="none" stroke="rgb(254,255,12)" stroke-width="0.1"/>
  <path d="M 96.89323399999998,98.50000399999999 L 53.09323399999997,98.50000399999999" fill="none" stroke="rgb(254,255,12)" stroke-width="0.1"/>
  <path d="M 53.09323399999997,98.50000399999999 L 53.09323399999997,97.50000399999999" fill="none" stroke="rgb(254,255,12)" stroke-width="0.1"/>
  <path d="M 53.09323399999997,97.50000399999999 L 96.89323399999998,97.50000399999999" fill="none" stroke="rgb(254,255,12)" stroke-width="0.1"/>
  <path d="M 95.99323399999997,98.50000399999999 L 71.34023399999997,98.50000399999999" fill="none" stroke="rgb(254,255,12)" stroke-width="0.1"/>
  <path d="M 70.24623399999997,98.50000399999999 L 53.99323399999997,98.50000399999999" fill="none" stroke="rgb(254,255,12)" stroke-width="0.1"/>
  <path d="M 95.99323399999997,100.0 L 95.99323399999997,98.50000399999999" fill="none" stroke="rgb(254,255,12)" stroke-width="0.1"/>
  <path d="M 93.19323399999996,100.0 L 93.19323399999996,98.50000399999999" fill="none" stroke="rgb(254,255,12)" stroke-width="0.1"/>
  <path d="M 90.39323399999998,100.0 L 90.39323399999998,98.50000399999999" fill="none" stroke="rgb(254,255,12)" stroke-width="0.1"/>
  <path d="M 87.59323399999997,100.0 L 87.59323399999997,98.50000399999999" fill="none" stroke="rgb(254,255,12)" stroke-width="0.1"/>
  <path d="M 84.79323399999998,100.0 L 84.79323399999998,98.50000399999999" fill="none" stroke="rgb(254,255,12)" stroke-width="0.1"/>
  <path d="M 81.99323399999997,100.0 L 81.99323399999997,98.50000399999999" fill="none" stroke="rgb(254,255,12)" stroke-width="0.1"/>
  <path d="M 79.19323399999998,100.0 L 79.19323399999998,98.50000399999999" fill="none" stroke="rgb(254,255,12)" stroke-width="0.1"/>
  <path d="M 76.39323399999998,100.0 L 76.39323399999998,98.50000399999999" fill="none" stroke="rgb(254,255,12)" stroke-width="0.1"/>
  <path d="M 73.59323399999997,100.0 L 73.59323399999997,98.50000399999999" fill="none" stroke="rgb(254,255,12)" stroke-width="0.1"/>
  <path d="M 70.79323399999997,100.0 L 70.79323399999997,99.73700400000001" fill="none" stroke="rgb(254,255,12)" stroke-width="0.1"/>
  <path d="M 67.99323399999997,100.0 L 67.99323399999997,98.50000399999999" fill="none" stroke="rgb(254,255,12)" stroke-width="0.1"/>
  <path d="M 65.19323399999998,100.0 L 65.19323399999998,98.50000399999999" fill="none" stroke="rgb(254,255,12)" stroke-width="0.1"/>
  <path d="M 62.39323399999998,100.0 L 62.39323399999998,98.50000399999999" fill="none" stroke="rgb(254,255,12)" stroke-width="0.1"/>
  <path d="M 59.59323399999997,100.0 L 59.59323399999997,98.50000399999999" fill="none" stroke="rgb(254,255,12)" stroke-width="0.1"/>
  <path d="M 56.79323399999997,100.0 L 56.79323399999997,98.50000399999999" fill="none" stroke="rgb(254,255,12)" stroke-width="0.1"/>
  <path d="M 53.99323399999997,100.0 L 53.99323399999997,98.50000399999999" fill="none" stroke="rgb(254,255,12)" stroke-width="0.1"/>
  <path d="M 70.90948726487693,100.0 L 70.24623399999997,98.50000399999999" fill="none" stroke="rgb(254,255,12)" stroke-width="0.1"/>
  <path d="M 72.00336854868463,100.0 L 71.34023399999997,98.50000399999999" fill="none" stroke="rgb(254,255,12)" stroke-width="0.1"/>
  <path d="M 95.99323399999997,97.50000399999999 L 79.73223399999998,97.50000399999999" fill="none" stroke="rgb(254,255,12)" stroke-width="0.1"/>
  <path d="M 78.65423399999997,97.50000399999999 L 53.99323399999997,97.50000399999999" fill="none" stroke="rgb(254,255,12)" stroke-width="0.1"/>
  <path d="M 95.99323399999997,76.50000399999999 L 71.33223399999997,76.50000399999999" fill="none" stroke="rgb(254,255,12)" stroke-width="0.1"/>
  <path d="M 70.25423399999997,76.50000399999999 L 53.99323399999997,76.50000399999999" fill="none" stroke="rgb(254,255,12)" stroke-width="0.1"/>
  <path d="M 95.99323399999997,97.50000399999999 L 95.99323399999997,76.50000399999999" fill="none" stroke="rgb(254,255,12)" stroke-width="0.1"/>
  <path d="M 93.19323399999996,97.50000399999999 L 93.19323399999996,76.50000399999999" fill="none" stroke="rgb(254,255,12)" stroke-width="0.1"/>
  <path d="M 90.39323399999998,97.50000399999999 L 90.39323399999998,76.50000399999999" fill="none" stroke="rgb(254,255,12)" stroke-width="0.1"/>
  <path d="M 87.59323399999997,97.50000399999999 L 87.59323399999997,76.50000399999999" fill="none" stroke="rgb(254,255,12)" stroke-width="0.1"/>
  <path d="M 84.79323399999998,97.50000399999999 L 84.79323399999998,76.50000399999999" fill="none" stroke="rgb(254,255,12)" stroke-width="0.1"/>
  <path d="M 81.99323399999997,97.50000399999999 L 81.99323399999997,76.50000399999999" fill="none" stroke="rgb(254,255,12)" stroke-width="0.1"/>
  <path d="M 79.19323399999998,96.15400399999999 L 79.19323399999998,76.50000399999999" fill="none" stroke="rgb(254,255,12)" stroke-width="0.1"/>
  <path d="M 76.39323399999998,97.50000399999999 L 76.39323399999998,91.846004" fill="none" stroke="rgb(254,255,12)" stroke-width="0.1"/>
  <path d="M 76.39323399999998,89.15400399999999 L 76.39323399999998,76.50000399999999" fill="none" stroke="rgb(254,255,12)" stroke-width="0.1"/>
  <path d="M 73.59323399999997,97.50000399999999 L 73.59323399999997,84.846004" fill="none" stroke="rgb(254,255,12)" stroke-width="0.1"/>
  <path d="M 73.59323399999997,82.15400399999999 L 73.59323399999997,76.50000399999999" fill="none" stroke="rgb(254,255,12)" stroke-width="0.1"/>
  <path d="M 70.79323399999997,97.50000399999999 L 70.79323399999997,77.846004" fill="none" stroke="rgb(254,255,12)" stroke-width="0.1"/>
  <path d="M 67.99323399999997,97.50000399999999 L 67.99323399999997,76.50000399999999" fill="none" stroke="rgb(254,255,12)" stroke-width="0.1"/>
  <path d="M 65.19323399999998,97.50000399999999 L 65.19323399999998,76.50000399999999" fill="none" stroke="rgb(254,255,12)" stroke-width="0.1"/>
  <path d="M 62.39323399999998,97.50000399999999 L 62.39323399999998,76.50000399999999" fill="none" stroke="rgb(254,255,12)" stroke-width="0.1"/>
  <path d="M 59.59323399999997,97.50000399999999 L 59.59323399999997,76.50000399999999" fill="none" stroke="rgb(254,255,12)" stroke-width="0.1"/>
  <path d="M 56.79323399999997,97.50000399999999 L 56.79323399999997,76.50000399999999" fill="none" stroke="rgb(254,255,12)" stroke-width="0.1"/>
  <path d="M 53.99323399999997,97.50000399999999 L 53.99323399999997,76.50000399999999" fill="none" stroke="rgb(254,255,12)" stroke-width="0.1"/>
  <path d="M 78.65423399999997,97.50000399999999 L 74.81323399999997,87.89500399999997" fill="none" stroke="rgb(254,255,12)" stroke-width="0.1"/>
  <path d="M 79.73223399999998,97.50000399999999 L 75.84123399999997,87.77300400000001" fill="none" stroke="rgb(254,255,12)" stroke-width="0.1"/>
  <path d="M 75.84123399999997,87.77300400000001 L 74.06923399999997,87.98400399999997" fill="none" stroke="rgb(254,255,12)" stroke-width="0.1"/>
  <path d="M 74.06923399999997,87.98400399999997 L 76.07423399999998,86.19100399999996" fill="none" stroke="rgb(254,255,12)" stroke-width="0.1"/>
  <path d="M 76.07423399999998,86.19100399999996 L 74.21923399999997,86.41200399999997" fill="none" stroke="rgb(254,255,12)" stroke-width="0.1"/>
  <path d="M 74.21923399999997,86.41200399999997 L 70.25423399999997,76.50000399999999" fill="none" stroke="rgb(254,255,12)" stroke-width="0.1"/>
  <path d="M 75.24723399999998,86.29000400000001 L 71.33223399999997,76.50000399999999" fill="none" stroke="rgb(254,255,12)" stroke-width="0.1"/>
  <path d="M 99.96160368541996,79.11696790313658 L 99.47366494845534,78.99529334586958" fill="none" stroke="rgb(134,134,134)" stroke-width="0.1"/>
  <path d="M 99.47366494845534,78.99529334586958 L 98.98275457967841,78.8862249327334" fill="none" stroke="rgb(134,134,134)" stroke-width="0.1"/>
  <path d="M 98.98275457967841,78.8862249327334 L 98.48919820819117,78.78983501064039" fill="none" stroke="rgb(134,134,134)" stroke-width="0.1"/>
  <path d="M 98.48919820819117,78.78983501064039 L 97.99332321823371,78.7061875166466" fill="none" stroke="rgb(134,134,134)" stroke-width="0.1"/>
  <path d="M 97.99332321823371,78.7061875166466 L 97.49545853202474,78.63533793554126" fill="none" stroke="rgb(134,134,134)" stroke-width="0.1"/>
  <path d="M 97.49545853202474,78.63533793554126 L 96.99593439158195,78.57733326304287" fill="none" stroke="rgb(134,134,134)" stroke-width="0.1"/>
  <path d="M 96.99593439158195,78.57733326304287 L 96.49508213966695,78.53221197462602" fill="none" stroke="rgb(134,134,134)" stroke-width="0.1"/>
  <path d="M 96.49508213966695,78.53221197462602 L 95.99323399999997,78.50000399999999" fill="none" stroke="rgb(134,134,134)" stroke-width="0.1"/>
  <path d="M 53.99323399999997,78.50000399999999 L 53.49138586033297,78.53221197462602" fill="none" stroke="rgb(134,134,134)" stroke-width="0.1"/>
  <path d="M 53.49138586033297,78.53221197462602 L 52.99053360841795,78.57733326304287" fill="none" stroke="rgb(134,134,134)" stroke-width="0.1"/>
  <path d="M 52.99053360841795,78.57733326304287 L 52.49100946797516,78.63533793554126" fill="none" stroke="rgb(134,134,134)" stroke-width="0.1"/>
  <path d="M 52.49100946797516,78.63533793554126 L 51.99314478176619,78.7061875166466" fill="none" stroke="rgb(134,134,134)" stroke-width="0.1"/>
  <path d="M 51.99314478176619,78.7061875166466 L 51.49726979180875,78.78983501064039" fill="none" stroke="rgb(134,134,134)" stroke-width="0.1"/>
  <path d="M 51.49726979180875,78.78983501064039 L 51.0037134203215,78.8862249327334" fill="none" stroke="rgb(134,134,134)" stroke-width="0.1"/>
  <path d="M 51.0037134203215,78.8862249327334 L 50.51280305154458,78.99529334586958" fill="none" stroke="rgb(134,134,134)" stroke-width="0.1"/>
  <path d="M 50.51280305154458,78.99529334586958 L 50.02486431457996,79.11696790313658" fill="none" stroke="rgb(134,134,134)" stroke-width="0.1"/>
  <path d="M 50.02486431457996,79.11696790313658 L 49.5402208673963,79.25116789575469" fill="none" stroke="rgb(134,134,134)" stroke-width="0.1"/>
  <path d="M 49.5402208673963,79.25116789575469 L 49.05919418214114,79.39780430661222" fill="none" stroke="rgb(134,134,134)" stroke-width="0.1"/>
  <path d="M 49.05919418214114,79.39780430661222 L 48.582103331903014,79.55677986931232" fill="none" stroke="rgb(134,134,134)" stroke-width="0.1"/>
  <path d="M 48.582103331903014,79.55677986931232 L 48.109264779064915,79.72798913269116" fill="none" stroke="rgb(134,134,134)" stroke-width="0.1"/>
  <path d="M 48.109264779064915,79.72798913269116 L 47.64099216538945,79.91131853076547" fill="none" stroke="rgb(134,134,134)" stroke-width="0.1"/>
  <path d="M 47.64099216538945,79.91131853076547 L 47.177596103975034,80.10664645806298" fill="none" stroke="rgb(134,134,134)" stroke-width="0.1"/>
  <path d="M 47.177596103975034,80.10664645806298 L 46.71938397322094,80.3138433502852" fill="none" stroke="rgb(134,134,134)" stroke-width="0.1"/>
  <path d="M 46.71938397322094,80.3138433502852 L 46.26665971293809,80.53277177024961" fill="none" stroke="rgb(134,134,134)" stroke-width="0.1"/>
  <path d="M 46.26665971293809,80.53277177024961 L 45.81972362274067,80.76328649905406" fill="none" stroke="rgb(134,134,134)" stroke-width="0.1"/>
  <path d="M 45.81972362274067,80.76328649905406 L 45.37887216285226,81.0052346324029" fill="none" stroke="rgb(134,134,134)" stroke-width="0.1"/>
  <path d="M 45.37887216285226,81.0052346324029 L 44.9443977574589,81.25845568203118" fill="none" stroke="rgb(134,134,134)" stroke-width="0.1"/>
  <path d="M 44.9443977574589,81.25845568203118 L 44.51658860073914,81.52278168215878" fill="none" stroke="rgb(134,134,134)" stroke-width="0.1"/>
  <path d="M 44.51658860073914,81.52278168215878 L 44.095728465700006,81.79803730090543" fill="none" stroke="rgb(134,134,134)" stroke-width="0.1"/>
  <path d="M 44.095728465700006,81.79803730090543 L 43.68209651594562,82.08403995659086" fill="none" stroke="rgb(134,134,134)" stroke-width="0.1"/>
  <path d="M 43.68209651594562,82.08403995659086 L 43.275967120503225,82.38059993884463" fill="none" stroke="rgb(134,134,134)" stroke-width="0.1"/>
  <path d="M 43.275967120503225,82.38059993884463 L 42.877609671829674,82.68752053444399" fill="none" stroke="rgb(134,134,134)" stroke-width="0.1"/>
  <path d="M 42.877609671829674,82.68752053444399 L 42.487288407118854,83.00459815779715" fill="none" stroke="rgb(134,134,134)" stroke-width="0.1"/>
  <path d="M 42.487288407118854,83.00459815779715 L 42.10526223302867,83.33162248598506" fill="none" stroke="rgb(134,134,134)" stroke-width="0.1"/>
  <path d="M 42.10526223302867,83.33162248598506 L 41.73178455394397,83.66837659827212" fill="none" stroke="rgb(134,134,134)" stroke-width="0.1"/>
  <path d="M 41.73178455394397,83.66837659827212 L 41.36710310388911,84.01463711999332" fill="none" stroke="rgb(134,134,134)" stroke-width="0.1"/>
  <path d="M 41.36710310388911,84.01463711999332 L 41.011459782201825,84.3701743707224" fill="none" stroke="rgb(134,134,134)" stroke-width="0.1"/>
  <path d="M 41.011459782201825,84.3701743707224 L 40.66509049307736,84.73475251662273" fill="none" stroke="rgb(134,134,134)" stroke-width="0.1"/>
  <path d="M 40.66509049307736,84.73475251662273 L 40.328224989089165,85.10812972688007" fill="none" stroke="rgb(134,134,134)" stroke-width="0.1"/>
  <path d="M 40.328224989089165,85.10812972688007 L 40.001086718790305,85.49005833411263" fill="none" stroke="rgb(134,134,134)" stroke-width="0.1"/>
  <path d="M 40.001086718790305,85.49005833411263 L 39.683892678496065,85.88028499865334" fill="none" stroke="rgb(134,134,134)" stroke-width="0.1"/>
  <path d="M 39.683892678496065,85.88028499865334 L 39.37685326834686,86.27855087659418" fill="none" stroke="rgb(134,134,134)" stroke-width="0.1"/>
  <path d="M 39.37685326834686,86.27855087659418 L 39.08017215274613,86.68459179148164" fill="none" stroke="rgb(134,134,134)" stroke-width="0.1"/>
  <path d="M 39.08017215274613,86.68459179148164 L 38.79404612526636,87.09813840954956" fill="none" stroke="rgb(134,134,134)" stroke-width="0.1"/>
  <path d="M 38.79404612526636,87.09813840954956 L 38.51866497811267,87.51891641837256" fill="none" stroke="rgb(134,134,134)" stroke-width="0.1"/>
  <path d="M 38.51866497811267,87.51891641837256 L 38.25421137623033,87.9466467088223" fill="none" stroke="rgb(134,134,134)" stroke-width="0.1"/>
  <path d="M 38.25421137623033,87.9466467088223 L 38.000860736140126,88.381045560205" fill="none" stroke="rgb(134,134,134)" stroke-width="0.1"/>
  <path d="M 38.000860736140126,88.381045560205 L 37.75878110958158,88.82182482845843" fill="none" stroke="rgb(134,134,134)" stroke-width="0.1"/>
  <path d="M 37.75878110958158,88.82182482845843 L 37.52813307204141,89.26869213728247" fill="none" stroke="rgb(134,134,134)" stroke-width="0.1"/>
  <path d="M 37.52813307204141,89.26869213728247 L 37.309069616241146,89.72135107207731" fill="none" stroke="rgb(134,134,134)" stroke-width="0.1"/>
  <path d="M 37.309069616241146,89.72135107207731 L 37.101736050654466,90.17950137656027" fill="none" stroke="rgb(134,134,134)" stroke-width="0.1"/>
  <path d="M 37.101736050654466,90.17950137656027 L 36.906269903121625,90.6428391519309" fill="none" stroke="rgb(134,134,134)" stroke-width="0.1"/>
  <path d="M 36.906269903121625,90.6428391519309 L 36.722800829624916,91.11105705845205" fill="none" stroke="rgb(134,134,134)" stroke-width="0.1"/>
  <path d="M 36.722800829624916,91.11105705845205 L 36.551450528285756,91.5838445193134" fill="none" stroke="rgb(134,134,134)" stroke-width="0.1"/>
  <path d="M 36.551450528285756,91.5838445193134 L 36.39233265864016,92.06088792664252" fill="none" stroke="rgb(134,134,134)" stroke-width="0.1"/>
  <path d="M 36.39233265864016,92.06088792664252 L 36.24555276624653,92.54187084952616" fill="none" stroke="rgb(134,134,134)" stroke-width="0.1"/>
  <path d="M 36.24555276624653,92.54187084952616 L 36.111208212675564,93.02647424390403" fill="none" stroke="rgb(134,134,134)" stroke-width="0.1"/>
  <path d="M 36.111208212675564,93.02647424390403 L 35.989388110928545,93.51437666419633" fill="none" stroke="rgb(134,134,134)" stroke-width="0.1"/>
  <path d="M 35.989388110928545,93.51437666419633 L 35.880173266327304,94.00525447652387" fill="none" stroke="rgb(134,134,134)" stroke-width="0.1"/>
  <path d="M 35.880173266327304,94.00525447652387 L 35.78363612291466,94.49878207337991" fill="none" stroke="rgb(134,134,134)" stroke-width="0.1"/>
  <path d="M 35.78363612291466,94.49878207337991 L 35.69984071540105,94.994632089611" fill="none" stroke="rgb(134,134,134)" stroke-width="0.1"/>
  <path d="M 35.69984071540105,94.994632089611 L 35.62884262668925,95.49247561956395" fill="none" stroke="rgb(134,134,134)" stroke-width="0.1"/>
  <path d="M 35.62884262668925,95.49247561956395 L 35.57068895100531,95.99198243525439" fill="none" stroke="rgb(134,134,134)" stroke-width="0.1"/>
  <path d="M 35.57068895100531,95.99198243525439 L 35.525418262660125,96.4928212054125" fill="none" stroke="rgb(134,134,134)" stroke-width="0.1"/>
  <path d="M 35.525418262660125,96.4928212054125 L 35.49306059046248,96.99465971526075" fill="none" stroke="rgb(134,134,134)" stroke-width="0.1"/>
  <path d="M 35.49306059046248,96.99465971526075 L 35.47363739780042,97.49716508687737" fill="none" stroke="rgb(134,134,134)" stroke-width="0.1"/>
  <path d="M 35.47363739780042,97.49716508687737 L 35.46716156840422,98.00000399999999" fill="none" stroke="rgb(134,134,134)" stroke-width="0.1"/>
  <path d="M 35.46716156840422,98.00000399999999 L 35.47363739780042,98.50284291312266" fill="none" stroke="rgb(134,134,134)" stroke-width="0.1"/>
  <path d="M 35.47363739780042,98.50284291312266 L 35.49306059046248,99.00534828473928" fill="none" stroke="rgb(134,134,134)" stroke-width="0.1"/>
  <path d="M 35.49306059046248,99.00534828473928 L 35.525418262660125,99.50718679458754" fill="none" stroke="rgb(134,134,134)" stroke-width="0.1"/>
 </g>
 <g id="layerA-WALL" inkscape:groupmode="layer" inkscape:label="A-WALL">
  <path d="M 50.74323399999997,73.00000399999999 L 100.0,73.00000399999999" fill="none" instance-id="-1" semantic-id="1" stroke="rgb(134,134,134)" stroke-width="0.1"/>
  <path d="M 19.993233999999973,80.50000399999999 L 19.993233999999973,84.50000399999999" fill="none" instance-id="-1" semantic-id="1" stroke="rgb(134,134,134)" stroke-width="0.1"/>
  <path d="M 19.993233999999973,84.50000399999999 L 22.993233999999973,84.50000399999999" fill="none" instance-id="-1" semantic-id="1" stroke="rgb(134,134,134)" stroke-width="0.1"/>
  <path d="M 22.993233999999973,84.50000399999999 L 22.993233999999973,80.50000399999999" fill="none" instance-id="-1" semantic-id="1" stroke="rgb(134,134,134)" stroke-width="0.1"/>
  <path d="M 22.993233999999973,80.50000399999999 L 19.993233999999973,80.50000399999999" fill="none" instance-id="-1" semantic-id="1" stroke="rgb(134,134,134)" stroke-width="0.1"/>
  <path d="M 18.993233999999973,80.50000399999999 L 19.493233999999973,80.50000399999999" fill="none" instance-id="-1" semantic-id="1" stroke="rgb(134,134,134)" stroke-width="0.1"/>
  <path d="M 55.99323399999997,73.00000399999999 L 50.74323399999997,73.00000399999999" fill="none" instance-id="-1" semantic-id="1" stroke="rgb(134,134,134)" stroke-width="0.1"/>
  <path d="M 52.99323399999997,71.00000399999999 L 50.74323399999997,71.00000399999999" fill="none" instance-id="-1" semantic-id="1" stroke="rgb(134,134,134)" stroke-width="0.1"/>
  <path d="M 55.99323399999997,73.00000399999999 L 55.99323399999997,72.50000399999999" fill="none" instance-id="-1" semantic-id="1" stroke="rgb(134,134,134)" stroke-width="0.1"/>
  <path d="M 50.74323399999997,73.00000399999999 L 50.74323399999997,71.00000399999999" fill="none" instance-id="-1" semantic-id="1" stroke="rgb(134,134,134)" stroke-width="0.1"/>
  <path d="M 30.993233999999973,74.50000399999999 L 100.0,74.50000399999999" fill="none" instance-id="-1" semantic-id="1" stroke="rgb(134,134,134)" stroke-width="0.1"/>
  <path d="M 30.993233999999973,76.50000399999999 L 100.0,76.50000399999999" fill="none" instance-id="-1" semantic-id="1" stroke="rgb(134,134,134)" stroke-width="0.1"/>
  <path d="M 53.09323399999997,97.50000399999999 L 96.89323399999998,97.50000399999999" fill="none" instance-id="-1" semantic-id="1" stroke="rgb(134,134,134)" stroke-width="0.1"/>
  <path d="M 53.09323399999997,98.50000399999999 L 96.89323399999998,98.50000399999999" fill="none" instance-id="-1" semantic-id="1" stroke="rgb(134,134,134)" stroke-width="0.1"/>
  <path d="M 53.09323399999997,97.50000399999999 L 53.09323399999997,98.50000399999999" fill="none" instance-id="-1" semantic-id="1" stroke="rgb(134,134,134)" stroke-width="0.1"/>
  <path d="M 96.89323399999998,97.50000399999999 L 96.89323399999998,98.50000399999999" fill="none" instance-id="-1" semantic-id="1" stroke="rgb(134,134,134)" stroke-width="0.1"/>
  <path d="M 66.99323399999997,16.50000399999999 L 66.99323399999997,0.0" fill="none" instance-id="-1" semantic-id="1" stroke="rgb(134,134,134)" stroke-width="0.1"/>
  <path d="M 68.99323399999997,18.50000399999999 L 68.99323399999997,0.0" fill="none" instance-id="-1" semantic-id="1" stroke="rgb(134,134,134)" stroke-width="0.1"/>
  <path d="M 54.99323399999997,16.50000399999999 L 54.99323399999997,0.0" fill="none" instance-id="-1" semantic-id="1" stroke="rgb(134,134,134)" stroke-width="0.1"/>
  <path d="M 56.99323399999997,16.50000399999999 L 56.99323399999997,0.0" fill="none" instance-id="-1" semantic-id="1" stroke="rgb(134,134,134)" stroke-width="0.1"/>
  <path d="M 51.79323399999997,16.50000399999999 L 54.99323399999997,16.50000399999999" fill="none" instance-id="-1" semantic-id="1" stroke="rgb(134,134,134)" stroke-width="0.1"/>
  <path d="M 51.79323399999997,18.50000399999999 L 55.99323399999997,18.50000399999999" fill="none" instance-id="-1" semantic-id="1" stroke="rgb(134,134,134)" stroke-width="0.1"/>
  <path d="M 51.79323399999997,16.50000399999999 L 51.79323399999997,18.50000399999999" fill="none" instance-id="-1" semantic-id="1" stroke="rgb(134,134,134)" stroke-width="0.1"/>
  <path d="M 56.99323399999997,16.50000399999999 L 66.99323399999997,16.50000399999999" fill="none" instance-id="-1" semantic-id="1" stroke="rgb(134,134,134)" stroke-width="0.1"/>
  <path d="M 55.99323399999997,18.50000399999999 L 68.99323399999997,18.50000399999999" fill="none" instance-id="-1" semantic-id="1" stroke="rgb(134,134,134)" stroke-width="0.1"/>
 </g>
 <g id="layerA-WINDOW" inkscape:groupmode="layer" inkscape:label="A-WINDOW">
  <path d="M 22.993233999999973,84.50000399999999 L 19.993233999999973,84.50000399999999" fill="none" stroke="rgb(53,133,160)" stroke-width="0.1"/>
  <path d="M 19.993233999999973,100.0 L 19.993233999999973,84.50000399999999" fill="none" stroke="rgb(53,133,160)" stroke-width="0.1"/>
  <path d="M 22.993233999999973,100.0 L 22.993233999999973,84.50000399999999" fill="none" stroke="rgb(53,133,160)" stroke-width="0.1"/>
  <path d="M 18.993233999999973,80.50000399999999 L 19.493233999999973,80.50000399999999" fill="none" stroke="rgb(53,133,160)" stroke-width="0.1"/>
  <path d="M 19.326533999999967,80.50000399999999 L 19.326533999999967,100.0" fill="none" stroke="rgb(53,133,160)" stroke-width="0.1"/>
  <path d="M 19.15993399999998,80.50000399999999 L 19.15993399999998,100.0" fill="none" stroke="rgb(53,133,160)" stroke-width="0.1"/>
  <path d="M 18.993233999999973,100.0 L 18.993233999999973,80.50000399999999" fill="none" stroke="rgb(53,133,160)" stroke-width="0.1"/>
  <path d="M 19.493233999999973,100.0 L 19.493233999999973,80.50000399999999" fill="none" stroke="rgb(53,133,160)" stroke-width="0.1"/>
 </g>
 <g id="layerA_WALL" inkscape:groupmode="layer" inkscape:label="A_WALL">
  <path d="M 56.99323399999997,16.00000399999999 L 56.99323399999997,0.0" fill="none" stroke="rgb(134,134,134)" stroke-width="0.1"/>
  <path d="M 58.99323399999997,71.00000399999999 L 100.0,71.00000399999999" fill="none" stroke="rgb(134,134,134)" stroke-width="0.1"/>
  <path d="M 55.99323399999997,73.00000399999999 L 100.0,73.00000399999999" fill="none" stroke="rgb(134,134,134)" stroke-width="0.1"/>
 </g>
 <g id="layerCOLU" inkscape:groupmode="layer" inkscape:label="COLU">
  <path d="M 52.99323399999997,73.00000399999999 L 59.99323399999997,73.00000399999999" fill="none" stroke="rgb(178,0,178)" stroke-width="0.1"/>
  <path d="M 59.99323399999997,73.00000399999999 L 59.99323399999997,66.00000399999999" fill="none" stroke="rgb(178,0,178)" stroke-width="0.1"/>
  <path d="M 59.99323399999997,66.00000399999999 L 52.99323399999997,66.00000399999999" fill="none" stroke="rgb(178,0,178)" stroke-width="0.1"/>
  <path d="M 52.99323399999997,66.00000399999999 L 52.99323399999997,73.00000399999999" fill="none" stroke="rgb(178,0,178)" stroke-width="0.1"/>
  <path d="M 20.993233999999973,84.50000399999999 L 30.993233999999973,84.50000399999999" fill="none" stroke="rgb(178,0,178)" stroke-width="0.1"/>
  <path d="M 30.993233999999973,84.50000399999999 L 30.993233999999973,74.50000399999999" fill="none" stroke="rgb(178,0,178)" stroke-width="0.1"/>
  <path d="M 30.993233999999973,74.50000399999999 L 20.993233999999973,74.50000399999999" fill="none" stroke="rgb(178,0,178)" stroke-width="0.1"/>
  <path d="M 20.993233999999973,74.50000399999999 L 20.993233999999973,84.50000399999999" fill="none" stroke="rgb(178,0,178)" stroke-width="0.1"/>
 </g>
 <g id="layerCOLU_HATCH" inkscape:groupmode="layer" inkscape:label="COLU_HATCH">
  <path d="M 52.99323399999997,73.00000399999999 L 59.99323399999997,73.00000399999999" fill="none" stroke="rgb(44,44,88)" stroke-width="0.1"/>
  <path d="M 59.99323399999997,73.00000399999999 L 59.99323399999997,66.00000399999999" fill="none" stroke="rgb(44,44,88)" stroke-width="0.1"/>
  <path d="M 59.99323399999997,66.00000399999999 L 52.99323399999997,66.00000399999999" fill="none" stroke="rgb(44,44,88)" stroke-width="0.1"/>
  <path d="M 52.99323399999997,66.00000399999999 L 52.99323399999997,73.00000399999999" fill="none" stroke="rgb(44,44,88)" stroke-width="0.1"/>
  <path d="M 20.993233999999973,84.50000399999999 L 30.993233999999973,84.50000399999999" fill="none" stroke="rgb(44,44,88)" stroke-width="0.1"/>
  <path d="M 30.993233999999973,84.50000399999999 L 30.993233999999973,74.50000399999999" fill="none" stroke="rgb(44,44,88)" stroke-width="0.1"/>
  <path d="M 30.993233999999973,74.50000399999999 L 20.993233999999973,74.50000399999999" fill="none" stroke="rgb(44,44,88)" stroke-width="0.1"/>
  <path d="M 20.993233999999973,74.50000399999999 L 20.993233999999973,84.50000399999999" fill="none" stroke="rgb(44,44,88)" stroke-width="0.1"/>
 </g>
 <g id="layerPUB_WALL" inkscape:groupmode="layer" inkscape:label="PUB_WALL">
  <path d="M 52.99323399999997,72.50000399999999 L 58.99323399999997,72.50000399999999" fill="none" instance-id="-1" semantic-id="1" stroke="rgb(134,134,134)" stroke-width="0.1"/>
  <path d="M 58.99323399999997,72.50000399999999 L 58.59323399999997,72.10000400000001" fill="none" instance-id="-1" semantic-id="1" stroke="rgb(134,134,134)" stroke-width="0.1"/>
  <path d="M 58.59323399999997,72.10000400000001 L 53.39323399999998,72.10000400000001" fill="none" instance-id="-1" semantic-id="1" stroke="rgb(134,134,134)" stroke-width="0.1"/>
  <path d="M 53.39323399999998,72.10000400000001 L 52.99323399999997,72.50000399999999" fill="none" instance-id="-1" semantic-id="1" stroke="rgb(134,134,134)" stroke-width="0.1"/>
  <path d="M 58.99323399999997,72.50000399999999 L 58.99323399999997,66.50000399999999" fill="none" instance-id="-1" semantic-id="1" stroke="rgb(134,134,134)" stroke-width="0.1"/>
  <path d="M 58.99323399999997,66.50000399999999 L 58.59323399999997,66.90000399999997" fill="none" instance-id="-1" semantic-id="1" stroke="rgb(134,134,134)" stroke-width="0.1"/>
  <path d="M 58.59323399999997,66.90000399999997 L 58.59323399999997,72.10000400000001" fill="none" instance-id="-1" semantic-id="1" stroke="rgb(134,134,134)" stroke-width="0.1"/>
  <path d="M 58.59323399999997,72.10000400000001 L 58.99323399999997,72.50000399999999" fill="none" instance-id="-1" semantic-id="1" stroke="rgb(134,134,134)" stroke-width="0.1"/>
  <path d="M 52.99323399999997,66.50000399999999 L 53.39323399999998,66.90000399999997" fill="none" instance-id="-1" semantic-id="1" stroke="rgb(134,134,134)" stroke-width="0.1"/>
  <path d="M 53.39323399999998,66.90000399999997 L 58.59323399999997,66.90000399999997" fill="none" instance-id="-1" semantic-id="1" stroke="rgb(134,134,134)" stroke-width="0.1"/>
  <path d="M 58.59323399999997,66.90000399999997 L 58.99323399999997,66.50000399999999" fill="none" instance-id="-1" semantic-id="1" stroke="rgb(134,134,134)" stroke-width="0.1"/>
  <path d="M 58.99323399999997,66.50000399999999 L 52.99323399999997,66.50000399999999" fill="none" instance-id="-1" semantic-id="1" stroke="rgb(134,134,134)" stroke-width="0.1"/>
  <path d="M 52.99323399999997,72.50000399999999 L 53.39323399999998,72.10000400000001" fill="none" instance-id="-1" semantic-id="1" stroke="rgb(134,134,134)" stroke-width="0.1"/>
  <path d="M 53.39323399999998,72.10000400000001 L 53.39323399999998,66.90000399999997" fill="none" instance-id="-1" semantic-id="1" stroke="rgb(134,134,134)" stroke-width="0.1"/>
  <path d="M 53.39323399999998,66.90000399999997 L 52.99323399999997,66.50000399999999" fill="none" instance-id="-1" semantic-id="1" stroke="rgb(134,134,134)" stroke-width="0.1"/>
  <path d="M 52.99323399999997,66.50000399999999 L 52.99323399999997,72.50000399999999" fill="none" instance-id="-1" semantic-id="1" stroke="rgb(134,134,134)" stroke-width="0.1"/>
  <path d="M 24.993233999999973,74.50000399999999 L 25.39323399999998,74.90000399999997" fill="none" instance-id="-1" semantic-id="1" stroke="rgb(134,134,134)" stroke-width="0.1"/>
  <path d="M 25.39323399999998,74.90000399999997 L 30.593233999999967,74.90000399999997" fill="none" instance-id="-1" semantic-id="1" stroke="rgb(134,134,134)" stroke-width="0.1"/>
  <path d="M 30.593233999999967,74.90000399999997 L 30.993233999999973,74.50000399999999" fill="none" instance-id="-1" semantic-id="1" stroke="rgb(134,134,134)" stroke-width="0.1"/>
  <path d="M 30.993233999999973,74.50000399999999 L 24.993233999999973,74.50000399999999" fill="none" instance-id="-1" semantic-id="1" stroke="rgb(134,134,134)" stroke-width="0.1"/>
  <path d="M 24.993233999999973,80.50000399999999 L 25.39323399999998,80.10000400000001" fill="none" instance-id="-1" semantic-id="1" stroke="rgb(134,134,134)" stroke-width="0.1"/>
  <path d="M 25.39323399999998,80.10000400000001 L 25.39323399999998,74.90000399999997" fill="none" instance-id="-1" semantic-id="1" stroke="rgb(134,134,134)" stroke-width="0.1"/>
  <path d="M 25.39323399999998,74.90000399999997 L 24.993233999999973,74.50000399999999" fill="none" instance-id="-1" semantic-id="1" stroke="rgb(134,134,134)" stroke-width="0.1"/>
  <path d="M 24.993233999999973,74.50000399999999 L 24.993233999999973,80.50000399999999" fill="none" instance-id="-1" semantic-id="1" stroke="rgb(134,134,134)" stroke-width="0.1"/>
  <path d="M 24.993233999999973,80.50000399999999 L 30.993233999999973,80.50000399999999" fill="none" instance-id="-1" semantic-id="1" stroke="rgb(134,134,134)" stroke-width="0.1"/>
  <path d="M 30.993233999999973,80.50000399999999 L 30.593233999999967,80.10000400000001" fill="none" instance-id="-1" semantic-id="1" stroke="rgb(134,134,134)" stroke-width="0.1"/>
  <path d="M 30.593233999999967,80.10000400000001 L 25.39323399999998,80.10000400000001" fill="none" instance-id="-1" semantic-id="1" stroke="rgb(134,134,134)" stroke-width="0.1"/>
  <path d="M 25.39323399999998,80.10000400000001 L 24.993233999999973,80.50000399999999" fill="none" instance-id="-1" semantic-id="1" stroke="rgb(134,134,134)" stroke-width="0.1"/>
  <path d="M 30.993233999999973,80.50000399999999 L 30.993233999999973,74.50000399999999" fill="none" instance-id="-1" semantic-id="1" stroke="rgb(134,134,134)" stroke-width="0.1"/>
  <path d="M 30.993233999999973,74.50000399999999 L 30.593233999999967,74.90000399999997" fill="none" instance-id="-1" semantic-id="1" stroke="rgb(134,134,134)" stroke-width="0.1"/>
  <path d="M 30.593233999999967,74.90000399999997 L 30.593233999999967,80.10000400000001" fill="none" instance-id="-1" semantic-id="1" stroke="rgb(134,134,134)" stroke-width="0.1"/>
  <path d="M 30.593233999999967,80.10000400000001 L 30.993233999999973,80.50000399999999" fill="none" instance-id="-1" semantic-id="1" stroke="rgb(134,134,134)" stroke-width="0.1"/>
  <path d="M 19.993233999999973,84.50000399999999 L 20.39323399999998,84.10000400000001" fill="none" instance-id="-1" semantic-id="1" stroke="rgb(134,134,134)" stroke-width="0.1"/>
  <path d="M 20.39323399999998,84.10000400000001 L 20.39323399999998,80.90000399999997" fill="none" instance-id="-1" semantic-id="1" stroke="rgb(134,134,134)" stroke-width="0.1"/>
  <path d="M 20.39323399999998,80.90000399999997 L 19.993233999999973,80.50000399999999" fill="none" instance-id="-1" semantic-id="1" stroke="rgb(134,134,134)" stroke-width="0.1"/>
  <path d="M 19.993233999999973,80.50000399999999 L 19.993233999999973,84.50000399999999" fill="none" instance-id="-1" semantic-id="1" stroke="rgb(134,134,134)" stroke-width="0.1"/>
  <path d="M 19.993233999999973,84.50000399999999 L 22.993233999999973,84.50000399999999" fill="none" instance-id="-1" semantic-id="1" stroke="rgb(134,134,134)" stroke-width="0.1"/>
  <path d="M 22.993233999999973,84.50000399999999 L 22.593233999999967,84.10000400000001" fill="none" instance-id="-1" semantic-id="1" stroke="rgb(134,134,134)" stroke-width="0.1"/>
  <path d="M 22.593233999999967,84.10000400000001 L 20.39323399999998,84.10000400000001" fill="none" instance-id="-1" semantic-id="1" stroke="rgb(134,134,134)" stroke-width="0.1"/>
  <path d="M 20.39323399999998,84.10000400000001 L 19.993233999999973,84.50000399999999" fill="none" instance-id="-1" semantic-id="1" stroke="rgb(134,134,134)" stroke-width="0.1"/>
  <path d="M 22.993233999999973,84.50000399999999 L 22.993233999999973,80.50000399999999" fill="none" instance-id="-1" semantic-id="1" stroke="rgb(134,134,134)" stroke-width="0.1"/>
  <path d="M 22.993233999999973,80.50000399999999 L 22.593233999999967,80.90000399999997" fill="none" instance-id="-1" semantic-id="1" stroke="rgb(134,134,134)" stroke-width="0.1"/>
  <path d="M 22.593233999999967,80.90000399999997 L 22.593233999999967,84.10000400000001" fill="none" instance-id="-1" semantic-id="1" stroke="rgb(134,134,134)" stroke-width="0.1"/>
  <path d="M 22.593233999999967,84.10000400000001 L 22.993233999999973,84.50000399999999" fill="none" instance-id="-1" semantic-id="1" stroke="rgb(134,134,134)" stroke-width="0.1"/>
  <path d="M 19.993233999999973,80.50000399999999 L 20.39323399999998,80.90000399999997" fill="none" instance-id="-1" semantic-id="1" stroke="rgb(134,134,134)" stroke-width="0.1"/>
  <path d="M 20.39323399999998,80.90000399999997 L 22.593233999999967,80.90000399999997" fill="none" instance-id="-1" semantic-id="1" stroke="rgb(134,134,134)" stroke-width="0.1"/>
  <path d="M 22.593233999999967,80.90000399999997 L 22.993233999999973,80.50000399999999" fill="none" instance-id="-1" semantic-id="1" stroke="rgb(134,134,134)" stroke-width="0.1"/>
  <path d="M 22.993233999999973,80.50000399999999 L 19.993233999999973,80.50000399999999" fill="none" instance-id="-1" semantic-id="1" stroke="rgb(134,134,134)" stroke-width="0.1"/>
  <path d="M 55.99323399999997,73.00000399999999 L 55.99323399999997,72.60000400000001" fill="none" instance-id="-1" semantic-id="1" stroke="rgb(134,134,134)" stroke-width="0.1"/>
  <path d="M 55.99323399999997,72.60000400000001 L 50.74323399999997,72.60000400000001" fill="none" instance-id="-1" semantic-id="1" stroke="rgb(134,134,134)" stroke-width="0.1"/>
  <path d="M 50.74323399999997,72.60000400000001 L 50.74323399999997,73.00000399999999" fill="none" instance-id="-1" semantic-id="1" stroke="rgb(134,134,134)" stroke-width="0.1"/>
  <path d="M 50.74323399999997,73.00000399999999 L 55.99323399999997,73.00000399999999" fill="none" instance-id="-1" semantic-id="1" stroke="rgb(134,134,134)" stroke-width="0.1"/>
  <path d="M 52.99323399999997,71.40000399999997 L 52.99323399999997,71.00000399999999" fill="none" instance-id="-1" semantic-id="1" stroke="rgb(134,134,134)" stroke-width="0.1"/>
  <path d="M 52.99323399999997,71.00000399999999 L 50.74323399999997,71.00000399999999" fill="none" instance-id="-1" semantic-id="1" stroke="rgb(134,134,134)" stroke-width="0.1"/>
  <path d="M 50.74323399999997,71.00000399999999 L 50.74323399999997,71.40000399999997" fill="none" instance-id="-1" semantic-id="1" stroke="rgb(134,134,134)" stroke-width="0.1"/>
  <path d="M 50.74323399999997,71.40000399999997 L 52.99323399999997,71.40000399999997" fill="none" instance-id="-1" semantic-id="1" stroke="rgb(134,134,134)" stroke-width="0.1"/>
  <path d="M 55.59323399999997,72.50000399999999 L 55.59323399999997,73.00000399999999" fill="none" instance-id="-1" semantic-id="1" stroke="rgb(134,134,134)" stroke-width="0.1"/>
  <path d="M 55.59323399999997,73.00000399999999 L 55.99323399999997,73.00000399999999" fill="none" instance-id="-1" semantic-id="1" stroke="rgb(134,134,134)" stroke-width="0.1"/>
  <path d="M 55.99323399999997,73.00000399999999 L 55.99323399999997,72.50000399999999" fill="none" instance-id="-1" semantic-id="1" stroke="rgb(134,134,134)" stroke-width="0.1"/>
  <path d="M 55.99323399999997,72.50000399999999 L 55.59323399999997,72.50000399999999" fill="none" instance-id="-1" semantic-id="1" stroke="rgb(134,134,134)" stroke-width="0.1"/>
  <path d="M 50.74323399999997,73.00000399999999 L 51.14323399999998,73.00000399999999" fill="none" instance-id="-1" semantic-id="1" stroke="rgb(134,134,134)" stroke-width="0.1"/>
  <path d="M 51.14323399999998,73.00000399999999 L 51.14323399999998,71.00000399999999" fill="none" instance-id="-1" semantic-id="1" stroke="rgb(134,134,134)" stroke-width="0.1"/>
  <path d="M 51.14323399999998,71.00000399999999 L 50.74323399999997,71.00000399999999" fill="none" instance-id="-1" semantic-id="1" stroke="rgb(134,134,134)" stroke-width="0.1"/>
  <path d="M 50.74323399999997,71.00000399999999 L 50.74323399999997,73.00000399999999" fill="none" instance-id="-1" semantic-id="1" stroke="rgb(134,134,134)" stroke-width="0.1"/>
  <path d="M 100.0,74.50000399999999 L 30.993233999999973,74.50000399999999" fill="none" instance-id="-1" semantic-id="1" stroke="rgb(134,134,134)" stroke-width="0.1"/>
  <path d="M 30.993233999999973,74.50000399999999 L 30.993233999999973,74.90000399999997" fill="none" instance-id="-1" semantic-id="1" stroke="rgb(134,134,134)" stroke-width="0.1"/>
  <path d="M 30.993233999999973,74.90000399999997 L 100.0,74.90000399999997" fill="none" instance-id="-1" semantic-id="1" stroke="rgb(134,134,134)" stroke-width="0.1"/>
  <path d="M 100.0,76.10000400000001 L 30.993233999999973,76.10000400000001" fill="none" instance-id="-1" semantic-id="1" stroke="rgb(134,134,134)" stroke-width="0.1"/>
  <path d="M 30.993233999999973,76.10000400000001 L 30.993233999999973,76.50000399999999" fill="none" instance-id="-1" semantic-id="1" stroke="rgb(134,134,134)" stroke-width="0.1"/>
  <path d="M 30.993233999999973,76.50000399999999 L 100.0,76.50000399999999" fill="none" instance-id="-1" semantic-id="1" stroke="rgb(134,134,134)" stroke-width="0.1"/>
  <path d="M 53.09323399999997,97.90000399999997 L 96.89323399999998,97.90000399999997" fill="none" instance-id="-1" semantic-id="1" stroke="rgb(134,134,134)" stroke-width="0.1"/>
  <path d="M 96.89323399999998,97.90000399999997 L 96.89323399999998,97.50000399999999" fill="none" instance-id="-1" semantic-id="1" stroke="rgb(134,134,134)" stroke-width="0.1"/>
  <path d="M 96.89323399999998,97.50000399999999 L 53.09323399999997,97.50000399999999" fill="none" instance-id="-1" semantic-id="1" stroke="rgb(134,134,134)" stroke-width="0.1"/>
  <path d="M 53.09323399999997,97.50000399999999 L 53.09323399999997,97.90000399999997" fill="none" instance-id="-1" semantic-id="1" stroke="rgb(134,134,134)" stroke-width="0.1"/>
  <path d="M 53.09323399999997,98.50000399999999 L 96.89323399999998,98.50000399999999" fill="none" instance-id="-1" semantic-id="1" stroke="rgb(134,134,134)" stroke-width="0.1"/>
  <path d="M 96.89323399999998,98.50000399999999 L 96.89323399999998,98.10000400000001" fill="none" instance-id="-1" semantic-id="1" stroke="rgb(134,134,134)" stroke-width="0.1"/>
  <path d="M 96.89323399999998,98.10000400000001 L 53.09323399999997,98.10000400000001" fill="none" instance-id="-1" semantic-id="1" stroke="rgb(134,134,134)" stroke-width="0.1"/>
  <path d="M 53.09323399999997,98.10000400000001 L 53.09323399999997,98.50000399999999" fill="none" instance-id="-1" semantic-id="1" stroke="rgb(134,134,134)" stroke-width="0.1"/>
  <path d="M 53.09323399999997,98.50000399999999 L 53.49323399999997,98.50000399999999" fill="none" instance-id="-1" semantic-id="1" stroke="rgb(134,134,134)" stroke-width="0.1"/>
  <path d="M 53.49323399999997,98.50000399999999 L 53.49323399999997,97.50000399999999" fill="none" instance-id="-1" semantic-id="1" stroke="rgb(134,134,134)" stroke-width="0.1"/>
  <path d="M 53.49323399999997,97.50000399999999 L 53.09323399999997,97.50000399999999" fill="none" instance-id="-1" semantic-id="1" stroke="rgb(134,134,134)" stroke-width="0.1"/>
  <path d="M 53.09323399999997,97.50000399999999 L 53.09323399999997,98.50000399999999" fill="none" instance-id="-1" semantic-id="1" stroke="rgb(134,134,134)" stroke-width="0.1"/>
  <path d="M 96.49323399999997,97.50000399999999 L 96.49323399999997,98.50000399999999" fill="none" instance-id="-1" semantic-id="1" stroke="rgb(134,134,134)" stroke-width="0.1"/>
  <path d="M 96.49323399999997,98.50000399999999 L 96.89323399999998,98.50000399999999" fill="none" instance-id="-1" semantic-id="1" stroke="rgb(134,134,134)" stroke-width="0.1"/>
  <path d="M 96.89323399999998,98.50000399999999 L 96.89323399999998,97.50000399999999" fill="none" instance-id="-1" semantic-id="1" stroke="rgb(134,134,134)" stroke-width="0.1"/>
  <path d="M 96.89323399999998,97.50000399999999 L 96.49323399999997,97.50000399999999" fill="none" instance-id="-1" semantic-id="1" stroke="rgb(134,134,134)" stroke-width="0.1"/>
  <path d="M 100.0,71.00000399999999 L 58.99323399999997,71.00000399999999" fill="none" instance-id="-1" semantic-id="1" stroke="rgb(134,134,134)" stroke-width="0.1"/>
  <path d="M 58.99323399999997,71.00000399999999 L 58.99323399999997,71.40000399999997" fill="none" instance-id="-1" semantic-id="1" stroke="rgb(134,134,134)" stroke-width="0.1"/>
  <path d="M 58.99323399999997,71.40000399999997 L 100.0,71.40000399999997" fill="none" instance-id="-1" semantic-id="1" stroke="rgb(134,134,134)" stroke-width="0.1"/>
  <path d="M 55.99323399999997,73.00000399999999 L 100.0,73.00000399999999" fill="none" instance-id="-1" semantic-id="1" stroke="rgb(134,134,134)" stroke-width="0.1"/>
  <path d="M 100.0,72.60000400000001 L 55.99323399999997,72.60000400000001" fill="none" instance-id="-1" semantic-id="1" stroke="rgb(134,134,134)" stroke-width="0.1"/>
  <path d="M 55.99323399999997,72.60000400000001 L 55.99323399999997,73.00000399999999" fill="none" instance-id="-1" semantic-id="1" stroke="rgb(134,134,134)" stroke-width="0.1"/>
  <path d="M 66.99323399999997,16.50000399999999 L 67.39323399999998,16.900003999999967" fill="none" instance-id="-1" semantic-id="1" stroke="rgb(134,134,134)" stroke-width="0.1"/>
  <path d="M 67.39323399999998,16.900003999999967 L 67.39323399999998,0.0" fill="none" instance-id="-1" semantic-id="1" stroke="rgb(134,134,134)" stroke-width="0.1"/>
  <path d="M 66.99323399999997,0.0 L 66.99323399999997,16.50000399999999" fill="none" instance-id="-1" semantic-id="1" stroke="rgb(134,134,134)" stroke-width="0.1"/>
  <path d="M 68.59323399999997,0.0 L 68.59323399999997,18.100004000000013" fill="none" instance-id="-1" semantic-id="1" stroke="rgb(134,134,134)" stroke-width="0.1"/>
  <path d="M 68.59323399999997,18.100004000000013 L 68.99323399999997,18.50000399999999" fill="none" instance-id="-1" semantic-id="1" stroke="rgb(134,134,134)" stroke-width="0.1"/>
  <path d="M 68.99323399999997,18.50000399999999 L 68.99323399999997,0.0" fill="none" instance-id="-1" semantic-id="1" stroke="rgb(134,134,134)" stroke-width="0.1"/>
  <path d="M 54.99323399999997,0.0 L 54.99323399999997,16.50000399999999" fill="none" instance-id="-1" semantic-id="1" stroke="rgb(134,134,134)" stroke-width="0.1"/>
  <path d="M 54.99323399999997,16.50000399999999 L 55.39323399999998,16.900003999999967" fill="none" instance-id="-1" semantic-id="1" stroke="rgb(134,134,134)" stroke-width="0.1"/>
  <path d="M 55.39323399999998,16.900003999999967 L 55.39323399999998,0.0" fill="none" instance-id="-1" semantic-id="1" stroke="rgb(134,134,134)" stroke-width="0.1"/>
  <path d="M 56.59323399999997,0.0 L 56.59323399999997,16.900003999999967" fill="none" instance-id="-1" semantic-id="1" stroke="rgb(134,134,134)" stroke-width="0.1"/>
  <path d="M 56.59323399999997,16.900003999999967 L 56.99323399999997,16.50000399999999" fill="none" instance-id="-1" semantic-id="1" stroke="rgb(134,134,134)" stroke-width="0.1"/>
  <path d="M 56.99323399999997,16.50000399999999 L 56.99323399999997,0.0" fill="none" instance-id="-1" semantic-id="1" stroke="rgb(134,134,134)" stroke-width="0.1"/>
  <path d="M 51.79323399999997,16.900003999999967 L 55.39323399999998,16.900003999999967" fill="none" instance-id="-1" semantic-id="1" stroke="rgb(134,134,134)" stroke-width="0.1"/>
  <path d="M 55.39323399999998,16.900003999999967 L 54.99323399999997,16.50000399999999" fill="none" instance-id="-1" semantic-id="1" stroke="rgb(134,134,134)" stroke-width="0.1"/>
  <path d="M 54.99323399999997,16.50000399999999 L 51.79323399999997,16.50000399999999" fill="none" instance-id="-1" semantic-id="1" stroke="rgb(134,134,134)" stroke-width="0.1"/>
  <path d="M 51.79323399999997,16.50000399999999 L 51.79323399999997,16.900003999999967" fill="none" instance-id="-1" semantic-id="1" stroke="rgb(134,134,134)" stroke-width="0.1"/>
  <path d="M 51.79323399999997,18.50000399999999 L 55.99323399999997,18.50000399999999" fill="none" instance-id="-1" semantic-id="1" stroke="rgb(134,134,134)" stroke-width="0.1"/>
  <path d="M 55.99323399999997,18.50000399999999 L 55.99323399999997,18.100004000000013" fill="none" instance-id="-1" semantic-id="1" stroke="rgb(134,134,134)" stroke-width="0.1"/>
  <path d="M 55.99323399999997,18.100004000000013 L 51.79323399999997,18.100004000000013" fill="none" instance-id="-1" semantic-id="1" stroke="rgb(134,134,134)" stroke-width="0.1"/>
  <path d="M 51.79323399999997,18.100004000000013 L 51.79323399999997,18.50000399999999" fill="none" instance-id="-1" semantic-id="1" stroke="rgb(134,134,134)" stroke-width="0.1"/>
  <path d="M 51.79323399999997,18.50000399999999 L 52.193233999999975,18.50000399999999" fill="none" instance-id="-1" semantic-id="1" stroke="rgb(134,134,134)" stroke-width="0.1"/>
  <path d="M 52.193233999999975,18.50000399999999 L 52.193233999999975,16.50000399999999" fill="none" instance-id="-1" semantic-id="1" stroke="rgb(134,134,134)" stroke-width="0.1"/>
  <path d="M 52.193233999999975,16.50000399999999 L 51.79323399999997,16.50000399999999" fill="none" instance-id="-1" semantic-id="1" stroke="rgb(134,134,134)" stroke-width="0.1"/>
  <path d="M 51.79323399999997,16.50000399999999 L 51.79323399999997,18.50000399999999" fill="none" instance-id="-1" semantic-id="1" stroke="rgb(134,134,134)" stroke-width="0.1"/>
  <path d="M 56.59323399999997,16.900003999999967 L 67.39323399999998,16.900003999999967" fill="none" instance-id="-1" semantic-id="1" stroke="rgb(134,134,134)" stroke-width="0.1"/>
  <path d="M 67.39323399999998,16.900003999999967 L 66.99323399999997,16.50000399999999" fill="none" instance-id="-1" semantic-id="1" stroke="rgb(134,134,134)" stroke-width="0.1"/>
  <path d="M 66.99323399999997,16.50000399999999 L 56.99323399999997,16.50000399999999" fill="none" instance-id="-1" semantic-id="1" stroke="rgb(134,134,134)" stroke-width="0.1"/>
  <path d="M 56.99323399999997,16.50000399999999 L 56.59323399999997,16.900003999999967" fill="none" instance-id="-1" semantic-id="1" stroke="rgb(134,134,134)" stroke-width="0.1"/>
  <path d="M 55.99323399999997,18.50000399999999 L 68.99323399999997,18.50000399999999" fill="none" instance-id="-1" semantic-id="1" stroke="rgb(134,134,134)" stroke-width="0.1"/>
  <path d="M 68.99323399999997,18.50000399999999 L 68.59323399999997,18.100004000000013" fill="none" instance-id="-1" semantic-id="1" stroke="rgb(134,134,134)" stroke-width="0.1"/>
  <path d="M 68.59323399999997,18.100004000000013 L 55.99323399999997,18.100004000000013" fill="none" instance-id="-1" semantic-id="1" stroke="rgb(134,134,134)" stroke-width="0.1"/>
  <path d="M 55.99323399999997,18.100004000000013 L 55.99323399999997,18.50000399999999" fill="none" instance-id="-1" semantic-id="1" stroke="rgb(134,134,134)" stroke-width="0.1"/>
 </g>
 <g id="layer楼梯梁线" inkscape:groupmode="layer" inkscape:label="楼梯梁线">
  <path d="M 30.993233999999973,78.50000399999999 L 100.0,78.50000399999999" fill="none" stroke="rgb(89,89,89)" stroke-width="0.1"/>
 </g>
</svg>