<?xml version="1.0" encoding="utf-8"?>
<svg style="background-color: #000;" version="1.1" viewBox="0 0 100.0 100.0" xmlns="http://www.w3.org/2000/svg" xmlns:inkscape="http://www.inkscape.org/namespaces/inkscape">
 <g id="layerA-COLUMN" inkscape:groupmode="layer" inkscape:label="A-COLUMN">
  <path d="M 70.75,3.00000399999999 L 76.75,3.00000399999999" fill="none" stroke="rgb(178,0,0)" stroke-width="0.1"/>
  <path d="M 76.75,3.00000399999999 L 76.75,0.0" fill="none" stroke="rgb(178,0,0)" stroke-width="0.1"/>
  <path d="M 70.75,0.0 L 70.75,3.00000399999999" fill="none" stroke="rgb(178,0,0)" stroke-width="0.1"/>
  <path d="M 7.75,3.00000399999999 L 13.75,3.00000399999999" fill="none" stroke="rgb(178,0,0)" stroke-width="0.1"/>
  <path d="M 13.75,3.00000399999999 L 13.75,0.0" fill="none" stroke="rgb(178,0,0)" stroke-width="0.1"/>
  <path d="M 7.75,0.0 L 7.75,3.00000399999999" fill="none" stroke="rgb(178,0,0)" stroke-width="0.1"/>
  <path d="M 70.75,61.00000399999999 L 76.75,61.00000399999999" fill="none" stroke="rgb(178,0,0)" stroke-width="0.1"/>
  <path d="M 76.75,61.00000399999999 L 76.75,55.00000399999999" fill="none" stroke="rgb(178,0,0)" stroke-width="0.1"/>
  <path d="M 76.75,55.00000399999999 L 70.75,55.00000399999999" fill="none" stroke="rgb(178,0,0)" stroke-width="0.1"/>
  <path d="M 70.75,55.00000399999999 L 70.75,61.00000399999999" fill="none" stroke="rgb(178,0,0)" stroke-width="0.1"/>
  <path d="M 7.75,61.00000399999999 L 13.75,61.00000399999999" fill="none" stroke="rgb(178,0,0)" stroke-width="0.1"/>
  <path d="M 13.75,61.00000399999999 L 13.75,55.00000399999999" fill="none" stroke="rgb(178,0,0)" stroke-width="0.1"/>
  <path d="M 13.75,55.00000399999999 L 7.75,55.00000399999999" fill="none" stroke="rgb(178,0,0)" stroke-width="0.1"/>
  <path d="M 7.75,55.00000399999999 L 7.75,61.00000399999999" fill="none" stroke="rgb(178,0,0)" stroke-width="0.1"/>
 </g>
 <g id="layerA-CURTWALL_METAL" inkscape:groupmode="layer" inkscape:label="A-CURTWALL_METAL">
  <path d="M 86.25,97.60000399999998 L 86.25,96.60000399999998" fill="none" stroke="rgb(133,12,255)" stroke-width="0.1"/>
  <path d="M 86.25,96.60000399999998 L 87.75,96.60000399999998" fill="none" stroke="rgb(133,12,255)" stroke-width="0.1"/>
  <path d="M 87.75,96.60000399999998 L 87.75,97.60000399999998" fill="none" stroke="rgb(133,12,255)" stroke-width="0.1"/>
  <path d="M 87.75,97.60000399999998 L 86.25,97.60000399999998" fill="none" stroke="rgb(133,12,255)" stroke-width="0.1"/>
  <path d="M 86.35000000000002,97.50000399999999 L 86.35000000000002,96.70000399999998" fill="none" stroke="rgb(133,12,255)" stroke-width="0.1"/>
  <path d="M 86.35000000000002,96.70000399999998 L 87.64999999999998,96.70000399999998" fill="none" stroke="rgb(133,12,255)" stroke-width="0.1"/>
  <path d="M 87.64999999999998,96.70000399999998 L 87.64999999999998,97.50000399999999" fill="none" stroke="rgb(133,12,255)" stroke-width="0.1"/>
  <path d="M 87.64999999999998,97.50000399999999 L 86.35000000000002,97.50000399999999" fill="none" stroke="rgb(133,12,255)" stroke-width="0.1"/>
  <path d="M 85.35000000000002,98.00000399999999 L 86.14999999999998,98.00000399999999" fill="none" stroke="rgb(133,12,255)" stroke-width="0.1"/>
  <path d="M 86.14999999999998,98.00000399999999 L 86.14999999999998,96.20000399999998" fill="none" stroke="rgb(133,12,255)" stroke-width="0.1"/>
  <path d="M 86.14999999999998,96.20000399999998 L 85.35000000000002,96.20000399999998" fill="none" stroke="rgb(133,12,255)" stroke-width="0.1"/>
  <path d="M 85.35000000000002,96.20000399999998 L 85.35000000000002,98.00000399999999" fill="none" stroke="rgb(133,12,255)" stroke-width="0.1"/>
  <path d="M 86.25,86.75000399999999 L 86.25,87.75000399999999" fill="none" stroke="rgb(133,12,255)" stroke-width="0.1"/>
  <path d="M 86.25,87.75000399999999 L 87.75,87.75000399999999" fill="none" stroke="rgb(133,12,255)" stroke-width="0.1"/>
  <path d="M 87.75,87.75000399999999 L 87.75,86.75000399999999" fill="none" stroke="rgb(133,12,255)" stroke-width="0.1"/>
  <path d="M 87.75,86.75000399999999 L 86.25,86.75000399999999" fill="none" stroke="rgb(133,12,255)" stroke-width="0.1"/>
  <path d="M 86.35000000000002,86.85000399999998 L 86.35000000000002,87.650004" fill="none" stroke="rgb(133,12,255)" stroke-width="0.1"/>
  <path d="M 86.35000000000002,87.650004 L 87.64999999999998,87.650004" fill="none" stroke="rgb(133,12,255)" stroke-width="0.1"/>
  <path d="M 87.64999999999998,87.650004 L 87.64999999999998,86.85000399999998" fill="none" stroke="rgb(133,12,255)" stroke-width="0.1"/>
  <path d="M 87.64999999999998,86.85000399999998 L 86.35000000000002,86.85000399999998" fill="none" stroke="rgb(133,12,255)" stroke-width="0.1"/>
  <path d="M 86.25,77.900004 L 86.25,76.900004" fill="none" stroke="rgb(133,12,255)" stroke-width="0.1"/>
  <path d="M 86.25,76.900004 L 87.75,76.900004" fill="none" stroke="rgb(133,12,255)" stroke-width="0.1"/>
  <path d="M 87.75,76.900004 L 87.75,77.900004" fill="none" stroke="rgb(133,12,255)" stroke-width="0.1"/>
  <path d="M 87.75,77.900004 L 86.25,77.900004" fill="none" stroke="rgb(133,12,255)" stroke-width="0.1"/>
  <path d="M 86.35000000000002,77.800004 L 86.35000000000002,77.00000399999999" fill="none" stroke="rgb(133,12,255)" stroke-width="0.1"/>
  <path d="M 86.35000000000002,77.00000399999999 L 87.64999999999998,77.00000399999999" fill="none" stroke="rgb(133,12,255)" stroke-width="0.1"/>
  <path d="M 87.64999999999998,77.00000399999999 L 87.64999999999998,77.800004" fill="none" stroke="rgb(133,12,255)" stroke-width="0.1"/>
  <path d="M 87.64999999999998,77.800004 L 86.35000000000002,77.800004" fill="none" stroke="rgb(133,12,255)" stroke-width="0.1"/>
  <path d="M 85.35000000000002,78.300004 L 86.14999999999998,78.300004" fill="none" stroke="rgb(133,12,255)" stroke-width="0.1"/>
  <path d="M 86.14999999999998,78.300004 L 86.14999999999998,76.50000399999999" fill="none" stroke="rgb(133,12,255)" stroke-width="0.1"/>
  <path d="M 86.14999999999998,76.50000399999999 L 85.35000000000002,76.50000399999999" fill="none" stroke="rgb(133,12,255)" stroke-width="0.1"/>
  <path d="M 85.35000000000002,76.50000399999999 L 85.35000000000002,78.300004" fill="none" stroke="rgb(133,12,255)" stroke-width="0.1"/>
  <path d="M 86.25,67.050004 L 86.25,68.050004" fill="none" stroke="rgb(133,12,255)" stroke-width="0.1"/>
  <path d="M 86.25,68.050004 L 87.75,68.050004" fill="none" stroke="rgb(133,12,255)" stroke-width="0.1"/>
  <path d="M 87.75,68.050004 L 87.75,67.050004" fill="none" stroke="rgb(133,12,255)" stroke-width="0.1"/>
  <path d="M 87.75,67.050004 L 86.25,67.050004" fill="none" stroke="rgb(133,12,255)" stroke-width="0.1"/>
  <path d="M 86.35000000000002,67.150004 L 86.35000000000002,67.95000399999998" fill="none" stroke="rgb(133,12,255)" stroke-width="0.1"/>
  <path d="M 86.35000000000002,67.95000399999998 L 87.64999999999998,67.95000399999998" fill="none" stroke="rgb(133,12,255)" stroke-width="0.1"/>
  <path d="M 87.64999999999998,67.95000399999998 L 87.64999999999998,67.150004" fill="none" stroke="rgb(133,12,255)" stroke-width="0.1"/>
  <path d="M 87.64999999999998,67.150004 L 86.35000000000002,67.150004" fill="none" stroke="rgb(133,12,255)" stroke-width="0.1"/>
  <path d="M 86.25,58.20000399999999 L 86.25,57.20000399999999" fill="none" stroke="rgb(133,12,255)" stroke-width="0.1"/>
  <path d="M 86.25,57.20000399999999 L 87.75,57.20000399999999" fill="none" stroke="rgb(133,12,255)" stroke-width="0.1"/>
  <path d="M 87.75,57.20000399999999 L 87.75,58.20000399999999" fill="none" stroke="rgb(133,12,255)" stroke-width="0.1"/>
  <path d="M 87.75,58.20000399999999 L 86.25,58.20000399999999" fill="none" stroke="rgb(133,12,255)" stroke-width="0.1"/>
  <path d="M 86.35000000000002,58.100003999999984 L 86.35000000000002,57.30000399999999" fill="none" stroke="rgb(133,12,255)" stroke-width="0.1"/>
  <path d="M 86.35000000000002,57.30000399999999 L 87.64999999999998,57.30000399999999" fill="none" stroke="rgb(133,12,255)" stroke-width="0.1"/>
  <path d="M 87.64999999999998,57.30000399999999 L 87.64999999999998,58.100003999999984" fill="none" stroke="rgb(133,12,255)" stroke-width="0.1"/>
  <path d="M 87.64999999999998,58.100003999999984 L 86.35000000000002,58.100003999999984" fill="none" stroke="rgb(133,12,255)" stroke-width="0.1"/>
  <path d="M 85.35000000000002,58.600003999999984 L 86.14999999999998,58.600003999999984" fill="none" stroke="rgb(133,12,255)" stroke-width="0.1"/>
  <path d="M 86.14999999999998,58.600003999999984 L 86.14999999999998,56.80000399999999" fill="none" stroke="rgb(133,12,255)" stroke-width="0.1"/>
  <path d="M 86.14999999999998,56.80000399999999 L 85.35000000000002,56.80000399999999" fill="none" stroke="rgb(133,12,255)" stroke-width="0.1"/>
  <path d="M 85.35000000000002,56.80000399999999 L 85.35000000000002,58.600003999999984" fill="none" stroke="rgb(133,12,255)" stroke-width="0.1"/>
  <path d="M 86.25,47.350003999999984 L 86.25,48.350003999999984" fill="none" stroke="rgb(133,12,255)" stroke-width="0.1"/>
  <path d="M 86.25,48.350003999999984 L 87.75,48.350003999999984" fill="none" stroke="rgb(133,12,255)" stroke-width="0.1"/>
  <path d="M 87.75,48.350003999999984 L 87.75,47.350003999999984" fill="none" stroke="rgb(133,12,255)" stroke-width="0.1"/>
  <path d="M 87.75,47.350003999999984 L 86.25,47.350003999999984" fill="none" stroke="rgb(133,12,255)" stroke-width="0.1"/>
  <path d="M 86.35000000000002,47.45000399999999 L 86.35000000000002,48.25000399999999" fill="none" stroke="rgb(133,12,255)" stroke-width="0.1"/>
  <path d="M 86.35000000000002,48.25000399999999 L 87.64999999999998,48.25000399999999" fill="none" stroke="rgb(133,12,255)" stroke-width="0.1"/>
  <path d="M 87.64999999999998,48.25000399999999 L 87.64999999999998,47.45000399999999" fill="none" stroke="rgb(133,12,255)" stroke-width="0.1"/>
  <path d="M 87.64999999999998,47.45000399999999 L 86.35000000000002,47.45000399999999" fill="none" stroke="rgb(133,12,255)" stroke-width="0.1"/>
  <path d="M 86.25,38.50000399999999 L 86.25,37.50000399999999" fill="none" stroke="rgb(133,12,255)" stroke-width="0.1"/>
  <path d="M 86.25,37.50000399999999 L 87.75,37.50000399999999" fill="none" stroke="rgb(133,12,255)" stroke-width="0.1"/>
  <path d="M 87.75,37.50000399999999 L 87.75,38.50000399999999" fill="none" stroke="rgb(133,12,255)" stroke-width="0.1"/>
  <path d="M 87.75,38.50000399999999 L 86.25,38.50000399999999" fill="none" stroke="rgb(133,12,255)" stroke-width="0.1"/>
  <path d="M 86.35000000000002,38.400003999999996 L 86.35000000000002,37.600003999999984" fill="none" stroke="rgb(133,12,255)" stroke-width="0.1"/>
  <path d="M 86.35000000000002,37.600003999999984 L 87.64999999999998,37.600003999999984" fill="none" stroke="rgb(133,12,255)" stroke-width="0.1"/>
  <path d="M 87.64999999999998,37.600003999999984 L 87.64999999999998,38.400003999999996" fill="none" stroke="rgb(133,12,255)" stroke-width="0.1"/>
  <path d="M 87.64999999999998,38.400003999999996 L 86.35000000000002,38.400003999999996" fill="none" stroke="rgb(133,12,255)" stroke-width="0.1"/>
  <path d="M 85.35000000000002,38.900003999999996 L 86.14999999999998,38.900003999999996" fill="none" stroke="rgb(133,12,255)" stroke-width="0.1"/>
  <path d="M 86.14999999999998,38.900003999999996 L 86.14999999999998,37.100003999999984" fill="none" stroke="rgb(133,12,255)" stroke-width="0.1"/>
  <path d="M 86.14999999999998,37.100003999999984 L 85.35000000000002,37.100003999999984" fill="none" stroke="rgb(133,12,255)" stroke-width="0.1"/>
  <path d="M 85.35000000000002,37.100003999999984 L 85.35000000000002,38.900003999999996" fill="none" stroke="rgb(133,12,255)" stroke-width="0.1"/>
  <path d="M 86.25,27.650003999999996 L 86.25,28.650003999999996" fill="none" stroke="rgb(133,12,255)" stroke-width="0.1"/>
  <path d="M 86.25,28.650003999999996 L 87.75,28.650003999999996" fill="none" stroke="rgb(133,12,255)" stroke-width="0.1"/>
  <path d="M 87.75,28.650003999999996 L 87.75,27.650003999999996" fill="none" stroke="rgb(133,12,255)" stroke-width="0.1"/>
  <path d="M 87.75,27.650003999999996 L 86.25,27.650003999999996" fill="none" stroke="rgb(133,12,255)" stroke-width="0.1"/>
  <path d="M 86.35000000000002,27.75000399999999 L 86.35000000000002,28.550003999999987" fill="none" stroke="rgb(133,12,255)" stroke-width="0.1"/>
  <path d="M 86.35000000000002,28.550003999999987 L 87.64999999999998,28.550003999999987" fill="none" stroke="rgb(133,12,255)" stroke-width="0.1"/>
  <path d="M 87.64999999999998,28.550003999999987 L 87.64999999999998,27.75000399999999" fill="none" stroke="rgb(133,12,255)" stroke-width="0.1"/>
  <path d="M 87.64999999999998,27.75000399999999 L 86.35000000000002,27.75000399999999" fill="none" stroke="rgb(133,12,255)" stroke-width="0.1"/>
  <path d="M 86.25,18.800003999999987 L 86.25,17.800003999999987" fill="none" stroke="rgb(133,12,255)" stroke-width="0.1"/>
  <path d="M 86.25,17.800003999999987 L 87.75,17.800003999999987" fill="none" stroke="rgb(133,12,255)" stroke-width="0.1"/>
  <path d="M 87.75,17.800003999999987 L 87.75,18.800003999999987" fill="none" stroke="rgb(133,12,255)" stroke-width="0.1"/>
  <path d="M 87.75,18.800003999999987 L 86.25,18.800003999999987" fill="none" stroke="rgb(133,12,255)" stroke-width="0.1"/>
  <path d="M 86.35000000000002,18.700003999999993 L 86.35000000000002,17.900003999999996" fill="none" stroke="rgb(133,12,255)" stroke-width="0.1"/>
  <path d="M 86.35000000000002,17.900003999999996 L 87.64999999999998,17.900003999999996" fill="none" stroke="rgb(133,12,255)" stroke-width="0.1"/>
  <path d="M 87.64999999999998,17.900003999999996 L 87.64999999999998,18.700003999999993" fill="none" stroke="rgb(133,12,255)" stroke-width="0.1"/>
  <path d="M 87.64999999999998,18.700003999999993 L 86.35000000000002,18.700003999999993" fill="none" stroke="rgb(133,12,255)" stroke-width="0.1"/>
  <path d="M 85.35000000000002,19.200003999999993 L 86.14999999999998,19.200003999999993" fill="none" stroke="rgb(133,12,255)" stroke-width="0.1"/>
  <path d="M 86.14999999999998,19.200003999999993 L 86.14999999999998,17.400003999999996" fill="none" stroke="rgb(133,12,255)" stroke-width="0.1"/>
  <path d="M 86.14999999999998,17.400003999999996 L 85.35000000000002,17.400003999999996" fill="none" stroke="rgb(133,12,255)" stroke-width="0.1"/>
  <path d="M 85.35000000000002,17.400003999999996 L 85.35000000000002,19.200003999999993" fill="none" stroke="rgb(133,12,255)" stroke-width="0.1"/>
  <path d="M 86.25,7.950003999999993 L 86.25,8.950003999999993" fill="none" stroke="rgb(133,12,255)" stroke-width="0.1"/>
  <path d="M 86.25,8.950003999999993 L 87.75,8.950003999999993" fill="none" stroke="rgb(133,12,255)" stroke-width="0.1"/>
  <path d="M 87.75,8.950003999999993 L 87.75,7.950003999999993" fill="none" stroke="rgb(133,12,255)" stroke-width="0.1"/>
  <path d="M 87.75,7.950003999999993 L 86.25,7.950003999999993" fill="none" stroke="rgb(133,12,255)" stroke-width="0.1"/>
  <path d="M 86.35000000000002,8.050003999999987 L 86.35000000000002,8.850003999999984" fill="none" stroke="rgb(133,12,255)" stroke-width="0.1"/>
  <path d="M 86.35000000000002,8.850003999999984 L 87.64999999999998,8.850003999999984" fill="none" stroke="rgb(133,12,255)" stroke-width="0.1"/>
  <path d="M 87.64999999999998,8.850003999999984 L 87.64999999999998,8.050003999999987" fill="none" stroke="rgb(133,12,255)" stroke-width="0.1"/>
  <path d="M 87.64999999999998,8.050003999999987 L 86.35000000000002,8.050003999999987" fill="none" stroke="rgb(133,12,255)" stroke-width="0.1"/>
  <path d="M 85.25,98.10000399999998 L 86.25,98.10000399999998" fill="none" stroke="rgb(133,12,255)" stroke-width="0.1"/>
  <path d="M 86.25,98.10000399999998 L 86.25,96.10000399999998" fill="none" stroke="rgb(133,12,255)" stroke-width="0.1"/>
  <path d="M 86.25,96.10000399999998 L 85.25,96.10000399999998" fill="none" stroke="rgb(133,12,255)" stroke-width="0.1"/>
  <path d="M 85.25,96.10000399999998 L 85.25,98.10000399999998" fill="none" stroke="rgb(133,12,255)" stroke-width="0.1"/>
  <path d="M 85.25,78.400004 L 86.25,78.400004" fill="none" stroke="rgb(133,12,255)" stroke-width="0.1"/>
  <path d="M 86.25,78.400004 L 86.25,76.400004" fill="none" stroke="rgb(133,12,255)" stroke-width="0.1"/>
  <path d="M 86.25,76.400004 L 85.25,76.400004" fill="none" stroke="rgb(133,12,255)" stroke-width="0.1"/>
  <path d="M 85.25,76.400004 L 85.25,78.400004" fill="none" stroke="rgb(133,12,255)" stroke-width="0.1"/>
  <path d="M 85.25,58.70000399999999 L 86.25,58.70000399999999" fill="none" stroke="rgb(133,12,255)" stroke-width="0.1"/>
  <path d="M 86.25,58.70000399999999 L 86.25,56.70000399999999" fill="none" stroke="rgb(133,12,255)" stroke-width="0.1"/>
  <path d="M 86.25,56.70000399999999 L 85.25,56.70000399999999" fill="none" stroke="rgb(133,12,255)" stroke-width="0.1"/>
  <path d="M 85.25,56.70000399999999 L 85.25,58.70000399999999" fill="none" stroke="rgb(133,12,255)" stroke-width="0.1"/>
  <path d="M 85.25,39.00000399999999 L 86.25,39.00000399999999" fill="none" stroke="rgb(133,12,255)" stroke-width="0.1"/>
  <path d="M 86.25,39.00000399999999 L 86.25,37.00000399999999" fill="none" stroke="rgb(133,12,255)" stroke-width="0.1"/>
  <path d="M 86.25,37.00000399999999 L 85.25,37.00000399999999" fill="none" stroke="rgb(133,12,255)" stroke-width="0.1"/>
  <path d="M 85.25,37.00000399999999 L 85.25,39.00000399999999" fill="none" stroke="rgb(133,12,255)" stroke-width="0.1"/>
  <path d="M 85.25,19.300003999999987 L 86.25,19.300003999999987" fill="none" stroke="rgb(133,12,255)" stroke-width="0.1"/>
  <path d="M 86.25,19.300003999999987 L 86.25,17.300003999999987" fill="none" stroke="rgb(133,12,255)" stroke-width="0.1"/>
  <path d="M 86.25,17.300003999999987 L 85.25,17.300003999999987" fill="none" stroke="rgb(133,12,255)" stroke-width="0.1"/>
  <path d="M 85.25,17.300003999999987 L 85.25,19.300003999999987" fill="none" stroke="rgb(133,12,255)" stroke-width="0.1"/>
 </g>
 <g id="layerA-DOOR_FIRE" inkscape:groupmode="layer" inkscape:label="A-DOOR_FIRE">
  <path d="M 6.5,45.37500399999999 L 7.25,45.37500399999999" fill="none" stroke="rgb(53,133,160)" stroke-width="0.1"/>
  <path d="M 7.25,60.00000399999999 L 6.5,60.00000399999999" fill="none" stroke="rgb(53,133,160)" stroke-width="0.1"/>
  <path d="M 7.25,60.00000399999999 L 7.25,45.37500399999999" fill="none" stroke="rgb(53,133,160)" stroke-width="0.1"/>
  <path d="M 6.5,60.00000399999999 L 6.5,45.37500399999999" fill="none" stroke="rgb(53,133,160)" stroke-width="0.1"/>
  <path d="M 6.5,45.380003999999985 L 5.99831447899453,45.401495318273845" fill="none" stroke="rgb(53,133,160)" stroke-width="0.1"/>
  <path d="M 5.99831447899453,45.401495318273845 L 5.497662460336812,45.44019667434425" fill="none" stroke="rgb(53,133,160)" stroke-width="0.1"/>
  <path d="M 5.497662460336812,45.44019667434425 L 4.998634150007376,45.496062444163044" fill="none" stroke="rgb(53,133,160)" stroke-width="0.1"/>
  <path d="M 4.998634150007376,45.496062444163044 L 4.501817839837997,45.5690267689896" fill="none" stroke="rgb(53,133,160)" stroke-width="0.1"/>
  <path d="M 4.501817839837997,45.5690267689896 L 4.0077992139895855,45.65900363302998" fill="none" stroke="rgb(53,133,160)" stroke-width="0.1"/>
  <path d="M 4.0077992139895855,45.65900363302998 L 3.5171606585037694,45.7658869648388" fill="none" stroke="rgb(53,133,160)" stroke-width="0.1"/>
  <path d="M 3.5171606585037694,45.7658869648388 L 3.0304805747430805,45.889550762364124" fill="none" stroke="rgb(53,133,160)" stroke-width="0.1"/>
  <path d="M 3.0304805747430805,45.889550762364124 L 2.548332697527826,46.02984924148818" fill="none" stroke="rgb(53,133,160)" stroke-width="0.1"/>
  <path d="M 2.548332697527826,46.02984924148818 L 2.0712854187748917,46.186617007888486" fill="none" stroke="rgb(53,133,160)" stroke-width="0.1"/>
  <path d="M 2.0712854187748917,46.186617007888486 L 1.5999011174349107,46.35966925201704" fill="none" stroke="rgb(53,133,160)" stroke-width="0.1"/>
  <path d="M 1.5999011174349107,46.35966925201704 L 1.1347354965178624,46.548801966967645" fill="none" stroke="rgb(53,133,160)" stroke-width="0.1"/>
  <path d="M 1.1347354965178624,46.548801966967645 L 0.6763369279890412,46.753792188974444" fill="none" stroke="rgb(53,133,160)" stroke-width="0.1"/>
  <path d="M 0.6763369279890412,46.753792188974444 L 0.2252458063069298,46.97439826025828" fill="none" stroke="rgb(53,133,160)" stroke-width="0.1"/>
 </g>
 <g id="layerA-DOTE" inkscape:groupmode="layer" inkscape:label="A-DOTE">
  <path d="M 10.75,0.0 L 10.75,100.0" fill="none" stroke="rgb(107,0,0)" stroke-width="0.1"/>
  <path d="M 73.75,0.0 L 73.75,100.0" fill="none" stroke="rgb(107,0,0)" stroke-width="0.1"/>
  <path d="M 84.25,0.0 L 84.25,100.0" fill="none" stroke="rgb(107,0,0)" stroke-width="0.1"/>
  <path d="M 0.0,58.00000399999999 L 100.0,58.00000399999999" fill="none" stroke="rgb(107,0,0)" stroke-width="0.1"/>
 </g>
 <g id="layerA-PUB_DIM" inkscape:groupmode="layer" inkscape:label="A-PUB_DIM">
  <path d="M 7.25,67.00000399999999 L 7.25,76.50000399999999" fill="none" stroke="rgb(0,142,142)" stroke-width="0.1"/>
  <path d="M 0.0,74.00000399999999 L 7.25,74.00000399999999" fill="none" stroke="rgb(0,142,142)" stroke-width="0.1"/>
  <path d="M 7.25,67.00000399999999 L 7.25,76.50000399999999" fill="none" stroke="rgb(0,142,142)" stroke-width="0.1"/>
  <path d="M 10.750999999999976,67.00000399999999 L 10.750999999999976,76.50000399999999" fill="none" stroke="rgb(0,142,142)" stroke-width="0.1"/>
  <path d="M 7.25,74.00000399999999 L 6.25,74.00000399999999" fill="none" stroke="rgb(0,142,142)" stroke-width="0.1"/>
  <path d="M 10.750999999999976,74.00000399999999 L 11.750999999999976,74.00000399999999" fill="none" stroke="rgb(0,142,142)" stroke-width="0.1"/>
  <path d="M 7.25,74.00000399999999 L 10.750999999999976,74.00000399999999" fill="none" stroke="rgb(0,142,142)" stroke-width="0.1"/>
  <text fill="rgb(0,142,142)" font-family="Noto Sans CJK SC" font-size="2" transform="rotate(-0.0,6.899999999999977,72.73700399999998)" x="6.899999999999977" y="72.73700399999998">
   350
  </text>
 </g>
 <g id="layerA-WALL" inkscape:groupmode="layer" inkscape:label="A-WALL">
  <path d="M 85.25,15.300003999999987 L 85.25,21.300003999999987" fill="none" instance-id="-1" semantic-id="1" stroke="rgb(134,134,134)" stroke-width="0.1"/>
  <path d="M 83.25,15.300003999999987 L 83.25,21.300003999999987" fill="none" instance-id="-1" semantic-id="1" stroke="rgb(134,134,134)" stroke-width="0.1"/>
  <path d="M 85.25,35.00000399999999 L 85.25,41.00000399999999" fill="none" instance-id="-1" semantic-id="1" stroke="rgb(134,134,134)" stroke-width="0.1"/>
  <path d="M 83.25,35.00000399999999 L 83.25,41.00000399999999" fill="none" instance-id="-1" semantic-id="1" stroke="rgb(134,134,134)" stroke-width="0.1"/>
  <path d="M 85.25,54.70000399999999 L 85.25,60.70000399999999" fill="none" instance-id="-1" semantic-id="1" stroke="rgb(134,134,134)" stroke-width="0.1"/>
  <path d="M 83.25,54.70000399999999 L 83.25,60.70000399999999" fill="none" instance-id="-1" semantic-id="1" stroke="rgb(134,134,134)" stroke-width="0.1"/>
  <path d="M 85.25,74.400004 L 85.25,80.400004" fill="none" instance-id="-1" semantic-id="1" stroke="rgb(134,134,134)" stroke-width="0.1"/>
  <path d="M 83.25,74.400004 L 83.25,80.400004" fill="none" instance-id="-1" semantic-id="1" stroke="rgb(134,134,134)" stroke-width="0.1"/>
  <path d="M 85.25,94.10000399999998 L 85.25,100.0" fill="none" instance-id="-1" semantic-id="1" stroke="rgb(134,134,134)" stroke-width="0.1"/>
  <path d="M 83.25,94.10000399999998 L 83.25,100.0" fill="none" instance-id="-1" semantic-id="1" stroke="rgb(134,134,134)" stroke-width="0.1"/>
  <path d="M 83.25,80.400004 L 85.25,80.400004" fill="none" instance-id="-1" semantic-id="1" stroke="rgb(134,134,134)" stroke-width="0.1"/>
  <path d="M 83.25,94.10000399999998 L 85.25,94.10000399999998" fill="none" instance-id="-1" semantic-id="1" stroke="rgb(134,134,134)" stroke-width="0.1"/>
  <path d="M 83.25,60.70000399999999 L 85.25,60.70000399999999" fill="none" instance-id="-1" semantic-id="1" stroke="rgb(134,134,134)" stroke-width="0.1"/>
  <path d="M 83.25,74.400004 L 85.25,74.400004" fill="none" instance-id="-1" semantic-id="1" stroke="rgb(134,134,134)" stroke-width="0.1"/>
  <path d="M 83.25,41.00000399999999 L 85.25,41.00000399999999" fill="none" instance-id="-1" semantic-id="1" stroke="rgb(134,134,134)" stroke-width="0.1"/>
  <path d="M 83.25,54.70000399999999 L 85.25,54.70000399999999" fill="none" instance-id="-1" semantic-id="1" stroke="rgb(134,134,134)" stroke-width="0.1"/>
  <path d="M 83.25,21.300003999999987 L 85.25,21.300003999999987" fill="none" instance-id="-1" semantic-id="1" stroke="rgb(134,134,134)" stroke-width="0.1"/>
  <path d="M 83.25,35.00000399999999 L 85.25,35.00000399999999" fill="none" instance-id="-1" semantic-id="1" stroke="rgb(134,134,134)" stroke-width="0.1"/>
  <path d="M 83.25,1.6000039999999913 L 85.25,1.6000039999999913" fill="none" instance-id="-1" semantic-id="1" stroke="rgb(134,134,134)" stroke-width="0.1"/>
  <path d="M 83.25,15.300003999999987 L 85.25,15.300003999999987" fill="none" instance-id="-1" semantic-id="1" stroke="rgb(134,134,134)" stroke-width="0.1"/>
  <path d="M 85.25,0.0 L 85.25,1.6000039999999913" fill="none" instance-id="-1" semantic-id="1" stroke="rgb(134,134,134)" stroke-width="0.1"/>
  <path d="M 83.25,0.0 L 83.25,1.6000039999999913" fill="none" instance-id="-1" semantic-id="1" stroke="rgb(134,134,134)" stroke-width="0.1"/>
  <path d="M 7.75,59.00000399999999 L 7.25,59.00000399999999" fill="none" instance-id="-1" semantic-id="1" stroke="rgb(134,134,134)" stroke-width="0.1"/>
  <path d="M 7.25,59.00000399999999 L 7.25,61.00000399999999" fill="none" instance-id="-1" semantic-id="1" stroke="rgb(134,134,134)" stroke-width="0.1"/>
  <path d="M 7.25,61.00000399999999 L 7.75,61.00000399999999" fill="none" instance-id="-1" semantic-id="1" stroke="rgb(134,134,134)" stroke-width="0.1"/>
  <path d="M 11.75,3.00000399999999 L 11.75,55.00000399999999" fill="none" instance-id="-1" semantic-id="1" stroke="rgb(134,134,134)" stroke-width="0.1"/>
  <path d="M 9.75,3.00000399999999 L 9.75,55.00000399999999" fill="none" instance-id="-1" semantic-id="1" stroke="rgb(134,134,134)" stroke-width="0.1"/>
  <path d="M 87.25,97.60000399999998 L 86.75,97.60000399999998" fill="none" stroke="rgb(134,134,134)" stroke-width="0.1"/>
  <path d="M 87.25,96.60000399999998 L 86.75,96.60000399999998" fill="none" stroke="rgb(134,134,134)" stroke-width="0.1"/>
  <path d="M 87.25,87.75000399999999 L 86.75,87.75000399999999" fill="none" stroke="rgb(134,134,134)" stroke-width="0.1"/>
  <path d="M 87.25,86.75000399999999 L 86.75,86.75000399999999" fill="none" stroke="rgb(134,134,134)" stroke-width="0.1"/>
  <path d="M 87.25,77.900004 L 86.75,77.900004" fill="none" stroke="rgb(134,134,134)" stroke-width="0.1"/>
  <path d="M 87.25,76.900004 L 86.75,76.900004" fill="none" stroke="rgb(134,134,134)" stroke-width="0.1"/>
  <path d="M 87.25,68.050004 L 86.75,68.050004" fill="none" stroke="rgb(134,134,134)" stroke-width="0.1"/>
  <path d="M 87.25,67.050004 L 86.75,67.050004" fill="none" stroke="rgb(134,134,134)" stroke-width="0.1"/>
  <path d="M 87.25,58.20000399999999 L 86.75,58.20000399999999" fill="none" stroke="rgb(134,134,134)" stroke-width="0.1"/>
  <path d="M 87.25,57.20000399999999 L 86.75,57.20000399999999" fill="none" stroke="rgb(134,134,134)" stroke-width="0.1"/>
  <path d="M 87.25,48.350003999999984 L 86.75,48.350003999999984" fill="none" stroke="rgb(134,134,134)" stroke-width="0.1"/>
  <path d="M 87.25,47.350003999999984 L 86.75,47.350003999999984" fill="none" stroke="rgb(134,134,134)" stroke-width="0.1"/>
  <path d="M 87.25,38.50000399999999 L 86.75,38.50000399999999" fill="none" stroke="rgb(134,134,134)" stroke-width="0.1"/>
  <path d="M 87.25,37.50000399999999 L 86.75,37.50000399999999" fill="none" stroke="rgb(134,134,134)" stroke-width="0.1"/>
  <path d="M 87.25,28.650003999999996 L 86.75,28.650003999999996" fill="none" stroke="rgb(134,134,134)" stroke-width="0.1"/>
  <path d="M 87.25,27.650003999999996 L 86.75,27.650003999999996" fill="none" stroke="rgb(134,134,134)" stroke-width="0.1"/>
  <path d="M 87.25,18.800003999999987 L 86.75,18.800003999999987" fill="none" stroke="rgb(134,134,134)" stroke-width="0.1"/>
  <path d="M 87.25,17.800003999999987 L 86.75,17.800003999999987" fill="none" stroke="rgb(134,134,134)" stroke-width="0.1"/>
  <path d="M 87.25,8.950003999999993 L 86.75,8.950003999999993" fill="none" stroke="rgb(134,134,134)" stroke-width="0.1"/>
  <path d="M 86.75,7.950003999999993 L 87.25,7.950003999999993" fill="none" stroke="rgb(134,134,134)" stroke-width="0.1"/>
  <path d="M 90.25,0.0 L 90.25,100.0" fill="none" stroke="rgb(134,134,134)" stroke-width="0.1"/>
 </g>
 <g id="layerA-WINDOW" inkscape:groupmode="layer" inkscape:label="A-WINDOW">
  <path d="M 83.25,94.10000399999998 L 86.25,94.10000399999998" fill="none" stroke="rgb(53,133,160)" stroke-width="0.1"/>
  <path d="M 86.25,80.400004 L 83.25,80.400004" fill="none" stroke="rgb(53,133,160)" stroke-width="0.1"/>
  <path d="M 83.25,80.400004 L 83.25,94.10000399999998" fill="none" stroke="rgb(53,133,160)" stroke-width="0.1"/>
  <path d="M 86.25,80.400004 L 86.25,94.10000399999998" fill="none" instance-id="-1" semantic-id="2" stroke="rgb(53,133,160)" stroke-width="0.1"/>
  <path d="M 83.25,74.400004 L 86.25,74.400004" fill="none" stroke="rgb(53,133,160)" stroke-width="0.1"/>
  <path d="M 86.25,60.70000399999999 L 83.25,60.70000399999999" fill="none" stroke="rgb(53,133,160)" stroke-width="0.1"/>
  <path d="M 83.25,60.70000399999999 L 83.25,74.400004" fill="none" stroke="rgb(53,133,160)" stroke-width="0.1"/>
  <path d="M 86.25,60.70000399999999 L 86.25,74.400004" fill="none" instance-id="-1" semantic-id="2" stroke="rgb(53,133,160)" stroke-width="0.1"/>
  <path d="M 83.25,54.70000399999999 L 86.25,54.70000399999999" fill="none" stroke="rgb(53,133,160)" stroke-width="0.1"/>
  <path d="M 86.25,41.00000399999999 L 83.25,41.00000399999999" fill="none" stroke="rgb(53,133,160)" stroke-width="0.1"/>
  <path d="M 83.25,41.00000399999999 L 83.25,54.70000399999999" fill="none" stroke="rgb(53,133,160)" stroke-width="0.1"/>
  <path d="M 86.25,41.00000399999999 L 86.25,54.70000399999999" fill="none" instance-id="-1" semantic-id="2" stroke="rgb(53,133,160)" stroke-width="0.1"/>
  <path d="M 83.25,35.00000399999999 L 86.25,35.00000399999999" fill="none" stroke="rgb(53,133,160)" stroke-width="0.1"/>
  <path d="M 86.25,21.300003999999987 L 83.25,21.300003999999987" fill="none" stroke="rgb(53,133,160)" stroke-width="0.1"/>
  <path d="M 83.25,21.300003999999987 L 83.25,35.00000399999999" fill="none" stroke="rgb(53,133,160)" stroke-width="0.1"/>
  <path d="M 86.25,21.300003999999987 L 86.25,35.00000399999999" fill="none" instance-id="-1" semantic-id="2" stroke="rgb(53,133,160)" stroke-width="0.1"/>
  <path d="M 83.25,15.300003999999987 L 86.25,15.300003999999987" fill="none" stroke="rgb(53,133,160)" stroke-width="0.1"/>
  <path d="M 86.25,1.6000039999999913 L 83.25,1.6000039999999913" fill="none" stroke="rgb(53,133,160)" stroke-width="0.1"/>
  <path d="M 83.25,1.6000039999999913 L 83.25,15.300003999999987" fill="none" stroke="rgb(53,133,160)" stroke-width="0.1"/>
  <path d="M 86.25,1.6000039999999913 L 86.25,15.300003999999987" fill="none" instance-id="-1" semantic-id="2" stroke="rgb(53,133,160)" stroke-width="0.1"/>
  <path d="M 87.25,87.75000399999999 L 86.75,87.75000399999999" fill="none" instance-id="-1" semantic-id="2" stroke="rgb(53,133,160)" stroke-width="0.1"/>
  <path d="M 86.75,96.60000399999998 L 87.25,96.60000399999998" fill="none" instance-id="-1" semantic-id="2" stroke="rgb(53,133,160)" stroke-width="0.1"/>
  <path d="M 86.91699999999997,87.75000399999999 L 86.91699999999997,96.60000399999998" fill="none" instance-id="-1" semantic-id="2" stroke="rgb(53,133,160)" stroke-width="0.1"/>
  <path d="M 87.08300000000003,87.75000399999999 L 87.08300000000003,96.60000399999998" fill="none" instance-id="-1" semantic-id="2" stroke="rgb(53,133,160)" stroke-width="0.1"/>
  <path d="M 87.25,96.60000399999998 L 87.25,87.75000399999999" fill="none" instance-id="-1" semantic-id="2" stroke="rgb(53,133,160)" stroke-width="0.1"/>
  <path d="M 86.75,96.60000399999998 L 86.75,87.75000399999999" fill="none" instance-id="-1" semantic-id="2" stroke="rgb(53,133,160)" stroke-width="0.1"/>
  <path d="M 87.25,68.050004 L 86.75,68.050004" fill="none" instance-id="-1" semantic-id="2" stroke="rgb(53,133,160)" stroke-width="0.1"/>
  <path d="M 86.75,76.900004 L 87.25,76.900004" fill="none" instance-id="-1" semantic-id="2" stroke="rgb(53,133,160)" stroke-width="0.1"/>
  <path d="M 86.91699999999997,68.050004 L 86.91699999999997,76.900004" fill="none" instance-id="-1" semantic-id="2" stroke="rgb(53,133,160)" stroke-width="0.1"/>
  <path d="M 87.08300000000003,68.050004 L 87.08300000000003,76.900004" fill="none" instance-id="-1" semantic-id="2" stroke="rgb(53,133,160)" stroke-width="0.1"/>
  <path d="M 87.25,76.900004 L 87.25,68.050004" fill="none" instance-id="-1" semantic-id="2" stroke="rgb(53,133,160)" stroke-width="0.1"/>
  <path d="M 86.75,76.900004 L 86.75,68.050004" fill="none" instance-id="-1" semantic-id="2" stroke="rgb(53,133,160)" stroke-width="0.1"/>
  <path d="M 87.25,48.350003999999984 L 86.75,48.350003999999984" fill="none" instance-id="-1" semantic-id="2" stroke="rgb(53,133,160)" stroke-width="0.1"/>
  <path d="M 86.75,57.20000399999999 L 87.25,57.20000399999999" fill="none" instance-id="-1" semantic-id="2" stroke="rgb(53,133,160)" stroke-width="0.1"/>
  <path d="M 86.91699999999997,48.350003999999984 L 86.91699999999997,57.20000399999999" fill="none" instance-id="-1" semantic-id="2" stroke="rgb(53,133,160)" stroke-width="0.1"/>
  <path d="M 87.08300000000003,48.350003999999984 L 87.08300000000003,57.20000399999999" fill="none" instance-id="-1" semantic-id="2" stroke="rgb(53,133,160)" stroke-width="0.1"/>
  <path d="M 87.25,57.20000399999999 L 87.25,48.350003999999984" fill="none" instance-id="-1" semantic-id="2" stroke="rgb(53,133,160)" stroke-width="0.1"/>
  <path d="M 86.75,57.20000399999999 L 86.75,48.350003999999984" fill="none" instance-id="-1" semantic-id="2" stroke="rgb(53,133,160)" stroke-width="0.1"/>
  <path d="M 87.25,28.650003999999996 L 86.75,28.650003999999996" fill="none" instance-id="-1" semantic-id="2" stroke="rgb(53,133,160)" stroke-width="0.1"/>
  <path d="M 86.75,37.50000399999999 L 87.25,37.50000399999999" fill="none" instance-id="-1" semantic-id="2" stroke="rgb(53,133,160)" stroke-width="0.1"/>
  <path d="M 86.91699999999997,28.650003999999996 L 86.91699999999997,37.50000399999999" fill="none" instance-id="-1" semantic-id="2" stroke="rgb(53,133,160)" stroke-width="0.1"/>
  <path d="M 87.08300000000003,28.650003999999996 L 87.08300000000003,37.50000399999999" fill="none" instance-id="-1" semantic-id="2" stroke="rgb(53,133,160)" stroke-width="0.1"/>
  <path d="M 87.25,37.50000399999999 L 87.25,28.650003999999996" fill="none" instance-id="-1" semantic-id="2" stroke="rgb(53,133,160)" stroke-width="0.1"/>
  <path d="M 86.75,37.50000399999999 L 86.75,28.650003999999996" fill="none" instance-id="-1" semantic-id="2" stroke="rgb(53,133,160)" stroke-width="0.1"/>
  <path d="M 87.25,8.950003999999993 L 86.75,8.950003999999993" fill="none" instance-id="-1" semantic-id="2" stroke="rgb(53,133,160)" stroke-width="0.1"/>
  <path d="M 86.75,17.800003999999987 L 87.25,17.800003999999987" fill="none" instance-id="-1" semantic-id="2" stroke="rgb(53,133,160)" stroke-width="0.1"/>
  <path d="M 86.91699999999997,8.950003999999993 L 86.91699999999997,17.800003999999987" fill="none" instance-id="-1" semantic-id="2" stroke="rgb(53,133,160)" stroke-width="0.1"/>
  <path d="M 87.08300000000003,8.950003999999993 L 87.08300000000003,17.800003999999987" fill="none" instance-id="-1" semantic-id="2" stroke="rgb(53,133,160)" stroke-width="0.1"/>
  <path d="M 87.25,17.800003999999987 L 87.25,8.950003999999993" fill="none" instance-id="-1" semantic-id="2" stroke="rgb(53,133,160)" stroke-width="0.1"/>
  <path d="M 86.75,17.800003999999987 L 86.75,8.950003999999993" fill="none" instance-id="-1" semantic-id="2" stroke="rgb(53,133,160)" stroke-width="0.1"/>
  <path d="M 87.25,7.950003999999993 L 86.75,7.950003999999993" fill="none" instance-id="-1" semantic-id="2" stroke="rgb(53,133,160)" stroke-width="0.1"/>
  <path d="M 86.91699999999997,7.950003999999993 L 86.91699999999997,0.0" fill="none" instance-id="-1" semantic-id="2" stroke="rgb(53,133,160)" stroke-width="0.1"/>
  <path d="M 87.08300000000003,7.950003999999993 L 87.08300000000003,0.0" fill="none" instance-id="-1" semantic-id="2" stroke="rgb(53,133,160)" stroke-width="0.1"/>
  <path d="M 87.25,0.0 L 87.25,7.950003999999993" fill="none" instance-id="-1" semantic-id="2" stroke="rgb(53,133,160)" stroke-width="0.1"/>
  <path d="M 86.75,0.0 L 86.75,7.950003999999993" fill="none" instance-id="-1" semantic-id="2" stroke="rgb(53,133,160)" stroke-width="0.1"/>
  <path d="M 87.25,27.650003999999996 L 86.75,27.650003999999996" fill="none" instance-id="-1" semantic-id="2" stroke="rgb(53,133,160)" stroke-width="0.1"/>
  <path d="M 86.75,18.800003999999987 L 87.25,18.800003999999987" fill="none" instance-id="-1" semantic-id="2" stroke="rgb(53,133,160)" stroke-width="0.1"/>
  <path d="M 86.91699999999997,27.650003999999996 L 86.91699999999997,18.800003999999987" fill="none" instance-id="-1" semantic-id="2" stroke="rgb(53,133,160)" stroke-width="0.1"/>
  <path d="M 87.08300000000003,27.650003999999996 L 87.08300000000003,18.800003999999987" fill="none" instance-id="-1" semantic-id="2" stroke="rgb(53,133,160)" stroke-width="0.1"/>
  <path d="M 87.25,18.800003999999987 L 87.25,27.650003999999996" fill="none" instance-id="-1" semantic-id="2" stroke="rgb(53,133,160)" stroke-width="0.1"/>
  <path d="M 86.75,18.800003999999987 L 86.75,27.650003999999996" fill="none" instance-id="-1" semantic-id="2" stroke="rgb(53,133,160)" stroke-width="0.1"/>
  <path d="M 87.25,47.350003999999984 L 86.75,47.350003999999984" fill="none" instance-id="-1" semantic-id="2" stroke="rgb(53,133,160)" stroke-width="0.1"/>
  <path d="M 86.75,38.50000399999999 L 87.25,38.50000399999999" fill="none" instance-id="-1" semantic-id="2" stroke="rgb(53,133,160)" stroke-width="0.1"/>
  <path d="M 86.91699999999997,47.350003999999984 L 86.91699999999997,38.50000399999999" fill="none" instance-id="-1" semantic-id="2" stroke="rgb(53,133,160)" stroke-width="0.1"/>
  <path d="M 87.08300000000003,47.350003999999984 L 87.08300000000003,38.50000399999999" fill="none" instance-id="-1" semantic-id="2" stroke="rgb(53,133,160)" stroke-width="0.1"/>
  <path d="M 87.25,38.50000399999999 L 87.25,47.350003999999984" fill="none" instance-id="-1" semantic-id="2" stroke="rgb(53,133,160)" stroke-width="0.1"/>
  <path d="M 86.75,38.50000399999999 L 86.75,47.350003999999984" fill="none" instance-id="-1" semantic-id="2" stroke="rgb(53,133,160)" stroke-width="0.1"/>
  <path d="M 87.25,67.050004 L 86.75,67.050004" fill="none" instance-id="-1" semantic-id="2" stroke="rgb(53,133,160)" stroke-width="0.1"/>
  <path d="M 86.75,58.20000399999999 L 87.25,58.20000399999999" fill="none" instance-id="-1" semantic-id="2" stroke="rgb(53,133,160)" stroke-width="0.1"/>
  <path d="M 86.91699999999997,67.050004 L 86.91699999999997,58.20000399999999" fill="none" instance-id="-1" semantic-id="2" stroke="rgb(53,133,160)" stroke-width="0.1"/>
  <path d="M 87.08300000000003,67.050004 L 87.08300000000003,58.20000399999999" fill="none" instance-id="-1" semantic-id="2" stroke="rgb(53,133,160)" stroke-width="0.1"/>
  <path d="M 87.25,58.20000399999999 L 87.25,67.050004" fill="none" instance-id="-1" semantic-id="2" stroke="rgb(53,133,160)" stroke-width="0.1"/>
  <path d="M 86.75,58.20000399999999 L 86.75,67.050004" fill="none" instance-id="-1" semantic-id="2" stroke="rgb(53,133,160)" stroke-width="0.1"/>
  <path d="M 87.25,86.75000399999999 L 86.75,86.75000399999999" fill="none" instance-id="-1" semantic-id="2" stroke="rgb(53,133,160)" stroke-width="0.1"/>
  <path d="M 86.75,77.900004 L 87.25,77.900004" fill="none" instance-id="-1" semantic-id="2" stroke="rgb(53,133,160)" stroke-width="0.1"/>
  <path d="M 86.91699999999997,86.75000399999999 L 86.91699999999997,77.900004" fill="none" instance-id="-1" semantic-id="2" stroke="rgb(53,133,160)" stroke-width="0.1"/>
  <path d="M 87.08300000000003,86.75000399999999 L 87.08300000000003,77.900004" fill="none" instance-id="-1" semantic-id="2" stroke="rgb(53,133,160)" stroke-width="0.1"/>
  <path d="M 87.25,77.900004 L 87.25,86.75000399999999" fill="none" instance-id="-1" semantic-id="2" stroke="rgb(53,133,160)" stroke-width="0.1"/>
  <path d="M 86.75,77.900004 L 86.75,86.75000399999999" fill="none" instance-id="-1" semantic-id="2" stroke="rgb(53,133,160)" stroke-width="0.1"/>
  <path d="M 86.75,97.60000399999998 L 87.25,97.60000399999998" fill="none" instance-id="-1" semantic-id="2" stroke="rgb(53,133,160)" stroke-width="0.1"/>
  <path d="M 86.91699999999997,100.0 L 86.91699999999997,97.60000399999998" fill="none" instance-id="-1" semantic-id="2" stroke="rgb(53,133,160)" stroke-width="0.1"/>
  <path d="M 87.08300000000003,100.0 L 87.08300000000003,97.60000399999998" fill="none" instance-id="-1" semantic-id="2" stroke="rgb(53,133,160)" stroke-width="0.1"/>
  <path d="M 87.25,97.60000399999998 L 87.25,100.0" fill="none" instance-id="-1" semantic-id="2" stroke="rgb(53,133,160)" stroke-width="0.1"/>
  <path d="M 86.75,97.60000399999998 L 86.75,100.0" fill="none" instance-id="-1" semantic-id="2" stroke="rgb(53,133,160)" stroke-width="0.1"/>
 </g>
 <g id="layerA-WINDOW_TEXT" inkscape:groupmode="layer" inkscape:label="A-WINDOW_TEXT">
  <text fill="rgb(0,0,0)" font-family="Noto Sans CJK SC" font-size="2" transform="rotate(-90.0,94.036,13.090003999999993)" x="94.036" y="13.090003999999993">
   BLM1958b'
  </text>
  <text fill="rgb(0,0,0)" font-family="Noto Sans CJK SC" font-size="2" transform="rotate(-90.0,94.036,31.84500399999999)" x="94.036" y="31.84500399999999">
   BLM1958
  </text>
  <text fill="rgb(0,0,0)" font-family="Noto Sans CJK SC" font-size="2" transform="rotate(-90.0,94.036,51.54500399999999)" x="94.036" y="51.54500399999999">
   BLM1958
  </text>
  <text fill="rgb(0,0,0)" font-family="Noto Sans CJK SC" font-size="2" transform="rotate(-90.0,94.036,71.245004)" x="94.036" y="71.245004">
   BLM1958
  </text>
  <text fill="rgb(0,0,0)" font-family="Noto Sans CJK SC" font-size="2" transform="rotate(-90.0,94.036,90.94500399999998)" x="94.036" y="90.94500399999998">
   BLM1958
  </text>
 </g>
 <g id="layerCOLU" inkscape:groupmode="layer" inkscape:label="COLU">
  <path d="M 6.75,4.00000399999999 L 14.75,4.00000399999999" fill="none" stroke="rgb(178,0,178)" stroke-width="0.1"/>
  <path d="M 14.75,4.00000399999999 L 14.75,0.0" fill="none" stroke="rgb(178,0,178)" stroke-width="0.1"/>
  <path d="M 6.75,0.0 L 6.75,4.00000399999999" fill="none" stroke="rgb(178,0,178)" stroke-width="0.1"/>
  <path d="M 68.75,5.00000399999999 L 76.75,5.00000399999999" fill="none" stroke="rgb(178,0,178)" stroke-width="0.1"/>
  <path d="M 76.75,5.00000399999999 L 76.75,0.0" fill="none" stroke="rgb(178,0,178)" stroke-width="0.1"/>
  <path d="M 68.75,0.0 L 68.75,5.00000399999999" fill="none" stroke="rgb(178,0,178)" stroke-width="0.1"/>
  <path d="M 69.75,61.50000399999999 L 76.75,61.50000399999999" fill="none" stroke="rgb(178,0,178)" stroke-width="0.1"/>
  <path d="M 76.75,61.50000399999999 L 76.75,54.50000399999999" fill="none" stroke="rgb(178,0,178)" stroke-width="0.1"/>
  <path d="M 76.75,54.50000399999999 L 69.75,54.50000399999999" fill="none" stroke="rgb(178,0,178)" stroke-width="0.1"/>
  <path d="M 69.75,54.50000399999999 L 69.75,61.50000399999999" fill="none" stroke="rgb(178,0,178)" stroke-width="0.1"/>
  <path d="M 7.25,61.00000399999999 L 14.25,61.00000399999999" fill="none" stroke="rgb(178,0,178)" stroke-width="0.1"/>
  <path d="M 14.25,61.00000399999999 L 14.25,55.00000399999999" fill="none" stroke="rgb(178,0,178)" stroke-width="0.1"/>
  <path d="M 14.25,55.00000399999999 L 7.25,55.00000399999999" fill="none" stroke="rgb(178,0,178)" stroke-width="0.1"/>
  <path d="M 7.25,55.00000399999999 L 7.25,61.00000399999999" fill="none" stroke="rgb(178,0,178)" stroke-width="0.1"/>
 </g>
 <g id="layerCOLU_HATCH" inkscape:groupmode="layer" inkscape:label="COLU_HATCH">
  <path d="M 6.75,4.00000399999999 L 14.75,4.00000399999999" fill="none" stroke="rgb(44,44,88)" stroke-width="0.1"/>
  <path d="M 14.75,4.00000399999999 L 14.75,0.0" fill="none" stroke="rgb(44,44,88)" stroke-width="0.1"/>
  <path d="M 6.75,0.0 L 6.75,4.00000399999999" fill="none" stroke="rgb(44,44,88)" stroke-width="0.1"/>
  <path d="M 68.75,5.00000399999999 L 76.75,5.00000399999999" fill="none" stroke="rgb(44,44,88)" stroke-width="0.1"/>
  <path d="M 76.75,5.00000399999999 L 76.75,0.0" fill="none" stroke="rgb(44,44,88)" stroke-width="0.1"/>
  <path d="M 68.75,0.0 L 68.75,5.00000399999999" fill="none" stroke="rgb(44,44,88)" stroke-width="0.1"/>
  <path d="M 69.75,61.50000399999999 L 76.75,61.50000399999999" fill="none" stroke="rgb(44,44,88)" stroke-width="0.1"/>
  <path d="M 76.75,61.50000399999999 L 76.75,54.50000399999999" fill="none" stroke="rgb(44,44,88)" stroke-width="0.1"/>
  <path d="M 76.75,54.50000399999999 L 69.75,54.50000399999999" fill="none" stroke="rgb(44,44,88)" stroke-width="0.1"/>
  <path d="M 69.75,54.50000399999999 L 69.75,61.50000399999999" fill="none" stroke="rgb(44,44,88)" stroke-width="0.1"/>
  <path d="M 7.25,61.00000399999999 L 14.25,61.00000399999999" fill="none" stroke="rgb(44,44,88)" stroke-width="0.1"/>
  <path d="M 14.25,61.00000399999999 L 14.25,55.00000399999999" fill="none" stroke="rgb(44,44,88)" stroke-width="0.1"/>
  <path d="M 14.25,55.00000399999999 L 7.25,55.00000399999999" fill="none" stroke="rgb(44,44,88)" stroke-width="0.1"/>
  <path d="M 7.25,55.00000399999999 L 7.25,61.00000399999999" fill="none" stroke="rgb(44,44,88)" stroke-width="0.1"/>
 </g>
 <g id="layerPUB_WALL" inkscape:groupmode="layer" inkscape:label="PUB_WALL">
  <path d="M 70.75,3.00000399999999 L 76.75,3.00000399999999" fill="none" stroke="rgb(134,134,134)" stroke-width="0.1"/>
  <path d="M 76.75,3.00000399999999 L 76.35000000000002,2.6000039999999913" fill="none" stroke="rgb(134,134,134)" stroke-width="0.1"/>
  <path d="M 76.35000000000002,2.6000039999999913 L 71.14999999999998,2.6000039999999913" fill="none" stroke="rgb(134,134,134)" stroke-width="0.1"/>
  <path d="M 71.14999999999998,2.6000039999999913 L 70.75,3.00000399999999" fill="none" stroke="rgb(134,134,134)" stroke-width="0.1"/>
  <path d="M 76.75,3.00000399999999 L 76.75,0.0" fill="none" stroke="rgb(134,134,134)" stroke-width="0.1"/>
  <path d="M 76.35000000000002,0.0 L 76.35000000000002,2.6000039999999913" fill="none" stroke="rgb(134,134,134)" stroke-width="0.1"/>
  <path d="M 76.35000000000002,2.6000039999999913 L 76.75,3.00000399999999" fill="none" stroke="rgb(134,134,134)" stroke-width="0.1"/>
  <path d="M 70.75,3.00000399999999 L 71.14999999999998,2.6000039999999913" fill="none" stroke="rgb(134,134,134)" stroke-width="0.1"/>
  <path d="M 71.14999999999998,2.6000039999999913 L 71.14999999999998,0.0" fill="none" stroke="rgb(134,134,134)" stroke-width="0.1"/>
  <path d="M 70.75,0.0 L 70.75,3.00000399999999" fill="none" stroke="rgb(134,134,134)" stroke-width="0.1"/>
  <path d="M 7.75,3.00000399999999 L 13.75,3.00000399999999" fill="none" stroke="rgb(134,134,134)" stroke-width="0.1"/>
  <path d="M 13.75,3.00000399999999 L 13.350000000000023,2.6000039999999913" fill="none" stroke="rgb(134,134,134)" stroke-width="0.1"/>
  <path d="M 13.350000000000023,2.6000039999999913 L 8.149999999999977,2.6000039999999913" fill="none" stroke="rgb(134,134,134)" stroke-width="0.1"/>
  <path d="M 8.149999999999977,2.6000039999999913 L 7.75,3.00000399999999" fill="none" stroke="rgb(134,134,134)" stroke-width="0.1"/>
  <path d="M 13.75,3.00000399999999 L 13.75,0.0" fill="none" stroke="rgb(134,134,134)" stroke-width="0.1"/>
  <path d="M 13.350000000000023,0.0 L 13.350000000000023,2.6000039999999913" fill="none" stroke="rgb(134,134,134)" stroke-width="0.1"/>
  <path d="M 13.350000000000023,2.6000039999999913 L 13.75,3.00000399999999" fill="none" stroke="rgb(134,134,134)" stroke-width="0.1"/>
  <path d="M 7.75,3.00000399999999 L 8.149999999999977,2.6000039999999913" fill="none" stroke="rgb(134,134,134)" stroke-width="0.1"/>
  <path d="M 8.149999999999977,2.6000039999999913 L 8.149999999999977,0.0" fill="none" stroke="rgb(134,134,134)" stroke-width="0.1"/>
  <path d="M 7.75,0.0 L 7.75,3.00000399999999" fill="none" stroke="rgb(134,134,134)" stroke-width="0.1"/>
  <path d="M 70.75,61.00000399999999 L 76.75,61.00000399999999" fill="none" stroke="rgb(134,134,134)" stroke-width="0.1"/>
  <path d="M 76.75,61.00000399999999 L 76.35000000000002,60.600003999999984" fill="none" stroke="rgb(134,134,134)" stroke-width="0.1"/>
  <path d="M 76.35000000000002,60.600003999999984 L 71.14999999999998,60.600003999999984" fill="none" stroke="rgb(134,134,134)" stroke-width="0.1"/>
  <path d="M 71.14999999999998,60.600003999999984 L 70.75,61.00000399999999" fill="none" stroke="rgb(134,134,134)" stroke-width="0.1"/>
  <path d="M 76.75,61.00000399999999 L 76.75,55.00000399999999" fill="none" stroke="rgb(134,134,134)" stroke-width="0.1"/>
  <path d="M 76.75,55.00000399999999 L 76.35000000000002,55.400003999999996" fill="none" stroke="rgb(134,134,134)" stroke-width="0.1"/>
  <path d="M 76.35000000000002,55.400003999999996 L 76.35000000000002,60.600003999999984" fill="none" stroke="rgb(134,134,134)" stroke-width="0.1"/>
  <path d="M 76.35000000000002,60.600003999999984 L 76.75,61.00000399999999" fill="none" stroke="rgb(134,134,134)" stroke-width="0.1"/>
  <path d="M 70.75,55.00000399999999 L 71.14999999999998,55.400003999999996" fill="none" stroke="rgb(134,134,134)" stroke-width="0.1"/>
  <path d="M 71.14999999999998,55.400003999999996 L 76.35000000000002,55.400003999999996" fill="none" stroke="rgb(134,134,134)" stroke-width="0.1"/>
  <path d="M 76.35000000000002,55.400003999999996 L 76.75,55.00000399999999" fill="none" stroke="rgb(134,134,134)" stroke-width="0.1"/>
  <path d="M 76.75,55.00000399999999 L 70.75,55.00000399999999" fill="none" stroke="rgb(134,134,134)" stroke-width="0.1"/>
  <path d="M 70.75,61.00000399999999 L 71.14999999999998,60.600003999999984" fill="none" stroke="rgb(134,134,134)" stroke-width="0.1"/>
  <path d="M 71.14999999999998,60.600003999999984 L 71.14999999999998,55.400003999999996" fill="none" stroke="rgb(134,134,134)" stroke-width="0.1"/>
  <path d="M 71.14999999999998,55.400003999999996 L 70.75,55.00000399999999" fill="none" stroke="rgb(134,134,134)" stroke-width="0.1"/>
  <path d="M 70.75,55.00000399999999 L 70.75,61.00000399999999" fill="none" stroke="rgb(134,134,134)" stroke-width="0.1"/>
  <path d="M 7.75,61.00000399999999 L 13.75,61.00000399999999" fill="none" stroke="rgb(134,134,134)" stroke-width="0.1"/>
  <path d="M 13.75,61.00000399999999 L 13.350000000000023,60.600003999999984" fill="none" stroke="rgb(134,134,134)" stroke-width="0.1"/>
  <path d="M 13.350000000000023,60.600003999999984 L 8.149999999999977,60.600003999999984" fill="none" stroke="rgb(134,134,134)" stroke-width="0.1"/>
  <path d="M 8.149999999999977,60.600003999999984 L 7.75,61.00000399999999" fill="none" stroke="rgb(134,134,134)" stroke-width="0.1"/>
  <path d="M 13.75,61.00000399999999 L 13.75,55.00000399999999" fill="none" stroke="rgb(134,134,134)" stroke-width="0.1"/>
  <path d="M 13.75,55.00000399999999 L 13.350000000000023,55.400003999999996" fill="none" stroke="rgb(134,134,134)" stroke-width="0.1"/>
  <path d="M 13.350000000000023,55.400003999999996 L 13.350000000000023,60.600003999999984" fill="none" stroke="rgb(134,134,134)" stroke-width="0.1"/>
  <path d="M 13.350000000000023,60.600003999999984 L 13.75,61.00000399999999" fill="none" stroke="rgb(134,134,134)" stroke-width="0.1"/>
  <path d="M 7.75,55.00000399999999 L 8.149999999999977,55.400003999999996" fill="none" stroke="rgb(134,134,134)" stroke-width="0.1"/>
  <path d="M 8.149999999999977,55.400003999999996 L 13.350000000000023,55.400003999999996" fill="none" stroke="rgb(134,134,134)" stroke-width="0.1"/>
  <path d="M 13.350000000000023,55.400003999999996 L 13.75,55.00000399999999" fill="none" stroke="rgb(134,134,134)" stroke-width="0.1"/>
  <path d="M 13.75,55.00000399999999 L 7.75,55.00000399999999" fill="none" stroke="rgb(134,134,134)" stroke-width="0.1"/>
  <path d="M 7.75,61.00000399999999 L 8.149999999999977,60.600003999999984" fill="none" stroke="rgb(134,134,134)" stroke-width="0.1"/>
  <path d="M 8.149999999999977,60.600003999999984 L 8.149999999999977,55.400003999999996" fill="none" stroke="rgb(134,134,134)" stroke-width="0.1"/>
  <path d="M 8.149999999999977,55.400003999999996 L 7.75,55.00000399999999" fill="none" stroke="rgb(134,134,134)" stroke-width="0.1"/>
  <path d="M 7.75,55.00000399999999 L 7.75,61.00000399999999" fill="none" stroke="rgb(134,134,134)" stroke-width="0.1"/>
  <path d="M 84.85000000000002,15.300003999999987 L 84.85000000000002,21.300003999999987" fill="none" stroke="rgb(134,134,134)" stroke-width="0.1"/>
  <path d="M 84.85000000000002,21.300003999999987 L 85.25,21.300003999999987" fill="none" stroke="rgb(134,134,134)" stroke-width="0.1"/>
  <path d="M 85.25,21.300003999999987 L 85.25,15.300003999999987" fill="none" stroke="rgb(134,134,134)" stroke-width="0.1"/>
  <path d="M 85.25,15.300003999999987 L 84.85000000000002,15.300003999999987" fill="none" stroke="rgb(134,134,134)" stroke-width="0.1"/>
  <path d="M 83.25,21.300003999999987 L 83.64999999999998,21.300003999999987" fill="none" stroke="rgb(134,134,134)" stroke-width="0.1"/>
  <path d="M 83.64999999999998,21.300003999999987 L 83.64999999999998,15.300003999999987" fill="none" stroke="rgb(134,134,134)" stroke-width="0.1"/>
  <path d="M 83.64999999999998,15.300003999999987 L 83.25,15.300003999999987" fill="none" stroke="rgb(134,134,134)" stroke-width="0.1"/>
  <path d="M 83.25,15.300003999999987 L 83.25,21.300003999999987" fill="none" stroke="rgb(134,134,134)" stroke-width="0.1"/>
  <path d="M 84.85000000000002,35.00000399999999 L 84.85000000000002,41.00000399999999" fill="none" stroke="rgb(134,134,134)" stroke-width="0.1"/>
  <path d="M 84.85000000000002,41.00000399999999 L 85.25,41.00000399999999" fill="none" stroke="rgb(134,134,134)" stroke-width="0.1"/>
  <path d="M 85.25,41.00000399999999 L 85.25,35.00000399999999" fill="none" stroke="rgb(134,134,134)" stroke-width="0.1"/>
  <path d="M 85.25,35.00000399999999 L 84.85000000000002,35.00000399999999" fill="none" stroke="rgb(134,134,134)" stroke-width="0.1"/>
  <path d="M 83.25,41.00000399999999 L 83.64999999999998,41.00000399999999" fill="none" stroke="rgb(134,134,134)" stroke-width="0.1"/>
  <path d="M 83.64999999999998,41.00000399999999 L 83.64999999999998,35.00000399999999" fill="none" stroke="rgb(134,134,134)" stroke-width="0.1"/>
  <path d="M 83.64999999999998,35.00000399999999 L 83.25,35.00000399999999" fill="none" stroke="rgb(134,134,134)" stroke-width="0.1"/>
  <path d="M 83.25,35.00000399999999 L 83.25,41.00000399999999" fill="none" stroke="rgb(134,134,134)" stroke-width="0.1"/>
  <path d="M 84.85000000000002,54.70000399999999 L 84.85000000000002,60.70000399999999" fill="none" stroke="rgb(134,134,134)" stroke-width="0.1"/>
  <path d="M 84.85000000000002,60.70000399999999 L 85.25,60.70000399999999" fill="none" stroke="rgb(134,134,134)" stroke-width="0.1"/>
  <path d="M 85.25,60.70000399999999 L 85.25,54.70000399999999" fill="none" stroke="rgb(134,134,134)" stroke-width="0.1"/>
  <path d="M 85.25,54.70000399999999 L 84.85000000000002,54.70000399999999" fill="none" stroke="rgb(134,134,134)" stroke-width="0.1"/>
  <path d="M 83.25,60.70000399999999 L 83.64999999999998,60.70000399999999" fill="none" stroke="rgb(134,134,134)" stroke-width="0.1"/>
  <path d="M 83.64999999999998,60.70000399999999 L 83.64999999999998,54.70000399999999" fill="none" stroke="rgb(134,134,134)" stroke-width="0.1"/>
  <path d="M 83.64999999999998,54.70000399999999 L 83.25,54.70000399999999" fill="none" stroke="rgb(134,134,134)" stroke-width="0.1"/>
  <path d="M 83.25,54.70000399999999 L 83.25,60.70000399999999" fill="none" stroke="rgb(134,134,134)" stroke-width="0.1"/>
  <path d="M 84.85000000000002,74.400004 L 84.85000000000002,80.400004" fill="none" stroke="rgb(134,134,134)" stroke-width="0.1"/>
  <path d="M 84.85000000000002,80.400004 L 85.25,80.400004" fill="none" stroke="rgb(134,134,134)" stroke-width="0.1"/>
  <path d="M 85.25,80.400004 L 85.25,74.400004" fill="none" stroke="rgb(134,134,134)" stroke-width="0.1"/>
  <path d="M 85.25,74.400004 L 84.85000000000002,74.400004" fill="none" stroke="rgb(134,134,134)" stroke-width="0.1"/>
  <path d="M 83.25,80.400004 L 83.64999999999998,80.400004" fill="none" stroke="rgb(134,134,134)" stroke-width="0.1"/>
  <path d="M 83.64999999999998,80.400004 L 83.64999999999998,74.400004" fill="none" stroke="rgb(134,134,134)" stroke-width="0.1"/>
  <path d="M 83.64999999999998,74.400004 L 83.25,74.400004" fill="none" stroke="rgb(134,134,134)" stroke-width="0.1"/>
  <path d="M 83.25,74.400004 L 83.25,80.400004" fill="none" stroke="rgb(134,134,134)" stroke-width="0.1"/>
  <path d="M 84.85000000000002,94.10000399999998 L 84.85000000000002,100.0" fill="none" stroke="rgb(134,134,134)" stroke-width="0.1"/>
  <path d="M 85.25,100.0 L 85.25,94.10000399999998" fill="none" stroke="rgb(134,134,134)" stroke-width="0.1"/>
  <path d="M 85.25,94.10000399999998 L 84.85000000000002,94.10000399999998" fill="none" stroke="rgb(134,134,134)" stroke-width="0.1"/>
  <path d="M 83.64999999999998,100.0 L 83.64999999999998,94.10000399999998" fill="none" stroke="rgb(134,134,134)" stroke-width="0.1"/>
  <path d="M 83.64999999999998,94.10000399999998 L 83.25,94.10000399999998" fill="none" stroke="rgb(134,134,134)" stroke-width="0.1"/>
  <path d="M 83.25,94.10000399999998 L 83.25,100.0" fill="none" stroke="rgb(134,134,134)" stroke-width="0.1"/>
  <path d="M 85.25,100.0 L 85.25,99.70000399999998" fill="none" stroke="rgb(134,134,134)" stroke-width="0.1"/>
  <path d="M 85.25,99.70000399999998 L 83.25,99.70000399999998" fill="none" stroke="rgb(134,134,134)" stroke-width="0.1"/>
  <path d="M 83.25,99.70000399999998 L 83.25,100.0" fill="none" stroke="rgb(134,134,134)" stroke-width="0.1"/>
  <path d="M 83.25,80.400004 L 85.25,80.400004" fill="none" stroke="rgb(134,134,134)" stroke-width="0.1"/>
  <path d="M 85.25,80.400004 L 85.25,80.00000399999999" fill="none" stroke="rgb(134,134,134)" stroke-width="0.1"/>
  <path d="M 85.25,80.00000399999999 L 83.25,80.00000399999999" fill="none" stroke="rgb(134,134,134)" stroke-width="0.1"/>
  <path d="M 83.25,80.00000399999999 L 83.25,80.400004" fill="none" stroke="rgb(134,134,134)" stroke-width="0.1"/>
  <path d="M 83.25,94.50000399999999 L 85.25,94.50000399999999" fill="none" stroke="rgb(134,134,134)" stroke-width="0.1"/>
  <path d="M 85.25,94.50000399999999 L 85.25,94.10000399999998" fill="none" stroke="rgb(134,134,134)" stroke-width="0.1"/>
  <path d="M 85.25,94.10000399999998 L 83.25,94.10000399999998" fill="none" stroke="rgb(134,134,134)" stroke-width="0.1"/>
  <path d="M 83.25,94.10000399999998 L 83.25,94.50000399999999" fill="none" stroke="rgb(134,134,134)" stroke-width="0.1"/>
  <path d="M 83.25,60.70000399999999 L 85.25,60.70000399999999" fill="none" stroke="rgb(134,134,134)" stroke-width="0.1"/>
  <path d="M 85.25,60.70000399999999 L 85.25,60.30000399999999" fill="none" stroke="rgb(134,134,134)" stroke-width="0.1"/>
  <path d="M 85.25,60.30000399999999 L 83.25,60.30000399999999" fill="none" stroke="rgb(134,134,134)" stroke-width="0.1"/>
  <path d="M 83.25,60.30000399999999 L 83.25,60.70000399999999" fill="none" stroke="rgb(134,134,134)" stroke-width="0.1"/>
  <path d="M 83.25,74.800004 L 85.25,74.800004" fill="none" stroke="rgb(134,134,134)" stroke-width="0.1"/>
  <path d="M 85.25,74.800004 L 85.25,74.400004" fill="none" stroke="rgb(134,134,134)" stroke-width="0.1"/>
  <path d="M 85.25,74.400004 L 83.25,74.400004" fill="none" stroke="rgb(134,134,134)" stroke-width="0.1"/>
  <path d="M 83.25,74.400004 L 83.25,74.800004" fill="none" stroke="rgb(134,134,134)" stroke-width="0.1"/>
  <path d="M 83.25,41.00000399999999 L 85.25,41.00000399999999" fill="none" stroke="rgb(134,134,134)" stroke-width="0.1"/>
  <path d="M 85.25,41.00000399999999 L 85.25,40.600003999999984" fill="none" stroke="rgb(134,134,134)" stroke-width="0.1"/>
  <path d="M 85.25,40.600003999999984 L 83.25,40.600003999999984" fill="none" stroke="rgb(134,134,134)" stroke-width="0.1"/>
  <path d="M 83.25,40.600003999999984 L 83.25,41.00000399999999" fill="none" stroke="rgb(134,134,134)" stroke-width="0.1"/>
  <path d="M 83.25,55.100003999999984 L 85.25,55.100003999999984" fill="none" stroke="rgb(134,134,134)" stroke-width="0.1"/>
  <path d="M 85.25,55.100003999999984 L 85.25,54.70000399999999" fill="none" stroke="rgb(134,134,134)" stroke-width="0.1"/>
  <path d="M 85.25,54.70000399999999 L 83.25,54.70000399999999" fill="none" stroke="rgb(134,134,134)" stroke-width="0.1"/>
  <path d="M 83.25,54.70000399999999 L 83.25,55.100003999999984" fill="none" stroke="rgb(134,134,134)" stroke-width="0.1"/>
  <path d="M 83.25,21.300003999999987 L 85.25,21.300003999999987" fill="none" stroke="rgb(134,134,134)" stroke-width="0.1"/>
  <path d="M 85.25,21.300003999999987 L 85.25,20.900003999999996" fill="none" stroke="rgb(134,134,134)" stroke-width="0.1"/>
  <path d="M 85.25,20.900003999999996 L 83.25,20.900003999999996" fill="none" stroke="rgb(134,134,134)" stroke-width="0.1"/>
  <path d="M 83.25,20.900003999999996 L 83.25,21.300003999999987" fill="none" stroke="rgb(134,134,134)" stroke-width="0.1"/>
  <path d="M 83.25,35.400003999999996 L 85.25,35.400003999999996" fill="none" stroke="rgb(134,134,134)" stroke-width="0.1"/>
  <path d="M 85.25,35.400003999999996 L 85.25,35.00000399999999" fill="none" stroke="rgb(134,134,134)" stroke-width="0.1"/>
  <path d="M 85.25,35.00000399999999 L 83.25,35.00000399999999" fill="none" stroke="rgb(134,134,134)" stroke-width="0.1"/>
  <path d="M 83.25,35.00000399999999 L 83.25,35.400003999999996" fill="none" stroke="rgb(134,134,134)" stroke-width="0.1"/>
  <path d="M 83.25,1.6000039999999913 L 85.25,1.6000039999999913" fill="none" stroke="rgb(134,134,134)" stroke-width="0.1"/>
  <path d="M 85.25,1.6000039999999913 L 85.25,1.2000039999999927" fill="none" stroke="rgb(134,134,134)" stroke-width="0.1"/>
  <path d="M 85.25,1.2000039999999927 L 83.25,1.2000039999999927" fill="none" stroke="rgb(134,134,134)" stroke-width="0.1"/>
  <path d="M 83.25,1.2000039999999927 L 83.25,1.6000039999999913" fill="none" stroke="rgb(134,134,134)" stroke-width="0.1"/>
  <path d="M 83.25,15.700003999999993 L 85.25,15.700003999999993" fill="none" stroke="rgb(134,134,134)" stroke-width="0.1"/>
  <path d="M 85.25,15.700003999999993 L 85.25,15.300003999999987" fill="none" stroke="rgb(134,134,134)" stroke-width="0.1"/>
  <path d="M 85.25,15.300003999999987 L 83.25,15.300003999999987" fill="none" stroke="rgb(134,134,134)" stroke-width="0.1"/>
  <path d="M 83.25,15.300003999999987 L 83.25,15.700003999999993" fill="none" stroke="rgb(134,134,134)" stroke-width="0.1"/>
  <path d="M 84.85000000000002,0.0 L 84.85000000000002,1.6000039999999913" fill="none" stroke="rgb(134,134,134)" stroke-width="0.1"/>
  <path d="M 84.85000000000002,1.6000039999999913 L 85.25,1.6000039999999913" fill="none" stroke="rgb(134,134,134)" stroke-width="0.1"/>
  <path d="M 85.25,1.6000039999999913 L 85.25,0.0" fill="none" stroke="rgb(134,134,134)" stroke-width="0.1"/>
  <path d="M 83.25,1.6000039999999913 L 83.64999999999998,1.6000039999999913" fill="none" stroke="rgb(134,134,134)" stroke-width="0.1"/>
  <path d="M 83.64999999999998,1.6000039999999913 L 83.64999999999998,0.0" fill="none" stroke="rgb(134,134,134)" stroke-width="0.1"/>
  <path d="M 83.25,0.0 L 83.25,1.6000039999999913" fill="none" stroke="rgb(134,134,134)" stroke-width="0.1"/>
  <path d="M 7.75,59.400003999999996 L 7.75,59.00000399999999" fill="none" stroke="rgb(134,134,134)" stroke-width="0.1"/>
  <path d="M 7.75,59.00000399999999 L 7.25,59.00000399999999" fill="none" stroke="rgb(134,134,134)" stroke-width="0.1"/>
  <path d="M 7.25,59.00000399999999 L 7.649999999999977,59.400003999999996" fill="none" stroke="rgb(134,134,134)" stroke-width="0.1"/>
  <path d="M 7.649999999999977,59.400003999999996 L 7.75,59.400003999999996" fill="none" stroke="rgb(134,134,134)" stroke-width="0.1"/>
  <path d="M 7.25,61.00000399999999 L 7.649999999999977,60.600003999999984" fill="none" stroke="rgb(134,134,134)" stroke-width="0.1"/>
  <path d="M 7.649999999999977,60.600003999999984 L 7.649999999999977,59.400003999999996" fill="none" stroke="rgb(134,134,134)" stroke-width="0.1"/>
  <path d="M 7.649999999999977,59.400003999999996 L 7.25,59.00000399999999" fill="none" stroke="rgb(134,134,134)" stroke-width="0.1"/>
  <path d="M 7.25,59.00000399999999 L 7.25,61.00000399999999" fill="none" stroke="rgb(134,134,134)" stroke-width="0.1"/>
  <path d="M 7.75,61.00000399999999 L 7.75,60.600003999999984" fill="none" stroke="rgb(134,134,134)" stroke-width="0.1"/>
  <path d="M 7.75,60.600003999999984 L 7.649999999999977,60.600003999999984" fill="none" stroke="rgb(134,134,134)" stroke-width="0.1"/>
  <path d="M 7.649999999999977,60.600003999999984 L 7.25,61.00000399999999" fill="none" stroke="rgb(134,134,134)" stroke-width="0.1"/>
  <path d="M 7.25,61.00000399999999 L 7.75,61.00000399999999" fill="none" stroke="rgb(134,134,134)" stroke-width="0.1"/>
  <path d="M 11.350000000000023,55.00000399999999 L 11.75,55.00000399999999" fill="none" stroke="rgb(134,134,134)" stroke-width="0.1"/>
  <path d="M 11.75,55.00000399999999 L 11.75,3.00000399999999" fill="none" stroke="rgb(134,134,134)" stroke-width="0.1"/>
  <path d="M 11.75,3.00000399999999 L 11.350000000000023,3.00000399999999" fill="none" stroke="rgb(134,134,134)" stroke-width="0.1"/>
  <path d="M 11.350000000000023,3.00000399999999 L 11.350000000000023,55.00000399999999" fill="none" stroke="rgb(134,134,134)" stroke-width="0.1"/>
  <path d="M 9.75,55.00000399999999 L 10.149999999999977,55.00000399999999" fill="none" stroke="rgb(134,134,134)" stroke-width="0.1"/>
  <path d="M 10.149999999999977,55.00000399999999 L 10.149999999999977,3.00000399999999" fill="none" stroke="rgb(134,134,134)" stroke-width="0.1"/>
  <path d="M 10.149999999999977,3.00000399999999 L 9.75,3.00000399999999" fill="none" stroke="rgb(134,134,134)" stroke-width="0.1"/>
  <path d="M 9.75,3.00000399999999 L 9.75,55.00000399999999" fill="none" stroke="rgb(134,134,134)" stroke-width="0.1"/>
 </g>
 <g id="layerW-EQUIP_" inkscape:groupmode="layer" inkscape:label="W-EQUIP_">
  <path d="M 11.75,52.00000399999999 L 13.75,52.00000399999999" fill="none" stroke="rgb(0,0,0)" stroke-width="0.1"/>
  <path d="M 13.75,45.00000399999999 L 11.75,45.00000399999999" fill="none" stroke="rgb(0,0,0)" stroke-width="0.1"/>
  <path d="M 11.75,45.00000399999999 L 11.75,52.00000399999999" fill="none" stroke="rgb(0,0,0)" stroke-width="0.1"/>
  <path d="M 11.75,45.00000399999999 L 13.75,52.00000399999999" fill="none" stroke="rgb(0,0,0)" stroke-width="0.1"/>
  <path d="M 13.75,52.00000399999999 L 13.75,45.00000399999999" fill="none" stroke="rgb(0,0,0)" stroke-width="0.1"/>
 </g>
 <g id="layerW-EQUIP_" inkscape:groupmode="layer" inkscape:label="W-EQUIP_">
  <path d="M 15.812999999999988,50.168003999999996 L 15.922000000000025,50.27700399999999" fill="none" stroke="rgb(0,0,0)" stroke-width="0.1"/>
  <path d="M 15.370999999999981,50.168003999999996 L 15.922000000000025,50.719003999999984" fill="none" stroke="rgb(0,0,0)" stroke-width="0.1"/>
  <path d="M 14.928999999999974,50.168003999999996 L 15.922000000000025,51.16100399999999" fill="none" stroke="rgb(0,0,0)" stroke-width="0.1"/>
  <path d="M 14.487000000000023,50.168003999999996 L 15.922000000000025,51.603003999999984" fill="none" stroke="rgb(0,0,0)" stroke-width="0.1"/>
  <path d="M 14.298999999999978,50.42200399999999 L 15.668000000000006,51.79100399999999" fill="none" stroke="rgb(0,0,0)" stroke-width="0.1"/>
  <path d="M 14.298999999999978,50.864003999999994 L 15.225999999999999,51.79100399999999" fill="none" stroke="rgb(0,0,0)" stroke-width="0.1"/>
  <path d="M 14.298999999999978,51.30600399999999 L 14.783999999999992,51.79100399999999" fill="none" stroke="rgb(0,0,0)" stroke-width="0.1"/>
  <path d="M 14.298999999999978,51.748003999999995 L 14.341999999999985,51.79100399999999" fill="none" stroke="rgb(0,0,0)" stroke-width="0.1"/>
  <path d="M 15.812999999999988,45.20900399999999 L 15.922000000000025,45.31800399999999" fill="none" stroke="rgb(0,0,0)" stroke-width="0.1"/>
  <path d="M 15.370999999999981,45.20900399999999 L 15.922000000000025,45.760003999999995" fill="none" stroke="rgb(0,0,0)" stroke-width="0.1"/>
  <path d="M 14.928999999999974,45.20900399999999 L 15.922000000000025,46.20200399999999" fill="none" stroke="rgb(0,0,0)" stroke-width="0.1"/>
  <path d="M 14.487000000000023,45.20900399999999 L 15.922000000000025,46.644003999999995" fill="none" stroke="rgb(0,0,0)" stroke-width="0.1"/>
  <path d="M 14.298999999999978,45.46200399999999 L 15.668000000000006,46.83200399999998" fill="none" stroke="rgb(0,0,0)" stroke-width="0.1"/>
  <path d="M 14.298999999999978,45.904003999999986 L 15.225999999999999,46.83200399999998" fill="none" stroke="rgb(0,0,0)" stroke-width="0.1"/>
  <path d="M 14.298999999999978,46.34600399999999 L 14.783999999999992,46.83200399999998" fill="none" stroke="rgb(0,0,0)" stroke-width="0.1"/>
  <path d="M 14.298999999999978,46.78800399999999 L 14.341999999999985,46.83200399999998" fill="none" stroke="rgb(0,0,0)" stroke-width="0.1"/>
  <path d="M 18.045000000000016,50.980003999999994 L 13.75,48.50000399999999" fill="none" stroke="rgb(0,0,0)" stroke-width="0.1"/>
  <path d="M 13.75,48.50000399999999 L 13.75,53.460003999999984" fill="none" stroke="rgb(0,0,0)" stroke-width="0.1"/>
  <path d="M 13.75,53.460003999999984 L 18.045000000000016,50.980003999999994" fill="none" stroke="rgb(0,0,0)" stroke-width="0.1"/>
  <path d="M 15.922000000000025,50.168003999999996 L 15.922000000000025,51.79100399999999" fill="none" stroke="rgb(0,0,0)" stroke-width="0.1"/>
  <path d="M 15.922000000000025,51.79100399999999 L 14.298999999999978,51.79100399999999" fill="none" stroke="rgb(0,0,0)" stroke-width="0.1"/>
  <path d="M 14.298999999999978,51.79100399999999 L 14.298999999999978,50.168003999999996" fill="none" stroke="rgb(0,0,0)" stroke-width="0.1"/>
  <path d="M 14.298999999999978,50.168003999999996 L 15.922000000000025,50.168003999999996" fill="none" stroke="rgb(0,0,0)" stroke-width="0.1"/>
  <path d="M 18.045000000000016,46.020003999999986 L 13.75,43.540003999999996" fill="none" stroke="rgb(0,0,0)" stroke-width="0.1"/>
  <path d="M 13.75,43.540003999999996 L 13.75,48.50000399999999" fill="none" stroke="rgb(0,0,0)" stroke-width="0.1"/>
  <path d="M 13.75,48.50000399999999 L 18.045000000000016,46.020003999999986" fill="none" stroke="rgb(0,0,0)" stroke-width="0.1"/>
  <path d="M 15.922000000000025,45.20900399999999 L 15.922000000000025,46.83200399999998" fill="none" stroke="rgb(0,0,0)" stroke-width="0.1"/>
  <path d="M 15.922000000000025,46.83200399999998 L 14.298999999999978,46.83200399999998" fill="none" stroke="rgb(0,0,0)" stroke-width="0.1"/>
  <path d="M 14.298999999999978,46.83200399999998 L 14.298999999999978,45.20900399999999" fill="none" stroke="rgb(0,0,0)" stroke-width="0.1"/>
  <path d="M 14.298999999999978,45.20900399999999 L 15.922000000000025,45.20900399999999" fill="none" stroke="rgb(0,0,0)" stroke-width="0.1"/>
  <path d="M 14.298999999999978,50.168003999999996 L 14.298999999999978,51.79100399999999" fill="none" stroke="rgb(0,0,0)" stroke-width="0.1"/>
  <path d="M 14.298999999999978,51.79100399999999 L 15.922000000000025,51.79100399999999" fill="none" stroke="rgb(0,0,0)" stroke-width="0.1"/>
  <path d="M 15.922000000000025,51.79100399999999 L 15.922000000000025,50.168003999999996" fill="none" stroke="rgb(0,0,0)" stroke-width="0.1"/>
  <path d="M 15.922000000000025,50.168003999999996 L 14.298999999999978,50.168003999999996" fill="none" stroke="rgb(0,0,0)" stroke-width="0.1"/>
  <path d="M 14.298999999999978,45.20900399999999 L 14.298999999999978,46.83200399999998" fill="none" stroke="rgb(0,0,0)" stroke-width="0.1"/>
  <path d="M 14.298999999999978,46.83200399999998 L 15.922000000000025,46.83200399999998" fill="none" stroke="rgb(0,0,0)" stroke-width="0.1"/>
  <path d="M 15.922000000000025,46.83200399999998 L 15.922000000000025,45.20900399999999" fill="none" stroke="rgb(0,0,0)" stroke-width="0.1"/>
  <path d="M 15.922000000000025,45.20900399999999 L 14.298999999999978,45.20900399999999" fill="none" stroke="rgb(0,0,0)" stroke-width="0.1"/>
 </g>
</svg>