<?xml version="1.0" encoding="utf-8"?>
<svg style="background-color: #000;" version="1.1" viewBox="0 0 100.0 100.0" xmlns="http://www.w3.org/2000/svg" xmlns:inkscape="http://www.inkscape.org/namespaces/inkscape">
 <g id="layerA-ANNO-DIMS" inkscape:groupmode="layer" inkscape:label="A-ANNO-DIMS">
  <path d="M 53.60801700000002,92.29765100000003 L 68.93801699999995,92.29765100000003" fill="none" stroke="rgb(0,178,0)" stroke-width="0.1"/>
  <path d="M 65.18801699999995,100.0 L 65.18801699999995,92.29765100000003" fill="none" stroke="rgb(0,178,0)" stroke-width="0.1"/>
  <path d="M 53.60801700000002,92.29765100000003 L 68.93801699999995,92.29765100000003" fill="none" stroke="rgb(0,178,0)" stroke-width="0.1"/>
  <path d="M 53.60801700000002,77.29765100000003 L 68.93801699999995,77.29765100000003" fill="none" stroke="rgb(0,178,0)" stroke-width="0.1"/>
  <path d="M 65.18801699999995,92.29765100000003 L 65.18801699999995,77.29765100000003" fill="none" stroke="rgb(0,178,0)" stroke-width="0.1"/>
  <path d="M 53.60801700000002,77.29765100000003 L 68.93801699999995,77.29765100000003" fill="none" stroke="rgb(0,178,0)" stroke-width="0.1"/>
  <path d="M 53.60801700000002,74.29765100000003 L 68.93801699999995,74.29765100000003" fill="none" stroke="rgb(0,178,0)" stroke-width="0.1"/>
  <path d="M 65.18801699999995,77.29765100000003 L 65.18801699999995,78.79765100000003" fill="none" stroke="rgb(0,178,0)" stroke-width="0.1"/>
  <path d="M 65.18801699999995,74.29765100000003 L 65.18801699999995,72.79765100000003" fill="none" stroke="rgb(0,178,0)" stroke-width="0.1"/>
  <path d="M 65.18801699999995,77.29765100000003 L 65.18801699999995,74.29765100000003" fill="none" stroke="rgb(0,178,0)" stroke-width="0.1"/>
  <path d="M 53.60801700000002,74.29765100000003 L 68.93801699999995,74.29765100000003" fill="none" stroke="rgb(0,178,0)" stroke-width="0.1"/>
  <path d="M 53.60801700000002,72.29765100000003 L 68.93801699999995,72.29765100000003" fill="none" stroke="rgb(0,178,0)" stroke-width="0.1"/>
  <path d="M 65.18801699999995,74.29765100000003 L 65.18801699999995,75.79765100000003" fill="none" stroke="rgb(0,178,0)" stroke-width="0.1"/>
  <path d="M 65.18801699999995,72.29765100000003 L 65.18801699999995,70.79765100000003" fill="none" stroke="rgb(0,178,0)" stroke-width="0.1"/>
  <path d="M 65.18801699999995,74.29765100000003 L 65.18801699999995,72.29765100000003" fill="none" stroke="rgb(0,178,0)" stroke-width="0.1"/>
  <text fill="rgb(0,178,0)" font-family="Noto Sans CJK SC" font-size="2" transform="rotate(-90.0,63.688016999999945,91.022651)" x="63.688016999999945" y="91.022651">
   1500
  </text>
  <text fill="rgb(0,178,0)" font-family="Noto Sans CJK SC" font-size="2" transform="rotate(-90.0,63.688016999999945,80.29765100000003)" x="63.688016999999945" y="80.29765100000003">
   300
  </text>
  <text fill="rgb(0,178,0)" font-family="Noto Sans CJK SC" font-size="2" transform="rotate(-90.0,63.29401699999994,72.46265100000005)" x="63.29401699999994" y="72.46265100000005">
   200
  </text>
 </g>
 <g id="layerA-DOTE" inkscape:groupmode="layer" inkscape:label="A-DOTE">
  <path d="M 33.63601700000004,100.0 L 33.63601700000004,0.0" fill="none" stroke="rgb(107,53,53)" stroke-width="0.1"/>
  <path d="M 0.0,17.29765100000003 L 100.0,17.29765100000003" fill="none" stroke="rgb(107,53,53)" stroke-width="0.1"/>
  <path d="M 0.43778010668336265,91.23626563354799 L 0.9245637920568015,91.35139836598717" fill="none" stroke="rgb(107,53,53)" stroke-width="0.1"/>
  <path d="M 0.9245637920568015,91.35139836598717 L 1.4113861016678584,91.46636767184361" fill="none" stroke="rgb(107,53,53)" stroke-width="0.1"/>
  <path d="M 1.4113861016678584,91.46636767184361 L 1.8982469806504696,91.58117353815976" fill="none" stroke="rgb(107,53,53)" stroke-width="0.1"/>
  <path d="M 1.8982469806504696,91.58117353815976 L 2.3851463741334555,91.69581595199668" fill="none" stroke="rgb(107,53,53)" stroke-width="0.1"/>
  <path d="M 2.3851463741334555,91.69581595199668 L 2.8720842272409755,91.81029490043363" fill="none" stroke="rgb(107,53,53)" stroke-width="0.1"/>
  <path d="M 2.8720842272409755,91.81029490043363 L 3.3590604850932095,91.9246103705683" fill="none" stroke="rgb(107,53,53)" stroke-width="0.1"/>
  <path d="M 3.3590604850932095,91.9246103705683 L 3.8460750928069274,92.03876234951724" fill="none" stroke="rgb(107,53,53)" stroke-width="0.1"/>
  <path d="M 3.8460750928069274,92.03876234951724 L 4.333127995492873,92.15275082441497" fill="none" stroke="rgb(107,53,53)" stroke-width="0.1"/>
  <path d="M 4.333127995492873,92.15275082441497 L 4.820219138258722,92.26657578241418" fill="none" stroke="rgb(107,53,53)" stroke-width="0.1"/>
  <path d="M 4.820219138258722,92.26657578241418 L 5.307348466207031,92.38023721068691" fill="none" stroke="rgb(107,53,53)" stroke-width="0.1"/>
  <path d="M 5.307348466207031,92.38023721068691 L 5.794515924436496,92.49373509642248" fill="none" stroke="rgb(107,53,53)" stroke-width="0.1"/>
  <path d="M 5.794515924436496,92.49373509642248 L 6.2817214580418295,92.60706942682975" fill="none" stroke="rgb(107,53,53)" stroke-width="0.1"/>
  <path d="M 6.2817214580418295,92.60706942682975 L 6.768965012112517,92.7202401891351" fill="none" stroke="rgb(107,53,53)" stroke-width="0.1"/>
  <path d="M 6.768965012112517,92.7202401891351 L 7.256246531734519,92.83324737058422" fill="none" stroke="rgb(107,53,53)" stroke-width="0.1"/>
  <path d="M 7.256246531734519,92.83324737058422 L 7.74356596198993,92.9460909584401" fill="none" stroke="rgb(107,53,53)" stroke-width="0.1"/>
  <path d="M 7.74356596198993,92.9460909584401 L 8.230923247954593,93.0587709399855" fill="none" stroke="rgb(107,53,53)" stroke-width="0.1"/>
  <path d="M 8.230923247954593,93.0587709399855 L 8.71831833470253,93.17128730252045" fill="none" stroke="rgb(107,53,53)" stroke-width="0.1"/>
  <path d="M 8.71831833470253,93.17128730252045 L 9.205751167302537,93.28364003336412" fill="none" stroke="rgb(107,53,53)" stroke-width="0.1"/>
  <path d="M 9.205751167302537,93.28364003336412 L 9.693221690818405,93.39582911985406" fill="none" stroke="rgb(107,53,53)" stroke-width="0.1"/>
  <path d="M 9.693221690818405,93.39582911985406 L 10.180729850310513,93.507854549346" fill="none" stroke="rgb(107,53,53)" stroke-width="0.1"/>
  <path d="M 10.180729850310513,93.507854549346 L 10.668275590835151,93.61971630921414" fill="none" stroke="rgb(107,53,53)" stroke-width="0.1"/>
  <path d="M 10.668275590835151,93.61971630921414 L 11.15585885744349,93.73141438685127" fill="none" stroke="rgb(107,53,53)" stroke-width="0.1"/>
  <path d="M 11.15585885744349,93.73141438685127 L 11.643479595183521,93.84294876966862" fill="none" stroke="rgb(107,53,53)" stroke-width="0.1"/>
  <path d="M 11.643479595183521,93.84294876966862 L 12.131137749097775,93.95431944509585" fill="none" stroke="rgb(107,53,53)" stroke-width="0.1"/>
  <path d="M 12.131137749097775,93.95431944509585 L 12.618833264225714,94.065526400581" fill="none" stroke="rgb(107,53,53)" stroke-width="0.1"/>
  <path d="M 12.618833264225714,94.065526400581 L 13.10656608560248,94.17656962359081" fill="none" stroke="rgb(107,53,53)" stroke-width="0.1"/>
  <path d="M 13.10656608560248,94.17656962359081 L 13.59433615825776,94.28744910161015" fill="none" stroke="rgb(107,53,53)" stroke-width="0.1"/>
  <path d="M 13.59433615825776,94.28744910161015 L 14.082143427218739,94.39816482214212" fill="none" stroke="rgb(107,53,53)" stroke-width="0.1"/>
  <path d="M 14.082143427218739,94.39816482214212 L 14.569987837507938,94.50871677270936" fill="none" stroke="rgb(107,53,53)" stroke-width="0.1"/>
  <path d="M 14.569987837507938,94.50871677270936 L 15.057869334142538,94.61910494085134" fill="none" stroke="rgb(107,53,53)" stroke-width="0.1"/>
  <path d="M 15.057869334142538,94.61910494085134 L 15.545787862137217,94.72932931412777" fill="none" stroke="rgb(107,53,53)" stroke-width="0.1"/>
  <path d="M 15.545787862137217,94.72932931412777 L 16.033743366500744,94.83938988011539" fill="none" stroke="rgb(107,53,53)" stroke-width="0.1"/>
  <path d="M 16.033743366500744,94.83938988011539 L 16.521735792239156,94.94928662641007" fill="none" stroke="rgb(107,53,53)" stroke-width="0.1"/>
  <path d="M 16.521735792239156,94.94928662641007 L 17.00976508435417,95.05901954062608" fill="none" stroke="rgb(107,53,53)" stroke-width="0.1"/>
  <path d="M 17.00976508435417,95.05901954062608 L 17.497831187842166,95.16858861039589" fill="none" stroke="rgb(107,53,53)" stroke-width="0.1"/>
  <path d="M 17.497831187842166,95.16858861039589 L 17.98593404769656,95.27799382337082" fill="none" stroke="rgb(107,53,53)" stroke-width="0.1"/>
  <path d="M 17.98593404769656,95.27799382337082 L 18.474073608906792,95.38723516722064" fill="none" stroke="rgb(107,53,53)" stroke-width="0.1"/>
  <path d="M 18.474073608906792,95.38723516722064 L 18.962249816456392,95.49631262963305" fill="none" stroke="rgb(107,53,53)" stroke-width="0.1"/>
  <path d="M 18.962249816456392,95.49631262963305 L 19.450462615327183,95.60522619831488" fill="none" stroke="rgb(107,53,53)" stroke-width="0.1"/>
  <path d="M 19.450462615327183,95.60522619831488 L 19.93871195049553,95.7139758609909" fill="none" stroke="rgb(107,53,53)" stroke-width="0.1"/>
  <path d="M 19.93871195049553,95.7139758609909 L 20.42699776693337,95.82256160540499" fill="none" stroke="rgb(107,53,53)" stroke-width="0.1"/>
  <path d="M 20.42699776693337,95.82256160540499 L 20.915320009609445,95.93098341931875" fill="none" stroke="rgb(107,53,53)" stroke-width="0.1"/>
  <path d="M 20.915320009609445,95.93098341931875 L 21.40367862348728,96.03924129051268" fill="none" stroke="rgb(107,53,53)" stroke-width="0.1"/>
  <path d="M 21.40367862348728,96.03924129051268 L 21.89207355352744,96.1473352067859" fill="none" stroke="rgb(107,53,53)" stroke-width="0.1"/>
  <path d="M 21.89207355352744,96.1473352067859 L 22.380504744686277,96.25526515595573" fill="none" stroke="rgb(107,53,53)" stroke-width="0.1"/>
  <path d="M 22.380504744686277,96.25526515595573 L 22.868972141914924,96.3630311258579" fill="none" stroke="rgb(107,53,53)" stroke-width="0.1"/>
  <path d="M 22.868972141914924,96.3630311258579 L 23.35747569016155,96.47063310434658" fill="none" stroke="rgb(107,53,53)" stroke-width="0.1"/>
  <path d="M 23.35747569016155,96.47063310434658 L 23.84601533436978,96.57807107929523" fill="none" stroke="rgb(107,53,53)" stroke-width="0.1"/>
  <path d="M 23.84601533436978,96.57807107929523 L 24.33459101947949,96.68534503859485" fill="none" stroke="rgb(107,53,53)" stroke-width="0.1"/>
  <path d="M 24.33459101947949,96.68534503859485 L 24.82320269042657,96.79245497015506" fill="none" stroke="rgb(107,53,53)" stroke-width="0.1"/>
  <path d="M 24.82320269042657,96.79245497015506 L 25.311850292141912,96.89940086190438" fill="none" stroke="rgb(107,53,53)" stroke-width="0.1"/>
  <path d="M 25.311850292141912,96.89940086190438 L 25.800533769553454,97.00618270178927" fill="none" stroke="rgb(107,53,53)" stroke-width="0.1"/>
  <path d="M 25.800533769553454,97.00618270178927 L 26.28925306758481,97.11280047777552" fill="none" stroke="rgb(107,53,53)" stroke-width="0.1"/>
  <path d="M 26.28925306758481,97.11280047777552 L 26.778008131154934,97.21925417784644" fill="none" stroke="rgb(107,53,53)" stroke-width="0.1"/>
  <path d="M 26.778008131154934,97.21925417784644 L 27.26679890517937,97.32554379000464" fill="none" stroke="rgb(107,53,53)" stroke-width="0.1"/>
  <path d="M 27.26679890517937,97.32554379000464 L 27.755625334570027,97.43166930227073" fill="none" stroke="rgb(107,53,53)" stroke-width="0.1"/>
  <path d="M 27.755625334570027,97.43166930227073 L 28.244487364233578,97.53763070268394" fill="none" stroke="rgb(107,53,53)" stroke-width="0.1"/>
  <path d="M 28.244487364233578,97.53763070268394 L 28.73338493907329,97.64342797930192" fill="none" stroke="rgb(107,53,53)" stroke-width="0.1"/>
  <path d="M 28.73338493907329,97.64342797930192 L 29.22231800398947,97.74906112020096" fill="none" stroke="rgb(107,53,53)" stroke-width="0.1"/>
  <path d="M 29.22231800398947,97.74906112020096 L 29.711286503876522,97.85453011347579" fill="none" stroke="rgb(107,53,53)" stroke-width="0.1"/>
  <path d="M 29.711286503876522,97.85453011347579 L 30.20029038362611,97.95983494723953" fill="none" stroke="rgb(107,53,53)" stroke-width="0.1"/>
  <path d="M 30.20029038362611,97.95983494723953 L 30.689329588126043,98.06497560962441" fill="none" stroke="rgb(107,53,53)" stroke-width="0.1"/>
  <path d="M 30.689329588126043,98.06497560962441 L 31.178404062258892,98.16995208877995" fill="none" stroke="rgb(107,53,53)" stroke-width="0.1"/>
  <path d="M 31.178404062258892,98.16995208877995 L 31.66751375090473,98.27476437287544" fill="none" stroke="rgb(107,53,53)" stroke-width="0.1"/>
  <path d="M 31.66751375090473,98.27476437287544 L 32.15665859893841,98.3794124500979" fill="none" stroke="rgb(107,53,53)" stroke-width="0.1"/>
  <path d="M 32.15665859893841,98.3794124500979 L 32.64583855123158,98.48389630865324" fill="none" stroke="rgb(107,53,53)" stroke-width="0.1"/>
  <path d="M 32.64583855123158,98.48389630865324 L 33.135053552652266,98.58821593676555" fill="none" stroke="rgb(107,53,53)" stroke-width="0.1"/>
  <path d="M 33.135053552652266,98.58821593676555 L 33.62430354806338,98.69237132267756" fill="none" stroke="rgb(107,53,53)" stroke-width="0.1"/>
  <path d="M 33.62430354806338,98.69237132267756 L 34.11358848232442,98.79636245465065" fill="none" stroke="rgb(107,53,53)" stroke-width="0.1"/>
  <path d="M 34.11358848232442,98.79636245465065 L 34.60290830029214,98.90018932096461" fill="none" stroke="rgb(107,53,53)" stroke-width="0.1"/>
  <path d="M 34.60290830029214,98.90018932096461 L 35.0922629468173,99.0038519099179" fill="none" stroke="rgb(107,53,53)" stroke-width="0.1"/>
  <path d="M 35.0922629468173,99.0038519099179 L 35.58165236674836,99.10735020982736" fill="none" stroke="rgb(107,53,53)" stroke-width="0.1"/>
  <path d="M 35.58165236674836,99.10735020982736 L 36.071076504928556,99.21068420902782" fill="none" stroke="rgb(107,53,53)" stroke-width="0.1"/>
  <path d="M 36.071076504928556,99.21068420902782 L 36.56053530619829,99.31385389587365" fill="none" stroke="rgb(107,53,53)" stroke-width="0.1"/>
  <path d="M 36.56053530619829,99.31385389587365 L 37.050028715393864,99.41685925873696" fill="none" stroke="rgb(107,53,53)" stroke-width="0.1"/>
  <path d="M 37.050028715393864,99.41685925873696 L 37.53955667734692,99.51970028600874" fill="none" stroke="rgb(107,53,53)" stroke-width="0.1"/>
  <path d="M 37.53955667734692,99.51970028600874 L 38.02911913688604,99.62237696609861" fill="none" stroke="rgb(107,53,53)" stroke-width="0.1"/>
  <path d="M 38.02911913688604,99.62237696609861 L 38.51871603883592,99.72488928743417" fill="none" stroke="rgb(107,53,53)" stroke-width="0.1"/>
  <path d="M 38.51871603883592,99.72488928743417 L 39.00834732801616,99.82723723846186" fill="none" stroke="rgb(107,53,53)" stroke-width="0.1"/>
  <path d="M 39.00834732801616,99.82723723846186 L 39.4980129492443,99.92942080764703" fill="none" stroke="rgb(107,53,53)" stroke-width="0.1"/>
  <path d="M 0.4580441620298643,11.992659186321703 L 0.94312869111684,12.114015861601388" fill="none" stroke="rgb(107,53,53)" stroke-width="0.1"/>
  <path d="M 0.94312869111684,12.114015861601388 L 1.4282561357009627,12.235200866884384" fill="none" stroke="rgb(107,53,53)" stroke-width="0.1"/>
  <path d="M 1.4282561357009627,12.235200866884384 L 1.9134264350290096,12.356214186994407" fill="none" stroke="rgb(107,53,53)" stroke-width="0.1"/>
  <path d="M 1.9134264350290096,12.356214186994407 L 2.3986395283420734,12.477055806777003" fill="none" stroke="rgb(107,53,53)" stroke-width="0.1"/>
  <path d="M 2.3986395283420734,12.477055806777003 L 2.8838953548762447,12.59772571109886" fill="none" stroke="rgb(107,53,53)" stroke-width="0.1"/>
  <path d="M 2.8838953548762447,12.59772571109886 L 3.369193853861475,12.718223884848044" fill="none" stroke="rgb(107,53,53)" stroke-width="0.1"/>
  <path d="M 3.369193853861475,12.718223884848044 L 3.8545349645229408,12.838550312934672" fill="none" stroke="rgb(107,53,53)" stroke-width="0.1"/>
  <path d="M 3.8545349645229408,12.838550312934672 L 4.339918626080362,12.958704980289554" fill="none" stroke="rgb(107,53,53)" stroke-width="0.1"/>
  <path d="M 4.339918626080362,12.958704980289554 L 4.825344777748569,13.07868787186601" fill="none" stroke="rgb(107,53,53)" stroke-width="0.1"/>
  <path d="M 4.825344777748569,13.07868787186601 L 5.310813358736027,13.198498972637822" fill="none" stroke="rgb(107,53,53)" stroke-width="0.1"/>
  <path d="M 5.310813358736027,13.198498972637822 L 5.796324308246767,13.31813826760083" fill="none" stroke="rgb(107,53,53)" stroke-width="0.1"/>
  <path d="M 5.796324308246767,13.31813826760083 L 6.281877565479249,13.437605741772927" fill="none" stroke="rgb(107,53,53)" stroke-width="0.1"/>
  <path d="M 6.281877565479249,13.437605741772927 L 6.767473069627044,13.556901380192471" fill="none" stroke="rgb(107,53,53)" stroke-width="0.1"/>
  <path d="M 6.767473069627044,13.556901380192471 L 7.253110759877359,13.676025167919875" fill="none" stroke="rgb(107,53,53)" stroke-width="0.1"/>
  <path d="M 7.253110759877359,13.676025167919875 L 7.738790575412963,13.79497709003715" fill="none" stroke="rgb(107,53,53)" stroke-width="0.1"/>
  <path d="M 7.738790575412963,13.79497709003715 L 8.2245124554114,13.913757131647458" fill="none" stroke="rgb(107,53,53)" stroke-width="0.1"/>
  <path d="M 8.2245124554114,13.913757131647458 L 8.710276339044754,14.03236527787601" fill="none" stroke="rgb(107,53,53)" stroke-width="0.1"/>
  <path d="M 8.710276339044754,14.03236527787601 L 9.196082165479538,14.150801513869169" fill="none" stroke="rgb(107,53,53)" stroke-width="0.1"/>
  <path d="M 9.196082165479538,14.150801513869169 L 9.681929873877266,14.269065824794893" fill="none" stroke="rgb(107,53,53)" stroke-width="0.1"/>
  <path d="M 9.681929873877266,14.269065824794893 L 10.167819403394446,14.387158195842744" fill="none" stroke="rgb(107,53,53)" stroke-width="0.1"/>
  <path d="M 10.167819403394446,14.387158195842744 L 10.65375069318236,14.505078612223883" fill="none" stroke="rgb(107,53,53)" stroke-width="0.1"/>
  <path d="M 10.65375069318236,14.505078612223883 L 11.139723682386375,14.62282705917039" fill="none" stroke="rgb(107,53,53)" stroke-width="0.1"/>
  <path d="M 11.139723682386375,14.62282705917039 L 11.625738310147085,14.740403521937083" fill="none" stroke="rgb(107,53,53)" stroke-width="0.1"/>
  <path d="M 11.625738310147085,14.740403521937083 L 12.111794515600081,14.857807985799013" fill="none" stroke="rgb(107,53,53)" stroke-width="0.1"/>
  <path d="M 12.111794515600081,14.857807985799013 L 12.597892237875953,14.975040436053746" fill="none" stroke="rgb(107,53,53)" stroke-width="0.1"/>
  <path d="M 12.597892237875953,14.975040436053746 L 13.08403141609881,15.09210085801999" fill="none" stroke="rgb(107,53,53)" stroke-width="0.1"/>
  <path d="M 13.08403141609881,15.09210085801999 L 13.570211989388895,15.208989237038054" fill="none" stroke="rgb(107,53,53)" stroke-width="0.1"/>
  <path d="M 13.570211989388895,15.208989237038054 L 14.056433896860767,15.325705558469622" fill="none" stroke="rgb(107,53,53)" stroke-width="0.1"/>
  <path d="M 14.056433896860767,15.325705558469622 L 14.542697077624211,15.442249807697976" fill="none" stroke="rgb(107,53,53)" stroke-width="0.1"/>
  <path d="M 14.542697077624211,15.442249807697976 L 15.029001470782987,15.558621970128229" fill="none" stroke="rgb(107,53,53)" stroke-width="0.1"/>
  <path d="M 15.029001470782987,15.558621970128229 L 15.515347015436305,15.674822031186864" fill="none" stroke="rgb(107,53,53)" stroke-width="0.1"/>
  <path d="M 15.515347015436305,15.674822031186864 L 16.001733650678148,15.790849976321738" fill="none" stroke="rgb(107,53,53)" stroke-width="0.1"/>
  <path d="M 16.001733650678148,15.790849976321738 L 16.488161315597722,15.906705791002764" fill="none" stroke="rgb(107,53,53)" stroke-width="0.1"/>
  <path d="M 16.488161315597722,15.906705791002764 L 16.97462994927787,16.022389460720774" fill="none" stroke="rgb(107,53,53)" stroke-width="0.1"/>
  <path d="M 16.97462994927787,16.022389460720774 L 17.461139490797677,16.137900970988426" fill="none" stroke="rgb(107,53,53)" stroke-width="0.1"/>
  <path d="M 17.461139490797677,16.137900970988426 L 17.94768987923044,16.253240307340207" fill="none" stroke="rgb(107,53,53)" stroke-width="0.1"/>
  <path d="M 17.94768987923044,16.253240307340207 L 18.434281053644668,16.36840745533175" fill="none" stroke="rgb(107,53,53)" stroke-width="0.1"/>
  <path d="M 18.434281053644668,16.36840745533175 L 18.920912953103198,16.48340240054074" fill="none" stroke="rgb(107,53,53)" stroke-width="0.1"/>
  <path d="M 18.920912953103198,16.48340240054074 L 19.4075855166642,16.598225128565787" fill="none" stroke="rgb(107,53,53)" stroke-width="0.1"/>
  <path d="M 19.4075855166642,16.598225128565787 L 19.894298683380725,16.712875625027323" fill="none" stroke="rgb(107,53,53)" stroke-width="0.1"/>
  <path d="M 19.894298683380725,16.712875625027323 L 20.381052392300944,16.827353875568065" fill="none" stroke="rgb(107,53,53)" stroke-width="0.1"/>
  <path d="M 20.381052392300944,16.827353875568065 L 20.867846582467223,16.94165986585074" fill="none" stroke="rgb(107,53,53)" stroke-width="0.1"/>
  <path d="M 20.867846582467223,16.94165986585074 L 21.354681192917383,17.05579358156149" fill="none" stroke="rgb(107,53,53)" stroke-width="0.1"/>
  <path d="M 21.354681192917383,17.05579358156149 L 21.841556162684356,17.16975500840647" fill="none" stroke="rgb(107,53,53)" stroke-width="0.1"/>
  <path d="M 21.841556162684356,17.16975500840647 L 22.328471430795958,17.283544132114343" fill="none" stroke="rgb(107,53,53)" stroke-width="0.1"/>
  <path d="M 22.328471430795958,17.283544132114343 L 22.81542693627432,17.397160938434922" fill="none" stroke="rgb(107,53,53)" stroke-width="0.1"/>
  <path d="M 22.81542693627432,17.397160938434922 L 23.302422618137143,17.510605413139842" fill="none" stroke="rgb(107,53,53)" stroke-width="0.1"/>
  <path d="M 23.302422618137143,17.510605413139842 L 23.789458415397007,17.623877542022115" fill="none" stroke="rgb(107,53,53)" stroke-width="0.1"/>
  <path d="M 23.789458415397007,17.623877542022115 L 24.276534267061834,17.736977310896805" fill="none" stroke="rgb(107,53,53)" stroke-width="0.1"/>
  <path d="M 24.276534267061834,17.736977310896805 L 24.763650112133405,17.84990470559967" fill="none" stroke="rgb(107,53,53)" stroke-width="0.1"/>
  <path d="M 24.763650112133405,17.84990470559967 L 25.250805889609524,17.962659711988522" fill="none" stroke="rgb(107,53,53)" stroke-width="0.1"/>
  <path d="M 25.250805889609524,17.962659711988522 L 25.738001538482536,18.075242315943683" fill="none" stroke="rgb(107,53,53)" stroke-width="0.1"/>
  <path d="M 25.738001538482536,18.075242315943683 L 26.225236997740467,18.187652503365257" fill="none" stroke="rgb(107,53,53)" stroke-width="0.1"/>
  <path d="M 26.225236997740467,18.187652503365257 L 26.712512206364977,18.299890260176312" fill="none" stroke="rgb(107,53,53)" stroke-width="0.1"/>
  <path d="M 26.712512206364977,18.299890260176312 L 27.199827103334087,18.411955572321062" fill="none" stroke="rgb(107,53,53)" stroke-width="0.1"/>
  <path d="M 27.199827103334087,18.411955572321062 L 27.68718162762036,18.52384842576555" fill="none" stroke="rgb(107,53,53)" stroke-width="0.1"/>
  <path d="M 27.68718162762036,18.52384842576555 L 28.174575718191477,18.635568806496735" fill="none" stroke="rgb(107,53,53)" stroke-width="0.1"/>
  <path d="M 28.174575718191477,18.635568806496735 L 28.662009314009765,18.74711670052386" fill="none" stroke="rgb(107,53,53)" stroke-width="0.1"/>
  <path d="M 28.662009314009765,18.74711670052386 L 29.149482354032898,18.858492093877544" fill="none" stroke="rgb(107,53,53)" stroke-width="0.1"/>
  <path d="M 29.149482354032898,18.858492093877544 L 29.636994777213772,18.96969497261" fill="none" stroke="rgb(107,53,53)" stroke-width="0.1"/>
  <path d="M 29.636994777213772,18.96969497261 L 30.124546522500623,19.080725322795047" fill="none" stroke="rgb(107,53,53)" stroke-width="0.1"/>
  <path d="M 30.124546522500623,19.080725322795047 L 30.612137528835547,19.19158313052833" fill="none" stroke="rgb(107,53,53)" stroke-width="0.1"/>
  <path d="M 30.612137528835547,19.19158313052833 L 31.099767735156888,19.302268381926638" fill="none" stroke="rgb(107,53,53)" stroke-width="0.1"/>
  <path d="M 31.099767735156888,19.302268381926638 L 31.58743708039799,19.41278106312882" fill="none" stroke="rgb(107,53,53)" stroke-width="0.1"/>
  <path d="M 31.58743708039799,19.41278106312882 L 32.075145503486624,19.523121160295318" fill="none" stroke="rgb(107,53,53)" stroke-width="0.1"/>
  <path d="M 32.075145503486624,19.523121160295318 L 32.56289294334613,19.633288659607274" fill="none" stroke="rgb(107,53,53)" stroke-width="0.1"/>
  <path d="M 32.56289294334613,19.633288659607274 L 33.05067933889484,19.74328354726879" fill="none" stroke="rgb(107,53,53)" stroke-width="0.1"/>
  <path d="M 33.05067933889484,19.74328354726879 L 33.538504629046656,19.85310580950511" fill="none" stroke="rgb(107,53,53)" stroke-width="0.1"/>
  <path d="M 33.538504629046656,19.85310580950511 L 34.026368752709686,19.962755432562403" fill="none" stroke="rgb(107,53,53)" stroke-width="0.1"/>
  <path d="M 34.026368752709686,19.962755432562403 L 34.51427164878771,20.072232402709346" fill="none" stroke="rgb(107,53,53)" stroke-width="0.1"/>
  <path d="M 34.51427164878771,20.072232402709346 L 35.002213256180426,20.181536706236216" fill="none" stroke="rgb(107,53,53)" stroke-width="0.1"/>
  <path d="M 35.002213256180426,20.181536706236216 L 35.490193513781264,20.290668329454206" fill="none" stroke="rgb(107,53,53)" stroke-width="0.1"/>
  <path d="M 35.490193513781264,20.290668329454206 L 35.97821236047935,20.39962725869634" fill="none" stroke="rgb(107,53,53)" stroke-width="0.1"/>
  <path d="M 35.97821236047935,20.39962725869634 L 36.466269735159244,20.508413480317927" fill="none" stroke="rgb(107,53,53)" stroke-width="0.1"/>
  <path d="M 36.466269735159244,20.508413480317927 L 36.954365576700525,20.617026980695414" fill="none" stroke="rgb(107,53,53)" stroke-width="0.1"/>
  <path d="M 36.954365576700525,20.617026980695414 L 37.442499823977755,20.7254677462264" fill="none" stroke="rgb(107,53,53)" stroke-width="0.1"/>
  <path d="M 37.442499823977755,20.7254677462264 L 37.930672415861636,20.83373576333122" fill="none" stroke="rgb(107,53,53)" stroke-width="0.1"/>
  <path d="M 37.930672415861636,20.83373576333122 L 38.41888329121673,20.941831018451126" fill="none" stroke="rgb(107,53,53)" stroke-width="0.1"/>
  <path d="M 38.41888329121673,20.941831018451126 L 38.90713238890305,21.049753498048744" fill="none" stroke="rgb(107,53,53)" stroke-width="0.1"/>
  <path d="M 38.90713238890305,21.049753498048744 L 39.395419647776976,21.15750318860944" fill="none" stroke="rgb(107,53,53)" stroke-width="0.1"/>
  <path d="M 39.395419647776976,21.15750318860944 L 39.88374500668863,21.265080076638583" fill="none" stroke="rgb(107,53,53)" stroke-width="0.1"/>
  <path d="M 39.88374500668863,21.265080076638583 L 40.3721084044837,21.37248414866474" fill="none" stroke="rgb(107,53,53)" stroke-width="0.1"/>
  <path d="M 40.3721084044837,21.37248414866474 L 40.86050978000435,21.47971539123739" fill="none" stroke="rgb(107,53,53)" stroke-width="0.1"/>
  <path d="M 40.86050978000435,21.47971539123739 L 41.348949072086725,21.586773790927396" fill="none" stroke="rgb(107,53,53)" stroke-width="0.1"/>
  <path d="M 41.348949072086725,21.586773790927396 L 41.8374262195631,21.693659334328345" fill="none" stroke="rgb(107,53,53)" stroke-width="0.1"/>
  <path d="M 41.8374262195631,21.693659334328345 L 42.325941161259266,21.80037200805384" fill="none" stroke="rgb(107,53,53)" stroke-width="0.1"/>
  <path d="M 42.325941161259266,21.80037200805384 L 42.81449383599795,21.90691179874068" fill="none" stroke="rgb(107,53,53)" stroke-width="0.1"/>
  <path d="M 42.81449383599795,21.90691179874068 L 43.303084182597104,22.013278693046345" fill="none" stroke="rgb(107,53,53)" stroke-width="0.1"/>
  <path d="M 43.303084182597104,22.013278693046345 L 43.791712139869674,22.11947267765038" fill="none" stroke="rgb(107,53,53)" stroke-width="0.1"/>
  <path d="M 43.791712139869674,22.11947267765038 L 44.28037764662304,22.22549373925392" fill="none" stroke="rgb(107,53,53)" stroke-width="0.1"/>
  <path d="M 44.28037764662304,22.22549373925392 L 44.76908064166105,22.33134186457994" fill="none" stroke="rgb(107,53,53)" stroke-width="0.1"/>
  <path d="M 44.76908064166105,22.33134186457994 L 45.257821063782444,22.437017040372325" fill="none" stroke="rgb(107,53,53)" stroke-width="0.1"/>
  <path d="M 45.257821063782444,22.437017040372325 L 45.746598851781414,22.542519253397927" fill="none" stroke="rgb(107,53,53)" stroke-width="0.1"/>
  <path d="M 45.746598851781414,22.542519253397927 L 46.235413944446805,22.647848490443607" fill="none" stroke="rgb(107,53,53)" stroke-width="0.1"/>
  <path d="M 46.235413944446805,22.647848490443607 L 46.7242662805636,22.75300473831919" fill="none" stroke="rgb(107,53,53)" stroke-width="0.1"/>
  <path d="M 46.7242662805636,22.75300473831919 L 47.21315579891177,22.857987983855878" fill="none" stroke="rgb(107,53,53)" stroke-width="0.1"/>
  <path d="M 47.21315579891177,22.857987983855878 L 47.702082438266984,22.962798213906467" fill="none" stroke="rgb(107,53,53)" stroke-width="0.1"/>
  <path d="M 47.702082438266984,22.962798213906467 L 48.19104613739944,23.067435415344903" fill="none" stroke="rgb(107,53,53)" stroke-width="0.1"/>
  <path d="M 48.19104613739944,23.067435415344903 L 48.68004683507536,23.17189957506764" fill="none" stroke="rgb(107,53,53)" stroke-width="0.1"/>
  <path d="M 48.68004683507536,23.17189957506764 L 49.16908447005619,23.276190679992283" fill="none" stroke="rgb(107,53,53)" stroke-width="0.1"/>
  <path d="M 49.16908447005619,23.276190679992283 L 49.65815898109929,23.380308717058256" fill="none" stroke="rgb(107,53,53)" stroke-width="0.1"/>
  <path d="M 49.65815898109929,23.380308717058256 L 50.14727030695599,23.48425367322659" fill="none" stroke="rgb(107,53,53)" stroke-width="0.1"/>
  <path d="M 50.14727030695599,23.48425367322659 L 50.6364183863742,23.588025535479915" fill="none" stroke="rgb(107,53,53)" stroke-width="0.1"/>
  <path d="M 50.6364183863742,23.588025535479915 L 51.12560315809708,23.691624290823142" fill="none" stroke="rgb(107,53,53)" stroke-width="0.1"/>
  <path d="M 51.12560315809708,23.691624290823142 L 51.6148245608631,23.795049926282104" fill="none" stroke="rgb(107,53,53)" stroke-width="0.1"/>
  <path d="M 51.6148245608631,23.795049926282104 L 52.10408253340563,23.898302428904458" fill="none" stroke="rgb(107,53,53)" stroke-width="0.1"/>
  <path d="M 52.10408253340563,23.898302428904458 L 52.59337701445395,24.00138178575969" fill="none" stroke="rgb(107,53,53)" stroke-width="0.1"/>
  <path d="M 52.59337701445395,24.00138178575969 L 53.08270794273301,24.104287983939116" fill="none" stroke="rgb(107,53,53)" stroke-width="0.1"/>
  <path d="M 53.08270794273301,24.104287983939116 L 53.572075256962876,24.20702101055565" fill="none" stroke="rgb(107,53,53)" stroke-width="0.1"/>
  <path d="M 53.572075256962876,24.20702101055565 L 54.06147889585884,24.30958085274358" fill="none" stroke="rgb(107,53,53)" stroke-width="0.1"/>
  <path d="M 54.06147889585884,24.30958085274358 L 54.55091879813176,24.411967497659248" fill="none" stroke="rgb(107,53,53)" stroke-width="0.1"/>
  <path d="M 54.55091879813176,24.411967497659248 L 55.04039490248874,24.514180932480826" fill="none" stroke="rgb(107,53,53)" stroke-width="0.1"/>
  <path d="M 55.04039490248874,24.514180932480826 L 55.529907147630865,24.616221144407405" fill="none" stroke="rgb(107,53,53)" stroke-width="0.1"/>
  <path d="M 55.529907147630865,24.616221144407405 L 56.0194554722558,24.718088120660582" fill="none" stroke="rgb(107,53,53)" stroke-width="0.1"/>
  <path d="M 56.0194554722558,24.718088120660582 L 56.50903981505655,24.81978184848333" fill="none" stroke="rgb(107,53,53)" stroke-width="0.1"/>
  <path d="M 56.50903981505655,24.81978184848333 L 56.9986601147217,24.92130231514045" fill="none" stroke="rgb(107,53,53)" stroke-width="0.1"/>
  <path d="M 56.9986601147217,24.92130231514045 L 57.488316309934476,25.022649507918118" fill="none" stroke="rgb(107,53,53)" stroke-width="0.1"/>
  <path d="M 57.488316309934476,25.022649507918118 L 57.97800833937447,25.12382341412433" fill="none" stroke="rgb(107,53,53)" stroke-width="0.1"/>
  <path d="M 57.97800833937447,25.12382341412433 L 58.46773614171673,25.224824021089148" fill="none" stroke="rgb(107,53,53)" stroke-width="0.1"/>
  <path d="M 58.46773614171673,25.224824021089148 L 58.95749965563175,25.32565131616377" fill="none" stroke="rgb(107,53,53)" stroke-width="0.1"/>
  <path d="M 58.95749965563175,25.32565131616377 L 59.447298819784805,25.426305286721686" fill="none" stroke="rgb(107,53,53)" stroke-width="0.1"/>
  <path d="M 59.447298819784805,25.426305286721686 L 59.93713357283775,25.52678592015775" fill="none" stroke="rgb(107,53,53)" stroke-width="0.1"/>
  <path d="M 59.93713357283775,25.52678592015775 L 60.42700385344756,25.627093203888194" fill="none" stroke="rgb(107,53,53)" stroke-width="0.1"/>
  <path d="M 60.42700385344756,25.627093203888194 L 60.916909600267104,25.72722712535176" fill="none" stroke="rgb(107,53,53)" stroke-width="0.1"/>
  <path d="M 60.916909600267104,25.72722712535176 L 61.40685075194369,25.827187672008336" fill="none" stroke="rgb(107,53,53)" stroke-width="0.1"/>
  <path d="M 61.40685075194369,25.827187672008336 L 61.89682724712145,25.926974831339635" fill="none" stroke="rgb(107,53,53)" stroke-width="0.1"/>
  <path d="M 61.89682724712145,25.926974831339635 L 62.38683902443972,26.026588590848974" fill="none" stroke="rgb(107,53,53)" stroke-width="0.1"/>
  <path d="M 62.38683902443972,26.026588590848974 L 62.87688602253331,26.126028938061722" fill="none" stroke="rgb(107,53,53)" stroke-width="0.1"/>
  <path d="M 62.87688602253331,26.126028938061722 L 63.36696818003236,26.225295860524852" fill="none" stroke="rgb(107,53,53)" stroke-width="0.1"/>
  <path d="M 63.36696818003236,26.225295860524852 L 63.85708543556291,26.32438934580648" fill="none" stroke="rgb(107,53,53)" stroke-width="0.1"/>
  <path d="M 63.85708543556291,26.32438934580648 L 64.3472377277468,26.42330938149746" fill="none" stroke="rgb(107,53,53)" stroke-width="0.1"/>
  <path d="M 64.3472377277468,26.42330938149746 L 64.83742499520133,26.522055955209566" fill="none" stroke="rgb(107,53,53)" stroke-width="0.1"/>
  <path d="M 64.83742499520133,26.522055955209566 L 65.32764717653879,26.620629054576625" fill="none" stroke="rgb(107,53,53)" stroke-width="0.1"/>
  <path d="M 65.32764717653879,26.620629054576625 L 65.81790421036806,26.719028667254065" fill="none" stroke="rgb(107,53,53)" stroke-width="0.1"/>
  <path d="M 65.81790421036806,26.719028667254065 L 66.30819603529324,26.817254780919143" fill="none" stroke="rgb(107,53,53)" stroke-width="0.1"/>
  <path d="M 66.30819603529324,26.817254780919143 L 66.79852258991411,26.915307383270942" fill="none" stroke="rgb(107,53,53)" stroke-width="0.1"/>
  <path d="M 66.79852258991411,26.915307383270942 L 67.28888381282593,27.01318646202992" fill="none" stroke="rgb(107,53,53)" stroke-width="0.1"/>
  <path d="M 67.28888381282593,27.01318646202992 L 67.7792796426196,27.110892004938364" fill="none" stroke="rgb(107,53,53)" stroke-width="0.1"/>
  <path d="M 67.7792796426196,27.110892004938364 L 68.26971001788206,27.20842399976084" fill="none" stroke="rgb(107,53,53)" stroke-width="0.1"/>
  <path d="M 68.26971001788206,27.20842399976084 L 68.76017487719594,27.305782434282833" fill="none" stroke="rgb(107,53,53)" stroke-width="0.1"/>
  <path d="M 68.76017487719594,27.305782434282833 L 69.25067415913884,27.402967296312113" fill="none" stroke="rgb(107,53,53)" stroke-width="0.1"/>
  <path d="M 69.25067415913884,27.402967296312113 L 69.74120780228475,27.49997857367805" fill="none" stroke="rgb(107,53,53)" stroke-width="0.1"/>
  <path d="M 69.74120780228475,27.49997857367805 L 70.2317757452031,27.596816254231612" fill="none" stroke="rgb(107,53,53)" stroke-width="0.1"/>
  <path d="M 70.2317757452031,27.596816254231612 L 70.72237792645944,27.693480325845826" fill="none" stroke="rgb(107,53,53)" stroke-width="0.1"/>
  <path d="M 70.72237792645944,27.693480325845826 L 71.2130142846139,27.78997077641486" fill="none" stroke="rgb(107,53,53)" stroke-width="0.1"/>
  <path d="M 71.2130142846139,27.78997077641486 L 71.70368475822352,27.8862875938554" fill="none" stroke="rgb(107,53,53)" stroke-width="0.1"/>
  <path d="M 71.70368475822352,27.8862875938554 L 72.19438928584054,27.982430766105267" fill="none" stroke="rgb(107,53,53)" stroke-width="0.1"/>
  <path d="M 72.19438928584054,27.982430766105267 L 72.68512780601338,28.078400281124345" fill="none" stroke="rgb(107,53,53)" stroke-width="0.1"/>
  <path d="M 72.68512780601338,28.078400281124345 L 73.1759002572852,28.174196126894117" fill="none" stroke="rgb(107,53,53)" stroke-width="0.1"/>
  <path d="M 73.1759002572852,28.174196126894117 L 73.66670657819589,28.26981829141789" fill="none" stroke="rgb(107,53,53)" stroke-width="0.1"/>
  <path d="M 73.66670657819589,28.26981829141789 L 74.15754670728086,28.365266762721035" fill="none" stroke="rgb(107,53,53)" stroke-width="0.1"/>
  <path d="M 74.15754670728086,28.365266762721035 L 74.64842058307124,28.46054152884983" fill="none" stroke="rgb(107,53,53)" stroke-width="0.1"/>
  <path d="M 74.64842058307124,28.46054152884983 L 75.13932814409361,28.555642577872845" fill="none" stroke="rgb(107,53,53)" stroke-width="0.1"/>
  <path d="M 75.13932814409361,28.555642577872845 L 75.63026932887055,28.6505698978807" fill="none" stroke="rgb(107,53,53)" stroke-width="0.1"/>
  <path d="M 75.63026932887055,28.6505698978807 L 76.12124407592069,28.74532347698539" fill="none" stroke="rgb(107,53,53)" stroke-width="0.1"/>
  <path d="M 76.12124407592069,28.74532347698539 L 76.61225232375853,28.83990330332051" fill="none" stroke="rgb(107,53,53)" stroke-width="0.1"/>
  <path d="M 76.61225232375853,28.83990330332051 L 77.10329401089359,28.93430936504194" fill="none" stroke="rgb(107,53,53)" stroke-width="0.1"/>
  <path d="M 77.10329401089359,28.93430936504194 L 77.59436907583188,29.0285416503267" fill="none" stroke="rgb(107,53,53)" stroke-width="0.1"/>
  <path d="M 77.59436907583188,29.0285416503267 L 78.08547745707517,29.122600147374328" fill="none" stroke="rgb(107,53,53)" stroke-width="0.1"/>
  <path d="M 78.08547745707517,29.122600147374328 L 78.57661909312094,29.216484844405272" fill="none" stroke="rgb(107,53,53)" stroke-width="0.1"/>
  <path d="M 78.57661909312094,29.216484844405272 L 79.06779392246233,29.31019572966204" fill="none" stroke="rgb(107,53,53)" stroke-width="0.1"/>
  <path d="M 79.06779392246233,29.31019572966204 L 79.55900188358862,29.403732791409425" fill="none" stroke="rgb(107,53,53)" stroke-width="0.1"/>
  <path d="M 79.55900188358862,29.403732791409425 L 80.05024291498478,29.49709601793336" fill="none" stroke="rgb(107,53,53)" stroke-width="0.1"/>
  <path d="M 80.05024291498478,29.49709601793336 L 80.54151695513201,29.590285397541834" fill="none" stroke="rgb(107,53,53)" stroke-width="0.1"/>
  <path d="M 80.54151695513201,29.590285397541834 L 81.03282394250652,29.68330091856467" fill="none" stroke="rgb(107,53,53)" stroke-width="0.1"/>
  <path d="M 81.03282394250652,29.68330091856467 L 81.52416381558112,29.776142569353283" fill="none" stroke="rgb(107,53,53)" stroke-width="0.1"/>
  <path d="M 81.52416381558112,29.776142569353283 L 82.0155365128245,29.868810338280696" fill="none" stroke="rgb(107,53,53)" stroke-width="0.1"/>
  <path d="M 82.0155365128245,29.868810338280696 L 82.50694197270093,29.961304213742437" fill="none" stroke="rgb(107,53,53)" stroke-width="0.1"/>
  <path d="M 82.50694197270093,29.961304213742437 L 82.9983801336706,30.0536241841545" fill="none" stroke="rgb(107,53,53)" stroke-width="0.1"/>
  <path d="M 82.9983801336706,30.0536241841545 L 83.4898509341898,30.1457702379563" fill="none" stroke="rgb(107,53,53)" stroke-width="0.1"/>
  <path d="M 83.4898509341898,30.1457702379563 L 83.98135431271055,30.23774236360771" fill="none" stroke="rgb(107,53,53)" stroke-width="0.1"/>
  <path d="M 83.98135431271055,30.23774236360771 L 84.47289020768119,30.329540549591115" fill="none" stroke="rgb(107,53,53)" stroke-width="0.1"/>
  <path d="M 84.47289020768119,30.329540549591115 L 84.96445855754507,30.42116478441028" fill="none" stroke="rgb(107,53,53)" stroke-width="0.1"/>
  <path d="M 84.96445855754507,30.42116478441028 L 85.45605930074237,30.51261505659079" fill="none" stroke="rgb(107,53,53)" stroke-width="0.1"/>
  <path d="M 85.45605930074237,30.51261505659079 L 85.94769237570915,30.603891354680513" fill="none" stroke="rgb(107,53,53)" stroke-width="0.1"/>
  <path d="M 85.94769237570915,30.603891354680513 L 86.43935772087718,30.694993667248696" fill="none" stroke="rgb(107,53,53)" stroke-width="0.1"/>
  <path d="M 86.43935772087718,30.694993667248696 L 86.93105527467367,30.785921982885952" fill="none" stroke="rgb(107,53,53)" stroke-width="0.1"/>
  <path d="M 86.93105527467367,30.785921982885952 L 87.42278497552263,30.87667629020541" fill="none" stroke="rgb(107,53,53)" stroke-width="0.1"/>
  <path d="M 87.42278497552263,30.87667629020541 L 87.9145467618439,30.967256577841795" fill="none" stroke="rgb(107,53,53)" stroke-width="0.1"/>
  <path d="M 87.9145467618439,30.967256577841795 L 88.40634057205318,31.057662834451662" fill="none" stroke="rgb(107,53,53)" stroke-width="0.1"/>
  <path d="M 88.40634057205318,31.057662834451662 L 88.89816634456179,31.14789504871294" fill="none" stroke="rgb(107,53,53)" stroke-width="0.1"/>
  <path d="M 88.89816634456179,31.14789504871294 L 89.39002401777748,31.237953209325838" fill="none" stroke="rgb(107,53,53)" stroke-width="0.1"/>
  <path d="M 89.39002401777748,31.237953209325838 L 89.88191353010404,31.327837305012167" fill="none" stroke="rgb(107,53,53)" stroke-width="0.1"/>
  <path d="M 89.88191353010404,31.327837305012167 L 90.37383481994118,31.417547324515567" fill="none" stroke="rgb(107,53,53)" stroke-width="0.1"/>
  <path d="M 90.37383481994118,31.417547324515567 L 90.86578782568438,31.507083256601504" fill="none" stroke="rgb(107,53,53)" stroke-width="0.1"/>
  <path d="M 90.86578782568438,31.507083256601504 L 91.35777248572526,31.596445090057045" fill="none" stroke="rgb(107,53,53)" stroke-width="0.1"/>
  <path d="M 91.35777248572526,31.596445090057045 L 91.84978873845182,31.68563281369154" fill="none" stroke="rgb(107,53,53)" stroke-width="0.1"/>
  <path d="M 91.84978873845182,31.68563281369154 L 92.34183652224795,31.774646416335486" fill="none" stroke="rgb(107,53,53)" stroke-width="0.1"/>
  <path d="M 92.34183652224795,31.774646416335486 L 92.83391577549321,31.86348588684143" fill="none" stroke="rgb(107,53,53)" stroke-width="0.1"/>
  <path d="M 92.83391577549321,31.86348588684143 L 93.32602643656344,31.95215121408421" fill="none" stroke="rgb(107,53,53)" stroke-width="0.1"/>
  <path d="M 93.32602643656344,31.95215121408421 L 93.81816844383081,32.04064238696003" fill="none" stroke="rgb(107,53,53)" stroke-width="0.1"/>
  <path d="M 93.81816844383081,32.04064238696003 L 94.31034173566377,32.128959394386925" fill="none" stroke="rgb(107,53,53)" stroke-width="0.1"/>
  <path d="M 94.31034173566377,32.128959394386925 L 94.80254625042562,32.21710222530453" fill="none" stroke="rgb(107,53,53)" stroke-width="0.1"/>
  <path d="M 94.80254625042562,32.21710222530453 L 95.29478192647696,32.30507086867476" fill="none" stroke="rgb(107,53,53)" stroke-width="0.1"/>
  <path d="M 95.29478192647696,32.30507086867476 L 95.78704870217416,32.39286531348114" fill="none" stroke="rgb(107,53,53)" stroke-width="0.1"/>
  <path d="M 95.78704870217416,32.39286531348114 L 96.27934651586986,32.48048554872878" fill="none" stroke="rgb(107,53,53)" stroke-width="0.1"/>
  <path d="M 96.27934651586986,32.48048554872878 L 96.77167530591203,32.567931563445086" fill="none" stroke="rgb(107,53,53)" stroke-width="0.1"/>
  <path d="M 96.77167530591203,32.567931563445086 L 97.26403501064556,32.65520334667883" fill="none" stroke="rgb(107,53,53)" stroke-width="0.1"/>
  <path d="M 97.26403501064556,32.65520334667883 L 97.75642556841137,32.742300887500846" fill="none" stroke="rgb(107,53,53)" stroke-width="0.1"/>
  <path d="M 97.75642556841137,32.742300887500846 L 98.24884691754653,32.82922417500379" fill="none" stroke="rgb(107,53,53)" stroke-width="0.1"/>
  <path d="M 98.24884691754653,32.82922417500379 L 98.74129899638353,32.91597319830214" fill="none" stroke="rgb(107,53,53)" stroke-width="0.1"/>
  <path d="M 98.74129899638353,32.91597319830214 L 99.23378174325205,33.00254794653199" fill="none" stroke="rgb(107,53,53)" stroke-width="0.1"/>
  <path d="M 99.23378174325205,33.00254794653199 L 99.7262950964772,33.08894840885125" fill="none" stroke="rgb(107,53,53)" stroke-width="0.1"/>
 </g>
 <g id="layerA-HATCH" inkscape:groupmode="layer" inkscape:label="A-HATCH">
  <path d="M 38.637017000000014,99.40665100000001 L 40.637017000000014,99.40665100000001" fill="none" stroke="rgb(92,92,92)" stroke-width="0.1"/>
  <path d="M 38.637017000000014,97.97165100000001 L 40.637017000000014,97.97165100000001" fill="none" stroke="rgb(92,92,92)" stroke-width="0.1"/>
  <path d="M 38.637017000000014,96.536651 L 40.637017000000014,96.536651" fill="none" stroke="rgb(92,92,92)" stroke-width="0.1"/>
  <path d="M 38.637017000000014,95.10265100000004 L 40.637017000000014,95.10265100000004" fill="none" stroke="rgb(92,92,92)" stroke-width="0.1"/>
  <path d="M 38.637017000000014,93.66765100000003 L 40.637017000000014,93.66765100000003" fill="none" stroke="rgb(92,92,92)" stroke-width="0.1"/>
  <path d="M 38.637017000000014,76.44965100000002 L 40.637017000000014,76.44965100000002" fill="none" stroke="rgb(92,92,92)" stroke-width="0.1"/>
  <path d="M 38.637017000000014,75.01565100000005 L 40.637017000000014,75.01565100000005" fill="none" stroke="rgb(92,92,92)" stroke-width="0.1"/>
 </g>
 <g id="layerA-WALL" inkscape:groupmode="layer" inkscape:label="A-WALL">
  <path d="M 38.637017000000014,74.29765100000003 L 42.637017000000014,74.29765100000003" fill="none" instance-id="-1" semantic-id="1" stroke="rgb(0,178,178)" stroke-width="0.1"/>
  <path d="M 42.637017000000014,74.29765100000003 L 42.637017000000014,72.29765100000003" fill="none" instance-id="-1" semantic-id="1" stroke="rgb(0,178,178)" stroke-width="0.1"/>
  <path d="M 42.637017000000014,72.29765100000003 L 40.637017000000014,72.29765100000003" fill="none" instance-id="-1" semantic-id="1" stroke="rgb(0,178,178)" stroke-width="0.1"/>
  <path d="M 80.63601700000004,72.29765100000003 L 78.63701700000001,72.29765100000003" fill="none" instance-id="-1" semantic-id="1" stroke="rgb(0,178,178)" stroke-width="0.1"/>
  <path d="M 78.63701700000001,72.29765100000003 L 78.63701700000001,74.29765100000003" fill="none" instance-id="-1" semantic-id="1" stroke="rgb(0,178,178)" stroke-width="0.1"/>
  <path d="M 78.63701700000001,74.29765100000003 L 82.63601700000004,74.29765100000003" fill="none" instance-id="-1" semantic-id="1" stroke="rgb(0,178,178)" stroke-width="0.1"/>
  <path d="M 38.637017000000014,74.29765100000003 L 38.637017000000014,57.83665100000002" fill="none" instance-id="-1" semantic-id="1" stroke="rgb(0,178,178)" stroke-width="0.1"/>
  <path d="M 40.637017000000014,72.29765100000003 L 40.637017000000014,56.22065100000003" fill="none" instance-id="-1" semantic-id="1" stroke="rgb(0,178,178)" stroke-width="0.1"/>
  <path d="M 80.63601700000004,72.29765100000003 L 80.63601700000004,64.19865100000004" fill="none" instance-id="-1" semantic-id="1" stroke="rgb(0,178,178)" stroke-width="0.1"/>
  <path d="M 82.63601700000004,74.29765100000003 L 82.63601700000004,66.599651" fill="none" instance-id="-1" semantic-id="1" stroke="rgb(0,178,178)" stroke-width="0.1"/>
  <path d="M 0.12622189875264667,46.935054591351786 L 0.6126840583234525,47.05384707302244" fill="none" stroke="rgb(0,178,178)" stroke-width="0.1"/>
  <path d="M 0.6126840583234525,47.05384707302244 L 1.0991872987221996,47.172471199901" fill="none" stroke="rgb(0,178,178)" stroke-width="0.1"/>
  <path d="M 1.0991872987221996,47.172471199901 L 1.5857315616839287,47.29092695778024" fill="none" stroke="rgb(0,178,178)" stroke-width="0.1"/>
  <path d="M 1.5857315616839287,47.29092695778024 L 2.072316788940384,47.40921433247411" fill="none" stroke="rgb(0,178,178)" stroke-width="0.1"/>
  <path d="M 2.072316788940384,47.40921433247411 L 2.558942922216943,47.52733330981653" fill="none" stroke="rgb(0,178,178)" stroke-width="0.1"/>
  <path d="M 2.558942922216943,47.52733330981653 L 3.0456099032347765,47.64528387566122" fill="none" stroke="rgb(0,178,178)" stroke-width="0.1"/>
  <path d="M 3.0456099032347765,47.64528387566122 L 3.532317673710054,47.763066015882146" fill="none" stroke="rgb(0,178,178)" stroke-width="0.1"/>
  <path d="M 3.532317673710054,47.763066015882146 L 4.019066175353828,47.88067971637372" fill="none" stroke="rgb(0,178,178)" stroke-width="0.1"/>
  <path d="M 4.019066175353828,47.88067971637372 L 4.505855349873059,47.9981249630506" fill="none" stroke="rgb(0,178,178)" stroke-width="0.1"/>
  <path d="M 4.505855349873059,47.9981249630506 L 4.992685138968795,48.11540174184677" fill="none" stroke="rgb(0,178,178)" stroke-width="0.1"/>
  <path d="M 4.992685138968795,48.11540174184677 L 5.479555484338448,48.23251003871803" fill="none" stroke="rgb(0,178,178)" stroke-width="0.1"/>
  <path d="M 5.479555484338448,48.23251003871803 L 5.96646632767272,48.34944983963817" fill="none" stroke="rgb(0,178,178)" stroke-width="0.1"/>
  <path d="M 5.96646632767272,48.34944983963817 L 6.453417610659471,48.46622113060323" fill="none" stroke="rgb(0,178,178)" stroke-width="0.1"/>
  <path d="M 6.453417610659471,48.46622113060323 L 6.940409274980652,48.58282389762837" fill="none" stroke="rgb(0,178,178)" stroke-width="0.1"/>
  <path d="M 6.940409274980652,48.58282389762837 L 7.427441262312982,48.69925812674876" fill="none" stroke="rgb(0,178,178)" stroke-width="0.1"/>
  <path d="M 7.427441262312982,48.69925812674876 L 7.914513514329997,48.81552380402047" fill="none" stroke="rgb(0,178,178)" stroke-width="0.1"/>
  <path d="M 7.914513514329997,48.81552380402047 L 8.401625972698184,48.93162091551892" fill="none" stroke="rgb(0,178,178)" stroke-width="0.1"/>
  <path d="M 8.401625972698184,48.93162091551892 L 8.888778579081304,49.04754944734066" fill="none" stroke="rgb(0,178,178)" stroke-width="0.1"/>
  <path d="M 8.888778579081304,49.04754944734066 L 9.375971275136521,49.16330938560179" fill="none" stroke="rgb(0,178,178)" stroke-width="0.1"/>
  <path d="M 9.375971275136521,49.16330938560179 L 9.863204002517818,49.2789007164389" fill="none" stroke="rgb(0,178,178)" stroke-width="0.1"/>
  <path d="M 9.863204002517818,49.2789007164389 L 10.350476702873038,49.3943234260081" fill="none" stroke="rgb(0,178,178)" stroke-width="0.1"/>
  <path d="M 10.350476702873038,49.3943234260081 L 10.837789317846614,49.5095775004869" fill="none" stroke="rgb(0,178,178)" stroke-width="0.1"/>
  <path d="M 10.837789317846614,49.5095775004869 L 11.325141789076724,49.62466292607189" fill="none" stroke="rgb(0,178,178)" stroke-width="0.1"/>
  <path d="M 11.325141789076724,49.62466292607189 L 11.81253405819723,49.73957968898037" fill="none" stroke="rgb(0,178,178)" stroke-width="0.1"/>
  <path d="M 11.81253405819723,49.73957968898037 L 12.29996606683801,49.85432777545009" fill="none" stroke="rgb(0,178,178)" stroke-width="0.1"/>
  <path d="M 12.29996606683801,49.85432777545009 L 12.787437756623262,49.968907171738124" fill="none" stroke="rgb(0,178,178)" stroke-width="0.1"/>
  <path d="M 12.787437756623262,49.968907171738124 L 13.27494906917343,50.08331786412293" fill="none" stroke="rgb(0,178,178)" stroke-width="0.1"/>
  <path d="M 13.27494906917343,50.08331786412293 L 13.762499946102594,50.197559838902066" fill="none" stroke="rgb(0,178,178)" stroke-width="0.1"/>
  <path d="M 13.762499946102594,50.197559838902066 L 14.250090329021873,50.31163308239422" fill="none" stroke="rgb(0,178,178)" stroke-width="0.1"/>
  <path d="M 14.250090329021873,50.31163308239422 L 14.73772015953648,50.4255375809372" fill="none" stroke="rgb(0,178,178)" stroke-width="0.1"/>
  <path d="M 14.73772015953648,50.4255375809372 L 15.225389379247076,50.539273320890175" fill="none" stroke="rgb(0,178,178)" stroke-width="0.1"/>
  <path d="M 15.225389379247076,50.539273320890175 L 15.713097929750461,50.652840288631864" fill="none" stroke="rgb(0,178,178)" stroke-width="0.1"/>
  <path d="M 15.713097929750461,50.652840288631864 L 16.200845752637747,50.766238470561234" fill="none" stroke="rgb(0,178,178)" stroke-width="0.1"/>
  <path d="M 16.200845752637747,50.766238470561234 L 16.6886327894955,50.879467853097935" fill="none" stroke="rgb(0,178,178)" stroke-width="0.1"/>
  <path d="M 16.6886327894955,50.879467853097935 L 17.176458981905512,50.99252842268095" fill="none" stroke="rgb(0,178,178)" stroke-width="0.1"/>
  <path d="M 17.176458981905512,50.99252842268095 L 17.664324271445935,51.105420165770624" fill="none" stroke="rgb(0,178,178)" stroke-width="0.1"/>
  <path d="M 17.664324271445935,51.105420165770624 L 18.152228599688556,51.218143068846416" fill="none" stroke="rgb(0,178,178)" stroke-width="0.1"/>
  <path d="M 18.152228599688556,51.218143068846416 L 18.640171908202205,51.33069711840869" fill="none" stroke="rgb(0,178,178)" stroke-width="0.1"/>
  <path d="M 18.640171908202205,51.33069711840869 L 19.12815413855003,51.443082300977835" fill="none" stroke="rgb(0,178,178)" stroke-width="0.1"/>
  <path d="M 19.12815413855003,51.443082300977835 L 19.616175232289947,51.55529860309446" fill="none" stroke="rgb(0,178,178)" stroke-width="0.1"/>
  <path d="M 19.616175232289947,51.55529860309446 L 20.104235130976804,51.66734601131964" fill="none" stroke="rgb(0,178,178)" stroke-width="0.1"/>
  <path d="M 20.104235130976804,51.66734601131964 L 20.592333776159307,51.779224512233554" fill="none" stroke="rgb(0,178,178)" stroke-width="0.1"/>
  <path d="M 20.592333776159307,51.779224512233554 L 21.080471109382756,51.89093409243867" fill="none" stroke="rgb(0,178,178)" stroke-width="0.1"/>
  <path d="M 21.080471109382756,51.89093409243867 L 21.568647072186764,52.00247473855586" fill="none" stroke="rgb(0,178,178)" stroke-width="0.1"/>
  <path d="M 21.568647072186764,52.00247473855586 L 22.056861606107418,52.11384643722715" fill="none" stroke="rgb(0,178,178)" stroke-width="0.1"/>
  <path d="M 22.056861606107418,52.11384643722715 L 22.545114652675124,52.22504917511412" fill="none" stroke="rgb(0,178,178)" stroke-width="0.1"/>
  <path d="M 22.545114652675124,52.22504917511412 L 23.03340615341574,52.336082938899494" fill="none" stroke="rgb(0,178,178)" stroke-width="0.1"/>
  <path d="M 23.03340615341574,52.336082938899494 L 23.521736049851484,52.44694771528532" fill="none" stroke="rgb(0,178,178)" stroke-width="0.1"/>
  <path d="M 23.521736049851484,52.44694771528532 L 24.01010428349889,52.557643490994565" fill="none" stroke="rgb(0,178,178)" stroke-width="0.1"/>
  <path d="M 24.01010428349889,52.557643490994565 L 24.49851079587131,52.66817025277021" fill="none" stroke="rgb(0,178,178)" stroke-width="0.1"/>
  <path d="M 24.49851079587131,52.66817025277021 L 24.986955528475505,52.778527987375014" fill="none" stroke="rgb(0,178,178)" stroke-width="0.1"/>
  <path d="M 24.986955528475505,52.778527987375014 L 25.475438422815273,52.88871668159311" fill="none" stroke="rgb(0,178,178)" stroke-width="0.1"/>
  <path d="M 25.475438422815273,52.88871668159311 L 25.963959420389415,52.9987363222275" fill="none" stroke="rgb(0,178,178)" stroke-width="0.1"/>
  <path d="M 25.963959420389415,52.9987363222275 L 26.4525184626915,53.10858689610234" fill="none" stroke="rgb(0,178,178)" stroke-width="0.1"/>
  <path d="M 26.4525184626915,53.10858689610234 L 26.941115491211804,53.21826839006201" fill="none" stroke="rgb(0,178,178)" stroke-width="0.1"/>
  <path d="M 26.941115491211804,53.21826839006201 L 27.42975044743514,53.32778079097045" fill="none" stroke="rgb(0,178,178)" stroke-width="0.1"/>
  <path d="M 27.42975044743514,53.32778079097045 L 27.91842327284178,53.43712408571298" fill="none" stroke="rgb(0,178,178)" stroke-width="0.1"/>
  <path d="M 27.91842327284178,53.43712408571298 L 28.407133908907667,53.54629826119378" fill="none" stroke="rgb(0,178,178)" stroke-width="0.1"/>
  <path d="M 28.407133908907667,53.54629826119378 L 28.89588229710455,53.655303304338645" fill="none" stroke="rgb(0,178,178)" stroke-width="0.1"/>
  <path d="M 28.89588229710455,53.655303304338645 L 29.384668378899278,53.76413920209268" fill="none" stroke="rgb(0,178,178)" stroke-width="0.1"/>
  <path d="M 29.384668378899278,53.76413920209268 L 29.873492095753704,53.87280594142146" fill="none" stroke="rgb(0,178,178)" stroke-width="0.1"/>
  <path d="M 29.873492095753704,53.87280594142146 L 30.36235338912695,53.98130350931103" fill="none" stroke="rgb(0,178,178)" stroke-width="0.1"/>
  <path d="M 30.36235338912695,53.98130350931103 L 30.851252200470753,54.0896318927679" fill="none" stroke="rgb(0,178,178)" stroke-width="0.1"/>
  <path d="M 30.851252200470753,54.0896318927679 L 31.34018847123525,54.19779107881811" fill="none" stroke="rgb(0,178,178)" stroke-width="0.1"/>
  <path d="M 31.34018847123525,54.19779107881811 L 31.829162142863993,54.30578105450866" fill="none" stroke="rgb(0,178,178)" stroke-width="0.1"/>
  <path d="M 31.829162142863993,54.30578105450866 L 32.3181731567978,54.413601806906286" fill="none" stroke="rgb(0,178,178)" stroke-width="0.1"/>
  <path d="M 32.3181731567978,54.413601806906286 L 32.80722145447123,54.52125332309845" fill="none" stroke="rgb(0,178,178)" stroke-width="0.1"/>
  <path d="M 32.80722145447123,54.52125332309845 L 33.29630697731636,54.62873559019283" fill="none" stroke="rgb(0,178,178)" stroke-width="0.1"/>
  <path d="M 33.29630697731636,54.62873559019283 L 33.78542966675877,54.736048595316674" fill="none" stroke="rgb(0,178,178)" stroke-width="0.1"/>
  <path d="M 33.78542966675877,54.736048595316674 L 34.274589464220526,54.84319232561836" fill="none" stroke="rgb(0,178,178)" stroke-width="0.1"/>
  <path d="M 34.274589464220526,54.84319232561836 L 34.763786311119816,54.95016676826651" fill="none" stroke="rgb(0,178,178)" stroke-width="0.1"/>
  <path d="M 34.763786311119816,54.95016676826651 L 35.25302014886927,55.05697191044953" fill="none" stroke="rgb(0,178,178)" stroke-width="0.1"/>
  <path d="M 35.25302014886927,55.05697191044953 L 35.742290918878666,55.16360773937606" fill="none" stroke="rgb(0,178,178)" stroke-width="0.1"/>
  <path d="M 35.742290918878666,55.16360773937606 L 36.231598562551085,55.27007424227543" fill="none" stroke="rgb(0,178,178)" stroke-width="0.1"/>
  <path d="M 36.231598562551085,55.27007424227543 L 36.72094302128721,55.3763714063972" fill="none" stroke="rgb(0,178,178)" stroke-width="0.1"/>
  <path d="M 36.72094302128721,55.3763714063972 L 37.21032423648228,55.48249921901095" fill="none" stroke="rgb(0,178,178)" stroke-width="0.1"/>
  <path d="M 37.21032423648228,55.48249921901095 L 37.699742149527424,55.588457667406715" fill="none" stroke="rgb(0,178,178)" stroke-width="0.1"/>
  <path d="M 37.699742149527424,55.588457667406715 L 38.18919670180969,55.694246738895" fill="none" stroke="rgb(0,178,178)" stroke-width="0.1"/>
  <path d="M 38.18919670180969,55.694246738895 L 38.67868783471101,55.79986642080587" fill="none" stroke="rgb(0,178,178)" stroke-width="0.1"/>
  <path d="M 38.67868783471101,55.79986642080587 L 39.16821548960968,55.905316700490744" fill="none" stroke="rgb(0,178,178)" stroke-width="0.1"/>
  <path d="M 39.16821548960968,55.905316700490744 L 39.65777960787864,56.01059756532038" fill="none" stroke="rgb(0,178,178)" stroke-width="0.1"/>
  <path d="M 39.65777960787864,56.01059756532038 L 40.14738013088788,56.11570900268646" fill="none" stroke="rgb(0,178,178)" stroke-width="0.1"/>
  <path d="M 40.14738013088788,56.11570900268646 L 40.637017000000014,56.22065100000003" fill="none" stroke="rgb(0,178,178)" stroke-width="0.1"/>
  <path d="M 0.08039602429016668,48.98267245860552 L 0.5669147312233918,49.101319723550205" fill="none" stroke="rgb(0,178,178)" stroke-width="0.1"/>
  <path d="M 0.5669147312233918,49.101319723550205 L 1.0534744138109318,49.219798839666055" fill="none" stroke="rgb(0,178,178)" stroke-width="0.1"/>
  <path d="M 1.0534744138109318,49.219798839666055 L 1.5400750139374395,49.33810979280247" fill="none" stroke="rgb(0,178,178)" stroke-width="0.1"/>
  <path d="M 1.5400750139374395,49.33810979280247 L 2.026716473482338,49.456252568827495" fill="none" stroke="rgb(0,178,178)" stroke-width="0.1"/>
  <path d="M 2.026716473482338,49.456252568827495 L 2.513398734321754,49.57422715363077" fill="none" stroke="rgb(0,178,178)" stroke-width="0.1"/>
  <path d="M 2.513398734321754,49.57422715363077 L 3.0001217383253334,49.69203353312105" fill="none" stroke="rgb(0,178,178)" stroke-width="0.1"/>
  <path d="M 3.0001217383253334,49.69203353312105 L 3.4868854273596526,49.80967169322753" fill="none" stroke="rgb(0,178,178)" stroke-width="0.1"/>
  <path d="M 3.4868854273596526,49.80967169322753 L 3.9736897432843534,49.92714161989966" fill="none" stroke="rgb(0,178,178)" stroke-width="0.1"/>
  <path d="M 3.9736897432843534,49.92714161989966 L 4.460534627955326,50.04444329910598" fill="none" stroke="rgb(0,178,178)" stroke-width="0.1"/>
  <path d="M 4.460534627955326,50.04444329910598 L 4.947420023223913,50.16157671683686" fill="none" stroke="rgb(0,178,178)" stroke-width="0.1"/>
  <path d="M 4.947420023223913,50.16157671683686 L 5.434345870936113,50.278541859101324" fill="none" stroke="rgb(0,178,178)" stroke-width="0.1"/>
  <path d="M 5.434345870936113,50.278541859101324 L 5.921312112933151,50.39533871192907" fill="none" stroke="rgb(0,178,178)" stroke-width="0.1"/>
  <path d="M 5.921312112933151,50.39533871192907 L 6.408318691051591,50.51196726136982" fill="none" stroke="rgb(0,178,178)" stroke-width="0.1"/>
  <path d="M 6.408318691051591,50.51196726136982 L 6.895365547122651,50.62842749349329" fill="none" stroke="rgb(0,178,178)" stroke-width="0.1"/>
  <path d="M 6.895365547122651,50.62842749349329 L 7.3824526229736875,50.74471939438945" fill="none" stroke="rgb(0,178,178)" stroke-width="0.1"/>
  <path d="M 7.3824526229736875,50.74471939438945 L 7.869579860426597,50.86084295016849" fill="none" stroke="rgb(0,178,178)" stroke-width="0.1"/>
  <path d="M 7.869579860426597,50.86084295016849 L 8.35674720129839,50.97679814696039" fill="none" stroke="rgb(0,178,178)" stroke-width="0.1"/>
  <path d="M 8.35674720129839,50.97679814696039 L 8.843954587401754,51.09258497091537" fill="none" stroke="rgb(0,178,178)" stroke-width="0.1"/>
  <path d="M 8.843954587401754,51.09258497091537 L 9.331201960543922,51.208203408203644" fill="none" stroke="rgb(0,178,178)" stroke-width="0.1"/>
  <path d="M 9.331201960543922,51.208203408203644 L 9.818489262528715,51.323653445016134" fill="none" stroke="rgb(0,178,178)" stroke-width="0.1"/>
  <path d="M 9.818489262528715,51.323653445016134 L 10.305816435152792,51.43893506756285" fill="none" stroke="rgb(0,178,178)" stroke-width="0.1"/>
  <path d="M 10.305816435152792,51.43893506756285 L 10.793183420210767,51.554048262075185" fill="none" stroke="rgb(0,178,178)" stroke-width="0.1"/>
  <path d="M 10.793183420210767,51.554048262075185 L 11.280590159490657,51.66899301480316" fill="none" stroke="rgb(0,178,178)" stroke-width="0.1"/>
  <path d="M 11.280590159490657,51.66899301480316 L 11.76803659477639,51.783769312018194" fill="none" stroke="rgb(0,178,178)" stroke-width="0.1"/>
  <path d="M 11.76803659477639,51.783769312018194 L 12.25552266784723,51.898377140011235" fill="none" stroke="rgb(0,178,178)" stroke-width="0.1"/>
  <path d="M 12.25552266784723,51.898377140011235 L 12.743048320476987,52.01281648509325" fill="none" stroke="rgb(0,178,178)" stroke-width="0.1"/>
  <path d="M 12.743048320476987,52.01281648509325 L 13.230613494435943,52.12708733359591" fill="none" stroke="rgb(0,178,178)" stroke-width="0.1"/>
  <path d="M 13.230613494435943,52.12708733359591 L 13.718218131488925,52.24118967187064" fill="none" stroke="rgb(0,178,178)" stroke-width="0.1"/>
  <path d="M 13.718218131488925,52.24118967187064 L 14.205862173395985,52.35512348628845" fill="none" stroke="rgb(0,178,178)" stroke-width="0.1"/>
  <path d="M 14.205862173395985,52.35512348628845 L 14.693545561912515,52.468888763241466" fill="none" stroke="rgb(0,178,178)" stroke-width="0.1"/>
  <path d="M 14.693545561912515,52.468888763241466 L 15.18126823878913,52.58248548914139" fill="none" stroke="rgb(0,178,178)" stroke-width="0.1"/>
  <path d="M 15.18126823878913,52.58248548914139 L 15.669030145772581,52.69591365042015" fill="none" stroke="rgb(0,178,178)" stroke-width="0.1"/>
  <path d="M 15.669030145772581,52.69591365042015 L 16.156831224604275,52.80917323352992" fill="none" stroke="rgb(0,178,178)" stroke-width="0.1"/>
  <path d="M 16.156831224604275,52.80917323352992 L 16.64467141702005,52.92226422494264" fill="none" stroke="rgb(0,178,178)" stroke-width="0.1"/>
  <path d="M 16.64467141702005,52.92226422494264 L 17.132550664752785,53.03518661115095" fill="none" stroke="rgb(0,178,178)" stroke-width="0.1"/>
  <path d="M 17.132550664752785,53.03518661115095 L 17.620468909529222,53.147940378667045" fill="none" stroke="rgb(0,178,178)" stroke-width="0.1"/>
  <path d="M 17.620468909529222,53.147940378667045 L 18.108426093073263,53.26052551402381" fill="none" stroke="rgb(0,178,178)" stroke-width="0.1"/>
  <path d="M 18.108426093073263,53.26052551402381 L 18.596422157101983,53.372942003773915" fill="none" stroke="rgb(0,178,178)" stroke-width="0.1"/>
  <path d="M 18.596422157101983,53.372942003773915 L 19.084457043328825,53.48518983449026" fill="none" stroke="rgb(0,178,178)" stroke-width="0.1"/>
  <path d="M 19.084457043328825,53.48518983449026 L 19.572530693463136,53.59726899276575" fill="none" stroke="rgb(0,178,178)" stroke-width="0.1"/>
  <path d="M 19.572530693463136,53.59726899276575 L 20.06064304920858,53.70917946521399" fill="none" stroke="rgb(0,178,178)" stroke-width="0.1"/>
  <path d="M 20.06064304920858,53.70917946521399 L 20.548794052265634,53.82092123846792" fill="none" stroke="rgb(0,178,178)" stroke-width="0.1"/>
  <path d="M 20.548794052265634,53.82092123846792 L 21.03698364432819,53.932494299181144" fill="none" stroke="rgb(0,178,178)" stroke-width="0.1"/>
  <path d="M 21.03698364432819,53.932494299181144 L 21.52521176708683,54.0438986340273" fill="none" stroke="rgb(0,178,178)" stroke-width="0.1"/>
  <path d="M 21.52521176708683,54.0438986340273 L 22.01347836222783,54.15513422970025" fill="none" stroke="rgb(0,178,178)" stroke-width="0.1"/>
  <path d="M 22.01347836222783,54.15513422970025 L 22.50178337143211,54.26620107291387" fill="none" stroke="rgb(0,178,178)" stroke-width="0.1"/>
  <path d="M 22.50178337143211,54.26620107291387 L 22.9901267363756,54.37709915040227" fill="none" stroke="rgb(0,178,178)" stroke-width="0.1"/>
  <path d="M 22.9901267363756,54.37709915040227 L 23.478508398730924,54.48782844892003" fill="none" stroke="rgb(0,178,178)" stroke-width="0.1"/>
  <path d="M 23.478508398730924,54.48782844892003 L 23.966928300165137,54.598388955241035" fill="none" stroke="rgb(0,178,178)" stroke-width="0.1"/>
  <path d="M 23.966928300165137,54.598388955241035 L 24.45538638234177,54.708780656160116" fill="none" stroke="rgb(0,178,178)" stroke-width="0.1"/>
  <path d="M 24.45538638234177,54.708780656160116 L 24.94388258691822,54.819003538492325" fill="none" stroke="rgb(0,178,178)" stroke-width="0.1"/>
  <path d="M 24.94388258691822,54.819003538492325 L 25.43241685554824,54.929057589072045" fill="none" stroke="rgb(0,178,178)" stroke-width="0.1"/>
  <path d="M 25.43241685554824,54.929057589072045 L 25.92098912988172,55.0389427947548" fill="none" stroke="rgb(0,178,178)" stroke-width="0.1"/>
  <path d="M 25.92098912988172,55.0389427947548 L 26.409599351562406,55.14865914241523" fill="none" stroke="rgb(0,178,178)" stroke-width="0.1"/>
  <path d="M 26.409599351562406,55.14865914241523 L 26.898247462231552,55.25820661894977" fill="none" stroke="rgb(0,178,178)" stroke-width="0.1"/>
  <path d="M 26.898247462231552,55.25820661894977 L 27.3869334035237,55.36758521127285" fill="none" stroke="rgb(0,178,178)" stroke-width="0.1"/>
  <path d="M 27.3869334035237,55.36758521127285 L 27.875657117069863,55.47679490632095" fill="none" stroke="rgb(0,178,178)" stroke-width="0.1"/>
  <path d="M 27.875657117069863,55.47679490632095 L 28.364418544497426,55.58583569104985" fill="none" stroke="rgb(0,178,178)" stroke-width="0.1"/>
  <path d="M 28.364418544497426,55.58583569104985 L 28.853217627427853,55.6947075524356" fill="none" stroke="rgb(0,178,178)" stroke-width="0.1"/>
  <path d="M 28.853217627427853,55.6947075524356 L 29.342054307478747,55.80341047747447" fill="none" stroke="rgb(0,178,178)" stroke-width="0.1"/>
  <path d="M 29.342054307478747,55.80341047747447 L 29.830928526263165,55.91194445318297" fill="none" stroke="rgb(0,178,178)" stroke-width="0.1"/>
  <path d="M 29.830928526263165,55.91194445318297 L 30.319840225389612,56.02030946659761" fill="none" stroke="rgb(0,178,178)" stroke-width="0.1"/>
  <path d="M 30.319840225389612,56.02030946659761 L 30.80878934646273,56.128505504775376" fill="none" stroke="rgb(0,178,178)" stroke-width="0.1"/>
  <path d="M 30.80878934646273,56.128505504775376 L 31.297775831080912,56.23653255479303" fill="none" stroke="rgb(0,178,178)" stroke-width="0.1"/>
  <path d="M 31.297775831080912,56.23653255479303 L 31.786799620840497,56.344390603748025" fill="none" stroke="rgb(0,178,178)" stroke-width="0.1"/>
  <path d="M 31.786799620840497,56.344390603748025 L 32.27586065733192,56.452079638757596" fill="none" stroke="rgb(0,178,178)" stroke-width="0.1"/>
  <path d="M 32.27586065733192,56.452079638757596 L 32.76495888214072,56.559599646959214" fill="none" stroke="rgb(0,178,178)" stroke-width="0.1"/>
  <path d="M 32.76495888214072,56.559599646959214 L 33.25409423684994,56.66695061551104" fill="none" stroke="rgb(0,178,178)" stroke-width="0.1"/>
  <path d="M 33.25409423684994,56.66695061551104 L 33.7432666630358,56.77413253159057" fill="none" stroke="rgb(0,178,178)" stroke-width="0.1"/>
  <path d="M 33.7432666630358,56.77413253159057 L 34.23247610227179,56.88114538239597" fill="none" stroke="rgb(0,178,178)" stroke-width="0.1"/>
  <path d="M 34.23247610227179,56.88114538239597 L 34.72172249612652,56.98798915514567" fill="none" stroke="rgb(0,178,178)" stroke-width="0.1"/>
  <path d="M 34.72172249612652,56.98798915514567 L 35.21100578616404,57.09466383707809" fill="none" stroke="rgb(0,178,178)" stroke-width="0.1"/>
  <path d="M 35.21100578616404,57.09466383707809 L 35.70032591394374,57.201169415452114" fill="none" stroke="rgb(0,178,178)" stroke-width="0.1"/>
  <path d="M 35.70032591394374,57.201169415452114 L 36.18968282102094,57.30750587754642" fill="none" stroke="rgb(0,178,178)" stroke-width="0.1"/>
  <path d="M 36.18968282102094,57.30750587754642 L 36.67907644894706,57.41367321066059" fill="none" stroke="rgb(0,178,178)" stroke-width="0.1"/>
  <path d="M 36.67907644894706,57.41367321066059 L 37.16850673926865,57.51967140211332" fill="none" stroke="rgb(0,178,178)" stroke-width="0.1"/>
  <path d="M 37.16850673926865,57.51967140211332 L 37.65797363352692,57.62550043924443" fill="none" stroke="rgb(0,178,178)" stroke-width="0.1"/>
  <path d="M 37.65797363352692,57.62550043924443 L 38.147477073260575,57.73116030941355" fill="none" stroke="rgb(0,178,178)" stroke-width="0.1"/>
  <path d="M 38.147477073260575,57.73116030941355 L 38.637017000000014,57.83665100000002" fill="none" stroke="rgb(0,178,178)" stroke-width="0.1"/>
  <path d="M 82.63601700000004,66.599651 L 83.12805520872246,66.68966440257657" fill="none" stroke="rgb(0,178,178)" stroke-width="0.1"/>
  <path d="M 83.12805520872246,66.68966440257657 L 83.62012446132337,66.77950794508877" fill="none" stroke="rgb(0,178,178)" stroke-width="0.1"/>
  <path d="M 83.62012446132337,66.77950794508877 L 84.1122246991639,66.86918161683036" fill="none" stroke="rgb(0,178,178)" stroke-width="0.1"/>
  <path d="M 84.1122246991639,66.86918161683036 L 84.60435586360211,66.95868540711524" fill="none" stroke="rgb(0,178,178)" stroke-width="0.1"/>
  <path d="M 84.60435586360211,66.95868540711524 L 85.09651789599138,67.04801930527708" fill="none" stroke="rgb(0,178,178)" stroke-width="0.1"/>
  <path d="M 85.09651789599138,67.04801930527708 L 85.58871073768228,67.13718330067047" fill="none" stroke="rgb(0,178,178)" stroke-width="0.1"/>
  <path d="M 85.58871073768228,67.13718330067047 L 86.08093433002125,67.22617738267002" fill="none" stroke="rgb(0,178,178)" stroke-width="0.1"/>
  <path d="M 86.08093433002125,67.22617738267002 L 86.57318861435226,67.31500154067055" fill="none" stroke="rgb(0,178,178)" stroke-width="0.1"/>
  <path d="M 86.57318861435226,67.31500154067055 L 87.06547353201347,67.4036557640867" fill="none" stroke="rgb(0,178,178)" stroke-width="0.1"/>
  <path d="M 87.06547353201347,67.4036557640867 L 87.5577890243411,67.49214004235421" fill="none" stroke="rgb(0,178,178)" stroke-width="0.1"/>
  <path d="M 87.5577890243411,67.49214004235421 L 88.05013503266719,67.58045436492841" fill="none" stroke="rgb(0,178,178)" stroke-width="0.1"/>
  <path d="M 88.05013503266719,67.58045436492841 L 88.54251149832032,67.66859872128532" fill="none" stroke="rgb(0,178,178)" stroke-width="0.1"/>
  <path d="M 88.54251149832032,67.66859872128532 L 89.0349183626247,67.75657310092072" fill="none" stroke="rgb(0,178,178)" stroke-width="0.1"/>
  <path d="M 89.0349183626247,67.75657310092072 L 89.52735556690186,67.84437749335109" fill="none" stroke="rgb(0,178,178)" stroke-width="0.1"/>
  <path d="M 89.52735556690186,67.84437749335109 L 90.01982305246952,67.93201188811338" fill="none" stroke="rgb(0,178,178)" stroke-width="0.1"/>
  <path d="M 90.01982305246952,67.93201188811338 L 90.51232076064105,68.01947627476363" fill="none" stroke="rgb(0,178,178)" stroke-width="0.1"/>
  <path d="M 90.51232076064105,68.01947627476363 L 91.00484863272698,68.10677064287972" fill="none" stroke="rgb(0,178,178)" stroke-width="0.1"/>
  <path d="M 91.00484863272698,68.10677064287972 L 91.49740661003432,68.1938949820584" fill="none" stroke="rgb(0,178,178)" stroke-width="0.1"/>
  <path d="M 91.49740661003432,68.1938949820584 L 91.9899946338661,68.28084928191777" fill="none" stroke="rgb(0,178,178)" stroke-width="0.1"/>
  <path d="M 91.9899946338661,68.28084928191777 L 92.48261264552173,68.36763353209528" fill="none" stroke="rgb(0,178,178)" stroke-width="0.1"/>
  <path d="M 92.48261264552173,68.36763353209528 L 92.97526058629683,68.4542477222493" fill="none" stroke="rgb(0,178,178)" stroke-width="0.1"/>
  <path d="M 92.97526058629683,68.4542477222493 L 93.467938397485,68.54069184205821" fill="none" stroke="rgb(0,178,178)" stroke-width="0.1"/>
  <path d="M 93.467938397485,68.54069184205821 L 93.96064602037393,68.62696588122083" fill="none" stroke="rgb(0,178,178)" stroke-width="0.1"/>
  <path d="M 93.96064602037393,68.62696588122083 L 94.45338339624948,68.71306982945578" fill="none" stroke="rgb(0,178,178)" stroke-width="0.1"/>
  <path d="M 94.45338339624948,68.71306982945578 L 94.94615046639319,68.7990036765026" fill="none" stroke="rgb(0,178,178)" stroke-width="0.1"/>
  <path d="M 94.94615046639319,68.7990036765026 L 95.43894717208377,68.8847674121206" fill="none" stroke="rgb(0,178,178)" stroke-width="0.1"/>
  <path d="M 95.43894717208377,68.8847674121206 L 95.93177345459515,68.97036102608956" fill="none" stroke="rgb(0,178,178)" stroke-width="0.1"/>
  <path d="M 95.93177345459515,68.97036102608956 L 96.42462925519897,69.05578450820951" fill="none" stroke="rgb(0,178,178)" stroke-width="0.1"/>
  <path d="M 96.42462925519897,69.05578450820951 L 96.91751451516313,69.14103784830093" fill="none" stroke="rgb(0,178,178)" stroke-width="0.1"/>
  <path d="M 96.91751451516313,69.14103784830093 L 97.41042917575112,69.22612103620429" fill="none" stroke="rgb(0,178,178)" stroke-width="0.1"/>
  <path d="M 97.41042917575112,69.22612103620429 L 97.90337317822389,69.31103406178033" fill="none" stroke="rgb(0,178,178)" stroke-width="0.1"/>
  <path d="M 97.90337317822389,69.31103406178033 L 98.39634646383854,69.39577691491002" fill="none" stroke="rgb(0,178,178)" stroke-width="0.1"/>
  <path d="M 98.39634646383854,69.39577691491002 L 98.88934897384911,69.48034958549522" fill="none" stroke="rgb(0,178,178)" stroke-width="0.1"/>
  <path d="M 98.88934897384911,69.48034958549522 L 99.38238064950508,69.5647520634576" fill="none" stroke="rgb(0,178,178)" stroke-width="0.1"/>
  <path d="M 99.38238064950508,69.5647520634576 L 99.87544143205332,69.64898433873861" fill="none" stroke="rgb(0,178,178)" stroke-width="0.1"/>
  <path d="M 80.63601700000004,64.19865100000004 L 81.12863344158166,64.28961150926489" fill="none" stroke="rgb(0,178,178)" stroke-width="0.1"/>
  <path d="M 81.12863344158166,64.28961150926489 L 81.62128134369732,64.38040147182892" fill="none" stroke="rgb(0,178,178)" stroke-width="0.1"/>
  <path d="M 81.62128134369732,64.38040147182892 L 82.11396064730411,64.4710208768106" fill="none" stroke="rgb(0,178,178)" stroke-width="0.1"/>
  <path d="M 82.11396064730411,64.4710208768106 L 82.60667129335354,64.56146971334942" fill="none" stroke="rgb(0,178,178)" stroke-width="0.1"/>
  <path d="M 82.60667129335354,64.56146971334942 L 83.09941322279394,64.6517479706049" fill="none" stroke="rgb(0,178,178)" stroke-width="0.1"/>
  <path d="M 83.09941322279394,64.6517479706049 L 83.59218637657,64.74185563775723" fill="none" stroke="rgb(0,178,178)" stroke-width="0.1"/>
  <path d="M 83.59218637657,64.74185563775723 L 84.08499069562151,64.8317927040066" fill="none" stroke="rgb(0,178,178)" stroke-width="0.1"/>
  <path d="M 84.08499069562151,64.8317927040066 L 84.5778261208867,64.92155915857461" fill="none" stroke="rgb(0,178,178)" stroke-width="0.1"/>
  <path d="M 84.5778261208867,64.92155915857461 L 85.07069259329808,65.01115499070193" fill="none" stroke="rgb(0,178,178)" stroke-width="0.1"/>
  <path d="M 85.07069259329808,65.01115499070193 L 85.5635900537851,65.10058018965083" fill="none" stroke="rgb(0,178,178)" stroke-width="0.1"/>
  <path d="M 85.5635900537851,65.10058018965083 L 86.05651844327394,65.1898347447036" fill="none" stroke="rgb(0,178,178)" stroke-width="0.1"/>
  <path d="M 86.05651844327394,65.1898347447036 L 86.5494777026862,65.278918645163" fill="none" stroke="rgb(0,178,178)" stroke-width="0.1"/>
  <path d="M 86.5494777026862,65.278918645163 L 87.04246777294145,65.36783188035224" fill="none" stroke="rgb(0,178,178)" stroke-width="0.1"/>
  <path d="M 87.04246777294145,65.36783188035224 L 87.53548859495334,65.45657443961477" fill="none" stroke="rgb(0,178,178)" stroke-width="0.1"/>
  <path d="M 87.53548859495334,65.45657443961477 L 88.02854010963313,65.54514631231518" fill="none" stroke="rgb(0,178,178)" stroke-width="0.1"/>
  <path d="M 88.02854010963313,65.54514631231518 L 88.52162225788823,65.63354748783763" fill="none" stroke="rgb(0,178,178)" stroke-width="0.1"/>
  <path d="M 88.52162225788823,65.63354748783763 L 89.01473498062285,65.72177795558741" fill="none" stroke="rgb(0,178,178)" stroke-width="0.1"/>
  <path d="M 89.01473498062285,65.72177795558741 L 89.50787821873587,65.80983770498983" fill="none" stroke="rgb(0,178,178)" stroke-width="0.1"/>
  <path d="M 89.50787821873587,65.80983770498983 L 90.00105191312491,65.89772672549111" fill="none" stroke="rgb(0,178,178)" stroke-width="0.1"/>
  <path d="M 90.00105191312491,65.89772672549111 L 90.49425600468146,65.98544500655748" fill="none" stroke="rgb(0,178,178)" stroke-width="0.1"/>
  <path d="M 90.49425600468146,65.98544500655748 L 90.98749043429586,66.07299253767587" fill="none" stroke="rgb(0,178,178)" stroke-width="0.1"/>
  <path d="M 90.98749043429586,66.07299253767587 L 91.48075514285267,66.16036930835367" fill="none" stroke="rgb(0,178,178)" stroke-width="0.1"/>
  <path d="M 91.48075514285267,66.16036930835367 L 91.97405007123405,66.24757530811871" fill="none" stroke="rgb(0,178,178)" stroke-width="0.1"/>
  <path d="M 91.97405007123405,66.24757530811871 L 92.46737516031794,66.33461052651933" fill="none" stroke="rgb(0,178,178)" stroke-width="0.1"/>
  <path d="M 92.46737516031794,66.33461052651933 L 92.96073035097947,66.42147495312406" fill="none" stroke="rgb(0,178,178)" stroke-width="0.1"/>
  <path d="M 92.96073035097947,66.42147495312406 L 93.45411558408853,66.50816857752238" fill="none" stroke="rgb(0,178,178)" stroke-width="0.1"/>
  <path d="M 93.45411558408853,66.50816857752238 L 93.9475308005135,66.59469138932377" fill="none" stroke="rgb(0,178,178)" stroke-width="0.1"/>
  <path d="M 93.9475308005135,66.59469138932377 L 94.44097594111781,66.68104337815862" fill="none" stroke="rgb(0,178,178)" stroke-width="0.1"/>
  <path d="M 94.44097594111781,66.68104337815862 L 94.93445094676156,66.76722453367734" fill="none" stroke="rgb(0,178,178)" stroke-width="0.1"/>
  <path d="M 94.93445094676156,66.76722453367734 L 95.42795575830189,66.85323484555101" fill="none" stroke="rgb(0,178,178)" stroke-width="0.1"/>
  <path d="M 95.42795575830189,66.85323484555101 L 95.92149031659062,66.93907430347167" fill="none" stroke="rgb(0,178,178)" stroke-width="0.1"/>
  <path d="M 95.92149031659062,66.93907430347167 L 96.41505456247876,67.0247428971511" fill="none" stroke="rgb(0,178,178)" stroke-width="0.1"/>
  <path d="M 96.41505456247876,67.0247428971511 L 96.90864843681095,67.11024061632156" fill="none" stroke="rgb(0,178,178)" stroke-width="0.1"/>
  <path d="M 96.90864843681095,67.11024061632156 L 97.40227188043002,67.19556745073669" fill="none" stroke="rgb(0,178,178)" stroke-width="0.1"/>
  <path d="M 97.40227188043002,67.19556745073669 L 97.89592483417493,67.28072339016944" fill="none" stroke="rgb(0,178,178)" stroke-width="0.1"/>
  <path d="M 97.89592483417493,67.28072339016944 L 98.38960723888056,67.36570842441415" fill="none" stroke="rgb(0,178,178)" stroke-width="0.1"/>
  <path d="M 98.38960723888056,67.36570842441415 L 98.88331903537937,67.45052254328493" fill="none" stroke="rgb(0,178,178)" stroke-width="0.1"/>
  <path d="M 98.88331903537937,67.45052254328493 L 99.37706016449886,67.53516573661727" fill="none" stroke="rgb(0,178,178)" stroke-width="0.1"/>
  <path d="M 99.37706016449886,67.53516573661727 L 99.8708305670641,67.61963799426621" fill="none" stroke="rgb(0,178,178)" stroke-width="0.1"/>
 </g>
 <g id="layerA-WALL-STUD" inkscape:groupmode="layer" inkscape:label="A-WALL-STUD">
  <path d="M 40.637017000000014,100.0 L 40.637017000000014,92.29765100000003" fill="none" instance-id="-1" semantic-id="1" stroke="rgb(255,133,12)" stroke-width="0.1"/>
  <path d="M 40.637017000000014,92.29765100000003 L 38.637017000000014,92.29765100000003" fill="none" instance-id="-1" semantic-id="1" stroke="rgb(255,133,12)" stroke-width="0.1"/>
  <path d="M 38.637017000000014,92.29765100000003 L 38.637017000000014,100.0" fill="none" instance-id="-1" semantic-id="1" stroke="rgb(255,133,12)" stroke-width="0.1"/>
  <path d="M 38.637017000000014,74.29765100000003 L 38.637017000000014,77.29765100000003" fill="none" instance-id="-1" semantic-id="1" stroke="rgb(255,133,12)" stroke-width="0.1"/>
  <path d="M 38.637017000000014,77.29765100000003 L 40.637017000000014,77.29765100000003" fill="none" instance-id="-1" semantic-id="1" stroke="rgb(255,133,12)" stroke-width="0.1"/>
  <path d="M 40.637017000000014,77.29765100000003 L 40.637017000000014,74.29765100000003" fill="none" instance-id="-1" semantic-id="1" stroke="rgb(255,133,12)" stroke-width="0.1"/>
 </g>
 <g id="layerA-WIN" inkscape:groupmode="layer" inkscape:label="A-WIN">
  <path d="M 42.637017000000014,72.29765100000003 L 60.637017000000014,72.29765100000003" fill="none" instance-id="4" semantic-id="4" stroke="rgb(255,133,12)" stroke-width="0.1"/>
  <path d="M 60.637017000000014,72.29765100000003 L 78.63701700000001,72.29765100000003" fill="none" instance-id="5" semantic-id="4" stroke="rgb(255,133,12)" stroke-width="0.1"/>
  <path d="M 39.637017000000014,92.29765100000003 L 46.950017,92.29765100000003" fill="none" instance-id="3" semantic-id="4" stroke="rgb(255,133,12)" stroke-width="0.1"/>
  <path d="M 39.637017000000014,91.92265100000003 L 46.950017,91.92265100000003" fill="none" instance-id="3" semantic-id="4" stroke="rgb(255,133,12)" stroke-width="0.1"/>
  <path d="M 39.637017000000014,92.29765100000003 L 39.637017000000014,91.92265100000003" fill="none" instance-id="3" semantic-id="4" stroke="rgb(255,133,12)" stroke-width="0.1"/>
  <path d="M 46.950017,91.92265100000003 L 46.950017,92.29765100000003" fill="none" instance-id="3" semantic-id="4" stroke="rgb(255,133,12)" stroke-width="0.1"/>
  <path d="M 39.637017000000014,77.67265100000003 L 46.950017,77.67265100000003" fill="none" instance-id="3" semantic-id="4" stroke="rgb(255,133,12)" stroke-width="0.1"/>
  <path d="M 39.637017000000014,77.29765100000003 L 46.950017,77.29765100000003" fill="none" instance-id="3" semantic-id="4" stroke="rgb(255,133,12)" stroke-width="0.1"/>
  <path d="M 46.950017,77.67265100000003 L 46.950017,77.29765100000003" fill="none" instance-id="3" semantic-id="4" stroke="rgb(255,133,12)" stroke-width="0.1"/>
  <path d="M 39.637017000000014,77.29765100000003 L 39.637017000000014,77.67265100000003" fill="none" instance-id="3" semantic-id="4" stroke="rgb(255,133,12)" stroke-width="0.1"/>
  <path d="M 60.637017000000014,73.29765100000003 L 60.637017000000014,64.522651" fill="none" instance-id="4" semantic-id="4" stroke="rgb(255,133,12)" stroke-width="0.1"/>
  <path d="M 60.18701699999997,73.29765100000003 L 60.18701699999997,64.522651" fill="none" instance-id="4" semantic-id="4" stroke="rgb(255,133,12)" stroke-width="0.1"/>
  <path d="M 60.637017000000014,73.29765100000003 L 60.18701699999997,73.29765100000003" fill="none" instance-id="4" semantic-id="4" stroke="rgb(255,133,12)" stroke-width="0.1"/>
  <path d="M 60.18701699999997,64.522651 L 60.637017000000014,64.522651" fill="none" instance-id="4" semantic-id="4" stroke="rgb(255,133,12)" stroke-width="0.1"/>
  <path d="M 43.087016999999946,73.29765100000003 L 43.087016999999946,64.522651" fill="none" instance-id="4" semantic-id="4" stroke="rgb(255,133,12)" stroke-width="0.1"/>
  <path d="M 42.637017000000014,73.29765100000003 L 42.637017000000014,64.522651" fill="none" instance-id="4" semantic-id="4" stroke="rgb(255,133,12)" stroke-width="0.1"/>
  <path d="M 43.087016999999946,64.522651 L 42.637017000000014,64.522651" fill="none" instance-id="4" semantic-id="4" stroke="rgb(255,133,12)" stroke-width="0.1"/>
  <path d="M 42.637017000000014,73.29765100000003 L 43.087016999999946,73.29765100000003" fill="none" instance-id="4" semantic-id="4" stroke="rgb(255,133,12)" stroke-width="0.1"/>
  <path d="M 78.63701700000001,73.29765100000003 L 78.63701700000001,64.522651" fill="none" instance-id="5" semantic-id="4" stroke="rgb(255,133,12)" stroke-width="0.1"/>
  <path d="M 78.18701699999997,73.29765100000003 L 78.18701699999997,64.522651" fill="none" instance-id="5" semantic-id="4" stroke="rgb(255,133,12)" stroke-width="0.1"/>
  <path d="M 78.63701700000001,73.29765100000003 L 78.18701699999997,73.29765100000003" fill="none" instance-id="5" semantic-id="4" stroke="rgb(255,133,12)" stroke-width="0.1"/>
  <path d="M 78.18701699999997,64.522651 L 78.63701700000001,64.522651" fill="none" instance-id="5" semantic-id="4" stroke="rgb(255,133,12)" stroke-width="0.1"/>
  <path d="M 61.087016999999946,73.29765100000003 L 61.087016999999946,64.522651" fill="none" instance-id="4" semantic-id="4" stroke="rgb(255,133,12)" stroke-width="0.1"/>
  <path d="M 60.637017000000014,73.29765100000003 L 60.637017000000014,64.522651" fill="none" instance-id="4" semantic-id="4" stroke="rgb(255,133,12)" stroke-width="0.1"/>
  <path d="M 61.087016999999946,64.522651 L 60.637017000000014,64.522651" fill="none" instance-id="4" semantic-id="4" stroke="rgb(255,133,12)" stroke-width="0.1"/>
  <path d="M 60.637017000000014,73.29765100000003 L 61.087016999999946,73.29765100000003" fill="none" instance-id="4" semantic-id="4" stroke="rgb(255,133,12)" stroke-width="0.1"/>
  <path d="M 46.948016999999936,91.92265100000003 A 7.3125,7.3125 0.0 0,0 39.637017000000014,84.79765100000003" fill="none" instance-id="3" semantic-id="4" stroke="rgb(255,133,12)" stroke-width="0.1"/>
  <path d="M 39.637017000000014,84.79765100000003 A 7.3125,7.3125 0.0 0,0 46.948016999999936,77.67265100000003" fill="none" instance-id="3" semantic-id="4" stroke="rgb(255,133,12)" stroke-width="0.1"/>
  <path d="M 60.18701699999997,64.52565100000004 A 8.775,8.775 0.0 0,0 51.637017000000014,73.29765100000003" fill="none" instance-id="4" semantic-id="4" stroke="rgb(255,133,12)" stroke-width="0.1"/>
  <path d="M 51.637017000000014,73.29765100000003 A 8.775,8.775 0.0 0,0 43.087016999999946,64.52565100000004" fill="none" instance-id="4" semantic-id="4" stroke="rgb(255,133,12)" stroke-width="0.1"/>
  <path d="M 78.18701699999997,64.52565100000004 A 8.775,8.775 0.0 0,0 69.63701700000001,73.29765100000003" fill="none" instance-id="5" semantic-id="4" stroke="rgb(255,133,12)" stroke-width="0.1"/>
  <path d="M 69.63701700000001,73.29765100000003 A 8.775,8.775 0.0 0,0 61.087016999999946,64.52565100000004" fill="none" instance-id="5" semantic-id="4" stroke="rgb(255,133,12)" stroke-width="0.1"/>
 </g>
 <g id="layerA-WIN-TEXT" inkscape:groupmode="layer" inkscape:label="A-WIN-TEXT">
  <text fill="rgb(0,0,0)" font-family="Noto Sans CJK SC" font-size="2" transform="rotate(-90.0,37.540017000000034,97.81165100000004)" x="37.540017000000034" y="97.81165100000004">
   FHM1521
  </text>
  <text fill="rgb(0,0,0)" font-family="Noto Sans CJK SC" font-size="2" transform="rotate(-0.0,44.977017000000046,82.87065100000001)" x="44.977017000000046" y="82.87065100000001">
   LM1830
  </text>
  <text fill="rgb(0,0,0)" font-family="Noto Sans CJK SC" font-size="2" transform="rotate(-0.0,62.977017000000046,82.87065100000001)" x="62.977017000000046" y="82.87065100000001">
   LM1830
  </text>
 </g>
 <g id="layerA-" inkscape:groupmode="layer" inkscape:label="A-">
  <path d="M 100.0,17.020509994448503 L 88.78701699999999,65.68065100000001" fill="none" instance-id="-1" semantic-id="33" stroke="rgb(255,73,12)" stroke-width="0.1"/>
  <path d="M 100.0,12.567704182568832 L 87.801017,65.50365100000005" fill="none" instance-id="-1" semantic-id="33" stroke="rgb(255,73,12)" stroke-width="0.1"/>
 </g>
</svg>