<?xml version="1.0" encoding="utf-8"?>
<svg style="background-color: #000;" version="1.1" viewBox="0 0 100.00000000000011 100.0" xmlns="http://www.w3.org/2000/svg" xmlns:inkscape="http://www.inkscape.org/namespaces/inkscape">
 <g id="layerA-ANNO-DIMS" inkscape:groupmode="layer" inkscape:label="A-ANNO-DIMS">
  <path d="M 73.38901699999997,0.4466510000000312 L 71.97801700000002,0.4026510000000485" fill="none" stroke="rgb(0,178,0)" stroke-width="0.1"/>
  <path d="M 75.729017,0.5196510000000103 L 75.7451083319994,0.0" fill="none" stroke="rgb(0,178,0)" stroke-width="0.1"/>
  <path d="M 73.13901699999997,66.16365100000007 L 73.13901699999997,79.57965100000001" fill="none" stroke="rgb(0,178,0)" stroke-width="0.1"/>
  <path d="M 83.63901699999997,66.16365100000007 L 83.63901699999997,79.57965100000001" fill="none" stroke="rgb(0,178,0)" stroke-width="0.1"/>
  <path d="M 73.13901699999997,75.82965100000001 L 83.63901699999997,75.82965100000001" fill="none" stroke="rgb(0,178,0)" stroke-width="0.1"/>
  <path d="M 71.13601700000004,66.16365100000007 L 71.13601700000004,79.57965100000001" fill="none" stroke="rgb(0,178,0)" stroke-width="0.1"/>
  <path d="M 73.13901699999997,66.16365100000007 L 73.13901699999997,79.57965100000001" fill="none" stroke="rgb(0,178,0)" stroke-width="0.1"/>
  <path d="M 71.13601700000004,75.82965100000001 L 69.63601700000004,75.82965100000001" fill="none" stroke="rgb(0,178,0)" stroke-width="0.1"/>
  <path d="M 73.13901699999997,75.82965100000001 L 74.63901699999997,75.82965100000001" fill="none" stroke="rgb(0,178,0)" stroke-width="0.1"/>
  <path d="M 71.13601700000004,75.82965100000001 L 73.13901699999997,75.82965100000001" fill="none" stroke="rgb(0,178,0)" stroke-width="0.1"/>
  <path d="M 39.88601700000004,66.16365100000007 L 39.88601700000004,79.57965100000001" fill="none" stroke="rgb(0,178,0)" stroke-width="0.1"/>
  <path d="M 71.13601700000004,66.16365100000007 L 71.13601700000004,79.57965100000001" fill="none" stroke="rgb(0,178,0)" stroke-width="0.1"/>
  <path d="M 39.88601700000004,75.82965100000001 L 71.13601700000004,75.82965100000001" fill="none" stroke="rgb(0,178,0)" stroke-width="0.1"/>
  <path d="M 37.88601700000004,66.16365100000007 L 37.88601700000004,79.57965100000001" fill="none" stroke="rgb(0,178,0)" stroke-width="0.1"/>
  <path d="M 39.88601700000004,66.16365100000007 L 39.88601700000004,79.57965100000001" fill="none" stroke="rgb(0,178,0)" stroke-width="0.1"/>
  <path d="M 37.88601700000004,75.82965100000001 L 36.38601700000004,75.82965100000001" fill="none" stroke="rgb(0,178,0)" stroke-width="0.1"/>
  <path d="M 39.88601700000004,75.82965100000001 L 41.38601700000004,75.82965100000001" fill="none" stroke="rgb(0,178,0)" stroke-width="0.1"/>
  <path d="M 37.88601700000004,75.82965100000001 L 39.88601700000004,75.82965100000001" fill="none" stroke="rgb(0,178,0)" stroke-width="0.1"/>
  <text fill="rgb(0,178,0)" font-family="Noto Sans CJK SC" font-size="2" transform="rotate(-0.0,82.58901700000001,73.93565100000001)" x="82.58901700000001" y="73.93565100000001">
   1050
  </text>
  <text fill="rgb(0,178,0)" font-family="Noto Sans CJK SC" font-size="2" transform="rotate(-0.0,67.63601700000004,74.32965100000001)" x="67.63601700000004" y="74.32965100000001">
   200
  </text>
  <text fill="rgb(0,178,0)" font-family="Noto Sans CJK SC" font-size="2" transform="rotate(-0.0,49.51101700000004,74.32965100000001)" x="49.51101700000004" y="74.32965100000001">
   3125
  </text>
  <text fill="rgb(0,178,0)" font-family="Noto Sans CJK SC" font-size="2" transform="rotate(-0.0,29.051017,73.93565100000001)" x="29.051017" y="73.93565100000001">
   200
  </text>
 </g>
 <g id="layerA-DIM_SYMB" inkscape:groupmode="layer" inkscape:label="A-DIM_SYMB">
  <path d="M 96.19901700000003,43.29765099999997 L 96.19901700000003,70.29765099999997" fill="none" stroke="rgb(0,178,0)" stroke-width="0.1"/>
  <path d="M 96.19901700000003,70.29765099999997 L 100.00000000000011,70.29765099999997" fill="none" stroke="rgb(0,178,0)" stroke-width="0.1"/>
 </g>
 <g id="layerA-DOTE" inkscape:groupmode="layer" inkscape:label="A-DOTE">
  <path d="M 83.63901699999997,100.0 L 83.63901699999997,0.0" fill="none" stroke="rgb(107,53,53)" stroke-width="0.1"/>
  <path d="M 0.0,87.29765099999997 L 100.00000000000011,87.29765099999997" fill="none" stroke="rgb(107,53,53)" stroke-width="0.1"/>
  <path d="M 0.06568950336475154,16.166274325111658 L 0.5641873049730748,16.207672926728378" fill="none" stroke="rgb(107,53,53)" stroke-width="0.1"/>
  <path d="M 0.5641873049730748,16.207672926728378 L 1.06269897658035,16.24890417332483" fill="none" stroke="rgb(107,53,53)" stroke-width="0.1"/>
  <path d="M 1.06269897658035,16.24890417332483 L 1.5612244620012916,16.289968060253727" fill="none" stroke="rgb(107,53,53)" stroke-width="0.1"/>
  <path d="M 1.5612244620012916,16.289968060253727 L 2.059763705051523,16.33086458288733" fill="none" stroke="rgb(107,53,53)" stroke-width="0.1"/>
  <path d="M 2.059763705051523,16.33086458288733 L 2.5583166495425758,16.37159373661632" fill="none" stroke="rgb(107,53,53)" stroke-width="0.1"/>
  <path d="M 2.5583166495425758,16.37159373661632 L 3.056883239286435,16.412155516850476" fill="none" stroke="rgb(107,53,53)" stroke-width="0.1"/>
  <path d="M 3.056883239286435,16.412155516850476 L 3.555463418091904,16.452549919018225" fill="none" stroke="rgb(107,53,53)" stroke-width="0.1"/>
  <path d="M 3.555463418091904,16.452549919018225 L 4.054057129767557,16.49277693856709" fill="none" stroke="rgb(107,53,53)" stroke-width="0.1"/>
  <path d="M 4.054057129767557,16.49277693856709 L 4.552664318120037,16.532836570963013" fill="none" stroke="rgb(107,53,53)" stroke-width="0.1"/>
  <path d="M 4.552664318120037,16.532836570963013 L 5.05128492695394,16.57272881169149" fill="none" stroke="rgb(107,53,53)" stroke-width="0.1"/>
  <path d="M 5.05128492695394,16.57272881169149 L 5.549918900073067,16.612453656256434" fill="none" stroke="rgb(107,53,53)" stroke-width="0.1"/>
  <path d="M 5.549918900073067,16.612453656256434 L 6.048566181279625,16.652011100180403" fill="none" stroke="rgb(107,53,53)" stroke-width="0.1"/>
  <path d="M 6.048566181279625,16.652011100180403 L 6.547226714373323,16.691401139005507" fill="none" stroke="rgb(107,53,53)" stroke-width="0.1"/>
  <path d="M 6.547226714373323,16.691401139005507 L 7.0459004431539825,16.73062376829205" fill="none" stroke="rgb(107,53,53)" stroke-width="0.1"/>
  <path d="M 7.0459004431539825,16.73062376829205 L 7.544587311419377,16.769678983619656" fill="none" stroke="rgb(107,53,53)" stroke-width="0.1"/>
  <path d="M 7.544587311419377,16.769678983619656 L 8.043287262964668,16.808566780586602" fill="none" stroke="rgb(107,53,53)" stroke-width="0.1"/>
  <path d="M 8.043287262964668,16.808566780586602 L 8.542000241584788,16.847287154810033" fill="none" stroke="rgb(107,53,53)" stroke-width="0.1"/>
  <path d="M 8.542000241584788,16.847287154810033 L 9.040726191073304,16.885840101926192" fill="none" stroke="rgb(107,53,53)" stroke-width="0.1"/>
  <path d="M 9.040726191073304,16.885840101926192 L 9.539465055221171,16.92422561758974" fill="none" stroke="rgb(107,53,53)" stroke-width="0.1"/>
  <path d="M 9.539465055221171,16.92422561758974 L 10.038216777818775,16.96244369747467" fill="none" stroke="rgb(107,53,53)" stroke-width="0.1"/>
  <path d="M 10.038216777818775,16.96244369747467 L 10.536981302655363,17.000494337273608" fill="none" stroke="rgb(107,53,53)" stroke-width="0.1"/>
  <path d="M 10.536981302655363,17.000494337273608 L 11.035758573517455,17.038377532698064" fill="none" stroke="rgb(107,53,53)" stroke-width="0.1"/>
  <path d="M 11.035758573517455,17.038377532698064 L 11.534548534191686,17.07609327947864" fill="none" stroke="rgb(107,53,53)" stroke-width="0.1"/>
  <path d="M 11.534548534191686,17.07609327947864 L 12.03335112846139,17.113641573364134" fill="none" stroke="rgb(107,53,53)" stroke-width="0.1"/>
  <path d="M 12.03335112846139,17.113641573364134 L 12.532166300110589,17.151022410123346" fill="none" stroke="rgb(107,53,53)" stroke-width="0.1"/>
  <path d="M 12.532166300110589,17.151022410123346 L 13.030993992920799,17.188235785542815" fill="none" stroke="rgb(107,53,53)" stroke-width="0.1"/>
  <path d="M 13.030993992920799,17.188235785542815 L 13.529834150671718,17.225281695428862" fill="none" stroke="rgb(107,53,53)" stroke-width="0.1"/>
  <path d="M 13.529834150671718,17.225281695428862 L 14.028686717142705,17.262160135605768" fill="none" stroke="rgb(107,53,53)" stroke-width="0.1"/>
  <path d="M 14.028686717142705,17.262160135605768 L 14.527551636110388,17.298871101917598" fill="none" stroke="rgb(107,53,53)" stroke-width="0.1"/>
  <path d="M 14.527551636110388,17.298871101917598 L 15.026428851351284,17.335414590226833" fill="none" stroke="rgb(107,53,53)" stroke-width="0.1"/>
  <path d="M 15.026428851351284,17.335414590226833 L 15.525318306640088,17.371790596414826" fill="none" stroke="rgb(107,53,53)" stroke-width="0.1"/>
  <path d="M 15.525318306640088,17.371790596414826 L 16.02421994574945,17.407999116381575" fill="none" stroke="rgb(107,53,53)" stroke-width="0.1"/>
  <path d="M 16.02421994574945,17.407999116381575 L 16.523133712451568,17.444040146046632" fill="none" stroke="rgb(107,53,53)" stroke-width="0.1"/>
  <path d="M 16.523133712451568,17.444040146046632 L 17.02205955051693,17.479913681347966" fill="none" stroke="rgb(107,53,53)" stroke-width="0.1"/>
  <path d="M 17.02205955051693,17.479913681347966 L 17.520997403714546,17.51561971824242" fill="none" stroke="rgb(107,53,53)" stroke-width="0.1"/>
  <path d="M 17.520997403714546,17.51561971824242 L 18.019947215812408,17.55115825270593" fill="none" stroke="rgb(107,53,53)" stroke-width="0.1"/>
  <path d="M 18.019947215812408,17.55115825270593 L 18.518908930577027,17.58652928073286" fill="none" stroke="rgb(107,53,53)" stroke-width="0.1"/>
  <path d="M 18.518908930577027,17.58652928073286 L 19.017882491772866,17.621732798336893" fill="none" stroke="rgb(107,53,53)" stroke-width="0.1"/>
  <path d="M 19.017882491772866,17.621732798336893 L 19.516867843164164,17.656768801550356" fill="none" stroke="rgb(107,53,53)" stroke-width="0.1"/>
  <path d="M 19.516867843164164,17.656768801550356 L 20.01586492851345,17.691637286425134" fill="none" stroke="rgb(107,53,53)" stroke-width="0.1"/>
  <path d="M 20.01586492851345,17.691637286425134 L 20.51487369158133,17.72633824903039" fill="none" stroke="rgb(107,53,53)" stroke-width="0.1"/>
  <path d="M 20.51487369158133,17.72633824903039 L 21.013894076128054,17.76087168545621" fill="none" stroke="rgb(107,53,53)" stroke-width="0.1"/>
  <path d="M 21.013894076128054,17.76087168545621 L 21.512926025911497,17.79523759180995" fill="none" stroke="rgb(107,53,53)" stroke-width="0.1"/>
  <path d="M 21.512926025911497,17.79523759180995 L 22.011969484688848,17.829435964218533" fill="none" stroke="rgb(107,53,53)" stroke-width="0.1"/>
  <path d="M 22.011969484688848,17.829435964218533 L 22.511024396217067,17.863466798827744" fill="none" stroke="rgb(107,53,53)" stroke-width="0.1"/>
  <path d="M 22.511024396217067,17.863466798827744 L 23.010090704249478,17.897330091802246" fill="none" stroke="rgb(107,53,53)" stroke-width="0.1"/>
  <path d="M 23.010090704249478,17.897330091802246 L 23.5091683525402,17.931025839325343" fill="none" stroke="rgb(107,53,53)" stroke-width="0.1"/>
  <path d="M 23.5091683525402,17.931025839325343 L 24.008257284840624,17.96455403759944" fill="none" stroke="rgb(107,53,53)" stroke-width="0.1"/>
  <path d="M 24.008257284840624,17.96455403759944 L 24.507357444901686,17.99791468284559" fill="none" stroke="rgb(107,53,53)" stroke-width="0.1"/>
  <path d="M 24.507357444901686,17.99791468284559 L 25.006468776473184,18.03110777130439" fill="none" stroke="rgb(107,53,53)" stroke-width="0.1"/>
  <path d="M 25.006468776473184,18.03110777130439 L 25.50559122330276,18.06413329923464" fill="none" stroke="rgb(107,53,53)" stroke-width="0.1"/>
  <path d="M 25.50559122330276,18.06413329923464 L 26.004724729137706,18.09699126291423" fill="none" stroke="rgb(107,53,53)" stroke-width="0.1"/>
  <path d="M 26.004724729137706,18.09699126291423 L 26.50386923772396,18.129681658639925" fill="none" stroke="rgb(107,53,53)" stroke-width="0.1"/>
  <path d="M 26.50386923772396,18.129681658639925 L 27.003024692805525,18.162204482727134" fill="none" stroke="rgb(107,53,53)" stroke-width="0.1"/>
  <path d="M 27.003024692805525,18.162204482727134 L 27.502191038125375,18.19455973151082" fill="none" stroke="rgb(107,53,53)" stroke-width="0.1"/>
  <path d="M 27.502191038125375,18.19455973151082 L 28.001368217426716,18.226747401343914" fill="none" stroke="rgb(107,53,53)" stroke-width="0.1"/>
  <path d="M 28.001368217426716,18.226747401343914 L 28.500556174449343,18.258767488599574" fill="none" stroke="rgb(107,53,53)" stroke-width="0.1"/>
  <path d="M 28.500556174449343,18.258767488599574 L 28.99975485293305,18.290619989668244" fill="none" stroke="rgb(107,53,53)" stroke-width="0.1"/>
  <path d="M 28.99975485293305,18.290619989668244 L 29.498964196616612,18.322304900960148" fill="none" stroke="rgb(107,53,53)" stroke-width="0.1"/>
  <path d="M 29.498964196616612,18.322304900960148 L 29.998184149236522,18.35382221890484" fill="none" stroke="rgb(107,53,53)" stroke-width="0.1"/>
  <path d="M 29.998184149236522,18.35382221890484 L 30.497414654529393,18.385171939949373" fill="none" stroke="rgb(107,53,53)" stroke-width="0.1"/>
  <path d="M 30.497414654529393,18.385171939949373 L 30.996655656229336,18.416354060561048" fill="none" stroke="rgb(107,53,53)" stroke-width="0.1"/>
  <path d="M 30.996655656229336,18.416354060561048 L 31.495907098070347,18.447368577225348" fill="none" stroke="rgb(107,53,53)" stroke-width="0.1"/>
  <path d="M 31.495907098070347,18.447368577225348 L 31.99516892378506,18.478215486446857" fill="none" stroke="rgb(107,53,53)" stroke-width="0.1"/>
  <path d="M 31.99516892378506,18.478215486446857 L 32.49444107710417,18.50889478474903" fill="none" stroke="rgb(107,53,53)" stroke-width="0.1"/>
  <path d="M 32.49444107710417,18.50889478474903 L 32.993723501758154,18.539406468673974" fill="none" stroke="rgb(107,53,53)" stroke-width="0.1"/>
  <path d="M 32.993723501758154,18.539406468673974 L 33.49301614147578,18.56975053478334" fill="none" stroke="rgb(107,53,53)" stroke-width="0.1"/>
  <path d="M 33.49301614147578,18.56975053478334 L 33.992318939984784,18.599926979656743" fill="none" stroke="rgb(107,53,53)" stroke-width="0.1"/>
  <path d="M 33.992318939984784,18.599926979656743 L 34.49163184101235,18.629935799893588" fill="none" stroke="rgb(107,53,53)" stroke-width="0.1"/>
  <path d="M 34.49163184101235,18.629935799893588 L 34.99095478828315,18.659776992111688" fill="none" stroke="rgb(107,53,53)" stroke-width="0.1"/>
  <path d="M 34.99095478828315,18.659776992111688 L 35.49028772552208,18.689450552947505" fill="none" stroke="rgb(107,53,53)" stroke-width="0.1"/>
  <path d="M 35.49028772552208,18.689450552947505 L 35.98963059645234,18.71895647905683" fill="none" stroke="rgb(107,53,53)" stroke-width="0.1"/>
  <path d="M 35.98963059645234,18.71895647905683 L 36.48898334479577,18.74829476711477" fill="none" stroke="rgb(107,53,53)" stroke-width="0.1"/>
  <path d="M 36.48898334479577,18.74829476711477 L 36.988345914273395,18.777465413813957" fill="none" stroke="rgb(107,53,53)" stroke-width="0.1"/>
  <path d="M 36.988345914273395,18.777465413813957 L 37.48771824860569,18.806468415867243" fill="none" stroke="rgb(107,53,53)" stroke-width="0.1"/>
  <path d="M 37.48771824860569,18.806468415867243 L 37.987100291510274,18.835303770005908" fill="none" stroke="rgb(107,53,53)" stroke-width="0.1"/>
  <path d="M 37.987100291510274,18.835303770005908 L 38.48649198670603,18.863971472980097" fill="none" stroke="rgb(107,53,53)" stroke-width="0.1"/>
  <path d="M 38.48649198670603,18.863971472980097 L 38.98589327790933,18.892471521558377" fill="none" stroke="rgb(107,53,53)" stroke-width="0.1"/>
  <path d="M 38.98589327790933,18.892471521558377 L 39.485304108835294,18.920803912529095" fill="none" stroke="rgb(107,53,53)" stroke-width="0.1"/>
  <path d="M 39.485304108835294,18.920803912529095 L 39.98472442319883,18.948968642699242" fill="none" stroke="rgb(107,53,53)" stroke-width="0.1"/>
  <path d="M 39.98472442319883,18.948968642699242 L 40.48415416471278,18.976965708894" fill="none" stroke="rgb(107,53,53)" stroke-width="0.1"/>
  <path d="M 40.48415416471278,18.976965708894 L 40.98359327708977,19.00479510795833" fill="none" stroke="rgb(107,53,53)" stroke-width="0.1"/>
  <path d="M 40.98359327708977,19.00479510795833 L 41.48304170404117,19.03245683675584" fill="none" stroke="rgb(107,53,53)" stroke-width="0.1"/>
  <path d="M 41.48304170404117,19.03245683675584 L 41.982499389277336,19.059950892168786" fill="none" stroke="rgb(107,53,53)" stroke-width="0.1"/>
  <path d="M 41.982499389277336,19.059950892168786 L 42.48196627650725,19.087277271098742" fill="none" stroke="rgb(107,53,53)" stroke-width="0.1"/>
  <path d="M 42.48196627650725,19.087277271098742 L 42.98144230943865,19.11443597046525" fill="none" stroke="rgb(107,53,53)" stroke-width="0.1"/>
  <path d="M 42.98144230943865,19.11443597046525 L 43.48092743177881,19.141426987208092" fill="none" stroke="rgb(107,53,53)" stroke-width="0.1"/>
  <path d="M 43.48092743177881,19.141426987208092 L 43.98042158723456,19.16825031828523" fill="none" stroke="rgb(107,53,53)" stroke-width="0.1"/>
  <path d="M 43.98042158723456,19.16825031828523 L 44.47992471951011,19.19490596067328" fill="none" stroke="rgb(107,53,53)" stroke-width="0.1"/>
  <path d="M 44.47992471951011,19.19490596067328 L 44.979436772309896,19.221393911367954" fill="none" stroke="rgb(107,53,53)" stroke-width="0.1"/>
  <path d="M 44.979436772309896,19.221393911367954 L 45.47895768933711,19.247714167384288" fill="none" stroke="rgb(107,53,53)" stroke-width="0.1"/>
  <path d="M 45.47895768933711,19.247714167384288 L 45.97848741429334,19.273866725755738" fill="none" stroke="rgb(107,53,53)" stroke-width="0.1"/>
  <path d="M 45.97848741429334,19.273866725755738 L 46.47802589087996,19.29985158353486" fill="none" stroke="rgb(107,53,53)" stroke-width="0.1"/>
  <path d="M 46.47802589087996,19.29985158353486 L 46.977573062797205,19.32566873779308" fill="none" stroke="rgb(107,53,53)" stroke-width="0.1"/>
  <path d="M 46.977573062797205,19.32566873779308 L 47.47712887374371,19.3513181856207" fill="none" stroke="rgb(107,53,53)" stroke-width="0.1"/>
  <path d="M 47.47712887374371,19.3513181856207 L 47.97669326741777,19.376799924126658" fill="none" stroke="rgb(107,53,53)" stroke-width="0.1"/>
  <path d="M 47.97669326741777,19.376799924126658 L 48.47626618751656,19.40211395043923" fill="none" stroke="rgb(107,53,53)" stroke-width="0.1"/>
  <path d="M 48.47626618751656,19.40211395043923 L 48.97584757773632,19.427260261705783" fill="none" stroke="rgb(107,53,53)" stroke-width="0.1"/>
  <path d="M 48.97584757773632,19.427260261705783 L 49.47543738177228,19.45223885509165" fill="none" stroke="rgb(107,53,53)" stroke-width="0.1"/>
  <path d="M 49.47543738177228,19.45223885509165 L 49.975035543318995,19.477049727782173" fill="none" stroke="rgb(107,53,53)" stroke-width="0.1"/>
  <path d="M 49.975035543318995,19.477049727782173 L 50.4746420060693,19.501692876980655" fill="none" stroke="rgb(107,53,53)" stroke-width="0.1"/>
  <path d="M 50.4746420060693,19.501692876980655 L 50.974256713715704,19.526168299910182" fill="none" stroke="rgb(107,53,53)" stroke-width="0.1"/>
  <path d="M 50.974256713715704,19.526168299910182 L 51.473879609950245,19.550475993811574" fill="none" stroke="rgb(107,53,53)" stroke-width="0.1"/>
  <path d="M 51.473879609950245,19.550475993811574 L 51.973510638462585,19.574615955945887" fill="none" stroke="rgb(107,53,53)" stroke-width="0.1"/>
  <path d="M 51.973510638462585,19.574615955945887 L 52.47314974294329,19.598588183592142" fill="none" stroke="rgb(107,53,53)" stroke-width="0.1"/>
  <path d="M 52.47314974294329,19.598588183592142 L 52.972796867080206,19.622392674048683" fill="none" stroke="rgb(107,53,53)" stroke-width="0.1"/>
  <path d="M 52.972796867080206,19.622392674048683 L 53.47245195456196,19.646029424632957" fill="none" stroke="rgb(107,53,53)" stroke-width="0.1"/>
  <path d="M 53.47245195456196,19.646029424632957 L 53.97211494907447,19.66949843268037" fill="none" stroke="rgb(107,53,53)" stroke-width="0.1"/>
  <path d="M 53.97211494907447,19.66949843268037 L 54.47178579430465,19.692799695546114" fill="none" stroke="rgb(107,53,53)" stroke-width="0.1"/>
  <path d="M 54.47178579430465,19.692799695546114 L 54.97146443393774,19.71593321060425" fill="none" stroke="rgb(107,53,53)" stroke-width="0.1"/>
  <path d="M 54.97146443393774,19.71593321060425 L 55.47115081165737,19.738898975247253" fill="none" stroke="rgb(107,53,53)" stroke-width="0.1"/>
  <path d="M 55.47115081165737,19.738898975247253 L 55.97084487114728,19.76169698688716" fill="none" stroke="rgb(107,53,53)" stroke-width="0.1"/>
  <path d="M 55.97084487114728,19.76169698688716 L 56.47054655609031,19.78432724295442" fill="none" stroke="rgb(107,53,53)" stroke-width="0.1"/>
  <path d="M 56.47054655609031,19.78432724295442 L 56.97025581016749,19.806789740898125" fill="none" stroke="rgb(107,53,53)" stroke-width="0.1"/>
  <path d="M 56.97025581016749,19.806789740898125 L 57.469972577059934,19.829084478187156" fill="none" stroke="rgb(107,53,53)" stroke-width="0.1"/>
  <path d="M 57.469972577059934,19.829084478187156 L 57.96969680044799,19.851211452308803" fill="none" stroke="rgb(107,53,53)" stroke-width="0.1"/>
  <path d="M 57.96969680044799,19.851211452308803 L 58.46942842401006,19.87317066076878" fill="none" stroke="rgb(107,53,53)" stroke-width="0.1"/>
  <path d="M 58.46942842401006,19.87317066076878 L 58.96916739142455,19.894962101092574" fill="none" stroke="rgb(107,53,53)" stroke-width="0.1"/>
  <path d="M 58.96916739142455,19.894962101092574 L 59.468913646369856,19.916585770824327" fill="none" stroke="rgb(107,53,53)" stroke-width="0.1"/>
  <path d="M 59.468913646369856,19.916585770824327 L 59.96866713252177,19.93804166752659" fill="none" stroke="rgb(107,53,53)" stroke-width="0.1"/>
  <path d="M 59.96866713252177,19.93804166752659 L 60.468427793556316,19.959329788781474" fill="none" stroke="rgb(107,53,53)" stroke-width="0.1"/>
  <path d="M 60.468427793556316,19.959329788781474 L 60.96819557314882,19.98045013218973" fill="none" stroke="rgb(107,53,53)" stroke-width="0.1"/>
  <path d="M 60.96819557314882,19.98045013218973 L 61.467970414973024,20.001402695370757" fill="none" stroke="rgb(107,53,53)" stroke-width="0.1"/>
  <path d="M 61.467970414973024,20.001402695370757 L 61.96775226270279,20.022187475963506" fill="none" stroke="rgb(107,53,53)" stroke-width="0.1"/>
  <path d="M 61.96775226270279,20.022187475963506 L 62.467541060010376,20.042804471625118" fill="none" stroke="rgb(107,53,53)" stroke-width="0.1"/>
  <path d="M 62.467541060010376,20.042804471625118 L 62.967336750568165,20.06325368003229" fill="none" stroke="rgb(107,53,53)" stroke-width="0.1"/>
  <path d="M 62.967336750568165,20.06325368003229 L 63.46713927804649,20.08353509887968" fill="none" stroke="rgb(107,53,53)" stroke-width="0.1"/>
  <path d="M 63.46713927804649,20.08353509887968 L 63.96694858611579,20.10364872588218" fill="none" stroke="rgb(107,53,53)" stroke-width="0.1"/>
  <path d="M 63.96694858611579,20.10364872588218 L 64.46676461844652,20.123594558772652" fill="none" stroke="rgb(107,53,53)" stroke-width="0.1"/>
  <path d="M 64.46676461844652,20.123594558772652 L 64.9665873187065,20.143372595303276" fill="none" stroke="rgb(107,53,53)" stroke-width="0.1"/>
  <path d="M 64.9665873187065,20.143372595303276 L 65.46641663056414,20.162982833244655" fill="none" stroke="rgb(107,53,53)" stroke-width="0.1"/>
  <path d="M 65.46641663056414,20.162982833244655 L 65.96625249768715,20.182425270386943" fill="none" stroke="rgb(107,53,53)" stroke-width="0.1"/>
  <path d="M 65.96625249768715,20.182425270386943 L 66.4660948637412,20.201699904538714" fill="none" stroke="rgb(107,53,53)" stroke-width="0.1"/>
  <path d="M 66.4660948637412,20.201699904538714 L 66.96594367239254,20.220806733527866" fill="none" stroke="rgb(107,53,53)" stroke-width="0.1"/>
  <path d="M 66.96594367239254,20.220806733527866 L 67.46579886730672,20.239745755200715" fill="none" stroke="rgb(107,53,53)" stroke-width="0.1"/>
  <path d="M 67.46579886730672,20.239745755200715 L 67.96566039214724,20.258516967422906" fill="none" stroke="rgb(107,53,53)" stroke-width="0.1"/>
  <path d="M 67.96566039214724,20.258516967422906 L 68.4655281905782,20.277120368078727" fill="none" stroke="rgb(107,53,53)" stroke-width="0.1"/>
  <path d="M 68.4655281905782,20.277120368078727 L 68.96540220626298,20.29555595507179" fill="none" stroke="rgb(107,53,53)" stroke-width="0.1"/>
  <path d="M 68.96540220626298,20.29555595507179 L 69.46528238286271,20.313823726323903" fill="none" stroke="rgb(107,53,53)" stroke-width="0.1"/>
  <path d="M 69.46528238286271,20.313823726323903 L 69.96516866404,20.33192367977665" fill="none" stroke="rgb(107,53,53)" stroke-width="0.1"/>
  <path d="M 69.96516866404,20.33192367977665 L 70.46506099345561,20.34985581338981" fill="none" stroke="rgb(107,53,53)" stroke-width="0.1"/>
  <path d="M 70.46506099345561,20.34985581338981 L 70.9649593147692,20.367620125142707" fill="none" stroke="rgb(107,53,53)" stroke-width="0.1"/>
  <path d="M 70.9649593147692,20.367620125142707 L 71.46486357164099,20.38521661303264" fill="none" stroke="rgb(107,53,53)" stroke-width="0.1"/>
  <path d="M 71.46486357164099,20.38521661303264 L 71.96477370772902,20.402645275076907" fill="none" stroke="rgb(107,53,53)" stroke-width="0.1"/>
  <path d="M 71.96477370772902,20.402645275076907 L 72.46468966669227,20.419906109311228" fill="none" stroke="rgb(107,53,53)" stroke-width="0.1"/>
  <path d="M 72.46468966669227,20.419906109311228 L 72.96461139218741,20.436999113789966" fill="none" stroke="rgb(107,53,53)" stroke-width="0.1"/>
  <path d="M 72.96461139218741,20.436999113789966 L 73.46453882787193,20.453924286586584" fill="none" stroke="rgb(107,53,53)" stroke-width="0.1"/>
  <path d="M 73.46453882787193,20.453924286586584 L 73.96447191740208,20.4706816257941" fill="none" stroke="rgb(107,53,53)" stroke-width="0.1"/>
  <path d="M 73.96447191740208,20.4706816257941 L 74.46441060443306,20.487271129523265" fill="none" stroke="rgb(107,53,53)" stroke-width="0.1"/>
  <path d="M 74.46441060443306,20.487271129523265 L 74.96435483261973,20.50369279590484" fill="none" stroke="rgb(107,53,53)" stroke-width="0.1"/>
  <path d="M 74.96435483261973,20.50369279590484 L 75.46430454561744,20.519946623088003" fill="none" stroke="rgb(107,53,53)" stroke-width="0.1"/>
  <path d="M 75.46430454561744,20.519946623088003 L 75.96425968707888,20.53603260924058" fill="none" stroke="rgb(107,53,53)" stroke-width="0.1"/>
  <path d="M 75.96425968707888,20.53603260924058 L 76.46422020065745,20.551950752549942" fill="none" stroke="rgb(107,53,53)" stroke-width="0.1"/>
  <path d="M 76.46422020065745,20.551950752549942 L 76.96418603000609,20.56770105122166" fill="none" stroke="rgb(107,53,53)" stroke-width="0.1"/>
  <path d="M 76.96418603000609,20.56770105122166 L 77.46415711877603,20.583283503481084" fill="none" stroke="rgb(107,53,53)" stroke-width="0.1"/>
  <path d="M 77.46415711877603,20.583283503481084 L 77.96413341061896,20.59869810757175" fill="none" stroke="rgb(107,53,53)" stroke-width="0.1"/>
  <path d="M 77.96413341061896,20.59869810757175 L 78.46411484918588,20.613944861756295" fill="none" stroke="rgb(107,53,53)" stroke-width="0.1"/>
  <path d="M 78.46411484918588,20.613944861756295 L 78.9641013781262,20.629023764316685" fill="none" stroke="rgb(107,53,53)" stroke-width="0.1"/>
  <path d="M 78.9641013781262,20.629023764316685 L 79.46409294109014,20.643934813553074" fill="none" stroke="rgb(107,53,53)" stroke-width="0.1"/>
  <path d="M 79.46409294109014,20.643934813553074 L 79.96408948172598,20.65867800778517" fill="none" stroke="rgb(107,53,53)" stroke-width="0.1"/>
  <path d="M 79.96408948172598,20.65867800778517 L 80.46409094368289,20.673253345351327" fill="none" stroke="rgb(107,53,53)" stroke-width="0.1"/>
  <path d="M 80.46409094368289,20.673253345351327 L 80.96409727060848,20.687660824608542" fill="none" stroke="rgb(107,53,53)" stroke-width="0.1"/>
  <path d="M 80.96409727060848,20.687660824608542 L 81.46410840615056,20.701900443933596" fill="none" stroke="rgb(107,53,53)" stroke-width="0.1"/>
  <path d="M 81.46410840615056,20.701900443933596 L 81.96412429395548,20.71597220172123" fill="none" stroke="rgb(107,53,53)" stroke-width="0.1"/>
  <path d="M 81.96412429395548,20.71597220172123 L 82.46414487766913,20.729876096385738" fill="none" stroke="rgb(107,53,53)" stroke-width="0.1"/>
  <path d="M 82.46414487766913,20.729876096385738 L 82.96417010093774,20.743612126359835" fill="none" stroke="rgb(107,53,53)" stroke-width="0.1"/>
  <path d="M 82.96417010093774,20.743612126359835 L 83.46419990740662,20.757180290095334" fill="none" stroke="rgb(107,53,53)" stroke-width="0.1"/>
  <path d="M 83.46419990740662,20.757180290095334 L 83.96423424072009,20.770580586063602" fill="none" stroke="rgb(107,53,53)" stroke-width="0.1"/>
  <path d="M 83.96423424072009,20.770580586063602 L 84.46427304452243,20.783813012753967" fill="none" stroke="rgb(107,53,53)" stroke-width="0.1"/>
  <path d="M 84.46427304452243,20.783813012753967 L 84.96431626245783,20.796877568675086" fill="none" stroke="rgb(107,53,53)" stroke-width="0.1"/>
  <path d="M 84.96431626245783,20.796877568675086 L 85.46436383816831,20.809774252354714" fill="none" stroke="rgb(107,53,53)" stroke-width="0.1"/>
  <path d="M 85.46436383816831,20.809774252354714 L 85.96441571529772,20.82250306233925" fill="none" stroke="rgb(107,53,53)" stroke-width="0.1"/>
  <path d="M 85.96441571529772,20.82250306233925 L 86.46447183748808,20.83506399719397" fill="none" stroke="rgb(107,53,53)" stroke-width="0.1"/>
  <path d="M 86.46447183748808,20.83506399719397 L 86.96453214838061,20.84745705550347" fill="none" stroke="rgb(107,53,53)" stroke-width="0.1"/>
  <path d="M 86.96453214838061,20.84745705550347 L 87.4645965916169,20.859682235870537" fill="none" stroke="rgb(107,53,53)" stroke-width="0.1"/>
  <path d="M 87.4645965916169,20.859682235870537 L 87.96466511083804,20.87173953691797" fill="none" stroke="rgb(107,53,53)" stroke-width="0.1"/>
  <path d="M 87.96466511083804,20.87173953691797 L 88.46473764968368,20.883628957286533" fill="none" stroke="rgb(107,53,53)" stroke-width="0.1"/>
  <path d="M 88.46473764968368,20.883628957286533 L 88.96481415179403,20.89535049563608" fill="none" stroke="rgb(107,53,53)" stroke-width="0.1"/>
  <path d="M 88.96481415179403,20.89535049563608 L 89.46489456080894,20.906904150646028" fill="none" stroke="rgb(107,53,53)" stroke-width="0.1"/>
  <path d="M 89.46489456080894,20.906904150646028 L 89.96497882036658,20.918289921013752" fill="none" stroke="rgb(107,53,53)" stroke-width="0.1"/>
  <path d="M 89.96497882036658,20.918289921013752 L 90.46506687410567,20.929507805456183" fill="none" stroke="rgb(107,53,53)" stroke-width="0.1"/>
  <path d="M 90.46506687410567,20.929507805456183 L 90.96515866566529,20.94055780270935" fill="none" stroke="rgb(107,53,53)" stroke-width="0.1"/>
  <path d="M 90.96515866566529,20.94055780270935 L 91.46525413868198,20.951439911527245" fill="none" stroke="rgb(107,53,53)" stroke-width="0.1"/>
  <path d="M 91.46525413868198,20.951439911527245 L 91.96535323679404,20.962154130684098" fill="none" stroke="rgb(107,53,53)" stroke-width="0.1"/>
  <path d="M 91.96535323679404,20.962154130684098 L 92.46545590363735,20.972700458971644" fill="none" stroke="rgb(107,53,53)" stroke-width="0.1"/>
  <path d="M 92.46545590363735,20.972700458971644 L 92.96556208284937,20.983078895202084" fill="none" stroke="rgb(107,53,53)" stroke-width="0.1"/>
  <path d="M 92.96556208284937,20.983078895202084 L 93.46567171806521,20.993289438205124" fill="none" stroke="rgb(107,53,53)" stroke-width="0.1"/>
  <path d="M 93.46567171806521,20.993289438205124 L 93.9657847529212,21.003332086830255" fill="none" stroke="rgb(107,53,53)" stroke-width="0.1"/>
  <path d="M 93.9657847529212,21.003332086830255 L 94.46590113105276,21.013206839945383" fill="none" stroke="rgb(107,53,53)" stroke-width="0.1"/>
  <path d="M 94.46590113105276,21.013206839945383 L 94.96602079609431,21.02291369643774" fill="none" stroke="rgb(107,53,53)" stroke-width="0.1"/>
  <path d="M 94.96602079609431,21.02291369643774 L 95.46614369168037,21.032452655213433" fill="none" stroke="rgb(107,53,53)" stroke-width="0.1"/>
  <path d="M 95.46614369168037,21.032452655213433 L 95.96626976144614,21.041823715197438" fill="none" stroke="rgb(107,53,53)" stroke-width="0.1"/>
  <path d="M 95.96626976144614,21.041823715197438 L 96.46639894902444,21.05102687533315" fill="none" stroke="rgb(107,53,53)" stroke-width="0.1"/>
  <path d="M 96.46639894902444,21.05102687533315 L 96.96653119804921,21.060062134583973" fill="none" stroke="rgb(107,53,53)" stroke-width="0.1"/>
  <path d="M 96.96653119804921,21.060062134583973 L 97.46666645215362,21.068929491931044" fill="none" stroke="rgb(107,53,53)" stroke-width="0.1"/>
  <path d="M 97.46666645215362,21.068929491931044 L 97.96680465497036,21.077628946375285" fill="none" stroke="rgb(107,53,53)" stroke-width="0.1"/>
  <path d="M 97.96680465497036,21.077628946375285 L 98.46694575013169,21.08616049693626" fill="none" stroke="rgb(107,53,53)" stroke-width="0.1"/>
  <path d="M 98.46694575013169,21.08616049693626 L 98.9670896812703,21.094524142652176" fill="none" stroke="rgb(107,53,53)" stroke-width="0.1"/>
  <path d="M 98.9670896812703,21.094524142652176 L 99.46723639201753,21.102719882580573" fill="none" stroke="rgb(107,53,53)" stroke-width="0.1"/>
  <path d="M 99.46723639201753,21.102719882580573 L 99.96738582600517,21.11074771579763" fill="none" stroke="rgb(107,53,53)" stroke-width="0.1"/>
 </g>
 <g id="layerA-PUB_TEXT" inkscape:groupmode="layer" inkscape:label="A-PUB_TEXT">
  <text fill="rgb(0,0,0)" font-family="Noto Sans CJK SC" font-size="2" transform="rotate(-0.0,26.862017000000037,27.649651000000063)" x="26.862017000000037" y="27.649651000000063">
   空调机房
  </text>
  <text fill="rgb(0,0,0)" font-family="Noto Sans CJK SC" font-size="2" transform="rotate(-0.0,94.20901700000002,41.197651000000064)" x="94.20901700000002" y="41.197651000000064">
   下
  </text>
  <text fill="rgb(0,0,0)" font-family="Noto Sans CJK SC" font-size="2" transform="rotate(-0.0,74.55901700000004,43.244650999999976)" x="74.55901700000004" y="43.244650999999976">
   油
  </text>
  <text fill="rgb(0,0,0)" font-family="Noto Sans CJK SC" font-size="2" transform="rotate(-0.0,75.14901699999996,34.346651000000065)" x="75.14901699999996" y="34.346651000000065">
   排
  </text>
  <text fill="rgb(0,0,0)" font-family="Noto Sans CJK SC" font-size="2" transform="rotate(-0.0,74.55901700000004,51.89365099999998)" x="74.55901700000004" y="51.89365099999998">
   烟
  </text>
 </g>
 <g id="layerA-STAIR" inkscape:groupmode="layer" inkscape:label="A-STAIR">
  <path d="M 86.13901699999997,64.29765099999997 L 86.13901699999997,44.697651000000064" fill="none" stroke="rgb(107,142,0)" stroke-width="0.1"/>
  <path d="M 86.13901699999997,64.29765099999997 L 100.00000000000011,64.29765099999997" fill="none" stroke="rgb(107,142,0)" stroke-width="0.1"/>
  <path d="M 86.13901699999997,61.49765100000002 L 100.00000000000011,61.49765100000002" fill="none" stroke="rgb(107,142,0)" stroke-width="0.1"/>
  <path d="M 86.13901699999997,58.697651000000064 L 100.00000000000011,58.697651000000064" fill="none" stroke="rgb(107,142,0)" stroke-width="0.1"/>
  <path d="M 86.13901699999997,55.897650999999996 L 100.00000000000011,55.897650999999996" fill="none" stroke="rgb(107,142,0)" stroke-width="0.1"/>
  <path d="M 86.13901699999997,53.09765100000004 L 100.00000000000011,53.09765100000004" fill="none" stroke="rgb(107,142,0)" stroke-width="0.1"/>
  <path d="M 86.13901699999997,50.29765099999997 L 100.00000000000011,50.29765099999997" fill="none" stroke="rgb(107,142,0)" stroke-width="0.1"/>
  <path d="M 86.13901699999997,47.49765100000002 L 100.00000000000011,47.49765100000002" fill="none" stroke="rgb(107,142,0)" stroke-width="0.1"/>
  <path d="M 86.13901699999997,44.697651000000064 L 100.00000000000011,44.697651000000064" fill="none" stroke="rgb(107,142,0)" stroke-width="0.1"/>
 </g>
 <g id="layerA-WALL" inkscape:groupmode="layer" inkscape:label="A-WALL">
  <path d="M 82.63901699999997,17.671650999999997 L 82.63901699999997,9.29765100000003" fill="none" instance-id="-1" semantic-id="1" stroke="rgb(0,178,178)" stroke-width="0.1"/>
  <path d="M 84.63901699999997,17.724650999999994 L 84.63901699999997,10.297650999999973" fill="none" instance-id="-1" semantic-id="1" stroke="rgb(0,178,178)" stroke-width="0.1"/>
  <path d="M 84.13901699999997,84.29765099999997 L 84.13901699999997,55.04765099999997" fill="none" instance-id="-1" semantic-id="1" stroke="rgb(0,178,178)" stroke-width="0.1"/>
  <path d="M 86.13901699999997,84.29765099999997 L 86.13901699999997,54.04765099999997" fill="none" instance-id="-1" semantic-id="1" stroke="rgb(0,178,178)" stroke-width="0.1"/>
  <path d="M 86.63901699999997,85.79765099999997 L 100.00000000000011,85.79765099999997" fill="none" instance-id="-1" semantic-id="1" stroke="rgb(0,178,178)" stroke-width="0.1"/>
  <path d="M 86.63901699999997,87.79765099999997 L 100.00000000000011,87.79765099999997" fill="none" instance-id="-1" semantic-id="1" stroke="rgb(0,178,178)" stroke-width="0.1"/>
  <path d="M 82.63901699999997,100.0 L 82.63901699999997,90.29765099999997" fill="none" instance-id="-1" semantic-id="1" stroke="rgb(0,178,178)" stroke-width="0.1"/>
  <path d="M 84.63901699999997,100.0 L 84.63901699999997,90.29765099999997" fill="none" instance-id="-1" semantic-id="1" stroke="rgb(0,178,178)" stroke-width="0.1"/>
  <path d="M 84.63901699999997,10.297650999999973 L 92.63901699999997,10.297650999999973" fill="none" instance-id="-1" semantic-id="1" stroke="rgb(0,178,178)" stroke-width="0.1"/>
  <path d="M 92.63901699999997,10.297650999999973 L 92.63901699999997,8.29765100000003" fill="none" instance-id="-1" semantic-id="1" stroke="rgb(0,178,178)" stroke-width="0.1"/>
  <path d="M 92.63901699999997,8.29765100000003 L 84.63901699999997,8.29765100000003" fill="none" instance-id="-1" semantic-id="1" stroke="rgb(0,178,178)" stroke-width="0.1"/>
  <path d="M 73.13901699999997,53.04765099999997 L 84.13901699999997,53.04765099999997" fill="none" instance-id="-1" semantic-id="1" stroke="rgb(0,178,178)" stroke-width="0.1"/>
  <path d="M 72.13601700000004,55.04765099999997 L 84.13901699999997,55.04765099999997" fill="none" instance-id="-1" semantic-id="1" stroke="rgb(0,178,178)" stroke-width="0.1"/>
  <path d="M 71.13601700000004,53.04765099999997 L 71.13601700000004,2.362651000000028" fill="none" instance-id="-1" semantic-id="1" stroke="rgb(0,178,178)" stroke-width="0.1"/>
  <path d="M 73.13901699999997,53.04765099999997 L 73.13901699999997,2.432651000000021" fill="none" instance-id="-1" semantic-id="1" stroke="rgb(0,178,178)" stroke-width="0.1"/>
  <path d="M 84.13901699999997,53.04765099999997 L 84.13901699999997,23.74065100000007" fill="none" instance-id="-1" semantic-id="1" stroke="rgb(0,178,178)" stroke-width="0.1"/>
  <path d="M 86.13901699999997,54.04765099999997 L 86.13901699999997,23.767651" fill="none" instance-id="-1" semantic-id="1" stroke="rgb(0,178,178)" stroke-width="0.1"/>
  <path d="M 84.13901699999997,23.74065100000007 L 85.13901699999997,23.74065100000007" fill="none" instance-id="-1" semantic-id="1" stroke="rgb(0,178,178)" stroke-width="0.1"/>
  <path d="M 82.63901699999997,9.29765100000003 L 82.63901699999997,2.727651000000037" fill="none" instance-id="-1" semantic-id="1" stroke="rgb(0,178,178)" stroke-width="0.1"/>
  <path d="M 84.63901699999997,8.29765100000003 L 84.63901699999997,0.7816510000000108" fill="none" instance-id="-1" semantic-id="1" stroke="rgb(0,178,178)" stroke-width="0.1"/>
  <path d="M 0.0,53.04765099999997 L 6.636017000000038,53.04765099999997" fill="none" instance-id="-1" semantic-id="1" stroke="rgb(0,178,178)" stroke-width="0.1"/>
  <path d="M 0.0,55.04765099999997 L 7.636017000000038,55.04765099999997" fill="none" instance-id="-1" semantic-id="1" stroke="rgb(0,178,178)" stroke-width="0.1"/>
  <path d="M 0.0,0.3006510000000162 L 6.636017000000038,0.3006510000000162" fill="none" instance-id="-1" semantic-id="1" stroke="rgb(0,178,178)" stroke-width="0.1"/>
  <path d="M 6.636017000000038,53.04765099999997 L 6.636017000000038,0.3006510000000162" fill="none" instance-id="-1" semantic-id="1" stroke="rgb(0,178,178)" stroke-width="0.1"/>
  <path d="M 8.636017000000038,53.04765099999997 L 8.636017000000038,0.3006510000000162" fill="none" instance-id="-1" semantic-id="1" stroke="rgb(0,178,178)" stroke-width="0.1"/>
  <path d="M 8.636017000000038,0.3006510000000162 L 10.636017000000038,0.3006510000000162" fill="none" instance-id="-1" semantic-id="1" stroke="rgb(0,178,178)" stroke-width="0.1"/>
  <path d="M 10.636017000000038,0.3006510000000162 L 10.636017000000038,0.0" fill="none" instance-id="-1" semantic-id="1" stroke="rgb(0,178,178)" stroke-width="0.1"/>
  <path d="M 25.636017000000038,0.0 L 25.636017000000038,0.3006510000000162" fill="none" instance-id="-1" semantic-id="1" stroke="rgb(0,178,178)" stroke-width="0.1"/>
  <path d="M 25.636017000000038,0.3006510000000162 L 29.73201700000004,0.3006510000000162" fill="none" instance-id="-1" semantic-id="1" stroke="rgb(0,178,178)" stroke-width="0.1"/>
  <path d="M 8.636017000000038,53.04765099999997 L 71.13601700000004,53.04765099999997" fill="none" instance-id="-1" semantic-id="1" stroke="rgb(0,178,178)" stroke-width="0.1"/>
  <path d="M 7.636017000000038,55.04765099999997 L 72.13601700000004,55.04765099999997" fill="none" instance-id="-1" semantic-id="1" stroke="rgb(0,178,178)" stroke-width="0.1"/>
  <path d="M 62.07652092995511,0.0093157987818131 L 62.58118065404551,0.030380039811575443" fill="none" instance-id="-1" semantic-id="1" stroke="rgb(0,178,178)" stroke-width="0.1"/>
  <path d="M 62.58118065404551,0.030380039811575443 L 63.085847586119826,0.05127087606877012" fill="none" instance-id="-1" semantic-id="1" stroke="rgb(0,178,178)" stroke-width="0.1"/>
  <path d="M 63.085847586119826,0.05127087606877012 L 63.590521666595464,0.0719883050868475" fill="none" instance-id="-1" semantic-id="1" stroke="rgb(0,178,178)" stroke-width="0.1"/>
  <path d="M 63.590521666595464,0.0719883050868475 L 64.09520283588802,0.09253232441972159" fill="none" instance-id="-1" semantic-id="1" stroke="rgb(0,178,178)" stroke-width="0.1"/>
  <path d="M 64.09520283588802,0.09253232441972159 L 64.59989103441308,0.11290293164199738" fill="none" instance-id="-1" semantic-id="1" stroke="rgb(0,178,178)" stroke-width="0.1"/>
  <path d="M 64.59989103441308,0.11290293164199738 L 65.10458620258453,0.13310012434851615" fill="none" instance-id="-1" semantic-id="1" stroke="rgb(0,178,178)" stroke-width="0.1"/>
  <path d="M 65.10458620258453,0.13310012434851615 L 65.60928828081637,0.15312390015458277" fill="none" instance-id="-1" semantic-id="1" stroke="rgb(0,178,178)" stroke-width="0.1"/>
  <path d="M 65.60928828081637,0.15312390015458277 L 66.11399720952079,0.17297425669687527" fill="none" instance-id="-1" semantic-id="1" stroke="rgb(0,178,178)" stroke-width="0.1"/>
  <path d="M 66.11399720952079,0.17297425669687527 L 66.6187129291103,0.1926511916307163" fill="none" instance-id="-1" semantic-id="1" stroke="rgb(0,178,178)" stroke-width="0.1"/>
  <path d="M 66.6187129291103,0.1926511916307163 L 67.12343537999561,0.2121547026334838" fill="none" instance-id="-1" semantic-id="1" stroke="rgb(0,178,178)" stroke-width="0.1"/>
  <path d="M 67.12343537999561,0.2121547026334838 L 67.62816450258674,0.2314847874025645" fill="none" instance-id="-1" semantic-id="1" stroke="rgb(0,178,178)" stroke-width="0.1"/>
  <path d="M 67.62816450258674,0.2314847874025645 L 68.13290023729382,0.25064144365580887" fill="none" instance-id="-1" semantic-id="1" stroke="rgb(0,178,178)" stroke-width="0.1"/>
  <path d="M 68.13290023729382,0.25064144365580887 L 68.63764252452495,0.26962466913130356" fill="none" instance-id="-1" semantic-id="1" stroke="rgb(0,178,178)" stroke-width="0.1"/>
  <path d="M 68.63764252452495,0.26962466913130356 L 69.14239130468877,0.28843446158782626" fill="none" instance-id="-1" semantic-id="1" stroke="rgb(0,178,178)" stroke-width="0.1"/>
  <path d="M 69.14239130468877,0.28843446158782626 L 69.64714651819179,0.3070708188046183" fill="none" instance-id="-1" semantic-id="1" stroke="rgb(0,178,178)" stroke-width="0.1"/>
  <path d="M 69.64714651819179,0.3070708188046183 L 70.15190810544141,0.32553373858138457" fill="none" instance-id="-1" semantic-id="1" stroke="rgb(0,178,178)" stroke-width="0.1"/>
  <path d="M 70.15190810544141,0.32553373858138457 L 70.65667600684208,0.34382321873852106" fill="none" instance-id="-1" semantic-id="1" stroke="rgb(0,178,178)" stroke-width="0.1"/>
  <path d="M 70.65667600684208,0.34382321873852106 L 71.16145016279961,0.3619392571164326" fill="none" instance-id="-1" semantic-id="1" stroke="rgb(0,178,178)" stroke-width="0.1"/>
  <path d="M 71.16145016279961,0.3619392571164326 L 71.66623051371778,0.3798818515764424" fill="none" instance-id="-1" semantic-id="1" stroke="rgb(0,178,178)" stroke-width="0.1"/>
  <path d="M 71.66623051371778,0.3798818515764424 L 72.171017,0.3976509999999962" fill="none" instance-id="-1" semantic-id="1" stroke="rgb(0,178,178)" stroke-width="0.1"/>
  <path d="M 29.73201700000004,0.3006510000000162 A 1472.0,1472.0 0.0 0,0 71.13601700000004,2.362651000000028" fill="none" instance-id="-1" semantic-id="1" stroke="rgb(0,178,178)" stroke-width="0.1"/>
  <path d="M 72.171017,0.3976509999999962 A 1470.0,1470.0 0.0 0,0 84.63901699999997,0.7816510000000108" fill="none" instance-id="-1" semantic-id="1" stroke="rgb(0,178,178)" stroke-width="0.1"/>
  <path d="M 73.13901699999997,2.432651000000021 A 1472.0,1472.0 0.0 0,0 82.63901699999997,2.727651000000037" fill="none" instance-id="-1" semantic-id="1" stroke="rgb(0,178,178)" stroke-width="0.1"/>
 </g>
 <g id="layerA-WIN" inkscape:groupmode="layer" inkscape:label="A-WIN">
  <path d="M 92.63901699999997,9.29765100000003 L 92.63901699999997,19.53565100000003" fill="none" stroke="rgb(255,133,12)" stroke-width="0.1"/>
  <path d="M 93.15901699999995,9.29765100000003 L 93.15901699999995,19.53565100000003" fill="none" stroke="rgb(255,133,12)" stroke-width="0.1"/>
  <path d="M 92.63901699999997,9.29765100000003 L 93.15901699999995,9.29765100000003" fill="none" stroke="rgb(255,133,12)" stroke-width="0.1"/>
  <path d="M 93.15901699999995,19.53565100000003 L 92.63901699999997,19.53565100000003" fill="none" stroke="rgb(255,133,12)" stroke-width="0.1"/>
  <path d="M 93.15901699999995,19.53165100000001 L 93.66875120830753,19.506099817777" fill="none" stroke="rgb(255,133,12)" stroke-width="0.1"/>
  <path d="M 93.66875120830753,19.506099817777 L 94.17657856212134,19.45517629914218" fill="none" stroke="rgb(255,133,12)" stroke-width="0.1"/>
  <path d="M 94.17657856212134,19.45517629914218 L 94.68123692679603,19.379007007457403" fill="none" stroke="rgb(255,133,12)" stroke-width="0.1"/>
  <path d="M 94.68123692679603,19.379007007457403 L 95.18147204376965,19.277781250961652" fill="none" stroke="rgb(255,133,12)" stroke-width="0.1"/>
  <path d="M 95.18147204376965,19.277781250961652 L 95.6760406478511,19.15175061227103" fill="none" stroke="rgb(255,133,12)" stroke-width="0.1"/>
  <path d="M 95.6760406478511,19.15175061227103 L 96.16371355718297,19.001228323105806" fill="none" stroke="rgb(255,133,12)" stroke-width="0.1"/>
  <path d="M 96.16371355718297,19.001228323105806 L 96.64327872820365,18.826588485795583" fill="none" stroke="rgb(255,133,12)" stroke-width="0.1"/>
  <path d="M 96.64327872820365,18.826588485795583 L 97.11354426801324,18.628265143499902" fill="none" stroke="rgb(255,133,12)" stroke-width="0.1"/>
  <path d="M 97.11354426801324,18.628265143499902 L 97.5733413966592,18.4067512014542" fill="none" stroke="rgb(255,133,12)" stroke-width="0.1"/>
  <path d="M 97.5733413966592,18.4067512014542 L 98.02152735197717,18.162597201921926" fill="none" stroke="rgb(255,133,12)" stroke-width="0.1"/>
  <path d="M 98.02152735197717,18.162597201921926 L 98.45698822976749,17.896409955897866" fill="none" stroke="rgb(255,133,12)" stroke-width="0.1"/>
  <path d="M 98.45698822976749,17.896409955897866 L 98.87864175225093,17.60885103496321" fill="none" stroke="rgb(255,133,12)" stroke-width="0.1"/>
  <path d="M 98.87864175225093,17.60885103496321 L 99.28543995791995,17.300635127041232" fill="none" stroke="rgb(255,133,12)" stroke-width="0.1"/>
  <path d="M 99.28543995791995,17.300635127041232 L 99.67637180610234,16.9725282601388" fill="none" stroke="rgb(255,133,12)" stroke-width="0.1"/>
 </g>
 <g id="layerA-WIN-TEXT" inkscape:groupmode="layer" inkscape:label="A-WIN-TEXT">
  <text fill="rgb(0,0,0)" font-family="Noto Sans CJK SC" font-size="2" transform="rotate(-0.0,5.1720169999999825,10.398650999999973)" x="5.1720169999999825" y="10.398650999999973">
   FHM1521甲
  </text>
  <text fill="rgb(0,0,0)" font-family="Noto Sans CJK SC" font-size="2" transform="rotate(-0.0,90.11901699999999,6.199651000000017)" x="90.11901699999999" y="6.199651000000017">
   FHM2121乙
  </text>
 </g>
 <g id="layerA-楼板开洞" inkscape:groupmode="layer" inkscape:label="A-楼板开洞">
  <path d="M 73.13901699999997,2.432651000000021 L 73.13901699999997,17.508650999999986" fill="none" stroke="rgb(107,142,0)" stroke-width="0.1"/>
  <path d="M 73.13901699999997,17.508650999999986 L 80.21901700000001,17.731651000000056" fill="none" stroke="rgb(107,142,0)" stroke-width="0.1"/>
  <path d="M 80.21901700000001,17.731651000000056 L 80.21901700000001,17.606651000000056" fill="none" stroke="rgb(107,142,0)" stroke-width="0.1"/>
  <path d="M 80.21901700000001,17.606651000000056 L 81.13901699999997,17.630651000000057" fill="none" stroke="rgb(107,142,0)" stroke-width="0.1"/>
  <path d="M 81.13901699999997,17.630651000000057 L 81.13901699999997,2.685651000000007" fill="none" stroke="rgb(107,142,0)" stroke-width="0.1"/>
  <path d="M 81.13901699999997,2.685651000000007 L 73.13901699999997,2.432651000000021" fill="none" stroke="rgb(107,142,0)" stroke-width="0.1"/>
  <path d="M 0.0,0.3006510000000162 L 6.636017000000038,0.3006510000000162" fill="none" stroke="rgb(107,142,0)" stroke-width="0.1"/>
  <path d="M 6.636017000000038,0.3006510000000162 L 6.636017000000038,13.68465100000003" fill="none" stroke="rgb(107,142,0)" stroke-width="0.1"/>
  <path d="M 6.636017000000038,13.68465100000003 L 0.0,13.12659357038092" fill="none" stroke="rgb(107,142,0)" stroke-width="0.1"/>
  <path d="M 81.13901699999997,2.685651000000007 L 75.39901699999996,4.623650999999995" fill="none" stroke="rgb(107,142,0)" stroke-width="0.1"/>
  <path d="M 75.39901699999996,4.623650999999995 L 73.13901699999997,17.508650999999986" fill="none" stroke="rgb(107,142,0)" stroke-width="0.1"/>
  <path d="M 0.0,1.0173226924128471 L 6.636017000000038,0.3006510000000162" fill="none" stroke="rgb(107,142,0)" stroke-width="0.1"/>
 </g>
 <g id="layerA-楼梯编号" inkscape:groupmode="layer" inkscape:label="A-楼梯编号">
  <path d="M 98.1190170000001,73.75465099999997 L 98.1190170000001,82.421651" fill="none" stroke="rgb(0,0,0)" stroke-width="0.1"/>
  <path d="M 98.1190170000001,82.421651 L 100.00000000000011,82.421651" fill="none" stroke="rgb(0,0,0)" stroke-width="0.1"/>
  <path d="M 100.00000000000011,73.75465099999997 L 98.1190170000001,73.75465099999997" fill="none" stroke="rgb(0,0,0)" stroke-width="0.1"/>
  <text fill="rgb(0,0,0)" font-family="Noto Sans CJK SC" font-size="2" transform="rotate(-0.0,98.54901699999994,81.08765100000005)" x="98.54901699999994" y="81.08765100000005">
   12#LT
  </text>
 </g>
</svg>