<?xml version="1.0" encoding="utf-8"?>
<svg style="background-color: #000;" version="1.1" viewBox="0 0 100.0 100.0" xmlns="http://www.w3.org/2000/svg" xmlns:inkscape="http://www.inkscape.org/namespaces/inkscape">
 <g id="layerA-ANNO-DIMS" inkscape:groupmode="layer" inkscape:label="A-ANNO-DIMS">
  <path d="M 65.5436575,63.95265100000003 L 65.5436575,75.52165100000002" fill="none" stroke="rgb(0,178,0)" stroke-width="0.1"/>
  <path d="M 66.0436575,63.95265100000003 L 66.0436575,75.52165100000002" fill="none" stroke="rgb(0,178,0)" stroke-width="0.1"/>
  <path d="M 65.5436575,71.77165100000002 L 64.0436575,71.77165100000002" fill="none" stroke="rgb(0,178,0)" stroke-width="0.1"/>
  <path d="M 66.0436575,71.77165100000002 L 67.5436575,71.77165100000002" fill="none" stroke="rgb(0,178,0)" stroke-width="0.1"/>
  <path d="M 65.5436575,71.77165100000002 L 66.0436575,71.77165100000002" fill="none" stroke="rgb(0,178,0)" stroke-width="0.1"/>
  <path d="M 66.0436575,63.95265100000003 L 66.0436575,75.52165100000002" fill="none" stroke="rgb(0,178,0)" stroke-width="0.1"/>
  <path d="M 68.0436575,63.95265100000003 L 68.0436575,75.52165100000002" fill="none" stroke="rgb(0,178,0)" stroke-width="0.1"/>
  <path d="M 66.0436575,71.77165100000002 L 64.5436575,71.77165100000002" fill="none" stroke="rgb(0,178,0)" stroke-width="0.1"/>
  <path d="M 68.0436575,71.77165100000002 L 69.5436575,71.77165100000002" fill="none" stroke="rgb(0,178,0)" stroke-width="0.1"/>
  <path d="M 66.0436575,71.77165100000002 L 68.0436575,71.77165100000002" fill="none" stroke="rgb(0,178,0)" stroke-width="0.1"/>
  <path d="M 68.0436575,63.95265100000003 L 68.0436575,75.52165100000002" fill="none" stroke="rgb(0,178,0)" stroke-width="0.1"/>
  <path d="M 71.5436575,63.95265100000003 L 71.5436575,75.52165100000002" fill="none" stroke="rgb(0,178,0)" stroke-width="0.1"/>
  <path d="M 68.0436575,71.77165100000002 L 71.5436575,71.77165100000002" fill="none" stroke="rgb(0,178,0)" stroke-width="0.1"/>
  <path d="M 71.5436575,63.95265100000003 L 71.5436575,75.52165100000002" fill="none" stroke="rgb(0,178,0)" stroke-width="0.1"/>
  <path d="M 73.5436575,63.95265100000003 L 73.5436575,75.52165100000002" fill="none" stroke="rgb(0,178,0)" stroke-width="0.1"/>
  <path d="M 71.5436575,71.77165100000002 L 70.0436575,71.77165100000002" fill="none" stroke="rgb(0,178,0)" stroke-width="0.1"/>
  <path d="M 73.5436575,71.77165100000002 L 75.0436575,71.77165100000002" fill="none" stroke="rgb(0,178,0)" stroke-width="0.1"/>
  <path d="M 71.5436575,71.77165100000002 L 73.5436575,71.77165100000002" fill="none" stroke="rgb(0,178,0)" stroke-width="0.1"/>
  <path d="M 76.0436575,52.29765100000003 L 88.97165749999999,52.29765100000003" fill="none" stroke="rgb(0,178,0)" stroke-width="0.1"/>
  <path d="M 76.0436575,50.29765100000003 L 88.97165749999999,50.29765100000003" fill="none" stroke="rgb(0,178,0)" stroke-width="0.1"/>
  <path d="M 85.22165749999999,52.29765100000003 L 85.22165749999999,53.79765100000003" fill="none" stroke="rgb(0,178,0)" stroke-width="0.1"/>
  <path d="M 85.22165749999999,50.29765100000003 L 85.22165749999999,48.79765100000003" fill="none" stroke="rgb(0,178,0)" stroke-width="0.1"/>
  <path d="M 85.22165749999999,52.29765100000003 L 85.22165749999999,50.29765100000003" fill="none" stroke="rgb(0,178,0)" stroke-width="0.1"/>
  <path d="M 76.0436575,57.29765100000003 L 88.97165749999999,57.29765100000003" fill="none" stroke="rgb(0,178,0)" stroke-width="0.1"/>
  <path d="M 76.0436575,52.29765100000003 L 88.97165749999999,52.29765100000003" fill="none" stroke="rgb(0,178,0)" stroke-width="0.1"/>
  <path d="M 85.22165749999999,57.29765100000003 L 85.22165749999999,52.29765100000003" fill="none" stroke="rgb(0,178,0)" stroke-width="0.1"/>
  <text fill="rgb(0,178,0)" font-family="Noto Sans CJK SC" font-size="2" transform="rotate(-0.0,58.1636575,72.60965100000001)" x="58.1636575" y="72.60965100000001">
   50
  </text>
  <text fill="rgb(0,178,0)" font-family="Noto Sans CJK SC" font-size="2" transform="rotate(-0.0,62.543657499999995,70.27165100000002)" x="62.543657499999995" y="70.27165100000002">
   200
  </text>
  <text fill="rgb(0,178,0)" font-family="Noto Sans CJK SC" font-size="2" transform="rotate(-0.0,65.2936575,65.60965100000001)" x="65.2936575" y="65.60965100000001">
   350
  </text>
  <text fill="rgb(0,178,0)" font-family="Noto Sans CJK SC" font-size="2" transform="rotate(-0.0,74.82365749999997,72.60965100000001)" x="74.82365749999997" y="72.60965100000001">
   200
  </text>
  <text fill="rgb(0,178,0)" font-family="Noto Sans CJK SC" font-size="2" transform="rotate(-90.0,86.51165749999996,49.01765100000003)" x="86.51165749999996" y="49.01765100000003">
   200
  </text>
  <text fill="rgb(0,178,0)" font-family="Noto Sans CJK SC" font-size="2" transform="rotate(-90.0,90.57165750000001,67.50365100000002)" x="90.57165750000001" y="67.50365100000002">
   500
  </text>
 </g>
 <g id="layerA-ANNO-IDEN-TEXT" inkscape:groupmode="layer" inkscape:label="A-ANNO-IDEN-TEXT">
  <path d="M 69.75065749999999,48.304651000000035 L 69.75065749999999,59.673651000000035" fill="none" stroke="rgb(0,178,0)" stroke-width="0.1"/>
  <path d="M 69.75065749999999,59.673651000000035 L 49.71565750000002,59.673651000000035" fill="none" stroke="rgb(0,178,0)" stroke-width="0.1"/>
  <path d="M 69.75065749999999,47.90465100000003 A 0.4,0.4 0.0 1,0 69.75065749999999,48.70465100000001" fill="none" stroke="rgb(0,178,0)" stroke-width="0.1"/>
  <path d="M 69.75065749999999,48.70465100000001 A 0.4,0.4 0.0 1,0 69.75065749999999,47.90465100000003" fill="none" stroke="rgb(0,178,0)" stroke-width="0.1"/>
 </g>
 <g id="layerA-DOTE" inkscape:groupmode="layer" inkscape:label="A-DOTE">
  <path d="M 65.5436575,100.0 L 65.5436575,0.0" fill="none" stroke="rgb(107,53,53)" stroke-width="0.1"/>
  <path d="M 0.0,57.29765100000003 L 100.0,57.29765100000003" fill="none" stroke="rgb(107,53,53)" stroke-width="0.1"/>
  <path d="M 99.54098635597086,48.91499746715681 L 99.0500827263354,48.81845011035364" fill="none" stroke="rgb(107,53,53)" stroke-width="0.1"/>
  <path d="M 99.0500827263354,48.81845011035364 L 98.55910922084695,48.72225872506874" fill="none" stroke="rgb(107,53,53)" stroke-width="0.1"/>
  <path d="M 98.55910922084695,48.72225872506874 L 98.0680660976326,48.62642336187423" fill="none" stroke="rgb(107,53,53)" stroke-width="0.1"/>
  <path d="M 98.0680660976326,48.62642336187423 L 97.5769536148565,48.53094407115509" fill="none" stroke="rgb(107,53,53)" stroke-width="0.1"/>
  <path d="M 97.5769536148565,48.53094407115509 L 97.08577203071911,48.43582090310929" fill="none" stroke="rgb(107,53,53)" stroke-width="0.1"/>
  <path d="M 97.08577203071911,48.43582090310929 L 96.59452160345734,48.34105390774755" fill="none" stroke="rgb(107,53,53)" stroke-width="0.1"/>
  <path d="M 96.59452160345734,48.34105390774755 L 96.10320259134437,48.24664313489302" fill="none" stroke="rgb(107,53,53)" stroke-width="0.1"/>
  <path d="M 96.10320259134437,48.24664313489302 L 95.61181525268921,48.15258863418205" fill="none" stroke="rgb(107,53,53)" stroke-width="0.1"/>
  <path d="M 95.61181525268921,48.15258863418205 L 95.12035984583656,48.058890455063306" fill="none" stroke="rgb(107,53,53)" stroke-width="0.1"/>
  <path d="M 95.12035984583656,48.058890455063306 L 94.62883662916772,47.9655486467982" fill="none" stroke="rgb(107,53,53)" stroke-width="0.1"/>
  <path d="M 94.62883662916772,47.9655486467982 L 94.1372458610989,47.872563258461014" fill="none" stroke="rgb(107,53,53)" stroke-width="0.1"/>
  <path d="M 94.1372458610989,47.872563258461014 L 93.64558780008213,47.77993433893835" fill="none" stroke="rgb(107,53,53)" stroke-width="0.1"/>
  <path d="M 93.64558780008213,47.77993433893835 L 93.15386270460465,47.687661936929544" fill="none" stroke="rgb(107,53,53)" stroke-width="0.1"/>
  <path d="M 93.15386270460465,47.687661936929544 L 92.66207083318932,47.59574610094637" fill="none" stroke="rgb(107,53,53)" stroke-width="0.1"/>
  <path d="M 92.66207083318932,47.59574610094637 L 92.17021244439377,47.50418687931335" fill="none" stroke="rgb(107,53,53)" stroke-width="0.1"/>
  <path d="M 92.17021244439377,47.50418687931335 L 91.67828779681054,47.4129843201672" fill="none" stroke="rgb(107,53,53)" stroke-width="0.1"/>
  <path d="M 91.67828779681054,47.4129843201672 L 91.18629714906717,47.322138471457606" fill="none" stroke="rgb(107,53,53)" stroke-width="0.1"/>
  <path d="M 91.18629714906717,47.322138471457606 L 90.69424075982579,47.23164938094624" fill="none" stroke="rgb(107,53,53)" stroke-width="0.1"/>
  <path d="M 90.69424075982579,47.23164938094624 L 90.20211888778351,47.14151709620751" fill="none" stroke="rgb(107,53,53)" stroke-width="0.1"/>
  <path d="M 90.20211888778351,47.14151709620751 L 89.70993179167124,47.051741664628025" fill="none" stroke="rgb(107,53,53)" stroke-width="0.1"/>
  <path d="M 89.70993179167124,47.051741664628025 L 89.21767973025453,46.96232313340681" fill="none" stroke="rgb(107,53,53)" stroke-width="0.1"/>
  <path d="M 89.21767973025453,46.96232313340681 L 88.72536296233295,46.87326154955554" fill="none" stroke="rgb(107,53,53)" stroke-width="0.1"/>
  <path d="M 88.72536296233295,46.87326154955554 L 88.2329817467405,46.78455695989783" fill="none" stroke="rgb(107,53,53)" stroke-width="0.1"/>
  <path d="M 88.2329817467405,46.78455695989783 L 87.74053634234463,46.696209411069844" fill="none" stroke="rgb(107,53,53)" stroke-width="0.1"/>
  <path d="M 87.74053634234463,46.696209411069844 L 87.24802700804628,46.608218949519824" fill="none" stroke="rgb(107,53,53)" stroke-width="0.1"/>
  <path d="M 87.24802700804628,46.608218949519824 L 86.75545400278054,46.520585621508644" fill="none" stroke="rgb(107,53,53)" stroke-width="0.1"/>
  <path d="M 86.75545400278054,46.520585621508644 L 86.26281758551602,46.43330947310915" fill="none" stroke="rgb(107,53,53)" stroke-width="0.1"/>
  <path d="M 86.26281758551602,46.43330947310915 L 85.7701180152543,46.346390550206365" fill="none" stroke="rgb(107,53,53)" stroke-width="0.1"/>
  <path d="M 85.7701180152543,46.346390550206365 L 85.27735555103015,46.25982889849763" fill="none" stroke="rgb(107,53,53)" stroke-width="0.1"/>
  <path d="M 85.27735555103015,46.25982889849763 L 84.78453045191168,46.17362456349235" fill="none" stroke="rgb(107,53,53)" stroke-width="0.1"/>
  <path d="M 84.78453045191168,46.17362456349235 L 84.29164297700015,46.087777590512246" fill="none" stroke="rgb(107,53,53)" stroke-width="0.1"/>
  <path d="M 84.29164297700015,46.087777590512246 L 83.7986933854288,46.00228802469087" fill="none" stroke="rgb(107,53,53)" stroke-width="0.1"/>
  <path d="M 83.7986933854288,46.00228802469087 L 83.30568193636407,45.91715591097409" fill="none" stroke="rgb(107,53,53)" stroke-width="0.1"/>
  <path d="M 83.30568193636407,45.91715591097409 L 82.81260888900499,45.832381294119955" fill="none" stroke="rgb(107,53,53)" stroke-width="0.1"/>
  <path d="M 82.81260888900499,45.832381294119955 L 82.3194745025828,45.747964218698144" fill="none" stroke="rgb(107,53,53)" stroke-width="0.1"/>
  <path d="M 82.3194745025828,45.747964218698144 L 81.82627903636114,45.663904729090746" fill="none" stroke="rgb(107,53,53)" stroke-width="0.1"/>
  <path d="M 81.82627903636114,45.663904729090746 L 81.33302274963546,45.58020286949181" fill="none" stroke="rgb(107,53,53)" stroke-width="0.1"/>
  <path d="M 81.33302274963546,45.58020286949181 L 80.83970590173328,45.496858683907135" fill="none" stroke="rgb(107,53,53)" stroke-width="0.1"/>
  <path d="M 80.83970590173328,45.496858683907135 L 80.34632875201453,45.41387221615457" fill="none" stroke="rgb(107,53,53)" stroke-width="0.1"/>
  <path d="M 80.34632875201453,45.41387221615457 L 79.85289155987016,45.331243509864066" fill="none" stroke="rgb(107,53,53)" stroke-width="0.1"/>
  <path d="M 79.85289155987016,45.331243509864066 L 79.35939458472274,45.24897260847729" fill="none" stroke="rgb(107,53,53)" stroke-width="0.1"/>
  <path d="M 79.35939458472274,45.24897260847729 L 78.86583808602643,45.167059555247874" fill="none" stroke="rgb(107,53,53)" stroke-width="0.1"/>
  <path d="M 78.86583808602643,45.167059555247874 L 78.37222232326667,45.085504393241195" fill="none" stroke="rgb(107,53,53)" stroke-width="0.1"/>
  <path d="M 78.37222232326667,45.085504393241195 L 77.87854755596027,45.00430716533481" fill="none" stroke="rgb(107,53,53)" stroke-width="0.1"/>
  <path d="M 77.87854755596027,45.00430716533481 L 77.38481404365473,44.923467914217554" fill="none" stroke="rgb(107,53,53)" stroke-width="0.1"/>
  <path d="M 77.38481404365473,44.923467914217554 L 76.89102204592871,44.842986682390574" fill="none" stroke="rgb(107,53,53)" stroke-width="0.1"/>
  <path d="M 76.89102204592871,44.842986682390574 L 76.39717182239133,44.76286351216652" fill="none" stroke="rgb(107,53,53)" stroke-width="0.1"/>
  <path d="M 76.39717182239133,44.76286351216652 L 75.90326363268241,44.68309844566977" fill="none" stroke="rgb(107,53,53)" stroke-width="0.1"/>
  <path d="M 75.90326363268241,44.68309844566977 L 75.40929773647247,44.60369152483656" fill="none" stroke="rgb(107,53,53)" stroke-width="0.1"/>
  <path d="M 75.40929773647247,44.60369152483656 L 74.91527439346214,44.52464279141475" fill="none" stroke="rgb(107,53,53)" stroke-width="0.1"/>
  <path d="M 74.91527439346214,44.52464279141475 L 74.4211938633822,44.44595228696403" fill="none" stroke="rgb(107,53,53)" stroke-width="0.1"/>
  <path d="M 74.4211938633822,44.44595228696403 L 73.92705640599377,44.3676200528555" fill="none" stroke="rgb(107,53,53)" stroke-width="0.1"/>
  <path d="M 73.92705640599377,44.3676200528555 L 73.43286228108775,44.28964613027199" fill="none" stroke="rgb(107,53,53)" stroke-width="0.1"/>
  <path d="M 73.43286228108775,44.28964613027199 L 72.93861174848485,44.21203056020818" fill="none" stroke="rgb(107,53,53)" stroke-width="0.1"/>
  <path d="M 72.93861174848485,44.21203056020818 L 72.44430506803485,44.134773383469906" fill="none" stroke="rgb(107,53,53)" stroke-width="0.1"/>
  <path d="M 72.44430506803485,44.134773383469906 L 71.9499424996186,44.05787464067521" fill="none" stroke="rgb(107,53,53)" stroke-width="0.1"/>
  <path d="M 71.9499424996186,44.05787464067521 L 71.45552430314467,43.981334372252945" fill="none" stroke="rgb(107,53,53)" stroke-width="0.1"/>
  <path d="M 71.45552430314467,43.981334372252945 L 70.96105073855176,43.90515261844405" fill="none" stroke="rgb(107,53,53)" stroke-width="0.1"/>
  <path d="M 70.96105073855176,43.90515261844405 L 70.46652206580711,43.829329419300734" fill="none" stroke="rgb(107,53,53)" stroke-width="0.1"/>
  <path d="M 70.46652206580711,43.829329419300734 L 69.97193854490786,43.753864814686835" fill="none" stroke="rgb(107,53,53)" stroke-width="0.1"/>
  <path d="M 69.97193854490786,43.753864814686835 L 69.47730043587899,43.67875884427747" fill="none" stroke="rgb(107,53,53)" stroke-width="0.1"/>
  <path d="M 69.47730043587899,43.67875884427747 L 68.98260799877482,43.60401154755937" fill="none" stroke="rgb(107,53,53)" stroke-width="0.1"/>
  <path d="M 68.98260799877482,43.60401154755937 L 68.48786149367822,43.52962296383066" fill="none" stroke="rgb(107,53,53)" stroke-width="0.1"/>
  <path d="M 68.48786149367822,43.52962296383066 L 67.99306118069944,43.45559313220076" fill="none" stroke="rgb(107,53,53)" stroke-width="0.1"/>
  <path d="M 67.99306118069944,43.45559313220076 L 67.49820731997897,43.381922091590695" fill="none" stroke="rgb(107,53,53)" stroke-width="0.1"/>
  <path d="M 67.49820731997897,43.381922091590695 L 67.00330017168358,43.308609880732774" fill="none" stroke="rgb(107,53,53)" stroke-width="0.1"/>
  <path d="M 67.00330017168358,43.308609880732774 L 66.508339996009,43.235656538170474" fill="none" stroke="rgb(107,53,53)" stroke-width="0.1"/>
  <path d="M 66.508339996009,43.235656538170474 L 66.01332705317884,43.16306210225878" fill="none" stroke="rgb(107,53,53)" stroke-width="0.1"/>
  <path d="M 66.01332705317884,43.16306210225878 L 65.51826160344422,43.09082661116395" fill="none" stroke="rgb(107,53,53)" stroke-width="0.1"/>
  <path d="M 65.51826160344422,43.09082661116395 L 65.02314390708375,43.01895010286353" fill="none" stroke="rgb(107,53,53)" stroke-width="0.1"/>
  <path d="M 65.02314390708375,43.01895010286353 L 64.52797422440369,42.94743261514634" fill="none" stroke="rgb(107,53,53)" stroke-width="0.1"/>
  <path d="M 64.52797422440369,42.94743261514634 L 64.03275281573804,42.876274185612374" fill="none" stroke="rgb(107,53,53)" stroke-width="0.1"/>
  <path d="M 64.03275281573804,42.876274185612374 L 63.53747994144703,42.8054748516729" fill="none" stroke="rgb(107,53,53)" stroke-width="0.1"/>
  <path d="M 63.53747994144703,42.8054748516729 L 63.042155861918786,42.735034650550574" fill="none" stroke="rgb(107,53,53)" stroke-width="0.1"/>
  <path d="M 63.042155861918786,42.735034650550574 L 62.54678083756801,42.66495361927866" fill="none" stroke="rgb(107,53,53)" stroke-width="0.1"/>
  <path d="M 62.54678083756801,42.66495361927866 L 62.05135512883601,42.5952317947025" fill="none" stroke="rgb(107,53,53)" stroke-width="0.1"/>
  <path d="M 62.05135512883601,42.5952317947025 L 61.55587899619127,42.52586921347768" fill="none" stroke="rgb(107,53,53)" stroke-width="0.1"/>
  <path d="M 61.55587899619127,42.52586921347768 L 61.06035270012842,42.456865912071635" fill="none" stroke="rgb(107,53,53)" stroke-width="0.1"/>
  <path d="M 61.06035270012842,42.456865912071635 L 60.56477650116847,42.3882219267623" fill="none" stroke="rgb(107,53,53)" stroke-width="0.1"/>
  <path d="M 60.56477650116847,42.3882219267623 L 60.06915065985879,42.3199372936391" fill="none" stroke="rgb(107,53,53)" stroke-width="0.1"/>
  <path d="M 60.06915065985879,42.3199372936391 L 59.57347543677281,42.25201204860241" fill="none" stroke="rgb(107,53,53)" stroke-width="0.1"/>
  <path d="M 59.57347543677281,42.25201204860241 L 59.07775109250974,42.184446227363765" fill="none" stroke="rgb(107,53,53)" stroke-width="0.1"/>
  <path d="M 59.07775109250974,42.184446227363765 L 58.58197788769485,42.11723986544553" fill="none" stroke="rgb(107,53,53)" stroke-width="0.1"/>
  <path d="M 58.58197788769485,42.11723986544553 L 58.086156082978846,42.05039299818122" fill="none" stroke="rgb(107,53,53)" stroke-width="0.1"/>
  <path d="M 58.086156082978846,42.05039299818122 L 57.590285939038495,41.983905660715436" fill="none" stroke="rgb(107,53,53)" stroke-width="0.1"/>
  <path d="M 57.590285939038495,41.983905660715436 L 57.094367716575675,41.91777788800346" fill="none" stroke="rgb(107,53,53)" stroke-width="0.1"/>
  <path d="M 57.094367716575675,41.91777788800346 L 56.59840167631705,41.85200971481174" fill="none" stroke="rgb(107,53,53)" stroke-width="0.1"/>
  <path d="M 56.59840167631705,41.85200971481174 L 56.10238807901521,41.786601175717806" fill="none" stroke="rgb(107,53,53)" stroke-width="0.1"/>
  <path d="M 56.10238807901521,41.786601175717806 L 55.60632718544741,41.72155230510975" fill="none" stroke="rgb(107,53,53)" stroke-width="0.1"/>
  <path d="M 55.60632718544741,41.72155230510975 L 55.11021925641569,41.656863137186974" fill="none" stroke="rgb(107,53,53)" stroke-width="0.1"/>
  <path d="M 55.11021925641569,41.656863137186974 L 54.61406455274687,41.59253370595934" fill="none" stroke="rgb(107,53,53)" stroke-width="0.1"/>
  <path d="M 54.61406455274687,41.59253370595934 L 54.11786333529233,41.52856404524789" fill="none" stroke="rgb(107,53,53)" stroke-width="0.1"/>
  <path d="M 54.11786333529233,41.52856404524789 L 53.621615864928344,41.46495418868449" fill="none" stroke="rgb(107,53,53)" stroke-width="0.1"/>
  <path d="M 53.621615864928344,41.46495418868449 L 53.12532240255484,41.40170416971182" fill="none" stroke="rgb(107,53,53)" stroke-width="0.1"/>
  <path d="M 53.12532240255484,41.40170416971182 L 52.62898320909653,41.338814021583175" fill="none" stroke="rgb(107,53,53)" stroke-width="0.1"/>
  <path d="M 52.62898320909653,41.338814021583175 L 52.13259854550108,41.27628377736289" fill="none" stroke="rgb(107,53,53)" stroke-width="0.1"/>
  <path d="M 52.13259854550108,41.27628377736289 L 51.63616867274186,41.21411346992602" fill="none" stroke="rgb(107,53,53)" stroke-width="0.1"/>
  <path d="M 51.63616867274186,41.21411346992602 L 51.139693851814286,41.15230313195832" fill="none" stroke="rgb(107,53,53)" stroke-width="0.1"/>
  <path d="M 51.139693851814286,41.15230313195832 L 50.64317434373845,41.09085279595638" fill="none" stroke="rgb(107,53,53)" stroke-width="0.1"/>
  <path d="M 50.64317434373845,41.09085279595638 L 50.1466104095573,41.0297624942275" fill="none" stroke="rgb(107,53,53)" stroke-width="0.1"/>
  <path d="M 50.1466104095573,41.0297624942275 L 49.65000231033753,40.96903225888968" fill="none" stroke="rgb(107,53,53)" stroke-width="0.1"/>
  <path d="M 49.65000231033753,40.96903225888968 L 49.15335030716926,40.908662121871544" fill="none" stroke="rgb(107,53,53)" stroke-width="0.1"/>
  <path d="M 49.15335030716926,40.908662121871544 L 48.656654661165135,40.84865211491251" fill="none" stroke="rgb(107,53,53)" stroke-width="0.1"/>
  <path d="M 48.656654661165135,40.84865211491251 L 48.15991563346108,40.789002269562616" fill="none" stroke="rgb(107,53,53)" stroke-width="0.1"/>
  <path d="M 48.15991563346108,40.789002269562616 L 47.66313348521544,40.729712617182486" fill="none" stroke="rgb(107,53,53)" stroke-width="0.1"/>
  <path d="M 47.66313348521544,40.729712617182486 L 47.16630847761019,40.670783188943574" fill="none" stroke="rgb(107,53,53)" stroke-width="0.1"/>
  <path d="M 47.16630847761019,40.670783188943574 L 46.669440871848565,40.61221401582759" fill="none" stroke="rgb(107,53,53)" stroke-width="0.1"/>
  <path d="M 46.669440871848565,40.61221401582759 L 46.17253092915712,40.55400512862718" fill="none" stroke="rgb(107,53,53)" stroke-width="0.1"/>
  <path d="M 46.17253092915712,40.55400512862718 L 45.675578910784225,40.49615655794537" fill="none" stroke="rgb(107,53,53)" stroke-width="0.1"/>
  <path d="M 45.675578910784225,40.49615655794537 L 45.178585078000765,40.438668334195995" fill="none" stroke="rgb(107,53,53)" stroke-width="0.1"/>
  <path d="M 45.178585078000765,40.438668334195995 L 44.68154969209911,40.38154048760316" fill="none" stroke="rgb(107,53,53)" stroke-width="0.1"/>
  <path d="M 44.68154969209911,40.38154048760316 L 44.18447301439403,40.32477304820145" fill="none" stroke="rgb(107,53,53)" stroke-width="0.1"/>
  <path d="M 44.18447301439403,40.32477304820145 L 43.68735530622121,40.2683660458365" fill="none" stroke="rgb(107,53,53)" stroke-width="0.1"/>
  <path d="M 43.68735530622121,40.2683660458365 L 43.190196828938724,40.21231951016375" fill="none" stroke="rgb(107,53,53)" stroke-width="0.1"/>
  <path d="M 43.190196828938724,40.21231951016375 L 42.69299784392581,40.15663347064958" fill="none" stroke="rgb(107,53,53)" stroke-width="0.1"/>
  <path d="M 42.69299784392581,40.15663347064958 L 42.19575861258272,40.101307956570736" fill="none" stroke="rgb(107,53,53)" stroke-width="0.1"/>
  <path d="M 42.19575861258272,40.101307956570736 L 41.698479396331095,40.04634299701422" fill="none" stroke="rgb(107,53,53)" stroke-width="0.1"/>
  <path d="M 41.698479396331095,40.04634299701422 L 41.20116045661405,39.99173862087798" fill="none" stroke="rgb(107,53,53)" stroke-width="0.1"/>
  <path d="M 41.20116045661405,39.99173862087798 L 40.70380205489448,39.937494856869876" fill="none" stroke="rgb(107,53,53)" stroke-width="0.1"/>
  <path d="M 40.70380205489448,39.937494856869876 L 40.20640445265724,39.883611733508246" fill="none" stroke="rgb(107,53,53)" stroke-width="0.1"/>
  <path d="M 40.20640445265724,39.883611733508246 L 39.7089679114066,39.83008927912215" fill="none" stroke="rgb(107,53,53)" stroke-width="0.1"/>
  <path d="M 39.7089679114066,39.83008927912215 L 39.21149269266857,39.776927521850666" fill="none" stroke="rgb(107,53,53)" stroke-width="0.1"/>
  <path d="M 39.21149269266857,39.776927521850666 L 38.71397905798847,39.72412648964348" fill="none" stroke="rgb(107,53,53)" stroke-width="0.1"/>
  <path d="M 38.71397905798847,39.72412648964348 L 38.21642726893242,39.67168621026042" fill="none" stroke="rgb(107,53,53)" stroke-width="0.1"/>
  <path d="M 38.21642726893242,39.67168621026042 L 37.718837587086,39.6196067112719" fill="none" stroke="rgb(107,53,53)" stroke-width="0.1"/>
  <path d="M 37.718837587086,39.6196067112719 L 37.22121027405558,39.567888020058376" fill="none" stroke="rgb(107,53,53)" stroke-width="0.1"/>
  <path d="M 37.22121027405558,39.567888020058376 L 36.72354559146686,39.5165301638109" fill="none" stroke="rgb(107,53,53)" stroke-width="0.1"/>
  <path d="M 36.72354559146686,39.5165301638109 L 36.225843800964526,39.46553316953066" fill="none" stroke="rgb(107,53,53)" stroke-width="0.1"/>
  <path d="M 36.225843800964526,39.46553316953066 L 35.72810516421407,39.41489706402899" fill="none" stroke="rgb(107,53,53)" stroke-width="0.1"/>
  <path d="M 35.72810516421407,39.41489706402899 L 35.230329942899175,39.36462187392772" fill="none" stroke="rgb(107,53,53)" stroke-width="0.1"/>
  <path d="M 35.230329942899175,39.36462187392772 L 34.73251839872353,39.3147076256588" fill="none" stroke="rgb(107,53,53)" stroke-width="0.1"/>
  <path d="M 34.73251839872353,39.3147076256588 L 34.234670793409805,39.265154345464566" fill="none" stroke="rgb(107,53,53)" stroke-width="0.1"/>
  <path d="M 34.234670793409805,39.265154345464566 L 33.73678738869921,39.215962059397384" fill="none" stroke="rgb(107,53,53)" stroke-width="0.1"/>
  <path d="M 33.73678738869921,39.215962059397384 L 33.23886844635206,39.16713079331987" fill="none" stroke="rgb(107,53,53)" stroke-width="0.1"/>
  <path d="M 33.23886844635206,39.16713079331987 L 32.74091422814752,39.1186605729049" fill="none" stroke="rgb(107,53,53)" stroke-width="0.1"/>
  <path d="M 32.74091422814752,39.1186605729049 L 32.2429249958833,39.07055142363561" fill="none" stroke="rgb(107,53,53)" stroke-width="0.1"/>
  <path d="M 32.2429249958833,39.07055142363561 L 31.744901011374736,39.022803370805036" fill="none" stroke="rgb(107,53,53)" stroke-width="0.1"/>
  <path d="M 31.744901011374736,39.022803370805036 L 31.24684253645671,38.97541643951672" fill="none" stroke="rgb(107,53,53)" stroke-width="0.1"/>
  <path d="M 31.24684253645671,38.97541643951672 L 30.74874983298116,38.92839065468388" fill="none" stroke="rgb(107,53,53)" stroke-width="0.1"/>
  <path d="M 30.74874983298116,38.92839065468388 L 30.250623162818556,38.88172604103056" fill="none" stroke="rgb(107,53,53)" stroke-width="0.1"/>
  <path d="M 30.250623162818556,38.88172604103056 L 29.752462787857098,38.83542262309015" fill="none" stroke="rgb(107,53,53)" stroke-width="0.1"/>
  <path d="M 29.752462787857098,38.83542262309015 L 29.2542689700025,38.78948042520665" fill="none" stroke="rgb(107,53,53)" stroke-width="0.1"/>
  <path d="M 29.2542689700025,38.78948042520665 L 28.756041971178888,38.74389947153395" fill="none" stroke="rgb(107,53,53)" stroke-width="0.1"/>
  <path d="M 28.756041971178888,38.74389947153395 L 28.257782053326537,38.69867978603611" fill="none" stroke="rgb(107,53,53)" stroke-width="0.1"/>
  <path d="M 28.257782053326537,38.69867978603611 L 27.75948947840402,38.65382139248709" fill="none" stroke="rgb(107,53,53)" stroke-width="0.1"/>
  <path d="M 27.75948947840402,38.65382139248709 L 27.261164508386628,38.60932431447122" fill="none" stroke="rgb(107,53,53)" stroke-width="0.1"/>
  <path d="M 27.261164508386628,38.60932431447122 L 26.762807405266926,38.565188575382535" fill="none" stroke="rgb(107,53,53)" stroke-width="0.1"/>
  <path d="M 26.762807405266926,38.565188575382535 L 26.264418431054423,38.52141419842508" fill="none" stroke="rgb(107,53,53)" stroke-width="0.1"/>
  <path d="M 26.264418431054423,38.52141419842508 L 25.765997847774884,38.4780012066135" fill="none" stroke="rgb(107,53,53)" stroke-width="0.1"/>
  <path d="M 25.765997847774884,38.4780012066135 L 25.267545917471125,38.43494962277157" fill="none" stroke="rgb(107,53,53)" stroke-width="0.1"/>
  <path d="M 25.267545917471125,38.43494962277157 L 24.769062902202563,38.39225946953377" fill="none" stroke="rgb(107,53,53)" stroke-width="0.1"/>
  <path d="M 24.769062902202563,38.39225946953377 L 24.270549064044758,38.349930769344155" fill="none" stroke="rgb(107,53,53)" stroke-width="0.1"/>
  <path d="M 24.270549064044758,38.349930769344155 L 23.772004665089185,38.307963544456925" fill="none" stroke="rgb(107,53,53)" stroke-width="0.1"/>
  <path d="M 23.772004665089185,38.307963544456925 L 23.273429967443803,38.26635781693608" fill="none" stroke="rgb(107,53,53)" stroke-width="0.1"/>
  <path d="M 23.273429967443803,38.26635781693608 L 22.774825233232264,38.225113608655874" fill="none" stroke="rgb(107,53,53)" stroke-width="0.1"/>
  <path d="M 22.774825233232264,38.225113608655874 L 22.276190724594358,38.18423094130014" fill="none" stroke="rgb(107,53,53)" stroke-width="0.1"/>
  <path d="M 22.276190724594358,38.18423094130014 L 21.777526703685112,38.14370983636286" fill="none" stroke="rgb(107,53,53)" stroke-width="0.1"/>
  <path d="M 21.777526703685112,38.14370983636286 L 21.278833432675242,38.1035503151478" fill="none" stroke="rgb(107,53,53)" stroke-width="0.1"/>
  <path d="M 21.278833432675242,38.1035503151478 L 20.780111173750925,38.063752398768884" fill="none" stroke="rgb(107,53,53)" stroke-width="0.1"/>
  <path d="M 20.780111173750925,38.063752398768884 L 20.281360189113343,38.02431610814938" fill="none" stroke="rgb(107,53,53)" stroke-width="0.1"/>
  <path d="M 20.281360189113343,38.02431610814938 L 19.782580740979256,37.98524146402292" fill="none" stroke="rgb(107,53,53)" stroke-width="0.1"/>
  <path d="M 19.782580740979256,37.98524146402292 L 19.283773091579633,37.946528486932834" fill="none" stroke="rgb(107,53,53)" stroke-width="0.1"/>
  <path d="M 19.283773091579633,37.946528486932834 L 18.78493750316079,37.90817719723236" fill="none" stroke="rgb(107,53,53)" stroke-width="0.1"/>
  <path d="M 18.78493750316079,37.90817719723236 L 18.28607423798394,37.87018761508455" fill="none" stroke="rgb(107,53,53)" stroke-width="0.1"/>
  <path d="M 18.28607423798394,37.87018761508455 L 17.787183558324386,37.83255976046223" fill="none" stroke="rgb(107,53,53)" stroke-width="0.1"/>
  <path d="M 17.787183558324386,37.83255976046223 L 17.288265726471877,37.795293653148065" fill="none" stroke="rgb(107,53,53)" stroke-width="0.1"/>
  <path d="M 17.288265726471877,37.795293653148065 L 16.789321004730596,37.75838931273472" fill="none" stroke="rgb(107,53,53)" stroke-width="0.1"/>
  <path d="M 16.789321004730596,37.75838931273472 L 16.290349655419163,37.72184675862445" fill="none" stroke="rgb(107,53,53)" stroke-width="0.1"/>
  <path d="M 16.290349655419163,37.72184675862445 L 15.79135194086939,37.685666010029195" fill="none" stroke="rgb(107,53,53)" stroke-width="0.1"/>
  <path d="M 15.79135194086939,37.685666010029195 L 15.292328123427865,37.649847085971146" fill="none" stroke="rgb(107,53,53)" stroke-width="0.1"/>
  <path d="M 15.292328123427865,37.649847085971146 L 14.793278465454023,37.614390005281734" fill="none" stroke="rgb(107,53,53)" stroke-width="0.1"/>
  <path d="M 14.793278465454023,37.614390005281734 L 14.294203229321624,37.57929478660242" fill="none" stroke="rgb(107,53,53)" stroke-width="0.1"/>
  <path d="M 14.294203229321624,37.57929478660242 L 13.795102677417617,37.54456144838457" fill="none" stroke="rgb(107,53,53)" stroke-width="0.1"/>
  <path d="M 13.795102677417617,37.54456144838457 L 13.295977072142023,37.5101900088888" fill="none" stroke="rgb(107,53,53)" stroke-width="0.1"/>
  <path d="M 13.295977072142023,37.5101900088888 L 12.796826675908505,37.47618048618597" fill="none" stroke="rgb(107,53,53)" stroke-width="0.1"/>
  <path d="M 12.796826675908505,37.47618048618597 L 12.297651751142894,37.4425328981564" fill="none" stroke="rgb(107,53,53)" stroke-width="0.1"/>
  <path d="M 12.297651751142894,37.4425328981564 L 11.798452560285341,37.409247262490226" fill="none" stroke="rgb(107,53,53)" stroke-width="0.1"/>
  <path d="M 11.798452560285341,37.409247262490226 L 11.299229365787255,37.37632359668714" fill="none" stroke="rgb(107,53,53)" stroke-width="0.1"/>
  <path d="M 11.299229365787255,37.37632359668714 L 10.799982430113573,37.34376191805666" fill="none" stroke="rgb(107,53,53)" stroke-width="0.1"/>
  <path d="M 10.799982430113573,37.34376191805666 L 10.300712015741624,37.31156224371807" fill="none" stroke="rgb(107,53,53)" stroke-width="0.1"/>
  <path d="M 10.300712015741624,37.31156224371807 L 9.801418385160673,37.27972459060027" fill="none" stroke="rgb(107,53,53)" stroke-width="0.1"/>
  <path d="M 9.801418385160673,37.27972459060027 L 9.302101800872606,37.248248975441584" fill="none" stroke="rgb(107,53,53)" stroke-width="0.1"/>
  <path d="M 9.302101800872606,37.248248975441584 L 8.802762525391131,37.21713541479028" fill="none" stroke="rgb(107,53,53)" stroke-width="0.1"/>
  <path d="M 8.802762525391131,37.21713541479028 L 8.303400821242235,37.186383925004066" fill="none" stroke="rgb(107,53,53)" stroke-width="0.1"/>
  <path d="M 8.303400821242235,37.186383925004066 L 7.804016950963046,37.15599452225081" fill="none" stroke="rgb(107,53,53)" stroke-width="0.1"/>
  <path d="M 7.804016950963046,37.15599452225081 L 7.30461117710297,37.125967222507256" fill="none" stroke="rgb(107,53,53)" stroke-width="0.1"/>
  <path d="M 7.30461117710297,37.125967222507256 L 6.805183762222555,37.09630204156019" fill="none" stroke="rgb(107,53,53)" stroke-width="0.1"/>
  <path d="M 6.805183762222555,37.09630204156019 L 6.30573496889383,37.0669989950062" fill="none" stroke="rgb(107,53,53)" stroke-width="0.1"/>
  <path d="M 6.30573496889383,37.0669989950062 L 5.806265059700422,37.038058098250985" fill="none" stroke="rgb(107,53,53)" stroke-width="0.1"/>
  <path d="M 5.806265059700422,37.038058098250985 L 5.3067742972365295,37.00947936651028" fill="none" stroke="rgb(107,53,53)" stroke-width="0.1"/>
  <path d="M 5.3067742972365295,37.00947936651028 L 4.807262944107606,36.981262814809156" fill="none" stroke="rgb(107,53,53)" stroke-width="0.1"/>
  <path d="M 4.807262944107606,36.981262814809156 L 4.307731262929337,36.95340845798228" fill="none" stroke="rgb(107,53,53)" stroke-width="0.1"/>
  <path d="M 4.307731262929337,36.95340845798228 L 3.8081795163295737,36.92591631067421" fill="none" stroke="rgb(107,53,53)" stroke-width="0.1"/>
  <path d="M 3.8081795163295737,36.92591631067421 L 3.308607966944919,36.898786387338646" fill="none" stroke="rgb(107,53,53)" stroke-width="0.1"/>
  <path d="M 3.308607966944919,36.898786387338646 L 2.8090168774235735,36.872018702239075" fill="none" stroke="rgb(107,53,53)" stroke-width="0.1"/>
  <path d="M 2.8090168774235735,36.872018702239075 L 2.309406510423514,36.84561326944856" fill="none" stroke="rgb(107,53,53)" stroke-width="0.1"/>
  <path d="M 2.309406510423514,36.84561326944856 L 1.8097771286131774,36.81957010284964" fill="none" stroke="rgb(107,53,53)" stroke-width="0.1"/>
  <path d="M 1.8097771286131774,36.81957010284964 L 1.310128994670663,36.7938892161344" fill="none" stroke="rgb(107,53,53)" stroke-width="0.1"/>
  <path d="M 1.310128994670663,36.7938892161344 L 0.8104623712840748,36.76857062280442" fill="none" stroke="rgb(107,53,53)" stroke-width="0.1"/>
  <path d="M 0.8104623712840748,36.76857062280442 L 0.3107775211514081,36.743614336170936" fill="none" stroke="rgb(107,53,53)" stroke-width="0.1"/>
 </g>
 <g id="layerA-PUB_TEXT" inkscape:groupmode="layer" inkscape:label="A-PUB_TEXT">
  <text fill="rgb(0,0,0)" font-family="Noto Sans CJK SC" font-size="2" transform="rotate(-0.0,52.1156575,57.27365100000003)" x="52.1156575" y="57.27365100000003">
   排风
  </text>
 </g>
 <g id="layerA-WALL" inkscape:groupmode="layer" inkscape:label="A-WALL">
  <path d="M 75.01319013149384,0.0 L 74.71965750000004,1.994651000000033" fill="none" instance-id="-1" semantic-id="1" stroke="rgb(0,178,178)" stroke-width="0.1"/>
  <path d="M 72.99191680346632,0.0 L 72.74165749999997,1.700651000000022" fill="none" instance-id="-1" semantic-id="1" stroke="rgb(0,178,178)" stroke-width="0.1"/>
  <path d="M 74.71965750000004,1.994651000000033 L 72.74165749999997,1.700651000000022" fill="none" instance-id="-1" semantic-id="1" stroke="rgb(0,178,178)" stroke-width="0.1"/>
  <path d="M 68.0436575,47.50065100000003 L 68.0436575,50.29765100000003" fill="none" instance-id="-1" semantic-id="1" stroke="rgb(0,178,178)" stroke-width="0.1"/>
  <path d="M 66.0436575,47.209651000000036 L 66.0436575,52.29765100000003" fill="none" instance-id="-1" semantic-id="1" stroke="rgb(0,178,178)" stroke-width="0.1"/>
  <path d="M 69.43865749999998,40.635651000000024 L 73.5436575,41.23365100000001" fill="none" instance-id="-1" semantic-id="1" stroke="rgb(0,178,178)" stroke-width="0.1"/>
  <path d="M 69.15065749999997,42.61465100000001 L 71.5436575,42.96365100000003" fill="none" instance-id="-1" semantic-id="1" stroke="rgb(0,178,178)" stroke-width="0.1"/>
  <path d="M 73.5436575,41.23365100000001 L 73.5436575,52.29765100000003" fill="none" instance-id="-1" semantic-id="1" stroke="rgb(0,178,178)" stroke-width="0.1"/>
  <path d="M 71.5436575,42.96365100000003 L 71.5436575,50.29765100000003" fill="none" instance-id="-1" semantic-id="1" stroke="rgb(0,178,178)" stroke-width="0.1"/>
  <path d="M 73.5436575,52.29765100000003 L 66.0436575,52.29765100000003" fill="none" instance-id="-1" semantic-id="1" stroke="rgb(0,178,178)" stroke-width="0.1"/>
  <path d="M 71.5436575,50.29765100000003 L 68.0436575,50.29765100000003" fill="none" instance-id="-1" semantic-id="1" stroke="rgb(0,178,178)" stroke-width="0.1"/>
 </g>
 <g id="layerA-WALL-CURT-GLAZ" inkscape:groupmode="layer" inkscape:label="A-WALL-CURT-GLAZ">
  <path d="M 72.88665749999996,0.7106510000000128 L 72.39116619612321,0.6378895295407574" fill="none" instance-id="-1" semantic-id="2" stroke="rgb(255,133,12)" stroke-width="0.1"/>
  <path d="M 72.39116619612321,0.6378895295407574 L 71.89562529531293,0.5654666089627653" fill="none" instance-id="-1" semantic-id="2" stroke="rgb(255,133,12)" stroke-width="0.1"/>
  <path d="M 71.89562529531293,0.5654666089627653 L 71.40003502888692,0.4933822720727221" fill="none" instance-id="-1" semantic-id="2" stroke="rgb(255,133,12)" stroke-width="0.1"/>
  <path d="M 71.40003502888692,0.4933822720727221 L 70.90439562818665,0.4216365525196579" fill="none" instance-id="-1" semantic-id="2" stroke="rgb(255,133,12)" stroke-width="0.1"/>
  <path d="M 70.90439562818665,0.4216365525196579 L 70.40870732457529,0.35022948379423724" fill="none" instance-id="-1" semantic-id="2" stroke="rgb(255,133,12)" stroke-width="0.1"/>
  <path d="M 70.40870732457529,0.35022948379423724 L 69.91297034944023,0.27916109922955457" fill="none" instance-id="-1" semantic-id="2" stroke="rgb(255,133,12)" stroke-width="0.1"/>
  <path d="M 69.91297034944023,0.27916109922955457 L 69.41718493419023,0.2084314319997702" fill="none" instance-id="-1" semantic-id="2" stroke="rgb(255,133,12)" stroke-width="0.1"/>
  <path d="M 69.41718493419023,0.2084314319997702 L 68.92135131025782,0.1380405151217019" fill="none" instance-id="-1" semantic-id="2" stroke="rgb(255,133,12)" stroke-width="0.1"/>
  <path d="M 68.92135131025782,0.1380405151217019 L 68.42546970909734,0.06798838145368791" fill="none" instance-id="-1" semantic-id="2" stroke="rgb(255,133,12)" stroke-width="0.1"/>
  <path d="M 72.74165749999997,1.700651000000022 L 72.24683717612527,1.627988362529436" fill="none" instance-id="-1" semantic-id="2" stroke="rgb(255,133,12)" stroke-width="0.1"/>
  <path d="M 72.24683717612527,1.627988362529436 L 71.75196732219126,1.5556638198704604" fill="none" instance-id="-1" semantic-id="2" stroke="rgb(255,133,12)" stroke-width="0.1"/>
  <path d="M 71.75196732219126,1.5556638198704604 L 71.25704816920688,1.4836774057847606" fill="none" instance-id="-1" semantic-id="2" stroke="rgb(255,133,12)" stroke-width="0.1"/>
  <path d="M 71.25704816920688,1.4836774057847606 L 70.76207994820459,1.4120291538761194" fill="none" instance-id="-1" semantic-id="2" stroke="rgb(255,133,12)" stroke-width="0.1"/>
  <path d="M 70.76207994820459,1.4120291538761194 L 70.26706289023991,1.3407190975907497" fill="none" instance-id="-1" semantic-id="2" stroke="rgb(255,133,12)" stroke-width="0.1"/>
  <path d="M 70.26706289023991,1.3407190975907497 L 69.77199722639034,1.269747270216385" fill="none" instance-id="-1" semantic-id="2" stroke="rgb(255,133,12)" stroke-width="0.1"/>
  <path d="M 69.77199722639034,1.269747270216385 L 69.27688318775677,1.1991137048836435" fill="none" instance-id="-1" semantic-id="2" stroke="rgb(255,133,12)" stroke-width="0.1"/>
  <path d="M 69.27688318775677,1.1991137048836435 L 68.7817210054626,1.1288184345646641" fill="none" instance-id="-1" semantic-id="2" stroke="rgb(255,133,12)" stroke-width="0.1"/>
  <path d="M 68.7817210054626,1.1288184345646641 L 68.28651091065342,1.0588614920736745" fill="none" instance-id="-1" semantic-id="2" stroke="rgb(255,133,12)" stroke-width="0.1"/>
  <path d="M 68.28651091065342,1.0588614920736745 L 67.79125313449731,0.9892429100674462" fill="none" instance-id="-1" semantic-id="2" stroke="rgb(255,133,12)" stroke-width="0.1"/>
  <path d="M 67.79125313449731,0.9892429100674462 L 67.29594790818487,0.9199627210444987" fill="none" instance-id="-1" semantic-id="2" stroke="rgb(255,133,12)" stroke-width="0.1"/>
  <path d="M 67.29594790818487,0.9199627210444987 L 66.8005954629283,0.851020957345213" fill="none" instance-id="-1" semantic-id="2" stroke="rgb(255,133,12)" stroke-width="0.1"/>
  <path d="M 66.8005954629283,0.851020957345213 L 66.30519602996219,0.7824176511520591" fill="none" instance-id="-1" semantic-id="2" stroke="rgb(255,133,12)" stroke-width="0.1"/>
  <path d="M 66.30519602996219,0.7824176511520591 L 65.8097498405433,0.7141528344900507" fill="none" instance-id="-1" semantic-id="2" stroke="rgb(255,133,12)" stroke-width="0.1"/>
  <path d="M 65.8097498405433,0.7141528344900507 L 65.3142571259499,0.6462265392253812" fill="none" instance-id="-1" semantic-id="2" stroke="rgb(255,133,12)" stroke-width="0.1"/>
  <path d="M 65.3142571259499,0.6462265392253812 L 64.81871811748181,0.5786387970666738" fill="none" instance-id="-1" semantic-id="2" stroke="rgb(255,133,12)" stroke-width="0.1"/>
  <path d="M 64.81871811748181,0.5786387970666738 L 64.32313304646084,0.511389639564527" fill="none" instance-id="-1" semantic-id="2" stroke="rgb(255,133,12)" stroke-width="0.1"/>
  <path d="M 64.32313304646084,0.511389639564527 L 63.82750214423015,0.44447909811140107" fill="none" instance-id="-1" semantic-id="2" stroke="rgb(255,133,12)" stroke-width="0.1"/>
  <path d="M 63.82750214423015,0.44447909811140107 L 63.33182564215417,0.3779072039416178" fill="none" instance-id="-1" semantic-id="2" stroke="rgb(255,133,12)" stroke-width="0.1"/>
  <path d="M 63.33182564215417,0.3779072039416178 L 62.836103771618696,0.3116739881314743" fill="none" instance-id="-1" semantic-id="2" stroke="rgb(255,133,12)" stroke-width="0.1"/>
  <path d="M 62.836103771618696,0.3116739881314743 L 62.34033676403135,0.2457794815991292" fill="none" instance-id="-1" semantic-id="2" stroke="rgb(255,133,12)" stroke-width="0.1"/>
  <path d="M 62.34033676403135,0.2457794815991292 L 61.84452485081931,0.18022371510483026" fill="none" instance-id="-1" semantic-id="2" stroke="rgb(255,133,12)" stroke-width="0.1"/>
  <path d="M 61.84452485081931,0.18022371510483026 L 61.34866826343193,0.11500671925034567" fill="none" instance-id="-1" semantic-id="2" stroke="rgb(255,133,12)" stroke-width="0.1"/>
  <path d="M 61.34866826343193,0.11500671925034567 L 60.85276723333948,0.05012852447976002" fill="none" instance-id="-1" semantic-id="2" stroke="rgb(255,133,12)" stroke-width="0.1"/>
 </g>
 <g id="layerA-楼板开洞" inkscape:groupmode="layer" inkscape:label="A-楼板开洞">
  <path d="M 68.0436575,47.50065100000003 L 68.0436575,50.29765100000003" fill="none" stroke="rgb(107,142,0)" stroke-width="0.1"/>
  <path d="M 68.0436575,50.29765100000003 L 71.5436575,50.29765100000003" fill="none" stroke="rgb(107,142,0)" stroke-width="0.1"/>
  <path d="M 71.5436575,50.29765100000003 L 71.5436575,43.99365100000003" fill="none" stroke="rgb(107,142,0)" stroke-width="0.1"/>
  <path d="M 71.5436575,43.99365100000003 L 69.00565749999998,43.60765100000003" fill="none" stroke="rgb(107,142,0)" stroke-width="0.1"/>
  <path d="M 69.00565749999998,43.60765100000003 L 68.43065749999994,47.556651000000016" fill="none" stroke="rgb(107,142,0)" stroke-width="0.1"/>
  <path d="M 68.43065749999994,47.556651000000016 L 68.0436575,47.50065100000003" fill="none" stroke="rgb(107,142,0)" stroke-width="0.1"/>
  <path d="M 71.5436575,43.99365100000003 L 69.15065749999997,45.35865100000001" fill="none" stroke="rgb(107,142,0)" stroke-width="0.1"/>
  <path d="M 69.15065749999997,45.35865100000001 L 68.0436575,50.29765100000003" fill="none" stroke="rgb(107,142,0)" stroke-width="0.1"/>
 </g>
</svg>