<?xml version="1.0" encoding="utf-8"?>
<svg style="background-color: #000;" version="1.1" viewBox="0 0 100.0 100.0" xmlns="http://www.w3.org/2000/svg" xmlns:inkscape="http://www.inkscape.org/namespaces/inkscape">
 <g id="layerA-DOTE" inkscape:groupmode="layer" inkscape:label="A-DOTE">
  <path d="M 8.14814899999999,100.0 L 8.14814899999999,0.0" fill="none" stroke="rgb(107,53,53)" stroke-width="0.1"/>
  <path d="M 98.1481490000001,100.0 L 98.1481490000001,0.0" fill="none" stroke="rgb(107,53,53)" stroke-width="0.1"/>
  <path d="M 0.0,14.13515099999995 L 100.0,14.13515099999995" fill="none" stroke="rgb(107,53,53)" stroke-width="0.1"/>
  <path d="M 0.02669375293316989,50.31699027765774 L 0.5264377309156316,50.33392813098146" fill="none" stroke="rgb(107,53,53)" stroke-width="0.1"/>
  <path d="M 0.5264377309156316,50.33392813098146 L 1.026187671556272,50.35068913438147" fill="none" stroke="rgb(107,53,53)" stroke-width="0.1"/>
  <path d="M 1.026187671556272,50.35068913438147 L 1.5259435122703735,50.36727328575864" fill="none" stroke="rgb(107,53,53)" stroke-width="0.1"/>
  <path d="M 1.5259435122703735,50.36727328575864 L 2.0257051904744685,50.383680583035925" fill="none" stroke="rgb(107,53,53)" stroke-width="0.1"/>
  <path d="M 2.0257051904744685,50.383680583035925 L 2.5254726435820203,50.39991102415877" fill="none" stroke="rgb(107,53,53)" stroke-width="0.1"/>
  <path d="M 2.5254726435820203,50.39991102415877 L 3.025245809008652,50.41596460709491" fill="none" stroke="rgb(107,53,53)" stroke-width="0.1"/>
  <path d="M 3.025245809008652,50.41596460709491 L 3.525024624166008,50.431841329833446" fill="none" stroke="rgb(107,53,53)" stroke-width="0.1"/>
  <path d="M 3.525024624166008,50.431841329833446 L 4.024809026467324,50.44754119038646" fill="none" stroke="rgb(107,53,53)" stroke-width="0.1"/>
  <path d="M 4.024809026467324,50.44754119038646 L 4.524598953324244,50.46306418678785" fill="none" stroke="rgb(107,53,53)" stroke-width="0.1"/>
  <path d="M 4.524598953324244,50.46306418678785 L 5.0243943421481845,50.47841031709356" fill="none" stroke="rgb(107,53,53)" stroke-width="0.1"/>
  <path d="M 5.0243943421481845,50.47841031709356 L 5.52419513034954,50.493579579381844" fill="none" stroke="rgb(107,53,53)" stroke-width="0.1"/>
  <path d="M 5.52419513034954,50.493579579381844 L 6.024001255338021,50.508571971752986" fill="none" stroke="rgb(107,53,53)" stroke-width="0.1"/>
  <path d="M 6.024001255338021,50.508571971752986 L 6.5238126545231125,50.52338749232956" fill="none" stroke="rgb(107,53,53)" stroke-width="0.1"/>
  <path d="M 6.5238126545231125,50.52338749232956 L 7.023629265312707,50.5380261392562" fill="none" stroke="rgb(107,53,53)" stroke-width="0.1"/>
  <path d="M 7.023629265312707,50.5380261392562 L 7.5234510251148095,50.5524879106996" fill="none" stroke="rgb(107,53,53)" stroke-width="0.1"/>
  <path d="M 7.5234510251148095,50.5524879106996 L 8.023277871336745,50.56677280484894" fill="none" stroke="rgb(107,53,53)" stroke-width="0.1"/>
  <path d="M 8.023277871336745,50.56677280484894 L 8.52310974138527,50.58088081991525" fill="none" stroke="rgb(107,53,53)" stroke-width="0.1"/>
  <path d="M 8.52310974138527,50.58088081991525 L 9.022946572665433,50.59481195413139" fill="none" stroke="rgb(107,53,53)" stroke-width="0.1"/>
  <path d="M 9.022946572665433,50.59481195413139 L 9.522788302583649,50.60856620575339" fill="none" stroke="rgb(107,53,53)" stroke-width="0.1"/>
  <path d="M 9.522788302583649,50.60856620575339 L 10.022634868543719,50.62214357305845" fill="none" stroke="rgb(107,53,53)" stroke-width="0.1"/>
  <path d="M 10.022634868543719,50.62214357305845 L 10.522486207950237,50.63554405434604" fill="none" stroke="rgb(107,53,53)" stroke-width="0.1"/>
  <path d="M 10.522486207950237,50.63554405434604 L 11.022342258206322,50.64876764793837" fill="none" stroke="rgb(107,53,53)" stroke-width="0.1"/>
  <path d="M 11.022342258206322,50.64876764793837 L 11.522202956714864,50.661814352179476" fill="none" stroke="rgb(107,53,53)" stroke-width="0.1"/>
  <path d="M 11.522202956714864,50.661814352179476 L 12.022068240878298,50.67468416543545" fill="none" stroke="rgb(107,53,53)" stroke-width="0.1"/>
  <path d="M 12.022068240878298,50.67468416543545 L 12.521938048098264,50.68737708609444" fill="none" stroke="rgb(107,53,53)" stroke-width="0.1"/>
  <path d="M 12.521938048098264,50.68737708609444 L 13.021812315775946,50.69989311256688" fill="none" stroke="rgb(107,53,53)" stroke-width="0.1"/>
  <path d="M 13.021812315775946,50.69989311256688 L 13.521690981312304,50.71223224328571" fill="none" stroke="rgb(107,53,53)" stroke-width="0.1"/>
  <path d="M 13.521690981312304,50.71223224328571 L 14.021573982106815,50.7243944767057" fill="none" stroke="rgb(107,53,53)" stroke-width="0.1"/>
  <path d="M 14.021573982106815,50.7243944767057 L 14.521461255559075,50.73637981130321" fill="none" stroke="rgb(107,53,53)" stroke-width="0.1"/>
  <path d="M 14.521461255559075,50.73637981130321 L 15.02135273906822,50.74818824557781" fill="none" stroke="rgb(107,53,53)" stroke-width="0.1"/>
  <path d="M 15.02135273906822,50.74818824557781 L 15.521248370032708,50.759819778050655" fill="none" stroke="rgb(107,53,53)" stroke-width="0.1"/>
  <path d="M 15.521248370032708,50.759819778050655 L 16.021148085850427,50.77127440726497" fill="none" stroke="rgb(107,53,53)" stroke-width="0.1"/>
  <path d="M 16.021148085850427,50.77127440726497 L 16.521051823918583,50.782552131786474" fill="none" stroke="rgb(107,53,53)" stroke-width="0.1"/>
  <path d="M 16.521051823918583,50.782552131786474 L 17.020959521635064,50.79365295020273" fill="none" stroke="rgb(107,53,53)" stroke-width="0.1"/>
  <path d="M 17.020959521635064,50.79365295020273 L 17.52087111639446,50.804576861123564" fill="none" stroke="rgb(107,53,53)" stroke-width="0.1"/>
  <path d="M 17.52087111639446,50.804576861123564 L 18.02078654559432,50.815323863181106" fill="none" stroke="rgb(107,53,53)" stroke-width="0.1"/>
  <path d="M 18.02078654559432,50.815323863181106 L 18.52070574662889,50.8258939550293" fill="none" stroke="rgb(107,53,53)" stroke-width="0.1"/>
  <path d="M 18.52070574662889,50.8258939550293 L 19.02062865689436,50.836287135344605" fill="none" stroke="rgb(107,53,53)" stroke-width="0.1"/>
  <path d="M 19.02062865689436,50.836287135344605 L 19.520555213784178,50.84650340282553" fill="none" stroke="rgb(107,53,53)" stroke-width="0.1"/>
  <path d="M 19.520555213784178,50.84650340282553 L 20.020485354693164,50.856542756192425" fill="none" stroke="rgb(107,53,53)" stroke-width="0.1"/>
  <path d="M 20.020485354693164,50.856542756192425 L 20.52041901701432,50.86640519418859" fill="none" stroke="rgb(107,53,53)" stroke-width="0.1"/>
  <path d="M 20.52041901701432,50.86640519418859 L 21.02035613814087,50.87609071557824" fill="none" stroke="rgb(107,53,53)" stroke-width="0.1"/>
  <path d="M 21.02035613814087,50.87609071557824 L 21.520296655465927,50.88559931914904" fill="none" stroke="rgb(107,53,53)" stroke-width="0.1"/>
  <path d="M 21.520296655465927,50.88559931914904 L 22.02024050638147,50.89493100370976" fill="none" stroke="rgb(107,53,53)" stroke-width="0.1"/>
  <path d="M 22.02024050638147,50.89493100370976 L 22.520187628279473,50.904085768092386" fill="none" stroke="rgb(107,53,53)" stroke-width="0.1"/>
  <path d="M 22.520187628279473,50.904085768092386 L 23.02013795855146,50.91306361114982" fill="none" stroke="rgb(107,53,53)" stroke-width="0.1"/>
  <path d="M 23.02013795855146,50.91306361114982 L 23.52009143458872,50.92186453175816" fill="none" stroke="rgb(107,53,53)" stroke-width="0.1"/>
  <path d="M 23.52009143458872,50.92186453175816 L 24.020047993781418,50.93048852881509" fill="none" stroke="rgb(107,53,53)" stroke-width="0.1"/>
  <path d="M 24.020047993781418,50.93048852881509 L 24.520007573520388,50.93893560124059" fill="none" stroke="rgb(107,53,53)" stroke-width="0.1"/>
  <path d="M 24.520007573520388,50.93893560124059 L 25.019970111194652,50.94720574797714" fill="none" stroke="rgb(107,53,53)" stroke-width="0.1"/>
  <path d="M 25.019970111194652,50.94720574797714 L 25.519935544194823,50.955298967988824" fill="none" stroke="rgb(107,53,53)" stroke-width="0.1"/>
  <path d="M 25.519935544194823,50.955298967988824 L 26.019903809909238,50.96321526026202" fill="none" stroke="rgb(107,53,53)" stroke-width="0.1"/>
  <path d="M 26.019903809909238,50.96321526026202 L 26.519874845727827,50.970954623805596" fill="none" stroke="rgb(107,53,53)" stroke-width="0.1"/>
  <path d="M 26.519874845727827,50.970954623805596 L 27.019848589037792,50.978517057650265" fill="none" stroke="rgb(107,53,53)" stroke-width="0.1"/>
  <path d="M 27.019848589037792,50.978517057650265 L 27.5198249772277,50.98590256084901" fill="none" stroke="rgb(107,53,53)" stroke-width="0.1"/>
  <path d="M 27.5198249772277,50.98590256084901 L 28.01980394768566,50.99311113247688" fill="none" stroke="rgb(107,53,53)" stroke-width="0.1"/>
  <path d="M 28.01980394768566,50.99311113247688 L 28.519785437798873,51.000142771630976" fill="none" stroke="rgb(107,53,53)" stroke-width="0.1"/>
  <path d="M 28.519785437798873,51.000142771630976 L 29.019769384954543,51.00699747743113" fill="none" stroke="rgb(107,53,53)" stroke-width="0.1"/>
  <path d="M 29.019769384954543,51.00699747743113 L 29.519755726539643,51.013675249018775" fill="none" stroke="rgb(107,53,53)" stroke-width="0.1"/>
  <path d="M 29.519755726539643,51.013675249018775 L 30.01974439994092,51.02017608555741" fill="none" stroke="rgb(107,53,53)" stroke-width="0.1"/>
  <path d="M 30.01974439994092,51.02017608555741 L 30.51973534254421,51.02649998623326" fill="none" stroke="rgb(107,53,53)" stroke-width="0.1"/>
  <path d="M 30.51973534254421,51.02649998623326 L 31.019728491735577,51.032646950253934" fill="none" stroke="rgb(107,53,53)" stroke-width="0.1"/>
  <path d="M 31.019728491735577,51.032646950253934 L 31.51972378490086,51.03861697685022" fill="none" stroke="rgb(107,53,53)" stroke-width="0.1"/>
  <path d="M 31.51972378490086,51.03861697685022 L 32.019721159425444,51.04441006527429" fill="none" stroke="rgb(107,53,53)" stroke-width="0.1"/>
  <path d="M 32.019721159425444,51.04441006527429 L 32.51972055269471,51.050026214800596" fill="none" stroke="rgb(107,53,53)" stroke-width="0.1"/>
  <path d="M 32.51972055269471,51.050026214800596 L 33.019721902093806,51.05546542472564" fill="none" stroke="rgb(107,53,53)" stroke-width="0.1"/>
  <path d="M 33.019721902093806,51.05546542472564 L 33.519725145006305,51.06072769436844" fill="none" stroke="rgb(107,53,53)" stroke-width="0.1"/>
  <path d="M 33.519725145006305,51.06072769436844 L 34.01973021881781,51.06581302307006" fill="none" stroke="rgb(107,53,53)" stroke-width="0.1"/>
  <path d="M 34.01973021881781,51.06581302307006 L 34.51973706091144,51.07072141019387" fill="none" stroke="rgb(107,53,53)" stroke-width="0.1"/>
  <path d="M 34.51973706091144,51.07072141019387 L 35.019745608672565,51.07545285512458" fill="none" stroke="rgb(107,53,53)" stroke-width="0.1"/>
  <path d="M 35.019745608672565,51.07545285512458 L 35.519755799484074,51.08000735727012" fill="none" stroke="rgb(107,53,53)" stroke-width="0.1"/>
  <path d="M 35.519755799484074,51.08000735727012 L 36.01976757072953,51.08438491606023" fill="none" stroke="rgb(107,53,53)" stroke-width="0.1"/>
  <path d="M 36.01976757072953,51.08438491606023 L 36.51978085979272,51.08858553094626" fill="none" stroke="rgb(107,53,53)" stroke-width="0.1"/>
  <path d="M 36.51978085979272,51.08858553094626 L 37.019795604056526,51.092609201402524" fill="none" stroke="rgb(107,53,53)" stroke-width="0.1"/>
  <path d="M 37.019795604056526,51.092609201402524 L 37.51981174090383,51.09645592692516" fill="none" stroke="rgb(107,53,53)" stroke-width="0.1"/>
  <path d="M 37.51981174090383,51.09645592692516 L 38.01982920771775,51.100125707032134" fill="none" stroke="rgb(107,53,53)" stroke-width="0.1"/>
  <path d="M 38.01982920771775,51.100125707032134 L 38.5198479418807,51.103618541264154" fill="none" stroke="rgb(107,53,53)" stroke-width="0.1"/>
  <path d="M 38.5198479418807,51.103618541264154 L 39.019867880775564,51.10693442918375" fill="none" stroke="rgb(107,53,53)" stroke-width="0.1"/>
  <path d="M 39.019867880775564,51.10693442918375 L 39.51988896178432,51.110073370375744" fill="none" stroke="rgb(107,53,53)" stroke-width="0.1"/>
  <path d="M 39.51988896178432,51.110073370375744 L 40.019911122289614,51.113035364446546" fill="none" stroke="rgb(107,53,53)" stroke-width="0.1"/>
  <path d="M 40.019911122289614,51.113035364446546 L 40.51993429967342,51.11582041102599" fill="none" stroke="rgb(107,53,53)" stroke-width="0.1"/>
  <path d="M 40.51993429967342,51.11582041102599 L 41.01995843131681,51.11842850976461" fill="none" stroke="rgb(107,53,53)" stroke-width="0.1"/>
  <path d="M 41.01995843131681,51.11842850976461 L 41.51998345460288,51.12085966033658" fill="none" stroke="rgb(107,53,53)" stroke-width="0.1"/>
  <path d="M 41.51998345460288,51.12085966033658 L 42.020009306912016,51.12311386243675" fill="none" stroke="rgb(107,53,53)" stroke-width="0.1"/>
  <path d="M 42.020009306912016,51.12311386243675 L 42.520035925627326,51.12519111578297" fill="none" stroke="rgb(107,53,53)" stroke-width="0.1"/>
  <path d="M 42.520035925627326,51.12519111578297 L 43.02006324812919,51.12709142011511" fill="none" stroke="rgb(107,53,53)" stroke-width="0.1"/>
  <path d="M 43.02006324812919,51.12709142011511 L 43.52009121179981,51.128814775195565" fill="none" stroke="rgb(107,53,53)" stroke-width="0.1"/>
  <path d="M 43.52009121179981,51.128814775195565 L 44.020119754020016,51.13036118080811" fill="none" stroke="rgb(107,53,53)" stroke-width="0.1"/>
  <path d="M 44.020119754020016,51.13036118080811 L 44.52014881217087,51.131730636759016" fill="none" stroke="rgb(107,53,53)" stroke-width="0.1"/>
  <path d="M 44.52014881217087,51.131730636759016 L 45.02017832363413,51.1329231428773" fill="none" stroke="rgb(107,53,53)" stroke-width="0.1"/>
  <path d="M 45.02017832363413,51.1329231428773 L 45.52020822579084,51.13393869901313" fill="none" stroke="rgb(107,53,53)" stroke-width="0.1"/>
  <path d="M 45.52020822579084,51.13393869901313 L 46.02023845602184,51.13477730503962" fill="none" stroke="rgb(107,53,53)" stroke-width="0.1"/>
  <path d="M 46.02023845602184,51.13477730503962 L 46.52026895170843,51.1354389608515" fill="none" stroke="rgb(107,53,53)" stroke-width="0.1"/>
  <path d="M 46.52026895170843,51.1354389608515 L 47.02029965023189,51.13592366636601" fill="none" stroke="rgb(107,53,53)" stroke-width="0.1"/>
  <path d="M 47.02029965023189,51.13592366636601 L 47.520330488972604,51.136231421522666" fill="none" stroke="rgb(107,53,53)" stroke-width="0.1"/>
  <path d="M 47.520330488972604,51.136231421522666 L 48.02036140531209,51.136362226282586" fill="none" stroke="rgb(107,53,53)" stroke-width="0.1"/>
  <path d="M 48.02036140531209,51.136362226282586 L 48.52039233663095,51.136316080629626" fill="none" stroke="rgb(107,53,53)" stroke-width="0.1"/>
  <path d="M 48.52039233663095,51.136316080629626 L 49.02042322031048,51.13609298456947" fill="none" stroke="rgb(107,53,53)" stroke-width="0.1"/>
  <path d="M 49.02042322031048,51.13609298456947 L 49.52045399373105,51.13569293813009" fill="none" stroke="rgb(107,53,53)" stroke-width="0.1"/>
  <path d="M 49.52045399373105,51.13569293813009 L 50.0204845942751,51.135115941361505" fill="none" stroke="rgb(107,53,53)" stroke-width="0.1"/>
  <path d="M 50.0204845942751,51.135115941361505 L 50.52051495932187,51.13436199433602" fill="none" stroke="rgb(107,53,53)" stroke-width="0.1"/>
  <path d="M 50.52051495932187,51.13436199433602 L 51.02054502625333,51.13343109714799" fill="none" stroke="rgb(107,53,53)" stroke-width="0.1"/>
  <path d="M 51.02054502625333,51.13343109714799 L 51.520574732450314,51.13232324991452" fill="none" stroke="rgb(107,53,53)" stroke-width="0.1"/>
  <path d="M 51.520574732450314,51.13232324991452 L 52.02060401529411,51.131038452773396" fill="none" stroke="rgb(107,53,53)" stroke-width="0.1"/>
  <path d="M 52.02060401529411,51.131038452773396 L 52.52063281216601,51.12957670588628" fill="none" stroke="rgb(107,53,53)" stroke-width="0.1"/>
  <path d="M 52.52063281216601,51.12957670588628 L 53.02066106044708,51.12793800943575" fill="none" stroke="rgb(107,53,53)" stroke-width="0.1"/>
  <path d="M 53.02066106044708,51.12793800943575 L 53.520688697518835,51.12612236362736" fill="none" stroke="rgb(107,53,53)" stroke-width="0.1"/>
  <path d="M 53.520688697518835,51.12612236362736 L 54.02071566076211,51.124129768688476" fill="none" stroke="rgb(107,53,53)" stroke-width="0.1"/>
  <path d="M 54.02071566076211,51.124129768688476 L 54.52074188755887,51.1219602248683" fill="none" stroke="rgb(107,53,53)" stroke-width="0.1"/>
  <path d="M 54.52074188755887,51.1219602248683 L 55.02076731529064,51.11961373243878" fill="none" stroke="rgb(107,53,53)" stroke-width="0.1"/>
  <path d="M 55.02076731529064,51.11961373243878 L 55.52079188133894,51.1170902916939" fill="none" stroke="rgb(107,53,53)" stroke-width="0.1"/>
  <path d="M 55.52079188133894,51.1170902916939 L 56.02081552308573,51.114389902949256" fill="none" stroke="rgb(107,53,53)" stroke-width="0.1"/>
  <path d="M 56.02081552308573,51.114389902949256 L 56.52083817791345,51.11151256654318" fill="none" stroke="rgb(107,53,53)" stroke-width="0.1"/>
  <path d="M 56.52083817791345,51.11151256654318 L 57.02085978320224,51.108458282836295" fill="none" stroke="rgb(107,53,53)" stroke-width="0.1"/>
  <path d="M 57.02085978320224,51.108458282836295 L 57.52088027633636,51.10522705221081" fill="none" stroke="rgb(107,53,53)" stroke-width="0.1"/>
  <path d="M 57.52088027633636,51.10522705221081 L 58.0208995946964,51.101818875071444" fill="none" stroke="rgb(107,53,53)" stroke-width="0.1"/>
  <path d="M 58.0208995946964,51.101818875071444 L 58.52091767566617,51.09823375184499" fill="none" stroke="rgb(107,53,53)" stroke-width="0.1"/>
  <path d="M 58.52091767566617,51.09823375184499 L 59.0209344566274,51.0944716829805" fill="none" stroke="rgb(107,53,53)" stroke-width="0.1"/>
  <path d="M 59.0209344566274,51.0944716829805 L 59.52094987496321,51.09053266894887" fill="none" stroke="rgb(107,53,53)" stroke-width="0.1"/>
  <path d="M 59.52094987496321,51.09053266894887 L 60.0209638680567,51.086416710243725" fill="none" stroke="rgb(107,53,53)" stroke-width="0.1"/>
  <path d="M 60.0209638680567,51.086416710243725 L 60.520976373290296,51.08212380738007" fill="none" stroke="rgb(107,53,53)" stroke-width="0.1"/>
  <path d="M 60.520976373290296,51.08212380738007 L 61.020987328047795,51.07765396089587" fill="none" stroke="rgb(107,53,53)" stroke-width="0.1"/>
  <path d="M 61.020987328047795,51.07765396089587 L 61.520996669712304,51.073007171350696" fill="none" stroke="rgb(107,53,53)" stroke-width="0.1"/>
  <path d="M 61.520996669712304,51.073007171350696 L 62.02100433566807,51.06818343932662" fill="none" stroke="rgb(107,53,53)" stroke-width="0.1"/>
  <path d="M 62.02100433566807,51.06818343932662 L 62.52101026329842,51.06318276542777" fill="none" stroke="rgb(107,53,53)" stroke-width="0.1"/>
  <path d="M 62.52101026329842,51.06318276542777 L 63.02101438998784,51.05800515027988" fill="none" stroke="rgb(107,53,53)" stroke-width="0.1"/>
  <path d="M 63.02101438998784,51.05800515027988 L 63.521016653120796,51.05265059453211" fill="none" stroke="rgb(107,53,53)" stroke-width="0.1"/>
  <path d="M 63.521016653120796,51.05265059453211 L 64.0210169900813,51.047119098854296" fill="none" stroke="rgb(107,53,53)" stroke-width="0.1"/>
  <path d="M 64.0210169900813,51.047119098854296 L 64.5210153382543,51.0414106639397" fill="none" stroke="rgb(107,53,53)" stroke-width="0.1"/>
  <path d="M 64.5210153382543,51.0414106639397 L 65.02101163502539,51.03552529050296" fill="none" stroke="rgb(107,53,53)" stroke-width="0.1"/>
  <path d="M 65.02101163502539,51.03552529050296 L 65.52100581777904,51.02946297928099" fill="none" stroke="rgb(107,53,53)" stroke-width="0.1"/>
  <path d="M 65.52100581777904,51.02946297928099 L 66.02099782390155,51.023223731033" fill="none" stroke="rgb(107,53,53)" stroke-width="0.1"/>
  <path d="M 66.02099782390155,51.023223731033 L 66.52098759077876,51.01680754654046" fill="none" stroke="rgb(107,53,53)" stroke-width="0.1"/>
  <path d="M 66.52098759077876,51.01680754654046 L 67.02097505579627,51.01021442660692" fill="none" stroke="rgb(107,53,53)" stroke-width="0.1"/>
  <path d="M 67.02097505579627,51.01021442660692 L 67.5209601563406,51.00344437205797" fill="none" stroke="rgb(107,53,53)" stroke-width="0.1"/>
  <path d="M 67.5209601563406,51.00344437205797 L 68.02094282979874,50.996497383741485" fill="none" stroke="rgb(107,53,53)" stroke-width="0.1"/>
  <path d="M 68.02094282979874,50.996497383741485 L 68.52092301355765,50.98937346252717" fill="none" stroke="rgb(107,53,53)" stroke-width="0.1"/>
  <path d="M 68.52092301355765,50.98937346252717 L 69.02090064500453,50.982072609307465" fill="none" stroke="rgb(107,53,53)" stroke-width="0.1"/>
  <path d="M 69.02090064500453,50.982072609307465 L 69.52087566152727,50.974594824996416" fill="none" stroke="rgb(107,53,53)" stroke-width="0.1"/>
  <path d="M 69.52087566152727,50.974594824996416 L 70.02084800051375,50.96694011053057" fill="none" stroke="rgb(107,53,53)" stroke-width="0.1"/>
  <path d="M 70.02084800051375,50.96694011053057 L 70.52081759935209,50.95910846686877" fill="none" stroke="rgb(107,53,53)" stroke-width="0.1"/>
  <path d="M 70.52081759935209,50.95910846686877 L 71.02078439543129,50.951099894991216" fill="none" stroke="rgb(107,53,53)" stroke-width="0.1"/>
  <path d="M 71.02078439543129,50.951099894991216 L 71.52074832613994,50.94291439590154" fill="none" stroke="rgb(107,53,53)" stroke-width="0.1"/>
  <path d="M 71.52074832613994,50.94291439590154 L 72.0207093288675,50.93455197062406" fill="none" stroke="rgb(107,53,53)" stroke-width="0.1"/>
  <path d="M 72.0207093288675,50.93455197062406 L 72.52066734100435,50.926012620206734" fill="none" stroke="rgb(107,53,53)" stroke-width="0.1"/>
  <path d="M 72.52066734100435,50.926012620206734 L 73.0206222999393,50.917296345718455" fill="none" stroke="rgb(107,53,53)" stroke-width="0.1"/>
  <path d="M 73.0206222999393,50.917296345718455 L 73.52057414306478,50.90840314825084" fill="none" stroke="rgb(107,53,53)" stroke-width="0.1"/>
  <path d="M 73.52057414306478,50.90840314825084 L 74.02052280776934,50.899333028917795" fill="none" stroke="rgb(107,53,53)" stroke-width="0.1"/>
  <path d="M 74.02052280776934,50.899333028917795 L 74.52046823144633,50.89008598885482" fill="none" stroke="rgb(107,53,53)" stroke-width="0.1"/>
  <path d="M 74.52046823144633,50.89008598885482 L 75.0204103514859,50.88066202922016" fill="none" stroke="rgb(107,53,53)" stroke-width="0.1"/>
  <path d="M 75.0204103514859,50.88066202922016 L 75.52034910528096,50.87106115119411" fill="none" stroke="rgb(107,53,53)" stroke-width="0.1"/>
  <path d="M 75.52034910528096,50.87106115119411 L 76.02028443022391,50.8612833559788" fill="none" stroke="rgb(107,53,53)" stroke-width="0.1"/>
  <path d="M 76.02028443022391,50.8612833559788 L 76.52021626370743,50.85132864479863" fill="none" stroke="rgb(107,53,53)" stroke-width="0.1"/>
  <path d="M 76.52021626370743,50.85132864479863 L 77.02014454312575,50.841197018900516" fill="none" stroke="rgb(107,53,53)" stroke-width="0.1"/>
  <path d="M 77.02014454312575,50.841197018900516 L 77.52006920587155,50.83088847955298" fill="none" stroke="rgb(107,53,53)" stroke-width="0.1"/>
  <path d="M 77.52006920587155,50.83088847955298 L 78.01999018933952,50.82040302804705" fill="none" stroke="rgb(107,53,53)" stroke-width="0.1"/>
  <path d="M 78.01999018933952,50.82040302804705 L 78.51990743092483,50.80974066569581" fill="none" stroke="rgb(107,53,53)" stroke-width="0.1"/>
  <path d="M 78.51990743092483,50.80974066569581 L 79.01982086802218,50.798901393834626" fill="none" stroke="rgb(107,53,53)" stroke-width="0.1"/>
  <path d="M 79.01982086802218,50.798901393834626 L 79.51973043802741,50.78788521382069" fill="none" stroke="rgb(107,53,53)" stroke-width="0.1"/>
  <path d="M 79.51973043802741,50.78788521382069 L 80.01963607833682,50.7766921270337" fill="none" stroke="rgb(107,53,53)" stroke-width="0.1"/>
  <path d="M 80.01963607833682,50.7766921270337 L 80.51953772634738,50.76532213487542" fill="none" stroke="rgb(107,53,53)" stroke-width="0.1"/>
  <path d="M 80.51953772634738,50.76532213487542 L 81.01943531945585,50.753775238769435" fill="none" stroke="rgb(107,53,53)" stroke-width="0.1"/>
  <path d="M 81.01943531945585,50.753775238769435 L 81.51932879505944,50.7420514401623" fill="none" stroke="rgb(107,53,53)" stroke-width="0.1"/>
  <path d="M 81.51932879505944,50.7420514401623 L 82.01921809055739,50.73015074052171" fill="none" stroke="rgb(107,53,53)" stroke-width="0.1"/>
  <path d="M 82.01921809055739,50.73015074052171 L 82.51910314334737,50.718073141338095" fill="none" stroke="rgb(107,53,53)" stroke-width="0.1"/>
  <path d="M 82.51910314334737,50.718073141338095 L 83.0189838908293,50.70581864412395" fill="none" stroke="rgb(107,53,53)" stroke-width="0.1"/>
  <path d="M 83.0189838908293,50.70581864412395 L 83.51886027040291,50.69338725041405" fill="none" stroke="rgb(107,53,53)" stroke-width="0.1"/>
  <path d="M 83.51886027040291,50.69338725041405 L 84.01873221946835,50.680778961764986" fill="none" stroke="rgb(107,53,53)" stroke-width="0.1"/>
  <path d="M 84.01873221946835,50.680778961764986 L 84.51859967542646,50.667993779755875" fill="none" stroke="rgb(107,53,53)" stroke-width="0.1"/>
  <path d="M 84.51859967542646,50.667993779755875 L 85.01846257567877,50.65503170598788" fill="none" stroke="rgb(107,53,53)" stroke-width="0.1"/>
  <path d="M 85.01846257567877,50.65503170598788 L 85.51832085762726,50.64189274208377" fill="none" stroke="rgb(107,53,53)" stroke-width="0.1"/>
  <path d="M 85.51832085762726,50.64189274208377 L 86.0181744586746,50.6285768896895" fill="none" stroke="rgb(107,53,53)" stroke-width="0.1"/>
  <path d="M 86.0181744586746,50.6285768896895 L 86.51802331622412,50.6150841504724" fill="none" stroke="rgb(107,53,53)" stroke-width="0.1"/>
  <path d="M 86.51802331622412,50.6150841504724 L 87.0178673676794,50.601414526122085" fill="none" stroke="rgb(107,53,53)" stroke-width="0.1"/>
  <path d="M 87.0178673676794,50.601414526122085 L 87.51770655044493,50.587568018350225" fill="none" stroke="rgb(107,53,53)" stroke-width="0.1"/>
  <path d="M 87.51770655044493,50.587568018350225 L 88.0175408019254,50.573544628891455" fill="none" stroke="rgb(107,53,53)" stroke-width="0.1"/>
  <path d="M 88.0175408019254,50.573544628891455 L 88.51737005952691,50.559344359501324" fill="none" stroke="rgb(107,53,53)" stroke-width="0.1"/>
  <path d="M 88.51737005952691,50.559344359501324 L 89.01719426065506,50.54496721195858" fill="none" stroke="rgb(107,53,53)" stroke-width="0.1"/>
  <path d="M 89.01719426065506,50.54496721195858 L 89.51701334271706,50.53041318806311" fill="none" stroke="rgb(107,53,53)" stroke-width="0.1"/>
  <path d="M 89.51701334271706,50.53041318806311 L 90.01682724312059,50.51568228963822" fill="none" stroke="rgb(107,53,53)" stroke-width="0.1"/>
  <path d="M 90.01682724312059,50.51568228963822 L 90.51663589927443,50.50077451852792" fill="none" stroke="rgb(107,53,53)" stroke-width="0.1"/>
  <path d="M 90.51663589927443,50.50077451852792 L 91.01643924858581,50.48568987659985" fill="none" stroke="rgb(107,53,53)" stroke-width="0.1"/>
  <path d="M 91.01643924858581,50.48568987659985 L 91.51623722846512,50.47042836574258" fill="none" stroke="rgb(107,53,53)" stroke-width="0.1"/>
  <path d="M 91.51623722846512,50.47042836574258 L 92.01602977632228,50.45498998786741" fill="none" stroke="rgb(107,53,53)" stroke-width="0.1"/>
  <path d="M 92.01602977632228,50.45498998786741 L 92.51581682956817,50.439374744907695" fill="none" stroke="rgb(107,53,53)" stroke-width="0.1"/>
  <path d="M 92.51581682956817,50.439374744907695 L 93.01559832561452,50.423582638819084" fill="none" stroke="rgb(107,53,53)" stroke-width="0.1"/>
  <path d="M 93.01559832561452,50.423582638819084 L 93.51537420187378,50.40761367157904" fill="none" stroke="rgb(107,53,53)" stroke-width="0.1"/>
  <path d="M 93.51537420187378,50.40761367157904 L 94.01514439575794,50.39146784518755" fill="none" stroke="rgb(107,53,53)" stroke-width="0.1"/>
  <path d="M 94.01514439575794,50.39146784518755 L 94.51490884468126,50.37514516166641" fill="none" stroke="rgb(107,53,53)" stroke-width="0.1"/>
  <path d="M 94.51490884468126,50.37514516166641 L 95.01466748605822,50.35864562305949" fill="none" stroke="rgb(107,53,53)" stroke-width="0.1"/>
  <path d="M 95.01466748605822,50.35864562305949 L 95.51442025730353,50.34196923143361" fill="none" stroke="rgb(107,53,53)" stroke-width="0.1"/>
  <path d="M 95.51442025730353,50.34196923143361 L 96.01416709583305,50.325115988876746" fill="none" stroke="rgb(107,53,53)" stroke-width="0.1"/>
  <path d="M 96.01416709583305,50.325115988876746 L 96.51390793906353,50.30808589749961" fill="none" stroke="rgb(107,53,53)" stroke-width="0.1"/>
  <path d="M 96.51390793906353,50.30808589749961 L 97.01364272441242,50.290878959434735" fill="none" stroke="rgb(107,53,53)" stroke-width="0.1"/>
  <path d="M 97.01364272441242,50.290878959434735 L 97.51337138929739,50.273495176836946" fill="none" stroke="rgb(107,53,53)" stroke-width="0.1"/>
  <path d="M 97.51337138929739,50.273495176836946 L 98.01309387113747,50.25593455188357" fill="none" stroke="rgb(107,53,53)" stroke-width="0.1"/>
  <path d="M 98.01309387113747,50.25593455188357 L 98.51281010735215,50.238197086773084" fill="none" stroke="rgb(107,53,53)" stroke-width="0.1"/>
  <path d="M 98.51281010735215,50.238197086773084 L 99.01252003536183,50.220282783727384" fill="none" stroke="rgb(107,53,53)" stroke-width="0.1"/>
  <path d="M 99.01252003536183,50.220282783727384 L 99.51222359258759,50.20219164498951" fill="none" stroke="rgb(107,53,53)" stroke-width="0.1"/>
 </g>
 <g id="layerA-WALL-CONC" inkscape:groupmode="layer" inkscape:label="A-WALL-CONC">
  <path d="M 0.49781595957335867,47.33132667360587 L 0.9976639717599483,47.348137351650166" fill="none" stroke="rgb(0,178,178)" stroke-width="0.1"/>
  <path d="M 0.9976639717599483,47.348137351650166 L 1.497517915292974,47.36477073126753" fill="none" stroke="rgb(0,178,178)" stroke-width="0.1"/>
  <path d="M 1.497517915292974,47.36477073126753 L 1.9973777272841744,47.381226810365206" fill="none" stroke="rgb(0,178,178)" stroke-width="0.1"/>
  <path d="M 1.9973777272841744,47.381226810365206 L 2.497243344844037,47.39750558687297" fill="none" stroke="rgb(0,178,178)" stroke-width="0.1"/>
  <path d="M 2.497243344844037,47.39750558687297 L 2.997114705082595,47.4136070587424" fill="none" stroke="rgb(0,178,178)" stroke-width="0.1"/>
  <path d="M 2.997114705082595,47.4136070587424 L 3.496991745109085,47.42953122394806" fill="none" stroke="rgb(0,178,178)" stroke-width="0.1"/>
  <path d="M 3.496991745109085,47.42953122394806 L 3.996874402031949,47.44527808048633" fill="none" stroke="rgb(0,178,178)" stroke-width="0.1"/>
  <path d="M 3.996874402031949,47.44527808048633 L 4.49676261295906,47.46084762637611" fill="none" stroke="rgb(0,178,178)" stroke-width="0.1"/>
  <path d="M 4.49676261295906,47.46084762637611 L 4.9966563149974945,47.476239859658335" fill="none" stroke="rgb(0,178,178)" stroke-width="0.1"/>
  <path d="M 4.9966563149974945,47.476239859658335 L 5.496555445253648,47.491454778396474" fill="none" stroke="rgb(0,178,178)" stroke-width="0.1"/>
  <path d="M 5.496555445253648,47.491454778396474 L 5.996459940833347,47.50649238067649" fill="none" stroke="rgb(0,178,178)" stroke-width="0.1"/>
  <path d="M 5.996459940833347,47.50649238067649 L 6.496369738841622,47.52135266460641" fill="none" stroke="rgb(0,178,178)" stroke-width="0.1"/>
  <path d="M 6.496369738841622,47.52135266460641 L 6.996284776382822,47.53603562831631" fill="none" stroke="rgb(0,178,178)" stroke-width="0.1"/>
  <path d="M 6.996284776382822,47.53603562831631 L 7.496204990560955,47.55054126995924" fill="none" stroke="rgb(0,178,178)" stroke-width="0.1"/>
  <path d="M 7.496204990560955,47.55054126995924 L 7.996130318478322,47.564869587709836" fill="none" stroke="rgb(0,178,178)" stroke-width="0.1"/>
  <path d="M 7.996130318478322,47.564869587709836 L 8.496060697238136,47.57902057976571" fill="none" stroke="rgb(0,178,178)" stroke-width="0.1"/>
  <path d="M 8.496060697238136,47.57902057976571 L 8.995996063941902,47.5929942443463" fill="none" stroke="rgb(0,178,178)" stroke-width="0.1"/>
  <path d="M 8.995996063941902,47.5929942443463 L 9.495936355691583,47.60679057969355" fill="none" stroke="rgb(0,178,178)" stroke-width="0.1"/>
  <path d="M 9.495936355691583,47.60679057969355 L 9.995881509586297,47.620409584071695" fill="none" stroke="rgb(0,178,178)" stroke-width="0.1"/>
  <path d="M 9.995881509586297,47.620409584071695 L 10.495831462726755,47.63385125576724" fill="none" stroke="rgb(0,178,178)" stroke-width="0.1"/>
  <path d="M 10.495831462726755,47.63385125576724 L 10.995786152212304,47.64711559308921" fill="none" stroke="rgb(0,178,178)" stroke-width="0.1"/>
  <path d="M 10.995786152212304,47.64711559308921 L 11.495745515141493,47.660202594368684" fill="none" stroke="rgb(0,178,178)" stroke-width="0.1"/>
  <path d="M 11.495745515141493,47.660202594368684 L 11.99570948861276,47.67311225795902" fill="none" stroke="rgb(0,178,178)" stroke-width="0.1"/>
  <path d="M 11.99570948861276,47.67311225795902 L 12.495678009723406,47.685844582236086" fill="none" stroke="rgb(0,178,178)" stroke-width="0.1"/>
  <path d="M 12.495678009723406,47.685844582236086 L 12.995651015570616,47.69839956559781" fill="none" stroke="rgb(0,178,178)" stroke-width="0.1"/>
  <path d="M 12.995651015570616,47.69839956559781 L 13.49562844325078,47.71077720646508" fill="none" stroke="rgb(0,178,178)" stroke-width="0.1"/>
  <path d="M 13.49562844325078,47.71077720646508 L 13.995610229859835,47.722977503279935" fill="none" stroke="rgb(0,178,178)" stroke-width="0.1"/>
  <path d="M 13.995610229859835,47.722977503279935 L 14.495596312493035,47.735000454507826" fill="none" stroke="rgb(0,178,178)" stroke-width="0.1"/>
  <path d="M 14.495596312493035,47.735000454507826 L 14.995586628245178,47.746846058636265" fill="none" stroke="rgb(0,178,178)" stroke-width="0.1"/>
  <path d="M 14.995586628245178,47.746846058636265 L 15.495581114210495,47.75851431417436" fill="none" stroke="rgb(0,178,178)" stroke-width="0.1"/>
  <path d="M 15.495581114210495,47.75851431417436 L 15.995579707482875,47.77000521965465" fill="none" stroke="rgb(0,178,178)" stroke-width="0.1"/>
  <path d="M 15.995579707482875,47.77000521965465 L 16.495582345155526,47.78131877363103" fill="none" stroke="rgb(0,178,178)" stroke-width="0.1"/>
  <path d="M 16.495582345155526,47.78131877363103 L 16.995588964320973,47.792454974680595" fill="none" stroke="rgb(0,178,178)" stroke-width="0.1"/>
  <path d="M 16.995588964320973,47.792454974680595 L 17.495599502071627,47.80341382140159" fill="none" stroke="rgb(0,178,178)" stroke-width="0.1"/>
  <path d="M 17.495599502071627,47.80341382140159 L 17.99561389549899,47.81419531241545" fill="none" stroke="rgb(0,178,178)" stroke-width="0.1"/>
  <path d="M 17.99561389549899,47.81419531241545 L 18.495632081694566,47.824799446366114" fill="none" stroke="rgb(0,178,178)" stroke-width="0.1"/>
  <path d="M 18.495632081694566,47.824799446366114 L 18.995653997748946,47.8352262219189" fill="none" stroke="rgb(0,178,178)" stroke-width="0.1"/>
  <path d="M 18.995653997748946,47.8352262219189 L 19.49567958075238,47.84547563776232" fill="none" stroke="rgb(0,178,178)" stroke-width="0.1"/>
  <path d="M 19.49567958075238,47.84547563776232 L 19.995708767794895,47.855547692606706" fill="none" stroke="rgb(0,178,178)" stroke-width="0.1"/>
  <path d="M 19.995708767794895,47.855547692606706 L 20.495741495965945,47.865442385184906" fill="none" stroke="rgb(0,178,178)" stroke-width="0.1"/>
  <path d="M 20.495741495965945,47.865442385184906 L 20.995777702353962,47.87515971425205" fill="none" stroke="rgb(0,178,178)" stroke-width="0.1"/>
  <path d="M 20.995777702353962,47.87515971425205 L 21.49581732404772,47.88469967858555" fill="none" stroke="rgb(0,178,178)" stroke-width="0.1"/>
  <path d="M 21.49581732404772,47.88469967858555 L 21.995860298135312,47.89406227698487" fill="none" stroke="rgb(0,178,178)" stroke-width="0.1"/>
  <path d="M 21.995860298135312,47.89406227698487 L 22.49590656170426,47.90324750827267" fill="none" stroke="rgb(0,178,178)" stroke-width="0.1"/>
  <path d="M 22.49590656170426,47.90324750827267 L 22.99595605184186,47.91225537129276" fill="none" stroke="rgb(0,178,178)" stroke-width="0.1"/>
  <path d="M 22.99595605184186,47.91225537129276 L 23.49600870563495,47.92108586491213" fill="none" stroke="rgb(0,178,178)" stroke-width="0.1"/>
  <path d="M 23.49600870563495,47.92108586491213 L 23.996064460170146,47.92973898801961" fill="none" stroke="rgb(0,178,178)" stroke-width="0.1"/>
  <path d="M 23.996064460170146,47.92973898801961 L 24.496123252532925,47.93821473952676" fill="none" stroke="rgb(0,178,178)" stroke-width="0.1"/>
  <path d="M 24.496123252532925,47.93821473952676 L 24.996185019809445,47.94651311836674" fill="none" stroke="rgb(0,178,178)" stroke-width="0.1"/>
  <path d="M 24.996185019809445,47.94651311836674 L 25.496249699084956,47.954634123496135" fill="none" stroke="rgb(0,178,178)" stroke-width="0.1"/>
  <path d="M 25.496249699084956,47.954634123496135 L 25.996317227444024,47.962577753892674" fill="none" stroke="rgb(0,178,178)" stroke-width="0.1"/>
  <path d="M 25.996317227444024,47.962577753892674 L 26.496387541971444,47.97034400855728" fill="none" stroke="rgb(0,178,178)" stroke-width="0.1"/>
  <path d="M 26.496387541971444,47.97034400855728 L 26.996460579751556,47.97793288651269" fill="none" stroke="rgb(0,178,178)" stroke-width="0.1"/>
  <path d="M 26.996460579751556,47.97793288651269 L 27.49653627786779,47.985344386803945" fill="none" stroke="rgb(0,178,178)" stroke-width="0.1"/>
  <path d="M 27.49653627786779,47.985344386803945 L 27.99661457340403,47.99257850849904" fill="none" stroke="rgb(0,178,178)" stroke-width="0.1"/>
  <path d="M 27.99661457340403,47.99257850849904 L 28.496695403443482,47.999635250687334" fill="none" stroke="rgb(0,178,178)" stroke-width="0.1"/>
  <path d="M 28.496695403443482,47.999635250687334 L 28.996778705068664,48.00651461248117" fill="none" stroke="rgb(0,178,178)" stroke-width="0.1"/>
  <path d="M 28.996778705068664,48.00651461248117 L 29.496864415362325,48.013216593015386" fill="none" stroke="rgb(0,178,178)" stroke-width="0.1"/>
  <path d="M 29.496864415362325,48.013216593015386 L 29.996952471406985,48.0197411914462" fill="none" stroke="rgb(0,178,178)" stroke-width="0.1"/>
  <path d="M 29.996952471406985,48.0197411914462 L 30.497042810284256,48.02608840695302" fill="none" stroke="rgb(0,178,178)" stroke-width="0.1"/>
  <path d="M 30.497042810284256,48.02608840695302 L 30.997135369075977,48.03225823873731" fill="none" stroke="rgb(0,178,178)" stroke-width="0.1"/>
  <path d="M 30.997135369075977,48.03225823873731 L 31.49723008486353,48.03825068602282" fill="none" stroke="rgb(0,178,178)" stroke-width="0.1"/>
  <path d="M 31.49723008486353,48.03825068602282 L 31.997326894728303,48.044065748055345" fill="none" stroke="rgb(0,178,178)" stroke-width="0.1"/>
  <path d="M 31.997326894728303,48.044065748055345 L 32.49742573575077,48.049703424103654" fill="none" stroke="rgb(0,178,178)" stroke-width="0.1"/>
  <path d="M 32.49742573575077,48.049703424103654 L 32.997526545011624,48.05516371345834" fill="none" stroke="rgb(0,178,178)" stroke-width="0.1"/>
  <path d="M 32.997526545011624,48.05516371345834 L 33.49762925959135,48.060446615432056" fill="none" stroke="rgb(0,178,178)" stroke-width="0.1"/>
  <path d="M 33.49762925959135,48.060446615432056 L 33.99773381656996,48.06555212936064" fill="none" stroke="rgb(0,178,178)" stroke-width="0.1"/>
  <path d="M 33.99773381656996,48.06555212936064 L 34.4978401530268,48.070480254601534" fill="none" stroke="rgb(0,178,178)" stroke-width="0.1"/>
  <path d="M 34.4978401530268,48.070480254601534 L 34.997948206042565,48.07523099053469" fill="none" stroke="rgb(0,178,178)" stroke-width="0.1"/>
  <path d="M 34.997948206042565,48.07523099053469 L 35.498057912696595,48.079804336562574" fill="none" stroke="rgb(0,178,178)" stroke-width="0.1"/>
  <path d="M 35.498057912696595,48.079804336562574 L 35.99816921006732,48.08420029210947" fill="none" stroke="rgb(0,178,178)" stroke-width="0.1"/>
  <path d="M 35.99816921006732,48.08420029210947 L 36.498282035234524,48.08841885662264" fill="none" stroke="rgb(0,178,178)" stroke-width="0.1"/>
  <path d="M 36.498282035234524,48.08841885662264 L 36.998396325276644,48.09246002957093" fill="none" stroke="rgb(0,178,178)" stroke-width="0.1"/>
  <path d="M 36.998396325276644,48.09246002957093 L 37.49851201727233,48.09632381044639" fill="none" stroke="rgb(0,178,178)" stroke-width="0.1"/>
  <path d="M 37.49851201727233,48.09632381044639 L 37.99862904830047,48.100010198762675" fill="none" stroke="rgb(0,178,178)" stroke-width="0.1"/>
  <path d="M 37.99862904830047,48.100010198762675 L 38.498747355439036,48.10351919405571" fill="none" stroke="rgb(0,178,178)" stroke-width="0.1"/>
  <path d="M 38.498747355439036,48.10351919405571 L 38.998866875766225,48.10685079588461" fill="none" stroke="rgb(0,178,178)" stroke-width="0.1"/>
  <path d="M 38.998866875766225,48.10685079588461 L 39.49898754636024,48.110005003829656" fill="none" stroke="rgb(0,178,178)" stroke-width="0.1"/>
  <path d="M 39.49898754636024,48.110005003829656 L 39.9991093042986,48.1129818174943" fill="none" stroke="rgb(0,178,178)" stroke-width="0.1"/>
  <path d="M 39.9991093042986,48.1129818174943 L 40.499232086659504,48.11578123650406" fill="none" stroke="rgb(0,178,178)" stroke-width="0.1"/>
  <path d="M 40.499232086659504,48.11578123650406 L 40.999355830520244,48.11840326050651" fill="none" stroke="rgb(0,178,178)" stroke-width="0.1"/>
  <path d="M 40.999355830520244,48.11840326050651 L 41.49948047295834,48.12084788917173" fill="none" stroke="rgb(0,178,178)" stroke-width="0.1"/>
  <path d="M 41.49948047295834,48.12084788917173 L 41.99960595105108,48.12311512219253" fill="none" stroke="rgb(0,178,178)" stroke-width="0.1"/>
  <path d="M 41.99960595105108,48.12311512219253 L 42.49973220187621,48.12520495928334" fill="none" stroke="rgb(0,178,178)" stroke-width="0.1"/>
  <path d="M 42.49973220187621,48.12520495928334 L 42.99985916251012,48.12711740018153" fill="none" stroke="rgb(0,178,178)" stroke-width="0.1"/>
  <path d="M 42.99985916251012,48.12711740018153 L 43.49998677003009,48.1288524446461" fill="none" stroke="rgb(0,178,178)" stroke-width="0.1"/>
  <path d="M 43.49998677003009,48.1288524446461 L 44.00011496151342,48.13041009245876" fill="none" stroke="rgb(0,178,178)" stroke-width="0.1"/>
  <path d="M 44.00011496151342,48.13041009245876 L 44.50024367403694,48.13179034342397" fill="none" stroke="rgb(0,178,178)" stroke-width="0.1"/>
  <path d="M 44.50024367403694,48.13179034342397 L 45.000372844677486,48.13299319736757" fill="none" stroke="rgb(0,178,178)" stroke-width="0.1"/>
  <path d="M 45.000372844677486,48.13299319736757 L 45.50050241051167,48.13401865413857" fill="none" stroke="rgb(0,178,178)" stroke-width="0.1"/>
  <path d="M 45.50050241051167,48.13401865413857 L 46.00063230861633,48.134866713607835" fill="none" stroke="rgb(0,178,178)" stroke-width="0.1"/>
  <path d="M 46.00063230861633,48.134866713607835 L 46.5007624760683,48.13553737566872" fill="none" stroke="rgb(0,178,178)" stroke-width="0.1"/>
  <path d="M 46.5007624760683,48.13553737566872 L 47.000892849944194,48.13603064023687" fill="none" stroke="rgb(0,178,178)" stroke-width="0.1"/>
  <path d="M 47.000892849944194,48.13603064023687 L 47.50102336732061,48.13634650725021" fill="none" stroke="rgb(0,178,178)" stroke-width="0.1"/>
  <path d="M 47.50102336732061,48.13634650725021 L 48.00115396527394,48.136484976668726" fill="none" stroke="rgb(0,178,178)" stroke-width="0.1"/>
  <path d="M 48.00115396527394,48.136484976668726 L 48.5012845808817,48.136446048475364" fill="none" stroke="rgb(0,178,178)" stroke-width="0.1"/>
  <path d="M 48.5012845808817,48.136446048475364 L 49.00141515121936,48.1362297226749" fill="none" stroke="rgb(0,178,178)" stroke-width="0.1"/>
  <path d="M 49.00141515121936,48.1362297226749 L 49.50154561336353,48.135835999294386" fill="none" stroke="rgb(0,178,178)" stroke-width="0.1"/>
  <path d="M 49.50154561336353,48.135835999294386 L 50.00167590439219,48.13526487838362" fill="none" stroke="rgb(0,178,178)" stroke-width="0.1"/>
  <path d="M 50.00167590439219,48.13526487838362 L 50.501805961380796,48.13451636001446" fill="none" stroke="rgb(0,178,178)" stroke-width="0.1"/>
  <path d="M 50.501805961380796,48.13451636001446 L 51.0019357214062,48.1335904442808" fill="none" stroke="rgb(0,178,178)" stroke-width="0.1"/>
  <path d="M 51.0019357214062,48.1335904442808 L 51.502065121545456,48.132487131299285" fill="none" stroke="rgb(0,178,178)" stroke-width="0.1"/>
  <path d="M 51.502065121545456,48.132487131299285 L 52.00219409887495,48.131206421208844" fill="none" stroke="rgb(0,178,178)" stroke-width="0.1"/>
  <path d="M 52.00219409887495,48.131206421208844 L 52.50232259047198,48.129748314170456" fill="none" stroke="rgb(0,178,178)" stroke-width="0.1"/>
  <path d="M 52.50232259047198,48.129748314170456 L 53.00245053341314,48.12811281036761" fill="none" stroke="rgb(0,178,178)" stroke-width="0.1"/>
  <path d="M 53.00245053341314,48.12811281036761 L 53.502577864775276,48.12629991000608" fill="none" stroke="rgb(0,178,178)" stroke-width="0.1"/>
  <path d="M 53.502577864775276,48.12629991000608 L 54.00270452163568,48.124309613313926" fill="none" stroke="rgb(0,178,178)" stroke-width="0.1"/>
  <path d="M 54.00270452163568,48.124309613313926 L 54.502830441070955,48.12214192054148" fill="none" stroke="rgb(0,178,178)" stroke-width="0.1"/>
  <path d="M 54.502830441070955,48.12214192054148 L 55.00295556015885,48.11979683196182" fill="none" stroke="rgb(0,178,178)" stroke-width="0.1"/>
  <path d="M 55.00295556015885,48.11979683196182 L 55.503079815976434,48.117274347869625" fill="none" stroke="rgb(0,178,178)" stroke-width="0.1"/>
  <path d="M 55.503079815976434,48.117274347869625 L 56.00320314560122,48.114574468582305" fill="none" stroke="rgb(0,178,178)" stroke-width="0.1"/>
  <path d="M 56.00320314560122,48.114574468582305 L 56.503325486110725,48.111697194439785" fill="none" stroke="rgb(0,178,178)" stroke-width="0.1"/>
  <path d="M 56.503325486110725,48.111697194439785 L 57.00344677458247,48.108642525803816" fill="none" stroke="rgb(0,178,178)" stroke-width="0.1"/>
  <path d="M 57.00344677458247,48.108642525803816 L 57.5035669480942,48.10541046305889" fill="none" stroke="rgb(0,178,178)" stroke-width="0.1"/>
  <path d="M 57.5035669480942,48.10541046305889 L 58.00368594372412,48.10200100661132" fill="none" stroke="rgb(0,178,178)" stroke-width="0.1"/>
  <path d="M 58.00368594372412,48.10200100661132 L 58.5038036985502,48.098414156890385" fill="none" stroke="rgb(0,178,178)" stroke-width="0.1"/>
  <path d="M 58.5038036985502,48.098414156890385 L 59.00392014965041,48.0946499143472" fill="none" stroke="rgb(0,178,178)" stroke-width="0.1"/>
  <path d="M 59.00392014965041,48.0946499143472 L 59.50403523410341,48.09070827945561" fill="none" stroke="rgb(0,178,178)" stroke-width="0.1"/>
  <path d="M 59.50403523410341,48.09070827945561 L 60.00414888898786,48.08658925271129" fill="none" stroke="rgb(0,178,178)" stroke-width="0.1"/>
  <path d="M 60.00414888898786,48.08658925271129 L 60.50426105138217,48.082292834632426" fill="none" stroke="rgb(0,178,178)" stroke-width="0.1"/>
  <path d="M 60.50426105138217,48.082292834632426 L 61.0043716583657,48.07781902575971" fill="none" stroke="rgb(0,178,178)" stroke-width="0.1"/>
  <path d="M 61.0043716583657,48.07781902575971 L 61.50448064701709,48.07316782665612" fill="none" stroke="rgb(0,178,178)" stroke-width="0.1"/>
  <path d="M 61.50448064701709,48.07316782665612 L 62.00458795441614,48.068339237906685" fill="none" stroke="rgb(0,178,178)" stroke-width="0.1"/>
  <path d="M 62.00458795441614,48.068339237906685 L 62.504693517641954,48.063333260118725" fill="none" stroke="rgb(0,178,178)" stroke-width="0.1"/>
  <path d="M 62.504693517641954,48.063333260118725 L 63.00479727377456,48.05814989392229" fill="none" stroke="rgb(0,178,178)" stroke-width="0.1"/>
  <path d="M 63.00479727377456,48.05814989392229 L 63.50489915989397,48.05278913996972" fill="none" stroke="rgb(0,178,178)" stroke-width="0.1"/>
  <path d="M 63.50489915989397,48.05278913996972 L 64.00499911308043,48.04725099893494" fill="none" stroke="rgb(0,178,178)" stroke-width="0.1"/>
  <path d="M 64.00499911308043,48.04725099893494 L 64.5050970704142,48.04153547151509" fill="none" stroke="rgb(0,178,178)" stroke-width="0.1"/>
  <path d="M 64.5050970704142,48.04153547151509 L 65.00519296897642,48.03564255842912" fill="none" stroke="rgb(0,178,178)" stroke-width="0.1"/>
  <path d="M 65.00519296897642,48.03564255842912 L 65.50528674584757,48.02957226041872" fill="none" stroke="rgb(0,178,178)" stroke-width="0.1"/>
  <path d="M 65.50528674584757,48.02957226041872 L 66.00537833810881,48.02332457824741" fill="none" stroke="rgb(0,178,178)" stroke-width="0.1"/>
  <path d="M 66.00537833810881,48.02332457824741 L 66.50546768284221,48.016899512701" fill="none" stroke="rgb(0,178,178)" stroke-width="0.1"/>
  <path d="M 66.50546768284221,48.016899512701 L 67.00555471712937,48.01029706458826" fill="none" stroke="rgb(0,178,178)" stroke-width="0.1"/>
  <path d="M 67.00555471712937,48.01029706458826 L 67.50563937805214,48.00351723473955" fill="none" stroke="rgb(0,178,178)" stroke-width="0.1"/>
  <path d="M 67.50563937805214,48.00351723473955 L 68.00572160269326,47.996560024008204" fill="none" stroke="rgb(0,178,178)" stroke-width="0.1"/>
  <path d="M 68.00572160269326,47.996560024008204 L 68.50580132813525,47.98942543326916" fill="none" stroke="rgb(0,178,178)" stroke-width="0.1"/>
  <path d="M 68.50580132813525,47.98942543326916 L 69.00587849146109,47.98211346342032" fill="none" stroke="rgb(0,178,178)" stroke-width="0.1"/>
  <path d="M 69.00587849146109,47.98211346342032 L 69.50595302975421,47.97462411538163" fill="none" stroke="rgb(0,178,178)" stroke-width="0.1"/>
  <path d="M 69.50595302975421,47.97462411538163 L 70.00602488009827,47.96695739009533" fill="none" stroke="rgb(0,178,178)" stroke-width="0.1"/>
  <path d="M 70.00602488009827,47.96695739009533 L 70.50609397957714,47.959113288525714" fill="none" stroke="rgb(0,178,178)" stroke-width="0.1"/>
  <path d="M 70.50609397957714,47.959113288525714 L 71.00616026527541,47.951091811660035" fill="none" stroke="rgb(0,178,178)" stroke-width="0.1"/>
  <path d="M 71.00616026527541,47.951091811660035 L 71.50622367427763,47.94289296050738" fill="none" stroke="rgb(0,178,178)" stroke-width="0.1"/>
  <path d="M 71.50622367427763,47.94289296050738 L 72.00628414366884,47.93451673609911" fill="none" stroke="rgb(0,178,178)" stroke-width="0.1"/>
  <path d="M 72.00628414366884,47.93451673609911 L 72.50634161053472,47.92596313948957" fill="none" stroke="rgb(0,178,178)" stroke-width="0.1"/>
  <path d="M 72.50634161053472,47.92596313948957 L 73.00639601196076,47.91723217175422" fill="none" stroke="rgb(0,178,178)" stroke-width="0.1"/>
  <path d="M 73.00639601196076,47.91723217175422 L 73.50644728503289,47.90832383399197" fill="none" stroke="rgb(0,178,178)" stroke-width="0.1"/>
  <path d="M 73.50644728503289,47.90832383399197 L 74.00649536683864,47.89923812732377" fill="none" stroke="rgb(0,178,178)" stroke-width="0.1"/>
  <path d="M 74.00649536683864,47.89923812732377 L 74.5065401944646,47.889975052892396" fill="none" stroke="rgb(0,178,178)" stroke-width="0.1"/>
  <path d="M 74.5065401944646,47.889975052892396 L 75.00658170499764,47.88053461186337" fill="none" stroke="rgb(0,178,178)" stroke-width="0.1"/>
  <path d="M 75.00658170499764,47.88053461186337 L 75.50661983552641,47.870916805424486" fill="none" stroke="rgb(0,178,178)" stroke-width="0.1"/>
  <path d="M 75.50661983552641,47.870916805424486 L 76.00665452313842,47.861121634785604" fill="none" stroke="rgb(0,178,178)" stroke-width="0.1"/>
  <path d="M 76.00665452313842,47.861121634785604 L 76.5066857049228,47.85114910117932" fill="none" stroke="rgb(0,178,178)" stroke-width="0.1"/>
  <path d="M 76.5066857049228,47.85114910117932 L 77.00671331796843,47.8409992058605" fill="none" stroke="rgb(0,178,178)" stroke-width="0.1"/>
  <path d="M 77.00671331796843,47.8409992058605 L 77.50673729936511,47.830671950105625" fill="none" stroke="rgb(0,178,178)" stroke-width="0.1"/>
  <path d="M 77.50673729936511,47.830671950105625 L 78.00675758620264,47.820167335214364" fill="none" stroke="rgb(0,178,178)" stroke-width="0.1"/>
  <path d="M 78.00675758620264,47.820167335214364 L 78.50677411557149,47.809485362507985" fill="none" stroke="rgb(0,178,178)" stroke-width="0.1"/>
  <path d="M 78.50677411557149,47.809485362507985 L 79.00678682456305,47.79862603333095" fill="none" stroke="rgb(0,178,178)" stroke-width="0.1"/>
  <path d="M 79.00678682456305,47.79862603333095 L 79.50679565026826,47.787589349049085" fill="none" stroke="rgb(0,178,178)" stroke-width="0.1"/>
  <path d="M 79.50679565026826,47.787589349049085 L 80.00680052977941,47.776375311051424" fill="none" stroke="rgb(0,178,178)" stroke-width="0.1"/>
  <path d="M 80.00680052977941,47.776375311051424 L 80.50680140018858,47.764983920748136" fill="none" stroke="rgb(0,178,178)" stroke-width="0.1"/>
  <path d="M 80.50680140018858,47.764983920748136 L 81.0067981985892,47.75341517957304" fill="none" stroke="rgb(0,178,178)" stroke-width="0.1"/>
  <path d="M 81.0067981985892,47.75341517957304 L 81.50679086207424,47.74166908898155" fill="none" stroke="rgb(0,178,178)" stroke-width="0.1"/>
  <path d="M 81.50679086207424,47.74166908898155 L 82.00677932773783,47.72974565045115" fill="none" stroke="rgb(0,178,178)" stroke-width="0.1"/>
  <path d="M 82.00677932773783,47.72974565045115 L 82.50676353267477,47.7176448654825" fill="none" stroke="rgb(0,178,178)" stroke-width="0.1"/>
  <path d="M 82.50676353267477,47.7176448654825 L 83.00674341397962,47.70536673559741" fill="none" stroke="rgb(0,178,178)" stroke-width="0.1"/>
  <path d="M 83.00674341397962,47.70536673559741 L 83.5067189087481,47.69291126234111" fill="none" stroke="rgb(0,178,178)" stroke-width="0.1"/>
  <path d="M 83.5067189087481,47.69291126234111 L 84.00668995407659,47.68027844728067" fill="none" stroke="rgb(0,178,178)" stroke-width="0.1"/>
  <path d="M 84.00668995407659,47.68027844728067 L 84.50665648706149,47.66746829200497" fill="none" stroke="rgb(0,178,178)" stroke-width="0.1"/>
  <path d="M 84.50665648706149,47.66746829200497 L 85.0066184448001,47.65448079812654" fill="none" stroke="rgb(0,178,178)" stroke-width="0.1"/>
  <path d="M 85.0066184448001,47.65448079812654 L 85.50657576439039,47.641315967278615" fill="none" stroke="rgb(0,178,178)" stroke-width="0.1"/>
  <path d="M 85.50657576439039,47.641315967278615 L 86.00652838293058,47.62797380111806" fill="none" stroke="rgb(0,178,178)" stroke-width="0.1"/>
  <path d="M 86.00652838293058,47.62797380111806 L 86.50647623751979,47.61445430132312" fill="none" stroke="rgb(0,178,178)" stroke-width="0.1"/>
  <path d="M 86.50647623751979,47.61445430132312 L 87.00641926525805,47.60075746959478" fill="none" stroke="rgb(0,178,178)" stroke-width="0.1"/>
  <path d="M 87.00641926525805,47.60075746959478 L 87.50635740324492,47.586883307656535" fill="none" stroke="rgb(0,178,178)" stroke-width="0.1"/>
  <path d="M 87.50635740324492,47.586883307656535 L 88.00629058858112,47.5728318172537" fill="none" stroke="rgb(0,178,178)" stroke-width="0.1"/>
  <path d="M 88.00629058858112,47.5728318172537 L 88.5062187583685,47.558603000154335" fill="none" stroke="rgb(0,178,178)" stroke-width="0.1"/>
  <path d="M 88.5062187583685,47.558603000154335 L 89.00614184970914,47.54419685814855" fill="none" stroke="rgb(0,178,178)" stroke-width="0.1"/>
  <path d="M 89.00614184970914,47.54419685814855 L 89.50605979970624,47.52961339304875" fill="none" stroke="rgb(0,178,178)" stroke-width="0.1"/>
  <path d="M 89.50605979970624,47.52961339304875 L 90.0059725454621,47.51485260668983" fill="none" stroke="rgb(0,178,178)" stroke-width="0.1"/>
  <path d="M 90.0059725454621,47.51485260668983 L 90.5058800240813,47.49991450092898" fill="none" stroke="rgb(0,178,178)" stroke-width="0.1"/>
  <path d="M 90.5058800240813,47.49991450092898 L 91.00578217266843,47.48479907764545" fill="none" stroke="rgb(0,178,178)" stroke-width="0.1"/>
  <path d="M 91.00578217266843,47.48479907764545 L 91.50567892832896,47.46950633874121" fill="none" stroke="rgb(0,178,178)" stroke-width="0.1"/>
  <path d="M 91.50567892832896,47.46950633874121 L 92.00557022816884,47.45403628614008" fill="none" stroke="rgb(0,178,178)" stroke-width="0.1"/>
  <path d="M 92.00557022816884,47.45403628614008 L 92.5054560092949,47.43838892178837" fill="none" stroke="rgb(0,178,178)" stroke-width="0.1"/>
  <path d="M 92.5054560092949,47.43838892178837 L 93.00533620881424,47.42256424765492" fill="none" stroke="rgb(0,178,178)" stroke-width="0.1"/>
  <path d="M 93.00533620881424,47.42256424765492 L 93.50521076383552,47.4065622657306" fill="none" stroke="rgb(0,178,178)" stroke-width="0.1"/>
  <path d="M 93.50521076383552,47.4065622657306 L 94.00507961146718,47.39038297802858" fill="none" stroke="rgb(0,178,178)" stroke-width="0.1"/>
  <path d="M 94.00507961146718,47.39038297802858 L 94.5049426888188,47.374026386584774" fill="none" stroke="rgb(0,178,178)" stroke-width="0.1"/>
  <path d="M 94.5049426888188,47.374026386584774 L 95.00479993300064,47.357492493456675" fill="none" stroke="rgb(0,178,178)" stroke-width="0.1"/>
  <path d="M 95.00479993300064,47.357492493456675 L 95.50465128112387,47.34078130072476" fill="none" stroke="rgb(0,178,178)" stroke-width="0.1"/>
  <path d="M 95.50465128112387,47.34078130072476 L 96.00449667030011,47.323892810491316" fill="none" stroke="rgb(0,178,178)" stroke-width="0.1"/>
  <path d="M 96.00449667030011,47.323892810491316 L 96.5043360376419,47.30682702488116" fill="none" stroke="rgb(0,178,178)" stroke-width="0.1"/>
  <path d="M 96.5043360376419,47.30682702488116 L 97.00416932026246,47.28958394604183" fill="none" stroke="rgb(0,178,178)" stroke-width="0.1"/>
  <path d="M 97.00416932026246,47.28958394604183 L 97.50399645527614,47.27216357614202" fill="none" stroke="rgb(0,178,178)" stroke-width="0.1"/>
  <path d="M 97.50399645527614,47.27216357614202 L 98.00381737979706,47.254565917374066" fill="none" stroke="rgb(0,178,178)" stroke-width="0.1"/>
  <path d="M 98.00381737979706,47.254565917374066 L 98.50363203094116,47.23679097195168" fill="none" stroke="rgb(0,178,178)" stroke-width="0.1"/>
  <path d="M 98.50363203094116,47.23679097195168 L 99.00344034582486,47.2188387421113" fill="none" stroke="rgb(0,178,178)" stroke-width="0.1"/>
  <path d="M 99.00344034582486,47.2188387421113 L 99.50324226156522,47.20070923011167" fill="none" stroke="rgb(0,178,178)" stroke-width="0.1"/>
  <path d="M 0.4336665083499156,51.33174399552752 L 0.9337340870730486,51.34853734376577" fill="none" stroke="rgb(0,178,178)" stroke-width="0.1"/>
  <path d="M 0.9337340870730486,51.34853734376577 L 1.4338075768818044,51.36515374007024" fill="none" stroke="rgb(0,178,178)" stroke-width="0.1"/>
  <path d="M 1.4338075768818044,51.36515374007024 L 1.933886915159519,51.38159318236001" fill="none" stroke="rgb(0,178,178)" stroke-width="0.1"/>
  <path d="M 1.933886915159519,51.38159318236001 L 2.4339720392911204,51.397855668577336" fill="none" stroke="rgb(0,178,178)" stroke-width="0.1"/>
  <path d="M 2.4339720392911204,51.397855668577336 L 2.934062886658694,51.41394119668519" fill="none" stroke="rgb(0,178,178)" stroke-width="0.1"/>
  <path d="M 2.934062886658694,51.41394119668519 L 3.4341593946453486,51.429849764669484" fill="none" stroke="rgb(0,178,178)" stroke-width="0.1"/>
  <path d="M 3.4341593946453486,51.429849764669484 L 3.9342615006314645,51.44558137053866" fill="none" stroke="rgb(0,178,178)" stroke-width="0.1"/>
  <path d="M 3.9342615006314645,51.44558137053866 L 4.434369141999468,51.46113601232298" fill="none" stroke="rgb(0,178,178)" stroke-width="0.1"/>
  <path d="M 4.434369141999468,51.46113601232298 L 4.934482256128263,51.47651368807453" fill="none" stroke="rgb(0,178,178)" stroke-width="0.1"/>
  <path d="M 4.934482256128263,51.47651368807453 L 5.4346007803985685,51.491714395868144" fill="none" stroke="rgb(0,178,178)" stroke-width="0.1"/>
  <path d="M 5.4346007803985685,51.491714395868144 L 5.934724652188265,51.506738133799786" fill="none" stroke="rgb(0,178,178)" stroke-width="0.1"/>
  <path d="M 5.934724652188265,51.506738133799786 L 6.434853808876142,51.52158489998931" fill="none" stroke="rgb(0,178,178)" stroke-width="0.1"/>
  <path d="M 6.434853808876142,51.52158489998931 L 6.93498818783894,51.53625469257679" fill="none" stroke="rgb(0,178,178)" stroke-width="0.1"/>
  <path d="M 6.93498818783894,51.53625469257679 L 7.435127726454766,51.550747509725966" fill="none" stroke="rgb(0,178,178)" stroke-width="0.1"/>
  <path d="M 7.435127726454766,51.550747509725966 L 7.935272362098431,51.56506334962194" fill="none" stroke="rgb(0,178,178)" stroke-width="0.1"/>
  <path d="M 7.935272362098431,51.56506334962194 L 8.43542203214679,51.57920221047209" fill="none" stroke="rgb(0,178,178)" stroke-width="0.1"/>
  <path d="M 8.43542203214679,51.57920221047209 L 8.93557667397397,51.59316409050632" fill="none" stroke="rgb(0,178,178)" stroke-width="0.1"/>
  <path d="M 8.93557667397397,51.59316409050632 L 9.435736224954894,51.606948987976125" fill="none" stroke="rgb(0,178,178)" stroke-width="0.1"/>
  <path d="M 9.435736224954894,51.606948987976125 L 9.935900622462327,51.62055690115574" fill="none" stroke="rgb(0,178,178)" stroke-width="0.1"/>
  <path d="M 9.935900622462327,51.62055690115574 L 10.436069803870623,51.63398782834122" fill="none" stroke="rgb(0,178,178)" stroke-width="0.1"/>
  <path d="M 10.436069803870623,51.63398782834122 L 10.936243706551068,51.647241767850915" fill="none" stroke="rgb(0,178,178)" stroke-width="0.1"/>
  <path d="M 10.936243706551068,51.647241767850915 L 11.436422267876651,51.66031871802477" fill="none" stroke="rgb(0,178,178)" stroke-width="0.1"/>
  <path d="M 11.436422267876651,51.66031871802477 L 11.936605425218431,51.673218677226146" fill="none" stroke="rgb(0,178,178)" stroke-width="0.1"/>
  <path d="M 11.936605425218431,51.673218677226146 L 12.436793115946557,51.6859416438391" fill="none" stroke="rgb(0,178,178)" stroke-width="0.1"/>
  <path d="M 12.436793115946557,51.6859416438391 L 12.936985277431631,51.69848761627111" fill="none" stroke="rgb(0,178,178)" stroke-width="0.1"/>
  <path d="M 12.936985277431631,51.69848761627111 L 13.437181847043234,51.71085659295079" fill="none" stroke="rgb(0,178,178)" stroke-width="0.1"/>
  <path d="M 13.437181847043234,51.71085659295079 L 13.937382762150605,51.7230485723295" fill="none" stroke="rgb(0,178,178)" stroke-width="0.1"/>
  <path d="M 13.937382762150605,51.7230485723295 L 14.437587960122073,51.735063552881115" fill="none" stroke="rgb(0,178,178)" stroke-width="0.1"/>
  <path d="M 14.437587960122073,51.735063552881115 L 14.937797378326081,51.74690153310064" fill="none" stroke="rgb(0,178,178)" stroke-width="0.1"/>
  <path d="M 14.937797378326081,51.74690153310064 L 15.438010954129481,51.758562511506284" fill="none" stroke="rgb(0,178,178)" stroke-width="0.1"/>
  <path d="M 15.438010954129481,51.758562511506284 L 15.938228624899466,51.7700464866374" fill="none" stroke="rgb(0,178,178)" stroke-width="0.1"/>
  <path d="M 15.938228624899466,51.7700464866374 L 16.438450328002546,51.781353457056525" fill="none" stroke="rgb(0,178,178)" stroke-width="0.1"/>
  <path d="M 16.438450328002546,51.781353457056525 L 16.93867600080455,51.79248342134781" fill="none" stroke="rgb(0,178,178)" stroke-width="0.1"/>
  <path d="M 16.93867600080455,51.79248342134781 L 17.438905580671076,51.80343637811745" fill="none" stroke="rgb(0,178,178)" stroke-width="0.1"/>
  <path d="M 17.438905580671076,51.80343637811745 L 17.93913900496716,51.814212325993935" fill="none" stroke="rgb(0,178,178)" stroke-width="0.1"/>
  <path d="M 17.93913900496716,51.814212325993935 L 18.439376211056924,51.82481126362825" fill="none" stroke="rgb(0,178,178)" stroke-width="0.1"/>
  <path d="M 18.439376211056924,51.82481126362825 L 18.939617136304378,51.835233189692985" fill="none" stroke="rgb(0,178,178)" stroke-width="0.1"/>
  <path d="M 18.939617136304378,51.835233189692985 L 19.43986171807319,51.845478102883476" fill="none" stroke="rgb(0,178,178)" stroke-width="0.1"/>
  <path d="M 19.43986171807319,51.845478102883476 L 19.940109893726458,51.85554600191665" fill="none" stroke="rgb(0,178,178)" stroke-width="0.1"/>
  <path d="M 19.940109893726458,51.85554600191665 L 20.44036160062683,51.865436885532404" fill="none" stroke="rgb(0,178,178)" stroke-width="0.1"/>
  <path d="M 20.44036160062683,51.865436885532404 L 20.94061677613672,51.87515075249155" fill="none" stroke="rgb(0,178,178)" stroke-width="0.1"/>
  <path d="M 20.94061677613672,51.87515075249155 L 21.440875357617415,51.88468760157832" fill="none" stroke="rgb(0,178,178)" stroke-width="0.1"/>
  <path d="M 21.440875357617415,51.88468760157832 L 21.941137282429963,51.894047431598324" fill="none" stroke="rgb(0,178,178)" stroke-width="0.1"/>
  <path d="M 21.941137282429963,51.894047431598324 L 22.441402487936102,51.903230241379674" fill="none" stroke="rgb(0,178,178)" stroke-width="0.1"/>
  <path d="M 22.441402487936102,51.903230241379674 L 22.94167091149552,51.91223602977277" fill="none" stroke="rgb(0,178,178)" stroke-width="0.1"/>
  <path d="M 22.94167091149552,51.91223602977277 L 23.441942490469046,51.921064795649386" fill="none" stroke="rgb(0,178,178)" stroke-width="0.1"/>
  <path d="M 23.441942490469046,51.921064795649386 L 23.94221716221591,51.92971653790471" fill="none" stroke="rgb(0,178,178)" stroke-width="0.1"/>
  <path d="M 23.94221716221591,51.92971653790471 L 24.44249486409535,51.93819125545531" fill="none" stroke="rgb(0,178,178)" stroke-width="0.1"/>
  <path d="M 24.44249486409535,51.93819125545531 L 24.942775533466374,51.94648894723957" fill="none" stroke="rgb(0,178,178)" stroke-width="0.1"/>
  <path d="M 24.942775533466374,51.94648894723957 L 25.44305910768776,51.95460961221886" fill="none" stroke="rgb(0,178,178)" stroke-width="0.1"/>
  <path d="M 25.44305910768776,51.95460961221886 L 25.943345524117603,51.962553249376356" fill="none" stroke="rgb(0,178,178)" stroke-width="0.1"/>
  <path d="M 25.943345524117603,51.962553249376356 L 26.443634720113778,51.970319857717755" fill="none" stroke="rgb(0,178,178)" stroke-width="0.1"/>
  <path d="M 26.443634720113778,51.970319857717755 L 26.94392663303347,51.9779094362699" fill="none" stroke="rgb(0,178,178)" stroke-width="0.1"/>
  <path d="M 26.94392663303347,51.9779094362699 L 27.44422120023387,51.985321984082816" fill="none" stroke="rgb(0,178,178)" stroke-width="0.1"/>
  <path d="M 27.44422120023387,51.985321984082816 L 27.944518359071935,51.99255750022837" fill="none" stroke="rgb(0,178,178)" stroke-width="0.1"/>
  <path d="M 27.944518359071935,51.99255750022837 L 28.444818046904402,51.99961598380071" fill="none" stroke="rgb(0,178,178)" stroke-width="0.1"/>
  <path d="M 28.444818046904402,51.99961598380071 L 28.945120201086638,52.00649743391557" fill="none" stroke="rgb(0,178,178)" stroke-width="0.1"/>
  <path d="M 28.945120201086638,52.00649743391557 L 29.445424758975832,52.01320184971189" fill="none" stroke="rgb(0,178,178)" stroke-width="0.1"/>
  <path d="M 29.445424758975832,52.01320184971189 L 29.945731657926217,52.01972923034975" fill="none" stroke="rgb(0,178,178)" stroke-width="0.1"/>
  <path d="M 29.945731657926217,52.01972923034975 L 30.446040835293616,52.026079575012204" fill="none" stroke="rgb(0,178,178)" stroke-width="0.1"/>
  <path d="M 30.446040835293616,52.026079575012204 L 30.946352228432943,52.03225288290389" fill="none" stroke="rgb(0,178,178)" stroke-width="0.1"/>
  <path d="M 30.946352228432943,52.03225288290389 L 31.446665774698886,52.03824915325174" fill="none" stroke="rgb(0,178,178)" stroke-width="0.1"/>
  <path d="M 31.446665774698886,52.03824915325174 L 31.94698141144613,52.04406838530497" fill="none" stroke="rgb(0,178,178)" stroke-width="0.1"/>
  <path d="M 31.94698141144613,52.04406838530497 L 32.447299076028685,52.049710578335066" fill="none" stroke="rgb(0,178,178)" stroke-width="0.1"/>
  <path d="M 32.447299076028685,52.049710578335066 L 32.94761870580032,52.05517573163581" fill="none" stroke="rgb(0,178,178)" stroke-width="0.1"/>
  <path d="M 32.94761870580032,52.05517573163581 L 33.447940238114825,52.06046384452236" fill="none" stroke="rgb(0,178,178)" stroke-width="0.1"/>
  <path d="M 33.447940238114825,52.06046384452236 L 33.94826361032551,52.06557491633282" fill="none" stroke="rgb(0,178,178)" stroke-width="0.1"/>
  <path d="M 33.94826361032551,52.06557491633282 L 34.44858875978571,52.07050894642737" fill="none" stroke="rgb(0,178,178)" stroke-width="0.1"/>
  <path d="M 34.44858875978571,52.07050894642737 L 34.94891562384851,52.075265934187996" fill="none" stroke="rgb(0,178,178)" stroke-width="0.1"/>
  <path d="M 34.94891562384851,52.075265934187996 L 35.44924413986678,52.07984587901899" fill="none" stroke="rgb(0,178,178)" stroke-width="0.1"/>
  <path d="M 35.44924413986678,52.07984587901899 L 35.94957424519271,52.08424878034714" fill="none" stroke="rgb(0,178,178)" stroke-width="0.1"/>
  <path d="M 35.94957424519271,52.08424878034714 L 36.44990587717848,52.08847463762106" fill="none" stroke="rgb(0,178,178)" stroke-width="0.1"/>
  <path d="M 36.44990587717848,52.08847463762106 L 36.950238973176965,52.09252345031143" fill="none" stroke="rgb(0,178,178)" stroke-width="0.1"/>
  <path d="M 36.950238973176965,52.09252345031143 L 37.45057347053921,52.096395217911436" fill="none" stroke="rgb(0,178,178)" stroke-width="0.1"/>
  <path d="M 37.45057347053921,52.096395217911436 L 37.95090930661809,52.10008993993654" fill="none" stroke="rgb(0,178,178)" stroke-width="0.1"/>
  <path d="M 37.95090930661809,52.10008993993654 L 38.45124641876464,52.10360761592358" fill="none" stroke="rgb(0,178,178)" stroke-width="0.1"/>
  <path d="M 38.45124641876464,52.10360761592358 L 38.9515847443306,52.10694824543259" fill="none" stroke="rgb(0,178,178)" stroke-width="0.1"/>
  <path d="M 38.9515847443306,52.10694824543259 L 39.45192422066657,52.110111828045206" fill="none" stroke="rgb(0,178,178)" stroke-width="0.1"/>
  <path d="M 39.45192422066657,52.110111828045206 L 39.952264785124726,52.113098363364884" fill="none" stroke="rgb(0,178,178)" stroke-width="0.1"/>
  <path d="M 39.952264785124726,52.113098363364884 L 40.45260637505521,52.11590785101805" fill="none" stroke="rgb(0,178,178)" stroke-width="0.1"/>
  <path d="M 40.45260637505521,52.11590785101805 L 40.95294892781021,52.11854029065273" fill="none" stroke="rgb(0,178,178)" stroke-width="0.1"/>
  <path d="M 40.95294892781021,52.11854029065273 L 41.453292380739185,52.12099568193969" fill="none" stroke="rgb(0,178,178)" stroke-width="0.1"/>
  <path d="M 41.453292380739185,52.12099568193969 L 41.95363667119386,52.12327402457083" fill="none" stroke="rgb(0,178,178)" stroke-width="0.1"/>
  <path d="M 41.95363667119386,52.12327402457083 L 42.4539817365237,52.12537531826172" fill="none" stroke="rgb(0,178,178)" stroke-width="0.1"/>
  <path d="M 42.4539817365237,52.12537531826172 L 42.95432751408043,52.12729956274859" fill="none" stroke="rgb(0,178,178)" stroke-width="0.1"/>
  <path d="M 42.95432751408043,52.12729956274859 L 43.45467394121329,52.12904675779066" fill="none" stroke="rgb(0,178,178)" stroke-width="0.1"/>
  <path d="M 43.45467394121329,52.12904675779066 L 43.95502095527354,52.1306169031692" fill="none" stroke="rgb(0,178,178)" stroke-width="0.1"/>
  <path d="M 43.95502095527354,52.1306169031692 L 44.455368493611104,52.13200999868752" fill="none" stroke="rgb(0,178,178)" stroke-width="0.1"/>
  <path d="M 44.455368493611104,52.13200999868752 L 44.95571649357612,52.13322604417124" fill="none" stroke="rgb(0,178,178)" stroke-width="0.1"/>
  <path d="M 44.95571649357612,52.13322604417124 L 45.45606489251804,52.13426503946846" fill="none" stroke="rgb(0,178,178)" stroke-width="0.1"/>
  <path d="M 45.45606489251804,52.13426503946846 L 45.95641362778838,52.13512698444845" fill="none" stroke="rgb(0,178,178)" stroke-width="0.1"/>
  <path d="M 45.95641362778838,52.13512698444845 L 46.456762636735675,52.135811879003654" fill="none" stroke="rgb(0,178,178)" stroke-width="0.1"/>
  <path d="M 46.456762636735675,52.135811879003654 L 46.95711185671121,52.13631972304813" fill="none" stroke="rgb(0,178,178)" stroke-width="0.1"/>
  <path d="M 46.95711185671121,52.13631972304813 L 47.45746122506421,52.13665051651867" fill="none" stroke="rgb(0,178,178)" stroke-width="0.1"/>
  <path d="M 47.45746122506421,52.13665051651867 L 47.957810679144586,52.136804259373434" fill="none" stroke="rgb(0,178,178)" stroke-width="0.1"/>
  <path d="M 47.957810679144586,52.136804259373434 L 48.45816015630248,52.13678095159332" fill="none" stroke="rgb(0,178,178)" stroke-width="0.1"/>
  <path d="M 48.45816015630248,52.13678095159332 L 48.95850959388781,52.13658059318129" fill="none" stroke="rgb(0,178,178)" stroke-width="0.1"/>
  <path d="M 48.95850959388781,52.13658059318129 L 49.458858929250255,52.136203184162355" fill="none" stroke="rgb(0,178,178)" stroke-width="0.1"/>
  <path d="M 49.458858929250255,52.136203184162355 L 49.95920809974018,52.1356487245838" fill="none" stroke="rgb(0,178,178)" stroke-width="0.1"/>
  <path d="M 49.95920809974018,52.1356487245838 L 50.45955704270773,52.134917214514985" fill="none" stroke="rgb(0,178,178)" stroke-width="0.1"/>
  <path d="M 50.45955704270773,52.134917214514985 L 50.95990569550236,52.13400865404776" fill="none" stroke="rgb(0,178,178)" stroke-width="0.1"/>
  <path d="M 50.95990569550236,52.13400865404776 L 51.46025399547398,52.13292304329559" fill="none" stroke="rgb(0,178,178)" stroke-width="0.1"/>
  <path d="M 51.46025399547398,52.13292304329559 L 51.96060187997318,52.13166038239467" fill="none" stroke="rgb(0,178,178)" stroke-width="0.1"/>
  <path d="M 51.96060187997318,52.13166038239467 L 52.460949286350115,52.1302206715028" fill="none" stroke="rgb(0,178,178)" stroke-width="0.1"/>
  <path d="M 52.460949286350115,52.1302206715028 L 52.96129615195446,52.12860391080051" fill="none" stroke="rgb(0,178,178)" stroke-width="0.1"/>
  <path d="M 52.96129615195446,52.12860391080051 L 53.46164241413726,52.12681010049016" fill="none" stroke="rgb(0,178,178)" stroke-width="0.1"/>
  <path d="M 53.46164241413726,52.12681010049016 L 53.96198801024798,52.12483924079618" fill="none" stroke="rgb(0,178,178)" stroke-width="0.1"/>
  <path d="M 53.96198801024798,52.12483924079618 L 54.46233287763744,52.122691331965484" fill="none" stroke="rgb(0,178,178)" stroke-width="0.1"/>
  <path d="M 54.46233287763744,52.122691331965484 L 54.962676953656,52.12036637426729" fill="none" stroke="rgb(0,178,178)" stroke-width="0.1"/>
  <path d="M 54.962676953656,52.12036637426729 L 55.46302017565495,52.11786436799218" fill="none" stroke="rgb(0,178,178)" stroke-width="0.1"/>
  <path d="M 55.46302017565495,52.11786436799218 L 55.96336248098419,52.115185313453935" fill="none" stroke="rgb(0,178,178)" stroke-width="0.1"/>
  <path d="M 55.96336248098419,52.115185313453935 L 56.463703806995,52.11232921098747" fill="none" stroke="rgb(0,178,178)" stroke-width="0.1"/>
  <path d="M 56.463703806995,52.11232921098747 L 56.96404409103775,52.109296060951124" fill="none" stroke="rgb(0,178,178)" stroke-width="0.1"/>
  <path d="M 56.96404409103775,52.109296060951124 L 57.46438327046462,52.10608586372393" fill="none" stroke="rgb(0,178,178)" stroke-width="0.1"/>
  <path d="M 57.46438327046462,52.10608586372393 L 57.96472128262576,52.10269861970835" fill="none" stroke="rgb(0,178,178)" stroke-width="0.1"/>
  <path d="M 57.96472128262576,52.10269861970835 L 58.46505806487289,52.09913432932842" fill="none" stroke="rgb(0,178,178)" stroke-width="0.1"/>
  <path d="M 58.46505806487289,52.09913432932842 L 58.96539355455752,52.09539299303026" fill="none" stroke="rgb(0,178,178)" stroke-width="0.1"/>
  <path d="M 58.96539355455752,52.09539299303026 L 59.46572768903184,52.09147461128248" fill="none" stroke="rgb(0,178,178)" stroke-width="0.1"/>
  <path d="M 59.46572768903184,52.09147461128248 L 59.96606040564734,52.08737918457575" fill="none" stroke="rgb(0,178,178)" stroke-width="0.1"/>
  <path d="M 59.96606040564734,52.08737918457575 L 60.46639164175531,52.08310671342281" fill="none" stroke="rgb(0,178,178)" stroke-width="0.1"/>
  <path d="M 60.46639164175531,52.08310671342281 L 60.96672133470861,52.07865719835843" fill="none" stroke="rgb(0,178,178)" stroke-width="0.1"/>
  <path d="M 60.96672133470861,52.07865719835843 L 61.46704942186034,52.074030639939906" fill="none" stroke="rgb(0,178,178)" stroke-width="0.1"/>
  <path d="M 61.46704942186034,52.074030639939906 L 61.967375840562454,52.06922703874659" fill="none" stroke="rgb(0,178,178)" stroke-width="0.1"/>
  <path d="M 61.967375840562454,52.06922703874659 L 62.46770052816737,52.06424639538011" fill="none" stroke="rgb(0,178,178)" stroke-width="0.1"/>
  <path d="M 62.46770052816737,52.06424639538011 L 62.96802342202864,52.0590887104637" fill="none" stroke="rgb(0,178,178)" stroke-width="0.1"/>
  <path d="M 62.96802342202864,52.0590887104637 L 63.46834445949935,52.05375398464355" fill="none" stroke="rgb(0,178,178)" stroke-width="0.1"/>
  <path d="M 63.46834445949935,52.05375398464355 L 63.96866357793306,52.04824221858746" fill="none" stroke="rgb(0,178,178)" stroke-width="0.1"/>
  <path d="M 63.96866357793306,52.04824221858746 L 64.46898071468354,52.04255341298551" fill="none" stroke="rgb(0,178,178)" stroke-width="0.1"/>
  <path d="M 64.46898071468354,52.04255341298551 L 64.96929580710503,52.036687568550064" fill="none" stroke="rgb(0,178,178)" stroke-width="0.1"/>
  <path d="M 64.96929580710503,52.036687568550064 L 65.4696087925513,52.030644686015535" fill="none" stroke="rgb(0,178,178)" stroke-width="0.1"/>
  <path d="M 65.4696087925513,52.030644686015535 L 65.96991960837681,52.02442476613885" fill="none" stroke="rgb(0,178,178)" stroke-width="0.1"/>
  <path d="M 65.96991960837681,52.02442476613885 L 66.47022819193671,52.01802780969854" fill="none" stroke="rgb(0,178,178)" stroke-width="0.1"/>
  <path d="M 66.47022819193671,52.01802780969854 L 66.97053448058591,52.011453817495635" fill="none" stroke="rgb(0,178,178)" stroke-width="0.1"/>
  <path d="M 66.97053448058591,52.011453817495635 L 67.47083841167978,52.004702790353235" fill="none" stroke="rgb(0,178,178)" stroke-width="0.1"/>
  <path d="M 67.47083841167978,52.004702790353235 L 67.97113992257414,51.99777472911717" fill="none" stroke="rgb(0,178,178)" stroke-width="0.1"/>
  <path d="M 67.97113992257414,51.99777472911717 L 68.47143895062436,51.990669634653955" fill="none" stroke="rgb(0,178,178)" stroke-width="0.1"/>
  <path d="M 68.47143895062436,51.990669634653955 L 68.97173543318718,51.98338750785399" fill="none" stroke="rgb(0,178,178)" stroke-width="0.1"/>
  <path d="M 68.97173543318718,51.98338750785399 L 69.47202930761887,51.975928349628816" fill="none" stroke="rgb(0,178,178)" stroke-width="0.1"/>
  <path d="M 69.47202930761887,51.975928349628816 L 69.97232051127662,51.96829216091248" fill="none" stroke="rgb(0,178,178)" stroke-width="0.1"/>
  <path d="M 69.97232051127662,51.96829216091248 L 70.4726089815174,51.960478942661325" fill="none" stroke="rgb(0,178,178)" stroke-width="0.1"/>
  <path d="M 70.4726089815174,51.960478942661325 L 70.97289465569929,51.95248869585305" fill="none" stroke="rgb(0,178,178)" stroke-width="0.1"/>
  <path d="M 70.97289465569929,51.95248869585305 L 71.47317747117995,51.94432142148878" fill="none" stroke="rgb(0,178,178)" stroke-width="0.1"/>
  <path d="M 71.47317747117995,51.94432142148878 L 71.97345736531679,51.93597712059079" fill="none" stroke="rgb(0,178,178)" stroke-width="0.1"/>
  <path d="M 71.97345736531679,51.93597712059079 L 72.47373427546972,51.92745579420409" fill="none" stroke="rgb(0,178,178)" stroke-width="0.1"/>
  <path d="M 72.47373427546972,51.92745579420409 L 72.97400813899685,51.91875744339575" fill="none" stroke="rgb(0,178,178)" stroke-width="0.1"/>
  <path d="M 72.97400813899685,51.91875744339575 L 73.47427889325854,51.90988206925465" fill="none" stroke="rgb(0,178,178)" stroke-width="0.1"/>
  <path d="M 73.47427889325854,51.90988206925465 L 73.97454647561358,51.9008296728922" fill="none" stroke="rgb(0,178,178)" stroke-width="0.1"/>
  <path d="M 73.97454647561358,51.9008296728922 L 74.47481082342324,51.89160025544186" fill="none" stroke="rgb(0,178,178)" stroke-width="0.1"/>
  <path d="M 74.47481082342324,51.89160025544186 L 74.97507187404653,51.882193818059136" fill="none" stroke="rgb(0,178,178)" stroke-width="0.1"/>
  <path d="M 74.97507187404653,51.882193818059136 L 75.4753295648461,51.87261036192206" fill="none" stroke="rgb(0,178,178)" stroke-width="0.1"/>
  <path d="M 75.4753295648461,51.87261036192206 L 75.9755838331821,51.8628498882307" fill="none" stroke="rgb(0,178,178)" stroke-width="0.1"/>
  <path d="M 75.9755838331821,51.8628498882307 L 76.47583461641761,51.85291239820674" fill="none" stroke="rgb(0,178,178)" stroke-width="0.1"/>
  <path d="M 76.47583461641761,51.85291239820674 L 76.97608185191393,51.842797893094826" fill="none" stroke="rgb(0,178,178)" stroke-width="0.1"/>
  <path d="M 76.97608185191393,51.842797893094826 L 77.47632547703438,51.832506374161426" fill="none" stroke="rgb(0,178,178)" stroke-width="0.1"/>
  <path d="M 77.47632547703438,51.832506374161426 L 77.97656542914137,51.82203784269507" fill="none" stroke="rgb(0,178,178)" stroke-width="0.1"/>
  <path d="M 77.97656542914137,51.82203784269507 L 78.47680164559983,51.81139230000656" fill="none" stroke="rgb(0,178,178)" stroke-width="0.1"/>
  <path d="M 78.47680164559983,51.81139230000656 L 78.97703406377241,51.800569747428995" fill="none" stroke="rgb(0,178,178)" stroke-width="0.1"/>
  <path d="M 78.97703406377241,51.800569747428995 L 79.47726262102492,51.789570186317064" fill="none" stroke="rgb(0,178,178)" stroke-width="0.1"/>
  <path d="M 79.47726262102492,51.789570186317064 L 79.97748725472184,51.77839361804865" fill="none" stroke="rgb(0,178,178)" stroke-width="0.1"/>
  <path d="M 79.97748725472184,51.77839361804865 L 80.47770790222899,51.767040044022565" fill="none" stroke="rgb(0,178,178)" stroke-width="0.1"/>
  <path d="M 80.47770790222899,51.767040044022565 L 80.97792450091174,51.75550946566102" fill="none" stroke="rgb(0,178,178)" stroke-width="0.1"/>
  <path d="M 80.97792450091174,51.75550946566102 L 81.47813698813775,51.74380188440739" fill="none" stroke="rgb(0,178,178)" stroke-width="0.1"/>
  <path d="M 81.47813698813775,51.74380188440739 L 81.97834530127307,51.731917301727776" fill="none" stroke="rgb(0,178,178)" stroke-width="0.1"/>
  <path d="M 81.97834530127307,51.731917301727776 L 82.47854937768625,51.71985571911034" fill="none" stroke="rgb(0,178,178)" stroke-width="0.1"/>
  <path d="M 82.47854937768625,51.71985571911034 L 82.97874915474472,51.707617138065075" fill="none" stroke="rgb(0,178,178)" stroke-width="0.1"/>
  <path d="M 82.97874915474472,51.707617138065075 L 83.47894456981794,51.6952015601247" fill="none" stroke="rgb(0,178,178)" stroke-width="0.1"/>
  <path d="M 83.47894456981794,51.6952015601247 L 83.97913556027379,51.68260898684355" fill="none" stroke="rgb(0,178,178)" stroke-width="0.1"/>
  <path d="M 83.97913556027379,51.68260898684355 L 84.4793220634831,51.66983941979868" fill="none" stroke="rgb(0,178,178)" stroke-width="0.1"/>
  <path d="M 84.4793220634831,51.66983941979868 L 84.97950401681601,51.65689286058898" fill="none" stroke="rgb(0,178,178)" stroke-width="0.1"/>
  <path d="M 84.97950401681601,51.65689286058898 L 85.47968135764381,51.643769310834955" fill="none" stroke="rgb(0,178,178)" stroke-width="0.1"/>
  <path d="M 85.47968135764381,51.643769310834955 L 85.97985402333757,51.63046877218051" fill="none" stroke="rgb(0,178,178)" stroke-width="0.1"/>
  <path d="M 85.97985402333757,51.63046877218051 L 86.48002195126878,51.616991246290695" fill="none" stroke="rgb(0,178,178)" stroke-width="0.1"/>
  <path d="M 86.48002195126878,51.616991246290695 L 86.98018507881125,51.60333673485309" fill="none" stroke="rgb(0,178,178)" stroke-width="0.1"/>
  <path d="M 86.98018507881125,51.60333673485309 L 87.48034334333738,51.58950523957776" fill="none" stroke="rgb(0,178,178)" stroke-width="0.1"/>
  <path d="M 87.48034334333738,51.58950523957776 L 87.98049668222143,51.57549676219594" fill="none" stroke="rgb(0,178,178)" stroke-width="0.1"/>
  <path d="M 87.98049668222143,51.57549676219594 L 88.48064503283786,51.561311304462265" fill="none" stroke="rgb(0,178,178)" stroke-width="0.1"/>
  <path d="M 88.48064503283786,51.561311304462265 L 88.98078833256204,51.546948868152526" fill="none" stroke="rgb(0,178,178)" stroke-width="0.1"/>
  <path d="M 88.98078833256204,51.546948868152526 L 89.48092651876891,51.53240945506525" fill="none" stroke="rgb(0,178,178)" stroke-width="0.1"/>
  <path d="M 89.48092651876891,51.53240945506525 L 89.98105952883566,51.517693067021014" fill="none" stroke="rgb(0,178,178)" stroke-width="0.1"/>
  <path d="M 89.98105952883566,51.517693067021014 L 90.48118730013857,51.502799705862685" fill="none" stroke="rgb(0,178,178)" stroke-width="0.1"/>
  <path d="M 90.48118730013857,51.502799705862685 L 90.98130977005644,51.4877293734545" fill="none" stroke="rgb(0,178,178)" stroke-width="0.1"/>
  <path d="M 90.98130977005644,51.4877293734545 L 91.48142687596669,51.47248207168411" fill="none" stroke="rgb(0,178,178)" stroke-width="0.1"/>
  <path d="M 91.48142687596669,51.47248207168411 L 91.98153855524902,51.4570578024601" fill="none" stroke="rgb(0,178,178)" stroke-width="0.1"/>
  <path d="M 91.98153855524902,51.4570578024601 L 92.48164474528221,51.441456567714226" fill="none" stroke="rgb(0,178,178)" stroke-width="0.1"/>
  <path d="M 92.48164474528221,51.441456567714226 L 92.98174538344779,51.425678369399634" fill="none" stroke="rgb(0,178,178)" stroke-width="0.1"/>
  <path d="M 92.98174538344779,51.425678369399634 L 93.48184040712567,51.4097232094922" fill="none" stroke="rgb(0,178,178)" stroke-width="0.1"/>
  <path d="M 93.48184040712567,51.4097232094922 L 93.98192975369898,51.39359108998963" fill="none" stroke="rgb(0,178,178)" stroke-width="0.1"/>
  <path d="M 93.98192975369898,51.39359108998963 L 94.48201336054922,51.37728201291168" fill="none" stroke="rgb(0,178,178)" stroke-width="0.1"/>
  <path d="M 94.48201336054922,51.37728201291168 L 94.98209116505996,51.36079598030085" fill="none" stroke="rgb(0,178,178)" stroke-width="0.1"/>
  <path d="M 94.98209116505996,51.36079598030085 L 95.48216310461476,51.34413299422101" fill="none" stroke="rgb(0,178,178)" stroke-width="0.1"/>
  <path d="M 95.48216310461476,51.34413299422101 L 95.982229116599,51.327293056759004" fill="none" stroke="rgb(0,178,178)" stroke-width="0.1"/>
  <path d="M 95.982229116599,51.327293056759004 L 96.48228913839739,51.3102761700228" fill="none" stroke="rgb(0,178,178)" stroke-width="0.1"/>
  <path d="M 96.48228913839739,51.3102761700228 L 96.9823431073969,51.293082336143584" fill="none" stroke="rgb(0,178,178)" stroke-width="0.1"/>
  <path d="M 96.9823431073969,51.293082336143584 L 97.48239096098405,51.27571155727412" fill="none" stroke="rgb(0,178,178)" stroke-width="0.1"/>
  <path d="M 97.48239096098405,51.27571155727412 L 97.98243263654626,51.2581638355897" fill="none" stroke="rgb(0,178,178)" stroke-width="0.1"/>
  <path d="M 97.98243263654626,51.2581638355897 L 98.48246807147234,51.240439173286745" fill="none" stroke="rgb(0,178,178)" stroke-width="0.1"/>
  <path d="M 98.48246807147234,51.240439173286745 L 98.9824972031513,51.222537572585566" fill="none" stroke="rgb(0,178,178)" stroke-width="0.1"/>
  <path d="M 98.9824972031513,51.222537572585566 L 99.48251996897352,51.204459035727155" fill="none" stroke="rgb(0,178,178)" stroke-width="0.1"/>
  <path d="M 99.48251996897352,51.204459035727155 L 99.98253630632962,51.186203564975244" fill="none" stroke="rgb(0,178,178)" stroke-width="0.1"/>
 </g>
</svg>