<?xml version="1.0" encoding="utf-8"?>
<svg style="background-color: #000;" version="1.1" viewBox="0 0 100.0 100.0" xmlns="http://www.w3.org/2000/svg" xmlns:inkscape="http://www.inkscape.org/namespaces/inkscape">
 <g id="layerA-ANNO-DIMS" inkscape:groupmode="layer" inkscape:label="A-ANNO-DIMS">
  <path d="M 21.14514900000006,21.70115099999998 L 21.14514900000006,8.006150999999932" fill="none" stroke="rgb(0,178,0)" stroke-width="0.1"/>
  <path d="M 0.0,13.006150999999932 L 21.14514900000006,13.006150999999932" fill="none" stroke="rgb(0,178,0)" stroke-width="0.1"/>
  <path d="M 21.14514900000006,21.70115099999998 L 21.14514900000006,8.006150999999932" fill="none" stroke="rgb(0,178,0)" stroke-width="0.1"/>
  <path d="M 23.14514900000006,21.70115099999998 L 23.14514900000006,8.006150999999932" fill="none" stroke="rgb(0,178,0)" stroke-width="0.1"/>
  <path d="M 21.14514900000006,13.006150999999932 L 19.14514900000006,13.006150999999932" fill="none" stroke="rgb(0,178,0)" stroke-width="0.1"/>
  <path d="M 23.14514900000006,13.006150999999932 L 25.14514900000006,13.006150999999932" fill="none" stroke="rgb(0,178,0)" stroke-width="0.1"/>
  <path d="M 21.14514900000006,13.006150999999932 L 23.14514900000006,13.006150999999932" fill="none" stroke="rgb(0,178,0)" stroke-width="0.1"/>
  <path d="M 23.14514900000006,21.70115099999998 L 23.14514900000006,8.006150999999932" fill="none" stroke="rgb(0,178,0)" stroke-width="0.1"/>
  <path d="M 68.14514900000006,21.70115099999998 L 68.14514900000006,8.006150999999932" fill="none" stroke="rgb(0,178,0)" stroke-width="0.1"/>
  <path d="M 23.14514900000006,13.006150999999932 L 68.14514900000006,13.006150999999932" fill="none" stroke="rgb(0,178,0)" stroke-width="0.1"/>
  <path d="M 68.14514900000006,21.70115099999998 L 68.14514900000006,8.006150999999932" fill="none" stroke="rgb(0,178,0)" stroke-width="0.1"/>
  <path d="M 71.14514900000006,21.70115099999998 L 71.14514900000006,8.006150999999932" fill="none" stroke="rgb(0,178,0)" stroke-width="0.1"/>
  <path d="M 68.14514900000006,13.006150999999932 L 66.14514900000006,13.006150999999932" fill="none" stroke="rgb(0,178,0)" stroke-width="0.1"/>
  <path d="M 71.14514900000006,13.006150999999932 L 73.14514900000006,13.006150999999932" fill="none" stroke="rgb(0,178,0)" stroke-width="0.1"/>
  <path d="M 68.14514900000006,13.006150999999932 L 71.14514900000006,13.006150999999932" fill="none" stroke="rgb(0,178,0)" stroke-width="0.1"/>
  <text fill="rgb(0,178,0)" font-family="Noto Sans CJK SC" font-size="2" transform="rotate(-90.0,94.12714900000003,3.335150999999996)" x="94.12714900000003" y="3.335150999999996">
   1000
  </text>
  <text fill="rgb(0,178,0)" font-family="Noto Sans CJK SC" font-size="2" transform="rotate(-0.0,16.14514900000006,10.481150999999954)" x="16.14514900000006" y="10.481150999999954">
   200
  </text>
  <text fill="rgb(0,178,0)" font-family="Noto Sans CJK SC" font-size="2" transform="rotate(-0.0,37.64514900000006,10.481150999999954)" x="37.64514900000006" y="10.481150999999954">
   4500
  </text>
  <text fill="rgb(0,178,0)" font-family="Noto Sans CJK SC" font-size="2" transform="rotate(-0.0,70.92514900000003,10.481150999999954)" x="70.92514900000003" y="10.481150999999954">
   300
  </text>
 </g>
 <g id="layerA-DOTE" inkscape:groupmode="layer" inkscape:label="A-DOTE">
  <path d="M 68.14514900000006,100.0 L 68.14514900000006,0.0" fill="none" stroke="rgb(107,53,53)" stroke-width="0.1"/>
  <path d="M 0.0,64.13515099999995 L 100.0,64.13515099999995" fill="none" stroke="rgb(107,53,53)" stroke-width="0.1"/>
 </g>
 <g id="layerA-WALL" inkscape:groupmode="layer" inkscape:label="A-WALL">
  <path d="M 21.14514900000006,66.63515099999995 L 0.0,66.63515099999995" fill="none" instance-id="-1" semantic-id="1" stroke="rgb(0,178,178)" stroke-width="0.1"/>
  <path d="M 21.14514900000006,64.63515099999995 L 0.0,64.63515099999995" fill="none" instance-id="-1" semantic-id="1" stroke="rgb(0,178,178)" stroke-width="0.1"/>
  <path d="M 23.14514900000006,65.63515099999995 L 23.14514900000006,100.0" fill="none" instance-id="-1" semantic-id="1" stroke="rgb(0,178,178)" stroke-width="0.1"/>
  <path d="M 21.14514900000006,66.63515099999995 L 21.14514900000006,100.0" fill="none" instance-id="-1" semantic-id="1" stroke="rgb(0,178,178)" stroke-width="0.1"/>
  <path d="M 21.14514900000006,42.63515099999995 L 0.0,42.63515099999995" fill="none" instance-id="-1" semantic-id="1" stroke="rgb(0,178,178)" stroke-width="0.1"/>
  <path d="M 21.14514900000006,40.63515099999995 L 0.0,40.63515099999995" fill="none" instance-id="-1" semantic-id="1" stroke="rgb(0,178,178)" stroke-width="0.1"/>
  <path d="M 23.14514900000006,41.515150999999946 L 23.14514900000006,65.63515099999995" fill="none" instance-id="-1" semantic-id="1" stroke="rgb(0,178,178)" stroke-width="0.1"/>
  <path d="M 21.14514900000006,42.63515099999995 L 21.14514900000006,64.63515099999995" fill="none" instance-id="-1" semantic-id="1" stroke="rgb(0,178,178)" stroke-width="0.1"/>
  <path d="M 71.14514900000006,26.13515099999995 L 23.14514900000006,26.13515099999995" fill="none" instance-id="-1" semantic-id="1" stroke="rgb(0,178,178)" stroke-width="0.1"/>
  <path d="M 69.14514900000006,24.13515099999995 L 23.14514900000006,24.13515099999995" fill="none" instance-id="-1" semantic-id="1" stroke="rgb(0,178,178)" stroke-width="0.1"/>
  <path d="M 23.14514900000006,26.13515099999995 L 23.14514900000006,41.515150999999946" fill="none" instance-id="-1" semantic-id="1" stroke="rgb(0,178,178)" stroke-width="0.1"/>
  <path d="M 21.14514900000006,25.13515099999995 L 21.14514900000006,40.63515099999995" fill="none" instance-id="-1" semantic-id="1" stroke="rgb(0,178,178)" stroke-width="0.1"/>
  <path d="M 23.14514900000006,0.0 L 23.14514900000006,24.13515099999995" fill="none" instance-id="-1" semantic-id="1" stroke="rgb(0,178,178)" stroke-width="0.1"/>
  <path d="M 21.14514900000006,0.0 L 21.14514900000006,25.13515099999995" fill="none" instance-id="-1" semantic-id="1" stroke="rgb(0,178,178)" stroke-width="0.1"/>
  <path d="M 71.14514900000006,26.13515099999995 L 71.14514900000006,0.0" fill="none" instance-id="-1" semantic-id="1" stroke="rgb(0,178,178)" stroke-width="0.1"/>
  <path d="M 69.14514900000006,0.0 L 69.14514900000006,24.13515099999995" fill="none" instance-id="-1" semantic-id="1" stroke="rgb(0,178,178)" stroke-width="0.1"/>
 </g>
 <g id="layerA-WIN-TEXT" inkscape:groupmode="layer" inkscape:label="A-WIN-TEXT">
  <text fill="rgb(0,0,0)" font-family="Noto Sans CJK SC" font-size="2" transform="rotate(-90.0,67.49014899999997,1.730150999999978)" x="67.49014899999997" y="1.730150999999978">
   FHM1021甲
  </text>
 </g>
 <g id="layerCAR" inkscape:groupmode="layer" inkscape:label="CAR">
  <path d="M 74.56914900000004,30.845150999999987 L 72.32914900000003,30.845150999999987" fill="none" instance-id="-1" semantic-id="35" stroke="rgb(134,134,134)" stroke-width="0.1"/>
  <path d="M 73.82914900000003,31.080151 L 73.78914900000007,31.070150999999896" fill="none" stroke="rgb(134,134,134)" stroke-width="0.1"/>
  <path d="M 73.43914900000004,31.095150999999987 L 74.06914900000004,31.850150999999983" fill="none" instance-id="-1" semantic-id="35" stroke="rgb(134,134,134)" stroke-width="0.1"/>
  <path d="M 74.44414900000004,31.850150999999983 L 73.81914900000004,31.095150999999987" fill="none" instance-id="-1" semantic-id="35" stroke="rgb(134,134,134)" stroke-width="0.1"/>
  <path d="M 75.44914900000003,31.850150999999983 L 74.56914900000004,30.845150999999987" fill="none" instance-id="-1" semantic-id="35" stroke="rgb(134,134,134)" stroke-width="0.1"/>
  <path d="M 74.56914900000004,30.845150999999987 L 73.95914900000002,31.085150999999996" fill="none" instance-id="-1" semantic-id="35" stroke="rgb(134,134,134)" stroke-width="0.1"/>
  <path d="M 72.18414900000005,30.820150999999896 L 72.18414900000005,30.845150999999987" fill="none" stroke="rgb(134,134,134)" stroke-width="0.1"/>
  <path d="M 72.18414900000005,30.820150999999896 L 70.67414900000006,30.59015099999999" fill="none" instance-id="-1" semantic-id="35" stroke="rgb(134,134,134)" stroke-width="0.1"/>
  <path d="M 73.82914900000003,31.075151000000005 L 72.18414900000005,30.820150999999896" fill="none" instance-id="-1" semantic-id="35" stroke="rgb(134,134,134)" stroke-width="0.1"/>
  <path d="M 76.32914900000003,36.370150999999964 L 76.45414900000003,37.62515099999996" fill="none" instance-id="-1" semantic-id="35" stroke="rgb(134,134,134)" stroke-width="0.1"/>
  <path d="M 74.69414900000004,36.370150999999964 L 75.32414900000003,36.370150999999964" fill="none" instance-id="-1" semantic-id="35" stroke="rgb(134,134,134)" stroke-width="0.1"/>
  <path d="M 74.69414900000004,36.370150999999964 L 75.07414900000003,37.62515099999996" fill="none" instance-id="-1" semantic-id="35" stroke="rgb(134,134,134)" stroke-width="0.1"/>
  <path d="M 75.26414899999997,37.62515099999996 L 74.88414899999998,36.370150999999964" fill="none" instance-id="-1" semantic-id="35" stroke="rgb(134,134,134)" stroke-width="0.1"/>
  <path d="M 75.26414899999997,36.370150999999964 L 75.63914899999997,37.62515099999996" fill="none" instance-id="-1" semantic-id="35" stroke="rgb(134,134,134)" stroke-width="0.1"/>
  <path d="M 75.57414900000003,37.62515099999996 L 75.19914900000003,36.370150999999964" fill="none" instance-id="-1" semantic-id="35" stroke="rgb(134,134,134)" stroke-width="0.1"/>
  <path d="M 75.63914899999997,39.640150999999946 L 75.07414900000003,39.640150999999946" fill="none" instance-id="-1" semantic-id="35" stroke="rgb(134,134,134)" stroke-width="0.1"/>
  <path d="M 75.25914899999998,37.62515099999996 L 75.25914899999998,41.64515099999994" fill="none" instance-id="-1" semantic-id="35" stroke="rgb(134,134,134)" stroke-width="0.1"/>
  <path d="M 74.69414900000004,36.370150999999964 L 71.67914900000005,35.61515099999997" fill="none" instance-id="-1" semantic-id="35" stroke="rgb(134,134,134)" stroke-width="0.1"/>
  <path d="M 74.06914900000004,31.850150999999983 L 74.69414900000004,36.370150999999964" fill="none" instance-id="-1" semantic-id="35" stroke="rgb(134,134,134)" stroke-width="0.1"/>
  <path d="M 75.07414900000003,36.370150999999964 L 74.44414900000004,31.850150999999983" fill="none" instance-id="-1" semantic-id="35" stroke="rgb(134,134,134)" stroke-width="0.1"/>
  <path d="M 75.44914900000003,31.850150999999983 L 76.32914900000003,36.370150999999964" fill="none" instance-id="-1" semantic-id="35" stroke="rgb(134,134,134)" stroke-width="0.1"/>
  <path d="M 75.32414900000003,42.90515099999993 L 74.69414900000004,42.90515099999993" fill="none" instance-id="-1" semantic-id="35" stroke="rgb(134,134,134)" stroke-width="0.1"/>
  <path d="M 74.69414900000004,42.90515099999993 L 75.07414900000003,41.64515099999994" fill="none" instance-id="-1" semantic-id="35" stroke="rgb(134,134,134)" stroke-width="0.1"/>
  <path d="M 75.63914899999997,41.64515099999994 L 75.26414899999997,42.90515099999993" fill="none" instance-id="-1" semantic-id="35" stroke="rgb(134,134,134)" stroke-width="0.1"/>
  <path d="M 75.26414899999997,41.64515099999994 L 74.88414899999998,42.90515099999993" fill="none" instance-id="-1" semantic-id="35" stroke="rgb(134,134,134)" stroke-width="0.1"/>
  <path d="M 75.19914900000003,42.90515099999993 L 75.57414900000003,41.64515099999994" fill="none" instance-id="-1" semantic-id="35" stroke="rgb(134,134,134)" stroke-width="0.1"/>
  <path d="M 76.32914900000003,42.90515099999993 L 76.45414900000003,41.64515099999994" fill="none" instance-id="-1" semantic-id="35" stroke="rgb(134,134,134)" stroke-width="0.1"/>
  <path d="M 75.07414900000003,42.90515099999993 L 74.44414900000004,47.425150999999914" fill="none" instance-id="-1" semantic-id="35" stroke="rgb(134,134,134)" stroke-width="0.1"/>
  <path d="M 74.69414900000004,42.90515099999993 L 74.06914900000004,47.425150999999914" fill="none" instance-id="-1" semantic-id="35" stroke="rgb(134,134,134)" stroke-width="0.1"/>
  <path d="M 76.32914900000003,42.90515099999993 L 75.44914900000003,47.425150999999914" fill="none" instance-id="-1" semantic-id="35" stroke="rgb(134,134,134)" stroke-width="0.1"/>
  <path d="M 74.69414900000004,42.90515099999993 L 71.67914900000005,43.65515099999993" fill="none" instance-id="-1" semantic-id="35" stroke="rgb(134,134,134)" stroke-width="0.1"/>
  <path d="M 73.82914900000003,48.195150999999896 L 73.81914900000004,48.18015099999991" fill="none" stroke="rgb(134,134,134)" stroke-width="0.1"/>
  <path d="M 72.30914900000005,48.43015099999991 L 74.56914900000004,48.43015099999991" fill="none" instance-id="-1" semantic-id="35" stroke="rgb(134,134,134)" stroke-width="0.1"/>
  <path d="M 73.95914900000002,48.1901509999999 L 74.56914900000004,48.43015099999991" fill="none" instance-id="-1" semantic-id="35" stroke="rgb(134,134,134)" stroke-width="0.1"/>
  <path d="M 72.18414900000005,48.435150999999905 L 72.18414900000005,48.450151000000005" fill="none" stroke="rgb(134,134,134)" stroke-width="0.1"/>
  <path d="M 70.67414900000006,48.68015099999991 L 72.18414900000005,48.450151000000005" fill="none" instance-id="-1" semantic-id="35" stroke="rgb(134,134,134)" stroke-width="0.1"/>
  <path d="M 72.16414900000007,48.455151 L 70.67414900000006,48.68015099999991" fill="none" instance-id="-1" semantic-id="35" stroke="rgb(134,134,134)" stroke-width="0.1"/>
  <path d="M 73.82914900000003,48.195150999999896 L 72.18414900000005,48.450151000000005" fill="none" instance-id="-1" semantic-id="35" stroke="rgb(134,134,134)" stroke-width="0.1"/>
  <path d="M 75.44914900000003,47.425150999999914 L 74.56914900000004,48.43015099999991" fill="none" instance-id="-1" semantic-id="35" stroke="rgb(134,134,134)" stroke-width="0.1"/>
  <path d="M 73.43914900000004,48.18015099999991 L 74.06914900000004,47.425150999999914" fill="none" instance-id="-1" semantic-id="35" stroke="rgb(134,134,134)" stroke-width="0.1"/>
  <path d="M 73.81914900000004,48.18015099999991 L 74.44414900000004,47.425150999999914" fill="none" instance-id="-1" semantic-id="35" stroke="rgb(134,134,134)" stroke-width="0.1"/>
  <path d="M 76.45414900000003,41.64515099999994 L 76.45414900000003,37.62515099999996" fill="none" instance-id="-1" semantic-id="35" stroke="rgb(134,134,134)" stroke-width="0.1"/>
  <path d="M 75.57414900000003,37.62515099999996 L 75.57414900000003,41.64515099999994" fill="none" instance-id="-1" semantic-id="35" stroke="rgb(134,134,134)" stroke-width="0.1"/>
  <path d="M 75.63914899999997,41.64515099999994 L 75.63914899999997,37.62515099999996" fill="none" instance-id="-1" semantic-id="35" stroke="rgb(134,134,134)" stroke-width="0.1"/>
  <path d="M 75.07414900000003,37.62515099999996 L 75.07414900000003,41.64515099999994" fill="none" instance-id="-1" semantic-id="35" stroke="rgb(134,134,134)" stroke-width="0.1"/>
  <path d="M 59.82214899999997,30.234150999999997 L 60.07914900000003,31.015150999999946" fill="none" instance-id="-1" semantic-id="35" stroke="rgb(134,134,134)" stroke-width="0.1"/>
  <path d="M 59.66914900000006,32.11015099999997 L 59.67914900000005,32.10515099999998" fill="none" stroke="rgb(134,134,134)" stroke-width="0.1"/>
  <path d="M 59.99214900000004,31.900150999999937 L 59.67914900000005,32.120150999999964" fill="none" instance-id="-1" semantic-id="35" stroke="rgb(134,134,134)" stroke-width="0.1"/>
  <path d="M 59.81914900000004,32.02015099999994 L 60.24914899999999,32.10015099999998" fill="none" instance-id="-1" semantic-id="35" stroke="rgb(134,134,134)" stroke-width="0.1"/>
  <path d="M 61.504148999999984,33.73015099999998 L 60.24914899999999,32.10015099999998" fill="none" instance-id="-1" semantic-id="35" stroke="rgb(134,134,134)" stroke-width="0.1"/>
  <path d="M 60.03414899999996,31.82315099999994 L 60.07914900000003,31.015150999999946" fill="none" instance-id="-1" semantic-id="35" stroke="rgb(134,134,134)" stroke-width="0.1"/>
  <path d="M 67.15914899999996,31.095150999999987 L 60.039149000000066,31.745150999999964" fill="none" instance-id="-1" semantic-id="35" stroke="rgb(134,134,134)" stroke-width="0.1"/>
  <path d="M 59.97114899999997,30.68715099999997 L 64.43414900000005,30.655150999999933" fill="none" instance-id="-1" semantic-id="35" stroke="rgb(134,134,134)" stroke-width="0.1"/>
  <path d="M 67.40914899999996,34.86515099999997 L 61.504148999999984,33.73015099999998" fill="none" instance-id="-1" semantic-id="35" stroke="rgb(134,134,134)" stroke-width="0.1"/>
  <path d="M 62.25914899999998,37.62515099999996 L 61.504148999999984,33.73015099999998" fill="none" instance-id="-1" semantic-id="35" stroke="rgb(134,134,134)" stroke-width="0.1"/>
  <path d="M 59.40914899999996,31.685150999999905 L 59.25914899999998,31.685150999999905" fill="none" stroke="rgb(134,134,134)" stroke-width="0.1"/>
  <path d="M 59.29414900000006,31.810150999999905 L 58.86914899999999,31.850150999999983" fill="none" instance-id="-1" semantic-id="35" stroke="rgb(134,134,134)" stroke-width="0.1"/>
  <path d="M 59.25914899999998,31.685150999999905 L 59.38414899999998,32.120150999999964" fill="none" instance-id="-1" semantic-id="35" stroke="rgb(134,134,134)" stroke-width="0.1"/>
  <path d="M 58.86914899999999,31.850150999999983 L 59.32914900000003,31.935150999999905" fill="none" instance-id="-1" semantic-id="35" stroke="rgb(134,134,134)" stroke-width="0.1"/>
  <path d="M 59.264148999999975,30.560150999999905 L 59.40914899999996,31.685150999999905" fill="none" instance-id="-1" semantic-id="35" stroke="rgb(134,134,134)" stroke-width="0.1"/>
  <path d="M 59.25914899999998,31.685150999999905 L 59.264148999999975,30.604151" fill="none" instance-id="-1" semantic-id="35" stroke="rgb(134,134,134)" stroke-width="0.1"/>
  <path d="M 58.86914899999999,31.850150999999983 L 58.86914899999999,30.845150999999987" fill="none" instance-id="-1" semantic-id="35" stroke="rgb(134,134,134)" stroke-width="0.1"/>
  <path d="M 55.09914900000001,33.86015099999997 L 58.86914899999999,31.850150999999983" fill="none" instance-id="-1" semantic-id="35" stroke="rgb(134,134,134)" stroke-width="0.1"/>
  <path d="M 55.09914900000001,33.86015099999997 L 55.59914900000001,34.36015099999997" fill="none" instance-id="-1" semantic-id="35" stroke="rgb(134,134,134)" stroke-width="0.1"/>
  <path d="M 56.22914900000001,35.870150999999964 L 56.60414900000001,38.130150999999955" fill="none" instance-id="-1" semantic-id="35" stroke="rgb(134,134,134)" stroke-width="0.1"/>
  <path d="M 55.59914900000001,34.36015099999997 L 56.22914900000001,35.870150999999964" fill="none" instance-id="-1" semantic-id="35" stroke="rgb(134,134,134)" stroke-width="0.1"/>
  <path d="M 60.24914899999999,32.10015099999998 L 55.59914900000001,34.36015099999997" fill="none" instance-id="-1" semantic-id="35" stroke="rgb(134,134,134)" stroke-width="0.1"/>
  <path d="M 59.40914899999996,31.685150999999905 L 59.67914900000005,32.120150999999964" fill="none" instance-id="-1" semantic-id="35" stroke="rgb(134,134,134)" stroke-width="0.1"/>
  <path d="M 59.67914900000005,32.10515099999998 L 59.40914899999996,31.685150999999905" fill="none" instance-id="-1" semantic-id="35" stroke="rgb(134,134,134)" stroke-width="0.1"/>
  <path d="M 59.38414899999998,32.120150999999964 L 59.66914900000006,32.11015099999997" fill="none" instance-id="-1" semantic-id="35" stroke="rgb(134,134,134)" stroke-width="0.1"/>
  <path d="M 59.29514900000004,30.53115099999991 L 59.65914899999996,30.192150999999967" fill="none" instance-id="-1" semantic-id="35" stroke="rgb(134,134,134)" stroke-width="0.1"/>
  <path d="M 59.66914900000006,47.16515099999992 L 59.67914900000005,47.16515099999992" fill="none" stroke="rgb(134,134,134)" stroke-width="0.1"/>
  <path d="M 59.67914900000005,47.15015099999994 L 59.99214900000004,47.37115099999994" fill="none" instance-id="-1" semantic-id="35" stroke="rgb(134,134,134)" stroke-width="0.1"/>
  <path d="M 59.81914900000004,47.255150999999955 L 60.24914899999999,47.175150999999914" fill="none" instance-id="-1" semantic-id="35" stroke="rgb(134,134,134)" stroke-width="0.1"/>
  <path d="M 61.504148999999984,45.54015099999992 L 60.24914899999999,47.175150999999914" fill="none" instance-id="-1" semantic-id="35" stroke="rgb(134,134,134)" stroke-width="0.1"/>
  <path d="M 61.504148999999984,45.54015099999992 L 62.25914899999998,41.64515099999994" fill="none" instance-id="-1" semantic-id="35" stroke="rgb(134,134,134)" stroke-width="0.1"/>
  <path d="M 67.40914899999996,44.41015099999993 L 61.504148999999984,45.54015099999992" fill="none" instance-id="-1" semantic-id="35" stroke="rgb(134,134,134)" stroke-width="0.1"/>
  <path d="M 59.82214899999997,49.037150999999994 L 60.07914900000003,48.255150999999955" fill="none" instance-id="-1" semantic-id="35" stroke="rgb(134,134,134)" stroke-width="0.1"/>
  <path d="M 59.969149000000016,48.5891509999999 L 64.43414900000005,48.620150999999964" fill="none" instance-id="-1" semantic-id="35" stroke="rgb(134,134,134)" stroke-width="0.1"/>
  <path d="M 67.15914899999996,48.18015099999991 L 60.039149000000066,47.53515099999993" fill="none" instance-id="-1" semantic-id="35" stroke="rgb(134,134,134)" stroke-width="0.1"/>
  <path d="M 60.03414899999996,47.44715099999996 L 60.07914900000003,48.255150999999955" fill="none" instance-id="-1" semantic-id="35" stroke="rgb(134,134,134)" stroke-width="0.1"/>
  <path d="M 56.60414900000001,41.14515099999994 L 56.22914900000001,43.40515099999993" fill="none" instance-id="-1" semantic-id="35" stroke="rgb(134,134,134)" stroke-width="0.1"/>
  <path d="M 59.38414899999998,47.15015099999994 L 59.25914899999998,47.585150999999996" fill="none" instance-id="-1" semantic-id="35" stroke="rgb(134,134,134)" stroke-width="0.1"/>
  <path d="M 59.40914899999996,47.585150999999996 L 59.25914899999998,47.585150999999996" fill="none" stroke="rgb(134,134,134)" stroke-width="0.1"/>
  <path d="M 59.32914900000003,47.34515099999999 L 58.86914899999999,47.425150999999914" fill="none" instance-id="-1" semantic-id="35" stroke="rgb(134,134,134)" stroke-width="0.1"/>
  <path d="M 59.289149000000066,47.46515099999999 L 58.86914899999999,47.425150999999914" fill="none" instance-id="-1" semantic-id="35" stroke="rgb(134,134,134)" stroke-width="0.1"/>
  <path d="M 56.22914900000001,43.40515099999993 L 55.59914900000001,44.91515099999992" fill="none" instance-id="-1" semantic-id="35" stroke="rgb(134,134,134)" stroke-width="0.1"/>
  <path d="M 55.09914900000001,45.41515099999992 L 58.86914899999999,47.425150999999914" fill="none" instance-id="-1" semantic-id="35" stroke="rgb(134,134,134)" stroke-width="0.1"/>
  <path d="M 55.59914900000001,44.91515099999992 L 55.09914900000001,45.41515099999992" fill="none" instance-id="-1" semantic-id="35" stroke="rgb(134,134,134)" stroke-width="0.1"/>
  <path d="M 59.40914899999996,47.585150999999996 L 59.264148999999975,48.710150999999996" fill="none" instance-id="-1" semantic-id="35" stroke="rgb(134,134,134)" stroke-width="0.1"/>
  <path d="M 59.264148999999975,48.66715099999999 L 59.25914899999998,47.585150999999996" fill="none" instance-id="-1" semantic-id="35" stroke="rgb(134,134,134)" stroke-width="0.1"/>
  <path d="M 58.86914899999999,48.43015099999991 L 58.86914899999999,47.425150999999914" fill="none" instance-id="-1" semantic-id="35" stroke="rgb(134,134,134)" stroke-width="0.1"/>
  <path d="M 60.24914899999999,47.175150999999914 L 55.59914900000001,44.91515099999992" fill="none" instance-id="-1" semantic-id="35" stroke="rgb(134,134,134)" stroke-width="0.1"/>
  <path d="M 59.29514900000004,48.74015099999997 L 59.65914899999996,49.07915099999991" fill="none" instance-id="-1" semantic-id="35" stroke="rgb(134,134,134)" stroke-width="0.1"/>
  <path d="M 59.40914899999996,47.585150999999996 L 59.67914900000005,47.15015099999994" fill="none" instance-id="-1" semantic-id="35" stroke="rgb(134,134,134)" stroke-width="0.1"/>
  <path d="M 59.67914900000005,47.16515099999992 L 59.40914899999996,47.585150999999996" fill="none" instance-id="-1" semantic-id="35" stroke="rgb(134,134,134)" stroke-width="0.1"/>
  <path d="M 59.38414899999998,47.15015099999994 L 59.66914900000006,47.16515099999992" fill="none" instance-id="-1" semantic-id="35" stroke="rgb(134,134,134)" stroke-width="0.1"/>
  <path d="M 62.25914899999998,37.62515099999996 L 62.25914899999998,41.64515099999994" fill="none" instance-id="-1" semantic-id="35" stroke="rgb(134,134,134)" stroke-width="0.1"/>
  <path d="M 56.60414900000001,41.14515099999994 L 56.60414900000001,38.130150999999955" fill="none" instance-id="-1" semantic-id="35" stroke="rgb(134,134,134)" stroke-width="0.1"/>
  <path d="M 70.67414900000006,48.68015099999991 L 64.51914899999997,48.68015099999991" fill="none" instance-id="-1" semantic-id="35" stroke="rgb(134,134,134)" stroke-width="0.1"/>
  <path d="M 67.15914899999996,48.18015099999991 L 74.06914900000004,48.18015099999991" fill="none" instance-id="-1" semantic-id="35" stroke="rgb(134,134,134)" stroke-width="0.1"/>
  <path d="M 67.40914899999996,44.41015099999993 L 71.67914900000005,43.65515099999993" fill="none" instance-id="-1" semantic-id="35" stroke="rgb(134,134,134)" stroke-width="0.1"/>
  <path d="M 64.51914899999997,30.59015099999999 L 70.67414900000006,30.59015099999999" fill="none" instance-id="-1" semantic-id="35" stroke="rgb(134,134,134)" stroke-width="0.1"/>
  <path d="M 71.67914900000005,35.61515099999997 L 67.40914899999996,34.86515099999997" fill="none" instance-id="-1" semantic-id="35" stroke="rgb(134,134,134)" stroke-width="0.1"/>
  <path d="M 74.06914900000004,31.095150999999987 L 67.15914899999996,31.095150999999987" fill="none" instance-id="-1" semantic-id="35" stroke="rgb(134,134,134)" stroke-width="0.1"/>
  <path d="M 50.699149000000034,31.595150999999987 L 50.074149000000034,34.11015099999997" fill="none" instance-id="-1" semantic-id="35" stroke="rgb(134,134,134)" stroke-width="0.1"/>
  <path d="M 49.44414900000004,34.11015099999997 L 49.19414900000004,30.81615099999999" fill="none" instance-id="-1" semantic-id="35" stroke="rgb(134,134,134)" stroke-width="0.1"/>
  <path d="M 43.414149000000066,34.04515099999992 L 43.164149000000066,34.03515099999993" fill="none" instance-id="-1" semantic-id="35" stroke="rgb(134,134,134)" stroke-width="0.1"/>
  <path d="M 44.66914900000006,34.11015099999997 L 43.414149000000066,34.04515099999992" fill="none" instance-id="-1" semantic-id="35" stroke="rgb(134,134,134)" stroke-width="0.1"/>
  <path d="M 43.039149000000066,31.595150999999987 L 43.414149000000066,34.04515099999992" fill="none" instance-id="-1" semantic-id="35" stroke="rgb(134,134,134)" stroke-width="0.1"/>
  <path d="M 50.074149000000034,34.11015099999997 L 44.66914900000006,34.11015099999997" fill="none" instance-id="-1" semantic-id="35" stroke="rgb(134,134,134)" stroke-width="0.1"/>
  <path d="M 42.15914899999996,31.595150999999987 L 42.03414899999996,31.095150999999987" fill="none" instance-id="-1" semantic-id="35" stroke="rgb(134,134,134)" stroke-width="0.1"/>
  <path d="M 42.65914899999996,34.02515099999994 L 39.26914899999997,33.86015099999997" fill="none" instance-id="-1" semantic-id="35" stroke="rgb(134,134,134)" stroke-width="0.1"/>
  <path d="M 42.03414899999996,31.095150999999987 L 41.52914899999996,30.845150999999987" fill="none" instance-id="-1" semantic-id="35" stroke="rgb(134,134,134)" stroke-width="0.1"/>
  <path d="M 38.014148999999975,31.595150999999987 L 34.99914899999999,31.975150999999983" fill="none" instance-id="-1" semantic-id="35" stroke="rgb(134,134,134)" stroke-width="0.1"/>
  <path d="M 38.014148999999975,31.595150999999987 L 42.639148999999975,34.015150999999946" fill="none" instance-id="-1" semantic-id="35" stroke="rgb(134,134,134)" stroke-width="0.1"/>
  <path d="M 39.26914899999997,33.86015099999997 L 34.99914899999999,31.975150999999983" fill="none" instance-id="-1" semantic-id="35" stroke="rgb(134,134,134)" stroke-width="0.1"/>
  <path d="M 38.764148999999975,35.870150999999964 L 38.889148999999975,34.48515099999997" fill="none" instance-id="-1" semantic-id="35" stroke="rgb(134,134,134)" stroke-width="0.1"/>
  <path d="M 38.639148999999975,38.130150999999955 L 38.764148999999975,35.870150999999964" fill="none" instance-id="-1" semantic-id="35" stroke="rgb(134,134,134)" stroke-width="0.1"/>
  <path d="M 39.26914899999997,33.86015099999997 L 38.889148999999975,34.48515099999997" fill="none" instance-id="-1" semantic-id="35" stroke="rgb(134,134,134)" stroke-width="0.1"/>
  <path d="M 38.014148999999975,31.595150999999987 L 50.699149000000034,31.595150999999987" fill="none" instance-id="-1" semantic-id="35" stroke="rgb(134,134,134)" stroke-width="0.1"/>
  <path d="M 43.164149000000066,34.03515099999993 L 42.15914899999996,31.595150999999987" fill="none" instance-id="-1" semantic-id="35" stroke="rgb(134,134,134)" stroke-width="0.1"/>
  <path d="M 39.26914899999997,33.86015099999997 L 44.66914900000006,34.11015099999997" fill="none" instance-id="-1" semantic-id="35" stroke="rgb(134,134,134)" stroke-width="0.1"/>
  <path d="M 42.65914899999996,34.02515099999994 L 43.164149000000066,34.03515099999993" fill="none" instance-id="-1" semantic-id="35" stroke="rgb(134,134,134)" stroke-width="0.1"/>
  <path d="M 50.074149000000034,45.16515099999992 L 50.699149000000034,47.675150999999914" fill="none" instance-id="-1" semantic-id="35" stroke="rgb(134,134,134)" stroke-width="0.1"/>
  <path d="M 43.164149000000066,45.24015099999997 L 43.414149000000066,45.23015099999998" fill="none" instance-id="-1" semantic-id="35" stroke="rgb(134,134,134)" stroke-width="0.1"/>
  <path d="M 43.414149000000066,45.23015099999998 L 44.66914900000006,45.16515099999992" fill="none" instance-id="-1" semantic-id="35" stroke="rgb(134,134,134)" stroke-width="0.1"/>
  <path d="M 43.414149000000066,45.23015099999998 L 43.039149000000066,47.675150999999914" fill="none" instance-id="-1" semantic-id="35" stroke="rgb(134,134,134)" stroke-width="0.1"/>
  <path d="M 50.074149000000034,45.16515099999992 L 44.66914900000006,45.16515099999992" fill="none" instance-id="-1" semantic-id="35" stroke="rgb(134,134,134)" stroke-width="0.1"/>
  <path d="M 49.44414900000004,45.16515099999992 L 49.19414900000004,48.42415099999994" fill="none" instance-id="-1" semantic-id="35" stroke="rgb(134,134,134)" stroke-width="0.1"/>
  <path d="M 38.764148999999975,43.40515099999993 L 38.639148999999975,41.14515099999994" fill="none" instance-id="-1" semantic-id="35" stroke="rgb(134,134,134)" stroke-width="0.1"/>
  <path d="M 42.65914899999996,45.25015099999996 L 42.639148999999975,45.26015099999995" fill="none" stroke="rgb(134,134,134)" stroke-width="0.1"/>
  <path d="M 39.26914899999997,45.41515099999992 L 38.889148999999975,44.78515099999993" fill="none" instance-id="-1" semantic-id="35" stroke="rgb(134,134,134)" stroke-width="0.1"/>
  <path d="M 39.26914899999997,45.41515099999992 L 42.65914899999996,45.25015099999996" fill="none" instance-id="-1" semantic-id="35" stroke="rgb(134,134,134)" stroke-width="0.1"/>
  <path d="M 38.889148999999975,44.78515099999993 L 38.764148999999975,43.40515099999993" fill="none" instance-id="-1" semantic-id="35" stroke="rgb(134,134,134)" stroke-width="0.1"/>
  <path d="M 38.014148999999975,47.675150999999914 L 34.99914899999999,47.300150999999914" fill="none" instance-id="-1" semantic-id="35" stroke="rgb(134,134,134)" stroke-width="0.1"/>
  <path d="M 42.639148999999975,45.26015099999995 L 38.014148999999975,47.675150999999914" fill="none" instance-id="-1" semantic-id="35" stroke="rgb(134,134,134)" stroke-width="0.1"/>
  <path d="M 39.26914899999997,45.41515099999992 L 34.99914899999999,47.300150999999914" fill="none" instance-id="-1" semantic-id="35" stroke="rgb(134,134,134)" stroke-width="0.1"/>
  <path d="M 42.03414899999996,48.18015099999991 L 41.52914899999996,48.43015099999991" fill="none" instance-id="-1" semantic-id="35" stroke="rgb(134,134,134)" stroke-width="0.1"/>
  <path d="M 42.03414899999996,48.18015099999991 L 42.15914899999996,47.675150999999914" fill="none" instance-id="-1" semantic-id="35" stroke="rgb(134,134,134)" stroke-width="0.1"/>
  <path d="M 38.014148999999975,47.675150999999914 L 50.699149000000034,47.675150999999914" fill="none" instance-id="-1" semantic-id="35" stroke="rgb(134,134,134)" stroke-width="0.1"/>
  <path d="M 42.15914899999996,47.675150999999914 L 43.164149000000066,45.24015099999997" fill="none" instance-id="-1" semantic-id="35" stroke="rgb(134,134,134)" stroke-width="0.1"/>
  <path d="M 44.66914900000006,45.16515099999992 L 39.26914899999997,45.41515099999992" fill="none" instance-id="-1" semantic-id="35" stroke="rgb(134,134,134)" stroke-width="0.1"/>
  <path d="M 42.65914899999996,45.25015099999996 L 43.164149000000066,45.24015099999997" fill="none" instance-id="-1" semantic-id="35" stroke="rgb(134,134,134)" stroke-width="0.1"/>
  <path d="M 38.639148999999975,38.130150999999955 L 38.639148999999975,41.14515099999994" fill="none" instance-id="-1" semantic-id="35" stroke="rgb(134,134,134)" stroke-width="0.1"/>
  <path d="M 33.289149000000066,30.89515099999994 L 33.25914899999998,30.92015099999992" fill="none" stroke="rgb(134,134,134)" stroke-width="0.1"/>
  <path d="M 33.864149,30.845150999999987 L 32.859149,30.96515099999999" fill="none" instance-id="-1" semantic-id="35" stroke="rgb(134,134,134)" stroke-width="0.1"/>
  <path d="M 27.38414899999998,31.435150999999905 L 27.34914900000001,31.4401509999999" fill="none" stroke="rgb(134,134,134)" stroke-width="0.1"/>
  <path d="M 27.459149000000025,31.720150999999987 L 27.084149000000025,32.22515099999998" fill="none" instance-id="-1" semantic-id="35" stroke="rgb(134,134,134)" stroke-width="0.1"/>
  <path d="M 26.20414900000003,32.22515099999998 L 26.57914900000003,31.470150999999987" fill="none" instance-id="-1" semantic-id="35" stroke="rgb(134,134,134)" stroke-width="0.1"/>
  <path d="M 27.459149000000025,31.720150999999987 L 26.57914900000003,31.470150999999987" fill="none" instance-id="-1" semantic-id="35" stroke="rgb(134,134,134)" stroke-width="0.1"/>
  <path d="M 26.70414900000003,34.36015099999997 L 27.084149000000025,32.22515099999998" fill="none" instance-id="-1" semantic-id="35" stroke="rgb(134,134,134)" stroke-width="0.1"/>
  <path d="M 32.859149,30.96515099999999 L 27.38414899999998,31.435150999999905" fill="none" instance-id="-1" semantic-id="35" stroke="rgb(134,134,134)" stroke-width="0.1"/>
  <path d="M 33.864149,30.845150999999987 L 27.344149000000016,31.435150999999905" fill="none" instance-id="-1" semantic-id="35" stroke="rgb(134,134,134)" stroke-width="0.1"/>
  <path d="M 33.239149,34.48515099999997 L 32.609149,37.62515099999996" fill="none" instance-id="-1" semantic-id="35" stroke="rgb(134,134,134)" stroke-width="0.1"/>
  <path d="M 33.239149,34.48515099999997 L 33.99414899999999,32.60015099999998" fill="none" instance-id="-1" semantic-id="35" stroke="rgb(134,134,134)" stroke-width="0.1"/>
  <path d="M 26.45414900000003,37.62515099999996 L 26.70414900000003,34.36015099999997" fill="none" instance-id="-1" semantic-id="35" stroke="rgb(134,134,134)" stroke-width="0.1"/>
  <path d="M 25.199149000000034,32.22515099999998 L 25.574149000000034,31.345150999999987" fill="none" instance-id="-1" semantic-id="35" stroke="rgb(134,134,134)" stroke-width="0.1"/>
  <path d="M 25.949149000000034,33.64515099999994 L 25.95414900000003,33.620150999999964" fill="none" stroke="rgb(134,134,134)" stroke-width="0.1"/>
  <path d="M 24.56914900000004,34.36015099999997 L 25.199149000000034,32.22515099999998" fill="none" instance-id="-1" semantic-id="35" stroke="rgb(134,134,134)" stroke-width="0.1"/>
  <path d="M 25.824149000000034,34.36015099999997 L 25.574149000000034,37.62515099999996" fill="none" instance-id="-1" semantic-id="35" stroke="rgb(134,134,134)" stroke-width="0.1"/>
  <path d="M 24.56914900000004,34.36015099999997 L 24.31914900000004,37.62515099999996" fill="none" instance-id="-1" semantic-id="35" stroke="rgb(134,134,134)" stroke-width="0.1"/>
  <path d="M 26.20414900000003,32.22515099999998 L 25.824149000000034,34.36015099999997" fill="none" instance-id="-1" semantic-id="35" stroke="rgb(134,134,134)" stroke-width="0.1"/>
  <path d="M 25.574149000000034,31.345150999999987 L 33.364149,30.845150999999987" fill="none" instance-id="-1" semantic-id="35" stroke="rgb(134,134,134)" stroke-width="0.1"/>
  <path d="M 25.574149000000034,31.345150999999987 L 33.864149,30.845150999999987" fill="none" instance-id="-1" semantic-id="35" stroke="rgb(134,134,134)" stroke-width="0.1"/>
  <path d="M 26.824149000000034,31.460150999999996 L 25.574149000000034,31.345150999999987" fill="none" instance-id="-1" semantic-id="35" stroke="rgb(134,134,134)" stroke-width="0.1"/>
  <path d="M 26.20414900000003,32.22515099999998 L 25.95414900000003,33.620150999999964" fill="none" instance-id="-1" semantic-id="35" stroke="rgb(134,134,134)" stroke-width="0.1"/>
  <path d="M 33.239149,44.78515099999993 L 33.99414899999999,46.67015099999992" fill="none" instance-id="-1" semantic-id="35" stroke="rgb(134,134,134)" stroke-width="0.1"/>
  <path d="M 32.609149,41.64515099999994 L 33.239149,44.78515099999993" fill="none" instance-id="-1" semantic-id="35" stroke="rgb(134,134,134)" stroke-width="0.1"/>
  <path d="M 27.459149000000025,47.550150999999914 L 27.084149000000025,47.050150999999914" fill="none" instance-id="-1" semantic-id="35" stroke="rgb(134,134,134)" stroke-width="0.1"/>
  <path d="M 26.20414900000003,47.050150999999914 L 26.57914900000003,47.800150999999914" fill="none" instance-id="-1" semantic-id="35" stroke="rgb(134,134,134)" stroke-width="0.1"/>
  <path d="M 26.57914900000003,47.800150999999914 L 27.459149000000025,47.550150999999914" fill="none" instance-id="-1" semantic-id="35" stroke="rgb(134,134,134)" stroke-width="0.1"/>
  <path d="M 26.70414900000003,44.91515099999992 L 27.084149000000025,47.050150999999914" fill="none" instance-id="-1" semantic-id="35" stroke="rgb(134,134,134)" stroke-width="0.1"/>
  <path d="M 26.70414900000003,44.91515099999992 L 26.45414900000003,41.64515099999994" fill="none" instance-id="-1" semantic-id="35" stroke="rgb(134,134,134)" stroke-width="0.1"/>
  <path d="M 33.254148999999984,48.35515099999998 L 33.289149000000066,48.380150999999955" fill="none" stroke="rgb(134,134,134)" stroke-width="0.1"/>
  <path d="M 33.864149,48.43015099999991 L 32.859149,48.30515099999991" fill="none" instance-id="-1" semantic-id="35" stroke="rgb(134,134,134)" stroke-width="0.1"/>
  <path d="M 27.344149000000016,47.84015099999999 L 33.864149,48.43015099999991" fill="none" instance-id="-1" semantic-id="35" stroke="rgb(134,134,134)" stroke-width="0.1"/>
  <path d="M 32.859149,48.30515099999991 L 27.38414899999998,47.84015099999999" fill="none" instance-id="-1" semantic-id="35" stroke="rgb(134,134,134)" stroke-width="0.1"/>
  <path d="M 27.38414899999998,47.84015099999999 L 27.34914900000001,47.835150999999996" fill="none" stroke="rgb(134,134,134)" stroke-width="0.1"/>
  <path d="M 25.95414900000003,45.65515099999993 L 25.949149000000034,45.63515099999995" fill="none" stroke="rgb(134,134,134)" stroke-width="0.1"/>
  <path d="M 24.56914900000004,44.91515099999992 L 25.199149000000034,47.050150999999914" fill="none" instance-id="-1" semantic-id="35" stroke="rgb(134,134,134)" stroke-width="0.1"/>
  <path d="M 25.574149000000034,41.64515099999994 L 25.824149000000034,44.91515099999992" fill="none" instance-id="-1" semantic-id="35" stroke="rgb(134,134,134)" stroke-width="0.1"/>
  <path d="M 24.56914900000004,44.91515099999992 L 24.31914900000004,41.64515099999994" fill="none" instance-id="-1" semantic-id="35" stroke="rgb(134,134,134)" stroke-width="0.1"/>
  <path d="M 25.199149000000034,47.050150999999914 L 25.574149000000034,47.93015099999991" fill="none" instance-id="-1" semantic-id="35" stroke="rgb(134,134,134)" stroke-width="0.1"/>
  <path d="M 26.20414900000003,47.050150999999914 L 25.824149000000034,44.91515099999992" fill="none" instance-id="-1" semantic-id="35" stroke="rgb(134,134,134)" stroke-width="0.1"/>
  <path d="M 33.864149,48.43015099999991 L 25.574149000000034,47.93015099999991" fill="none" instance-id="-1" semantic-id="35" stroke="rgb(134,134,134)" stroke-width="0.1"/>
  <path d="M 33.364149,48.43015099999991 L 25.574149000000034,47.93015099999991" fill="none" instance-id="-1" semantic-id="35" stroke="rgb(134,134,134)" stroke-width="0.1"/>
  <path d="M 25.574149000000034,47.93015099999991 L 26.824149000000034,47.8151509999999" fill="none" instance-id="-1" semantic-id="35" stroke="rgb(134,134,134)" stroke-width="0.1"/>
  <path d="M 25.95414900000003,45.65515099999993 L 26.20414900000003,47.050150999999914" fill="none" instance-id="-1" semantic-id="35" stroke="rgb(134,134,134)" stroke-width="0.1"/>
  <path d="M 32.609149,41.64515099999994 L 32.609149,37.62515099999996" fill="none" instance-id="-1" semantic-id="35" stroke="rgb(134,134,134)" stroke-width="0.1"/>
  <path d="M 26.45414900000003,37.62515099999996 L 26.45414900000003,41.64515099999994" fill="none" instance-id="-1" semantic-id="35" stroke="rgb(134,134,134)" stroke-width="0.1"/>
  <path d="M 25.574149000000034,41.64515099999994 L 25.574149000000034,37.62515099999996" fill="none" instance-id="-1" semantic-id="35" stroke="rgb(134,134,134)" stroke-width="0.1"/>
  <path d="M 24.31914900000004,41.64515099999994 L 24.31914900000004,37.62515099999996" fill="none" instance-id="-1" semantic-id="35" stroke="rgb(134,134,134)" stroke-width="0.1"/>
  <path d="M 33.99414899999999,46.67015099999992 L 34.99914899999999,47.300150999999914" fill="none" instance-id="-1" semantic-id="35" stroke="rgb(134,134,134)" stroke-width="0.1"/>
  <path d="M 34.99914899999999,47.300150999999914 L 27.459149000000025,47.550150999999914" fill="none" instance-id="-1" semantic-id="35" stroke="rgb(134,134,134)" stroke-width="0.1"/>
  <path d="M 33.364149,48.43015099999991 L 37.38414899999998,48.43015099999991" fill="none" instance-id="-1" semantic-id="35" stroke="rgb(134,134,134)" stroke-width="0.1"/>
  <path d="M 33.99414899999999,32.60015099999998 L 34.99914899999999,31.975150999999983" fill="none" instance-id="-1" semantic-id="35" stroke="rgb(134,134,134)" stroke-width="0.1"/>
  <path d="M 34.99914899999999,31.975150999999983 L 27.459149000000025,31.720150999999987" fill="none" instance-id="-1" semantic-id="35" stroke="rgb(134,134,134)" stroke-width="0.1"/>
  <path d="M 37.38414899999998,30.845150999999987 L 33.364149,30.845150999999987" fill="none" instance-id="-1" semantic-id="35" stroke="rgb(134,134,134)" stroke-width="0.1"/>
  <path d="M 50.074149000000034,34.11015099999997 L 55.09914900000001,33.86015099999997" fill="none" instance-id="-1" semantic-id="35" stroke="rgb(134,134,134)" stroke-width="0.1"/>
  <path d="M 55.09914900000001,45.41515099999992 L 50.074149000000034,45.16515099999992" fill="none" instance-id="-1" semantic-id="35" stroke="rgb(134,134,134)" stroke-width="0.1"/>
  <path d="M 37.38414899999998,48.43015099999991 L 59.263149,48.584150999999906" fill="none" instance-id="-1" semantic-id="35" stroke="rgb(134,134,134)" stroke-width="0.1"/>
  <path d="M 37.38414899999998,30.845150999999987 L 59.263149,30.692150999999967" fill="none" instance-id="-1" semantic-id="35" stroke="rgb(134,134,134)" stroke-width="0.1"/>
  <path d="M 58.86914899999999,47.425150999999914 L 50.699149000000034,47.675150999999914" fill="none" instance-id="-1" semantic-id="35" stroke="rgb(134,134,134)" stroke-width="0.1"/>
  <path d="M 58.86914899999999,31.850150999999983 L 50.699149000000034,31.595150999999987" fill="none" instance-id="-1" semantic-id="35" stroke="rgb(134,134,134)" stroke-width="0.1"/>
  <path d="M 59.82214899999997,30.234150999999997 A 0.1,0.1 0.0 0,0 59.65914899999996,30.192150999999967" fill="none" instance-id="-1" semantic-id="35" stroke="rgb(134,134,134)" stroke-width="0.1"/>
  <path d="M 59.99214900000004,31.900150999999937 A 0.1,0.1 0.0 0,0 60.03414899999996,31.82315099999994" fill="none" stroke="rgb(134,134,134)" stroke-width="0.1"/>
  <path d="M 59.29514900000004,30.53115099999991 A 0.1,0.1 0.0 0,0 59.264148999999975,30.604151" fill="none" stroke="rgb(134,134,134)" stroke-width="0.1"/>
  <path d="M 60.03414899999996,47.44715099999996 A 0.1,0.1 0.0 0,0 59.99214900000004,47.37115099999994" fill="none" stroke="rgb(134,134,134)" stroke-width="0.1"/>
  <path d="M 59.65914899999996,49.07915099999991 A 0.1,0.1 0.0 0,0 59.82214899999997,49.037150999999994" fill="none" instance-id="-1" semantic-id="35" stroke="rgb(134,134,134)" stroke-width="0.1"/>
  <path d="M 59.264148999999975,48.66715099999999 A 0.1,0.1 0.0 0,0 59.29514900000004,48.74015099999997" fill="none" stroke="rgb(134,134,134)" stroke-width="0.1"/>
  <path d="M 78.14514900000006,52.13515099999995 L 23.14514900000006,52.13515099999995" fill="none" instance-id="-1" semantic-id="35" stroke="rgb(134,134,134)" stroke-width="0.1"/>
  <path d="M 23.14514900000006,52.13515099999995 L 23.14514900000006,27.13515099999995" fill="none" instance-id="-1" semantic-id="35" stroke="rgb(134,134,134)" stroke-width="0.1"/>
  <path d="M 23.14514900000006,27.13515099999995 L 78.14514900000006,27.13515099999995" fill="none" instance-id="-1" semantic-id="35" stroke="rgb(134,134,134)" stroke-width="0.1"/>
  <path d="M 78.14514900000006,27.13515099999995 L 78.14514900000006,52.13515099999995" fill="none" instance-id="-1" semantic-id="35" stroke="rgb(134,134,134)" stroke-width="0.1"/>
 </g>
 <g id="layercar1" inkscape:groupmode="layer" inkscape:label="car1">
  <path d="M 64.5550972499999,100.0 L 81.14514900000006,93.13515099999995" fill="none" instance-id="-1" semantic-id="35" stroke="rgb(134,134,134)" stroke-width="0.1"/>
  <path d="M 23.14514900000006,93.13515099999995 L 81.14514900000006,69.13515099999995" fill="none" instance-id="-1" semantic-id="35" stroke="rgb(134,134,134)" stroke-width="0.1"/>
  <path d="M 19.14514900000006,93.13515099999995 L 0.0,85.21302037931025" fill="none" instance-id="-1" semantic-id="35" stroke="rgb(134,134,134)" stroke-width="0.1"/>
  <path d="M 23.14514900000006,93.13515099999995 L 39.73520075000022,100.0" fill="none" instance-id="-1" semantic-id="35" stroke="rgb(134,134,134)" stroke-width="0.1"/>
  <path d="M 23.14514900000006,100.0 L 23.14514900000006,93.13515099999995" fill="none" instance-id="-1" semantic-id="35" stroke="rgb(134,134,134)" stroke-width="0.1"/>
  <path d="M 23.14514900000006,93.13515099999995 L 81.14514900000006,93.13515099999995" fill="none" instance-id="-1" semantic-id="35" stroke="rgb(134,134,134)" stroke-width="0.1"/>
  <path d="M 81.14514900000006,93.13515099999995 L 81.14514900000006,100.0" fill="none" instance-id="-1" semantic-id="35" stroke="rgb(134,134,134)" stroke-width="0.1"/>
  <path d="M 23.14514900000006,69.13515099999995 L 81.14514900000006,93.13515099999995" fill="none" instance-id="-1" semantic-id="35" stroke="rgb(134,134,134)" stroke-width="0.1"/>
  <path d="M 81.14514900000006,93.13515099999995 L 23.14514900000006,93.13515099999995" fill="none" instance-id="-1" semantic-id="35" stroke="rgb(134,134,134)" stroke-width="0.1"/>
  <path d="M 23.14514900000006,93.13515099999995 L 23.14514900000006,69.13515099999995" fill="none" instance-id="-1" semantic-id="35" stroke="rgb(134,134,134)" stroke-width="0.1"/>
  <path d="M 23.14514900000006,69.13515099999995 L 81.14514900000006,69.13515099999995" fill="none" instance-id="-1" semantic-id="35" stroke="rgb(134,134,134)" stroke-width="0.1"/>
  <path d="M 81.14514900000006,69.13515099999995 L 81.14514900000006,93.13515099999995" fill="none" instance-id="-1" semantic-id="35" stroke="rgb(134,134,134)" stroke-width="0.1"/>
  <path d="M 19.14514900000006,69.13515099999995 L 0.0,77.05728162068965" fill="none" instance-id="-1" semantic-id="35" stroke="rgb(134,134,134)" stroke-width="0.1"/>
  <path d="M 0.0,93.13515099999995 L 19.14514900000006,93.13515099999995" fill="none" instance-id="-1" semantic-id="35" stroke="rgb(134,134,134)" stroke-width="0.1"/>
  <path d="M 19.14514900000006,93.13515099999995 L 19.14514900000006,69.13515099999995" fill="none" instance-id="-1" semantic-id="35" stroke="rgb(134,134,134)" stroke-width="0.1"/>
  <path d="M 19.14514900000006,69.13515099999995 L 0.0,69.13515099999995" fill="none" instance-id="-1" semantic-id="35" stroke="rgb(134,134,134)" stroke-width="0.1"/>
  <path d="M 19.14514900000006,93.13515099999995 L 2.5550972499999034,100.0" fill="none" instance-id="-1" semantic-id="35" stroke="rgb(134,134,134)" stroke-width="0.1"/>
  <path d="M 19.14514900000006,100.0 L 19.14514900000006,93.13515099999995" fill="none" instance-id="-1" semantic-id="35" stroke="rgb(134,134,134)" stroke-width="0.1"/>
  <path d="M 19.14514900000006,93.13515099999995 L 0.0,93.13515099999995" fill="none" instance-id="-1" semantic-id="35" stroke="rgb(134,134,134)" stroke-width="0.1"/>
  <path d="M 0.0,22.988842827586154 L 19.14514900000006,31.571150999999986" fill="none" instance-id="-1" semantic-id="35" stroke="rgb(134,134,134)" stroke-width="0.1"/>
  <path d="M 19.14514900000006,31.571150999999986 L 0.0,31.571150999999986" fill="none" instance-id="-1" semantic-id="35" stroke="rgb(134,134,134)" stroke-width="0.1"/>
  <path d="M 0.0,5.571150999999986 L 19.14514900000006,5.571150999999986" fill="none" instance-id="-1" semantic-id="35" stroke="rgb(134,134,134)" stroke-width="0.1"/>
  <path d="M 19.14514900000006,5.571150999999986 L 19.14514900000006,31.571150999999986" fill="none" instance-id="-1" semantic-id="35" stroke="rgb(134,134,134)" stroke-width="0.1"/>
  <path d="M 6.717196769230895,0.0 L 19.14514900000006,5.571150999999986" fill="none" instance-id="-1" semantic-id="35" stroke="rgb(134,134,134)" stroke-width="0.1"/>
  <path d="M 19.14514900000006,5.571150999999986 L 0.0,5.571150999999986" fill="none" instance-id="-1" semantic-id="35" stroke="rgb(134,134,134)" stroke-width="0.1"/>
  <path d="M 19.14514900000006,0.0 L 19.14514900000006,5.571150999999986" fill="none" instance-id="-1" semantic-id="35" stroke="rgb(134,134,134)" stroke-width="0.1"/>
 </g>
</svg>