<?xml version="1.0" encoding="utf-8"?>
<svg style="background-color: #000;" version="1.1" viewBox="0 0 100.0 100.0" xmlns="http://www.w3.org/2000/svg" xmlns:inkscape="http://www.inkscape.org/namespaces/inkscape">
 <g id="layerA-ANNO-DIMS" inkscape:groupmode="layer" inkscape:label="A-ANNO-DIMS">
  <path d="M 99.94365749999997,0.7976509999999735 L 89.86865750000004,0.7976509999999735" fill="none" stroke="rgb(0,178,0)" stroke-width="0.1"/>
  <path d="M 93.61865750000004,0.7976509999999735 L 93.61865750000004,0.0" fill="none" stroke="rgb(0,178,0)" stroke-width="0.1"/>
  <path d="M 99.94365749999997,2.7976509999999735 L 89.86865750000004,2.7976509999999735" fill="none" stroke="rgb(0,178,0)" stroke-width="0.1"/>
  <path d="M 99.94365749999997,0.7976509999999735 L 89.86865750000004,0.7976509999999735" fill="none" stroke="rgb(0,178,0)" stroke-width="0.1"/>
  <path d="M 93.61865750000004,2.7976509999999735 L 93.61865750000004,4.2976509999999735" fill="none" stroke="rgb(0,178,0)" stroke-width="0.1"/>
  <path d="M 93.61865750000004,0.7976509999999735 L 93.61865750000004,0.0" fill="none" stroke="rgb(0,178,0)" stroke-width="0.1"/>
  <path d="M 93.61865750000004,2.7976509999999735 L 93.61865750000004,0.7976509999999735" fill="none" stroke="rgb(0,178,0)" stroke-width="0.1"/>
  <path d="M 45.3656575,42.29765099999997 L 26.754657500000008,42.29765099999997" fill="none" stroke="rgb(0,178,0)" stroke-width="0.1"/>
  <path d="M 30.504657500000008,42.29765099999997 L 30.504657500000008,0.0" fill="none" stroke="rgb(0,178,0)" stroke-width="0.1"/>
  <path d="M 45.3656575,46.29765099999997 L 26.754657500000008,46.29765099999997" fill="none" stroke="rgb(0,178,0)" stroke-width="0.1"/>
  <path d="M 45.3656575,42.29765099999997 L 26.754657500000008,42.29765099999997" fill="none" stroke="rgb(0,178,0)" stroke-width="0.1"/>
  <path d="M 30.504657500000008,46.29765099999997 L 30.504657500000008,47.79765099999997" fill="none" stroke="rgb(0,178,0)" stroke-width="0.1"/>
  <path d="M 30.504657500000008,42.29765099999997 L 30.504657500000008,40.79765099999997" fill="none" stroke="rgb(0,178,0)" stroke-width="0.1"/>
  <path d="M 30.504657500000008,46.29765099999997 L 30.504657500000008,42.29765099999997" fill="none" stroke="rgb(0,178,0)" stroke-width="0.1"/>
  <path d="M 45.3656575,61.29765099999997 L 26.754657500000008,61.29765099999997" fill="none" stroke="rgb(0,178,0)" stroke-width="0.1"/>
  <path d="M 45.3656575,46.29765099999997 L 26.754657500000008,46.29765099999997" fill="none" stroke="rgb(0,178,0)" stroke-width="0.1"/>
  <path d="M 30.504657500000008,61.29765099999997 L 30.504657500000008,46.29765099999997" fill="none" stroke="rgb(0,178,0)" stroke-width="0.1"/>
  <path d="M 45.3656575,64.29765099999997 L 26.754657500000008,64.29765099999997" fill="none" stroke="rgb(0,178,0)" stroke-width="0.1"/>
  <path d="M 45.3656575,61.29765099999997 L 26.754657500000008,61.29765099999997" fill="none" stroke="rgb(0,178,0)" stroke-width="0.1"/>
  <path d="M 30.504657500000008,64.29765099999997 L 30.504657500000008,65.79765099999997" fill="none" stroke="rgb(0,178,0)" stroke-width="0.1"/>
  <path d="M 30.504657500000008,61.29765099999997 L 30.504657500000008,59.79765099999997" fill="none" stroke="rgb(0,178,0)" stroke-width="0.1"/>
  <path d="M 30.504657500000008,64.29765099999997 L 30.504657500000008,61.29765099999997" fill="none" stroke="rgb(0,178,0)" stroke-width="0.1"/>
  <path d="M 45.3656575,66.29765099999997 L 26.754657500000008,66.29765099999997" fill="none" stroke="rgb(0,178,0)" stroke-width="0.1"/>
  <path d="M 45.3656575,64.29765099999997 L 26.754657500000008,64.29765099999997" fill="none" stroke="rgb(0,178,0)" stroke-width="0.1"/>
  <path d="M 30.504657500000008,66.29765099999997 L 30.504657500000008,67.79765099999997" fill="none" stroke="rgb(0,178,0)" stroke-width="0.1"/>
  <path d="M 30.504657500000008,64.29765099999997 L 30.504657500000008,62.79765099999997" fill="none" stroke="rgb(0,178,0)" stroke-width="0.1"/>
  <path d="M 30.504657500000008,66.29765099999997 L 30.504657500000008,64.29765099999997" fill="none" stroke="rgb(0,178,0)" stroke-width="0.1"/>
  <path d="M 45.3656575,67.29765099999997 L 26.754657500000008,67.29765099999997" fill="none" stroke="rgb(0,178,0)" stroke-width="0.1"/>
  <path d="M 45.3656575,66.29765099999997 L 26.754657500000008,66.29765099999997" fill="none" stroke="rgb(0,178,0)" stroke-width="0.1"/>
  <path d="M 30.504657500000008,67.29765099999997 L 30.504657500000008,68.79765099999997" fill="none" stroke="rgb(0,178,0)" stroke-width="0.1"/>
  <path d="M 30.504657500000008,66.29765099999997 L 30.504657500000008,64.79765099999997" fill="none" stroke="rgb(0,178,0)" stroke-width="0.1"/>
  <path d="M 30.504657500000008,67.29765099999997 L 30.504657500000008,66.29765099999997" fill="none" stroke="rgb(0,178,0)" stroke-width="0.1"/>
  <path d="M 45.3656575,86.29765099999997 L 26.754657500000008,86.29765099999997" fill="none" stroke="rgb(0,178,0)" stroke-width="0.1"/>
  <path d="M 45.3656575,67.29765099999997 L 26.754657500000008,67.29765099999997" fill="none" stroke="rgb(0,178,0)" stroke-width="0.1"/>
  <path d="M 30.504657500000008,86.29765099999997 L 30.504657500000008,67.29765099999997" fill="none" stroke="rgb(0,178,0)" stroke-width="0.1"/>
  <path d="M 45.3656575,88.29765099999997 L 26.754657500000008,88.29765099999997" fill="none" stroke="rgb(0,178,0)" stroke-width="0.1"/>
  <path d="M 45.3656575,86.29765099999997 L 26.754657500000008,86.29765099999997" fill="none" stroke="rgb(0,178,0)" stroke-width="0.1"/>
  <path d="M 30.504657500000008,88.29765099999997 L 30.504657500000008,89.79765099999997" fill="none" stroke="rgb(0,178,0)" stroke-width="0.1"/>
  <path d="M 30.504657500000008,86.29765099999997 L 30.504657500000008,84.79765099999997" fill="none" stroke="rgb(0,178,0)" stroke-width="0.1"/>
  <path d="M 30.504657500000008,88.29765099999997 L 30.504657500000008,86.29765099999997" fill="none" stroke="rgb(0,178,0)" stroke-width="0.1"/>
  <path d="M 45.3656575,88.29765099999997 L 26.754657500000008,88.29765099999997" fill="none" stroke="rgb(0,178,0)" stroke-width="0.1"/>
  <path d="M 30.504657500000008,100.0 L 30.504657500000008,88.29765099999997" fill="none" stroke="rgb(0,178,0)" stroke-width="0.1"/>
  <text fill="rgb(0,178,0)" font-family="Noto Sans CJK SC" font-size="2" transform="rotate(-90.0,86.47565750000001,1.2976509999999735)" x="86.47565750000001" y="1.2976509999999735">
   800
  </text>
  <text fill="rgb(0,178,0)" font-family="Noto Sans CJK SC" font-size="2" transform="rotate(-90.0,91.72565750000001,11.63265100000001)" x="91.72565750000001" y="11.63265100000001">
   200
  </text>
  <text fill="rgb(0,178,0)" font-family="Noto Sans CJK SC" font-size="2" transform="rotate(-90.0,29.004657500000008,15.872651000000019)" x="29.004657500000008" y="15.872651000000019">
   6500
  </text>
  <text fill="rgb(0,178,0)" font-family="Noto Sans CJK SC" font-size="2" transform="rotate(-90.0,29.004657500000008,48.79765099999997)" x="29.004657500000008" y="48.79765099999997">
   400
  </text>
  <text fill="rgb(0,178,0)" font-family="Noto Sans CJK SC" font-size="2" transform="rotate(-90.0,29.004657500000008,60.022650999999996)" x="29.004657500000008" y="60.022650999999996">
   1500
  </text>
  <text fill="rgb(0,178,0)" font-family="Noto Sans CJK SC" font-size="2" transform="rotate(-90.0,29.004657500000008,67.29765099999997)" x="29.004657500000008" y="67.29765099999997">
   300
  </text>
  <text fill="rgb(0,178,0)" font-family="Noto Sans CJK SC" font-size="2" transform="rotate(-90.0,23.360657500000002,69.79765099999997)" x="23.360657500000002" y="69.79765099999997">
   200
  </text>
  <text fill="rgb(0,178,0)" font-family="Noto Sans CJK SC" font-size="2" transform="rotate(-90.0,36.8606575,71.522651)" x="36.8606575" y="71.522651">
   100
  </text>
  <text fill="rgb(0,178,0)" font-family="Noto Sans CJK SC" font-size="2" transform="rotate(-90.0,29.004657500000008,83.022651)" x="29.004657500000008" y="83.022651">
   1900
  </text>
  <text fill="rgb(0,178,0)" font-family="Noto Sans CJK SC" font-size="2" transform="rotate(-90.0,29.004657500000008,91.79765099999997)" x="29.004657500000008" y="91.79765099999997">
   200
  </text>
 </g>
 <g id="layerA-DOTE" inkscape:groupmode="layer" inkscape:label="A-DOTE">
  <path d="M 74.5436575,100.0 L 74.5436575,0.0" fill="none" stroke="rgb(107,53,53)" stroke-width="0.1"/>
  <path d="M 0.0,67.29765099999997 L 100.0,67.29765099999997" fill="none" stroke="rgb(107,53,53)" stroke-width="0.1"/>
 </g>
 <g id="layerA-HATCH" inkscape:groupmode="layer" inkscape:label="A-HATCH">
  <path d="M 77.5436575,44.03165100000001 L 75.5436575,44.03165100000001" fill="none" stroke="rgb(92,92,92)" stroke-width="0.1"/>
  <path d="M 77.5436575,45.49765100000002 L 75.5436575,45.49765100000002" fill="none" stroke="rgb(92,92,92)" stroke-width="0.1"/>
  <path d="M 77.5436575,61.63165100000003 L 75.5436575,61.63165100000003" fill="none" stroke="rgb(92,92,92)" stroke-width="0.1"/>
  <path d="M 77.5436575,63.09765100000004 L 75.5436575,63.09765100000004" fill="none" stroke="rgb(92,92,92)" stroke-width="0.1"/>
  <path d="M 98.37265749999995,43.29765099999997 L 98.37265749999995,41.29765099999997" fill="none" stroke="rgb(92,92,92)" stroke-width="0.1"/>
  <path d="M 96.96465750000004,43.29765099999997 L 96.96465750000004,41.29765099999997" fill="none" stroke="rgb(92,92,92)" stroke-width="0.1"/>
  <path d="M 95.55565749999994,43.29765099999997 L 95.55565749999994,41.29765099999997" fill="none" stroke="rgb(92,92,92)" stroke-width="0.1"/>
  <path d="M 94.14765750000004,43.29765099999997 L 94.14765750000004,41.29765099999997" fill="none" stroke="rgb(92,92,92)" stroke-width="0.1"/>
  <path d="M 92.73965750000002,43.29765099999997 L 92.73965750000002,41.29765099999997" fill="none" stroke="rgb(92,92,92)" stroke-width="0.1"/>
  <path d="M 91.33065750000003,43.29765099999997 L 91.33065750000003,41.29765099999997" fill="none" stroke="rgb(92,92,92)" stroke-width="0.1"/>
  <path d="M 89.92265750000001,43.29765099999997 L 89.92265750000001,41.29765099999997" fill="none" stroke="rgb(92,92,92)" stroke-width="0.1"/>
  <path d="M 88.5146575,43.29765099999997 L 88.5146575,41.29765099999997" fill="none" stroke="rgb(92,92,92)" stroke-width="0.1"/>
  <path d="M 87.1056575,43.29765099999997 L 87.1056575,41.29765099999997" fill="none" stroke="rgb(92,92,92)" stroke-width="0.1"/>
  <path d="M 85.69765749999999,43.29765099999997 L 85.69765749999999,41.29765099999997" fill="none" stroke="rgb(92,92,92)" stroke-width="0.1"/>
  <path d="M 84.28965749999998,43.29765099999997 L 84.28965749999998,41.29765099999997" fill="none" stroke="rgb(92,92,92)" stroke-width="0.1"/>
  <path d="M 82.88065749999998,43.29765099999997 L 82.88065749999998,41.29765099999997" fill="none" stroke="rgb(92,92,92)" stroke-width="0.1"/>
  <path d="M 81.47265749999997,43.29765099999997 L 81.47265749999997,41.29765099999997" fill="none" stroke="rgb(92,92,92)" stroke-width="0.1"/>
  <path d="M 80.06465749999995,43.29765099999997 L 80.06465749999995,41.29765099999997" fill="none" stroke="rgb(92,92,92)" stroke-width="0.1"/>
  <path d="M 78.65565749999996,43.29765099999997 L 78.65565749999996,41.29765099999997" fill="none" stroke="rgb(92,92,92)" stroke-width="0.1"/>
  <path d="M 77.24765749999995,43.10065099999997 L 77.24765749999995,41.29765099999997" fill="none" stroke="rgb(92,92,92)" stroke-width="0.1"/>
  <path d="M 75.83965750000004,43.10065099999997 L 75.83965750000004,41.29765099999997" fill="none" stroke="rgb(92,92,92)" stroke-width="0.1"/>
  <path d="M 74.43065749999994,43.29765099999997 L 74.43065749999994,41.29765099999997" fill="none" stroke="rgb(92,92,92)" stroke-width="0.1"/>
  <path d="M 73.02265750000004,43.29765099999997 L 73.02265750000004,41.29765099999997" fill="none" stroke="rgb(92,92,92)" stroke-width="0.1"/>
  <path d="M 71.61365750000004,43.29765099999997 L 71.61365750000004,41.29765099999997" fill="none" stroke="rgb(92,92,92)" stroke-width="0.1"/>
  <path d="M 70.20565750000003,43.29765099999997 L 70.20565750000003,41.29765099999997" fill="none" stroke="rgb(92,92,92)" stroke-width="0.1"/>
  <path d="M 68.79765750000001,43.29765099999997 L 68.79765750000001,41.29765099999997" fill="none" stroke="rgb(92,92,92)" stroke-width="0.1"/>
  <path d="M 67.38865750000002,43.29765099999997 L 67.38865750000002,41.29765099999997" fill="none" stroke="rgb(92,92,92)" stroke-width="0.1"/>
  <path d="M 65.9806575,43.29765099999997 L 65.9806575,41.29765099999997" fill="none" stroke="rgb(92,92,92)" stroke-width="0.1"/>
  <path d="M 64.57165750000001,43.29765099999997 L 64.57165750000001,41.29765099999997" fill="none" stroke="rgb(92,92,92)" stroke-width="0.1"/>
  <path d="M 63.1636575,43.29765099999997 L 63.1636575,41.29765099999997" fill="none" stroke="rgb(92,92,92)" stroke-width="0.1"/>
  <path d="M 61.75465750000001,43.29765099999997 L 61.75465750000001,41.29765099999997" fill="none" stroke="rgb(92,92,92)" stroke-width="0.1"/>
  <path d="M 60.34665749999999,43.29765099999997 L 60.34665749999999,41.29765099999997" fill="none" stroke="rgb(92,92,92)" stroke-width="0.1"/>
  <path d="M 58.9376575,43.29765099999997 L 58.9376575,41.29765099999997" fill="none" stroke="rgb(92,92,92)" stroke-width="0.1"/>
  <path d="M 57.529657499999985,43.29765099999997 L 57.529657499999985,41.29765099999997" fill="none" stroke="rgb(92,92,92)" stroke-width="0.1"/>
  <path d="M 56.12065749999999,43.29765099999997 L 56.12065749999999,41.29765099999997" fill="none" stroke="rgb(92,92,92)" stroke-width="0.1"/>
  <path d="M 54.71265749999998,43.29765099999997 L 54.71265749999998,41.29765099999997" fill="none" stroke="rgb(92,92,92)" stroke-width="0.1"/>
  <path d="M 53.30465749999996,43.29765099999997 L 53.30465749999996,41.29765099999997" fill="none" stroke="rgb(92,92,92)" stroke-width="0.1"/>
  <path d="M 51.89565749999997,43.29765099999997 L 51.89565749999997,41.29765099999997" fill="none" stroke="rgb(92,92,92)" stroke-width="0.1"/>
  <path d="M 50.487657499999955,43.29765099999997 L 50.487657499999955,41.29765099999997" fill="none" stroke="rgb(92,92,92)" stroke-width="0.1"/>
  <path d="M 49.07865749999996,43.29765099999997 L 49.07865749999996,41.29765099999997" fill="none" stroke="rgb(92,92,92)" stroke-width="0.1"/>
  <path d="M 47.67065749999995,43.29765099999997 L 47.67065749999995,41.29765099999997" fill="none" stroke="rgb(92,92,92)" stroke-width="0.1"/>
  <path d="M 46.261657499999956,43.29765099999997 L 46.261657499999956,41.29765099999997" fill="none" stroke="rgb(92,92,92)" stroke-width="0.1"/>
  <path d="M 44.85365749999994,43.29765099999997 L 44.85365749999994,41.29765099999997" fill="none" stroke="rgb(92,92,92)" stroke-width="0.1"/>
  <path d="M 43.44465749999995,43.29765099999997 L 43.44465749999995,41.29765099999997" fill="none" stroke="rgb(92,92,92)" stroke-width="0.1"/>
  <path d="M 42.03665750000005,43.29765099999997 L 42.03665750000005,41.29765099999997" fill="none" stroke="rgb(92,92,92)" stroke-width="0.1"/>
  <path d="M 40.62865750000003,43.29765099999997 L 40.62865750000003,41.29765099999997" fill="none" stroke="rgb(92,92,92)" stroke-width="0.1"/>
  <path d="M 39.21965750000004,43.29765099999997 L 39.21965750000004,41.29765099999997" fill="none" stroke="rgb(92,92,92)" stroke-width="0.1"/>
  <path d="M 37.811657500000024,43.29765099999997 L 37.811657500000024,41.29765099999997" fill="none" stroke="rgb(92,92,92)" stroke-width="0.1"/>
  <path d="M 36.40265750000003,43.29765099999997 L 36.40265750000003,41.29765099999997" fill="none" stroke="rgb(92,92,92)" stroke-width="0.1"/>
  <path d="M 34.99465750000002,43.29765099999997 L 34.99465750000002,41.29765099999997" fill="none" stroke="rgb(92,92,92)" stroke-width="0.1"/>
  <path d="M 33.585657500000025,43.29765099999997 L 33.585657500000025,41.29765099999997" fill="none" stroke="rgb(92,92,92)" stroke-width="0.1"/>
  <path d="M 32.17765750000001,43.29765099999997 L 32.17765750000001,41.29765099999997" fill="none" stroke="rgb(92,92,92)" stroke-width="0.1"/>
  <path d="M 30.768657500000018,43.29765099999997 L 30.768657500000018,41.29765099999997" fill="none" stroke="rgb(92,92,92)" stroke-width="0.1"/>
  <path d="M 29.360657500000002,43.29765099999997 L 29.360657500000002,41.29765099999997" fill="none" stroke="rgb(92,92,92)" stroke-width="0.1"/>
  <path d="M 27.95165750000001,43.29765099999997 L 27.95165750000001,41.29765099999997" fill="none" stroke="rgb(92,92,92)" stroke-width="0.1"/>
  <path d="M 26.543657499999995,43.29765099999997 L 26.543657499999995,41.29765099999997" fill="none" stroke="rgb(92,92,92)" stroke-width="0.1"/>
  <path d="M 25.13565749999998,43.29765099999997 L 25.13565749999998,41.29765099999997" fill="none" stroke="rgb(92,92,92)" stroke-width="0.1"/>
  <path d="M 23.726657499999988,43.29765099999997 L 23.726657499999988,41.29765099999997" fill="none" stroke="rgb(92,92,92)" stroke-width="0.1"/>
  <path d="M 22.318657499999972,43.29765099999997 L 22.318657499999972,41.29765099999997" fill="none" stroke="rgb(92,92,92)" stroke-width="0.1"/>
  <path d="M 20.90965749999998,43.29765099999997 L 20.90965749999998,41.29765099999997" fill="none" stroke="rgb(92,92,92)" stroke-width="0.1"/>
  <path d="M 19.501657499999965,43.29765099999997 L 19.501657499999965,41.29765099999997" fill="none" stroke="rgb(92,92,92)" stroke-width="0.1"/>
  <path d="M 18.092657499999973,43.29765099999997 L 18.092657499999973,41.29765099999997" fill="none" stroke="rgb(92,92,92)" stroke-width="0.1"/>
  <path d="M 16.684657499999958,43.29765099999997 L 16.684657499999958,41.29765099999997" fill="none" stroke="rgb(92,92,92)" stroke-width="0.1"/>
  <path d="M 15.275657499999966,43.29765099999997 L 15.275657499999966,41.29765099999997" fill="none" stroke="rgb(92,92,92)" stroke-width="0.1"/>
  <path d="M 13.86765749999995,43.29765099999997 L 13.86765749999995,41.29765099999997" fill="none" stroke="rgb(92,92,92)" stroke-width="0.1"/>
  <path d="M 12.458657499999958,43.29765099999997 L 12.458657499999958,41.29765099999997" fill="none" stroke="rgb(92,92,92)" stroke-width="0.1"/>
  <path d="M 11.050657499999943,43.29765099999997 L 11.050657499999943,41.29765099999997" fill="none" stroke="rgb(92,92,92)" stroke-width="0.1"/>
  <path d="M 9.642657500000041,43.29765099999997 L 9.642657500000041,41.29765099999997" fill="none" stroke="rgb(92,92,92)" stroke-width="0.1"/>
  <path d="M 8.23365750000005,43.29765099999997 L 8.23365750000005,41.29765099999997" fill="none" stroke="rgb(92,92,92)" stroke-width="0.1"/>
  <path d="M 6.825657500000034,43.29765099999997 L 6.825657500000034,41.29765099999997" fill="none" stroke="rgb(92,92,92)" stroke-width="0.1"/>
  <path d="M 5.416657500000042,43.29765099999997 L 5.416657500000042,41.29765099999997" fill="none" stroke="rgb(92,92,92)" stroke-width="0.1"/>
  <path d="M 4.008657500000027,43.29765099999997 L 4.008657500000027,41.29765099999997" fill="none" stroke="rgb(92,92,92)" stroke-width="0.1"/>
  <path d="M 2.599657500000035,43.29765099999997 L 2.599657500000035,41.29765099999997" fill="none" stroke="rgb(92,92,92)" stroke-width="0.1"/>
  <path d="M 1.1916575000000194,43.29765099999997 L 1.1916575000000194,41.29765099999997" fill="none" stroke="rgb(92,92,92)" stroke-width="0.1"/>
 </g>
 <g id="layerA-PUB_TEXT" inkscape:groupmode="layer" inkscape:label="A-PUB_TEXT">
  <text fill="rgb(0,0,0)" font-family="Noto Sans CJK SC" font-size="2" transform="rotate(-0.0,76.94065750000004,81.75865099999999)" x="76.94065750000004" y="81.75865099999999">
   油烟井
  </text>
 </g>
 <g id="layerA-WALL" inkscape:groupmode="layer" inkscape:label="A-WALL">
  <path d="M 100.0,88.29765099999997 L 97.5436575,88.29765099999997" fill="none" instance-id="-1" semantic-id="1" stroke="rgb(0,178,178)" stroke-width="0.1"/>
  <path d="M 100.0,86.29765099999997 L 98.5436575,86.29765099999997" fill="none" instance-id="-1" semantic-id="1" stroke="rgb(0,178,178)" stroke-width="0.1"/>
  <path d="M 96.5436575,66.29765099999997 L 77.5436575,66.29765099999997" fill="none" instance-id="-1" semantic-id="1" stroke="rgb(0,178,178)" stroke-width="0.1"/>
  <path d="M 97.5436575,64.29765099999997 L 77.5436575,64.29765099999997" fill="none" instance-id="-1" semantic-id="1" stroke="rgb(0,178,178)" stroke-width="0.1"/>
  <path d="M 98.5436575,66.29765099999997 L 98.5436575,86.29765099999997" fill="none" instance-id="-1" semantic-id="1" stroke="rgb(0,178,178)" stroke-width="0.1"/>
  <path d="M 96.5436575,66.29765099999997 L 96.5436575,86.29765099999997" fill="none" instance-id="-1" semantic-id="1" stroke="rgb(0,178,178)" stroke-width="0.1"/>
  <path d="M 98.5436575,66.29765099999997 L 99.5436575,66.29765099999997" fill="none" instance-id="-1" semantic-id="1" stroke="rgb(0,178,178)" stroke-width="0.1"/>
  <path d="M 99.5436575,66.29765099999997 L 99.5436575,64.29765099999997" fill="none" instance-id="-1" semantic-id="1" stroke="rgb(0,178,178)" stroke-width="0.1"/>
  <path d="M 99.5436575,64.29765099999997 L 97.5436575,64.29765099999997" fill="none" instance-id="-1" semantic-id="1" stroke="rgb(0,178,178)" stroke-width="0.1"/>
  <path d="M 76.0436575,70.29765099999997 L 76.0436575,86.29765099999997" fill="none" instance-id="-1" semantic-id="1" stroke="rgb(0,178,178)" stroke-width="0.1"/>
  <path d="M 74.0436575,70.29765099999997 L 74.0436575,88.29765099999997" fill="none" instance-id="-1" semantic-id="1" stroke="rgb(0,178,178)" stroke-width="0.1"/>
  <path d="M 97.5436575,88.29765099999997 L 74.0436575,88.29765099999997" fill="none" instance-id="-1" semantic-id="1" stroke="rgb(0,178,178)" stroke-width="0.1"/>
  <path d="M 96.5436575,86.29765099999997 L 76.0436575,86.29765099999997" fill="none" instance-id="-1" semantic-id="1" stroke="rgb(0,178,178)" stroke-width="0.1"/>
 </g>
 <g id="layerA-WALL-STUD" inkscape:groupmode="layer" inkscape:label="A-WALL-STUD">
  <path d="M 75.5436575,43.29765099999997 L 75.5436575,46.29765099999997" fill="none" instance-id="-1" semantic-id="1" stroke="rgb(255,133,12)" stroke-width="0.1"/>
  <path d="M 75.5436575,46.29765099999997 L 77.5436575,46.29765099999997" fill="none" instance-id="-1" semantic-id="1" stroke="rgb(255,133,12)" stroke-width="0.1"/>
  <path d="M 77.5436575,46.29765099999997 L 77.5436575,43.29765099999997" fill="none" instance-id="-1" semantic-id="1" stroke="rgb(255,133,12)" stroke-width="0.1"/>
  <path d="M 77.5436575,64.29765099999997 L 77.5436575,61.29765099999997" fill="none" instance-id="-1" semantic-id="1" stroke="rgb(255,133,12)" stroke-width="0.1"/>
  <path d="M 77.5436575,61.29765099999997 L 75.5436575,61.29765099999997" fill="none" instance-id="-1" semantic-id="1" stroke="rgb(255,133,12)" stroke-width="0.1"/>
  <path d="M 75.5436575,61.29765099999997 L 75.5436575,64.29765099999997" fill="none" instance-id="-1" semantic-id="1" stroke="rgb(255,133,12)" stroke-width="0.1"/>
  <path d="M 77.5436575,43.29765099999997 L 99.0436575,43.29765099999997" fill="none" instance-id="-1" semantic-id="1" stroke="rgb(255,133,12)" stroke-width="0.1"/>
  <path d="M 99.0436575,43.29765099999997 L 99.0436575,41.29765099999997" fill="none" instance-id="-1" semantic-id="1" stroke="rgb(255,133,12)" stroke-width="0.1"/>
  <path d="M 99.0436575,41.29765099999997 L 76.5436575,41.29765099999997" fill="none" instance-id="-1" semantic-id="1" stroke="rgb(255,133,12)" stroke-width="0.1"/>
  <path d="M 75.5436575,43.29765099999997 L 0.0,43.29765099999997" fill="none" instance-id="-1" semantic-id="1" stroke="rgb(255,133,12)" stroke-width="0.1"/>
  <path d="M 76.5436575,41.29765099999997 L 0.0,41.29765099999997" fill="none" instance-id="-1" semantic-id="1" stroke="rgb(255,133,12)" stroke-width="0.1"/>
 </g>
 <g id="layerA-WIN" inkscape:groupmode="layer" inkscape:label="A-WIN">
  <path d="M 99.4186575,42.29765099999997 L 99.4186575,49.610651000000075" fill="none" stroke="rgb(255,133,12)" stroke-width="0.1"/>
  <path d="M 99.0436575,42.29765099999997 L 99.0436575,49.610651000000075" fill="none" stroke="rgb(255,133,12)" stroke-width="0.1"/>
  <path d="M 99.4186575,49.610651000000075 L 99.0436575,49.610651000000075" fill="none" stroke="rgb(255,133,12)" stroke-width="0.1"/>
  <path d="M 99.0436575,42.29765099999997 L 99.4186575,42.29765099999997" fill="none" stroke="rgb(255,133,12)" stroke-width="0.1"/>
  <path d="M 100.0,55.54765099999997 L 99.5436575,55.54765099999997" fill="none" stroke="rgb(255,133,12)" stroke-width="0.1"/>
  <path d="M 99.5436575,65.29765099999997 L 100.0,65.29765099999997" fill="none" stroke="rgb(255,133,12)" stroke-width="0.1"/>
  <path d="M 99.5436575,65.29765099999997 L 99.5436575,55.54765099999997" fill="none" stroke="rgb(255,133,12)" stroke-width="0.1"/>
  <path d="M 76.5436575,46.29765099999997 L 83.8556575,46.29765099999997" fill="none" instance-id="1" semantic-id="4" stroke="rgb(255,133,12)" stroke-width="0.1"/>
  <path d="M 76.5436575,46.67265099999997 L 83.8556575,46.67265099999997" fill="none" instance-id="1" semantic-id="4" stroke="rgb(255,133,12)" stroke-width="0.1"/>
  <path d="M 76.5436575,46.29765099999997 L 76.5436575,46.67265099999997" fill="none" instance-id="1" semantic-id="4" stroke="rgb(255,133,12)" stroke-width="0.1"/>
  <path d="M 83.8556575,46.67265099999997 L 83.8556575,46.29765099999997" fill="none" instance-id="1" semantic-id="4" stroke="rgb(255,133,12)" stroke-width="0.1"/>
  <path d="M 76.5436575,60.92265099999997 L 83.8556575,60.92265099999997" fill="none" instance-id="1" semantic-id="4" stroke="rgb(255,133,12)" stroke-width="0.1"/>
  <path d="M 76.5436575,61.29765099999997 L 83.8556575,61.29765099999997" fill="none" instance-id="1" semantic-id="4" stroke="rgb(255,133,12)" stroke-width="0.1"/>
  <path d="M 83.8556575,60.92265099999997 L 83.8556575,61.29765099999997" fill="none" instance-id="1" semantic-id="4" stroke="rgb(255,133,12)" stroke-width="0.1"/>
  <path d="M 76.5436575,61.29765099999997 L 76.5436575,60.92265099999997" fill="none" instance-id="1" semantic-id="4" stroke="rgb(255,133,12)" stroke-width="0.1"/>
  <path d="M 99.4186575,49.60765100000003 L 99.93118766271243,49.5764709588567" fill="none" stroke="rgb(255,133,12)" stroke-width="0.1"/>
  <path d="M 76.5436575,53.79765099999997 A 7.3125,7.3125 0.0 0,0 83.85365749999994,46.67265099999997" fill="none" instance-id="1" semantic-id="4" stroke="rgb(255,133,12)" stroke-width="0.1"/>
  <path d="M 83.85365749999994,60.92265099999997 A 7.3125,7.3125 0.0 0,0 76.5436575,53.79765099999997" fill="none" instance-id="1" semantic-id="4" stroke="rgb(255,133,12)" stroke-width="0.1"/>
 </g>
 <g id="layerA-WIN-TEXT" inkscape:groupmode="layer" inkscape:label="A-WIN-TEXT">
  <text fill="rgb(0,0,0)" font-family="Noto Sans CJK SC" font-size="2" transform="rotate(-90.0,72.92065749999995,58.897650999999996)" x="72.92065749999995" y="58.897650999999996">
   M1521
  </text>
 </g>
 <g id="layerA-楼板开洞" inkscape:groupmode="layer" inkscape:label="A-楼板开洞">
  <path d="M 76.0436575,86.29765099999997 L 96.5436575,86.29765099999997" fill="none" stroke="rgb(107,142,0)" stroke-width="0.1"/>
  <path d="M 96.5436575,86.29765099999997 L 96.5436575,68.79765099999997" fill="none" stroke="rgb(107,142,0)" stroke-width="0.1"/>
  <path d="M 96.5436575,68.79765099999997 L 77.54065749999995,68.79765099999997" fill="none" stroke="rgb(107,142,0)" stroke-width="0.1"/>
  <path d="M 77.54065749999995,68.79765099999997 L 77.5436575,70.29765099999997" fill="none" stroke="rgb(107,142,0)" stroke-width="0.1"/>
  <path d="M 77.5436575,70.29765099999997 L 76.04065749999995,70.29765099999997" fill="none" stroke="rgb(107,142,0)" stroke-width="0.1"/>
  <path d="M 76.04065749999995,70.29765099999997 L 76.0436575,86.29765099999997" fill="none" stroke="rgb(107,142,0)" stroke-width="0.1"/>
  <path d="M 96.5436575,68.79765099999997 L 83.09565750000002,71.14965100000006" fill="none" stroke="rgb(107,142,0)" stroke-width="0.1"/>
  <path d="M 83.09565750000002,71.14965100000006 L 76.0436575,86.29765099999997" fill="none" stroke="rgb(107,142,0)" stroke-width="0.1"/>
 </g>
</svg>