<?xml version="1.0" encoding="utf-8"?>
<svg style="background-color: #000;" version="1.1" viewBox="0 0 100.0 100.0" xmlns="http://www.w3.org/2000/svg" xmlns:inkscape="http://www.inkscape.org/namespaces/inkscape">
 <g id="layerA-ANNO-DIMS" inkscape:groupmode="layer" inkscape:label="A-ANNO-DIMS">
  <path d="M 10.653657500000008,97.29765099999997 L 0.0,97.29765099999997" fill="none" stroke="rgb(0,178,0)" stroke-width="0.1"/>
  <path d="M 3.5706575000000385,97.29765099999997 L 3.5706575000000385,95.79765099999997" fill="none" stroke="rgb(0,178,0)" stroke-width="0.1"/>
  <path d="M 3.5706575000000385,100.0 L 3.5706575000000385,97.29765099999997" fill="none" stroke="rgb(0,178,0)" stroke-width="0.1"/>
  <path d="M 10.653657500000008,97.29765099999997 L 0.0,97.29765099999997" fill="none" stroke="rgb(0,178,0)" stroke-width="0.1"/>
  <path d="M 10.653657500000008,92.29765099999997 L 0.0,92.29765099999997" fill="none" stroke="rgb(0,178,0)" stroke-width="0.1"/>
  <path d="M 3.5706575000000385,97.29765099999997 L 3.5706575000000385,98.79765099999997" fill="none" stroke="rgb(0,178,0)" stroke-width="0.1"/>
  <path d="M 3.5706575000000385,92.29765099999997 L 3.5706575000000385,90.79765099999997" fill="none" stroke="rgb(0,178,0)" stroke-width="0.1"/>
  <path d="M 3.5706575000000385,97.29765099999997 L 3.5706575000000385,92.29765099999997" fill="none" stroke="rgb(0,178,0)" stroke-width="0.1"/>
  <path d="M 10.653657500000008,92.29765099999997 L 0.0,92.29765099999997" fill="none" stroke="rgb(0,178,0)" stroke-width="0.1"/>
  <path d="M 10.653657500000008,77.29765099999997 L 0.0,77.29765099999997" fill="none" stroke="rgb(0,178,0)" stroke-width="0.1"/>
  <path d="M 3.5706575000000385,92.29765099999997 L 3.5706575000000385,77.29765099999997" fill="none" stroke="rgb(0,178,0)" stroke-width="0.1"/>
  <path d="M 77.5436575,37.66865100000007 L 77.5436575,23.433651000000054" fill="none" stroke="rgb(0,178,0)" stroke-width="0.1"/>
  <path d="M 77.5436575,27.183651000000054 L 100.0,27.183651000000054" fill="none" stroke="rgb(0,178,0)" stroke-width="0.1"/>
  <path d="M 74.5436575,37.66865100000007 L 74.5436575,23.433651000000054" fill="none" stroke="rgb(0,178,0)" stroke-width="0.1"/>
  <path d="M 77.5436575,37.66865100000007 L 77.5436575,23.433651000000054" fill="none" stroke="rgb(0,178,0)" stroke-width="0.1"/>
  <path d="M 74.5436575,27.183651000000054 L 73.0436575,27.183651000000054" fill="none" stroke="rgb(0,178,0)" stroke-width="0.1"/>
  <path d="M 77.5436575,27.183651000000054 L 79.0436575,27.183651000000054" fill="none" stroke="rgb(0,178,0)" stroke-width="0.1"/>
  <path d="M 74.5436575,27.183651000000054 L 77.5436575,27.183651000000054" fill="none" stroke="rgb(0,178,0)" stroke-width="0.1"/>
  <path d="M 20.543657499999995,37.66865100000007 L 20.543657499999995,23.433651000000054" fill="none" stroke="rgb(0,178,0)" stroke-width="0.1"/>
  <path d="M 74.5436575,37.66865100000007 L 74.5436575,23.433651000000054" fill="none" stroke="rgb(0,178,0)" stroke-width="0.1"/>
  <path d="M 20.543657499999995,27.183651000000054 L 74.5436575,27.183651000000054" fill="none" stroke="rgb(0,178,0)" stroke-width="0.1"/>
  <path d="M 18.543657499999995,37.66865100000007 L 18.543657499999995,23.433651000000054" fill="none" stroke="rgb(0,178,0)" stroke-width="0.1"/>
  <path d="M 20.543657499999995,37.66865100000007 L 20.543657499999995,23.433651000000054" fill="none" stroke="rgb(0,178,0)" stroke-width="0.1"/>
  <path d="M 18.543657499999995,27.183651000000054 L 17.043657499999995,27.183651000000054" fill="none" stroke="rgb(0,178,0)" stroke-width="0.1"/>
  <path d="M 20.543657499999995,27.183651000000054 L 22.043657499999995,27.183651000000054" fill="none" stroke="rgb(0,178,0)" stroke-width="0.1"/>
  <path d="M 18.543657499999995,27.183651000000054 L 20.543657499999995,27.183651000000054" fill="none" stroke="rgb(0,178,0)" stroke-width="0.1"/>
  <path d="M 18.543657499999995,37.66865100000007 L 18.543657499999995,23.433651000000054" fill="none" stroke="rgb(0,178,0)" stroke-width="0.1"/>
  <path d="M 0.0,27.183651000000054 L 18.543657499999995,27.183651000000054" fill="none" stroke="rgb(0,178,0)" stroke-width="0.1"/>
  <text fill="rgb(0,178,0)" font-family="Noto Sans CJK SC" font-size="2" transform="rotate(-90.0,2.0706575000000385,99.29765099999997)" x="2.0706575000000385" y="99.29765099999997">
   500
  </text>
  <text fill="rgb(0,178,0)" font-family="Noto Sans CJK SC" font-size="2" transform="rotate(-90.0,2.0706575000000385,91.022651)" x="2.0706575000000385" y="91.022651">
   1500
  </text>
  <text fill="rgb(0,178,0)" font-family="Noto Sans CJK SC" font-size="2" transform="rotate(-0.0,86.54165750000004,25.683651000000054)" x="86.54165750000004" y="25.683651000000054">
   3000
  </text>
  <text fill="rgb(0,178,0)" font-family="Noto Sans CJK SC" font-size="2" transform="rotate(-0.0,71.5436575,25.683651000000054)" x="71.5436575" y="25.683651000000054">
   300
  </text>
  <text fill="rgb(0,178,0)" font-family="Noto Sans CJK SC" font-size="2" transform="rotate(-0.0,41.543657499999995,25.683651000000054)" x="41.543657499999995" y="25.683651000000054">
   5400
  </text>
  <text fill="rgb(0,178,0)" font-family="Noto Sans CJK SC" font-size="2" transform="rotate(-0.0,15.043657499999995,25.683651000000054)" x="15.043657499999995" y="25.683651000000054">
   200
  </text>
 </g>
 <g id="layerA-DOTE" inkscape:groupmode="layer" inkscape:label="A-DOTE">
  <path d="M 74.5436575,100.0 L 74.5436575,0.0" fill="none" stroke="rgb(107,53,53)" stroke-width="0.1"/>
  <path d="M 0.0,97.29765099999997 L 100.0,97.29765099999997" fill="none" stroke="rgb(107,53,53)" stroke-width="0.1"/>
  <path d="M 0.0,49.29765099999997 L 100.0,49.29765099999997" fill="none" stroke="rgb(107,53,53)" stroke-width="0.1"/>
  <path d="M 0.0,7.2976509999999735 L 100.0,7.2976509999999735" fill="none" stroke="rgb(107,53,53)" stroke-width="0.1"/>
 </g>
 <g id="layerA-HATCH" inkscape:groupmode="layer" inkscape:label="A-HATCH">
  <path d="M 71.5436575,98.29765099999997 L 71.5436575,94.29765099999997" fill="none" stroke="rgb(92,92,92)" stroke-width="0.1"/>
  <path d="M 71.5436575,94.29765099999997 L 31.543657499999995,94.29765099999997" fill="none" stroke="rgb(92,92,92)" stroke-width="0.1"/>
  <path d="M 31.543657499999995,94.29765099999997 L 31.543657499999995,98.29765099999997" fill="none" stroke="rgb(92,92,92)" stroke-width="0.1"/>
  <path d="M 31.543657499999995,98.29765099999997 L 71.5436575,98.29765099999997" fill="none" stroke="rgb(92,92,92)" stroke-width="0.1"/>
 </g>
 <g id="layerA-PUB_TEXT" inkscape:groupmode="layer" inkscape:label="A-PUB_TEXT">
  <text fill="rgb(0,0,0)" font-family="Noto Sans CJK SC" font-size="2" transform="rotate(-0.0,48.765657499999975,76.15865100000008)" x="48.765657499999975" y="76.15865100000008">
   空调机房
  </text>
  <text fill="rgb(0,0,0)" font-family="Noto Sans CJK SC" font-size="2" transform="rotate(-0.0,20.165657499999952,61.877651000000014)" x="20.165657499999952" y="61.877651000000014">
   进风
  </text>
 </g>
 <g id="layerA-WALL" inkscape:groupmode="layer" inkscape:label="A-WALL">
  <path d="M 100.0,48.29765099999997 L 76.5436575,48.29765099999997" fill="none" instance-id="-1" semantic-id="1" stroke="rgb(0,178,178)" stroke-width="0.1"/>
  <path d="M 100.0,46.29765099999997 L 77.5436575,46.29765099999997" fill="none" instance-id="-1" semantic-id="1" stroke="rgb(0,178,178)" stroke-width="0.1"/>
  <path d="M 27.543657499999995,96.29765099999997 L 20.543657499999995,96.29765099999997" fill="none" instance-id="-1" semantic-id="1" stroke="rgb(0,178,178)" stroke-width="0.1"/>
  <path d="M 27.543657499999995,94.29765099999997 L 20.543657499999995,94.29765099999997" fill="none" instance-id="-1" semantic-id="1" stroke="rgb(0,178,178)" stroke-width="0.1"/>
  <path d="M 20.543657499999995,48.29765099999997 L 20.543657499999995,65.54765099999997" fill="none" instance-id="-1" semantic-id="1" stroke="rgb(0,178,178)" stroke-width="0.1"/>
  <path d="M 18.543657499999995,48.29765099999997 L 18.543657499999995,65.54765099999997" fill="none" instance-id="-1" semantic-id="1" stroke="rgb(0,178,178)" stroke-width="0.1"/>
  <path d="M 18.543657499999995,95.29765099999997 L 18.543657499999995,100.0" fill="none" instance-id="-1" semantic-id="1" stroke="rgb(0,178,178)" stroke-width="0.1"/>
  <path d="M 20.543657499999995,100.0 L 20.543657499999995,96.29765099999997" fill="none" instance-id="-1" semantic-id="1" stroke="rgb(0,178,178)" stroke-width="0.1"/>
  <path d="M 18.543657499999995,48.29765099999997 L 0.0,48.29765099999997" fill="none" instance-id="-1" semantic-id="1" stroke="rgb(0,178,178)" stroke-width="0.1"/>
  <path d="M 19.543657499999995,46.29765099999997 L 0.0,46.29765099999997" fill="none" instance-id="-1" semantic-id="1" stroke="rgb(0,178,178)" stroke-width="0.1"/>
  <path d="M 77.5436575,46.29765099999997 L 75.5436575,46.29765099999997" fill="none" instance-id="-1" semantic-id="1" stroke="rgb(0,178,178)" stroke-width="0.1"/>
  <path d="M 18.543657499999995,67.54765099999997 L 0.0,67.54765099999997" fill="none" instance-id="-1" semantic-id="1" stroke="rgb(0,178,178)" stroke-width="0.1"/>
  <path d="M 18.543657499999995,65.54765099999997 L 0.0,65.54765099999997" fill="none" instance-id="-1" semantic-id="1" stroke="rgb(0,178,178)" stroke-width="0.1"/>
  <path d="M 18.543657499999995,67.54765099999997 L 18.543657499999995,77.29765099999997" fill="none" instance-id="-1" semantic-id="1" stroke="rgb(0,178,178)" stroke-width="0.1"/>
  <path d="M 18.543657499999995,77.29765099999997 L 20.543657499999995,77.29765099999997" fill="none" instance-id="-1" semantic-id="1" stroke="rgb(0,178,178)" stroke-width="0.1"/>
  <path d="M 20.543657499999995,77.29765099999997 L 20.543657499999995,67.54765099999997" fill="none" instance-id="-1" semantic-id="1" stroke="rgb(0,178,178)" stroke-width="0.1"/>
  <path d="M 20.543657499999995,94.29765099999997 L 20.543657499999995,92.29765099999997" fill="none" instance-id="-1" semantic-id="1" stroke="rgb(0,178,178)" stroke-width="0.1"/>
  <path d="M 20.543657499999995,92.29765099999997 L 18.543657499999995,92.29765099999997" fill="none" instance-id="-1" semantic-id="1" stroke="rgb(0,178,178)" stroke-width="0.1"/>
  <path d="M 18.543657499999995,92.29765099999997 L 18.543657499999995,95.29765099999997" fill="none" instance-id="-1" semantic-id="1" stroke="rgb(0,178,178)" stroke-width="0.1"/>
  <path d="M 76.5436575,48.29765099999997 L 30.293657499999995,48.29765099999997" fill="none" instance-id="-1" semantic-id="1" stroke="rgb(0,178,178)" stroke-width="0.1"/>
  <path d="M 75.5436575,46.29765099999997 L 29.293657499999995,46.29765099999997" fill="none" instance-id="-1" semantic-id="1" stroke="rgb(0,178,178)" stroke-width="0.1"/>
  <path d="M 100.0,96.29865100000006 L 77.5436575,96.29865100000006" fill="none" instance-id="-1" semantic-id="1" stroke="rgb(0,178,178)" stroke-width="0.1"/>
  <path d="M 100.0,94.29865100000006 L 77.5436575,94.29865100000006" fill="none" instance-id="-1" semantic-id="1" stroke="rgb(0,178,178)" stroke-width="0.1"/>
  <path d="M 30.293657499999995,48.29765099999997 L 30.293657499999995,67.54765099999997" fill="none" instance-id="-1" semantic-id="1" stroke="rgb(0,178,178)" stroke-width="0.1"/>
  <path d="M 28.293657499999995,48.29765099999997 L 28.293657499999995,65.54765099999997" fill="none" instance-id="-1" semantic-id="1" stroke="rgb(0,178,178)" stroke-width="0.1"/>
  <path d="M 30.293657499999995,67.54765099999997 L 20.543657499999995,67.54765099999997" fill="none" instance-id="-1" semantic-id="1" stroke="rgb(0,178,178)" stroke-width="0.1"/>
  <path d="M 28.293657499999995,65.54765099999997 L 20.543657499999995,65.54765099999997" fill="none" instance-id="-1" semantic-id="1" stroke="rgb(0,178,178)" stroke-width="0.1"/>
  <path d="M 28.293657499999995,48.29765099999997 L 20.543657499999995,48.29765099999997" fill="none" instance-id="-1" semantic-id="1" stroke="rgb(0,178,178)" stroke-width="0.1"/>
  <path d="M 29.293657499999995,46.29765099999997 L 19.543657499999995,46.29765099999997" fill="none" instance-id="-1" semantic-id="1" stroke="rgb(0,178,178)" stroke-width="0.1"/>
 </g>
 <g id="layerA-WALL-CONC" inkscape:groupmode="layer" inkscape:label="A-WALL-CONC">
  <path d="M 31.543657499999995,94.29765099999997 L 71.5436575,94.29765099999997" fill="none" stroke="rgb(0,178,178)" stroke-width="0.1"/>
  <path d="M 31.543657499999995,98.29765099999997 L 71.5436575,98.29765099999997" fill="none" stroke="rgb(0,178,178)" stroke-width="0.1"/>
 </g>
 <g id="layerA-WIN" inkscape:groupmode="layer" inkscape:label="A-WIN">
  <path d="M 19.543657499999995,92.29765099999997 L 12.230657500000007,92.29765099999997" fill="none" instance-id="2" semantic-id="4" stroke="rgb(255,133,12)" stroke-width="0.1"/>
  <path d="M 19.543657499999995,91.92265099999997 L 12.230657500000007,91.92265099999997" fill="none" instance-id="2" semantic-id="4" stroke="rgb(255,133,12)" stroke-width="0.1"/>
  <path d="M 19.543657499999995,92.29765099999997 L 19.543657499999995,91.92265099999997" fill="none" instance-id="2" semantic-id="4" stroke="rgb(255,133,12)" stroke-width="0.1"/>
  <path d="M 12.230657500000007,91.92265099999997 L 12.230657500000007,92.29765099999997" fill="none" instance-id="2" semantic-id="4" stroke="rgb(255,133,12)" stroke-width="0.1"/>
  <path d="M 19.543657499999995,77.67265099999997 L 12.230657500000007,77.67265099999997" fill="none" instance-id="2" semantic-id="4" stroke="rgb(255,133,12)" stroke-width="0.1"/>
  <path d="M 19.543657499999995,77.29765099999997 L 12.230657500000007,77.29765099999997" fill="none" instance-id="2" semantic-id="4" stroke="rgb(255,133,12)" stroke-width="0.1"/>
  <path d="M 12.230657500000007,77.67265099999997 L 12.230657500000007,77.29765099999997" fill="none" instance-id="2" semantic-id="4" stroke="rgb(255,133,12)" stroke-width="0.1"/>
  <path d="M 19.543657499999995,77.29765099999997 L 19.543657499999995,77.67265099999997" fill="none" instance-id="2" semantic-id="4" stroke="rgb(255,133,12)" stroke-width="0.1"/>
  <path d="M 19.543657499999995,84.79765099999997 A 7.3125,7.3125 0.0 0,0 12.23365750000005,91.92265099999997" fill="none" instance-id="2" semantic-id="4" stroke="rgb(255,133,12)" stroke-width="0.1"/>
  <path d="M 12.23365750000005,77.67265099999997 A 7.3125,7.3125 0.0 0,0 19.543657499999995,84.79765099999997" fill="none" instance-id="2" semantic-id="4" stroke="rgb(255,133,12)" stroke-width="0.1"/>
 </g>
 <g id="layerA-WIN-TEXT" inkscape:groupmode="layer" inkscape:label="A-WIN-TEXT">
  <text fill="rgb(0,0,0)" font-family="Noto Sans CJK SC" font-size="2" transform="rotate(-90.0,29.64165749999995,97.76165100000003)" x="29.64165749999995" y="97.76165100000003">
   FHM1521甲
  </text>
 </g>
 <g id="layerA-楼板开洞" inkscape:groupmode="layer" inkscape:label="A-楼板开洞">
  <path d="M 0.0,53.54765099999997 L 18.543657499999995,53.54765099999997" fill="none" stroke="rgb(107,142,0)" stroke-width="0.1"/>
  <path d="M 18.543657499999995,53.54765099999997 L 18.543657499999995,65.54765099999997" fill="none" stroke="rgb(107,142,0)" stroke-width="0.1"/>
  <path d="M 18.543657499999995,65.54765099999997 L 0.0,65.54765099999997" fill="none" stroke="rgb(107,142,0)" stroke-width="0.1"/>
  <path d="M 28.290657499999952,53.54765099999997 L 20.543657499999995,53.54765099999997" fill="none" stroke="rgb(107,142,0)" stroke-width="0.1"/>
  <path d="M 20.543657499999995,53.54765099999997 L 20.543657499999995,65.54765099999997" fill="none" stroke="rgb(107,142,0)" stroke-width="0.1"/>
  <path d="M 20.543657499999995,65.54765099999997 L 28.290657499999952,65.54765099999997" fill="none" stroke="rgb(107,142,0)" stroke-width="0.1"/>
  <path d="M 28.290657499999952,65.54765099999997 L 28.290657499999952,53.54765099999997" fill="none" stroke="rgb(107,142,0)" stroke-width="0.1"/>
  <path d="M 0.0,55.49273842458069 L 18.543657499999995,53.54765099999997" fill="none" stroke="rgb(107,142,0)" stroke-width="0.1"/>
  <path d="M 20.543657499999995,65.54765099999997 L 22.700657500000034,54.47365100000002" fill="none" stroke="rgb(107,142,0)" stroke-width="0.1"/>
  <path d="M 22.700657500000034,54.47365100000002 L 28.290657499999952,53.54765099999997" fill="none" stroke="rgb(107,142,0)" stroke-width="0.1"/>
 </g>
 <g id="layerA-设备-暖通墙上开洞" inkscape:groupmode="layer" inkscape:label="A-设备-暖通墙上开洞">
  <path d="M 31.595657500000016,60.28865100000007 L 27.310657500000048,60.28865100000007" fill="none" stroke="rgb(178,0,0)" stroke-width="0.1"/>
  <path d="M 31.595657500000016,57.28865100000007 L 27.310657500000048,57.28865100000007" fill="none" stroke="rgb(178,0,0)" stroke-width="0.1"/>
 </g>
</svg>