<?xml version="1.0" encoding="utf-8"?>
<svg style="background-color: #000;" version="1.1" viewBox="0 0 100.0 100.0" xmlns="http://www.w3.org/2000/svg" xmlns:inkscape="http://www.inkscape.org/namespaces/inkscape">
 <g id="layerA-ANNO-DIMS" inkscape:groupmode="layer" inkscape:label="A-ANNO-DIMS">
  <path d="M 91.02125649999994,79.42765099999997 L 83.57125650000012,79.42765099999997" fill="none" stroke="rgb(0,178,0)" stroke-width="0.1"/>
  <path d="M 87.32125650000012,100.0 L 87.32125650000012,79.42765099999997" fill="none" stroke="rgb(0,178,0)" stroke-width="0.1"/>
  <path d="M 95.52125649999994,69.99065100000007 L 95.52125649999994,59.51965100000007" fill="none" stroke="rgb(0,178,0)" stroke-width="0.1"/>
  <path d="M 95.52125649999994,63.26965100000007 L 100.0,63.26965100000007" fill="none" stroke="rgb(0,178,0)" stroke-width="0.1"/>
  <path d="M 20.5912565000001,75.03165100000001 L 38.85125650000009,75.03165100000001" fill="none" stroke="rgb(0,178,0)" stroke-width="0.1"/>
  <path d="M 20.5912565000001,37.29765099999997 L 38.85125650000009,37.29765099999997" fill="none" stroke="rgb(0,178,0)" stroke-width="0.1"/>
  <path d="M 35.10125650000009,75.03165100000001 L 35.10125650000009,37.29765099999997" fill="none" stroke="rgb(0,178,0)" stroke-width="0.1"/>
  <path d="M 0.0,68.48365100000001 L 7.721256499999981,68.48365100000001" fill="none" stroke="rgb(0,178,0)" stroke-width="0.1"/>
  <path d="M 0.0,37.29765099999997 L 7.721256499999981,37.29765099999997" fill="none" stroke="rgb(0,178,0)" stroke-width="0.1"/>
  <path d="M 3.9712564999999813,68.48365100000001 L 3.9712564999999813,37.29765099999997" fill="none" stroke="rgb(0,178,0)" stroke-width="0.1"/>
  <path d="M 71.69125650000001,59.710650999999984 L 72.05125650000014,78.142651" fill="none" stroke="rgb(0,178,0)" stroke-width="0.1"/>
  <path d="M 72.05125650000014,78.142651 L 72.11125650000008,81.142651" fill="none" stroke="rgb(0,178,0)" stroke-width="0.1"/>
  <text fill="rgb(0,0,0)" font-family="Noto Sans CJK SC" font-size="2" transform="rotate(-271.132,73.61125650000008,61.17265099999997)" x="73.61125650000008" y="61.17265099999997">
   R22000
  </text>
  <text fill="rgb(0,178,0)" font-family="Noto Sans CJK SC" font-size="2" transform="rotate(-0.0,96.08125650000011,61.76965100000007)" x="96.08125650000011" y="61.76965100000007">
   1358
  </text>
  <text fill="rgb(0,178,0)" font-family="Noto Sans CJK SC" font-size="2" transform="rotate(-90.0,33.60125650000009,62.16465100000005)" x="33.60125650000009" y="62.16465100000005">
   3773
  </text>
  <text fill="rgb(0,178,0)" font-family="Noto Sans CJK SC" font-size="2" transform="rotate(-90.0,2.4712564999999813,58.815651)" x="2.4712564999999813" y="58.815651">
   3119
  </text>
 </g>
 <g id="layerA-DIM_SYMB" inkscape:groupmode="layer" inkscape:label="A-DIM_SYMB">
  <path d="M 78.49125649999996,0.1576509999999871 L 0.0,0.1576509999999871" fill="none" stroke="rgb(0,178,0)" stroke-width="0.1"/>
 </g>
 <g id="layerA-DOTE" inkscape:groupmode="layer" inkscape:label="A-DOTE">
  <path d="M 0.0,37.29765099999997 L 100.0,37.29765099999997" fill="none" stroke="rgb(107,53,53)" stroke-width="0.1"/>
  <path d="M 19.0912565000001,100.0 L 19.0912565000001,0.0" fill="none" stroke="rgb(107,53,53)" stroke-width="0.1"/>
 </g>
 <g id="layerA-FLOR-HRAL" inkscape:groupmode="layer" inkscape:label="A-FLOR-HRAL">
  <path d="M 98.0912565000001,4.147650999999996 L 98.0912565000001,12.297650999999973" fill="none" instance-id="-1" semantic-id="33" stroke="rgb(107,142,0)" stroke-width="0.1"/>
  <path d="M 77.0912565000001,33.29765099999997 A 21.0,21.0 0.0 0,0 98.0912565000001,12.297650999999973" fill="none" instance-id="-1" semantic-id="33" stroke="rgb(107,142,0)" stroke-width="0.1"/>
  <path d="M 77.0912565000001,33.29765099999997 L 25.44125650000001,33.29765099999997" fill="none" instance-id="-1" semantic-id="33" stroke="rgb(107,142,0)" stroke-width="0.1"/>
  <path d="M 0.05431628412770806,29.214454656495604 L 0.5356076037255662,29.37167983922791" fill="none" instance-id="-1" semantic-id="33" stroke="rgb(107,142,0)" stroke-width="0.1"/>
  <path d="M 0.5356076037255662,29.37167983922791 L 1.017872311130077,29.525893471560607" fill="none" instance-id="-1" semantic-id="33" stroke="rgb(107,142,0)" stroke-width="0.1"/>
  <path d="M 1.017872311130077,29.525893471560607 L 1.5010915625816779,29.677089527830958" fill="none" instance-id="-1" semantic-id="33" stroke="rgb(107,142,0)" stroke-width="0.1"/>
  <path d="M 1.5010915625816779,29.677089527830958 L 1.9852464770235656,29.825262100282885" fill="none" instance-id="-1" semantic-id="33" stroke="rgb(107,142,0)" stroke-width="0.1"/>
  <path d="M 1.9852464770235656,29.825262100282885 L 2.4703181368388414,29.97040539929867" fill="none" instance-id="-1" semantic-id="33" stroke="rgb(107,142,0)" stroke-width="0.1"/>
  <path d="M 2.4703181368388414,29.97040539929867 L 2.9562875885908397,30.112513753624626" fill="none" instance-id="-1" semantic-id="33" stroke="rgb(107,142,0)" stroke-width="0.1"/>
  <path d="M 2.9562875885908397,30.112513753624626 L 3.443135843762093,30.25158161059312" fill="none" instance-id="-1" semantic-id="33" stroke="rgb(107,142,0)" stroke-width="0.1"/>
  <path d="M 3.443135843762093,30.25158161059312 L 3.9308438794982976,30.38760353633927" fill="none" instance-id="-1" semantic-id="33" stroke="rgb(107,142,0)" stroke-width="0.1"/>
  <path d="M 3.9308438794982976,30.38760353633927 L 4.419392639349553,30.520574216013188" fill="none" instance-id="-1" semantic-id="33" stroke="rgb(107,142,0)" stroke-width="0.1"/>
  <path d="M 4.419392639349553,30.520574216013188 L 4.908763034016829,30.65048845398792" fill="none" instance-id="-1" semantic-id="33" stroke="rgb(107,142,0)" stroke-width="0.1"/>
  <path d="M 4.908763034016829,30.65048845398792 L 5.398935942096159,30.77734117406237" fill="none" instance-id="-1" semantic-id="33" stroke="rgb(107,142,0)" stroke-width="0.1"/>
  <path d="M 5.398935942096159,30.77734117406237 L 5.889892210827156,30.90112741965936" fill="none" instance-id="-1" semantic-id="33" stroke="rgb(107,142,0)" stroke-width="0.1"/>
  <path d="M 5.889892210827156,30.90112741965936 L 6.381612656840389,31.021842354019668" fill="none" instance-id="-1" semantic-id="33" stroke="rgb(107,142,0)" stroke-width="0.1"/>
  <path d="M 6.381612656840389,31.021842354019668 L 6.874078066907941,31.139481260391108" fill="none" instance-id="-1" semantic-id="33" stroke="rgb(107,142,0)" stroke-width="0.1"/>
  <path d="M 6.874078066907941,31.139481260391108 L 7.367269198693066,31.25403954221224" fill="none" instance-id="-1" semantic-id="33" stroke="rgb(107,142,0)" stroke-width="0.1"/>
  <path d="M 7.367269198693066,31.25403954221224 L 7.861166781502561,31.365512723292454" fill="none" instance-id="-1" semantic-id="33" stroke="rgb(107,142,0)" stroke-width="0.1"/>
  <path d="M 7.861166781502561,31.365512723292454 L 8.355751517040062,31.473896447987045" fill="none" instance-id="-1" semantic-id="33" stroke="rgb(107,142,0)" stroke-width="0.1"/>
  <path d="M 8.355751517040062,31.473896447987045 L 8.8510040801591,31.579186481366605" fill="none" instance-id="-1" semantic-id="33" stroke="rgb(107,142,0)" stroke-width="0.1"/>
  <path d="M 8.8510040801591,31.579186481366605 L 9.346905119619805,31.681378709383466" fill="none" instance-id="-1" semantic-id="33" stroke="rgb(107,142,0)" stroke-width="0.1"/>
  <path d="M 9.346905119619805,31.681378709383466 L 9.843435258843328,31.780469139031652" fill="none" instance-id="-1" semantic-id="33" stroke="rgb(107,142,0)" stroke-width="0.1"/>
  <path d="M 9.843435258843328,31.780469139031652 L 10.340575096670136,31.87645389850354" fill="none" instance-id="-1" semantic-id="33" stroke="rgb(107,142,0)" stroke-width="0.1"/>
  <path d="M 10.340575096670136,31.87645389850354 L 10.838305208117163,31.969329237340617" fill="none" instance-id="-1" semantic-id="33" stroke="rgb(107,142,0)" stroke-width="0.1"/>
  <path d="M 10.838305208117163,31.969329237340617 L 11.336606145137921,32.059091526580346" fill="none" instance-id="-1" semantic-id="33" stroke="rgb(107,142,0)" stroke-width="0.1"/>
  <path d="M 11.336606145137921,32.059091526580346 L 11.835458437381249,32.14573725889784" fill="none" instance-id="-1" semantic-id="33" stroke="rgb(107,142,0)" stroke-width="0.1"/>
  <path d="M 11.835458437381249,32.14573725889784 L 12.334842592952782,32.22926304874295" fill="none" instance-id="-1" semantic-id="33" stroke="rgb(107,142,0)" stroke-width="0.1"/>
  <path d="M 12.334842592952782,32.22926304874295 L 12.834739099176659,32.3096656324725" fill="none" instance-id="-1" semantic-id="33" stroke="rgb(107,142,0)" stroke-width="0.1"/>
  <path d="M 12.834739099176659,32.3096656324725 L 13.335128423357446,32.38694186847795" fill="none" instance-id="-1" semantic-id="33" stroke="rgb(107,142,0)" stroke-width="0.1"/>
  <path d="M 13.335128423357446,32.38694186847795 L 13.835991013543662,32.461088737307705" fill="none" instance-id="-1" semantic-id="33" stroke="rgb(107,142,0)" stroke-width="0.1"/>
  <path d="M 13.835991013543662,32.461088737307705 L 14.337307299291524,32.53210334178607" fill="none" instance-id="-1" semantic-id="33" stroke="rgb(107,142,0)" stroke-width="0.1"/>
  <path d="M 14.337307299291524,32.53210334178607 L 14.83905769243006,32.59998290712508" fill="none" instance-id="-1" semantic-id="33" stroke="rgb(107,142,0)" stroke-width="0.1"/>
  <path d="M 14.83905769243006,32.59998290712508 L 15.341222587825769,32.66472478103424" fill="none" instance-id="-1" semantic-id="33" stroke="rgb(107,142,0)" stroke-width="0.1"/>
  <path d="M 15.341222587825769,32.66472478103424 L 15.843782364150002,32.72632643382315" fill="none" instance-id="-1" semantic-id="33" stroke="rgb(107,142,0)" stroke-width="0.1"/>
  <path d="M 15.843782364150002,32.72632643382315 L 16.346717384643625,32.784785458501005" fill="none" instance-id="-1" semantic-id="33" stroke="rgb(107,142,0)" stroke-width="0.1"/>
  <path d="M 16.346717384643625,32.784785458501005 L 16.850007997885996,32.84009957087039" fill="none" instance-id="-1" semantic-id="33" stroke="rgb(107,142,0)" stroke-width="0.1"/>
  <path d="M 16.850007997885996,32.84009957087039 L 17.353634538562574,32.89226660961663" fill="none" instance-id="-1" semantic-id="33" stroke="rgb(107,142,0)" stroke-width="0.1"/>
  <path d="M 17.353634538562574,32.89226660961663 L 17.857577328232082,32.94128453639189" fill="none" instance-id="-1" semantic-id="33" stroke="rgb(107,142,0)" stroke-width="0.1"/>
  <path d="M 17.857577328232082,32.94128453639189 L 18.36181667609685,32.98715143589527" fill="none" instance-id="-1" semantic-id="33" stroke="rgb(107,142,0)" stroke-width="0.1"/>
  <path d="M 18.36181667609685,32.98715143589527 L 18.86633287977179,33.02986551594756" fill="none" instance-id="-1" semantic-id="33" stroke="rgb(107,142,0)" stroke-width="0.1"/>
  <path d="M 18.86633287977179,33.02986551594756 L 19.371106226053598,33.06942510756096" fill="none" instance-id="-1" semantic-id="33" stroke="rgb(107,142,0)" stroke-width="0.1"/>
  <path d="M 19.371106226053598,33.06942510756096 L 19.876116991692015,33.105828665004765" fill="none" instance-id="-1" semantic-id="33" stroke="rgb(107,142,0)" stroke-width="0.1"/>
  <path d="M 19.876116991692015,33.105828665004765 L 20.381345444159706,33.13907476586519" fill="none" instance-id="-1" semantic-id="33" stroke="rgb(107,142,0)" stroke-width="0.1"/>
  <path d="M 20.381345444159706,33.13907476586519 L 20.886771842423514,33.16916211110163" fill="none" instance-id="-1" semantic-id="33" stroke="rgb(107,142,0)" stroke-width="0.1"/>
  <path d="M 20.886771842423514,33.16916211110163 L 21.39237643771571,33.19608952509657" fill="none" instance-id="-1" semantic-id="33" stroke="rgb(107,142,0)" stroke-width="0.1"/>
  <path d="M 21.39237643771571,33.19608952509657 L 21.898139474306618,33.21985595570254" fill="none" instance-id="-1" semantic-id="33" stroke="rgb(107,142,0)" stroke-width="0.1"/>
  <path d="M 21.898139474306618,33.21985595570254 L 22.404041190274484,33.24046047428226" fill="none" instance-id="-1" semantic-id="33" stroke="rgb(107,142,0)" stroke-width="0.1"/>
  <path d="M 22.404041190274484,33.24046047428226 L 22.910061818279928,33.257902275745664" fill="none" instance-id="-1" semantic-id="33" stroke="rgb(107,142,0)" stroke-width="0.1"/>
  <path d="M 22.910061818279928,33.257902275745664 L 23.416181586336506,33.27218067858075" fill="none" instance-id="-1" semantic-id="33" stroke="rgb(107,142,0)" stroke-width="0.1"/>
  <path d="M 23.416181586336506,33.27218067858075 L 23.92238071858469,33.28329512488074" fill="none" instance-id="-1" semantic-id="33" stroke="rgb(107,142,0)" stroke-width="0.1"/>
  <path d="M 23.92238071858469,33.28329512488074 L 24.428639436063122,33.291245180365536" fill="none" instance-id="-1" semantic-id="33" stroke="rgb(107,142,0)" stroke-width="0.1"/>
  <path d="M 24.428639436063122,33.291245180365536 L 24.934937957483044,33.29603053439871" fill="none" instance-id="-1" semantic-id="33" stroke="rgb(107,142,0)" stroke-width="0.1"/>
  <path d="M 24.934937957483044,33.29603053439871 L 25.44125650000001,33.29765099999997" fill="none" instance-id="-1" semantic-id="33" stroke="rgb(107,142,0)" stroke-width="0.1"/>
  <path d="M 97.0912565000001,4.147650999999996 L 97.0912565000001,12.297650999999973" fill="none" instance-id="-1" semantic-id="33" stroke="rgb(107,142,0)" stroke-width="0.1"/>
  <path d="M 77.0912565000001,32.29765099999997 A 20.0,20.0 0.0 0,0 97.0912565000001,12.297650999999973" fill="none" instance-id="-1" semantic-id="33" stroke="rgb(107,142,0)" stroke-width="0.1"/>
  <path d="M 77.0912565000001,32.29765099999997 L 25.44125650000001,32.29765099999997" fill="none" instance-id="-1" semantic-id="33" stroke="rgb(107,142,0)" stroke-width="0.1"/>
  <path d="M 0.3703346873503506,28.265025024621764 L 0.84563615245861,28.420290285822034" fill="none" instance-id="-1" semantic-id="33" stroke="rgb(107,142,0)" stroke-width="0.1"/>
  <path d="M 0.84563615245861,28.420290285822034 L 1.3218987732370806,28.572581783020496" fill="none" instance-id="-1" semantic-id="33" stroke="rgb(107,142,0)" stroke-width="0.1"/>
  <path d="M 1.3218987732370806,28.572581783020496 L 1.799103944279068,28.721893566883637" fill="none" instance-id="-1" semantic-id="33" stroke="rgb(107,142,0)" stroke-width="0.1"/>
  <path d="M 1.799103944279068,28.721893566883637 L 2.277233023357212,28.868219804481555" fill="none" instance-id="-1" semantic-id="33" stroke="rgb(107,142,0)" stroke-width="0.1"/>
  <path d="M 2.277233023357212,28.868219804481555 L 2.7562673321508555,29.011554779516132" fill="none" instance-id="-1" semantic-id="33" stroke="rgb(107,142,0)" stroke-width="0.1"/>
  <path d="M 2.7562673321508555,29.011554779516132 L 3.2361881569765956,29.15189289254431" fill="none" instance-id="-1" semantic-id="33" stroke="rgb(107,142,0)" stroke-width="0.1"/>
  <path d="M 3.2361881569765956,29.15189289254431 L 3.7169767495183805,29.289228661196603" fill="none" instance-id="-1" semantic-id="33" stroke="rgb(107,142,0)" stroke-width="0.1"/>
  <path d="M 3.7169767495183805,29.289228661196603 L 4.19861432756079,29.423556720391502" fill="none" instance-id="-1" semantic-id="33" stroke="rgb(107,142,0)" stroke-width="0.1"/>
  <path d="M 4.19861432756079,29.423556720391502 L 4.6810820757223155,29.554871822544897" fill="none" instance-id="-1" semantic-id="33" stroke="rgb(107,142,0)" stroke-width="0.1"/>
  <path d="M 4.6810820757223155,29.554871822544897 L 5.164361146190686,29.683168837775156" fill="none" instance-id="-1" semantic-id="33" stroke="rgb(107,142,0)" stroke-width="0.1"/>
  <path d="M 5.164361146190686,29.683168837775156 L 5.648432659458422,29.808442754103567" fill="none" instance-id="-1" semantic-id="33" stroke="rgb(107,142,0)" stroke-width="0.1"/>
  <path d="M 5.648432659458422,29.808442754103567 L 6.133277705061573,29.930688677650323" fill="none" instance-id="-1" semantic-id="33" stroke="rgb(107,142,0)" stroke-width="0.1"/>
  <path d="M 6.133277705061573,29.930688677650323 L 6.618877342317319,30.049901832824958" fill="none" instance-id="-1" semantic-id="33" stroke="rgb(107,142,0)" stroke-width="0.1"/>
  <path d="M 6.618877342317319,30.049901832824958 L 7.10521260106475,30.166077562513806" fill="none" instance-id="-1" semantic-id="33" stroke="rgb(107,142,0)" stroke-width="0.1"/>
  <path d="M 7.10521260106475,30.166077562513806 L 7.592264482405199,30.279211328261567" fill="none" instance-id="-1" semantic-id="33" stroke="rgb(107,142,0)" stroke-width="0.1"/>
  <path d="M 7.592264482405199,30.279211328261567 L 8.080013959445523,30.389298710448315" fill="none" instance-id="-1" semantic-id="33" stroke="rgb(107,142,0)" stroke-width="0.1"/>
  <path d="M 8.080013959445523,30.389298710448315 L 8.568441978039573,30.496335408462528" fill="none" instance-id="-1" semantic-id="33" stroke="rgb(107,142,0)" stroke-width="0.1"/>
  <path d="M 8.568441978039573,30.496335408462528 L 9.057529457534883,30.60031724086923" fill="none" instance-id="-1" semantic-id="33" stroke="rgb(107,142,0)" stroke-width="0.1"/>
  <path d="M 9.057529457534883,30.60031724086923 L 9.547257291515962,30.701240145572797" fill="none" instance-id="-1" semantic-id="33" stroke="rgb(107,142,0)" stroke-width="0.1"/>
  <path d="M 9.547257291515962,30.701240145572797 L 10.037606348552117,30.799100179975994" fill="none" instance-id="-1" semantic-id="33" stroke="rgb(107,142,0)" stroke-width="0.1"/>
  <path d="M 10.037606348552117,30.799100179975994 L 10.528557472944158,30.893893521134146" fill="none" instance-id="-1" semantic-id="33" stroke="rgb(107,142,0)" stroke-width="0.1"/>
  <path d="M 10.528557472944158,30.893893521134146 L 11.020091485472676,30.98561646590406" fill="none" instance-id="-1" semantic-id="33" stroke="rgb(107,142,0)" stroke-width="0.1"/>
  <path d="M 11.020091485472676,30.98561646590406 L 11.5121891841477,31.074265431088975" fill="none" instance-id="-1" semantic-id="33" stroke="rgb(107,142,0)" stroke-width="0.1"/>
  <path d="M 11.5121891841477,31.074265431088975 L 12.004831344958575,31.15983695357852" fill="none" instance-id="-1" semantic-id="33" stroke="rgb(107,142,0)" stroke-width="0.1"/>
  <path d="M 12.004831344958575,31.15983695357852 L 12.49799872262497,31.24232769048399" fill="none" instance-id="-1" semantic-id="33" stroke="rgb(107,142,0)" stroke-width="0.1"/>
  <path d="M 12.49799872262497,31.24232769048399 L 12.991672051349042,31.321734419268864" fill="none" instance-id="-1" semantic-id="33" stroke="rgb(107,142,0)" stroke-width="0.1"/>
  <path d="M 12.991672051349042,31.321734419268864 L 13.485832045566895,31.398054037874658" fill="none" instance-id="-1" semantic-id="33" stroke="rgb(107,142,0)" stroke-width="0.1"/>
  <path d="M 13.485832045566895,31.398054037874658 L 13.980459400703921,31.47128356484245" fill="none" instance-id="-1" semantic-id="33" stroke="rgb(107,142,0)" stroke-width="0.1"/>
  <path d="M 13.980459400703921,31.47128356484245 L 14.475534793926954,31.541420139428624" fill="none" instance-id="-1" semantic-id="33" stroke="rgb(107,142,0)" stroke-width="0.1"/>
  <path d="M 14.475534793926954,31.541420139428624 L 14.971038884900508,31.60846102171763" fill="none" instance-id="-1" semantic-id="33" stroke="rgb(107,142,0)" stroke-width="0.1"/>
  <path d="M 14.971038884900508,31.60846102171763 L 15.466952316541665,31.672403592728188" fill="none" instance-id="-1" semantic-id="33" stroke="rgb(107,142,0)" stroke-width="0.1"/>
  <path d="M 15.466952316541665,31.672403592728188 L 15.963255715776768,31.733245354515816" fill="none" instance-id="-1" semantic-id="33" stroke="rgb(107,142,0)" stroke-width="0.1"/>
  <path d="M 15.963255715776768,31.733245354515816 L 16.459929694297216,31.79098393027084" fill="none" instance-id="-1" semantic-id="33" stroke="rgb(107,142,0)" stroke-width="0.1"/>
  <path d="M 16.459929694297216,31.79098393027084 L 16.956954849318436,31.845617064410476" fill="none" instance-id="-1" semantic-id="33" stroke="rgb(107,142,0)" stroke-width="0.1"/>
  <path d="M 16.956954849318436,31.845617064410476 L 17.454311764336126,31.89714262266773" fill="none" instance-id="-1" semantic-id="33" stroke="rgb(107,142,0)" stroke-width="0.1"/>
  <path d="M 17.454311764336126,31.89714262266773 L 17.95198100988614,31.945558592174052" fill="none" instance-id="-1" semantic-id="33" stroke="rgb(107,142,0)" stroke-width="0.1"/>
  <path d="M 17.95198100988614,31.945558592174052 L 18.449943144303234,31.990863081538805" fill="none" instance-id="-1" semantic-id="33" stroke="rgb(107,142,0)" stroke-width="0.1"/>
  <path d="M 18.449943144303234,31.990863081538805 L 18.948178714479354,32.03305432092213" fill="none" instance-id="-1" semantic-id="33" stroke="rgb(107,142,0)" stroke-width="0.1"/>
  <path d="M 18.948178714479354,32.03305432092213 L 19.4466682566258,32.07213066210511" fill="none" instance-id="-1" semantic-id="33" stroke="rgb(107,142,0)" stroke-width="0.1"/>
  <path d="M 19.4466682566258,32.07213066210511 L 19.94539229703173,32.1080905785534" fill="none" instance-id="-1" semantic-id="33" stroke="rgb(107,142,0)" stroke-width="0.1"/>
  <path d="M 19.94539229703173,32.1080905785534 L 20.444331352825202,32.140932665477294" fill="none" instance-id="-1" semantic-id="33" stroke="rgb(107,142,0)" stroke-width="0.1"/>
  <path d="M 20.444331352825202,32.140932665477294 L 20.943465932735307,32.17065563988615" fill="none" instance-id="-1" semantic-id="33" stroke="rgb(107,142,0)" stroke-width="0.1"/>
  <path d="M 20.943465932735307,32.17065563988615 L 21.442776537852296,32.19725834063934" fill="none" instance-id="-1" semantic-id="33" stroke="rgb(107,142,0)" stroke-width="0.1"/>
  <path d="M 21.442776537852296,32.19725834063934 L 21.942243662390183,32.220739728490685" fill="none" instance-id="-1" semantic-id="33" stroke="rgb(107,142,0)" stroke-width="0.1"/>
  <path d="M 21.942243662390183,32.220739728490685 L 22.441847794448677,32.24109888612941" fill="none" instance-id="-1" semantic-id="33" stroke="rgb(107,142,0)" stroke-width="0.1"/>
  <path d="M 22.441847794448677,32.24109888612941 L 22.941569416774882,32.25833501821637" fill="none" instance-id="-1" semantic-id="33" stroke="rgb(107,142,0)" stroke-width="0.1"/>
  <path d="M 22.941569416774882,32.25833501821637 L 23.44138900752614,32.27244745141434" fill="none" instance-id="-1" semantic-id="33" stroke="rgb(107,142,0)" stroke-width="0.1"/>
  <path d="M 23.44138900752614,32.27244745141434 L 23.941287041033092,32.28343563441524" fill="none" instance-id="-1" semantic-id="33" stroke="rgb(107,142,0)" stroke-width="0.1"/>
  <path d="M 23.941287041033092,32.28343563441524 L 24.441243988561155,32.29129913796078" fill="none" instance-id="-1" semantic-id="33" stroke="rgb(107,142,0)" stroke-width="0.1"/>
  <path d="M 24.441243988561155,32.29129913796078 L 24.94124031907495,32.296037654859674" fill="none" instance-id="-1" semantic-id="33" stroke="rgb(107,142,0)" stroke-width="0.1"/>
  <path d="M 24.94124031907495,32.296037654859674 L 25.44125650000001,32.29765099999997" fill="none" instance-id="-1" semantic-id="33" stroke="rgb(107,142,0)" stroke-width="0.1"/>
  <path d="M 97.0912565000001,4.147650999999996 L 97.0912565000001,0.0" fill="none" instance-id="-1" semantic-id="33" stroke="rgb(107,142,0)" stroke-width="0.1"/>
  <path d="M 98.0912565000001,4.147650999999996 L 98.0912565000001,0.0" fill="none" instance-id="-1" semantic-id="33" stroke="rgb(107,142,0)" stroke-width="0.1"/>
 </g>
 <g id="layerA-HATCH" inkscape:groupmode="layer" inkscape:label="A-HATCH">
  <path d="M 16.0912565000001,99.29765099999997 L 18.0912565000001,99.29765099999997" fill="none" stroke="rgb(92,92,92)" stroke-width="0.1"/>
  <path d="M 16.0912565000001,97.85765100000003 L 18.0912565000001,97.85765100000003" fill="none" stroke="rgb(92,92,92)" stroke-width="0.1"/>
  <path d="M 16.0912565000001,96.41765099999998 L 18.0912565000001,96.41765099999998" fill="none" stroke="rgb(92,92,92)" stroke-width="0.1"/>
  <path d="M 16.0912565000001,94.97765100000004 L 18.0912565000001,94.97765100000004" fill="none" stroke="rgb(92,92,92)" stroke-width="0.1"/>
  <path d="M 16.0912565000001,93.53765099999998 L 18.0912565000001,93.53765099999998" fill="none" stroke="rgb(92,92,92)" stroke-width="0.1"/>
  <path d="M 16.0912565000001,92.09765100000004 L 18.0912565000001,92.09765100000004" fill="none" stroke="rgb(92,92,92)" stroke-width="0.1"/>
  <path d="M 16.0912565000001,90.65765099999999 L 18.0912565000001,90.65765099999999" fill="none" stroke="rgb(92,92,92)" stroke-width="0.1"/>
  <path d="M 16.0912565000001,89.21765100000005 L 18.0912565000001,89.21765100000005" fill="none" stroke="rgb(92,92,92)" stroke-width="0.1"/>
  <path d="M 16.0912565000001,87.77765099999999 L 18.0912565000001,87.77765099999999" fill="none" stroke="rgb(92,92,92)" stroke-width="0.1"/>
  <path d="M 16.0912565000001,86.33765100000005 L 18.0912565000001,86.33765100000005" fill="none" stroke="rgb(92,92,92)" stroke-width="0.1"/>
  <path d="M 16.0912565000001,84.897651 L 18.0912565000001,84.897651" fill="none" stroke="rgb(92,92,92)" stroke-width="0.1"/>
  <path d="M 16.0912565000001,83.45765100000006 L 18.0912565000001,83.45765100000006" fill="none" stroke="rgb(92,92,92)" stroke-width="0.1"/>
  <path d="M 16.0912565000001,82.017651 L 18.0912565000001,82.017651" fill="none" stroke="rgb(92,92,92)" stroke-width="0.1"/>
  <path d="M 96.24125649999996,79.33665100000007 L 96.49125649999996,81.320651" fill="none" stroke="rgb(92,92,92)" stroke-width="0.1"/>
  <path d="M 97.67125650000003,79.15365099999997 L 97.93125650000002,81.137651" fill="none" stroke="rgb(92,92,92)" stroke-width="0.1"/>
  <path d="M 99.11125650000008,78.97065099999998 L 99.36125650000008,80.95465100000001" fill="none" stroke="rgb(92,92,92)" stroke-width="0.1"/>
  <path d="M 16.781256499999927,75.19465100000002 L 16.651256500000045,75.73165100000006" fill="none" stroke="rgb(92,92,92)" stroke-width="0.1"/>
  <path d="M 18.141256500000054,75.51565100000005 L 17.761256499999945,77.142651" fill="none" stroke="rgb(92,92,92)" stroke-width="0.1"/>
  <path d="M 19.511256499999945,75.82865100000004 L 19.071256500000118,77.77965100000006" fill="none" stroke="rgb(92,92,92)" stroke-width="0.1"/>
  <path d="M 20.881256500000063,76.13165100000003 L 20.4512565,78.08565099999998" fill="none" stroke="rgb(92,92,92)" stroke-width="0.1"/>
  <path d="M 22.251256499999954,76.42665099999999 L 21.8412565000001,78.38265100000001" fill="none" stroke="rgb(92,92,92)" stroke-width="0.1"/>
  <path d="M 23.631256500000063,76.71265100000005 L 23.22125649999998,78.671651" fill="none" stroke="rgb(92,92,92)" stroke-width="0.1"/>
  <path d="M 25.001256499999954,76.98965099999998 L 24.61125650000008,78.95165099999997" fill="none" stroke="rgb(92,92,92)" stroke-width="0.1"/>
  <path d="M 26.381256500000063,77.25765100000001 L 26.001256499999954,79.22165100000007" fill="none" stroke="rgb(92,92,92)" stroke-width="0.1"/>
  <path d="M 27.761256499999945,77.517651 L 27.391256500000054,79.48365100000001" fill="none" stroke="rgb(92,92,92)" stroke-width="0.1"/>
  <path d="M 29.141256500000054,77.767651 L 28.791256499999918,79.73665100000005" fill="none" stroke="rgb(92,92,92)" stroke-width="0.1"/>
  <path d="M 30.521256499999936,78.00965100000008 L 30.181256500000018,79.98065099999997" fill="none" stroke="rgb(92,92,92)" stroke-width="0.1"/>
  <path d="M 31.901256500000045,78.24265100000002 L 31.58125650000011,80.21665100000007" fill="none" stroke="rgb(92,92,92)" stroke-width="0.1"/>
  <path d="M 33.29125649999992,78.46765100000005 L 32.98125649999997,80.44265100000007" fill="none" stroke="rgb(92,92,92)" stroke-width="0.1"/>
  <path d="M 34.68125650000002,78.68265100000008 L 34.38125650000006,80.66065100000003" fill="none" stroke="rgb(92,92,92)" stroke-width="0.1"/>
  <path d="M 36.06125650000013,78.88965100000007 L 35.78125649999993,80.868651" fill="none" stroke="rgb(92,92,92)" stroke-width="0.1"/>
  <path d="M 37.4512565,79.08765100000005 L 37.18125650000002,81.06865100000005" fill="none" stroke="rgb(92,92,92)" stroke-width="0.1"/>
  <path d="M 38.8412565000001,79.27665100000002 L 38.58125650000011,81.25865099999999" fill="none" stroke="rgb(92,92,92)" stroke-width="0.1"/>
  <path d="M 40.24125649999996,79.45665100000008 L 39.99125649999996,81.440651" fill="none" stroke="rgb(92,92,92)" stroke-width="0.1"/>
  <path d="M 41.63125650000006,79.62765100000001 L 41.391256500000054,81.613651" fill="none" stroke="rgb(92,92,92)" stroke-width="0.1"/>
  <path d="M 43.021256499999936,79.78965100000005 L 42.801256500000136,81.77665100000002" fill="none" stroke="rgb(92,92,92)" stroke-width="0.1"/>
  <path d="M 44.42125650000003,79.94265100000007 L 44.2012565,81.93165099999999" fill="none" stroke="rgb(92,92,92)" stroke-width="0.1"/>
  <path d="M 45.81125650000013,80.08765100000005 L 45.61125650000008,82.07765100000006" fill="none" stroke="rgb(92,92,92)" stroke-width="0.1"/>
  <path d="M 47.21125649999999,80.22265100000004 L 47.021256499999936,82.214651" fill="none" stroke="rgb(92,92,92)" stroke-width="0.1"/>
  <path d="M 48.61125650000008,80.349651 L 48.43125650000002,82.34165100000007" fill="none" stroke="rgb(92,92,92)" stroke-width="0.1"/>
  <path d="M 50.011256499999945,80.46765100000005 L 49.8412565000001,82.46065099999998" fill="none" stroke="rgb(92,92,92)" stroke-width="0.1"/>
  <path d="M 51.401256500000045,80.57665099999997 L 51.261256499999945,82.570651" fill="none" stroke="rgb(92,92,92)" stroke-width="0.1"/>
  <path d="M 52.801256500000136,80.67565100000002 L 52.67125650000003,82.671651" fill="none" stroke="rgb(92,92,92)" stroke-width="0.1"/>
  <path d="M 54.2012565,80.76665100000002 L 54.08125650000011,82.76365099999998" fill="none" stroke="rgb(92,92,92)" stroke-width="0.1"/>
  <path d="M 55.61125650000008,80.84865100000002 L 55.49125649999996,82.84565099999998" fill="none" stroke="rgb(92,92,92)" stroke-width="0.1"/>
  <path d="M 57.011256499999945,80.921651 L 56.911256500000036,82.91965100000004" fill="none" stroke="rgb(92,92,92)" stroke-width="0.1"/>
  <path d="M 58.411256500000036,80.98665100000005 L 58.32125650000012,82.98465099999999" fill="none" stroke="rgb(92,92,92)" stroke-width="0.1"/>
  <path d="M 59.81125650000013,81.041651 L 59.74125649999996,83.04065100000003" fill="none" stroke="rgb(92,92,92)" stroke-width="0.1"/>
  <path d="M 61.21125649999999,81.08765100000005 L 61.151256500000045,83.08665100000007" fill="none" stroke="rgb(92,92,92)" stroke-width="0.1"/>
  <path d="M 62.62125650000007,81.12465099999997 L 62.57125650000012,83.12465099999997" fill="none" stroke="rgb(92,92,92)" stroke-width="0.1"/>
  <path d="M 64.02125649999994,81.15365099999997 L 63.98125649999997,83.15265099999999" fill="none" stroke="rgb(92,92,92)" stroke-width="0.1"/>
  <path d="M 65.42125650000003,81.17265099999997 L 65.40125650000004,83.17265099999997" fill="none" stroke="rgb(92,92,92)" stroke-width="0.1"/>
  <path d="M 66.82125650000012,81.18365100000005 L 66.82125650000012,83.18365100000005" fill="none" stroke="rgb(92,92,92)" stroke-width="0.1"/>
  <path d="M 68.23125649999997,81.18465100000003 L 68.23125649999997,83.18465100000003" fill="none" stroke="rgb(92,92,92)" stroke-width="0.1"/>
  <path d="M 69.63125650000006,81.17765099999997 L 69.65125650000004,83.17765099999997" fill="none" stroke="rgb(92,92,92)" stroke-width="0.1"/>
  <path d="M 71.03125649999993,81.16065100000003 L 71.06125650000013,83.16065100000003" fill="none" stroke="rgb(92,92,92)" stroke-width="0.1"/>
  <path d="M 72.44125650000001,81.13565100000005 L 72.48125649999997,83.13565100000005" fill="none" stroke="rgb(92,92,92)" stroke-width="0.1"/>
  <path d="M 73.8412565000001,81.10165100000006 L 73.90125650000004,83.10065099999997" fill="none" stroke="rgb(92,92,92)" stroke-width="0.1"/>
  <path d="M 75.24125649999996,81.05765100000008 L 75.31125650000013,83.05665099999999" fill="none" stroke="rgb(92,92,92)" stroke-width="0.1"/>
  <path d="M 76.65125650000004,81.00565100000006 L 76.73125649999997,83.00465099999997" fill="none" stroke="rgb(92,92,92)" stroke-width="0.1"/>
  <path d="M 78.05125650000014,80.94465100000002 L 78.14125650000005,82.94265100000007" fill="none" stroke="rgb(92,92,92)" stroke-width="0.1"/>
  <path d="M 79.4512565,80.87465099999997 L 79.55125650000014,82.87165100000004" fill="none" stroke="rgb(92,92,92)" stroke-width="0.1"/>
  <path d="M 80.85125650000009,80.79565100000002 L 80.97125649999998,82.79265099999998" fill="none" stroke="rgb(92,92,92)" stroke-width="0.1"/>
  <path d="M 82.25125649999995,80.70765100000006 L 82.38125650000006,82.70365100000004" fill="none" stroke="rgb(92,92,92)" stroke-width="0.1"/>
  <path d="M 83.65125650000004,80.61065100000008 L 83.79125649999992,82.60565099999997" fill="none" stroke="rgb(92,92,92)" stroke-width="0.1"/>
  <path d="M 85.05125650000014,80.50465099999997 L 85.21125649999999,82.498651" fill="none" stroke="rgb(92,92,92)" stroke-width="0.1"/>
  <path d="M 86.4512565,80.39065100000005 L 86.62125650000007,82.38365099999999" fill="none" stroke="rgb(92,92,92)" stroke-width="0.1"/>
  <path d="M 87.85125650000009,80.26665100000002 L 88.03125649999993,82.25865099999999" fill="none" stroke="rgb(92,92,92)" stroke-width="0.1"/>
  <path d="M 89.24125649999996,80.13465100000008 L 89.44125650000001,82.12465099999997" fill="none" stroke="rgb(92,92,92)" stroke-width="0.1"/>
  <path d="M 90.64125650000005,79.99265100000002 L 90.85125650000009,81.98165100000006" fill="none" stroke="rgb(92,92,92)" stroke-width="0.1"/>
  <path d="M 92.03125649999993,79.84265100000005 L 92.25125649999995,81.83065099999999" fill="none" stroke="rgb(92,92,92)" stroke-width="0.1"/>
  <path d="M 93.43125650000002,79.68365100000005 L 93.66125650000004,81.66965100000004" fill="none" stroke="rgb(92,92,92)" stroke-width="0.1"/>
  <path d="M 94.82125650000012,79.51465100000007 L 95.07125650000012,81.49965099999997" fill="none" stroke="rgb(92,92,92)" stroke-width="0.1"/>
  <path d="M 16.0912565000001,80.51465100000007 L 18.0912565000001,80.51465100000007" fill="none" stroke="rgb(92,92,92)" stroke-width="0.1"/>
  <path d="M 16.0912565000001,78.94765100000006 L 18.0912565000001,78.94765100000006" fill="none" stroke="rgb(92,92,92)" stroke-width="0.1"/>
  <path d="M 16.0912565000001,77.38165100000003 L 17.9512565,77.38165100000003" fill="none" stroke="rgb(92,92,92)" stroke-width="0.1"/>
  <path d="M 16.0912565000001,75.81465100000003 L 16.71125649999999,75.81465100000003" fill="none" stroke="rgb(92,92,92)" stroke-width="0.1"/>
 </g>
 <g id="layerA-PUB_TEXT" inkscape:groupmode="layer" inkscape:label="A-PUB_TEXT">
  <text fill="rgb(0,0,0)" font-family="Noto Sans CJK SC" font-size="2" transform="rotate(-0.0,31.291256499999918,27.852651000000037)" x="31.291256499999918" y="27.852651000000037">
   中庭上空
  </text>
 </g>
 <g id="layerA-STAIR" inkscape:groupmode="layer" inkscape:label="A-STAIR">
  <path d="M 69.49125649999996,5.157650999999987 L 0.0,5.157650999999987" fill="none" stroke="rgb(107,142,0)" stroke-width="0.1"/>
  <path d="M 69.49125649999996,0.0 L 69.49125649999996,5.157650999999987" fill="none" stroke="rgb(107,142,0)" stroke-width="0.1"/>
  <path d="M 66.49125649999996,0.0 L 66.49125649999996,5.157650999999987" fill="none" stroke="rgb(107,142,0)" stroke-width="0.1"/>
  <path d="M 63.49125649999996,0.0 L 63.49125649999996,5.157650999999987" fill="none" stroke="rgb(107,142,0)" stroke-width="0.1"/>
  <path d="M 60.49125649999996,0.0 L 60.49125649999996,5.157650999999987" fill="none" stroke="rgb(107,142,0)" stroke-width="0.1"/>
  <path d="M 57.49125649999996,0.0 L 57.49125649999996,5.157650999999987" fill="none" stroke="rgb(107,142,0)" stroke-width="0.1"/>
  <path d="M 54.49125649999996,0.0 L 54.49125649999996,5.157650999999987" fill="none" stroke="rgb(107,142,0)" stroke-width="0.1"/>
  <path d="M 51.49125649999996,0.0 L 51.49125649999996,5.157650999999987" fill="none" stroke="rgb(107,142,0)" stroke-width="0.1"/>
  <path d="M 48.49125649999996,0.0 L 48.49125649999996,5.157650999999987" fill="none" stroke="rgb(107,142,0)" stroke-width="0.1"/>
  <path d="M 45.49125649999996,0.0 L 45.49125649999996,5.157650999999987" fill="none" stroke="rgb(107,142,0)" stroke-width="0.1"/>
  <path d="M 42.49125649999996,0.0 L 42.49125649999996,5.157650999999987" fill="none" stroke="rgb(107,142,0)" stroke-width="0.1"/>
  <path d="M 39.49125649999996,0.0 L 39.49125649999996,5.157650999999987" fill="none" stroke="rgb(107,142,0)" stroke-width="0.1"/>
  <path d="M 36.49125649999996,0.0 L 36.49125649999996,5.157650999999987" fill="none" stroke="rgb(107,142,0)" stroke-width="0.1"/>
  <path d="M 33.49125649999996,0.0 L 33.49125649999996,5.157650999999987" fill="none" stroke="rgb(107,142,0)" stroke-width="0.1"/>
  <path d="M 30.491256499999963,0.0 L 30.491256499999963,5.157650999999987" fill="none" stroke="rgb(107,142,0)" stroke-width="0.1"/>
  <path d="M 27.491256499999963,0.0 L 27.491256499999963,5.157650999999987" fill="none" stroke="rgb(107,142,0)" stroke-width="0.1"/>
  <path d="M 24.491256499999963,0.0 L 24.491256499999963,5.157650999999987" fill="none" stroke="rgb(107,142,0)" stroke-width="0.1"/>
  <path d="M 21.491256499999963,0.0 L 21.491256499999963,5.157650999999987" fill="none" stroke="rgb(107,142,0)" stroke-width="0.1"/>
  <path d="M 18.491256499999963,0.0 L 18.491256499999963,5.157650999999987" fill="none" stroke="rgb(107,142,0)" stroke-width="0.1"/>
  <path d="M 15.491256499999963,0.0 L 15.491256499999963,5.157650999999987" fill="none" stroke="rgb(107,142,0)" stroke-width="0.1"/>
  <path d="M 12.491256499999963,0.0 L 12.491256499999963,5.157650999999987" fill="none" stroke="rgb(107,142,0)" stroke-width="0.1"/>
  <path d="M 9.491256499999963,0.0 L 9.491256499999963,5.157650999999987" fill="none" stroke="rgb(107,142,0)" stroke-width="0.1"/>
  <path d="M 6.491256499999963,0.0 L 6.491256499999963,5.157650999999987" fill="none" stroke="rgb(107,142,0)" stroke-width="0.1"/>
  <path d="M 3.491256499999963,0.0 L 3.491256499999963,5.157650999999987" fill="none" stroke="rgb(107,142,0)" stroke-width="0.1"/>
  <path d="M 0.4912564999999631,0.0 L 0.4912564999999631,5.157650999999987" fill="none" stroke="rgb(107,142,0)" stroke-width="0.1"/>
  <path d="M 95.0912565000001,0.0 L 95.0912565000001,7.897650999999996" fill="none" stroke="rgb(107,142,0)" stroke-width="0.1"/>
  <path d="M 95.0912565000001,7.897650999999996 L 0.0,7.897650999999996" fill="none" stroke="rgb(107,142,0)" stroke-width="0.1"/>
  <path d="M 78.49125649999996,0.0 L 78.49125649999996,5.157650999999987" fill="none" stroke="rgb(107,142,0)" stroke-width="0.1"/>
  <path d="M 69.49125649999996,5.157650999999987 L 69.49125649999996,0.0" fill="none" stroke="rgb(107,142,0)" stroke-width="0.1"/>
  <path d="M 0.0,6.747651000000019 L 85.05125650000014,6.747651000000019" fill="none" stroke="rgb(107,142,0)" stroke-width="0.1"/>
  <path d="M 85.05125650000014,6.747651000000019 L 85.05125650000014,6.147650999999996" fill="none" stroke="rgb(107,142,0)" stroke-width="0.1"/>
  <path d="M 85.05125650000014,6.147650999999996 L 0.0,6.147650999999996" fill="none" stroke="rgb(107,142,0)" stroke-width="0.1"/>
  <path d="M 0.0,5.157650999999987 L 79.82125650000012,5.157650999999987" fill="none" stroke="rgb(107,142,0)" stroke-width="0.1"/>
  <path d="M 79.82125650000012,5.157650999999987 L 80.55125650000014,6.147650999999996" fill="none" stroke="rgb(107,142,0)" stroke-width="0.1"/>
  <path d="M 0.0,7.607651000000033 L 79.69125650000001,7.607651000000033" fill="none" stroke="rgb(107,142,0)" stroke-width="0.1"/>
  <path d="M 79.69125650000001,7.607651000000033 L 80.55125650000014,6.747651000000019" fill="none" stroke="rgb(107,142,0)" stroke-width="0.1"/>
 </g>
 <g id="layerA-WALL-STUD" inkscape:groupmode="layer" inkscape:label="A-WALL-STUD">
  <path d="M 16.0912565000001,100.0 L 16.0912565000001,81.29765099999997" fill="none" instance-id="-1" semantic-id="1" stroke="rgb(255,133,12)" stroke-width="0.1"/>
  <path d="M 18.0912565000001,100.0 L 18.0912565000001,81.29765099999997" fill="none" instance-id="-1" semantic-id="1" stroke="rgb(255,133,12)" stroke-width="0.1"/>
  <path d="M 95.52125649999994,79.42765099999997 L 100.0,78.85805912314527" fill="none" instance-id="-1" semantic-id="1" stroke="rgb(255,133,12)" stroke-width="0.1"/>
  <path d="M 95.77125649999994,81.411651 L 100.0,80.87385330140387" fill="none" instance-id="-1" semantic-id="1" stroke="rgb(255,133,12)" stroke-width="0.1"/>
  <path d="M 16.0912565000001,81.29765099999997 L 16.0912565000001,75.03165100000001" fill="none" instance-id="-1" semantic-id="1" stroke="rgb(255,133,12)" stroke-width="0.1"/>
  <path d="M 18.0912565000001,81.29765099999997 L 18.0912565000001,77.55765100000008" fill="none" instance-id="-1" semantic-id="1" stroke="rgb(255,133,12)" stroke-width="0.1"/>
  <path d="M 16.0912565000001,75.03165100000001 A 220.0,220.0 0.0 0,0 95.52125649999994,79.42765099999997" fill="none" instance-id="-1" semantic-id="1" stroke="rgb(255,133,12)" stroke-width="0.1"/>
  <path d="M 18.0912565000001,77.55765100000008 A 222.0,222.0 0.0 0,0 95.77125649999994,81.411651" fill="none" instance-id="-1" semantic-id="1" stroke="rgb(255,133,12)" stroke-width="0.1"/>
 </g>
 <g id="layerA-楼板开洞" inkscape:groupmode="layer" inkscape:label="A-楼板开洞">
  <path d="M 0.0,12.958084191946568 L 68.75125649999995,17.120651000000066" fill="none" stroke="rgb(107,142,0)" stroke-width="0.1"/>
  <path d="M 68.75125649999995,17.120651000000066 L 77.0912565000001,32.29765099999997" fill="none" stroke="rgb(107,142,0)" stroke-width="0.1"/>
 </g>
 <g id="layerA-自动扶梯" inkscape:groupmode="layer" inkscape:label="A-自动扶梯">
  <path d="M 0.0,11.897650999999996 L 71.49125649999996,11.897650999999996" fill="none" stroke="rgb(107,142,0)" stroke-width="0.1"/>
  <path d="M 71.49125649999996,7.897650999999996 L 71.49125649999996,11.897650999999996" fill="none" stroke="rgb(107,142,0)" stroke-width="0.1"/>
 </g>
 <g id="layerA-防火卷帘" inkscape:groupmode="layer" inkscape:label="A-防火卷帘">
  <path d="M 22.0912565000001,37.29765099999997 L 100.0,37.29765099999997" fill="none" stroke="rgb(178,0,178)" stroke-width="0.1"/>
  <path d="M 16.0912565000001,37.29765099999997 L 0.0,30.22277633604176" fill="none" stroke="rgb(178,0,178)" stroke-width="0.1"/>
 </g>
 <g id="layerA-防火卷帘编号" inkscape:groupmode="layer" inkscape:label="A-防火卷帘编号">
  <text fill="rgb(0,0,0)" font-family="Noto Sans CJK SC" font-size="2" transform="rotate(-0.0,54.4512565,47.041651)" x="54.4512565" y="47.041651">
   FHJL8434
  </text>
 </g>
</svg>