<?xml version="1.0" encoding="utf-8"?>
<svg style="background-color: #000;" version="1.1" viewBox="0 0 100.0 100.0" xmlns="http://www.w3.org/2000/svg" xmlns:inkscape="http://www.inkscape.org/namespaces/inkscape">
 <g id="layerA-ANNO-DIMS" inkscape:groupmode="layer" inkscape:label="A-ANNO-DIMS">
  <path d="M 70.0912565000001,0.0 L 70.0912565000001,6.776651000000015" fill="none" stroke="rgb(0,178,0)" stroke-width="0.1"/>
  <path d="M 93.0912565000001,0.0 L 93.0912565000001,6.776651000000015" fill="none" stroke="rgb(0,178,0)" stroke-width="0.1"/>
  <path d="M 70.0912565000001,3.0266510000000153 L 93.0912565000001,3.0266510000000153" fill="none" stroke="rgb(0,178,0)" stroke-width="0.1"/>
  <path d="M 68.0912565000001,0.0 L 68.0912565000001,6.776651000000015" fill="none" stroke="rgb(0,178,0)" stroke-width="0.1"/>
  <path d="M 70.0912565000001,0.0 L 70.0912565000001,6.776651000000015" fill="none" stroke="rgb(0,178,0)" stroke-width="0.1"/>
  <path d="M 68.0912565000001,3.0266510000000153 L 66.5912565000001,3.0266510000000153" fill="none" stroke="rgb(0,178,0)" stroke-width="0.1"/>
  <path d="M 70.0912565000001,3.0266510000000153 L 71.5912565000001,3.0266510000000153" fill="none" stroke="rgb(0,178,0)" stroke-width="0.1"/>
  <path d="M 68.0912565000001,3.0266510000000153 L 70.0912565000001,3.0266510000000153" fill="none" stroke="rgb(0,178,0)" stroke-width="0.1"/>
  <path d="M 50.0912565000001,0.0 L 50.0912565000001,6.776651000000015" fill="none" stroke="rgb(0,178,0)" stroke-width="0.1"/>
  <path d="M 68.0912565000001,0.0 L 68.0912565000001,6.776651000000015" fill="none" stroke="rgb(0,178,0)" stroke-width="0.1"/>
  <path d="M 50.0912565000001,3.0266510000000153 L 68.0912565000001,3.0266510000000153" fill="none" stroke="rgb(0,178,0)" stroke-width="0.1"/>
  <path d="M 48.0912565000001,0.0 L 48.0912565000001,6.776651000000015" fill="none" stroke="rgb(0,178,0)" stroke-width="0.1"/>
  <path d="M 50.0912565000001,0.0 L 50.0912565000001,6.776651000000015" fill="none" stroke="rgb(0,178,0)" stroke-width="0.1"/>
  <path d="M 48.0912565000001,3.0266510000000153 L 46.5912565000001,3.0266510000000153" fill="none" stroke="rgb(0,178,0)" stroke-width="0.1"/>
  <path d="M 50.0912565000001,3.0266510000000153 L 51.5912565000001,3.0266510000000153" fill="none" stroke="rgb(0,178,0)" stroke-width="0.1"/>
  <path d="M 48.0912565000001,3.0266510000000153 L 50.0912565000001,3.0266510000000153" fill="none" stroke="rgb(0,178,0)" stroke-width="0.1"/>
  <text fill="rgb(0,178,0)" font-family="Noto Sans CJK SC" font-size="2" transform="rotate(-0.0,75.5912565000001,1.5266510000000153)" x="75.5912565000001" y="1.5266510000000153">
   2300
  </text>
  <text fill="rgb(0,178,0)" font-family="Noto Sans CJK SC" font-size="2" transform="rotate(-0.0,64.5912565000001,1.5266510000000153)" x="64.5912565000001" y="1.5266510000000153">
   200
  </text>
  <text fill="rgb(0,178,0)" font-family="Noto Sans CJK SC" font-size="2" transform="rotate(-0.0,52.87125650000007,1.5266510000000153)" x="52.87125650000007" y="1.5266510000000153">
   1800
  </text>
  <text fill="rgb(0,178,0)" font-family="Noto Sans CJK SC" font-size="2" transform="rotate(-0.0,39.261256499999945,1.1326510000000098)" x="39.261256499999945" y="1.1326510000000098">
   200
  </text>
 </g>
 <g id="layerA-DOTE" inkscape:groupmode="layer" inkscape:label="A-DOTE">
  <path d="M 69.0912565000001,100.0 L 69.0912565000001,0.0" fill="none" stroke="rgb(107,53,53)" stroke-width="0.1"/>
  <path d="M 0.0,67.29765099999997 L 100.0,67.29765099999997" fill="none" stroke="rgb(107,53,53)" stroke-width="0.1"/>
 </g>
 <g id="layerA-FLOR-HRAL" inkscape:groupmode="layer" inkscape:label="A-FLOR-HRAL">
  <path d="M 48.42125650000003,76.29765099999997 L 47.92012296391954,76.30028125690035" fill="none" stroke="rgb(107,142,0)" stroke-width="0.1"/>
  <path d="M 47.92012296391954,76.30028125690035 L 47.41904782139636,76.30837080454262" fill="none" stroke="rgb(107,142,0)" stroke-width="0.1"/>
  <path d="M 47.41904782139636,76.30837080454262 L 46.918090543546896,76.32191868280233" fill="none" stroke="rgb(107,142,0)" stroke-width="0.1"/>
  <path d="M 46.918090543546896,76.32191868280233 L 46.417310587498605,76.34092328372219" fill="none" stroke="rgb(107,142,0)" stroke-width="0.1"/>
  <path d="M 46.417310587498605,76.34092328372219 L 45.91676738933347,76.36538235170269" fill="none" stroke="rgb(107,142,0)" stroke-width="0.1"/>
  <path d="M 45.91676738933347,76.36538235170269 L 45.416520357033505,76.39529298376988" fill="none" stroke="rgb(107,142,0)" stroke-width="0.1"/>
  <path d="M 45.416520357033505,76.39529298376988 L 44.91662886342897,76.43065162991991" fill="none" stroke="rgb(107,142,0)" stroke-width="0.1"/>
  <path d="M 44.91662886342897,76.43065162991991 L 44.417152239152756,76.47145409354039" fill="none" stroke="rgb(107,142,0)" stroke-width="0.1"/>
  <path d="M 44.417152239152756,76.47145409354039 L 43.9181497655984,76.51769553190843" fill="none" stroke="rgb(107,142,0)" stroke-width="0.1"/>
  <path d="M 43.9181497655984,76.51769553190843 L 43.41968066788331,76.56937045676523" fill="none" stroke="rgb(107,142,0)" stroke-width="0.1"/>
  <path d="M 43.41968066788331,76.56937045676523 L 42.92180410782066,76.62647273496805" fill="none" stroke="rgb(107,142,0)" stroke-width="0.1"/>
  <path d="M 42.92180410782066,76.62647273496805 L 42.424579176896714,76.68899558921737" fill="none" stroke="rgb(107,142,0)" stroke-width="0.1"/>
  <path d="M 42.424579176896714,76.68899558921737 L 41.92806488925817,76.75693159886191" fill="none" stroke="rgb(107,142,0)" stroke-width="0.1"/>
  <path d="M 41.92806488925817,76.75693159886191 L 41.432320174707,76.83027270077889" fill="none" stroke="rgb(107,142,0)" stroke-width="0.1"/>
  <path d="M 41.432320174707,76.83027270077889 L 40.937403871707374,76.90901019033129" fill="none" stroke="rgb(107,142,0)" stroke-width="0.1"/>
  <path d="M 40.937403871707374,76.90901019033129 L 40.443374720401835,76.99313472240101" fill="none" stroke="rgb(107,142,0)" stroke-width="0.1"/>
  <path d="M 40.443374720401835,76.99313472240101 L 39.95029135563891,77.08263631249781" fill="none" stroke="rgb(107,142,0)" stroke-width="0.1"/>
  <path d="M 39.95029135563891,77.08263631249781 L 39.45821230001502,77.17750433794436" fill="none" stroke="rgb(107,142,0)" stroke-width="0.1"/>
  <path d="M 39.45821230001502,77.17750433794436 L 38.96719595692821,77.27772753913735" fill="none" stroke="rgb(107,142,0)" stroke-width="0.1"/>
  <path d="M 38.96719595692821,77.27772753913735 L 38.47730060364597,77.38329402088345" fill="none" stroke="rgb(107,142,0)" stroke-width="0.1"/>
  <path d="M 38.47730060364597,77.38329402088345 L 37.988584384389014,77.49419125381132" fill="none" stroke="rgb(107,142,0)" stroke-width="0.1"/>
  <path d="M 37.988584384389014,77.49419125381132 L 37.50110530343045,77.61040607585835" fill="none" stroke="rgb(107,142,0)" stroke-width="0.1"/>
  <path d="M 37.50110530343045,77.61040607585835 L 37.014921218210475,77.73192469383366" fill="none" stroke="rgb(107,142,0)" stroke-width="0.1"/>
  <path d="M 37.014921218210475,77.73192469383366 L 36.530089832470594,77.85873268505418" fill="none" stroke="rgb(107,142,0)" stroke-width="0.1"/>
  <path d="M 36.530089832470594,77.85873268505418 L 36.04666868940444,77.99081499905708" fill="none" stroke="rgb(107,142,0)" stroke-width="0.1"/>
  <path d="M 36.04666868940444,77.99081499905708 L 35.56471516482793,78.12815595938571" fill="none" stroke="rgb(107,142,0)" stroke-width="0.1"/>
  <path d="M 35.56471516482793,78.12815595938571 L 35.08428646036964,78.27073926545063" fill="none" stroke="rgb(107,142,0)" stroke-width="0.1"/>
  <path d="M 35.08428646036964,78.27073926545063 L 34.605439596682345,78.41854799446355" fill="none" stroke="rgb(107,142,0)" stroke-width="0.1"/>
  <path d="M 34.605439596682345,78.41854799446355 L 34.128231406673876,78.57156460344686" fill="none" stroke="rgb(107,142,0)" stroke-width="0.1"/>
  <path d="M 34.128231406673876,78.57156460344686 L 33.6527185287639,78.72977093131453" fill="none" stroke="rgb(107,142,0)" stroke-width="0.1"/>
  <path d="M 33.6527185287639,78.72977093131453 L 33.17895740015956,78.89314820102891" fill="none" stroke="rgb(107,142,0)" stroke-width="0.1"/>
  <path d="M 33.17895740015956,78.89314820102891 L 32.70700425015866,79.06167702182813" fill="none" stroke="rgb(107,142,0)" stroke-width="0.1"/>
  <path d="M 32.70700425015866,79.06167702182813 L 32.23691509347509,79.23533739152845" fill="none" stroke="rgb(107,142,0)" stroke-width="0.1"/>
  <path d="M 32.23691509347509,79.23533739152845 L 31.768745723591337,79.41410869889751" fill="none" stroke="rgb(107,142,0)" stroke-width="0.1"/>
  <path d="M 31.768745723591337,79.41410869889751 L 31.302551706135773,79.59796972610127" fill="none" stroke="rgb(107,142,0)" stroke-width="0.1"/>
  <path d="M 31.302551706135773,79.59796972610127 L 30.838388372288136,79.7868986512218" fill="none" stroke="rgb(107,142,0)" stroke-width="0.1"/>
  <path d="M 30.838388372288136,79.7868986512218 L 30.376310812212523,79.98087305084766" fill="none" stroke="rgb(107,142,0)" stroke-width="0.1"/>
  <path d="M 30.376310812212523,79.98087305084766 L 29.91637386851835,80.17986990273494" fill="none" stroke="rgb(107,142,0)" stroke-width="0.1"/>
  <path d="M 29.91637386851835,80.17986990273494 L 29.458632129752004,80.38386558853972" fill="none" stroke="rgb(107,142,0)" stroke-width="0.1"/>
  <path d="M 29.458632129752004,80.38386558853972 L 29.003139923917615,80.59283589662164" fill="none" stroke="rgb(107,142,0)" stroke-width="0.1"/>
  <path d="M 29.003139923917615,80.59283589662164 L 28.549951312028497,80.80675602491704" fill="none" stroke="rgb(107,142,0)" stroke-width="0.1"/>
  <path d="M 28.549951312028497,80.80675602491704 L 28.099120081692035,81.0256005838828" fill="none" stroke="rgb(107,142,0)" stroke-width="0.1"/>
  <path d="M 28.099120081692035,81.0256005838828 L 27.650699740723894,81.24934359950987" fill="none" stroke="rgb(107,142,0)" stroke-width="0.1"/>
  <path d="M 27.650699740723894,81.24934359950987 L 27.204743510799517,81.47795851640603" fill="none" stroke="rgb(107,142,0)" stroke-width="0.1"/>
  <path d="M 27.204743510799517,81.47795851640603 L 26.761304321135867,81.71141820094749" fill="none" stroke="rgb(107,142,0)" stroke-width="0.1"/>
  <path d="M 26.761304321135867,81.71141820094749 L 26.320434802210002,81.94969494449947" fill="none" stroke="rgb(107,142,0)" stroke-width="0.1"/>
  <path d="M 26.320434802210002,81.94969494449947 L 25.88218727951221,82.19276046670473" fill="none" stroke="rgb(107,142,0)" stroke-width="0.1"/>
  <path d="M 25.88218727951221,82.19276046670473 L 25.446613767335975,82.44058591884038" fill="none" stroke="rgb(107,142,0)" stroke-width="0.1"/>
  <path d="M 25.446613767335975,82.44058591884038 L 25.01376596260434,82.69314188724127" fill="none" stroke="rgb(107,142,0)" stroke-width="0.1"/>
  <path d="M 25.01376596260434,82.69314188724127 L 24.58369523873489,82.95039839679168" fill="none" stroke="rgb(107,142,0)" stroke-width="0.1"/>
  <path d="M 24.58369523873489,82.95039839679168 L 24.156452639540703,83.21232491448245" fill="none" stroke="rgb(107,142,0)" stroke-width="0.1"/>
  <path d="M 24.156452639540703,83.21232491448245 L 23.732088873174007,83.47889035303513" fill="none" stroke="rgb(107,142,0)" stroke-width="0.1"/>
  <path d="M 23.732088873174007,83.47889035303513 L 23.310654306106244,83.75006307459148" fill="none" stroke="rgb(107,142,0)" stroke-width="0.1"/>
  <path d="M 23.310654306106244,83.75006307459148 L 22.892198957151777,84.0258108944688" fill="none" stroke="rgb(107,142,0)" stroke-width="0.1"/>
  <path d="M 22.892198957151777,84.0258108944688 L 22.476772491529573,84.30610108497933" fill="none" stroke="rgb(107,142,0)" stroke-width="0.1"/>
  <path d="M 22.476772491529573,84.30610108497933 L 22.064424214969904,84.59090037931492" fill="none" stroke="rgb(107,142,0)" stroke-width="0.1"/>
  <path d="M 22.064424214969904,84.59090037931492 L 21.655203067861976,84.8801749754956" fill="none" stroke="rgb(107,142,0)" stroke-width="0.1"/>
  <path d="M 21.655203067861976,84.8801749754956 L 21.249157619445214,85.17389054038063" fill="none" stroke="rgb(107,142,0)" stroke-width="0.1"/>
  <path d="M 21.249157619445214,85.17389054038063 L 20.846336062044884,85.4720122137445" fill="none" stroke="rgb(107,142,0)" stroke-width="0.1"/>
  <path d="M 20.846336062044884,85.4720122137445 L 20.446786205351827,85.77450461241324" fill="none" stroke="rgb(107,142,0)" stroke-width="0.1"/>
  <path d="M 20.446786205351827,85.77450461241324 L 20.050555470749032,86.08133183446489" fill="none" stroke="rgb(107,142,0)" stroke-width="0.1"/>
  <path d="M 20.050555470749032,86.08133183446489 L 19.65769088568254,86.39245746349013" fill="none" stroke="rgb(107,142,0)" stroke-width="0.1"/>
  <path d="M 19.65769088568254,86.39245746349013 L 19.26823907808034,86.70784457291438" fill="none" stroke="rgb(107,142,0)" stroke-width="0.1"/>
  <path d="M 19.26823907808034,86.70784457291438 L 18.882246270817404,87.02745573038078" fill="none" stroke="rgb(107,142,0)" stroke-width="0.1"/>
  <path d="M 18.882246270817404,87.02745573038078 L 18.49975827623075,87.35125300219283" fill="none" stroke="rgb(107,142,0)" stroke-width="0.1"/>
  <path d="M 18.49975827623075,87.35125300219283 L 18.120820490681808,87.67919795781654" fill="none" stroke="rgb(107,142,0)" stroke-width="0.1"/>
  <path d="M 18.120820490681808,87.67919795781654 L 17.74547788916766,88.01125167444138" fill="none" stroke="rgb(107,142,0)" stroke-width="0.1"/>
  <path d="M 17.74547788916766,88.01125167444138 L 17.37377501998435,88.34737474160079" fill="none" stroke="rgb(107,142,0)" stroke-width="0.1"/>
  <path d="M 17.37377501998435,88.34737474160079 L 17.005755999438406,88.68752726584853" fill="none" stroke="rgb(107,142,0)" stroke-width="0.1"/>
  <path d="M 17.005755999438406,88.68752726584853 L 16.641464506611555,89.03166887549457" fill="none" stroke="rgb(107,142,0)" stroke-width="0.1"/>
  <path d="M 16.641464506611555,89.03166887549457 L 16.28094377817638,89.37975872539585" fill="none" stroke="rgb(107,142,0)" stroke-width="0.1"/>
  <path d="M 16.28094377817638,89.37975872539585 L 15.92423660326449,89.73175550180463" fill="none" stroke="rgb(107,142,0)" stroke-width="0.1"/>
  <path d="M 15.92423660326449,89.73175550180463 L 15.571385318388366,90.08761742727177" fill="none" stroke="rgb(107,142,0)" stroke-width="0.1"/>
  <path d="M 15.571385318388366,90.08761742727177 L 15.222431802416622,90.44730226560478" fill="none" stroke="rgb(107,142,0)" stroke-width="0.1"/>
  <path d="M 15.222431802416622,90.44730226560478 L 14.877417471602712,90.81076732688132" fill="none" stroke="rgb(107,142,0)" stroke-width="0.1"/>
  <path d="M 14.877417471602712,90.81076732688132 L 14.536383274670243,91.17796947251554" fill="none" stroke="rgb(107,142,0)" stroke-width="0.1"/>
  <path d="M 14.536383274670243,91.17796947251554 L 14.19936968795264,91.54886512037831" fill="none" stroke="rgb(107,142,0)" stroke-width="0.1"/>
  <path d="M 14.19936968795264,91.54886512037831 L 13.866416710588965,91.92341024996938" fill="none" stroke="rgb(107,142,0)" stroke-width="0.1"/>
  <path d="M 13.866416710588965,91.92341024996938 L 13.537563859776583,92.30156040764268" fill="none" stroke="rgb(107,142,0)" stroke-width="0.1"/>
  <path d="M 13.537563859776583,92.30156040764268 L 13.212850166081125,92.68327071188196" fill="none" stroke="rgb(107,142,0)" stroke-width="0.1"/>
  <path d="M 13.212850166081125,92.68327071188196 L 12.892314168804205,93.06849585862801" fill="none" stroke="rgb(107,142,0)" stroke-width="0.1"/>
  <path d="M 12.892314168804205,93.06849585862801 L 12.575993911408887,93.45719012665495" fill="none" stroke="rgb(107,142,0)" stroke-width="0.1"/>
  <path d="M 12.575993911408887,93.45719012665495 L 12.263926937004271,93.84930738299772" fill="none" stroke="rgb(107,142,0)" stroke-width="0.1"/>
  <path d="M 12.263926937004271,93.84930738299772 L 11.956150283890793,94.24480108842681" fill="none" stroke="rgb(107,142,0)" stroke-width="0.1"/>
  <path d="M 11.956150283890793,94.24480108842681 L 11.652700481162583,94.64362430297172" fill="none" stroke="rgb(107,142,0)" stroke-width="0.1"/>
  <path d="M 11.652700481162583,94.64362430297172 L 11.353613544373275,95.04572969149297" fill="none" stroke="rgb(107,142,0)" stroke-width="0.1"/>
  <path d="M 11.353613544373275,95.04572969149297 L 11.058924971260922,95.45106952929905" fill="none" stroke="rgb(107,142,0)" stroke-width="0.1"/>
  <path d="M 11.058924971260922,95.45106952929905 L 10.768669737534537,95.85959570781188" fill="none" stroke="rgb(107,142,0)" stroke-width="0.1"/>
  <path d="M 10.768669737534537,95.85959570781188 L 10.482882292723616,96.27125974027558" fill="none" stroke="rgb(107,142,0)" stroke-width="0.1"/>
  <path d="M 10.482882292723616,96.27125974027558 L 10.201596556089271,96.68601276751201" fill="none" stroke="rgb(107,142,0)" stroke-width="0.1"/>
  <path d="M 10.201596556089271,96.68601276751201 L 9.924845912597675,97.10380556371922" fill="none" stroke="rgb(107,142,0)" stroke-width="0.1"/>
  <path d="M 9.924845912597675,97.10380556371922 L 9.652663208958757,97.52458854231463" fill="none" stroke="rgb(107,142,0)" stroke-width="0.1"/>
  <path d="M 9.652663208958757,97.52458854231463 L 9.385080749726967,97.94831176181913" fill="none" stroke="rgb(107,142,0)" stroke-width="0.1"/>
  <path d="M 9.385080749726967,97.94831176181913 L 9.12213029346799,98.3749249317857" fill="none" stroke="rgb(107,142,0)" stroke-width="0.1"/>
  <path d="M 9.12213029346799,98.3749249317857 L 8.863843048988201,98.80437741876744" fill="none" stroke="rgb(107,142,0)" stroke-width="0.1"/>
  <path d="M 8.863843048988201,98.80437741876744 L 8.610249671631436,99.23661825232739" fill="none" stroke="rgb(107,142,0)" stroke-width="0.1"/>
  <path d="M 8.610249671631436,99.23661825232739 L 8.36138025964101,99.67159613108822" fill="none" stroke="rgb(107,142,0)" stroke-width="0.1"/>
  <path d="M 48.42125650000003,76.29765099999997 L 100.0,76.29765099999997" fill="none" instance-id="-1" semantic-id="1" stroke="rgb(107,142,0)" stroke-width="0.1"/>
  <path d="M 100.0,77.29765099999997 L 48.42125650000003,77.29765099999997" fill="none" instance-id="-1" semantic-id="1" stroke="rgb(107,142,0)" stroke-width="0.1"/>
  <path d="M 48.42125650000003,77.29765099999997 L 47.92103137004506,77.30037744528215" fill="none" stroke="rgb(107,142,0)" stroke-width="0.1"/>
  <path d="M 47.92103137004506,77.30037744528215 L 47.42086745437405,77.30866427837941" fill="none" stroke="rgb(107,142,0)" stroke-width="0.1"/>
  <path d="M 47.42086745437405,77.30866427837941 L 46.920826559072566,77.32251047527393" fill="none" stroke="rgb(107,142,0)" stroke-width="0.1"/>
  <path d="M 46.920826559072566,77.32251047527393 L 46.420970475025115,77.34191432496823" fill="none" stroke="rgb(107,142,0)" stroke-width="0.1"/>
  <path d="M 46.420970475025115,77.34191432496823 L 45.9213609702781,77.3668734296964" fill="none" stroke="rgb(107,142,0)" stroke-width="0.1"/>
  <path d="M 45.9213609702781,77.3668734296964 L 45.42205978240827,77.39738470522025" fill="none" stroke="rgb(107,142,0)" stroke-width="0.1"/>
  <path d="M 45.42205978240827,77.39738470522025 L 44.923128610892945,77.43344438121096" fill="none" stroke="rgb(107,142,0)" stroke-width="0.1"/>
  <path d="M 44.923128610892945,77.43344438121096 L 44.42462910948575,77.4750480017143" fill="none" stroke="rgb(107,142,0)" stroke-width="0.1"/>
  <path d="M 44.42462910948575,77.4750480017143 L 43.92662287859798,77.52219042570187" fill="none" stroke="rgb(107,142,0)" stroke-width="0.1"/>
  <path d="M 43.92662287859798,77.52219042570187 L 43.42917145768752,77.57486582770593" fill="none" stroke="rgb(107,142,0)" stroke-width="0.1"/>
  <path d="M 43.42917145768752,77.57486582770593 L 42.93233631765224,77.63306769853978" fill="none" stroke="rgb(107,142,0)" stroke-width="0.1"/>
  <path d="M 42.93233631765224,77.63306769853978 L 42.43617885323624,77.69678884610119" fill="none" stroke="rgb(107,142,0)" stroke-width="0.1"/>
  <path d="M 42.43617885323624,77.69678884610119 L 41.94076037544164,77.76602139626243" fill="none" stroke="rgb(107,142,0)" stroke-width="0.1"/>
  <path d="M 41.94076037544164,77.76602139626243 L 41.446142103952525,77.84075679384205" fill="none" stroke="rgb(107,142,0)" stroke-width="0.1"/>
  <path d="M 41.446142103952525,77.84075679384205 L 40.95238515957044,77.9209858036628" fill="none" stroke="rgb(107,142,0)" stroke-width="0.1"/>
  <path d="M 40.95238515957044,77.9209858036628 L 40.4595505566615,78.00669851169289" fill="none" stroke="rgb(107,142,0)" stroke-width="0.1"/>
  <path d="M 40.4595505566615,78.00669851169289 L 39.967699195616206,78.09788432627033" fill="none" stroke="rgb(107,142,0)" stroke-width="0.1"/>
  <path d="M 39.967699195616206,78.09788432627033 L 39.47689185532431,78.19453197941255" fill="none" stroke="rgb(107,142,0)" stroke-width="0.1"/>
  <path d="M 39.47689185532431,78.19453197941255 L 38.98718918566442,78.29662952820865" fill="none" stroke="rgb(107,142,0)" stroke-width="0.1"/>
  <path d="M 38.98718918566442,78.29662952820865 L 38.49865170000862,78.40416435629493" fill="none" stroke="rgb(107,142,0)" stroke-width="0.1"/>
  <path d="M 38.49865170000862,78.40416435629493 L 38.011339767745994,78.51712317541376" fill="none" stroke="rgb(107,142,0)" stroke-width="0.1"/>
  <path d="M 38.011339767745994,78.51712317541376 L 37.525313606821555,78.63549202705644" fill="none" stroke="rgb(107,142,0)" stroke-width="0.1"/>
  <path d="M 37.525313606821555,78.63549202705644 L 37.04063327629501,78.75925628418736" fill="none" stroke="rgb(107,142,0)" stroke-width="0.1"/>
  <path d="M 37.04063327629501,78.75925628418736 L 36.55735866892064,78.88840065305146" fill="none" stroke="rgb(107,142,0)" stroke-width="0.1"/>
  <path d="M 36.55735866892064,78.88840065305146 L 36.075549503744014,79.02290917506457" fill="none" stroke="rgb(107,142,0)" stroke-width="0.1"/>
  <path d="M 36.075549503744014,79.02290917506457 L 35.59526531872439,79.16276522878536" fill="none" stroke="rgb(107,142,0)" stroke-width="0.1"/>
  <path d="M 35.59526531872439,79.16276522878536 L 35.116565463376446,79.30795153196868" fill="none" stroke="rgb(107,142,0)" stroke-width="0.1"/>
  <path d="M 35.116565463376446,79.30795153196868 L 34.639509091436366,79.45845014370195" fill="none" stroke="rgb(107,142,0)" stroke-width="0.1"/>
  <path d="M 34.639509091436366,79.45845014370195 L 34.164155153552656,79.61424246662182" fill="none" stroke="rgb(107,142,0)" stroke-width="0.1"/>
  <path d="M 34.164155153552656,79.61424246662182 L 33.690562390001105,79.77530924921189" fill="none" stroke="rgb(107,142,0)" stroke-width="0.1"/>
  <path d="M 33.690562390001105,79.77530924921189 L 33.218789323426336,79.94163058818253" fill="none" stroke="rgb(107,142,0)" stroke-width="0.1"/>
  <path d="M 33.218789323426336,79.94163058818253 L 32.74889425161018,80.11318593092926" fill="none" stroke="rgb(107,142,0)" stroke-width="0.1"/>
  <path d="M 32.74889425161018,80.11318593092926 L 32.28093524026667,80.2899540780736" fill="none" stroke="rgb(107,142,0)" stroke-width="0.1"/>
  <path d="M 32.28093524026667,80.2899540780736 L 31.814970115868846,80.4719131860819" fill="none" stroke="rgb(107,142,0)" stroke-width="0.1"/>
  <path d="M 31.814970115868846,80.4719131860819 L 31.351056458501034,80.6590407699648" fill="none" stroke="rgb(107,142,0)" stroke-width="0.1"/>
  <path d="M 31.351056458501034,80.6590407699648 L 30.889251594744564,80.85131370605598" fill="none" stroke="rgb(107,142,0)" stroke-width="0.1"/>
  <path d="M 30.889251594744564,80.85131370605598 L 30.42961259059348,81.0487082348692" fill="none" stroke="rgb(107,142,0)" stroke-width="0.1"/>
  <path d="M 30.42961259059348,81.0487082348692 L 29.97219624440345,81.25119996403475" fill="none" stroke="rgb(107,142,0)" stroke-width="0.1"/>
  <path d="M 29.97219624440345,81.25119996403475 L 29.517059079872297,81.45876387131318" fill="none" stroke="rgb(107,142,0)" stroke-width="0.1"/>
  <path d="M 29.517059079872297,81.45876387131318 L 29.064257339055303,81.67137430768764" fill="none" stroke="rgb(107,142,0)" stroke-width="0.1"/>
  <path d="M 29.064257339055303,81.67137430768764 L 28.613846975415754,81.8890050005333" fill="none" stroke="rgb(107,142,0)" stroke-width="0.1"/>
  <path d="M 28.613846975415754,81.8890050005333 L 28.165883646910743,82.11162905686388" fill="none" stroke="rgb(107,142,0)" stroke-width="0.1"/>
  <path d="M 28.165883646910743,82.11162905686388 L 27.72042270911311,82.33921896665481" fill="none" stroke="rgb(107,142,0)" stroke-width="0.1"/>
  <path d="M 27.72042270911311,82.33921896665481 L 27.277519208370904,82.5717466062431" fill="none" stroke="rgb(107,142,0)" stroke-width="0.1"/>
  <path d="M 27.277519208370904,82.5717466062431 L 26.837227875005283,82.80918324180175" fill="none" stroke="rgb(107,142,0)" stroke-width="0.1"/>
  <path d="M 26.837227875005283,82.80918324180175 L 26.39960311654795,83.0514995328914" fill="none" stroke="rgb(107,142,0)" stroke-width="0.1"/>
  <path d="M 26.39960311654795,83.0514995328914 L 25.964699011017274,83.29866553608531" fill="none" stroke="rgb(107,142,0)" stroke-width="0.1"/>
  <path d="M 25.964699011017274,83.29866553608531 L 25.53256930023622,83.55065070866999" fill="none" stroke="rgb(107,142,0)" stroke-width="0.1"/>
  <path d="M 25.53256930023622,83.55065070866999 L 25.10326738319077,83.80742391241893" fill="none" stroke="rgb(107,142,0)" stroke-width="0.1"/>
  <path d="M 25.10326738319077,83.80742391241893 L 24.67684630943222,84.06895341744075" fill="none" stroke="rgb(107,142,0)" stroke-width="0.1"/>
  <path d="M 24.67684630943222,84.06895341744075 L 24.253358772521324,84.33520690609998" fill="none" stroke="rgb(107,142,0)" stroke-width="0.1"/>
  <path d="M 24.253358772521324,84.33520690609998 L 23.832857103516062,84.60615147701094" fill="none" stroke="rgb(107,142,0)" stroke-width="0.1"/>
  <path d="M 23.832857103516062,84.60615147701094 L 23.415393264506292,84.88175364910262" fill="none" stroke="rgb(107,142,0)" stroke-width="0.1"/>
  <path d="M 23.415393264506292,84.88175364910262 L 23.001018842192707,85.1619793657569" fill="none" stroke="rgb(107,142,0)" stroke-width="0.1"/>
  <path d="M 23.001018842192707,85.1619793657569 L 22.589785041510368,85.44679399901645" fill="none" stroke="rgb(107,142,0)" stroke-width="0.1"/>
  <path d="M 22.589785041510368,85.44679399901645 L 22.181742679303625,85.73616235386373" fill="none" stroke="rgb(107,142,0)" stroke-width="0.1"/>
  <path d="M 22.181742679303625,85.73616235386373 L 21.776942178045147,86.0300486725705" fill="none" stroke="rgb(107,142,0)" stroke-width="0.1"/>
  <path d="M 21.776942178045147,86.0300486725705 L 21.37543355960497,86.32841663911609" fill="none" stroke="rgb(107,142,0)" stroke-width="0.1"/>
  <path d="M 21.37543355960497,86.32841663911609 L 20.977266439070263,86.6312293836753" fill="none" stroke="rgb(107,142,0)" stroke-width="0.1"/>
  <path d="M 20.977266439070263,86.6312293836753 L 20.582490018613726,86.93844948717401" fill="none" stroke="rgb(107,142,0)" stroke-width="0.1"/>
  <path d="M 20.582490018613726,86.93844948717401 L 20.191153081413404,87.25003898591387" fill="none" stroke="rgb(107,142,0)" stroke-width="0.1"/>
  <path d="M 20.191153081413404,87.25003898591387 L 19.80330398562478,87.56595937626275" fill="none" stroke="rgb(107,142,0)" stroke-width="0.1"/>
  <path d="M 19.80330398562478,87.56595937626275 L 19.41899065840471,87.88617161941318" fill="none" stroke="rgb(107,142,0)" stroke-width="0.1"/>
  <path d="M 19.41899065840471,87.88617161941318 L 19.03826058998993,88.21063614620641" fill="none" stroke="rgb(107,142,0)" stroke-width="0.1"/>
  <path d="M 19.03826058998993,88.21063614620641 L 18.66116082782719,88.53931286202169" fill="none" stroke="rgb(107,142,0)" stroke-width="0.1"/>
  <path d="M 18.66116082782719,88.53931286202169 L 18.287737970760872,88.87216115173123" fill="none" stroke="rgb(107,142,0)" stroke-width="0.1"/>
  <path d="M 18.287737970760872,88.87216115173123 L 17.918038163273422,89.20913988471898" fill="none" stroke="rgb(107,142,0)" stroke-width="0.1"/>
  <path d="M 17.918038163273422,89.20913988471898 L 17.552107089784386,89.55020741996304" fill="none" stroke="rgb(107,142,0)" stroke-width="0.1"/>
  <path d="M 17.552107089784386,89.55020741996304 L 17.1899899690045,89.89532161118143" fill="none" stroke="rgb(107,142,0)" stroke-width="0.1"/>
  <path d="M 17.1899899690045,89.89532161118143 L 16.83173154834776,90.24443981204035" fill="none" stroke="rgb(107,142,0)" stroke-width="0.1"/>
  <path d="M 16.83173154834776,90.24443981204035 L 16.47737609840283,90.59751888142353" fill="none" stroke="rgb(107,142,0)" stroke-width="0.1"/>
  <path d="M 16.47737609840283,90.59751888142353 L 16.126967407460825,90.95451518876393" fill="none" stroke="rgb(107,142,0)" stroke-width="0.1"/>
  <path d="M 16.126967407460825,90.95451518876393 L 15.780548776106116,91.31538461943467" fill="none" stroke="rgb(107,142,0)" stroke-width="0.1"/>
  <path d="M 15.780548776106116,91.31538461943467 L 15.438163011864617,91.68008258020086" fill="none" stroke="rgb(107,142,0)" stroke-width="0.1"/>
  <path d="M 15.438163011864617,91.68008258020086 L 15.099852423913717,92.04856400472931" fill="none" stroke="rgb(107,142,0)" stroke-width="0.1"/>
  <path d="M 15.099852423913717,92.04856400472931 L 14.765658817854955,92.42078335915858" fill="none" stroke="rgb(107,142,0)" stroke-width="0.1"/>
  <path d="M 14.765658817854955,92.42078335915858 L 14.435623490547187,92.79669464772451" fill="none" stroke="rgb(107,142,0)" stroke-width="0.1"/>
  <path d="M 14.435623490547187,92.79669464772451 L 14.109787225004538,93.17625141844451" fill="none" stroke="rgb(107,142,0)" stroke-width="0.1"/>
  <path d="M 14.109787225004538,93.17625141844451 L 13.78819028535554,93.55940676885814" fill="none" stroke="rgb(107,142,0)" stroke-width="0.1"/>
  <path d="M 13.78819028535554,93.55940676885814 L 13.470872411867958,93.94611335182208" fill="none" stroke="rgb(107,142,0)" stroke-width="0.1"/>
  <path d="M 13.470872411867958,93.94611335182208 L 13.15787281603889,94.33632338136147" fill="none" stroke="rgb(107,142,0)" stroke-width="0.1"/>
  <path d="M 13.15787281603889,94.33632338136147 L 12.84923017574829,94.7299886385747" fill="none" stroke="rgb(107,142,0)" stroke-width="0.1"/>
  <path d="M 12.84923017574829,94.7299886385747 L 12.544982630480035,95.12706047759184" fill="none" stroke="rgb(107,142,0)" stroke-width="0.1"/>
  <path d="M 12.544982630480035,95.12706047759184 L 12.245167776608469,95.5274898315862" fill="none" stroke="rgb(107,142,0)" stroke-width="0.1"/>
  <path d="M 12.245167776608469,95.5274898315862 L 11.949822662753604,95.93122721883731" fill="none" stroke="rgb(107,142,0)" stroke-width="0.1"/>
  <path d="M 11.949822662753604,95.93122721883731 L 11.658983785201599,96.3382227488454" fill="none" stroke="rgb(107,142,0)" stroke-width="0.1"/>
  <path d="M 11.658983785201599,96.3382227488454 L 11.372687083395704,96.74842612849659" fill="none" stroke="rgb(107,142,0)" stroke-width="0.1"/>
  <path d="M 11.372687083395704,96.74842612849659 L 11.090967935494973,97.16178666827795" fill="none" stroke="rgb(107,142,0)" stroke-width="0.1"/>
  <path d="M 11.090967935494973,97.16178666827795 L 10.813861154002552,97.57825328854085" fill="none" stroke="rgb(107,142,0)" stroke-width="0.1"/>
  <path d="M 10.813861154002552,97.57825328854085 L 10.541400981463767,97.99777452581316" fill="none" stroke="rgb(107,142,0)" stroke-width="0.1"/>
  <path d="M 10.541400981463767,97.99777452581316 L 10.273621086234925,98.42029853915847" fill="none" stroke="rgb(107,142,0)" stroke-width="0.1"/>
  <path d="M 10.273621086234925,98.42029853915847 L 10.010554558322383,98.84577311658279" fill="none" stroke="rgb(107,142,0)" stroke-width="0.1"/>
  <path d="M 10.010554558322383,98.84577311658279 L 9.752233905293906,99.27414568148538" fill="none" stroke="rgb(107,142,0)" stroke-width="0.1"/>
  <path d="M 9.752233905293906,99.27414568148538 L 9.498691048262117,99.70536329915706" fill="none" stroke="rgb(107,142,0)" stroke-width="0.1"/>
 </g>
 <g id="layerA-HATCH" inkscape:groupmode="layer" inkscape:label="A-HATCH">
  <path d="M 93.80125650000014,23.594651 L 93.80125650000014,24.297650999999973" fill="none" stroke="rgb(92,92,92)" stroke-width="0.1"/>
  <path d="M 95.2012565,22.297650999999973 L 95.2012565,24.297650999999973" fill="none" stroke="rgb(92,92,92)" stroke-width="0.1"/>
  <path d="M 96.61125650000008,22.297650999999973 L 96.61125650000008,24.297650999999973" fill="none" stroke="rgb(92,92,92)" stroke-width="0.1"/>
  <path d="M 98.01125649999994,22.297650999999973 L 98.01125649999994,24.297650999999973" fill="none" stroke="rgb(92,92,92)" stroke-width="0.1"/>
  <path d="M 99.42125650000003,22.297650999999973 L 99.42125650000003,24.297650999999973" fill="none" stroke="rgb(92,92,92)" stroke-width="0.1"/>
  <path d="M 70.81125650000013,17.297650999999973 L 70.81125650000013,19.297650999999973" fill="none" stroke="rgb(92,92,92)" stroke-width="0.1"/>
  <path d="M 92.37125650000007,17.297650999999973 L 92.37125650000007,19.297650999999973" fill="none" stroke="rgb(92,92,92)" stroke-width="0.1"/>
  <path d="M 93.0912565000001,23.547650999999973 L 93.8412565000001,23.547650999999973" fill="none" stroke="rgb(92,92,92)" stroke-width="0.1"/>
  <path d="M 93.0912565000001,22.047650999999973 L 95.0912565000001,22.047650999999973" fill="none" stroke="rgb(92,92,92)" stroke-width="0.1"/>
  <path d="M 93.0912565000001,20.547650999999973 L 95.0912565000001,20.547650999999973" fill="none" stroke="rgb(92,92,92)" stroke-width="0.1"/>
  <path d="M 93.26125649999994,19.047650999999973 L 95.0912565000001,19.047650999999973" fill="none" stroke="rgb(92,92,92)" stroke-width="0.1"/>
  <path d="M 93.29125649999992,17.59765100000004 L 95.0912565000001,17.59765100000004" fill="none" stroke="rgb(92,92,92)" stroke-width="0.1"/>
  <path d="M 93.0912565000001,16.196650999999974 L 95.0912565000001,16.196650999999974" fill="none" stroke="rgb(92,92,92)" stroke-width="0.1"/>
  <path d="M 93.0912565000001,14.79565100000002 L 95.0912565000001,14.79565100000002" fill="none" stroke="rgb(92,92,92)" stroke-width="0.1"/>
  <path d="M 93.0912565000001,13.395651000000043 L 95.0912565000001,13.395651000000043" fill="none" stroke="rgb(92,92,92)" stroke-width="0.1"/>
  <path d="M 93.0912565000001,11.994650999999976 L 95.0912565000001,11.994650999999976" fill="none" stroke="rgb(92,92,92)" stroke-width="0.1"/>
  <path d="M 93.0912565000001,10.593651000000023 L 95.0912565000001,10.593651000000023" fill="none" stroke="rgb(92,92,92)" stroke-width="0.1"/>
  <path d="M 93.0912565000001,9.193651000000045 L 95.0912565000001,9.193651000000045" fill="none" stroke="rgb(92,92,92)" stroke-width="0.1"/>
  <path d="M 93.0912565000001,7.792650999999978 L 95.0912565000001,7.792650999999978" fill="none" stroke="rgb(92,92,92)" stroke-width="0.1"/>
  <path d="M 93.0912565000001,6.391651000000024 L 95.0912565000001,6.391651000000024" fill="none" stroke="rgb(92,92,92)" stroke-width="0.1"/>
  <path d="M 93.0912565000001,4.991651000000047 L 95.0912565000001,4.991651000000047" fill="none" stroke="rgb(92,92,92)" stroke-width="0.1"/>
  <path d="M 93.0912565000001,3.59065099999998 L 95.0912565000001,3.59065099999998" fill="none" stroke="rgb(92,92,92)" stroke-width="0.1"/>
  <path d="M 93.0912565000001,2.189651000000026 L 95.0912565000001,2.189651000000026" fill="none" stroke="rgb(92,92,92)" stroke-width="0.1"/>
  <path d="M 93.0912565000001,0.789651000000049 L 95.0912565000001,0.789651000000049" fill="none" stroke="rgb(92,92,92)" stroke-width="0.1"/>
 </g>
 <g id="layerA-WALL" inkscape:groupmode="layer" inkscape:label="A-WALL">
  <path d="M 68.0912565000001,22.297650999999973 L 68.0912565000001,18.297650999999973" fill="none" instance-id="-1" semantic-id="1" stroke="rgb(0,178,178)" stroke-width="0.1"/>
  <path d="M 70.0912565000001,24.297650999999973 L 70.0912565000001,18.297650999999973" fill="none" instance-id="-1" semantic-id="1" stroke="rgb(0,178,178)" stroke-width="0.1"/>
  <path d="M 0.0,22.297650999999973 L 68.0912565000001,22.297650999999973" fill="none" instance-id="-1" semantic-id="1" stroke="rgb(0,178,178)" stroke-width="0.1"/>
  <path d="M 0.0,24.297650999999973 L 70.0912565000001,24.297650999999973" fill="none" instance-id="-1" semantic-id="1" stroke="rgb(0,178,178)" stroke-width="0.1"/>
  <path d="M 68.0912565000001,18.297650999999973 L 68.0912565000001,0.0" fill="none" instance-id="-1" semantic-id="1" stroke="rgb(0,178,178)" stroke-width="0.1"/>
  <path d="M 70.0912565000001,18.297650999999973 L 70.0912565000001,0.0" fill="none" instance-id="-1" semantic-id="1" stroke="rgb(0,178,178)" stroke-width="0.1"/>
 </g>
 <g id="layerA-WALL-STUD" inkscape:groupmode="layer" inkscape:label="A-WALL-STUD">
  <path d="M 93.0912565000001,24.297650999999973 L 100.0,24.297650999999973" fill="none" instance-id="-1" semantic-id="1" stroke="rgb(255,133,12)" stroke-width="0.1"/>
  <path d="M 100.0,22.297650999999973 L 95.0912565000001,22.297650999999973" fill="none" instance-id="-1" semantic-id="1" stroke="rgb(255,133,12)" stroke-width="0.1"/>
  <path d="M 70.0912565000001,19.297650999999973 L 71.0912565000001,19.297650999999973" fill="none" instance-id="-1" semantic-id="1" stroke="rgb(255,133,12)" stroke-width="0.1"/>
  <path d="M 71.0912565000001,19.297650999999973 L 71.0912565000001,17.297650999999973" fill="none" instance-id="-1" semantic-id="1" stroke="rgb(255,133,12)" stroke-width="0.1"/>
  <path d="M 71.0912565000001,17.297650999999973 L 70.0912565000001,17.297650999999973" fill="none" instance-id="-1" semantic-id="1" stroke="rgb(255,133,12)" stroke-width="0.1"/>
  <path d="M 93.0912565000001,17.297650999999973 L 92.0912565000001,17.297650999999973" fill="none" instance-id="-1" semantic-id="1" stroke="rgb(255,133,12)" stroke-width="0.1"/>
  <path d="M 92.0912565000001,17.297650999999973 L 92.0912565000001,19.297650999999973" fill="none" instance-id="-1" semantic-id="1" stroke="rgb(255,133,12)" stroke-width="0.1"/>
  <path d="M 92.0912565000001,19.297650999999973 L 93.0912565000001,19.297650999999973" fill="none" instance-id="-1" semantic-id="1" stroke="rgb(255,133,12)" stroke-width="0.1"/>
  <path d="M 93.0912565000001,24.297650999999973 L 93.0912565000001,19.297650999999973" fill="none" instance-id="-1" semantic-id="1" stroke="rgb(255,133,12)" stroke-width="0.1"/>
  <path d="M 95.0912565000001,22.297650999999973 L 95.0912565000001,18.297650999999973" fill="none" instance-id="-1" semantic-id="1" stroke="rgb(255,133,12)" stroke-width="0.1"/>
  <path d="M 93.0912565000001,17.297650999999973 L 93.0912565000001,0.0" fill="none" instance-id="-1" semantic-id="1" stroke="rgb(255,133,12)" stroke-width="0.1"/>
  <path d="M 95.0912565000001,18.297650999999973 L 95.0912565000001,0.0" fill="none" instance-id="-1" semantic-id="1" stroke="rgb(255,133,12)" stroke-width="0.1"/>
 </g>
 <g id="layerA-WIN" inkscape:groupmode="layer" inkscape:label="A-WIN">
  <path d="M 71.0912565000001,18.297650999999973 L 71.0912565000001,8.060651000000007" fill="none" instance-id="1" semantic-id="4" stroke="rgb(255,133,12)" stroke-width="0.1"/>
  <path d="M 71.62125650000007,18.297650999999973 L 71.62125650000007,8.060651000000007" fill="none" instance-id="1" semantic-id="4" stroke="rgb(255,133,12)" stroke-width="0.1"/>
  <path d="M 71.0912565000001,18.297650999999973 L 71.62125650000007,18.297650999999973" fill="none" instance-id="1" semantic-id="4" stroke="rgb(255,133,12)" stroke-width="0.1"/>
  <path d="M 71.62125650000007,8.060651000000007 L 71.0912565000001,8.060651000000007" fill="none" instance-id="1" semantic-id="4" stroke="rgb(255,133,12)" stroke-width="0.1"/>
  <path d="M 91.57125650000012,18.297650999999973 L 91.57125650000012,8.060651000000007" fill="none" instance-id="1" semantic-id="4" stroke="rgb(255,133,12)" stroke-width="0.1"/>
  <path d="M 92.0912565000001,18.297650999999973 L 92.0912565000001,8.060651000000007" fill="none" instance-id="1" semantic-id="4" stroke="rgb(255,133,12)" stroke-width="0.1"/>
  <path d="M 91.57125650000012,8.060651000000007 L 92.0912565000001,8.060651000000007" fill="none" instance-id="1" semantic-id="4" stroke="rgb(255,133,12)" stroke-width="0.1"/>
  <path d="M 92.0912565000001,18.297650999999973 L 91.57125650000012,18.297650999999973" fill="none" instance-id="1" semantic-id="4" stroke="rgb(255,133,12)" stroke-width="0.1"/>
  <path d="M 81.5912565000001,18.297650999999973 A 10.2375,10.2375 0.0 0,0 71.62125650000007,8.06365100000005" fill="none" instance-id="1" semantic-id="4" stroke="rgb(255,133,12)" stroke-width="0.1"/>
  <path d="M 91.57125650000012,8.06365100000005 A 10.2375,10.2375 0.0 0,0 81.5912565000001,18.297650999999973" fill="none" instance-id="1" semantic-id="4" stroke="rgb(255,133,12)" stroke-width="0.1"/>
 </g>
 <g id="layerA-WIN-TEXT" inkscape:groupmode="layer" inkscape:label="A-WIN-TEXT">
  <text fill="rgb(0,0,0)" font-family="Noto Sans CJK SC" font-size="2" transform="rotate(-0.0,75.79125649999992,26.794651000000044)" x="75.79125649999992" y="26.794651000000044">
   M2121
  </text>
 </g>
 <g id="layerA-防火卷帘" inkscape:groupmode="layer" inkscape:label="A-防火卷帘">
  <path d="M 66.0912565000001,67.29765099999997 L 0.0,67.29765099999997" fill="none" stroke="rgb(178,0,178)" stroke-width="0.1"/>
  <path d="M 72.0912565000001,67.29765099999997 L 100.0,67.29765099999997" fill="none" stroke="rgb(178,0,178)" stroke-width="0.1"/>
 </g>
 <g id="layerA-防火卷帘编号" inkscape:groupmode="layer" inkscape:label="A-防火卷帘编号">
  <text fill="rgb(0,0,0)" font-family="Noto Sans CJK SC" font-size="2" transform="rotate(-0.0,18.151256500000045,63.474650999999994)" x="18.151256500000045" y="63.474650999999994">
   FHJL
  </text>
  <text fill="rgb(0,0,0)" font-family="Noto Sans CJK SC" font-size="2" transform="rotate(-0.0,18.151256500000045,63.474650999999994)" x="18.151256500000045" y="63.474650999999994">
   FHJL8434
  </text>
 </g>
</svg>