<?xml version="1.0" encoding="utf-8"?>
<svg style="background-color: #000;" version="1.1" viewBox="0 0 100.0 100.0" xmlns="http://www.w3.org/2000/svg" xmlns:inkscape="http://www.inkscape.org/namespaces/inkscape">
 <g id="layerA-ANNO-DIMS" inkscape:groupmode="layer" inkscape:label="A-ANNO-DIMS">
  <path d="M 26.24097800000004,18.07161500000001 L 26.24097800000004,4.902614999999969" fill="none" stroke="rgb(0,178,0)" stroke-width="0.1"/>
  <path d="M 0.0,8.652614999999969 L 26.24097800000004,8.652614999999969" fill="none" stroke="rgb(0,178,0)" stroke-width="0.1"/>
  <path d="M 26.24097800000004,18.07161500000001 L 26.24097800000004,4.902614999999969" fill="none" stroke="rgb(0,178,0)" stroke-width="0.1"/>
  <path d="M 77.24097800000004,18.07161500000001 L 77.24097800000004,4.902614999999969" fill="none" stroke="rgb(0,178,0)" stroke-width="0.1"/>
  <path d="M 26.24097800000004,8.652614999999969 L 77.24097800000004,8.652614999999969" fill="none" stroke="rgb(0,178,0)" stroke-width="0.1"/>
  <path d="M 77.24097800000004,18.07161500000001 L 77.24097800000004,4.902614999999969" fill="none" stroke="rgb(0,178,0)" stroke-width="0.1"/>
  <path d="M 91.24097800000004,18.07161500000001 L 91.24097800000004,4.902614999999969" fill="none" stroke="rgb(0,178,0)" stroke-width="0.1"/>
  <path d="M 77.24097800000004,8.652614999999969 L 91.24097800000004,8.652614999999969" fill="none" stroke="rgb(0,178,0)" stroke-width="0.1"/>
  <path d="M 91.24097800000004,18.07161500000001 L 91.24097800000004,4.902614999999969" fill="none" stroke="rgb(0,178,0)" stroke-width="0.1"/>
  <path d="M 91.24097800000004,8.652614999999969 L 100.0,8.652614999999969" fill="none" stroke="rgb(0,178,0)" stroke-width="0.1"/>
  <path d="M 1.240978000000041,48.836614999999995 L 1.240978000000041,32.322614999999985" fill="none" stroke="rgb(0,178,0)" stroke-width="0.1"/>
  <path d="M 0.0,36.072614999999985 L 1.240978000000041,36.072614999999985" fill="none" stroke="rgb(0,178,0)" stroke-width="0.1"/>
  <path d="M 1.240978000000041,48.836614999999995 L 1.240978000000041,32.322614999999985" fill="none" stroke="rgb(0,178,0)" stroke-width="0.1"/>
  <path d="M 26.24097800000004,48.836614999999995 L 26.24097800000004,32.322614999999985" fill="none" stroke="rgb(0,178,0)" stroke-width="0.1"/>
  <path d="M 1.240978000000041,36.072614999999985 L 26.24097800000004,36.072614999999985" fill="none" stroke="rgb(0,178,0)" stroke-width="0.1"/>
  <path d="M 5.740978000000041,53.336614999999995 L 15.912977999999953,53.336614999999995" fill="none" stroke="rgb(0,178,0)" stroke-width="0.1"/>
  <path d="M 5.740978000000041,20.336614999999995 L 15.912977999999953,20.336614999999995" fill="none" stroke="rgb(0,178,0)" stroke-width="0.1"/>
  <path d="M 12.162977999999953,53.336614999999995 L 12.162977999999953,20.336614999999995" fill="none" stroke="rgb(0,178,0)" stroke-width="0.1"/>
  <path d="M 5.740978000000041,53.336614999999995 L 15.912977999999953,53.336614999999995" fill="none" stroke="rgb(0,178,0)" stroke-width="0.1"/>
  <path d="M 12.162977999999953,100.0 L 12.162977999999953,53.336614999999995" fill="none" stroke="rgb(0,178,0)" stroke-width="0.1"/>
  <text fill="rgb(0,178,0)" font-family="Noto Sans CJK SC" font-size="2" transform="rotate(-0.0,5.740978000000041,7.152614999999969)" x="5.740978000000041" y="7.152614999999969">
   2900
  </text>
  <text fill="rgb(0,178,0)" font-family="Noto Sans CJK SC" font-size="2" transform="rotate(-0.0,45.74097800000004,7.152614999999969)" x="45.74097800000004" y="7.152614999999969">
   5100
  </text>
  <text fill="rgb(0,178,0)" font-family="Noto Sans CJK SC" font-size="2" transform="rotate(-0.0,78.01597800000002,7.152614999999969)" x="78.01597800000002" y="7.152614999999969">
   1400
  </text>
  <text fill="rgb(0,178,0)" font-family="Noto Sans CJK SC" font-size="2" transform="rotate(-0.0,7.740978000000041,34.572614999999985)" x="7.740978000000041" y="34.572614999999985">
   2500
  </text>
  <text fill="rgb(0,178,0)" font-family="Noto Sans CJK SC" font-size="2" transform="rotate(-90.0,10.268977999999947,49.862615000000005)" x="10.268977999999947" y="49.862615000000005">
   3300
  </text>
  <text fill="rgb(0,178,0)" font-family="Noto Sans CJK SC" font-size="2" transform="rotate(-90.0,10.662977999999953,90.91161499999998)" x="10.662977999999953" y="90.91161499999998">
   6300
  </text>
 </g>
 <g id="layerA-DIM_SYMB" inkscape:groupmode="layer" inkscape:label="A-DIM_SYMB">
  <path d="M 59.92897800000003,72.33661499999994 L 59.92897800000003,78.93661499999996" fill="none" stroke="rgb(0,178,0)" stroke-width="0.1"/>
  <path d="M 59.92897800000003,78.93661499999996 L 59.92897800000003,84.93661499999996" fill="none" stroke="rgb(0,178,0)" stroke-width="0.1"/>
 </g>
 <g id="layerA-DOTE" inkscape:groupmode="layer" inkscape:label="A-DOTE">
  <path d="M 0.0,26.336614999999995 L 100.0,26.336614999999995" fill="none" stroke="rgb(107,53,53)" stroke-width="0.1"/>
  <path d="M 26.24097800000004,100.0 L 26.24097800000004,0.0" fill="none" stroke="rgb(107,53,53)" stroke-width="0.1"/>
  <path d="M 0.020099557155845105,29.853875578864745 L 0.5132741488276906,29.936420918939803" fill="none" stroke="rgb(107,53,53)" stroke-width="0.1"/>
  <path d="M 0.5132741488276906,29.936420918939803 L 1.0064764144399305,30.018800747984642" fill="none" stroke="rgb(107,53,53)" stroke-width="0.1"/>
  <path d="M 1.0064764144399305,30.018800747984642 L 1.4997062984465401,30.101015056721508" fill="none" stroke="rgb(107,53,53)" stroke-width="0.1"/>
  <path d="M 1.4997062984465401,30.101015056721508 L 1.99296374529888,30.183063835890835" fill="none" stroke="rgb(107,53,53)" stroke-width="0.1"/>
  <path d="M 1.99296374529888,30.183063835890835 L 2.4862486994444453,30.26494707625261" fill="none" stroke="rgb(107,53,53)" stroke-width="0.1"/>
  <path d="M 2.4862486994444453,30.26494707625261 L 2.9795611053274342,30.34666476858456" fill="none" stroke="rgb(107,53,53)" stroke-width="0.1"/>
  <path d="M 2.9795611053274342,30.34666476858456 L 3.472900907390226,30.42821690368328" fill="none" stroke="rgb(107,53,53)" stroke-width="0.1"/>
  <path d="M 3.472900907390226,30.42821690368328 L 3.9662680500712213,30.509603472364233" fill="none" stroke="rgb(107,53,53)" stroke-width="0.1"/>
  <path d="M 3.9662680500712213,30.509603472364233 L 4.459662477804727,30.590824465461083" fill="none" stroke="rgb(107,53,53)" stroke-width="0.1"/>
  <path d="M 4.459662477804727,30.590824465461083 L 4.953084135024142,30.671879873827038" fill="none" stroke="rgb(107,53,53)" stroke-width="0.1"/>
  <path d="M 4.953084135024142,30.671879873827038 L 5.446532966158088,30.75276968833282" fill="none" stroke="rgb(107,53,53)" stroke-width="0.1"/>
  <path d="M 5.446532966158088,30.75276968833282 L 5.940008915633257,30.833493899868927" fill="none" stroke="rgb(107,53,53)" stroke-width="0.1"/>
  <path d="M 5.940008915633257,30.833493899868927 L 6.433511927872473,30.91405249934337" fill="none" stroke="rgb(107,53,53)" stroke-width="0.1"/>
  <path d="M 6.433511927872473,30.91405249934337 L 6.927041947295606,30.994445477683485" fill="none" stroke="rgb(107,53,53)" stroke-width="0.1"/>
  <path d="M 6.927041947295606,30.994445477683485 L 7.420598918320593,31.074672825835478" fill="none" stroke="rgb(107,53,53)" stroke-width="0.1"/>
  <path d="M 7.420598918320593,31.074672825835478 L 7.914182785360367,31.15473453476352" fill="none" stroke="rgb(107,53,53)" stroke-width="0.1"/>
  <path d="M 7.914182785360367,31.15473453476352 L 8.407793492826158,31.234630595451108" fill="none" stroke="rgb(107,53,53)" stroke-width="0.1"/>
  <path d="M 8.407793492826158,31.234630595451108 L 8.90143098512624,31.314360998900156" fill="none" stroke="rgb(107,53,53)" stroke-width="0.1"/>
  <path d="M 8.90143098512624,31.314360998900156 L 9.395095206665246,31.39392573613054" fill="none" stroke="rgb(107,53,53)" stroke-width="0.1"/>
  <path d="M 9.395095206665246,31.39392573613054 L 9.888786101845426,31.47332479818192" fill="none" stroke="rgb(107,53,53)" stroke-width="0.1"/>
  <path d="M 9.888786101845426,31.47332479818192 L 10.382503615065616,31.552558176112143" fill="none" stroke="rgb(107,53,53)" stroke-width="0.1"/>
  <path d="M 10.382503615065616,31.552558176112143 L 10.87624769072147,31.6316258609977" fill="none" stroke="rgb(107,53,53)" stroke-width="0.1"/>
  <path d="M 10.87624769072147,31.6316258609977 L 11.370018273206256,31.710527843933278" fill="none" stroke="rgb(107,53,53)" stroke-width="0.1"/>
  <path d="M 11.370018273206256,31.710527843933278 L 11.863815306909714,31.789264116033337" fill="none" stroke="rgb(107,53,53)" stroke-width="0.1"/>
  <path d="M 11.863815306909714,31.789264116033337 L 12.357638736218519,31.867834668429623" fill="none" stroke="rgb(107,53,53)" stroke-width="0.1"/>
  <path d="M 12.357638736218519,31.867834668429623 L 12.851488505517295,31.94623949227389" fill="none" stroke="rgb(107,53,53)" stroke-width="0.1"/>
  <path d="M 12.851488505517295,31.94623949227389 L 13.345364559186464,32.024478578735625" fill="none" stroke="rgb(107,53,53)" stroke-width="0.1"/>
  <path d="M 13.345364559186464,32.024478578735625 L 13.83926684160474,32.10255191900342" fill="none" stroke="rgb(107,53,53)" stroke-width="0.1"/>
  <path d="M 13.83926684160474,32.10255191900342 L 14.3331952971472,32.18045950428427" fill="none" stroke="rgb(107,53,53)" stroke-width="0.1"/>
  <path d="M 14.3331952971472,32.18045950428427 L 14.82714987018494,32.25820132580384" fill="none" stroke="rgb(107,53,53)" stroke-width="0.1"/>
  <path d="M 14.82714987018494,32.25820132580384 L 15.321130505088377,32.335777374807094" fill="none" stroke="rgb(107,53,53)" stroke-width="0.1"/>
  <path d="M 15.321130505088377,32.335777374807094 L 15.815137146223265,32.41318764255675" fill="none" stroke="rgb(107,53,53)" stroke-width="0.1"/>
  <path d="M 15.815137146223265,32.41318764255675 L 16.309169737952857,32.49043212033462" fill="none" stroke="rgb(107,53,53)" stroke-width="0.1"/>
  <path d="M 16.309169737952857,32.49043212033462 L 16.80322822463802,32.56751079944115" fill="none" stroke="rgb(107,53,53)" stroke-width="0.1"/>
  <path d="M 16.80322822463802,32.56751079944115 L 17.297312550635866,32.64442367119591" fill="none" stroke="rgb(107,53,53)" stroke-width="0.1"/>
  <path d="M 17.297312550635866,32.64442367119591 L 17.79142266030169,32.72117072693618" fill="none" stroke="rgb(107,53,53)" stroke-width="0.1"/>
  <path d="M 17.79142266030169,32.72117072693618 L 18.285558497986358,32.79775195801881" fill="none" stroke="rgb(107,53,53)" stroke-width="0.1"/>
  <path d="M 18.285558497986358,32.79775195801881 L 18.779720008038794,32.874167355819054" fill="none" stroke="rgb(107,53,53)" stroke-width="0.1"/>
  <path d="M 18.779720008038794,32.874167355819054 L 19.273907134805427,32.950416911730144" fill="none" stroke="rgb(107,53,53)" stroke-width="0.1"/>
  <path d="M 19.273907134805427,32.950416911730144 L 19.768119822628933,33.026500617165084" fill="none" stroke="rgb(107,53,53)" stroke-width="0.1"/>
  <path d="M 19.768119822628933,33.026500617165084 L 20.26235801584926,33.102418463555296" fill="none" stroke="rgb(107,53,53)" stroke-width="0.1"/>
  <path d="M 20.26235801584926,33.102418463555296 L 20.756621658804306,33.178170442350165" fill="none" stroke="rgb(107,53,53)" stroke-width="0.1"/>
  <path d="M 20.756621658804306,33.178170442350165 L 21.250910695828452,33.25375654501863" fill="none" stroke="rgb(107,53,53)" stroke-width="0.1"/>
  <path d="M 21.250910695828452,33.25375654501863 L 21.745225071252207,33.3291767630476" fill="none" stroke="rgb(107,53,53)" stroke-width="0.1"/>
  <path d="M 21.745225071252207,33.3291767630476 L 22.2395647294054,33.404431087943294" fill="none" stroke="rgb(107,53,53)" stroke-width="0.1"/>
  <path d="M 22.2395647294054,33.404431087943294 L 22.733929614613203,33.47951951123014" fill="none" stroke="rgb(107,53,53)" stroke-width="0.1"/>
  <path d="M 22.733929614613203,33.47951951123014 L 23.228319671199074,33.554442024451646" fill="none" stroke="rgb(107,53,53)" stroke-width="0.1"/>
  <path d="M 23.228319671199074,33.554442024451646 L 23.72273484348318,33.629198619169756" fill="none" stroke="rgb(107,53,53)" stroke-width="0.1"/>
  <path d="M 23.72273484348318,33.629198619169756 L 24.217175075782393,33.70378928696459" fill="none" stroke="rgb(107,53,53)" stroke-width="0.1"/>
  <path d="M 24.217175075782393,33.70378928696459 L 24.7116403124121,33.77821401943629" fill="none" stroke="rgb(107,53,53)" stroke-width="0.1"/>
  <path d="M 24.7116403124121,33.77821401943629 L 25.20613049768326,33.85247280820272" fill="none" stroke="rgb(107,53,53)" stroke-width="0.1"/>
  <path d="M 25.20613049768326,33.85247280820272 L 25.700645575904673,33.926565644900165" fill="none" stroke="rgb(107,53,53)" stroke-width="0.1"/>
  <path d="M 25.700645575904673,33.926565644900165 L 26.195185491383086,34.00049252118447" fill="none" stroke="rgb(107,53,53)" stroke-width="0.1"/>
  <path d="M 26.195185491383086,34.00049252118447 L 26.689750188421044,34.074253428729435" fill="none" stroke="rgb(107,53,53)" stroke-width="0.1"/>
  <path d="M 26.689750188421044,34.074253428729435 L 27.184339611319842,34.14784835922819" fill="none" stroke="rgb(107,53,53)" stroke-width="0.1"/>
  <path d="M 27.184339611319842,34.14784835922819 L 27.67895370437691,34.22127730439229" fill="none" stroke="rgb(107,53,53)" stroke-width="0.1"/>
  <path d="M 27.67895370437691,34.22127730439229 L 28.173592411887057,34.29454025595146" fill="none" stroke="rgb(107,53,53)" stroke-width="0.1"/>
  <path d="M 28.173592411887057,34.29454025595146 L 28.6682556781426,34.367637205655" fill="none" stroke="rgb(107,53,53)" stroke-width="0.1"/>
  <path d="M 28.6682556781426,34.367637205655 L 29.162943447432895,34.44056814527016" fill="none" stroke="rgb(107,53,53)" stroke-width="0.1"/>
  <path d="M 29.162943447432895,34.44056814527016 L 29.657655664044114,34.51333306658353" fill="none" stroke="rgb(107,53,53)" stroke-width="0.1"/>
  <path d="M 29.657655664044114,34.51333306658353 L 30.152392272260954,34.58593196140009" fill="none" stroke="rgb(107,53,53)" stroke-width="0.1"/>
  <path d="M 30.152392272260954,34.58593196140009 L 30.647153216363904,34.65836482154327" fill="none" stroke="rgb(107,53,53)" stroke-width="0.1"/>
  <path d="M 30.647153216363904,34.65836482154327 L 31.14193844063209,34.730631638855584" fill="none" stroke="rgb(107,53,53)" stroke-width="0.1"/>
  <path d="M 31.14193844063209,34.730631638855584 L 31.636747889340995,34.802732405198185" fill="none" stroke="rgb(107,53,53)" stroke-width="0.1"/>
  <path d="M 31.636747889340995,34.802732405198185 L 32.1315815067627,34.874667112450425" fill="none" stroke="rgb(107,53,53)" stroke-width="0.1"/>
  <path d="M 32.1315815067627,34.874667112450425 L 32.62643923716848,34.946435752511434" fill="none" stroke="rgb(107,53,53)" stroke-width="0.1"/>
  <path d="M 32.62643923716848,34.946435752511434 L 33.12132102482542,35.01803831729785" fill="none" stroke="rgb(107,53,53)" stroke-width="0.1"/>
  <path d="M 33.12132102482542,35.01803831729785 L 33.61622681399797,35.089474798746096" fill="none" stroke="rgb(107,53,53)" stroke-width="0.1"/>
  <path d="M 33.61622681399797,35.089474798746096 L 34.111156548948884,35.1607451888101" fill="none" stroke="rgb(107,53,53)" stroke-width="0.1"/>
  <path d="M 34.111156548948884,35.1607451888101 L 34.606110173937054,35.23184947946379" fill="none" stroke="rgb(107,53,53)" stroke-width="0.1"/>
  <path d="M 34.606110173937054,35.23184947946379 L 35.10108763321989,35.30278766269862" fill="none" stroke="rgb(107,53,53)" stroke-width="0.1"/>
  <path d="M 35.10108763321989,35.30278766269862 L 35.5960888710506,35.37355973052581" fill="none" stroke="rgb(107,53,53)" stroke-width="0.1"/>
  <path d="M 35.5960888710506,35.37355973052581 L 36.09111383168067,35.44416567497433" fill="none" stroke="rgb(107,53,53)" stroke-width="0.1"/>
  <path d="M 36.09111383168067,35.44416567497433 L 36.586162459359116,35.514605488092684" fill="none" stroke="rgb(107,53,53)" stroke-width="0.1"/>
  <path d="M 36.586162459359116,35.514605488092684 L 37.081234698331855,35.584879161947356" fill="none" stroke="rgb(107,53,53)" stroke-width="0.1"/>
  <path d="M 37.081234698331855,35.584879161947356 L 37.57633049284175,35.65498668862415" fill="none" stroke="rgb(107,53,53)" stroke-width="0.1"/>
  <path d="M 37.57633049284175,35.65498668862415 L 38.07144978713029,35.724928060227285" fill="none" stroke="rgb(107,53,53)" stroke-width="0.1"/>
  <path d="M 38.07144978713029,35.724928060227285 L 38.56659252543557,35.79470326887963" fill="none" stroke="rgb(107,53,53)" stroke-width="0.1"/>
  <path d="M 38.56659252543557,35.79470326887963 L 39.06175865199168,35.86431230672315" fill="none" stroke="rgb(107,53,53)" stroke-width="0.1"/>
  <path d="M 39.06175865199168,35.86431230672315 L 39.55694811103274,35.933755165918" fill="none" stroke="rgb(107,53,53)" stroke-width="0.1"/>
  <path d="M 39.55694811103274,35.933755165918 L 40.05216084678807,36.00303183864298" fill="none" stroke="rgb(107,53,53)" stroke-width="0.1"/>
  <path d="M 40.05216084678807,36.00303183864298 L 40.54739680348598,36.07214231709668" fill="none" stroke="rgb(107,53,53)" stroke-width="0.1"/>
  <path d="M 40.54739680348598,36.07214231709668 L 41.042655925350914,36.141086593495174" fill="none" stroke="rgb(107,53,53)" stroke-width="0.1"/>
  <path d="M 41.042655925350914,36.141086593495174 L 41.53793815660481,36.20986466007366" fill="none" stroke="rgb(107,53,53)" stroke-width="0.1"/>
  <path d="M 41.53793815660481,36.20986466007366 L 42.03324344146847,36.27847650908643" fill="none" stroke="rgb(107,53,53)" stroke-width="0.1"/>
  <path d="M 42.03324344146847,36.27847650908643 L 42.52857172415804,36.346922132806185" fill="none" stroke="rgb(107,53,53)" stroke-width="0.1"/>
  <path d="M 42.52857172415804,36.346922132806185 L 43.02392294888796,36.41520152352382" fill="none" stroke="rgb(107,53,53)" stroke-width="0.1"/>
  <path d="M 43.02392294888796,36.41520152352382 L 43.51929705987072,36.48331467355024" fill="none" stroke="rgb(107,53,53)" stroke-width="0.1"/>
  <path d="M 43.51929705987072,36.48331467355024 L 44.01469400131509,36.55126157521386" fill="none" stroke="rgb(107,53,53)" stroke-width="0.1"/>
  <path d="M 44.01469400131509,36.55126157521386 L 44.51011371742868,36.61904222086241" fill="none" stroke="rgb(107,53,53)" stroke-width="0.1"/>
  <path d="M 44.51011371742868,36.61904222086241 L 45.005556152415124,36.68665660286206" fill="none" stroke="rgb(107,53,53)" stroke-width="0.1"/>
  <path d="M 45.005556152415124,36.68665660286206 L 45.50102125047613,36.75410471359805" fill="none" stroke="rgb(107,53,53)" stroke-width="0.1"/>
  <path d="M 45.50102125047613,36.75410471359805 L 45.996508955810896,36.82138654547407" fill="none" stroke="rgb(107,53,53)" stroke-width="0.1"/>
  <path d="M 45.996508955810896,36.82138654547407 L 46.4920192126159,36.88850209091288" fill="none" stroke="rgb(107,53,53)" stroke-width="0.1"/>
  <path d="M 46.4920192126159,36.88850209091288 L 46.98755196508489,36.95545134235499" fill="none" stroke="rgb(107,53,53)" stroke-width="0.1"/>
  <path d="M 46.98755196508489,36.95545134235499 L 47.48310715741002,37.022234292261146" fill="none" stroke="rgb(107,53,53)" stroke-width="0.1"/>
  <path d="M 47.48310715741002,37.022234292261146 L 47.97868473377946,37.088850933109825" fill="none" stroke="rgb(107,53,53)" stroke-width="0.1"/>
  <path d="M 47.97868473377946,37.088850933109825 L 48.47428463838048,37.15530125739815" fill="none" stroke="rgb(107,53,53)" stroke-width="0.1"/>
  <path d="M 48.47428463838048,37.15530125739815 L 48.969906815396826,37.22158525764257" fill="none" stroke="rgb(107,53,53)" stroke-width="0.1"/>
  <path d="M 48.969906815396826,37.22158525764257 L 49.46555120900905,37.28770292637773" fill="none" stroke="rgb(107,53,53)" stroke-width="0.1"/>
  <path d="M 49.46555120900905,37.28770292637773 L 49.96121776339692,37.35365425615737" fill="none" stroke="rgb(107,53,53)" stroke-width="0.1"/>
  <path d="M 49.96121776339692,37.35365425615737 L 50.456906422736665,37.41943923955387" fill="none" stroke="rgb(107,53,53)" stroke-width="0.1"/>
  <path d="M 50.456906422736665,37.41943923955387 L 50.952617131201805,37.485057869158254" fill="none" stroke="rgb(107,53,53)" stroke-width="0.1"/>
  <path d="M 50.952617131201805,37.485057869158254 L 51.44834983296448,37.55051013758043" fill="none" stroke="rgb(107,53,53)" stroke-width="0.1"/>
  <path d="M 51.44834983296448,37.55051013758043 L 51.944104472192976,37.61579603744872" fill="none" stroke="rgb(107,53,53)" stroke-width="0.1"/>
  <path d="M 51.944104472192976,37.61579603744872 L 52.43988099305477,37.68091556141076" fill="none" stroke="rgb(107,53,53)" stroke-width="0.1"/>
  <path d="M 52.43988099305477,37.68091556141076 L 52.935679339712806,37.745868702132384" fill="none" stroke="rgb(107,53,53)" stroke-width="0.1"/>
  <path d="M 52.935679339712806,37.745868702132384 L 53.43149945632888,37.810655452298306" fill="none" stroke="rgb(107,53,53)" stroke-width="0.1"/>
  <path d="M 53.43149945632888,37.810655452298306 L 53.92734128706263,37.8752758046121" fill="none" stroke="rgb(107,53,53)" stroke-width="0.1"/>
  <path d="M 53.92734128706263,37.8752758046121 L 54.42320477607029,37.93972975179577" fill="none" stroke="rgb(107,53,53)" stroke-width="0.1"/>
  <path d="M 54.42320477607029,37.93972975179577 L 54.91908986750593,38.004017286590624" fill="none" stroke="rgb(107,53,53)" stroke-width="0.1"/>
  <path d="M 54.91908986750593,38.004017286590624 L 55.414996505522026,38.068138401756414" fill="none" stroke="rgb(107,53,53)" stroke-width="0.1"/>
  <path d="M 55.414996505522026,38.068138401756414 L 55.910924634267644,38.13209309007152" fill="none" stroke="rgb(107,53,53)" stroke-width="0.1"/>
  <path d="M 55.910924634267644,38.13209309007152 L 56.40687419788958,38.195881344332975" fill="none" stroke="rgb(107,53,53)" stroke-width="0.1"/>
  <path d="M 56.40687419788958,38.195881344332975 L 56.90284514053235,38.2595031573569" fill="none" stroke="rgb(107,53,53)" stroke-width="0.1"/>
  <path d="M 56.90284514053235,38.2595031573569 L 57.398837406337975,38.32295852197808" fill="none" stroke="rgb(107,53,53)" stroke-width="0.1"/>
  <path d="M 57.398837406337975,38.32295852197808 L 57.894850939446656,38.386247431049924" fill="none" stroke="rgb(107,53,53)" stroke-width="0.1"/>
  <path d="M 57.894850939446656,38.386247431049924 L 58.390885683995634,38.44936987744427" fill="none" stroke="rgb(107,53,53)" stroke-width="0.1"/>
  <path d="M 58.390885683995634,38.44936987744427 L 58.8869415841192,38.51232585405273" fill="none" stroke="rgb(107,53,53)" stroke-width="0.1"/>
  <path d="M 58.8869415841192,38.51232585405273 L 59.383018583951184,38.57511535378444" fill="none" stroke="rgb(107,53,53)" stroke-width="0.1"/>
  <path d="M 59.383018583951184,38.57511535378444 L 59.879116627620306,38.63773836956807" fill="none" stroke="rgb(107,53,53)" stroke-width="0.1"/>
  <path d="M 59.879116627620306,38.63773836956807 L 60.37523565925551,38.700194894350716" fill="none" stroke="rgb(107,53,53)" stroke-width="0.1"/>
  <path d="M 60.37523565925551,38.700194894350716 L 60.871375622981645,38.762484921098576" fill="none" stroke="rgb(107,53,53)" stroke-width="0.1"/>
  <path d="M 60.871375622981645,38.762484921098576 L 61.36753646292186,38.82460844279581" fill="none" stroke="rgb(107,53,53)" stroke-width="0.1"/>
  <path d="M 61.36753646292186,38.82460844279581 L 61.86371812319726,38.886565452446575" fill="none" stroke="rgb(107,53,53)" stroke-width="0.1"/>
  <path d="M 61.86371812319726,38.886565452446575 L 62.35992054792598,38.948355943072556" fill="none" stroke="rgb(107,53,53)" stroke-width="0.1"/>
  <path d="M 62.35992054792598,38.948355943072556 L 62.85614368122424,39.00997990771475" fill="none" stroke="rgb(107,53,53)" stroke-width="0.1"/>
  <path d="M 62.85614368122424,39.00997990771475 L 63.35238746720563,39.07143733943303" fill="none" stroke="rgb(107,53,53)" stroke-width="0.1"/>
  <path d="M 63.35238746720563,39.07143733943303 L 63.84865184998114,39.13272823130569" fill="none" stroke="rgb(107,53,53)" stroke-width="0.1"/>
  <path d="M 63.84865184998114,39.13272823130569 L 64.34493677366072,39.19385257643012" fill="none" stroke="rgb(107,53,53)" stroke-width="0.1"/>
  <path d="M 64.34493677366072,39.19385257643012 L 64.8412421823507,39.254810367922346" fill="none" stroke="rgb(107,53,53)" stroke-width="0.1"/>
  <path d="M 64.8412421823507,39.254810367922346 L 65.33756802015512,39.31560159891683" fill="none" stroke="rgb(107,53,53)" stroke-width="0.1"/>
  <path d="M 65.33756802015512,39.31560159891683 L 65.833914231177,39.37622626256734" fill="none" stroke="rgb(107,53,53)" stroke-width="0.1"/>
  <path d="M 65.833914231177,39.37622626256734 L 66.3302807595162,39.43668435204586" fill="none" stroke="rgb(107,53,53)" stroke-width="0.1"/>
  <path d="M 66.3302807595162,39.43668435204586 L 66.82666754926913,39.49697586054367" fill="none" stroke="rgb(107,53,53)" stroke-width="0.1"/>
  <path d="M 66.82666754926913,39.49697586054367 L 67.32307454453223,39.55710078127049" fill="none" stroke="rgb(107,53,53)" stroke-width="0.1"/>
  <path d="M 67.32307454453223,39.55710078127049 L 67.81950168939773,39.61705910745445" fill="none" stroke="rgb(107,53,53)" stroke-width="0.1"/>
  <path d="M 67.81950168939773,39.61705910745445 L 68.31594892795727,39.67685083234346" fill="none" stroke="rgb(107,53,53)" stroke-width="0.1"/>
  <path d="M 68.31594892795727,39.67685083234346 L 68.81241620429876,39.736475949203395" fill="none" stroke="rgb(107,53,53)" stroke-width="0.1"/>
  <path d="M 68.81241620429876,39.736475949203395 L 69.30890346250828,39.79593445131877" fill="none" stroke="rgb(107,53,53)" stroke-width="0.1"/>
  <path d="M 69.30890346250828,39.79593445131877 L 69.80541064667057,39.85522633199366" fill="none" stroke="rgb(107,53,53)" stroke-width="0.1"/>
  <path d="M 69.80541064667057,39.85522633199366 L 70.30193770086669,39.914351584550104" fill="none" stroke="rgb(107,53,53)" stroke-width="0.1"/>
  <path d="M 70.30193770086669,39.914351584550104 L 70.79848456917603,39.973310202329" fill="none" stroke="rgb(107,53,53)" stroke-width="0.1"/>
  <path d="M 70.79848456917603,39.973310202329 L 71.29505119567648,40.03210217869059" fill="none" stroke="rgb(107,53,53)" stroke-width="0.1"/>
  <path d="M 71.29505119567648,40.03210217869059 L 71.79163752444231,40.090727507013526" fill="none" stroke="rgb(107,53,53)" stroke-width="0.1"/>
  <path d="M 71.79163752444231,40.090727507013526 L 72.28824349954732,40.1491861806951" fill="none" stroke="rgb(107,53,53)" stroke-width="0.1"/>
  <path d="M 72.28824349954732,40.1491861806951 L 72.78486906506146,40.2074781931517" fill="none" stroke="rgb(107,53,53)" stroke-width="0.1"/>
  <path d="M 72.78486906506146,40.2074781931517 L 73.2815141650533,40.265603537817924" fill="none" stroke="rgb(107,53,53)" stroke-width="0.1"/>
  <path d="M 73.2815141650533,40.265603537817924 L 73.77817874358902,40.32356220814813" fill="none" stroke="rgb(107,53,53)" stroke-width="0.1"/>
  <path d="M 73.77817874358902,40.32356220814813 L 74.27486274473267,40.3813541976142" fill="none" stroke="rgb(107,53,53)" stroke-width="0.1"/>
  <path d="M 74.27486274473267,40.3813541976142 L 74.77156611254577,40.43897949970756" fill="none" stroke="rgb(107,53,53)" stroke-width="0.1"/>
  <path d="M 74.77156611254577,40.43897949970756 L 75.26828879108848,40.496438107938275" fill="none" stroke="rgb(107,53,53)" stroke-width="0.1"/>
  <path d="M 75.26828879108848,40.496438107938275 L 75.76503072441778,40.5537300158353" fill="none" stroke="rgb(107,53,53)" stroke-width="0.1"/>
  <path d="M 75.76503072441778,40.5537300158353 L 76.26179185658953,40.61085521694622" fill="none" stroke="rgb(107,53,53)" stroke-width="0.1"/>
  <path d="M 76.26179185658953,40.61085521694622 L 76.75857213165682,40.6678137048375" fill="none" stroke="rgb(107,53,53)" stroke-width="0.1"/>
  <path d="M 76.75857213165682,40.6678137048375 L 77.25537149366983,40.724605473094016" fill="none" stroke="rgb(107,53,53)" stroke-width="0.1"/>
  <path d="M 77.25537149366983,40.724605473094016 L 77.75218988667814,40.78123051531975" fill="none" stroke="rgb(107,53,53)" stroke-width="0.1"/>
  <path d="M 77.75218988667814,40.78123051531975 L 78.24902725472839,40.83768882513755" fill="none" stroke="rgb(107,53,53)" stroke-width="0.1"/>
  <path d="M 78.24902725472839,40.83768882513755 L 78.7458835418646,40.89398039618868" fill="none" stroke="rgb(107,53,53)" stroke-width="0.1"/>
  <path d="M 78.7458835418646,40.89398039618868 L 79.24275869212988,40.95010522213374" fill="none" stroke="rgb(107,53,53)" stroke-width="0.1"/>
  <path d="M 79.24275869212988,40.95010522213374 L 79.73965264956462,41.00606329665152" fill="none" stroke="rgb(107,53,53)" stroke-width="0.1"/>
  <path d="M 79.73965264956462,41.00606329665152 L 80.23656535820578,41.06185461343989" fill="none" stroke="rgb(107,53,53)" stroke-width="0.1"/>
  <path d="M 80.23656535820578,41.06185461343989 L 80.7334967620908,41.11747916621539" fill="none" stroke="rgb(107,53,53)" stroke-width="0.1"/>
  <path d="M 80.7334967620908,41.11747916621539 L 81.23044680525265,41.172936948713186" fill="none" stroke="rgb(107,53,53)" stroke-width="0.1"/>
  <path d="M 81.23044680525265,41.172936948713186 L 81.7274154317239,41.228227954688236" fill="none" stroke="rgb(107,53,53)" stroke-width="0.1"/>
  <path d="M 81.7274154317239,41.228227954688236 L 82.22440258553422,41.283352177912775" fill="none" stroke="rgb(107,53,53)" stroke-width="0.1"/>
  <path d="M 82.22440258553422,41.283352177912775 L 82.7214082107107,41.33830961217859" fill="none" stroke="rgb(107,53,53)" stroke-width="0.1"/>
  <path d="M 82.7214082107107,41.33830961217859 L 83.21843225127998,41.393100251296346" fill="none" stroke="rgb(107,53,53)" stroke-width="0.1"/>
  <path d="M 83.21843225127998,41.393100251296346 L 83.7154746512648,41.447724089095345" fill="none" stroke="rgb(107,53,53)" stroke-width="0.1"/>
  <path d="M 83.7154746512648,41.447724089095345 L 84.21253535468645,41.50218111942377" fill="none" stroke="rgb(107,53,53)" stroke-width="0.1"/>
  <path d="M 84.21253535468645,41.50218111942377 L 84.70961430556497,41.556471336148434" fill="none" stroke="rgb(107,53,53)" stroke-width="0.1"/>
  <path d="M 84.70961430556497,41.556471336148434 L 85.20671144791709,41.610594733154585" fill="none" stroke="rgb(107,53,53)" stroke-width="0.1"/>
  <path d="M 85.20671144791709,41.610594733154585 L 85.70382672575886,41.66455130434747" fill="none" stroke="rgb(107,53,53)" stroke-width="0.1"/>
  <path d="M 85.70382672575886,41.66455130434747 L 86.20096008310304,41.718341043649616" fill="none" stroke="rgb(107,53,53)" stroke-width="0.1"/>
  <path d="M 86.20096008310304,41.718341043649616 L 86.69811146396091,41.771963945003336" fill="none" stroke="rgb(107,53,53)" stroke-width="0.1"/>
  <path d="M 86.69811146396091,41.771963945003336 L 87.19528081234171,41.825420002369356" fill="none" stroke="rgb(107,53,53)" stroke-width="0.1"/>
  <path d="M 87.19528081234171,41.825420002369356 L 87.69246807225261,41.8787092097275" fill="none" stroke="rgb(107,53,53)" stroke-width="0.1"/>
  <path d="M 87.69246807225261,41.8787092097275 L 88.1896731876983,41.931831561075796" fill="none" stroke="rgb(107,53,53)" stroke-width="0.1"/>
  <path d="M 88.1896731876983,41.931831561075796 L 88.68689610268268,41.984787050431805" fill="none" stroke="rgb(107,53,53)" stroke-width="0.1"/>
  <path d="M 88.68689610268268,41.984787050431805 L 89.18413676120622,42.03757567183129" fill="none" stroke="rgb(107,53,53)" stroke-width="0.1"/>
  <path d="M 89.18413676120622,42.03757567183129 L 89.68139510726905,42.090197419329115" fill="none" stroke="rgb(107,53,53)" stroke-width="0.1"/>
  <path d="M 89.68139510726905,42.090197419329115 L 90.17867108486723,42.14265228699878" fill="none" stroke="rgb(107,53,53)" stroke-width="0.1"/>
  <path d="M 90.17867108486723,42.14265228699878 L 90.67596463799612,42.19494026893244" fill="none" stroke="rgb(107,53,53)" stroke-width="0.1"/>
  <path d="M 90.67596463799612,42.19494026893244 L 91.17327571064925,42.2470613592418" fill="none" stroke="rgb(107,53,53)" stroke-width="0.1"/>
  <path d="M 91.17327571064925,42.2470613592418 L 91.67060424681779,42.29901555205629" fill="none" stroke="rgb(107,53,53)" stroke-width="0.1"/>
  <path d="M 91.67060424681779,42.29901555205629 L 92.16795019049039,42.35080284152491" fill="none" stroke="rgb(107,53,53)" stroke-width="0.1"/>
  <path d="M 92.16795019049039,42.35080284152491 L 92.66531348565525,42.4024232218153" fill="none" stroke="rgb(107,53,53)" stroke-width="0.1"/>
  <path d="M 92.66531348565525,42.4024232218153 L 93.1626940762975,42.45387668711351" fill="none" stroke="rgb(107,53,53)" stroke-width="0.1"/>
  <path d="M 93.1626940762975,42.45387668711351 L 93.66009190639954,42.50516323162492" fill="none" stroke="rgb(107,53,53)" stroke-width="0.1"/>
  <path d="M 93.66009190639954,42.50516323162492 L 94.1575069199439,42.556282849573336" fill="none" stroke="rgb(107,53,53)" stroke-width="0.1"/>
  <path d="M 94.1575069199439,42.556282849573336 L 94.65493906090933,42.60723553520165" fill="none" stroke="rgb(107,53,53)" stroke-width="0.1"/>
  <path d="M 94.65493906090933,42.60723553520165 L 95.15238827327414,42.65802128277119" fill="none" stroke="rgb(107,53,53)" stroke-width="0.1"/>
  <path d="M 95.15238827327414,42.65802128277119 L 95.64985450101346,42.70864008656258" fill="none" stroke="rgb(107,53,53)" stroke-width="0.1"/>
  <path d="M 95.64985450101346,42.70864008656258 L 96.14733768810095,42.75909194087467" fill="none" stroke="rgb(107,53,53)" stroke-width="0.1"/>
  <path d="M 96.14733768810095,42.75909194087467 L 96.64483777850921,42.80937684002561" fill="none" stroke="rgb(107,53,53)" stroke-width="0.1"/>
  <path d="M 96.64483777850921,42.80937684002561 L 97.14235471620657,42.859494778351745" fill="none" stroke="rgb(107,53,53)" stroke-width="0.1"/>
  <path d="M 97.14235471620657,42.859494778351745 L 97.63988844516302,42.90944575020944" fill="none" stroke="rgb(107,53,53)" stroke-width="0.1"/>
  <path d="M 97.63988844516302,42.90944575020944 L 98.13743890934336,42.95922974997234" fill="none" stroke="rgb(107,53,53)" stroke-width="0.1"/>
  <path d="M 98.13743890934336,42.95922974997234 L 98.6350060527119,43.00884677203385" fill="none" stroke="rgb(107,53,53)" stroke-width="0.1"/>
  <path d="M 98.6350060527119,43.00884677203385 L 99.13258981923161,43.05829681080604" fill="none" stroke="rgb(107,53,53)" stroke-width="0.1"/>
  <path d="M 99.13258981923161,43.05829681080604 L 99.63019015286261,43.1075798607194" fill="none" stroke="rgb(107,53,53)" stroke-width="0.1"/>
 </g>
 <g id="layerA-HATCH" inkscape:groupmode="layer" inkscape:label="A-HATCH">
  <path d="M 25.533978000000047,55.336614999999995 L 25.533978000000047,53.336614999999995" fill="none" stroke="rgb(92,92,92)" stroke-width="0.1"/>
  <path d="M 24.120978000000036,55.336614999999995 L 24.120978000000036,53.336614999999995" fill="none" stroke="rgb(92,92,92)" stroke-width="0.1"/>
  <path d="M 22.707978000000026,55.336614999999995 L 22.707978000000026,53.336614999999995" fill="none" stroke="rgb(92,92,92)" stroke-width="0.1"/>
  <path d="M 21.294978000000015,55.336614999999995 L 21.294978000000015,53.336614999999995" fill="none" stroke="rgb(92,92,92)" stroke-width="0.1"/>
  <path d="M 19.881978000000004,55.336614999999995 L 19.881978000000004,53.336614999999995" fill="none" stroke="rgb(92,92,92)" stroke-width="0.1"/>
  <path d="M 18.468977999999993,55.336614999999995 L 18.468977999999993,53.336614999999995" fill="none" stroke="rgb(92,92,92)" stroke-width="0.1"/>
  <path d="M 17.055977999999982,55.336614999999995 L 17.055977999999982,53.336614999999995" fill="none" stroke="rgb(92,92,92)" stroke-width="0.1"/>
  <path d="M 15.642977999999971,55.336614999999995 L 15.642977999999971,53.336614999999995" fill="none" stroke="rgb(92,92,92)" stroke-width="0.1"/>
  <path d="M 14.22997799999996,55.336614999999995 L 14.22997799999996,53.336614999999995" fill="none" stroke="rgb(92,92,92)" stroke-width="0.1"/>
  <path d="M 12.81697799999995,55.336614999999995 L 12.81697799999995,53.336614999999995" fill="none" stroke="rgb(92,92,92)" stroke-width="0.1"/>
  <path d="M 11.403977999999938,55.336614999999995 L 11.403977999999938,53.336614999999995" fill="none" stroke="rgb(92,92,92)" stroke-width="0.1"/>
  <path d="M 9.990978000000041,55.336614999999995 L 9.990978000000041,53.336614999999995" fill="none" stroke="rgb(92,92,92)" stroke-width="0.1"/>
  <path d="M 8.57797800000003,55.336614999999995 L 8.57797800000003,53.336614999999995" fill="none" stroke="rgb(92,92,92)" stroke-width="0.1"/>
  <path d="M 7.164978000000019,55.336614999999995 L 7.164978000000019,53.336614999999995" fill="none" stroke="rgb(92,92,92)" stroke-width="0.1"/>
  <path d="M 5.751978000000008,55.336614999999995 L 5.751978000000008,53.336614999999995" fill="none" stroke="rgb(92,92,92)" stroke-width="0.1"/>
  <path d="M 4.338977999999997,55.336614999999995 L 4.338977999999997,53.336614999999995" fill="none" stroke="rgb(92,92,92)" stroke-width="0.1"/>
  <path d="M 2.9259779999999864,55.336614999999995 L 2.9259779999999864,53.336614999999995" fill="none" stroke="rgb(92,92,92)" stroke-width="0.1"/>
  <path d="M 1.5129779999999755,55.336614999999995 L 1.5129779999999755,53.336614999999995" fill="none" stroke="rgb(92,92,92)" stroke-width="0.1"/>
  <path d="M 91.24097800000004,69.62161500000002 L 91.95597799999996,69.62161500000002" fill="none" stroke="rgb(92,92,92)" stroke-width="0.1"/>
  <path d="M 91.24097800000004,68.19061499999998 L 93.24097800000004,68.19061499999998" fill="none" stroke="rgb(92,92,92)" stroke-width="0.1"/>
  <path d="M 91.24097800000004,66.76061500000003 L 93.24097800000004,66.76061500000003" fill="none" stroke="rgb(92,92,92)" stroke-width="0.1"/>
  <path d="M 91.24097800000004,65.32961499999999 L 93.24097800000004,65.32961499999999" fill="none" stroke="rgb(92,92,92)" stroke-width="0.1"/>
  <path d="M 91.24097800000004,63.89961500000004 L 93.24097800000004,63.89961500000004" fill="none" stroke="rgb(92,92,92)" stroke-width="0.1"/>
  <path d="M 91.24097800000004,62.468615 L 93.24097800000004,62.468615" fill="none" stroke="rgb(92,92,92)" stroke-width="0.1"/>
  <path d="M 91.24097800000004,61.038614999999936 L 93.24097800000004,61.038614999999936" fill="none" stroke="rgb(92,92,92)" stroke-width="0.1"/>
  <path d="M 91.24097800000004,59.608614999999986 L 93.24097800000004,59.608614999999986" fill="none" stroke="rgb(92,92,92)" stroke-width="0.1"/>
  <path d="M 91.24097800000004,58.177615 L 93.24097800000004,58.177615" fill="none" stroke="rgb(92,92,92)" stroke-width="0.1"/>
  <path d="M 91.24097800000004,56.747614999999996 L 93.24097800000004,56.747614999999996" fill="none" stroke="rgb(92,92,92)" stroke-width="0.1"/>
  <path d="M 91.24097800000004,55.31661500000001 L 93.24097800000004,55.31661500000001" fill="none" stroke="rgb(92,92,92)" stroke-width="0.1"/>
  <path d="M 91.24097800000004,53.886615000000006 L 93.24097800000004,53.886615000000006" fill="none" stroke="rgb(92,92,92)" stroke-width="0.1"/>
  <path d="M 91.24097800000004,52.455614999999966 L 93.24097800000004,52.455614999999966" fill="none" stroke="rgb(92,92,92)" stroke-width="0.1"/>
  <path d="M 91.24097800000004,51.02561499999996 L 93.24097800000004,51.02561499999996" fill="none" stroke="rgb(92,92,92)" stroke-width="0.1"/>
  <path d="M 91.24097800000004,49.594614999999976 L 93.24097800000004,49.594614999999976" fill="none" stroke="rgb(92,92,92)" stroke-width="0.1"/>
  <path d="M 91.24097800000004,48.16461499999997 L 93.24097800000004,48.16461499999997" fill="none" stroke="rgb(92,92,92)" stroke-width="0.1"/>
  <path d="M 91.24097800000004,46.733614999999986 L 93.24097800000004,46.733614999999986" fill="none" stroke="rgb(92,92,92)" stroke-width="0.1"/>
  <path d="M 91.24097800000004,45.30361499999998 L 93.24097800000004,45.30361499999998" fill="none" stroke="rgb(92,92,92)" stroke-width="0.1"/>
  <path d="M 91.24097800000004,43.872614999999996 L 93.24097800000004,43.872614999999996" fill="none" stroke="rgb(92,92,92)" stroke-width="0.1"/>
  <path d="M 91.24097800000004,42.44261499999999 L 93.24097800000004,42.44261499999999" fill="none" stroke="rgb(92,92,92)" stroke-width="0.1"/>
  <path d="M 91.24097800000004,41.011615000000006 L 93.24097800000004,41.011615000000006" fill="none" stroke="rgb(92,92,92)" stroke-width="0.1"/>
  <path d="M 91.24097800000004,39.581615 L 93.24097800000004,39.581615" fill="none" stroke="rgb(92,92,92)" stroke-width="0.1"/>
  <path d="M 92.44697799999994,38.15061499999996 L 93.24097800000004,38.15061499999996" fill="none" stroke="rgb(92,92,92)" stroke-width="0.1"/>
  <path d="M 77.24097800000004,36.992615 L 78.03697799999998,36.992615" fill="none" stroke="rgb(92,92,92)" stroke-width="0.1"/>
  <path d="M 77.24097800000004,35.57161500000001 L 79.24097800000004,35.57161500000001" fill="none" stroke="rgb(92,92,92)" stroke-width="0.1"/>
  <path d="M 77.24097800000004,34.15061499999996 L 79.24097800000004,34.15061499999996" fill="none" stroke="rgb(92,92,92)" stroke-width="0.1"/>
  <path d="M 77.24097800000004,32.72861499999999 L 79.24097800000004,32.72861499999999" fill="none" stroke="rgb(92,92,92)" stroke-width="0.1"/>
  <path d="M 77.24097800000004,31.307615 L 79.24097800000004,31.307615" fill="none" stroke="rgb(92,92,92)" stroke-width="0.1"/>
  <path d="M 77.24097800000004,29.886615000000006 L 79.24097800000004,29.886615000000006" fill="none" stroke="rgb(92,92,92)" stroke-width="0.1"/>
  <path d="M 77.24097800000004,28.465615000000014 L 79.24097800000004,28.465615000000014" fill="none" stroke="rgb(92,92,92)" stroke-width="0.1"/>
  <path d="M 77.24097800000004,27.04361499999999 L 79.24097800000004,27.04361499999999" fill="none" stroke="rgb(92,92,92)" stroke-width="0.1"/>
  <path d="M 77.24097800000004,25.622614999999996 L 79.24097800000004,25.622614999999996" fill="none" stroke="rgb(92,92,92)" stroke-width="0.1"/>
  <path d="M 77.24097800000004,24.201615000000004 L 79.24097800000004,24.201615000000004" fill="none" stroke="rgb(92,92,92)" stroke-width="0.1"/>
  <path d="M 77.24097800000004,22.78061500000001 L 79.24097800000004,22.78061500000001" fill="none" stroke="rgb(92,92,92)" stroke-width="0.1"/>
  <path d="M 77.24097800000004,21.358614999999986 L 79.24097800000004,21.358614999999986" fill="none" stroke="rgb(92,92,92)" stroke-width="0.1"/>
  <path d="M 77.24097800000004,19.937614999999994 L 79.24097800000004,19.937614999999994" fill="none" stroke="rgb(92,92,92)" stroke-width="0.1"/>
  <path d="M 77.24097800000004,18.516615 L 79.24097800000004,18.516615" fill="none" stroke="rgb(92,92,92)" stroke-width="0.1"/>
  <path d="M 77.24097800000004,17.094614999999976 L 79.24097800000004,17.094614999999976" fill="none" stroke="rgb(92,92,92)" stroke-width="0.1"/>
  <path d="M 77.24097800000004,15.673614999999984 L 79.24097800000004,15.673614999999984" fill="none" stroke="rgb(92,92,92)" stroke-width="0.1"/>
  <path d="M 77.24097800000004,14.252614999999992 L 79.24097800000004,14.252614999999992" fill="none" stroke="rgb(92,92,92)" stroke-width="0.1"/>
  <path d="M 77.24097800000004,12.831615 L 79.24097800000004,12.831615" fill="none" stroke="rgb(92,92,92)" stroke-width="0.1"/>
  <path d="M 77.24097800000004,11.409614999999974 L 79.24097800000004,11.409614999999974" fill="none" stroke="rgb(92,92,92)" stroke-width="0.1"/>
  <path d="M 77.24097800000004,9.988614999999982 L 79.24097800000004,9.988614999999982" fill="none" stroke="rgb(92,92,92)" stroke-width="0.1"/>
  <path d="M 77.24097800000004,8.56761499999999 L 79.24097800000004,8.56761499999999" fill="none" stroke="rgb(92,92,92)" stroke-width="0.1"/>
  <path d="M 77.24097800000004,7.145614999999964 L 79.24097800000004,7.145614999999964" fill="none" stroke="rgb(92,92,92)" stroke-width="0.1"/>
  <path d="M 77.24097800000004,5.724614999999972 L 79.24097800000004,5.724614999999972" fill="none" stroke="rgb(92,92,92)" stroke-width="0.1"/>
  <path d="M 77.24097800000004,4.303614999999979 L 79.24097800000004,4.303614999999979" fill="none" stroke="rgb(92,92,92)" stroke-width="0.1"/>
  <path d="M 77.24097800000004,2.882614999999987 L 79.24097800000004,2.882614999999987" fill="none" stroke="rgb(92,92,92)" stroke-width="0.1"/>
  <path d="M 77.24097800000004,1.4606149999999616 L 79.24097800000004,1.4606149999999616" fill="none" stroke="rgb(92,92,92)" stroke-width="0.1"/>
  <path d="M 77.24097800000004,0.039614999999969314 L 79.24097800000004,0.039614999999969314" fill="none" stroke="rgb(92,92,92)" stroke-width="0.1"/>
  <path d="M 72.71197800000004,88.33661499999994 L 72.71197800000004,90.33661499999994" fill="none" stroke="rgb(92,92,92)" stroke-width="0.1"/>
  <path d="M 90.011978,88.33661499999994 L 90.011978,90.33661499999994" fill="none" stroke="rgb(92,92,92)" stroke-width="0.1"/>
  <path d="M 91.453978,88.33661499999994 L 91.453978,90.33661499999994" fill="none" stroke="rgb(92,92,92)" stroke-width="0.1"/>
  <path d="M 92.89497800000004,88.33661499999994 L 92.89497800000004,90.33661499999994" fill="none" stroke="rgb(92,92,92)" stroke-width="0.1"/>
  <path d="M 94.33697800000004,88.33661499999994 L 94.33697800000004,90.33661499999994" fill="none" stroke="rgb(92,92,92)" stroke-width="0.1"/>
  <path d="M 95.77897799999994,88.33661499999994 L 95.77897799999994,90.33661499999994" fill="none" stroke="rgb(92,92,92)" stroke-width="0.1"/>
  <path d="M 97.21997799999997,88.33661499999994 L 97.21997799999997,90.33661499999994" fill="none" stroke="rgb(92,92,92)" stroke-width="0.1"/>
  <path d="M 98.66197799999998,88.33661499999994 L 98.66197799999998,90.33661499999994" fill="none" stroke="rgb(92,92,92)" stroke-width="0.1"/>
  <path d="M 78.04997800000001,36.98161499999998 L 77.958978,37.78561500000001" fill="none" stroke="rgb(92,92,92)" stroke-width="0.1"/>
  <path d="M 79.617978,35.96061499999996 L 79.39397799999995,37.94861499999996" fill="none" stroke="rgb(92,92,92)" stroke-width="0.1"/>
  <path d="M 81.05097799999999,36.12161499999996 L 80.828978,38.10961499999996" fill="none" stroke="rgb(92,92,92)" stroke-width="0.1"/>
  <path d="M 82.48497799999996,36.28161499999999 L 82.26397799999995,38.26961499999999" fill="none" stroke="rgb(92,92,92)" stroke-width="0.1"/>
  <path d="M 83.91897800000004,36.439615 L 83.69997799999999,38.42861499999998" fill="none" stroke="rgb(92,92,92)" stroke-width="0.1"/>
  <path d="M 85.35197800000003,36.596614999999986 L 85.13597800000002,38.58561499999996" fill="none" stroke="rgb(92,92,92)" stroke-width="0.1"/>
  <path d="M 86.785978,36.75261499999999 L 86.57197799999994,38.74061499999999" fill="none" stroke="rgb(92,92,92)" stroke-width="0.1"/>
  <path d="M 88.21997799999997,36.90661499999999 L 88.00797799999998,38.895614999999964" fill="none" stroke="rgb(92,92,92)" stroke-width="0.1"/>
  <path d="M 89.65497800000003,37.05961500000001 L 89.44397800000002,39.048614999999984" fill="none" stroke="rgb(92,92,92)" stroke-width="0.1"/>
  <path d="M 91.088978,37.21061499999996 L 90.87997799999994,39.199614999999994" fill="none" stroke="rgb(92,92,92)" stroke-width="0.1"/>
  <path d="M 92.52397799999994,37.360614999999996 L 92.44097799999997,38.15661499999999" fill="none" stroke="rgb(92,92,92)" stroke-width="0.1"/>
  <path d="M 91.94697799999994,69.63061500000003 L 91.94697799999994,70.33661499999994" fill="none" stroke="rgb(92,92,92)" stroke-width="0.1"/>
  <path d="M 93.35897799999998,68.33661499999994 L 93.35897799999998,70.33661499999994" fill="none" stroke="rgb(92,92,92)" stroke-width="0.1"/>
  <path d="M 94.76997800000004,68.33661499999994 L 94.76997800000004,70.33661499999994" fill="none" stroke="rgb(92,92,92)" stroke-width="0.1"/>
  <path d="M 96.18197799999996,68.33661499999994 L 96.18197799999996,70.33661499999994" fill="none" stroke="rgb(92,92,92)" stroke-width="0.1"/>
  <path d="M 97.59397799999999,68.33661499999994 L 97.59397799999999,70.33661499999994" fill="none" stroke="rgb(92,92,92)" stroke-width="0.1"/>
  <path d="M 99.00597800000003,68.33661499999994 L 99.00597800000003,70.33661499999994" fill="none" stroke="rgb(92,92,92)" stroke-width="0.1"/>
 </g>
 <g id="layerA-PUB_TEXT" inkscape:groupmode="layer" inkscape:label="A-PUB_TEXT">
  <text fill="rgb(0,0,0)" font-family="Noto Sans CJK SC" font-size="2" transform="rotate(-0.0,86.53697799999998,31.657614999999964)" x="86.53697799999998" y="31.657614999999964">
   餐饮（轻）
  </text>
  <text fill="rgb(0,0,0)" font-family="Noto Sans CJK SC" font-size="2" transform="rotate(-0.0,57.748977999999966,70.23661500000003)" x="57.748977999999966" y="70.23661500000003">
   上
  </text>
 </g>
 <g id="layerA-STAIR" inkscape:groupmode="layer" inkscape:label="A-STAIR">
  <path d="M 69.99097800000004,76.53661499999998 L 50.46597799999995,76.53661499999998" fill="none" instance-id="1" semantic-id="30" stroke="rgb(107,142,0)" stroke-width="0.1"/>
  <path d="M 69.99097800000004,79.33661499999994 L 50.46597799999995,79.33661499999994" fill="none" instance-id="1" semantic-id="30" stroke="rgb(107,142,0)" stroke-width="0.1"/>
  <path d="M 67.20297800000003,82.136615 L 50.46597799999995,82.136615" fill="none" instance-id="1" semantic-id="30" stroke="rgb(107,142,0)" stroke-width="0.1"/>
  <path d="M 62.35297800000001,84.93661499999996 L 50.46597799999995,84.93661499999996" fill="none" instance-id="1" semantic-id="30" stroke="rgb(107,142,0)" stroke-width="0.1"/>
  <path d="M 57.50397799999996,87.73661500000003 L 50.46597799999995,87.73661500000003" fill="none" instance-id="1" semantic-id="30" stroke="rgb(107,142,0)" stroke-width="0.1"/>
  <path d="M 52.65397799999994,90.53661499999998 L 50.46597799999995,90.53661499999998" fill="none" instance-id="1" semantic-id="30" stroke="rgb(107,142,0)" stroke-width="0.1"/>
  <path d="M 69.99097800000004,73.73661500000003 L 69.99097800000004,80.52761499999997" fill="none" instance-id="1" semantic-id="30" stroke="rgb(107,142,0)" stroke-width="0.1"/>
  <path d="M 69.99097800000004,73.73661500000003 L 50.46597799999995,73.73661500000003" fill="none" instance-id="1" semantic-id="30" stroke="rgb(107,142,0)" stroke-width="0.1"/>
  <path d="M 49.86597800000004,73.73661500000003 L 49.86597800000004,92.146615" fill="none" stroke="rgb(107,142,0)" stroke-width="0.1"/>
  <path d="M 49.86597800000004,92.146615 L 59.322978000000035,86.68661499999996" fill="none" instance-id="1" semantic-id="30" stroke="rgb(107,142,0)" stroke-width="0.1"/>
  <path d="M 59.322978000000035,86.68661499999996 L 58.97397799999999,85.38261499999999" fill="none" instance-id="1" semantic-id="30" stroke="rgb(107,142,0)" stroke-width="0.1"/>
  <path d="M 58.97397799999999,85.38261499999999 L 61.03397800000005,87.11161500000003" fill="none" instance-id="1" semantic-id="30" stroke="rgb(107,142,0)" stroke-width="0.1"/>
  <path d="M 61.03397800000005,87.11161500000003 L 60.70697800000005,85.88761499999998" fill="none" instance-id="1" semantic-id="30" stroke="rgb(107,142,0)" stroke-width="0.1"/>
  <path d="M 60.70697800000005,85.88761499999998 L 69.99097800000004,80.52761499999997" fill="none" instance-id="1" semantic-id="30" stroke="rgb(107,142,0)" stroke-width="0.1"/>
  <path d="M 50.46597799999995,73.43661499999996 L 50.46597799999995,91.79961500000002" fill="none" instance-id="1" semantic-id="30" stroke="rgb(107,142,0)" stroke-width="0.1"/>
  <path d="M 49.86597800000004,73.43661499999996 L 49.86597800000004,92.146615" fill="none" stroke="rgb(107,142,0)" stroke-width="0.1"/>
  <path d="M 50.46597799999995,73.43661499999996 L 49.86597800000004,73.43661499999996" fill="none" stroke="rgb(107,142,0)" stroke-width="0.1"/>
 </g>
 <g id="layerA-WALL" inkscape:groupmode="layer" inkscape:label="A-WALL">
  <path d="M 26.24097800000004,53.336614999999995 L 27.74097800000004,53.336614999999995" fill="none" instance-id="-1" semantic-id="1" stroke="rgb(0,178,178)" stroke-width="0.1"/>
  <path d="M 26.24097800000004,55.336614999999995 L 26.74097800000004,55.336614999999995" fill="none" instance-id="-1" semantic-id="1" stroke="rgb(0,178,178)" stroke-width="0.1"/>
  <path d="M 26.24097800000004,53.336614999999995 L 26.24097800000004,55.336614999999995" fill="none" instance-id="-1" semantic-id="1" stroke="rgb(0,178,178)" stroke-width="0.1"/>
  <path d="M 26.74097800000004,100.0 L 26.74097800000004,55.336614999999995" fill="none" instance-id="-1" semantic-id="1" stroke="rgb(0,178,178)" stroke-width="0.1"/>
  <path d="M 28.74097800000004,100.0 L 28.74097800000004,55.336614999999995" fill="none" instance-id="-1" semantic-id="1" stroke="rgb(0,178,178)" stroke-width="0.1"/>
  <path d="M 69.99097800000004,100.0 L 69.99097800000004,89.33661499999994" fill="none" instance-id="-1" semantic-id="1" stroke="rgb(0,178,178)" stroke-width="0.1"/>
  <path d="M 71.99097800000004,100.0 L 71.99097800000004,89.33661499999994" fill="none" instance-id="-1" semantic-id="1" stroke="rgb(0,178,178)" stroke-width="0.1"/>
  <path d="M 28.74097800000004,55.336614999999995 L 46.98997799999995,55.336614999999995" fill="none" instance-id="-1" semantic-id="1" stroke="rgb(0,178,178)" stroke-width="0.1"/>
  <path d="M 46.98997799999995,55.336614999999995 L 46.98997799999995,53.336614999999995" fill="none" instance-id="-1" semantic-id="1" stroke="rgb(0,178,178)" stroke-width="0.1"/>
  <path d="M 46.98997799999995,53.336614999999995 L 27.74097800000004,53.336614999999995" fill="none" instance-id="-1" semantic-id="1" stroke="rgb(0,178,178)" stroke-width="0.1"/>
  <path d="M 71.99097800000004,53.336614999999995 L 67.98997799999995,53.336614999999995" fill="none" instance-id="-1" semantic-id="1" stroke="rgb(0,178,178)" stroke-width="0.1"/>
  <path d="M 67.98997799999995,53.336614999999995 L 67.98997799999995,55.336614999999995" fill="none" instance-id="-1" semantic-id="1" stroke="rgb(0,178,178)" stroke-width="0.1"/>
  <path d="M 67.98997799999995,55.336614999999995 L 69.99097800000004,55.336614999999995" fill="none" instance-id="-1" semantic-id="1" stroke="rgb(0,178,178)" stroke-width="0.1"/>
  <path d="M 69.99097800000004,89.33661499999994 L 69.99097800000004,55.336614999999995" fill="none" instance-id="-1" semantic-id="1" stroke="rgb(0,178,178)" stroke-width="0.1"/>
  <path d="M 71.99097800000004,89.33661499999994 L 71.99097800000004,53.336614999999995" fill="none" instance-id="-1" semantic-id="1" stroke="rgb(0,178,178)" stroke-width="0.1"/>
 </g>
 <g id="layerA-WALL-STUD" inkscape:groupmode="layer" inkscape:label="A-WALL-STUD">
  <path d="M 26.24097800000004,53.336614999999995 L 1.240978000000041,53.336614999999995" fill="none" instance-id="-1" semantic-id="1" stroke="rgb(255,133,12)" stroke-width="0.1"/>
  <path d="M 1.240978000000041,53.336614999999995 L 1.240978000000041,55.336614999999995" fill="none" instance-id="-1" semantic-id="1" stroke="rgb(255,133,12)" stroke-width="0.1"/>
  <path d="M 1.240978000000041,55.336614999999995 L 26.24097800000004,55.336614999999995" fill="none" instance-id="-1" semantic-id="1" stroke="rgb(255,133,12)" stroke-width="0.1"/>
  <path d="M 91.24097800000004,70.33661499999994 L 91.24097800000004,39.237615000000005" fill="none" instance-id="-1" semantic-id="1" stroke="rgb(255,133,12)" stroke-width="0.1"/>
  <path d="M 93.24097800000004,68.33661499999994 L 93.24097800000004,37.435614999999984" fill="none" instance-id="-1" semantic-id="1" stroke="rgb(255,133,12)" stroke-width="0.1"/>
  <path d="M 77.24097800000004,37.70361500000001 L 77.24097800000004,0.0" fill="none" instance-id="-1" semantic-id="1" stroke="rgb(255,133,12)" stroke-width="0.1"/>
  <path d="M 79.24097800000004,35.91861499999999 L 79.24097800000004,0.0" fill="none" instance-id="-1" semantic-id="1" stroke="rgb(255,133,12)" stroke-width="0.1"/>
  <path d="M 71.99097800000004,90.33661499999994 L 73.99097800000004,90.33661499999994" fill="none" instance-id="-1" semantic-id="1" stroke="rgb(255,133,12)" stroke-width="0.1"/>
  <path d="M 73.99097800000004,90.33661499999994 L 73.99097800000004,88.33661499999994" fill="none" instance-id="-1" semantic-id="1" stroke="rgb(255,133,12)" stroke-width="0.1"/>
  <path d="M 73.99097800000004,88.33661499999994 L 71.99097800000004,88.33661499999994" fill="none" instance-id="-1" semantic-id="1" stroke="rgb(255,133,12)" stroke-width="0.1"/>
  <path d="M 100.0,88.33661499999994 L 88.99097800000004,88.33661499999994" fill="none" instance-id="-1" semantic-id="1" stroke="rgb(255,133,12)" stroke-width="0.1"/>
  <path d="M 88.99097800000004,88.33661499999994 L 88.99097800000004,90.33661499999994" fill="none" instance-id="-1" semantic-id="1" stroke="rgb(255,133,12)" stroke-width="0.1"/>
  <path d="M 88.99097800000004,90.33661499999994 L 100.0,90.33661499999994" fill="none" instance-id="-1" semantic-id="1" stroke="rgb(255,133,12)" stroke-width="0.1"/>
  <path d="M 93.24097800000004,68.33661499999994 L 100.0,68.33661499999994" fill="none" instance-id="-1" semantic-id="1" stroke="rgb(255,133,12)" stroke-width="0.1"/>
  <path d="M 91.24097800000004,70.33661499999994 L 100.0,70.33661499999994" fill="none" instance-id="-1" semantic-id="1" stroke="rgb(255,133,12)" stroke-width="0.1"/>
  <path d="M 79.24097800000004,35.91861499999999 A 1485.0,1485.0 0.0 0,0 93.24097800000004,37.435614999999984" fill="none" instance-id="-1" semantic-id="1" stroke="rgb(255,133,12)" stroke-width="0.1"/>
  <path d="M 77.24097800000004,37.70361500000001 A 1487.0,1487.0 0.0 0,0 91.24097800000004,39.237615000000005" fill="none" instance-id="-1" semantic-id="1" stroke="rgb(255,133,12)" stroke-width="0.1"/>
 </g>
 <g id="layerA-WIN" inkscape:groupmode="layer" inkscape:label="A-WIN">
  <path d="M 46.98997799999995,54.336614999999995 L 46.98997799999995,44.09961499999997" fill="none" instance-id="5" semantic-id="4" stroke="rgb(255,133,12)" stroke-width="0.1"/>
  <path d="M 47.51497800000004,54.336614999999995 L 47.51497800000004,44.09961499999997" fill="none" instance-id="5" semantic-id="4" stroke="rgb(255,133,12)" stroke-width="0.1"/>
  <path d="M 46.98997799999995,54.336614999999995 L 47.51497800000004,54.336614999999995" fill="none" instance-id="5" semantic-id="4" stroke="rgb(255,133,12)" stroke-width="0.1"/>
  <path d="M 47.51497800000004,44.09961499999997 L 46.98997799999995,44.09961499999997" fill="none" instance-id="5" semantic-id="4" stroke="rgb(255,133,12)" stroke-width="0.1"/>
  <path d="M 67.46497799999997,54.336614999999995 L 67.46497799999997,44.09961499999997" fill="none" instance-id="5" semantic-id="4" stroke="rgb(255,133,12)" stroke-width="0.1"/>
  <path d="M 67.98997799999995,54.336614999999995 L 67.98997799999995,44.09961499999997" fill="none" instance-id="5" semantic-id="4" stroke="rgb(255,133,12)" stroke-width="0.1"/>
  <path d="M 67.46497799999997,44.09961499999997 L 67.98997799999995,44.09961499999997" fill="none" instance-id="5" semantic-id="4" stroke="rgb(255,133,12)" stroke-width="0.1"/>
  <path d="M 67.98997799999995,54.336614999999995 L 67.46497799999997,54.336614999999995" fill="none" instance-id="5" semantic-id="4" stroke="rgb(255,133,12)" stroke-width="0.1"/>
  <path d="M 1.240978000000041,54.336614999999995 L 1.240978000000041,47.02461499999998" fill="none" stroke="rgb(255,133,12)" stroke-width="0.1"/>
  <path d="M 0.865978000000041,54.336614999999995 L 0.865978000000041,47.02461499999998" fill="none" stroke="rgb(255,133,12)" stroke-width="0.1"/>
  <path d="M 1.240978000000041,54.336614999999995 L 0.865978000000041,54.336614999999995" fill="none" stroke="rgb(255,133,12)" stroke-width="0.1"/>
  <path d="M 0.865978000000041,47.02461499999998 L 1.240978000000041,47.02461499999998" fill="none" stroke="rgb(255,133,12)" stroke-width="0.1"/>
  <path d="M 88.99097800000004,89.33661499999994 L 88.99097800000004,82.02461500000004" fill="none" instance-id="6" semantic-id="4" stroke="rgb(255,133,12)" stroke-width="0.1"/>
  <path d="M 88.61597800000004,89.33661499999994 L 88.61597800000004,82.02461500000004" fill="none" instance-id="6" semantic-id="4" stroke="rgb(255,133,12)" stroke-width="0.1"/>
  <path d="M 88.99097800000004,89.33661499999994 L 88.61597800000004,89.33661499999994" fill="none" instance-id="6" semantic-id="4" stroke="rgb(255,133,12)" stroke-width="0.1"/>
  <path d="M 88.61597800000004,82.02461500000004 L 88.99097800000004,82.02461500000004" fill="none" instance-id="6" semantic-id="4" stroke="rgb(255,133,12)" stroke-width="0.1"/>
  <path d="M 74.36597800000004,89.33661499999994 L 74.36597800000004,82.02461500000004" fill="none" instance-id="6" semantic-id="4" stroke="rgb(255,133,12)" stroke-width="0.1"/>
  <path d="M 73.99097800000004,89.33661499999994 L 73.99097800000004,82.02461500000004" fill="none" instance-id="6" semantic-id="4" stroke="rgb(255,133,12)" stroke-width="0.1"/>
  <path d="M 74.36597800000004,82.02461500000004 L 73.99097800000004,82.02461500000004" fill="none" instance-id="6" semantic-id="4" stroke="rgb(255,133,12)" stroke-width="0.1"/>
  <path d="M 73.99097800000004,89.33661499999994 L 74.36597800000004,89.33661499999994" fill="none" instance-id="6" semantic-id="4" stroke="rgb(255,133,12)" stroke-width="0.1"/>
  <path d="M 57.48997799999995,54.336614999999995 A 10.2375,10.2375 0.0 0,0 47.51497800000004,44.102615000000014" fill="none" instance-id="5" semantic-id="4" stroke="rgb(255,133,12)" stroke-width="0.1"/>
  <path d="M 67.46497799999997,44.102615000000014 A 10.2375,10.2375 0.0 0,0 57.48997799999995,54.336614999999995" fill="none" instance-id="5" semantic-id="4" stroke="rgb(255,133,12)" stroke-width="0.1"/>
  <path d="M 0.865978000000041,47.02661499999999 L 0.35344783728760376,47.05779504114321" fill="none" stroke="rgb(255,133,12)" stroke-width="0.1"/>
  <path d="M 88.61597800000004,82.02661499999999 A 7.3125,7.3125 0.0 0,0 81.49097800000004,89.33661499999994" fill="none" instance-id="6" semantic-id="4" stroke="rgb(255,133,12)" stroke-width="0.1"/>
  <path d="M 81.49097800000004,89.33661499999994 A 7.3125,7.3125 0.0 0,0 74.36597800000004,82.02661499999999" fill="none" instance-id="6" semantic-id="4" stroke="rgb(255,133,12)" stroke-width="0.1"/>
 </g>
 <g id="layerA-WIN-TEXT" inkscape:groupmode="layer" inkscape:label="A-WIN-TEXT">
  <text fill="rgb(0,0,0)" font-family="Noto Sans CJK SC" font-size="2" transform="rotate(-0.0,43.776977999999986,64.96161499999994)" x="43.776977999999986" y="64.96161499999994">
   FHM2121乙
  </text>
  <text fill="rgb(0,0,0)" font-family="Noto Sans CJK SC" font-size="2" transform="rotate(-0.0,76.39097800000002,97.40561500000001)" x="76.39097800000002" y="97.40561500000001">
   M1521
  </text>
 </g>
</svg>