<?xml version="1.0" encoding="utf-8"?>
<svg style="background-color: #000;" version="1.1" viewBox="0 0 100.0 100.0" xmlns="http://www.w3.org/2000/svg" xmlns:inkscape="http://www.inkscape.org/namespaces/inkscape">
 <g id="layerA-ANNO-DIMS" inkscape:groupmode="layer" inkscape:label="A-ANNO-DIMS">
  <path d="M 62.74097800000004,16.336614999999938 L 49.457978000000026,16.336614999999938" fill="none" stroke="rgb(0,178,0)" stroke-width="0.1"/>
  <path d="M 62.74097800000004,13.336614999999938 L 49.457978000000026,13.336614999999938" fill="none" stroke="rgb(0,178,0)" stroke-width="0.1"/>
  <path d="M 53.207978000000026,16.336614999999938 L 53.207978000000026,13.336614999999938" fill="none" stroke="rgb(0,178,0)" stroke-width="0.1"/>
  <path d="M 62.74097800000004,39.33661499999994 L 49.457978000000026,39.33661499999994" fill="none" stroke="rgb(0,178,0)" stroke-width="0.1"/>
  <path d="M 62.74097800000004,16.336614999999938 L 49.457978000000026,16.336614999999938" fill="none" stroke="rgb(0,178,0)" stroke-width="0.1"/>
  <path d="M 53.207978000000026,39.33661499999994 L 53.207978000000026,16.336614999999938" fill="none" stroke="rgb(0,178,0)" stroke-width="0.1"/>
  <path d="M 62.74097800000004,87.33661499999994 L 49.457978000000026,87.33661499999994" fill="none" stroke="rgb(0,178,0)" stroke-width="0.1"/>
  <path d="M 62.74097800000004,39.33661499999994 L 49.457978000000026,39.33661499999994" fill="none" stroke="rgb(0,178,0)" stroke-width="0.1"/>
  <path d="M 53.207978000000026,87.33661499999994 L 53.207978000000026,39.33661499999994" fill="none" stroke="rgb(0,178,0)" stroke-width="0.1"/>
  <path d="M 62.74097800000004,89.33661499999994 L 49.457978000000026,89.33661499999994" fill="none" stroke="rgb(0,178,0)" stroke-width="0.1"/>
  <path d="M 62.74097800000004,87.33661499999994 L 49.457978000000026,87.33661499999994" fill="none" stroke="rgb(0,178,0)" stroke-width="0.1"/>
  <path d="M 53.207978000000026,89.33661499999994 L 53.207978000000026,90.83661499999994" fill="none" stroke="rgb(0,178,0)" stroke-width="0.1"/>
  <path d="M 53.207978000000026,87.33661499999994 L 53.207978000000026,85.83661499999994" fill="none" stroke="rgb(0,178,0)" stroke-width="0.1"/>
  <path d="M 53.207978000000026,89.33661499999994 L 53.207978000000026,87.33661499999994" fill="none" stroke="rgb(0,178,0)" stroke-width="0.1"/>
  <path d="M 62.74097800000004,89.33661499999994 L 49.457978000000026,89.33661499999994" fill="none" stroke="rgb(0,178,0)" stroke-width="0.1"/>
  <path d="M 53.207978000000026,100.0 L 53.207978000000026,89.33661499999994" fill="none" stroke="rgb(0,178,0)" stroke-width="0.1"/>
  <path d="M 66.24097800000004,4.4566149999999425 L 66.24097800000004,0.0" fill="none" stroke="rgb(0,178,0)" stroke-width="0.1"/>
  <path d="M 66.24097800000004,0.5826150000000325 L 100.0,0.5826150000000325" fill="none" stroke="rgb(0,178,0)" stroke-width="0.1"/>
  <text fill="rgb(0,178,0)" font-family="Noto Sans CJK SC" font-size="2" transform="rotate(-90.0,51.31397800000002,13.501615000000015)" x="51.31397800000002" y="13.501615000000015">
   300
  </text>
  <text fill="rgb(0,178,0)" font-family="Noto Sans CJK SC" font-size="2" transform="rotate(-90.0,51.707978000000026,33.83661499999994)" x="51.707978000000026" y="33.83661499999994">
   2300
  </text>
  <text fill="rgb(0,178,0)" font-family="Noto Sans CJK SC" font-size="2" transform="rotate(-90.0,51.707978000000026,69.33661499999994)" x="51.707978000000026" y="69.33661499999994">
   4800
  </text>
  <text fill="rgb(0,178,0)" font-family="Noto Sans CJK SC" font-size="2" transform="rotate(-90.0,51.707978000000026,92.83661499999994)" x="51.707978000000026" y="92.83661499999994">
   200
  </text>
 </g>
 <g id="layerA-DIM_SYMB" inkscape:groupmode="layer" inkscape:label="A-DIM_SYMB">
  <path d="M 99.24097800000004,83.33661499999994 L 99.24097800000004,76.73661500000003" fill="none" stroke="rgb(0,178,0)" stroke-width="0.1"/>
  <path d="M 99.24097800000004,76.73661500000003 L 99.24097800000004,70.73661500000003" fill="none" stroke="rgb(0,178,0)" stroke-width="0.1"/>
 </g>
 <g id="layerA-DOTE" inkscape:groupmode="layer" inkscape:label="A-DOTE">
  <path d="M 66.24097800000004,100.0 L 66.24097800000004,0.0" fill="none" stroke="rgb(107,53,53)" stroke-width="0.1"/>
  <path d="M 0.0,16.336614999999938 L 100.0,16.336614999999938" fill="none" stroke="rgb(107,53,53)" stroke-width="0.1"/>
 </g>
 <g id="layerA-PUB_TEXT" inkscape:groupmode="layer" inkscape:label="A-PUB_TEXT">
  <text fill="rgb(0,0,0)" font-family="Noto Sans CJK SC" font-size="2" transform="rotate(-0.0,14.645978000000014,35.380615000000034)" x="14.645978000000014" y="35.380615000000034">
   主力店
  </text>
  <text fill="rgb(0,0,0)" font-family="Noto Sans CJK SC" font-size="2" transform="rotate(-0.0,97.06097799999998,92.43661499999996)" x="97.06097799999998" y="92.43661499999996">
   上
  </text>
  <text fill="rgb(0,0,0)" font-family="Noto Sans CJK SC" font-size="2" transform="rotate(-0.0,67.50297799999998,95.97761500000001)" x="67.50297799999998" y="95.97761500000001">
   地下
  </text>
 </g>
 <g id="layerA-STAIR" inkscape:groupmode="layer" inkscape:label="A-STAIR">
  <path d="M 89.84097799999995,79.136615 L 100.0,79.136615" fill="none" stroke="rgb(107,142,0)" stroke-width="0.1"/>
  <path d="M 89.84097799999995,76.33661499999994 L 100.0,76.33661499999994" fill="none" stroke="rgb(107,142,0)" stroke-width="0.1"/>
  <path d="M 91.96597799999995,73.53661499999998 L 100.0,73.53661499999998" fill="none" stroke="rgb(107,142,0)" stroke-width="0.1"/>
  <path d="M 96.81597799999997,70.73661500000003 L 100.0,70.73661500000003" fill="none" stroke="rgb(107,142,0)" stroke-width="0.1"/>
  <path d="M 89.84097799999995,81.93661499999996 L 100.0,81.93661499999996" fill="none" stroke="rgb(107,142,0)" stroke-width="0.1"/>
  <path d="M 89.24097800000004,81.93661499999996 L 89.24097800000004,75.11061499999994" fill="none" stroke="rgb(107,142,0)" stroke-width="0.1"/>
  <path d="M 100.0,68.89869373038846 L 99.84597799999995,68.987615" fill="none" stroke="rgb(107,142,0)" stroke-width="0.1"/>
  <path d="M 99.84597799999995,68.987615 L 100.0,69.56145696571446" fill="none" stroke="rgb(107,142,0)" stroke-width="0.1"/>
  <path d="M 100.0,70.12720647889375 L 98.13497800000005,68.56261499999994" fill="none" stroke="rgb(107,142,0)" stroke-width="0.1"/>
  <path d="M 98.13497800000005,68.56261499999994 L 98.46297800000002,69.785615" fill="none" stroke="rgb(107,142,0)" stroke-width="0.1"/>
  <path d="M 98.46297800000002,69.785615 L 89.24097800000004,75.11061499999994" fill="none" stroke="rgb(107,142,0)" stroke-width="0.1"/>
  <path d="M 89.24097800000004,82.23661500000003 L 89.24097800000004,75.11061499999994" fill="none" stroke="rgb(107,142,0)" stroke-width="0.1"/>
  <path d="M 89.84097799999995,82.23661500000003 L 89.84097799999995,74.76361499999996" fill="none" stroke="rgb(107,142,0)" stroke-width="0.1"/>
  <path d="M 89.24097800000004,82.23661500000003 L 89.84097799999995,82.23661500000003" fill="none" stroke="rgb(107,142,0)" stroke-width="0.1"/>
 </g>
 <g id="layerA-WALL" inkscape:groupmode="layer" inkscape:label="A-WALL">
  <path d="M 68.24097800000004,41.33661499999994 L 68.24097800000004,87.33661499999994" fill="none" instance-id="-1" semantic-id="1" stroke="rgb(0,178,178)" stroke-width="0.1"/>
  <path d="M 66.24097800000004,41.33661499999994 L 66.24097800000004,87.33661499999994" fill="none" instance-id="-1" semantic-id="1" stroke="rgb(0,178,178)" stroke-width="0.1"/>
  <path d="M 100.0,41.33661499999994 L 68.24097800000004,41.33661499999994" fill="none" instance-id="-1" semantic-id="1" stroke="rgb(0,178,178)" stroke-width="0.1"/>
  <path d="M 100.0,39.33661499999994 L 67.24097800000004,39.33661499999994" fill="none" instance-id="-1" semantic-id="1" stroke="rgb(0,178,178)" stroke-width="0.1"/>
  <path d="M 80.24097800000004,89.33661499999994 L 67.24097800000004,89.33661499999994" fill="none" instance-id="-1" semantic-id="1" stroke="rgb(0,178,178)" stroke-width="0.1"/>
  <path d="M 82.24097800000004,87.33661499999994 L 68.24097800000004,87.33661499999994" fill="none" instance-id="-1" semantic-id="1" stroke="rgb(0,178,178)" stroke-width="0.1"/>
  <path d="M 67.24097800000004,89.33661499999994 L 67.24097800000004,100.0" fill="none" instance-id="-1" semantic-id="1" stroke="rgb(0,178,178)" stroke-width="0.1"/>
  <path d="M 65.24097800000004,87.33661499999994 L 65.24097800000004,100.0" fill="none" instance-id="-1" semantic-id="1" stroke="rgb(0,178,178)" stroke-width="0.1"/>
  <path d="M 82.24097800000004,87.33661499999994 L 82.24097800000004,100.0" fill="none" instance-id="-1" semantic-id="1" stroke="rgb(0,178,178)" stroke-width="0.1"/>
  <path d="M 80.24097800000004,89.33661499999994 L 80.24097800000004,100.0" fill="none" instance-id="-1" semantic-id="1" stroke="rgb(0,178,178)" stroke-width="0.1"/>
  <path d="M 66.22497799999996,40.35361499999999 L 66.22497799999996,40.33661499999994" fill="none" stroke="rgb(0,178,178)" stroke-width="0.1"/>
  <path d="M 67.24097800000004,39.33661499999994 L 66.24097800000004,39.33661499999994" fill="none" instance-id="-1" semantic-id="1" stroke="rgb(0,178,178)" stroke-width="0.1"/>
  <path d="M 66.22497799999996,40.33661499999994 L 66.24097800000004,39.33661499999994" fill="none" instance-id="-1" semantic-id="1" stroke="rgb(0,178,178)" stroke-width="0.1"/>
  <path d="M 67.237978,88.33661499999994 L 67.237978,88.33461499999999" fill="none" stroke="rgb(0,178,178)" stroke-width="0.1"/>
  <path d="M 66.24097800000004,87.33661499999994 L 65.24097800000004,87.33661499999994" fill="none" instance-id="-1" semantic-id="1" stroke="rgb(0,178,178)" stroke-width="0.1"/>
 </g>
 <g id="layerA-楼板开洞" inkscape:groupmode="layer" inkscape:label="A-楼板开洞">
  <path d="M 67.23939835626993,100.0 L 67.24097800000004,89.33661499999994" fill="none" stroke="rgb(107,142,0)" stroke-width="0.1"/>
  <path d="M 67.24097800000004,89.33661499999994 L 76.24097800000004,89.33661499999994" fill="none" stroke="rgb(107,142,0)" stroke-width="0.1"/>
  <path d="M 76.24097800000004,89.33661499999994 L 76.24097800000004,100.0" fill="none" stroke="rgb(107,142,0)" stroke-width="0.1"/>
  <path d="M 76.24097800000004,89.33661499999994 L 71.21797800000002,90.79261499999996" fill="none" stroke="rgb(107,142,0)" stroke-width="0.1"/>
  <path d="M 71.21797800000002,90.79261499999996 L 68.17764504209572,100.0" fill="none" stroke="rgb(107,142,0)" stroke-width="0.1"/>
 </g>
 <g id="layerA-楼梯编号" inkscape:groupmode="layer" inkscape:label="A-楼梯编号">
  <path d="M 80.36897799999997,48.33661499999994 L 80.36897799999997,57.00361499999997" fill="none" stroke="rgb(0,0,0)" stroke-width="0.1"/>
  <path d="M 80.36897799999997,57.00361499999997 L 96.38397799999996,57.00361499999997" fill="none" stroke="rgb(0,0,0)" stroke-width="0.1"/>
  <path d="M 96.38397799999996,57.00361499999997 L 96.38397799999996,48.33661499999994" fill="none" stroke="rgb(0,0,0)" stroke-width="0.1"/>
  <path d="M 96.38397799999996,48.33661499999994 L 80.36897799999997,48.33661499999994" fill="none" stroke="rgb(0,0,0)" stroke-width="0.1"/>
  <text fill="rgb(0,0,0)" font-family="Noto Sans CJK SC" font-size="2" transform="rotate(-0.0,80.80097799999999,55.66961500000002)" x="80.80097799999999" y="55.66961500000002">
   18#LT
  </text>
 </g>
</svg>