<?xml version="1.0" encoding="utf-8"?>
<svg style="background-color: #000;" version="1.1" viewBox="0 0 100.0 100.0" xmlns="http://www.w3.org/2000/svg" xmlns:inkscape="http://www.inkscape.org/namespaces/inkscape">
 <g id="layerA-DOTE" inkscape:groupmode="layer" inkscape:label="A-DOTE">
  <path d="M 59.59864049999999,100.0 L 59.59864049999999,0.0" fill="none" stroke="rgb(107,53,53)" stroke-width="0.1"/>
  <path d="M 0.0,66.336615 L 100.0,66.336615" fill="none" stroke="rgb(107,53,53)" stroke-width="0.1"/>
  <path d="M 64.59397818255695,99.89727896278748 L 65.03798424297224,99.66433873155972" fill="none" stroke="rgb(107,53,53)" stroke-width="0.1"/>
  <path d="M 65.03798424297224,99.66433873155972 L 65.48191189142688,99.43124910084396" fill="none" stroke="rgb(107,53,53)" stroke-width="0.1"/>
  <path d="M 65.48191189142688,99.43124910084396 L 65.92576107765092,99.1980100970344" fill="none" stroke="rgb(107,53,53)" stroke-width="0.1"/>
  <path d="M 65.92576107765092,99.1980100970344 L 66.3695317513833,98.96462174654346" fill="none" stroke="rgb(107,53,53)" stroke-width="0.1"/>
  <path d="M 66.3695317513833,98.96462174654346 L 66.81322386237139,98.73108407579969" fill="none" stroke="rgb(107,53,53)" stroke-width="0.1"/>
  <path d="M 66.81322386237139,98.73108407579969 L 67.25683736037229,98.49739711124846" fill="none" stroke="rgb(107,53,53)" stroke-width="0.1"/>
  <path d="M 67.25683736037229,98.49739711124846 L 67.70037219515143,98.26356087935244" fill="none" stroke="rgb(107,53,53)" stroke-width="0.1"/>
  <path d="M 67.70037219515143,98.26356087935244 L 68.14382831648311,98.02957540659133" fill="none" stroke="rgb(107,53,53)" stroke-width="0.1"/>
  <path d="M 68.14382831648311,98.02957540659133 L 68.5872056741506,97.79544071946123" fill="none" stroke="rgb(107,53,53)" stroke-width="0.1"/>
  <path d="M 68.5872056741506,97.79544071946123 L 69.03050421794637,97.56115684447525" fill="none" stroke="rgb(107,53,53)" stroke-width="0.1"/>
  <path d="M 69.03050421794637,97.56115684447525 L 69.47372389767145,97.32672380816382" fill="none" stroke="rgb(107,53,53)" stroke-width="0.1"/>
  <path d="M 69.47372389767145,97.32672380816382 L 69.91686466313604,97.09214163707395" fill="none" stroke="rgb(107,53,53)" stroke-width="0.1"/>
  <path d="M 69.91686466313604,97.09214163707395 L 70.35992646415923,96.85741035776948" fill="none" stroke="rgb(107,53,53)" stroke-width="0.1"/>
  <path d="M 70.35992646415923,96.85741035776948 L 70.80290925056886,96.6225299968313" fill="none" stroke="rgb(107,53,53)" stroke-width="0.1"/>
  <path d="M 70.80290925056886,96.6225299968313 L 71.24581297220197,96.38750058085668" fill="none" stroke="rgb(107,53,53)" stroke-width="0.1"/>
  <path d="M 71.24581297220197,96.38750058085668 L 71.6886375789046,96.15232213646061" fill="none" stroke="rgb(107,53,53)" stroke-width="0.1"/>
  <path d="M 71.6886375789046,96.15232213646061 L 72.13138302053119,95.91699469027492" fill="none" stroke="rgb(107,53,53)" stroke-width="0.1"/>
  <path d="M 72.13138302053119,95.91699469027492 L 72.57404924694606,95.68151826894712" fill="none" stroke="rgb(107,53,53)" stroke-width="0.1"/>
  <path d="M 72.57404924694606,95.68151826894712 L 73.01663620802185,95.44589289914245" fill="none" stroke="rgb(107,53,53)" stroke-width="0.1"/>
  <path d="M 73.01663620802185,95.44589289914245 L 73.45914385364028,95.21011860754345" fill="none" stroke="rgb(107,53,53)" stroke-width="0.1"/>
  <path d="M 73.45914385364028,95.21011860754345 L 73.90157213369207,94.97419542084856" fill="none" stroke="rgb(107,53,53)" stroke-width="0.1"/>
  <path d="M 73.90157213369207,94.97419542084856 L 74.34392099807701,94.73812336577396" fill="none" stroke="rgb(107,53,53)" stroke-width="0.1"/>
  <path d="M 74.34392099807701,94.73812336577396 L 74.78619039670377,94.5019024690522" fill="none" stroke="rgb(107,53,53)" stroke-width="0.1"/>
  <path d="M 74.78619039670377,94.5019024690522 L 75.22838027949012,94.26553275743242" fill="none" stroke="rgb(107,53,53)" stroke-width="0.1"/>
  <path d="M 75.22838027949012,94.26553275743242 L 75.67049059636281,94.0290142576813" fill="none" stroke="rgb(107,53,53)" stroke-width="0.1"/>
  <path d="M 75.67049059636281,94.0290142576813 L 76.11252129725767,93.79234699658207" fill="none" stroke="rgb(107,53,53)" stroke-width="0.1"/>
  <path d="M 76.11252129725767,93.79234699658207 L 76.5544723321193,93.55553100093437" fill="none" stroke="rgb(107,53,53)" stroke-width="0.1"/>
  <path d="M 76.5544723321193,93.55553100093437 L 76.9963436509014,93.31856629755555" fill="none" stroke="rgb(107,53,53)" stroke-width="0.1"/>
  <path d="M 76.9963436509014,93.31856629755555 L 77.43813520356684,93.08145291327912" fill="none" stroke="rgb(107,53,53)" stroke-width="0.1"/>
  <path d="M 77.43813520356684,93.08145291327912 L 77.8798469400881,92.84419087495519" fill="none" stroke="rgb(107,53,53)" stroke-width="0.1"/>
  <path d="M 77.8798469400881,92.84419087495519 L 78.321478810445,92.60678020945181" fill="none" stroke="rgb(107,53,53)" stroke-width="0.1"/>
  <path d="M 78.321478810445,92.60678020945181 L 78.76303076462818,92.36922094365298" fill="none" stroke="rgb(107,53,53)" stroke-width="0.1"/>
  <path d="M 78.76303076462818,92.36922094365298 L 79.20450275263624,92.13151310445971" fill="none" stroke="rgb(107,53,53)" stroke-width="0.1"/>
  <path d="M 79.20450275263624,92.13151310445971 L 79.64589472447722,91.89365671878988" fill="none" stroke="rgb(107,53,53)" stroke-width="0.1"/>
  <path d="M 79.64589472447722,91.89365671878988 L 80.08720663016868,91.6556518135784" fill="none" stroke="rgb(107,53,53)" stroke-width="0.1"/>
  <path d="M 80.08720663016868,91.6556518135784 L 80.52843841973629,91.41749841577632" fill="none" stroke="rgb(107,53,53)" stroke-width="0.1"/>
  <path d="M 80.52843841973629,91.41749841577632 L 80.96959004321548,91.17919655235198" fill="none" stroke="rgb(107,53,53)" stroke-width="0.1"/>
  <path d="M 80.96959004321548,91.17919655235198 L 81.41066145065054,90.94074625029077" fill="none" stroke="rgb(107,53,53)" stroke-width="0.1"/>
  <path d="M 81.41066145065054,90.94074625029077 L 81.85165259209487,90.70214753659468" fill="none" stroke="rgb(107,53,53)" stroke-width="0.1"/>
  <path d="M 81.85165259209487,90.70214753659468 L 82.29256341761084,90.46340043828229" fill="none" stroke="rgb(107,53,53)" stroke-width="0.1"/>
  <path d="M 82.29256341761084,90.46340043828229 L 82.73339387727015,90.22450498238902" fill="none" stroke="rgb(107,53,53)" stroke-width="0.1"/>
  <path d="M 82.73339387727015,90.22450498238902 L 83.17414392115347,89.98546119596756" fill="none" stroke="rgb(107,53,53)" stroke-width="0.1"/>
  <path d="M 83.17414392115347,89.98546119596756 L 83.61481349935036,89.74626910608697" fill="none" stroke="rgb(107,53,53)" stroke-width="0.1"/>
  <path d="M 83.61481349935036,89.74626910608697 L 84.05540256196002,89.50692873983314" fill="none" stroke="rgb(107,53,53)" stroke-width="0.1"/>
  <path d="M 84.05540256196002,89.50692873983314 L 84.49591105909042,89.26744012430879" fill="none" stroke="rgb(107,53,53)" stroke-width="0.1"/>
  <path d="M 84.49591105909042,89.26744012430879 L 84.93633894085815,89.02780328663346" fill="none" stroke="rgb(107,53,53)" stroke-width="0.1"/>
  <path d="M 84.93633894085815,89.02780328663346 L 85.37668615739028,88.78801825394328" fill="none" stroke="rgb(107,53,53)" stroke-width="0.1"/>
  <path d="M 85.37668615739028,88.78801825394328 L 85.81695265882183,88.54808505339145" fill="none" stroke="rgb(107,53,53)" stroke-width="0.1"/>
  <path d="M 85.81695265882183,88.54808505339145 L 86.25713839529737,88.30800371214798" fill="none" stroke="rgb(107,53,53)" stroke-width="0.1"/>
  <path d="M 86.25713839529737,88.30800371214798 L 86.69724331697057,88.06777425739949" fill="none" stroke="rgb(107,53,53)" stroke-width="0.1"/>
  <path d="M 86.69724331697057,88.06777425739949 L 87.1372673740043,87.8273967163492" fill="none" stroke="rgb(107,53,53)" stroke-width="0.1"/>
  <path d="M 87.1372673740043,87.8273967163492 L 87.5772105165704,87.58687111621714" fill="none" stroke="rgb(107,53,53)" stroke-width="0.1"/>
  <path d="M 87.5772105165704,87.58687111621714 L 88.0170726948503,87.34619748424063" fill="none" stroke="rgb(107,53,53)" stroke-width="0.1"/>
  <path d="M 88.0170726948503,87.34619748424063 L 88.45685385903414,87.10537584767337" fill="none" stroke="rgb(107,53,53)" stroke-width="0.1"/>
  <path d="M 88.45685385903414,87.10537584767337 L 88.8965539593213,86.86440623378564" fill="none" stroke="rgb(107,53,53)" stroke-width="0.1"/>
  <path d="M 88.8965539593213,86.86440623378564 L 89.33617294592068,86.62328866986479" fill="none" stroke="rgb(107,53,53)" stroke-width="0.1"/>
  <path d="M 89.33617294592068,86.62328866986479 L 89.77571076905008,86.38202318321476" fill="none" stroke="rgb(107,53,53)" stroke-width="0.1"/>
  <path d="M 89.77571076905008,86.38202318321476 L 90.21516737893614,86.1406098011563" fill="none" stroke="rgb(107,53,53)" stroke-width="0.1"/>
  <path d="M 90.21516737893614,86.1406098011563 L 90.65454272581587,85.8990485510268" fill="none" stroke="rgb(107,53,53)" stroke-width="0.1"/>
  <path d="M 90.65454272581587,85.8990485510268 L 91.09383675993422,85.65733946018065" fill="none" stroke="rgb(107,53,53)" stroke-width="0.1"/>
  <path d="M 91.09383675993422,85.65733946018065 L 91.53304943154615,85.41548255598843" fill="none" stroke="rgb(107,53,53)" stroke-width="0.1"/>
  <path d="M 91.53304943154615,85.41548255598843 L 91.97218069091525,85.17347786583821" fill="none" stroke="rgb(107,53,53)" stroke-width="0.1"/>
  <path d="M 91.97218069091525,85.17347786583821 L 92.4112304883148,84.93132541713442" fill="none" stroke="rgb(107,53,53)" stroke-width="0.1"/>
  <path d="M 92.4112304883148,84.93132541713442 L 92.85019877402692,84.6890252372981" fill="none" stroke="rgb(107,53,53)" stroke-width="0.1"/>
  <path d="M 92.85019877402692,84.6890252372981 L 93.2890854983433,84.44657735376711" fill="none" stroke="rgb(107,53,53)" stroke-width="0.1"/>
  <path d="M 93.2890854983433,84.44657735376711 L 93.7278906115647,84.20398179399638" fill="none" stroke="rgb(107,53,53)" stroke-width="0.1"/>
  <path d="M 93.7278906115647,84.20398179399638 L 94.16661406400124,83.96123858545673" fill="none" stroke="rgb(107,53,53)" stroke-width="0.1"/>
  <path d="M 94.16661406400124,83.96123858545673 L 94.60525580597198,83.71834775563673" fill="none" stroke="rgb(107,53,53)" stroke-width="0.1"/>
  <path d="M 94.60525580597198,83.71834775563673 L 95.04381578780556,83.47530933204087" fill="none" stroke="rgb(107,53,53)" stroke-width="0.1"/>
  <path d="M 95.04381578780556,83.47530933204087 L 95.48229395983947,83.2321233421909" fill="none" stroke="rgb(107,53,53)" stroke-width="0.1"/>
  <path d="M 95.48229395983947,83.2321233421909 L 95.92069027242121,82.98878981362498" fill="none" stroke="rgb(107,53,53)" stroke-width="0.1"/>
  <path d="M 95.92069027242121,82.98878981362498 L 96.35900467590704,82.74530877389759" fill="none" stroke="rgb(107,53,53)" stroke-width="0.1"/>
  <path d="M 96.35900467590704,82.74530877389759 L 96.79723712066243,82.50168025058076" fill="none" stroke="rgb(107,53,53)" stroke-width="0.1"/>
  <path d="M 96.79723712066243,82.50168025058076 L 97.23538755706227,82.25790427126265" fill="none" stroke="rgb(107,53,53)" stroke-width="0.1"/>
  <path d="M 97.23538755706227,82.25790427126265 L 97.67345593549055,82.01398086354845" fill="none" stroke="rgb(107,53,53)" stroke-width="0.1"/>
  <path d="M 97.67345593549055,82.01398086354845 L 98.11144220634105,81.76991005505977" fill="none" stroke="rgb(107,53,53)" stroke-width="0.1"/>
  <path d="M 98.11144220634105,81.76991005505977 L 98.5493463200163,81.525691873435" fill="none" stroke="rgb(107,53,53)" stroke-width="0.1"/>
  <path d="M 98.5493463200163,81.525691873435 L 98.98716822692836,81.28132634632914" fill="none" stroke="rgb(107,53,53)" stroke-width="0.1"/>
  <path d="M 98.98716822692836,81.28132634632914 L 99.42490787749864,81.03681350141426" fill="none" stroke="rgb(107,53,53)" stroke-width="0.1"/>
  <path d="M 99.42490787749864,81.03681350141426 L 99.86256522215774,80.79215336637833" fill="none" stroke="rgb(107,53,53)" stroke-width="0.1"/>
  <path d="M 0.2693865836886289,46.27362725088756 L 0.7185362178709056,46.050831315050345" fill="none" stroke="rgb(107,53,53)" stroke-width="0.1"/>
  <path d="M 0.7185362178709056,46.050831315050345 L 1.1676067696099608,45.82787602250869" fill="none" stroke="rgb(107,53,53)" stroke-width="0.1"/>
  <path d="M 1.1676067696099608,45.82787602250869 L 1.6165981823669426,45.604761401333235" fill="none" stroke="rgb(107,53,53)" stroke-width="0.1"/>
  <path d="M 1.6165981823669426,45.604761401333235 L 2.0655103996120943,45.38148747961486" fill="none" stroke="rgb(107,53,53)" stroke-width="0.1"/>
  <path d="M 2.0655103996120943,45.38148747961486 L 2.5143433648268,45.15805428546423" fill="none" stroke="rgb(107,53,53)" stroke-width="0.1"/>
  <path d="M 2.5143433648268,45.15805428546423 L 2.963097021501426,44.93446184701247" fill="none" stroke="rgb(107,53,53)" stroke-width="0.1"/>
  <path d="M 2.963097021501426,44.93446184701247 L 3.411771313136569,44.71071019241003" fill="none" stroke="rgb(107,53,53)" stroke-width="0.1"/>
  <path d="M 3.411771313136569,44.71071019241003 L 3.8603661832431726,44.48679934982829" fill="none" stroke="rgb(107,53,53)" stroke-width="0.1"/>
  <path d="M 3.8603661832431726,44.48679934982829 L 4.308881575341957,44.26272934745771" fill="none" stroke="rgb(107,53,53)" stroke-width="0.1"/>
  <path d="M 4.308881575341957,44.26272934745771 L 4.757317432963191,44.038500213509906" fill="none" stroke="rgb(107,53,53)" stroke-width="0.1"/>
  <path d="M 4.757317432963191,44.038500213509906 L 5.2056736996480595,43.81411197621537" fill="none" stroke="rgb(107,53,53)" stroke-width="0.1"/>
  <path d="M 5.2056736996480595,43.81411197621537 L 5.653950318946954,43.58956466382597" fill="none" stroke="rgb(107,53,53)" stroke-width="0.1"/>
  <path d="M 5.653950318946954,43.58956466382597 L 6.102147234421182,43.364858304611744" fill="none" stroke="rgb(107,53,53)" stroke-width="0.1"/>
  <path d="M 6.102147234421182,43.364858304611744 L 6.550264389641029,43.13999292686458" fill="none" stroke="rgb(107,53,53)" stroke-width="0.1"/>
  <path d="M 6.550264389641029,43.13999292686458 L 6.998301728187357,42.91496855889568" fill="none" stroke="rgb(107,53,53)" stroke-width="0.1"/>
  <path d="M 6.998301728187357,42.91496855889568 L 7.446259193651372,42.68978522903558" fill="none" stroke="rgb(107,53,53)" stroke-width="0.1"/>
  <path d="M 7.446259193651372,42.68978522903558 L 7.8941367296338285,42.46444296563595" fill="none" stroke="rgb(107,53,53)" stroke-width="0.1"/>
  <path d="M 7.8941367296338285,42.46444296563595 L 8.341934279745487,42.238941797068264" fill="none" stroke="rgb(107,53,53)" stroke-width="0.1"/>
  <path d="M 8.341934279745487,42.238941797068264 L 8.789651787608022,42.01328175172307" fill="none" stroke="rgb(107,53,53)" stroke-width="0.1"/>
  <path d="M 8.789651787608022,42.01328175172307 L 9.237289196851862,41.78746285801208" fill="none" stroke="rgb(107,53,53)" stroke-width="0.1"/>
  <path d="M 9.237289196851862,41.78746285801208 L 9.684846451119029,41.56148514436609" fill="none" stroke="rgb(107,53,53)" stroke-width="0.1"/>
  <path d="M 9.684846451119029,41.56148514436609 L 10.132323494060074,41.33534863923683" fill="none" stroke="rgb(107,53,53)" stroke-width="0.1"/>
  <path d="M 10.132323494060074,41.33534863923683 L 10.579720269337258,41.10905337109489" fill="none" stroke="rgb(107,53,53)" stroke-width="0.1"/>
  <path d="M 10.579720269337258,41.10905337109489 L 11.027036720621368,40.882599368431784" fill="none" stroke="rgb(107,53,53)" stroke-width="0.1"/>
  <path d="M 11.027036720621368,40.882599368431784 L 11.474272791594558,40.65598665975881" fill="none" stroke="rgb(107,53,53)" stroke-width="0.1"/>
  <path d="M 11.474272791594558,40.65598665975881 L 11.92142842594842,40.429215273606815" fill="none" stroke="rgb(107,53,53)" stroke-width="0.1"/>
  <path d="M 11.92142842594842,40.429215273606815 L 12.368503567384664,40.20228523852688" fill="none" stroke="rgb(107,53,53)" stroke-width="0.1"/>
  <path d="M 12.368503567384664,40.20228523852688 L 12.8154981596158,39.975196583090565" fill="none" stroke="rgb(107,53,53)" stroke-width="0.1"/>
  <path d="M 12.8154981596158,39.975196583090565 L 13.262412146363658,39.74794933588851" fill="none" stroke="rgb(107,53,53)" stroke-width="0.1"/>
  <path d="M 13.262412146363658,39.74794933588851 L 13.709245471360418,39.520543525532275" fill="none" stroke="rgb(107,53,53)" stroke-width="0.1"/>
  <path d="M 13.709245471360418,39.520543525532275 L 14.155998078349057,39.29297918065208" fill="none" stroke="rgb(107,53,53)" stroke-width="0.1"/>
  <path d="M 14.155998078349057,39.29297918065208 L 14.602669911081534,39.06525632989974" fill="none" stroke="rgb(107,53,53)" stroke-width="0.1"/>
  <path d="M 14.602669911081534,39.06525632989974 L 15.049260913321291,38.837375001945475" fill="none" stroke="rgb(107,53,53)" stroke-width="0.1"/>
  <path d="M 15.049260913321291,38.837375001945475 L 15.495771028841204,38.609335225480436" fill="none" stroke="rgb(107,53,53)" stroke-width="0.1"/>
  <path d="M 15.495771028841204,38.609335225480436 L 15.94220020142393,38.38113702921555" fill="none" stroke="rgb(107,53,53)" stroke-width="0.1"/>
  <path d="M 15.94220020142393,38.38113702921555 L 16.388548374863603,38.152780441881305" fill="none" stroke="rgb(107,53,53)" stroke-width="0.1"/>
  <path d="M 16.388548374863603,38.152780441881305 L 16.834815492963344,37.92426549222864" fill="none" stroke="rgb(107,53,53)" stroke-width="0.1"/>
  <path d="M 16.834815492963344,37.92426549222864 L 17.281001499536615,37.69559220902852" fill="none" stroke="rgb(107,53,53)" stroke-width="0.1"/>
  <path d="M 17.281001499536615,37.69559220902852 L 17.727106338407793,37.46676062107099" fill="none" stroke="rgb(107,53,53)" stroke-width="0.1"/>
  <path d="M 17.727106338407793,37.46676062107099 L 18.173129953411376,37.23777075716657" fill="none" stroke="rgb(107,53,53)" stroke-width="0.1"/>
  <path d="M 18.173129953411376,37.23777075716657 L 18.619072288391408,37.008622646145795" fill="none" stroke="rgb(107,53,53)" stroke-width="0.1"/>
  <path d="M 18.619072288391408,37.008622646145795 L 19.064933287202166,36.77931631685942" fill="none" stroke="rgb(107,53,53)" stroke-width="0.1"/>
  <path d="M 19.064933287202166,36.77931631685942 L 19.51071289370941,36.54985179817709" fill="none" stroke="rgb(107,53,53)" stroke-width="0.1"/>
  <path d="M 19.51071289370941,36.54985179817709 L 19.95641105178754,36.3202291189898" fill="none" stroke="rgb(107,53,53)" stroke-width="0.1"/>
  <path d="M 19.95641105178754,36.3202291189898 L 20.402027705322553,36.09044830820676" fill="none" stroke="rgb(107,53,53)" stroke-width="0.1"/>
  <path d="M 20.402027705322553,36.09044830820676 L 20.847562798209765,35.86050939475854" fill="none" stroke="rgb(107,53,53)" stroke-width="0.1"/>
  <path d="M 20.847562798209765,35.86050939475854 L 21.29301627435484,35.63041240759526" fill="none" stroke="rgb(107,53,53)" stroke-width="0.1"/>
  <path d="M 21.29301627435484,35.63041240759526 L 21.738388077674585,35.40015737568592" fill="none" stroke="rgb(107,53,53)" stroke-width="0.1"/>
  <path d="M 21.738388077674585,35.40015737568592 L 22.183678152095354,35.169744328021125" fill="none" stroke="rgb(107,53,53)" stroke-width="0.1"/>
  <path d="M 22.183678152095354,35.169744328021125 L 22.628886441553277,34.93917329361034" fill="none" stroke="rgb(107,53,53)" stroke-width="0.1"/>
  <path d="M 22.628886441553277,34.93917329361034 L 23.07401288999631,34.70844430148236" fill="none" stroke="rgb(107,53,53)" stroke-width="0.1"/>
  <path d="M 23.07401288999631,34.70844430148236 L 23.519057441381165,34.477557380687585" fill="none" stroke="rgb(107,53,53)" stroke-width="0.1"/>
  <path d="M 23.519057441381165,34.477557380687585 L 23.96402003967603,34.246512560294605" fill="none" stroke="rgb(107,53,53)" stroke-width="0.1"/>
  <path d="M 23.96402003967603,34.246512560294605 L 24.40890062885876,34.01530986939292" fill="none" stroke="rgb(107,53,53)" stroke-width="0.1"/>
  <path d="M 24.40890062885876,34.01530986939292 L 24.853699152917443,33.7839493370916" fill="none" stroke="rgb(107,53,53)" stroke-width="0.1"/>
  <path d="M 24.853699152917443,33.7839493370916 L 25.29841555585108,33.55243099251925" fill="none" stroke="rgb(107,53,53)" stroke-width="0.1"/>
  <path d="M 25.29841555585108,33.55243099251925 L 25.74304978166856,33.32075486482472" fill="none" stroke="rgb(107,53,53)" stroke-width="0.1"/>
  <path d="M 25.74304978166856,33.32075486482472 L 26.18760177438878,33.088920983177104" fill="none" stroke="rgb(107,53,53)" stroke-width="0.1"/>
  <path d="M 26.18760177438878,33.088920983177104 L 26.632071478042008,32.85692937676458" fill="none" stroke="rgb(107,53,53)" stroke-width="0.1"/>
  <path d="M 26.632071478042008,32.85692937676458 L 27.076458836668508,32.62478007479535" fill="none" stroke="rgb(107,53,53)" stroke-width="0.1"/>
  <path d="M 27.076458836668508,32.62478007479535 L 27.520763794318214,32.39247310649762" fill="none" stroke="rgb(107,53,53)" stroke-width="0.1"/>
  <path d="M 27.520763794318214,32.39247310649762 L 27.964986295051858,32.160008501120046" fill="none" stroke="rgb(107,53,53)" stroke-width="0.1"/>
  <path d="M 27.964986295051858,32.160008501120046 L 28.4091262829412,31.92738628792995" fill="none" stroke="rgb(107,53,53)" stroke-width="0.1"/>
  <path d="M 28.4091262829412,31.92738628792995 L 28.853183702067213,31.69460649621533" fill="none" stroke="rgb(107,53,53)" stroke-width="0.1"/>
  <path d="M 28.853183702067213,31.69460649621533 L 29.29715849652223,31.461669155283744" fill="none" stroke="rgb(107,53,53)" stroke-width="0.1"/>
  <path d="M 29.29715849652223,31.461669155283744 L 29.741050610408706,31.228574294462533" fill="none" stroke="rgb(107,53,53)" stroke-width="0.1"/>
  <path d="M 29.741050610408706,31.228574294462533 L 30.18485998783899,30.995321943099498" fill="none" stroke="rgb(107,53,53)" stroke-width="0.1"/>
  <path d="M 30.18485998783899,30.995321943099498 L 30.628586572936683,30.76191213056086" fill="none" stroke="rgb(107,53,53)" stroke-width="0.1"/>
  <path d="M 30.628586572936683,30.76191213056086 L 31.07223030983539,30.52834488623421" fill="none" stroke="rgb(107,53,53)" stroke-width="0.1"/>
  <path d="M 31.07223030983539,30.52834488623421 L 31.515791142678722,30.29462023952624" fill="none" stroke="rgb(107,53,53)" stroke-width="0.1"/>
  <path d="M 31.515791142678722,30.29462023952624 L 31.95926901562177,30.060738219863197" fill="none" stroke="rgb(107,53,53)" stroke-width="0.1"/>
  <path d="M 31.95926901562177,30.060738219863197 L 32.40266387282895,29.82669885669179" fill="none" stroke="rgb(107,53,53)" stroke-width="0.1"/>
  <path d="M 32.40266387282895,29.82669885669179 L 32.84597565847616,29.59250217947806" fill="none" stroke="rgb(107,53,53)" stroke-width="0.1"/>
  <path d="M 32.84597565847616,29.59250217947806 L 33.28920431674908,29.358148217707594" fill="none" stroke="rgb(107,53,53)" stroke-width="0.1"/>
  <path d="M 33.28920431674908,29.358148217707594 L 33.7323497918436,29.12363700088713" fill="none" stroke="rgb(107,53,53)" stroke-width="0.1"/>
  <path d="M 33.7323497918436,29.12363700088713 L 34.1754120279669,28.888968558541592" fill="none" stroke="rgb(107,53,53)" stroke-width="0.1"/>
  <path d="M 34.1754120279669,28.888968558541592 L 34.618390969336474,28.654142920216145" fill="none" stroke="rgb(107,53,53)" stroke-width="0.1"/>
  <path d="M 34.618390969336474,28.654142920216145 L 35.06128656017984,28.419160115476643" fill="none" stroke="rgb(107,53,53)" stroke-width="0.1"/>
  <path d="M 35.06128656017984,28.419160115476643 L 35.50409874473485,28.184020173907584" fill="none" stroke="rgb(107,53,53)" stroke-width="0.1"/>
  <path d="M 35.50409874473485,28.184020173907584 L 35.946827467250955,27.94872312511393" fill="none" stroke="rgb(107,53,53)" stroke-width="0.1"/>
  <path d="M 35.946827467250955,27.94872312511393 L 36.38947267198705,27.71326899871997" fill="none" stroke="rgb(107,53,53)" stroke-width="0.1"/>
  <path d="M 36.38947267198705,27.71326899871997 L 36.83203430321271,27.477657824370453" fill="none" stroke="rgb(107,53,53)" stroke-width="0.1"/>
  <path d="M 36.83203430321271,27.477657824370453 L 37.274512305208646,27.24188963172901" fill="none" stroke="rgb(107,53,53)" stroke-width="0.1"/>
  <path d="M 37.274512305208646,27.24188963172901 L 37.716906622265356,27.00596445047995" fill="none" stroke="rgb(107,53,53)" stroke-width="0.1"/>
  <path d="M 37.716906622265356,27.00596445047995 L 38.15921719868459,26.76988231032624" fill="none" stroke="rgb(107,53,53)" stroke-width="0.1"/>
  <path d="M 38.15921719868459,26.76988231032624 L 38.60144397877798,26.533643240991978" fill="none" stroke="rgb(107,53,53)" stroke-width="0.1"/>
  <path d="M 38.60144397877798,26.533643240991978 L 39.043586906867745,26.29724727221992" fill="none" stroke="rgb(107,53,53)" stroke-width="0.1"/>
  <path d="M 39.043586906867745,26.29724727221992 L 39.485645927287464,26.060694433772824" fill="none" stroke="rgb(107,53,53)" stroke-width="0.1"/>
  <path d="M 39.485645927287464,26.060694433772824 L 39.92762098438038,25.823984755433457" fill="none" stroke="rgb(107,53,53)" stroke-width="0.1"/>
  <path d="M 39.92762098438038,25.823984755433457 L 40.36951202250043,25.5871182670046" fill="none" stroke="rgb(107,53,53)" stroke-width="0.1"/>
  <path d="M 40.36951202250043,25.5871182670046 L 40.81131898601279,25.350094998307895" fill="none" stroke="rgb(107,53,53)" stroke-width="0.1"/>
  <path d="M 40.81131898601279,25.350094998307895 L 41.25304181929232,25.11291497918546" fill="none" stroke="rgb(107,53,53)" stroke-width="0.1"/>
  <path d="M 41.25304181929232,25.11291497918546 L 41.69468046672557,24.87557823949851" fill="none" stroke="rgb(107,53,53)" stroke-width="0.1"/>
  <path d="M 41.69468046672557,24.87557823949851 L 42.1362348727082,24.63808480912894" fill="none" stroke="rgb(107,53,53)" stroke-width="0.1"/>
  <path d="M 42.1362348727082,24.63808480912894 L 42.57770498164814,24.400434717977305" fill="none" stroke="rgb(107,53,53)" stroke-width="0.1"/>
  <path d="M 42.57770498164814,24.400434717977305 L 43.019090737962415,24.16262799596484" fill="none" stroke="rgb(107,53,53)" stroke-width="0.1"/>
  <path d="M 43.019090737962415,24.16262799596484 L 43.46039208607999,23.924664673031657" fill="none" stroke="rgb(107,53,53)" stroke-width="0.1"/>
  <path d="M 43.46039208607999,23.924664673031657 L 43.9016089704395,23.68654477913833" fill="none" stroke="rgb(107,53,53)" stroke-width="0.1"/>
  <path d="M 43.9016089704395,23.68654477913833 L 44.34274133549036,23.448268344264534" fill="none" stroke="rgb(107,53,53)" stroke-width="0.1"/>
  <path d="M 44.34274133549036,23.448268344264534 L 44.783789125693374,23.20983539840995" fill="none" stroke="rgb(107,53,53)" stroke-width="0.1"/>
  <path d="M 44.783789125693374,23.20983539840995 L 45.224752285519,22.971245971594044" fill="none" stroke="rgb(107,53,53)" stroke-width="0.1"/>
  <path d="M 45.224752285519,22.971245971594044 L 45.66563075944862,22.73250009385606" fill="none" stroke="rgb(107,53,53)" stroke-width="0.1"/>
  <path d="M 45.66563075944862,22.73250009385606 L 46.10642449197496,22.493597795254345" fill="none" stroke="rgb(107,53,53)" stroke-width="0.1"/>
  <path d="M 46.10642449197496,22.493597795254345 L 46.54713342760044,22.254539105867252" fill="none" stroke="rgb(107,53,53)" stroke-width="0.1"/>
  <path d="M 46.54713342760044,22.254539105867252 L 46.98775751083906,22.0153240557936" fill="none" stroke="rgb(107,53,53)" stroke-width="0.1"/>
  <path d="M 46.98775751083906,22.0153240557936 L 47.42829668621482,21.775952675150393" fill="none" stroke="rgb(107,53,53)" stroke-width="0.1"/>
  <path d="M 47.42829668621482,21.775952675150393 L 47.86875089826242,21.536424994075787" fill="none" stroke="rgb(107,53,53)" stroke-width="0.1"/>
  <path d="M 47.86875089826242,21.536424994075787 L 48.30912009152803,21.296741042726353" fill="none" stroke="rgb(107,53,53)" stroke-width="0.1"/>
  <path d="M 48.30912009152803,21.296741042726353 L 48.74940421056772,21.05690085127935" fill="none" stroke="rgb(107,53,53)" stroke-width="0.1"/>
  <path d="M 48.74940421056772,21.05690085127935 L 49.18960319994801,20.8169044499316" fill="none" stroke="rgb(107,53,53)" stroke-width="0.1"/>
  <path d="M 49.18960319994801,20.8169044499316 L 49.629717004247595,20.576751868898782" fill="none" stroke="rgb(107,53,53)" stroke-width="0.1"/>
  <path d="M 49.629717004247595,20.576751868898782 L 50.069745568054145,20.336443138416826" fill="none" stroke="rgb(107,53,53)" stroke-width="0.1"/>
  <path d="M 50.069745568054145,20.336443138416826 L 50.509688835967495,20.095978288741208" fill="none" stroke="rgb(107,53,53)" stroke-width="0.1"/>
  <path d="M 50.509688835967495,20.095978288741208 L 50.94954675259714,19.855357350147415" fill="none" stroke="rgb(107,53,53)" stroke-width="0.1"/>
  <path d="M 50.94954675259714,19.855357350147415 L 51.38931926256407,19.614580352930034" fill="none" stroke="rgb(107,53,53)" stroke-width="0.1"/>
  <path d="M 51.38931926256407,19.614580352930034 L 51.82900631049961,19.37364732740366" fill="none" stroke="rgb(107,53,53)" stroke-width="0.1"/>
  <path d="M 51.82900631049961,19.37364732740366 L 52.268607841046105,19.132558303902215" fill="none" stroke="rgb(107,53,53)" stroke-width="0.1"/>
  <path d="M 52.268607841046105,19.132558303902215 L 52.708123798856604,18.89131331277963" fill="none" stroke="rgb(107,53,53)" stroke-width="0.1"/>
  <path d="M 52.708123798856604,18.89131331277963 L 53.147554128594265,18.649912384409163" fill="none" stroke="rgb(107,53,53)" stroke-width="0.1"/>
  <path d="M 53.147554128594265,18.649912384409163 L 53.58689877493441,18.408355549183852" fill="none" stroke="rgb(107,53,53)" stroke-width="0.1"/>
  <path d="M 53.58689877493441,18.408355549183852 L 54.02615768256203,18.166642837516747" fill="none" stroke="rgb(107,53,53)" stroke-width="0.1"/>
  <path d="M 54.02615768256203,18.166642837516747 L 54.46533079617291,17.92477427983954" fill="none" stroke="rgb(107,53,53)" stroke-width="0.1"/>
  <path d="M 54.46533079617291,17.92477427983954 L 54.904418060474654,17.682749906604613" fill="none" stroke="rgb(107,53,53)" stroke-width="0.1"/>
  <path d="M 54.904418060474654,17.682749906604613 L 55.34341942018432,17.44056974828345" fill="none" stroke="rgb(107,53,53)" stroke-width="0.1"/>
  <path d="M 55.34341942018432,17.44056974828345 L 55.782334820031,17.19823383536641" fill="none" stroke="rgb(107,53,53)" stroke-width="0.1"/>
  <path d="M 55.782334820031,17.19823383536641 L 56.22116420475379,16.955742198365442" fill="none" stroke="rgb(107,53,53)" stroke-width="0.1"/>
  <path d="M 56.22116420475379,16.955742198365442 L 56.65990751910272,16.713094867810014" fill="none" stroke="rgb(107,53,53)" stroke-width="0.1"/>
  <path d="M 56.65990751910272,16.713094867810014 L 57.09856470783927,16.47029187425028" fill="none" stroke="rgb(107,53,53)" stroke-width="0.1"/>
  <path d="M 57.09856470783927,16.47029187425028 L 57.537135715735076,16.227333248255945" fill="none" stroke="rgb(107,53,53)" stroke-width="0.1"/>
  <path d="M 57.537135715735076,16.227333248255945 L 57.97562048757254,15.984219020416276" fill="none" stroke="rgb(107,53,53)" stroke-width="0.1"/>
  <path d="M 57.97562048757254,15.984219020416276 L 58.41401896814591,15.74094922133986" fill="none" stroke="rgb(107,53,53)" stroke-width="0.1"/>
  <path d="M 58.41401896814591,15.74094922133986 L 58.85233110225886,15.497523881654843" fill="none" stroke="rgb(107,53,53)" stroke-width="0.1"/>
  <path d="M 58.85233110225886,15.497523881654843 L 59.29055683472757,15.253943032009147" fill="none" stroke="rgb(107,53,53)" stroke-width="0.1"/>
  <path d="M 59.29055683472757,15.253943032009147 L 59.72869611037754,15.010206703070708" fill="none" stroke="rgb(107,53,53)" stroke-width="0.1"/>
  <path d="M 59.72869611037754,15.010206703070708 L 60.16674887404622,14.766314925525876" fill="none" stroke="rgb(107,53,53)" stroke-width="0.1"/>
  <path d="M 60.16674887404622,14.766314925525876 L 60.60471507058128,14.522267730081921" fill="none" stroke="rgb(107,53,53)" stroke-width="0.1"/>
  <path d="M 60.60471507058128,14.522267730081921 L 61.04259464484221,14.278065147464758" fill="none" stroke="rgb(107,53,53)" stroke-width="0.1"/>
  <path d="M 61.04259464484221,14.278065147464758 L 61.48038754169829,14.033707208420083" fill="none" stroke="rgb(107,53,53)" stroke-width="0.1"/>
  <path d="M 61.48038754169829,14.033707208420083 L 61.918093706029936,13.789193943713371" fill="none" stroke="rgb(107,53,53)" stroke-width="0.1"/>
  <path d="M 61.918093706029936,13.789193943713371 L 62.355713082729494,13.544525384129429" fill="none" stroke="rgb(107,53,53)" stroke-width="0.1"/>
  <path d="M 62.355713082729494,13.544525384129429 L 62.793245616699096,13.29970156047284" fill="none" stroke="rgb(107,53,53)" stroke-width="0.1"/>
  <path d="M 62.793245616699096,13.29970156047284 L 63.23069125285201,13.054722503567518" fill="none" stroke="rgb(107,53,53)" stroke-width="0.1"/>
  <path d="M 63.23069125285201,13.054722503567518 L 63.66804993611322,12.809588244256702" fill="none" stroke="rgb(107,53,53)" stroke-width="0.1"/>
  <path d="M 63.66804993611322,12.809588244256702 L 64.10532161141737,12.564298813403866" fill="none" stroke="rgb(107,53,53)" stroke-width="0.1"/>
  <path d="M 64.10532161141737,12.564298813403866 L 64.5425062237116,12.318854241891358" fill="none" stroke="rgb(107,53,53)" stroke-width="0.1"/>
  <path d="M 64.5425062237116,12.318854241891358 L 64.97960371795261,12.073254560621308" fill="none" stroke="rgb(107,53,53)" stroke-width="0.1"/>
  <path d="M 64.97960371795261,12.073254560621308 L 65.4166140391086,11.827499800515625" fill="none" stroke="rgb(107,53,53)" stroke-width="0.1"/>
  <path d="M 65.4166140391086,11.827499800515625 L 65.8535371321592,11.581589992515319" fill="none" stroke="rgb(107,53,53)" stroke-width="0.1"/>
  <path d="M 65.8535371321592,11.581589992515319 L 66.29037294209456,11.335525167580727" fill="none" stroke="rgb(107,53,53)" stroke-width="0.1"/>
  <path d="M 66.29037294209456,11.335525167580727 L 66.72712141391537,11.089305356692876" fill="none" stroke="rgb(107,53,53)" stroke-width="0.1"/>
  <path d="M 66.72712141391537,11.089305356692876 L 67.16378249263403,10.842930590850983" fill="none" stroke="rgb(107,53,53)" stroke-width="0.1"/>
  <path d="M 67.16378249263403,10.842930590850983 L 67.60035612327431,10.596400901074503" fill="none" stroke="rgb(107,53,53)" stroke-width="0.1"/>
  <path d="M 67.60035612327431,10.596400901074503 L 68.03684225086988,10.34971631840176" fill="none" stroke="rgb(107,53,53)" stroke-width="0.1"/>
  <path d="M 68.03684225086988,10.34971631840176 L 68.47324082046578,10.102876873891546" fill="none" stroke="rgb(107,53,53)" stroke-width="0.1"/>
  <path d="M 68.47324082046578,10.102876873891546 L 68.90955177711885,9.855882598621292" fill="none" stroke="rgb(107,53,53)" stroke-width="0.1"/>
  <path d="M 68.90955177711885,9.855882598621292 L 69.34577506589562,9.608733523688443" fill="none" stroke="rgb(107,53,53)" stroke-width="0.1"/>
  <path d="M 69.34577506589562,9.608733523688443 L 69.78191063187523,9.36142968020954" fill="none" stroke="rgb(107,53,53)" stroke-width="0.1"/>
  <path d="M 69.78191063187523,9.36142968020954 L 70.2179584201466,9.113971099320679" fill="none" stroke="rgb(107,53,53)" stroke-width="0.1"/>
  <path d="M 70.2179584201466,9.113971099320679 L 70.65391837580978,8.866357812178194" fill="none" stroke="rgb(107,53,53)" stroke-width="0.1"/>
  <path d="M 70.65391837580978,8.866357812178194 L 71.089790443977,8.618589849956606" fill="none" stroke="rgb(107,53,53)" stroke-width="0.1"/>
  <path d="M 71.089790443977,8.618589849956606 L 71.52557456977047,8.370667243850676" fill="none" stroke="rgb(107,53,53)" stroke-width="0.1"/>
  <path d="M 71.52557456977047,8.370667243850676 L 71.96127069832335,8.12259002507517" fill="none" stroke="rgb(107,53,53)" stroke-width="0.1"/>
  <path d="M 71.96127069832335,8.12259002507517 L 72.39687877478093,7.874358224862817" fill="none" stroke="rgb(107,53,53)" stroke-width="0.1"/>
  <path d="M 72.39687877478093,7.874358224862817 L 72.83239874429853,7.625971874467041" fill="none" stroke="rgb(107,53,53)" stroke-width="0.1"/>
  <path d="M 72.83239874429853,7.625971874467041 L 73.2678305520435,7.377431005160361" fill="none" stroke="rgb(107,53,53)" stroke-width="0.1"/>
  <path d="M 73.2678305520435,7.377431005160361 L 73.70317414319356,7.128735648234851" fill="none" stroke="rgb(107,53,53)" stroke-width="0.1"/>
  <path d="M 73.70317414319356,7.128735648234851 L 74.13842946293744,6.879885835001687" fill="none" stroke="rgb(107,53,53)" stroke-width="0.1"/>
  <path d="M 74.13842946293744,6.879885835001687 L 74.57359645647591,6.630881596792051" fill="none" stroke="rgb(107,53,53)" stroke-width="0.1"/>
  <path d="M 74.57359645647591,6.630881596792051 L 75.00867506901989,6.38172296495577" fill="none" stroke="rgb(107,53,53)" stroke-width="0.1"/>
  <path d="M 75.00867506901989,6.38172296495577 L 75.44366524579175,6.132409970862909" fill="none" stroke="rgb(107,53,53)" stroke-width="0.1"/>
  <path d="M 75.44366524579175,6.132409970862909 L 75.87856693202525,5.882942645902858" fill="none" stroke="rgb(107,53,53)" stroke-width="0.1"/>
  <path d="M 75.87856693202525,5.882942645902858 L 76.31338007296529,5.633321021483653" fill="none" stroke="rgb(107,53,53)" stroke-width="0.1"/>
  <path d="M 76.31338007296529,5.633321021483653 L 76.74810461386744,5.3835451290337915" fill="none" stroke="rgb(107,53,53)" stroke-width="0.1"/>
  <path d="M 76.74810461386744,5.3835451290337915 L 77.18274049999998,5.133614999999992" fill="none" stroke="rgb(107,53,53)" stroke-width="0.1"/>
  <path d="M 84.72006998167859,0.21350551885984714 L 84.29981871133816,0.484521746556311" fill="none" stroke="rgb(107,53,53)" stroke-width="0.1"/>
  <path d="M 84.29981871133816,0.484521746556311 L 83.87974422473116,0.7558119078221353" fill="none" stroke="rgb(107,53,53)" stroke-width="0.1"/>
  <path d="M 83.87974422473116,0.7558119078221353 L 83.45984670041634,1.0273758873415773" fill="none" stroke="rgb(107,53,53)" stroke-width="0.1"/>
  <path d="M 83.45984670041634,1.0273758873415773 L 83.04012631687817,1.2992135696817968" fill="none" stroke="rgb(107,53,53)" stroke-width="0.1"/>
  <path d="M 83.04012631687817,1.2992135696817968 L 82.62058325252423,1.5713248392946753" fill="none" stroke="rgb(107,53,53)" stroke-width="0.1"/>
  <path d="M 82.62058325252423,1.5713248392946753 L 82.20121768568777,1.8437095805151102" fill="none" stroke="rgb(107,53,53)" stroke-width="0.1"/>
  <path d="M 82.20121768568777,1.8437095805151102 L 81.78202979462594,2.116367677562266" fill="none" stroke="rgb(107,53,53)" stroke-width="0.1"/>
  <path d="M 81.78202979462594,2.116367677562266 L 81.36301975752167,2.3892990145380963" fill="none" stroke="rgb(107,53,53)" stroke-width="0.1"/>
  <path d="M 81.36301975752167,2.3892990145380963 L 80.94418775248062,2.6625034754296166" fill="none" stroke="rgb(107,53,53)" stroke-width="0.1"/>
  <path d="M 80.94418775248062,2.6625034754296166 L 80.52553395753358,2.9359809441072002" fill="none" stroke="rgb(107,53,53)" stroke-width="0.1"/>
  <path d="M 80.52553395753358,2.9359809441072002 L 80.1070585506356,3.209731304325146" fill="none" stroke="rgb(107,53,53)" stroke-width="0.1"/>
  <path d="M 80.1070585506356,3.209731304325146 L 79.68876170966587,3.483754439721679" fill="none" stroke="rgb(107,53,53)" stroke-width="0.1"/>
  <path d="M 79.68876170966587,3.483754439721679 L 79.27064361242765,3.7580502338194037" fill="none" stroke="rgb(107,53,53)" stroke-width="0.1"/>
  <path d="M 79.27064361242765,3.7580502338194037 L 78.8527044366482,4.032618570024965" fill="none" stroke="rgb(107,53,53)" stroke-width="0.1"/>
  <path d="M 78.8527044366482,4.032618570024965 L 78.43494435997872,4.307459331628706" fill="none" stroke="rgb(107,53,53)" stroke-width="0.1"/>
  <path d="M 78.43494435997872,4.307459331628706 L 78.0173635599943,4.582572401805692" fill="none" stroke="rgb(107,53,53)" stroke-width="0.1"/>
  <path d="M 78.0173635599943,4.582572401805692 L 77.59996221419391,4.857957663615025" fill="none" stroke="rgb(107,53,53)" stroke-width="0.1"/>
  <path d="M 77.59996221419391,4.857957663615025 L 77.18274049999998,5.133614999999992" fill="none" stroke="rgb(107,53,53)" stroke-width="0.1"/>
 </g>
 <g id="layerA-ELEV-2" inkscape:groupmode="layer" inkscape:label="A-ELEV-2">
  <path d="M 0.26300834034850595,36.22283475453298 L 0.7114442151902267,35.99861359370027" fill="none" stroke="rgb(255,73,12)" stroke-width="0.1"/>
  <path d="M 0.7114442151902267,35.99861359370027 L 1.1597999921292512,35.77423231084629" fill="none" stroke="rgb(255,73,12)" stroke-width="0.1"/>
  <path d="M 1.1597999921292512,35.77423231084629 L 1.6080756139917867,35.549690934583964" fill="none" stroke="rgb(255,73,12)" stroke-width="0.1"/>
  <path d="M 1.6080756139917867,35.549690934583964 L 2.0562710236134762,35.324989493546695" fill="none" stroke="rgb(255,73,12)" stroke-width="0.1"/>
  <path d="M 2.0562710236134762,35.324989493546695 L 2.5043861638399676,35.100128016388794" fill="none" stroke="rgb(255,73,12)" stroke-width="0.1"/>
  <path d="M 2.5043861638399676,35.100128016388794 L 2.9524209775280497,34.875106531784354" fill="none" stroke="rgb(255,73,12)" stroke-width="0.1"/>
  <path d="M 2.9524209775280497,34.875106531784354 L 3.40037540754372,34.64992506842839" fill="none" stroke="rgb(255,73,12)" stroke-width="0.1"/>
  <path d="M 3.40037540754372,34.64992506842839 L 3.848249396764345,34.42458365503592" fill="none" stroke="rgb(255,73,12)" stroke-width="0.1"/>
  <path d="M 3.848249396764345,34.42458365503592 L 4.296042888076272,34.199082320342654" fill="none" stroke="rgb(255,73,12)" stroke-width="0.1"/>
  <path d="M 4.296042888076272,34.199082320342654 L 4.743755824377445,33.97342109310432" fill="none" stroke="rgb(255,73,12)" stroke-width="0.1"/>
  <path d="M 4.743755824377445,33.97342109310432 L 5.191388148575129,33.74760000209733" fill="none" stroke="rgb(255,73,12)" stroke-width="0.1"/>
  <path d="M 5.191388148575129,33.74760000209733 L 5.638939803586823,33.52161907611901" fill="none" stroke="rgb(255,73,12)" stroke-width="0.1"/>
  <path d="M 5.638939803586823,33.52161907611901 L 6.086410732340937,33.29547834398579" fill="none" stroke="rgb(255,73,12)" stroke-width="0.1"/>
  <path d="M 6.086410732340937,33.29547834398579 L 6.533800877776343,33.06917783453548" fill="none" stroke="rgb(255,73,12)" stroke-width="0.1"/>
  <path d="M 6.533800877776343,33.06917783453548 L 6.981110182840894,32.842717576626114" fill="none" stroke="rgb(255,73,12)" stroke-width="0.1"/>
  <path d="M 6.981110182840894,32.842717576626114 L 7.428338590494377,32.61609759913529" fill="none" stroke="rgb(255,73,12)" stroke-width="0.1"/>
  <path d="M 7.428338590494377,32.61609759913529 L 7.875486043705564,32.38931793096242" fill="none" stroke="rgb(255,73,12)" stroke-width="0.1"/>
  <path d="M 7.875486043705564,32.38931793096242 L 8.322552485454594,32.16237860102626" fill="none" stroke="rgb(255,73,12)" stroke-width="0.1"/>
  <path d="M 8.322552485454594,32.16237860102626 L 8.769537858731155,31.93527963826557" fill="none" stroke="rgb(255,73,12)" stroke-width="0.1"/>
  <path d="M 8.769537858731155,31.93527963826557 L 9.216442106535624,31.708021071641156" fill="none" stroke="rgb(255,73,12)" stroke-width="0.1"/>
  <path d="M 9.216442106535624,31.708021071641156 L 9.663265171878834,31.48060293013225" fill="none" stroke="rgb(255,73,12)" stroke-width="0.1"/>
  <path d="M 9.663265171878834,31.48060293013225 L 10.110006997781397,31.25302524273968" fill="none" stroke="rgb(255,73,12)" stroke-width="0.1"/>
  <path d="M 10.110006997781397,31.25302524273968 L 10.556667527275408,31.02528803848361" fill="none" stroke="rgb(255,73,12)" stroke-width="0.1"/>
  <path d="M 10.556667527275408,31.02528803848361 L 11.003246703401942,30.79739134640579" fill="none" stroke="rgb(255,73,12)" stroke-width="0.1"/>
  <path d="M 11.003246703401942,30.79739134640579 L 11.449744469213556,30.569335195567305" fill="none" stroke="rgb(255,73,12)" stroke-width="0.1"/>
  <path d="M 11.449744469213556,30.569335195567305 L 11.896160767772699,30.341119615049934" fill="none" stroke="rgb(255,73,12)" stroke-width="0.1"/>
  <path d="M 11.896160767772699,30.341119615049934 L 12.34249554215205,30.11274463395614" fill="none" stroke="rgb(255,73,12)" stroke-width="0.1"/>
  <path d="M 12.34249554215205,30.11274463395614 L 12.788748735434865,29.884210281407945" fill="none" stroke="rgb(255,73,12)" stroke-width="0.1"/>
  <path d="M 12.788748735434865,29.884210281407945 L 13.234920290715536,29.65551658654806" fill="none" stroke="rgb(255,73,12)" stroke-width="0.1"/>
  <path d="M 13.234920290715536,29.65551658654806 L 13.681010151097212,29.426663578540115" fill="none" stroke="rgb(255,73,12)" stroke-width="0.1"/>
  <path d="M 13.681010151097212,29.426663578540115 L 14.127018259695319,29.19765128656661" fill="none" stroke="rgb(255,73,12)" stroke-width="0.1"/>
  <path d="M 14.127018259695319,29.19765128656661 L 14.572944559634038,28.968479739831878" fill="none" stroke="rgb(255,73,12)" stroke-width="0.1"/>
  <path d="M 14.572944559634038,28.968479739831878 L 15.018788994049487,28.7391489675598" fill="none" stroke="rgb(255,73,12)" stroke-width="0.1"/>
  <path d="M 15.018788994049487,28.7391489675598 L 15.464551506086991,28.509658998994496" fill="none" stroke="rgb(255,73,12)" stroke-width="0.1"/>
  <path d="M 15.464551506086991,28.509658998994496 L 15.910232038902677,28.280009863400778" fill="none" stroke="rgb(255,73,12)" stroke-width="0.1"/>
  <path d="M 15.910232038902677,28.280009863400778 L 16.355830535663813,28.050201590063466" fill="none" stroke="rgb(255,73,12)" stroke-width="0.1"/>
  <path d="M 16.355830535663813,28.050201590063466 L 16.801346939547216,27.820234208287843" fill="none" stroke="rgb(255,73,12)" stroke-width="0.1"/>
  <path d="M 16.801346939547216,27.820234208287843 L 17.24678119374073,27.590107747399202" fill="none" stroke="rgb(255,73,12)" stroke-width="0.1"/>
  <path d="M 17.24678119374073,27.590107747399202 L 17.692133241442207,27.359822236743526" fill="none" stroke="rgb(255,73,12)" stroke-width="0.1"/>
  <path d="M 17.692133241442207,27.359822236743526 L 18.13740302586075,27.129377705687034" fill="none" stroke="rgb(255,73,12)" stroke-width="0.1"/>
  <path d="M 18.13740302586075,27.129377705687034 L 18.582590490214898,26.8987741836155" fill="none" stroke="rgb(255,73,12)" stroke-width="0.1"/>
  <path d="M 18.582590490214898,26.8987741836155 L 19.02769557773479,26.668011699935846" fill="none" stroke="rgb(255,73,12)" stroke-width="0.1"/>
  <path d="M 19.02769557773479,26.668011699935846 L 19.472718231659996,26.437090284074998" fill="none" stroke="rgb(255,73,12)" stroke-width="0.1"/>
  <path d="M 19.472718231659996,26.437090284074998 L 19.917658395241688,26.206009965479893" fill="none" stroke="rgb(255,73,12)" stroke-width="0.1"/>
  <path d="M 19.917658395241688,26.206009965479893 L 20.36251601174058,25.97477077361839" fill="none" stroke="rgb(255,73,12)" stroke-width="0.1"/>
  <path d="M 20.36251601174058,25.97477077361839 L 20.807291024428764,25.743372737977666" fill="none" stroke="rgb(255,73,12)" stroke-width="0.1"/>
  <path d="M 20.807291024428764,25.743372737977666 L 21.251983376587873,25.511815888066053" fill="none" stroke="rgb(255,73,12)" stroke-width="0.1"/>
  <path d="M 21.251983376587873,25.511815888066053 L 21.69659301151114,25.280100253411433" fill="none" stroke="rgb(255,73,12)" stroke-width="0.1"/>
  <path d="M 21.69659301151114,25.280100253411433 L 22.141119872501804,25.048225863561925" fill="none" stroke="rgb(255,73,12)" stroke-width="0.1"/>
  <path d="M 22.141119872501804,25.048225863561925 L 22.58556390287322,24.816192748087246" fill="none" stroke="rgb(255,73,12)" stroke-width="0.1"/>
  <path d="M 22.58556390287322,24.816192748087246 L 23.02992504595045,24.58400093657508" fill="none" stroke="rgb(255,73,12)" stroke-width="0.1"/>
  <path d="M 23.02992504595045,24.58400093657508 L 23.474203245067883,24.35165045863539" fill="none" stroke="rgb(255,73,12)" stroke-width="0.1"/>
  <path d="M 23.474203245067883,24.35165045863539 L 23.91839844357162,24.11914134389724" fill="none" stroke="rgb(255,73,12)" stroke-width="0.1"/>
  <path d="M 23.91839844357162,24.11914134389724 L 24.3625105848173,23.886473622010385" fill="none" stroke="rgb(255,73,12)" stroke-width="0.1"/>
  <path d="M 24.3625105848173,23.886473622010385 L 24.806539612171832,23.653647322644815" fill="none" stroke="rgb(255,73,12)" stroke-width="0.1"/>
  <path d="M 24.806539612171832,23.653647322644815 L 25.25048546901303,23.420662475490076" fill="none" stroke="rgb(255,73,12)" stroke-width="0.1"/>
  <path d="M 25.25048546901303,23.420662475490076 L 25.694348098728256,23.187519110256403" fill="none" stroke="rgb(255,73,12)" stroke-width="0.1"/>
  <path d="M 25.694348098728256,23.187519110256403 L 26.138127444715906,22.95421725667518" fill="none" stroke="rgb(255,73,12)" stroke-width="0.1"/>
  <path d="M 26.138127444715906,22.95421725667518 L 26.581823450385855,22.720756944496202" fill="none" stroke="rgb(255,73,12)" stroke-width="0.1"/>
  <path d="M 26.581823450385855,22.720756944496202 L 27.025436059157187,22.487138203490872" fill="none" stroke="rgb(255,73,12)" stroke-width="0.1"/>
  <path d="M 27.025436059157187,22.487138203490872 L 27.468965214460923,22.253361063449915" fill="none" stroke="rgb(255,73,12)" stroke-width="0.1"/>
  <path d="M 27.468965214460923,22.253361063449915 L 27.91241085973752,22.019425554185204" fill="none" stroke="rgb(255,73,12)" stroke-width="0.1"/>
  <path d="M 27.91241085973752,22.019425554185204 L 28.355772938439372,21.78533170552771" fill="none" stroke="rgb(255,73,12)" stroke-width="0.1"/>
  <path d="M 28.355772938439372,21.78533170552771 L 28.799051394028425,21.551079547329095" fill="none" stroke="rgb(255,73,12)" stroke-width="0.1"/>
  <path d="M 28.799051394028425,21.551079547329095 L 29.242246169977534,21.316669109461714" fill="none" stroke="rgb(255,73,12)" stroke-width="0.1"/>
  <path d="M 29.242246169977534,21.316669109461714 L 29.68535720977104,21.082100421817245" fill="none" stroke="rgb(255,73,12)" stroke-width="0.1"/>
  <path d="M 29.68535720977104,21.082100421817245 L 30.128384456902722,20.84737351430806" fill="none" stroke="rgb(255,73,12)" stroke-width="0.1"/>
  <path d="M 30.128384456902722,20.84737351430806 L 30.571327854878064,20.612488416866768" fill="none" stroke="rgb(255,73,12)" stroke-width="0.1"/>
  <path d="M 30.571327854878064,20.612488416866768 L 31.01418734721267,20.37744515944553" fill="none" stroke="rgb(255,73,12)" stroke-width="0.1"/>
  <path d="M 31.01418734721267,20.37744515944553 L 31.45696287743283,20.14224377201765" fill="none" stroke="rgb(255,73,12)" stroke-width="0.1"/>
  <path d="M 31.45696287743283,20.14224377201765 L 31.89965438907609,19.90688428457554" fill="none" stroke="rgb(255,73,12)" stroke-width="0.1"/>
  <path d="M 31.89965438907609,19.90688428457554 L 32.34226182569034,19.671366727132522" fill="none" stroke="rgb(255,73,12)" stroke-width="0.1"/>
  <path d="M 32.34226182569034,19.671366727132522 L 32.78478513083371,19.43569112972193" fill="none" stroke="rgb(255,73,12)" stroke-width="0.1"/>
  <path d="M 32.78478513083371,19.43569112972193 L 33.22722424807603,19.199857522396883" fill="none" stroke="rgb(255,73,12)" stroke-width="0.1"/>
  <path d="M 33.22722424807603,19.199857522396883 L 33.669579120997014,18.96386593523141" fill="none" stroke="rgb(255,73,12)" stroke-width="0.1"/>
  <path d="M 33.669579120997014,18.96386593523141 L 34.11184969318788,18.72771639831865" fill="none" stroke="rgb(255,73,12)" stroke-width="0.1"/>
  <path d="M 34.11184969318788,18.72771639831865 L 34.554035908249716,18.491408941773102" fill="none" stroke="rgb(255,73,12)" stroke-width="0.1"/>
  <path d="M 34.554035908249716,18.491408941773102 L 34.996137709795335,18.254943595727923" fill="none" stroke="rgb(255,73,12)" stroke-width="0.1"/>
  <path d="M 34.996137709795335,18.254943595727923 L 35.43815504144766,18.018320390337635" fill="none" stroke="rgb(255,73,12)" stroke-width="0.1"/>
  <path d="M 35.43815504144766,18.018320390337635 L 35.88008784684007,17.781539355776772" fill="none" stroke="rgb(255,73,12)" stroke-width="0.1"/>
  <path d="M 35.88008784684007,17.781539355776772 L 36.321936069618005,17.544600522239193" fill="none" stroke="rgb(255,73,12)" stroke-width="0.1"/>
  <path d="M 36.321936069618005,17.544600522239193 L 36.76369965343622,17.307503919939904" fill="none" stroke="rgb(255,73,12)" stroke-width="0.1"/>
  <path d="M 36.76369965343622,17.307503919939904 L 37.20537854196118,17.07024957911301" fill="none" stroke="rgb(255,73,12)" stroke-width="0.1"/>
  <path d="M 37.20537854196118,17.07024957911301 L 37.646972678870156,16.832837530013308" fill="none" stroke="rgb(255,73,12)" stroke-width="0.1"/>
  <path d="M 37.646972678870156,16.832837530013308 L 38.08848200785053,16.595267802916055" fill="none" stroke="rgb(255,73,12)" stroke-width="0.1"/>
  <path d="M 38.08848200785053,16.595267802916055 L 38.5299064726014,16.35754042811584" fill="none" stroke="rgb(255,73,12)" stroke-width="0.1"/>
  <path d="M 38.5299064726014,16.35754042811584 L 38.97124601683208,16.119655435927484" fill="none" stroke="rgb(255,73,12)" stroke-width="0.1"/>
  <path d="M 38.97124601683208,16.119655435927484 L 39.41250058426249,15.88161285668673" fill="none" stroke="rgb(255,73,12)" stroke-width="0.1"/>
  <path d="M 39.41250058426249,15.88161285668673 L 39.853670118624336,15.643412720748188" fill="none" stroke="rgb(255,73,12)" stroke-width="0.1"/>
  <path d="M 39.853670118624336,15.643412720748188 L 40.2947545636589,15.40505505848762" fill="none" stroke="rgb(255,73,12)" stroke-width="0.1"/>
  <path d="M 40.2947545636589,15.40505505848762 L 40.73575386311984,15.166539900300336" fill="none" stroke="rgb(255,73,12)" stroke-width="0.1"/>
  <path d="M 40.73575386311984,15.166539900300336 L 41.17666796077003,14.927867276601887" fill="none" stroke="rgb(255,73,12)" stroke-width="0.1"/>
  <path d="M 41.17666796077003,14.927867276601887 L 41.61749680038474,14.689037217827604" fill="none" stroke="rgb(255,73,12)" stroke-width="0.1"/>
  <path d="M 41.61749680038474,14.689037217827604 L 42.05824032574901,14.45004975443328" fill="none" stroke="rgb(255,73,12)" stroke-width="0.1"/>
  <path d="M 42.05824032574901,14.45004975443328 L 42.498898480658795,14.210904916894947" fill="none" stroke="rgb(255,73,12)" stroke-width="0.1"/>
  <path d="M 42.498898480658795,14.210904916894947 L 42.93947120892176,13.971602735707961" fill="none" stroke="rgb(255,73,12)" stroke-width="0.1"/>
  <path d="M 42.93947120892176,13.971602735707961 L 43.37995845435603,13.732143241388371" fill="none" stroke="rgb(255,73,12)" stroke-width="0.1"/>
  <path d="M 43.37995845435603,13.732143241388371 L 43.82036016079019,13.492526464472462" fill="none" stroke="rgb(255,73,12)" stroke-width="0.1"/>
  <path d="M 43.82036016079019,13.492526464472462 L 44.26067627206464,13.25275243551539" fill="none" stroke="rgb(255,73,12)" stroke-width="0.1"/>
  <path d="M 44.26067627206464,13.25275243551539 L 44.70090673202958,13.012821185093912" fill="none" stroke="rgb(255,73,12)" stroke-width="0.1"/>
  <path d="M 44.70090673202958,13.012821185093912 L 45.14105148454735,12.77273274380343" fill="none" stroke="rgb(255,73,12)" stroke-width="0.1"/>
  <path d="M 45.14105148454735,12.77273274380343 L 45.5811104734903,12.53248714226072" fill="none" stroke="rgb(255,73,12)" stroke-width="0.1"/>
  <path d="M 45.5811104734903,12.53248714226072 L 46.021083642741814,12.29208441110211" fill="none" stroke="rgb(255,73,12)" stroke-width="0.1"/>
  <path d="M 46.021083642741814,12.29208441110211 L 46.46097093619676,12.0515245809828" fill="none" stroke="rgb(255,73,12)" stroke-width="0.1"/>
  <path d="M 46.46097093619676,12.0515245809828 L 46.90077229776034,11.810807682580048" fill="none" stroke="rgb(255,73,12)" stroke-width="0.1"/>
  <path d="M 46.90077229776034,11.810807682580048 L 47.340487671349365,11.569933746589527" fill="none" stroke="rgb(255,73,12)" stroke-width="0.1"/>
  <path d="M 47.340487671349365,11.569933746589527 L 47.780117000890755,11.328902803727829" fill="none" stroke="rgb(255,73,12)" stroke-width="0.1"/>
  <path d="M 47.780117000890755,11.328902803727829 L 48.21966023032337,11.087714884730872" fill="none" stroke="rgb(255,73,12)" stroke-width="0.1"/>
  <path d="M 48.21966023032337,11.087714884730872 L 48.65911730359642,10.846370020355494" fill="none" stroke="rgb(255,73,12)" stroke-width="0.1"/>
  <path d="M 48.65911730359642,10.846370020355494 L 49.0984881646699,10.604868241377858" fill="none" stroke="rgb(255,73,12)" stroke-width="0.1"/>
  <path d="M 49.0984881646699,10.604868241377858 L 49.53777275751543,10.363209578594365" fill="none" stroke="rgb(255,73,12)" stroke-width="0.1"/>
  <path d="M 49.53777275751543,10.363209578594365 L 49.97697102611562,10.121394062820968" fill="none" stroke="rgb(255,73,12)" stroke-width="0.1"/>
  <path d="M 49.97697102611562,10.121394062820968 L 50.416082914463345,9.879421724894542" fill="none" stroke="rgb(255,73,12)" stroke-width="0.1"/>
  <path d="M 50.416082914463345,9.879421724894542 L 50.855108366563286,9.637292595671056" fill="none" stroke="rgb(255,73,12)" stroke-width="0.1"/>
  <path d="M 50.855108366563286,9.637292595671056 L 51.29404732643059,9.395006706027402" fill="none" stroke="rgb(255,73,12)" stroke-width="0.1"/>
  <path d="M 51.29404732643059,9.395006706027402 L 51.73289973809199,9.152564086859343" fill="none" stroke="rgb(255,73,12)" stroke-width="0.1"/>
  <path d="M 51.73289973809199,9.152564086859343 L 52.1716655455848,8.909964769083558" fill="none" stroke="rgb(255,73,12)" stroke-width="0.1"/>
  <path d="M 52.1716655455848,8.909964769083558 L 52.61034469295714,8.667208783636283" fill="none" stroke="rgb(255,73,12)" stroke-width="0.1"/>
  <path d="M 52.61034469295714,8.667208783636283 L 53.04893712426917,8.424296161473762" fill="none" stroke="rgb(255,73,12)" stroke-width="0.1"/>
  <path d="M 53.04893712426917,8.424296161473762 L 53.48744278359095,8.181226933572248" fill="none" stroke="rgb(255,73,12)" stroke-width="0.1"/>
  <path d="M 53.48744278359095,8.181226933572248 L 53.92586161500469,7.938001130928001" fill="none" stroke="rgb(255,73,12)" stroke-width="0.1"/>
  <path d="M 53.92586161500469,7.938001130928001 L 54.36419356260251,7.694618784557292" fill="none" stroke="rgb(255,73,12)" stroke-width="0.1"/>
  <path d="M 54.36419356260251,7.694618784557292 L 54.8024385704889,7.451079925496174" fill="none" stroke="rgb(255,73,12)" stroke-width="0.1"/>
  <path d="M 54.8024385704889,7.451079925496174 L 55.240596582778494,7.207384584800934" fill="none" stroke="rgb(255,73,12)" stroke-width="0.1"/>
  <path d="M 55.240596582778494,7.207384584800934 L 55.678667543596816,6.963532793547415" fill="none" stroke="rgb(255,73,12)" stroke-width="0.1"/>
  <path d="M 55.678667543596816,6.963532793547415 L 56.116651397081455,6.71952458283215" fill="none" stroke="rgb(255,73,12)" stroke-width="0.1"/>
  <path d="M 56.116651397081455,6.71952458283215 L 56.554548087380795,6.475359983770318" fill="none" stroke="rgb(255,73,12)" stroke-width="0.1"/>
  <path d="M 56.554548087380795,6.475359983770318 L 56.99235755865368,6.231039027498468" fill="none" stroke="rgb(255,73,12)" stroke-width="0.1"/>
  <path d="M 56.99235755865368,6.231039027498468 L 57.430079755071006,5.986561745172253" fill="none" stroke="rgb(255,73,12)" stroke-width="0.1"/>
  <path d="M 57.430079755071006,5.986561745172253 L 57.8677146208139,5.741928167967558" fill="none" stroke="rgb(255,73,12)" stroke-width="0.1"/>
  <path d="M 57.8677146208139,5.741928167967558 L 58.30526210007565,5.497138327079597" fill="none" stroke="rgb(255,73,12)" stroke-width="0.1"/>
  <path d="M 58.30526210007565,5.497138327079597 L 58.742722137059786,5.252192253724729" fill="none" stroke="rgb(255,73,12)" stroke-width="0.1"/>
  <path d="M 58.742722137059786,5.252192253724729 L 59.18009467598097,5.007089979138414" fill="none" stroke="rgb(255,73,12)" stroke-width="0.1"/>
  <path d="M 59.18009467598097,5.007089979138414 L 59.617379661066025,4.761831534575663" fill="none" stroke="rgb(255,73,12)" stroke-width="0.1"/>
  <path d="M 59.617379661066025,4.761831534575663 L 60.054577036551564,4.516416951312408" fill="none" stroke="rgb(255,73,12)" stroke-width="0.1"/>
  <path d="M 60.054577036551564,4.516416951312408 L 60.49168674668692,4.27084626064368" fill="none" stroke="rgb(255,73,12)" stroke-width="0.1"/>
  <path d="M 60.49168674668692,4.27084626064368 L 60.92870873573111,4.025119493884745" fill="none" stroke="rgb(255,73,12)" stroke-width="0.1"/>
  <path d="M 60.92870873573111,4.025119493884745 L 61.36564294795528,3.7792366823706516" fill="none" stroke="rgb(255,73,12)" stroke-width="0.1"/>
  <path d="M 61.36564294795528,3.7792366823706516 L 61.80248932764141,3.533197857456912" fill="none" stroke="rgb(255,73,12)" stroke-width="0.1"/>
  <path d="M 61.80248932764141,3.533197857456912 L 62.239247819082834,3.287003050517683" fill="none" stroke="rgb(255,73,12)" stroke-width="0.1"/>
  <path d="M 62.239247819082834,3.287003050517683 L 62.675918366583915,3.0406522929482662" fill="none" stroke="rgb(255,73,12)" stroke-width="0.1"/>
  <path d="M 62.675918366583915,3.0406522929482662 L 63.11250091446061,2.7941456161632914" fill="none" stroke="rgb(255,73,12)" stroke-width="0.1"/>
  <path d="M 63.11250091446061,2.7941456161632914 L 63.54899540703934,2.547483051597169" fill="none" stroke="rgb(255,73,12)" stroke-width="0.1"/>
  <path d="M 63.54899540703934,2.547483051597169 L 63.98540178865869,2.3006646307045457" fill="none" stroke="rgb(255,73,12)" stroke-width="0.1"/>
  <path d="M 63.98540178865869,2.3006646307045457 L 64.42172000366782,2.0536903849598502" fill="none" stroke="rgb(255,73,12)" stroke-width="0.1"/>
  <path d="M 64.42172000366782,2.0536903849598502 L 64.85794999642746,1.806560345857065" fill="none" stroke="rgb(255,73,12)" stroke-width="0.1"/>
  <path d="M 64.85794999642746,1.806560345857065 L 65.29409171130942,1.5592745449101812" fill="none" stroke="rgb(255,73,12)" stroke-width="0.1"/>
  <path d="M 65.29409171130942,1.5592745449101812 L 65.73014509269649,1.3118330136534269" fill="none" stroke="rgb(255,73,12)" stroke-width="0.1"/>
  <path d="M 65.73014509269649,1.3118330136534269 L 66.16611008498376,1.0642357836403562" fill="none" stroke="rgb(255,73,12)" stroke-width="0.1"/>
  <path d="M 66.16611008498376,1.0642357836403562 L 66.60198663257609,0.8164828864449873" fill="none" stroke="rgb(255,73,12)" stroke-width="0.1"/>
  <path d="M 66.60198663257609,0.8164828864449873 L 67.03777467989119,0.5685743536602104" fill="none" stroke="rgb(255,73,12)" stroke-width="0.1"/>
  <path d="M 67.03777467989119,0.5685743536602104 L 67.47347417135654,0.3205102169000611" fill="none" stroke="rgb(255,73,12)" stroke-width="0.1"/>
  <path d="M 67.47347417135654,0.3205102169000611 L 67.90908505141203,0.07229050779722002" fill="none" stroke="rgb(255,73,12)" stroke-width="0.1"/>
 </g>
 <g id="layerA-PUB_TEXT" inkscape:groupmode="layer" inkscape:label="A-PUB_TEXT">
  <text fill="rgb(0,0,0)" font-family="Noto Sans CJK SC" font-size="2" transform="rotate(-0.0,79.22534049999999,80.117615)" x="79.22534049999999" y="80.117615">
   
  </text>
 </g>
 <g id="layerA-WALL" inkscape:groupmode="layer" inkscape:label="A-WALL">
  <path d="M 29.598640499999988,100.0 L 29.598640499999988,60.59761499999996" fill="none" instance-id="-1" semantic-id="1" stroke="rgb(0,178,178)" stroke-width="0.1"/>
  <path d="M 31.598640499999988,100.0 L 31.598640499999988,59.569615" fill="none" instance-id="-1" semantic-id="1" stroke="rgb(0,178,178)" stroke-width="0.1"/>
  <path d="M 56.828840499999984,42.84261499999997 L 58.25454049999999,45.48261500000001" fill="none" instance-id="-1" semantic-id="1" stroke="rgb(0,178,178)" stroke-width="0.1"/>
  <path d="M 54.11924049999999,42.034614999999974 L 55.545040499999985,44.67461499999996" fill="none" instance-id="-1" semantic-id="1" stroke="rgb(0,178,178)" stroke-width="0.1"/>
  <path d="M 27.660440499999986,59.344614999999976 L 28.562940499999982,61.12861499999997" fill="none" instance-id="-1" semantic-id="1" stroke="rgb(0,178,178)" stroke-width="0.1"/>
  <path d="M 15.176640499999987,67.89761499999997 L 14.274140499999987,66.112615" fill="none" instance-id="-1" semantic-id="1" stroke="rgb(0,178,178)" stroke-width="0.1"/>
  <path d="M 5.317840499999985,70.54361499999999 L 6.189140499999986,72.343615" fill="none" instance-id="-1" semantic-id="1" stroke="rgb(0,178,178)" stroke-width="0.1"/>
  <path d="M 33.92034049999999,58.37061499999999 L 32.991940499999984,56.59961499999997" fill="none" instance-id="-1" semantic-id="1" stroke="rgb(0,178,178)" stroke-width="0.1"/>
  <path d="M 46.277940499999985,49.636615000000006 L 47.20634049999999,51.407614999999964" fill="none" instance-id="-1" semantic-id="1" stroke="rgb(0,178,178)" stroke-width="0.1"/>
  <path d="M 66.84654049999999,37.36161499999997 L 65.87044049999999,35.61661499999997" fill="none" instance-id="-1" semantic-id="1" stroke="rgb(0,178,178)" stroke-width="0.1"/>
  <path d="M 85.02574049999998,27.148615000000007 L 84.02444049999998,25.417615000000012" fill="none" instance-id="-1" semantic-id="1" stroke="rgb(0,178,178)" stroke-width="0.1"/>
  <path d="M 78.96284049999998,28.295614999999998 L 79.93894049999999,30.04161499999998" fill="none" instance-id="-1" semantic-id="1" stroke="rgb(0,178,178)" stroke-width="0.1"/>
  <path d="M 97.00904049999998,17.907614999999993 L 98.01004049999999,19.638614999999987" fill="none" instance-id="-1" semantic-id="1" stroke="rgb(0,178,178)" stroke-width="0.1"/>
  <path d="M 27.660440499999986,59.344614999999976 A 1437.0,1437.0 0.0 0,0 30.14104049999999,58.070614999999975" fill="none" instance-id="-1" semantic-id="1" stroke="rgb(0,178,178)" stroke-width="0.1"/>
  <path d="M 28.562940499999982,61.12861499999997 A 1439.0,1439.0 0.0 0,0 31.056240499999987,59.848614999999995" fill="none" instance-id="-1" semantic-id="1" stroke="rgb(0,178,178)" stroke-width="0.1"/>
  <path d="M 6.189140499999986,72.343615 A 1439.0,1439.0 0.0 0,0 15.176640499999987,67.89761499999997" fill="none" instance-id="-1" semantic-id="1" stroke="rgb(0,178,178)" stroke-width="0.1"/>
  <path d="M 5.317840499999985,70.54361499999999 A 1437.0,1437.0 0.0 0,0 14.274140499999987,66.112615" fill="none" instance-id="-1" semantic-id="1" stroke="rgb(0,178,178)" stroke-width="0.1"/>
  <path d="M 31.056240499999987,59.848614999999995 A 1439.0,1439.0 0.0 0,0 33.92034049999999,58.37061499999999" fill="none" instance-id="-1" semantic-id="1" stroke="rgb(0,178,178)" stroke-width="0.1"/>
  <path d="M 30.14104049999999,58.070614999999975 A 1437.0,1437.0 0.0 0,0 32.991940499999984,56.59961499999997" fill="none" instance-id="-1" semantic-id="1" stroke="rgb(0,178,178)" stroke-width="0.1"/>
  <path d="M 46.277940499999985,49.636615000000006 A 1437.0,1437.0 0.0 0,0 55.545040499999985,44.67461499999996" fill="none" instance-id="-1" semantic-id="1" stroke="rgb(0,178,178)" stroke-width="0.1"/>
  <path d="M 47.20634049999999,51.407614999999964 A 1439.0,1439.0 0.0 0,0 58.25454049999999,45.48261500000001" fill="none" instance-id="-1" semantic-id="1" stroke="rgb(0,178,178)" stroke-width="0.1"/>
  <path d="M 56.828840499999984,42.84261499999997 A 1436.0,1436.0 0.0 0,0 66.84654049999999,37.36161499999997" fill="none" instance-id="-1" semantic-id="1" stroke="rgb(0,178,178)" stroke-width="0.1"/>
  <path d="M 54.11924049999999,42.034614999999974 A 1434.0,1434.0 0.0 0,0 65.87044049999999,35.61661499999997" fill="none" instance-id="-1" semantic-id="1" stroke="rgb(0,178,178)" stroke-width="0.1"/>
  <path d="M 79.93894049999999,30.04161499999998 A 1436.0,1436.0 0.0 0,0 85.02574049999998,27.148615000000007" fill="none" instance-id="-1" semantic-id="1" stroke="rgb(0,178,178)" stroke-width="0.1"/>
  <path d="M 78.96284049999998,28.295614999999998 A 1434.0,1434.0 0.0 0,0 84.02444049999998,25.417615000000012" fill="none" instance-id="-1" semantic-id="1" stroke="rgb(0,178,178)" stroke-width="0.1"/>
  <path d="M 98.01004049999999,19.638614999999987 L 98.45176988503135,19.379958852814866" fill="none" instance-id="-1" semantic-id="1" stroke="rgb(0,178,178)" stroke-width="0.1"/>
  <path d="M 98.45176988503135,19.379958852814866 L 98.89340703962694,19.12114526013272" fill="none" instance-id="-1" semantic-id="1" stroke="rgb(0,178,178)" stroke-width="0.1"/>
  <path d="M 98.89340703962694,19.12114526013272 L 99.33495190766916,18.862174254840625" fill="none" instance-id="-1" semantic-id="1" stroke="rgb(0,178,178)" stroke-width="0.1"/>
  <path d="M 99.33495190766916,18.862174254840625 L 99.7764044330512,18.60304586984546" fill="none" instance-id="-1" semantic-id="1" stroke="rgb(0,178,178)" stroke-width="0.1"/>
  <path d="M 97.00904049999998,17.907614999999993 L 97.44921499574718,17.64985045532933" fill="none" instance-id="-1" semantic-id="1" stroke="rgb(0,178,178)" stroke-width="0.1"/>
  <path d="M 97.44921499574718,17.64985045532933 L 97.88929777312194,17.391929350622718" fill="none" instance-id="-1" semantic-id="1" stroke="rgb(0,178,178)" stroke-width="0.1"/>
  <path d="M 97.88929777312194,17.391929350622718 L 98.32928877644088,17.13385171851553" fill="none" instance-id="-1" semantic-id="1" stroke="rgb(0,178,178)" stroke-width="0.1"/>
  <path d="M 98.32928877644088,17.13385171851553 L 98.76918795002939,16.875617591662717" fill="none" instance-id="-1" semantic-id="1" stroke="rgb(0,178,178)" stroke-width="0.1"/>
  <path d="M 98.76918795002939,16.875617591662717 L 99.20899523822652,16.617227002739924" fill="none" instance-id="-1" semantic-id="1" stroke="rgb(0,178,178)" stroke-width="0.1"/>
  <path d="M 99.20899523822652,16.617227002739924 L 99.64871058538256,16.35867998444121" fill="none" instance-id="-1" semantic-id="1" stroke="rgb(0,178,178)" stroke-width="0.1"/>
 </g>
 <g id="layerA-WIN" inkscape:groupmode="layer" inkscape:label="A-WIN">
  <path d="M 79.45094049999999,29.16861499999999 L 75.88224049999998,22.786614999999983" fill="none" instance-id="3" semantic-id="4" stroke="rgb(255,133,12)" stroke-width="0.1"/>
  <path d="M 79.12364049999998,29.35161499999998 L 75.55494049999999,22.969614999999976" fill="none" instance-id="3" semantic-id="4" stroke="rgb(255,133,12)" stroke-width="0.1"/>
  <path d="M 79.45094049999999,29.16861499999999 L 79.12364049999998,29.35161499999998" fill="none" instance-id="3" semantic-id="4" stroke="rgb(255,133,12)" stroke-width="0.1"/>
  <path d="M 75.55494049999999,22.969614999999976 L 75.88224049999998,22.786614999999983" fill="none" instance-id="3" semantic-id="4" stroke="rgb(255,133,12)" stroke-width="0.1"/>
  <path d="M 66.68584049999998,36.306614999999965 L 63.11714049999999,29.923614999999984" fill="none" instance-id="3" semantic-id="4" stroke="rgb(255,133,12)" stroke-width="0.1"/>
  <path d="M 66.35844049999999,36.489615000000015 L 62.78974049999998,30.106614999999977" fill="none" instance-id="3" semantic-id="4" stroke="rgb(255,133,12)" stroke-width="0.1"/>
  <path d="M 63.11714049999999,29.923614999999984 L 62.78974049999998,30.106614999999977" fill="none" instance-id="3" semantic-id="4" stroke="rgb(255,133,12)" stroke-width="0.1"/>
  <path d="M 66.35844049999999,36.489615000000015 L 66.68584049999998,36.306614999999965" fill="none" instance-id="3" semantic-id="4" stroke="rgb(255,133,12)" stroke-width="0.1"/>
  <path d="M 46.277940499999985,49.636615000000006 L 32.991940499999984,56.59961499999997" fill="none" instance-id="2" semantic-id="9" stroke="rgb(255,133,12)" stroke-width="0.1"/>
  <path d="M 47.20634049999999,51.407614999999964 L 33.92034049999999,58.37061499999999" fill="none" instance-id="2" semantic-id="9" stroke="rgb(255,133,12)" stroke-width="0.1"/>
  <path d="M 33.61084049999999,57.78061500000001 L 46.89684049999999,50.81761499999999" fill="none" instance-id="2" semantic-id="9" stroke="rgb(255,133,12)" stroke-width="0.1"/>
  <path d="M 33.301440499999984,57.189615 L 46.58734049999998,50.22661499999998" fill="none" instance-id="2" semantic-id="9" stroke="rgb(255,133,12)" stroke-width="0.1"/>
  <path d="M 46.277940499999985,49.636615000000006 L 47.20634049999999,51.407614999999964" fill="none" instance-id="2" semantic-id="9" stroke="rgb(255,133,12)" stroke-width="0.1"/>
  <path d="M 32.991940499999984,56.59961499999997 L 33.92034049999999,58.37061499999999" fill="none" instance-id="2" semantic-id="9" stroke="rgb(255,133,12)" stroke-width="0.1"/>
  <path d="M 28.111640499999986,60.23661499999997 L 24.812240499999987,53.71061499999996" fill="none" instance-id="5" semantic-id="4" stroke="rgb(255,133,12)" stroke-width="0.1"/>
  <path d="M 27.777040499999984,60.40561500000001 L 24.477540499999982,53.879615" fill="none" instance-id="5" semantic-id="4" stroke="rgb(255,133,12)" stroke-width="0.1"/>
  <path d="M 28.111640499999986,60.23661499999997 L 27.777040499999984,60.40561500000001" fill="none" instance-id="5" semantic-id="4" stroke="rgb(255,133,12)" stroke-width="0.1"/>
  <path d="M 24.477540499999982,53.879615 L 24.812240499999987,53.71061499999996" fill="none" instance-id="5" semantic-id="4" stroke="rgb(255,133,12)" stroke-width="0.1"/>
  <path d="M 15.060040499999985,66.83561499999996 L 11.760640499999987,60.30961500000001" fill="none" instance-id="5" semantic-id="4" stroke="rgb(255,133,12)" stroke-width="0.1"/>
  <path d="M 14.725340499999987,67.004615 L 11.425940499999985,60.47861499999999" fill="none" instance-id="5" semantic-id="4" stroke="rgb(255,133,12)" stroke-width="0.1"/>
  <path d="M 11.760640499999987,60.30961500000001 L 11.425940499999985,60.47861499999999" fill="none" instance-id="5" semantic-id="4" stroke="rgb(255,133,12)" stroke-width="0.1"/>
  <path d="M 14.725340499999987,67.004615 L 15.060040499999985,66.83561499999996" fill="none" instance-id="5" semantic-id="4" stroke="rgb(255,133,12)" stroke-width="0.1"/>
  <path d="M 5.753440499999986,71.44361499999997 L 2.568040499999986,64.860615" fill="none" stroke="rgb(255,133,12)" stroke-width="0.1"/>
  <path d="M 5.415940499999987,71.60661499999998 L 2.230440499999986,65.02461499999998" fill="none" stroke="rgb(255,133,12)" stroke-width="0.1"/>
  <path d="M 5.753440499999986,71.44361499999997 L 5.415940499999987,71.60661499999998" fill="none" stroke="rgb(255,133,12)" stroke-width="0.1"/>
  <path d="M 2.230440499999986,65.02461499999998 L 2.568040499999986,64.860615" fill="none" stroke="rgb(255,133,12)" stroke-width="0.1"/>
  <path d="M 97.51004049999999,18.773614999999978 L 93.84904049999999,12.443614999999994" fill="none" instance-id="6" semantic-id="4" stroke="rgb(255,133,12)" stroke-width="0.1"/>
  <path d="M 97.18504049999999,18.96061499999999 L 93.52404049999998,12.630614999999977" fill="none" instance-id="6" semantic-id="4" stroke="rgb(255,133,12)" stroke-width="0.1"/>
  <path d="M 97.51004049999999,18.773614999999978 L 97.18504049999999,18.96061499999999" fill="none" instance-id="6" semantic-id="4" stroke="rgb(255,133,12)" stroke-width="0.1"/>
  <path d="M 93.52404049999998,12.630614999999977 L 93.84904049999999,12.443614999999994" fill="none" instance-id="6" semantic-id="4" stroke="rgb(255,133,12)" stroke-width="0.1"/>
  <path d="M 84.84964049999999,26.09561500000001 L 81.18864049999999,19.765614999999997" fill="none" instance-id="6" semantic-id="4" stroke="rgb(255,133,12)" stroke-width="0.1"/>
  <path d="M 84.52504049999999,26.282614999999964 L 80.86404049999999,19.95261499999998" fill="none" instance-id="6" semantic-id="4" stroke="rgb(255,133,12)" stroke-width="0.1"/>
  <path d="M 81.18864049999999,19.765614999999997 L 80.86404049999999,19.95261499999998" fill="none" instance-id="6" semantic-id="4" stroke="rgb(255,133,12)" stroke-width="0.1"/>
  <path d="M 84.52504049999999,26.282614999999964 L 84.84964049999999,26.09561500000001" fill="none" instance-id="6" semantic-id="4" stroke="rgb(255,133,12)" stroke-width="0.1"/>
  <path d="M 65.87044049999999,35.61661499999997 A 1434.0,1434.0 0.0 0,0 78.96284049999998,28.295614999999998" fill="none" instance-id="3" semantic-id="4" stroke="rgb(255,133,12)" stroke-width="0.1"/>
  <path d="M 14.274140499999987,66.112615 A 1437.0,1437.0 0.0 0,0 27.660440499999986,59.344614999999976" fill="none" instance-id="5" semantic-id="4" stroke="rgb(255,133,12)" stroke-width="0.1"/>
  <path d="M 0.20443561110221253,73.0386163536806 L 0.669698359038307,72.81263487861918" fill="none" stroke="rgb(255,133,12)" stroke-width="0.1"/>
  <path d="M 0.669698359038307,72.81263487861918 L 1.1348797361114293,72.58648594956401" fill="none" stroke="rgb(255,133,12)" stroke-width="0.1"/>
  <path d="M 1.1348797361114293,72.58648594956401 L 1.5999796820518668,72.36016959581514" fill="none" stroke="rgb(255,133,12)" stroke-width="0.1"/>
  <path d="M 1.5999796820518668,72.36016959581514 L 2.064998136602185,72.13368584669377" fill="none" stroke="rgb(255,133,12)" stroke-width="0.1"/>
  <path d="M 2.064998136602185,72.13368584669377 L 2.5299350395138163,71.90703473154338" fill="none" stroke="rgb(255,133,12)" stroke-width="0.1"/>
  <path d="M 2.5299350395138163,71.90703473154338 L 2.9947903305501313,71.68021627972882" fill="none" stroke="rgb(255,133,12)" stroke-width="0.1"/>
  <path d="M 2.9947903305501313,71.68021627972882 L 3.4595639494848456,71.45323052063634" fill="none" stroke="rgb(255,133,12)" stroke-width="0.1"/>
  <path d="M 3.4595639494848456,71.45323052063634 L 3.9242558361012243,71.22607748367443" fill="none" stroke="rgb(255,133,12)" stroke-width="0.1"/>
  <path d="M 3.9242558361012243,71.22607748367443 L 4.3888659301942425,70.99875719827321" fill="none" stroke="rgb(255,133,12)" stroke-width="0.1"/>
  <path d="M 4.3888659301942425,70.99875719827321 L 4.853394171568993,70.77126969388394" fill="none" stroke="rgb(255,133,12)" stroke-width="0.1"/>
  <path d="M 4.853394171568993,70.77126969388394 L 5.317840499999985,70.54361499999999" fill="none" stroke="rgb(255,133,12)" stroke-width="0.1"/>
  <path d="M 84.02444049999998,25.417615000000012 A 1434.0,1434.0 0.0 0,0 97.00904049999998,17.907614999999993" fill="none" instance-id="6" semantic-id="4" stroke="rgb(255,133,12)" stroke-width="0.1"/>
  <path d="M 75.55604049999998,22.971614999999986 A 7.3125,7.3125 0.0 0,0 72.90474049999999,32.82861500000001" fill="none" instance-id="3" semantic-id="4" stroke="rgb(255,133,12)" stroke-width="0.1"/>
  <path d="M 72.90474049999999,32.82861500000001 A 7.3125,7.3125 0.0 0,0 63.118240499999985,29.925614999999993" fill="none" instance-id="3" semantic-id="4" stroke="rgb(255,133,12)" stroke-width="0.1"/>
  <path d="M 24.478640499999983,53.88261499999999 A 7.3125,7.3125 0.0 0,0 21.418540499999985,63.62061499999999" fill="none" instance-id="5" semantic-id="4" stroke="rgb(255,133,12)" stroke-width="0.1"/>
  <path d="M 21.418540499999985,63.62061499999999 A 7.3125,7.3125 0.0 0,0 11.761640499999984,60.31161499999996" fill="none" instance-id="5" semantic-id="4" stroke="rgb(255,133,12)" stroke-width="0.1"/>
  <path d="M 2.2315404999999853,65.02661499999999 L 1.7837617342273546,65.27795016435101" fill="none" stroke="rgb(255,133,12)" stroke-width="0.1"/>
  <path d="M 1.7837617342273546,65.27795016435101 L 1.3547251689131201,65.56008987006362" fill="none" stroke="rgb(255,133,12)" stroke-width="0.1"/>
  <path d="M 1.3547251689131201,65.56008987006362 L 0.946546395556112,65.87164287822912" fill="none" stroke="rgb(255,133,12)" stroke-width="0.1"/>
  <path d="M 0.946546395556112,65.87164287822912 L 0.5612381552901358,66.21107291210848" fill="none" stroke="rgb(255,133,12)" stroke-width="0.1"/>
  <path d="M 0.5612381552901358,66.21107291210848 L 0.20070041400024152,66.57670623255643" fill="none" stroke="rgb(255,133,12)" stroke-width="0.1"/>
  <path d="M 93.52504049999999,12.632614999999987 A 7.3125,7.3125 0.0 0,0 91.01704049999998,22.528614999999974" fill="none" instance-id="6" semantic-id="4" stroke="rgb(255,133,12)" stroke-width="0.1"/>
  <path d="M 91.01704049999998,22.528614999999974 A 7.3125,7.3125 0.0 0,0 81.18984049999999,19.767614999999978" fill="none" instance-id="6" semantic-id="4" stroke="rgb(255,133,12)" stroke-width="0.1"/>
 </g>
 <g id="layerA-WIN-TEXT" inkscape:groupmode="layer" inkscape:label="A-WIN-TEXT">
  <text fill="rgb(0,0,0)" font-family="Noto Sans CJK SC" font-size="2" transform="rotate(-209.211,80.48584049999998,32.74061499999999)" x="80.48584049999998" y="32.74061499999999">
   LM1540
  </text>
  <text fill="rgb(0,0,0)" font-family="Noto Sans CJK SC" font-size="2" transform="rotate(-207.658,41.39494049999998,42.516615)" x="41.39494049999998" y="42.516615">
   LC1540
  </text>
  <text fill="rgb(0,0,0)" font-family="Noto Sans CJK SC" font-size="2" transform="rotate(-206.821,28.996740499999987,63.848614999999995)" x="28.996740499999987" y="63.848614999999995">
   LM1540
  </text>
  <text fill="rgb(0,0,0)" font-family="Noto Sans CJK SC" font-size="2" transform="rotate(-205.825,6.575540499999985,75.07061499999998)" x="6.575540499999985" y="75.07061499999998">
   LM1540
  </text>
  <text fill="rgb(0,0,0)" font-family="Noto Sans CJK SC" font-size="2" transform="rotate(-210.043,98.59604049999999,22.32961499999999)" x="98.59604049999999" y="22.32961499999999">
   LM1540
  </text>
 </g>
 <g id="layerA-" inkscape:groupmode="layer" inkscape:label="A-">
  <path d="M 77.69308737268649,0.0 L 88.46954049999998,22.866614999999967" fill="none" stroke="rgb(255,73,12)" stroke-width="0.1"/>
 </g>
</svg>