<?xml version="1.0" encoding="utf-8"?>
<svg style="background-color: #000;" version="1.1" viewBox="0 0 100.0 100.0" xmlns="http://www.w3.org/2000/svg" xmlns:inkscape="http://www.inkscape.org/namespaces/inkscape">
 <g id="layerA-DOTE" inkscape:groupmode="layer" inkscape:label="A-DOTE">
  <path d="M 29.5990405,100.0 L 29.5990405,0.0" fill="none" stroke="rgb(107,53,53)" stroke-width="0.1"/>
  <path d="M 59.5990405,100.0 L 59.5990405,0.0" fill="none" stroke="rgb(107,53,53)" stroke-width="0.1"/>
  <path d="M 74.5990405,100.0 L 74.5990405,0.0" fill="none" stroke="rgb(107,53,53)" stroke-width="0.1"/>
  <path d="M 0.0,86.336615 L 100.0,86.336615" fill="none" stroke="rgb(107,53,53)" stroke-width="0.1"/>
  <path d="M 99.97351566802342,33.26715049383165 L 99.50295417884206,33.097938169229906" fill="none" stroke="rgb(107,53,53)" stroke-width="0.1"/>
  <path d="M 99.50295417884206,33.097938169229906 L 99.03228246833157,32.92903267250733" fill="none" stroke="rgb(107,53,53)" stroke-width="0.1"/>
  <path d="M 99.03228246833157,32.92903267250733 L 98.56150073655851,32.76043407546001" fill="none" stroke="rgb(107,53,53)" stroke-width="0.1"/>
  <path d="M 98.56150073655851,32.76043407546001 L 98.0906091836348,32.59214244975283" fill="none" stroke="rgb(107,53,53)" stroke-width="0.1"/>
  <path d="M 98.0906091836348,32.59214244975283 L 97.61960800972065,32.42415786692118" fill="none" stroke="rgb(107,53,53)" stroke-width="0.1"/>
  <path d="M 97.61960800972065,32.42415786692118 L 97.14849741502132,32.25648039836881" fill="none" stroke="rgb(107,53,53)" stroke-width="0.1"/>
  <path d="M 97.14849741502132,32.25648039836881 L 96.67727759979005,32.08911011537009" fill="none" stroke="rgb(107,53,53)" stroke-width="0.1"/>
  <path d="M 96.67727759979005,32.08911011537009 L 96.20594876432517,31.922047089067632" fill="none" stroke="rgb(107,53,53)" stroke-width="0.1"/>
  <path d="M 96.20594876432517,31.922047089067632 L 95.73451110897258,31.755291390474554" fill="none" stroke="rgb(107,53,53)" stroke-width="0.1"/>
  <path d="M 95.73451110897258,31.755291390474554 L 95.26296483412307,31.588843090472437" fill="none" stroke="rgb(107,53,53)" stroke-width="0.1"/>
  <path d="M 95.26296483412307,31.588843090472437 L 94.79131014021516,31.42270225981281" fill="none" stroke="rgb(107,53,53)" stroke-width="0.1"/>
  <path d="M 94.79131014021516,31.42270225981281 L 94.31954722773196,31.25686896911634" fill="none" stroke="rgb(107,53,53)" stroke-width="0.1"/>
  <path d="M 94.31954722773196,31.25686896911634 L 93.84767629720363,31.091343288872736" fill="none" stroke="rgb(107,53,53)" stroke-width="0.1"/>
  <path d="M 93.84767629720363,31.091343288872736 L 93.37569754920582,30.926125289441302" fill="none" stroke="rgb(107,53,53)" stroke-width="0.1"/>
  <path d="M 93.37569754920582,30.926125289441302 L 92.90361118435976,30.761215041050036" fill="none" stroke="rgb(107,53,53)" stroke-width="0.1"/>
  <path d="M 92.90361118435976,30.761215041050036 L 92.43141740333328,30.596612613796992" fill="none" stroke="rgb(107,53,53)" stroke-width="0.1"/>
  <path d="M 92.43141740333328,30.596612613796992 L 91.9591164068388,30.43231807764846" fill="none" stroke="rgb(107,53,53)" stroke-width="0.1"/>
  <path d="M 91.9591164068388,30.43231807764846 L 91.48670839563533,30.26833150244056" fill="none" stroke="rgb(107,53,53)" stroke-width="0.1"/>
  <path d="M 91.48670839563533,30.26833150244056 L 91.01419357052623,30.104652957877875" fill="none" stroke="rgb(107,53,53)" stroke-width="0.1"/>
  <path d="M 91.01419357052623,30.104652957877875 L 90.5415721323617,29.941282513534702" fill="none" stroke="rgb(107,53,53)" stroke-width="0.1"/>
  <path d="M 90.5415721323617,29.941282513534702 L 90.06884428203557,29.778220238853805" fill="none" stroke="rgb(107,53,53)" stroke-width="0.1"/>
  <path d="M 90.06884428203557,29.778220238853805 L 89.59601022048867,29.615466203147434" fill="none" stroke="rgb(107,53,53)" stroke-width="0.1"/>
  <path d="M 89.59601022048867,29.615466203147434 L 89.12307014870555,29.453020475596418" fill="none" stroke="rgb(107,53,53)" stroke-width="0.1"/>
  <path d="M 89.12307014870555,29.453020475596418 L 88.6500242677165,29.290883125250843" fill="none" stroke="rgb(107,53,53)" stroke-width="0.1"/>
  <path d="M 88.6500242677165,29.290883125250843 L 88.17687277859659,29.129054221029378" fill="none" stroke="rgb(107,53,53)" stroke-width="0.1"/>
  <path d="M 88.17687277859659,29.129054221029378 L 87.7036158824659,28.96753383172006" fill="none" stroke="rgb(107,53,53)" stroke-width="0.1"/>
  <path d="M 87.7036158824659,28.96753383172006 L 87.23025378048953,28.806322025979398" fill="none" stroke="rgb(107,53,53)" stroke-width="0.1"/>
  <path d="M 87.23025378048953,28.806322025979398 L 86.75678667387649,28.64541887233281" fill="none" stroke="rgb(107,53,53)" stroke-width="0.1"/>
  <path d="M 86.75678667387649,28.64541887233281 L 86.28321476388157,28.484824439174645" fill="none" stroke="rgb(107,53,53)" stroke-width="0.1"/>
  <path d="M 86.28321476388157,28.484824439174645 L 85.80953825180279,28.324538794767705" fill="none" stroke="rgb(107,53,53)" stroke-width="0.1"/>
  <path d="M 85.80953825180279,28.324538794767705 L 85.33575733898408,28.16456200724417" fill="none" stroke="rgb(107,53,53)" stroke-width="0.1"/>
  <path d="M 85.33575733898408,28.16456200724417 L 84.86187222681247,28.00489414460401" fill="none" stroke="rgb(107,53,53)" stroke-width="0.1"/>
  <path d="M 84.86187222681247,28.00489414460401 L 84.38788311672022,27.845535274717008" fill="none" stroke="rgb(107,53,53)" stroke-width="0.1"/>
  <path d="M 84.38788311672022,27.845535274717008 L 83.91379021018315,27.68648546532063" fill="none" stroke="rgb(107,53,53)" stroke-width="0.1"/>
  <path d="M 83.91379021018315,27.68648546532063 L 83.43959370872142,27.527744784021365" fill="none" stroke="rgb(107,53,53)" stroke-width="0.1"/>
  <path d="M 83.43959370872142,27.527744784021365 L 82.9652938138994,27.3693132982944" fill="none" stroke="rgb(107,53,53)" stroke-width="0.1"/>
  <path d="M 82.9652938138994,27.3693132982944 L 82.49089072732522,27.211191075483157" fill="none" stroke="rgb(107,53,53)" stroke-width="0.1"/>
  <path d="M 82.49089072732522,27.211191075483157 L 82.01638465065105,27.053378182800202" fill="none" stroke="rgb(107,53,53)" stroke-width="0.1"/>
  <path d="M 82.01638465065105,27.053378182800202 L 81.54177578557233,26.895874687325886" fill="none" stroke="rgb(107,53,53)" stroke-width="0.1"/>
  <path d="M 81.54177578557233,26.895874687325886 L 81.06706433382908,26.738680656009592" fill="none" stroke="rgb(107,53,53)" stroke-width="0.1"/>
  <path d="M 81.06706433382908,26.738680656009592 L 80.59225049720374,26.58179615566894" fill="none" stroke="rgb(107,53,53)" stroke-width="0.1"/>
  <path d="M 80.59225049720374,26.58179615566894 L 80.11733447752374,26.425221252989786" fill="none" stroke="rgb(107,53,53)" stroke-width="0.1"/>
  <path d="M 80.11733447752374,26.425221252989786 L 79.64231647665838,26.268956014526907" fill="none" stroke="rgb(107,53,53)" stroke-width="0.1"/>
  <path d="M 79.64231647665838,26.268956014526907 L 79.16719669652173,26.113000506702974" fill="none" stroke="rgb(107,53,53)" stroke-width="0.1"/>
  <path d="M 79.16719669652173,26.113000506702974 L 78.69197533907015,25.957354795809238" fill="none" stroke="rgb(107,53,53)" stroke-width="0.1"/>
  <path d="M 78.69197533907015,25.957354795809238 L 78.21665260630334,25.802018948005298" fill="none" stroke="rgb(107,53,53)" stroke-width="0.1"/>
  <path d="M 78.21665260630334,25.802018948005298 L 77.7412287002644,25.64699302931865" fill="none" stroke="rgb(107,53,53)" stroke-width="0.1"/>
  <path d="M 77.7412287002644,25.64699302931865 L 77.26570382303953,25.492277105645712" fill="none" stroke="rgb(107,53,53)" stroke-width="0.1"/>
  <path d="M 77.26570382303953,25.492277105645712 L 76.79007817675722,25.337871242750566" fill="none" stroke="rgb(107,53,53)" stroke-width="0.1"/>
  <path d="M 76.79007817675722,25.337871242750566 L 76.31435196358939,25.18377550626576" fill="none" stroke="rgb(107,53,53)" stroke-width="0.1"/>
  <path d="M 76.31435196358939,25.18377550626576 L 75.83852538575036,25.029989961691854" fill="none" stroke="rgb(107,53,53)" stroke-width="0.1"/>
  <path d="M 75.83852538575036,25.029989961691854 L 75.36259864549743,24.876514674397868" fill="none" stroke="rgb(107,53,53)" stroke-width="0.1"/>
  <path d="M 75.36259864549743,24.876514674397868 L 74.88657194513019,24.723349709620493" fill="none" stroke="rgb(107,53,53)" stroke-width="0.1"/>
  <path d="M 74.88657194513019,24.723349709620493 L 74.41044548699062,24.570495132465" fill="none" stroke="rgb(107,53,53)" stroke-width="0.1"/>
  <path d="M 74.41044548699062,24.570495132465 L 73.93421947346371,24.417951007904435" fill="none" stroke="rgb(107,53,53)" stroke-width="0.1"/>
  <path d="M 73.93421947346371,24.417951007904435 L 73.45789410697591,24.26571740077975" fill="none" stroke="rgb(107,53,53)" stroke-width="0.1"/>
  <path d="M 73.45789410697591,24.26571740077975 L 72.98146958999678,24.11379437580024" fill="none" stroke="rgb(107,53,53)" stroke-width="0.1"/>
  <path d="M 72.98146958999678,24.11379437580024 L 72.50494612503724,23.962181997542984" fill="none" stroke="rgb(107,53,53)" stroke-width="0.1"/>
  <path d="M 72.50494612503724,23.962181997542984 L 72.02832391465074,23.810880330453188" fill="none" stroke="rgb(107,53,53)" stroke-width="0.1"/>
  <path d="M 72.02832391465074,23.810880330453188 L 71.5516031614327,23.659889438843607" fill="none" stroke="rgb(107,53,53)" stroke-width="0.1"/>
  <path d="M 71.5516031614327,23.659889438843607 L 71.07478406802022,23.50920938689535" fill="none" stroke="rgb(107,53,53)" stroke-width="0.1"/>
  <path d="M 71.07478406802022,23.50920938689535 L 70.59786683709228,23.35884023865708" fill="none" stroke="rgb(107,53,53)" stroke-width="0.1"/>
  <path d="M 70.59786683709228,23.35884023865708 L 70.12085167136968,23.208782058045585" fill="none" stroke="rgb(107,53,53)" stroke-width="0.1"/>
  <path d="M 70.12085167136968,23.208782058045585 L 69.6437387736147,23.059034908845206" fill="none" stroke="rgb(107,53,53)" stroke-width="0.1"/>
  <path d="M 69.6437387736147,23.059034908845206 L 69.16652834663125,22.90959885470818" fill="none" stroke="rgb(107,53,53)" stroke-width="0.1"/>
  <path d="M 69.16652834663125,22.90959885470818 L 68.68922059326462,22.760473959154524" fill="none" stroke="rgb(107,53,53)" stroke-width="0.1"/>
  <path d="M 68.68922059326462,22.760473959154524 L 68.21181571640147,22.611660285571816" fill="none" stroke="rgb(107,53,53)" stroke-width="0.1"/>
  <path d="M 68.21181571640147,22.611660285571816 L 67.73431391896997,22.463157897215865" fill="none" stroke="rgb(107,53,53)" stroke-width="0.1"/>
  <path d="M 67.73431391896997,22.463157897215865 L 67.25671540393898,22.31496685720947" fill="none" stroke="rgb(107,53,53)" stroke-width="0.1"/>
  <path d="M 67.25671540393898,22.31496685720947 L 66.77902037431943,22.16708722854355" fill="none" stroke="rgb(107,53,53)" stroke-width="0.1"/>
  <path d="M 66.77902037431943,22.16708722854355 L 66.30122903316192,22.01951907407647" fill="none" stroke="rgb(107,53,53)" stroke-width="0.1"/>
  <path d="M 66.30122903316192,22.01951907407647 L 65.823341583559,21.872262456534372" fill="none" stroke="rgb(107,53,53)" stroke-width="0.1"/>
  <path d="M 65.823341583559,21.872262456534372 L 65.34535822864405,21.725317438510842" fill="none" stroke="rgb(107,53,53)" stroke-width="0.1"/>
  <path d="M 65.34535822864405,21.725317438510842 L 64.86727917159055,21.578684082466907" fill="none" stroke="rgb(107,53,53)" stroke-width="0.1"/>
  <path d="M 64.86727917159055,21.578684082466907 L 64.38910461561329,21.43236245073126" fill="none" stroke="rgb(107,53,53)" stroke-width="0.1"/>
  <path d="M 64.38910461561329,21.43236245073126 L 63.91083476396727,21.286352605500156" fill="none" stroke="rgb(107,53,53)" stroke-width="0.1"/>
  <path d="M 63.91083476396727,21.286352605500156 L 63.432469819948324,21.140654608837167" fill="none" stroke="rgb(107,53,53)" stroke-width="0.1"/>
  <path d="M 63.432469819948324,21.140654608837167 L 62.954009986892515,20.995268522673427" fill="none" stroke="rgb(107,53,53)" stroke-width="0.1"/>
  <path d="M 62.954009986892515,20.995268522673427 L 62.47545546817639,20.850194408807624" fill="none" stroke="rgb(107,53,53)" stroke-width="0.1"/>
  <path d="M 62.47545546817639,20.850194408807624 L 61.99680646721606,20.70543232890509" fill="none" stroke="rgb(107,53,53)" stroke-width="0.1"/>
  <path d="M 61.99680646721606,20.70543232890509 L 61.51806318746901,20.560982344499735" fill="none" stroke="rgb(107,53,53)" stroke-width="0.1"/>
  <path d="M 61.51806318746901,20.560982344499735 L 61.039225832431725,20.41684451699166" fill="none" stroke="rgb(107,53,53)" stroke-width="0.1"/>
  <path d="M 61.039225832431725,20.41684451699166 L 60.56029460564116,20.27301890764909" fill="none" stroke="rgb(107,53,53)" stroke-width="0.1"/>
  <path d="M 60.56029460564116,20.27301890764909 L 60.08126971067429,20.12950557760712" fill="none" stroke="rgb(107,53,53)" stroke-width="0.1"/>
  <path d="M 60.08126971067429,20.12950557760712 L 59.60215135114754,19.986304587868176" fill="none" stroke="rgb(107,53,53)" stroke-width="0.1"/>
  <path d="M 59.60215135114754,19.986304587868176 L 59.122939730717235,19.843415999301897" fill="none" stroke="rgb(107,53,53)" stroke-width="0.1"/>
  <path d="M 59.122939730717235,19.843415999301897 L 58.64363505307949,19.70083987264536" fill="none" stroke="rgb(107,53,53)" stroke-width="0.1"/>
  <path d="M 58.64363505307949,19.70083987264536 L 58.16423752196977,19.55857626850252" fill="none" stroke="rgb(107,53,53)" stroke-width="0.1"/>
  <path d="M 58.16423752196977,19.55857626850252 L 57.68474734116296,19.41662524734477" fill="none" stroke="rgb(107,53,53)" stroke-width="0.1"/>
  <path d="M 57.68474734116296,19.41662524734477 L 57.20516471447377,19.27498686951037" fill="none" stroke="rgb(107,53,53)" stroke-width="0.1"/>
  <path d="M 57.20516471447377,19.27498686951037 L 56.725489845755305,19.133661195204695" fill="none" stroke="rgb(107,53,53)" stroke-width="0.1"/>
  <path d="M 56.725489845755305,19.133661195204695 L 56.24572293890117,18.992648284500547" fill="none" stroke="rgb(107,53,53)" stroke-width="0.1"/>
  <path d="M 56.24572293890117,18.992648284500547 L 55.7658641978428,18.85194819733738" fill="none" stroke="rgb(107,53,53)" stroke-width="0.1"/>
  <path d="M 55.7658641978428,18.85194819733738 L 55.28591382655145,18.71156099352197" fill="none" stroke="rgb(107,53,53)" stroke-width="0.1"/>
  <path d="M 55.28591382655145,18.71156099352197 L 54.805872029037005,18.57148673272775" fill="none" stroke="rgb(107,53,53)" stroke-width="0.1"/>
  <path d="M 54.805872029037005,18.57148673272775 L 54.32573900934858,18.43172547449558" fill="none" stroke="rgb(107,53,53)" stroke-width="0.1"/>
  <path d="M 54.32573900934858,18.43172547449558 L 53.84551497157361,18.292277278232973" fill="none" stroke="rgb(107,53,53)" stroke-width="0.1"/>
  <path d="M 53.84551497157361,18.292277278232973 L 53.36520011983839,18.153142203214543" fill="none" stroke="rgb(107,53,53)" stroke-width="0.1"/>
  <path d="M 53.36520011983839,18.153142203214543 L 52.8847946583079,18.014320308581432" fill="none" stroke="rgb(107,53,53)" stroke-width="0.1"/>
  <path d="M 52.8847946583079,18.014320308581432 L 52.40429879118551,17.87581165334211" fill="none" stroke="rgb(107,53,53)" stroke-width="0.1"/>
  <path d="M 52.40429879118551,17.87581165334211 L 51.923712722713276,17.73761629637181" fill="none" stroke="rgb(107,53,53)" stroke-width="0.1"/>
  <path d="M 51.923712722713276,17.73761629637181 L 51.44303665717109,17.599734296412407" fill="none" stroke="rgb(107,53,53)" stroke-width="0.1"/>
  <path d="M 51.44303665717109,17.599734296412407 L 50.96227079887797,17.46216571207276" fill="none" stroke="rgb(107,53,53)" stroke-width="0.1"/>
  <path d="M 50.96227079887797,17.46216571207276 L 50.481415352189856,17.324910601828265" fill="none" stroke="rgb(107,53,53)" stroke-width="0.1"/>
  <path d="M 50.481415352189856,17.324910601828265 L 50.00047052150171,17.1879690240213" fill="none" stroke="rgb(107,53,53)" stroke-width="0.1"/>
  <path d="M 50.00047052150171,17.1879690240213 L 49.51943651124623,17.051341036861004" fill="none" stroke="rgb(107,53,53)" stroke-width="0.1"/>
  <path d="M 49.51943651124623,17.051341036861004 L 49.038313525894296,16.91502669842305" fill="none" stroke="rgb(107,53,53)" stroke-width="0.1"/>
  <path d="M 49.038313525894296,16.91502669842305 L 48.5571017699541,16.779026066649863" fill="none" stroke="rgb(107,53,53)" stroke-width="0.1"/>
  <path d="M 48.5571017699541,16.779026066649863 L 48.075801447971685,16.64333919935052" fill="none" stroke="rgb(107,53,53)" stroke-width="0.1"/>
  <path d="M 48.075801447971685,16.64333919935052 L 47.59441276453106,16.50796615420063" fill="none" stroke="rgb(107,53,53)" stroke-width="0.1"/>
  <path d="M 47.59441276453106,16.50796615420063 L 47.11293592425352,16.37290698874267" fill="none" stroke="rgb(107,53,53)" stroke-width="0.1"/>
  <path d="M 47.11293592425352,16.37290698874267 L 46.63137113179789,16.238161760385537" fill="none" stroke="rgb(107,53,53)" stroke-width="0.1"/>
  <path d="M 46.63137113179789,16.238161760385537 L 46.149718591860506,16.103730526404547" fill="none" stroke="rgb(107,53,53)" stroke-width="0.1"/>
  <path d="M 46.149718591860506,16.103730526404547 L 45.66797850917476,15.969613343941774" fill="none" stroke="rgb(107,53,53)" stroke-width="0.1"/>
  <path d="M 45.66797850917476,15.969613343941774 L 45.186151088511565,15.835810270005595" fill="none" stroke="rgb(107,53,53)" stroke-width="0.1"/>
  <path d="M 45.186151088511565,15.835810270005595 L 44.70423653467856,15.70232136147115" fill="none" stroke="rgb(107,53,53)" stroke-width="0.1"/>
  <path d="M 44.70423653467856,15.70232136147115 L 44.222235052520546,15.56914667507965" fill="none" stroke="rgb(107,53,53)" stroke-width="0.1"/>
  <path d="M 44.222235052520546,15.56914667507965 L 43.740146846919856,15.4362862674393" fill="none" stroke="rgb(107,53,53)" stroke-width="0.1"/>
  <path d="M 43.740146846919856,15.4362862674393 L 43.25797212279474,15.303740195024034" fill="none" stroke="rgb(107,53,53)" stroke-width="0.1"/>
  <path d="M 43.25797212279474,15.303740195024034 L 42.77571108510085,15.171508514174661" fill="none" stroke="rgb(107,53,53)" stroke-width="0.1"/>
  <path d="M 42.77571108510085,15.171508514174661 L 42.29336393883034,15.039591281098183" fill="none" stroke="rgb(107,53,53)" stroke-width="0.1"/>
  <path d="M 42.29336393883034,15.039591281098183 L 41.810930889011956,14.907988551868016" fill="none" stroke="rgb(107,53,53)" stroke-width="0.1"/>
  <path d="M 41.810930889011956,14.907988551868016 L 41.32841214071118,14.776700382423769" fill="none" stroke="rgb(107,53,53)" stroke-width="0.1"/>
  <path d="M 41.32841214071118,14.776700382423769 L 40.84580789902952,14.645726828571583" fill="none" stroke="rgb(107,53,53)" stroke-width="0.1"/>
  <path d="M 40.84580789902952,14.645726828571583 L 40.36311836910511,14.515067945983446" fill="none" stroke="rgb(107,53,53)" stroke-width="0.1"/>
  <path d="M 40.36311836910511,14.515067945983446 L 39.88034375611221,14.384723790198109" fill="none" stroke="rgb(107,53,53)" stroke-width="0.1"/>
  <path d="M 39.88034375611221,14.384723790198109 L 39.39748426526137,14.254694416620055" fill="none" stroke="rgb(107,53,53)" stroke-width="0.1"/>
  <path d="M 39.39748426526137,14.254694416620055 L 38.91454010179905,14.1249798805203" fill="none" stroke="rgb(107,53,53)" stroke-width="0.1"/>
  <path d="M 38.91454010179905,14.1249798805203 L 38.43151147100809,13.995580237035938" fill="none" stroke="rgb(107,53,53)" stroke-width="0.1"/>
  <path d="M 38.43151147100809,13.995580237035938 L 37.94839857820659,13.866495541170138" fill="none" stroke="rgb(107,53,53)" stroke-width="0.1"/>
  <path d="M 37.94839857820659,13.866495541170138 L 37.4652016287489,13.737725847792376" fill="none" stroke="rgb(107,53,53)" stroke-width="0.1"/>
  <path d="M 37.4652016287489,13.737725847792376 L 36.98192082802507,13.60927121163786" fill="none" stroke="rgb(107,53,53)" stroke-width="0.1"/>
  <path d="M 36.98192082802507,13.60927121163786 L 36.49855638146073,13.481131687308334" fill="none" stroke="rgb(107,53,53)" stroke-width="0.1"/>
  <path d="M 36.49855638146073,13.481131687308334 L 36.015108494516994,13.353307329271502" fill="none" stroke="rgb(107,53,53)" stroke-width="0.1"/>
  <path d="M 36.015108494516994,13.353307329271502 L 35.531577372690776,13.22579819186069" fill="none" stroke="rgb(107,53,53)" stroke-width="0.1"/>
  <path d="M 35.531577372690776,13.22579819186069 L 35.047963221513896,13.098604329275759" fill="none" stroke="rgb(107,53,53)" stroke-width="0.1"/>
  <path d="M 35.047963221513896,13.098604329275759 L 34.56426624655376,12.971725795582188" fill="none" stroke="rgb(107,53,53)" stroke-width="0.1"/>
  <path d="M 34.56426624655376,12.971725795582188 L 34.08048665341278,12.845162644711763" fill="none" stroke="rgb(107,53,53)" stroke-width="0.1"/>
  <path d="M 34.08048665341278,12.845162644711763 L 33.596624647728845,12.718914930461892" fill="none" stroke="rgb(107,53,53)" stroke-width="0.1"/>
  <path d="M 33.596624647728845,12.718914930461892 L 33.11268043517441,12.592982706496059" fill="none" stroke="rgb(107,53,53)" stroke-width="0.1"/>
  <path d="M 33.11268043517441,12.592982706496059 L 32.62865422145751,12.467366026343598" fill="none" stroke="rgb(107,53,53)" stroke-width="0.1"/>
  <path d="M 32.62865422145751,12.467366026343598 L 32.144546212320165,12.342064943399691" fill="none" stroke="rgb(107,53,53)" stroke-width="0.1"/>
  <path d="M 32.144546212320165,12.342064943399691 L 31.660356613539875,12.217079510925487" fill="none" stroke="rgb(107,53,53)" stroke-width="0.1"/>
  <path d="M 31.660356613539875,12.217079510925487 L 31.17608563092847,12.092409782047866" fill="none" stroke="rgb(107,53,53)" stroke-width="0.1"/>
  <path d="M 31.17608563092847,12.092409782047866 L 30.69173347033245,11.968055809759676" fill="none" stroke="rgb(107,53,53)" stroke-width="0.1"/>
  <path d="M 30.69173347033245,11.968055809759676 L 30.207300337633,11.844017646919156" fill="none" stroke="rgb(107,53,53)" stroke-width="0.1"/>
  <path d="M 30.207300337633,11.844017646919156 L 29.72278643874563,11.720295346250623" fill="none" stroke="rgb(107,53,53)" stroke-width="0.1"/>
  <path d="M 29.72278643874563,11.720295346250623 L 29.23819197961984,11.596888960344131" fill="none" stroke="rgb(107,53,53)" stroke-width="0.1"/>
  <path d="M 29.23819197961984,11.596888960344131 L 28.75351716623993,11.47379854165547" fill="none" stroke="rgb(107,53,53)" stroke-width="0.1"/>
  <path d="M 28.75351716623993,11.47379854165547 L 28.268762204623954,11.351024142505935" fill="none" stroke="rgb(107,53,53)" stroke-width="0.1"/>
  <path d="M 28.268762204623954,11.351024142505935 L 27.78392730082419,11.228565815082561" fill="none" stroke="rgb(107,53,53)" stroke-width="0.1"/>
  <path d="M 27.78392730082419,11.228565815082561 L 27.299012660927133,11.106423611438231" fill="none" stroke="rgb(107,53,53)" stroke-width="0.1"/>
  <path d="M 27.299012660927133,11.106423611438231 L 26.814018491052252,10.984597583490995" fill="none" stroke="rgb(107,53,53)" stroke-width="0.1"/>
  <path d="M 26.814018491052252,10.984597583490995 L 26.328944997354256,10.863087783025094" fill="none" stroke="rgb(107,53,53)" stroke-width="0.1"/>
  <path d="M 26.328944997354256,10.863087783025094 L 25.843792386020255,10.741894261689936" fill="none" stroke="rgb(107,53,53)" stroke-width="0.1"/>
  <path d="M 25.843792386020255,10.741894261689936 L 25.35856086327169,10.621017071000551" fill="none" stroke="rgb(107,53,53)" stroke-width="0.1"/>
  <path d="M 25.35856086327169,10.621017071000551 L 24.87325063536332,10.50045626233782" fill="none" stroke="rgb(107,53,53)" stroke-width="0.1"/>
  <path d="M 24.87325063536332,10.50045626233782 L 24.387861908583545,10.380211886947677" fill="none" stroke="rgb(107,53,53)" stroke-width="0.1"/>
  <path d="M 24.387861908583545,10.380211886947677 L 23.90239488925397,10.26028399594179" fill="none" stroke="rgb(107,53,53)" stroke-width="0.1"/>
  <path d="M 23.90239488925397,10.26028399594179 L 23.416849783729617,10.140672640297339" fill="none" stroke="rgb(107,53,53)" stroke-width="0.1"/>
  <path d="M 23.416849783729617,10.140672640297339 L 22.93122679839837,10.021377870856782" fill="none" stroke="rgb(107,53,53)" stroke-width="0.1"/>
  <path d="M 22.93122679839837,10.021377870856782 L 22.445526139681647,9.902399738328427" fill="none" stroke="rgb(107,53,53)" stroke-width="0.1"/>
  <path d="M 22.445526139681647,9.902399738328427 L 21.959748014033835,9.783738293285296" fill="none" stroke="rgb(107,53,53)" stroke-width="0.1"/>
  <path d="M 21.959748014033835,9.783738293285296 L 21.47389262794138,9.665393586166488" fill="none" stroke="rgb(107,53,53)" stroke-width="0.1"/>
  <path d="M 21.47389262794138,9.665393586166488 L 20.987960187925296,9.547365667275926" fill="none" stroke="rgb(107,53,53)" stroke-width="0.1"/>
  <path d="M 20.987960187925296,9.547365667275926 L 20.50195090053751,9.429654586783272" fill="none" stroke="rgb(107,53,53)" stroke-width="0.1"/>
  <path d="M 20.50195090053751,9.429654586783272 L 20.015864972363943,9.312260394723353" fill="none" stroke="rgb(107,53,53)" stroke-width="0.1"/>
  <path d="M 20.015864972363943,9.312260394723353 L 19.529702610022355,9.195183140996278" fill="none" stroke="rgb(107,53,53)" stroke-width="0.1"/>
  <path d="M 19.529702610022355,9.195183140996278 L 19.043464020163356,9.078422875367437" fill="none" stroke="rgb(107,53,53)" stroke-width="0.1"/>
  <path d="M 19.043464020163356,9.078422875367437 L 18.55714940946973,8.961979647467615" fill="none" stroke="rgb(107,53,53)" stroke-width="0.1"/>
  <path d="M 18.55714940946973,8.961979647467615 L 18.070758984656663,8.845853506792537" fill="none" stroke="rgb(107,53,53)" stroke-width="0.1"/>
  <path d="M 18.070758984656663,8.845853506792537 L 17.584292952471856,8.730044502703436" fill="none" stroke="rgb(107,53,53)" stroke-width="0.1"/>
  <path d="M 17.584292952471856,8.730044502703436 L 17.097751519694498,8.614552684426712" fill="none" stroke="rgb(107,53,53)" stroke-width="0.1"/>
  <path d="M 17.097751519694498,8.614552684426712 L 16.611134893136636,8.499378101053821" fill="none" stroke="rgb(107,53,53)" stroke-width="0.1"/>
  <path d="M 16.611134893136636,8.499378101053821 L 16.124443279641355,8.38452080154127" fill="none" stroke="rgb(107,53,53)" stroke-width="0.1"/>
  <path d="M 16.124443279641355,8.38452080154127 L 15.637676886084478,8.269980834710964" fill="none" stroke="rgb(107,53,53)" stroke-width="0.1"/>
  <path d="M 15.637676886084478,8.269980834710964 L 15.150835919373208,8.15575824924997" fill="none" stroke="rgb(107,53,53)" stroke-width="0.1"/>
  <path d="M 15.150835919373208,8.15575824924997 L 14.663920586446466,8.04185309370996" fill="none" stroke="rgb(107,53,53)" stroke-width="0.1"/>
  <path d="M 14.663920586446466,8.04185309370996 L 14.176931094274437,7.928265416508225" fill="none" stroke="rgb(107,53,53)" stroke-width="0.1"/>
  <path d="M 14.176931094274437,7.928265416508225 L 13.689867649859934,7.814995265926996" fill="none" stroke="rgb(107,53,53)" stroke-width="0.1"/>
  <path d="M 13.689867649859934,7.814995265926996 L 13.202730460235898,7.702042690113103" fill="none" stroke="rgb(107,53,53)" stroke-width="0.1"/>
  <path d="M 13.202730460235898,7.702042690113103 L 12.715519732467214,7.589407737079" fill="none" stroke="rgb(107,53,53)" stroke-width="0.1"/>
  <path d="M 12.715519732467214,7.589407737079 L 12.22823567365026,7.477090454701511" fill="none" stroke="rgb(107,53,53)" stroke-width="0.1"/>
  <path d="M 12.22823567365026,7.477090454701511 L 11.74087849091211,7.365090890723081" fill="none" stroke="rgb(107,53,53)" stroke-width="0.1"/>
  <path d="M 11.74087849091211,7.365090890723081 L 11.253448391411212,7.25340909275053" fill="none" stroke="rgb(107,53,53)" stroke-width="0.1"/>
  <path d="M 11.253448391411212,7.25340909275053 L 10.76594558233694,7.14204510825607" fill="none" stroke="rgb(107,53,53)" stroke-width="0.1"/>
  <path d="M 10.76594558233694,7.14204510825607 L 10.278370270909477,7.030998984576513" fill="none" stroke="rgb(107,53,53)" stroke-width="0.1"/>
  <path d="M 10.278370270909477,7.030998984576513 L 9.790722664379928,6.920270768913497" fill="none" stroke="rgb(107,53,53)" stroke-width="0.1"/>
  <path d="M 9.790722664379928,6.920270768913497 L 9.303002970030434,6.809860508334054" fill="none" stroke="rgb(107,53,53)" stroke-width="0.1"/>
  <path d="M 9.303002970030434,6.809860508334054 L 8.815211395172696,6.699768249769363" fill="none" stroke="rgb(107,53,53)" stroke-width="0.1"/>
  <path d="M 8.815211395172696,6.699768249769363 L 8.327348147150587,6.589994040015881" fill="none" stroke="rgb(107,53,53)" stroke-width="0.1"/>
  <path d="M 8.327348147150587,6.589994040015881 L 7.839413433336972,6.480537925734666" fill="none" stroke="rgb(107,53,53)" stroke-width="0.1"/>
  <path d="M 7.839413433336972,6.480537925734666 L 7.351407461136091,6.371399953451828" fill="none" stroke="rgb(107,53,53)" stroke-width="0.1"/>
  <path d="M 7.351407461136091,6.371399953451828 L 6.863330437981858,6.262580169558078" fill="none" stroke="rgb(107,53,53)" stroke-width="0.1"/>
  <path d="M 6.863330437981858,6.262580169558078 L 6.3751825713385415,6.15407862030861" fill="none" stroke="rgb(107,53,53)" stroke-width="0.1"/>
  <path d="M 6.3751825713385415,6.15407862030861 L 5.886964068700877,6.045895351823901" fill="none" stroke="rgb(107,53,53)" stroke-width="0.1"/>
  <path d="M 5.886964068700877,6.045895351823901 L 5.398675137593159,5.938030410088686" fill="none" stroke="rgb(107,53,53)" stroke-width="0.1"/>
  <path d="M 5.398675137593159,5.938030410088686 L 4.910315985569923,5.830483840952638" fill="none" stroke="rgb(107,53,53)" stroke-width="0.1"/>
  <path d="M 4.910315985569923,5.830483840952638 L 4.421886820215377,5.723255690129804" fill="none" stroke="rgb(107,53,53)" stroke-width="0.1"/>
  <path d="M 4.421886820215377,5.723255690129804 L 3.933387849143628,5.61634600319951" fill="none" stroke="rgb(107,53,53)" stroke-width="0.1"/>
  <path d="M 3.933387849143628,5.61634600319951 L 3.4448192799981143,5.509754825604887" fill="none" stroke="rgb(107,53,53)" stroke-width="0.1"/>
  <path d="M 3.4448192799981143,5.509754825604887 L 2.9561813204524015,5.4034822026542315" fill="none" stroke="rgb(107,53,53)" stroke-width="0.1"/>
  <path d="M 2.9561813204524015,5.4034822026542315 L 2.467474178209045,5.297528179520327" fill="none" stroke="rgb(107,53,53)" stroke-width="0.1"/>
  <path d="M 2.467474178209045,5.297528179520327 L 1.978698061000614,5.191892801240556" fill="none" stroke="rgb(107,53,53)" stroke-width="0.1"/>
  <path d="M 1.978698061000614,5.191892801240556 L 1.489853176588099,5.086576112716557" fill="none" stroke="rgb(107,53,53)" stroke-width="0.1"/>
  <path d="M 1.489853176588099,5.086576112716557 L 1.0009397327627312,4.981578158715024" fill="none" stroke="rgb(107,53,53)" stroke-width="0.1"/>
  <path d="M 1.0009397327627312,4.981578158715024 L 0.5119579373439365,4.876898983866681" fill="none" stroke="rgb(107,53,53)" stroke-width="0.1"/>
  <path d="M 0.5119579373439365,4.876898983866681 L 0.022907998181040057,4.772538632667192" fill="none" stroke="rgb(107,53,53)" stroke-width="0.1"/>
  <path d="M 57.245965064836014,99.96278971439176 L 56.77099768492724,99.8055836276227" fill="none" stroke="rgb(107,53,53)" stroke-width="0.1"/>
  <path d="M 56.77099768492724,99.8055836276227 L 56.295916442329826,99.64872197320506" fill="none" stroke="rgb(107,53,53)" stroke-width="0.1"/>
  <path d="M 56.295916442329826,99.64872197320506 L 55.820721586815694,99.49220483360818" fill="none" stroke="rgb(107,53,53)" stroke-width="0.1"/>
  <path d="M 55.820721586815694,99.49220483360818 L 55.34541336821667,99.33603229112032" fill="none" stroke="rgb(107,53,53)" stroke-width="0.1"/>
  <path d="M 55.34541336821667,99.33603229112032 L 54.869992036424605,99.18020442784882" fill="none" stroke="rgb(107,53,53)" stroke-width="0.1"/>
  <path d="M 54.869992036424605,99.18020442784882 L 54.39445784139036,99.0247213257195" fill="none" stroke="rgb(107,53,53)" stroke-width="0.1"/>
  <path d="M 54.39445784139036,99.0247213257195 L 53.91881103312403,98.86958306647682" fill="none" stroke="rgb(107,53,53)" stroke-width="0.1"/>
  <path d="M 53.91881103312403,98.86958306647682 L 53.44305186169515,98.71478973168428" fill="none" stroke="rgb(107,53,53)" stroke-width="0.1"/>
  <path d="M 53.44305186169515,98.71478973168428 L 52.967180577232625,98.56034140272402" fill="none" stroke="rgb(107,53,53)" stroke-width="0.1"/>
  <path d="M 52.967180577232625,98.56034140272402 L 52.49119742992366,98.40623816079642" fill="none" stroke="rgb(107,53,53)" stroke-width="0.1"/>
  <path d="M 52.49119742992366,98.40623816079642 L 52.015102670014926,98.25248008692085" fill="none" stroke="rgb(107,53,53)" stroke-width="0.1"/>
  <path d="M 52.015102670014926,98.25248008692085 L 51.53889654781074,98.09906726193492" fill="none" stroke="rgb(107,53,53)" stroke-width="0.1"/>
  <path d="M 51.53889654781074,98.09906726193492 L 51.062579313675315,97.94599976649488" fill="none" stroke="rgb(107,53,53)" stroke-width="0.1"/>
  <path d="M 51.062579313675315,97.94599976649488 L 50.58615121803052,97.79327768107555" fill="none" stroke="rgb(107,53,53)" stroke-width="0.1"/>
  <path d="M 50.58615121803052,97.79327768107555 L 50.10961251135632,97.64090108596963" fill="none" stroke="rgb(107,53,53)" stroke-width="0.1"/>
  <path d="M 50.10961251135632,97.64090108596963 L 49.632963444191205,97.48887006128871" fill="none" stroke="rgb(107,53,53)" stroke-width="0.1"/>
  <path d="M 49.632963444191205,97.48887006128871 L 49.15620426713201,97.33718468696259" fill="none" stroke="rgb(107,53,53)" stroke-width="0.1"/>
  <path d="M 49.15620426713201,97.33718468696259 L 48.67933523083275,97.18584504273929" fill="none" stroke="rgb(107,53,53)" stroke-width="0.1"/>
  <path d="M 48.67933523083275,97.18584504273929 L 48.20235658600552,97.03485120818505" fill="none" stroke="rgb(107,53,53)" stroke-width="0.1"/>
  <path d="M 48.20235658600552,97.03485120818505 L 47.725268583419734,96.88420326268408" fill="none" stroke="rgb(107,53,53)" stroke-width="0.1"/>
  <path d="M 47.725268583419734,96.88420326268408 L 47.248071473903224,96.73390128543929" fill="none" stroke="rgb(107,53,53)" stroke-width="0.1"/>
  <path d="M 47.248071473903224,96.73390128543929 L 46.770765508340105,96.58394535547109" fill="none" stroke="rgb(107,53,53)" stroke-width="0.1"/>
  <path d="M 46.770765508340105,96.58394535547109 L 46.29335093767236,96.43433555161846" fill="none" stroke="rgb(107,53,53)" stroke-width="0.1"/>
  <path d="M 46.29335093767236,96.43433555161846 L 45.81582801289869,96.28507195253792" fill="none" stroke="rgb(107,53,53)" stroke-width="0.1"/>
  <path d="M 45.81582801289869,96.28507195253792 L 45.33819698507523,96.13615463670465" fill="none" stroke="rgb(107,53,53)" stroke-width="0.1"/>
  <path d="M 45.33819698507523,96.13615463670465 L 44.86045810531459,95.98758368241101" fill="none" stroke="rgb(107,53,53)" stroke-width="0.1"/>
  <path d="M 44.86045810531459,95.98758368241101 L 44.38261162478625,95.83935916776784" fill="none" stroke="rgb(107,53,53)" stroke-width="0.1"/>
  <path d="M 44.38261162478625,95.83935916776784 L 43.904657794715945,95.69148117070336" fill="none" stroke="rgb(107,53,53)" stroke-width="0.1"/>
  <path d="M 43.904657794715945,95.69148117070336 L 43.42659686638592,95.54394976896401" fill="none" stroke="rgb(107,53,53)" stroke-width="0.1"/>
  <path d="M 43.42659686638592,95.54394976896401 L 42.94842909113538,95.3967650401139" fill="none" stroke="rgb(107,53,53)" stroke-width="0.1"/>
  <path d="M 42.94842909113538,95.3967650401139 L 42.47015472035912,95.24992706153489" fill="none" stroke="rgb(107,53,53)" stroke-width="0.1"/>
  <path d="M 42.47015472035912,95.24992706153489 L 41.99177400550764,95.10343591042624" fill="none" stroke="rgb(107,53,53)" stroke-width="0.1"/>
  <path d="M 41.99177400550764,95.10343591042624 L 41.51328719808839,94.95729166380534" fill="none" stroke="rgb(107,53,53)" stroke-width="0.1"/>
  <path d="M 41.51328719808839,94.95729166380534 L 41.034694549663755,94.81149439850708" fill="none" stroke="rgb(107,53,53)" stroke-width="0.1"/>
  <path d="M 41.034694549663755,94.81149439850708 L 40.555996311851914,94.66604419118357" fill="none" stroke="rgb(107,53,53)" stroke-width="0.1"/>
  <path d="M 40.555996311851914,94.66604419118357 L 40.07719273632654,94.52094111830468" fill="none" stroke="rgb(107,53,53)" stroke-width="0.1"/>
  <path d="M 40.07719273632654,94.52094111830468 L 39.59828407481689,94.37618525615801" fill="none" stroke="rgb(107,53,53)" stroke-width="0.1"/>
  <path d="M 39.59828407481689,94.37618525615801 L 39.11927057910748,94.23177668084827" fill="none" stroke="rgb(107,53,53)" stroke-width="0.1"/>
  <path d="M 39.11927057910748,94.23177668084827 L 38.640152501037846,94.08771546829769" fill="none" stroke="rgb(107,53,53)" stroke-width="0.1"/>
  <path d="M 38.640152501037846,94.08771546829769 L 38.160930092502326,93.94400169424603" fill="none" stroke="rgb(107,53,53)" stroke-width="0.1"/>
  <path d="M 38.160930092502326,93.94400169424603 L 37.68160360545028,93.80063543425024" fill="none" stroke="rgb(107,53,53)" stroke-width="0.1"/>
  <path d="M 37.68160360545028,93.80063543425024 L 37.20217329188608,93.65761676368447" fill="none" stroke="rgb(107,53,53)" stroke-width="0.1"/>
  <path d="M 37.20217329188608,93.65761676368447 L 36.72263940386836,93.51494575774029" fill="none" stroke="rgb(107,53,53)" stroke-width="0.1"/>
  <path d="M 36.72263940386836,93.51494575774029 L 36.243002193509824,93.37262249142657" fill="none" stroke="rgb(107,53,53)" stroke-width="0.1"/>
  <path d="M 36.243002193509824,93.37262249142657 L 35.76326191297801,93.23064703956902" fill="none" stroke="rgb(107,53,53)" stroke-width="0.1"/>
  <path d="M 35.76326191297801,93.23064703956902 L 35.283418814494894,93.08901947681079" fill="none" stroke="rgb(107,53,53)" stroke-width="0.1"/>
  <path d="M 35.283418814494894,93.08901947681079 L 34.803473150336,92.94773987761221" fill="none" stroke="rgb(107,53,53)" stroke-width="0.1"/>
  <path d="M 34.803473150336,92.94773987761221 L 34.323425172830866,92.80680831625011" fill="none" stroke="rgb(107,53,53)" stroke-width="0.1"/>
  <path d="M 34.323425172830866,92.80680831625011 L 33.843275134362784,92.666224866819" fill="none" stroke="rgb(107,53,53)" stroke-width="0.1"/>
  <path d="M 33.843275134362784,92.666224866819 L 33.36302328736929,92.52598960323007" fill="none" stroke="rgb(107,53,53)" stroke-width="0.1"/>
  <path d="M 33.36302328736929,92.52598960323007 L 32.88266988434043,92.38610259921143" fill="none" stroke="rgb(107,53,53)" stroke-width="0.1"/>
  <path d="M 32.88266988434043,92.38610259921143 L 32.40221517782038,92.24656392830809" fill="none" stroke="rgb(107,53,53)" stroke-width="0.1"/>
  <path d="M 32.40221517782038,92.24656392830809 L 31.921659420406286,92.10737366388196" fill="none" stroke="rgb(107,53,53)" stroke-width="0.1"/>
  <path d="M 31.921659420406286,92.10737366388196 L 31.441002864748725,91.96853187911199" fill="none" stroke="rgb(107,53,53)" stroke-width="0.1"/>
  <path d="M 31.441002864748725,91.96853187911199 L 30.960245763550915,91.83003864699367" fill="none" stroke="rgb(107,53,53)" stroke-width="0.1"/>
  <path d="M 30.960245763550915,91.83003864699367 L 30.479388369569165,91.6918940403391" fill="none" stroke="rgb(107,53,53)" stroke-width="0.1"/>
  <path d="M 30.479388369569165,91.6918940403391 L 29.99843093561219,91.55409813177732" fill="none" stroke="rgb(107,53,53)" stroke-width="0.1"/>
  <path d="M 29.99843093561219,91.55409813177732 L 29.517373714541804,91.41665099375416" fill="none" stroke="rgb(107,53,53)" stroke-width="0.1"/>
  <path d="M 29.517373714541804,91.41665099375416 L 29.03621695927211,91.27955269853192" fill="none" stroke="rgb(107,53,53)" stroke-width="0.1"/>
  <path d="M 29.03621695927211,91.27955269853192 L 28.554960922769055,91.14280331818941" fill="none" stroke="rgb(107,53,53)" stroke-width="0.1"/>
  <path d="M 28.554960922769055,91.14280331818941 L 28.073605858051337,91.00640292462208" fill="none" stroke="rgb(107,53,53)" stroke-width="0.1"/>
  <path d="M 28.073605858051337,91.00640292462208 L 27.59215201818938,90.87035158954188" fill="none" stroke="rgb(107,53,53)" stroke-width="0.1"/>
  <path d="M 27.59215201818938,90.87035158954188 L 27.110599656306135,90.7346493844775" fill="none" stroke="rgb(107,53,53)" stroke-width="0.1"/>
  <path d="M 27.110599656306135,90.7346493844775 L 26.628949025575707,90.5992963807737" fill="none" stroke="rgb(107,53,53)" stroke-width="0.1"/>
  <path d="M 26.628949025575707,90.5992963807737 L 26.147200379224046,90.46429264959181" fill="none" stroke="rgb(107,53,53)" stroke-width="0.1"/>
  <path d="M 26.147200379224046,90.46429264959181 L 25.6653539705286,90.32963826190951" fill="none" stroke="rgb(107,53,53)" stroke-width="0.1"/>
  <path d="M 25.6653539705286,90.32963826190951 L 25.18341005281843,90.19533328852106" fill="none" stroke="rgb(107,53,53)" stroke-width="0.1"/>
  <path d="M 25.18341005281843,90.19533328852106 L 24.701368879473762,90.06137780003644" fill="none" stroke="rgb(107,53,53)" stroke-width="0.1"/>
  <path d="M 24.701368879473762,90.06137780003644 L 24.219230703925746,89.9277718668825" fill="none" stroke="rgb(107,53,53)" stroke-width="0.1"/>
  <path d="M 24.219230703925746,89.9277718668825 L 23.736995779656695,89.79451555930189" fill="none" stroke="rgb(107,53,53)" stroke-width="0.1"/>
  <path d="M 23.736995779656695,89.79451555930189 L 23.254664360199968,89.66160894735356" fill="none" stroke="rgb(107,53,53)" stroke-width="0.1"/>
  <path d="M 23.254664360199968,89.66160894735356 L 22.7722366991394,89.52905210091285" fill="none" stroke="rgb(107,53,53)" stroke-width="0.1"/>
  <path d="M 22.7722366991394,89.52905210091285 L 22.289713050109526,89.39684508967105" fill="none" stroke="rgb(107,53,53)" stroke-width="0.1"/>
  <path d="M 22.289713050109526,89.39684508967105 L 21.807093666794913,89.26498798313526" fill="none" stroke="rgb(107,53,53)" stroke-width="0.1"/>
  <path d="M 21.807093666794913,89.26498798313526 L 21.32437880293162,89.13348085062898" fill="none" stroke="rgb(107,53,53)" stroke-width="0.1"/>
  <path d="M 21.32437880293162,89.13348085062898 L 20.841568712304593,89.00232376129168" fill="none" stroke="rgb(107,53,53)" stroke-width="0.1"/>
  <path d="M 20.841568712304593,89.00232376129168 L 20.358663648749598,88.87151678407861" fill="none" stroke="rgb(107,53,53)" stroke-width="0.1"/>
  <path d="M 20.358663648749598,88.87151678407861 L 19.875663866151967,88.74105998776076" fill="none" stroke="rgb(107,53,53)" stroke-width="0.1"/>
  <path d="M 19.875663866151967,88.74105998776076 L 19.392569618447283,88.61095344092587" fill="none" stroke="rgb(107,53,53)" stroke-width="0.1"/>
  <path d="M 19.392569618447283,88.61095344092587 L 18.90938115962024,88.48119721197656" fill="none" stroke="rgb(107,53,53)" stroke-width="0.1"/>
  <path d="M 18.90938115962024,88.48119721197656 L 18.426098743705666,88.35179136913166" fill="none" stroke="rgb(107,53,53)" stroke-width="0.1"/>
  <path d="M 18.426098743705666,88.35179136913166 L 17.94272262478728,88.22273598042614" fill="none" stroke="rgb(107,53,53)" stroke-width="0.1"/>
  <path d="M 17.94272262478728,88.22273598042614 L 17.45925305699791,88.09403111371" fill="none" stroke="rgb(107,53,53)" stroke-width="0.1"/>
  <path d="M 17.45925305699791,88.09403111371 L 16.97569029452029,87.96567683664944" fill="none" stroke="rgb(107,53,53)" stroke-width="0.1"/>
  <path d="M 16.97569029452029,87.96567683664944 L 16.492034591585593,87.83767321672633" fill="none" stroke="rgb(107,53,53)" stroke-width="0.1"/>
  <path d="M 16.492034591585593,87.83767321672633 L 16.00828620247387,87.71002032123806" fill="none" stroke="rgb(107,53,53)" stroke-width="0.1"/>
  <path d="M 16.00828620247387,87.71002032123806 L 15.524445381513942,87.58271821729761" fill="none" stroke="rgb(107,53,53)" stroke-width="0.1"/>
  <path d="M 15.524445381513942,87.58271821729761 L 15.040512383083524,87.45576697183367" fill="none" stroke="rgb(107,53,53)" stroke-width="0.1"/>
  <path d="M 15.040512383083524,87.45576697183367 L 14.556487461608526,87.32916665159019" fill="none" stroke="rgb(107,53,53)" stroke-width="0.1"/>
  <path d="M 14.556487461608526,87.32916665159019 L 14.072370871562839,87.20291732312694" fill="none" stroke="rgb(107,53,53)" stroke-width="0.1"/>
  <path d="M 14.072370871562839,87.20291732312694 L 13.588162867469464,87.07701905281908" fill="none" stroke="rgb(107,53,53)" stroke-width="0.1"/>
  <path d="M 13.588162867469464,87.07701905281908 L 13.103863703898583,86.95147190685702" fill="none" stroke="rgb(107,53,53)" stroke-width="0.1"/>
  <path d="M 13.103863703898583,86.95147190685702 L 12.61947363546858,86.82627595124677" fill="none" stroke="rgb(107,53,53)" stroke-width="0.1"/>
  <path d="M 12.61947363546858,86.82627595124677 L 12.134992916845931,86.7014312518096" fill="none" stroke="rgb(107,53,53)" stroke-width="0.1"/>
  <path d="M 12.134992916845931,86.7014312518096 L 11.65042180274429,86.57693787418214" fill="none" stroke="rgb(107,53,53)" stroke-width="0.1"/>
  <path d="M 11.65042180274429,86.57693787418214 L 11.165760547925288,86.4527958838163" fill="none" stroke="rgb(107,53,53)" stroke-width="0.1"/>
  <path d="M 11.165760547925288,86.4527958838163 L 10.681009407197621,86.32900534597934" fill="none" stroke="rgb(107,53,53)" stroke-width="0.1"/>
  <path d="M 10.681009407197621,86.32900534597934 L 10.19616863541762,86.20556632575358" fill="none" stroke="rgb(107,53,53)" stroke-width="0.1"/>
  <path d="M 10.19616863541762,86.20556632575358 L 9.711238487488004,86.08247888803658" fill="none" stroke="rgb(107,53,53)" stroke-width="0.1"/>
  <path d="M 9.711238487488004,86.08247888803658 L 9.226219218359233,85.95974309754115" fill="none" stroke="rgb(107,53,53)" stroke-width="0.1"/>
  <path d="M 9.226219218359233,85.95974309754115 L 8.741111083028386,85.83735901879515" fill="none" stroke="rgb(107,53,53)" stroke-width="0.1"/>
  <path d="M 8.741111083028386,85.83735901879515 L 8.25591433653915,85.71532671614159" fill="none" stroke="rgb(107,53,53)" stroke-width="0.1"/>
  <path d="M 8.25591433653915,85.71532671614159 L 7.7706292339815946,85.59364625373837" fill="none" stroke="rgb(107,53,53)" stroke-width="0.1"/>
  <path d="M 7.7706292339815946,85.59364625373837 L 7.285256030493088,85.47231769555867" fill="none" stroke="rgb(107,53,53)" stroke-width="0.1"/>
  <path d="M 7.285256030493088,85.47231769555867 L 6.799794981256468,85.35134110539059" fill="none" stroke="rgb(107,53,53)" stroke-width="0.1"/>
  <path d="M 6.799794981256468,85.35134110539059 L 6.3142463415009615,85.23071654683679" fill="none" stroke="rgb(107,53,53)" stroke-width="0.1"/>
  <path d="M 6.3142463415009615,85.23071654683679 L 5.828610366501948,85.11044408331543" fill="none" stroke="rgb(107,53,53)" stroke-width="0.1"/>
  <path d="M 5.828610366501948,85.11044408331543 L 5.342887311580739,84.99052377805936" fill="none" stroke="rgb(107,53,53)" stroke-width="0.1"/>
  <path d="M 5.342887311580739,84.99052377805936 L 4.857077432104347,84.87095569411599" fill="none" stroke="rgb(107,53,53)" stroke-width="0.1"/>
  <path d="M 4.857077432104347,84.87095569411599 L 4.371180983485601,84.7517398943479" fill="none" stroke="rgb(107,53,53)" stroke-width="0.1"/>
  <path d="M 4.371180983485601,84.7517398943479 L 3.8851982211823497,84.63287644143236" fill="none" stroke="rgb(107,53,53)" stroke-width="0.1"/>
  <path d="M 3.8851982211823497,84.63287644143236 L 3.399129400698712,84.51436539786141" fill="none" stroke="rgb(107,53,53)" stroke-width="0.1"/>
  <path d="M 3.399129400698712,84.51436539786141 L 2.9129747775831447,84.3962068259417" fill="none" stroke="rgb(107,53,53)" stroke-width="0.1"/>
  <path d="M 2.9129747775831447,84.3962068259417 L 2.426734607429921,84.27840078779468" fill="none" stroke="rgb(107,53,53)" stroke-width="0.1"/>
  <path d="M 2.426734607429921,84.27840078779468 L 1.9404091458775383,84.16094734535636" fill="none" stroke="rgb(107,53,53)" stroke-width="0.1"/>
  <path d="M 1.9404091458775383,84.16094734535636 L 1.4539986486098542,84.04384656037757" fill="none" stroke="rgb(107,53,53)" stroke-width="0.1"/>
  <path d="M 1.4539986486098542,84.04384656037757 L 0.9675033713556331,83.9270984944236" fill="none" stroke="rgb(107,53,53)" stroke-width="0.1"/>
  <path d="M 0.9675033713556331,83.9270984944236 L 0.4809235698877501,83.8107032088742" fill="none" stroke="rgb(107,53,53)" stroke-width="0.1"/>
 </g>
 <g id="layerA-ELEV-2" inkscape:groupmode="layer" inkscape:label="A-ELEV-2">
  <path d="M 99.81553317989017,23.65256731407237 L 99.34425947767124,23.485428267644807" fill="none" stroke="rgb(255,73,12)" stroke-width="0.1"/>
  <path d="M 99.34425947767124,23.485428267644807 L 98.87287817321328,23.318592932505908" fill="none" stroke="rgb(255,73,12)" stroke-width="0.1"/>
  <path d="M 98.87287817321328,23.318592932505908 L 98.40138946224181,23.152061377928135" fill="none" stroke="rgb(255,73,12)" stroke-width="0.1"/>
  <path d="M 98.40138946224181,23.152061377928135 L 97.92979354052738,22.985833673058437" fill="none" stroke="rgb(255,73,12)" stroke-width="0.1"/>
  <path d="M 97.92979354052738,22.985833673058437 L 97.4580906038857,22.8199098869178" fill="none" stroke="rgb(255,73,12)" stroke-width="0.1"/>
  <path d="M 97.4580906038857,22.8199098869178 L 96.98628084817608,22.65429008840067" fill="none" stroke="rgb(255,73,12)" stroke-width="0.1"/>
  <path d="M 96.98628084817608,22.65429008840067 L 96.51436446930256,22.48897434627554" fill="none" stroke="rgb(255,73,12)" stroke-width="0.1"/>
  <path d="M 96.51436446930256,22.48897434627554 L 96.04234166321294,22.32396272918413" fill="none" stroke="rgb(255,73,12)" stroke-width="0.1"/>
  <path d="M 96.04234166321294,22.32396272918413 L 95.57021262590013,22.15925530564266" fill="none" stroke="rgb(255,73,12)" stroke-width="0.1"/>
  <path d="M 95.57021262590013,22.15925530564266 L 95.09797755340037,21.994852144040237" fill="none" stroke="rgb(255,73,12)" stroke-width="0.1"/>
  <path d="M 95.09797755340037,21.994852144040237 L 94.62563664179436,21.830753312640468" fill="none" stroke="rgb(255,73,12)" stroke-width="0.1"/>
  <path d="M 94.62563664179436,21.830753312640468 L 94.15319008720644,21.666958879579738" fill="none" stroke="rgb(255,73,12)" stroke-width="0.1"/>
  <path d="M 94.15319008720644,21.666958879579738 L 93.68063808580496,21.503468912868698" fill="none" stroke="rgb(255,73,12)" stroke-width="0.1"/>
  <path d="M 93.68063808580496,21.503468912868698 L 93.20798083380203,21.340283480391236" fill="none" stroke="rgb(255,73,12)" stroke-width="0.1"/>
  <path d="M 93.20798083380203,21.340283480391236 L 92.73521852745398,21.177402649904934" fill="none" stroke="rgb(255,73,12)" stroke-width="0.1"/>
  <path d="M 92.73521852745398,21.177402649904934 L 92.26235136305957,21.014826489040956" fill="none" stroke="rgb(255,73,12)" stroke-width="0.1"/>
  <path d="M 92.26235136305957,21.014826489040956 L 91.7893795369622,20.852555065303704" fill="none" stroke="rgb(255,73,12)" stroke-width="0.1"/>
  <path d="M 91.7893795369622,20.852555065303704 L 91.31630324554794,20.69058844607116" fill="none" stroke="rgb(255,73,12)" stroke-width="0.1"/>
  <path d="M 91.31630324554794,20.69058844607116 L 90.8431226852473,20.528926698595114" fill="none" stroke="rgb(255,73,12)" stroke-width="0.1"/>
  <path d="M 90.8431226852473,20.528926698595114 L 90.36983805253283,20.36756989000014" fill="none" stroke="rgb(255,73,12)" stroke-width="0.1"/>
  <path d="M 90.36983805253283,20.36756989000014 L 89.89644954392077,20.206518087284508" fill="none" stroke="rgb(255,73,12)" stroke-width="0.1"/>
  <path d="M 89.89644954392077,20.206518087284508 L 89.4229573559711,20.04577135731995" fill="none" stroke="rgb(255,73,12)" stroke-width="0.1"/>
  <path d="M 89.4229573559711,20.04577135731995 L 88.94936168528636,19.88532976685144" fill="none" stroke="rgb(255,73,12)" stroke-width="0.1"/>
  <path d="M 88.94936168528636,19.88532976685144 L 88.47566272851145,19.725193382497196" fill="none" stroke="rgb(255,73,12)" stroke-width="0.1"/>
  <path d="M 88.47566272851145,19.725193382497196 L 88.00186068233495,19.565362270748665" fill="none" stroke="rgb(255,73,12)" stroke-width="0.1"/>
  <path d="M 88.00186068233495,19.565362270748665 L 87.52795574348829,19.405836497970654" fill="none" stroke="rgb(255,73,12)" stroke-width="0.1"/>
  <path d="M 87.52795574348829,19.405836497970654 L 87.05394810874543,19.24661613040132" fill="none" stroke="rgb(255,73,12)" stroke-width="0.1"/>
  <path d="M 87.05394810874543,19.24661613040132 L 86.57983797492227,19.08770123415161" fill="none" stroke="rgb(255,73,12)" stroke-width="0.1"/>
  <path d="M 86.57983797492227,19.08770123415161 L 86.1056255388786,18.929091875205813" fill="none" stroke="rgb(255,73,12)" stroke-width="0.1"/>
  <path d="M 86.1056255388786,18.929091875205813 L 85.6313109975157,18.770788119421695" fill="none" stroke="rgb(255,73,12)" stroke-width="0.1"/>
  <path d="M 85.6313109975157,18.770788119421695 L 85.15689454777782,18.612790032529574" fill="none" stroke="rgb(255,73,12)" stroke-width="0.1"/>
  <path d="M 85.15689454777782,18.612790032529574 L 84.68237638665062,18.45509768013312" fill="none" stroke="rgb(255,73,12)" stroke-width="0.1"/>
  <path d="M 84.68237638665062,18.45509768013312 L 84.20775671116326,18.297711127709363" fill="none" stroke="rgb(255,73,12)" stroke-width="0.1"/>
  <path d="M 84.20775671116326,18.297711127709363 L 83.7330357183863,18.14063044060765" fill="none" stroke="rgb(255,73,12)" stroke-width="0.1"/>
  <path d="M 83.7330357183863,18.14063044060765 L 83.25821360543193,17.983855684051036" fill="none" stroke="rgb(255,73,12)" stroke-width="0.1"/>
  <path d="M 83.25821360543193,17.983855684051036 L 82.78329056945552,17.827386923134895" fill="none" stroke="rgb(255,73,12)" stroke-width="0.1"/>
  <path d="M 82.78329056945552,17.827386923134895 L 82.30826680765347,17.671224222828187" fill="none" stroke="rgb(255,73,12)" stroke-width="0.1"/>
  <path d="M 82.30826680765347,17.671224222828187 L 81.83314251726415,17.51536764797231" fill="none" stroke="rgb(255,73,12)" stroke-width="0.1"/>
  <path d="M 81.83314251726415,17.51536764797231 L 81.357917895568,17.359817263282025" fill="none" stroke="rgb(255,73,12)" stroke-width="0.1"/>
  <path d="M 81.357917895568,17.359817263282025 L 80.8825931398867,17.204573133344297" fill="none" stroke="rgb(255,73,12)" stroke-width="0.1"/>
  <path d="M 80.8825931398867,17.204573133344297 L 80.40716844758367,17.049635322619338" fill="none" stroke="rgb(255,73,12)" stroke-width="0.1"/>
  <path d="M 80.40716844758367,17.049635322619338 L 79.93164401606373,16.895003895440254" fill="none" stroke="rgb(255,73,12)" stroke-width="0.1"/>
  <path d="M 79.93164401606373,16.895003895440254 L 79.45602004277362,16.74067891601294" fill="none" stroke="rgb(255,73,12)" stroke-width="0.1"/>
  <path d="M 79.45602004277362,16.74067891601294 L 78.98029672520067,16.586660448415614" fill="none" stroke="rgb(255,73,12)" stroke-width="0.1"/>
  <path d="M 78.98029672520067,16.586660448415614 L 78.50447426087374,16.432948556599854" fill="none" stroke="rgb(255,73,12)" stroke-width="0.1"/>
  <path d="M 78.50447426087374,16.432948556599854 L 78.02855284736313,16.279543304389335" fill="none" stroke="rgb(255,73,12)" stroke-width="0.1"/>
  <path d="M 78.02855284736313,16.279543304389335 L 77.55253268228023,16.126444755480748" fill="none" stroke="rgb(255,73,12)" stroke-width="0.1"/>
  <path d="M 77.55253268228023,16.126444755480748 L 77.07641396327665,15.973652973443563" fill="none" stroke="rgb(255,73,12)" stroke-width="0.1"/>
  <path d="M 77.07641396327665,15.973652973443563 L 76.60019688804573,15.821168021719473" fill="none" stroke="rgb(255,73,12)" stroke-width="0.1"/>
  <path d="M 76.60019688804573,15.821168021719473 L 76.12388165432174,15.668989963623062" fill="none" stroke="rgb(255,73,12)" stroke-width="0.1"/>
  <path d="M 76.12388165432174,15.668989963623062 L 75.64746845987906,15.517118862341476" fill="none" stroke="rgb(255,73,12)" stroke-width="0.1"/>
  <path d="M 75.64746845987906,15.517118862341476 L 75.17095750253281,15.36555478093419" fill="none" stroke="rgb(255,73,12)" stroke-width="0.1"/>
  <path d="M 75.17095750253281,15.36555478093419 L 74.69434898013947,15.21429778233346" fill="none" stroke="rgb(255,73,12)" stroke-width="0.1"/>
  <path d="M 74.69434898013947,15.21429778233346 L 74.21764309059529,15.06334792934399" fill="none" stroke="rgb(255,73,12)" stroke-width="0.1"/>
  <path d="M 74.21764309059529,15.06334792934399 L 73.74084003183737,14.912705284642925" fill="none" stroke="rgb(255,73,12)" stroke-width="0.1"/>
  <path d="M 73.74084003183737,14.912705284642925 L 73.26394000184246,14.762369910779512" fill="none" stroke="rgb(255,73,12)" stroke-width="0.1"/>
  <path d="M 73.26394000184246,14.762369910779512 L 72.78694319862848,14.612341870175896" fill="none" stroke="rgb(255,73,12)" stroke-width="0.1"/>
  <path d="M 72.78694319862848,14.612341870175896 L 72.30984982025313,14.462621225126554" fill="none" stroke="rgb(255,73,12)" stroke-width="0.1"/>
  <path d="M 72.30984982025313,14.462621225126554 L 71.83266006481404,14.313208037798063" fill="none" stroke="rgb(255,73,12)" stroke-width="0.1"/>
  <path d="M 71.83266006481404,14.313208037798063 L 71.35537413044915,14.164102370229557" fill="none" stroke="rgb(255,73,12)" stroke-width="0.1"/>
  <path d="M 71.35537413044915,14.164102370229557 L 70.87799221533612,14.015304284332274" fill="none" stroke="rgb(255,73,12)" stroke-width="0.1"/>
  <path d="M 70.87799221533612,14.015304284332274 L 70.40051451769239,13.866813841889893" fill="none" stroke="rgb(255,73,12)" stroke-width="0.1"/>
  <path d="M 70.40051451769239,13.866813841889893 L 69.92294123577597,13.71863110455854" fill="none" stroke="rgb(255,73,12)" stroke-width="0.1"/>
  <path d="M 69.92294123577597,13.71863110455854 L 69.44527256788331,13.570756133866212" fill="none" stroke="rgb(255,73,12)" stroke-width="0.1"/>
  <path d="M 69.44527256788331,13.570756133866212 L 68.96750871235122,13.423188991213237" fill="none" stroke="rgb(255,73,12)" stroke-width="0.1"/>
  <path d="M 68.96750871235122,13.423188991213237 L 68.48964986755573,13.275929737872161" fill="none" stroke="rgb(255,73,12)" stroke-width="0.1"/>
  <path d="M 68.48964986755573,13.275929737872161 L 68.0116962319131,13.128978434987857" fill="none" stroke="rgb(255,73,12)" stroke-width="0.1"/>
  <path d="M 68.0116962319131,13.128978434987857 L 67.5336480038776,12.982335143576961" fill="none" stroke="rgb(255,73,12)" stroke-width="0.1"/>
  <path d="M 67.5336480038776,12.982335143576961 L 67.0555053819437,12.835999924528437" fill="none" stroke="rgb(255,73,12)" stroke-width="0.1"/>
  <path d="M 67.0555053819437,12.835999924528437 L 66.57726856464501,12.689972838603353" fill="none" stroke="rgb(255,73,12)" stroke-width="0.1"/>
  <path d="M 66.57726856464501,12.689972838603353 L 66.09893775055434,12.544253946434992" fill="none" stroke="rgb(255,73,12)" stroke-width="0.1"/>
  <path d="M 66.09893775055434,12.544253946434992 L 65.62051313828272,12.398843308528171" fill="none" stroke="rgb(255,73,12)" stroke-width="0.1"/>
  <path d="M 65.62051313828272,12.398843308528171 L 65.14199492648095,12.253740985260151" fill="none" stroke="rgb(255,73,12)" stroke-width="0.1"/>
  <path d="M 65.14199492648095,12.253740985260151 L 64.66338331383861,12.108947036879954" fill="none" stroke="rgb(255,73,12)" stroke-width="0.1"/>
  <path d="M 64.66338331383861,12.108947036879954 L 64.18467849908382,11.96446152350893" fill="none" stroke="rgb(255,73,12)" stroke-width="0.1"/>
  <path d="M 64.18467849908382,11.96446152350893 L 63.705880680983114,11.820284505139625" fill="none" stroke="rgb(255,73,12)" stroke-width="0.1"/>
  <path d="M 63.705880680983114,11.820284505139625 L 63.226990058342494,11.676416041637367" fill="none" stroke="rgb(255,73,12)" stroke-width="0.1"/>
  <path d="M 63.226990058342494,11.676416041637367 L 62.74800683000581,11.532856192738677" fill="none" stroke="rgb(255,73,12)" stroke-width="0.1"/>
  <path d="M 62.74800683000581,11.532856192738677 L 62.26893119485567,11.389605018052293" fill="none" stroke="rgb(255,73,12)" stroke-width="0.1"/>
  <path d="M 62.26893119485567,11.389605018052293 L 61.78976335181255,11.246662577058714" fill="none" stroke="rgb(255,73,12)" stroke-width="0.1"/>
  <path d="M 61.78976335181255,11.246662577058714 L 61.310503499836045,11.1040289291102" fill="none" stroke="rgb(255,73,12)" stroke-width="0.1"/>
  <path d="M 61.310503499836045,11.1040289291102 L 60.83115183792336,10.961704133430771" fill="none" stroke="rgb(255,73,12)" stroke-width="0.1"/>
  <path d="M 60.83115183792336,10.961704133430771 L 60.351708565110016,10.819688249116325" fill="none" stroke="rgb(255,73,12)" stroke-width="0.1"/>
  <path d="M 60.351708565110016,10.819688249116325 L 59.872173880469404,10.677981335134405" fill="none" stroke="rgb(255,73,12)" stroke-width="0.1"/>
  <path d="M 59.872173880469404,10.677981335134405 L 59.39254798311299,10.536583450324201" fill="none" stroke="rgb(255,73,12)" stroke-width="0.1"/>
  <path d="M 59.39254798311299,10.536583450324201 L 58.9128310721901,10.395494653396895" fill="none" stroke="rgb(255,73,12)" stroke-width="0.1"/>
  <path d="M 58.9128310721901,10.395494653396895 L 58.43302334688826,10.254715002934859" fill="none" stroke="rgb(255,73,12)" stroke-width="0.1"/>
  <path d="M 58.43302334688826,10.254715002934859 L 57.95312500643195,10.114244557392453" fill="none" stroke="rgb(255,73,12)" stroke-width="0.1"/>
  <path d="M 57.95312500643195,10.114244557392453 L 57.4731362500836,9.974083375095688" fill="none" stroke="rgb(255,73,12)" stroke-width="0.1"/>
  <path d="M 57.4731362500836,9.974083375095688 L 56.99305727714329,9.834231514241765" fill="none" stroke="rgb(255,73,12)" stroke-width="0.1"/>
  <path d="M 56.99305727714329,9.834231514241765 L 56.51288828694874,9.694689032899873" fill="none" stroke="rgb(255,73,12)" stroke-width="0.1"/>
  <path d="M 56.51288828694874,9.694689032899873 L 56.032629478874355,9.555455989010397" fill="none" stroke="rgb(255,73,12)" stroke-width="0.1"/>
  <path d="M 56.032629478874355,9.555455989010397 L 55.55228105233243,9.416532440385595" fill="none" stroke="rgb(255,73,12)" stroke-width="0.1"/>
  <path d="M 55.55228105233243,9.416532440385595 L 55.07184320677254,9.27791844470903" fill="none" stroke="rgb(255,73,12)" stroke-width="0.1"/>
  <path d="M 55.07184320677254,9.27791844470903 L 54.591316141681204,9.139614059535688" fill="none" stroke="rgb(255,73,12)" stroke-width="0.1"/>
  <path d="M 54.591316141681204,9.139614059535688 L 54.11070005658155,9.001619342292088" fill="none" stroke="rgb(255,73,12)" stroke-width="0.1"/>
  <path d="M 54.11070005658155,9.001619342292088 L 53.62999515103422,8.86393435027594" fill="none" stroke="rgb(255,73,12)" stroke-width="0.1"/>
  <path d="M 53.62999515103422,8.86393435027594 L 53.1492016246367,8.726559140656718" fill="none" stroke="rgb(255,73,12)" stroke-width="0.1"/>
  <path d="M 53.1492016246367,8.726559140656718 L 52.668319677023305,8.589493770475315" fill="none" stroke="rgb(255,73,12)" stroke-width="0.1"/>
  <path d="M 52.668319677023305,8.589493770475315 L 52.18734950786427,8.452738296643247" fill="none" stroke="rgb(255,73,12)" stroke-width="0.1"/>
  <path d="M 52.18734950786427,8.452738296643247 L 51.706291316867805,8.316292775944135" fill="none" stroke="rgb(255,73,12)" stroke-width="0.1"/>
  <path d="M 51.706291316867805,8.316292775944135 L 51.22514530377771,8.18015726503279" fill="none" stroke="rgb(255,73,12)" stroke-width="0.1"/>
  <path d="M 51.22514530377771,8.18015726503279 L 50.74391166837461,8.044331820434763" fill="none" stroke="rgb(255,73,12)" stroke-width="0.1"/>
  <path d="M 50.74391166837461,8.044331820434763 L 50.262590610474945,7.908816498547594" fill="none" stroke="rgb(255,73,12)" stroke-width="0.1"/>
  <path d="M 50.262590610474945,7.908816498547594 L 49.78118232993256,7.773611355639332" fill="none" stroke="rgb(255,73,12)" stroke-width="0.1"/>
  <path d="M 49.78118232993256,7.773611355639332 L 49.29968702663655,7.638716447850015" fill="none" stroke="rgb(255,73,12)" stroke-width="0.1"/>
  <path d="M 49.29968702663655,7.638716447850015 L 48.81810490051248,7.5041318311900795" fill="none" stroke="rgb(255,73,12)" stroke-width="0.1"/>
  <path d="M 48.81810490051248,7.5041318311900795 L 48.33643615152198,7.369857561541721" fill="none" stroke="rgb(255,73,12)" stroke-width="0.1"/>
  <path d="M 48.33643615152198,7.369857561541721 L 47.8546809796627,7.235893694657989" fill="none" stroke="rgb(255,73,12)" stroke-width="0.1"/>
  <path d="M 47.8546809796627,7.235893694657989 L 47.37283958496778,7.102240286162896" fill="none" stroke="rgb(255,73,12)" stroke-width="0.1"/>
  <path d="M 47.37283958496778,7.102240286162896 L 46.89091216750717,6.968897391552105" fill="none" stroke="rgb(255,73,12)" stroke-width="0.1"/>
  <path d="M 46.89091216750717,6.968897391552105 L 46.40889892738517,6.835865066191786" fill="none" stroke="rgb(255,73,12)" stroke-width="0.1"/>
  <path d="M 46.40889892738517,6.835865066191786 L 45.92680006474268,6.703143365319534" fill="none" stroke="rgb(255,73,12)" stroke-width="0.1"/>
  <path d="M 45.92680006474268,6.703143365319534 L 45.44461577975562,6.570732344043449" fill="none" stroke="rgb(255,73,12)" stroke-width="0.1"/>
  <path d="M 45.44461577975562,6.570732344043449 L 44.96234627263618,6.438632057343398" fill="none" stroke="rgb(255,73,12)" stroke-width="0.1"/>
  <path d="M 44.96234627263618,6.438632057343398 L 44.479991743630876,6.306842560069526" fill="none" stroke="rgb(255,73,12)" stroke-width="0.1"/>
  <path d="M 44.479991743630876,6.306842560069526 L 43.99755239302192,6.175363906943176" fill="none" stroke="rgb(255,73,12)" stroke-width="0.1"/>
  <path d="M 43.99755239302192,6.175363906943176 L 43.51502842112734,6.044196152556992" fill="none" stroke="rgb(255,73,12)" stroke-width="0.1"/>
  <path d="M 43.51502842112734,6.044196152556992 L 43.03242002829984,5.9133393513739065" fill="none" stroke="rgb(255,73,12)" stroke-width="0.1"/>
  <path d="M 43.03242002829984,5.9133393513739065 L 42.54972741492668,5.782793557728155" fill="none" stroke="rgb(255,73,12)" stroke-width="0.1"/>
  <path d="M 42.54972741492668,5.782793557728155 L 42.06695078143048,5.652558825824713" fill="none" stroke="rgb(255,73,12)" stroke-width="0.1"/>
  <path d="M 42.06695078143048,5.652558825824713 L 41.584090328269326,5.522635209739178" fill="none" stroke="rgb(255,73,12)" stroke-width="0.1"/>
  <path d="M 41.584090328269326,5.522635209739178 L 41.10114625593576,5.393022763418571" fill="none" stroke="rgb(255,73,12)" stroke-width="0.1"/>
  <path d="M 41.10114625593576,5.393022763418571 L 40.618118764955966,5.263721540680081" fill="none" stroke="rgb(255,73,12)" stroke-width="0.1"/>
  <path d="M 40.618118764955966,5.263721540680081 L 40.13500805589263,5.134731595211747" fill="none" stroke="rgb(255,73,12)" stroke-width="0.1"/>
  <path d="M 40.13500805589263,5.134731595211747 L 39.65181432934162,5.0060529805729175" fill="none" stroke="rgb(255,73,12)" stroke-width="0.1"/>
  <path d="M 39.65181432934162,5.0060529805729175 L 39.168537785933836,4.877685750193109" fill="none" stroke="rgb(255,73,12)" stroke-width="0.1"/>
  <path d="M 39.168537785933836,4.877685750193109 L 38.685178626334164,4.749629957372576" fill="none" stroke="rgb(255,73,12)" stroke-width="0.1"/>
  <path d="M 38.685178626334164,4.749629957372576 L 38.20173705124239,4.621885655282654" fill="none" stroke="rgb(255,73,12)" stroke-width="0.1"/>
  <path d="M 38.20173705124239,4.621885655282654 L 37.71821326139229,4.494452896964958" fill="none" stroke="rgb(255,73,12)" stroke-width="0.1"/>
  <path d="M 37.71821326139229,4.494452896964958 L 37.23460745755108,4.367331735331732" fill="none" stroke="rgb(255,73,12)" stroke-width="0.1"/>
  <path d="M 37.23460745755108,4.367331735331732 L 36.750919840521306,4.240522223166295" fill="none" stroke="rgb(255,73,12)" stroke-width="0.1"/>
  <path d="M 36.750919840521306,4.240522223166295 L 36.267150611138504,4.114024413122024" fill="none" stroke="rgb(255,73,12)" stroke-width="0.1"/>
  <path d="M 36.267150611138504,4.114024413122024 L 35.783299970272196,3.987838357723035" fill="none" stroke="rgb(255,73,12)" stroke-width="0.1"/>
  <path d="M 35.783299970272196,3.987838357723035 L 35.29936811882658,3.8619641093641803" fill="none" stroke="rgb(255,73,12)" stroke-width="0.1"/>
  <path d="M 35.29936811882658,3.8619641093641803 L 34.81535525773836,3.7364017203108233" fill="none" stroke="rgb(255,73,12)" stroke-width="0.1"/>
  <path d="M 34.81535525773836,3.7364017203108233 L 34.331261587978474,3.611151242698611" fill="none" stroke="rgb(255,73,12)" stroke-width="0.1"/>
  <path d="M 34.331261587978474,3.611151242698611 L 33.847087310551274,3.486212728533701" fill="none" stroke="rgb(255,73,12)" stroke-width="0.1"/>
  <path d="M 33.847087310551274,3.486212728533701 L 33.36283262649533,3.3615862296931027" fill="none" stroke="rgb(255,73,12)" stroke-width="0.1"/>
  <path d="M 33.36283262649533,3.3615862296931027 L 32.87849773688117,3.2372717979237677" fill="none" stroke="rgb(255,73,12)" stroke-width="0.1"/>
  <path d="M 32.87849773688117,3.2372717979237677 L 32.394082842813646,3.1132694848433857" fill="none" stroke="rgb(255,73,12)" stroke-width="0.1"/>
  <path d="M 32.394082842813646,3.1132694848433857 L 31.909588145430575,2.9895793419399297" fill="none" stroke="rgb(255,73,12)" stroke-width="0.1"/>
  <path d="M 31.909588145430575,2.9895793419399297 L 31.425013845903322,2.8662014205718833" fill="none" stroke="rgb(255,73,12)" stroke-width="0.1"/>
  <path d="M 31.425013845903322,2.8662014205718833 L 30.94036014543542,2.7431357719677862" fill="none" stroke="rgb(255,73,12)" stroke-width="0.1"/>
  <path d="M 30.94036014543542,2.7431357719677862 L 30.455627245263713,2.6203824472268025" fill="none" stroke="rgb(255,73,12)" stroke-width="0.1"/>
  <path d="M 30.455627245263713,2.6203824472268025 L 29.97081534665847,2.497941497318493" fill="none" stroke="rgb(255,73,12)" stroke-width="0.1"/>
  <path d="M 29.97081534665847,2.497941497318493 L 29.485924650922357,2.375812973082361" fill="none" stroke="rgb(255,73,12)" stroke-width="0.1"/>
  <path d="M 29.485924650922357,2.375812973082361 L 29.000955359390446,2.253996925228421" fill="none" stroke="rgb(255,73,12)" stroke-width="0.1"/>
  <path d="M 29.000955359390446,2.253996925228421 L 28.51590767343089,2.1324934043368557" fill="none" stroke="rgb(255,73,12)" stroke-width="0.1"/>
  <path d="M 28.51590767343089,2.1324934043368557 L 28.030781794444465,2.01130246085836" fill="none" stroke="rgb(255,73,12)" stroke-width="0.1"/>
  <path d="M 28.030781794444465,2.01130246085836 L 27.54557792386413,1.8904241451132293" fill="none" stroke="rgb(255,73,12)" stroke-width="0.1"/>
  <path d="M 27.54557792386413,1.8904241451132293 L 27.060296263154783,1.7698585072927244" fill="none" stroke="rgb(255,73,12)" stroke-width="0.1"/>
  <path d="M 27.060296263154783,1.7698585072927244 L 26.574937013814974,1.6496055974574801" fill="none" stroke="rgb(255,73,12)" stroke-width="0.1"/>
  <path d="M 26.574937013814974,1.6496055974574801 L 26.089500377374065,1.5296654655390967" fill="none" stroke="rgb(255,73,12)" stroke-width="0.1"/>
  <path d="M 26.089500377374065,1.5296654655390967 L 25.603986555394272,1.410038161338548" fill="none" stroke="rgb(255,73,12)" stroke-width="0.1"/>
  <path d="M 25.603986555394272,1.410038161338548 L 25.11839574946987,1.2907237345273188" fill="none" stroke="rgb(255,73,12)" stroke-width="0.1"/>
  <path d="M 25.11839574946987,1.2907237345273188 L 24.632728161226737,1.1717222346470635" fill="none" stroke="rgb(255,73,12)" stroke-width="0.1"/>
  <path d="M 24.632728161226737,1.1717222346470635 L 24.146983992322703,1.053033711109265" fill="none" stroke="rgb(255,73,12)" stroke-width="0.1"/>
  <path d="M 24.146983992322703,1.053033711109265 L 23.661163444448107,0.9346582131956893" fill="none" stroke="rgb(255,73,12)" stroke-width="0.1"/>
  <path d="M 23.661163444448107,0.9346582131956893 L 23.175266719323872,0.8165957900575904" fill="none" stroke="rgb(255,73,12)" stroke-width="0.1"/>
  <path d="M 23.175266719323872,0.8165957900575904 L 22.689294018703322,0.69884649071696" fill="none" stroke="rgb(255,73,12)" stroke-width="0.1"/>
  <path d="M 22.689294018703322,0.69884649071696 L 22.203245544371043,0.5814103640653911" fill="none" stroke="rgb(255,73,12)" stroke-width="0.1"/>
  <path d="M 22.203245544371043,0.5814103640653911 L 21.71712149814323,0.464287458864419" fill="none" stroke="rgb(255,73,12)" stroke-width="0.1"/>
  <path d="M 21.71712149814323,0.464287458864419 L 21.230922081867334,0.34747782374563485" fill="none" stroke="rgb(255,73,12)" stroke-width="0.1"/>
  <path d="M 21.230922081867334,0.34747782374563485 L 20.74464749742185,0.2309815072104584" fill="none" stroke="rgb(255,73,12)" stroke-width="0.1"/>
  <path d="M 20.74464749742185,0.2309815072104584 L 20.258297946717335,0.11479855763025171" fill="none" stroke="rgb(255,73,12)" stroke-width="0.1"/>
 </g>
 <g id="layerA-WALL" inkscape:groupmode="layer" inkscape:label="A-WALL">
  <path d="M 100.0,81.6099501074992 L 91.01504049999994,92.39761499999997" fill="none" instance-id="-1" semantic-id="1" stroke="rgb(0,178,178)" stroke-width="0.1"/>
  <path d="M 97.3200405,81.70361499999999 L 89.93904050000003,90.56461499999997" fill="none" instance-id="-1" semantic-id="1" stroke="rgb(0,178,178)" stroke-width="0.1"/>
  <path d="M 91.01504049999994,92.39761499999997 L 89.93904050000003,90.56461499999997" fill="none" instance-id="-1" semantic-id="1" stroke="rgb(0,178,178)" stroke-width="0.1"/>
  <path d="M 50.066040499999986,42.34161499999999 L 48.61404049999999,44.084614999999985" fill="none" instance-id="-1" semantic-id="1" stroke="rgb(0,178,178)" stroke-width="0.1"/>
  <path d="M 49.810040500000014,39.52561499999999 L 47.86904049999998,41.854614999999995" fill="none" instance-id="-1" semantic-id="1" stroke="rgb(0,178,178)" stroke-width="0.1"/>
  <path d="M 50.066040499999986,42.34161499999999 L 53.97504049999998,45.59761499999999" fill="none" instance-id="-1" semantic-id="1" stroke="rgb(0,178,178)" stroke-width="0.1"/>
  <path d="M 53.97504049999998,45.59761499999999 L 55.25504049999995,44.06161499999999" fill="none" instance-id="-1" semantic-id="1" stroke="rgb(0,178,178)" stroke-width="0.1"/>
  <path d="M 55.25504049999995,44.06161499999999 L 49.810040500000014,39.52561499999999" fill="none" instance-id="-1" semantic-id="1" stroke="rgb(0,178,178)" stroke-width="0.1"/>
  <path d="M 100.0,81.33329531093221 L 85.78404049999995,69.491615" fill="none" instance-id="-1" semantic-id="1" stroke="rgb(0,178,178)" stroke-width="0.1"/>
  <path d="M 85.78404049999995,69.491615 L 84.50404049999997,71.02861499999997" fill="none" instance-id="-1" semantic-id="1" stroke="rgb(0,178,178)" stroke-width="0.1"/>
  <path d="M 84.50404049999997,71.02861499999997 L 97.3200405,81.70361499999999" fill="none" instance-id="-1" semantic-id="1" stroke="rgb(0,178,178)" stroke-width="0.1"/>
  <path d="M 65.50004049999995,55.19861499999999 L 72.9790405,61.427614999999975" fill="none" instance-id="-1" semantic-id="1" stroke="rgb(0,178,178)" stroke-width="0.1"/>
  <path d="M 72.9790405,61.427614999999975 L 74.25904049999997,59.890615" fill="none" instance-id="-1" semantic-id="1" stroke="rgb(0,178,178)" stroke-width="0.1"/>
  <path d="M 74.25904049999997,59.890615 L 66.78004050000004,53.66161499999998" fill="none" instance-id="-1" semantic-id="1" stroke="rgb(0,178,178)" stroke-width="0.1"/>
  <path d="M 66.78004050000004,53.66161499999998 L 65.50004049999995,55.19861499999999" fill="none" instance-id="-1" semantic-id="1" stroke="rgb(0,178,178)" stroke-width="0.1"/>
  <path d="M 47.86904049999998,41.854614999999995 L 35.94604049999998,39.04761499999998" fill="none" instance-id="-1" semantic-id="1" stroke="rgb(0,178,178)" stroke-width="0.1"/>
  <path d="M 35.94604049999998,39.04761499999998 L 35.487040500000035,40.99361499999998" fill="none" instance-id="-1" semantic-id="1" stroke="rgb(0,178,178)" stroke-width="0.1"/>
  <path d="M 35.487040500000035,40.99361499999998 L 48.61404049999999,44.084614999999985" fill="none" instance-id="-1" semantic-id="1" stroke="rgb(0,178,178)" stroke-width="0.1"/>
  <path d="M 2.85304050000002,33.310614999999984 L 12.126040499999931,35.49361499999998" fill="none" instance-id="-1" semantic-id="1" stroke="rgb(0,178,178)" stroke-width="0.1"/>
  <path d="M 12.126040499999931,35.49361499999998 L 12.585040499999991,33.546614999999974" fill="none" instance-id="-1" semantic-id="1" stroke="rgb(0,178,178)" stroke-width="0.1"/>
  <path d="M 12.585040499999991,33.546614999999974 L 3.31104049999999,31.36361499999998" fill="none" instance-id="-1" semantic-id="1" stroke="rgb(0,178,178)" stroke-width="0.1"/>
  <path d="M 3.31104049999999,31.36361499999998 L 2.85304050000002,33.310614999999984" fill="none" instance-id="-1" semantic-id="1" stroke="rgb(0,178,178)" stroke-width="0.1"/>
 </g>
 <g id="layerA-WALL-CURT-GLAZ" inkscape:groupmode="layer" inkscape:label="A-WALL-CURT-GLAZ">
  <path d="M 95.82494087784949,99.66227724497111 L 95.61742333732673,99.20240590530113" fill="none" stroke="rgb(255,133,12)" stroke-width="0.1"/>
  <path d="M 95.61742333732673,99.20240590530113 L 95.40730221518379,98.74371832894457" fill="none" stroke="rgb(255,133,12)" stroke-width="0.1"/>
  <path d="M 95.40730221518379,98.74371832894457 L 95.19458426376491,98.28622925604924" fill="none" stroke="rgb(255,133,12)" stroke-width="0.1"/>
  <path d="M 95.19458426376491,98.28622925604924 L 94.97927631886466,97.82995338824853" fill="none" stroke="rgb(255,133,12)" stroke-width="0.1"/>
  <path d="M 94.97927631886466,97.82995338824853 L 94.76138529950833,97.37490538818884" fill="none" stroke="rgb(255,133,12)" stroke-width="0.1"/>
  <path d="M 94.76138529950833,97.37490538818884 L 94.54091820772965,96.92109987905843" fill="none" stroke="rgb(255,133,12)" stroke-width="0.1"/>
  <path d="M 94.54091820772965,96.92109987905843 L 94.31788212834545,96.46855144411762" fill="none" stroke="rgb(255,133,12)" stroke-width="0.1"/>
  <path d="M 94.31788212834545,96.46855144411762 L 94.09228422872843,96.01727462622992" fill="none" stroke="rgb(255,133,12)" stroke-width="0.1"/>
  <path d="M 94.09228422872843,96.01727462622992 L 93.8641317585766,95.56728392739487" fill="none" stroke="rgb(255,133,12)" stroke-width="0.1"/>
  <path d="M 93.8641317585766,95.56728392739487 L 93.63343204968021,95.1185938082819" fill="none" stroke="rgb(255,133,12)" stroke-width="0.1"/>
  <path d="M 93.63343204968021,95.1185938082819 L 93.40019251568651,94.67121868776576" fill="none" stroke="rgb(255,133,12)" stroke-width="0.1"/>
  <path d="M 93.40019251568651,94.67121868776576 L 93.16442065186095,94.22517294246302" fill="none" stroke="rgb(255,133,12)" stroke-width="0.1"/>
  <path d="M 93.16442065186095,94.22517294246302 L 92.9261240348468,93.78047090627012" fill="none" stroke="rgb(255,133,12)" stroke-width="0.1"/>
  <path d="M 92.9261240348468,93.78047090627012 L 92.68531032242151,93.33712686990287" fill="none" stroke="rgb(255,133,12)" stroke-width="0.1"/>
  <path d="M 92.68531032242151,93.33712686990287 L 92.44198725325066,92.89515508043692" fill="none" stroke="rgb(255,133,12)" stroke-width="0.1"/>
  <path d="M 92.44198725325066,92.89515508043692 L 92.1961626466391,92.45456974085022" fill="none" stroke="rgb(255,133,12)" stroke-width="0.1"/>
  <path d="M 92.1961626466391,92.45456974085022 L 91.94784440227977,92.0153850095665" fill="none" stroke="rgb(255,133,12)" stroke-width="0.1"/>
  <path d="M 91.94784440227977,92.0153850095665 L 91.69704049999996,91.57761499999998" fill="none" stroke="rgb(255,133,12)" stroke-width="0.1"/>
  <path d="M 94.87184848025117,99.98011188760859 L 94.66542384953004,99.52404610075692" fill="none" stroke="rgb(255,133,12)" stroke-width="0.1"/>
  <path d="M 94.66542384953004,99.52404610075692 L 94.45640814194132,99.06916197915433" fill="none" stroke="rgb(255,133,12)" stroke-width="0.1"/>
  <path d="M 94.45640814194132,99.06916197915433 L 94.24480812153809,98.61547424351414" fill="none" stroke="rgb(255,133,12)" stroke-width="0.1"/>
  <path d="M 94.24480812153809,98.61547424351414 L 94.03063063600541,98.16299757583295" fill="none" stroke="rgb(255,133,12)" stroke-width="0.1"/>
  <path d="M 94.03063063600541,98.16299757583295 L 93.81388261643917,97.71174661891536" fill="none" stroke="rgb(255,133,12)" stroke-width="0.1"/>
  <path d="M 93.81388261643917,97.71174661891536 L 93.59457107712103,97.2617359759002" fill="none" stroke="rgb(255,133,12)" stroke-width="0.1"/>
  <path d="M 93.59457107712103,97.2617359759002 L 93.37270311529232,96.81298020978801" fill="none" stroke="rgb(255,133,12)" stroke-width="0.1"/>
  <path d="M 93.37270311529232,96.81298020978801 L 93.14828591092362,96.36549384296964" fill="none" stroke="rgb(255,133,12)" stroke-width="0.1"/>
  <path d="M 93.14828591092362,96.36549384296964 L 92.92132672648302,95.91929135675628" fill="none" stroke="rgb(255,133,12)" stroke-width="0.1"/>
  <path d="M 92.92132672648302,95.91929135675628 L 92.69183290670037,95.47438719091093" fill="none" stroke="rgb(255,133,12)" stroke-width="0.1"/>
  <path d="M 92.69183290670037,95.47438719091093 L 92.45981187833047,95.03079574318099" fill="none" stroke="rgb(255,133,12)" stroke-width="0.1"/>
  <path d="M 92.45981187833047,95.03079574318099 L 92.22527114991192,94.58853136883249" fill="none" stroke="rgb(255,133,12)" stroke-width="0.1"/>
  <path d="M 92.22527114991192,94.58853136883249 L 91.98821831152475,94.14760838018532" fill="none" stroke="rgb(255,133,12)" stroke-width="0.1"/>
  <path d="M 91.98821831152475,94.14760838018532 L 91.7486610345444,93.70804104615021" fill="none" stroke="rgb(255,133,12)" stroke-width="0.1"/>
  <path d="M 91.7486610345444,93.70804104615021 L 91.50660707139355,93.269843591767" fill="none" stroke="rgb(255,133,12)" stroke-width="0.1"/>
  <path d="M 91.50660707139355,93.269843591767 L 91.26206425529142,92.83303019774414" fill="none" stroke="rgb(255,133,12)" stroke-width="0.1"/>
  <path d="M 91.26206425529142,92.83303019774414 L 91.01504049999994,92.39761499999997" fill="none" stroke="rgb(255,133,12)" stroke-width="0.1"/>
  <path d="M 96.9338893096018,99.69478283163053 L 96.73000969167197,99.23635860155275" fill="none" stroke="rgb(255,133,12)" stroke-width="0.1"/>
  <path d="M 96.73000969167197,99.23635860155275 L 96.52357770600304,98.7790780436647" fill="none" stroke="rgb(255,133,12)" stroke-width="0.1"/>
  <path d="M 96.52357770600304,98.7790780436647 L 96.31459976777921,98.32295536864694" fill="none" stroke="rgb(255,133,12)" stroke-width="0.1"/>
  <path d="M 96.31459976777921,98.32295536864694 L 96.10308237130403,97.86800475119713" fill="none" stroke="rgb(255,133,12)" stroke-width="0.1"/>
  <path d="M 96.10308237130403,97.86800475119713 L 95.88903208979832,97.41424032958946" fill="none" stroke="rgb(255,133,12)" stroke-width="0.1"/>
  <path d="M 95.88903208979832,97.41424032958946 L 95.67245557519641,96.96167620523522" fill="none" stroke="rgb(255,133,12)" stroke-width="0.1"/>
  <path d="M 95.67245557519641,96.96167620523522 L 95.45335955793894,96.51032644224478" fill="none" stroke="rgb(255,133,12)" stroke-width="0.1"/>
  <path d="M 95.45335955793894,96.51032644224478 L 95.23175084676393,96.06020506699033" fill="none" stroke="rgb(255,133,12)" stroke-width="0.1"/>
  <path d="M 95.23175084676393,96.06020506699033 L 95.0076363284951,95.61132606767009" fill="none" stroke="rgb(255,133,12)" stroke-width="0.1"/>
  <path d="M 95.0076363284951,95.61132606767009 L 94.78102296782788,95.16370339387356" fill="none" stroke="rgb(255,133,12)" stroke-width="0.1"/>
  <path d="M 94.78102296782788,95.16370339387356 L 94.55191780711323,94.71735095614804" fill="none" stroke="rgb(255,133,12)" stroke-width="0.1"/>
  <path d="M 94.55191780711323,94.71735095614804 L 94.32032796613805,94.27228262556639" fill="none" stroke="rgb(255,133,12)" stroke-width="0.1"/>
  <path d="M 94.32032796613805,94.27228262556639 L 94.08626064190491,93.82851223329584" fill="none" stroke="rgb(255,133,12)" stroke-width="0.1"/>
  <path d="M 94.08626064190491,93.82851223329584 L 93.8497231084076,93.38605357016826" fill="none" stroke="rgb(255,133,12)" stroke-width="0.1"/>
  <path d="M 93.8497231084076,93.38605357016826 L 93.61072271640546,92.9449203862516" fill="none" stroke="rgb(255,133,12)" stroke-width="0.1"/>
  <path d="M 93.61072271640546,92.9449203862516 L 93.369266893195,92.50512639042248" fill="none" stroke="rgb(255,133,12)" stroke-width="0.1"/>
  <path d="M 93.369266893195,92.50512639042248 L 93.12536314237855,92.06668524994029" fill="none" stroke="rgb(255,133,12)" stroke-width="0.1"/>
  <path d="M 93.12536314237855,92.06668524994029 L 92.87901904363196,91.62961059002242" fill="none" stroke="rgb(255,133,12)" stroke-width="0.1"/>
  <path d="M 92.87901904363196,91.62961059002242 L 92.63024225246818,91.19391599342077" fill="none" stroke="rgb(255,133,12)" stroke-width="0.1"/>
  <path d="M 92.63024225246818,91.19391599342077 L 92.37904049999997,90.759615" fill="none" stroke="rgb(255,133,12)" stroke-width="0.1"/>
 </g>
 <g id="layerA-WIN" inkscape:groupmode="layer" inkscape:label="A-WIN">
  <path d="M 12.585040499999991,33.546614999999974 L 35.94604049999998,39.04761499999998" fill="none" instance-id="4" semantic-id="4" stroke="rgb(255,133,12)" stroke-width="0.1"/>
  <path d="M 0.0,30.584079759642123 L 3.31104049999999,31.36361499999998" fill="none" stroke="rgb(255,133,12)" stroke-width="0.1"/>
  <path d="M 35.71704049999994,40.02061499999999 L 38.39804049999998,28.631614999999982" fill="none" instance-id="4" semantic-id="4" stroke="rgb(255,133,12)" stroke-width="0.1"/>
  <path d="M 35.13304049999999,39.88361499999999 L 37.81404050000003,28.494614999999982" fill="none" instance-id="4" semantic-id="4" stroke="rgb(255,133,12)" stroke-width="0.1"/>
  <path d="M 35.71704049999994,40.02061499999999 L 35.13304049999999,39.88361499999999" fill="none" instance-id="4" semantic-id="4" stroke="rgb(255,133,12)" stroke-width="0.1"/>
  <path d="M 37.81404050000003,28.494614999999982 L 38.39804049999998,28.631614999999982" fill="none" instance-id="4" semantic-id="4" stroke="rgb(255,133,12)" stroke-width="0.1"/>
  <path d="M 12.939040500000033,34.65761499999999 L 15.621040499999935,23.269614999999988" fill="none" instance-id="4" semantic-id="4" stroke="rgb(255,133,12)" stroke-width="0.1"/>
  <path d="M 12.355040499999973,34.52061499999999 L 15.03704049999999,23.131614999999982" fill="none" instance-id="4" semantic-id="4" stroke="rgb(255,133,12)" stroke-width="0.1"/>
  <path d="M 15.621040499999935,23.269614999999988 L 15.03704049999999,23.131614999999982" fill="none" instance-id="4" semantic-id="4" stroke="rgb(255,133,12)" stroke-width="0.1"/>
  <path d="M 12.355040499999973,34.52061499999999 L 12.939040500000033,34.65761499999999" fill="none" instance-id="4" semantic-id="4" stroke="rgb(255,133,12)" stroke-width="0.1"/>
  <path d="M 72.9790405,61.427614999999975 L 84.50404049999997,71.02861499999997" fill="none" instance-id="2" semantic-id="9" stroke="rgb(255,133,12)" stroke-width="0.1"/>
  <path d="M 74.25904049999997,59.890615 L 85.78404049999995,69.491615" fill="none" instance-id="2" semantic-id="9" stroke="rgb(255,133,12)" stroke-width="0.1"/>
  <path d="M 85.35704050000004,70.003615 L 73.83204049999995,60.403614999999974" fill="none" instance-id="2" semantic-id="9" stroke="rgb(255,133,12)" stroke-width="0.1"/>
  <path d="M 84.9310405,70.515615 L 73.40504050000004,60.915614999999974" fill="none" instance-id="2" semantic-id="9" stroke="rgb(255,133,12)" stroke-width="0.1"/>
  <path d="M 72.9790405,61.427614999999975 L 74.25904049999997,59.890615" fill="none" instance-id="2" semantic-id="9" stroke="rgb(255,133,12)" stroke-width="0.1"/>
  <path d="M 84.50404049999997,71.02861499999997 L 85.78404049999995,69.491615" fill="none" instance-id="2" semantic-id="9" stroke="rgb(255,133,12)" stroke-width="0.1"/>
  <path d="M 55.25504049999995,44.06161499999999 L 66.78004050000004,53.66161499999998" fill="none" instance-id="3" semantic-id="9" stroke="rgb(255,133,12)" stroke-width="0.1"/>
  <path d="M 53.97504049999998,45.59761499999999 L 65.50004049999995,55.19861499999999" fill="none" instance-id="3" semantic-id="9" stroke="rgb(255,133,12)" stroke-width="0.1"/>
  <path d="M 65.92704049999998,54.68661499999999 L 54.4020405,45.08561499999999" fill="none" instance-id="3" semantic-id="9" stroke="rgb(255,133,12)" stroke-width="0.1"/>
  <path d="M 66.3540405,54.173614999999984 L 54.82804049999993,44.57361499999999" fill="none" instance-id="3" semantic-id="9" stroke="rgb(255,133,12)" stroke-width="0.1"/>
  <path d="M 55.25504049999995,44.06161499999999 L 53.97504049999998,45.59761499999999" fill="none" instance-id="3" semantic-id="9" stroke="rgb(255,133,12)" stroke-width="0.1"/>
  <path d="M 66.78004050000004,53.66161499999998 L 65.50004049999995,55.19861499999999" fill="none" instance-id="3" semantic-id="9" stroke="rgb(255,133,12)" stroke-width="0.1"/>
  <path d="M 3.0820404999999482,32.336614999999995 L 5.764040499999965,20.94861499999999" fill="none" stroke="rgb(255,133,12)" stroke-width="0.1"/>
  <path d="M 2.498040500000002,32.199614999999994 L 5.180040500000018,20.810614999999984" fill="none" stroke="rgb(255,133,12)" stroke-width="0.1"/>
  <path d="M 3.0820404999999482,32.336614999999995 L 2.498040500000002,32.199614999999994" fill="none" stroke="rgb(255,133,12)" stroke-width="0.1"/>
  <path d="M 5.180040500000018,20.810614999999984 L 5.764040499999965,20.94861499999999" fill="none" stroke="rgb(255,133,12)" stroke-width="0.1"/>
  <path d="M 37.81304049999994,28.498615 A 11.7,11.7 0.0 0,0 24.036040500000013,37.27061499999999" fill="none" instance-id="4" semantic-id="4" stroke="rgb(255,133,12)" stroke-width="0.1"/>
  <path d="M 24.036040500000013,37.27061499999999 A 11.7,11.7 0.0 0,0 15.62004049999996,23.272614999999973" fill="none" instance-id="4" semantic-id="4" stroke="rgb(255,133,12)" stroke-width="0.1"/>
  <path d="M 5.179040500000042,20.814614999999975 L 4.685399655558854,20.722681340904956" fill="none" stroke="rgb(255,133,12)" stroke-width="0.1"/>
  <path d="M 4.685399655558854,20.722681340904956 L 4.188268815735341,20.652013037744695" fill="none" stroke="rgb(255,133,12)" stroke-width="0.1"/>
  <path d="M 4.188268815735341,20.652013037744695 L 3.6885636290815,20.602740252086846" fill="none" stroke="rgb(255,133,12)" stroke-width="0.1"/>
  <path d="M 3.6885636290815,20.602740252086846 L 3.187204485752204,20.574953737815974" fill="none" stroke="rgb(255,133,12)" stroke-width="0.1"/>
  <path d="M 3.187204485752204,20.574953737815974 L 2.6851148222693837,20.568704673976953" fill="none" stroke="rgb(255,133,12)" stroke-width="0.1"/>
  <path d="M 2.6851148222693837,20.568704673976953 L 2.1832194206753,20.58400457050999" fill="none" stroke="rgb(255,133,12)" stroke-width="0.1"/>
  <path d="M 2.1832194206753,20.58400457050999 L 1.6824427052079045,20.62082524705093" fill="none" stroke="rgb(255,133,12)" stroke-width="0.1"/>
  <path d="M 1.6824427052079045,20.62082524705093 L 1.1837070396348963,20.679098884835668" fill="none" stroke="rgb(255,133,12)" stroke-width="0.1"/>
  <path d="M 1.1837070396348963,20.679098884835668 L 0.6879310283828772,20.758718151613238" fill="none" stroke="rgb(255,133,12)" stroke-width="0.1"/>
  <path d="M 0.6879310283828772,20.758718151613238 L 0.19602782459060109,20.859536399337458" fill="none" stroke="rgb(255,133,12)" stroke-width="0.1"/>
 </g>
 <g id="layerA-WIN-TEXT" inkscape:groupmode="layer" inkscape:label="A-WIN-TEXT">
  <text fill="rgb(0,0,0)" font-family="Noto Sans CJK SC" font-size="2" transform="rotate(-166.751,29.92204049999998,42.378614999999996)" x="29.92204049999998" y="42.378614999999996">
   LM2440
  </text>
  <text fill="rgb(0,0,0)" font-family="Noto Sans CJK SC" font-size="2" transform="rotate(-140.206,90.42004050000003,62.332614999999976)" x="90.42004050000003" y="62.332614999999976">
   LC1540
  </text>
  <text fill="rgb(0,0,0)" font-family="Noto Sans CJK SC" font-size="2" transform="rotate(-140.206,71.45204049999995,46.459614999999985)" x="71.45204049999995" y="46.459614999999985">
   LC1540
  </text>
 </g>
</svg>