<?xml version="1.0" encoding="utf-8"?>
<svg style="background-color: #000;" version="1.1" viewBox="0 0 100.0 100.0" xmlns="http://www.w3.org/2000/svg" xmlns:inkscape="http://www.inkscape.org/namespaces/inkscape">
 <g id="layerA-ANNO-DIMS" inkscape:groupmode="layer" inkscape:label="A-ANNO-DIMS">
  <path d="M 4.88581499999998,62.511615000000006 L 4.88581499999998,79.31761499999993" fill="none" stroke="rgb(0,178,0)" stroke-width="0.1"/>
  <path d="M 4.88581499999998,75.56761499999993 L 6.38581499999998,75.56761499999993" fill="none" stroke="rgb(0,178,0)" stroke-width="0.1"/>
  <path d="M 0.0,75.56761499999993 L 4.88581499999998,75.56761499999993" fill="none" stroke="rgb(0,178,0)" stroke-width="0.1"/>
 </g>
 <g id="layerA-DOTE" inkscape:groupmode="layer" inkscape:label="A-DOTE">
  <path d="M 4.88581499999998,100.0 L 4.88581499999998,0.0" fill="none" stroke="rgb(107,53,53)" stroke-width="0.1"/>
  <path d="M 94.88581499999998,100.0 L 94.88581499999998,0.0" fill="none" stroke="rgb(107,53,53)" stroke-width="0.1"/>
  <path d="M 0.0,26.336614999999995 L 100.0,26.336614999999995" fill="none" stroke="rgb(107,53,53)" stroke-width="0.1"/>
 </g>
 <g id="layerA-HATCH" inkscape:groupmode="layer" inkscape:label="A-HATCH">
  <path d="M 6.591814999999997,47.336614999999995 L 6.591814999999997,49.336614999999995" fill="none" stroke="rgb(92,92,92)" stroke-width="0.1"/>
  <path d="M 8.004815000000008,47.336614999999995 L 8.004815000000008,49.336614999999995" fill="none" stroke="rgb(92,92,92)" stroke-width="0.1"/>
  <path d="M 9.417815000000019,47.336614999999995 L 9.417815000000019,49.336614999999995" fill="none" stroke="rgb(92,92,92)" stroke-width="0.1"/>
  <path d="M 10.82981499999994,47.336614999999995 L 10.82981499999994,49.336614999999995" fill="none" stroke="rgb(92,92,92)" stroke-width="0.1"/>
  <path d="M 12.24281499999995,47.336614999999995 L 12.24281499999995,49.336614999999995" fill="none" stroke="rgb(92,92,92)" stroke-width="0.1"/>
  <path d="M 13.655814999999961,47.336614999999995 L 13.655814999999961,49.336614999999995" fill="none" stroke="rgb(92,92,92)" stroke-width="0.1"/>
  <path d="M 15.068814999999972,47.336614999999995 L 15.068814999999972,49.336614999999995" fill="none" stroke="rgb(92,92,92)" stroke-width="0.1"/>
  <path d="M 16.480815000000007,47.336614999999995 L 16.480815000000007,49.336614999999995" fill="none" stroke="rgb(92,92,92)" stroke-width="0.1"/>
  <path d="M 17.893815000000018,47.336614999999995 L 17.893815000000018,49.336614999999995" fill="none" stroke="rgb(92,92,92)" stroke-width="0.1"/>
  <path d="M 19.30681500000003,47.336614999999995 L 19.30681500000003,49.336614999999995" fill="none" stroke="rgb(92,92,92)" stroke-width="0.1"/>
  <path d="M 20.71881499999995,47.336614999999995 L 20.71881499999995,49.336614999999995" fill="none" stroke="rgb(92,92,92)" stroke-width="0.1"/>
  <path d="M 22.13181499999996,47.336614999999995 L 22.13181499999996,49.336614999999995" fill="none" stroke="rgb(92,92,92)" stroke-width="0.1"/>
  <path d="M 23.54481499999997,47.336614999999995 L 23.54481499999997,49.336614999999995" fill="none" stroke="rgb(92,92,92)" stroke-width="0.1"/>
  <path d="M 24.956815000000006,47.336614999999995 L 24.956815000000006,49.336614999999995" fill="none" stroke="rgb(92,92,92)" stroke-width="0.1"/>
  <path d="M 26.369815000000017,47.336614999999995 L 26.369815000000017,49.336614999999995" fill="none" stroke="rgb(92,92,92)" stroke-width="0.1"/>
  <path d="M 27.782815000000028,47.336614999999995 L 27.782815000000028,49.336614999999995" fill="none" stroke="rgb(92,92,92)" stroke-width="0.1"/>
  <path d="M 29.195814999999925,47.336614999999995 L 29.195814999999925,49.336614999999995" fill="none" stroke="rgb(92,92,92)" stroke-width="0.1"/>
  <path d="M 30.60781499999996,47.336614999999995 L 30.60781499999996,49.336614999999995" fill="none" stroke="rgb(92,92,92)" stroke-width="0.1"/>
  <path d="M 32.02081499999997,47.336614999999995 L 32.02081499999997,49.336614999999995" fill="none" stroke="rgb(92,92,92)" stroke-width="0.1"/>
  <path d="M 33.43381499999998,47.336614999999995 L 33.43381499999998,49.336614999999995" fill="none" stroke="rgb(92,92,92)" stroke-width="0.1"/>
  <path d="M 34.845815000000016,47.336614999999995 L 34.845815000000016,49.336614999999995" fill="none" stroke="rgb(92,92,92)" stroke-width="0.1"/>
  <path d="M 36.25881500000003,47.336614999999995 L 36.25881500000003,49.336614999999995" fill="none" stroke="rgb(92,92,92)" stroke-width="0.1"/>
  <path d="M 37.671814999999924,47.336614999999995 L 37.671814999999924,49.336614999999995" fill="none" stroke="rgb(92,92,92)" stroke-width="0.1"/>
  <path d="M 39.08381499999996,47.336614999999995 L 39.08381499999996,49.336614999999995" fill="none" stroke="rgb(92,92,92)" stroke-width="0.1"/>
  <path d="M 40.49681499999997,47.336614999999995 L 40.49681499999997,49.336614999999995" fill="none" stroke="rgb(92,92,92)" stroke-width="0.1"/>
  <path d="M 41.90981499999998,47.336614999999995 L 41.90981499999998,49.336614999999995" fill="none" stroke="rgb(92,92,92)" stroke-width="0.1"/>
  <path d="M 57.44881499999997,47.336614999999995 L 57.44881499999997,49.336614999999995" fill="none" stroke="rgb(92,92,92)" stroke-width="0.1"/>
  <path d="M 58.86181499999998,47.336614999999995 L 58.86181499999998,49.336614999999995" fill="none" stroke="rgb(92,92,92)" stroke-width="0.1"/>
  <path d="M 60.27481499999999,47.336614999999995 L 60.27481499999999,49.336614999999995" fill="none" stroke="rgb(92,92,92)" stroke-width="0.1"/>
  <path d="M 61.687815,47.336614999999995 L 61.687815,49.336614999999995" fill="none" stroke="rgb(92,92,92)" stroke-width="0.1"/>
  <path d="M 63.099815000000035,47.336614999999995 L 63.099815000000035,49.336614999999995" fill="none" stroke="rgb(92,92,92)" stroke-width="0.1"/>
  <path d="M 64.51281499999993,47.336614999999995 L 64.51281499999993,49.336614999999995" fill="none" stroke="rgb(92,92,92)" stroke-width="0.1"/>
  <path d="M 65.92581499999994,47.336614999999995 L 65.92581499999994,49.336614999999995" fill="none" stroke="rgb(92,92,92)" stroke-width="0.1"/>
  <path d="M 67.33781499999998,47.336614999999995 L 67.33781499999998,49.336614999999995" fill="none" stroke="rgb(92,92,92)" stroke-width="0.1"/>
  <path d="M 68.75081499999999,47.336614999999995 L 68.75081499999999,49.336614999999995" fill="none" stroke="rgb(92,92,92)" stroke-width="0.1"/>
  <path d="M 70.163815,47.336614999999995 L 70.163815,49.336614999999995" fill="none" stroke="rgb(92,92,92)" stroke-width="0.1"/>
  <path d="M 71.57581500000003,47.336614999999995 L 71.57581500000003,49.336614999999995" fill="none" stroke="rgb(92,92,92)" stroke-width="0.1"/>
  <path d="M 72.98881499999993,47.336614999999995 L 72.98881499999993,49.336614999999995" fill="none" stroke="rgb(92,92,92)" stroke-width="0.1"/>
  <path d="M 74.40181499999994,47.336614999999995 L 74.40181499999994,49.336614999999995" fill="none" stroke="rgb(92,92,92)" stroke-width="0.1"/>
  <path d="M 75.81481499999995,47.336614999999995 L 75.81481499999995,49.336614999999995" fill="none" stroke="rgb(92,92,92)" stroke-width="0.1"/>
  <path d="M 77.22681499999999,47.336614999999995 L 77.22681499999999,49.336614999999995" fill="none" stroke="rgb(92,92,92)" stroke-width="0.1"/>
  <path d="M 78.639815,47.336614999999995 L 78.639815,49.336614999999995" fill="none" stroke="rgb(92,92,92)" stroke-width="0.1"/>
  <path d="M 80.05281500000001,47.336614999999995 L 80.05281500000001,49.336614999999995" fill="none" stroke="rgb(92,92,92)" stroke-width="0.1"/>
  <path d="M 81.46481499999993,47.336614999999995 L 81.46481499999993,49.336614999999995" fill="none" stroke="rgb(92,92,92)" stroke-width="0.1"/>
  <path d="M 82.87781499999994,47.336614999999995 L 82.87781499999994,49.336614999999995" fill="none" stroke="rgb(92,92,92)" stroke-width="0.1"/>
  <path d="M 84.29081499999995,47.336614999999995 L 84.29081499999995,49.336614999999995" fill="none" stroke="rgb(92,92,92)" stroke-width="0.1"/>
  <path d="M 85.70281499999999,47.336614999999995 L 85.70281499999999,49.336614999999995" fill="none" stroke="rgb(92,92,92)" stroke-width="0.1"/>
  <path d="M 87.115815,47.336614999999995 L 87.115815,49.336614999999995" fill="none" stroke="rgb(92,92,92)" stroke-width="0.1"/>
  <path d="M 88.52881500000001,47.336614999999995 L 88.52881500000001,49.336614999999995" fill="none" stroke="rgb(92,92,92)" stroke-width="0.1"/>
  <path d="M 89.94181500000002,47.336614999999995 L 89.94181500000002,49.336614999999995" fill="none" stroke="rgb(92,92,92)" stroke-width="0.1"/>
  <path d="M 91.35381499999994,47.336614999999995 L 91.35381499999994,49.336614999999995" fill="none" stroke="rgb(92,92,92)" stroke-width="0.1"/>
  <path d="M 92.76681499999995,47.336614999999995 L 92.76681499999995,49.336614999999995" fill="none" stroke="rgb(92,92,92)" stroke-width="0.1"/>
  <path d="M 94.17981499999996,47.336614999999995 L 94.17981499999996,49.14061499999997" fill="none" stroke="rgb(92,92,92)" stroke-width="0.1"/>
  <path d="M 95.58881499999995,47.336614999999995 L 95.58881499999995,49.13861499999996" fill="none" stroke="rgb(92,92,92)" stroke-width="0.1"/>
  <path d="M 96.99481500000002,47.336614999999995 L 96.99481500000002,49.336614999999995" fill="none" stroke="rgb(92,92,92)" stroke-width="0.1"/>
  <path d="M 98.40181499999994,47.336614999999995 L 98.40181499999994,49.336614999999995" fill="none" stroke="rgb(92,92,92)" stroke-width="0.1"/>
  <path d="M 99.807815,47.336614999999995 L 99.807815,49.336614999999995" fill="none" stroke="rgb(92,92,92)" stroke-width="0.1"/>
  <path d="M 93.88581499999998,99.85561499999994 L 95.88581499999998,99.85561499999994" fill="none" stroke="rgb(92,92,92)" stroke-width="0.1"/>
  <path d="M 93.88581499999998,98.43261499999994 L 95.88581499999998,98.43261499999994" fill="none" stroke="rgb(92,92,92)" stroke-width="0.1"/>
  <path d="M 93.88581499999998,97.00961499999994 L 95.88581499999998,97.00961499999994" fill="none" stroke="rgb(92,92,92)" stroke-width="0.1"/>
  <path d="M 93.88581499999998,95.58661499999994 L 95.88581499999998,95.58661499999994" fill="none" stroke="rgb(92,92,92)" stroke-width="0.1"/>
  <path d="M 93.88581499999998,94.16361499999994 L 95.88581499999998,94.16361499999994" fill="none" stroke="rgb(92,92,92)" stroke-width="0.1"/>
  <path d="M 93.88581499999998,92.74061499999993 L 95.88581499999998,92.74061499999993" fill="none" stroke="rgb(92,92,92)" stroke-width="0.1"/>
  <path d="M 93.88581499999998,91.31761499999993 L 95.88581499999998,91.31761499999993" fill="none" stroke="rgb(92,92,92)" stroke-width="0.1"/>
  <path d="M 93.88581499999998,89.89461499999993 L 95.88581499999998,89.89461499999993" fill="none" stroke="rgb(92,92,92)" stroke-width="0.1"/>
  <path d="M 93.88581499999998,88.47161500000004 L 95.88581499999998,88.47161500000004" fill="none" stroke="rgb(92,92,92)" stroke-width="0.1"/>
  <path d="M 93.88581499999998,87.04861500000004 L 95.88581499999998,87.04861500000004" fill="none" stroke="rgb(92,92,92)" stroke-width="0.1"/>
  <path d="M 93.88581499999998,85.62561500000004 L 95.88581499999998,85.62561500000004" fill="none" stroke="rgb(92,92,92)" stroke-width="0.1"/>
  <path d="M 93.88581499999998,84.20261500000004 L 95.88581499999998,84.20261500000004" fill="none" stroke="rgb(92,92,92)" stroke-width="0.1"/>
  <path d="M 93.88581499999998,82.77961500000004 L 95.88581499999998,82.77961500000004" fill="none" stroke="rgb(92,92,92)" stroke-width="0.1"/>
  <path d="M 93.88581499999998,81.35561499999994 L 95.88581499999998,81.35561499999994" fill="none" stroke="rgb(92,92,92)" stroke-width="0.1"/>
  <path d="M 93.88581499999998,79.93261499999994 L 95.88581499999998,79.93261499999994" fill="none" stroke="rgb(92,92,92)" stroke-width="0.1"/>
  <path d="M 93.88581499999998,78.50961499999994 L 95.88581499999998,78.50961499999994" fill="none" stroke="rgb(92,92,92)" stroke-width="0.1"/>
  <path d="M 93.88581499999998,77.08661499999994 L 95.88581499999998,77.08661499999994" fill="none" stroke="rgb(92,92,92)" stroke-width="0.1"/>
  <path d="M 93.88581499999998,75.66361499999994 L 95.88581499999998,75.66361499999994" fill="none" stroke="rgb(92,92,92)" stroke-width="0.1"/>
  <path d="M 93.88581499999998,74.24061499999993 L 95.88581499999998,74.24061499999993" fill="none" stroke="rgb(92,92,92)" stroke-width="0.1"/>
  <path d="M 93.88581499999998,72.81761499999993 L 95.88581499999998,72.81761499999993" fill="none" stroke="rgb(92,92,92)" stroke-width="0.1"/>
  <path d="M 93.88581499999998,71.39461499999993 L 95.88581499999998,71.39461499999993" fill="none" stroke="rgb(92,92,92)" stroke-width="0.1"/>
  <path d="M 93.88581499999998,69.97161500000004 L 95.88581499999998,69.97161500000004" fill="none" stroke="rgb(92,92,92)" stroke-width="0.1"/>
  <path d="M 93.88581499999998,68.54861500000004 L 95.88581499999998,68.54861500000004" fill="none" stroke="rgb(92,92,92)" stroke-width="0.1"/>
  <path d="M 93.88581499999998,67.12561500000004 L 95.88581499999998,67.12561500000004" fill="none" stroke="rgb(92,92,92)" stroke-width="0.1"/>
  <path d="M 93.88581499999998,65.70261500000004 L 95.88581499999998,65.70261500000004" fill="none" stroke="rgb(92,92,92)" stroke-width="0.1"/>
  <path d="M 93.88581499999998,64.27961500000004 L 95.88581499999998,64.27961500000004" fill="none" stroke="rgb(92,92,92)" stroke-width="0.1"/>
  <path d="M 93.88581499999998,62.85561499999994 L 95.88581499999998,62.85561499999994" fill="none" stroke="rgb(92,92,92)" stroke-width="0.1"/>
  <path d="M 93.88581499999998,61.43261499999994 L 95.88581499999998,61.43261499999994" fill="none" stroke="rgb(92,92,92)" stroke-width="0.1"/>
  <path d="M 93.88581499999998,60.00961499999994 L 95.88581499999998,60.00961499999994" fill="none" stroke="rgb(92,92,92)" stroke-width="0.1"/>
  <path d="M 93.88581499999998,58.586614999999995 L 95.88581499999998,58.586614999999995" fill="none" stroke="rgb(92,92,92)" stroke-width="0.1"/>
  <path d="M 93.88581499999998,57.16361499999999 L 95.88581499999998,57.16361499999999" fill="none" stroke="rgb(92,92,92)" stroke-width="0.1"/>
  <path d="M 93.88581499999998,55.74061499999999 L 95.88581499999998,55.74061499999999" fill="none" stroke="rgb(92,92,92)" stroke-width="0.1"/>
  <path d="M 93.88581499999998,54.31761499999999 L 95.88581499999998,54.31761499999999" fill="none" stroke="rgb(92,92,92)" stroke-width="0.1"/>
  <path d="M 93.88581499999998,52.89461499999999 L 95.88581499999998,52.89461499999999" fill="none" stroke="rgb(92,92,92)" stroke-width="0.1"/>
  <path d="M 93.88581499999998,51.471614999999986 L 95.88581499999998,51.471614999999986" fill="none" stroke="rgb(92,92,92)" stroke-width="0.1"/>
  <path d="M 93.88581499999998,50.048614999999984 L 95.88581499999998,50.048614999999984" fill="none" stroke="rgb(92,92,92)" stroke-width="0.1"/>
 </g>
 <g id="layerA-PUB_TEXT" inkscape:groupmode="layer" inkscape:label="A-PUB_TEXT">
  <text fill="rgb(0,0,0)" font-family="Noto Sans CJK SC" font-size="2" transform="rotate(-0.0,67.80581499999994,36.75561499999998)" x="67.80581499999994" y="36.75561499999998">
   上部排烟
  </text>
 </g>
 <g id="layerA-WALL" inkscape:groupmode="layer" inkscape:label="A-WALL">
  <path d="M 58.38581499999998,27.336614999999995 L 58.38581499999998,19.588615000000004" fill="none" instance-id="-1" semantic-id="1" stroke="rgb(0,178,178)" stroke-width="0.1"/>
  <path d="M 58.38581499999998,19.588615000000004 L 56.38581499999998,19.588615000000004" fill="none" instance-id="-1" semantic-id="1" stroke="rgb(0,178,178)" stroke-width="0.1"/>
  <path d="M 56.38581499999998,19.588615000000004 L 56.38581499999998,27.336614999999995" fill="none" instance-id="-1" semantic-id="1" stroke="rgb(0,178,178)" stroke-width="0.1"/>
  <path d="M 92.38581499999998,22.836614999999995 L 92.38581499999998,0.0" fill="none" instance-id="-1" semantic-id="1" stroke="rgb(0,178,178)" stroke-width="0.1"/>
  <path d="M 94.38581499999998,22.836614999999995 L 94.38581499999998,0.0" fill="none" instance-id="-1" semantic-id="1" stroke="rgb(0,178,178)" stroke-width="0.1"/>
  <path d="M 8.38581499999998,27.336614999999995 L 56.38581499999998,27.336614999999995" fill="none" instance-id="-1" semantic-id="1" stroke="rgb(0,178,178)" stroke-width="0.1"/>
  <path d="M 8.38581499999998,29.336614999999995 L 57.38581499999998,29.336614999999995" fill="none" instance-id="-1" semantic-id="1" stroke="rgb(0,178,178)" stroke-width="0.1"/>
  <path d="M 0.0,26.33961499999998 L 1.3858149999999796,26.33961499999998" fill="none" instance-id="-1" semantic-id="1" stroke="rgb(0,178,178)" stroke-width="0.1"/>
  <path d="M 0.0,28.33961499999998 L 1.3858149999999796,28.33961499999998" fill="none" instance-id="-1" semantic-id="1" stroke="rgb(0,178,178)" stroke-width="0.1"/>
  <path d="M 7.88581499999998,22.836614999999995 L 7.88581499999998,12.836614999999995" fill="none" instance-id="-1" semantic-id="1" stroke="rgb(0,178,178)" stroke-width="0.1"/>
  <path d="M 7.88581499999998,12.836614999999995 L 5.88581499999998,12.836614999999995" fill="none" instance-id="-1" semantic-id="1" stroke="rgb(0,178,178)" stroke-width="0.1"/>
  <path d="M 5.88581499999998,12.836614999999995 L 5.88581499999998,22.836614999999995" fill="none" instance-id="-1" semantic-id="1" stroke="rgb(0,178,178)" stroke-width="0.1"/>
  <path d="M 58.38581499999998,27.336614999999995 L 91.38581499999998,27.336614999999995" fill="none" instance-id="-1" semantic-id="1" stroke="rgb(0,178,178)" stroke-width="0.1"/>
  <path d="M 57.38581499999998,29.336614999999995 L 91.38581499999998,29.336614999999995" fill="none" instance-id="-1" semantic-id="1" stroke="rgb(0,178,178)" stroke-width="0.1"/>
  <path d="M 3.8858149999999796,100.0 L 3.8858149999999796,49.336614999999995" fill="none" instance-id="-1" semantic-id="1" stroke="rgb(0,178,178)" stroke-width="0.1"/>
  <path d="M 5.88581499999998,100.0 L 5.88581499999998,48.336614999999995" fill="none" instance-id="-1" semantic-id="1" stroke="rgb(0,178,178)" stroke-width="0.1"/>
  <path d="M 3.8858149999999796,47.336614999999995 L 0.0,47.336614999999995" fill="none" instance-id="-1" semantic-id="1" stroke="rgb(0,178,178)" stroke-width="0.1"/>
  <path d="M 0.0,49.336614999999995 L 3.8858149999999796,49.336614999999995" fill="none" instance-id="-1" semantic-id="1" stroke="rgb(0,178,178)" stroke-width="0.1"/>
  <path d="M 5.88581499999998,48.336614999999995 L 5.88581499999998,46.27261499999997" fill="none" instance-id="-1" semantic-id="1" stroke="rgb(0,178,178)" stroke-width="0.1"/>
  <path d="M 5.88581499999998,46.27261499999997 L 3.8858149999999796,46.27261499999997" fill="none" instance-id="-1" semantic-id="1" stroke="rgb(0,178,178)" stroke-width="0.1"/>
  <path d="M 3.8858149999999796,46.27261499999997 L 3.8858149999999796,47.336614999999995" fill="none" instance-id="-1" semantic-id="1" stroke="rgb(0,178,178)" stroke-width="0.1"/>
  <path d="M 3.8858149999999796,29.836614999999995 L 3.8858149999999796,31.272614999999973" fill="none" instance-id="-1" semantic-id="1" stroke="rgb(0,178,178)" stroke-width="0.1"/>
  <path d="M 3.8858149999999796,31.272614999999973 L 5.88581499999998,31.272614999999973" fill="none" instance-id="-1" semantic-id="1" stroke="rgb(0,178,178)" stroke-width="0.1"/>
  <path d="M 5.88581499999998,31.272614999999973 L 5.88581499999998,29.836614999999995" fill="none" instance-id="-1" semantic-id="1" stroke="rgb(0,178,178)" stroke-width="0.1"/>
 </g>
 <g id="layerA-WALL-STUD" inkscape:groupmode="layer" inkscape:label="A-WALL-STUD">
  <path d="M 5.88581499999998,49.336614999999995 L 42.38581499999998,49.336614999999995" fill="none" instance-id="-1" semantic-id="1" stroke="rgb(255,133,12)" stroke-width="0.1"/>
  <path d="M 42.38581499999998,49.336614999999995 L 42.38581499999998,47.336614999999995" fill="none" instance-id="-1" semantic-id="1" stroke="rgb(255,133,12)" stroke-width="0.1"/>
  <path d="M 42.38581499999998,47.336614999999995 L 5.88581499999998,47.336614999999995" fill="none" instance-id="-1" semantic-id="1" stroke="rgb(255,133,12)" stroke-width="0.1"/>
  <path d="M 94.88581499999998,47.336614999999995 L 57.38581499999998,47.336614999999995" fill="none" instance-id="-1" semantic-id="1" stroke="rgb(255,133,12)" stroke-width="0.1"/>
  <path d="M 57.38581499999998,47.336614999999995 L 57.38581499999998,49.336614999999995" fill="none" instance-id="-1" semantic-id="1" stroke="rgb(255,133,12)" stroke-width="0.1"/>
  <path d="M 57.38581499999998,49.336614999999995 L 93.88581499999998,49.336614999999995" fill="none" instance-id="-1" semantic-id="1" stroke="rgb(255,133,12)" stroke-width="0.1"/>
  <path d="M 95.88581499999998,49.336614999999995 L 100.0,49.336614999999995" fill="none" instance-id="-1" semantic-id="1" stroke="rgb(255,133,12)" stroke-width="0.1"/>
  <path d="M 100.0,47.336614999999995 L 94.88581499999998,47.336614999999995" fill="none" instance-id="-1" semantic-id="1" stroke="rgb(255,133,12)" stroke-width="0.1"/>
  <path d="M 93.88581499999998,100.0 L 93.88581499999998,49.336614999999995" fill="none" instance-id="-1" semantic-id="1" stroke="rgb(255,133,12)" stroke-width="0.1"/>
  <path d="M 95.88581499999998,100.0 L 95.88581499999998,49.336614999999995" fill="none" instance-id="-1" semantic-id="1" stroke="rgb(255,133,12)" stroke-width="0.1"/>
 </g>
 <g id="layerA-WIN" inkscape:groupmode="layer" inkscape:label="A-WIN">
  <path d="M 58.38581499999998,0.0 L 58.38581499999998,19.588615000000004" fill="none" instance-id="5" semantic-id="5" stroke="rgb(255,133,12)" stroke-width="0.1"/>
  <path d="M 59.085815000000025,8.606614999999977 L 59.085815000000025,19.406614999999988" fill="none" instance-id="5" semantic-id="5" stroke="rgb(255,133,12)" stroke-width="0.1"/>
  <path d="M 58.80581499999994,8.606614999999977 L 58.80581499999994,19.406614999999988" fill="none" instance-id="5" semantic-id="5" stroke="rgb(255,133,12)" stroke-width="0.1"/>
  <path d="M 59.085815000000025,8.606614999999977 L 58.80581499999994,8.606614999999977" fill="none" instance-id="5" semantic-id="5" stroke="rgb(255,133,12)" stroke-width="0.1"/>
  <path d="M 59.085815000000025,19.406614999999988 L 58.80581499999994,19.406614999999988" fill="none" instance-id="5" semantic-id="5" stroke="rgb(255,133,12)" stroke-width="0.1"/>
  <path d="M 58.80581499999994,10.125614999999982 L 58.52481499999999,10.125614999999982" fill="none" instance-id="5" semantic-id="5" stroke="rgb(255,133,12)" stroke-width="0.1"/>
  <path d="M 58.52481499999999,0.0 L 58.52481499999999,10.125614999999982" fill="none" instance-id="5" semantic-id="5" stroke="rgb(255,133,12)" stroke-width="0.1"/>
  <path d="M 58.80581499999994,0.0 L 58.80581499999994,10.125614999999982" fill="none" instance-id="5" semantic-id="5" stroke="rgb(255,133,12)" stroke-width="0.1"/>
  <path d="M 6.88581499999998,12.836614999999995 L 17.123815000000036,12.836614999999995" fill="none" instance-id="1" semantic-id="4" stroke="rgb(255,133,12)" stroke-width="0.1"/>
  <path d="M 6.88581499999998,12.31161499999996 L 17.123815000000036,12.31161499999996" fill="none" instance-id="1" semantic-id="4" stroke="rgb(255,133,12)" stroke-width="0.1"/>
  <path d="M 6.88581499999998,12.836614999999995 L 6.88581499999998,12.31161499999996" fill="none" instance-id="1" semantic-id="4" stroke="rgb(255,133,12)" stroke-width="0.1"/>
  <path d="M 17.123815000000036,12.31161499999996 L 17.123815000000036,12.836614999999995" fill="none" instance-id="1" semantic-id="4" stroke="rgb(255,133,12)" stroke-width="0.1"/>
  <path d="M 4.88581499999998,31.272614999999973 L 0.0,31.272614999999973" fill="none" instance-id="3" semantic-id="4" stroke="rgb(255,133,12)" stroke-width="0.1"/>
  <path d="M 4.88581499999998,31.647614999999973 L 0.0,31.647614999999973" fill="none" instance-id="3" semantic-id="4" stroke="rgb(255,133,12)" stroke-width="0.1"/>
  <path d="M 4.88581499999998,31.272614999999973 L 4.88581499999998,31.647614999999973" fill="none" instance-id="3" semantic-id="4" stroke="rgb(255,133,12)" stroke-width="0.1"/>
  <path d="M 4.88581499999998,45.89761499999997 L 0.0,45.89761499999997" fill="none" instance-id="3" semantic-id="4" stroke="rgb(255,133,12)" stroke-width="0.1"/>
  <path d="M 4.88581499999998,46.27261499999997 L 0.0,46.27261499999997" fill="none" instance-id="3" semantic-id="4" stroke="rgb(255,133,12)" stroke-width="0.1"/>
  <path d="M 4.88581499999998,46.27261499999997 L 4.88581499999998,45.89761499999997" fill="none" instance-id="3" semantic-id="4" stroke="rgb(255,133,12)" stroke-width="0.1"/>
  <path d="M 57.38581499999998,48.336614999999995 L 57.38581499999998,41.02461499999998" fill="none" instance-id="2" semantic-id="4" stroke="rgb(255,133,12)" stroke-width="0.1"/>
  <path d="M 57.01081499999998,48.336614999999995 L 57.01081499999998,41.02461499999998" fill="none" instance-id="2" semantic-id="4" stroke="rgb(255,133,12)" stroke-width="0.1"/>
  <path d="M 57.38581499999998,48.336614999999995 L 57.01081499999998,48.336614999999995" fill="none" instance-id="2" semantic-id="4" stroke="rgb(255,133,12)" stroke-width="0.1"/>
  <path d="M 57.01081499999998,41.02461499999998 L 57.38581499999998,41.02461499999998" fill="none" instance-id="2" semantic-id="4" stroke="rgb(255,133,12)" stroke-width="0.1"/>
  <path d="M 42.76081499999998,48.336614999999995 L 42.76081499999998,41.02461499999998" fill="none" instance-id="2" semantic-id="4" stroke="rgb(255,133,12)" stroke-width="0.1"/>
  <path d="M 42.38581499999998,48.336614999999995 L 42.38581499999998,41.02461499999998" fill="none" instance-id="2" semantic-id="4" stroke="rgb(255,133,12)" stroke-width="0.1"/>
  <path d="M 42.76081499999998,41.02461499999998 L 42.38581499999998,41.02461499999998" fill="none" instance-id="2" semantic-id="4" stroke="rgb(255,133,12)" stroke-width="0.1"/>
  <path d="M 42.38581499999998,48.336614999999995 L 42.76081499999998,48.336614999999995" fill="none" instance-id="2" semantic-id="4" stroke="rgb(255,133,12)" stroke-width="0.1"/>
  <path d="M 17.119815000000017,12.31161499999996 A 10.2375,10.2375 0.0 0,0 6.88581499999998,2.336614999999995" fill="none" instance-id="1" semantic-id="4" stroke="rgb(255,133,12)" stroke-width="0.1"/>
  <path d="M 6.88581499999998,2.336614999999995 L 7.395873403216342,2.323894211127879" fill="none" instance-id="1" semantic-id="4" stroke="rgb(255,133,12)" stroke-width="0.1"/>
  <path d="M 7.395873403216342,2.323894211127879 L 7.904664574608887,2.2857767994345863" fill="none" instance-id="1" semantic-id="4" stroke="rgb(255,133,12)" stroke-width="0.1"/>
  <path d="M 7.904664574608887,2.2857767994345863 L 8.410924762930904,2.2223574421260537" fill="none" instance-id="1" semantic-id="4" stroke="rgb(255,133,12)" stroke-width="0.1"/>
  <path d="M 8.410924762930904,2.2223574421260537 L 8.913396503469585,2.1337936621633276" fill="none" instance-id="1" semantic-id="4" stroke="rgb(255,133,12)" stroke-width="0.1"/>
  <path d="M 8.913396503469585,2.1337936621633276 L 9.410831741376,2.0203054370021505" fill="none" instance-id="1" semantic-id="4" stroke="rgb(255,133,12)" stroke-width="0.1"/>
  <path d="M 9.410831741376,2.0203054370021505 L 9.901994931622198,1.8821746522058902" fill="none" instance-id="1" semantic-id="4" stroke="rgb(255,133,12)" stroke-width="0.1"/>
  <path d="M 9.901994931622198,1.8821746522058902 L 10.385666107886209,1.7197444012898018" fill="none" instance-id="1" semantic-id="4" stroke="rgb(255,133,12)" stroke-width="0.1"/>
  <path d="M 10.385666107886209,1.7197444012898018 L 10.86064391274192,1.5334181335345534" fill="none" instance-id="1" semantic-id="4" stroke="rgb(255,133,12)" stroke-width="0.1"/>
  <path d="M 10.86064391274192,1.5334181335345534 L 11.325748581628432,1.3236586518864328" fill="none" instance-id="1" semantic-id="4" stroke="rgb(255,133,12)" stroke-width="0.1"/>
  <path d="M 11.325748581628432,1.3236586518864328 L 11.77982487318468,1.0909869634331812" fill="none" instance-id="1" semantic-id="4" stroke="rgb(255,133,12)" stroke-width="0.1"/>
  <path d="M 11.77982487318468,1.0909869634331812 L 12.221744938674874,0.8359809853102433" fill="none" instance-id="1" semantic-id="4" stroke="rgb(255,133,12)" stroke-width="0.1"/>
  <path d="M 12.221744938674874,0.8359809853102433 L 12.650411123373033,0.5592741092526694" fill="none" instance-id="1" semantic-id="4" stroke="rgb(255,133,12)" stroke-width="0.1"/>
  <path d="M 12.650411123373033,0.5592741092526694 L 13.064758692952523,0.2615536283568076" fill="none" instance-id="1" semantic-id="4" stroke="rgb(255,133,12)" stroke-width="0.1"/>
  <path d="M 0.16194315996040132,37.04194143798492 L 0.5652990647523666,37.359688785299056" fill="none" instance-id="3" semantic-id="4" stroke="rgb(255,133,12)" stroke-width="0.1"/>
  <path d="M 0.5652990647523666,37.359688785299056 L 0.9899587499319296,37.64834691256897" fill="none" instance-id="3" semantic-id="4" stroke="rgb(255,133,12)" stroke-width="0.1"/>
  <path d="M 0.9899587499319296,37.64834691256897 L 1.4338283321986864,37.90649252379251" fill="none" instance-id="3" semantic-id="4" stroke="rgb(255,133,12)" stroke-width="0.1"/>
  <path d="M 1.4338283321986864,37.90649252379251 L 1.8947192093892227,38.13285277202141" fill="none" instance-id="3" semantic-id="4" stroke="rgb(255,133,12)" stroke-width="0.1"/>
  <path d="M 1.8947192093892227,38.13285277202141 L 2.370358851888227,38.32631153542877" fill="none" instance-id="3" semantic-id="4" stroke="rgb(255,133,12)" stroke-width="0.1"/>
  <path d="M 2.370358851888227,38.32631153542877 L 2.85840200786447,38.485914920607456" fill="none" instance-id="3" semantic-id="4" stroke="rgb(255,133,12)" stroke-width="0.1"/>
  <path d="M 2.85840200786447,38.485914920607456 L 3.356442267079842,38.61087596596326" fill="none" instance-id="3" semantic-id="4" stroke="rgb(255,133,12)" stroke-width="0.1"/>
  <path d="M 3.356442267079842,38.61087596596326 L 3.8620239262547784,38.70057852201171" fill="none" instance-id="3" semantic-id="4" stroke="rgb(255,133,12)" stroke-width="0.1"/>
  <path d="M 3.8620239262547784,38.70057852201171 L 4.372654097483974,38.75458028944672" fill="none" instance-id="3" semantic-id="4" stroke="rgb(255,133,12)" stroke-width="0.1"/>
  <path d="M 4.372654097483974,38.75458028944672 L 4.88581499999998,38.77261499999997" fill="none" instance-id="3" semantic-id="4" stroke="rgb(255,133,12)" stroke-width="0.1"/>
  <path d="M 4.88581499999998,38.77261499999997 L 4.372654097483974,38.790649710553225" fill="none" instance-id="3" semantic-id="4" stroke="rgb(255,133,12)" stroke-width="0.1"/>
  <path d="M 4.372654097483974,38.790649710553225 L 3.8620239262547784,38.844651477988236" fill="none" instance-id="3" semantic-id="4" stroke="rgb(255,133,12)" stroke-width="0.1"/>
  <path d="M 3.8620239262547784,38.844651477988236 L 3.356442267079842,38.93435403403669" fill="none" instance-id="3" semantic-id="4" stroke="rgb(255,133,12)" stroke-width="0.1"/>
  <path d="M 3.356442267079842,38.93435403403669 L 2.85840200786447,39.059315079392434" fill="none" instance-id="3" semantic-id="4" stroke="rgb(255,133,12)" stroke-width="0.1"/>
  <path d="M 2.85840200786447,39.059315079392434 L 2.3703588518883407,39.218918464571175" fill="none" instance-id="3" semantic-id="4" stroke="rgb(255,133,12)" stroke-width="0.1"/>
  <path d="M 2.3703588518883407,39.218918464571175 L 1.8947192093892227,39.41237722797854" fill="none" instance-id="3" semantic-id="4" stroke="rgb(255,133,12)" stroke-width="0.1"/>
  <path d="M 1.8947192093892227,39.41237722797854 L 1.4338283321986864,39.63873747620744" fill="none" instance-id="3" semantic-id="4" stroke="rgb(255,133,12)" stroke-width="0.1"/>
  <path d="M 1.4338283321986864,39.63873747620744 L 0.9899587499319296,39.89688308743098" fill="none" instance-id="3" semantic-id="4" stroke="rgb(255,133,12)" stroke-width="0.1"/>
  <path d="M 0.9899587499319296,39.89688308743098 L 0.5652990647523666,40.18554121470089" fill="none" instance-id="3" semantic-id="4" stroke="rgb(255,133,12)" stroke-width="0.1"/>
  <path d="M 0.5652990647523666,40.18554121470089 L 0.161943159960515,40.50328856201503" fill="none" instance-id="3" semantic-id="4" stroke="rgb(255,133,12)" stroke-width="0.1"/>
  <path d="M 57.01081499999998,41.02661499999999 A 7.3125,7.3125 0.0 0,0 49.88581499999998,48.336614999999995" fill="none" instance-id="2" semantic-id="4" stroke="rgb(255,133,12)" stroke-width="0.1"/>
  <path d="M 49.88581499999998,48.336614999999995 A 7.3125,7.3125 0.0 0,0 42.76081499999998,41.02661499999999" fill="none" instance-id="2" semantic-id="4" stroke="rgb(255,133,12)" stroke-width="0.1"/>
 </g>
 <g id="layerA-WIN-TEXT" inkscape:groupmode="layer" inkscape:label="A-WIN-TEXT">
  <text fill="rgb(0,0,0)" font-family="Noto Sans CJK SC" font-size="2" transform="rotate(-90.0,3.7878150000000232,15.350615000000005)" x="3.7878150000000232" y="15.350615000000005">
   FHM2121乙
  </text>
  <text fill="rgb(0,0,0)" font-family="Noto Sans CJK SC" font-size="2" transform="rotate(-90.0,14.983814999999936,51.73661499999997)" x="14.983814999999936" y="51.73661499999997">
   FHM1521甲
  </text>
  <text fill="rgb(0,0,0)" font-family="Noto Sans CJK SC" font-size="2" transform="rotate(-0.0,44.78581499999996,59.56561499999998)" x="44.78581499999996" y="59.56561499999998">
   M1521
  </text>
 </g>
 <g id="layerA-垂直电梯编号" inkscape:groupmode="layer" inkscape:label="A-垂直电梯编号">
  <text fill="rgb(0,0,0)" font-family="Noto Sans CJK SC" font-size="2" transform="rotate(-0.0,69.24881500000004,5.316615000000013)" x="69.24881500000004" y="5.316615000000013">
   DT-2
  </text>
 </g>
 <g id="layerA-楼板开洞" inkscape:groupmode="layer" inkscape:label="A-楼板开洞">
  <path d="M 58.38581499999998,29.336614999999995 L 58.38581499999998,37.336614999999995" fill="none" stroke="rgb(107,142,0)" stroke-width="0.1"/>
  <path d="M 58.38581499999998,37.336614999999995 L 93.38581499999998,37.336614999999995" fill="none" stroke="rgb(107,142,0)" stroke-width="0.1"/>
  <path d="M 93.38581499999998,37.336614999999995 L 93.38581499999998,29.336614999999995" fill="none" stroke="rgb(107,142,0)" stroke-width="0.1"/>
  <path d="M 93.38581499999998,29.336614999999995 L 58.38581499999998,29.336614999999995" fill="none" stroke="rgb(107,142,0)" stroke-width="0.1"/>
  <path d="M 58.38581499999998,37.336614999999995 L 61.200815000000034,32.032614999999964" fill="none" stroke="rgb(107,142,0)" stroke-width="0.1"/>
  <path d="M 61.200815000000034,32.032614999999964 L 93.38581499999998,29.336614999999995" fill="none" stroke="rgb(107,142,0)" stroke-width="0.1"/>
 </g>
 <g id="layerEVTR" inkscape:groupmode="layer" inkscape:label="EVTR">
  <path d="M 64.01581499999998,18.411614999999983 L 64.01581499999998,15.27561499999996" fill="none" instance-id="7" semantic-id="31" stroke="rgb(107,142,0)" stroke-width="0.1"/>
  <path d="M 64.01581499999998,15.27561499999996 L 83.42781500000001,15.27561499999996" fill="none" instance-id="7" semantic-id="31" stroke="rgb(107,142,0)" stroke-width="0.1"/>
  <path d="M 83.42781500000001,15.27561499999996 L 83.42781500000001,18.411614999999983" fill="none" instance-id="7" semantic-id="31" stroke="rgb(107,142,0)" stroke-width="0.1"/>
  <path d="M 83.42781500000001,18.411614999999983 L 64.01581499999998,18.411614999999983" fill="none" instance-id="7" semantic-id="31" stroke="rgb(107,142,0)" stroke-width="0.1"/>
  <path d="M 89.35381499999994,11.980615 L 61.216815,11.980615" fill="none" instance-id="7" semantic-id="31" stroke="rgb(107,142,0)" stroke-width="0.1"/>
  <path d="M 61.216815,11.980615 L 61.216815,0.0" fill="none" instance-id="7" semantic-id="31" stroke="rgb(107,142,0)" stroke-width="0.1"/>
  <path d="M 89.35381499999994,0.0 L 89.35381499999994,11.980615" fill="none" instance-id="7" semantic-id="31" stroke="rgb(107,142,0)" stroke-width="0.1"/>
  <path d="M 89.35381499999994,11.980615 L 68.47954636076531,0.0" fill="none" instance-id="7" semantic-id="31" stroke="rgb(107,142,0)" stroke-width="0.1"/>
  <path d="M 61.216815,11.980615 L 82.09108363923463,0.0" fill="none" instance-id="7" semantic-id="31" stroke="rgb(107,142,0)" stroke-width="0.1"/>
 </g>
</svg>