<?xml version="1.0" encoding="utf-8"?>
<svg style="background-color: #000;" version="1.1" viewBox="0 0 100.0 100.0" xmlns="http://www.w3.org/2000/svg" xmlns:inkscape="http://www.inkscape.org/namespaces/inkscape">
 <g id="layer0" inkscape:groupmode="layer" inkscape:label="0">
  <path d="M 63.543657499999995,3.0021509999999125 L 66.54580849999991,0.0" fill="none" stroke="rgb(0,0,0)" stroke-width="0.1"/>
  <path d="M 63.543657499999995,7.492150999999922 L 71.03580849999992,0.0" fill="none" stroke="rgb(0,0,0)" stroke-width="0.1"/>
  <path d="M 63.543657499999995,11.98215099999993 L 75.52580849999993,0.0" fill="none" stroke="rgb(0,0,0)" stroke-width="0.1"/>
  <path d="M 63.543657499999995,16.47215099999994 L 80.01580849999993,0.0" fill="none" stroke="rgb(0,0,0)" stroke-width="0.1"/>
  <path d="M 63.543657499999995,20.963150999999925 L 84.50680849999992,0.0" fill="none" stroke="rgb(0,0,0)" stroke-width="0.1"/>
  <path d="M 63.543657499999995,25.453150999999934 L 88.99680849999993,0.0" fill="none" stroke="rgb(0,0,0)" stroke-width="0.1"/>
  <path d="M 63.543657499999995,29.943150999999943 L 93.48680849999994,0.0" fill="none" stroke="rgb(0,0,0)" stroke-width="0.1"/>
  <path d="M 63.543657499999995,34.43315099999995 L 93.5436575,4.4331509999999525" fill="none" stroke="rgb(0,0,0)" stroke-width="0.1"/>
  <path d="M 64.8316575,37.63515099999995 L 93.5436575,8.923150999999962" fill="none" stroke="rgb(0,0,0)" stroke-width="0.1"/>
  <path d="M 69.32165750000001,37.63515099999995 L 93.5436575,13.41315099999997" fill="none" stroke="rgb(0,0,0)" stroke-width="0.1"/>
  <path d="M 73.81165749999997,37.63515099999995 L 93.5436575,17.90315099999998" fill="none" stroke="rgb(0,0,0)" stroke-width="0.1"/>
  <path d="M 78.30165749999998,37.63515099999995 L 93.5436575,22.39315099999999" fill="none" stroke="rgb(0,0,0)" stroke-width="0.1"/>
  <path d="M 82.79165749999999,37.63515099999995 L 93.5436575,26.884150999999974" fill="none" stroke="rgb(0,0,0)" stroke-width="0.1"/>
  <path d="M 87.28265749999997,37.63515099999995 L 93.5436575,31.374150999999983" fill="none" stroke="rgb(0,0,0)" stroke-width="0.1"/>
  <path d="M 91.77265749999998,37.63515099999995 L 93.5436575,35.86415099999999" fill="none" stroke="rgb(0,0,0)" stroke-width="0.1"/>
  <path d="M 63.543657499999995,37.63515099999995 L 93.5436575,37.63515099999995" fill="none" stroke="rgb(0,0,0)" stroke-width="0.1"/>
  <path d="M 93.5436575,37.63515099999995 L 93.5436575,0.0" fill="none" stroke="rgb(0,0,0)" stroke-width="0.1"/>
  <path d="M 63.543657499999995,0.0 L 63.543657499999995,37.63515099999995" fill="none" stroke="rgb(0,0,0)" stroke-width="0.1"/>
  <path d="M 63.543657499999995,37.63515099999995 L 93.5436575,37.63515099999995" fill="none" stroke="rgb(0,0,0)" stroke-width="0.1"/>
  <path d="M 93.5436575,37.63515099999995 L 93.5436575,0.0" fill="none" stroke="rgb(0,0,0)" stroke-width="0.1"/>
  <path d="M 63.543657499999995,0.0 L 63.543657499999995,37.63515099999995" fill="none" stroke="rgb(0,0,0)" stroke-width="0.1"/>
 </g>
 <g id="layerA-ANNO-DIMS" inkscape:groupmode="layer" inkscape:label="A-ANNO-DIMS">
  <path d="M 99.5436575,37.63515099999995 L 100.0,37.63515099999995" fill="none" stroke="rgb(0,178,0)" stroke-width="0.1"/>
  <path d="M 76.0436575,37.63515099999995 L 38.380657499999984,37.63515099999995" fill="none" stroke="rgb(0,178,0)" stroke-width="0.1"/>
  <path d="M 43.380657499999984,100.0 L 43.380657499999984,37.63515099999995" fill="none" stroke="rgb(0,178,0)" stroke-width="0.1"/>
  <text fill="rgb(0,178,0)" font-family="Noto Sans CJK SC" font-size="2" transform="rotate(-90.0,40.85565750000001,82.13515099999995)" x="40.85565750000001" y="82.13515099999995">
   7300
  </text>
 </g>
 <g id="layerA-DOTE" inkscape:groupmode="layer" inkscape:label="A-DOTE">
  <path d="M 78.5436575,100.0 L 78.5436575,0.0" fill="none" stroke="rgb(107,53,53)" stroke-width="0.1"/>
  <path d="M 0.0,34.13515099999995 L 100.0,34.13515099999995" fill="none" stroke="rgb(107,53,53)" stroke-width="0.1"/>
 </g>
 <g id="layerCAR" inkscape:groupmode="layer" inkscape:label="CAR">
  <path d="M 70.61965750000002,65.84515099999999 L 72.85965749999997,65.84515099999999" fill="none" instance-id="-1" semantic-id="35" stroke="rgb(134,134,134)" stroke-width="0.1"/>
  <path d="M 71.35965749999997,66.080151 L 71.39965749999999,66.0701509999999" fill="none" stroke="rgb(134,134,134)" stroke-width="0.1"/>
  <path d="M 71.74965750000001,66.09515099999999 L 71.11965750000002,66.85015099999998" fill="none" instance-id="-1" semantic-id="35" stroke="rgb(134,134,134)" stroke-width="0.1"/>
  <path d="M 70.74465750000002,66.85015099999998 L 71.36965750000002,66.09515099999999" fill="none" instance-id="-1" semantic-id="35" stroke="rgb(134,134,134)" stroke-width="0.1"/>
  <path d="M 69.73965750000002,66.85015099999998 L 70.61965750000002,65.84515099999999" fill="none" instance-id="-1" semantic-id="35" stroke="rgb(134,134,134)" stroke-width="0.1"/>
  <path d="M 70.61965750000002,65.84515099999999 L 71.22965749999997,66.085151" fill="none" instance-id="-1" semantic-id="35" stroke="rgb(134,134,134)" stroke-width="0.1"/>
  <path d="M 73.00465750000001,65.8201509999999 L 73.00465750000001,65.84515099999999" fill="none" stroke="rgb(134,134,134)" stroke-width="0.1"/>
  <path d="M 73.00465750000001,65.8201509999999 L 74.5146575,65.59015099999999" fill="none" instance-id="-1" semantic-id="35" stroke="rgb(134,134,134)" stroke-width="0.1"/>
  <path d="M 71.35965749999997,66.075151 L 73.00465750000001,65.8201509999999" fill="none" instance-id="-1" semantic-id="35" stroke="rgb(134,134,134)" stroke-width="0.1"/>
  <path d="M 68.85965749999997,71.37015099999996 L 68.73465749999997,72.62515099999996" fill="none" instance-id="-1" semantic-id="35" stroke="rgb(134,134,134)" stroke-width="0.1"/>
  <path d="M 70.49465750000002,71.37015099999996 L 69.86465750000002,71.37015099999996" fill="none" instance-id="-1" semantic-id="35" stroke="rgb(134,134,134)" stroke-width="0.1"/>
  <path d="M 70.49465750000002,71.37015099999996 L 70.11465750000002,72.62515099999996" fill="none" instance-id="-1" semantic-id="35" stroke="rgb(134,134,134)" stroke-width="0.1"/>
  <path d="M 69.92465749999997,72.62515099999996 L 70.30465750000002,71.37015099999996" fill="none" instance-id="-1" semantic-id="35" stroke="rgb(134,134,134)" stroke-width="0.1"/>
  <path d="M 69.92465749999997,71.37015099999996 L 69.54965749999997,72.62515099999996" fill="none" instance-id="-1" semantic-id="35" stroke="rgb(134,134,134)" stroke-width="0.1"/>
  <path d="M 69.61465750000002,72.62515099999996 L 69.98965750000002,71.37015099999996" fill="none" instance-id="-1" semantic-id="35" stroke="rgb(134,134,134)" stroke-width="0.1"/>
  <path d="M 69.54965749999997,74.64015099999995 L 70.11465750000002,74.64015099999995" fill="none" instance-id="-1" semantic-id="35" stroke="rgb(134,134,134)" stroke-width="0.1"/>
  <path d="M 69.92965750000002,72.62515099999996 L 69.92965750000002,76.64515099999994" fill="none" instance-id="-1" semantic-id="35" stroke="rgb(134,134,134)" stroke-width="0.1"/>
  <path d="M 70.49465750000002,71.37015099999996 L 73.5096575,70.61515099999997" fill="none" instance-id="-1" semantic-id="35" stroke="rgb(134,134,134)" stroke-width="0.1"/>
  <path d="M 71.11965750000002,66.85015099999998 L 70.49465750000002,71.37015099999996" fill="none" instance-id="-1" semantic-id="35" stroke="rgb(134,134,134)" stroke-width="0.1"/>
  <path d="M 70.11465750000002,71.37015099999996 L 70.74465750000002,66.85015099999998" fill="none" instance-id="-1" semantic-id="35" stroke="rgb(134,134,134)" stroke-width="0.1"/>
  <path d="M 69.73965750000002,66.85015099999998 L 68.85965749999997,71.37015099999996" fill="none" instance-id="-1" semantic-id="35" stroke="rgb(134,134,134)" stroke-width="0.1"/>
  <path d="M 69.86465750000002,77.90515099999993 L 70.49465750000002,77.90515099999993" fill="none" instance-id="-1" semantic-id="35" stroke="rgb(134,134,134)" stroke-width="0.1"/>
  <path d="M 70.49465750000002,77.90515099999993 L 70.11465750000002,76.64515099999994" fill="none" instance-id="-1" semantic-id="35" stroke="rgb(134,134,134)" stroke-width="0.1"/>
  <path d="M 69.54965749999997,76.64515099999994 L 69.92465749999997,77.90515099999993" fill="none" instance-id="-1" semantic-id="35" stroke="rgb(134,134,134)" stroke-width="0.1"/>
  <path d="M 69.92465749999997,76.64515099999994 L 70.30465750000002,77.90515099999993" fill="none" instance-id="-1" semantic-id="35" stroke="rgb(134,134,134)" stroke-width="0.1"/>
  <path d="M 69.98965750000002,77.90515099999993 L 69.61465750000002,76.64515099999994" fill="none" instance-id="-1" semantic-id="35" stroke="rgb(134,134,134)" stroke-width="0.1"/>
  <path d="M 68.85965749999997,77.90515099999993 L 68.73465749999997,76.64515099999994" fill="none" instance-id="-1" semantic-id="35" stroke="rgb(134,134,134)" stroke-width="0.1"/>
  <path d="M 70.11465750000002,77.90515099999993 L 70.74465750000002,82.42515099999991" fill="none" instance-id="-1" semantic-id="35" stroke="rgb(134,134,134)" stroke-width="0.1"/>
  <path d="M 70.49465750000002,77.90515099999993 L 71.11965750000002,82.42515099999991" fill="none" instance-id="-1" semantic-id="35" stroke="rgb(134,134,134)" stroke-width="0.1"/>
  <path d="M 68.85965749999997,77.90515099999993 L 69.73965750000002,82.42515099999991" fill="none" instance-id="-1" semantic-id="35" stroke="rgb(134,134,134)" stroke-width="0.1"/>
  <path d="M 70.49465750000002,77.90515099999993 L 73.5096575,78.65515099999993" fill="none" instance-id="-1" semantic-id="35" stroke="rgb(134,134,134)" stroke-width="0.1"/>
  <path d="M 71.35965749999997,83.1951509999999 L 71.36965750000002,83.18015099999991" fill="none" stroke="rgb(134,134,134)" stroke-width="0.1"/>
  <path d="M 72.87965750000001,83.43015099999991 L 70.61965750000002,83.43015099999991" fill="none" instance-id="-1" semantic-id="35" stroke="rgb(134,134,134)" stroke-width="0.1"/>
  <path d="M 71.22965749999997,83.1901509999999 L 70.61965750000002,83.43015099999991" fill="none" instance-id="-1" semantic-id="35" stroke="rgb(134,134,134)" stroke-width="0.1"/>
  <path d="M 73.00465750000001,83.4351509999999 L 73.00465750000001,83.450151" fill="none" stroke="rgb(134,134,134)" stroke-width="0.1"/>
  <path d="M 74.5146575,83.68015099999991 L 73.00465750000001,83.450151" fill="none" instance-id="-1" semantic-id="35" stroke="rgb(134,134,134)" stroke-width="0.1"/>
  <path d="M 73.02465749999999,83.455151 L 74.5146575,83.68015099999991" fill="none" instance-id="-1" semantic-id="35" stroke="rgb(134,134,134)" stroke-width="0.1"/>
  <path d="M 71.35965749999997,83.1951509999999 L 73.00465750000001,83.450151" fill="none" instance-id="-1" semantic-id="35" stroke="rgb(134,134,134)" stroke-width="0.1"/>
  <path d="M 69.73965750000002,82.42515099999991 L 70.61965750000002,83.43015099999991" fill="none" instance-id="-1" semantic-id="35" stroke="rgb(134,134,134)" stroke-width="0.1"/>
  <path d="M 71.74965750000001,83.18015099999991 L 71.11965750000002,82.42515099999991" fill="none" instance-id="-1" semantic-id="35" stroke="rgb(134,134,134)" stroke-width="0.1"/>
  <path d="M 71.36965750000002,83.18015099999991 L 70.74465750000002,82.42515099999991" fill="none" instance-id="-1" semantic-id="35" stroke="rgb(134,134,134)" stroke-width="0.1"/>
  <path d="M 68.73465749999997,76.64515099999994 L 68.73465749999997,72.62515099999996" fill="none" instance-id="-1" semantic-id="35" stroke="rgb(134,134,134)" stroke-width="0.1"/>
  <path d="M 69.61465750000002,72.62515099999996 L 69.61465750000002,76.64515099999994" fill="none" instance-id="-1" semantic-id="35" stroke="rgb(134,134,134)" stroke-width="0.1"/>
  <path d="M 69.54965749999997,76.64515099999994 L 69.54965749999997,72.62515099999996" fill="none" instance-id="-1" semantic-id="35" stroke="rgb(134,134,134)" stroke-width="0.1"/>
  <path d="M 70.11465750000002,72.62515099999996 L 70.11465750000002,76.64515099999994" fill="none" instance-id="-1" semantic-id="35" stroke="rgb(134,134,134)" stroke-width="0.1"/>
  <path d="M 85.36665749999997,65.234151 L 85.10965749999997,66.01515099999995" fill="none" instance-id="-1" semantic-id="35" stroke="rgb(134,134,134)" stroke-width="0.1"/>
  <path d="M 85.5196575,67.11015099999997 L 85.5096575,67.10515099999998" fill="none" stroke="rgb(134,134,134)" stroke-width="0.1"/>
  <path d="M 85.19665750000001,66.90015099999994 L 85.5096575,67.12015099999996" fill="none" instance-id="-1" semantic-id="35" stroke="rgb(134,134,134)" stroke-width="0.1"/>
  <path d="M 85.36965750000002,67.02015099999994 L 84.93965750000001,67.10015099999998" fill="none" instance-id="-1" semantic-id="35" stroke="rgb(134,134,134)" stroke-width="0.1"/>
  <path d="M 83.68465750000001,68.73015099999998 L 84.93965750000001,67.10015099999998" fill="none" instance-id="-1" semantic-id="35" stroke="rgb(134,134,134)" stroke-width="0.1"/>
  <path d="M 85.15465749999998,66.82315099999994 L 85.10965749999997,66.01515099999995" fill="none" instance-id="-1" semantic-id="35" stroke="rgb(134,134,134)" stroke-width="0.1"/>
  <path d="M 78.02965749999998,66.09515099999999 L 85.14965749999999,66.74515099999996" fill="none" instance-id="-1" semantic-id="35" stroke="rgb(134,134,134)" stroke-width="0.1"/>
  <path d="M 85.21765749999997,65.68715099999997 L 80.75465750000001,65.65515099999993" fill="none" instance-id="-1" semantic-id="35" stroke="rgb(134,134,134)" stroke-width="0.1"/>
  <path d="M 77.77965749999998,69.86515099999997 L 83.68465750000001,68.73015099999998" fill="none" instance-id="-1" semantic-id="35" stroke="rgb(134,134,134)" stroke-width="0.1"/>
  <path d="M 82.92965750000002,72.62515099999996 L 83.68465750000001,68.73015099999998" fill="none" instance-id="-1" semantic-id="35" stroke="rgb(134,134,134)" stroke-width="0.1"/>
  <path d="M 85.77965749999998,66.6851509999999 L 85.92965750000002,66.6851509999999" fill="none" stroke="rgb(134,134,134)" stroke-width="0.1"/>
  <path d="M 85.8946575,66.8101509999999 L 86.3196575,66.85015099999998" fill="none" instance-id="-1" semantic-id="35" stroke="rgb(134,134,134)" stroke-width="0.1"/>
  <path d="M 85.92965750000002,66.6851509999999 L 85.80465750000002,67.12015099999996" fill="none" instance-id="-1" semantic-id="35" stroke="rgb(134,134,134)" stroke-width="0.1"/>
  <path d="M 86.3196575,66.85015099999998 L 85.85965749999997,66.9351509999999" fill="none" instance-id="-1" semantic-id="35" stroke="rgb(134,134,134)" stroke-width="0.1"/>
  <path d="M 85.92465749999997,65.5601509999999 L 85.77965749999998,66.6851509999999" fill="none" instance-id="-1" semantic-id="35" stroke="rgb(134,134,134)" stroke-width="0.1"/>
  <path d="M 85.92965750000002,66.6851509999999 L 85.9256575,65.604151" fill="none" instance-id="-1" semantic-id="35" stroke="rgb(134,134,134)" stroke-width="0.1"/>
  <path d="M 86.3196575,66.85015099999998 L 86.3196575,65.84515099999999" fill="none" instance-id="-1" semantic-id="35" stroke="rgb(134,134,134)" stroke-width="0.1"/>
  <path d="M 90.08965749999999,68.86015099999997 L 86.3196575,66.85015099999998" fill="none" instance-id="-1" semantic-id="35" stroke="rgb(134,134,134)" stroke-width="0.1"/>
  <path d="M 90.08965749999999,68.86015099999997 L 89.58965749999999,69.36015099999997" fill="none" instance-id="-1" semantic-id="35" stroke="rgb(134,134,134)" stroke-width="0.1"/>
  <path d="M 88.95965749999999,70.87015099999996 L 88.58465749999999,73.13015099999996" fill="none" instance-id="-1" semantic-id="35" stroke="rgb(134,134,134)" stroke-width="0.1"/>
  <path d="M 89.58965749999999,69.36015099999997 L 88.95965749999999,70.87015099999996" fill="none" instance-id="-1" semantic-id="35" stroke="rgb(134,134,134)" stroke-width="0.1"/>
  <path d="M 84.93965750000001,67.10015099999998 L 89.58965749999999,69.36015099999997" fill="none" instance-id="-1" semantic-id="35" stroke="rgb(134,134,134)" stroke-width="0.1"/>
  <path d="M 85.77965749999998,66.6851509999999 L 85.5096575,67.12015099999996" fill="none" instance-id="-1" semantic-id="35" stroke="rgb(134,134,134)" stroke-width="0.1"/>
  <path d="M 85.5096575,67.10515099999998 L 85.77965749999998,66.6851509999999" fill="none" instance-id="-1" semantic-id="35" stroke="rgb(134,134,134)" stroke-width="0.1"/>
  <path d="M 85.80465750000002,67.12015099999996 L 85.5196575,67.11015099999997" fill="none" instance-id="-1" semantic-id="35" stroke="rgb(134,134,134)" stroke-width="0.1"/>
  <path d="M 85.89365750000002,65.53115099999991 L 85.52965749999998,65.19215099999997" fill="none" instance-id="-1" semantic-id="35" stroke="rgb(134,134,134)" stroke-width="0.1"/>
  <path d="M 85.5196575,82.16515099999992 L 85.5096575,82.16515099999992" fill="none" stroke="rgb(134,134,134)" stroke-width="0.1"/>
  <path d="M 85.5096575,82.15015099999994 L 85.19665750000001,82.37115099999994" fill="none" instance-id="-1" semantic-id="35" stroke="rgb(134,134,134)" stroke-width="0.1"/>
  <path d="M 85.36965750000002,82.25515099999996 L 84.93965750000001,82.17515099999991" fill="none" instance-id="-1" semantic-id="35" stroke="rgb(134,134,134)" stroke-width="0.1"/>
  <path d="M 83.68465750000001,80.54015099999992 L 84.93965750000001,82.17515099999991" fill="none" instance-id="-1" semantic-id="35" stroke="rgb(134,134,134)" stroke-width="0.1"/>
  <path d="M 83.68465750000001,80.54015099999992 L 82.92965750000002,76.64515099999994" fill="none" instance-id="-1" semantic-id="35" stroke="rgb(134,134,134)" stroke-width="0.1"/>
  <path d="M 77.77965749999998,79.41015099999993 L 83.68465750000001,80.54015099999992" fill="none" instance-id="-1" semantic-id="35" stroke="rgb(134,134,134)" stroke-width="0.1"/>
  <path d="M 85.36665749999997,84.037151 L 85.10965749999997,83.25515099999996" fill="none" instance-id="-1" semantic-id="35" stroke="rgb(134,134,134)" stroke-width="0.1"/>
  <path d="M 85.21965749999998,83.5891509999999 L 80.75465750000001,83.62015099999996" fill="none" instance-id="-1" semantic-id="35" stroke="rgb(134,134,134)" stroke-width="0.1"/>
  <path d="M 78.02965749999998,83.18015099999991 L 85.14965749999999,82.53515099999993" fill="none" instance-id="-1" semantic-id="35" stroke="rgb(134,134,134)" stroke-width="0.1"/>
  <path d="M 85.15465749999998,82.44715099999996 L 85.10965749999997,83.25515099999996" fill="none" instance-id="-1" semantic-id="35" stroke="rgb(134,134,134)" stroke-width="0.1"/>
  <path d="M 88.58465749999999,76.14515099999994 L 88.95965749999999,78.40515099999993" fill="none" instance-id="-1" semantic-id="35" stroke="rgb(134,134,134)" stroke-width="0.1"/>
  <path d="M 85.80465750000002,82.15015099999994 L 85.92965750000002,82.585151" fill="none" instance-id="-1" semantic-id="35" stroke="rgb(134,134,134)" stroke-width="0.1"/>
  <path d="M 85.77965749999998,82.585151 L 85.92965750000002,82.585151" fill="none" stroke="rgb(134,134,134)" stroke-width="0.1"/>
  <path d="M 85.85965749999997,82.34515099999999 L 86.3196575,82.42515099999991" fill="none" instance-id="-1" semantic-id="35" stroke="rgb(134,134,134)" stroke-width="0.1"/>
  <path d="M 85.89965749999999,82.46515099999999 L 86.3196575,82.42515099999991" fill="none" instance-id="-1" semantic-id="35" stroke="rgb(134,134,134)" stroke-width="0.1"/>
  <path d="M 88.95965749999999,78.40515099999993 L 89.58965749999999,79.91515099999992" fill="none" instance-id="-1" semantic-id="35" stroke="rgb(134,134,134)" stroke-width="0.1"/>
  <path d="M 90.08965749999999,80.41515099999992 L 86.3196575,82.42515099999991" fill="none" instance-id="-1" semantic-id="35" stroke="rgb(134,134,134)" stroke-width="0.1"/>
  <path d="M 89.58965749999999,79.91515099999992 L 90.08965749999999,80.41515099999992" fill="none" instance-id="-1" semantic-id="35" stroke="rgb(134,134,134)" stroke-width="0.1"/>
  <path d="M 85.77965749999998,82.585151 L 85.92465749999997,83.710151" fill="none" instance-id="-1" semantic-id="35" stroke="rgb(134,134,134)" stroke-width="0.1"/>
  <path d="M 85.9256575,83.66715099999999 L 85.92965750000002,82.585151" fill="none" instance-id="-1" semantic-id="35" stroke="rgb(134,134,134)" stroke-width="0.1"/>
  <path d="M 86.3196575,83.43015099999991 L 86.3196575,82.42515099999991" fill="none" instance-id="-1" semantic-id="35" stroke="rgb(134,134,134)" stroke-width="0.1"/>
  <path d="M 84.93965750000001,82.17515099999991 L 89.58965749999999,79.91515099999992" fill="none" instance-id="-1" semantic-id="35" stroke="rgb(134,134,134)" stroke-width="0.1"/>
  <path d="M 85.89365750000002,83.74015099999997 L 85.52965749999998,84.07915099999991" fill="none" instance-id="-1" semantic-id="35" stroke="rgb(134,134,134)" stroke-width="0.1"/>
  <path d="M 85.77965749999998,82.585151 L 85.5096575,82.15015099999994" fill="none" instance-id="-1" semantic-id="35" stroke="rgb(134,134,134)" stroke-width="0.1"/>
  <path d="M 85.5096575,82.16515099999992 L 85.77965749999998,82.585151" fill="none" instance-id="-1" semantic-id="35" stroke="rgb(134,134,134)" stroke-width="0.1"/>
  <path d="M 85.80465750000002,82.15015099999994 L 85.5196575,82.16515099999992" fill="none" instance-id="-1" semantic-id="35" stroke="rgb(134,134,134)" stroke-width="0.1"/>
  <path d="M 82.92965750000002,72.62515099999996 L 82.92965750000002,76.64515099999994" fill="none" instance-id="-1" semantic-id="35" stroke="rgb(134,134,134)" stroke-width="0.1"/>
  <path d="M 88.58465749999999,76.14515099999994 L 88.58465749999999,73.13015099999996" fill="none" instance-id="-1" semantic-id="35" stroke="rgb(134,134,134)" stroke-width="0.1"/>
  <path d="M 74.5146575,83.68015099999991 L 80.66965749999997,83.68015099999991" fill="none" instance-id="-1" semantic-id="35" stroke="rgb(134,134,134)" stroke-width="0.1"/>
  <path d="M 78.02965749999998,83.18015099999991 L 71.11965750000002,83.18015099999991" fill="none" instance-id="-1" semantic-id="35" stroke="rgb(134,134,134)" stroke-width="0.1"/>
  <path d="M 77.77965749999998,79.41015099999993 L 73.5096575,78.65515099999993" fill="none" instance-id="-1" semantic-id="35" stroke="rgb(134,134,134)" stroke-width="0.1"/>
  <path d="M 80.66965749999997,65.59015099999999 L 74.5146575,65.59015099999999" fill="none" instance-id="-1" semantic-id="35" stroke="rgb(134,134,134)" stroke-width="0.1"/>
  <path d="M 73.5096575,70.61515099999997 L 77.77965749999998,69.86515099999997" fill="none" instance-id="-1" semantic-id="35" stroke="rgb(134,134,134)" stroke-width="0.1"/>
  <path d="M 71.11965750000002,66.09515099999999 L 78.02965749999998,66.09515099999999" fill="none" instance-id="-1" semantic-id="35" stroke="rgb(134,134,134)" stroke-width="0.1"/>
  <path d="M 94.48965750000002,66.59515099999999 L 95.11465750000002,69.11015099999997" fill="none" instance-id="-1" semantic-id="35" stroke="rgb(134,134,134)" stroke-width="0.1"/>
  <path d="M 95.74465750000002,69.11015099999997 L 95.99465750000002,65.81615099999999" fill="none" instance-id="-1" semantic-id="35" stroke="rgb(134,134,134)" stroke-width="0.1"/>
  <path d="M 95.11465750000002,69.11015099999997 L 100.0,69.11015099999997" fill="none" instance-id="-1" semantic-id="35" stroke="rgb(134,134,134)" stroke-width="0.1"/>
  <path d="M 100.0,66.59515099999999 L 94.48965750000002,66.59515099999999" fill="none" instance-id="-1" semantic-id="35" stroke="rgb(134,134,134)" stroke-width="0.1"/>
  <path d="M 95.11465750000002,80.16515099999992 L 94.48965750000002,82.67515099999991" fill="none" instance-id="-1" semantic-id="35" stroke="rgb(134,134,134)" stroke-width="0.1"/>
  <path d="M 95.11465750000002,80.16515099999992 L 100.0,80.16515099999992" fill="none" instance-id="-1" semantic-id="35" stroke="rgb(134,134,134)" stroke-width="0.1"/>
  <path d="M 95.74465750000002,80.16515099999992 L 95.99465750000002,83.42415099999994" fill="none" instance-id="-1" semantic-id="35" stroke="rgb(134,134,134)" stroke-width="0.1"/>
  <path d="M 100.0,82.67515099999991 L 94.48965750000002,82.67515099999991" fill="none" instance-id="-1" semantic-id="35" stroke="rgb(134,134,134)" stroke-width="0.1"/>
  <path d="M 95.11465750000002,69.11015099999997 L 90.08965749999999,68.86015099999997" fill="none" instance-id="-1" semantic-id="35" stroke="rgb(134,134,134)" stroke-width="0.1"/>
  <path d="M 90.08965749999999,80.41515099999992 L 95.11465750000002,80.16515099999992" fill="none" instance-id="-1" semantic-id="35" stroke="rgb(134,134,134)" stroke-width="0.1"/>
  <path d="M 100.0,83.4850857435897 L 85.9256575,83.5841509999999" fill="none" instance-id="-1" semantic-id="35" stroke="rgb(134,134,134)" stroke-width="0.1"/>
  <path d="M 100.0,65.79057297552447 L 85.9256575,65.69215099999997" fill="none" instance-id="-1" semantic-id="35" stroke="rgb(134,134,134)" stroke-width="0.1"/>
  <path d="M 86.3196575,82.42515099999991 L 94.48965750000002,82.67515099999991" fill="none" instance-id="-1" semantic-id="35" stroke="rgb(134,134,134)" stroke-width="0.1"/>
  <path d="M 86.3196575,66.85015099999998 L 94.48965750000002,66.59515099999999" fill="none" instance-id="-1" semantic-id="35" stroke="rgb(134,134,134)" stroke-width="0.1"/>
  <path d="M 70.61965750000002,90.84515099999999 L 72.85965749999997,90.84515099999999" fill="none" instance-id="-1" semantic-id="35" stroke="rgb(134,134,134)" stroke-width="0.1"/>
  <path d="M 71.35965749999997,91.080151 L 71.39965749999999,91.0701509999999" fill="none" stroke="rgb(134,134,134)" stroke-width="0.1"/>
  <path d="M 71.74965750000001,91.09515099999999 L 71.11965750000002,91.85015099999998" fill="none" instance-id="-1" semantic-id="35" stroke="rgb(134,134,134)" stroke-width="0.1"/>
  <path d="M 70.74465750000002,91.85015099999998 L 71.36965750000002,91.09515099999999" fill="none" instance-id="-1" semantic-id="35" stroke="rgb(134,134,134)" stroke-width="0.1"/>
  <path d="M 69.73965750000002,91.85015099999998 L 70.61965750000002,90.84515099999999" fill="none" instance-id="-1" semantic-id="35" stroke="rgb(134,134,134)" stroke-width="0.1"/>
  <path d="M 70.61965750000002,90.84515099999999 L 71.22965749999997,91.085151" fill="none" instance-id="-1" semantic-id="35" stroke="rgb(134,134,134)" stroke-width="0.1"/>
  <path d="M 73.00465750000001,90.8201509999999 L 73.00465750000001,90.84515099999999" fill="none" stroke="rgb(134,134,134)" stroke-width="0.1"/>
  <path d="M 73.00465750000001,90.8201509999999 L 74.5146575,90.59015099999999" fill="none" instance-id="-1" semantic-id="35" stroke="rgb(134,134,134)" stroke-width="0.1"/>
  <path d="M 71.35965749999997,91.075151 L 73.00465750000001,90.8201509999999" fill="none" instance-id="-1" semantic-id="35" stroke="rgb(134,134,134)" stroke-width="0.1"/>
  <path d="M 68.85965749999997,96.37015099999996 L 68.73465749999997,97.62515099999996" fill="none" instance-id="-1" semantic-id="35" stroke="rgb(134,134,134)" stroke-width="0.1"/>
  <path d="M 70.49465750000002,96.37015099999996 L 69.86465750000002,96.37015099999996" fill="none" instance-id="-1" semantic-id="35" stroke="rgb(134,134,134)" stroke-width="0.1"/>
  <path d="M 70.49465750000002,96.37015099999996 L 70.11465750000002,97.62515099999996" fill="none" instance-id="-1" semantic-id="35" stroke="rgb(134,134,134)" stroke-width="0.1"/>
  <path d="M 69.92465749999997,97.62515099999996 L 70.30465750000002,96.37015099999996" fill="none" instance-id="-1" semantic-id="35" stroke="rgb(134,134,134)" stroke-width="0.1"/>
  <path d="M 69.92465749999997,96.37015099999996 L 69.54965749999997,97.62515099999996" fill="none" instance-id="-1" semantic-id="35" stroke="rgb(134,134,134)" stroke-width="0.1"/>
  <path d="M 69.61465750000002,97.62515099999996 L 69.98965750000002,96.37015099999996" fill="none" instance-id="-1" semantic-id="35" stroke="rgb(134,134,134)" stroke-width="0.1"/>
  <path d="M 69.54965749999997,99.64015099999995 L 70.11465750000002,99.64015099999995" fill="none" instance-id="-1" semantic-id="35" stroke="rgb(134,134,134)" stroke-width="0.1"/>
  <path d="M 69.92965750000002,97.62515099999996 L 69.92965750000002,100.0" fill="none" instance-id="-1" semantic-id="35" stroke="rgb(134,134,134)" stroke-width="0.1"/>
  <path d="M 70.49465750000002,96.37015099999996 L 73.5096575,95.61515099999997" fill="none" instance-id="-1" semantic-id="35" stroke="rgb(134,134,134)" stroke-width="0.1"/>
  <path d="M 71.11965750000002,91.85015099999998 L 70.49465750000002,96.37015099999996" fill="none" instance-id="-1" semantic-id="35" stroke="rgb(134,134,134)" stroke-width="0.1"/>
  <path d="M 70.11465750000002,96.37015099999996 L 70.74465750000002,91.85015099999998" fill="none" instance-id="-1" semantic-id="35" stroke="rgb(134,134,134)" stroke-width="0.1"/>
  <path d="M 69.73965750000002,91.85015099999998 L 68.85965749999997,96.37015099999996" fill="none" instance-id="-1" semantic-id="35" stroke="rgb(134,134,134)" stroke-width="0.1"/>
  <path d="M 68.73465749999997,100.0 L 68.73465749999997,97.62515099999996" fill="none" instance-id="-1" semantic-id="35" stroke="rgb(134,134,134)" stroke-width="0.1"/>
  <path d="M 69.61465750000002,97.62515099999996 L 69.61465750000002,100.0" fill="none" instance-id="-1" semantic-id="35" stroke="rgb(134,134,134)" stroke-width="0.1"/>
  <path d="M 69.54965749999997,100.0 L 69.54965749999997,97.62515099999996" fill="none" instance-id="-1" semantic-id="35" stroke="rgb(134,134,134)" stroke-width="0.1"/>
  <path d="M 70.11465750000002,97.62515099999996 L 70.11465750000002,100.0" fill="none" instance-id="-1" semantic-id="35" stroke="rgb(134,134,134)" stroke-width="0.1"/>
  <path d="M 85.36665749999997,90.234151 L 85.10965749999997,91.01515099999995" fill="none" instance-id="-1" semantic-id="35" stroke="rgb(134,134,134)" stroke-width="0.1"/>
  <path d="M 85.5196575,92.11015099999997 L 85.5096575,92.10515099999998" fill="none" stroke="rgb(134,134,134)" stroke-width="0.1"/>
  <path d="M 85.19665750000001,91.90015099999994 L 85.5096575,92.12015099999996" fill="none" instance-id="-1" semantic-id="35" stroke="rgb(134,134,134)" stroke-width="0.1"/>
  <path d="M 85.36965750000002,92.02015099999994 L 84.93965750000001,92.10015099999998" fill="none" instance-id="-1" semantic-id="35" stroke="rgb(134,134,134)" stroke-width="0.1"/>
  <path d="M 83.68465750000001,93.73015099999998 L 84.93965750000001,92.10015099999998" fill="none" instance-id="-1" semantic-id="35" stroke="rgb(134,134,134)" stroke-width="0.1"/>
  <path d="M 85.15465749999998,91.82315099999994 L 85.10965749999997,91.01515099999995" fill="none" instance-id="-1" semantic-id="35" stroke="rgb(134,134,134)" stroke-width="0.1"/>
  <path d="M 78.02965749999998,91.09515099999999 L 85.14965749999999,91.74515099999996" fill="none" instance-id="-1" semantic-id="35" stroke="rgb(134,134,134)" stroke-width="0.1"/>
  <path d="M 85.21765749999997,90.68715099999997 L 80.75465750000001,90.65515099999993" fill="none" instance-id="-1" semantic-id="35" stroke="rgb(134,134,134)" stroke-width="0.1"/>
  <path d="M 77.77965749999998,94.86515099999997 L 83.68465750000001,93.73015099999998" fill="none" instance-id="-1" semantic-id="35" stroke="rgb(134,134,134)" stroke-width="0.1"/>
  <path d="M 82.92965750000002,97.62515099999996 L 83.68465750000001,93.73015099999998" fill="none" instance-id="-1" semantic-id="35" stroke="rgb(134,134,134)" stroke-width="0.1"/>
  <path d="M 85.77965749999998,91.6851509999999 L 85.92965750000002,91.6851509999999" fill="none" stroke="rgb(134,134,134)" stroke-width="0.1"/>
  <path d="M 85.8946575,91.8101509999999 L 86.3196575,91.85015099999998" fill="none" instance-id="-1" semantic-id="35" stroke="rgb(134,134,134)" stroke-width="0.1"/>
  <path d="M 85.92965750000002,91.6851509999999 L 85.80465750000002,92.12015099999996" fill="none" instance-id="-1" semantic-id="35" stroke="rgb(134,134,134)" stroke-width="0.1"/>
  <path d="M 86.3196575,91.85015099999998 L 85.85965749999997,91.9351509999999" fill="none" instance-id="-1" semantic-id="35" stroke="rgb(134,134,134)" stroke-width="0.1"/>
  <path d="M 85.92465749999997,90.5601509999999 L 85.77965749999998,91.6851509999999" fill="none" instance-id="-1" semantic-id="35" stroke="rgb(134,134,134)" stroke-width="0.1"/>
  <path d="M 85.92965750000002,91.6851509999999 L 85.9256575,90.604151" fill="none" instance-id="-1" semantic-id="35" stroke="rgb(134,134,134)" stroke-width="0.1"/>
  <path d="M 86.3196575,91.85015099999998 L 86.3196575,90.84515099999999" fill="none" instance-id="-1" semantic-id="35" stroke="rgb(134,134,134)" stroke-width="0.1"/>
  <path d="M 90.08965749999999,93.86015099999997 L 86.3196575,91.85015099999998" fill="none" instance-id="-1" semantic-id="35" stroke="rgb(134,134,134)" stroke-width="0.1"/>
  <path d="M 90.08965749999999,93.86015099999997 L 89.58965749999999,94.36015099999997" fill="none" instance-id="-1" semantic-id="35" stroke="rgb(134,134,134)" stroke-width="0.1"/>
  <path d="M 88.95965749999999,95.87015099999996 L 88.58465749999999,98.13015099999996" fill="none" instance-id="-1" semantic-id="35" stroke="rgb(134,134,134)" stroke-width="0.1"/>
  <path d="M 89.58965749999999,94.36015099999997 L 88.95965749999999,95.87015099999996" fill="none" instance-id="-1" semantic-id="35" stroke="rgb(134,134,134)" stroke-width="0.1"/>
  <path d="M 84.93965750000001,92.10015099999998 L 89.58965749999999,94.36015099999997" fill="none" instance-id="-1" semantic-id="35" stroke="rgb(134,134,134)" stroke-width="0.1"/>
  <path d="M 85.77965749999998,91.6851509999999 L 85.5096575,92.12015099999996" fill="none" instance-id="-1" semantic-id="35" stroke="rgb(134,134,134)" stroke-width="0.1"/>
  <path d="M 85.5096575,92.10515099999998 L 85.77965749999998,91.6851509999999" fill="none" instance-id="-1" semantic-id="35" stroke="rgb(134,134,134)" stroke-width="0.1"/>
  <path d="M 85.80465750000002,92.12015099999996 L 85.5196575,92.11015099999997" fill="none" instance-id="-1" semantic-id="35" stroke="rgb(134,134,134)" stroke-width="0.1"/>
  <path d="M 85.89365750000002,90.53115099999991 L 85.52965749999998,90.19215099999997" fill="none" instance-id="-1" semantic-id="35" stroke="rgb(134,134,134)" stroke-width="0.1"/>
  <path d="M 82.92965750000002,97.62515099999996 L 82.92965750000002,100.0" fill="none" instance-id="-1" semantic-id="35" stroke="rgb(134,134,134)" stroke-width="0.1"/>
  <path d="M 88.58465749999999,100.0 L 88.58465749999999,98.13015099999996" fill="none" instance-id="-1" semantic-id="35" stroke="rgb(134,134,134)" stroke-width="0.1"/>
  <path d="M 80.66965749999997,90.59015099999999 L 74.5146575,90.59015099999999" fill="none" instance-id="-1" semantic-id="35" stroke="rgb(134,134,134)" stroke-width="0.1"/>
  <path d="M 73.5096575,95.61515099999997 L 77.77965749999998,94.86515099999997" fill="none" instance-id="-1" semantic-id="35" stroke="rgb(134,134,134)" stroke-width="0.1"/>
  <path d="M 71.11965750000002,91.09515099999999 L 78.02965749999998,91.09515099999999" fill="none" instance-id="-1" semantic-id="35" stroke="rgb(134,134,134)" stroke-width="0.1"/>
  <path d="M 94.48965750000002,91.59515099999999 L 95.11465750000002,94.11015099999997" fill="none" instance-id="-1" semantic-id="35" stroke="rgb(134,134,134)" stroke-width="0.1"/>
  <path d="M 95.74465750000002,94.11015099999997 L 95.99465750000002,90.81615099999999" fill="none" instance-id="-1" semantic-id="35" stroke="rgb(134,134,134)" stroke-width="0.1"/>
  <path d="M 95.11465750000002,94.11015099999997 L 100.0,94.11015099999997" fill="none" instance-id="-1" semantic-id="35" stroke="rgb(134,134,134)" stroke-width="0.1"/>
  <path d="M 100.0,91.59515099999999 L 94.48965750000002,91.59515099999999" fill="none" instance-id="-1" semantic-id="35" stroke="rgb(134,134,134)" stroke-width="0.1"/>
  <path d="M 95.11465750000002,94.11015099999997 L 90.08965749999999,93.86015099999997" fill="none" instance-id="-1" semantic-id="35" stroke="rgb(134,134,134)" stroke-width="0.1"/>
  <path d="M 100.0,90.79057297552447 L 85.9256575,90.69215099999997" fill="none" instance-id="-1" semantic-id="35" stroke="rgb(134,134,134)" stroke-width="0.1"/>
  <path d="M 86.3196575,91.85015099999998 L 94.48965750000002,91.59515099999999" fill="none" instance-id="-1" semantic-id="35" stroke="rgb(134,134,134)" stroke-width="0.1"/>
  <path d="M 70.61965750000002,40.84515099999999 L 72.85965749999997,40.84515099999999" fill="none" instance-id="-1" semantic-id="35" stroke="rgb(134,134,134)" stroke-width="0.1"/>
  <path d="M 71.35965749999997,41.080151 L 71.39965749999999,41.070150999999896" fill="none" stroke="rgb(134,134,134)" stroke-width="0.1"/>
  <path d="M 71.74965750000001,41.09515099999999 L 71.11965750000002,41.85015099999998" fill="none" instance-id="-1" semantic-id="35" stroke="rgb(134,134,134)" stroke-width="0.1"/>
  <path d="M 70.74465750000002,41.85015099999998 L 71.36965750000002,41.09515099999999" fill="none" instance-id="-1" semantic-id="35" stroke="rgb(134,134,134)" stroke-width="0.1"/>
  <path d="M 69.73965750000002,41.85015099999998 L 70.61965750000002,40.84515099999999" fill="none" instance-id="-1" semantic-id="35" stroke="rgb(134,134,134)" stroke-width="0.1"/>
  <path d="M 70.61965750000002,40.84515099999999 L 71.22965749999997,41.085150999999996" fill="none" instance-id="-1" semantic-id="35" stroke="rgb(134,134,134)" stroke-width="0.1"/>
  <path d="M 73.00465750000001,40.820150999999896 L 73.00465750000001,40.84515099999999" fill="none" stroke="rgb(134,134,134)" stroke-width="0.1"/>
  <path d="M 73.00465750000001,40.820150999999896 L 74.5146575,40.59015099999999" fill="none" instance-id="-1" semantic-id="35" stroke="rgb(134,134,134)" stroke-width="0.1"/>
  <path d="M 71.35965749999997,41.075151000000005 L 73.00465750000001,40.820150999999896" fill="none" instance-id="-1" semantic-id="35" stroke="rgb(134,134,134)" stroke-width="0.1"/>
  <path d="M 68.85965749999997,46.370150999999964 L 68.73465749999997,47.62515099999996" fill="none" instance-id="-1" semantic-id="35" stroke="rgb(134,134,134)" stroke-width="0.1"/>
  <path d="M 70.49465750000002,46.370150999999964 L 69.86465750000002,46.370150999999964" fill="none" instance-id="-1" semantic-id="35" stroke="rgb(134,134,134)" stroke-width="0.1"/>
  <path d="M 70.49465750000002,46.370150999999964 L 70.11465750000002,47.62515099999996" fill="none" instance-id="-1" semantic-id="35" stroke="rgb(134,134,134)" stroke-width="0.1"/>
  <path d="M 69.92465749999997,47.62515099999996 L 70.30465750000002,46.370150999999964" fill="none" instance-id="-1" semantic-id="35" stroke="rgb(134,134,134)" stroke-width="0.1"/>
  <path d="M 69.92465749999997,46.370150999999964 L 69.54965749999997,47.62515099999996" fill="none" instance-id="-1" semantic-id="35" stroke="rgb(134,134,134)" stroke-width="0.1"/>
  <path d="M 69.61465750000002,47.62515099999996 L 69.98965750000002,46.370150999999964" fill="none" instance-id="-1" semantic-id="35" stroke="rgb(134,134,134)" stroke-width="0.1"/>
  <path d="M 69.54965749999997,49.640150999999946 L 70.11465750000002,49.640150999999946" fill="none" instance-id="-1" semantic-id="35" stroke="rgb(134,134,134)" stroke-width="0.1"/>
  <path d="M 69.92965750000002,47.62515099999996 L 69.92965750000002,51.64515099999994" fill="none" instance-id="-1" semantic-id="35" stroke="rgb(134,134,134)" stroke-width="0.1"/>
  <path d="M 70.49465750000002,46.370150999999964 L 73.5096575,45.61515099999997" fill="none" instance-id="-1" semantic-id="35" stroke="rgb(134,134,134)" stroke-width="0.1"/>
  <path d="M 71.11965750000002,41.85015099999998 L 70.49465750000002,46.370150999999964" fill="none" instance-id="-1" semantic-id="35" stroke="rgb(134,134,134)" stroke-width="0.1"/>
  <path d="M 70.11465750000002,46.370150999999964 L 70.74465750000002,41.85015099999998" fill="none" instance-id="-1" semantic-id="35" stroke="rgb(134,134,134)" stroke-width="0.1"/>
  <path d="M 69.73965750000002,41.85015099999998 L 68.85965749999997,46.370150999999964" fill="none" instance-id="-1" semantic-id="35" stroke="rgb(134,134,134)" stroke-width="0.1"/>
  <path d="M 69.86465750000002,52.90515099999993 L 70.49465750000002,52.90515099999993" fill="none" instance-id="-1" semantic-id="35" stroke="rgb(134,134,134)" stroke-width="0.1"/>
  <path d="M 70.49465750000002,52.90515099999993 L 70.11465750000002,51.64515099999994" fill="none" instance-id="-1" semantic-id="35" stroke="rgb(134,134,134)" stroke-width="0.1"/>
  <path d="M 69.54965749999997,51.64515099999994 L 69.92465749999997,52.90515099999993" fill="none" instance-id="-1" semantic-id="35" stroke="rgb(134,134,134)" stroke-width="0.1"/>
  <path d="M 69.92465749999997,51.64515099999994 L 70.30465750000002,52.90515099999993" fill="none" instance-id="-1" semantic-id="35" stroke="rgb(134,134,134)" stroke-width="0.1"/>
  <path d="M 69.98965750000002,52.90515099999993 L 69.61465750000002,51.64515099999994" fill="none" instance-id="-1" semantic-id="35" stroke="rgb(134,134,134)" stroke-width="0.1"/>
  <path d="M 68.85965749999997,52.90515099999993 L 68.73465749999997,51.64515099999994" fill="none" instance-id="-1" semantic-id="35" stroke="rgb(134,134,134)" stroke-width="0.1"/>
  <path d="M 70.11465750000002,52.90515099999993 L 70.74465750000002,57.425150999999914" fill="none" instance-id="-1" semantic-id="35" stroke="rgb(134,134,134)" stroke-width="0.1"/>
  <path d="M 70.49465750000002,52.90515099999993 L 71.11965750000002,57.425150999999914" fill="none" instance-id="-1" semantic-id="35" stroke="rgb(134,134,134)" stroke-width="0.1"/>
  <path d="M 68.85965749999997,52.90515099999993 L 69.73965750000002,57.425150999999914" fill="none" instance-id="-1" semantic-id="35" stroke="rgb(134,134,134)" stroke-width="0.1"/>
  <path d="M 70.49465750000002,52.90515099999993 L 73.5096575,53.65515099999993" fill="none" instance-id="-1" semantic-id="35" stroke="rgb(134,134,134)" stroke-width="0.1"/>
  <path d="M 71.35965749999997,58.195150999999896 L 71.36965750000002,58.18015099999991" fill="none" stroke="rgb(134,134,134)" stroke-width="0.1"/>
  <path d="M 72.87965750000001,58.43015099999991 L 70.61965750000002,58.43015099999991" fill="none" instance-id="-1" semantic-id="35" stroke="rgb(134,134,134)" stroke-width="0.1"/>
  <path d="M 71.22965749999997,58.1901509999999 L 70.61965750000002,58.43015099999991" fill="none" instance-id="-1" semantic-id="35" stroke="rgb(134,134,134)" stroke-width="0.1"/>
  <path d="M 73.00465750000001,58.435150999999905 L 73.00465750000001,58.450151000000005" fill="none" stroke="rgb(134,134,134)" stroke-width="0.1"/>
  <path d="M 74.5146575,58.68015099999991 L 73.00465750000001,58.450151000000005" fill="none" instance-id="-1" semantic-id="35" stroke="rgb(134,134,134)" stroke-width="0.1"/>
  <path d="M 73.02465749999999,58.455151 L 74.5146575,58.68015099999991" fill="none" instance-id="-1" semantic-id="35" stroke="rgb(134,134,134)" stroke-width="0.1"/>
  <path d="M 71.35965749999997,58.195150999999896 L 73.00465750000001,58.450151000000005" fill="none" instance-id="-1" semantic-id="35" stroke="rgb(134,134,134)" stroke-width="0.1"/>
  <path d="M 69.73965750000002,57.425150999999914 L 70.61965750000002,58.43015099999991" fill="none" instance-id="-1" semantic-id="35" stroke="rgb(134,134,134)" stroke-width="0.1"/>
  <path d="M 71.74965750000001,58.18015099999991 L 71.11965750000002,57.425150999999914" fill="none" instance-id="-1" semantic-id="35" stroke="rgb(134,134,134)" stroke-width="0.1"/>
  <path d="M 71.36965750000002,58.18015099999991 L 70.74465750000002,57.425150999999914" fill="none" instance-id="-1" semantic-id="35" stroke="rgb(134,134,134)" stroke-width="0.1"/>
  <path d="M 68.73465749999997,51.64515099999994 L 68.73465749999997,47.62515099999996" fill="none" instance-id="-1" semantic-id="35" stroke="rgb(134,134,134)" stroke-width="0.1"/>
  <path d="M 69.61465750000002,47.62515099999996 L 69.61465750000002,51.64515099999994" fill="none" instance-id="-1" semantic-id="35" stroke="rgb(134,134,134)" stroke-width="0.1"/>
  <path d="M 69.54965749999997,51.64515099999994 L 69.54965749999997,47.62515099999996" fill="none" instance-id="-1" semantic-id="35" stroke="rgb(134,134,134)" stroke-width="0.1"/>
  <path d="M 70.11465750000002,47.62515099999996 L 70.11465750000002,51.64515099999994" fill="none" instance-id="-1" semantic-id="35" stroke="rgb(134,134,134)" stroke-width="0.1"/>
  <path d="M 85.36665749999997,40.234151 L 85.10965749999997,41.015150999999946" fill="none" instance-id="-1" semantic-id="35" stroke="rgb(134,134,134)" stroke-width="0.1"/>
  <path d="M 85.5196575,42.11015099999997 L 85.5096575,42.10515099999998" fill="none" stroke="rgb(134,134,134)" stroke-width="0.1"/>
  <path d="M 85.19665750000001,41.90015099999994 L 85.5096575,42.120150999999964" fill="none" instance-id="-1" semantic-id="35" stroke="rgb(134,134,134)" stroke-width="0.1"/>
  <path d="M 85.36965750000002,42.02015099999994 L 84.93965750000001,42.10015099999998" fill="none" instance-id="-1" semantic-id="35" stroke="rgb(134,134,134)" stroke-width="0.1"/>
  <path d="M 83.68465750000001,43.73015099999998 L 84.93965750000001,42.10015099999998" fill="none" instance-id="-1" semantic-id="35" stroke="rgb(134,134,134)" stroke-width="0.1"/>
  <path d="M 85.15465749999998,41.82315099999994 L 85.10965749999997,41.015150999999946" fill="none" instance-id="-1" semantic-id="35" stroke="rgb(134,134,134)" stroke-width="0.1"/>
  <path d="M 78.02965749999998,41.09515099999999 L 85.14965749999999,41.745150999999964" fill="none" instance-id="-1" semantic-id="35" stroke="rgb(134,134,134)" stroke-width="0.1"/>
  <path d="M 85.21765749999997,40.68715099999997 L 80.75465750000001,40.65515099999993" fill="none" instance-id="-1" semantic-id="35" stroke="rgb(134,134,134)" stroke-width="0.1"/>
  <path d="M 77.77965749999998,44.86515099999997 L 83.68465750000001,43.73015099999998" fill="none" instance-id="-1" semantic-id="35" stroke="rgb(134,134,134)" stroke-width="0.1"/>
  <path d="M 82.92965750000002,47.62515099999996 L 83.68465750000001,43.73015099999998" fill="none" instance-id="-1" semantic-id="35" stroke="rgb(134,134,134)" stroke-width="0.1"/>
  <path d="M 85.77965749999998,41.685150999999905 L 85.92965750000002,41.685150999999905" fill="none" stroke="rgb(134,134,134)" stroke-width="0.1"/>
  <path d="M 85.8946575,41.810150999999905 L 86.3196575,41.85015099999998" fill="none" instance-id="-1" semantic-id="35" stroke="rgb(134,134,134)" stroke-width="0.1"/>
  <path d="M 85.92965750000002,41.685150999999905 L 85.80465750000002,42.120150999999964" fill="none" instance-id="-1" semantic-id="35" stroke="rgb(134,134,134)" stroke-width="0.1"/>
  <path d="M 86.3196575,41.85015099999998 L 85.85965749999997,41.935150999999905" fill="none" instance-id="-1" semantic-id="35" stroke="rgb(134,134,134)" stroke-width="0.1"/>
  <path d="M 85.92465749999997,40.560150999999905 L 85.77965749999998,41.685150999999905" fill="none" instance-id="-1" semantic-id="35" stroke="rgb(134,134,134)" stroke-width="0.1"/>
  <path d="M 85.92965750000002,41.685150999999905 L 85.9256575,40.604151" fill="none" instance-id="-1" semantic-id="35" stroke="rgb(134,134,134)" stroke-width="0.1"/>
  <path d="M 86.3196575,41.85015099999998 L 86.3196575,40.84515099999999" fill="none" instance-id="-1" semantic-id="35" stroke="rgb(134,134,134)" stroke-width="0.1"/>
  <path d="M 90.08965749999999,43.86015099999997 L 86.3196575,41.85015099999998" fill="none" instance-id="-1" semantic-id="35" stroke="rgb(134,134,134)" stroke-width="0.1"/>
  <path d="M 90.08965749999999,43.86015099999997 L 89.58965749999999,44.36015099999997" fill="none" instance-id="-1" semantic-id="35" stroke="rgb(134,134,134)" stroke-width="0.1"/>
  <path d="M 88.95965749999999,45.870150999999964 L 88.58465749999999,48.130150999999955" fill="none" instance-id="-1" semantic-id="35" stroke="rgb(134,134,134)" stroke-width="0.1"/>
  <path d="M 89.58965749999999,44.36015099999997 L 88.95965749999999,45.870150999999964" fill="none" instance-id="-1" semantic-id="35" stroke="rgb(134,134,134)" stroke-width="0.1"/>
  <path d="M 84.93965750000001,42.10015099999998 L 89.58965749999999,44.36015099999997" fill="none" instance-id="-1" semantic-id="35" stroke="rgb(134,134,134)" stroke-width="0.1"/>
  <path d="M 85.77965749999998,41.685150999999905 L 85.5096575,42.120150999999964" fill="none" instance-id="-1" semantic-id="35" stroke="rgb(134,134,134)" stroke-width="0.1"/>
  <path d="M 85.5096575,42.10515099999998 L 85.77965749999998,41.685150999999905" fill="none" instance-id="-1" semantic-id="35" stroke="rgb(134,134,134)" stroke-width="0.1"/>
  <path d="M 85.80465750000002,42.120150999999964 L 85.5196575,42.11015099999997" fill="none" instance-id="-1" semantic-id="35" stroke="rgb(134,134,134)" stroke-width="0.1"/>
  <path d="M 85.89365750000002,40.53115099999991 L 85.52965749999998,40.19215099999997" fill="none" instance-id="-1" semantic-id="35" stroke="rgb(134,134,134)" stroke-width="0.1"/>
  <path d="M 85.5196575,57.16515099999992 L 85.5096575,57.16515099999992" fill="none" stroke="rgb(134,134,134)" stroke-width="0.1"/>
  <path d="M 85.5096575,57.15015099999994 L 85.19665750000001,57.37115099999994" fill="none" instance-id="-1" semantic-id="35" stroke="rgb(134,134,134)" stroke-width="0.1"/>
  <path d="M 85.36965750000002,57.255150999999955 L 84.93965750000001,57.175150999999914" fill="none" instance-id="-1" semantic-id="35" stroke="rgb(134,134,134)" stroke-width="0.1"/>
  <path d="M 83.68465750000001,55.54015099999992 L 84.93965750000001,57.175150999999914" fill="none" instance-id="-1" semantic-id="35" stroke="rgb(134,134,134)" stroke-width="0.1"/>
  <path d="M 83.68465750000001,55.54015099999992 L 82.92965750000002,51.64515099999994" fill="none" instance-id="-1" semantic-id="35" stroke="rgb(134,134,134)" stroke-width="0.1"/>
  <path d="M 77.77965749999998,54.41015099999993 L 83.68465750000001,55.54015099999992" fill="none" instance-id="-1" semantic-id="35" stroke="rgb(134,134,134)" stroke-width="0.1"/>
  <path d="M 85.36665749999997,59.037150999999994 L 85.10965749999997,58.255150999999955" fill="none" instance-id="-1" semantic-id="35" stroke="rgb(134,134,134)" stroke-width="0.1"/>
  <path d="M 85.21965749999998,58.5891509999999 L 80.75465750000001,58.620150999999964" fill="none" instance-id="-1" semantic-id="35" stroke="rgb(134,134,134)" stroke-width="0.1"/>
  <path d="M 78.02965749999998,58.18015099999991 L 85.14965749999999,57.53515099999993" fill="none" instance-id="-1" semantic-id="35" stroke="rgb(134,134,134)" stroke-width="0.1"/>
  <path d="M 85.15465749999998,57.44715099999996 L 85.10965749999997,58.255150999999955" fill="none" instance-id="-1" semantic-id="35" stroke="rgb(134,134,134)" stroke-width="0.1"/>
  <path d="M 88.58465749999999,51.14515099999994 L 88.95965749999999,53.40515099999993" fill="none" instance-id="-1" semantic-id="35" stroke="rgb(134,134,134)" stroke-width="0.1"/>
  <path d="M 85.80465750000002,57.15015099999994 L 85.92965750000002,57.585150999999996" fill="none" instance-id="-1" semantic-id="35" stroke="rgb(134,134,134)" stroke-width="0.1"/>
  <path d="M 85.77965749999998,57.585150999999996 L 85.92965750000002,57.585150999999996" fill="none" stroke="rgb(134,134,134)" stroke-width="0.1"/>
  <path d="M 85.85965749999997,57.34515099999999 L 86.3196575,57.425150999999914" fill="none" instance-id="-1" semantic-id="35" stroke="rgb(134,134,134)" stroke-width="0.1"/>
  <path d="M 85.89965749999999,57.46515099999999 L 86.3196575,57.425150999999914" fill="none" instance-id="-1" semantic-id="35" stroke="rgb(134,134,134)" stroke-width="0.1"/>
  <path d="M 88.95965749999999,53.40515099999993 L 89.58965749999999,54.91515099999992" fill="none" instance-id="-1" semantic-id="35" stroke="rgb(134,134,134)" stroke-width="0.1"/>
  <path d="M 90.08965749999999,55.41515099999992 L 86.3196575,57.425150999999914" fill="none" instance-id="-1" semantic-id="35" stroke="rgb(134,134,134)" stroke-width="0.1"/>
  <path d="M 89.58965749999999,54.91515099999992 L 90.08965749999999,55.41515099999992" fill="none" instance-id="-1" semantic-id="35" stroke="rgb(134,134,134)" stroke-width="0.1"/>
  <path d="M 85.77965749999998,57.585150999999996 L 85.92465749999997,58.710150999999996" fill="none" instance-id="-1" semantic-id="35" stroke="rgb(134,134,134)" stroke-width="0.1"/>
  <path d="M 85.9256575,58.66715099999999 L 85.92965750000002,57.585150999999996" fill="none" instance-id="-1" semantic-id="35" stroke="rgb(134,134,134)" stroke-width="0.1"/>
  <path d="M 86.3196575,58.43015099999991 L 86.3196575,57.425150999999914" fill="none" instance-id="-1" semantic-id="35" stroke="rgb(134,134,134)" stroke-width="0.1"/>
  <path d="M 84.93965750000001,57.175150999999914 L 89.58965749999999,54.91515099999992" fill="none" instance-id="-1" semantic-id="35" stroke="rgb(134,134,134)" stroke-width="0.1"/>
  <path d="M 85.89365750000002,58.74015099999997 L 85.52965749999998,59.07915099999991" fill="none" instance-id="-1" semantic-id="35" stroke="rgb(134,134,134)" stroke-width="0.1"/>
  <path d="M 85.77965749999998,57.585150999999996 L 85.5096575,57.15015099999994" fill="none" instance-id="-1" semantic-id="35" stroke="rgb(134,134,134)" stroke-width="0.1"/>
  <path d="M 85.5096575,57.16515099999992 L 85.77965749999998,57.585150999999996" fill="none" instance-id="-1" semantic-id="35" stroke="rgb(134,134,134)" stroke-width="0.1"/>
  <path d="M 85.80465750000002,57.15015099999994 L 85.5196575,57.16515099999992" fill="none" instance-id="-1" semantic-id="35" stroke="rgb(134,134,134)" stroke-width="0.1"/>
  <path d="M 82.92965750000002,47.62515099999996 L 82.92965750000002,51.64515099999994" fill="none" instance-id="-1" semantic-id="35" stroke="rgb(134,134,134)" stroke-width="0.1"/>
  <path d="M 88.58465749999999,51.14515099999994 L 88.58465749999999,48.130150999999955" fill="none" instance-id="-1" semantic-id="35" stroke="rgb(134,134,134)" stroke-width="0.1"/>
  <path d="M 74.5146575,58.68015099999991 L 80.66965749999997,58.68015099999991" fill="none" instance-id="-1" semantic-id="35" stroke="rgb(134,134,134)" stroke-width="0.1"/>
  <path d="M 78.02965749999998,58.18015099999991 L 71.11965750000002,58.18015099999991" fill="none" instance-id="-1" semantic-id="35" stroke="rgb(134,134,134)" stroke-width="0.1"/>
  <path d="M 77.77965749999998,54.41015099999993 L 73.5096575,53.65515099999993" fill="none" instance-id="-1" semantic-id="35" stroke="rgb(134,134,134)" stroke-width="0.1"/>
  <path d="M 80.66965749999997,40.59015099999999 L 74.5146575,40.59015099999999" fill="none" instance-id="-1" semantic-id="35" stroke="rgb(134,134,134)" stroke-width="0.1"/>
  <path d="M 73.5096575,45.61515099999997 L 77.77965749999998,44.86515099999997" fill="none" instance-id="-1" semantic-id="35" stroke="rgb(134,134,134)" stroke-width="0.1"/>
  <path d="M 71.11965750000002,41.09515099999999 L 78.02965749999998,41.09515099999999" fill="none" instance-id="-1" semantic-id="35" stroke="rgb(134,134,134)" stroke-width="0.1"/>
  <path d="M 94.48965750000002,41.59515099999999 L 95.11465750000002,44.11015099999997" fill="none" instance-id="-1" semantic-id="35" stroke="rgb(134,134,134)" stroke-width="0.1"/>
  <path d="M 95.74465750000002,44.11015099999997 L 95.99465750000002,40.81615099999999" fill="none" instance-id="-1" semantic-id="35" stroke="rgb(134,134,134)" stroke-width="0.1"/>
  <path d="M 95.11465750000002,44.11015099999997 L 100.0,44.11015099999997" fill="none" instance-id="-1" semantic-id="35" stroke="rgb(134,134,134)" stroke-width="0.1"/>
  <path d="M 100.0,41.59515099999999 L 94.48965750000002,41.59515099999999" fill="none" instance-id="-1" semantic-id="35" stroke="rgb(134,134,134)" stroke-width="0.1"/>
  <path d="M 95.11465750000002,55.16515099999992 L 94.48965750000002,57.675150999999914" fill="none" instance-id="-1" semantic-id="35" stroke="rgb(134,134,134)" stroke-width="0.1"/>
  <path d="M 95.11465750000002,55.16515099999992 L 100.0,55.16515099999992" fill="none" instance-id="-1" semantic-id="35" stroke="rgb(134,134,134)" stroke-width="0.1"/>
  <path d="M 95.74465750000002,55.16515099999992 L 95.99465750000002,58.42415099999994" fill="none" instance-id="-1" semantic-id="35" stroke="rgb(134,134,134)" stroke-width="0.1"/>
  <path d="M 100.0,57.675150999999914 L 94.48965750000002,57.675150999999914" fill="none" instance-id="-1" semantic-id="35" stroke="rgb(134,134,134)" stroke-width="0.1"/>
  <path d="M 95.11465750000002,44.11015099999997 L 90.08965749999999,43.86015099999997" fill="none" instance-id="-1" semantic-id="35" stroke="rgb(134,134,134)" stroke-width="0.1"/>
  <path d="M 90.08965749999999,55.41515099999992 L 95.11465750000002,55.16515099999992" fill="none" instance-id="-1" semantic-id="35" stroke="rgb(134,134,134)" stroke-width="0.1"/>
  <path d="M 100.0,58.48508574358971 L 85.9256575,58.584150999999906" fill="none" instance-id="-1" semantic-id="35" stroke="rgb(134,134,134)" stroke-width="0.1"/>
  <path d="M 100.0,40.79057297552447 L 85.9256575,40.69215099999997" fill="none" instance-id="-1" semantic-id="35" stroke="rgb(134,134,134)" stroke-width="0.1"/>
  <path d="M 86.3196575,57.425150999999914 L 94.48965750000002,57.675150999999914" fill="none" instance-id="-1" semantic-id="35" stroke="rgb(134,134,134)" stroke-width="0.1"/>
  <path d="M 86.3196575,41.85015099999998 L 94.48965750000002,41.59515099999999" fill="none" instance-id="-1" semantic-id="35" stroke="rgb(134,134,134)" stroke-width="0.1"/>
  <path d="M 85.52965749999998,65.19215099999997 A 0.1,0.1 0.0 0,0 85.36665749999997,65.234151" fill="none" instance-id="-1" semantic-id="35" stroke="rgb(134,134,134)" stroke-width="0.1"/>
  <path d="M 85.15465749999998,66.82315099999994 A 0.1,0.1 0.0 0,0 85.19665750000001,66.90015099999994" fill="none" stroke="rgb(134,134,134)" stroke-width="0.1"/>
  <path d="M 85.9256575,65.604151 A 0.1,0.1 0.0 0,0 85.89365750000002,65.53115099999991" fill="none" stroke="rgb(134,134,134)" stroke-width="0.1"/>
  <path d="M 85.19665750000001,82.37115099999994 A 0.1,0.1 0.0 0,0 85.15465749999998,82.44715099999996" fill="none" stroke="rgb(134,134,134)" stroke-width="0.1"/>
  <path d="M 85.36665749999997,84.037151 A 0.1,0.1 0.0 0,0 85.52965749999998,84.07915099999991" fill="none" instance-id="-1" semantic-id="35" stroke="rgb(134,134,134)" stroke-width="0.1"/>
  <path d="M 85.89365750000002,83.74015099999997 A 0.1,0.1 0.0 0,0 85.9256575,83.66715099999999" fill="none" stroke="rgb(134,134,134)" stroke-width="0.1"/>
  <path d="M 85.52965749999998,90.19215099999997 A 0.1,0.1 0.0 0,0 85.36665749999997,90.234151" fill="none" instance-id="-1" semantic-id="35" stroke="rgb(134,134,134)" stroke-width="0.1"/>
  <path d="M 85.15465749999998,91.82315099999994 A 0.1,0.1 0.0 0,0 85.19665750000001,91.90015099999994" fill="none" stroke="rgb(134,134,134)" stroke-width="0.1"/>
  <path d="M 85.9256575,90.604151 A 0.1,0.1 0.0 0,0 85.89365750000002,90.53115099999991" fill="none" stroke="rgb(134,134,134)" stroke-width="0.1"/>
  <path d="M 85.52965749999998,40.19215099999997 A 0.1,0.1 0.0 0,0 85.36665749999997,40.234151" fill="none" instance-id="-1" semantic-id="35" stroke="rgb(134,134,134)" stroke-width="0.1"/>
  <path d="M 85.15465749999998,41.82315099999994 A 0.1,0.1 0.0 0,0 85.19665750000001,41.90015099999994" fill="none" stroke="rgb(134,134,134)" stroke-width="0.1"/>
  <path d="M 85.9256575,40.604151 A 0.1,0.1 0.0 0,0 85.89365750000002,40.53115099999991" fill="none" stroke="rgb(134,134,134)" stroke-width="0.1"/>
  <path d="M 85.19665750000001,57.37115099999994 A 0.1,0.1 0.0 0,0 85.15465749999998,57.44715099999996" fill="none" stroke="rgb(134,134,134)" stroke-width="0.1"/>
  <path d="M 85.36665749999997,59.037150999999994 A 0.1,0.1 0.0 0,0 85.52965749999998,59.07915099999991" fill="none" instance-id="-1" semantic-id="35" stroke="rgb(134,134,134)" stroke-width="0.1"/>
  <path d="M 85.89365750000002,58.74015099999997 A 0.1,0.1 0.0 0,0 85.9256575,58.66715099999999" fill="none" stroke="rgb(134,134,134)" stroke-width="0.1"/>
  <path d="M 67.0436575,87.13515099999995 L 100.0,87.13515099999995" fill="none" instance-id="-1" semantic-id="35" stroke="rgb(134,134,134)" stroke-width="0.1"/>
  <path d="M 100.0,62.13515099999995 L 67.0436575,62.13515099999995" fill="none" instance-id="-1" semantic-id="35" stroke="rgb(134,134,134)" stroke-width="0.1"/>
  <path d="M 67.0436575,62.13515099999995 L 67.0436575,87.13515099999995" fill="none" instance-id="-1" semantic-id="35" stroke="rgb(134,134,134)" stroke-width="0.1"/>
  <path d="M 100.0,87.13515099999995 L 67.0436575,87.13515099999995" fill="none" instance-id="-1" semantic-id="35" stroke="rgb(134,134,134)" stroke-width="0.1"/>
  <path d="M 67.0436575,87.13515099999995 L 67.0436575,100.0" fill="none" instance-id="-1" semantic-id="35" stroke="rgb(134,134,134)" stroke-width="0.1"/>
  <path d="M 67.0436575,62.13515099999995 L 100.0,62.13515099999995" fill="none" instance-id="-1" semantic-id="35" stroke="rgb(134,134,134)" stroke-width="0.1"/>
  <path d="M 100.0,37.13515099999995 L 67.0436575,37.13515099999995" fill="none" instance-id="-1" semantic-id="35" stroke="rgb(134,134,134)" stroke-width="0.1"/>
  <path d="M 67.0436575,37.13515099999995 L 67.0436575,62.13515099999995" fill="none" instance-id="-1" semantic-id="35" stroke="rgb(134,134,134)" stroke-width="0.1"/>
 </g>
</svg>