<?xml version="1.0" encoding="utf-8"?>
<svg style="background-color: #000;" version="1.1" viewBox="0 0 100.0 100.0" xmlns="http://www.w3.org/2000/svg" xmlns:inkscape="http://www.inkscape.org/namespaces/inkscape">
 <g id="layerA-ANNO-DIMS" inkscape:groupmode="layer" inkscape:label="A-ANNO-DIMS">
  <path d="M 15.043657499999995,27.297650999999973 L 31.701357499999993,27.297650999999973" fill="none" stroke="rgb(0,178,0)" stroke-width="0.1"/>
  <path d="M 15.043657499999995,21.297650999999973 L 31.701357499999993,21.297650999999973" fill="none" stroke="rgb(0,178,0)" stroke-width="0.1"/>
  <path d="M 27.951357499999993,27.297650999999973 L 27.951357499999993,28.797650999999973" fill="none" stroke="rgb(0,178,0)" stroke-width="0.1"/>
  <path d="M 27.951357499999993,21.297650999999973 L 27.951357499999993,19.797650999999973" fill="none" stroke="rgb(0,178,0)" stroke-width="0.1"/>
  <path d="M 27.951357499999993,27.297650999999973 L 27.951357499999993,21.297650999999973" fill="none" stroke="rgb(0,178,0)" stroke-width="0.1"/>
  <path d="M 15.043657499999995,87.29765099999997 L 31.701357499999993,87.29765099999997" fill="none" stroke="rgb(0,178,0)" stroke-width="0.1"/>
  <path d="M 15.043657499999995,27.297650999999973 L 31.701357499999993,27.297650999999973" fill="none" stroke="rgb(0,178,0)" stroke-width="0.1"/>
  <path d="M 27.951357499999993,87.29765099999997 L 27.951357499999993,27.297650999999973" fill="none" stroke="rgb(0,178,0)" stroke-width="0.1"/>
  <path d="M 15.043657499999995,87.29765099999997 L 31.701357499999993,87.29765099999997" fill="none" stroke="rgb(0,178,0)" stroke-width="0.1"/>
  <path d="M 27.951357499999993,100.0 L 27.951357499999993,87.29765099999997" fill="none" stroke="rgb(0,178,0)" stroke-width="0.1"/>
  <path d="M 75.5436575,33.65465100000006 L 75.5436575,53.243651" fill="none" stroke="rgb(0,178,0)" stroke-width="0.1"/>
  <path d="M 75.5436575,49.493651 L 100.0,49.493651" fill="none" stroke="rgb(0,178,0)" stroke-width="0.1"/>
  <path d="M 74.5436575,33.65465100000006 L 74.5436575,53.243651" fill="none" stroke="rgb(0,178,0)" stroke-width="0.1"/>
  <path d="M 75.5436575,33.65465100000006 L 75.5436575,53.243651" fill="none" stroke="rgb(0,178,0)" stroke-width="0.1"/>
  <path d="M 74.5436575,49.493651 L 73.0436575,49.493651" fill="none" stroke="rgb(0,178,0)" stroke-width="0.1"/>
  <path d="M 75.5436575,49.493651 L 77.0436575,49.493651" fill="none" stroke="rgb(0,178,0)" stroke-width="0.1"/>
  <path d="M 74.5436575,49.493651 L 75.5436575,49.493651" fill="none" stroke="rgb(0,178,0)" stroke-width="0.1"/>
  <path d="M 72.5436575,33.65465100000006 L 72.5436575,53.243651" fill="none" stroke="rgb(0,178,0)" stroke-width="0.1"/>
  <path d="M 74.5436575,33.65465100000006 L 74.5436575,53.243651" fill="none" stroke="rgb(0,178,0)" stroke-width="0.1"/>
  <path d="M 72.5436575,49.493651 L 71.0436575,49.493651" fill="none" stroke="rgb(0,178,0)" stroke-width="0.1"/>
  <path d="M 74.5436575,49.493651 L 76.0436575,49.493651" fill="none" stroke="rgb(0,178,0)" stroke-width="0.1"/>
  <path d="M 72.5436575,49.493651 L 74.5436575,49.493651" fill="none" stroke="rgb(0,178,0)" stroke-width="0.1"/>
  <path d="M 51.543657499999995,33.65465100000006 L 51.543657499999995,53.243651" fill="none" stroke="rgb(0,178,0)" stroke-width="0.1"/>
  <path d="M 72.5436575,33.65465100000006 L 72.5436575,53.243651" fill="none" stroke="rgb(0,178,0)" stroke-width="0.1"/>
  <path d="M 51.543657499999995,49.493651 L 72.5436575,49.493651" fill="none" stroke="rgb(0,178,0)" stroke-width="0.1"/>
  <path d="M 34.543657499999995,33.65465100000006 L 34.543657499999995,53.243651" fill="none" stroke="rgb(0,178,0)" stroke-width="0.1"/>
  <path d="M 51.543657499999995,33.65465100000006 L 51.543657499999995,53.243651" fill="none" stroke="rgb(0,178,0)" stroke-width="0.1"/>
  <path d="M 34.543657499999995,49.493651 L 51.543657499999995,49.493651" fill="none" stroke="rgb(0,178,0)" stroke-width="0.1"/>
  <path d="M 10.543657499999995,33.65465100000006 L 10.543657499999995,53.243651" fill="none" stroke="rgb(0,178,0)" stroke-width="0.1"/>
  <path d="M 34.543657499999995,33.65465100000006 L 34.543657499999995,53.243651" fill="none" stroke="rgb(0,178,0)" stroke-width="0.1"/>
  <path d="M 10.543657499999995,49.493651 L 34.543657499999995,49.493651" fill="none" stroke="rgb(0,178,0)" stroke-width="0.1"/>
  <text fill="rgb(0,178,0)" font-family="Noto Sans CJK SC" font-size="2" transform="rotate(-90.0,26.451357499999993,28.87265100000002)" x="26.451357499999993" y="28.87265100000002">
   600
  </text>
  <text fill="rgb(0,178,0)" font-family="Noto Sans CJK SC" font-size="2" transform="rotate(-90.0,26.451357499999993,63.37265100000002)" x="26.451357499999993" y="63.37265100000002">
   6000
  </text>
  <text fill="rgb(0,178,0)" font-family="Noto Sans CJK SC" font-size="2" transform="rotate(-0.0,70.3186575,42.35065099999997)" x="70.3186575" y="42.35065099999997">
   100
  </text>
  <text fill="rgb(0,178,0)" font-family="Noto Sans CJK SC" font-size="2" transform="rotate(-0.0,69.0436575,47.993651)" x="69.0436575" y="47.993651">
   200
  </text>
  <text fill="rgb(0,178,0)" font-family="Noto Sans CJK SC" font-size="2" transform="rotate(-0.0,56.043657499999995,47.993651)" x="56.043657499999995" y="47.993651">
   2100
  </text>
  <text fill="rgb(0,178,0)" font-family="Noto Sans CJK SC" font-size="2" transform="rotate(-0.0,36.81865749999999,47.993651)" x="36.81865749999999" y="47.993651">
   1700
  </text>
  <text fill="rgb(0,178,0)" font-family="Noto Sans CJK SC" font-size="2" transform="rotate(-0.0,16.543657499999995,47.993651)" x="16.543657499999995" y="47.993651">
   2400
  </text>
 </g>
 <g id="layerA-DOTE" inkscape:groupmode="layer" inkscape:label="A-DOTE">
  <path d="M 75.5436575,100.0 L 75.5436575,0.0" fill="none" stroke="rgb(107,53,53)" stroke-width="0.1"/>
  <path d="M 6.347857499999996,87.29765099999997 L 100.0,87.29765099999997" fill="none" stroke="rgb(107,53,53)" stroke-width="0.1"/>
 </g>
 <g id="layerA-HATCH" inkscape:groupmode="layer" inkscape:label="A-HATCH">
  <path d="M 52.7436575,28.49765100000002 L 53.543657499999995,28.49765100000002" fill="none" stroke="rgb(92,92,92)" stroke-width="0.1"/>
  <path d="M 51.543657499999995,26.897650999999996 L 53.543657499999995,26.897650999999996" fill="none" stroke="rgb(92,92,92)" stroke-width="0.1"/>
  <path d="M 51.543657499999995,25.297650999999973 L 53.543657499999995,25.297650999999973" fill="none" stroke="rgb(92,92,92)" stroke-width="0.1"/>
  <path d="M 51.543657499999995,23.697651000000064 L 53.543657499999995,23.697651000000064" fill="none" stroke="rgb(92,92,92)" stroke-width="0.1"/>
  <path d="M 51.543657499999995,22.09765100000004 L 52.34365749999999,22.09765100000004" fill="none" stroke="rgb(92,92,92)" stroke-width="0.1"/>
  <path d="M 32.543657499999995,28.49765100000002 L 33.34365749999999,28.49765100000002" fill="none" stroke="rgb(92,92,92)" stroke-width="0.1"/>
  <path d="M 32.543657499999995,26.897650999999996 L 34.543657499999995,26.897650999999996" fill="none" stroke="rgb(92,92,92)" stroke-width="0.1"/>
  <path d="M 32.543657499999995,25.297650999999973 L 34.543657499999995,25.297650999999973" fill="none" stroke="rgb(92,92,92)" stroke-width="0.1"/>
  <path d="M 32.543657499999995,23.697651000000064 L 34.543657499999995,23.697651000000064" fill="none" stroke="rgb(92,92,92)" stroke-width="0.1"/>
  <path d="M 33.7436575,22.09765100000004 L 34.543657499999995,22.09765100000004" fill="none" stroke="rgb(92,92,92)" stroke-width="0.1"/>
  <path d="M 33.2436575,28.59765100000004 L 33.2436575,29.297650999999973" fill="none" stroke="rgb(92,92,92)" stroke-width="0.1"/>
  <path d="M 34.643657499999996,27.297650999999973 L 34.643657499999996,29.297650999999973" fill="none" stroke="rgb(92,92,92)" stroke-width="0.1"/>
  <path d="M 51.4436575,27.297650999999973 L 51.4436575,29.297650999999973" fill="none" stroke="rgb(92,92,92)" stroke-width="0.1"/>
  <path d="M 52.84365749999999,28.59765100000004 L 52.84365749999999,29.297650999999973" fill="none" stroke="rgb(92,92,92)" stroke-width="0.1"/>
  <path d="M 52.2436575,21.297650999999973 L 52.2436575,21.99765100000002" fill="none" stroke="rgb(92,92,92)" stroke-width="0.1"/>
  <path d="M 53.64365749999999,21.297650999999973 L 53.64365749999999,23.297650999999973" fill="none" stroke="rgb(92,92,92)" stroke-width="0.1"/>
  <path d="M 55.043657499999995,21.297650999999973 L 55.043657499999995,23.297650999999973" fill="none" stroke="rgb(92,92,92)" stroke-width="0.1"/>
  <path d="M 56.4436575,21.297650999999973 L 56.4436575,23.297650999999973" fill="none" stroke="rgb(92,92,92)" stroke-width="0.1"/>
  <path d="M 57.84365749999999,21.297650999999973 L 57.84365749999999,23.297650999999973" fill="none" stroke="rgb(92,92,92)" stroke-width="0.1"/>
  <path d="M 59.2436575,21.297650999999973 L 59.2436575,23.297650999999973" fill="none" stroke="rgb(92,92,92)" stroke-width="0.1"/>
  <path d="M 60.64365749999999,21.297650999999973 L 60.64365749999999,23.297650999999973" fill="none" stroke="rgb(92,92,92)" stroke-width="0.1"/>
  <path d="M 62.043657499999995,21.297650999999973 L 62.043657499999995,23.297650999999973" fill="none" stroke="rgb(92,92,92)" stroke-width="0.1"/>
  <path d="M 63.4436575,21.297650999999973 L 63.4436575,23.297650999999973" fill="none" stroke="rgb(92,92,92)" stroke-width="0.1"/>
  <path d="M 64.84365749999999,21.297650999999973 L 64.84365749999999,23.297650999999973" fill="none" stroke="rgb(92,92,92)" stroke-width="0.1"/>
  <path d="M 66.2436575,21.297650999999973 L 66.2436575,23.297650999999973" fill="none" stroke="rgb(92,92,92)" stroke-width="0.1"/>
  <path d="M 67.64365749999999,21.297650999999973 L 67.64365749999999,23.297650999999973" fill="none" stroke="rgb(92,92,92)" stroke-width="0.1"/>
  <path d="M 69.0436575,21.297650999999973 L 69.0436575,23.297650999999973" fill="none" stroke="rgb(92,92,92)" stroke-width="0.1"/>
  <path d="M 70.4436575,21.297650999999973 L 70.4436575,23.297650999999973" fill="none" stroke="rgb(92,92,92)" stroke-width="0.1"/>
  <path d="M 71.84365749999999,21.297650999999973 L 71.84365749999999,23.297650999999973" fill="none" stroke="rgb(92,92,92)" stroke-width="0.1"/>
  <path d="M 11.249557499999995,21.297650999999973 L 11.249557499999995,22.00365099999999" fill="none" stroke="rgb(92,92,92)" stroke-width="0.1"/>
  <path d="M 12.661257499999994,21.297650999999973 L 12.661257499999994,23.297650999999973" fill="none" stroke="rgb(92,92,92)" stroke-width="0.1"/>
  <path d="M 14.073057499999994,21.297650999999973 L 14.073057499999994,23.297650999999973" fill="none" stroke="rgb(92,92,92)" stroke-width="0.1"/>
  <path d="M 15.484857499999993,21.297650999999973 L 15.484857499999993,23.297650999999973" fill="none" stroke="rgb(92,92,92)" stroke-width="0.1"/>
  <path d="M 16.896557499999993,21.297650999999973 L 16.896557499999993,23.297650999999973" fill="none" stroke="rgb(92,92,92)" stroke-width="0.1"/>
  <path d="M 18.308357499999993,21.297650999999973 L 18.308357499999993,23.297650999999973" fill="none" stroke="rgb(92,92,92)" stroke-width="0.1"/>
  <path d="M 19.720157499999992,21.297650999999973 L 19.720157499999992,23.297650999999973" fill="none" stroke="rgb(92,92,92)" stroke-width="0.1"/>
  <path d="M 21.131857499999995,21.297650999999973 L 21.131857499999995,23.297650999999973" fill="none" stroke="rgb(92,92,92)" stroke-width="0.1"/>
  <path d="M 22.543657499999995,21.297650999999973 L 22.543657499999995,23.297650999999973" fill="none" stroke="rgb(92,92,92)" stroke-width="0.1"/>
  <path d="M 23.955457499999994,21.297650999999973 L 23.955457499999994,23.297650999999973" fill="none" stroke="rgb(92,92,92)" stroke-width="0.1"/>
  <path d="M 25.367157499999998,21.297650999999973 L 25.367157499999998,23.297650999999973" fill="none" stroke="rgb(92,92,92)" stroke-width="0.1"/>
  <path d="M 26.778957499999997,21.297650999999973 L 26.778957499999997,23.297650999999973" fill="none" stroke="rgb(92,92,92)" stroke-width="0.1"/>
  <path d="M 28.190757499999997,21.297650999999973 L 28.190757499999997,23.297650999999973" fill="none" stroke="rgb(92,92,92)" stroke-width="0.1"/>
  <path d="M 29.602457499999993,21.297650999999973 L 29.602457499999993,23.297650999999973" fill="none" stroke="rgb(92,92,92)" stroke-width="0.1"/>
  <path d="M 31.014257499999992,21.297650999999973 L 31.014257499999992,23.297650999999973" fill="none" stroke="rgb(92,92,92)" stroke-width="0.1"/>
  <path d="M 32.42605749999999,21.297650999999973 L 32.42605749999999,23.297650999999973" fill="none" stroke="rgb(92,92,92)" stroke-width="0.1"/>
  <path d="M 33.837757499999995,21.297650999999973 L 33.837757499999995,22.00365099999999" fill="none" stroke="rgb(92,92,92)" stroke-width="0.1"/>
  <path d="M 10.543657499999995,99.69165099999998 L 12.543657499999995,99.69165099999998" fill="none" stroke="rgb(92,92,92)" stroke-width="0.1"/>
  <path d="M 10.543657499999995,98.27865099999997 L 12.543657499999995,98.27865099999997" fill="none" stroke="rgb(92,92,92)" stroke-width="0.1"/>
  <path d="M 10.543657499999995,96.86665100000005 L 12.543657499999995,96.86665100000005" fill="none" stroke="rgb(92,92,92)" stroke-width="0.1"/>
  <path d="M 10.543657499999995,95.45365100000004 L 12.543657499999995,95.45365100000004" fill="none" stroke="rgb(92,92,92)" stroke-width="0.1"/>
  <path d="M 10.543657499999995,94.041651 L 12.543657499999995,94.041651" fill="none" stroke="rgb(92,92,92)" stroke-width="0.1"/>
  <path d="M 10.543657499999995,92.62865099999999 L 12.543657499999995,92.62865099999999" fill="none" stroke="rgb(92,92,92)" stroke-width="0.1"/>
  <path d="M 10.543657499999995,91.21665100000007 L 12.543657499999995,91.21665100000007" fill="none" stroke="rgb(92,92,92)" stroke-width="0.1"/>
  <path d="M 10.543657499999995,89.80365100000006 L 12.543657499999995,89.80365100000006" fill="none" stroke="rgb(92,92,92)" stroke-width="0.1"/>
  <path d="M 10.543657499999995,88.39165100000002 L 12.543657499999995,88.39165100000002" fill="none" stroke="rgb(92,92,92)" stroke-width="0.1"/>
  <path d="M 10.543657499999995,86.97865100000001 L 12.543657499999995,86.97865100000001" fill="none" stroke="rgb(92,92,92)" stroke-width="0.1"/>
  <path d="M 10.543657499999995,85.56665099999998 L 12.543657499999995,85.56665099999998" fill="none" stroke="rgb(92,92,92)" stroke-width="0.1"/>
  <path d="M 10.543657499999995,84.15365099999997 L 12.543657499999995,84.15365099999997" fill="none" stroke="rgb(92,92,92)" stroke-width="0.1"/>
  <path d="M 10.543657499999995,82.74165100000005 L 12.543657499999995,82.74165100000005" fill="none" stroke="rgb(92,92,92)" stroke-width="0.1"/>
  <path d="M 10.543657499999995,81.32865100000004 L 12.543657499999995,81.32865100000004" fill="none" stroke="rgb(92,92,92)" stroke-width="0.1"/>
  <path d="M 10.543657499999995,79.916651 L 12.543657499999995,79.916651" fill="none" stroke="rgb(92,92,92)" stroke-width="0.1"/>
  <path d="M 10.543657499999995,78.50365099999999 L 12.543657499999995,78.50365099999999" fill="none" stroke="rgb(92,92,92)" stroke-width="0.1"/>
  <path d="M 10.543657499999995,77.09165100000007 L 12.543657499999995,77.09165100000007" fill="none" stroke="rgb(92,92,92)" stroke-width="0.1"/>
  <path d="M 10.543657499999995,75.67865100000006 L 12.543657499999995,75.67865100000006" fill="none" stroke="rgb(92,92,92)" stroke-width="0.1"/>
  <path d="M 10.543657499999995,74.26665100000002 L 12.543657499999995,74.26665100000002" fill="none" stroke="rgb(92,92,92)" stroke-width="0.1"/>
  <path d="M 10.543657499999995,72.85365100000001 L 12.543657499999995,72.85365100000001" fill="none" stroke="rgb(92,92,92)" stroke-width="0.1"/>
  <path d="M 10.543657499999995,71.44165099999998 L 12.543657499999995,71.44165099999998" fill="none" stroke="rgb(92,92,92)" stroke-width="0.1"/>
  <path d="M 10.543657499999995,70.02865099999997 L 12.543657499999995,70.02865099999997" fill="none" stroke="rgb(92,92,92)" stroke-width="0.1"/>
  <path d="M 10.543657499999995,68.61665100000005 L 12.543657499999995,68.61665100000005" fill="none" stroke="rgb(92,92,92)" stroke-width="0.1"/>
  <path d="M 10.543657499999995,67.20365100000004 L 12.543657499999995,67.20365100000004" fill="none" stroke="rgb(92,92,92)" stroke-width="0.1"/>
  <path d="M 10.543657499999995,65.791651 L 12.543657499999995,65.791651" fill="none" stroke="rgb(92,92,92)" stroke-width="0.1"/>
  <path d="M 10.543657499999995,64.37865099999999 L 12.543657499999995,64.37865099999999" fill="none" stroke="rgb(92,92,92)" stroke-width="0.1"/>
  <path d="M 10.543657499999995,62.96665100000007 L 12.543657499999995,62.96665100000007" fill="none" stroke="rgb(92,92,92)" stroke-width="0.1"/>
  <path d="M 10.543657499999995,61.55365100000006 L 12.543657499999995,61.55365100000006" fill="none" stroke="rgb(92,92,92)" stroke-width="0.1"/>
  <path d="M 10.543657499999995,60.141651000000024 L 12.543657499999995,60.141651000000024" fill="none" stroke="rgb(92,92,92)" stroke-width="0.1"/>
  <path d="M 10.543657499999995,58.72865100000001 L 12.543657499999995,58.72865100000001" fill="none" stroke="rgb(92,92,92)" stroke-width="0.1"/>
  <path d="M 10.543657499999995,57.31665099999998 L 12.543657499999995,57.31665099999998" fill="none" stroke="rgb(92,92,92)" stroke-width="0.1"/>
  <path d="M 10.543657499999995,55.90365099999997 L 12.543657499999995,55.90365099999997" fill="none" stroke="rgb(92,92,92)" stroke-width="0.1"/>
  <path d="M 10.543657499999995,54.49165100000005 L 12.543657499999995,54.49165100000005" fill="none" stroke="rgb(92,92,92)" stroke-width="0.1"/>
  <path d="M 10.543657499999995,53.078651000000036 L 12.543657499999995,53.078651000000036" fill="none" stroke="rgb(92,92,92)" stroke-width="0.1"/>
  <path d="M 10.543657499999995,51.666651 L 12.543657499999995,51.666651" fill="none" stroke="rgb(92,92,92)" stroke-width="0.1"/>
  <path d="M 10.543657499999995,50.25365099999999 L 12.543657499999995,50.25365099999999" fill="none" stroke="rgb(92,92,92)" stroke-width="0.1"/>
  <path d="M 10.543657499999995,48.84165100000007 L 12.543657499999995,48.84165100000007" fill="none" stroke="rgb(92,92,92)" stroke-width="0.1"/>
  <path d="M 10.543657499999995,47.42865100000006 L 12.543657499999995,47.42865100000006" fill="none" stroke="rgb(92,92,92)" stroke-width="0.1"/>
  <path d="M 10.543657499999995,46.016651000000024 L 12.543657499999995,46.016651000000024" fill="none" stroke="rgb(92,92,92)" stroke-width="0.1"/>
  <path d="M 10.543657499999995,44.60365100000001 L 12.543657499999995,44.60365100000001" fill="none" stroke="rgb(92,92,92)" stroke-width="0.1"/>
  <path d="M 10.543657499999995,43.19165099999998 L 12.543657499999995,43.19165099999998" fill="none" stroke="rgb(92,92,92)" stroke-width="0.1"/>
  <path d="M 10.543657499999995,41.77865099999997 L 12.543657499999995,41.77865099999997" fill="none" stroke="rgb(92,92,92)" stroke-width="0.1"/>
  <path d="M 10.543657499999995,40.36665100000005 L 12.543657499999995,40.36665100000005" fill="none" stroke="rgb(92,92,92)" stroke-width="0.1"/>
  <path d="M 10.543657499999995,38.953651000000036 L 12.543657499999995,38.953651000000036" fill="none" stroke="rgb(92,92,92)" stroke-width="0.1"/>
  <path d="M 10.543657499999995,37.541651 L 12.543657499999995,37.541651" fill="none" stroke="rgb(92,92,92)" stroke-width="0.1"/>
  <path d="M 10.543657499999995,36.12865099999999 L 12.543657499999995,36.12865099999999" fill="none" stroke="rgb(92,92,92)" stroke-width="0.1"/>
  <path d="M 10.543657499999995,34.71665100000007 L 12.543657499999995,34.71665100000007" fill="none" stroke="rgb(92,92,92)" stroke-width="0.1"/>
  <path d="M 10.543657499999995,33.30365100000006 L 12.543657499999995,33.30365100000006" fill="none" stroke="rgb(92,92,92)" stroke-width="0.1"/>
  <path d="M 10.543657499999995,31.891651000000024 L 12.543657499999995,31.891651000000024" fill="none" stroke="rgb(92,92,92)" stroke-width="0.1"/>
  <path d="M 10.543657499999995,30.478651000000013 L 12.543657499999995,30.478651000000013" fill="none" stroke="rgb(92,92,92)" stroke-width="0.1"/>
  <path d="M 10.543657499999995,29.06665099999998 L 12.543657499999995,29.06665099999998" fill="none" stroke="rgb(92,92,92)" stroke-width="0.1"/>
  <path d="M 10.543657499999995,27.653650999999968 L 12.543657499999995,27.653650999999968" fill="none" stroke="rgb(92,92,92)" stroke-width="0.1"/>
  <path d="M 10.543657499999995,26.241651000000047 L 12.543657499999995,26.241651000000047" fill="none" stroke="rgb(92,92,92)" stroke-width="0.1"/>
  <path d="M 10.543657499999995,24.828651000000036 L 12.543657499999995,24.828651000000036" fill="none" stroke="rgb(92,92,92)" stroke-width="0.1"/>
  <path d="M 10.543657499999995,23.416651 L 12.543657499999995,23.416651" fill="none" stroke="rgb(92,92,92)" stroke-width="0.1"/>
  <path d="M 10.543657499999995,22.00365099999999 L 11.249857499999994,22.00365099999999" fill="none" stroke="rgb(92,92,92)" stroke-width="0.1"/>
  <path d="M 32.543657499999995,0.2976510000000303 L 72.5436575,0.2976510000000303" fill="none" stroke="rgb(92,92,92)" stroke-width="0.1"/>
  <path d="M 72.5436575,0.2976510000000303 L 72.5436575,0.0" fill="none" stroke="rgb(92,92,92)" stroke-width="0.1"/>
  <path d="M 32.543657499999995,0.0 L 32.543657499999995,0.2976510000000303" fill="none" stroke="rgb(92,92,92)" stroke-width="0.1"/>
 </g>
 <g id="layerA-PUB_TEXT" inkscape:groupmode="layer" inkscape:label="A-PUB_TEXT">
  <text fill="rgb(0,0,0)" font-family="Noto Sans CJK SC" font-size="2" transform="rotate(-0.0,93.0556575,69.56365100000005)" x="93.0556575" y="69.56365100000005">
   餐饮
  </text>
 </g>
 <g id="layerA-WALL" inkscape:groupmode="layer" inkscape:label="A-WALL">
  <path d="M 74.5436575,21.297650999999973 L 74.5436575,20.797650999999973" fill="none" instance-id="-1" semantic-id="1" stroke="rgb(0,178,178)" stroke-width="0.1"/>
  <path d="M 74.5436575,20.797650999999973 L 72.5436575,20.797650999999973" fill="none" instance-id="-1" semantic-id="1" stroke="rgb(0,178,178)" stroke-width="0.1"/>
  <path d="M 72.5436575,20.797650999999973 L 72.5436575,23.297650999999973" fill="none" instance-id="-1" semantic-id="1" stroke="rgb(0,178,178)" stroke-width="0.1"/>
  <path d="M 72.5436575,0.2976510000000303 L 72.5436575,0.7976510000000303" fill="none" instance-id="-1" semantic-id="1" stroke="rgb(0,178,178)" stroke-width="0.1"/>
  <path d="M 72.5436575,0.7976510000000303 L 74.5436575,0.7976510000000303" fill="none" instance-id="-1" semantic-id="1" stroke="rgb(0,178,178)" stroke-width="0.1"/>
  <path d="M 74.5436575,0.7976510000000303 L 74.5436575,0.2976510000000303" fill="none" instance-id="-1" semantic-id="1" stroke="rgb(0,178,178)" stroke-width="0.1"/>
  <path d="M 28.543657499999995,0.2976510000000303 L 19.543657499999995,0.2976510000000303" fill="none" instance-id="-1" semantic-id="1" stroke="rgb(0,178,178)" stroke-width="0.1"/>
  <path d="M 19.543657499999995,0.0 L 19.543657499999995,0.2976510000000303" fill="none" instance-id="-1" semantic-id="1" stroke="rgb(0,178,178)" stroke-width="0.1"/>
  <path d="M 74.5436575,21.297650999999973 L 100.0,21.297650999999973" fill="none" instance-id="-1" semantic-id="1" stroke="rgb(0,178,178)" stroke-width="0.1"/>
  <path d="M 72.5436575,23.297650999999973 L 100.0,23.297650999999973" fill="none" instance-id="-1" semantic-id="1" stroke="rgb(0,178,178)" stroke-width="0.1"/>
 </g>
 <g id="layerA-WALL-CONC" inkscape:groupmode="layer" inkscape:label="A-WALL-CONC">
  <path d="M 32.543657499999995,0.2976510000000303 L 72.5436575,0.2976510000000303" fill="none" stroke="rgb(0,178,178)" stroke-width="0.1"/>
 </g>
 <g id="layerA-WALL-STUD" inkscape:groupmode="layer" inkscape:label="A-WALL-STUD">
  <path d="M 51.543657499999995,27.297650999999973 L 51.543657499999995,21.297650999999973" fill="none" instance-id="-1" semantic-id="1" stroke="rgb(255,133,12)" stroke-width="0.1"/>
  <path d="M 53.543657499999995,29.297650999999973 L 53.543657499999995,23.297650999999973" fill="none" instance-id="-1" semantic-id="1" stroke="rgb(255,133,12)" stroke-width="0.1"/>
  <path d="M 32.543657499999995,29.297650999999973 L 32.543657499999995,23.297650999999973" fill="none" instance-id="-1" semantic-id="1" stroke="rgb(255,133,12)" stroke-width="0.1"/>
  <path d="M 34.543657499999995,27.297650999999973 L 34.543657499999995,21.297650999999973" fill="none" instance-id="-1" semantic-id="1" stroke="rgb(255,133,12)" stroke-width="0.1"/>
  <path d="M 32.543657499999995,29.297650999999973 L 35.543657499999995,29.297650999999973" fill="none" instance-id="-1" semantic-id="1" stroke="rgb(255,133,12)" stroke-width="0.1"/>
  <path d="M 35.543657499999995,29.297650999999973 L 35.543657499999995,27.297650999999973" fill="none" instance-id="-1" semantic-id="1" stroke="rgb(255,133,12)" stroke-width="0.1"/>
  <path d="M 35.543657499999995,27.297650999999973 L 34.543657499999995,27.297650999999973" fill="none" instance-id="-1" semantic-id="1" stroke="rgb(255,133,12)" stroke-width="0.1"/>
  <path d="M 51.543657499999995,27.297650999999973 L 50.543657499999995,27.297650999999973" fill="none" instance-id="-1" semantic-id="1" stroke="rgb(255,133,12)" stroke-width="0.1"/>
  <path d="M 50.543657499999995,27.297650999999973 L 50.543657499999995,29.297650999999973" fill="none" instance-id="-1" semantic-id="1" stroke="rgb(255,133,12)" stroke-width="0.1"/>
  <path d="M 50.543657499999995,29.297650999999973 L 53.543657499999995,29.297650999999973" fill="none" instance-id="-1" semantic-id="1" stroke="rgb(255,133,12)" stroke-width="0.1"/>
  <path d="M 51.543657499999995,21.297650999999973 L 72.5436575,21.297650999999973" fill="none" instance-id="-1" semantic-id="1" stroke="rgb(255,133,12)" stroke-width="0.1"/>
  <path d="M 53.543657499999995,23.297650999999973 L 72.5436575,23.297650999999973" fill="none" instance-id="-1" semantic-id="1" stroke="rgb(255,133,12)" stroke-width="0.1"/>
  <path d="M 10.543657499999995,21.297650999999973 L 34.543657499999995,21.297650999999973" fill="none" instance-id="-1" semantic-id="1" stroke="rgb(255,133,12)" stroke-width="0.1"/>
  <path d="M 12.543657499999995,23.297650999999973 L 32.543657499999995,23.297650999999973" fill="none" instance-id="-1" semantic-id="1" stroke="rgb(255,133,12)" stroke-width="0.1"/>
  <path d="M 10.543657499999995,100.0 L 10.543657499999995,21.297650999999973" fill="none" instance-id="-1" semantic-id="1" stroke="rgb(255,133,12)" stroke-width="0.1"/>
  <path d="M 12.543657499999995,100.0 L 12.543657499999995,23.297650999999973" fill="none" instance-id="-1" semantic-id="1" stroke="rgb(255,133,12)" stroke-width="0.1"/>
 </g>
 <g id="layerA-WIN" inkscape:groupmode="layer" inkscape:label="A-WIN">
  <path d="M 73.5436575,0.7976510000000303 L 63.793657499999995,0.7976510000000303" fill="none" instance-id="2" semantic-id="4" stroke="rgb(255,133,12)" stroke-width="0.1"/>
  <path d="M 73.5436575,1.2976510000000303 L 63.793657499999995,1.2976510000000303" fill="none" instance-id="2" semantic-id="4" stroke="rgb(255,133,12)" stroke-width="0.1"/>
  <path d="M 73.5436575,0.7976510000000303 L 73.5436575,1.2976510000000303" fill="none" instance-id="2" semantic-id="4" stroke="rgb(255,133,12)" stroke-width="0.1"/>
  <path d="M 63.793657499999995,1.2976510000000303 L 63.793657499999995,0.7976510000000303" fill="none" instance-id="2" semantic-id="4" stroke="rgb(255,133,12)" stroke-width="0.1"/>
  <path d="M 73.5436575,20.297650999999973 L 63.793657499999995,20.297650999999973" fill="none" instance-id="2" semantic-id="4" stroke="rgb(255,133,12)" stroke-width="0.1"/>
  <path d="M 73.5436575,20.797650999999973 L 63.793657499999995,20.797650999999973" fill="none" instance-id="2" semantic-id="4" stroke="rgb(255,133,12)" stroke-width="0.1"/>
  <path d="M 63.793657499999995,20.297650999999973 L 63.793657499999995,20.797650999999973" fill="none" instance-id="2" semantic-id="4" stroke="rgb(255,133,12)" stroke-width="0.1"/>
  <path d="M 73.5436575,20.797650999999973 L 73.5436575,20.297650999999973" fill="none" instance-id="2" semantic-id="4" stroke="rgb(255,133,12)" stroke-width="0.1"/>
  <path d="M 35.543657499999995,28.297650999999973 L 35.543657499999995,20.985651000000075" fill="none" instance-id="3" semantic-id="4" stroke="rgb(255,133,12)" stroke-width="0.1"/>
  <path d="M 35.918657499999995,28.297650999999973 L 35.918657499999995,20.985651000000075" fill="none" instance-id="3" semantic-id="4" stroke="rgb(255,133,12)" stroke-width="0.1"/>
  <path d="M 35.543657499999995,28.297650999999973 L 35.918657499999995,28.297650999999973" fill="none" instance-id="3" semantic-id="4" stroke="rgb(255,133,12)" stroke-width="0.1"/>
  <path d="M 35.918657499999995,20.985651000000075 L 35.543657499999995,20.985651000000075" fill="none" instance-id="3" semantic-id="4" stroke="rgb(255,133,12)" stroke-width="0.1"/>
  <path d="M 50.168657499999995,28.297650999999973 L 50.168657499999995,20.985651000000075" fill="none" instance-id="3" semantic-id="4" stroke="rgb(255,133,12)" stroke-width="0.1"/>
  <path d="M 50.543657499999995,28.297650999999973 L 50.543657499999995,20.985651000000075" fill="none" instance-id="3" semantic-id="4" stroke="rgb(255,133,12)" stroke-width="0.1"/>
  <path d="M 50.168657499999995,20.985651000000075 L 50.543657499999995,20.985651000000075" fill="none" instance-id="3" semantic-id="4" stroke="rgb(255,133,12)" stroke-width="0.1"/>
  <path d="M 50.543657499999995,28.297650999999973 L 50.168657499999995,28.297650999999973" fill="none" instance-id="3" semantic-id="4" stroke="rgb(255,133,12)" stroke-width="0.1"/>
  <path d="M 63.7968575,1.2976510000000303 A 9.75,9.75 0.0 0,0 73.5436575,10.797650999999973" fill="none" instance-id="2" semantic-id="4" stroke="rgb(255,133,12)" stroke-width="0.1"/>
  <path d="M 73.5436575,10.797650999999973 A 9.75,9.75 0.0 0,0 63.7968575,20.297650999999973" fill="none" instance-id="2" semantic-id="4" stroke="rgb(255,133,12)" stroke-width="0.1"/>
  <path d="M 43.043657499999995,28.297650999999973 A 7.3125,7.3125 0.0 0,0 35.918657499999995,20.987651000000028" fill="none" instance-id="3" semantic-id="4" stroke="rgb(255,133,12)" stroke-width="0.1"/>
  <path d="M 50.168657499999995,20.987651000000028 A 7.3125,7.3125 0.0 0,0 43.043657499999995,28.297650999999973" fill="none" instance-id="3" semantic-id="4" stroke="rgb(255,133,12)" stroke-width="0.1"/>
 </g>
 <g id="layerA-WIN-TEXT" inkscape:groupmode="layer" inkscape:label="A-WIN-TEXT">
  <text fill="rgb(0,0,0)" font-family="Noto Sans CJK SC" font-size="2" transform="rotate(-0.0,91.11165749999999,6.7776510000000485)" x="91.11165749999999" y="6.7776510000000485">
   FHM2121乙
  </text>
  <text fill="rgb(0,0,0)" font-family="Noto Sans CJK SC" font-size="2" transform="rotate(-90.0,83.73655749999999,24.092651000000046)" x="83.73655749999999" y="24.092651000000046">
   FHM2021甲
  </text>
  <text fill="rgb(0,0,0)" font-family="Noto Sans CJK SC" font-size="2" transform="rotate(-0.0,37.94365749999999,37.870651000000066)" x="37.94365749999999" y="37.870651000000066">
   M1521
  </text>
 </g>
 <g id="layerA-店铺面积" inkscape:groupmode="layer" inkscape:label="A-店铺面积">
  <text fill="rgb(0,0,0)" font-family="Noto Sans CJK SC" font-size="2" transform="rotate(-0.0,89.3416575,78.36265100000003)" x="89.3416575" y="78.36265100000003">
   （210m
  </text>
 </g>
</svg>