<?xml version="1.0" encoding="utf-8"?>
<svg style="background-color: #000;" version="1.1" viewBox="0 0 100.0 100.0" xmlns="http://www.w3.org/2000/svg" xmlns:inkscape="http://www.inkscape.org/namespaces/inkscape">
 <g id="layerA-DIM_SYMB" inkscape:groupmode="layer" inkscape:label="A-DIM_SYMB">
  <path d="M 17.675993999999946,42.29965100000004 L 17.675993999999946,55.899651000000006" fill="none" stroke="rgb(0,178,0)" stroke-width="0.1"/>
  <path d="M 17.675993999999946,55.899651000000006 L 17.675993999999946,61.899651000000006" fill="none" stroke="rgb(0,178,0)" stroke-width="0.1"/>
  <path d="M 17.675993999999946,84.29965100000004 L 17.675993999999946,70.69965100000002" fill="none" stroke="rgb(0,178,0)" stroke-width="0.1"/>
  <path d="M 17.675993999999946,70.69965100000002 L 17.675993999999946,64.69965100000002" fill="none" stroke="rgb(0,178,0)" stroke-width="0.1"/>
 </g>
 <g id="layerA-DOTE" inkscape:groupmode="layer" inkscape:label="A-DOTE">
  <path d="M 30.67499399999997,100.0 L 30.67499399999997,0.0" fill="none" stroke="rgb(107,53,53)" stroke-width="0.1"/>
  <path d="M 0.0,17.29765100000003 L 61.457993999999985,17.29765100000003" fill="none" stroke="rgb(107,53,53)" stroke-width="0.1"/>
 </g>
 <g id="layerA-HATCH" inkscape:groupmode="layer" inkscape:label="A-HATCH">
  <path d="M 50.37899399999992,14.29765100000003 L 50.37899399999992,16.29765100000003" fill="none" stroke="rgb(92,92,92)" stroke-width="0.1"/>
  <path d="M 51.787994000000026,14.29765100000003 L 51.787994000000026,16.29765100000003" fill="none" stroke="rgb(92,92,92)" stroke-width="0.1"/>
  <path d="M 53.19699400000002,14.29765100000003 L 53.19699400000002,16.29765100000003" fill="none" stroke="rgb(92,92,92)" stroke-width="0.1"/>
  <path d="M 54.60599400000001,14.29765100000003 L 54.60599400000001,16.29765100000003" fill="none" stroke="rgb(92,92,92)" stroke-width="0.1"/>
  <path d="M 56.013994000000025,14.29765100000003 L 56.013994000000025,16.29765100000003" fill="none" stroke="rgb(92,92,92)" stroke-width="0.1"/>
  <path d="M 57.42299400000002,14.29765100000003 L 57.42299400000002,16.29765100000003" fill="none" stroke="rgb(92,92,92)" stroke-width="0.1"/>
  <path d="M 58.83199400000001,14.29765100000003 L 58.83199400000001,16.29765100000003" fill="none" stroke="rgb(92,92,92)" stroke-width="0.1"/>
  <path d="M 60.240994,14.29765100000003 L 60.240994,16.29765100000003" fill="none" stroke="rgb(92,92,92)" stroke-width="0.1"/>
  <path d="M 61.64999399999999,14.29765100000003 L 61.64999399999999,16.29765100000003" fill="none" stroke="rgb(92,92,92)" stroke-width="0.1"/>
  <path d="M 7.67499399999997,84.29765100000003 L 7.67499399999997,42.29765100000003" fill="none" instance-id="-1" semantic-id="1" stroke="rgb(92,92,92)" stroke-width="0.1"/>
  <path d="M 7.67499399999997,42.29765100000003 L 5.67499399999997,42.29765100000003" fill="none" instance-id="-1" semantic-id="1" stroke="rgb(92,92,92)" stroke-width="0.1"/>
  <path d="M 5.67499399999997,42.29765100000003 L 5.67499399999997,84.29765100000003" fill="none" instance-id="-1" semantic-id="1" stroke="rgb(92,92,92)" stroke-width="0.1"/>
  <path d="M 5.67499399999997,84.29765100000003 L 7.67499399999997,84.29765100000003" fill="none" instance-id="-1" semantic-id="1" stroke="rgb(92,92,92)" stroke-width="0.1"/>
  <path d="M 29.67499399999997,84.29765100000003 L 29.67499399999997,62.54765100000003" fill="none" instance-id="-1" semantic-id="1" stroke="rgb(92,92,92)" stroke-width="0.1"/>
  <path d="M 29.67499399999997,62.54765100000003 L 27.67499399999997,62.54765100000003" fill="none" instance-id="-1" semantic-id="1" stroke="rgb(92,92,92)" stroke-width="0.1"/>
  <path d="M 27.67499399999997,62.54765100000003 L 27.67499399999997,84.29765100000003" fill="none" instance-id="-1" semantic-id="1" stroke="rgb(92,92,92)" stroke-width="0.1"/>
  <path d="M 27.67499399999997,84.29765100000003 L 29.67499399999997,84.29765100000003" fill="none" instance-id="-1" semantic-id="1" stroke="rgb(92,92,92)" stroke-width="0.1"/>
  <path d="M 27.67499399999997,47.29765100000003 L 29.67499399999997,47.29765100000003" fill="none" instance-id="-1" semantic-id="1" stroke="rgb(92,92,92)" stroke-width="0.1"/>
  <path d="M 29.67499399999997,47.29765100000003 L 29.67499399999997,42.29765100000003" fill="none" instance-id="-1" semantic-id="1" stroke="rgb(92,92,92)" stroke-width="0.1"/>
  <path d="M 29.67499399999997,42.29765100000003 L 27.67499399999997,42.29765100000003" fill="none" instance-id="-1" semantic-id="1" stroke="rgb(92,92,92)" stroke-width="0.1"/>
  <path d="M 27.67499399999997,42.29765100000003 L 27.67499399999997,47.29765100000003" fill="none" instance-id="-1" semantic-id="1" stroke="rgb(92,92,92)" stroke-width="0.1"/>
  <path d="M 27.67499399999997,62.54765100000003 L 29.67499399999997,62.54765100000003" fill="none" instance-id="-1" semantic-id="1" stroke="rgb(92,92,92)" stroke-width="0.1"/>
  <path d="M 29.67499399999997,62.54765100000003 L 29.67499399999997,47.29765100000003" fill="none" instance-id="-1" semantic-id="1" stroke="rgb(92,92,92)" stroke-width="0.1"/>
  <path d="M 29.67499399999997,47.29765100000003 L 27.67499399999997,47.29765100000003" fill="none" instance-id="-1" semantic-id="1" stroke="rgb(92,92,92)" stroke-width="0.1"/>
  <path d="M 27.67499399999997,47.29765100000003 L 27.67499399999997,62.54765100000003" fill="none" instance-id="-1" semantic-id="1" stroke="rgb(92,92,92)" stroke-width="0.1"/>
 </g>
 <g id="layerA-PUB_TEXT" inkscape:groupmode="layer" inkscape:label="A-PUB_TEXT">
  <text fill="rgb(0,0,0)" font-family="Noto Sans CJK SC" font-size="2" transform="rotate(-0.0,13.390993999999978,39.899651000000006)" x="13.390993999999978" y="39.899651000000006">
   下
  </text>
  <text fill="rgb(0,0,0)" font-family="Noto Sans CJK SC" font-size="2" transform="rotate(-0.0,13.169993999999974,94.69965100000002)" x="13.169993999999974" y="94.69965100000002">
   上
  </text>
  <text fill="rgb(0,0,0)" font-family="Noto Sans CJK SC" font-size="2" transform="rotate(-0.0,30.741993999999977,58.59665100000001)" x="30.741993999999977" y="58.59665100000001">
   风
  </text>
  <text fill="rgb(0,0,0)" font-family="Noto Sans CJK SC" font-size="2" transform="rotate(-0.0,30.741993999999977,44.181651000000045)" x="30.741993999999977" y="44.181651000000045">
   风
  </text>
  <text fill="rgb(0,0,0)" font-family="Noto Sans CJK SC" font-size="2" transform="rotate(-0.0,30.741993999999977,32.24665100000004)" x="30.741993999999977" y="32.24665100000004">
   风
  </text>
  <text fill="rgb(0,0,0)" font-family="Noto Sans CJK SC" font-size="2" transform="rotate(-0.0,40.804993999999965,40.861650999999995)" x="40.804993999999965" y="40.861650999999995">
   油
  </text>
  <text fill="rgb(0,0,0)" font-family="Noto Sans CJK SC" font-size="2" transform="rotate(-0.0,41.397993999999926,31.964651000000003)" x="41.397993999999926" y="31.964651000000003">
   排
  </text>
  <text fill="rgb(0,0,0)" font-family="Noto Sans CJK SC" font-size="2" transform="rotate(-0.0,40.804993999999965,49.51165100000003)" x="40.804993999999965" y="49.51165100000003">
   烟
  </text>
 </g>
 <g id="layerA-WALL" inkscape:groupmode="layer" inkscape:label="A-WALL">
  <path d="M 27.67499399999997,100.0 L 27.67499399999997,84.29765100000003" fill="none" instance-id="-1" semantic-id="1" stroke="rgb(0,178,178)" stroke-width="0.1"/>
  <path d="M 29.67499399999997,100.0 L 29.67499399999997,84.29765100000003" fill="none" instance-id="-1" semantic-id="1" stroke="rgb(0,178,178)" stroke-width="0.1"/>
  <path d="M 27.67499399999997,42.29765100000003 L 27.67499399999997,33.79765100000003" fill="none" instance-id="-1" semantic-id="1" stroke="rgb(0,178,178)" stroke-width="0.1"/>
  <path d="M 29.67499399999997,42.29765100000003 L 29.67499399999997,34.79765100000003" fill="none" instance-id="-1" semantic-id="1" stroke="rgb(0,178,178)" stroke-width="0.1"/>
  <path d="M 61.457993999999985,63.54765100000003 L 48.67499399999997,63.54765100000003" fill="none" instance-id="-1" semantic-id="1" stroke="rgb(0,178,178)" stroke-width="0.1"/>
  <path d="M 61.457993999999985,61.54765100000003 L 49.67499399999997,61.54765100000003" fill="none" instance-id="-1" semantic-id="1" stroke="rgb(0,178,178)" stroke-width="0.1"/>
  <path d="M 0.0,14.29765100000003 L 27.67499399999997,14.29765100000003" fill="none" instance-id="-1" semantic-id="1" stroke="rgb(0,178,178)" stroke-width="0.1"/>
  <path d="M 0.0,16.29765100000003 L 27.67499399999997,16.29765100000003" fill="none" instance-id="-1" semantic-id="1" stroke="rgb(0,178,178)" stroke-width="0.1"/>
  <path d="M 33.67499399999997,14.29765100000003 L 36.67499399999997,14.29765100000003" fill="none" instance-id="-1" semantic-id="1" stroke="rgb(0,178,178)" stroke-width="0.1"/>
  <path d="M 33.67499399999997,16.29765100000003 L 35.67499399999997,16.29765100000003" fill="none" instance-id="-1" semantic-id="1" stroke="rgb(0,178,178)" stroke-width="0.1"/>
  <path d="M 35.67499399999997,48.29765100000003 L 29.67499399999997,48.29765100000003" fill="none" instance-id="-1" semantic-id="1" stroke="rgb(0,178,178)" stroke-width="0.1"/>
  <path d="M 35.67499399999997,46.29765100000003 L 29.67499399999997,46.29765100000003" fill="none" instance-id="-1" semantic-id="1" stroke="rgb(0,178,178)" stroke-width="0.1"/>
  <path d="M 35.67499399999997,61.54765100000003 L 35.67499399999997,48.29765100000003" fill="none" instance-id="-1" semantic-id="1" stroke="rgb(0,178,178)" stroke-width="0.1"/>
  <path d="M 37.67499399999997,61.54765100000003 L 37.67499399999997,47.29765100000003" fill="none" instance-id="-1" semantic-id="1" stroke="rgb(0,178,178)" stroke-width="0.1"/>
  <path d="M 35.67499399999997,46.29765100000003 L 35.67499399999997,34.79765100000003" fill="none" instance-id="-1" semantic-id="1" stroke="rgb(0,178,178)" stroke-width="0.1"/>
  <path d="M 37.67499399999997,47.29765100000003 L 37.67499399999997,33.79765100000003" fill="none" instance-id="-1" semantic-id="1" stroke="rgb(0,178,178)" stroke-width="0.1"/>
  <path d="M 29.67499399999997,32.79765100000003 L 35.67499399999997,32.79765100000003" fill="none" instance-id="-1" semantic-id="1" stroke="rgb(0,178,178)" stroke-width="0.1"/>
  <path d="M 29.67499399999997,34.79765100000003 L 35.67499399999997,34.79765100000003" fill="none" instance-id="-1" semantic-id="1" stroke="rgb(0,178,178)" stroke-width="0.1"/>
  <path d="M 27.67499399999997,33.79765100000003 L 27.67499399999997,20.29765100000003" fill="none" instance-id="-1" semantic-id="1" stroke="rgb(0,178,178)" stroke-width="0.1"/>
  <path d="M 29.67499399999997,32.79765100000003 L 29.67499399999997,20.29765100000003" fill="none" instance-id="-1" semantic-id="1" stroke="rgb(0,178,178)" stroke-width="0.1"/>
  <path d="M 35.67499399999997,32.79765100000003 L 35.67499399999997,16.29765100000003" fill="none" instance-id="-1" semantic-id="1" stroke="rgb(0,178,178)" stroke-width="0.1"/>
  <path d="M 37.67499399999997,33.79765100000003 L 37.67499399999997,16.29765100000003" fill="none" instance-id="-1" semantic-id="1" stroke="rgb(0,178,178)" stroke-width="0.1"/>
  <path d="M 36.67499399999997,63.54765100000003 L 29.67499399999997,63.54765100000003" fill="none" instance-id="-1" semantic-id="1" stroke="rgb(0,178,178)" stroke-width="0.1"/>
  <path d="M 35.67499399999997,61.54765100000003 L 29.67499399999997,61.54765100000003" fill="none" instance-id="-1" semantic-id="1" stroke="rgb(0,178,178)" stroke-width="0.1"/>
  <path d="M 47.67499399999997,61.54765100000003 L 47.67499399999997,16.29765100000003" fill="none" instance-id="-1" semantic-id="1" stroke="rgb(0,178,178)" stroke-width="0.1"/>
  <path d="M 49.67499399999997,61.54765100000003 L 49.67499399999997,14.29765100000003" fill="none" instance-id="-1" semantic-id="1" stroke="rgb(0,178,178)" stroke-width="0.1"/>
  <path d="M 36.67499399999997,14.29765100000003 L 49.67499399999997,14.29765100000003" fill="none" instance-id="-1" semantic-id="1" stroke="rgb(0,178,178)" stroke-width="0.1"/>
  <path d="M 37.67499399999997,16.29765100000003 L 47.67499399999997,16.29765100000003" fill="none" instance-id="-1" semantic-id="1" stroke="rgb(0,178,178)" stroke-width="0.1"/>
  <path d="M 48.67499399999997,63.54765100000003 L 36.67499399999997,63.54765100000003" fill="none" instance-id="-1" semantic-id="1" stroke="rgb(0,178,178)" stroke-width="0.1"/>
  <path d="M 47.67499399999997,61.54765100000003 L 37.67499399999997,61.54765100000003" fill="none" instance-id="-1" semantic-id="1" stroke="rgb(0,178,178)" stroke-width="0.1"/>
 </g>
 <g id="layerA-WALL-CONC" inkscape:groupmode="layer" inkscape:label="A-WALL-CONC">
  <path d="M 5.67499399999997,84.29765100000003 L 5.67499399999997,42.29765100000003" fill="none" instance-id="-1" semantic-id="1" stroke="rgb(0,178,178)" stroke-width="0.1"/>
  <path d="M 7.67499399999997,84.29765100000003 L 7.67499399999997,42.29765100000003" fill="none" instance-id="-1" semantic-id="1" stroke="rgb(0,178,178)" stroke-width="0.1"/>
  <path d="M 5.67499399999997,84.29765100000003 L 7.67499399999997,84.29765100000003" fill="none" instance-id="-1" semantic-id="1" stroke="rgb(0,178,178)" stroke-width="0.1"/>
  <path d="M 5.67499399999997,42.29765100000003 L 7.67499399999997,42.29765100000003" fill="none" instance-id="-1" semantic-id="1" stroke="rgb(0,178,178)" stroke-width="0.1"/>
  <path d="M 27.67499399999997,84.29765100000003 L 27.67499399999997,62.54765100000003" fill="none" instance-id="-1" semantic-id="1" stroke="rgb(0,178,178)" stroke-width="0.1"/>
  <path d="M 29.67499399999997,84.29765100000003 L 29.67499399999997,62.54765100000003" fill="none" instance-id="-1" semantic-id="1" stroke="rgb(0,178,178)" stroke-width="0.1"/>
  <path d="M 27.67499399999997,84.29765100000003 L 29.67499399999997,84.29765100000003" fill="none" instance-id="-1" semantic-id="1" stroke="rgb(0,178,178)" stroke-width="0.1"/>
  <path d="M 27.67499399999997,47.29765100000003 L 27.67499399999997,42.29765100000003" fill="none" instance-id="-1" semantic-id="1" stroke="rgb(0,178,178)" stroke-width="0.1"/>
  <path d="M 29.67499399999997,47.29765100000003 L 29.67499399999997,42.29765100000003" fill="none" instance-id="-1" semantic-id="1" stroke="rgb(0,178,178)" stroke-width="0.1"/>
  <path d="M 27.67499399999997,42.29765100000003 L 29.67499399999997,42.29765100000003" fill="none" instance-id="-1" semantic-id="1" stroke="rgb(0,178,178)" stroke-width="0.1"/>
  <path d="M 27.67499399999997,62.54765100000003 L 27.67499399999997,47.29765100000003" fill="none" instance-id="-1" semantic-id="1" stroke="rgb(0,178,178)" stroke-width="0.1"/>
  <path d="M 29.67499399999997,62.54765100000003 L 29.67499399999997,47.29765100000003" fill="none" instance-id="-1" semantic-id="1" stroke="rgb(0,178,178)" stroke-width="0.1"/>
 </g>
 <g id="layerA-WALL-STUD" inkscape:groupmode="layer" inkscape:label="A-WALL-STUD">
  <path d="M 49.67499399999997,14.29765100000003 L 61.457993999999985,14.29765100000003" fill="none" stroke="rgb(255,133,12)" stroke-width="0.1"/>
  <path d="M 49.67499399999997,16.29765100000003 L 61.457993999999985,16.29765100000003" fill="none" stroke="rgb(255,133,12)" stroke-width="0.1"/>
 </g>
 <g id="layerA-WIN" inkscape:groupmode="layer" inkscape:label="A-WIN">
  <path d="M 37.67499399999997,100.0 L 37.67499399999997,96.56065100000001" fill="none" stroke="rgb(255,133,12)" stroke-width="0.1"/>
  <path d="M 38.19999399999995,100.0 L 38.19999399999995,96.56065100000001" fill="none" stroke="rgb(255,133,12)" stroke-width="0.1"/>
  <path d="M 38.19999399999995,96.56065100000001 L 37.67499399999997,96.56065100000001" fill="none" stroke="rgb(255,133,12)" stroke-width="0.1"/>
  <path d="M 58.14999399999999,100.0 L 58.14999399999999,96.56065100000001" fill="none" stroke="rgb(255,133,12)" stroke-width="0.1"/>
  <path d="M 58.67499399999997,100.0 L 58.67499399999997,96.56065100000001" fill="none" stroke="rgb(255,133,12)" stroke-width="0.1"/>
  <path d="M 58.14999399999999,96.56065100000001 L 58.67499399999997,96.56065100000001" fill="none" stroke="rgb(255,133,12)" stroke-width="0.1"/>
  <path d="M 45.44445915876554,99.83704656904848 L 45.08833425545572,99.47167491387552" fill="none" stroke="rgb(255,133,12)" stroke-width="0.1"/>
  <path d="M 45.08833425545572,99.47167491387552 L 44.714447873969675,99.12450007766114" fill="none" stroke="rgb(255,133,12)" stroke-width="0.1"/>
  <path d="M 44.714447873969675,99.12450007766114 L 44.323728684864705,98.79638438400048" fill="none" stroke="rgb(255,133,12)" stroke-width="0.1"/>
  <path d="M 44.323728684864705,98.79638438400048 L 43.91714716854642,98.48814281680109" fill="none" stroke="rgb(255,133,12)" stroke-width="0.1"/>
  <path d="M 43.91714716854642,98.48814281680109 L 43.49571320475923,98.20054099600037" fill="none" stroke="rgb(255,133,12)" stroke-width="0.1"/>
  <path d="M 43.49571320475923,98.20054099600037 L 43.06047356421607,97.93429327589547" fill="none" stroke="rgb(255,133,12)" stroke-width="0.1"/>
  <path d="M 43.06047356421607,97.93429327589547 L 42.612509308596486,97.69006097080768" fill="none" stroke="rgb(255,133,12)" stroke-width="0.1"/>
  <path d="M 42.612509308596486,97.69006097080768 L 42.15293310537277,97.46845071248976" fill="none" stroke="rgb(255,133,12)" stroke-width="0.1"/>
  <path d="M 42.15293310537277,97.46845071248976 L 41.682886464131684,97.27001294335497" fill="none" stroke="rgb(255,133,12)" stroke-width="0.1"/>
  <path d="M 41.682886464131684,97.27001294335497 L 41.203536901257735,97.0952405492713" fill="none" stroke="rgb(255,133,12)" stroke-width="0.1"/>
  <path d="M 41.203536901257735,97.0952405492713 L 40.716075040019746,96.94456763531633" fill="none" stroke="rgb(255,133,12)" stroke-width="0.1"/>
  <path d="M 40.716075040019746,96.94456763531633 L 40.22171165326438,96.81836844753354" fill="none" stroke="rgb(255,133,12)" stroke-width="0.1"/>
  <path d="M 40.22171165326438,96.81836844753354 L 39.72167465606071,96.71695644336847" fill="none" stroke="rgb(255,133,12)" stroke-width="0.1"/>
  <path d="M 39.72167465606071,96.71695644336847 L 39.21720605576684,96.64058351309347" fill="none" stroke="rgb(255,133,12)" stroke-width="0.1"/>
  <path d="M 39.21720605576684,96.64058351309347 L 38.70955886709385,96.58943935415459" fill="none" stroke="rgb(255,133,12)" stroke-width="0.1"/>
  <path d="M 38.70955886709385,96.58943935415459 L 38.19999399999995,96.56365100000005" fill="none" stroke="rgb(255,133,12)" stroke-width="0.1"/>
  <path d="M 58.14999399999999,96.56365100000005 L 57.64042913273522,96.58943935416755" fill="none" stroke="rgb(255,133,12)" stroke-width="0.1"/>
  <path d="M 57.64042913273522,96.58943935416755 L 57.13278194406291,96.6405835131149" fill="none" stroke="rgb(255,133,12)" stroke-width="0.1"/>
  <path d="M 57.13278194406291,96.6405835131149 L 56.6283133437704,96.71695644339837" fill="none" stroke="rgb(255,133,12)" stroke-width="0.1"/>
  <path d="M 56.6283133437704,96.71695644339837 L 56.12827634656844,96.8183684475718" fill="none" stroke="rgb(255,133,12)" stroke-width="0.1"/>
  <path d="M 56.12827634656844,96.8183684475718 L 55.63391295981512,96.94456763536289" fill="none" stroke="rgb(255,133,12)" stroke-width="0.1"/>
  <path d="M 55.63391295981512,96.94456763536289 L 55.146451098579746,97.09524054932604" fill="none" stroke="rgb(255,133,12)" stroke-width="0.1"/>
  <path d="M 55.146451098579746,97.09524054932604 L 54.66710153570864,97.27001294341773" fill="none" stroke="rgb(255,133,12)" stroke-width="0.1"/>
  <path d="M 54.66710153570864,97.27001294341773 L 54.19705489447085,97.46845071256035" fill="none" stroke="rgb(255,133,12)" stroke-width="0.1"/>
  <path d="M 54.19705489447085,97.46845071256035 L 53.737478691250885,97.69006097088601" fill="none" stroke="rgb(255,133,12)" stroke-width="0.1"/>
  <path d="M 53.737478691250885,97.69006097088601 L 53.28951443563551,97.93429327598125" fill="none" stroke="rgb(255,133,12)" stroke-width="0.1"/>
  <path d="M 53.28951443563551,97.93429327598125 L 52.85427479509667,98.20054099609342" fill="none" stroke="rgb(255,133,12)" stroke-width="0.1"/>
  <path d="M 52.85427479509667,98.20054099609342 L 52.432840831314365,98.48814281690119" fill="none" stroke="rgb(255,133,12)" stroke-width="0.1"/>
  <path d="M 52.432840831314365,98.48814281690119 L 52.0262593150012,98.79638438410745" fill="none" stroke="rgb(255,133,12)" stroke-width="0.1"/>
  <path d="M 52.0262593150012,98.79638438410745 L 51.6355401259018,99.1245000777746" fill="none" stroke="rgb(255,133,12)" stroke-width="0.1"/>
  <path d="M 51.6355401259018,99.1245000777746 L 51.26165374442144,99.47167491399523" fill="none" stroke="rgb(255,133,12)" stroke-width="0.1"/>
  <path d="M 51.26165374442144,99.47167491399523 L 50.90552884111776,99.83704656917416" fill="none" stroke="rgb(255,133,12)" stroke-width="0.1"/>
 </g>
 <g id="layerA-楼板开洞" inkscape:groupmode="layer" inkscape:label="A-楼板开洞">
  <path d="M 35.67199399999993,48.29765100000003 L 29.67499399999997,48.29765100000003" fill="none" stroke="rgb(107,142,0)" stroke-width="0.1"/>
  <path d="M 29.67499399999997,48.29765100000003 L 29.67499399999997,61.04765100000003" fill="none" stroke="rgb(107,142,0)" stroke-width="0.1"/>
  <path d="M 29.67499399999997,61.04765100000003 L 35.67199399999993,61.04765100000003" fill="none" stroke="rgb(107,142,0)" stroke-width="0.1"/>
  <path d="M 35.67199399999993,61.04765100000003 L 35.67199399999993,48.29765100000003" fill="none" stroke="rgb(107,142,0)" stroke-width="0.1"/>
  <path d="M 35.67199399999993,34.79765100000003 L 29.67499399999997,34.79765100000003" fill="none" stroke="rgb(107,142,0)" stroke-width="0.1"/>
  <path d="M 29.67499399999997,34.79765100000003 L 29.67499399999997,46.29765100000003" fill="none" stroke="rgb(107,142,0)" stroke-width="0.1"/>
  <path d="M 29.67499399999997,46.29765100000003 L 35.67499399999997,46.29765100000003" fill="none" stroke="rgb(107,142,0)" stroke-width="0.1"/>
  <path d="M 35.67499399999997,46.29765100000003 L 35.67199399999993,34.79765100000003" fill="none" stroke="rgb(107,142,0)" stroke-width="0.1"/>
  <path d="M 33.67199399999993,18.79765100000003 L 35.67199399999993,18.79765100000003" fill="none" stroke="rgb(107,142,0)" stroke-width="0.1"/>
  <path d="M 35.67199399999993,18.79765100000003 L 35.67499399999997,32.79765100000003" fill="none" stroke="rgb(107,142,0)" stroke-width="0.1"/>
  <path d="M 35.67499399999997,32.79765100000003 L 29.67499399999997,32.79765100000003" fill="none" stroke="rgb(107,142,0)" stroke-width="0.1"/>
  <path d="M 29.67499399999997,32.79765100000003 L 29.67499399999997,20.29765100000003" fill="none" stroke="rgb(107,142,0)" stroke-width="0.1"/>
  <path d="M 29.67499399999997,20.29765100000003 L 33.67499399999997,20.29765100000003" fill="none" stroke="rgb(107,142,0)" stroke-width="0.1"/>
  <path d="M 33.67499399999997,20.29765100000003 L 33.67199399999993,18.79765100000003" fill="none" stroke="rgb(107,142,0)" stroke-width="0.1"/>
  <path d="M 37.67499399999997,18.79765100000003 L 47.67499399999997,18.79765100000003" fill="none" stroke="rgb(107,142,0)" stroke-width="0.1"/>
  <path d="M 47.67499399999997,18.79765100000003 L 47.67499399999997,61.04765100000003" fill="none" stroke="rgb(107,142,0)" stroke-width="0.1"/>
  <path d="M 47.67499399999997,61.04765100000003 L 37.67499399999997,61.04765100000003" fill="none" stroke="rgb(107,142,0)" stroke-width="0.1"/>
  <path d="M 37.67499399999997,61.04765100000003 L 37.67499399999997,18.79765100000003" fill="none" stroke="rgb(107,142,0)" stroke-width="0.1"/>
  <path d="M 35.67199399999993,48.29765100000003 L 31.911993999999936,49.248650999999995" fill="none" stroke="rgb(107,142,0)" stroke-width="0.1"/>
  <path d="M 31.911993999999936,49.248650999999995 L 29.67499399999997,61.04765100000003" fill="none" stroke="rgb(107,142,0)" stroke-width="0.1"/>
  <path d="M 29.671993999999927,20.29765100000003 L 32.44199400000002,21.118651" fill="none" stroke="rgb(107,142,0)" stroke-width="0.1"/>
  <path d="M 32.44199400000002,21.118651 L 35.67499399999997,32.79765100000003" fill="none" stroke="rgb(107,142,0)" stroke-width="0.1"/>
  <path d="M 29.67499399999997,34.79765100000003 L 34.10199399999999,36.02365100000003" fill="none" stroke="rgb(107,142,0)" stroke-width="0.1"/>
  <path d="M 34.10199399999999,36.02365100000003 L 35.67499399999997,46.29765100000003" fill="none" stroke="rgb(107,142,0)" stroke-width="0.1"/>
  <path d="M 37.67499399999997,61.04765100000003 L 39.23099400000001,25.375651000000005" fill="none" stroke="rgb(107,142,0)" stroke-width="0.1"/>
  <path d="M 39.23099400000001,25.375651000000005 L 47.67499399999997,18.79765100000003" fill="none" stroke="rgb(107,142,0)" stroke-width="0.1"/>
 </g>
 <g id="layerA-楼梯编号" inkscape:groupmode="layer" inkscape:label="A-楼梯编号">
  <path d="M 0.0,29.996651000000043 L 12.464993999999933,29.996651000000043" fill="none" stroke="rgb(0,0,0)" stroke-width="0.1"/>
  <path d="M 12.464993999999933,29.996651000000043 L 12.464993999999933,21.329651000000013" fill="none" stroke="rgb(0,0,0)" stroke-width="0.1"/>
  <path d="M 12.464993999999933,21.329651000000013 L 0.0,21.329651000000013" fill="none" stroke="rgb(0,0,0)" stroke-width="0.1"/>
  <path d="M 36.332993999999985,78.21265100000005 L 36.332993999999985,86.87965100000002" fill="none" stroke="rgb(0,0,0)" stroke-width="0.1"/>
  <path d="M 36.332993999999985,86.87965100000002 L 52.34799399999997,86.87965100000002" fill="none" stroke="rgb(0,0,0)" stroke-width="0.1"/>
  <path d="M 52.34799399999997,86.87965100000002 L 52.34799399999997,78.21265100000005" fill="none" stroke="rgb(0,0,0)" stroke-width="0.1"/>
  <path d="M 52.34799399999997,78.21265100000005 L 36.332993999999985,78.21265100000005" fill="none" stroke="rgb(0,0,0)" stroke-width="0.1"/>
  <text fill="rgb(0,0,0)" font-family="Noto Sans CJK SC" font-size="2" transform="rotate(-0.0,36.764994,85.54565100000002)" x="36.764994" y="85.54565100000002">
   15#LT
  </text>
 </g>
 <g id="layerA-设备-暖通墙上开洞" inkscape:groupmode="layer" inkscape:label="A-设备-暖通墙上开洞">
  <path d="M 31.780993999999964,64.945651 L 31.780993999999964,60.66065100000003" fill="none" stroke="rgb(178,0,0)" stroke-width="0.1"/>
  <path d="M 34.780993999999964,64.945651 L 34.780993999999964,60.66065100000003" fill="none" stroke="rgb(178,0,0)" stroke-width="0.1"/>
  <path d="M 26.21299399999998,24.553651000000002 L 30.49799399999995,24.553651000000002" fill="none" stroke="rgb(178,0,0)" stroke-width="0.1"/>
  <path d="M 26.21299399999998,27.553651000000002 L 30.49799399999995,27.553651000000002" fill="none" stroke="rgb(178,0,0)" stroke-width="0.1"/>
  <path d="M 26.21299399999998,34.653651000000025 L 30.49799399999995,34.653651000000025" fill="none" stroke="rgb(178,0,0)" stroke-width="0.1"/>
  <path d="M 26.21299399999998,37.653651000000025 L 30.49799399999995,37.653651000000025" fill="none" stroke="rgb(178,0,0)" stroke-width="0.1"/>
 </g>
 <g id="layerSTAIR" inkscape:groupmode="layer" inkscape:label="STAIR">
  <path d="M 17.88699399999996,63.553651 L 27.675993999999946,59.637651000000005" fill="none" instance-id="5" semantic-id="30" stroke="rgb(0,178,0)" stroke-width="0.1"/>
  <path d="M 17.763994000000025,62.52565100000004 L 27.675993999999946,58.56065100000001" fill="none" instance-id="5" semantic-id="30" stroke="rgb(0,178,0)" stroke-width="0.1"/>
  <path d="M 17.984993999999915,64.380651 L 17.763994000000025,62.52565100000004" fill="none" instance-id="5" semantic-id="30" stroke="rgb(0,178,0)" stroke-width="0.1"/>
  <path d="M 16.191994000000022,62.375651000000005 L 17.984993999999915,64.380651" fill="none" instance-id="5" semantic-id="30" stroke="rgb(0,178,0)" stroke-width="0.1"/>
  <path d="M 16.40399400000001,64.14665100000002 L 16.191994000000022,62.375651000000005" fill="none" instance-id="5" semantic-id="30" stroke="rgb(0,178,0)" stroke-width="0.1"/>
  <path d="M 7.675993999999946,68.03765100000004 L 16.40399400000001,64.14665100000002" fill="none" instance-id="5" semantic-id="30" stroke="rgb(0,178,0)" stroke-width="0.1"/>
  <path d="M 7.675993999999946,66.96065100000004 L 16.280993999999964,63.118651" fill="none" instance-id="5" semantic-id="30" stroke="rgb(0,178,0)" stroke-width="0.1"/>
  <path d="M 7.675993999999946,42.29965100000004 L 27.675993999999946,42.29965100000004" fill="none" instance-id="5" semantic-id="30" stroke="rgb(0,178,0)" stroke-width="0.1"/>
  <path d="M 7.675993999999946,45.099650999999994 L 27.675993999999946,45.099650999999994" fill="none" instance-id="5" semantic-id="30" stroke="rgb(0,178,0)" stroke-width="0.1"/>
  <path d="M 7.675993999999946,47.899651000000006 L 27.675993999999946,47.899651000000006" fill="none" instance-id="5" semantic-id="30" stroke="rgb(0,178,0)" stroke-width="0.1"/>
  <path d="M 7.675993999999946,50.69965100000002 L 27.675993999999946,50.69965100000002" fill="none" instance-id="5" semantic-id="30" stroke="rgb(0,178,0)" stroke-width="0.1"/>
  <path d="M 7.675993999999946,53.49965100000003 L 27.675993999999946,53.49965100000003" fill="none" instance-id="5" semantic-id="30" stroke="rgb(0,178,0)" stroke-width="0.1"/>
  <path d="M 7.675993999999946,56.29965100000004 L 27.675993999999946,56.29965100000004" fill="none" instance-id="5" semantic-id="30" stroke="rgb(0,178,0)" stroke-width="0.1"/>
  <path d="M 7.675993999999946,59.099650999999994 L 26.329993999999942,59.099650999999994" fill="none" instance-id="5" semantic-id="30" stroke="rgb(0,178,0)" stroke-width="0.1"/>
  <path d="M 22.022993999999926,61.899651000000006 L 27.675993999999946,61.899651000000006" fill="none" instance-id="5" semantic-id="30" stroke="rgb(0,178,0)" stroke-width="0.1"/>
  <path d="M 7.675993999999946,61.899651000000006 L 19.329993999999942,61.899651000000006" fill="none" instance-id="5" semantic-id="30" stroke="rgb(0,178,0)" stroke-width="0.1"/>
  <path d="M 15.022993999999926,64.69965100000002 L 27.675993999999946,64.69965100000002" fill="none" instance-id="5" semantic-id="30" stroke="rgb(0,178,0)" stroke-width="0.1"/>
  <path d="M 7.675993999999946,64.69965100000002 L 13.329993999999942,64.69965100000002" fill="none" instance-id="5" semantic-id="30" stroke="rgb(0,178,0)" stroke-width="0.1"/>
  <path d="M 9.022993999999926,67.49965100000003 L 27.675993999999946,67.49965100000003" fill="none" instance-id="5" semantic-id="30" stroke="rgb(0,178,0)" stroke-width="0.1"/>
  <path d="M 7.675993999999946,70.29965100000004 L 27.675993999999946,70.29965100000004" fill="none" instance-id="5" semantic-id="30" stroke="rgb(0,178,0)" stroke-width="0.1"/>
  <path d="M 7.675993999999946,73.099651 L 27.675993999999946,73.099651" fill="none" instance-id="5" semantic-id="30" stroke="rgb(0,178,0)" stroke-width="0.1"/>
  <path d="M 7.675993999999946,75.899651 L 27.675993999999946,75.899651" fill="none" instance-id="5" semantic-id="30" stroke="rgb(0,178,0)" stroke-width="0.1"/>
  <path d="M 7.675993999999946,78.69965100000002 L 27.675993999999946,78.69965100000002" fill="none" instance-id="5" semantic-id="30" stroke="rgb(0,178,0)" stroke-width="0.1"/>
  <path d="M 7.675993999999946,84.29965100000004 L 27.675993999999946,84.29965100000004" fill="none" instance-id="5" semantic-id="30" stroke="rgb(0,178,0)" stroke-width="0.1"/>
  <path d="M 0.0,60.16009860293025 L 5.675993999999946,57.96265100000005" fill="none" stroke="rgb(0,178,0)" stroke-width="0.1"/>
  <path d="M 0.0,59.0759425441903 L 5.675993999999946,56.875651000000005" fill="none" stroke="rgb(0,178,0)" stroke-width="0.1"/>
  <path d="M 0.0,42.29965100000004 L 5.675993999999946,42.29965100000004" fill="none" stroke="rgb(0,178,0)" stroke-width="0.1"/>
  <path d="M 0.0,45.099650999999994 L 5.675993999999946,45.099650999999994" fill="none" stroke="rgb(0,178,0)" stroke-width="0.1"/>
  <path d="M 0.0,47.899651000000006 L 5.675993999999946,47.899651000000006" fill="none" stroke="rgb(0,178,0)" stroke-width="0.1"/>
  <path d="M 0.0,50.69965100000002 L 5.675993999999946,50.69965100000002" fill="none" stroke="rgb(0,178,0)" stroke-width="0.1"/>
  <path d="M 0.0,53.49965100000003 L 5.675993999999946,53.49965100000003" fill="none" stroke="rgb(0,178,0)" stroke-width="0.1"/>
  <path d="M 0.0,56.29965100000004 L 5.675993999999946,56.29965100000004" fill="none" stroke="rgb(0,178,0)" stroke-width="0.1"/>
  <path d="M 3.012993999999935,59.099650999999994 L 5.675993999999946,59.099650999999994" fill="none" stroke="rgb(0,178,0)" stroke-width="0.1"/>
  <path d="M 0.0,61.899651000000006 L 5.675993999999946,61.899651000000006" fill="none" stroke="rgb(0,178,0)" stroke-width="0.1"/>
  <path d="M 0.0,64.69965100000002 L 5.675993999999946,64.69965100000002" fill="none" stroke="rgb(0,178,0)" stroke-width="0.1"/>
  <path d="M 0.0,67.49965100000003 L 5.675993999999946,67.49965100000003" fill="none" stroke="rgb(0,178,0)" stroke-width="0.1"/>
  <path d="M 0.0,70.29965100000004 L 5.675993999999946,70.29965100000004" fill="none" stroke="rgb(0,178,0)" stroke-width="0.1"/>
  <path d="M 0.0,73.099651 L 5.675993999999946,73.099651" fill="none" stroke="rgb(0,178,0)" stroke-width="0.1"/>
  <path d="M 0.0,75.899651 L 5.675993999999946,75.899651" fill="none" stroke="rgb(0,178,0)" stroke-width="0.1"/>
  <path d="M 0.0,78.69965100000002 L 5.675993999999946,78.69965100000002" fill="none" stroke="rgb(0,178,0)" stroke-width="0.1"/>
  <path d="M 0.0,81.49965100000003 L 5.675993999999946,81.49965100000003" fill="none" stroke="rgb(0,178,0)" stroke-width="0.1"/>
  <path d="M 0.0,84.29965100000004 L 5.675993999999946,84.29965100000004" fill="none" stroke="rgb(0,178,0)" stroke-width="0.1"/>
  <path d="M 7.675993999999946,81.49965100000003 L 27.675993999999946,81.49965100000003" fill="none" instance-id="5" semantic-id="30" stroke="rgb(0,178,0)" stroke-width="0.1"/>
 </g>
</svg>