<?xml version="1.0" encoding="utf-8"?>
<svg style="background-color: #000;" version="1.1" viewBox="0 0 100.0 100.0" xmlns="http://www.w3.org/2000/svg" xmlns:inkscape="http://www.inkscape.org/namespaces/inkscape">
 <g id="layerA-ANNO-DIMS" inkscape:groupmode="layer" inkscape:label="A-ANNO-DIMS">
  <path d="M 46.67499399999997,7.2976509999999735 L 53.15699399999994,7.2976509999999735" fill="none" stroke="rgb(0,178,0)" stroke-width="0.1"/>
  <path d="M 49.40699399999994,7.2976509999999735 L 49.40699399999994,0.0" fill="none" stroke="rgb(0,178,0)" stroke-width="0.1"/>
  <path d="M 31.17499399999997,97.29765099999997 L 13.847993999999971,97.29765099999997" fill="none" stroke="rgb(0,178,0)" stroke-width="0.1"/>
  <path d="M 31.17499399999997,81.29765099999997 L 13.847993999999971,81.29765099999997" fill="none" stroke="rgb(0,178,0)" stroke-width="0.1"/>
  <path d="M 17.59799399999997,97.29765099999997 L 17.59799399999997,81.29765099999997" fill="none" stroke="rgb(0,178,0)" stroke-width="0.1"/>
  <path d="M 31.17499399999997,98.29765099999997 L 13.847993999999971,98.29765099999997" fill="none" stroke="rgb(0,178,0)" stroke-width="0.1"/>
  <path d="M 31.17499399999997,97.29765099999997 L 13.847993999999971,97.29765099999997" fill="none" stroke="rgb(0,178,0)" stroke-width="0.1"/>
  <path d="M 17.59799399999997,98.29765099999997 L 17.59799399999997,99.79765099999997" fill="none" stroke="rgb(0,178,0)" stroke-width="0.1"/>
  <path d="M 17.59799399999997,97.29765099999997 L 17.59799399999997,95.79765099999997" fill="none" stroke="rgb(0,178,0)" stroke-width="0.1"/>
  <path d="M 17.59799399999997,98.29765099999997 L 17.59799399999997,97.29765099999997" fill="none" stroke="rgb(0,178,0)" stroke-width="0.1"/>
  <path d="M 61.09799399999997,78.29765099999997 L 51.68499399999996,78.29765099999997" fill="none" stroke="rgb(0,178,0)" stroke-width="0.1"/>
  <path d="M 61.09799399999997,77.29765099999997 L 51.68499399999996,77.29765099999997" fill="none" stroke="rgb(0,178,0)" stroke-width="0.1"/>
  <path d="M 55.43499399999996,78.29765099999997 L 55.43499399999996,79.79765099999997" fill="none" stroke="rgb(0,178,0)" stroke-width="0.1"/>
  <path d="M 55.43499399999996,77.29765099999997 L 55.43499399999996,75.79765099999997" fill="none" stroke="rgb(0,178,0)" stroke-width="0.1"/>
  <path d="M 55.43499399999996,78.29765099999997 L 55.43499399999996,77.29765099999997" fill="none" stroke="rgb(0,178,0)" stroke-width="0.1"/>
  <path d="M 61.09799399999997,93.29765099999997 L 51.68499399999996,93.29765099999997" fill="none" stroke="rgb(0,178,0)" stroke-width="0.1"/>
  <path d="M 61.09799399999997,78.29765099999997 L 51.68499399999996,78.29765099999997" fill="none" stroke="rgb(0,178,0)" stroke-width="0.1"/>
  <path d="M 55.43499399999996,93.29765099999997 L 55.43499399999996,78.29765099999997" fill="none" stroke="rgb(0,178,0)" stroke-width="0.1"/>
  <path d="M 61.09799399999997,94.29765099999997 L 51.68499399999996,94.29765099999997" fill="none" stroke="rgb(0,178,0)" stroke-width="0.1"/>
  <path d="M 61.09799399999997,93.29765099999997 L 51.68499399999996,93.29765099999997" fill="none" stroke="rgb(0,178,0)" stroke-width="0.1"/>
  <path d="M 55.43499399999996,94.29765099999997 L 55.43499399999996,95.79765099999997" fill="none" stroke="rgb(0,178,0)" stroke-width="0.1"/>
  <path d="M 55.43499399999996,93.29765099999997 L 55.43499399999996,91.79765099999997" fill="none" stroke="rgb(0,178,0)" stroke-width="0.1"/>
  <path d="M 55.43499399999996,94.29765099999997 L 55.43499399999996,93.29765099999997" fill="none" stroke="rgb(0,178,0)" stroke-width="0.1"/>
  <path d="M 61.09799399999997,97.29765099999997 L 51.68499399999996,97.29765099999997" fill="none" stroke="rgb(0,178,0)" stroke-width="0.1"/>
  <path d="M 61.09799399999997,94.29765099999997 L 51.68499399999996,94.29765099999997" fill="none" stroke="rgb(0,178,0)" stroke-width="0.1"/>
  <path d="M 55.43499399999996,97.29765099999997 L 55.43499399999996,98.79765099999997" fill="none" stroke="rgb(0,178,0)" stroke-width="0.1"/>
  <path d="M 55.43499399999996,94.29765099999997 L 55.43499399999996,92.79765099999997" fill="none" stroke="rgb(0,178,0)" stroke-width="0.1"/>
  <path d="M 55.43499399999996,97.29765099999997 L 55.43499399999996,94.29765099999997" fill="none" stroke="rgb(0,178,0)" stroke-width="0.1"/>
  <path d="M 61.09799399999997,97.29765099999997 L 51.68499399999996,97.29765099999997" fill="none" stroke="rgb(0,178,0)" stroke-width="0.1"/>
  <path d="M 55.43499399999996,97.29765099999997 L 55.43499399999996,95.79765099999997" fill="none" stroke="rgb(0,178,0)" stroke-width="0.1"/>
  <path d="M 55.43499399999996,100.0 L 55.43499399999996,97.29765099999997" fill="none" stroke="rgb(0,178,0)" stroke-width="0.1"/>
  <path d="M 67.17499399999997,7.2976509999999735 L 91.65099399999997,7.2976509999999735" fill="none" stroke="rgb(0,178,0)" stroke-width="0.1"/>
  <path d="M 87.90099399999997,7.2976509999999735 L 87.90099399999997,0.0" fill="none" stroke="rgb(0,178,0)" stroke-width="0.1"/>
  <path d="M 70.67499399999997,67.87865099999999 L 70.67499399999997,48.17465100000004" fill="none" stroke="rgb(0,178,0)" stroke-width="0.1"/>
  <path d="M 70.67499399999997,51.92465100000004 L 100.0,51.92465100000004" fill="none" stroke="rgb(0,178,0)" stroke-width="0.1"/>
  <path d="M 68.67499399999997,67.87865099999999 L 68.67499399999997,48.17465100000004" fill="none" stroke="rgb(0,178,0)" stroke-width="0.1"/>
  <path d="M 70.67499399999997,67.87865099999999 L 70.67499399999997,48.17465100000004" fill="none" stroke="rgb(0,178,0)" stroke-width="0.1"/>
  <path d="M 68.67499399999997,51.92465100000004 L 67.17499399999997,51.92465100000004" fill="none" stroke="rgb(0,178,0)" stroke-width="0.1"/>
  <path d="M 70.67499399999997,51.92465100000004 L 72.17499399999997,51.92465100000004" fill="none" stroke="rgb(0,178,0)" stroke-width="0.1"/>
  <path d="M 68.67499399999997,51.92465100000004 L 70.67499399999997,51.92465100000004" fill="none" stroke="rgb(0,178,0)" stroke-width="0.1"/>
  <path d="M 62.67499399999997,67.87865099999999 L 62.67499399999997,48.17465100000004" fill="none" stroke="rgb(0,178,0)" stroke-width="0.1"/>
  <path d="M 68.67499399999997,67.87865099999999 L 68.67499399999997,48.17465100000004" fill="none" stroke="rgb(0,178,0)" stroke-width="0.1"/>
  <path d="M 62.67499399999997,51.92465100000004 L 61.17499399999997,51.92465100000004" fill="none" stroke="rgb(0,178,0)" stroke-width="0.1"/>
  <path d="M 68.67499399999997,51.92465100000004 L 70.17499399999997,51.92465100000004" fill="none" stroke="rgb(0,178,0)" stroke-width="0.1"/>
  <path d="M 62.67499399999997,51.92465100000004 L 68.67499399999997,51.92465100000004" fill="none" stroke="rgb(0,178,0)" stroke-width="0.1"/>
  <path d="M 41.67499399999997,67.87865099999999 L 41.67499399999997,48.17465100000004" fill="none" stroke="rgb(0,178,0)" stroke-width="0.1"/>
  <path d="M 62.67499399999997,67.87865099999999 L 62.67499399999997,48.17465100000004" fill="none" stroke="rgb(0,178,0)" stroke-width="0.1"/>
  <path d="M 41.67499399999997,51.92465100000004 L 62.67499399999997,51.92465100000004" fill="none" stroke="rgb(0,178,0)" stroke-width="0.1"/>
  <path d="M 35.67499399999997,67.87865099999999 L 35.67499399999997,48.17465100000004" fill="none" stroke="rgb(0,178,0)" stroke-width="0.1"/>
  <path d="M 41.67499399999997,67.87865099999999 L 41.67499399999997,48.17465100000004" fill="none" stroke="rgb(0,178,0)" stroke-width="0.1"/>
  <path d="M 35.67499399999997,51.92465100000004 L 34.17499399999997,51.92465100000004" fill="none" stroke="rgb(0,178,0)" stroke-width="0.1"/>
  <path d="M 41.67499399999997,51.92465100000004 L 43.17499399999997,51.92465100000004" fill="none" stroke="rgb(0,178,0)" stroke-width="0.1"/>
  <path d="M 35.67499399999997,51.92465100000004 L 41.67499399999997,51.92465100000004" fill="none" stroke="rgb(0,178,0)" stroke-width="0.1"/>
  <path d="M 35.67499399999997,67.87865099999999 L 35.67499399999997,48.17465100000004" fill="none" stroke="rgb(0,178,0)" stroke-width="0.1"/>
  <path d="M 0.0,51.92465100000004 L 35.67499399999997,51.92465100000004" fill="none" stroke="rgb(0,178,0)" stroke-width="0.1"/>
  <path d="M 25.911993999999936,7.2976509999999735 L 31.450993999999923,7.2976509999999735" fill="none" stroke="rgb(0,178,0)" stroke-width="0.1"/>
  <path d="M 27.700993999999923,7.2976509999999735 L 27.700993999999923,0.0" fill="none" stroke="rgb(0,178,0)" stroke-width="0.1"/>
  <text fill="rgb(0,178,0)" font-family="Noto Sans CJK SC" font-size="2" transform="rotate(-90.0,16.09799399999997,95.522651)" x="16.09799399999997" y="95.522651">
   1600
  </text>
  <text fill="rgb(0,178,0)" font-family="Noto Sans CJK SC" font-size="2" transform="rotate(-90.0,53.540993999999955,77.897651)" x="53.540993999999955" y="77.897651">
   100
  </text>
  <text fill="rgb(0,178,0)" font-family="Noto Sans CJK SC" font-size="2" transform="rotate(-90.0,53.93499399999996,92.022651)" x="53.93499399999996" y="92.022651">
   1500
  </text>
  <text fill="rgb(0,178,0)" font-family="Noto Sans CJK SC" font-size="2" transform="rotate(-90.0,61.790993999999955,98.522651)" x="61.790993999999955" y="98.522651">
   100
  </text>
  <text fill="rgb(0,178,0)" font-family="Noto Sans CJK SC" font-size="2" transform="rotate(-0.0,87.17499399999997,50.42465100000004)" x="87.17499399999997" y="50.42465100000004">
   4500
  </text>
  <text fill="rgb(0,178,0)" font-family="Noto Sans CJK SC" font-size="2" transform="rotate(-0.0,65.17499399999997,44.780651000000034)" x="65.17499399999997" y="44.780651000000034">
   200
  </text>
  <text fill="rgb(0,178,0)" font-family="Noto Sans CJK SC" font-size="2" transform="rotate(-0.0,61.099993999999924,50.42465100000004)" x="61.099993999999924" y="50.42465100000004">
   600
  </text>
  <text fill="rgb(0,178,0)" font-family="Noto Sans CJK SC" font-size="2" transform="rotate(-0.0,46.17499399999997,50.42465100000004)" x="46.17499399999997" y="50.42465100000004">
   2100
  </text>
  <text fill="rgb(0,178,0)" font-family="Noto Sans CJK SC" font-size="2" transform="rotate(-0.0,34.099993999999924,50.42465100000004)" x="34.099993999999924" y="50.42465100000004">
   600
  </text>
  <text fill="rgb(0,178,0)" font-family="Noto Sans CJK SC" font-size="2" transform="rotate(-0.0,2.1749939999999697,50.42465100000004)" x="2.1749939999999697" y="50.42465100000004">
   5500
  </text>
 </g>
 <g id="layerA-DOTE" inkscape:groupmode="layer" inkscape:label="A-DOTE">
  <path d="M 70.67499399999997,100.0 L 70.67499399999997,0.0" fill="none" stroke="rgb(107,53,53)" stroke-width="0.1"/>
  <path d="M 0.0,97.29765099999997 L 100.0,97.29765099999997" fill="none" stroke="rgb(107,53,53)" stroke-width="0.1"/>
  <path d="M 0.0,7.2976509999999735 L 100.0,7.2976509999999735" fill="none" stroke="rgb(107,53,53)" stroke-width="0.1"/>
 </g>
 <g id="layerA-HATCH" inkscape:groupmode="layer" inkscape:label="A-HATCH">
  <path d="M 69.87499400000002,76.09765100000004 L 69.87499400000002,75.29765099999997" fill="none" stroke="rgb(92,92,92)" stroke-width="0.1"/>
  <path d="M 68.27499399999999,77.29765099999997 L 68.27499399999999,75.29765099999997" fill="none" stroke="rgb(92,92,92)" stroke-width="0.1"/>
  <path d="M 66.67499399999997,77.29765099999997 L 66.67499399999997,75.29765099999997" fill="none" stroke="rgb(92,92,92)" stroke-width="0.1"/>
  <path d="M 65.07499399999995,77.29765099999997 L 65.07499399999995,75.29765099999997" fill="none" stroke="rgb(92,92,92)" stroke-width="0.1"/>
  <path d="M 63.474993999999924,77.29765099999997 L 63.474993999999924,76.49765100000002" fill="none" stroke="rgb(92,92,92)" stroke-width="0.1"/>
  <path d="M 68.67499399999997,77.440651 L 70.67499399999997,77.440651" fill="none" stroke="rgb(92,92,92)" stroke-width="0.1"/>
  <path d="M 69.96099399999991,76.01165100000003 L 70.67499399999997,76.01165100000003" fill="none" stroke="rgb(92,92,92)" stroke-width="0.1"/>
  <path d="M 34.474993999999924,79.29765099999997 L 34.474993999999924,80.09765100000004" fill="none" stroke="rgb(92,92,92)" stroke-width="0.1"/>
  <path d="M 36.07499399999995,79.29765099999997 L 36.07499399999995,81.29765099999997" fill="none" stroke="rgb(92,92,92)" stroke-width="0.1"/>
  <path d="M 37.67499399999997,79.29765099999997 L 37.67499399999997,81.29765099999997" fill="none" stroke="rgb(92,92,92)" stroke-width="0.1"/>
  <path d="M 39.27499399999999,79.29765099999997 L 39.27499399999999,81.29765099999997" fill="none" stroke="rgb(92,92,92)" stroke-width="0.1"/>
  <path d="M 40.874994000000015,80.49765100000002 L 40.874994000000015,81.29765099999997" fill="none" stroke="rgb(92,92,92)" stroke-width="0.1"/>
  <path d="M 33.67499399999997,97.56665099999998 L 35.67499399999997,97.56665099999998" fill="none" stroke="rgb(92,92,92)" stroke-width="0.1"/>
  <path d="M 33.67499399999997,81.49065100000007 L 35.67499399999997,81.49065100000007" fill="none" stroke="rgb(92,92,92)" stroke-width="0.1"/>
  <path d="M 33.67499399999997,80.02865099999997 L 34.405993999999964,80.02865099999997" fill="none" stroke="rgb(92,92,92)" stroke-width="0.1"/>
  <path d="M 64.67499399999997,0.1596510000000535 L 62.67499399999997,0.1596510000000535" fill="none" stroke="rgb(92,92,92)" stroke-width="0.1"/>
  <path d="M 64.67499399999997,1.5746510000000171 L 62.67499399999997,1.5746510000000171" fill="none" stroke="rgb(92,92,92)" stroke-width="0.1"/>
  <path d="M 64.67499399999997,2.990651000000071 L 62.67499399999997,2.990651000000071" fill="none" stroke="rgb(92,92,92)" stroke-width="0.1"/>
  <path d="M 64.67499399999997,4.405651000000034 L 62.67499399999997,4.405651000000034" fill="none" stroke="rgb(92,92,92)" stroke-width="0.1"/>
  <path d="M 64.67499399999997,5.820650999999998 L 62.67499399999997,5.820650999999998" fill="none" stroke="rgb(92,92,92)" stroke-width="0.1"/>
  <path d="M 64.67499399999997,7.236651000000052 L 62.67499399999997,7.236651000000052" fill="none" stroke="rgb(92,92,92)" stroke-width="0.1"/>
  <path d="M 64.67499399999997,8.651651000000015 L 62.67499399999997,8.651651000000015" fill="none" stroke="rgb(92,92,92)" stroke-width="0.1"/>
  <path d="M 64.67499399999997,10.066650999999979 L 62.67499399999997,10.066650999999979" fill="none" stroke="rgb(92,92,92)" stroke-width="0.1"/>
  <path d="M 64.67499399999997,11.482651000000033 L 62.67499399999997,11.482651000000033" fill="none" stroke="rgb(92,92,92)" stroke-width="0.1"/>
  <path d="M 64.67499399999997,12.897650999999996 L 62.67499399999997,12.897650999999996" fill="none" stroke="rgb(92,92,92)" stroke-width="0.1"/>
  <path d="M 64.67499399999997,14.31365100000005 L 62.67499399999997,14.31365100000005" fill="none" stroke="rgb(92,92,92)" stroke-width="0.1"/>
  <path d="M 64.67499399999997,15.728651000000013 L 62.67499399999997,15.728651000000013" fill="none" stroke="rgb(92,92,92)" stroke-width="0.1"/>
  <path d="M 64.67499399999997,17.143650999999977 L 62.67499399999997,17.143650999999977" fill="none" stroke="rgb(92,92,92)" stroke-width="0.1"/>
  <path d="M 64.67499399999997,18.55965100000003 L 62.67499399999997,18.55965100000003" fill="none" stroke="rgb(92,92,92)" stroke-width="0.1"/>
  <path d="M 64.67499399999997,19.974650999999994 L 62.67499399999997,19.974650999999994" fill="none" stroke="rgb(92,92,92)" stroke-width="0.1"/>
  <path d="M 64.67499399999997,21.390651000000048 L 62.67499399999997,21.390651000000048" fill="none" stroke="rgb(92,92,92)" stroke-width="0.1"/>
  <path d="M 64.67499399999997,22.80565100000001 L 62.67499399999997,22.80565100000001" fill="none" stroke="rgb(92,92,92)" stroke-width="0.1"/>
  <path d="M 64.67499399999997,24.220650999999975 L 62.67499399999997,24.220650999999975" fill="none" stroke="rgb(92,92,92)" stroke-width="0.1"/>
  <path d="M 64.67499399999997,25.63665100000003 L 62.67499399999997,25.63665100000003" fill="none" stroke="rgb(92,92,92)" stroke-width="0.1"/>
  <path d="M 64.67499399999997,27.051650999999993 L 62.67499399999997,27.051650999999993" fill="none" stroke="rgb(92,92,92)" stroke-width="0.1"/>
  <path d="M 64.67499399999997,28.46665100000007 L 62.67499399999997,28.46665100000007" fill="none" stroke="rgb(92,92,92)" stroke-width="0.1"/>
  <path d="M 64.67499399999997,29.88265100000001 L 62.67499399999997,29.88265100000001" fill="none" stroke="rgb(92,92,92)" stroke-width="0.1"/>
  <path d="M 64.67499399999997,31.297650999999973 L 62.67499399999997,31.297650999999973" fill="none" stroke="rgb(92,92,92)" stroke-width="0.1"/>
  <path d="M 64.67499399999997,32.71365100000003 L 62.67499399999997,32.71365100000003" fill="none" stroke="rgb(92,92,92)" stroke-width="0.1"/>
  <path d="M 64.67499399999997,34.12865099999999 L 62.67499399999997,34.12865099999999" fill="none" stroke="rgb(92,92,92)" stroke-width="0.1"/>
  <path d="M 64.67499399999997,35.54365100000007 L 62.67499399999997,35.54365100000007" fill="none" stroke="rgb(92,92,92)" stroke-width="0.1"/>
  <path d="M 64.67499399999997,36.95965100000001 L 62.67499399999997,36.95965100000001" fill="none" stroke="rgb(92,92,92)" stroke-width="0.1"/>
  <path d="M 64.67499399999997,38.37465099999997 L 62.67499399999997,38.37465099999997" fill="none" stroke="rgb(92,92,92)" stroke-width="0.1"/>
  <path d="M 64.67499399999997,39.790651000000025 L 62.67499399999997,39.790651000000025" fill="none" stroke="rgb(92,92,92)" stroke-width="0.1"/>
  <path d="M 64.67499399999997,41.20565099999999 L 62.67499399999997,41.20565099999999" fill="none" stroke="rgb(92,92,92)" stroke-width="0.1"/>
  <path d="M 64.67499399999997,42.620651000000066 L 62.67499399999997,42.620651000000066" fill="none" stroke="rgb(92,92,92)" stroke-width="0.1"/>
  <path d="M 64.67499399999997,44.036651000000006 L 62.67499399999997,44.036651000000006" fill="none" stroke="rgb(92,92,92)" stroke-width="0.1"/>
  <path d="M 64.67499399999997,45.45165099999997 L 62.67499399999997,45.45165099999997" fill="none" stroke="rgb(92,92,92)" stroke-width="0.1"/>
  <path d="M 64.67499399999997,46.86665100000005 L 62.67499399999997,46.86665100000005" fill="none" stroke="rgb(92,92,92)" stroke-width="0.1"/>
  <path d="M 64.67499399999997,48.28265099999999 L 62.67499399999997,48.28265099999999" fill="none" stroke="rgb(92,92,92)" stroke-width="0.1"/>
  <path d="M 64.67499399999997,49.697651000000064 L 62.67499399999997,49.697651000000064" fill="none" stroke="rgb(92,92,92)" stroke-width="0.1"/>
  <path d="M 64.67499399999997,51.113651000000004 L 62.67499399999997,51.113651000000004" fill="none" stroke="rgb(92,92,92)" stroke-width="0.1"/>
  <path d="M 64.67499399999997,52.52865099999997 L 62.67499399999997,52.52865099999997" fill="none" stroke="rgb(92,92,92)" stroke-width="0.1"/>
  <path d="M 64.67499399999997,53.943651000000045 L 62.67499399999997,53.943651000000045" fill="none" stroke="rgb(92,92,92)" stroke-width="0.1"/>
  <path d="M 64.67499399999997,55.359650999999985 L 62.67499399999997,55.359650999999985" fill="none" stroke="rgb(92,92,92)" stroke-width="0.1"/>
  <path d="M 64.67499399999997,56.77465100000006 L 62.67499399999997,56.77465100000006" fill="none" stroke="rgb(92,92,92)" stroke-width="0.1"/>
  <path d="M 64.67499399999997,58.190651 L 62.67499399999997,58.190651" fill="none" stroke="rgb(92,92,92)" stroke-width="0.1"/>
  <path d="M 64.67499399999997,59.605650999999966 L 62.67499399999997,59.605650999999966" fill="none" stroke="rgb(92,92,92)" stroke-width="0.1"/>
  <path d="M 64.67499399999997,61.02065100000004 L 62.67499399999997,61.02065100000004" fill="none" stroke="rgb(92,92,92)" stroke-width="0.1"/>
  <path d="M 64.67499399999997,62.43665099999998 L 62.67499399999997,62.43665099999998" fill="none" stroke="rgb(92,92,92)" stroke-width="0.1"/>
  <path d="M 64.67499399999997,63.85165100000006 L 62.67499399999997,63.85165100000006" fill="none" stroke="rgb(92,92,92)" stroke-width="0.1"/>
  <path d="M 64.67499399999997,65.26665100000002 L 62.67499399999997,65.26665100000002" fill="none" stroke="rgb(92,92,92)" stroke-width="0.1"/>
  <path d="M 64.67499399999997,66.68265100000008 L 62.67499399999997,66.68265100000008" fill="none" stroke="rgb(92,92,92)" stroke-width="0.1"/>
  <path d="M 64.67499399999997,68.09765100000004 L 62.67499399999997,68.09765100000004" fill="none" stroke="rgb(92,92,92)" stroke-width="0.1"/>
  <path d="M 64.67499399999997,69.51365099999998 L 62.67499399999997,69.51365099999998" fill="none" stroke="rgb(92,92,92)" stroke-width="0.1"/>
  <path d="M 64.67499399999997,70.92865100000006 L 62.67499399999997,70.92865100000006" fill="none" stroke="rgb(92,92,92)" stroke-width="0.1"/>
  <path d="M 64.67499399999997,72.34365100000002 L 62.67499399999997,72.34365100000002" fill="none" stroke="rgb(92,92,92)" stroke-width="0.1"/>
  <path d="M 64.67499399999997,73.75965100000008 L 62.67499399999997,73.75965100000008" fill="none" stroke="rgb(92,92,92)" stroke-width="0.1"/>
  <path d="M 64.67499399999997,75.17465100000004 L 62.67499399999997,75.17465100000004" fill="none" stroke="rgb(92,92,92)" stroke-width="0.1"/>
  <path d="M 63.38299399999994,76.59065099999998 L 62.67499399999997,76.59065099999998" fill="none" stroke="rgb(92,92,92)" stroke-width="0.1"/>
  <path d="M 41.67499399999997,0.12165100000004259 L 39.67499399999997,0.12165100000004259" fill="none" stroke="rgb(92,92,92)" stroke-width="0.1"/>
  <path d="M 41.67499399999997,1.532650999999987 L 39.67499399999997,1.532650999999987" fill="none" stroke="rgb(92,92,92)" stroke-width="0.1"/>
  <path d="M 41.67499399999997,2.9446510000000217 L 39.67499399999997,2.9446510000000217" fill="none" stroke="rgb(92,92,92)" stroke-width="0.1"/>
  <path d="M 41.67499399999997,4.356651000000056 L 39.67499399999997,4.356651000000056" fill="none" stroke="rgb(92,92,92)" stroke-width="0.1"/>
  <path d="M 41.67499399999997,5.768650999999977 L 39.67499399999997,5.768650999999977" fill="none" stroke="rgb(92,92,92)" stroke-width="0.1"/>
  <path d="M 41.67499399999997,7.180651000000012 L 39.67499399999997,7.180651000000012" fill="none" stroke="rgb(92,92,92)" stroke-width="0.1"/>
  <path d="M 41.67499399999997,8.59165100000007 L 39.67499399999997,8.59165100000007" fill="none" stroke="rgb(92,92,92)" stroke-width="0.1"/>
  <path d="M 41.67499399999997,10.00365099999999 L 39.67499399999997,10.00365099999999" fill="none" stroke="rgb(92,92,92)" stroke-width="0.1"/>
  <path d="M 41.67499399999997,11.415651000000025 L 39.67499399999997,11.415651000000025" fill="none" stroke="rgb(92,92,92)" stroke-width="0.1"/>
  <path d="M 41.67499399999997,12.82765100000006 L 39.67499399999997,12.82765100000006" fill="none" stroke="rgb(92,92,92)" stroke-width="0.1"/>
  <path d="M 41.67499399999997,14.238651000000004 L 39.67499399999997,14.238651000000004" fill="none" stroke="rgb(92,92,92)" stroke-width="0.1"/>
  <path d="M 41.67499399999997,15.650651000000039 L 39.67499399999997,15.650651000000039" fill="none" stroke="rgb(92,92,92)" stroke-width="0.1"/>
  <path d="M 41.67499399999997,17.062651000000074 L 39.67499399999997,17.062651000000074" fill="none" stroke="rgb(92,92,92)" stroke-width="0.1"/>
  <path d="M 41.67499399999997,18.474650999999994 L 39.67499399999997,18.474650999999994" fill="none" stroke="rgb(92,92,92)" stroke-width="0.1"/>
  <path d="M 41.67499399999997,19.885651000000053 L 39.67499399999997,19.885651000000053" fill="none" stroke="rgb(92,92,92)" stroke-width="0.1"/>
  <path d="M 41.67499399999997,21.297650999999973 L 39.67499399999997,21.297650999999973" fill="none" stroke="rgb(92,92,92)" stroke-width="0.1"/>
  <path d="M 41.67499399999997,22.709651000000008 L 39.67499399999997,22.709651000000008" fill="none" stroke="rgb(92,92,92)" stroke-width="0.1"/>
  <path d="M 41.67499399999997,24.121651000000043 L 39.67499399999997,24.121651000000043" fill="none" stroke="rgb(92,92,92)" stroke-width="0.1"/>
  <path d="M 41.67499399999997,25.532650999999987 L 39.67499399999997,25.532650999999987" fill="none" stroke="rgb(92,92,92)" stroke-width="0.1"/>
  <path d="M 41.67499399999997,26.94465100000002 L 39.67499399999997,26.94465100000002" fill="none" stroke="rgb(92,92,92)" stroke-width="0.1"/>
  <path d="M 41.67499399999997,28.356651000000056 L 39.67499399999997,28.356651000000056" fill="none" stroke="rgb(92,92,92)" stroke-width="0.1"/>
  <path d="M 41.67499399999997,29.768650999999977 L 39.67499399999997,29.768650999999977" fill="none" stroke="rgb(92,92,92)" stroke-width="0.1"/>
  <path d="M 41.67499399999997,31.18065100000001 L 39.67499399999997,31.18065100000001" fill="none" stroke="rgb(92,92,92)" stroke-width="0.1"/>
  <path d="M 41.67499399999997,32.59165100000007 L 39.67499399999997,32.59165100000007" fill="none" stroke="rgb(92,92,92)" stroke-width="0.1"/>
  <path d="M 41.67499399999997,34.00365099999999 L 39.67499399999997,34.00365099999999" fill="none" stroke="rgb(92,92,92)" stroke-width="0.1"/>
  <path d="M 41.67499399999997,35.415651000000025 L 39.67499399999997,35.415651000000025" fill="none" stroke="rgb(92,92,92)" stroke-width="0.1"/>
  <path d="M 41.67499399999997,36.82765100000006 L 39.67499399999997,36.82765100000006" fill="none" stroke="rgb(92,92,92)" stroke-width="0.1"/>
  <path d="M 41.67499399999997,38.238651000000004 L 39.67499399999997,38.238651000000004" fill="none" stroke="rgb(92,92,92)" stroke-width="0.1"/>
  <path d="M 41.67499399999997,39.65065100000004 L 39.67499399999997,39.65065100000004" fill="none" stroke="rgb(92,92,92)" stroke-width="0.1"/>
  <path d="M 41.67499399999997,41.06265100000007 L 39.67499399999997,41.06265100000007" fill="none" stroke="rgb(92,92,92)" stroke-width="0.1"/>
  <path d="M 41.67499399999997,42.474650999999994 L 39.67499399999997,42.474650999999994" fill="none" stroke="rgb(92,92,92)" stroke-width="0.1"/>
  <path d="M 41.67499399999997,43.88565100000005 L 39.67499399999997,43.88565100000005" fill="none" stroke="rgb(92,92,92)" stroke-width="0.1"/>
  <path d="M 41.67499399999997,45.29765099999997 L 39.67499399999997,45.29765099999997" fill="none" stroke="rgb(92,92,92)" stroke-width="0.1"/>
  <path d="M 41.67499399999997,46.70965100000001 L 39.67499399999997,46.70965100000001" fill="none" stroke="rgb(92,92,92)" stroke-width="0.1"/>
  <path d="M 41.67499399999997,48.12165100000004 L 39.67499399999997,48.12165100000004" fill="none" stroke="rgb(92,92,92)" stroke-width="0.1"/>
  <path d="M 41.67499399999997,49.53265099999999 L 39.67499399999997,49.53265099999999" fill="none" stroke="rgb(92,92,92)" stroke-width="0.1"/>
  <path d="M 41.67499399999997,50.94465100000002 L 39.67499399999997,50.94465100000002" fill="none" stroke="rgb(92,92,92)" stroke-width="0.1"/>
  <path d="M 41.67499399999997,52.356651000000056 L 39.67499399999997,52.356651000000056" fill="none" stroke="rgb(92,92,92)" stroke-width="0.1"/>
  <path d="M 41.67499399999997,53.76865099999998 L 39.67499399999997,53.76865099999998" fill="none" stroke="rgb(92,92,92)" stroke-width="0.1"/>
  <path d="M 41.67499399999997,55.18065100000001 L 39.67499399999997,55.18065100000001" fill="none" stroke="rgb(92,92,92)" stroke-width="0.1"/>
  <path d="M 41.67499399999997,56.59165100000007 L 39.67499399999997,56.59165100000007" fill="none" stroke="rgb(92,92,92)" stroke-width="0.1"/>
  <path d="M 41.67499399999997,58.00365099999999 L 39.67499399999997,58.00365099999999" fill="none" stroke="rgb(92,92,92)" stroke-width="0.1"/>
  <path d="M 41.67499399999997,59.415651000000025 L 39.67499399999997,59.415651000000025" fill="none" stroke="rgb(92,92,92)" stroke-width="0.1"/>
  <path d="M 41.67499399999997,60.82765100000006 L 39.67499399999997,60.82765100000006" fill="none" stroke="rgb(92,92,92)" stroke-width="0.1"/>
  <path d="M 41.67499399999997,62.238651000000004 L 39.67499399999997,62.238651000000004" fill="none" stroke="rgb(92,92,92)" stroke-width="0.1"/>
  <path d="M 41.67499399999997,63.65065100000004 L 39.67499399999997,63.65065100000004" fill="none" stroke="rgb(92,92,92)" stroke-width="0.1"/>
  <path d="M 41.67499399999997,65.06265100000007 L 39.67499399999997,65.06265100000007" fill="none" stroke="rgb(92,92,92)" stroke-width="0.1"/>
  <path d="M 41.67499399999997,66.474651 L 39.67499399999997,66.474651" fill="none" stroke="rgb(92,92,92)" stroke-width="0.1"/>
  <path d="M 41.67499399999997,67.88565100000005 L 39.67499399999997,67.88565100000005" fill="none" stroke="rgb(92,92,92)" stroke-width="0.1"/>
  <path d="M 41.67499399999997,69.29765099999997 L 39.67499399999997,69.29765099999997" fill="none" stroke="rgb(92,92,92)" stroke-width="0.1"/>
  <path d="M 41.67499399999997,70.70965100000001 L 39.67499399999997,70.70965100000001" fill="none" stroke="rgb(92,92,92)" stroke-width="0.1"/>
  <path d="M 41.67499399999997,72.12165100000004 L 39.67499399999997,72.12165100000004" fill="none" stroke="rgb(92,92,92)" stroke-width="0.1"/>
  <path d="M 41.67499399999997,73.53265099999999 L 39.67499399999997,73.53265099999999" fill="none" stroke="rgb(92,92,92)" stroke-width="0.1"/>
  <path d="M 41.67499399999997,74.94465100000002 L 39.67499399999997,74.94465100000002" fill="none" stroke="rgb(92,92,92)" stroke-width="0.1"/>
  <path d="M 41.67499399999997,76.35665100000006 L 39.67499399999997,76.35665100000006" fill="none" stroke="rgb(92,92,92)" stroke-width="0.1"/>
  <path d="M 41.67499399999997,77.76865099999998 L 39.67499399999997,77.76865099999998" fill="none" stroke="rgb(92,92,92)" stroke-width="0.1"/>
  <path d="M 41.67499399999997,79.18065100000001 L 39.67499399999997,79.18065100000001" fill="none" stroke="rgb(92,92,92)" stroke-width="0.1"/>
  <path d="M 41.67499399999997,80.59165100000007 L 40.96899399999995,80.59165100000007" fill="none" stroke="rgb(92,92,92)" stroke-width="0.1"/>
  <path d="M 73.67499399999997,97.29765099999997 L 100.0,97.29765099999997" fill="none" instance-id="-1" semantic-id="1" stroke="rgb(92,92,92)" stroke-width="0.1"/>
  <path d="M 100.0,94.29765099999997 L 73.67499399999997,94.29765099999997" fill="none" instance-id="-1" semantic-id="1" stroke="rgb(92,92,92)" stroke-width="0.1"/>
  <path d="M 73.67499399999997,94.29765099999997 L 73.67499399999997,97.29765099999997" fill="none" instance-id="-1" semantic-id="1" stroke="rgb(92,92,92)" stroke-width="0.1"/>
 </g>
 <g id="layerA-PUB_TEXT" inkscape:groupmode="layer" inkscape:label="A-PUB_TEXT">
  <text fill="rgb(0,0,0)" font-family="Noto Sans CJK SC" font-size="2" transform="rotate(-0.0,6.724993999999924,33.39665100000002)" x="6.724993999999924" y="33.39665100000002">
   零售
  </text>
 </g>
 <g id="layerA-WALL" inkscape:groupmode="layer" inkscape:label="A-WALL">
  <path d="M 62.67499399999997,94.29765099999997 L 67.67499399999997,94.29765099999997" fill="none" instance-id="-1" semantic-id="1" stroke="rgb(0,178,178)" stroke-width="0.1"/>
  <path d="M 64.67499399999997,96.29765099999997 L 67.67499399999997,96.29765099999997" fill="none" instance-id="-1" semantic-id="1" stroke="rgb(0,178,178)" stroke-width="0.1"/>
  <path d="M 62.67499399999997,94.29765099999997 L 62.67499399999997,100.0" fill="none" instance-id="-1" semantic-id="1" stroke="rgb(0,178,178)" stroke-width="0.1"/>
  <path d="M 64.67499399999997,100.0 L 64.67499399999997,96.29765099999997" fill="none" instance-id="-1" semantic-id="1" stroke="rgb(0,178,178)" stroke-width="0.1"/>
  <path d="M 41.67499399999997,100.0 L 41.67499399999997,98.29765099999997" fill="none" instance-id="-1" semantic-id="1" stroke="rgb(0,178,178)" stroke-width="0.1"/>
  <path d="M 41.67499399999997,98.29765099999997 L 34.67499399999997,98.29765099999997" fill="none" instance-id="-1" semantic-id="1" stroke="rgb(0,178,178)" stroke-width="0.1"/>
  <path d="M 34.67499399999997,98.29765099999997 L 0.0,98.29765099999997" fill="none" instance-id="-1" semantic-id="1" stroke="rgb(0,178,178)" stroke-width="0.1"/>
 </g>
 <g id="layerA-WALL-CONC" inkscape:groupmode="layer" inkscape:label="A-WALL-CONC">
  <path d="M 73.67499399999997,94.29765099999997 L 100.0,94.29765099999997" fill="none" instance-id="-1" semantic-id="1" stroke="rgb(0,178,178)" stroke-width="0.1"/>
  <path d="M 73.67499399999997,97.29765099999997 L 100.0,97.29765099999997" fill="none" instance-id="-1" semantic-id="1" stroke="rgb(0,178,178)" stroke-width="0.1"/>
 </g>
 <g id="layerA-WALL-STUD" inkscape:groupmode="layer" inkscape:label="A-WALL-STUD">
  <path d="M 68.67499399999997,77.29765099999997 L 62.67499399999997,77.29765099999997" fill="none" instance-id="-1" semantic-id="1" stroke="rgb(255,133,12)" stroke-width="0.1"/>
  <path d="M 70.67499399999997,75.29765099999997 L 64.67499399999997,75.29765099999997" fill="none" instance-id="-1" semantic-id="1" stroke="rgb(255,133,12)" stroke-width="0.1"/>
  <path d="M 70.67499399999997,94.29765099999997 L 70.67499399999997,93.29765099999997" fill="none" instance-id="-1" semantic-id="1" stroke="rgb(255,133,12)" stroke-width="0.1"/>
  <path d="M 70.67499399999997,93.29765099999997 L 68.67499399999997,93.29765099999997" fill="none" instance-id="-1" semantic-id="1" stroke="rgb(255,133,12)" stroke-width="0.1"/>
  <path d="M 68.67499399999997,93.29765099999997 L 68.67499399999997,94.29765099999997" fill="none" instance-id="-1" semantic-id="1" stroke="rgb(255,133,12)" stroke-width="0.1"/>
  <path d="M 68.67499399999997,77.29765099999997 L 68.67499399999997,78.29765099999997" fill="none" instance-id="-1" semantic-id="1" stroke="rgb(255,133,12)" stroke-width="0.1"/>
  <path d="M 68.67499399999997,78.29765099999997 L 70.67499399999997,78.29765099999997" fill="none" instance-id="-1" semantic-id="1" stroke="rgb(255,133,12)" stroke-width="0.1"/>
  <path d="M 70.67499399999997,78.29765099999997 L 70.67499399999997,75.29765099999997" fill="none" instance-id="-1" semantic-id="1" stroke="rgb(255,133,12)" stroke-width="0.1"/>
  <path d="M 33.67499399999997,79.29765099999997 L 39.67499399999997,79.29765099999997" fill="none" instance-id="-1" semantic-id="1" stroke="rgb(255,133,12)" stroke-width="0.1"/>
  <path d="M 35.67499399999997,81.29765099999997 L 41.67499399999997,81.29765099999997" fill="none" instance-id="-1" semantic-id="1" stroke="rgb(255,133,12)" stroke-width="0.1"/>
  <path d="M 35.67499399999997,98.29765099999997 L 35.67499399999997,97.29765099999997" fill="none" instance-id="-1" semantic-id="1" stroke="rgb(255,133,12)" stroke-width="0.1"/>
  <path d="M 35.67499399999997,97.29765099999997 L 33.67499399999997,97.29765099999997" fill="none" instance-id="-1" semantic-id="1" stroke="rgb(255,133,12)" stroke-width="0.1"/>
  <path d="M 33.67499399999997,97.29765099999997 L 33.67499399999997,98.29765099999997" fill="none" instance-id="-1" semantic-id="1" stroke="rgb(255,133,12)" stroke-width="0.1"/>
  <path d="M 33.67499399999997,79.29765099999997 L 33.67499399999997,82.29765099999997" fill="none" instance-id="-1" semantic-id="1" stroke="rgb(255,133,12)" stroke-width="0.1"/>
  <path d="M 33.67499399999997,82.29765099999997 L 35.67499399999997,82.29765099999997" fill="none" instance-id="-1" semantic-id="1" stroke="rgb(255,133,12)" stroke-width="0.1"/>
  <path d="M 35.67499399999997,82.29765099999997 L 35.67499399999997,81.29765099999997" fill="none" instance-id="-1" semantic-id="1" stroke="rgb(255,133,12)" stroke-width="0.1"/>
  <path d="M 64.67499399999997,0.0 L 64.67499399999997,75.29765099999997" fill="none" instance-id="-1" semantic-id="1" stroke="rgb(255,133,12)" stroke-width="0.1"/>
  <path d="M 62.67499399999997,0.0 L 62.67499399999997,77.29765099999997" fill="none" instance-id="-1" semantic-id="1" stroke="rgb(255,133,12)" stroke-width="0.1"/>
  <path d="M 41.67499399999997,0.0 L 41.67499399999997,81.29765099999997" fill="none" instance-id="-1" semantic-id="1" stroke="rgb(255,133,12)" stroke-width="0.1"/>
  <path d="M 39.67499399999997,0.0 L 39.67499399999997,79.29765099999997" fill="none" instance-id="-1" semantic-id="1" stroke="rgb(255,133,12)" stroke-width="0.1"/>
 </g>
 <g id="layerA-WIN" inkscape:groupmode="layer" inkscape:label="A-WIN">
  <path d="M 69.67499399999997,78.29765099999997 L 62.36299399999996,78.29765099999997" fill="none" instance-id="3" semantic-id="4" stroke="rgb(255,133,12)" stroke-width="0.1"/>
  <path d="M 69.67499399999997,78.67265099999997 L 62.36299399999996,78.67265099999997" fill="none" instance-id="3" semantic-id="4" stroke="rgb(255,133,12)" stroke-width="0.1"/>
  <path d="M 69.67499399999997,78.29765099999997 L 69.67499399999997,78.67265099999997" fill="none" instance-id="3" semantic-id="4" stroke="rgb(255,133,12)" stroke-width="0.1"/>
  <path d="M 62.36299399999996,78.67265099999997 L 62.36299399999996,78.29765099999997" fill="none" instance-id="3" semantic-id="4" stroke="rgb(255,133,12)" stroke-width="0.1"/>
  <path d="M 69.67499399999997,92.92265099999997 L 62.36299399999996,92.92265099999997" fill="none" instance-id="3" semantic-id="4" stroke="rgb(255,133,12)" stroke-width="0.1"/>
  <path d="M 69.67499399999997,93.29765099999997 L 62.36299399999996,93.29765099999997" fill="none" instance-id="3" semantic-id="4" stroke="rgb(255,133,12)" stroke-width="0.1"/>
  <path d="M 62.36299399999996,92.92265099999997 L 62.36299399999996,93.29765099999997" fill="none" instance-id="3" semantic-id="4" stroke="rgb(255,133,12)" stroke-width="0.1"/>
  <path d="M 69.67499399999997,93.29765099999997 L 69.67499399999997,92.92265099999997" fill="none" instance-id="3" semantic-id="4" stroke="rgb(255,133,12)" stroke-width="0.1"/>
  <path d="M 34.67499399999997,82.29765099999997 L 41.98799399999996,82.29765099999997" fill="none" instance-id="2" semantic-id="4" stroke="rgb(255,133,12)" stroke-width="0.1"/>
  <path d="M 34.67499399999997,82.67265099999997 L 41.98799399999996,82.67265099999997" fill="none" instance-id="2" semantic-id="4" stroke="rgb(255,133,12)" stroke-width="0.1"/>
  <path d="M 34.67499399999997,82.29765099999997 L 34.67499399999997,82.67265099999997" fill="none" instance-id="2" semantic-id="4" stroke="rgb(255,133,12)" stroke-width="0.1"/>
  <path d="M 41.98799399999996,82.67265099999997 L 41.98799399999996,82.29765099999997" fill="none" instance-id="2" semantic-id="4" stroke="rgb(255,133,12)" stroke-width="0.1"/>
  <path d="M 34.67499399999997,96.92265099999997 L 41.98799399999996,96.92265099999997" fill="none" instance-id="2" semantic-id="4" stroke="rgb(255,133,12)" stroke-width="0.1"/>
  <path d="M 34.67499399999997,97.29765099999997 L 41.98799399999996,97.29765099999997" fill="none" instance-id="2" semantic-id="4" stroke="rgb(255,133,12)" stroke-width="0.1"/>
  <path d="M 41.98799399999996,96.92265099999997 L 41.98799399999996,97.29765099999997" fill="none" instance-id="2" semantic-id="4" stroke="rgb(255,133,12)" stroke-width="0.1"/>
  <path d="M 34.67499399999997,97.29765099999997 L 34.67499399999997,96.92265099999997" fill="none" instance-id="2" semantic-id="4" stroke="rgb(255,133,12)" stroke-width="0.1"/>
  <path d="M 62.364994000000024,78.67265099999997 A 7.3125,7.3125 0.0 0,0 69.67499399999997,85.79765099999997" fill="none" instance-id="3" semantic-id="4" stroke="rgb(255,133,12)" stroke-width="0.1"/>
  <path d="M 69.67499399999997,85.79765099999997 A 7.3125,7.3125 0.0 0,0 62.364994000000024,92.92265099999997" fill="none" instance-id="3" semantic-id="4" stroke="rgb(255,133,12)" stroke-width="0.1"/>
  <path d="M 34.67499399999997,89.79765099999997 A 7.3125,7.3125 0.0 0,0 41.984993999999915,82.67265099999997" fill="none" instance-id="2" semantic-id="4" stroke="rgb(255,133,12)" stroke-width="0.1"/>
  <path d="M 41.984993999999915,96.92265099999997 A 7.3125,7.3125 0.0 0,0 34.67499399999997,89.79765099999997" fill="none" instance-id="2" semantic-id="4" stroke="rgb(255,133,12)" stroke-width="0.1"/>
 </g>
 <g id="layerA-WIN-TEXT" inkscape:groupmode="layer" inkscape:label="A-WIN-TEXT">
  <text fill="rgb(0,0,0)" font-family="Noto Sans CJK SC" font-size="2" transform="rotate(-90.0,78.98299399999996,90.897651)" x="78.98299399999996" y="90.897651">
   M1521
  </text>
  <text fill="rgb(0,0,0)" font-family="Noto Sans CJK SC" font-size="2" transform="rotate(-90.0,31.316994000000022,94.897651)" x="31.316994000000022" y="94.897651">
   M1521
  </text>
 </g>
 <g id="layerA-楼梯编号" inkscape:groupmode="layer" inkscape:label="A-楼梯编号">
  <path d="M 88.64399400000002,98.80865100000005 L 88.64399400000002,100.0" fill="none" stroke="rgb(0,0,0)" stroke-width="0.1"/>
  <path d="M 100.0,98.80865100000005 L 88.64399400000002,98.80865100000005" fill="none" stroke="rgb(0,0,0)" stroke-width="0.1"/>
 </g>
</svg>