<?xml version="1.0" encoding="utf-8"?>
<svg style="background-color: #000;" version="1.1" viewBox="0 0 100.0 100.0" xmlns="http://www.w3.org/2000/svg" xmlns:inkscape="http://www.inkscape.org/namespaces/inkscape">
 <g id="layer1HZ" inkscape:groupmode="layer" inkscape:label="1HZ">
  <path d="M 14.409854499999994,72.68600350000001 L 2.7498544999999694,72.68600350000001" fill="none" stroke="rgb(178,0,0)" stroke-width="0.1"/>
  <path d="M 2.7498544999999694,72.68600350000001 L 5.6388544999999795,72.2585035" fill="none" stroke="rgb(178,0,0)" stroke-width="0.1"/>
  <path d="M 5.6388544999999795,72.2585035 L 5.6388544999999795,72.68600350000001" fill="none" stroke="rgb(178,0,0)" stroke-width="0.1"/>
  <text fill="rgb(178,0,0)" font-family="Noto Sans CJK SC" font-size="2" transform="rotate(-360.0,8.979854499999988,72.43510350000001)" x="8.979854499999988" y="72.43510350000001">
   2%
  </text>
 </g>
 <g id="layer1S2" inkscape:groupmode="layer" inkscape:label="1S2">
  <path d="M 29.55985449999997,30.291903500000004 L 29.55985449999997,16.437903500000004" fill="none" stroke="rgb(178,0,0)" stroke-width="0.1"/>
  <path d="M 26.55985449999997,30.291903500000004 L 26.55985449999997,16.437903500000004" fill="none" stroke="rgb(178,0,0)" stroke-width="0.1"/>
  <path d="M 29.55985449999997,17.271203500000006 L 30.3928545,17.271203500000006" fill="none" stroke="rgb(178,0,0)" stroke-width="0.1"/>
  <path d="M 26.55985449999997,17.271203500000006 L 25.72585449999997,17.271203500000006" fill="none" stroke="rgb(178,0,0)" stroke-width="0.1"/>
  <path d="M 29.55985449999997,17.271203500000006 L 26.55985449999997,17.271203500000006" fill="none" stroke="rgb(178,0,0)" stroke-width="0.1"/>
  <path d="M 29.55985449999997,30.291903500000004 L 29.55985449999997,16.437903500000004" fill="none" stroke="rgb(178,0,0)" stroke-width="0.1"/>
  <path d="M 32.55985449999997,30.291903500000004 L 32.55985449999997,16.437903500000004" fill="none" stroke="rgb(178,0,0)" stroke-width="0.1"/>
  <path d="M 29.55985449999997,17.271203500000006 L 28.72585449999997,17.271203500000006" fill="none" stroke="rgb(178,0,0)" stroke-width="0.1"/>
  <path d="M 32.55985449999997,17.271203500000006 L 33.3928545,17.271203500000006" fill="none" stroke="rgb(178,0,0)" stroke-width="0.1"/>
  <path d="M 29.55985449999997,17.271203500000006 L 32.55985449999997,17.271203500000006" fill="none" stroke="rgb(178,0,0)" stroke-width="0.1"/>
  <path d="M 43.55985449999997,32.291903500000004 L 43.55985449999997,16.437903500000004" fill="none" stroke="rgb(178,0,0)" stroke-width="0.1"/>
  <path d="M 32.55985449999997,32.291903500000004 L 32.55985449999997,16.437903500000004" fill="none" stroke="rgb(178,0,0)" stroke-width="0.1"/>
  <path d="M 43.55985449999997,17.271203500000006 L 32.55985449999997,17.271203500000006" fill="none" stroke="rgb(178,0,0)" stroke-width="0.1"/>
  <path d="M 45.55985449999997,33.291903500000004 L 45.55985449999997,16.437903500000004" fill="none" stroke="rgb(178,0,0)" stroke-width="0.1"/>
  <path d="M 43.55985449999997,33.291903500000004 L 43.55985449999997,16.437903500000004" fill="none" stroke="rgb(178,0,0)" stroke-width="0.1"/>
  <path d="M 45.55985449999997,17.271203500000006 L 46.3928545,17.271203500000006" fill="none" stroke="rgb(178,0,0)" stroke-width="0.1"/>
  <path d="M 43.55985449999997,17.271203500000006 L 42.72585449999997,17.271203500000006" fill="none" stroke="rgb(178,0,0)" stroke-width="0.1"/>
  <path d="M 45.55985449999997,17.271203500000006 L 43.55985449999997,17.271203500000006" fill="none" stroke="rgb(178,0,0)" stroke-width="0.1"/>
  <path d="M 45.55985449999997,33.291903500000004 L 45.55985449999997,16.437903500000004" fill="none" stroke="rgb(178,0,0)" stroke-width="0.1"/>
  <path d="M 59.55985449999997,33.291903500000004 L 59.55985449999997,16.437903500000004" fill="none" stroke="rgb(178,0,0)" stroke-width="0.1"/>
  <path d="M 45.55985449999997,17.271203500000006 L 59.55985449999997,17.271203500000006" fill="none" stroke="rgb(178,0,0)" stroke-width="0.1"/>
  <path d="M 59.55985449999997,33.29120350000001 L 59.55985449999997,16.437903500000004" fill="none" stroke="rgb(178,0,0)" stroke-width="0.1"/>
  <path d="M 61.55985449999997,33.291903500000004 L 61.55985449999997,16.437903500000004" fill="none" stroke="rgb(178,0,0)" stroke-width="0.1"/>
  <path d="M 59.55985449999997,17.271203500000006 L 58.72585449999997,17.271203500000006" fill="none" stroke="rgb(178,0,0)" stroke-width="0.1"/>
  <path d="M 61.55985449999997,17.271203500000006 L 62.3928545,17.271203500000006" fill="none" stroke="rgb(178,0,0)" stroke-width="0.1"/>
  <path d="M 59.55985449999997,17.271203500000006 L 61.55985449999997,17.271203500000006" fill="none" stroke="rgb(178,0,0)" stroke-width="0.1"/>
  <path d="M 61.55985449999997,32.291903500000004 L 61.55985449999997,16.437903500000004" fill="none" stroke="rgb(178,0,0)" stroke-width="0.1"/>
  <path d="M 65.55985449999997,32.291903500000004 L 65.55985449999997,16.437903500000004" fill="none" stroke="rgb(178,0,0)" stroke-width="0.1"/>
  <path d="M 61.55985449999997,17.271203500000006 L 65.55985449999997,17.271203500000006" fill="none" stroke="rgb(178,0,0)" stroke-width="0.1"/>
  <path d="M 65.55985449999997,32.291903500000004 L 65.55985449999997,16.437903500000004" fill="none" stroke="rgb(178,0,0)" stroke-width="0.1"/>
  <path d="M 68.55985449999997,32.291903500000004 L 68.55985449999997,16.437903500000004" fill="none" stroke="rgb(178,0,0)" stroke-width="0.1"/>
  <path d="M 65.55985449999997,17.271203500000006 L 64.72585449999997,17.271203500000006" fill="none" stroke="rgb(178,0,0)" stroke-width="0.1"/>
  <path d="M 68.55985449999997,17.271203500000006 L 69.3928545,17.271203500000006" fill="none" stroke="rgb(178,0,0)" stroke-width="0.1"/>
  <path d="M 65.55985449999997,17.271203500000006 L 68.55985449999997,17.271203500000006" fill="none" stroke="rgb(178,0,0)" stroke-width="0.1"/>
  <path d="M 68.55985449999997,32.29120350000001 L 68.55985449999997,16.437903500000004" fill="none" stroke="rgb(178,0,0)" stroke-width="0.1"/>
  <path d="M 71.55985449999997,32.29120350000001 L 71.55985449999997,16.437903500000004" fill="none" stroke="rgb(178,0,0)" stroke-width="0.1"/>
  <path d="M 68.55985449999997,17.271203500000006 L 67.72585449999997,17.271203500000006" fill="none" stroke="rgb(178,0,0)" stroke-width="0.1"/>
  <path d="M 71.55985449999997,17.271203500000006 L 72.3928545,17.271203500000006" fill="none" stroke="rgb(178,0,0)" stroke-width="0.1"/>
  <path d="M 68.55985449999997,17.271203500000006 L 71.55985449999997,17.271203500000006" fill="none" stroke="rgb(178,0,0)" stroke-width="0.1"/>
  <path d="M 71.55985449999997,32.291903500000004 L 71.55985449999997,16.437903500000004" fill="none" stroke="rgb(178,0,0)" stroke-width="0.1"/>
  <path d="M 85.55985449999997,32.291903500000004 L 85.55985449999997,16.437903500000004" fill="none" stroke="rgb(178,0,0)" stroke-width="0.1"/>
  <path d="M 71.55985449999997,17.271203500000006 L 85.55985449999997,17.271203500000006" fill="none" stroke="rgb(178,0,0)" stroke-width="0.1"/>
  <path d="M 85.55985449999997,33.291903500000004 L 85.55985449999997,16.437903500000004" fill="none" stroke="rgb(178,0,0)" stroke-width="0.1"/>
  <path d="M 88.55985449999997,33.291903500000004 L 88.55985449999997,16.437903500000004" fill="none" stroke="rgb(178,0,0)" stroke-width="0.1"/>
  <path d="M 85.55985449999997,17.271203500000006 L 84.72585449999997,17.271203500000006" fill="none" stroke="rgb(178,0,0)" stroke-width="0.1"/>
  <path d="M 88.55985449999997,17.271203500000006 L 89.3928545,17.271203500000006" fill="none" stroke="rgb(178,0,0)" stroke-width="0.1"/>
  <path d="M 85.55985449999997,17.271203500000006 L 88.55985449999997,17.271203500000006" fill="none" stroke="rgb(178,0,0)" stroke-width="0.1"/>
  <path d="M 20.55985449999997,55.291903500000004 L 20.55985449999997,16.437903500000004" fill="none" stroke="rgb(178,0,0)" stroke-width="0.1"/>
  <path d="M 0.0,17.271203500000006 L 20.55985449999997,17.271203500000006" fill="none" stroke="rgb(178,0,0)" stroke-width="0.1"/>
  <path d="M 20.55985449999997,55.291903500000004 L 20.55985449999997,16.437903500000004" fill="none" stroke="rgb(178,0,0)" stroke-width="0.1"/>
  <path d="M 26.55985449999997,55.291903500000004 L 26.55985449999997,16.437903500000004" fill="none" stroke="rgb(178,0,0)" stroke-width="0.1"/>
  <path d="M 20.55985449999997,17.271203500000006 L 19.72585449999997,17.271203500000006" fill="none" stroke="rgb(178,0,0)" stroke-width="0.1"/>
  <path d="M 26.55985449999997,17.271203500000006 L 27.3928545,17.271203500000006" fill="none" stroke="rgb(178,0,0)" stroke-width="0.1"/>
  <path d="M 20.55985449999997,17.271203500000006 L 26.55985449999997,17.271203500000006" fill="none" stroke="rgb(178,0,0)" stroke-width="0.1"/>
  <path d="M 91.05985449999997,33.291903500000004 L 91.05985449999997,16.437903500000004" fill="none" stroke="rgb(178,0,0)" stroke-width="0.1"/>
  <path d="M 90.55985449999997,33.291903500000004 L 90.55985449999997,16.437903500000004" fill="none" stroke="rgb(178,0,0)" stroke-width="0.1"/>
  <path d="M 91.05985449999997,17.271203500000006 L 91.8928545,17.271203500000006" fill="none" stroke="rgb(178,0,0)" stroke-width="0.1"/>
  <path d="M 90.55985449999997,17.271203500000006 L 89.72585449999997,17.271203500000006" fill="none" stroke="rgb(178,0,0)" stroke-width="0.1"/>
  <path d="M 91.05985449999997,17.271203500000006 L 90.55985449999997,17.271203500000006" fill="none" stroke="rgb(178,0,0)" stroke-width="0.1"/>
  <path d="M 90.55985449999997,30.291903500000004 L 90.55985449999997,16.437903500000004" fill="none" stroke="rgb(178,0,0)" stroke-width="0.1"/>
  <path d="M 88.55985449999997,30.291903500000004 L 88.55985449999997,16.437903500000004" fill="none" stroke="rgb(178,0,0)" stroke-width="0.1"/>
  <path d="M 90.55985449999997,17.271203500000006 L 91.3928545,17.271203500000006" fill="none" stroke="rgb(178,0,0)" stroke-width="0.1"/>
  <path d="M 88.55985449999997,17.271203500000006 L 87.72585449999997,17.271203500000006" fill="none" stroke="rgb(178,0,0)" stroke-width="0.1"/>
  <path d="M 90.55985449999997,17.271203500000006 L 88.55985449999997,17.271203500000006" fill="none" stroke="rgb(178,0,0)" stroke-width="0.1"/>
  <path d="M 91.05985449999997,30.291903500000004 L 91.05985449999997,16.437903500000004" fill="none" stroke="rgb(178,0,0)" stroke-width="0.1"/>
  <path d="M 91.05985449999997,17.271203500000006 L 100.0,17.271203500000006" fill="none" stroke="rgb(178,0,0)" stroke-width="0.1"/>
  <text fill="rgb(178,0,0)" font-family="Noto Sans CJK SC" font-size="2" transform="rotate(-0.0,25.495854500000007,21.038703500000004)" x="25.495854500000007" y="21.038703500000004">
   300
  </text>
  <text fill="rgb(178,0,0)" font-family="Noto Sans CJK SC" font-size="2" transform="rotate(-0.0,28.201854499999968,15.604503500000007)" x="28.201854499999968" y="15.604503500000007">
   300
  </text>
  <text fill="rgb(178,0,0)" font-family="Noto Sans CJK SC" font-size="2" transform="rotate(-0.0,34.1068545,15.604503500000007)" x="34.1068545" y="15.604503500000007">
   1100
  </text>
  <text fill="rgb(178,0,0)" font-family="Noto Sans CJK SC" font-size="2" transform="rotate(-0.0,41.70185449999997,15.604503500000007)" x="41.70185449999997" y="15.604503500000007">
   200
  </text>
  <text fill="rgb(178,0,0)" font-family="Noto Sans CJK SC" font-size="2" transform="rotate(-0.0,48.6068545,15.604503500000007)" x="48.6068545" y="15.604503500000007">
   1400
  </text>
  <text fill="rgb(178,0,0)" font-family="Noto Sans CJK SC" font-size="2" transform="rotate(-0.0,57.70185449999997,15.604503500000007)" x="57.70185449999997" y="15.604503500000007">
   200
  </text>
  <text fill="rgb(178,0,0)" font-family="Noto Sans CJK SC" font-size="2" transform="rotate(-0.0,60.70185449999997,20.69680350000001)" x="60.70185449999997" y="20.69680350000001">
   400
  </text>
  <text fill="rgb(178,0,0)" font-family="Noto Sans CJK SC" font-size="2" transform="rotate(-0.0,64.20185449999997,15.604503500000007)" x="64.20185449999997" y="15.604503500000007">
   300
  </text>
  <text fill="rgb(178,0,0)" font-family="Noto Sans CJK SC" font-size="2" transform="rotate(-0.0,67.20185449999997,20.69680350000001)" x="67.20185449999997" y="20.69680350000001">
   300
  </text>
  <text fill="rgb(178,0,0)" font-family="Noto Sans CJK SC" font-size="2" transform="rotate(-0.0,74.6068545,15.604503500000007)" x="74.6068545" y="15.604503500000007">
   1400
  </text>
  <text fill="rgb(178,0,0)" font-family="Noto Sans CJK SC" font-size="2" transform="rotate(-0.0,84.20185449999997,15.604503500000007)" x="84.20185449999997" y="15.604503500000007">
   300
  </text>
  <text fill="rgb(178,0,0)" font-family="Noto Sans CJK SC" font-size="2" transform="rotate(-0.0,6.2498544999999694,15.604503500000007)" x="6.2498544999999694" y="15.604503500000007">
   2100
  </text>
  <text fill="rgb(178,0,0)" font-family="Noto Sans CJK SC" font-size="2" transform="rotate(-0.0,20.6548545,15.604503500000007)" x="20.6548545" y="15.604503500000007">
   600
  </text>
  <text fill="rgb(178,0,0)" font-family="Noto Sans CJK SC" font-size="2" transform="rotate(-0.0,90.0298545,15.604503500000007)" x="90.0298545" y="15.604503500000007">
   50
  </text>
  <text fill="rgb(178,0,0)" font-family="Noto Sans CJK SC" font-size="2" transform="rotate(-0.0,86.70185449999997,20.85950350000001)" x="86.70185449999997" y="20.85950350000001">
   200
  </text>
 </g>
 <g id="layer1S3" inkscape:groupmode="layer" inkscape:label="1S3">
  <path d="M 86.3928545,51.1150035 L 97.07185449999997,51.1150035" fill="none" stroke="rgb(178,0,0)" stroke-width="0.1"/>
  <path d="M 86.3928545,54.1150035 L 97.07185449999997,54.1150035" fill="none" stroke="rgb(178,0,0)" stroke-width="0.1"/>
  <path d="M 96.23785449999997,51.1150035 L 96.23785449999997,50.281703500000006" fill="none" stroke="rgb(178,0,0)" stroke-width="0.1"/>
  <path d="M 96.23785449999997,54.1150035 L 96.23785449999997,54.94840350000001" fill="none" stroke="rgb(178,0,0)" stroke-width="0.1"/>
  <path d="M 96.23785449999997,51.1150035 L 96.23785449999997,54.1150035" fill="none" stroke="rgb(178,0,0)" stroke-width="0.1"/>
  <path d="M 86.3928545,54.1150035 L 97.07185449999997,54.1150035" fill="none" stroke="rgb(178,0,0)" stroke-width="0.1"/>
  <path d="M 91.3928545,57.1150035 L 97.07185449999997,57.1150035" fill="none" stroke="rgb(178,0,0)" stroke-width="0.1"/>
  <path d="M 96.23785449999997,54.1150035 L 96.23785449999997,53.281703500000006" fill="none" stroke="rgb(178,0,0)" stroke-width="0.1"/>
  <path d="M 96.23785449999997,57.1150035 L 96.23785449999997,57.94840350000001" fill="none" stroke="rgb(178,0,0)" stroke-width="0.1"/>
  <path d="M 96.23785449999997,54.1150035 L 96.23785449999997,57.1150035" fill="none" stroke="rgb(178,0,0)" stroke-width="0.1"/>
  <path d="M 91.3928545,57.1150035 L 97.07185449999997,57.1150035" fill="none" stroke="rgb(178,0,0)" stroke-width="0.1"/>
  <path d="M 91.3928545,72.1150035 L 97.07185449999997,72.1150035" fill="none" stroke="rgb(178,0,0)" stroke-width="0.1"/>
  <path d="M 96.23785449999997,57.1150035 L 96.23785449999997,72.1150035" fill="none" stroke="rgb(178,0,0)" stroke-width="0.1"/>
  <path d="M 91.3928545,72.1150035 L 97.07185449999997,72.1150035" fill="none" stroke="rgb(178,0,0)" stroke-width="0.1"/>
  <path d="M 89.3928545,75.1150035 L 97.07185449999997,75.1150035" fill="none" stroke="rgb(178,0,0)" stroke-width="0.1"/>
  <path d="M 96.23785449999997,72.1150035 L 96.23785449999997,71.2817035" fill="none" stroke="rgb(178,0,0)" stroke-width="0.1"/>
  <path d="M 96.23785449999997,75.1150035 L 96.23785449999997,75.94840350000001" fill="none" stroke="rgb(178,0,0)" stroke-width="0.1"/>
  <path d="M 96.23785449999997,72.1150035 L 96.23785449999997,75.1150035" fill="none" stroke="rgb(178,0,0)" stroke-width="0.1"/>
  <path d="M 89.3928545,75.1150035 L 97.07185449999997,75.1150035" fill="none" stroke="rgb(178,0,0)" stroke-width="0.1"/>
  <path d="M 91.3928545,82.61490350000001 L 97.07185449999997,82.61490350000001" fill="none" stroke="rgb(178,0,0)" stroke-width="0.1"/>
  <path d="M 96.23785449999997,75.1150035 L 96.23785449999997,74.2817035" fill="none" stroke="rgb(178,0,0)" stroke-width="0.1"/>
  <path d="M 96.23785449999997,82.61490350000001 L 96.23785449999997,83.44790350000001" fill="none" stroke="rgb(178,0,0)" stroke-width="0.1"/>
  <path d="M 96.23785449999997,75.1150035 L 96.23785449999997,82.61490350000001" fill="none" stroke="rgb(178,0,0)" stroke-width="0.1"/>
  <path d="M 91.3928545,82.61490350000001 L 97.07185449999997,82.61490350000001" fill="none" stroke="rgb(178,0,0)" stroke-width="0.1"/>
  <path d="M 91.3928545,92.61490350000001 L 97.07185449999997,92.61490350000001" fill="none" stroke="rgb(178,0,0)" stroke-width="0.1"/>
  <path d="M 96.23785449999997,82.61490350000001 L 96.23785449999997,81.78190350000001" fill="none" stroke="rgb(178,0,0)" stroke-width="0.1"/>
  <path d="M 96.23785449999997,92.61490350000001 L 96.23785449999997,93.44790350000001" fill="none" stroke="rgb(178,0,0)" stroke-width="0.1"/>
  <path d="M 96.23785449999997,82.61490350000001 L 96.23785449999997,92.61490350000001" fill="none" stroke="rgb(178,0,0)" stroke-width="0.1"/>
  <path d="M 91.3928545,92.61490350000001 L 97.07185449999997,92.61490350000001" fill="none" stroke="rgb(178,0,0)" stroke-width="0.1"/>
  <path d="M 89.3928545,99.11490350000001 L 97.07185449999997,99.11490350000001" fill="none" stroke="rgb(178,0,0)" stroke-width="0.1"/>
  <path d="M 96.23785449999997,92.61490350000001 L 96.23785449999997,91.78190350000001" fill="none" stroke="rgb(178,0,0)" stroke-width="0.1"/>
  <path d="M 96.23785449999997,99.11490350000001 L 96.23785449999997,99.94790350000001" fill="none" stroke="rgb(178,0,0)" stroke-width="0.1"/>
  <path d="M 96.23785449999997,92.61490350000001 L 96.23785449999997,99.11490350000001" fill="none" stroke="rgb(178,0,0)" stroke-width="0.1"/>
  <path d="M 89.3928545,99.11490350000001 L 97.07185449999997,99.11490350000001" fill="none" stroke="rgb(178,0,0)" stroke-width="0.1"/>
  <path d="M 96.23785449999997,99.11490350000001 L 96.23785449999997,98.28190350000001" fill="none" stroke="rgb(178,0,0)" stroke-width="0.1"/>
  <path d="M 96.23785449999997,99.11490350000001 L 96.23785449999997,100.0" fill="none" stroke="rgb(178,0,0)" stroke-width="0.1"/>
  <path d="M 88.55985449999997,74.2817035 L 88.55985449999997,69.25870350000001" fill="none" stroke="rgb(178,0,0)" stroke-width="0.1"/>
  <path d="M 90.55985449999997,74.2817035 L 90.55985449999997,69.25870350000001" fill="none" stroke="rgb(178,0,0)" stroke-width="0.1"/>
  <path d="M 88.55985449999997,70.0920035 L 87.72585449999997,70.0920035" fill="none" stroke="rgb(178,0,0)" stroke-width="0.1"/>
  <path d="M 90.55985449999997,70.0920035 L 91.3928545,70.0920035" fill="none" stroke="rgb(178,0,0)" stroke-width="0.1"/>
  <path d="M 88.55985449999997,70.0920035 L 90.55985449999997,70.0920035" fill="none" stroke="rgb(178,0,0)" stroke-width="0.1"/>
  <path d="M 90.55985449999997,74.2817035 L 90.55985449999997,69.25870350000001" fill="none" stroke="rgb(178,0,0)" stroke-width="0.1"/>
  <path d="M 90.55985449999997,70.0920035 L 100.0,70.0920035" fill="none" stroke="rgb(178,0,0)" stroke-width="0.1"/>
  <text fill="rgb(178,0,0)" font-family="Noto Sans CJK SC" font-size="2" transform="rotate(-90.0,99.8878545,55.472203500000006)" x="99.8878545" y="55.472203500000006">
   300
  </text>
  <text fill="rgb(178,0,0)" font-family="Noto Sans CJK SC" font-size="2" transform="rotate(-90.0,94.57185449999997,58.472203500000006)" x="94.57185449999997" y="58.472203500000006">
   300
  </text>
  <text fill="rgb(178,0,0)" font-family="Noto Sans CJK SC" font-size="2" transform="rotate(-90.0,94.57185449999997,68.56740350000001)" x="94.57185449999997" y="68.56740350000001">
   1500
  </text>
  <text fill="rgb(178,0,0)" font-family="Noto Sans CJK SC" font-size="2" transform="rotate(-90.0,94.57185449999997,76.4722035)" x="94.57185449999997" y="76.4722035">
   300
  </text>
  <text fill="rgb(178,0,0)" font-family="Noto Sans CJK SC" font-size="2" transform="rotate(-90.0,94.57185449999997,81.72190350000001)" x="94.57185449999997" y="81.72190350000001">
   750
  </text>
  <text fill="rgb(178,0,0)" font-family="Noto Sans CJK SC" font-size="2" transform="rotate(-90.0,94.57185449999997,91.5679035)" x="94.57185449999997" y="91.5679035">
   1000
  </text>
  <text fill="rgb(178,0,0)" font-family="Noto Sans CJK SC" font-size="2" transform="rotate(-90.0,94.57185449999997,98.76990350000001)" x="94.57185449999997" y="98.76990350000001">
   650
  </text>
  <text fill="rgb(178,0,0)" font-family="Noto Sans CJK SC" font-size="2" transform="rotate(-0.0,86.70185449999997,68.4254035)" x="86.70185449999997" y="68.4254035">
   200
  </text>
 </g>
 <g id="layer1s5" inkscape:groupmode="layer" inkscape:label="1s5">
  <text fill="rgb(178,0,0)" font-family="Noto Sans CJK SC" font-size="2" transform="rotate(-0.0,78.70385449999998,65.84310350000001)" x="78.70385449999998" y="65.84310350000001">
   FMY01
  </text>
 </g>
 <g id="layerAXIS" inkscape:groupmode="layer" inkscape:label="AXIS">
  <path d="M 29.55985449999997,0.0 L 29.55985449999997,27.110903500000006" fill="none" stroke="rgb(178,0,0)" stroke-width="0.1"/>
  <path d="M 68.55985449999997,0.0 L 68.55985449999997,27.110903500000006" fill="none" stroke="rgb(178,0,0)" stroke-width="0.1"/>
  <path d="M 100.0,5.110903500000006 L 68.56985450000002,5.110903500000006" fill="none" stroke="rgb(178,0,0)" stroke-width="0.1"/>
  <path d="M 68.54985449999998,5.110903500000006 L 29.56985450000002,5.110903500000006" fill="none" stroke="rgb(178,0,0)" stroke-width="0.1"/>
  <path d="M 29.54985449999998,5.110903500000006 L 0.0,5.110903500000006" fill="none" stroke="rgb(178,0,0)" stroke-width="0.1"/>
  <text fill="rgb(178,0,0)" font-family="Noto Sans CJK SC" font-size="2" transform="rotate(-0.0,43.3448545,3.6109035000000063)" x="43.3448545" y="3.6109035000000063">
   3900
  </text>
  <text fill="rgb(178,0,0)" font-family="Noto Sans CJK SC" font-size="2" transform="rotate(-0.0,4.344854499999997,3.6109035000000063)" x="4.344854499999997" y="3.6109035000000063">
   3900
  </text>
 </g>
 <g id="layerCOLUMN" inkscape:groupmode="layer" inkscape:label="COLUMN">
  <path d="M 26.55985449999997,51.1150035 L 32.55985449999997,51.1150035" fill="none" stroke="rgb(0,0,178)" stroke-width="0.1"/>
  <path d="M 32.55985449999997,51.1150035 L 32.55985449999997,57.1150035" fill="none" stroke="rgb(0,0,178)" stroke-width="0.1"/>
  <path d="M 32.55985449999997,57.1150035 L 26.55985449999997,57.1150035" fill="none" stroke="rgb(0,0,178)" stroke-width="0.1"/>
  <path d="M 26.55985449999997,57.1150035 L 26.55985449999997,51.1150035" fill="none" stroke="rgb(0,0,178)" stroke-width="0.1"/>
  <path d="M 65.55985449999997,51.1150035 L 71.55985449999997,51.1150035" fill="none" stroke="rgb(0,0,178)" stroke-width="0.1"/>
  <path d="M 71.55985449999997,51.1150035 L 71.55985449999997,57.1150035" fill="none" stroke="rgb(0,0,178)" stroke-width="0.1"/>
  <path d="M 71.55985449999997,57.1150035 L 65.55985449999997,57.1150035" fill="none" stroke="rgb(0,0,178)" stroke-width="0.1"/>
  <path d="M 65.55985449999997,57.1150035 L 65.55985449999997,51.1150035" fill="none" stroke="rgb(0,0,178)" stroke-width="0.1"/>
 </g>
 <g id="layerDOTE" inkscape:groupmode="layer" inkscape:label="DOTE">
  <path d="M 68.55985449999997,100.0 L 68.55985449999997,20.378403500000005" fill="none" stroke="rgb(178,0,0)" stroke-width="0.1"/>
  <path d="M 29.55985449999997,100.0 L 29.55985449999997,20.378403500000005" fill="none" stroke="rgb(178,0,0)" stroke-width="0.1"/>
  <path d="M 0.0,75.1150035 L 100.0,75.1150035" fill="none" stroke="rgb(178,0,0)" stroke-width="0.1"/>
  <path d="M 0.0,54.1150035 L 100.0,54.1150035" fill="none" stroke="rgb(178,0,0)" stroke-width="0.1"/>
 </g>
 <g id="layerSTAIR" inkscape:groupmode="layer" inkscape:label="STAIR">
  <path d="M 0.0,67.6150035 L 26.55985449999997,67.6150035" fill="none" stroke="rgb(0,178,0)" stroke-width="0.1"/>
  <path d="M 0.0,66.1150035 L 26.55985449999997,66.1150035" fill="none" stroke="rgb(0,178,0)" stroke-width="0.1"/>
  <path d="M 88.55985449999997,82.61490350000001 L 88.55985449999997,92.61490350000001" fill="none" instance-id="1" semantic-id="31" stroke="rgb(0,178,0)" stroke-width="0.1"/>
  <path d="M 87.05985449999997,80.61490350000001 L 73.55985449999997,80.61490350000001" fill="none" instance-id="1" semantic-id="31" stroke="rgb(0,178,0)" stroke-width="0.1"/>
  <path d="M 87.05985449999997,94.61490350000001 L 73.55985449999997,94.61490350000001" fill="none" instance-id="1" semantic-id="31" stroke="rgb(0,178,0)" stroke-width="0.1"/>
  <path d="M 87.05985449999997,80.61490350000001 L 87.05985449999997,94.61490350000001" fill="none" instance-id="1" semantic-id="31" stroke="rgb(0,178,0)" stroke-width="0.1"/>
  <path d="M 73.55985449999997,80.61490350000001 L 73.55985449999997,94.61490350000001" fill="none" instance-id="1" semantic-id="31" stroke="rgb(0,178,0)" stroke-width="0.1"/>
  <path d="M 87.05985449999997,80.61490350000001 L 73.55985449999997,94.61490350000001" fill="none" instance-id="1" semantic-id="31" stroke="rgb(0,178,0)" stroke-width="0.1"/>
  <path d="M 87.05985449999997,94.61490350000001 L 73.55985449999997,80.61490350000001" fill="none" instance-id="1" semantic-id="31" stroke="rgb(0,178,0)" stroke-width="0.1"/>
  <path d="M 72.05985449999997,82.61490350000001 L 72.05985449999997,92.61490350000001" fill="none" instance-id="1" semantic-id="31" stroke="rgb(0,178,0)" stroke-width="0.1"/>
  <path d="M 70.05985449999997,82.61490350000001 L 70.05985449999997,92.61490350000001" fill="none" instance-id="1" semantic-id="31" stroke="rgb(0,178,0)" stroke-width="0.1"/>
  <path d="M 72.05985449999997,82.61490350000001 L 70.05985449999997,82.61490350000001" fill="none" instance-id="1" semantic-id="31" stroke="rgb(0,178,0)" stroke-width="0.1"/>
  <path d="M 72.05985449999997,92.61490350000001 L 70.05985449999997,92.61490350000001" fill="none" instance-id="1" semantic-id="31" stroke="rgb(0,178,0)" stroke-width="0.1"/>
  <path d="M 29.55985449999997,100.0 L 29.55985449999997,75.5150035" fill="none" instance-id="3" semantic-id="30" stroke="rgb(0,178,0)" stroke-width="0.1"/>
  <path d="M 65.55985449999997,100.0 L 65.55985449999997,76.71500350000001" fill="none" instance-id="3" semantic-id="30" stroke="rgb(0,178,0)" stroke-width="0.1"/>
  <path d="M 49.659854499999994,76.71500350000001 L 66.55985449999997,76.71500350000001" fill="none" instance-id="3" semantic-id="30" stroke="rgb(0,178,0)" stroke-width="0.1"/>
  <path d="M 66.55985449999997,97.1109035 L 51.72910389776314,100.0" fill="none" instance-id="3" semantic-id="30" stroke="rgb(0,178,0)" stroke-width="0.1"/>
  <path d="M 37.50985450000002,100.0 L 37.50985450000002,75.5150035" fill="none" instance-id="3" semantic-id="30" stroke="rgb(0,178,0)" stroke-width="0.1"/>
  <path d="M 57.60985449999998,100.0 L 57.60985449999998,99.0499035" fill="none" instance-id="3" semantic-id="30" stroke="rgb(0,178,0)" stroke-width="0.1"/>
  <path d="M 57.60985449999998,99.0499035 L 57.90151574684609,100.0" fill="none" instance-id="3" semantic-id="30" stroke="rgb(0,178,0)" stroke-width="0.1"/>
  <path d="M 48.659854499999994,100.0 L 48.659854499999994,75.5150035" fill="none" instance-id="3" semantic-id="30" stroke="rgb(0,178,0)" stroke-width="0.1"/>
  <path d="M 48.909854499999994,100.0 L 48.909854499999994,75.2650035" fill="none" instance-id="3" semantic-id="30" stroke="rgb(0,178,0)" stroke-width="0.1"/>
  <path d="M 49.409854499999994,100.0 L 49.409854499999994,74.7650035" fill="none" instance-id="3" semantic-id="30" stroke="rgb(0,178,0)" stroke-width="0.1"/>
  <path d="M 49.659854499999994,100.0 L 49.659854499999994,74.5150035" fill="none" instance-id="3" semantic-id="30" stroke="rgb(0,178,0)" stroke-width="0.1"/>
  <path d="M 46.209854500000006,100.0 L 46.209854500000006,75.2650035" fill="none" instance-id="3" semantic-id="30" stroke="rgb(0,178,0)" stroke-width="0.1"/>
  <path d="M 45.709854500000006,100.0 L 45.709854500000006,74.7650035" fill="none" instance-id="3" semantic-id="30" stroke="rgb(0,178,0)" stroke-width="0.1"/>
  <path d="M 45.459854500000006,100.0 L 45.459854500000006,74.5150035" fill="none" instance-id="3" semantic-id="30" stroke="rgb(0,178,0)" stroke-width="0.1"/>
  <path d="M 49.659854499999994,74.5150035 L 45.459854500000006,74.5150035" fill="none" instance-id="3" semantic-id="30" stroke="rgb(0,178,0)" stroke-width="0.1"/>
  <path d="M 48.909854499999994,75.2650035 L 46.209854500000006,75.2650035" fill="none" instance-id="3" semantic-id="30" stroke="rgb(0,178,0)" stroke-width="0.1"/>
  <path d="M 49.409854499999994,74.7650035 L 45.709854500000006,74.7650035" fill="none" instance-id="3" semantic-id="30" stroke="rgb(0,178,0)" stroke-width="0.1"/>
  <path d="M 46.459854500000006,100.0 L 46.459854500000006,75.5150035" fill="none" instance-id="3" semantic-id="30" stroke="rgb(0,178,0)" stroke-width="0.1"/>
  <path d="M 48.659854499999994,75.5150035 L 46.459854500000006,75.5150035" fill="none" instance-id="3" semantic-id="30" stroke="rgb(0,178,0)" stroke-width="0.1"/>
  <path d="M 45.459854500000006,92.61490350000001 L 29.55985449999997,92.61490350000001" fill="none" instance-id="3" semantic-id="30" stroke="rgb(0,178,0)" stroke-width="0.1"/>
  <path d="M 45.459854500000006,89.7649035 L 29.55985449999997,89.7649035" fill="none" instance-id="3" semantic-id="30" stroke="rgb(0,178,0)" stroke-width="0.1"/>
  <path d="M 45.459854500000006,86.91490350000001 L 29.55985449999997,86.91490350000001" fill="none" instance-id="3" semantic-id="30" stroke="rgb(0,178,0)" stroke-width="0.1"/>
  <path d="M 45.459854500000006,84.0649035 L 29.55985449999997,84.0649035" fill="none" instance-id="3" semantic-id="30" stroke="rgb(0,178,0)" stroke-width="0.1"/>
  <path d="M 45.459854500000006,81.2149035 L 29.55985449999997,81.2149035" fill="none" instance-id="3" semantic-id="30" stroke="rgb(0,178,0)" stroke-width="0.1"/>
  <path d="M 45.459854500000006,78.3650035 L 29.55985449999997,78.3650035" fill="none" instance-id="3" semantic-id="30" stroke="rgb(0,178,0)" stroke-width="0.1"/>
  <path d="M 45.459854500000006,75.5150035 L 29.55985449999997,75.5150035" fill="none" instance-id="3" semantic-id="30" stroke="rgb(0,178,0)" stroke-width="0.1"/>
  <path d="M 45.459854500000006,98.3149035 L 29.55985449999997,98.3149035" fill="none" instance-id="3" semantic-id="30" stroke="rgb(0,178,0)" stroke-width="0.1"/>
  <path d="M 45.459854500000006,95.4649035 L 29.55985449999997,95.4649035" fill="none" instance-id="3" semantic-id="30" stroke="rgb(0,178,0)" stroke-width="0.1"/>
  <path d="M 66.55985449999997,95.1109035 L 48.659854499999994,98.5979035" fill="none" instance-id="3" semantic-id="30" stroke="rgb(0,178,0)" stroke-width="0.1"/>
  <path d="M 49.659854499999994,79.7149035 L 65.55985449999997,79.7149035" fill="none" instance-id="3" semantic-id="30" stroke="rgb(0,178,0)" stroke-width="0.1"/>
  <path d="M 49.659854499999994,82.7149035 L 65.55985449999997,82.7149035" fill="none" instance-id="3" semantic-id="30" stroke="rgb(0,178,0)" stroke-width="0.1"/>
  <path d="M 49.659854499999994,85.7149035 L 65.55985449999997,85.7149035" fill="none" instance-id="3" semantic-id="30" stroke="rgb(0,178,0)" stroke-width="0.1"/>
  <path d="M 49.659854499999994,88.7149035 L 65.55985449999997,88.7149035" fill="none" instance-id="3" semantic-id="30" stroke="rgb(0,178,0)" stroke-width="0.1"/>
  <path d="M 49.659854499999994,91.7149035 L 65.55985449999997,91.7149035" fill="none" instance-id="3" semantic-id="30" stroke="rgb(0,178,0)" stroke-width="0.1"/>
  <path d="M 49.659854499999994,94.7149035 L 65.55985449999997,94.7149035" fill="none" instance-id="3" semantic-id="30" stroke="rgb(0,178,0)" stroke-width="0.1"/>
  <path d="M 49.659854499999994,97.7149035 L 53.19285450000001,97.7149035" fill="none" instance-id="3" semantic-id="30" stroke="rgb(0,178,0)" stroke-width="0.1"/>
  <path d="M 37.50985450000002,100.0 L 37.50985450000002,75.5150035" fill="none" instance-id="3" semantic-id="30" stroke="rgb(0,178,0)" stroke-width="0.1"/>
  <path d="M 57.60985449999998,95.4649035 L 57.60985449999998,76.71500350000001" fill="none" instance-id="3" semantic-id="30" stroke="rgb(0,178,0)" stroke-width="0.1"/>
  <path d="M 56.87885449999999,93.0859035 L 57.60985449999998,95.4649035" fill="none" instance-id="3" semantic-id="30" stroke="rgb(0,178,0)" stroke-width="0.1"/>
 </g>
 <g id="layerWINDOW" inkscape:groupmode="layer" inkscape:label="WINDOW">
  <path d="M 0.0,78.1150035 L 20.55985449999997,78.1150035" fill="none" instance-id="6" semantic-id="9" stroke="rgb(178,178,0)" stroke-width="0.1"/>
  <path d="M 0.0,77.1150035 L 20.55985449999997,77.1150035" fill="none" instance-id="6" semantic-id="9" stroke="rgb(178,178,0)" stroke-width="0.1"/>
  <path d="M 0.0,76.1150035 L 20.55985449999997,76.1150035" fill="none" instance-id="6" semantic-id="9" stroke="rgb(178,178,0)" stroke-width="0.1"/>
  <path d="M 100.0,54.1150035 L 91.05985449999997,54.1150035" fill="none" instance-id="-1" semantic-id="33" stroke="rgb(178,178,0)" stroke-width="0.1"/>
  <path d="M 89.55985449999997,57.1150035 L 82.05985449999997,57.1150035" fill="none" instance-id="4" semantic-id="4" stroke="rgb(178,178,0)" stroke-width="0.1"/>
  <path d="M 89.55985449999997,72.1150035 L 82.05985449999997,72.1150035" fill="none" instance-id="4" semantic-id="4" stroke="rgb(178,178,0)" stroke-width="0.1"/>
  <path d="M 89.55985449999997,72.1150035 L 82.05985449999997,72.1150035" fill="none" instance-id="4" semantic-id="4" stroke="rgb(178,178,0)" stroke-width="0.1"/>
  <path d="M 100.0,52.91500350000001 L 91.05985449999997,52.91500350000001" fill="none" instance-id="-1" semantic-id="33" stroke="rgb(178,178,0)" stroke-width="0.1"/>
  <path d="M 45.55985449999997,54.1150035 L 59.55985449999997,54.1150035" fill="none" instance-id="5" semantic-id="9" stroke="rgb(178,178,0)" stroke-width="0.1"/>
  <path d="M 45.55985449999997,51.1150035 L 59.55985449999997,51.1150035" fill="none" instance-id="5" semantic-id="9" stroke="rgb(178,178,0)" stroke-width="0.1"/>
  <path d="M 45.55985449999997,53.1150035 L 59.55985449999997,53.1150035" fill="none" instance-id="5" semantic-id="9" stroke="rgb(178,178,0)" stroke-width="0.1"/>
  <path d="M 85.55985449999997,54.1150035 L 71.55985449999997,54.1150035" fill="none" instance-id="-1" semantic-id="33" stroke="rgb(178,178,0)" stroke-width="0.1"/>
  <path d="M 85.55985449999997,53.1150035 L 71.55985449999997,53.1150035" fill="none" instance-id="-1" semantic-id="33" stroke="rgb(178,178,0)" stroke-width="0.1"/>
  <path d="M 82.05985449999997,57.1150035 A 7.5,7.5 0.0 0,0 89.55985449999997,64.6150035" fill="none" instance-id="4" semantic-id="4" stroke="rgb(178,178,0)" stroke-width="0.1"/>
  <path d="M 89.55985449999997,64.6150035 A 7.5,7.5 0.0 0,0 82.05985449999997,72.1150035" fill="none" instance-id="4" semantic-id="4" stroke="rgb(178,178,0)" stroke-width="0.1"/>
  <path d="M 89.55985449999997,64.6150035 A 7.5,7.5 0.0 0,0 82.05985449999997,72.1150035" fill="none" instance-id="4" semantic-id="4" stroke="rgb(178,178,0)" stroke-width="0.1"/>
 </g>
 <g id="layerwallo" inkscape:groupmode="layer" inkscape:label="wallo">
  <path d="M 0.0,61.6150035 L 22.05985449999997,61.6150035" fill="none" stroke="rgb(0,178,0)" stroke-width="0.1"/>
  <path d="M 22.05985449999997,61.6150035 L 22.05985449999997,46.6150035" fill="none" stroke="rgb(0,178,0)" stroke-width="0.1"/>
  <path d="M 22.05985449999997,46.6150035 L 100.0,46.6150035" fill="none" stroke="rgb(0,178,0)" stroke-width="0.1"/>
 </g>
 <g id="layer保温板位置线" inkscape:groupmode="layer" inkscape:label="保温板位置线">
  <path d="M 0.0,75.6150035 L 26.05985449999997,75.6150035" fill="none" stroke="rgb(178,0,0)" stroke-width="0.1"/>
  <path d="M 26.05985449999997,75.6150035 L 26.05985449999997,50.6150035" fill="none" stroke="rgb(178,0,0)" stroke-width="0.1"/>
  <path d="M 26.05985449999997,50.6150035 L 100.0,50.6150035" fill="none" stroke="rgb(178,0,0)" stroke-width="0.1"/>
 </g>
 <g id="layer柱填充" inkscape:groupmode="layer" inkscape:label="柱填充">
  <path d="M 26.55985449999997,57.1150035 L 32.55985449999997,57.1150035" fill="none" stroke="rgb(121,121,121)" stroke-width="0.1"/>
  <path d="M 32.55985449999997,57.1150035 L 32.55985449999997,51.1150035" fill="none" stroke="rgb(121,121,121)" stroke-width="0.1"/>
  <path d="M 32.55985449999997,51.1150035 L 26.55985449999997,51.1150035" fill="none" stroke="rgb(121,121,121)" stroke-width="0.1"/>
  <path d="M 26.55985449999997,51.1150035 L 26.55985449999997,57.1150035" fill="none" stroke="rgb(121,121,121)" stroke-width="0.1"/>
  <path d="M 65.55985449999997,57.1150035 L 71.55985449999997,57.1150035" fill="none" stroke="rgb(121,121,121)" stroke-width="0.1"/>
  <path d="M 71.55985449999997,57.1150035 L 71.55985449999997,51.1150035" fill="none" stroke="rgb(121,121,121)" stroke-width="0.1"/>
  <path d="M 71.55985449999997,51.1150035 L 65.55985449999997,51.1150035" fill="none" stroke="rgb(121,121,121)" stroke-width="0.1"/>
  <path d="M 65.55985449999997,51.1150035 L 65.55985449999997,57.1150035" fill="none" stroke="rgb(121,121,121)" stroke-width="0.1"/>
 </g>
 <g id="layer百叶窗" inkscape:groupmode="layer" inkscape:label="百叶窗">
  <text fill="rgb(178,0,0)" font-family="Noto Sans CJK SC" font-size="2" transform="rotate(-0.0,4.924854499999981,64.71510350000001)" x="4.924854499999981" y="64.71510350000001">
   BY07
  </text>
 </g>
 <g id="layer砖墙" inkscape:groupmode="layer" inkscape:label="砖墙">
  <path d="M 20.55985449999997,78.1150035 L 20.55985449999997,76.1150035" fill="none" instance-id="-1" semantic-id="1" stroke="rgb(0,0,178)" stroke-width="0.1"/>
  <path d="M 20.55985449999997,78.1150035 L 26.55985449999997,78.1150035" fill="none" instance-id="-1" semantic-id="1" stroke="rgb(0,0,178)" stroke-width="0.1"/>
  <path d="M 20.55985449999997,76.1150035 L 26.55985449999997,76.1150035" fill="none" instance-id="-1" semantic-id="1" stroke="rgb(0,0,178)" stroke-width="0.1"/>
  <path d="M 26.55985449999997,100.0 L 26.55985449999997,78.1150035" fill="none" instance-id="-1" semantic-id="1" stroke="rgb(0,0,178)" stroke-width="0.1"/>
  <path d="M 68.55985449999997,77.1150035 L 88.55985449999997,77.1150035" fill="none" instance-id="-1" semantic-id="1" stroke="rgb(0,0,178)" stroke-width="0.1"/>
  <path d="M 90.55985449999997,81.11490350000001 L 90.55985449999997,82.61490350000001" fill="none" instance-id="-1" semantic-id="1" stroke="rgb(0,0,178)" stroke-width="0.1"/>
  <path d="M 88.55985449999997,97.11490350000001 L 68.55985449999997,97.11490350000001" fill="none" instance-id="-1" semantic-id="1" stroke="rgb(0,0,178)" stroke-width="0.1"/>
  <path d="M 88.55985449999997,99.11490350000001 L 68.55985449999997,99.11490350000001" fill="none" instance-id="-1" semantic-id="1" stroke="rgb(0,0,178)" stroke-width="0.1"/>
  <path d="M 88.55985449999997,82.61490350000001 L 90.55985449999997,82.61490350000001" fill="none" instance-id="-1" semantic-id="1" stroke="rgb(0,0,178)" stroke-width="0.1"/>
  <path d="M 88.55985449999997,92.61490350000001 L 90.55985449999997,92.61490350000001" fill="none" instance-id="-1" semantic-id="1" stroke="rgb(0,0,178)" stroke-width="0.1"/>
  <path d="M 90.55985449999997,92.61490350000001 L 90.55985449999997,100.0" fill="none" instance-id="-1" semantic-id="1" stroke="rgb(0,0,178)" stroke-width="0.1"/>
  <path d="M 88.55985449999997,92.61490350000001 L 88.55985449999997,97.11490350000001" fill="none" instance-id="-1" semantic-id="1" stroke="rgb(0,0,178)" stroke-width="0.1"/>
  <path d="M 88.55985449999997,99.11490350000001 L 88.55985449999997,100.0" fill="none" instance-id="-1" semantic-id="1" stroke="rgb(0,0,178)" stroke-width="0.1"/>
  <path d="M 66.55985449999997,100.0 L 66.55985449999997,75.1150035" fill="none" instance-id="-1" semantic-id="1" stroke="rgb(0,0,178)" stroke-width="0.1"/>
  <path d="M 68.55985449999997,100.0 L 68.55985449999997,99.11490350000001" fill="none" instance-id="-1" semantic-id="1" stroke="rgb(0,0,178)" stroke-width="0.1"/>
  <path d="M 66.55985449999997,75.1150035 L 88.55985449999997,75.1150035" fill="none" instance-id="-1" semantic-id="1" stroke="rgb(0,0,178)" stroke-width="0.1"/>
  <path d="M 88.55985449999997,72.1150035 L 88.55985449999997,75.1150035" fill="none" instance-id="-1" semantic-id="1" stroke="rgb(0,0,178)" stroke-width="0.1"/>
  <path d="M 90.55985449999997,72.1150035 L 90.55985449999997,82.61490350000001" fill="none" instance-id="-1" semantic-id="1" stroke="rgb(0,0,178)" stroke-width="0.1"/>
  <path d="M 88.55985449999997,72.1150035 L 90.55985449999997,72.1150035" fill="none" instance-id="-1" semantic-id="1" stroke="rgb(0,0,178)" stroke-width="0.1"/>
  <path d="M 88.55985449999997,72.1150035 L 90.55985449999997,72.1150035" fill="none" instance-id="-1" semantic-id="1" stroke="rgb(0,0,178)" stroke-width="0.1"/>
  <path d="M 32.55985449999997,51.1150035 L 45.55985449999997,51.1150035" fill="none" instance-id="-1" semantic-id="1" stroke="rgb(0,0,178)" stroke-width="0.1"/>
  <path d="M 32.55985449999997,53.1150035 L 43.55985449999997,53.1150035" fill="none" instance-id="-1" semantic-id="1" stroke="rgb(0,0,178)" stroke-width="0.1"/>
  <path d="M 88.55985449999997,54.1150035 L 88.55985449999997,57.1150035" fill="none" instance-id="-1" semantic-id="1" stroke="rgb(0,0,178)" stroke-width="0.1"/>
  <path d="M 88.55985449999997,57.1150035 L 90.55985449999997,57.1150035" fill="none" instance-id="-1" semantic-id="1" stroke="rgb(0,0,178)" stroke-width="0.1"/>
  <path d="M 85.55985449999997,51.1150035 L 85.55985449999997,53.1150035" fill="none" instance-id="-1" semantic-id="1" stroke="rgb(0,0,178)" stroke-width="0.1"/>
  <path d="M 85.55985449999997,51.1150035 L 91.05985449999997,51.1150035" fill="none" instance-id="-1" semantic-id="1" stroke="rgb(0,0,178)" stroke-width="0.1"/>
  <path d="M 85.55985449999997,51.1150035 L 85.55985449999997,53.1150035" fill="none" instance-id="-1" semantic-id="1" stroke="rgb(0,0,178)" stroke-width="0.1"/>
  <path d="M 65.55985449999997,51.1150035 L 59.55985449999997,51.1150035" fill="none" instance-id="-1" semantic-id="1" stroke="rgb(0,0,178)" stroke-width="0.1"/>
  <path d="M 59.55985449999997,51.1150035 L 59.55985449999997,54.1150035" fill="none" instance-id="-1" semantic-id="1" stroke="rgb(0,0,178)" stroke-width="0.1"/>
  <path d="M 65.55985449999997,53.1150035 L 61.55985449999997,53.1150035" fill="none" instance-id="-1" semantic-id="1" stroke="rgb(0,0,178)" stroke-width="0.1"/>
  <path d="M 90.55985449999997,92.61490350000001 L 90.55985449999997,100.0" fill="none" instance-id="-1" semantic-id="1" stroke="rgb(0,0,178)" stroke-width="0.1"/>
  <path d="M 68.55985449999997,97.11490350000001 L 68.55985449999997,77.1150035" fill="none" instance-id="-1" semantic-id="1" stroke="rgb(0,0,178)" stroke-width="0.1"/>
  <path d="M 26.55985449999997,76.1150035 L 26.55985449999997,57.1150035" fill="none" instance-id="-1" semantic-id="1" stroke="rgb(0,0,178)" stroke-width="0.1"/>
  <path d="M 88.55985449999997,77.1150035 L 88.55985449999997,82.61490350000001" fill="none" instance-id="-1" semantic-id="1" stroke="rgb(0,0,178)" stroke-width="0.1"/>
  <path d="M 28.55985449999997,100.0 L 28.55985449999997,57.1150035" fill="none" instance-id="-1" semantic-id="1" stroke="rgb(0,0,178)" stroke-width="0.1"/>
  <path d="M 45.55985449999997,51.1150035 L 45.55985449999997,54.1150035" fill="none" instance-id="-1" semantic-id="1" stroke="rgb(0,0,178)" stroke-width="0.1"/>
  <path d="M 43.55985449999997,53.1150035 L 43.55985449999997,54.1150035" fill="none" instance-id="-1" semantic-id="1" stroke="rgb(0,0,178)" stroke-width="0.1"/>
  <path d="M 43.55985449999997,54.1150035 L 45.55985449999997,54.1150035" fill="none" instance-id="-1" semantic-id="1" stroke="rgb(0,0,178)" stroke-width="0.1"/>
  <path d="M 61.55985449999997,53.1150035 L 61.55985449999997,54.1150035" fill="none" instance-id="-1" semantic-id="1" stroke="rgb(0,0,178)" stroke-width="0.1"/>
  <path d="M 59.55985449999997,54.1150035 L 61.55985449999997,54.1150035" fill="none" instance-id="-1" semantic-id="1" stroke="rgb(0,0,178)" stroke-width="0.1"/>
  <path d="M 85.55985449999997,51.1150035 L 85.55985449999997,54.1150035" fill="none" instance-id="-1" semantic-id="1" stroke="rgb(0,0,178)" stroke-width="0.1"/>
  <path d="M 85.55985449999997,54.1150035 L 88.55985449999997,54.1150035" fill="none" instance-id="-1" semantic-id="1" stroke="rgb(0,0,178)" stroke-width="0.1"/>
  <path d="M 90.55985449999997,54.1150035 L 90.55985449999997,57.1150035" fill="none" instance-id="-1" semantic-id="1" stroke="rgb(0,0,178)" stroke-width="0.1"/>
  <path d="M 91.05985449999997,51.1150035 L 91.05985449999997,54.1150035" fill="none" instance-id="-1" semantic-id="1" stroke="rgb(0,0,178)" stroke-width="0.1"/>
  <path d="M 91.05985449999997,54.1150035 L 90.55985449999997,54.1150035" fill="none" instance-id="-1" semantic-id="1" stroke="rgb(0,0,178)" stroke-width="0.1"/>
 </g>
 <g id="layer窗" inkscape:groupmode="layer" inkscape:label="窗">
  <text fill="rgb(178,0,0)" font-family="Noto Sans CJK SC" font-size="2" transform="rotate(-0.0,50.20385449999998,58.03570350000001)" x="50.20385449999998" y="58.03570350000001">
   C24
  </text>
  <text fill="rgb(178,0,0)" font-family="Noto Sans CJK SC" font-size="2" transform="rotate(-0.0,75.44485450000002,58.03570350000001)" x="75.44485450000002" y="58.03570350000001">
   C25
  </text>
  <text fill="rgb(178,0,0)" font-family="Noto Sans CJK SC" font-size="2" transform="rotate(-0.0,6.51185449999997,82.3129035)" x="6.51185449999997" y="82.3129035">
   C27
  </text>
 </g>
</svg>