<?xml version="1.0" encoding="utf-8"?>
<svg style="background-color: #000;" version="1.1" viewBox="0 0 100.0 100.0" xmlns="http://www.w3.org/2000/svg" xmlns:inkscape="http://www.inkscape.org/namespaces/inkscape">
 <g id="layer0YS" inkscape:groupmode="layer" inkscape:label="0YS">
  <circle cx="88.35685450000005" cy="75.13090349999999" fill="none" r="1" stroke="rgb(178,0,0)" stroke-width="0.1"/>
 </g>
 <g id="layer1HZ" inkscape:groupmode="layer" inkscape:label="1HZ">
  <path d="M 83.97585450000008,46.04090350000001 L 83.97585450000008,57.70090349999998" fill="none" stroke="rgb(178,0,0)" stroke-width="0.1"/>
  <path d="M 83.97585450000008,57.70090349999998 L 83.54785450000008,54.812903500000004" fill="none" stroke="rgb(178,0,0)" stroke-width="0.1"/>
  <path d="M 83.54785450000008,54.812903500000004 L 83.97585450000008,54.812903500000004" fill="none" stroke="rgb(178,0,0)" stroke-width="0.1"/>
  <path d="M 54.348854500000016,75.53090350000002 L 66.0088545000001,75.53090350000002" fill="none" stroke="rgb(178,0,0)" stroke-width="0.1"/>
  <path d="M 66.0088545000001,75.53090350000002 L 63.120854500000064,75.10290350000002" fill="none" stroke="rgb(178,0,0)" stroke-width="0.1"/>
  <path d="M 63.120854500000064,75.10290350000002 L 63.120854500000064,75.53090350000002" fill="none" stroke="rgb(178,0,0)" stroke-width="0.1"/>
  <path d="M 12.358854500000007,75.53090350000002 L 0.6988545000000386,75.53090350000002" fill="none" stroke="rgb(178,0,0)" stroke-width="0.1"/>
  <path d="M 0.6988545000000386,75.53090350000002 L 3.5878545000000486,75.10290350000002" fill="none" stroke="rgb(178,0,0)" stroke-width="0.1"/>
  <path d="M 3.5878545000000486,75.10290350000002 L 3.5878545000000486,75.53090350000002" fill="none" stroke="rgb(178,0,0)" stroke-width="0.1"/>
  <text fill="rgb(178,0,0)" font-family="Noto Sans CJK SC" font-size="2" transform="rotate(-90.0,83.72485449999999,51.47090350000002)" x="83.72485449999999" y="51.47090350000002">
   2%
  </text>
  <text fill="rgb(178,0,0)" font-family="Noto Sans CJK SC" font-size="2" transform="rotate(-3.9968e-12,56.49485450000009,75.27990349999999)" x="56.49485450000009" y="75.27990349999999">
   1%
  </text>
  <text fill="rgb(178,0,0)" font-family="Noto Sans CJK SC" font-size="2" transform="rotate(-360.0,6.928854500000057,75.27990349999999)" x="6.928854500000057" y="75.27990349999999">
   1%
  </text>
 </g>
 <g id="layer1S3" inkscape:groupmode="layer" inkscape:label="1S3">
  <path d="M 79.72585450000008,22.114903500000025 L 76.4168545,22.114903500000025" fill="none" stroke="rgb(178,0,0)" stroke-width="0.1"/>
  <path d="M 79.72585450000008,25.114903500000025 L 76.4168545,25.114903500000025" fill="none" stroke="rgb(178,0,0)" stroke-width="0.1"/>
  <path d="M 77.24985450000008,22.114903500000025 L 77.24985450000008,21.2819035" fill="none" stroke="rgb(178,0,0)" stroke-width="0.1"/>
  <path d="M 77.24985450000008,25.114903500000025 L 77.24985450000008,25.947903499999995" fill="none" stroke="rgb(178,0,0)" stroke-width="0.1"/>
  <path d="M 77.24985450000008,22.114903500000025 L 77.24985450000008,25.114903500000025" fill="none" stroke="rgb(178,0,0)" stroke-width="0.1"/>
  <path d="M 79.72585450000008,25.114903500000025 L 76.41485450000005,25.114903500000025" fill="none" stroke="rgb(178,0,0)" stroke-width="0.1"/>
  <path d="M 79.72585450000008,32.614903500000025 L 76.41485450000005,32.614903500000025" fill="none" stroke="rgb(178,0,0)" stroke-width="0.1"/>
  <path d="M 77.24785450000002,25.114903500000025 L 77.24785450000002,32.614903500000025" fill="none" stroke="rgb(178,0,0)" stroke-width="0.1"/>
  <path d="M 79.72485449999999,32.614903500000025 L 76.41485450000005,32.614903500000025" fill="none" stroke="rgb(178,0,0)" stroke-width="0.1"/>
  <path d="M 79.72485449999999,34.114903500000025 L 76.41485450000005,34.114903500000025" fill="none" stroke="rgb(178,0,0)" stroke-width="0.1"/>
  <path d="M 77.24785450000002,32.614903500000025 L 77.24785450000002,31.7819035" fill="none" stroke="rgb(178,0,0)" stroke-width="0.1"/>
  <path d="M 77.24785450000002,34.114903500000025 L 77.24785450000002,34.947903499999995" fill="none" stroke="rgb(178,0,0)" stroke-width="0.1"/>
  <path d="M 77.24785450000002,32.614903500000025 L 77.24785450000002,34.114903500000025" fill="none" stroke="rgb(178,0,0)" stroke-width="0.1"/>
  <path d="M 46.72585450000008,21.114903500000025 L 42.53585450000003,21.114903500000025" fill="none" stroke="rgb(178,0,0)" stroke-width="0.1"/>
  <path d="M 46.72585450000008,25.114903500000025 L 42.53585450000003,25.114903500000025" fill="none" stroke="rgb(178,0,0)" stroke-width="0.1"/>
  <path d="M 43.3688545,21.114903500000025 L 43.3688545,20.2819035" fill="none" stroke="rgb(178,0,0)" stroke-width="0.1"/>
  <path d="M 43.3688545,25.114903500000025 L 43.3688545,25.947903499999995" fill="none" stroke="rgb(178,0,0)" stroke-width="0.1"/>
  <path d="M 43.3688545,21.114903500000025 L 43.3688545,25.114903500000025" fill="none" stroke="rgb(178,0,0)" stroke-width="0.1"/>
  <path d="M 46.72585450000008,25.114903500000025 L 42.53585450000003,25.114903500000025" fill="none" stroke="rgb(178,0,0)" stroke-width="0.1"/>
  <path d="M 46.72585450000008,28.114903500000025 L 42.53585450000003,28.114903500000025" fill="none" stroke="rgb(178,0,0)" stroke-width="0.1"/>
  <path d="M 43.3688545,25.114903500000025 L 43.3688545,24.2819035" fill="none" stroke="rgb(178,0,0)" stroke-width="0.1"/>
  <path d="M 43.3688545,28.114903500000025 L 43.3688545,28.947903499999995" fill="none" stroke="rgb(178,0,0)" stroke-width="0.1"/>
  <path d="M 43.3688545,25.114903500000025 L 43.3688545,28.114903500000025" fill="none" stroke="rgb(178,0,0)" stroke-width="0.1"/>
  <path d="M 31.287854500000094,78.11490350000003 L 21.81985450000002,78.11490350000003" fill="none" stroke="rgb(178,0,0)" stroke-width="0.1"/>
  <path d="M 31.287854500000094,72.11490350000003 L 21.81985450000002,72.11490350000003" fill="none" stroke="rgb(178,0,0)" stroke-width="0.1"/>
  <path d="M 22.65385450000008,78.11490350000003 L 22.65385450000008,78.9479035" fill="none" stroke="rgb(178,0,0)" stroke-width="0.1"/>
  <path d="M 22.65385450000008,72.11490350000003 L 22.65385450000008,71.2819035" fill="none" stroke="rgb(178,0,0)" stroke-width="0.1"/>
  <path d="M 22.65385450000008,78.11490350000003 L 22.65385450000008,72.11490350000003" fill="none" stroke="rgb(178,0,0)" stroke-width="0.1"/>
  <text fill="rgb(178,0,0)" font-family="Noto Sans CJK SC" font-size="2" transform="rotate(-90.0,75.58385450000003,26.471903499999996)" x="75.58385450000003" y="26.471903499999996">
   300
  </text>
  <text fill="rgb(178,0,0)" font-family="Noto Sans CJK SC" font-size="2" transform="rotate(-90.0,76.49985450000008,31.721903499999996)" x="76.49985450000008" y="31.721903499999996">
   750
  </text>
  <text fill="rgb(178,0,0)" font-family="Noto Sans CJK SC" font-size="2" transform="rotate(-90.0,75.58185450000008,36.364903500000025)" x="75.58185450000008" y="36.364903500000025">
   150
  </text>
  <text fill="rgb(178,0,0)" font-family="Noto Sans CJK SC" font-size="2" transform="rotate(-90.0,41.70185450000008,25.971903499999996)" x="41.70185450000008" y="25.971903499999996">
   400
  </text>
  <text fill="rgb(178,0,0)" font-family="Noto Sans CJK SC" font-size="2" transform="rotate(-90.0,46.71885450000002,29.471903499999996)" x="46.71885450000002" y="29.471903499999996">
   300
  </text>
  <text fill="rgb(178,0,0)" font-family="Noto Sans CJK SC" font-size="2" transform="rotate(-90.0,20.98685450000005,78.0199035)" x="20.98685450000005" y="78.0199035">
   600
  </text>
 </g>
 <g id="layerCOLUMN" inkscape:groupmode="layer" inkscape:label="COLUMN">
  <path d="M 47.55985450000003,28.114903500000025 L 53.55985450000003,28.114903500000025" fill="none" instance-id="-1" semantic-id="1" stroke="rgb(0,0,178)" stroke-width="0.1"/>
  <path d="M 53.55985450000003,28.114903500000025 L 53.55985450000003,21.114903500000025" fill="none" instance-id="-1" semantic-id="1" stroke="rgb(0,0,178)" stroke-width="0.1"/>
  <path d="M 53.55985450000003,21.114903500000025 L 47.55985450000003,21.114903500000025" fill="none" instance-id="-1" semantic-id="1" stroke="rgb(0,0,178)" stroke-width="0.1"/>
  <path d="M 47.55985450000003,21.114903500000025 L 47.55985450000003,28.114903500000025" fill="none" instance-id="-1" semantic-id="1" stroke="rgb(0,0,178)" stroke-width="0.1"/>
  <path d="M 92.55985450000003,28.114903500000025 L 86.55985450000003,28.114903500000025" fill="none" instance-id="-1" semantic-id="1" stroke="rgb(0,0,178)" stroke-width="0.1"/>
  <path d="M 86.55985450000003,28.114903500000025 L 86.55985450000003,22.114903500000025" fill="none" instance-id="-1" semantic-id="1" stroke="rgb(0,0,178)" stroke-width="0.1"/>
  <path d="M 86.55985450000003,22.114903500000025 L 92.55985450000003,22.114903500000025" fill="none" instance-id="-1" semantic-id="1" stroke="rgb(0,0,178)" stroke-width="0.1"/>
  <path d="M 92.55985450000003,22.114903500000025 L 92.55985450000003,28.114903500000025" fill="none" instance-id="-1" semantic-id="1" stroke="rgb(0,0,178)" stroke-width="0.1"/>
 </g>
 <g id="layerDOTE" inkscape:groupmode="layer" inkscape:label="DOTE">
  <path d="M 89.55985450000003,100.0 L 89.55985450000003,0.0" fill="none" stroke="rgb(178,0,0)" stroke-width="0.1"/>
  <path d="M 50.55985450000003,100.0 L 50.55985450000003,0.0" fill="none" stroke="rgb(178,0,0)" stroke-width="0.1"/>
  <path d="M 0.0,75.11490350000003 L 100.0,75.11490350000003" fill="none" stroke="rgb(178,0,0)" stroke-width="0.1"/>
  <path d="M 0.0,25.114903500000025 L 100.0,25.114903500000025" fill="none" stroke="rgb(178,0,0)" stroke-width="0.1"/>
 </g>
 <g id="layerSTAIR" inkscape:groupmode="layer" inkscape:label="STAIR">
  <path d="M 86.55985450000003,32.614903500000025 L 53.55985450000003,32.614903500000025" fill="none" stroke="rgb(0,178,0)" stroke-width="0.1"/>
  <path d="M 86.55985450000003,34.114903500000025 L 53.55985450000003,34.114903500000025" fill="none" stroke="rgb(0,178,0)" stroke-width="0.1"/>
  <path d="M 8.559854500000029,34.114903500000025 L 0.0,34.114903500000025" fill="none" stroke="rgb(0,178,0)" stroke-width="0.1"/>
  <path d="M 8.559854500000029,32.614903500000025 L 0.0,32.614903500000025" fill="none" stroke="rgb(0,178,0)" stroke-width="0.1"/>
  <path d="M 47.55985450000003,32.614903500000025 L 14.559854500000029,32.614903500000025" fill="none" stroke="rgb(0,178,0)" stroke-width="0.1"/>
  <path d="M 47.55985450000003,34.114903500000025 L 14.559854500000029,34.114903500000025" fill="none" stroke="rgb(0,178,0)" stroke-width="0.1"/>
  <path d="M 100.0,69.11490350000003 L 84.80985450000003,69.11490350000003" fill="none" stroke="rgb(0,178,0)" stroke-width="0.1"/>
  <path d="M 84.80985450000003,72.11490350000003 L 0.0,72.11490350000003" fill="none" stroke="rgb(0,178,0)" stroke-width="0.1"/>
  <path d="M 84.80985450000003,69.11490350000003 L 84.80985450000003,72.11490350000003" fill="none" stroke="rgb(0,178,0)" stroke-width="0.1"/>
  <path d="M 32.120854500000064,72.11490350000003 L 32.120854500000064,78.11490350000003" fill="none" stroke="rgb(0,178,0)" stroke-width="0.1"/>
 </g>
 <g id="layerWINDOW" inkscape:groupmode="layer" inkscape:label="WINDOW">
  <path d="M 100.0,25.114903500000025 L 92.55985450000003,25.114903500000025" fill="none" stroke="rgb(178,178,0)" stroke-width="0.1"/>
  <path d="M 100.0,26.114903500000025 L 92.55985450000003,26.114903500000025" fill="none" stroke="rgb(178,178,0)" stroke-width="0.1"/>
  <path d="M 100.0,28.114903500000025 L 92.55985450000003,28.114903500000025" fill="none" stroke="rgb(178,178,0)" stroke-width="0.1"/>
  <path d="M 41.55985450000003,22.114903500000025 L 20.55985450000003,22.114903500000025" fill="none" instance-id="2" semantic-id="9" stroke="rgb(178,178,0)" stroke-width="0.1"/>
  <path d="M 41.55985450000003,23.114903500000025 L 20.55985450000003,23.114903500000025" fill="none" instance-id="2" semantic-id="9" stroke="rgb(178,178,0)" stroke-width="0.1"/>
  <path d="M 41.55985450000003,24.114903500000025 L 20.55985450000003,24.114903500000025" fill="none" instance-id="2" semantic-id="9" stroke="rgb(178,178,0)" stroke-width="0.1"/>
  <path d="M 2.5598545000000286,24.114903500000025 L 0.0,24.114903500000025" fill="none" stroke="rgb(178,178,0)" stroke-width="0.1"/>
  <path d="M 2.5598545000000286,23.114903500000025 L 0.0,23.114903500000025" fill="none" stroke="rgb(178,178,0)" stroke-width="0.1"/>
  <path d="M 2.5598545000000286,22.114903500000025 L 0.0,22.114903500000025" fill="none" stroke="rgb(178,178,0)" stroke-width="0.1"/>
  <path d="M 80.55985450000003,22.114903500000025 L 59.55985450000003,22.114903500000025" fill="none" instance-id="3" semantic-id="9" stroke="rgb(178,178,0)" stroke-width="0.1"/>
  <path d="M 80.55985450000003,23.114903500000025 L 59.55985450000003,23.114903500000025" fill="none" instance-id="3" semantic-id="9" stroke="rgb(178,178,0)" stroke-width="0.1"/>
  <path d="M 80.55985450000003,24.114903500000025 L 59.55985450000003,24.114903500000025" fill="none" instance-id="3" semantic-id="9" stroke="rgb(178,178,0)" stroke-width="0.1"/>
 </g>
 <g id="layerwallo" inkscape:groupmode="layer" inkscape:label="wallo">
  <path d="M 97.30985450000003,84.61490350000003 L 0.0,84.61490350000003" fill="none" stroke="rgb(0,178,0)" stroke-width="0.1"/>
  <path d="M 97.30985450000003,81.61490350000003 L 97.30985450000003,84.61490350000003" fill="none" stroke="rgb(0,178,0)" stroke-width="0.1"/>
  <path d="M 100.0,81.61490350000003 L 97.30985450000003,81.61490350000003" fill="none" stroke="rgb(0,178,0)" stroke-width="0.1"/>
  <path d="M 100.0,75.11490350000003 L 90.80985450000003,75.11490350000003" fill="none" stroke="rgb(0,178,0)" stroke-width="0.1"/>
  <path d="M 90.80985450000003,75.11490350000003 L 90.80985450000003,78.11490350000003" fill="none" stroke="rgb(0,178,0)" stroke-width="0.1"/>
  <path d="M 90.80985450000003,78.11490350000003 L 0.0,78.11490350000003" fill="none" stroke="rgb(0,178,0)" stroke-width="0.1"/>
 </g>
 <g id="layer保温板位置线" inkscape:groupmode="layer" inkscape:label="保温板位置线">
  <path d="M 100.0,28.614903500000025 L 92.55985450000003,28.614903500000025" fill="none" stroke="rgb(178,0,0)" stroke-width="0.1"/>
  <path d="M 8.559854500000029,24.614903500000025 L 0.0,24.614903500000025" fill="none" stroke="rgb(178,0,0)" stroke-width="0.1"/>
  <path d="M 47.55985450000003,24.614903500000025 L 14.559854500000029,24.614903500000025" fill="none" stroke="rgb(178,0,0)" stroke-width="0.1"/>
  <path d="M 86.55985450000003,24.614903500000025 L 53.55985450000003,24.614903500000025" fill="none" stroke="rgb(178,0,0)" stroke-width="0.1"/>
 </g>
 <g id="layer柱填充" inkscape:groupmode="layer" inkscape:label="柱填充">
  <path d="M 86.55985450000003,28.114903500000025 L 92.55985450000003,28.114903500000025" fill="none" instance-id="-1" semantic-id="1" stroke="rgb(121,121,121)" stroke-width="0.1"/>
  <path d="M 92.55985450000003,28.114903500000025 L 92.55985450000003,22.114903500000025" fill="none" instance-id="-1" semantic-id="1" stroke="rgb(121,121,121)" stroke-width="0.1"/>
  <path d="M 92.55985450000003,22.114903500000025 L 86.55985450000003,22.114903500000025" fill="none" instance-id="-1" semantic-id="1" stroke="rgb(121,121,121)" stroke-width="0.1"/>
  <path d="M 86.55985450000003,22.114903500000025 L 86.55985450000003,28.114903500000025" fill="none" instance-id="-1" semantic-id="1" stroke="rgb(121,121,121)" stroke-width="0.1"/>
  <path d="M 47.55985450000003,28.114903500000025 L 53.55985450000003,28.114903500000025" fill="none" instance-id="-1" semantic-id="1" stroke="rgb(121,121,121)" stroke-width="0.1"/>
  <path d="M 53.55985450000003,28.114903500000025 L 53.55985450000003,21.114903500000025" fill="none" instance-id="-1" semantic-id="1" stroke="rgb(121,121,121)" stroke-width="0.1"/>
  <path d="M 53.55985450000003,21.114903500000025 L 47.55985450000003,21.114903500000025" fill="none" instance-id="-1" semantic-id="1" stroke="rgb(121,121,121)" stroke-width="0.1"/>
  <path d="M 47.55985450000003,21.114903500000025 L 47.55985450000003,28.114903500000025" fill="none" instance-id="-1" semantic-id="1" stroke="rgb(121,121,121)" stroke-width="0.1"/>
 </g>
 <g id="layer百叶窗" inkscape:groupmode="layer" inkscape:label="百叶窗">
  <text fill="rgb(178,0,0)" font-family="Noto Sans CJK SC" font-size="2" transform="rotate(-0.0,66.90685450000001,38.12990350000001)" x="66.90685450000001" y="38.12990350000001">
   BY07
  </text>
  <text fill="rgb(178,0,0)" font-family="Noto Sans CJK SC" font-size="2" transform="rotate(-0.0,29.378854500000102,38.12990350000001)" x="29.378854500000102" y="38.12990350000001">
   BY07
  </text>
 </g>
 <g id="layer砖墙" inkscape:groupmode="layer" inkscape:label="砖墙">
  <path d="M 51.55985450000003,21.114903500000025 L 51.55985450000003,0.0" fill="none" instance-id="-1" semantic-id="1" stroke="rgb(0,0,178)" stroke-width="0.1"/>
  <path d="M 49.55985450000003,21.114903500000025 L 49.55985450000003,0.0" fill="none" instance-id="-1" semantic-id="1" stroke="rgb(0,0,178)" stroke-width="0.1"/>
  <path d="M 12.559854500000029,0.0 L 12.559854500000029,22.114903500000025" fill="none" instance-id="-1" semantic-id="1" stroke="rgb(0,0,178)" stroke-width="0.1"/>
  <path d="M 90.55985450000003,0.0 L 90.55985450000003,22.114903500000025" fill="none" instance-id="-1" semantic-id="1" stroke="rgb(0,0,178)" stroke-width="0.1"/>
  <path d="M 86.55985450000003,34.114903500000025 L 92.55985450000003,34.114903500000025" fill="none" instance-id="-1" semantic-id="1" stroke="rgb(0,0,178)" stroke-width="0.1"/>
  <path d="M 86.55985450000003,28.114903500000025 L 86.55985450000003,34.114903500000025" fill="none" instance-id="-1" semantic-id="1" stroke="rgb(0,0,178)" stroke-width="0.1"/>
  <path d="M 92.55985450000003,28.114903500000025 L 92.55985450000003,34.114903500000025" fill="none" instance-id="-1" semantic-id="1" stroke="rgb(0,0,178)" stroke-width="0.1"/>
  <path d="M 90.55985450000003,28.114903500000025 L 90.55985450000003,32.114903500000025" fill="none" instance-id="-1" semantic-id="1" stroke="rgb(0,0,178)" stroke-width="0.1"/>
  <path d="M 88.55985450000003,32.114903500000025 L 90.55985450000003,32.114903500000025" fill="none" instance-id="-1" semantic-id="1" stroke="rgb(0,0,178)" stroke-width="0.1"/>
  <path d="M 88.55985450000003,28.114903500000025 L 88.55985450000003,32.114903500000025" fill="none" instance-id="-1" semantic-id="1" stroke="rgb(0,0,178)" stroke-width="0.1"/>
  <path d="M 10.559854500000029,0.0 L 10.559854500000029,22.114903500000025" fill="none" instance-id="-1" semantic-id="1" stroke="rgb(0,0,178)" stroke-width="0.1"/>
  <path d="M 88.55985450000003,0.0 L 88.55985450000003,22.114903500000025" fill="none" instance-id="-1" semantic-id="1" stroke="rgb(0,0,178)" stroke-width="0.1"/>
  <path d="M 14.559854500000029,24.114903500000025 L 14.559854500000029,34.114903500000025" fill="none" instance-id="-1" semantic-id="1" stroke="rgb(0,0,178)" stroke-width="0.1"/>
  <path d="M 8.559854500000029,24.114903500000025 L 8.559854500000029,34.114903500000025" fill="none" instance-id="-1" semantic-id="1" stroke="rgb(0,0,178)" stroke-width="0.1"/>
  <path d="M 8.559854500000029,34.114903500000025 L 14.559854500000029,34.114903500000025" fill="none" instance-id="-1" semantic-id="1" stroke="rgb(0,0,178)" stroke-width="0.1"/>
  <path d="M 10.559854500000029,24.114903500000025 L 10.559854500000029,32.114903500000025" fill="none" instance-id="-1" semantic-id="1" stroke="rgb(0,0,178)" stroke-width="0.1"/>
  <path d="M 10.559854500000029,32.114903500000025 L 12.559854500000029,32.114903500000025" fill="none" instance-id="-1" semantic-id="1" stroke="rgb(0,0,178)" stroke-width="0.1"/>
  <path d="M 12.559854500000029,24.114903500000025 L 12.559854500000029,32.114903500000025" fill="none" instance-id="-1" semantic-id="1" stroke="rgb(0,0,178)" stroke-width="0.1"/>
  <path d="M 49.55985450000003,32.114903500000025 L 51.55985450000003,32.114903500000025" fill="none" instance-id="-1" semantic-id="1" stroke="rgb(0,0,178)" stroke-width="0.1"/>
  <path d="M 86.55985450000003,22.114903500000025 L 80.55985450000003,22.114903500000025" fill="none" instance-id="-1" semantic-id="1" stroke="rgb(0,0,178)" stroke-width="0.1"/>
  <path d="M 47.55985450000003,28.114903500000025 L 47.55985450000003,34.114903500000025" fill="none" instance-id="-1" semantic-id="1" stroke="rgb(0,0,178)" stroke-width="0.1"/>
  <path d="M 47.55985450000003,34.114903500000025 L 53.55985450000003,34.114903500000025" fill="none" instance-id="-1" semantic-id="1" stroke="rgb(0,0,178)" stroke-width="0.1"/>
  <path d="M 53.55985450000003,28.114903500000025 L 53.55985450000003,34.114903500000025" fill="none" instance-id="-1" semantic-id="1" stroke="rgb(0,0,178)" stroke-width="0.1"/>
  <path d="M 80.55985450000003,22.114903500000025 L 80.55985450000003,24.114903500000025" fill="none" instance-id="-1" semantic-id="1" stroke="rgb(0,0,178)" stroke-width="0.1"/>
  <path d="M 59.55985450000003,22.114903500000025 L 59.55985450000003,24.114903500000025" fill="none" instance-id="-1" semantic-id="1" stroke="rgb(0,0,178)" stroke-width="0.1"/>
  <path d="M 80.55985450000003,24.114903500000025 L 86.55985450000003,24.114903500000025" fill="none" instance-id="-1" semantic-id="1" stroke="rgb(0,0,178)" stroke-width="0.1"/>
  <path d="M 59.55985450000003,22.114903500000025 L 53.55985450000003,22.114903500000025" fill="none" instance-id="-1" semantic-id="1" stroke="rgb(0,0,178)" stroke-width="0.1"/>
  <path d="M 59.55985450000003,24.114903500000025 L 53.55985450000003,24.114903500000025" fill="none" instance-id="-1" semantic-id="1" stroke="rgb(0,0,178)" stroke-width="0.1"/>
  <path d="M 20.55985450000003,22.114903500000025 L 20.55985450000003,24.114903500000025" fill="none" instance-id="-1" semantic-id="1" stroke="rgb(0,0,178)" stroke-width="0.1"/>
  <path d="M 41.55985450000003,22.114903500000025 L 41.55985450000003,24.114903500000025" fill="none" instance-id="-1" semantic-id="1" stroke="rgb(0,0,178)" stroke-width="0.1"/>
  <path d="M 41.55985450000003,24.114903500000025 L 47.55985450000003,24.114903500000025" fill="none" instance-id="-1" semantic-id="1" stroke="rgb(0,0,178)" stroke-width="0.1"/>
  <path d="M 20.55985450000003,22.114903500000025 L 12.559854500000029,22.114903500000025" fill="none" instance-id="-1" semantic-id="1" stroke="rgb(0,0,178)" stroke-width="0.1"/>
  <path d="M 20.55985450000003,24.114903500000025 L 14.559854500000029,24.114903500000025" fill="none" instance-id="-1" semantic-id="1" stroke="rgb(0,0,178)" stroke-width="0.1"/>
  <path d="M 2.5598545000000286,22.114903500000025 L 2.5598545000000286,24.114903500000025" fill="none" instance-id="-1" semantic-id="1" stroke="rgb(0,0,178)" stroke-width="0.1"/>
  <path d="M 2.5598545000000286,24.114903500000025 L 8.559854500000029,24.114903500000025" fill="none" instance-id="-1" semantic-id="1" stroke="rgb(0,0,178)" stroke-width="0.1"/>
  <path d="M 12.559854500000029,24.114903500000025 L 10.559854500000029,24.114903500000025" fill="none" instance-id="-1" semantic-id="1" stroke="rgb(0,0,178)" stroke-width="0.1"/>
  <path d="M 10.559854500000029,22.114903500000025 L 2.5598545000000286,22.114903500000025" fill="none" instance-id="-1" semantic-id="1" stroke="rgb(0,0,178)" stroke-width="0.1"/>
  <path d="M 49.55985450000003,28.114903500000025 L 49.55985450000003,32.114903500000025" fill="none" instance-id="-1" semantic-id="1" stroke="rgb(0,0,178)" stroke-width="0.1"/>
  <path d="M 51.55985450000003,28.114903500000025 L 51.55985450000003,32.114903500000025" fill="none" instance-id="-1" semantic-id="1" stroke="rgb(0,0,178)" stroke-width="0.1"/>
  <path d="M 47.55985450000003,22.114903500000025 L 41.55985450000003,22.114903500000025" fill="none" instance-id="-1" semantic-id="1" stroke="rgb(0,0,178)" stroke-width="0.1"/>
 </g>
 <g id="layer窗" inkscape:groupmode="layer" inkscape:label="窗">
  <text fill="rgb(178,0,0)" font-family="Noto Sans CJK SC" font-size="2" transform="rotate(-0.0,98.47685450000006,23.909903499999984)" x="98.47685450000006" y="23.909903499999984">
   C20
  </text>
  <text fill="rgb(178,0,0)" font-family="Noto Sans CJK SC" font-size="2" transform="rotate(-0.0,29.609854500000097,20.608903499999997)" x="29.609854500000097" y="20.608903499999997">
   C27
  </text>
  <text fill="rgb(178,0,0)" font-family="Noto Sans CJK SC" font-size="2" transform="rotate(-0.0,66.6478545,20.608903499999997)" x="66.6478545" y="20.608903499999997">
   C27
  </text>
 </g>
</svg>