<?xml version="1.0" encoding="utf-8"?>
<svg style="background-color: #000;" version="1.1" viewBox="0 0 100.0 100.0" xmlns="http://www.w3.org/2000/svg" xmlns:inkscape="http://www.inkscape.org/namespaces/inkscape">
 <g id="layer0YS" inkscape:groupmode="layer" inkscape:label="0YS">
  <circle cx="58.29653099999996" cy="63.95393949999999" fill="none" r="0.5" stroke="rgb(178,0,0)" stroke-width="0.1"/>
  <circle cx="65.29653099999996" cy="63.95393949999999" fill="none" r="0.5" stroke="rgb(178,0,0)" stroke-width="0.1"/>
 </g>
 <g id="layer1HZ" inkscape:groupmode="layer" inkscape:label="1HZ">
  <path d="M 6.3765309999999715,65.5249395 L 0.0,65.5249395" fill="none" stroke="rgb(178,0,0)" stroke-width="0.1"/>
  <path d="M 39.215531,65.5249395 L 50.87453099999999,65.5249395" fill="none" stroke="rgb(178,0,0)" stroke-width="0.1"/>
  <path d="M 50.87453099999999,65.5249395 L 47.98653099999996,65.0974395" fill="none" stroke="rgb(178,0,0)" stroke-width="0.1"/>
  <path d="M 47.98653099999996,65.0974395 L 47.98653099999996,65.5249395" fill="none" stroke="rgb(178,0,0)" stroke-width="0.1"/>
  <path d="M 84.376531,65.5249395 L 72.71753099999995,65.5249395" fill="none" stroke="rgb(178,0,0)" stroke-width="0.1"/>
  <path d="M 72.71753099999995,65.5249395 L 75.60553099999998,65.0974395" fill="none" stroke="rgb(178,0,0)" stroke-width="0.1"/>
  <path d="M 75.60553099999998,65.0974395 L 75.60553099999998,65.5249395" fill="none" stroke="rgb(178,0,0)" stroke-width="0.1"/>
  <text fill="rgb(178,0,0)" font-family="Noto Sans CJK SC" font-size="2" transform="rotate(-360.0,0.9475309999999695,65.2740395)" x="0.9475309999999695" y="65.2740395">
   2%
  </text>
  <text fill="rgb(178,0,0)" font-family="Noto Sans CJK SC" font-size="2" transform="rotate(-3.9968e-12,40.791530999999964,65.2740395)" x="40.791530999999964" y="65.2740395">
   2%
  </text>
  <text fill="rgb(178,0,0)" font-family="Noto Sans CJK SC" font-size="2" transform="rotate(-360.0,78.94753099999997,65.2740395)" x="78.94753099999997" y="65.2740395">
   2%
  </text>
 </g>
 <g id="layer1S2" inkscape:groupmode="layer" inkscape:label="1S2">
  <path d="M 19.796530999999987,38.4653395 L 19.796530999999987,9.427439499999998" fill="none" stroke="rgb(178,0,0)" stroke-width="0.1"/>
  <path d="M 22.79653099999996,38.4653395 L 22.79653099999996,9.427439499999998" fill="none" stroke="rgb(178,0,0)" stroke-width="0.1"/>
  <path d="M 19.796530999999987,10.260839499999996 L 18.962530999999984,10.260839499999996" fill="none" stroke="rgb(178,0,0)" stroke-width="0.1"/>
  <path d="M 22.79653099999996,10.260839499999996 L 23.629530999999986,10.260839499999996" fill="none" stroke="rgb(178,0,0)" stroke-width="0.1"/>
  <path d="M 19.796530999999987,10.260839499999996 L 22.79653099999996,10.260839499999996" fill="none" stroke="rgb(178,0,0)" stroke-width="0.1"/>
  <path d="M 22.794531000000006,38.465639499999995 L 22.794531000000006,9.427739499999994" fill="none" stroke="rgb(178,0,0)" stroke-width="0.1"/>
  <path d="M 25.794531000000006,38.465639499999995 L 25.794531000000006,9.427739499999994" fill="none" stroke="rgb(178,0,0)" stroke-width="0.1"/>
  <path d="M 22.794531000000006,10.261139499999999 L 21.960530999999975,10.261139499999999" fill="none" stroke="rgb(178,0,0)" stroke-width="0.1"/>
  <path d="M 25.794531000000006,10.261139499999999 L 26.627530999999976,10.261139499999999" fill="none" stroke="rgb(178,0,0)" stroke-width="0.1"/>
  <path d="M 22.794531000000006,10.261139499999999 L 25.794531000000006,10.261139499999999" fill="none" stroke="rgb(178,0,0)" stroke-width="0.1"/>
  <path d="M 58.79653099999996,38.4653395 L 58.79653099999996,9.427439499999998" fill="none" stroke="rgb(178,0,0)" stroke-width="0.1"/>
  <path d="M 64.79653099999996,38.4653395 L 64.79653099999996,9.427439499999998" fill="none" stroke="rgb(178,0,0)" stroke-width="0.1"/>
  <path d="M 58.79653099999996,10.260839499999996 L 64.79653099999996,10.260839499999996" fill="none" stroke="rgb(178,0,0)" stroke-width="0.1"/>
  <path d="M 97.79653099999996,38.4653395 L 97.79653099999996,9.427439499999998" fill="none" stroke="rgb(178,0,0)" stroke-width="0.1"/>
  <path d="M 97.79653099999996,10.260839499999996 L 96.96253099999996,10.260839499999996" fill="none" stroke="rgb(178,0,0)" stroke-width="0.1"/>
  <path d="M 97.79653099999996,10.260839499999996 L 100.0,10.260839499999996" fill="none" stroke="rgb(178,0,0)" stroke-width="0.1"/>
  <path d="M 100.0,10.261139499999999 L 99.960531,10.261139499999999" fill="none" stroke="rgb(178,0,0)" stroke-width="0.1"/>
  <path d="M 13.796530999999987,42.4653395 L 13.796530999999987,9.427439499999998" fill="none" stroke="rgb(178,0,0)" stroke-width="0.1"/>
  <path d="M 19.796530999999987,42.4653395 L 19.796530999999987,9.427439499999998" fill="none" stroke="rgb(178,0,0)" stroke-width="0.1"/>
  <path d="M 13.796530999999987,10.260839499999996 L 12.962530999999984,10.260839499999996" fill="none" stroke="rgb(178,0,0)" stroke-width="0.1"/>
  <path d="M 19.796530999999987,10.260839499999996 L 20.629530999999986,10.260839499999996" fill="none" stroke="rgb(178,0,0)" stroke-width="0.1"/>
  <path d="M 13.796530999999987,10.260839499999996 L 19.796530999999987,10.260839499999996" fill="none" stroke="rgb(178,0,0)" stroke-width="0.1"/>
  <path d="M 13.796530999999987,42.46473949999999 L 13.796530999999987,9.427439499999998" fill="none" stroke="rgb(178,0,0)" stroke-width="0.1"/>
  <path d="M 13.796530999999987,10.260839499999996 L 0.0,10.260839499999996" fill="none" stroke="rgb(178,0,0)" stroke-width="0.1"/>
  <path d="M 31.79653099999996,42.4653395 L 31.79653099999996,9.427439499999998" fill="none" stroke="rgb(178,0,0)" stroke-width="0.1"/>
  <path d="M 25.79653099999996,42.4653395 L 25.79653099999996,9.427439499999998" fill="none" stroke="rgb(178,0,0)" stroke-width="0.1"/>
  <path d="M 31.79653099999996,10.260839499999996 L 32.629530999999986,10.260839499999996" fill="none" stroke="rgb(178,0,0)" stroke-width="0.1"/>
  <path d="M 25.79653099999996,10.260839499999996 L 24.962530999999956,10.260839499999996" fill="none" stroke="rgb(178,0,0)" stroke-width="0.1"/>
  <path d="M 31.79653099999996,10.260839499999996 L 25.79653099999996,10.260839499999996" fill="none" stroke="rgb(178,0,0)" stroke-width="0.1"/>
  <path d="M 31.79653099999996,42.46473949999999 L 31.79653099999996,9.427439499999998" fill="none" stroke="rgb(178,0,0)" stroke-width="0.1"/>
  <path d="M 52.79653099999996,42.46473949999999 L 52.79653099999996,9.427439499999998" fill="none" stroke="rgb(178,0,0)" stroke-width="0.1"/>
  <path d="M 31.79653099999996,10.260839499999996 L 52.79653099999996,10.260839499999996" fill="none" stroke="rgb(178,0,0)" stroke-width="0.1"/>
  <path d="M 52.79653099999996,42.4640395 L 52.79653099999996,9.427439499999998" fill="none" stroke="rgb(178,0,0)" stroke-width="0.1"/>
  <path d="M 58.79653099999996,41.9653395 L 58.79653099999996,9.427439499999998" fill="none" stroke="rgb(178,0,0)" stroke-width="0.1"/>
  <path d="M 52.79653099999996,10.260839499999996 L 51.962530999999956,10.260839499999996" fill="none" stroke="rgb(178,0,0)" stroke-width="0.1"/>
  <path d="M 58.79653099999996,10.260839499999996 L 59.629530999999986,10.260839499999996" fill="none" stroke="rgb(178,0,0)" stroke-width="0.1"/>
  <path d="M 52.79653099999996,10.260839499999996 L 58.79653099999996,10.260839499999996" fill="none" stroke="rgb(178,0,0)" stroke-width="0.1"/>
  <path d="M 91.79653099999996,42.4653395 L 91.79653099999996,9.427439499999998" fill="none" stroke="rgb(178,0,0)" stroke-width="0.1"/>
  <path d="M 97.79653099999996,42.4653395 L 97.79653099999996,9.427439499999998" fill="none" stroke="rgb(178,0,0)" stroke-width="0.1"/>
  <path d="M 91.79653099999996,10.260839499999996 L 90.96253099999996,10.260839499999996" fill="none" stroke="rgb(178,0,0)" stroke-width="0.1"/>
  <path d="M 97.79653099999996,10.260839499999996 L 98.62953099999999,10.260839499999996" fill="none" stroke="rgb(178,0,0)" stroke-width="0.1"/>
  <path d="M 91.79653099999996,10.260839499999996 L 97.79653099999996,10.260839499999996" fill="none" stroke="rgb(178,0,0)" stroke-width="0.1"/>
  <path d="M 91.79653099999996,42.46473949999999 L 91.79653099999996,9.427439499999998" fill="none" stroke="rgb(178,0,0)" stroke-width="0.1"/>
  <path d="M 70.79653099999996,42.46473949999999 L 70.79653099999996,9.427439499999998" fill="none" stroke="rgb(178,0,0)" stroke-width="0.1"/>
  <path d="M 91.79653099999996,10.260839499999996 L 70.79653099999996,10.260839499999996" fill="none" stroke="rgb(178,0,0)" stroke-width="0.1"/>
  <path d="M 70.79653099999996,42.4640395 L 70.79653099999996,9.427439499999998" fill="none" stroke="rgb(178,0,0)" stroke-width="0.1"/>
  <path d="M 64.79653099999996,41.9653395 L 64.79653099999996,9.427439499999998" fill="none" stroke="rgb(178,0,0)" stroke-width="0.1"/>
  <path d="M 70.79653099999996,10.260839499999996 L 71.62953099999999,10.260839499999996" fill="none" stroke="rgb(178,0,0)" stroke-width="0.1"/>
  <path d="M 64.79653099999996,10.260839499999996 L 63.962530999999956,10.260839499999996" fill="none" stroke="rgb(178,0,0)" stroke-width="0.1"/>
  <path d="M 70.79653099999996,10.260839499999996 L 64.79653099999996,10.260839499999996" fill="none" stroke="rgb(178,0,0)" stroke-width="0.1"/>
  <text fill="rgb(178,0,0)" font-family="Noto Sans CJK SC" font-size="2" transform="rotate(-0.0,18.438530999999983,14.338739499999996)" x="18.438530999999983" y="14.338739499999996">
   300
  </text>
  <text fill="rgb(178,0,0)" font-family="Noto Sans CJK SC" font-size="2" transform="rotate(-0.0,21.43753099999998,8.594439499999993)" x="21.43753099999998" y="8.594439499999993">
   300
  </text>
  <text fill="rgb(178,0,0)" font-family="Noto Sans CJK SC" font-size="2" transform="rotate(-0.0,58.891530999999986,15.5002395)" x="58.891530999999986" y="15.5002395">
   600
  </text>
  <text fill="rgb(178,0,0)" font-family="Noto Sans CJK SC" font-size="2" transform="rotate(-0.0,96.43853099999995,14.338739499999996)" x="96.43853099999995" y="14.338739499999996">
   300
  </text>
  <text fill="rgb(178,0,0)" font-family="Noto Sans CJK SC" font-size="2" transform="rotate(-0.0,99.43753099999998,8.594439499999993)" x="99.43753099999998" y="8.594439499999993">
   300
  </text>
  <text fill="rgb(178,0,0)" font-family="Noto Sans CJK SC" font-size="2" transform="rotate(-0.0,13.891530999999986,8.594139499999997)" x="13.891530999999986" y="8.594139499999997">
   600
  </text>
  <text fill="rgb(178,0,0)" font-family="Noto Sans CJK SC" font-size="2" transform="rotate(-0.0,25.891530999999986,8.594139499999997)" x="25.891530999999986" y="8.594139499999997">
   600
  </text>
  <text fill="rgb(178,0,0)" font-family="Noto Sans CJK SC" font-size="2" transform="rotate(-0.0,38.48653099999996,8.594139499999997)" x="38.48653099999996" y="8.594139499999997">
   2100
  </text>
  <text fill="rgb(178,0,0)" font-family="Noto Sans CJK SC" font-size="2" transform="rotate(-0.0,52.891530999999986,8.594139499999997)" x="52.891530999999986" y="8.594139499999997">
   600
  </text>
  <text fill="rgb(178,0,0)" font-family="Noto Sans CJK SC" font-size="2" transform="rotate(-0.0,91.89153099999999,8.594139499999997)" x="91.89153099999999" y="8.594139499999997">
   600
  </text>
  <text fill="rgb(178,0,0)" font-family="Noto Sans CJK SC" font-size="2" transform="rotate(-0.0,77.48653099999996,8.594139499999997)" x="77.48653099999996" y="8.594139499999997">
   2100
  </text>
  <text fill="rgb(178,0,0)" font-family="Noto Sans CJK SC" font-size="2" transform="rotate(-0.0,64.89153099999999,8.594139499999997)" x="64.89153099999999" y="8.594139499999997">
   600
  </text>
 </g>
 <g id="layerAXIS" inkscape:groupmode="layer" inkscape:label="AXIS">
  <path d="M 22.79653099999996,0.0 L 22.79653099999996,19.949839499999996" fill="none" stroke="rgb(178,0,0)" stroke-width="0.1"/>
 </g>
 <g id="layerCOLUMN" inkscape:groupmode="layer" inkscape:label="COLUMN">
  <path d="M 100.0,64.95393949999999 L 97.79653099999996,64.95393949999999" fill="none" stroke="rgb(0,0,178)" stroke-width="0.1"/>
  <path d="M 97.79653099999996,64.95393949999999 L 97.79653099999996,70.95393949999999" fill="none" stroke="rgb(0,0,178)" stroke-width="0.1"/>
  <path d="M 97.79653099999996,70.95393949999999 L 100.0,70.95393949999999" fill="none" stroke="rgb(0,0,178)" stroke-width="0.1"/>
  <path d="M 25.79653099999996,64.95393949999999 L 19.796530999999987,64.95393949999999" fill="none" stroke="rgb(0,0,178)" stroke-width="0.1"/>
  <path d="M 19.796530999999987,64.95393949999999 L 19.796530999999987,70.95393949999999" fill="none" stroke="rgb(0,0,178)" stroke-width="0.1"/>
  <path d="M 19.796530999999987,70.95393949999999 L 25.79653099999996,70.95393949999999" fill="none" stroke="rgb(0,0,178)" stroke-width="0.1"/>
  <path d="M 25.79653099999996,70.95393949999999 L 25.79653099999996,64.95393949999999" fill="none" stroke="rgb(0,0,178)" stroke-width="0.1"/>
 </g>
 <g id="layerDOTE" inkscape:groupmode="layer" inkscape:label="DOTE">
  <path d="M 22.79653099999996,100.0 L 22.79653099999996,13.217339499999994" fill="none" stroke="rgb(178,0,0)" stroke-width="0.1"/>
  <path d="M 0.0,67.95393949999999 L 100.0,67.95393949999999" fill="none" stroke="rgb(178,0,0)" stroke-width="0.1"/>
  <path d="M 0.0,46.95393949999999 L 100.0,46.95393949999999" fill="none" stroke="rgb(178,0,0)" stroke-width="0.1"/>
 </g>
 <g id="layerSTAIR" inkscape:groupmode="layer" inkscape:label="STAIR">
  <path d="M 97.79653099999996,60.45393949999999 L 64.79653099999996,60.45393949999999" fill="none" stroke="rgb(0,178,0)" stroke-width="0.1"/>
  <path d="M 97.79653099999996,58.95393949999999 L 64.79653099999996,58.95393949999999" fill="none" stroke="rgb(0,178,0)" stroke-width="0.1"/>
  <path d="M 25.79653099999996,58.95393949999999 L 58.79653099999996,58.95393949999999" fill="none" stroke="rgb(0,178,0)" stroke-width="0.1"/>
  <path d="M 25.79653099999996,60.45393949999999 L 58.79653099999996,60.45393949999999" fill="none" stroke="rgb(0,178,0)" stroke-width="0.1"/>
  <path d="M 19.796530999999987,58.95393949999999 L 0.0,58.95393949999999" fill="none" stroke="rgb(0,178,0)" stroke-width="0.1"/>
  <path d="M 19.796530999999987,60.45393949999999 L 0.0,60.45393949999999" fill="none" stroke="rgb(0,178,0)" stroke-width="0.1"/>
 </g>
 <g id="layerWINDOW" inkscape:groupmode="layer" inkscape:label="WINDOW">
  <path d="M 31.79653099999996,70.95393949999999 L 52.79653099999996,70.95393949999999" fill="none" instance-id="2" semantic-id="9" stroke="rgb(178,178,0)" stroke-width="0.1"/>
  <path d="M 31.79653099999996,69.95393949999999 L 52.79653099999996,69.95393949999999" fill="none" instance-id="2" semantic-id="9" stroke="rgb(178,178,0)" stroke-width="0.1"/>
  <path d="M 31.79653099999996,68.95393949999999 L 52.79653099999996,68.95393949999999" fill="none" instance-id="2" semantic-id="9" stroke="rgb(178,178,0)" stroke-width="0.1"/>
  <path d="M 91.79653099999996,68.95393949999999 L 70.79653099999996,68.95393949999999" fill="none" instance-id="3" semantic-id="9" stroke="rgb(178,178,0)" stroke-width="0.1"/>
  <path d="M 91.79653099999996,69.95393949999999 L 70.79653099999996,69.95393949999999" fill="none" instance-id="3" semantic-id="9" stroke="rgb(178,178,0)" stroke-width="0.1"/>
  <path d="M 91.79653099999996,70.95393949999999 L 70.79653099999996,70.95393949999999" fill="none" instance-id="3" semantic-id="9" stroke="rgb(178,178,0)" stroke-width="0.1"/>
  <path d="M 13.796530999999987,70.95393949999999 L 0.0,70.95393949999999" fill="none" instance-id="1" semantic-id="9" stroke="rgb(178,178,0)" stroke-width="0.1"/>
  <path d="M 13.796530999999987,69.95393949999999 L 0.0,69.95393949999999" fill="none" instance-id="1" semantic-id="9" stroke="rgb(178,178,0)" stroke-width="0.1"/>
  <path d="M 13.796530999999987,68.95393949999999 L 0.0,68.95393949999999" fill="none" instance-id="1" semantic-id="9" stroke="rgb(178,178,0)" stroke-width="0.1"/>
 </g>
 <g id="layer柱填充" inkscape:groupmode="layer" inkscape:label="柱填充">
  <path d="M 19.796530999999987,70.95393949999999 L 25.79653099999996,70.95393949999999" fill="none" stroke="rgb(121,121,121)" stroke-width="0.1"/>
  <path d="M 25.79653099999996,70.95393949999999 L 25.79653099999996,64.95393949999999" fill="none" stroke="rgb(121,121,121)" stroke-width="0.1"/>
  <path d="M 25.79653099999996,64.95393949999999 L 19.796530999999987,64.95393949999999" fill="none" stroke="rgb(121,121,121)" stroke-width="0.1"/>
  <path d="M 19.796530999999987,64.95393949999999 L 19.796530999999987,70.95393949999999" fill="none" stroke="rgb(121,121,121)" stroke-width="0.1"/>
  <path d="M 97.79653099999996,70.95393949999999 L 100.0,70.95393949999999" fill="none" stroke="rgb(121,121,121)" stroke-width="0.1"/>
  <path d="M 100.0,64.95393949999999 L 97.79653099999996,64.95393949999999" fill="none" stroke="rgb(121,121,121)" stroke-width="0.1"/>
  <path d="M 97.79653099999996,64.95393949999999 L 97.79653099999996,70.95393949999999" fill="none" stroke="rgb(121,121,121)" stroke-width="0.1"/>
 </g>
 <g id="layer洁具" inkscape:groupmode="layer" inkscape:label="洁具">
  <path d="M 2.3965309999999818,100.0 L 2.3965309999999818,97.90383949999999" fill="none" instance-id="-1" semantic-id="34" stroke="rgb(178,0,0)" stroke-width="0.1"/>
  <path d="M 1.7215309999999704,97.9538395 L 0.0,97.9538395" fill="none" instance-id="-1" semantic-id="34" stroke="rgb(178,0,0)" stroke-width="0.1"/>
  <path d="M 3.3965309999999818,100.0 L 3.3965309999999818,99.70783949999999" fill="none" instance-id="-1" semantic-id="34" stroke="rgb(178,0,0)" stroke-width="0.1"/>
  <path d="M 2.3965309999999818,96.5038395 L 2.3965309999999818,91.90383949999999" fill="none" instance-id="-1" semantic-id="34" stroke="rgb(178,0,0)" stroke-width="0.1"/>
  <path d="M 1.7215309999999704,91.9538395 L 0.0,91.9538395" fill="none" instance-id="-1" semantic-id="34" stroke="rgb(178,0,0)" stroke-width="0.1"/>
  <path d="M 3.3965309999999818,94.6998395 L 3.3965309999999818,93.70783949999999" fill="none" instance-id="-1" semantic-id="34" stroke="rgb(178,0,0)" stroke-width="0.1"/>
  <path d="M 1.7215309999999704,96.4538395 L 0.0,96.4538395" fill="none" instance-id="-1" semantic-id="34" stroke="rgb(178,0,0)" stroke-width="0.1"/>
  <path d="M 2.3965309999999818,90.5038395 L 2.3965309999999818,85.90383949999999" fill="none" instance-id="-1" semantic-id="34" stroke="rgb(178,0,0)" stroke-width="0.1"/>
  <path d="M 1.7215309999999704,85.9538395 L 0.0,85.9538395" fill="none" instance-id="-1" semantic-id="34" stroke="rgb(178,0,0)" stroke-width="0.1"/>
  <path d="M 3.3965309999999818,88.6998395 L 3.3965309999999818,87.70783949999999" fill="none" instance-id="-1" semantic-id="34" stroke="rgb(178,0,0)" stroke-width="0.1"/>
  <path d="M 1.7215309999999704,90.4538395 L 0.0,90.4538395" fill="none" instance-id="-1" semantic-id="34" stroke="rgb(178,0,0)" stroke-width="0.1"/>
  <path d="M 9.796530999999987,100.0 L 9.796530999999987,98.6288395" fill="none" instance-id="-1" semantic-id="34" stroke="rgb(178,0,0)" stroke-width="0.1"/>
  <path d="M 13.396530999999982,100.0 L 13.396530999999982,97.90383949999999" fill="none" instance-id="-1" semantic-id="34" stroke="rgb(178,0,0)" stroke-width="0.1"/>
  <path d="M 12.72153099999997,97.9538395 L 10.47153099999997,97.9538395" fill="none" instance-id="-1" semantic-id="34" stroke="rgb(178,0,0)" stroke-width="0.1"/>
  <path d="M 14.396530999999982,100.0 L 14.396530999999982,99.70783949999999" fill="none" instance-id="-1" semantic-id="34" stroke="rgb(178,0,0)" stroke-width="0.1"/>
  <path d="M 9.796530999999987,95.77883949999999 L 9.796530999999987,92.6288395" fill="none" instance-id="-1" semantic-id="34" stroke="rgb(178,0,0)" stroke-width="0.1"/>
  <path d="M 13.396530999999982,96.5038395 L 13.396530999999982,91.90383949999999" fill="none" instance-id="-1" semantic-id="34" stroke="rgb(178,0,0)" stroke-width="0.1"/>
  <path d="M 12.72153099999997,91.9538395 L 10.47153099999997,91.9538395" fill="none" instance-id="-1" semantic-id="34" stroke="rgb(178,0,0)" stroke-width="0.1"/>
  <path d="M 14.396530999999982,94.6998395 L 14.396530999999982,93.70783949999999" fill="none" instance-id="-1" semantic-id="34" stroke="rgb(178,0,0)" stroke-width="0.1"/>
  <path d="M 12.72153099999997,96.4538395 L 10.47153099999997,96.4538395" fill="none" instance-id="-1" semantic-id="34" stroke="rgb(178,0,0)" stroke-width="0.1"/>
  <path d="M 9.796530999999987,89.77883949999999 L 9.796530999999987,86.6288395" fill="none" instance-id="-1" semantic-id="34" stroke="rgb(178,0,0)" stroke-width="0.1"/>
  <path d="M 13.396530999999982,90.5038395 L 13.396530999999982,85.90383949999999" fill="none" instance-id="-1" semantic-id="34" stroke="rgb(178,0,0)" stroke-width="0.1"/>
  <path d="M 12.72153099999997,85.9538395 L 10.47153099999997,85.9538395" fill="none" instance-id="-1" semantic-id="34" stroke="rgb(178,0,0)" stroke-width="0.1"/>
  <path d="M 14.396530999999982,88.6998395 L 14.396530999999982,87.70783949999999" fill="none" instance-id="-1" semantic-id="34" stroke="rgb(178,0,0)" stroke-width="0.1"/>
  <path d="M 12.72153099999997,90.4538395 L 10.47153099999997,90.4538395" fill="none" instance-id="-1" semantic-id="34" stroke="rgb(178,0,0)" stroke-width="0.1"/>
  <path d="M 20.796530999999987,100.0 L 20.796530999999987,98.6288395" fill="none" instance-id="-1" semantic-id="34" stroke="rgb(178,0,0)" stroke-width="0.1"/>
  <path d="M 24.39653099999998,100.0 L 24.39653099999998,97.90383949999999" fill="none" instance-id="-1" semantic-id="34" stroke="rgb(178,0,0)" stroke-width="0.1"/>
  <path d="M 23.72153099999997,97.9538395 L 21.47153099999997,97.9538395" fill="none" instance-id="-1" semantic-id="34" stroke="rgb(178,0,0)" stroke-width="0.1"/>
  <path d="M 25.39653099999998,100.0 L 25.39653099999998,99.70783949999999" fill="none" instance-id="-1" semantic-id="34" stroke="rgb(178,0,0)" stroke-width="0.1"/>
  <path d="M 20.796530999999987,95.77883949999999 L 20.796530999999987,92.6288395" fill="none" instance-id="-1" semantic-id="34" stroke="rgb(178,0,0)" stroke-width="0.1"/>
  <path d="M 24.39653099999998,96.5038395 L 24.39653099999998,91.90383949999999" fill="none" instance-id="-1" semantic-id="34" stroke="rgb(178,0,0)" stroke-width="0.1"/>
  <path d="M 23.72153099999997,91.9538395 L 21.47153099999997,91.9538395" fill="none" instance-id="-1" semantic-id="34" stroke="rgb(178,0,0)" stroke-width="0.1"/>
  <path d="M 25.39653099999998,94.6998395 L 25.39653099999998,93.70783949999999" fill="none" instance-id="-1" semantic-id="34" stroke="rgb(178,0,0)" stroke-width="0.1"/>
  <path d="M 23.72153099999997,96.4538395 L 21.47153099999997,96.4538395" fill="none" instance-id="-1" semantic-id="34" stroke="rgb(178,0,0)" stroke-width="0.1"/>
  <path d="M 20.796530999999987,89.77883949999999 L 20.796530999999987,86.6288395" fill="none" instance-id="-1" semantic-id="34" stroke="rgb(178,0,0)" stroke-width="0.1"/>
  <path d="M 24.39653099999998,90.5038395 L 24.39653099999998,85.90383949999999" fill="none" instance-id="-1" semantic-id="34" stroke="rgb(178,0,0)" stroke-width="0.1"/>
  <path d="M 23.72153099999997,85.9538395 L 21.47153099999997,85.9538395" fill="none" instance-id="-1" semantic-id="34" stroke="rgb(178,0,0)" stroke-width="0.1"/>
  <path d="M 25.39653099999998,88.6998395 L 25.39653099999998,87.70783949999999" fill="none" instance-id="-1" semantic-id="34" stroke="rgb(178,0,0)" stroke-width="0.1"/>
  <path d="M 23.72153099999997,90.4538395 L 21.47153099999997,90.4538395" fill="none" instance-id="-1" semantic-id="34" stroke="rgb(178,0,0)" stroke-width="0.1"/>
  <path d="M 31.79653099999996,100.0 L 31.79653099999996,98.6288395" fill="none" instance-id="-1" semantic-id="34" stroke="rgb(178,0,0)" stroke-width="0.1"/>
  <path d="M 35.39653099999998,100.0 L 35.39653099999998,97.90383949999999" fill="none" instance-id="-1" semantic-id="34" stroke="rgb(178,0,0)" stroke-width="0.1"/>
  <path d="M 34.72153099999997,97.9538395 L 32.47153099999997,97.9538395" fill="none" instance-id="-1" semantic-id="34" stroke="rgb(178,0,0)" stroke-width="0.1"/>
  <path d="M 36.39653099999998,100.0 L 36.39653099999998,99.70783949999999" fill="none" instance-id="-1" semantic-id="34" stroke="rgb(178,0,0)" stroke-width="0.1"/>
  <path d="M 31.79653099999996,95.77883949999999 L 31.79653099999996,92.6288395" fill="none" instance-id="-1" semantic-id="34" stroke="rgb(178,0,0)" stroke-width="0.1"/>
  <path d="M 35.39653099999998,96.5038395 L 35.39653099999998,91.90383949999999" fill="none" instance-id="-1" semantic-id="34" stroke="rgb(178,0,0)" stroke-width="0.1"/>
  <path d="M 34.72153099999997,91.9538395 L 32.47153099999997,91.9538395" fill="none" instance-id="-1" semantic-id="34" stroke="rgb(178,0,0)" stroke-width="0.1"/>
  <path d="M 36.39653099999998,94.6998395 L 36.39653099999998,93.70783949999999" fill="none" instance-id="-1" semantic-id="34" stroke="rgb(178,0,0)" stroke-width="0.1"/>
  <path d="M 34.72153099999997,96.4538395 L 32.47153099999997,96.4538395" fill="none" instance-id="-1" semantic-id="34" stroke="rgb(178,0,0)" stroke-width="0.1"/>
  <path d="M 31.79653099999996,89.77883949999999 L 31.79653099999996,86.6288395" fill="none" instance-id="-1" semantic-id="34" stroke="rgb(178,0,0)" stroke-width="0.1"/>
  <path d="M 35.39653099999998,90.5038395 L 35.39653099999998,85.90383949999999" fill="none" instance-id="-1" semantic-id="34" stroke="rgb(178,0,0)" stroke-width="0.1"/>
  <path d="M 34.72153099999997,85.9538395 L 32.47153099999997,85.9538395" fill="none" instance-id="-1" semantic-id="34" stroke="rgb(178,0,0)" stroke-width="0.1"/>
  <path d="M 36.39653099999998,88.6998395 L 36.39653099999998,87.70783949999999" fill="none" instance-id="-1" semantic-id="34" stroke="rgb(178,0,0)" stroke-width="0.1"/>
  <path d="M 34.72153099999997,90.4538395 L 32.47153099999997,90.4538395" fill="none" instance-id="-1" semantic-id="34" stroke="rgb(178,0,0)" stroke-width="0.1"/>
  <path d="M 42.79653099999996,100.0 L 42.79653099999996,98.6288395" fill="none" instance-id="-1" semantic-id="34" stroke="rgb(178,0,0)" stroke-width="0.1"/>
  <path d="M 46.39653099999998,100.0 L 46.39653099999998,97.90383949999999" fill="none" instance-id="-1" semantic-id="34" stroke="rgb(178,0,0)" stroke-width="0.1"/>
  <path d="M 45.72153099999997,97.9538395 L 43.47153099999997,97.9538395" fill="none" instance-id="-1" semantic-id="34" stroke="rgb(178,0,0)" stroke-width="0.1"/>
  <path d="M 47.39653099999998,100.0 L 47.39653099999998,99.70783949999999" fill="none" instance-id="-1" semantic-id="34" stroke="rgb(178,0,0)" stroke-width="0.1"/>
  <path d="M 42.79653099999996,95.77883949999999 L 42.79653099999996,92.6288395" fill="none" instance-id="-1" semantic-id="34" stroke="rgb(178,0,0)" stroke-width="0.1"/>
  <path d="M 46.39653099999998,96.5038395 L 46.39653099999998,91.90383949999999" fill="none" instance-id="-1" semantic-id="34" stroke="rgb(178,0,0)" stroke-width="0.1"/>
  <path d="M 45.72153099999997,91.9538395 L 43.47153099999997,91.9538395" fill="none" instance-id="-1" semantic-id="34" stroke="rgb(178,0,0)" stroke-width="0.1"/>
  <path d="M 47.39653099999998,94.6998395 L 47.39653099999998,93.70783949999999" fill="none" instance-id="-1" semantic-id="34" stroke="rgb(178,0,0)" stroke-width="0.1"/>
  <path d="M 45.72153099999997,96.4538395 L 43.47153099999997,96.4538395" fill="none" instance-id="-1" semantic-id="34" stroke="rgb(178,0,0)" stroke-width="0.1"/>
  <path d="M 42.79653099999996,89.77883949999999 L 42.79653099999996,86.6288395" fill="none" instance-id="-1" semantic-id="34" stroke="rgb(178,0,0)" stroke-width="0.1"/>
  <path d="M 46.39653099999998,90.5038395 L 46.39653099999998,85.90383949999999" fill="none" instance-id="-1" semantic-id="34" stroke="rgb(178,0,0)" stroke-width="0.1"/>
  <path d="M 45.72153099999997,85.9538395 L 43.47153099999997,85.9538395" fill="none" instance-id="-1" semantic-id="34" stroke="rgb(178,0,0)" stroke-width="0.1"/>
  <path d="M 47.39653099999998,88.6998395 L 47.39653099999998,87.70783949999999" fill="none" instance-id="-1" semantic-id="34" stroke="rgb(178,0,0)" stroke-width="0.1"/>
  <path d="M 45.72153099999997,90.4538395 L 43.47153099999997,90.4538395" fill="none" instance-id="-1" semantic-id="34" stroke="rgb(178,0,0)" stroke-width="0.1"/>
  <path d="M 53.79653099999996,100.0 L 53.79653099999996,98.6288395" fill="none" instance-id="-1" semantic-id="34" stroke="rgb(178,0,0)" stroke-width="0.1"/>
  <path d="M 57.39653099999998,100.0 L 57.39653099999998,97.90383949999999" fill="none" instance-id="-1" semantic-id="34" stroke="rgb(178,0,0)" stroke-width="0.1"/>
  <path d="M 56.72153099999997,97.9538395 L 54.47153099999997,97.9538395" fill="none" instance-id="-1" semantic-id="34" stroke="rgb(178,0,0)" stroke-width="0.1"/>
  <path d="M 58.39653099999998,100.0 L 58.39653099999998,99.70783949999999" fill="none" instance-id="-1" semantic-id="34" stroke="rgb(178,0,0)" stroke-width="0.1"/>
  <path d="M 53.79653099999996,95.77883949999999 L 53.79653099999996,92.6288395" fill="none" instance-id="-1" semantic-id="34" stroke="rgb(178,0,0)" stroke-width="0.1"/>
  <path d="M 57.39653099999998,96.5038395 L 57.39653099999998,91.90383949999999" fill="none" instance-id="-1" semantic-id="34" stroke="rgb(178,0,0)" stroke-width="0.1"/>
  <path d="M 56.72153099999997,91.9538395 L 54.47153099999997,91.9538395" fill="none" instance-id="-1" semantic-id="34" stroke="rgb(178,0,0)" stroke-width="0.1"/>
  <path d="M 58.39653099999998,94.6998395 L 58.39653099999998,93.70783949999999" fill="none" instance-id="-1" semantic-id="34" stroke="rgb(178,0,0)" stroke-width="0.1"/>
  <path d="M 56.72153099999997,96.4538395 L 54.47153099999997,96.4538395" fill="none" instance-id="-1" semantic-id="34" stroke="rgb(178,0,0)" stroke-width="0.1"/>
  <path d="M 53.79653099999996,89.77883949999999 L 53.79653099999996,86.6288395" fill="none" instance-id="-1" semantic-id="34" stroke="rgb(178,0,0)" stroke-width="0.1"/>
  <path d="M 57.39653099999998,90.5038395 L 57.39653099999998,85.90383949999999" fill="none" instance-id="-1" semantic-id="34" stroke="rgb(178,0,0)" stroke-width="0.1"/>
  <path d="M 56.72153099999997,85.9538395 L 54.47153099999997,85.9538395" fill="none" instance-id="-1" semantic-id="34" stroke="rgb(178,0,0)" stroke-width="0.1"/>
  <path d="M 58.39653099999998,88.6998395 L 58.39653099999998,87.70783949999999" fill="none" instance-id="-1" semantic-id="34" stroke="rgb(178,0,0)" stroke-width="0.1"/>
  <path d="M 56.72153099999997,90.4538395 L 54.47153099999997,90.4538395" fill="none" instance-id="-1" semantic-id="34" stroke="rgb(178,0,0)" stroke-width="0.1"/>
  <path d="M 64.79653099999996,100.0 L 64.79653099999996,98.6288395" fill="none" instance-id="-1" semantic-id="34" stroke="rgb(178,0,0)" stroke-width="0.1"/>
  <path d="M 68.39653099999998,100.0 L 68.39653099999998,97.90383949999999" fill="none" instance-id="-1" semantic-id="34" stroke="rgb(178,0,0)" stroke-width="0.1"/>
  <path d="M 67.72153099999997,97.9538395 L 65.47153099999997,97.9538395" fill="none" instance-id="-1" semantic-id="34" stroke="rgb(178,0,0)" stroke-width="0.1"/>
  <path d="M 69.39653099999998,100.0 L 69.39653099999998,99.70783949999999" fill="none" instance-id="-1" semantic-id="34" stroke="rgb(178,0,0)" stroke-width="0.1"/>
  <path d="M 64.79653099999996,95.77883949999999 L 64.79653099999996,92.6288395" fill="none" instance-id="-1" semantic-id="34" stroke="rgb(178,0,0)" stroke-width="0.1"/>
  <path d="M 68.39653099999998,96.5038395 L 68.39653099999998,91.90383949999999" fill="none" instance-id="-1" semantic-id="34" stroke="rgb(178,0,0)" stroke-width="0.1"/>
  <path d="M 67.72153099999997,91.9538395 L 65.47153099999997,91.9538395" fill="none" instance-id="-1" semantic-id="34" stroke="rgb(178,0,0)" stroke-width="0.1"/>
  <path d="M 69.39653099999998,94.6998395 L 69.39653099999998,93.70783949999999" fill="none" instance-id="-1" semantic-id="34" stroke="rgb(178,0,0)" stroke-width="0.1"/>
  <path d="M 67.72153099999997,96.4538395 L 65.47153099999997,96.4538395" fill="none" instance-id="-1" semantic-id="34" stroke="rgb(178,0,0)" stroke-width="0.1"/>
  <path d="M 64.79653099999996,89.77883949999999 L 64.79653099999996,86.6288395" fill="none" instance-id="-1" semantic-id="34" stroke="rgb(178,0,0)" stroke-width="0.1"/>
  <path d="M 68.39653099999998,90.5038395 L 68.39653099999998,85.90383949999999" fill="none" instance-id="-1" semantic-id="34" stroke="rgb(178,0,0)" stroke-width="0.1"/>
  <path d="M 67.72153099999997,85.9538395 L 65.47153099999997,85.9538395" fill="none" instance-id="-1" semantic-id="34" stroke="rgb(178,0,0)" stroke-width="0.1"/>
  <path d="M 69.39653099999998,88.6998395 L 69.39653099999998,87.70783949999999" fill="none" instance-id="-1" semantic-id="34" stroke="rgb(178,0,0)" stroke-width="0.1"/>
  <path d="M 67.72153099999997,90.4538395 L 65.47153099999997,90.4538395" fill="none" instance-id="-1" semantic-id="34" stroke="rgb(178,0,0)" stroke-width="0.1"/>
  <path d="M 75.79653099999996,100.0 L 75.79653099999996,98.6288395" fill="none" instance-id="-1" semantic-id="34" stroke="rgb(178,0,0)" stroke-width="0.1"/>
  <path d="M 79.39653099999998,100.0 L 79.39653099999998,97.90383949999999" fill="none" instance-id="-1" semantic-id="34" stroke="rgb(178,0,0)" stroke-width="0.1"/>
  <path d="M 78.72153099999997,97.9538395 L 76.47153099999997,97.9538395" fill="none" instance-id="-1" semantic-id="34" stroke="rgb(178,0,0)" stroke-width="0.1"/>
  <path d="M 80.39653099999998,100.0 L 80.39653099999998,99.70783949999999" fill="none" instance-id="-1" semantic-id="34" stroke="rgb(178,0,0)" stroke-width="0.1"/>
  <path d="M 75.79653099999996,95.77883949999999 L 75.79653099999996,92.6288395" fill="none" instance-id="-1" semantic-id="34" stroke="rgb(178,0,0)" stroke-width="0.1"/>
  <path d="M 79.39653099999998,96.5038395 L 79.39653099999998,91.90383949999999" fill="none" instance-id="-1" semantic-id="34" stroke="rgb(178,0,0)" stroke-width="0.1"/>
  <path d="M 78.72153099999997,91.9538395 L 76.47153099999997,91.9538395" fill="none" instance-id="-1" semantic-id="34" stroke="rgb(178,0,0)" stroke-width="0.1"/>
  <path d="M 80.39653099999998,94.6998395 L 80.39653099999998,93.70783949999999" fill="none" instance-id="-1" semantic-id="34" stroke="rgb(178,0,0)" stroke-width="0.1"/>
  <path d="M 78.72153099999997,96.4538395 L 76.47153099999997,96.4538395" fill="none" instance-id="-1" semantic-id="34" stroke="rgb(178,0,0)" stroke-width="0.1"/>
  <path d="M 75.79653099999996,89.77883949999999 L 75.79653099999996,86.6288395" fill="none" instance-id="-1" semantic-id="34" stroke="rgb(178,0,0)" stroke-width="0.1"/>
  <path d="M 79.39653099999998,90.5038395 L 79.39653099999998,85.90383949999999" fill="none" instance-id="-1" semantic-id="34" stroke="rgb(178,0,0)" stroke-width="0.1"/>
  <path d="M 78.72153099999997,85.9538395 L 76.47153099999997,85.9538395" fill="none" instance-id="-1" semantic-id="34" stroke="rgb(178,0,0)" stroke-width="0.1"/>
  <path d="M 80.39653099999998,88.6998395 L 80.39653099999998,87.70783949999999" fill="none" instance-id="-1" semantic-id="34" stroke="rgb(178,0,0)" stroke-width="0.1"/>
  <path d="M 78.72153099999997,90.4538395 L 76.47153099999997,90.4538395" fill="none" instance-id="-1" semantic-id="34" stroke="rgb(178,0,0)" stroke-width="0.1"/>
  <path d="M 86.79653099999996,100.0 L 86.79653099999996,98.6288395" fill="none" instance-id="-1" semantic-id="34" stroke="rgb(178,0,0)" stroke-width="0.1"/>
  <path d="M 90.39653099999998,100.0 L 90.39653099999998,97.90383949999999" fill="none" instance-id="-1" semantic-id="34" stroke="rgb(178,0,0)" stroke-width="0.1"/>
  <path d="M 89.72153099999997,97.9538395 L 87.47153099999997,97.9538395" fill="none" instance-id="-1" semantic-id="34" stroke="rgb(178,0,0)" stroke-width="0.1"/>
  <path d="M 91.39653099999998,100.0 L 91.39653099999998,99.70783949999999" fill="none" instance-id="-1" semantic-id="34" stroke="rgb(178,0,0)" stroke-width="0.1"/>
  <path d="M 86.79653099999996,95.77883949999999 L 86.79653099999996,92.6288395" fill="none" instance-id="-1" semantic-id="34" stroke="rgb(178,0,0)" stroke-width="0.1"/>
  <path d="M 90.39653099999998,96.5038395 L 90.39653099999998,91.90383949999999" fill="none" instance-id="-1" semantic-id="34" stroke="rgb(178,0,0)" stroke-width="0.1"/>
  <path d="M 89.72153099999997,91.9538395 L 87.47153099999997,91.9538395" fill="none" instance-id="-1" semantic-id="34" stroke="rgb(178,0,0)" stroke-width="0.1"/>
  <path d="M 91.39653099999998,94.6998395 L 91.39653099999998,93.70783949999999" fill="none" instance-id="-1" semantic-id="34" stroke="rgb(178,0,0)" stroke-width="0.1"/>
  <path d="M 89.72153099999997,96.4538395 L 87.47153099999997,96.4538395" fill="none" instance-id="-1" semantic-id="34" stroke="rgb(178,0,0)" stroke-width="0.1"/>
  <path d="M 86.79653099999996,89.77883949999999 L 86.79653099999996,86.6288395" fill="none" instance-id="-1" semantic-id="34" stroke="rgb(178,0,0)" stroke-width="0.1"/>
  <path d="M 90.39653099999998,90.5038395 L 90.39653099999998,85.90383949999999" fill="none" instance-id="-1" semantic-id="34" stroke="rgb(178,0,0)" stroke-width="0.1"/>
  <path d="M 89.72153099999997,85.9538395 L 87.47153099999997,85.9538395" fill="none" instance-id="-1" semantic-id="34" stroke="rgb(178,0,0)" stroke-width="0.1"/>
  <path d="M 91.39653099999998,88.6998395 L 91.39653099999998,87.70783949999999" fill="none" instance-id="-1" semantic-id="34" stroke="rgb(178,0,0)" stroke-width="0.1"/>
  <path d="M 89.72153099999997,90.4538395 L 87.47153099999997,90.4538395" fill="none" instance-id="-1" semantic-id="34" stroke="rgb(178,0,0)" stroke-width="0.1"/>
  <path d="M 97.79653099999996,100.0 L 97.79653099999996,98.6288395" fill="none" instance-id="-1" semantic-id="34" stroke="rgb(178,0,0)" stroke-width="0.1"/>
  <path d="M 100.0,97.9538395 L 98.47153099999997,97.9538395" fill="none" instance-id="-1" semantic-id="34" stroke="rgb(178,0,0)" stroke-width="0.1"/>
  <path d="M 97.79653099999996,95.77883949999999 L 97.79653099999996,92.6288395" fill="none" instance-id="-1" semantic-id="34" stroke="rgb(178,0,0)" stroke-width="0.1"/>
  <path d="M 100.0,91.9538395 L 98.47153099999997,91.9538395" fill="none" instance-id="-1" semantic-id="34" stroke="rgb(178,0,0)" stroke-width="0.1"/>
  <path d="M 100.0,96.4538395 L 98.47153099999997,96.4538395" fill="none" instance-id="-1" semantic-id="34" stroke="rgb(178,0,0)" stroke-width="0.1"/>
  <path d="M 97.79653099999996,89.77883949999999 L 97.79653099999996,86.6288395" fill="none" instance-id="-1" semantic-id="34" stroke="rgb(178,0,0)" stroke-width="0.1"/>
  <path d="M 100.0,85.9538395 L 98.47153099999997,85.9538395" fill="none" instance-id="-1" semantic-id="34" stroke="rgb(178,0,0)" stroke-width="0.1"/>
  <path d="M 100.0,90.4538395 L 98.47153099999997,90.4538395" fill="none" instance-id="-1" semantic-id="34" stroke="rgb(178,0,0)" stroke-width="0.1"/>
  <path d="M 3.3965309999999818,99.70783949999999 A 3.1559,3.1559 0.0 0,0 2.6335309999999765,97.7468395" fill="none" instance-id="-1" semantic-id="34" stroke="rgb(178,0,0)" stroke-width="0.1"/>
  <path d="M 2.743696898589917,99.9309137001064 L 2.732673590578173,99.38417321425383" fill="none" instance-id="-1" semantic-id="34" stroke="rgb(178,0,0)" stroke-width="0.1"/>
  <path d="M 2.732673590578173,99.38417321425383 L 2.710631454172699,98.83776602505102" fill="none" instance-id="-1" semantic-id="34" stroke="rgb(178,0,0)" stroke-width="0.1"/>
  <path d="M 2.710631454172699,98.83776602505102 L 2.677579446788968,98.29191417976904" fill="none" instance-id="-1" semantic-id="34" stroke="rgb(178,0,0)" stroke-width="0.1"/>
  <path d="M 2.677579446788968,98.29191417976904 L 2.6335309999999765,97.7468395" fill="none" instance-id="-1" semantic-id="34" stroke="rgb(178,0,0)" stroke-width="0.1"/>
  <path d="M 2.3965309999999818,98.6288395 A 0.675,0.675 0.0 0,0 1.7215309999999704,97.9538395" fill="none" instance-id="-1" semantic-id="34" stroke="rgb(178,0,0)" stroke-width="0.1"/>
  <path d="M 2.5185309999999674,97.71983949999999 A 0.2,0.2 0.0 0,0 2.3965309999999818,97.90383949999999" fill="none" instance-id="-1" semantic-id="34" stroke="rgb(178,0,0)" stroke-width="0.1"/>
  <path d="M 2.6335309999999765,97.7468395 A 0.1,0.1 0.0 0,0 2.5185309999999674,97.71983949999999" fill="none" stroke="rgb(178,0,0)" stroke-width="0.1"/>
  <path d="M 3.3965309999999818,93.70783949999999 A 3.1559,3.1559 0.0 0,0 2.6335309999999765,91.7468395" fill="none" instance-id="-1" semantic-id="34" stroke="rgb(178,0,0)" stroke-width="0.1"/>
  <path d="M 2.6335309999999765,96.6618395 A 27.1272,27.1272 0.0 0,0 2.6335309999999765,91.7468395" fill="none" instance-id="-1" semantic-id="34" stroke="rgb(178,0,0)" stroke-width="0.1"/>
  <path d="M 2.3965309999999818,92.6288395 A 0.675,0.675 0.0 0,0 1.7215309999999704,91.9538395" fill="none" instance-id="-1" semantic-id="34" stroke="rgb(178,0,0)" stroke-width="0.1"/>
  <path d="M 2.5185309999999674,91.71983949999999 A 0.2,0.2 0.0 0,0 2.3965309999999818,91.90383949999999" fill="none" instance-id="-1" semantic-id="34" stroke="rgb(178,0,0)" stroke-width="0.1"/>
  <path d="M 2.6335309999999765,91.7468395 A 0.1,0.1 0.0 0,0 2.5185309999999674,91.71983949999999" fill="none" stroke="rgb(178,0,0)" stroke-width="0.1"/>
  <path d="M 2.6335309999999765,96.6618395 A 3.1559,3.1559 0.0 0,0 3.3965309999999818,94.6998395" fill="none" instance-id="-1" semantic-id="34" stroke="rgb(178,0,0)" stroke-width="0.1"/>
  <path d="M 2.3965309999999818,96.5038395 A 0.2,0.2 0.0 0,0 2.5185309999999674,96.6888395" fill="none" instance-id="-1" semantic-id="34" stroke="rgb(178,0,0)" stroke-width="0.1"/>
  <path d="M 1.7215309999999704,96.4538395 A 0.675,0.675 0.0 0,0 2.3965309999999818,95.77883949999999" fill="none" instance-id="-1" semantic-id="34" stroke="rgb(178,0,0)" stroke-width="0.1"/>
  <path d="M 2.5185309999999674,96.6888395 A 0.1,0.1 0.0 0,0 2.6335309999999765,96.6618395" fill="none" stroke="rgb(178,0,0)" stroke-width="0.1"/>
  <path d="M 3.3965309999999818,87.70783949999999 A 3.1559,3.1559 0.0 0,0 2.6335309999999765,85.7468395" fill="none" instance-id="-1" semantic-id="34" stroke="rgb(178,0,0)" stroke-width="0.1"/>
  <path d="M 2.6335309999999765,90.6618395 A 27.1272,27.1272 0.0 0,0 2.6335309999999765,85.7468395" fill="none" instance-id="-1" semantic-id="34" stroke="rgb(178,0,0)" stroke-width="0.1"/>
  <path d="M 2.3965309999999818,86.6288395 A 0.675,0.675 0.0 0,0 1.7215309999999704,85.9538395" fill="none" instance-id="-1" semantic-id="34" stroke="rgb(178,0,0)" stroke-width="0.1"/>
  <path d="M 2.5185309999999674,85.71983949999999 A 0.2,0.2 0.0 0,0 2.3965309999999818,85.90383949999999" fill="none" instance-id="-1" semantic-id="34" stroke="rgb(178,0,0)" stroke-width="0.1"/>
  <path d="M 2.6335309999999765,85.7468395 A 0.1,0.1 0.0 0,0 2.5185309999999674,85.71983949999999" fill="none" stroke="rgb(178,0,0)" stroke-width="0.1"/>
  <path d="M 2.6335309999999765,90.6618395 A 3.1559,3.1559 0.0 0,0 3.3965309999999818,88.6998395" fill="none" instance-id="-1" semantic-id="34" stroke="rgb(178,0,0)" stroke-width="0.1"/>
  <path d="M 2.3965309999999818,90.5038395 A 0.2,0.2 0.0 0,0 2.5185309999999674,90.6888395" fill="none" instance-id="-1" semantic-id="34" stroke="rgb(178,0,0)" stroke-width="0.1"/>
  <path d="M 1.7215309999999704,90.4538395 A 0.675,0.675 0.0 0,0 2.3965309999999818,89.77883949999999" fill="none" instance-id="-1" semantic-id="34" stroke="rgb(178,0,0)" stroke-width="0.1"/>
  <path d="M 2.5185309999999674,90.6888395 A 0.1,0.1 0.0 0,0 2.6335309999999765,90.6618395" fill="none" stroke="rgb(178,0,0)" stroke-width="0.1"/>
  <path d="M 14.396530999999982,99.70783949999999 A 3.1559,3.1559 0.0 0,0 13.633530999999977,97.7468395" fill="none" instance-id="-1" semantic-id="34" stroke="rgb(178,0,0)" stroke-width="0.1"/>
  <path d="M 13.743696898589917,99.9309137001064 L 13.732673590578173,99.38417321425383" fill="none" instance-id="-1" semantic-id="34" stroke="rgb(178,0,0)" stroke-width="0.1"/>
  <path d="M 13.732673590578173,99.38417321425383 L 13.710631454172699,98.83776602505102" fill="none" instance-id="-1" semantic-id="34" stroke="rgb(178,0,0)" stroke-width="0.1"/>
  <path d="M 13.710631454172699,98.83776602505102 L 13.677579446788968,98.29191417976904" fill="none" instance-id="-1" semantic-id="34" stroke="rgb(178,0,0)" stroke-width="0.1"/>
  <path d="M 13.677579446788968,98.29191417976904 L 13.633530999999977,97.7468395" fill="none" instance-id="-1" semantic-id="34" stroke="rgb(178,0,0)" stroke-width="0.1"/>
  <path d="M 13.396530999999982,98.6288395 A 0.675,0.675 0.0 0,0 12.72153099999997,97.9538395" fill="none" instance-id="-1" semantic-id="34" stroke="rgb(178,0,0)" stroke-width="0.1"/>
  <path d="M 13.518530999999967,97.71983949999999 A 0.2,0.2 0.0 0,0 13.396530999999982,97.90383949999999" fill="none" instance-id="-1" semantic-id="34" stroke="rgb(178,0,0)" stroke-width="0.1"/>
  <path d="M 13.633530999999977,97.7468395 A 0.1,0.1 0.0 0,0 13.518530999999967,97.71983949999999" fill="none" stroke="rgb(178,0,0)" stroke-width="0.1"/>
  <path d="M 10.47153099999997,97.9538395 A 0.675,0.675 0.0 0,0 9.796530999999987,98.6288395" fill="none" instance-id="-1" semantic-id="34" stroke="rgb(178,0,0)" stroke-width="0.1"/>
  <path d="M 14.396530999999982,93.70783949999999 A 3.1559,3.1559 0.0 0,0 13.633530999999977,91.7468395" fill="none" instance-id="-1" semantic-id="34" stroke="rgb(178,0,0)" stroke-width="0.1"/>
  <path d="M 13.633530999999977,96.6618395 A 27.1272,27.1272 0.0 0,0 13.633530999999977,91.7468395" fill="none" instance-id="-1" semantic-id="34" stroke="rgb(178,0,0)" stroke-width="0.1"/>
  <path d="M 13.396530999999982,92.6288395 A 0.675,0.675 0.0 0,0 12.72153099999997,91.9538395" fill="none" instance-id="-1" semantic-id="34" stroke="rgb(178,0,0)" stroke-width="0.1"/>
  <path d="M 13.518530999999967,91.71983949999999 A 0.2,0.2 0.0 0,0 13.396530999999982,91.90383949999999" fill="none" instance-id="-1" semantic-id="34" stroke="rgb(178,0,0)" stroke-width="0.1"/>
  <path d="M 13.633530999999977,91.7468395 A 0.1,0.1 0.0 0,0 13.518530999999967,91.71983949999999" fill="none" stroke="rgb(178,0,0)" stroke-width="0.1"/>
  <path d="M 10.47153099999997,91.9538395 A 0.675,0.675 0.0 0,0 9.796530999999987,92.6288395" fill="none" instance-id="-1" semantic-id="34" stroke="rgb(178,0,0)" stroke-width="0.1"/>
  <path d="M 13.633530999999977,96.6618395 A 3.1559,3.1559 0.0 0,0 14.396530999999982,94.6998395" fill="none" instance-id="-1" semantic-id="34" stroke="rgb(178,0,0)" stroke-width="0.1"/>
  <path d="M 13.396530999999982,96.5038395 A 0.2,0.2 0.0 0,0 13.518530999999967,96.6888395" fill="none" instance-id="-1" semantic-id="34" stroke="rgb(178,0,0)" stroke-width="0.1"/>
  <path d="M 12.72153099999997,96.4538395 A 0.675,0.675 0.0 0,0 13.396530999999982,95.77883949999999" fill="none" instance-id="-1" semantic-id="34" stroke="rgb(178,0,0)" stroke-width="0.1"/>
  <path d="M 13.518530999999967,96.6888395 A 0.1,0.1 0.0 0,0 13.633530999999977,96.6618395" fill="none" stroke="rgb(178,0,0)" stroke-width="0.1"/>
  <path d="M 9.796530999999987,95.77883949999999 A 0.675,0.675 0.0 0,0 10.47153099999997,96.4538395" fill="none" instance-id="-1" semantic-id="34" stroke="rgb(178,0,0)" stroke-width="0.1"/>
  <path d="M 14.396530999999982,87.70783949999999 A 3.1559,3.1559 0.0 0,0 13.633530999999977,85.7468395" fill="none" instance-id="-1" semantic-id="34" stroke="rgb(178,0,0)" stroke-width="0.1"/>
  <path d="M 13.633530999999977,90.6618395 A 27.1272,27.1272 0.0 0,0 13.633530999999977,85.7468395" fill="none" instance-id="-1" semantic-id="34" stroke="rgb(178,0,0)" stroke-width="0.1"/>
  <path d="M 13.396530999999982,86.6288395 A 0.675,0.675 0.0 0,0 12.72153099999997,85.9538395" fill="none" instance-id="-1" semantic-id="34" stroke="rgb(178,0,0)" stroke-width="0.1"/>
  <path d="M 13.518530999999967,85.71983949999999 A 0.2,0.2 0.0 0,0 13.396530999999982,85.90383949999999" fill="none" instance-id="-1" semantic-id="34" stroke="rgb(178,0,0)" stroke-width="0.1"/>
  <path d="M 13.633530999999977,85.7468395 A 0.1,0.1 0.0 0,0 13.518530999999967,85.71983949999999" fill="none" stroke="rgb(178,0,0)" stroke-width="0.1"/>
  <path d="M 10.47153099999997,85.9538395 A 0.675,0.675 0.0 0,0 9.796530999999987,86.6288395" fill="none" instance-id="-1" semantic-id="34" stroke="rgb(178,0,0)" stroke-width="0.1"/>
  <path d="M 13.633530999999977,90.6618395 A 3.1559,3.1559 0.0 0,0 14.396530999999982,88.6998395" fill="none" instance-id="-1" semantic-id="34" stroke="rgb(178,0,0)" stroke-width="0.1"/>
  <path d="M 13.396530999999982,90.5038395 A 0.2,0.2 0.0 0,0 13.518530999999967,90.6888395" fill="none" instance-id="-1" semantic-id="34" stroke="rgb(178,0,0)" stroke-width="0.1"/>
  <path d="M 12.72153099999997,90.4538395 A 0.675,0.675 0.0 0,0 13.396530999999982,89.77883949999999" fill="none" instance-id="-1" semantic-id="34" stroke="rgb(178,0,0)" stroke-width="0.1"/>
  <path d="M 13.518530999999967,90.6888395 A 0.1,0.1 0.0 0,0 13.633530999999977,90.6618395" fill="none" stroke="rgb(178,0,0)" stroke-width="0.1"/>
  <path d="M 9.796530999999987,89.77883949999999 A 0.675,0.675 0.0 0,0 10.47153099999997,90.4538395" fill="none" instance-id="-1" semantic-id="34" stroke="rgb(178,0,0)" stroke-width="0.1"/>
  <path d="M 25.39653099999998,99.70783949999999 A 3.1559,3.1559 0.0 0,0 24.633531000000005,97.7468395" fill="none" instance-id="-1" semantic-id="34" stroke="rgb(178,0,0)" stroke-width="0.1"/>
  <path d="M 24.743696898589917,99.9309137001064 L 24.7326735905782,99.38417321425383" fill="none" instance-id="-1" semantic-id="34" stroke="rgb(178,0,0)" stroke-width="0.1"/>
  <path d="M 24.7326735905782,99.38417321425383 L 24.7106314541727,98.83776602505102" fill="none" instance-id="-1" semantic-id="34" stroke="rgb(178,0,0)" stroke-width="0.1"/>
  <path d="M 24.7106314541727,98.83776602505102 L 24.677579446788968,98.29191417976904" fill="none" instance-id="-1" semantic-id="34" stroke="rgb(178,0,0)" stroke-width="0.1"/>
  <path d="M 24.677579446788968,98.29191417976904 L 24.633531000000005,97.7468395" fill="none" instance-id="-1" semantic-id="34" stroke="rgb(178,0,0)" stroke-width="0.1"/>
  <path d="M 24.39653099999998,98.6288395 A 0.675,0.675 0.0 0,0 23.72153099999997,97.9538395" fill="none" instance-id="-1" semantic-id="34" stroke="rgb(178,0,0)" stroke-width="0.1"/>
  <path d="M 24.518530999999996,97.71983949999999 A 0.2,0.2 0.0 0,0 24.39653099999998,97.90383949999999" fill="none" instance-id="-1" semantic-id="34" stroke="rgb(178,0,0)" stroke-width="0.1"/>
  <path d="M 24.633531000000005,97.7468395 A 0.1,0.1 0.0 0,0 24.518530999999996,97.71983949999999" fill="none" stroke="rgb(178,0,0)" stroke-width="0.1"/>
  <path d="M 21.47153099999997,97.9538395 A 0.675,0.675 0.0 0,0 20.796530999999987,98.6288395" fill="none" instance-id="-1" semantic-id="34" stroke="rgb(178,0,0)" stroke-width="0.1"/>
  <path d="M 25.39653099999998,93.70783949999999 A 3.1559,3.1559 0.0 0,0 24.633531000000005,91.7468395" fill="none" instance-id="-1" semantic-id="34" stroke="rgb(178,0,0)" stroke-width="0.1"/>
  <path d="M 24.633531000000005,96.6618395 A 27.1272,27.1272 0.0 0,0 24.633531000000005,91.7468395" fill="none" instance-id="-1" semantic-id="34" stroke="rgb(178,0,0)" stroke-width="0.1"/>
  <path d="M 24.39653099999998,92.6288395 A 0.675,0.675 0.0 0,0 23.72153099999997,91.9538395" fill="none" instance-id="-1" semantic-id="34" stroke="rgb(178,0,0)" stroke-width="0.1"/>
  <path d="M 24.518530999999996,91.71983949999999 A 0.2,0.2 0.0 0,0 24.39653099999998,91.90383949999999" fill="none" instance-id="-1" semantic-id="34" stroke="rgb(178,0,0)" stroke-width="0.1"/>
  <path d="M 24.633531000000005,91.7468395 A 0.1,0.1 0.0 0,0 24.518530999999996,91.71983949999999" fill="none" stroke="rgb(178,0,0)" stroke-width="0.1"/>
  <path d="M 21.47153099999997,91.9538395 A 0.675,0.675 0.0 0,0 20.796530999999987,92.6288395" fill="none" instance-id="-1" semantic-id="34" stroke="rgb(178,0,0)" stroke-width="0.1"/>
  <path d="M 24.633531000000005,96.6618395 A 3.1559,3.1559 0.0 0,0 25.39653099999998,94.6998395" fill="none" instance-id="-1" semantic-id="34" stroke="rgb(178,0,0)" stroke-width="0.1"/>
  <path d="M 24.39653099999998,96.5038395 A 0.2,0.2 0.0 0,0 24.518530999999996,96.6888395" fill="none" instance-id="-1" semantic-id="34" stroke="rgb(178,0,0)" stroke-width="0.1"/>
  <path d="M 23.72153099999997,96.4538395 A 0.675,0.675 0.0 0,0 24.39653099999998,95.77883949999999" fill="none" instance-id="-1" semantic-id="34" stroke="rgb(178,0,0)" stroke-width="0.1"/>
  <path d="M 24.518530999999996,96.6888395 A 0.1,0.1 0.0 0,0 24.633531000000005,96.6618395" fill="none" stroke="rgb(178,0,0)" stroke-width="0.1"/>
  <path d="M 20.796530999999987,95.77883949999999 A 0.675,0.675 0.0 0,0 21.47153099999997,96.4538395" fill="none" instance-id="-1" semantic-id="34" stroke="rgb(178,0,0)" stroke-width="0.1"/>
  <path d="M 25.39653099999998,87.70783949999999 A 3.1559,3.1559 0.0 0,0 24.633531000000005,85.7468395" fill="none" instance-id="-1" semantic-id="34" stroke="rgb(178,0,0)" stroke-width="0.1"/>
  <path d="M 24.633531000000005,90.6618395 A 27.1272,27.1272 0.0 0,0 24.633531000000005,85.7468395" fill="none" instance-id="-1" semantic-id="34" stroke="rgb(178,0,0)" stroke-width="0.1"/>
  <path d="M 24.39653099999998,86.6288395 A 0.675,0.675 0.0 0,0 23.72153099999997,85.9538395" fill="none" instance-id="-1" semantic-id="34" stroke="rgb(178,0,0)" stroke-width="0.1"/>
  <path d="M 24.518530999999996,85.71983949999999 A 0.2,0.2 0.0 0,0 24.39653099999998,85.90383949999999" fill="none" instance-id="-1" semantic-id="34" stroke="rgb(178,0,0)" stroke-width="0.1"/>
  <path d="M 24.633531000000005,85.7468395 A 0.1,0.1 0.0 0,0 24.518530999999996,85.71983949999999" fill="none" stroke="rgb(178,0,0)" stroke-width="0.1"/>
  <path d="M 21.47153099999997,85.9538395 A 0.675,0.675 0.0 0,0 20.796530999999987,86.6288395" fill="none" instance-id="-1" semantic-id="34" stroke="rgb(178,0,0)" stroke-width="0.1"/>
  <path d="M 24.633531000000005,90.6618395 A 3.1559,3.1559 0.0 0,0 25.39653099999998,88.6998395" fill="none" instance-id="-1" semantic-id="34" stroke="rgb(178,0,0)" stroke-width="0.1"/>
  <path d="M 24.39653099999998,90.5038395 A 0.2,0.2 0.0 0,0 24.518530999999996,90.6888395" fill="none" instance-id="-1" semantic-id="34" stroke="rgb(178,0,0)" stroke-width="0.1"/>
  <path d="M 23.72153099999997,90.4538395 A 0.675,0.675 0.0 0,0 24.39653099999998,89.77883949999999" fill="none" instance-id="-1" semantic-id="34" stroke="rgb(178,0,0)" stroke-width="0.1"/>
  <path d="M 24.518530999999996,90.6888395 A 0.1,0.1 0.0 0,0 24.633531000000005,90.6618395" fill="none" stroke="rgb(178,0,0)" stroke-width="0.1"/>
  <path d="M 20.796530999999987,89.77883949999999 A 0.675,0.675 0.0 0,0 21.47153099999997,90.4538395" fill="none" instance-id="-1" semantic-id="34" stroke="rgb(178,0,0)" stroke-width="0.1"/>
  <path d="M 36.39653099999998,99.70783949999999 A 3.1559,3.1559 0.0 0,0 35.633531000000005,97.7468395" fill="none" instance-id="-1" semantic-id="34" stroke="rgb(178,0,0)" stroke-width="0.1"/>
  <path d="M 35.74369689858992,99.9309137001064 L 35.7326735905782,99.38417321425383" fill="none" instance-id="-1" semantic-id="34" stroke="rgb(178,0,0)" stroke-width="0.1"/>
  <path d="M 35.7326735905782,99.38417321425383 L 35.7106314541727,98.83776602505102" fill="none" instance-id="-1" semantic-id="34" stroke="rgb(178,0,0)" stroke-width="0.1"/>
  <path d="M 35.7106314541727,98.83776602505102 L 35.67757944678897,98.29191417976904" fill="none" instance-id="-1" semantic-id="34" stroke="rgb(178,0,0)" stroke-width="0.1"/>
  <path d="M 35.67757944678897,98.29191417976904 L 35.633531000000005,97.7468395" fill="none" instance-id="-1" semantic-id="34" stroke="rgb(178,0,0)" stroke-width="0.1"/>
  <path d="M 35.39653099999998,98.6288395 A 0.675,0.675 0.0 0,0 34.72153099999997,97.9538395" fill="none" instance-id="-1" semantic-id="34" stroke="rgb(178,0,0)" stroke-width="0.1"/>
  <path d="M 35.518530999999996,97.71983949999999 A 0.2,0.2 0.0 0,0 35.39653099999998,97.90383949999999" fill="none" instance-id="-1" semantic-id="34" stroke="rgb(178,0,0)" stroke-width="0.1"/>
  <path d="M 35.633531000000005,97.7468395 A 0.1,0.1 0.0 0,0 35.518530999999996,97.71983949999999" fill="none" stroke="rgb(178,0,0)" stroke-width="0.1"/>
  <path d="M 32.47153099999997,97.9538395 A 0.675,0.675 0.0 0,0 31.79653099999996,98.6288395" fill="none" instance-id="-1" semantic-id="34" stroke="rgb(178,0,0)" stroke-width="0.1"/>
  <path d="M 36.39653099999998,93.70783949999999 A 3.1559,3.1559 0.0 0,0 35.633531000000005,91.7468395" fill="none" instance-id="-1" semantic-id="34" stroke="rgb(178,0,0)" stroke-width="0.1"/>
  <path d="M 35.633531000000005,96.6618395 A 27.1272,27.1272 0.0 0,0 35.633531000000005,91.7468395" fill="none" instance-id="-1" semantic-id="34" stroke="rgb(178,0,0)" stroke-width="0.1"/>
  <path d="M 35.39653099999998,92.6288395 A 0.675,0.675 0.0 0,0 34.72153099999997,91.9538395" fill="none" instance-id="-1" semantic-id="34" stroke="rgb(178,0,0)" stroke-width="0.1"/>
  <path d="M 35.518530999999996,91.71983949999999 A 0.2,0.2 0.0 0,0 35.39653099999998,91.90383949999999" fill="none" instance-id="-1" semantic-id="34" stroke="rgb(178,0,0)" stroke-width="0.1"/>
  <path d="M 35.633531000000005,91.7468395 A 0.1,0.1 0.0 0,0 35.518530999999996,91.71983949999999" fill="none" stroke="rgb(178,0,0)" stroke-width="0.1"/>
  <path d="M 32.47153099999997,91.9538395 A 0.675,0.675 0.0 0,0 31.79653099999996,92.6288395" fill="none" instance-id="-1" semantic-id="34" stroke="rgb(178,0,0)" stroke-width="0.1"/>
  <path d="M 35.633531000000005,96.6618395 A 3.1559,3.1559 0.0 0,0 36.39653099999998,94.6998395" fill="none" instance-id="-1" semantic-id="34" stroke="rgb(178,0,0)" stroke-width="0.1"/>
  <path d="M 35.39653099999998,96.5038395 A 0.2,0.2 0.0 0,0 35.518530999999996,96.6888395" fill="none" instance-id="-1" semantic-id="34" stroke="rgb(178,0,0)" stroke-width="0.1"/>
  <path d="M 34.72153099999997,96.4538395 A 0.675,0.675 0.0 0,0 35.39653099999998,95.77883949999999" fill="none" instance-id="-1" semantic-id="34" stroke="rgb(178,0,0)" stroke-width="0.1"/>
  <path d="M 35.518530999999996,96.6888395 A 0.1,0.1 0.0 0,0 35.633531000000005,96.6618395" fill="none" stroke="rgb(178,0,0)" stroke-width="0.1"/>
  <path d="M 31.79653099999996,95.77883949999999 A 0.675,0.675 0.0 0,0 32.47153099999997,96.4538395" fill="none" instance-id="-1" semantic-id="34" stroke="rgb(178,0,0)" stroke-width="0.1"/>
  <path d="M 36.39653099999998,87.70783949999999 A 3.1559,3.1559 0.0 0,0 35.633531000000005,85.7468395" fill="none" instance-id="-1" semantic-id="34" stroke="rgb(178,0,0)" stroke-width="0.1"/>
  <path d="M 35.633531000000005,90.6618395 A 27.1272,27.1272 0.0 0,0 35.633531000000005,85.7468395" fill="none" instance-id="-1" semantic-id="34" stroke="rgb(178,0,0)" stroke-width="0.1"/>
  <path d="M 35.39653099999998,86.6288395 A 0.675,0.675 0.0 0,0 34.72153099999997,85.9538395" fill="none" instance-id="-1" semantic-id="34" stroke="rgb(178,0,0)" stroke-width="0.1"/>
  <path d="M 35.518530999999996,85.71983949999999 A 0.2,0.2 0.0 0,0 35.39653099999998,85.90383949999999" fill="none" instance-id="-1" semantic-id="34" stroke="rgb(178,0,0)" stroke-width="0.1"/>
  <path d="M 35.633531000000005,85.7468395 A 0.1,0.1 0.0 0,0 35.518530999999996,85.71983949999999" fill="none" stroke="rgb(178,0,0)" stroke-width="0.1"/>
  <path d="M 32.47153099999997,85.9538395 A 0.675,0.675 0.0 0,0 31.79653099999996,86.6288395" fill="none" instance-id="-1" semantic-id="34" stroke="rgb(178,0,0)" stroke-width="0.1"/>
  <path d="M 35.633531000000005,90.6618395 A 3.1559,3.1559 0.0 0,0 36.39653099999998,88.6998395" fill="none" instance-id="-1" semantic-id="34" stroke="rgb(178,0,0)" stroke-width="0.1"/>
  <path d="M 35.39653099999998,90.5038395 A 0.2,0.2 0.0 0,0 35.518530999999996,90.6888395" fill="none" instance-id="-1" semantic-id="34" stroke="rgb(178,0,0)" stroke-width="0.1"/>
  <path d="M 34.72153099999997,90.4538395 A 0.675,0.675 0.0 0,0 35.39653099999998,89.77883949999999" fill="none" instance-id="-1" semantic-id="34" stroke="rgb(178,0,0)" stroke-width="0.1"/>
  <path d="M 35.518530999999996,90.6888395 A 0.1,0.1 0.0 0,0 35.633531000000005,90.6618395" fill="none" stroke="rgb(178,0,0)" stroke-width="0.1"/>
  <path d="M 31.79653099999996,89.77883949999999 A 0.675,0.675 0.0 0,0 32.47153099999997,90.4538395" fill="none" instance-id="-1" semantic-id="34" stroke="rgb(178,0,0)" stroke-width="0.1"/>
  <path d="M 47.39653099999998,99.70783949999999 A 3.1559,3.1559 0.0 0,0 46.633531000000005,97.7468395" fill="none" instance-id="-1" semantic-id="34" stroke="rgb(178,0,0)" stroke-width="0.1"/>
  <path d="M 46.74369689858992,99.9309137001064 L 46.7326735905782,99.38417321425383" fill="none" instance-id="-1" semantic-id="34" stroke="rgb(178,0,0)" stroke-width="0.1"/>
  <path d="M 46.7326735905782,99.38417321425383 L 46.7106314541727,98.83776602505102" fill="none" instance-id="-1" semantic-id="34" stroke="rgb(178,0,0)" stroke-width="0.1"/>
  <path d="M 46.7106314541727,98.83776602505102 L 46.67757944678897,98.29191417976904" fill="none" instance-id="-1" semantic-id="34" stroke="rgb(178,0,0)" stroke-width="0.1"/>
  <path d="M 46.67757944678897,98.29191417976904 L 46.633531000000005,97.7468395" fill="none" instance-id="-1" semantic-id="34" stroke="rgb(178,0,0)" stroke-width="0.1"/>
  <path d="M 46.39653099999998,98.6288395 A 0.675,0.675 0.0 0,0 45.72153099999997,97.9538395" fill="none" instance-id="-1" semantic-id="34" stroke="rgb(178,0,0)" stroke-width="0.1"/>
  <path d="M 46.518530999999996,97.71983949999999 A 0.2,0.2 0.0 0,0 46.39653099999998,97.90383949999999" fill="none" instance-id="-1" semantic-id="34" stroke="rgb(178,0,0)" stroke-width="0.1"/>
  <path d="M 46.633531000000005,97.7468395 A 0.1,0.1 0.0 0,0 46.518530999999996,97.71983949999999" fill="none" stroke="rgb(178,0,0)" stroke-width="0.1"/>
  <path d="M 43.47153099999997,97.9538395 A 0.675,0.675 0.0 0,0 42.79653099999996,98.6288395" fill="none" instance-id="-1" semantic-id="34" stroke="rgb(178,0,0)" stroke-width="0.1"/>
  <path d="M 47.39653099999998,93.70783949999999 A 3.1559,3.1559 0.0 0,0 46.633531000000005,91.7468395" fill="none" instance-id="-1" semantic-id="34" stroke="rgb(178,0,0)" stroke-width="0.1"/>
  <path d="M 46.633531000000005,96.6618395 A 27.1272,27.1272 0.0 0,0 46.633531000000005,91.7468395" fill="none" instance-id="-1" semantic-id="34" stroke="rgb(178,0,0)" stroke-width="0.1"/>
  <path d="M 46.39653099999998,92.6288395 A 0.675,0.675 0.0 0,0 45.72153099999997,91.9538395" fill="none" instance-id="-1" semantic-id="34" stroke="rgb(178,0,0)" stroke-width="0.1"/>
  <path d="M 46.518530999999996,91.71983949999999 A 0.2,0.2 0.0 0,0 46.39653099999998,91.90383949999999" fill="none" instance-id="-1" semantic-id="34" stroke="rgb(178,0,0)" stroke-width="0.1"/>
  <path d="M 46.633531000000005,91.7468395 A 0.1,0.1 0.0 0,0 46.518530999999996,91.71983949999999" fill="none" stroke="rgb(178,0,0)" stroke-width="0.1"/>
  <path d="M 43.47153099999997,91.9538395 A 0.675,0.675 0.0 0,0 42.79653099999996,92.6288395" fill="none" instance-id="-1" semantic-id="34" stroke="rgb(178,0,0)" stroke-width="0.1"/>
  <path d="M 46.633531000000005,96.6618395 A 3.1559,3.1559 0.0 0,0 47.39653099999998,94.6998395" fill="none" instance-id="-1" semantic-id="34" stroke="rgb(178,0,0)" stroke-width="0.1"/>
  <path d="M 46.39653099999998,96.5038395 A 0.2,0.2 0.0 0,0 46.518530999999996,96.6888395" fill="none" instance-id="-1" semantic-id="34" stroke="rgb(178,0,0)" stroke-width="0.1"/>
  <path d="M 45.72153099999997,96.4538395 A 0.675,0.675 0.0 0,0 46.39653099999998,95.77883949999999" fill="none" instance-id="-1" semantic-id="34" stroke="rgb(178,0,0)" stroke-width="0.1"/>
  <path d="M 46.518530999999996,96.6888395 A 0.1,0.1 0.0 0,0 46.633531000000005,96.6618395" fill="none" stroke="rgb(178,0,0)" stroke-width="0.1"/>
  <path d="M 42.79653099999996,95.77883949999999 A 0.675,0.675 0.0 0,0 43.47153099999997,96.4538395" fill="none" instance-id="-1" semantic-id="34" stroke="rgb(178,0,0)" stroke-width="0.1"/>
  <path d="M 47.39653099999998,87.70783949999999 A 3.1559,3.1559 0.0 0,0 46.633531000000005,85.7468395" fill="none" instance-id="-1" semantic-id="34" stroke="rgb(178,0,0)" stroke-width="0.1"/>
  <path d="M 46.633531000000005,90.6618395 A 27.1272,27.1272 0.0 0,0 46.633531000000005,85.7468395" fill="none" instance-id="-1" semantic-id="34" stroke="rgb(178,0,0)" stroke-width="0.1"/>
  <path d="M 46.39653099999998,86.6288395 A 0.675,0.675 0.0 0,0 45.72153099999997,85.9538395" fill="none" instance-id="-1" semantic-id="34" stroke="rgb(178,0,0)" stroke-width="0.1"/>
  <path d="M 46.518530999999996,85.71983949999999 A 0.2,0.2 0.0 0,0 46.39653099999998,85.90383949999999" fill="none" instance-id="-1" semantic-id="34" stroke="rgb(178,0,0)" stroke-width="0.1"/>
  <path d="M 46.633531000000005,85.7468395 A 0.1,0.1 0.0 0,0 46.518530999999996,85.71983949999999" fill="none" stroke="rgb(178,0,0)" stroke-width="0.1"/>
  <path d="M 43.47153099999997,85.9538395 A 0.675,0.675 0.0 0,0 42.79653099999996,86.6288395" fill="none" instance-id="-1" semantic-id="34" stroke="rgb(178,0,0)" stroke-width="0.1"/>
  <path d="M 46.633531000000005,90.6618395 A 3.1559,3.1559 0.0 0,0 47.39653099999998,88.6998395" fill="none" instance-id="-1" semantic-id="34" stroke="rgb(178,0,0)" stroke-width="0.1"/>
  <path d="M 46.39653099999998,90.5038395 A 0.2,0.2 0.0 0,0 46.518530999999996,90.6888395" fill="none" instance-id="-1" semantic-id="34" stroke="rgb(178,0,0)" stroke-width="0.1"/>
  <path d="M 45.72153099999997,90.4538395 A 0.675,0.675 0.0 0,0 46.39653099999998,89.77883949999999" fill="none" instance-id="-1" semantic-id="34" stroke="rgb(178,0,0)" stroke-width="0.1"/>
  <path d="M 46.518530999999996,90.6888395 A 0.1,0.1 0.0 0,0 46.633531000000005,90.6618395" fill="none" stroke="rgb(178,0,0)" stroke-width="0.1"/>
  <path d="M 42.79653099999996,89.77883949999999 A 0.675,0.675 0.0 0,0 43.47153099999997,90.4538395" fill="none" instance-id="-1" semantic-id="34" stroke="rgb(178,0,0)" stroke-width="0.1"/>
  <path d="M 58.39653099999998,99.70783949999999 A 3.1559,3.1559 0.0 0,0 57.633531000000005,97.7468395" fill="none" instance-id="-1" semantic-id="34" stroke="rgb(178,0,0)" stroke-width="0.1"/>
  <path d="M 57.74369689858992,99.9309137001064 L 57.7326735905782,99.38417321425383" fill="none" instance-id="-1" semantic-id="34" stroke="rgb(178,0,0)" stroke-width="0.1"/>
  <path d="M 57.7326735905782,99.38417321425383 L 57.7106314541727,98.83776602505102" fill="none" instance-id="-1" semantic-id="34" stroke="rgb(178,0,0)" stroke-width="0.1"/>
  <path d="M 57.7106314541727,98.83776602505102 L 57.67757944678897,98.29191417976904" fill="none" instance-id="-1" semantic-id="34" stroke="rgb(178,0,0)" stroke-width="0.1"/>
  <path d="M 57.67757944678897,98.29191417976904 L 57.633531000000005,97.7468395" fill="none" instance-id="-1" semantic-id="34" stroke="rgb(178,0,0)" stroke-width="0.1"/>
  <path d="M 57.39653099999998,98.6288395 A 0.675,0.675 0.0 0,0 56.72153099999997,97.9538395" fill="none" instance-id="-1" semantic-id="34" stroke="rgb(178,0,0)" stroke-width="0.1"/>
  <path d="M 57.518530999999996,97.71983949999999 A 0.2,0.2 0.0 0,0 57.39653099999998,97.90383949999999" fill="none" instance-id="-1" semantic-id="34" stroke="rgb(178,0,0)" stroke-width="0.1"/>
  <path d="M 57.633531000000005,97.7468395 A 0.1,0.1 0.0 0,0 57.518530999999996,97.71983949999999" fill="none" stroke="rgb(178,0,0)" stroke-width="0.1"/>
  <path d="M 54.47153099999997,97.9538395 A 0.675,0.675 0.0 0,0 53.79653099999996,98.6288395" fill="none" instance-id="-1" semantic-id="34" stroke="rgb(178,0,0)" stroke-width="0.1"/>
  <path d="M 58.39653099999998,93.70783949999999 A 3.1559,3.1559 0.0 0,0 57.633531000000005,91.7468395" fill="none" instance-id="-1" semantic-id="34" stroke="rgb(178,0,0)" stroke-width="0.1"/>
  <path d="M 57.633531000000005,96.6618395 A 27.1272,27.1272 0.0 0,0 57.633531000000005,91.7468395" fill="none" instance-id="-1" semantic-id="34" stroke="rgb(178,0,0)" stroke-width="0.1"/>
  <path d="M 57.39653099999998,92.6288395 A 0.675,0.675 0.0 0,0 56.72153099999997,91.9538395" fill="none" instance-id="-1" semantic-id="34" stroke="rgb(178,0,0)" stroke-width="0.1"/>
  <path d="M 57.518530999999996,91.71983949999999 A 0.2,0.2 0.0 0,0 57.39653099999998,91.90383949999999" fill="none" instance-id="-1" semantic-id="34" stroke="rgb(178,0,0)" stroke-width="0.1"/>
  <path d="M 57.633531000000005,91.7468395 A 0.1,0.1 0.0 0,0 57.518530999999996,91.71983949999999" fill="none" stroke="rgb(178,0,0)" stroke-width="0.1"/>
  <path d="M 54.47153099999997,91.9538395 A 0.675,0.675 0.0 0,0 53.79653099999996,92.6288395" fill="none" instance-id="-1" semantic-id="34" stroke="rgb(178,0,0)" stroke-width="0.1"/>
  <path d="M 57.633531000000005,96.6618395 A 3.1559,3.1559 0.0 0,0 58.39653099999998,94.6998395" fill="none" instance-id="-1" semantic-id="34" stroke="rgb(178,0,0)" stroke-width="0.1"/>
  <path d="M 57.39653099999998,96.5038395 A 0.2,0.2 0.0 0,0 57.518530999999996,96.6888395" fill="none" instance-id="-1" semantic-id="34" stroke="rgb(178,0,0)" stroke-width="0.1"/>
  <path d="M 56.72153099999997,96.4538395 A 0.675,0.675 0.0 0,0 57.39653099999998,95.77883949999999" fill="none" instance-id="-1" semantic-id="34" stroke="rgb(178,0,0)" stroke-width="0.1"/>
  <path d="M 57.518530999999996,96.6888395 A 0.1,0.1 0.0 0,0 57.633531000000005,96.6618395" fill="none" stroke="rgb(178,0,0)" stroke-width="0.1"/>
  <path d="M 53.79653099999996,95.77883949999999 A 0.675,0.675 0.0 0,0 54.47153099999997,96.4538395" fill="none" instance-id="-1" semantic-id="34" stroke="rgb(178,0,0)" stroke-width="0.1"/>
  <path d="M 58.39653099999998,87.70783949999999 A 3.1559,3.1559 0.0 0,0 57.633531000000005,85.7468395" fill="none" instance-id="-1" semantic-id="34" stroke="rgb(178,0,0)" stroke-width="0.1"/>
  <path d="M 57.633531000000005,90.6618395 A 27.1272,27.1272 0.0 0,0 57.633531000000005,85.7468395" fill="none" instance-id="-1" semantic-id="34" stroke="rgb(178,0,0)" stroke-width="0.1"/>
  <path d="M 57.39653099999998,86.6288395 A 0.675,0.675 0.0 0,0 56.72153099999997,85.9538395" fill="none" instance-id="-1" semantic-id="34" stroke="rgb(178,0,0)" stroke-width="0.1"/>
  <path d="M 57.518530999999996,85.71983949999999 A 0.2,0.2 0.0 0,0 57.39653099999998,85.90383949999999" fill="none" instance-id="-1" semantic-id="34" stroke="rgb(178,0,0)" stroke-width="0.1"/>
  <path d="M 57.633531000000005,85.7468395 A 0.1,0.1 0.0 0,0 57.518530999999996,85.71983949999999" fill="none" stroke="rgb(178,0,0)" stroke-width="0.1"/>
  <path d="M 54.47153099999997,85.9538395 A 0.675,0.675 0.0 0,0 53.79653099999996,86.6288395" fill="none" instance-id="-1" semantic-id="34" stroke="rgb(178,0,0)" stroke-width="0.1"/>
  <path d="M 57.633531000000005,90.6618395 A 3.1559,3.1559 0.0 0,0 58.39653099999998,88.6998395" fill="none" instance-id="-1" semantic-id="34" stroke="rgb(178,0,0)" stroke-width="0.1"/>
  <path d="M 57.39653099999998,90.5038395 A 0.2,0.2 0.0 0,0 57.518530999999996,90.6888395" fill="none" instance-id="-1" semantic-id="34" stroke="rgb(178,0,0)" stroke-width="0.1"/>
  <path d="M 56.72153099999997,90.4538395 A 0.675,0.675 0.0 0,0 57.39653099999998,89.77883949999999" fill="none" instance-id="-1" semantic-id="34" stroke="rgb(178,0,0)" stroke-width="0.1"/>
  <path d="M 57.518530999999996,90.6888395 A 0.1,0.1 0.0 0,0 57.633531000000005,90.6618395" fill="none" stroke="rgb(178,0,0)" stroke-width="0.1"/>
  <path d="M 53.79653099999996,89.77883949999999 A 0.675,0.675 0.0 0,0 54.47153099999997,90.4538395" fill="none" instance-id="-1" semantic-id="34" stroke="rgb(178,0,0)" stroke-width="0.1"/>
  <path d="M 69.39653099999998,99.70783949999999 A 3.1559,3.1559 0.0 0,0 68.633531,97.7468395" fill="none" instance-id="-1" semantic-id="34" stroke="rgb(178,0,0)" stroke-width="0.1"/>
  <path d="M 68.74369689858992,99.9309137001064 L 68.7326735905782,99.38417321425383" fill="none" instance-id="-1" semantic-id="34" stroke="rgb(178,0,0)" stroke-width="0.1"/>
  <path d="M 68.7326735905782,99.38417321425383 L 68.7106314541727,98.83776602505102" fill="none" instance-id="-1" semantic-id="34" stroke="rgb(178,0,0)" stroke-width="0.1"/>
  <path d="M 68.7106314541727,98.83776602505102 L 68.67757944678897,98.29191417976904" fill="none" instance-id="-1" semantic-id="34" stroke="rgb(178,0,0)" stroke-width="0.1"/>
  <path d="M 68.67757944678897,98.29191417976904 L 68.633531,97.7468395" fill="none" instance-id="-1" semantic-id="34" stroke="rgb(178,0,0)" stroke-width="0.1"/>
  <path d="M 68.39653099999998,98.6288395 A 0.675,0.675 0.0 0,0 67.72153099999997,97.9538395" fill="none" instance-id="-1" semantic-id="34" stroke="rgb(178,0,0)" stroke-width="0.1"/>
  <path d="M 68.518531,97.71983949999999 A 0.2,0.2 0.0 0,0 68.39653099999998,97.90383949999999" fill="none" instance-id="-1" semantic-id="34" stroke="rgb(178,0,0)" stroke-width="0.1"/>
  <path d="M 68.633531,97.7468395 A 0.1,0.1 0.0 0,0 68.518531,97.71983949999999" fill="none" stroke="rgb(178,0,0)" stroke-width="0.1"/>
  <path d="M 65.47153099999997,97.9538395 A 0.675,0.675 0.0 0,0 64.79653099999996,98.6288395" fill="none" instance-id="-1" semantic-id="34" stroke="rgb(178,0,0)" stroke-width="0.1"/>
  <path d="M 69.39653099999998,93.70783949999999 A 3.1559,3.1559 0.0 0,0 68.633531,91.7468395" fill="none" instance-id="-1" semantic-id="34" stroke="rgb(178,0,0)" stroke-width="0.1"/>
  <path d="M 68.633531,96.6618395 A 27.1272,27.1272 0.0 0,0 68.633531,91.7468395" fill="none" instance-id="-1" semantic-id="34" stroke="rgb(178,0,0)" stroke-width="0.1"/>
  <path d="M 68.39653099999998,92.6288395 A 0.675,0.675 0.0 0,0 67.72153099999997,91.9538395" fill="none" instance-id="-1" semantic-id="34" stroke="rgb(178,0,0)" stroke-width="0.1"/>
  <path d="M 68.518531,91.71983949999999 A 0.2,0.2 0.0 0,0 68.39653099999998,91.90383949999999" fill="none" instance-id="-1" semantic-id="34" stroke="rgb(178,0,0)" stroke-width="0.1"/>
  <path d="M 68.633531,91.7468395 A 0.1,0.1 0.0 0,0 68.518531,91.71983949999999" fill="none" stroke="rgb(178,0,0)" stroke-width="0.1"/>
  <path d="M 65.47153099999997,91.9538395 A 0.675,0.675 0.0 0,0 64.79653099999996,92.6288395" fill="none" instance-id="-1" semantic-id="34" stroke="rgb(178,0,0)" stroke-width="0.1"/>
  <path d="M 68.633531,96.6618395 A 3.1559,3.1559 0.0 0,0 69.39653099999998,94.6998395" fill="none" instance-id="-1" semantic-id="34" stroke="rgb(178,0,0)" stroke-width="0.1"/>
  <path d="M 68.39653099999998,96.5038395 A 0.2,0.2 0.0 0,0 68.518531,96.6888395" fill="none" instance-id="-1" semantic-id="34" stroke="rgb(178,0,0)" stroke-width="0.1"/>
  <path d="M 67.72153099999997,96.4538395 A 0.675,0.675 0.0 0,0 68.39653099999998,95.77883949999999" fill="none" instance-id="-1" semantic-id="34" stroke="rgb(178,0,0)" stroke-width="0.1"/>
  <path d="M 68.518531,96.6888395 A 0.1,0.1 0.0 0,0 68.633531,96.6618395" fill="none" stroke="rgb(178,0,0)" stroke-width="0.1"/>
  <path d="M 64.79653099999996,95.77883949999999 A 0.675,0.675 0.0 0,0 65.47153099999997,96.4538395" fill="none" instance-id="-1" semantic-id="34" stroke="rgb(178,0,0)" stroke-width="0.1"/>
  <path d="M 69.39653099999998,87.70783949999999 A 3.1559,3.1559 0.0 0,0 68.633531,85.7468395" fill="none" instance-id="-1" semantic-id="34" stroke="rgb(178,0,0)" stroke-width="0.1"/>
  <path d="M 68.633531,90.6618395 A 27.1272,27.1272 0.0 0,0 68.633531,85.7468395" fill="none" instance-id="-1" semantic-id="34" stroke="rgb(178,0,0)" stroke-width="0.1"/>
  <path d="M 68.39653099999998,86.6288395 A 0.675,0.675 0.0 0,0 67.72153099999997,85.9538395" fill="none" instance-id="-1" semantic-id="34" stroke="rgb(178,0,0)" stroke-width="0.1"/>
  <path d="M 68.518531,85.71983949999999 A 0.2,0.2 0.0 0,0 68.39653099999998,85.90383949999999" fill="none" instance-id="-1" semantic-id="34" stroke="rgb(178,0,0)" stroke-width="0.1"/>
  <path d="M 68.633531,85.7468395 A 0.1,0.1 0.0 0,0 68.518531,85.71983949999999" fill="none" stroke="rgb(178,0,0)" stroke-width="0.1"/>
  <path d="M 65.47153099999997,85.9538395 A 0.675,0.675 0.0 0,0 64.79653099999996,86.6288395" fill="none" instance-id="-1" semantic-id="34" stroke="rgb(178,0,0)" stroke-width="0.1"/>
  <path d="M 68.633531,90.6618395 A 3.1559,3.1559 0.0 0,0 69.39653099999998,88.6998395" fill="none" instance-id="-1" semantic-id="34" stroke="rgb(178,0,0)" stroke-width="0.1"/>
  <path d="M 68.39653099999998,90.5038395 A 0.2,0.2 0.0 0,0 68.518531,90.6888395" fill="none" instance-id="-1" semantic-id="34" stroke="rgb(178,0,0)" stroke-width="0.1"/>
  <path d="M 67.72153099999997,90.4538395 A 0.675,0.675 0.0 0,0 68.39653099999998,89.77883949999999" fill="none" instance-id="-1" semantic-id="34" stroke="rgb(178,0,0)" stroke-width="0.1"/>
  <path d="M 68.518531,90.6888395 A 0.1,0.1 0.0 0,0 68.633531,90.6618395" fill="none" stroke="rgb(178,0,0)" stroke-width="0.1"/>
  <path d="M 64.79653099999996,89.77883949999999 A 0.675,0.675 0.0 0,0 65.47153099999997,90.4538395" fill="none" instance-id="-1" semantic-id="34" stroke="rgb(178,0,0)" stroke-width="0.1"/>
  <path d="M 80.39653099999998,99.70783949999999 A 3.1559,3.1559 0.0 0,0 79.633531,97.7468395" fill="none" instance-id="-1" semantic-id="34" stroke="rgb(178,0,0)" stroke-width="0.1"/>
  <path d="M 79.74369689858992,99.9309137001064 L 79.7326735905782,99.38417321425383" fill="none" instance-id="-1" semantic-id="34" stroke="rgb(178,0,0)" stroke-width="0.1"/>
  <path d="M 79.7326735905782,99.38417321425383 L 79.7106314541727,98.83776602505102" fill="none" instance-id="-1" semantic-id="34" stroke="rgb(178,0,0)" stroke-width="0.1"/>
  <path d="M 79.7106314541727,98.83776602505102 L 79.67757944678897,98.29191417976904" fill="none" instance-id="-1" semantic-id="34" stroke="rgb(178,0,0)" stroke-width="0.1"/>
  <path d="M 79.67757944678897,98.29191417976904 L 79.633531,97.7468395" fill="none" instance-id="-1" semantic-id="34" stroke="rgb(178,0,0)" stroke-width="0.1"/>
  <path d="M 79.39653099999998,98.6288395 A 0.675,0.675 0.0 0,0 78.72153099999997,97.9538395" fill="none" instance-id="-1" semantic-id="34" stroke="rgb(178,0,0)" stroke-width="0.1"/>
  <path d="M 79.518531,97.71983949999999 A 0.2,0.2 0.0 0,0 79.39653099999998,97.90383949999999" fill="none" instance-id="-1" semantic-id="34" stroke="rgb(178,0,0)" stroke-width="0.1"/>
  <path d="M 79.633531,97.7468395 A 0.1,0.1 0.0 0,0 79.518531,97.71983949999999" fill="none" stroke="rgb(178,0,0)" stroke-width="0.1"/>
  <path d="M 76.47153099999997,97.9538395 A 0.675,0.675 0.0 0,0 75.79653099999996,98.6288395" fill="none" instance-id="-1" semantic-id="34" stroke="rgb(178,0,0)" stroke-width="0.1"/>
  <path d="M 80.39653099999998,93.70783949999999 A 3.1559,3.1559 0.0 0,0 79.633531,91.7468395" fill="none" instance-id="-1" semantic-id="34" stroke="rgb(178,0,0)" stroke-width="0.1"/>
  <path d="M 79.633531,96.6618395 A 27.1272,27.1272 0.0 0,0 79.633531,91.7468395" fill="none" instance-id="-1" semantic-id="34" stroke="rgb(178,0,0)" stroke-width="0.1"/>
  <path d="M 79.39653099999998,92.6288395 A 0.675,0.675 0.0 0,0 78.72153099999997,91.9538395" fill="none" instance-id="-1" semantic-id="34" stroke="rgb(178,0,0)" stroke-width="0.1"/>
  <path d="M 79.518531,91.71983949999999 A 0.2,0.2 0.0 0,0 79.39653099999998,91.90383949999999" fill="none" instance-id="-1" semantic-id="34" stroke="rgb(178,0,0)" stroke-width="0.1"/>
  <path d="M 79.633531,91.7468395 A 0.1,0.1 0.0 0,0 79.518531,91.71983949999999" fill="none" stroke="rgb(178,0,0)" stroke-width="0.1"/>
  <path d="M 76.47153099999997,91.9538395 A 0.675,0.675 0.0 0,0 75.79653099999996,92.6288395" fill="none" instance-id="-1" semantic-id="34" stroke="rgb(178,0,0)" stroke-width="0.1"/>
  <path d="M 79.633531,96.6618395 A 3.1559,3.1559 0.0 0,0 80.39653099999998,94.6998395" fill="none" instance-id="-1" semantic-id="34" stroke="rgb(178,0,0)" stroke-width="0.1"/>
  <path d="M 79.39653099999998,96.5038395 A 0.2,0.2 0.0 0,0 79.518531,96.6888395" fill="none" instance-id="-1" semantic-id="34" stroke="rgb(178,0,0)" stroke-width="0.1"/>
  <path d="M 78.72153099999997,96.4538395 A 0.675,0.675 0.0 0,0 79.39653099999998,95.77883949999999" fill="none" instance-id="-1" semantic-id="34" stroke="rgb(178,0,0)" stroke-width="0.1"/>
  <path d="M 79.518531,96.6888395 A 0.1,0.1 0.0 0,0 79.633531,96.6618395" fill="none" stroke="rgb(178,0,0)" stroke-width="0.1"/>
  <path d="M 75.79653099999996,95.77883949999999 A 0.675,0.675 0.0 0,0 76.47153099999997,96.4538395" fill="none" instance-id="-1" semantic-id="34" stroke="rgb(178,0,0)" stroke-width="0.1"/>
  <path d="M 80.39653099999998,87.70783949999999 A 3.1559,3.1559 0.0 0,0 79.633531,85.7468395" fill="none" instance-id="-1" semantic-id="34" stroke="rgb(178,0,0)" stroke-width="0.1"/>
  <path d="M 79.633531,90.6618395 A 27.1272,27.1272 0.0 0,0 79.633531,85.7468395" fill="none" instance-id="-1" semantic-id="34" stroke="rgb(178,0,0)" stroke-width="0.1"/>
  <path d="M 79.39653099999998,86.6288395 A 0.675,0.675 0.0 0,0 78.72153099999997,85.9538395" fill="none" instance-id="-1" semantic-id="34" stroke="rgb(178,0,0)" stroke-width="0.1"/>
  <path d="M 79.518531,85.71983949999999 A 0.2,0.2 0.0 0,0 79.39653099999998,85.90383949999999" fill="none" instance-id="-1" semantic-id="34" stroke="rgb(178,0,0)" stroke-width="0.1"/>
  <path d="M 79.633531,85.7468395 A 0.1,0.1 0.0 0,0 79.518531,85.71983949999999" fill="none" stroke="rgb(178,0,0)" stroke-width="0.1"/>
  <path d="M 76.47153099999997,85.9538395 A 0.675,0.675 0.0 0,0 75.79653099999996,86.6288395" fill="none" instance-id="-1" semantic-id="34" stroke="rgb(178,0,0)" stroke-width="0.1"/>
  <path d="M 79.633531,90.6618395 A 3.1559,3.1559 0.0 0,0 80.39653099999998,88.6998395" fill="none" instance-id="-1" semantic-id="34" stroke="rgb(178,0,0)" stroke-width="0.1"/>
  <path d="M 79.39653099999998,90.5038395 A 0.2,0.2 0.0 0,0 79.518531,90.6888395" fill="none" instance-id="-1" semantic-id="34" stroke="rgb(178,0,0)" stroke-width="0.1"/>
  <path d="M 78.72153099999997,90.4538395 A 0.675,0.675 0.0 0,0 79.39653099999998,89.77883949999999" fill="none" instance-id="-1" semantic-id="34" stroke="rgb(178,0,0)" stroke-width="0.1"/>
  <path d="M 79.518531,90.6888395 A 0.1,0.1 0.0 0,0 79.633531,90.6618395" fill="none" stroke="rgb(178,0,0)" stroke-width="0.1"/>
  <path d="M 75.79653099999996,89.77883949999999 A 0.675,0.675 0.0 0,0 76.47153099999997,90.4538395" fill="none" instance-id="-1" semantic-id="34" stroke="rgb(178,0,0)" stroke-width="0.1"/>
  <path d="M 91.39653099999998,99.70783949999999 A 3.1559,3.1559 0.0 0,0 90.633531,97.7468395" fill="none" instance-id="-1" semantic-id="34" stroke="rgb(178,0,0)" stroke-width="0.1"/>
  <path d="M 90.74369689858992,99.9309137001064 L 90.7326735905782,99.38417321425383" fill="none" instance-id="-1" semantic-id="34" stroke="rgb(178,0,0)" stroke-width="0.1"/>
  <path d="M 90.7326735905782,99.38417321425383 L 90.7106314541727,98.83776602505102" fill="none" instance-id="-1" semantic-id="34" stroke="rgb(178,0,0)" stroke-width="0.1"/>
  <path d="M 90.7106314541727,98.83776602505102 L 90.67757944678897,98.29191417976904" fill="none" instance-id="-1" semantic-id="34" stroke="rgb(178,0,0)" stroke-width="0.1"/>
  <path d="M 90.67757944678897,98.29191417976904 L 90.633531,97.7468395" fill="none" instance-id="-1" semantic-id="34" stroke="rgb(178,0,0)" stroke-width="0.1"/>
  <path d="M 90.39653099999998,98.6288395 A 0.675,0.675 0.0 0,0 89.72153099999997,97.9538395" fill="none" instance-id="-1" semantic-id="34" stroke="rgb(178,0,0)" stroke-width="0.1"/>
  <path d="M 90.518531,97.71983949999999 A 0.2,0.2 0.0 0,0 90.39653099999998,97.90383949999999" fill="none" instance-id="-1" semantic-id="34" stroke="rgb(178,0,0)" stroke-width="0.1"/>
  <path d="M 90.633531,97.7468395 A 0.1,0.1 0.0 0,0 90.518531,97.71983949999999" fill="none" stroke="rgb(178,0,0)" stroke-width="0.1"/>
  <path d="M 87.47153099999997,97.9538395 A 0.675,0.675 0.0 0,0 86.79653099999996,98.6288395" fill="none" instance-id="-1" semantic-id="34" stroke="rgb(178,0,0)" stroke-width="0.1"/>
  <path d="M 91.39653099999998,93.70783949999999 A 3.1559,3.1559 0.0 0,0 90.633531,91.7468395" fill="none" instance-id="-1" semantic-id="34" stroke="rgb(178,0,0)" stroke-width="0.1"/>
  <path d="M 90.633531,96.6618395 A 27.1272,27.1272 0.0 0,0 90.633531,91.7468395" fill="none" instance-id="-1" semantic-id="34" stroke="rgb(178,0,0)" stroke-width="0.1"/>
  <path d="M 90.39653099999998,92.6288395 A 0.675,0.675 0.0 0,0 89.72153099999997,91.9538395" fill="none" instance-id="-1" semantic-id="34" stroke="rgb(178,0,0)" stroke-width="0.1"/>
  <path d="M 90.518531,91.71983949999999 A 0.2,0.2 0.0 0,0 90.39653099999998,91.90383949999999" fill="none" instance-id="-1" semantic-id="34" stroke="rgb(178,0,0)" stroke-width="0.1"/>
  <path d="M 90.633531,91.7468395 A 0.1,0.1 0.0 0,0 90.518531,91.71983949999999" fill="none" stroke="rgb(178,0,0)" stroke-width="0.1"/>
  <path d="M 87.47153099999997,91.9538395 A 0.675,0.675 0.0 0,0 86.79653099999996,92.6288395" fill="none" instance-id="-1" semantic-id="34" stroke="rgb(178,0,0)" stroke-width="0.1"/>
  <path d="M 90.633531,96.6618395 A 3.1559,3.1559 0.0 0,0 91.39653099999998,94.6998395" fill="none" instance-id="-1" semantic-id="34" stroke="rgb(178,0,0)" stroke-width="0.1"/>
  <path d="M 90.39653099999998,96.5038395 A 0.2,0.2 0.0 0,0 90.518531,96.6888395" fill="none" instance-id="-1" semantic-id="34" stroke="rgb(178,0,0)" stroke-width="0.1"/>
  <path d="M 89.72153099999997,96.4538395 A 0.675,0.675 0.0 0,0 90.39653099999998,95.77883949999999" fill="none" instance-id="-1" semantic-id="34" stroke="rgb(178,0,0)" stroke-width="0.1"/>
  <path d="M 90.518531,96.6888395 A 0.1,0.1 0.0 0,0 90.633531,96.6618395" fill="none" stroke="rgb(178,0,0)" stroke-width="0.1"/>
  <path d="M 86.79653099999996,95.77883949999999 A 0.675,0.675 0.0 0,0 87.47153099999997,96.4538395" fill="none" instance-id="-1" semantic-id="34" stroke="rgb(178,0,0)" stroke-width="0.1"/>
  <path d="M 91.39653099999998,87.70783949999999 A 3.1559,3.1559 0.0 0,0 90.633531,85.7468395" fill="none" instance-id="-1" semantic-id="34" stroke="rgb(178,0,0)" stroke-width="0.1"/>
  <path d="M 90.633531,90.6618395 A 27.1272,27.1272 0.0 0,0 90.633531,85.7468395" fill="none" instance-id="-1" semantic-id="34" stroke="rgb(178,0,0)" stroke-width="0.1"/>
  <path d="M 90.39653099999998,86.6288395 A 0.675,0.675 0.0 0,0 89.72153099999997,85.9538395" fill="none" instance-id="-1" semantic-id="34" stroke="rgb(178,0,0)" stroke-width="0.1"/>
  <path d="M 90.518531,85.71983949999999 A 0.2,0.2 0.0 0,0 90.39653099999998,85.90383949999999" fill="none" instance-id="-1" semantic-id="34" stroke="rgb(178,0,0)" stroke-width="0.1"/>
  <path d="M 90.633531,85.7468395 A 0.1,0.1 0.0 0,0 90.518531,85.71983949999999" fill="none" stroke="rgb(178,0,0)" stroke-width="0.1"/>
  <path d="M 87.47153099999997,85.9538395 A 0.675,0.675 0.0 0,0 86.79653099999996,86.6288395" fill="none" instance-id="-1" semantic-id="34" stroke="rgb(178,0,0)" stroke-width="0.1"/>
  <path d="M 90.633531,90.6618395 A 3.1559,3.1559 0.0 0,0 91.39653099999998,88.6998395" fill="none" instance-id="-1" semantic-id="34" stroke="rgb(178,0,0)" stroke-width="0.1"/>
  <path d="M 90.39653099999998,90.5038395 A 0.2,0.2 0.0 0,0 90.518531,90.6888395" fill="none" instance-id="-1" semantic-id="34" stroke="rgb(178,0,0)" stroke-width="0.1"/>
  <path d="M 89.72153099999997,90.4538395 A 0.675,0.675 0.0 0,0 90.39653099999998,89.77883949999999" fill="none" instance-id="-1" semantic-id="34" stroke="rgb(178,0,0)" stroke-width="0.1"/>
  <path d="M 90.518531,90.6888395 A 0.1,0.1 0.0 0,0 90.633531,90.6618395" fill="none" stroke="rgb(178,0,0)" stroke-width="0.1"/>
  <path d="M 86.79653099999996,89.77883949999999 A 0.675,0.675 0.0 0,0 87.47153099999997,90.4538395" fill="none" instance-id="-1" semantic-id="34" stroke="rgb(178,0,0)" stroke-width="0.1"/>
  <path d="M 98.47153099999997,97.9538395 A 0.675,0.675 0.0 0,0 97.79653099999996,98.6288395" fill="none" instance-id="-1" semantic-id="34" stroke="rgb(178,0,0)" stroke-width="0.1"/>
  <path d="M 98.47153099999997,91.9538395 A 0.675,0.675 0.0 0,0 97.79653099999996,92.6288395" fill="none" instance-id="-1" semantic-id="34" stroke="rgb(178,0,0)" stroke-width="0.1"/>
  <path d="M 97.79653099999996,95.77883949999999 A 0.675,0.675 0.0 0,0 98.47153099999997,96.4538395" fill="none" instance-id="-1" semantic-id="34" stroke="rgb(178,0,0)" stroke-width="0.1"/>
  <path d="M 98.47153099999997,85.9538395 A 0.675,0.675 0.0 0,0 97.79653099999996,86.6288395" fill="none" instance-id="-1" semantic-id="34" stroke="rgb(178,0,0)" stroke-width="0.1"/>
  <path d="M 97.79653099999996,89.77883949999999 A 0.675,0.675 0.0 0,0 98.47153099999997,90.4538395" fill="none" instance-id="-1" semantic-id="34" stroke="rgb(178,0,0)" stroke-width="0.1"/>
 </g>
 <g id="layer百叶窗" inkscape:groupmode="layer" inkscape:label="百叶窗">
  <text fill="rgb(178,0,0)" font-family="Noto Sans CJK SC" font-size="2" transform="rotate(-0.0,1.1255309999999668,57.5540395)" x="1.1255309999999668" y="57.5540395">
   BY07
  </text>
  <text fill="rgb(178,0,0)" font-family="Noto Sans CJK SC" font-size="2" transform="rotate(-0.0,40.65153099999998,57.5540395)" x="40.65153099999998" y="57.5540395">
   BY07
  </text>
  <text fill="rgb(178,0,0)" font-family="Noto Sans CJK SC" font-size="2" transform="rotate(-0.0,79.51153099999999,57.5540395)" x="79.51153099999999" y="57.5540395">
   BY07
  </text>
 </g>
 <g id="layer砖墙" inkscape:groupmode="layer" inkscape:label="砖墙">
  <path d="M 97.79653099999996,68.95393949999999 L 97.79653099999996,58.95393949999999" fill="none" instance-id="-1" semantic-id="1" stroke="rgb(0,0,178)" stroke-width="0.1"/>
  <path d="M 100.0,58.95393949999999 L 97.79653099999996,58.95393949999999" fill="none" instance-id="-1" semantic-id="1" stroke="rgb(0,0,178)" stroke-width="0.1"/>
  <path d="M 100.0,60.95393949999999 L 99.79653099999996,60.95393949999999" fill="none" instance-id="-1" semantic-id="1" stroke="rgb(0,0,178)" stroke-width="0.1"/>
  <path d="M 99.79653099999996,64.95393949999999 L 99.79653099999996,60.95393949999999" fill="none" instance-id="-1" semantic-id="1" stroke="rgb(0,0,178)" stroke-width="0.1"/>
  <path d="M 21.796530999999987,64.95393949999999 L 21.796530999999987,60.95393949999999" fill="none" instance-id="-1" semantic-id="1" stroke="rgb(0,0,178)" stroke-width="0.1"/>
  <path d="M 23.79653099999996,60.95393949999999 L 21.796530999999987,60.95393949999999" fill="none" instance-id="-1" semantic-id="1" stroke="rgb(0,0,178)" stroke-width="0.1"/>
  <path d="M 23.79653099999996,64.95393949999999 L 23.79653099999996,60.95393949999999" fill="none" instance-id="-1" semantic-id="1" stroke="rgb(0,0,178)" stroke-width="0.1"/>
  <path d="M 25.79653099999996,68.95393949999999 L 25.79653099999996,58.95393949999999" fill="none" instance-id="-1" semantic-id="1" stroke="rgb(0,0,178)" stroke-width="0.1"/>
  <path d="M 25.79653099999996,58.95393949999999 L 19.796530999999987,58.95393949999999" fill="none" instance-id="-1" semantic-id="1" stroke="rgb(0,0,178)" stroke-width="0.1"/>
  <path d="M 19.796530999999987,68.95393949999999 L 19.796530999999987,58.95393949999999" fill="none" instance-id="-1" semantic-id="1" stroke="rgb(0,0,178)" stroke-width="0.1"/>
  <path d="M 60.79653099999996,68.95393949999999 L 60.79653099999996,60.95393949999999" fill="none" instance-id="-1" semantic-id="1" stroke="rgb(0,0,178)" stroke-width="0.1"/>
  <path d="M 62.79653099999996,60.95393949999999 L 60.79653099999996,60.95393949999999" fill="none" instance-id="-1" semantic-id="1" stroke="rgb(0,0,178)" stroke-width="0.1"/>
  <path d="M 62.79653099999996,68.95393949999999 L 62.79653099999996,60.95393949999999" fill="none" instance-id="-1" semantic-id="1" stroke="rgb(0,0,178)" stroke-width="0.1"/>
  <path d="M 64.79653099999996,58.95393949999999 L 58.79653099999996,58.95393949999999" fill="none" instance-id="-1" semantic-id="1" stroke="rgb(0,0,178)" stroke-width="0.1"/>
  <path d="M 64.79653099999996,68.95393949999999 L 64.79653099999996,58.95393949999999" fill="none" instance-id="-1" semantic-id="1" stroke="rgb(0,0,178)" stroke-width="0.1"/>
  <path d="M 58.79653099999996,68.95393949999999 L 58.79653099999996,58.95393949999999" fill="none" instance-id="-1" semantic-id="1" stroke="rgb(0,0,178)" stroke-width="0.1"/>
  <path d="M 62.79653099999996,68.95393949999999 L 60.79653099999996,68.95393949999999" fill="none" instance-id="-1" semantic-id="1" stroke="rgb(0,0,178)" stroke-width="0.1"/>
  <path d="M 52.79653099999996,70.95393949999999 L 52.79653099999996,68.95393949999999" fill="none" instance-id="-1" semantic-id="1" stroke="rgb(0,0,178)" stroke-width="0.1"/>
  <path d="M 52.79653099999996,68.95393949999999 L 58.79653099999996,68.95393949999999" fill="none" instance-id="-1" semantic-id="1" stroke="rgb(0,0,178)" stroke-width="0.1"/>
  <path d="M 70.79653099999996,70.95393949999999 L 70.79653099999996,68.95393949999999" fill="none" instance-id="-1" semantic-id="1" stroke="rgb(0,0,178)" stroke-width="0.1"/>
  <path d="M 70.79653099999996,70.95393949999999 L 52.79653099999996,70.95393949999999" fill="none" instance-id="-1" semantic-id="1" stroke="rgb(0,0,178)" stroke-width="0.1"/>
  <path d="M 70.79653099999996,68.95393949999999 L 64.79653099999996,68.95393949999999" fill="none" instance-id="-1" semantic-id="1" stroke="rgb(0,0,178)" stroke-width="0.1"/>
  <path d="M 91.79653099999996,70.95393949999999 L 91.79653099999996,68.95393949999999" fill="none" instance-id="-1" semantic-id="1" stroke="rgb(0,0,178)" stroke-width="0.1"/>
  <path d="M 91.79653099999996,68.95393949999999 L 97.79653099999996,68.95393949999999" fill="none" instance-id="-1" semantic-id="1" stroke="rgb(0,0,178)" stroke-width="0.1"/>
  <path d="M 13.796530999999987,68.95393949999999 L 19.796530999999987,68.95393949999999" fill="none" instance-id="-1" semantic-id="1" stroke="rgb(0,0,178)" stroke-width="0.1"/>
  <path d="M 13.796530999999987,70.95393949999999 L 13.796530999999987,68.95393949999999" fill="none" instance-id="-1" semantic-id="1" stroke="rgb(0,0,178)" stroke-width="0.1"/>
  <path d="M 31.79653099999996,68.95393949999999 L 25.79653099999996,68.95393949999999" fill="none" instance-id="-1" semantic-id="1" stroke="rgb(0,0,178)" stroke-width="0.1"/>
  <path d="M 31.79653099999996,70.95393949999999 L 25.79653099999996,70.95393949999999" fill="none" instance-id="-1" semantic-id="1" stroke="rgb(0,0,178)" stroke-width="0.1"/>
  <path d="M 31.79653099999996,70.95393949999999 L 31.79653099999996,68.95393949999999" fill="none" instance-id="-1" semantic-id="1" stroke="rgb(0,0,178)" stroke-width="0.1"/>
  <path d="M 19.796530999999987,70.95393949999999 L 13.796530999999987,70.95393949999999" fill="none" instance-id="-1" semantic-id="1" stroke="rgb(0,0,178)" stroke-width="0.1"/>
  <path d="M 97.79653099999996,70.95393949999999 L 91.79653099999996,70.95393949999999" fill="none" instance-id="-1" semantic-id="1" stroke="rgb(0,0,178)" stroke-width="0.1"/>
  <path d="M 62.79653099999996,68.95393949999999 L 60.79653099999996,68.95393949999999" fill="none" instance-id="-1" semantic-id="1" stroke="rgb(0,0,178)" stroke-width="0.1"/>
 </g>
 <g id="layer窗" inkscape:groupmode="layer" inkscape:label="窗">
  <text fill="rgb(178,0,0)" font-family="Noto Sans CJK SC" font-size="2" transform="rotate(-0.0,1.0945309999999893,75.1518395)" x="1.0945309999999893" y="75.1518395">
   C27
  </text>
  <text fill="rgb(178,0,0)" font-family="Noto Sans CJK SC" font-size="2" transform="rotate(-0.0,40.138531,75.1518395)" x="40.138531" y="75.1518395">
   C27
  </text>
  <text fill="rgb(178,0,0)" font-family="Noto Sans CJK SC" font-size="2" transform="rotate(-0.0,79.77453099999997,75.1518395)" x="79.77453099999997" y="75.1518395">
   C27
  </text>
 </g>
</svg>