<?xml version="1.0" encoding="utf-8"?>
<svg style="background-color: #000;" version="1.1" viewBox="0 0 100.0 100.0" xmlns="http://www.w3.org/2000/svg" xmlns:inkscape="http://www.inkscape.org/namespaces/inkscape">
 <g id="layer1HZ1" inkscape:groupmode="layer" inkscape:label="1HZ1">
  <path d="M 25.85939853049996,100.0 L 29.001431500000024,94.821535" fill="none" stroke="rgb(178,0,0)" stroke-width="0.1"/>
  <path d="M 29.001431500000024,94.821535 L 53.95943150000005,94.821535" fill="none" stroke="rgb(178,0,0)" stroke-width="0.1"/>
  <text fill="rgb(178,0,0)" font-family="Noto Sans CJK SC" font-size="2" transform="rotate(-0.0,27.350431500000013,93.931535)" x="27.350431500000013" y="93.931535">
   空调外机,详见暖施
  </text>
 </g>
 <g id="layer1S2" inkscape:groupmode="layer" inkscape:label="1S2">
  <path d="M 35.45843150000002,61.31453499999999 L 35.45843150000002,13.219934999999992" fill="none" stroke="rgb(178,0,0)" stroke-width="0.1"/>
  <path d="M 49.45843150000002,61.31453499999999 L 49.45843150000002,13.219934999999992" fill="none" stroke="rgb(178,0,0)" stroke-width="0.1"/>
  <path d="M 35.45843150000002,14.053234999999994 L 49.45843150000002,14.053234999999994" fill="none" stroke="rgb(178,0,0)" stroke-width="0.1"/>
  <path d="M 49.45843150000002,61.31453499999999 L 49.45843150000002,13.219934999999992" fill="none" stroke="rgb(178,0,0)" stroke-width="0.1"/>
  <path d="M 51.45843150000002,61.31453499999999 L 51.45843150000002,13.219934999999992" fill="none" stroke="rgb(178,0,0)" stroke-width="0.1"/>
  <path d="M 49.45843150000002,14.053234999999994 L 48.62543150000005,14.053234999999994" fill="none" stroke="rgb(178,0,0)" stroke-width="0.1"/>
  <path d="M 51.45843150000002,14.053234999999994 L 52.29243150000002,14.053234999999994" fill="none" stroke="rgb(178,0,0)" stroke-width="0.1"/>
  <path d="M 49.45843150000002,14.053234999999994 L 51.45843150000002,14.053234999999994" fill="none" stroke="rgb(178,0,0)" stroke-width="0.1"/>
  <path d="M 51.45843150000002,58.31453499999999 L 51.45843150000002,13.219934999999992" fill="none" stroke="rgb(178,0,0)" stroke-width="0.1"/>
  <path d="M 68.45843150000002,58.31453499999999 L 68.45843150000002,13.219934999999992" fill="none" stroke="rgb(178,0,0)" stroke-width="0.1"/>
  <path d="M 51.45843150000002,14.053234999999994 L 68.45843150000002,14.053234999999994" fill="none" stroke="rgb(178,0,0)" stroke-width="0.1"/>
  <path d="M 68.45843150000002,58.313935 L 68.45843150000002,13.219934999999992" fill="none" stroke="rgb(178,0,0)" stroke-width="0.1"/>
  <path d="M 71.45843150000002,58.31453499999999 L 71.45843150000002,13.219934999999992" fill="none" stroke="rgb(178,0,0)" stroke-width="0.1"/>
  <path d="M 68.45843150000002,14.053234999999994 L 67.62543150000005,14.053234999999994" fill="none" stroke="rgb(178,0,0)" stroke-width="0.1"/>
  <path d="M 71.45843150000002,14.053234999999994 L 72.29243150000002,14.053234999999994" fill="none" stroke="rgb(178,0,0)" stroke-width="0.1"/>
  <path d="M 68.45843150000002,14.053234999999994 L 71.45843150000002,14.053234999999994" fill="none" stroke="rgb(178,0,0)" stroke-width="0.1"/>
  <path d="M 71.45843150000002,58.31453499999999 L 71.45843150000002,13.219934999999992" fill="none" stroke="rgb(178,0,0)" stroke-width="0.1"/>
  <path d="M 74.45843150000002,58.31453499999999 L 74.45843150000002,13.219934999999992" fill="none" stroke="rgb(178,0,0)" stroke-width="0.1"/>
  <path d="M 71.45843150000002,14.053234999999994 L 70.62543150000005,14.053234999999994" fill="none" stroke="rgb(178,0,0)" stroke-width="0.1"/>
  <path d="M 74.45843150000002,14.053234999999994 L 75.29243150000002,14.053234999999994" fill="none" stroke="rgb(178,0,0)" stroke-width="0.1"/>
  <path d="M 71.45843150000002,14.053234999999994 L 74.45843150000002,14.053234999999994" fill="none" stroke="rgb(178,0,0)" stroke-width="0.1"/>
  <path d="M 74.45843150000002,58.31453499999999 L 74.45843150000002,13.219934999999992" fill="none" stroke="rgb(178,0,0)" stroke-width="0.1"/>
  <path d="M 77.70843150000002,59.31453499999999 L 77.70843150000002,13.219934999999992" fill="none" stroke="rgb(178,0,0)" stroke-width="0.1"/>
  <path d="M 74.45843150000002,14.053234999999994 L 73.62543150000005,14.053234999999994" fill="none" stroke="rgb(178,0,0)" stroke-width="0.1"/>
  <path d="M 77.70843150000002,14.053234999999994 L 78.54243150000002,14.053234999999994" fill="none" stroke="rgb(178,0,0)" stroke-width="0.1"/>
  <path d="M 74.45843150000002,14.053234999999994 L 77.70843150000002,14.053234999999994" fill="none" stroke="rgb(178,0,0)" stroke-width="0.1"/>
  <path d="M 77.70843150000002,59.31453499999999 L 77.70843150000002,14.219934999999992" fill="none" stroke="rgb(178,0,0)" stroke-width="0.1"/>
  <path d="M 77.70843150000002,15.053234999999994 L 100.0,15.053234999999994" fill="none" stroke="rgb(178,0,0)" stroke-width="0.1"/>
  <path d="M 29.458431500000017,58.31453499999999 L 29.458431500000017,13.219934999999992" fill="none" stroke="rgb(178,0,0)" stroke-width="0.1"/>
  <path d="M 15.458431500000017,58.31453499999999 L 15.458431500000017,13.219934999999992" fill="none" stroke="rgb(178,0,0)" stroke-width="0.1"/>
  <path d="M 29.458431500000017,14.053234999999994 L 15.458431500000017,14.053234999999994" fill="none" stroke="rgb(178,0,0)" stroke-width="0.1"/>
  <path d="M 29.458431500000017,58.313935 L 29.458431500000017,13.219934999999992" fill="none" stroke="rgb(178,0,0)" stroke-width="0.1"/>
  <path d="M 32.45843150000002,58.31453499999999 L 32.45843150000002,13.219934999999992" fill="none" stroke="rgb(178,0,0)" stroke-width="0.1"/>
  <path d="M 29.458431500000017,14.053234999999994 L 28.625431500000047,14.053234999999994" fill="none" stroke="rgb(178,0,0)" stroke-width="0.1"/>
  <path d="M 32.45843150000002,14.053234999999994 L 33.29243150000002,14.053234999999994" fill="none" stroke="rgb(178,0,0)" stroke-width="0.1"/>
  <path d="M 29.458431500000017,14.053234999999994 L 32.45843150000002,14.053234999999994" fill="none" stroke="rgb(178,0,0)" stroke-width="0.1"/>
  <path d="M 32.45843150000002,58.31453499999999 L 32.45843150000002,13.219934999999992" fill="none" stroke="rgb(178,0,0)" stroke-width="0.1"/>
  <path d="M 35.45843150000002,58.31453499999999 L 35.45843150000002,13.219934999999992" fill="none" stroke="rgb(178,0,0)" stroke-width="0.1"/>
  <path d="M 32.45843150000002,14.053234999999994 L 31.625431500000047,14.053234999999994" fill="none" stroke="rgb(178,0,0)" stroke-width="0.1"/>
  <path d="M 35.45843150000002,14.053234999999994 L 36.29243150000002,14.053234999999994" fill="none" stroke="rgb(178,0,0)" stroke-width="0.1"/>
  <path d="M 32.45843150000002,14.053234999999994 L 35.45843150000002,14.053234999999994" fill="none" stroke="rgb(178,0,0)" stroke-width="0.1"/>
  <path d="M 13.458431500000017,61.31453499999999 L 13.458431500000017,13.219934999999992" fill="none" stroke="rgb(178,0,0)" stroke-width="0.1"/>
  <path d="M 15.458431500000017,61.31453499999999 L 15.458431500000017,13.219934999999992" fill="none" stroke="rgb(178,0,0)" stroke-width="0.1"/>
  <path d="M 13.458431500000017,14.053234999999994 L 12.625431500000047,14.053234999999994" fill="none" stroke="rgb(178,0,0)" stroke-width="0.1"/>
  <path d="M 15.458431500000017,14.053234999999994 L 16.29243150000002,14.053234999999994" fill="none" stroke="rgb(178,0,0)" stroke-width="0.1"/>
  <path d="M 13.458431500000017,14.053234999999994 L 15.458431500000017,14.053234999999994" fill="none" stroke="rgb(178,0,0)" stroke-width="0.1"/>
  <path d="M 13.458431500000017,60.31453499999999 L 13.458431500000017,13.219934999999992" fill="none" stroke="rgb(178,0,0)" stroke-width="0.1"/>
  <path d="M 0.0,14.053234999999994 L 13.458431500000017,14.053234999999994" fill="none" stroke="rgb(178,0,0)" stroke-width="0.1"/>
  <text fill="rgb(178,0,0)" font-family="Noto Sans CJK SC" font-size="2" transform="rotate(-0.0,38.50643150000002,12.386634999999998)" x="38.50643150000002" y="12.386634999999998">
   1400
  </text>
  <text fill="rgb(178,0,0)" font-family="Noto Sans CJK SC" font-size="2" transform="rotate(-0.0,47.60143150000005,12.386634999999998)" x="47.60143150000005" y="12.386634999999998">
   200
  </text>
  <text fill="rgb(178,0,0)" font-family="Noto Sans CJK SC" font-size="2" transform="rotate(-0.0,56.00643150000002,12.386634999999998)" x="56.00643150000002" y="12.386634999999998">
   1700
  </text>
  <text fill="rgb(178,0,0)" font-family="Noto Sans CJK SC" font-size="2" transform="rotate(-0.0,67.10143150000005,12.386634999999998)" x="67.10143150000005" y="12.386634999999998">
   300
  </text>
  <text fill="rgb(178,0,0)" font-family="Noto Sans CJK SC" font-size="2" transform="rotate(-0.0,70.10143150000005,18.316834999999998)" x="70.10143150000005" y="18.316834999999998">
   300
  </text>
  <text fill="rgb(178,0,0)" font-family="Noto Sans CJK SC" font-size="2" transform="rotate(-0.0,73.22643150000005,12.386634999999998)" x="73.22643150000005" y="12.386634999999998">
   325
  </text>
  <text fill="rgb(178,0,0)" font-family="Noto Sans CJK SC" font-size="2" transform="rotate(-0.0,87.14943150000005,13.386634999999998)" x="87.14943150000005" y="13.386634999999998">
   2650
  </text>
  <text fill="rgb(178,0,0)" font-family="Noto Sans CJK SC" font-size="2" transform="rotate(-0.0,18.50643150000002,12.386634999999998)" x="18.50643150000002" y="12.386634999999998">
   1400
  </text>
  <text fill="rgb(178,0,0)" font-family="Noto Sans CJK SC" font-size="2" transform="rotate(-0.0,28.101431500000047,12.386634999999998)" x="28.101431500000047" y="12.386634999999998">
   300
  </text>
  <text fill="rgb(178,0,0)" font-family="Noto Sans CJK SC" font-size="2" transform="rotate(-0.0,31.101431500000047,18.316834999999998)" x="31.101431500000047" y="18.316834999999998">
   300
  </text>
  <text fill="rgb(178,0,0)" font-family="Noto Sans CJK SC" font-size="2" transform="rotate(-0.0,11.601431500000047,12.386634999999998)" x="11.601431500000047" y="12.386634999999998">
   200
  </text>
  <text fill="rgb(178,0,0)" font-family="Noto Sans CJK SC" font-size="2" transform="rotate(-0.0,1.0064315000000192,12.386634999999998)" x="1.0064315000000192" y="12.386634999999998">
   1700
  </text>
 </g>
 <g id="layerAXIS" inkscape:groupmode="layer" inkscape:label="AXIS">
  <path d="M 32.45843150000002,0.0 L 32.45843150000002,19.532534999999996" fill="none" stroke="rgb(178,0,0)" stroke-width="0.1"/>
  <path d="M 71.45843150000002,0.0 L 71.45843150000002,19.532534999999996" fill="none" stroke="rgb(178,0,0)" stroke-width="0.1"/>
 </g>
 <g id="layerDOTE" inkscape:groupmode="layer" inkscape:label="DOTE">
  <path d="M 71.45843150000002,100.0 L 71.45843150000002,19.532534999999996" fill="none" stroke="rgb(178,0,0)" stroke-width="0.1"/>
  <path d="M 32.45843150000002,100.0 L 32.45843150000002,19.532534999999996" fill="none" stroke="rgb(178,0,0)" stroke-width="0.1"/>
 </g>
</svg>