<?xml version="1.0" encoding="utf-8"?>
<svg style="background-color: #000;" version="1.1" viewBox="0 0 100.0 100.0" xmlns="http://www.w3.org/2000/svg" xmlns:inkscape="http://www.inkscape.org/namespaces/inkscape">
 <g id="layer1HZ1" inkscape:groupmode="layer" inkscape:label="1HZ1">
  <text fill="rgb(178,0,0)" font-family="Noto Sans CJK SC" font-size="2" transform="rotate(-0.0,64.71443150000005,0.059534999999982574)" x="64.71443150000005" y="0.059534999999982574">
   配电
  </text>
  <text fill="rgb(178,0,0)" font-family="Noto Sans CJK SC" font-size="2" transform="rotate(-0.0,21.951431500000012,0.059534999999982574)" x="21.951431500000012" y="0.059534999999982574">
   储藏
  </text>
 </g>
 <g id="layer1S3" inkscape:groupmode="layer" inkscape:label="1S3">
  <path d="M 6.878431500000033,100.0 L 6.878431500000033,45.931535" fill="none" stroke="rgb(178,0,0)" stroke-width="0.1"/>
  <path d="M 6.878431500000033,77.44853499999999 L 6.878431500000033,71.371535" fill="none" stroke="rgb(178,0,0)" stroke-width="0.1"/>
  <path d="M 7.458431500000074,77.44853499999999 L 7.458431500000074,71.371535" fill="none" stroke="rgb(178,0,0)" stroke-width="0.1"/>
  <path d="M 6.878431500000033,72.205535 L 6.045431500000063,72.205535" fill="none" stroke="rgb(178,0,0)" stroke-width="0.1"/>
  <path d="M 7.458431500000074,72.205535 L 8.29243150000002,72.205535" fill="none" stroke="rgb(178,0,0)" stroke-width="0.1"/>
  <path d="M 6.878431500000033,72.205535 L 7.458431500000074,72.205535" fill="none" stroke="rgb(178,0,0)" stroke-width="0.1"/>
  <path d="M 7.458431500000074,77.44853499999999 L 7.458431500000074,71.371535" fill="none" stroke="rgb(178,0,0)" stroke-width="0.1"/>
  <path d="M 42.458431500000074,79.44853499999999 L 42.458431500000074,71.371535" fill="none" stroke="rgb(178,0,0)" stroke-width="0.1"/>
  <path d="M 7.458431500000074,72.205535 L 42.458431500000074,72.205535" fill="none" stroke="rgb(178,0,0)" stroke-width="0.1"/>
  <path d="M 42.458431500000074,79.44853499999999 L 42.458431500000074,71.371535" fill="none" stroke="rgb(178,0,0)" stroke-width="0.1"/>
  <path d="M 44.458431500000074,77.44853499999999 L 44.458431500000074,71.371535" fill="none" stroke="rgb(178,0,0)" stroke-width="0.1"/>
  <path d="M 42.458431500000074,72.205535 L 41.62543149999999,72.205535" fill="none" stroke="rgb(178,0,0)" stroke-width="0.1"/>
  <path d="M 44.458431500000074,72.205535 L 45.29243150000002,72.205535" fill="none" stroke="rgb(178,0,0)" stroke-width="0.1"/>
  <path d="M 42.458431500000074,72.205535 L 44.458431500000074,72.205535" fill="none" stroke="rgb(178,0,0)" stroke-width="0.1"/>
  <path d="M 44.458431500000074,77.44853499999999 L 44.458431500000074,71.371535" fill="none" stroke="rgb(178,0,0)" stroke-width="0.1"/>
  <path d="M 46.458431500000074,90.44853499999999 L 46.458431500000074,71.371535" fill="none" stroke="rgb(178,0,0)" stroke-width="0.1"/>
  <path d="M 44.458431500000074,72.205535 L 43.62543149999999,72.205535" fill="none" stroke="rgb(178,0,0)" stroke-width="0.1"/>
  <path d="M 46.458431500000074,72.205535 L 47.29243150000002,72.205535" fill="none" stroke="rgb(178,0,0)" stroke-width="0.1"/>
  <path d="M 44.458431500000074,72.205535 L 46.458431500000074,72.205535" fill="none" stroke="rgb(178,0,0)" stroke-width="0.1"/>
  <path d="M 46.458431500000074,90.44853499999999 L 46.458431500000074,71.371535" fill="none" stroke="rgb(178,0,0)" stroke-width="0.1"/>
  <path d="M 49.458431500000074,86.44853499999999 L 49.458431500000074,71.371535" fill="none" stroke="rgb(178,0,0)" stroke-width="0.1"/>
  <path d="M 46.458431500000074,72.205535 L 45.62543149999999,72.205535" fill="none" stroke="rgb(178,0,0)" stroke-width="0.1"/>
  <path d="M 49.458431500000074,72.205535 L 50.29243150000002,72.205535" fill="none" stroke="rgb(178,0,0)" stroke-width="0.1"/>
  <path d="M 46.458431500000074,72.205535 L 49.458431500000074,72.205535" fill="none" stroke="rgb(178,0,0)" stroke-width="0.1"/>
  <path d="M 83.45843150000007,86.44853499999999 L 83.45843150000007,71.371535" fill="none" stroke="rgb(178,0,0)" stroke-width="0.1"/>
  <path d="M 85.45843150000007,86.44853499999999 L 85.45843150000007,71.371535" fill="none" stroke="rgb(178,0,0)" stroke-width="0.1"/>
  <path d="M 83.45843150000007,72.205535 L 82.62543149999999,72.205535" fill="none" stroke="rgb(178,0,0)" stroke-width="0.1"/>
  <path d="M 85.45843150000007,72.205535 L 86.29243150000002,72.205535" fill="none" stroke="rgb(178,0,0)" stroke-width="0.1"/>
  <path d="M 83.45843150000007,72.205535 L 85.45843150000007,72.205535" fill="none" stroke="rgb(178,0,0)" stroke-width="0.1"/>
  <path d="M 85.45843150000007,86.44853499999999 L 85.45843150000007,71.371535" fill="none" stroke="rgb(178,0,0)" stroke-width="0.1"/>
  <path d="M 87.45843150000007,86.44853499999999 L 87.45843150000007,71.371535" fill="none" stroke="rgb(178,0,0)" stroke-width="0.1"/>
  <path d="M 85.45843150000007,72.205535 L 84.62543149999999,72.205535" fill="none" stroke="rgb(178,0,0)" stroke-width="0.1"/>
  <path d="M 87.45843150000007,72.205535 L 88.29243150000002,72.205535" fill="none" stroke="rgb(178,0,0)" stroke-width="0.1"/>
  <path d="M 85.45843150000007,72.205535 L 87.45843150000007,72.205535" fill="none" stroke="rgb(178,0,0)" stroke-width="0.1"/>
  <path d="M 87.45843150000007,86.44853499999999 L 87.45843150000007,71.371535" fill="none" stroke="rgb(178,0,0)" stroke-width="0.1"/>
  <path d="M 87.45843150000007,72.205535 L 100.0,72.205535" fill="none" stroke="rgb(178,0,0)" stroke-width="0.1"/>
  <path d="M 41.62543149999999,80.28153500000002 L 28.946431500000017,80.28153500000002" fill="none" stroke="rgb(178,0,0)" stroke-width="0.1"/>
  <path d="M 41.62543149999999,78.28153500000002 L 28.946431500000017,78.28153500000002" fill="none" stroke="rgb(178,0,0)" stroke-width="0.1"/>
  <path d="M 29.779431499999987,80.28153500000002 L 29.779431499999987,81.11553500000002" fill="none" stroke="rgb(178,0,0)" stroke-width="0.1"/>
  <path d="M 29.779431499999987,78.28153500000002 L 29.779431499999987,77.44853499999999" fill="none" stroke="rgb(178,0,0)" stroke-width="0.1"/>
  <path d="M 29.779431499999987,80.28153500000002 L 29.779431499999987,78.28153500000002" fill="none" stroke="rgb(178,0,0)" stroke-width="0.1"/>
  <path d="M 41.62543149999999,80.28153500000002 L 28.946431500000017,80.28153500000002" fill="none" stroke="rgb(178,0,0)" stroke-width="0.1"/>
  <path d="M 43.62543149999999,87.28153500000002 L 28.946431500000017,87.28153500000002" fill="none" stroke="rgb(178,0,0)" stroke-width="0.1"/>
  <path d="M 29.779431499999987,80.28153500000002 L 29.779431499999987,87.28153500000002" fill="none" stroke="rgb(178,0,0)" stroke-width="0.1"/>
  <path d="M 43.62543149999999,87.28153500000002 L 28.946431500000017,87.28153500000002" fill="none" stroke="rgb(178,0,0)" stroke-width="0.1"/>
  <path d="M 43.62543149999999,89.28153500000002 L 28.946431500000017,89.28153500000002" fill="none" stroke="rgb(178,0,0)" stroke-width="0.1"/>
  <path d="M 29.779431499999987,87.28153500000002 L 29.779431499999987,86.44853499999999" fill="none" stroke="rgb(178,0,0)" stroke-width="0.1"/>
  <path d="M 29.779431499999987,89.28153500000002 L 29.779431499999987,90.11553500000002" fill="none" stroke="rgb(178,0,0)" stroke-width="0.1"/>
  <path d="M 29.779431499999987,87.28153500000002 L 29.779431499999987,89.28153500000002" fill="none" stroke="rgb(178,0,0)" stroke-width="0.1"/>
  <path d="M 43.62543149999999,89.28153500000002 L 28.946431500000017,89.28153500000002" fill="none" stroke="rgb(178,0,0)" stroke-width="0.1"/>
  <path d="M 43.62543149999999,91.28153500000002 L 28.946431500000017,91.28153500000002" fill="none" stroke="rgb(178,0,0)" stroke-width="0.1"/>
  <path d="M 29.779431499999987,89.28153500000002 L 29.779431499999987,88.44853499999999" fill="none" stroke="rgb(178,0,0)" stroke-width="0.1"/>
  <path d="M 29.779431499999987,91.28153500000002 L 29.779431499999987,92.11553500000002" fill="none" stroke="rgb(178,0,0)" stroke-width="0.1"/>
  <path d="M 29.779431499999987,89.28153500000002 L 29.779431499999987,91.28153500000002" fill="none" stroke="rgb(178,0,0)" stroke-width="0.1"/>
  <path d="M 43.62543149999999,91.28153500000002 L 28.946431500000017,91.28153500000002" fill="none" stroke="rgb(178,0,0)" stroke-width="0.1"/>
  <path d="M 43.62543149999999,93.28153500000002 L 28.946431500000017,93.28153500000002" fill="none" stroke="rgb(178,0,0)" stroke-width="0.1"/>
  <path d="M 29.779431499999987,91.28153500000002 L 29.779431499999987,90.44853499999999" fill="none" stroke="rgb(178,0,0)" stroke-width="0.1"/>
  <path d="M 29.779431499999987,93.28153500000002 L 29.779431499999987,94.11553500000002" fill="none" stroke="rgb(178,0,0)" stroke-width="0.1"/>
  <path d="M 29.779431499999987,91.28153500000002 L 29.779431499999987,93.28153500000002" fill="none" stroke="rgb(178,0,0)" stroke-width="0.1"/>
  <path d="M 49.458431500000074,90.44853499999999 L 49.458431500000074,71.371535" fill="none" stroke="rgb(178,0,0)" stroke-width="0.1"/>
  <path d="M 51.00843150000003,90.44853499999999 L 51.00843150000003,71.371535" fill="none" stroke="rgb(178,0,0)" stroke-width="0.1"/>
  <path d="M 49.458431500000074,72.205535 L 48.62543149999999,72.205535" fill="none" stroke="rgb(178,0,0)" stroke-width="0.1"/>
  <path d="M 51.00843150000003,72.205535 L 51.842431499999975,72.205535" fill="none" stroke="rgb(178,0,0)" stroke-width="0.1"/>
  <path d="M 49.458431500000074,72.205535 L 51.00843150000003,72.205535" fill="none" stroke="rgb(178,0,0)" stroke-width="0.1"/>
  <path d="M 51.00843150000003,90.44853499999999 L 51.00843150000003,71.371535" fill="none" stroke="rgb(178,0,0)" stroke-width="0.1"/>
  <path d="M 83.45843150000007,90.44853499999999 L 83.45843150000007,71.371535" fill="none" stroke="rgb(178,0,0)" stroke-width="0.1"/>
  <path d="M 51.00843150000003,72.205535 L 83.45843150000007,72.205535" fill="none" stroke="rgb(178,0,0)" stroke-width="0.1"/>
  <path d="M 84.62543149999999,89.28153500000002 L 63.53643150000005,89.28153500000002" fill="none" stroke="rgb(178,0,0)" stroke-width="0.1"/>
  <path d="M 64.3704315,100.0 L 64.3704315,89.28153500000002" fill="none" stroke="rgb(178,0,0)" stroke-width="0.1"/>
  <text fill="rgb(178,0,0)" font-family="Noto Sans CJK SC" font-size="2" transform="rotate(-0.0,5.264431500000001,70.53853499999997)" x="5.264431500000001" y="70.53853499999997">
   58
  </text>
  <text fill="rgb(178,0,0)" font-family="Noto Sans CJK SC" font-size="2" transform="rotate(-0.0,21.14943149999999,70.53853499999997)" x="21.14943149999999" y="70.53853499999997">
   3500
  </text>
  <text fill="rgb(178,0,0)" font-family="Noto Sans CJK SC" font-size="2" transform="rotate(-0.0,40.60143149999999,75.54553499999997)" x="40.60143149999999" y="75.54553499999997">
   200
  </text>
  <text fill="rgb(178,0,0)" font-family="Noto Sans CJK SC" font-size="2" transform="rotate(-0.0,40.27643150000006,70.53853499999997)" x="40.27643150000006" y="70.53853499999997">
   200
  </text>
  <text fill="rgb(178,0,0)" font-family="Noto Sans CJK SC" font-size="2" transform="rotate(-0.0,45.95943150000005,70.53853499999997)" x="45.95943150000005" y="70.53853499999997">
   300
  </text>
  <text fill="rgb(178,0,0)" font-family="Noto Sans CJK SC" font-size="2" transform="rotate(-0.0,81.60143149999999,70.53853499999997)" x="81.60143149999999" y="70.53853499999997">
   200
  </text>
  <text fill="rgb(178,0,0)" font-family="Noto Sans CJK SC" font-size="2" transform="rotate(-0.0,83.60143149999999,76.00253500000002)" x="83.60143149999999" y="76.00253500000002">
   200
  </text>
  <text fill="rgb(178,0,0)" font-family="Noto Sans CJK SC" font-size="2" transform="rotate(-90.0,28.11243150000007,82.13953500000002)" x="28.11243150000007" y="82.13953500000002">
   200
  </text>
  <text fill="rgb(178,0,0)" font-family="Noto Sans CJK SC" font-size="2" transform="rotate(-90.0,33.25143150000008,86.63953500000002)" x="33.25143150000008" y="86.63953500000002">
   700
  </text>
  <text fill="rgb(178,0,0)" font-family="Noto Sans CJK SC" font-size="2" transform="rotate(-90.0,28.11243150000007,91.13953500000002)" x="28.11243150000007" y="91.13953500000002">
   200
  </text>
  <text fill="rgb(178,0,0)" font-family="Noto Sans CJK SC" font-size="2" transform="rotate(-90.0,33.231431499999985,93.111535)" x="33.231431499999985" y="93.111535">
   200
  </text>
  <text fill="rgb(178,0,0)" font-family="Noto Sans CJK SC" font-size="2" transform="rotate(-90.0,28.11243150000007,97.04353500000002)" x="28.11243150000007" y="97.04353500000002">
   200
  </text>
  <text fill="rgb(178,0,0)" font-family="Noto Sans CJK SC" font-size="2" transform="rotate(-0.0,47.23343150000005,76.313535)" x="47.23343150000005" y="76.313535">
   155
  </text>
  <text fill="rgb(178,0,0)" font-family="Noto Sans CJK SC" font-size="2" transform="rotate(-0.0,63.42443150000008,70.53853499999997)" x="63.42443150000008" y="70.53853499999997">
   3245
  </text>
 </g>
 <g id="layerCOLUMN" inkscape:groupmode="layer" inkscape:label="COLUMN">
  <path d="M 44.458431500000074,91.28153500000002 L 49.458431500000074,91.28153500000002" fill="none" stroke="rgb(0,0,178)" stroke-width="0.1"/>
  <path d="M 49.458431500000074,91.28153500000002 L 49.458431500000074,87.28153500000002" fill="none" stroke="rgb(0,0,178)" stroke-width="0.1"/>
  <path d="M 49.458431500000074,87.28153500000002 L 44.458431500000074,87.28153500000002" fill="none" stroke="rgb(0,0,178)" stroke-width="0.1"/>
  <path d="M 44.458431500000074,87.28153500000002 L 44.458431500000074,91.28153500000002" fill="none" stroke="rgb(0,0,178)" stroke-width="0.1"/>
  <path d="M 83.45843150000007,91.28153500000002 L 87.45843150000007,91.28153500000002" fill="none" stroke="rgb(0,0,178)" stroke-width="0.1"/>
  <path d="M 87.45843150000007,91.28153500000002 L 87.45843150000007,87.28153500000002" fill="none" stroke="rgb(0,0,178)" stroke-width="0.1"/>
  <path d="M 87.45843150000007,87.28153500000002 L 83.45843150000007,87.28153500000002" fill="none" stroke="rgb(0,0,178)" stroke-width="0.1"/>
  <path d="M 83.45843150000007,87.28153500000002 L 83.45843150000007,91.28153500000002" fill="none" stroke="rgb(0,0,178)" stroke-width="0.1"/>
  <path d="M 44.458431500000074,91.28153500000002 L 49.458431500000074,91.28153500000002" fill="none" stroke="rgb(0,0,178)" stroke-width="0.1"/>
  <path d="M 49.458431500000074,91.28153500000002 L 49.458431500000074,87.28153500000002" fill="none" stroke="rgb(0,0,178)" stroke-width="0.1"/>
  <path d="M 49.458431500000074,87.28153500000002 L 44.458431500000074,87.28153500000002" fill="none" stroke="rgb(0,0,178)" stroke-width="0.1"/>
  <path d="M 44.458431500000074,87.28153500000002 L 44.458431500000074,91.28153500000002" fill="none" stroke="rgb(0,0,178)" stroke-width="0.1"/>
  <path d="M 83.45843150000007,91.28153500000002 L 87.45843150000007,91.28153500000002" fill="none" stroke="rgb(0,0,178)" stroke-width="0.1"/>
  <path d="M 87.45843150000007,91.28153500000002 L 87.45843150000007,87.28153500000002" fill="none" stroke="rgb(0,0,178)" stroke-width="0.1"/>
  <path d="M 87.45843150000007,87.28153500000002 L 83.45843150000007,87.28153500000002" fill="none" stroke="rgb(0,0,178)" stroke-width="0.1"/>
  <path d="M 83.45843150000007,87.28153500000002 L 83.45843150000007,91.28153500000002" fill="none" stroke="rgb(0,0,178)" stroke-width="0.1"/>
  <path d="M 83.45843150000007,32.28153500000002 L 87.45843150000007,32.28153500000002" fill="none" stroke="rgb(0,0,178)" stroke-width="0.1"/>
  <path d="M 87.45843150000007,32.28153500000002 L 87.45843150000007,28.28153500000002" fill="none" stroke="rgb(0,0,178)" stroke-width="0.1"/>
  <path d="M 87.45843150000007,28.28153500000002 L 83.45843150000007,28.28153500000002" fill="none" stroke="rgb(0,0,178)" stroke-width="0.1"/>
  <path d="M 83.45843150000007,28.28153500000002 L 83.45843150000007,32.28153500000002" fill="none" stroke="rgb(0,0,178)" stroke-width="0.1"/>
  <path d="M 44.458431500000074,91.28153500000002 L 49.458431500000074,91.28153500000002" fill="none" stroke="rgb(0,0,178)" stroke-width="0.1"/>
  <path d="M 49.458431500000074,91.28153500000002 L 49.458431500000074,87.28153500000002" fill="none" stroke="rgb(0,0,178)" stroke-width="0.1"/>
  <path d="M 49.458431500000074,87.28153500000002 L 44.458431500000074,87.28153500000002" fill="none" stroke="rgb(0,0,178)" stroke-width="0.1"/>
  <path d="M 44.458431500000074,87.28153500000002 L 44.458431500000074,91.28153500000002" fill="none" stroke="rgb(0,0,178)" stroke-width="0.1"/>
  <path d="M 83.45843150000007,91.28153500000002 L 87.45843150000007,91.28153500000002" fill="none" stroke="rgb(0,0,178)" stroke-width="0.1"/>
  <path d="M 87.45843150000007,91.28153500000002 L 87.45843150000007,87.28153500000002" fill="none" stroke="rgb(0,0,178)" stroke-width="0.1"/>
  <path d="M 87.45843150000007,87.28153500000002 L 83.45843150000007,87.28153500000002" fill="none" stroke="rgb(0,0,178)" stroke-width="0.1"/>
  <path d="M 83.45843150000007,87.28153500000002 L 83.45843150000007,91.28153500000002" fill="none" stroke="rgb(0,0,178)" stroke-width="0.1"/>
  <path d="M 9.458431500000074,32.28153500000002 L 5.458431500000074,32.28153500000002" fill="none" stroke="rgb(0,0,178)" stroke-width="0.1"/>
  <path d="M 5.458431500000074,32.28153500000002 L 5.458431500000074,28.28153500000002" fill="none" stroke="rgb(0,0,178)" stroke-width="0.1"/>
  <path d="M 5.458431500000074,28.28153500000002 L 9.458431500000074,28.28153500000002" fill="none" stroke="rgb(0,0,178)" stroke-width="0.1"/>
  <path d="M 9.458431500000074,28.28153500000002 L 9.458431500000074,32.28153500000002" fill="none" stroke="rgb(0,0,178)" stroke-width="0.1"/>
  <path d="M 48.458431500000074,32.28153500000002 L 44.458431500000074,32.28153500000002" fill="none" stroke="rgb(0,0,178)" stroke-width="0.1"/>
  <path d="M 44.458431500000074,32.28153500000002 L 44.458431500000074,28.28153500000002" fill="none" stroke="rgb(0,0,178)" stroke-width="0.1"/>
  <path d="M 44.458431500000074,28.28153500000002 L 48.458431500000074,28.28153500000002" fill="none" stroke="rgb(0,0,178)" stroke-width="0.1"/>
  <path d="M 48.458431500000074,28.28153500000002 L 48.458431500000074,32.28153500000002" fill="none" stroke="rgb(0,0,178)" stroke-width="0.1"/>
 </g>
 <g id="layerDOTE" inkscape:groupmode="layer" inkscape:label="DOTE">
  <path d="M 85.45843150000007,100.0 L 85.45843150000007,0.0" fill="none" stroke="rgb(178,0,0)" stroke-width="0.1"/>
  <path d="M 100.0,89.28153500000002 L 0.0,89.28153500000002" fill="none" stroke="rgb(178,0,0)" stroke-width="0.1"/>
  <path d="M 7.458431500000074,100.0 L 7.458431500000074,0.0" fill="none" stroke="rgb(178,0,0)" stroke-width="0.1"/>
  <path d="M 0.0,30.28153500000002 L 100.0,30.28153500000002" fill="none" stroke="rgb(178,0,0)" stroke-width="0.1"/>
  <path d="M 46.458431500000074,100.0 L 46.458431500000074,0.0" fill="none" stroke="rgb(178,0,0)" stroke-width="0.1"/>
 </g>
 <g id="layerSTAIR" inkscape:groupmode="layer" inkscape:label="STAIR">
  <path d="M 13.708431500000074,30.28153500000002 L 40.208431500000074,30.28153500000002" fill="none" stroke="rgb(0,178,0)" stroke-width="0.1"/>
  <path d="M 13.708431500000074,29.28153500000002 L 13.708431500000074,31.28153500000002" fill="none" stroke="rgb(0,178,0)" stroke-width="0.1"/>
  <path d="M 40.208431500000074,29.28153500000002 L 40.208431500000074,31.28153500000002" fill="none" stroke="rgb(0,178,0)" stroke-width="0.1"/>
  <path d="M 53.708431500000074,30.28153500000002 L 78.20843150000007,30.28153500000002" fill="none" stroke="rgb(0,178,0)" stroke-width="0.1"/>
  <path d="M 53.708431500000074,29.28153500000002 L 53.708431500000074,31.28153500000002" fill="none" stroke="rgb(0,178,0)" stroke-width="0.1"/>
  <path d="M 78.20843150000007,29.28153500000002 L 78.20843150000007,31.28153500000002" fill="none" stroke="rgb(0,178,0)" stroke-width="0.1"/>
 </g>
 <g id="layerWALL" inkscape:groupmode="layer" inkscape:label="WALL">
  <path d="M 51.00843150000003,99.78153500000002 L 100.0,99.78153500000002" fill="none" instance-id="-1" semantic-id="1" stroke="rgb(0,0,178)" stroke-width="0.1"/>
  <path d="M 51.00843150000003,95.28153500000002 L 100.0,95.28153500000002" fill="none" instance-id="-1" semantic-id="1" stroke="rgb(0,0,178)" stroke-width="0.1"/>
  <path d="M 0.516431500000067,80.59153500000002 L 0.0,75.29886749520182" fill="none" instance-id="-1" semantic-id="1" stroke="rgb(0,0,178)" stroke-width="0.1"/>
 </g>
 <g id="layerWINDOW" inkscape:groupmode="layer" inkscape:label="WINDOW">
  <path d="M 0.0,31.28153500000002 L 1.2084315000000743,31.28153500000002" fill="none" stroke="rgb(178,178,0)" stroke-width="0.1"/>
  <path d="M 0.0,30.28153500000002 L 1.2084315000000743,30.28153500000002" fill="none" stroke="rgb(178,178,0)" stroke-width="0.1"/>
  <path d="M 0.0,29.28153500000002 L 1.2084315000000743,29.28153500000002" fill="none" stroke="rgb(178,178,0)" stroke-width="0.1"/>
 </g>
 <g id="layerwallo" inkscape:groupmode="layer" inkscape:label="wallo">
  <path d="M 0.0,32.78153500000002 L 0.20843150000007427,32.78153500000002" fill="none" stroke="rgb(0,178,0)" stroke-width="0.1"/>
 </g>
 <g id="layer柱填充" inkscape:groupmode="layer" inkscape:label="柱填充">
  <path d="M 83.45843150000007,91.28153500000002 L 87.45843150000007,91.28153500000002" fill="none" stroke="rgb(121,121,121)" stroke-width="0.1"/>
  <path d="M 87.45843150000007,91.28153500000002 L 87.45843150000007,87.28153500000002" fill="none" stroke="rgb(121,121,121)" stroke-width="0.1"/>
  <path d="M 87.45843150000007,87.28153500000002 L 83.45843150000007,87.28153500000002" fill="none" stroke="rgb(121,121,121)" stroke-width="0.1"/>
  <path d="M 83.45843150000007,87.28153500000002 L 83.45843150000007,91.28153500000002" fill="none" stroke="rgb(121,121,121)" stroke-width="0.1"/>
  <path d="M 5.458431500000074,32.28153500000002 L 9.458431500000074,32.28153500000002" fill="none" stroke="rgb(121,121,121)" stroke-width="0.1"/>
  <path d="M 9.458431500000074,32.28153500000002 L 9.458431500000074,28.28153500000002" fill="none" stroke="rgb(121,121,121)" stroke-width="0.1"/>
  <path d="M 9.458431500000074,28.28153500000002 L 5.458431500000074,28.28153500000002" fill="none" stroke="rgb(121,121,121)" stroke-width="0.1"/>
  <path d="M 5.458431500000074,28.28153500000002 L 5.458431500000074,32.28153500000002" fill="none" stroke="rgb(121,121,121)" stroke-width="0.1"/>
  <path d="M 83.45843150000007,32.28153500000002 L 87.45843150000007,32.28153500000002" fill="none" stroke="rgb(121,121,121)" stroke-width="0.1"/>
  <path d="M 87.45843150000007,32.28153500000002 L 87.45843150000007,28.28153500000002" fill="none" stroke="rgb(121,121,121)" stroke-width="0.1"/>
  <path d="M 87.45843150000007,28.28153500000002 L 83.45843150000007,28.28153500000002" fill="none" stroke="rgb(121,121,121)" stroke-width="0.1"/>
  <path d="M 83.45843150000007,28.28153500000002 L 83.45843150000007,32.28153500000002" fill="none" stroke="rgb(121,121,121)" stroke-width="0.1"/>
  <path d="M 44.458431500000074,91.28153500000002 L 49.458431500000074,91.28153500000002" fill="none" stroke="rgb(121,121,121)" stroke-width="0.1"/>
  <path d="M 49.458431500000074,91.28153500000002 L 49.458431500000074,87.28153500000002" fill="none" stroke="rgb(121,121,121)" stroke-width="0.1"/>
  <path d="M 49.458431500000074,87.28153500000002 L 44.458431500000074,87.28153500000002" fill="none" stroke="rgb(121,121,121)" stroke-width="0.1"/>
  <path d="M 44.458431500000074,87.28153500000002 L 44.458431500000074,91.28153500000002" fill="none" stroke="rgb(121,121,121)" stroke-width="0.1"/>
  <path d="M 44.458431500000074,32.28153500000002 L 48.458431500000074,32.28153500000002" fill="none" stroke="rgb(121,121,121)" stroke-width="0.1"/>
  <path d="M 48.458431500000074,32.28153500000002 L 48.458431500000074,28.28153500000002" fill="none" stroke="rgb(121,121,121)" stroke-width="0.1"/>
  <path d="M 48.458431500000074,28.28153500000002 L 44.458431500000074,28.28153500000002" fill="none" stroke="rgb(121,121,121)" stroke-width="0.1"/>
  <path d="M 44.458431500000074,28.28153500000002 L 44.458431500000074,32.28153500000002" fill="none" stroke="rgb(121,121,121)" stroke-width="0.1"/>
  <path d="M 5.708431500000074,80.28153500000002 L 9.208431500000074,80.28153500000002" fill="none" stroke="rgb(121,121,121)" stroke-width="0.1"/>
  <path d="M 9.208431500000074,80.28153500000002 L 9.208431500000074,76.78153500000002" fill="none" stroke="rgb(121,121,121)" stroke-width="0.1"/>
  <path d="M 9.208431500000074,76.78153500000002 L 5.708431500000074,76.78153500000002" fill="none" stroke="rgb(121,121,121)" stroke-width="0.1"/>
  <path d="M 5.708431500000074,76.78153500000002 L 5.708431500000074,80.28153500000002" fill="none" stroke="rgb(121,121,121)" stroke-width="0.1"/>
 </g>
 <g id="layer石材剖面" inkscape:groupmode="layer" inkscape:label="石材剖面">
  <path d="M 45.833431500000074,94.78153500000002 L 45.833431500000074,100.0" fill="none" stroke="rgb(0,178,0)" stroke-width="0.1"/>
  <path d="M 2.7084315000000743,32.78153500000002 L 2.7084315000000743,35.36053499999997" fill="none" stroke="rgb(0,178,0)" stroke-width="0.1"/>
  <path d="M 0.20843150000007427,32.78153500000002 L 0.20843150000007427,31.28153500000002" fill="none" stroke="rgb(0,178,0)" stroke-width="0.1"/>
  <path d="M 0.20843150000007427,32.78153500000002 L 2.7084315000000743,32.78153500000002" fill="none" stroke="rgb(0,178,0)" stroke-width="0.1"/>
  <path d="M 40.958431500000074,93.69653499999998 L 40.958431500000074,81.28153500000002" fill="none" stroke="rgb(0,178,0)" stroke-width="0.1"/>
  <path d="M 40.958431500000074,93.69653499999998 L 42.04443149999997,94.78153500000002" fill="none" stroke="rgb(0,178,0)" stroke-width="0.1"/>
  <path d="M 45.833431500000074,94.78153500000002 L 42.04443149999997,94.78153500000002" fill="none" stroke="rgb(0,178,0)" stroke-width="0.1"/>
  <path d="M 6.878431500000033,81.28153500000002 L 40.958431500000074,81.28153500000002" fill="none" stroke="rgb(0,178,0)" stroke-width="0.1"/>
  <path d="M 2.7084315000000743,35.36053499999997 L 2.1975458981462452,35.381038614854276" fill="none" stroke="rgb(0,178,0)" stroke-width="0.1"/>
  <path d="M 2.1975458981462452,35.381038614854276 L 1.6867606378406208,35.4039059334151" fill="none" stroke="rgb(0,178,0)" stroke-width="0.1"/>
  <path d="M 1.6867606378406208,35.4039059334151 L 1.1760866551229583,35.42913646608753" fill="none" stroke="rgb(0,178,0)" stroke-width="0.1"/>
  <path d="M 1.1760866551229583,35.42913646608753 L 0.66553488365048,35.4567296726795" fill="none" stroke="rgb(0,178,0)" stroke-width="0.1"/>
  <path d="M 0.66553488365048,35.4567296726795 L 0.15511625446401922,35.486684962413676" fill="none" stroke="rgb(0,178,0)" stroke-width="0.1"/>
  <path d="M 6.878431500000033,81.28153500000002 L 6.366588030435764,81.28362208436778" fill="none" stroke="rgb(0,178,0)" stroke-width="0.1"/>
  <path d="M 6.366588030435764,81.28362208436778 L 5.854777239503846,81.28977086818196" fill="none" stroke="rgb(0,178,0)" stroke-width="0.1"/>
  <path d="M 5.854777239503846,81.28977086818196 L 5.343031358039752,81.29998096422827" fill="none" stroke="rgb(0,178,0)" stroke-width="0.1"/>
  <path d="M 5.343031358039752,81.29998096422827 L 4.831382612791231,81.31425172953499" fill="none" stroke="rgb(0,178,0)" stroke-width="0.1"/>
  <path d="M 4.831382612791231,81.31425172953499 L 4.319863224389223,81.33258226541307" fill="none" stroke="rgb(0,178,0)" stroke-width="0.1"/>
  <path d="M 4.319863224389223,81.33258226541307 L 3.808505405318215,81.35497141751318" fill="none" stroke="rgb(0,178,0)" stroke-width="0.1"/>
  <path d="M 3.808505405318215,81.35497141751318 L 3.2973413578882855,81.38141777589806" fill="none" stroke="rgb(0,178,0)" stroke-width="0.1"/>
  <path d="M 3.2973413578882855,81.38141777589806 L 2.786403272206826,81.41191967513151" fill="none" stroke="rgb(0,178,0)" stroke-width="0.1"/>
  <path d="M 2.786403272206826,81.41191967513151 L 2.275723324151272,81.44647519438325" fill="none" stroke="rgb(0,178,0)" stroke-width="0.1"/>
  <path d="M 2.275723324151272,81.44647519438325 L 1.7653336733433207,81.4850821575497" fill="none" stroke="rgb(0,178,0)" stroke-width="0.1"/>
  <path d="M 1.7653336733433207,81.4850821575497 L 1.2552664611234832,81.52773813339121" fill="none" stroke="rgb(0,178,0)" stroke-width="0.1"/>
  <path d="M 1.2552664611234832,81.52773813339121 L 0.745553808526779,81.57444043568529" fill="none" stroke="rgb(0,178,0)" stroke-width="0.1"/>
  <path d="M 0.745553808526779,81.57444043568529 L 0.2362278142602463,81.62518612339522" fill="none" stroke="rgb(0,178,0)" stroke-width="0.1"/>
 </g>
 <g id="layer砖墙" inkscape:groupmode="layer" inkscape:label="砖墙">
  <path d="M 86.45843150000007,28.28153500000002 L 86.45843150000007,0.0" fill="none" instance-id="-1" semantic-id="1" stroke="rgb(0,0,178)" stroke-width="0.1"/>
  <path d="M 84.45843150000007,28.28153500000002 L 84.45843150000007,0.0" fill="none" instance-id="-1" semantic-id="1" stroke="rgb(0,0,178)" stroke-width="0.1"/>
  <path d="M 8.458431500000074,28.28153500000002 L 8.458431500000074,0.0" fill="none" instance-id="-1" semantic-id="1" stroke="rgb(0,0,178)" stroke-width="0.1"/>
  <path d="M 6.458431500000074,28.28153500000002 L 6.458431500000074,0.0" fill="none" instance-id="-1" semantic-id="1" stroke="rgb(0,0,178)" stroke-width="0.1"/>
  <path d="M 45.458431500000074,28.28153500000002 L 45.458431500000074,0.0" fill="none" instance-id="-1" semantic-id="1" stroke="rgb(0,0,178)" stroke-width="0.1"/>
  <path d="M 47.458431500000074,28.28153500000002 L 47.458431500000074,0.0" fill="none" instance-id="-1" semantic-id="1" stroke="rgb(0,0,178)" stroke-width="0.1"/>
  <path d="M 5.458431500000074,30.28153500000002 L 2.2084315000000743,30.28153500000002" fill="none" instance-id="-1" semantic-id="1" stroke="rgb(0,0,178)" stroke-width="0.1"/>
  <path d="M 5.458431500000074,28.28153500000002 L 1.2084315000000743,28.28153500000002" fill="none" instance-id="-1" semantic-id="1" stroke="rgb(0,0,178)" stroke-width="0.1"/>
  <path d="M 1.2084315000000743,28.28153500000002 L 1.2084315000000743,32.28153500000002" fill="none" instance-id="-1" semantic-id="1" stroke="rgb(0,0,178)" stroke-width="0.1"/>
  <path d="M 2.2084315000000743,30.28153500000002 L 2.2084315000000743,32.28153500000002" fill="none" instance-id="-1" semantic-id="1" stroke="rgb(0,0,178)" stroke-width="0.1"/>
  <path d="M 1.2084315000000743,32.28153500000002 L 2.2084315000000743,32.28153500000002" fill="none" instance-id="-1" semantic-id="1" stroke="rgb(0,0,178)" stroke-width="0.1"/>
  <path d="M 9.458431500000074,30.28153500000002 L 12.708431500000074,30.28153500000002" fill="none" instance-id="-1" semantic-id="1" stroke="rgb(0,0,178)" stroke-width="0.1"/>
  <path d="M 9.458431500000074,28.28153500000002 L 13.708431500000074,28.28153500000002" fill="none" instance-id="-1" semantic-id="1" stroke="rgb(0,0,178)" stroke-width="0.1"/>
  <path d="M 13.708431500000074,28.28153500000002 L 13.708431500000074,29.28153500000002" fill="none" instance-id="-1" semantic-id="1" stroke="rgb(0,0,178)" stroke-width="0.1"/>
  <path d="M 12.708431500000074,30.28153500000002 L 12.708431500000074,32.28153500000002" fill="none" instance-id="-1" semantic-id="1" stroke="rgb(0,0,178)" stroke-width="0.1"/>
  <path d="M 13.708431500000074,32.28153500000002 L 12.708431500000074,32.28153500000002" fill="none" instance-id="-1" semantic-id="1" stroke="rgb(0,0,178)" stroke-width="0.1"/>
  <path d="M 44.458431500000074,30.28153500000002 L 41.208431500000074,30.28153500000002" fill="none" instance-id="-1" semantic-id="1" stroke="rgb(0,0,178)" stroke-width="0.1"/>
  <path d="M 44.458431500000074,28.28153500000002 L 40.208431500000074,28.28153500000002" fill="none" instance-id="-1" semantic-id="1" stroke="rgb(0,0,178)" stroke-width="0.1"/>
  <path d="M 40.208431500000074,28.28153500000002 L 40.208431500000074,29.28153500000002" fill="none" instance-id="-1" semantic-id="1" stroke="rgb(0,0,178)" stroke-width="0.1"/>
  <path d="M 41.208431500000074,30.28153500000002 L 41.208431500000074,32.28153500000002" fill="none" instance-id="-1" semantic-id="1" stroke="rgb(0,0,178)" stroke-width="0.1"/>
  <path d="M 40.208431500000074,32.28153500000002 L 41.208431500000074,32.28153500000002" fill="none" instance-id="-1" semantic-id="1" stroke="rgb(0,0,178)" stroke-width="0.1"/>
  <path d="M 48.458431500000074,30.28153500000002 L 52.708431500000074,30.28153500000002" fill="none" instance-id="-1" semantic-id="1" stroke="rgb(0,0,178)" stroke-width="0.1"/>
  <path d="M 48.458431500000074,28.28153500000002 L 53.708431500000074,28.28153500000002" fill="none" instance-id="-1" semantic-id="1" stroke="rgb(0,0,178)" stroke-width="0.1"/>
  <path d="M 53.708431500000074,28.28153500000002 L 53.708431500000074,29.28153500000002" fill="none" instance-id="-1" semantic-id="1" stroke="rgb(0,0,178)" stroke-width="0.1"/>
  <path d="M 52.708431500000074,30.28153500000002 L 52.708431500000074,32.28153500000002" fill="none" instance-id="-1" semantic-id="1" stroke="rgb(0,0,178)" stroke-width="0.1"/>
  <path d="M 53.708431500000074,32.28153500000002 L 52.708431500000074,32.28153500000002" fill="none" instance-id="-1" semantic-id="1" stroke="rgb(0,0,178)" stroke-width="0.1"/>
  <path d="M 83.45843150000007,30.28153500000002 L 79.20843150000007,30.28153500000002" fill="none" instance-id="-1" semantic-id="1" stroke="rgb(0,0,178)" stroke-width="0.1"/>
  <path d="M 83.45843150000007,28.28153500000002 L 78.20843150000007,28.28153500000002" fill="none" instance-id="-1" semantic-id="1" stroke="rgb(0,0,178)" stroke-width="0.1"/>
  <path d="M 78.20843150000007,28.28153500000002 L 78.20843150000007,29.28153500000002" fill="none" instance-id="-1" semantic-id="1" stroke="rgb(0,0,178)" stroke-width="0.1"/>
  <path d="M 79.20843150000007,30.28153500000002 L 79.20843150000007,32.28153500000002" fill="none" instance-id="-1" semantic-id="1" stroke="rgb(0,0,178)" stroke-width="0.1"/>
  <path d="M 78.20843150000007,32.28153500000002 L 79.20843150000007,32.28153500000002" fill="none" instance-id="-1" semantic-id="1" stroke="rgb(0,0,178)" stroke-width="0.1"/>
  <path d="M 6.878431500000033,78.28153500000002 L 44.458431500000074,78.28153500000002" fill="none" instance-id="-1" semantic-id="1" stroke="rgb(0,0,178)" stroke-width="0.1"/>
  <path d="M 6.878431500000033,80.28153500000002 L 42.458431500000074,80.28153500000002" fill="none" instance-id="-1" semantic-id="1" stroke="rgb(0,0,178)" stroke-width="0.1"/>
  <path d="M 42.458431500000074,93.28153500000002 L 42.458431500000074,80.28153500000002" fill="none" instance-id="-1" semantic-id="1" stroke="rgb(0,0,178)" stroke-width="0.1"/>
  <path d="M 46.85843150000005,93.28153500000002 L 42.458431500000074,93.28153500000002" fill="none" instance-id="-1" semantic-id="1" stroke="rgb(0,0,178)" stroke-width="0.1"/>
  <path d="M 44.458431500000074,91.28153500000002 L 44.458431500000074,78.28153500000002" fill="none" instance-id="-1" semantic-id="1" stroke="rgb(0,0,178)" stroke-width="0.1"/>
  <path d="M 46.85843150000005,93.28153500000002 L 46.85843150000005,100.0" fill="none" instance-id="-1" semantic-id="1" stroke="rgb(0,0,178)" stroke-width="0.1"/>
  <path d="M 51.00843150000003,91.28153500000002 L 51.00843150000003,100.0" fill="none" instance-id="-1" semantic-id="1" stroke="rgb(0,0,178)" stroke-width="0.1"/>
  <path d="M 49.458431500000074,91.28153500000002 L 51.00843150000003,91.28153500000002" fill="none" instance-id="-1" semantic-id="1" stroke="rgb(0,0,178)" stroke-width="0.1"/>
  <path d="M 5.458431500000074,32.28153500000002 L 5.458431500000074,36.29153500000001" fill="none" instance-id="-1" semantic-id="1" stroke="rgb(0,0,178)" stroke-width="0.1"/>
  <path d="M 7.458431500000074,32.28153500000002 L 7.458431500000074,38.28153500000002" fill="none" instance-id="-1" semantic-id="1" stroke="rgb(0,0,178)" stroke-width="0.1"/>
  <path d="M 6.878431500000033,38.28153500000002 L 7.458431500000074,38.28153500000002" fill="none" instance-id="-1" semantic-id="1" stroke="rgb(0,0,178)" stroke-width="0.1"/>
  <path d="M 87.45843150000007,29.28153500000002 L 100.0,29.28153500000002" fill="none" instance-id="-1" semantic-id="1" stroke="rgb(0,0,178)" stroke-width="0.1"/>
  <path d="M 87.45843150000007,31.28153500000002 L 100.0,31.28153500000002" fill="none" instance-id="-1" semantic-id="1" stroke="rgb(0,0,178)" stroke-width="0.1"/>
  <path d="M 13.708431500000074,29.28153500000002 L 40.208431500000074,29.28153500000002" fill="none" instance-id="-1" semantic-id="1" stroke="rgb(0,0,178)" stroke-width="0.1"/>
  <path d="M 13.708431500000074,31.28153500000002 L 40.208431500000074,31.28153500000002" fill="none" instance-id="-1" semantic-id="1" stroke="rgb(0,0,178)" stroke-width="0.1"/>
  <path d="M 40.208431500000074,31.28153500000002 L 40.208431500000074,32.28153500000002" fill="none" instance-id="-1" semantic-id="1" stroke="rgb(0,0,178)" stroke-width="0.1"/>
  <path d="M 13.708431500000074,31.28153500000002 L 13.708431500000074,32.28153500000002" fill="none" instance-id="-1" semantic-id="1" stroke="rgb(0,0,178)" stroke-width="0.1"/>
  <path d="M 53.708431500000074,29.28153500000002 L 78.20843150000007,29.28153500000002" fill="none" instance-id="-1" semantic-id="1" stroke="rgb(0,0,178)" stroke-width="0.1"/>
  <path d="M 53.708431500000074,31.28153500000002 L 78.20843150000007,31.28153500000002" fill="none" instance-id="-1" semantic-id="1" stroke="rgb(0,0,178)" stroke-width="0.1"/>
  <path d="M 53.708431500000074,31.28153500000002 L 53.708431500000074,32.28153500000002" fill="none" instance-id="-1" semantic-id="1" stroke="rgb(0,0,178)" stroke-width="0.1"/>
  <path d="M 78.20843150000007,31.28153500000002 L 78.20843150000007,32.28153500000002" fill="none" instance-id="-1" semantic-id="1" stroke="rgb(0,0,178)" stroke-width="0.1"/>
  <path d="M 5.458431500000074,36.29153500000001 L 4.94561803687975,36.29936096491292" fill="none" instance-id="-1" semantic-id="1" stroke="rgb(0,0,178)" stroke-width="0.1"/>
  <path d="M 4.94561803687975,36.29936096491292 L 4.432846853686556,36.30958873939761" fill="none" instance-id="-1" semantic-id="1" stroke="rgb(0,0,178)" stroke-width="0.1"/>
  <path d="M 4.432846853686556,36.30958873939761 L 3.920129199457392,36.322218099079976" fill="none" instance-id="-1" semantic-id="1" stroke="rgb(0,0,178)" stroke-width="0.1"/>
  <path d="M 3.920129199457392,36.322218099079976 L 3.4074763220547766,36.33724876690053" fill="none" instance-id="-1" semantic-id="1" stroke="rgb(0,0,178)" stroke-width="0.1"/>
  <path d="M 3.4074763220547766,36.33724876690053 L 2.894899467920368,36.354680413120434" fill="none" instance-id="-1" semantic-id="1" stroke="rgb(0,0,178)" stroke-width="0.1"/>
  <path d="M 2.894899467920368,36.354680413120434 L 2.3824098818279253,36.37451265532894" fill="none" instance-id="-1" semantic-id="1" stroke="rgb(0,0,178)" stroke-width="0.1"/>
  <path d="M 2.3824098818279253,36.37451265532894 L 1.8700188066366081,36.39674505845164" fill="none" instance-id="-1" semantic-id="1" stroke="rgb(0,0,178)" stroke-width="0.1"/>
  <path d="M 1.8700188066366081,36.39674505845164 L 1.3577374830447297,36.42137713476001" fill="none" instance-id="-1" semantic-id="1" stroke="rgb(0,0,178)" stroke-width="0.1"/>
  <path d="M 1.3577374830447297,36.42137713476001 L 0.8455771493428301,36.44840834388219" fill="none" instance-id="-1" semantic-id="1" stroke="rgb(0,0,178)" stroke-width="0.1"/>
  <path d="M 0.8455771493428301,36.44840834388219 L 0.33354904116708894,36.47783809281469" fill="none" instance-id="-1" semantic-id="1" stroke="rgb(0,0,178)" stroke-width="0.1"/>
  <path d="M 6.878431500000033,38.28153500000002 L 6.355557530441388,38.282844225715564" fill="none" instance-id="-1" semantic-id="1" stroke="rgb(0,0,178)" stroke-width="0.1"/>
  <path d="M 6.355557530441388,38.282844225715564 L 5.832696113986231,38.286696666051796" fill="none" instance-id="-1" semantic-id="1" stroke="rgb(0,0,178)" stroke-width="0.1"/>
  <path d="M 5.832696113986231,38.286696666051796 L 5.3098596205416015,38.29309222986723" fill="none" instance-id="-1" semantic-id="1" stroke="rgb(0,0,178)" stroke-width="0.1"/>
  <path d="M 5.3098596205416015,38.29309222986723 L 4.7870604194247335,38.30203076585508" fill="none" instance-id="-1" semantic-id="1" stroke="rgb(0,0,178)" stroke-width="0.1"/>
  <path d="M 4.7870604194247335,38.30203076585508 L 4.264310879070649,38.31351206254658" fill="none" instance-id="-1" semantic-id="1" stroke="rgb(0,0,178)" stroke-width="0.1"/>
  <path d="M 4.264310879070649,38.31351206254658 L 3.7416233667396455,38.32753584831602" fill="none" instance-id="-1" semantic-id="1" stroke="rgb(0,0,178)" stroke-width="0.1"/>
  <path d="M 3.7416233667396455,38.32753584831602 L 3.2190102482244356,38.3441017913874" fill="none" instance-id="-1" semantic-id="1" stroke="rgb(0,0,178)" stroke-width="0.1"/>
  <path d="M 3.2190102482244356,38.3441017913874 L 2.696483887557747,38.3632094998419" fill="none" instance-id="-1" semantic-id="1" stroke="rgb(0,0,178)" stroke-width="0.1"/>
  <path d="M 2.696483887557747,38.3632094998419 L 2.1740566467195777,38.38485852162751" fill="none" instance-id="-1" semantic-id="1" stroke="rgb(0,0,178)" stroke-width="0.1"/>
  <path d="M 2.1740566467195777,38.38485852162751 L 1.651740885345248,38.409048344569555" fill="none" instance-id="-1" semantic-id="1" stroke="rgb(0,0,178)" stroke-width="0.1"/>
  <path d="M 1.651740885345248,38.409048344569555 L 1.1295489604324302,38.43577839638283" fill="none" instance-id="-1" semantic-id="1" stroke="rgb(0,0,178)" stroke-width="0.1"/>
  <path d="M 1.1295489604324302,38.43577839638283 L 0.6074932260493142,38.46504804468509" fill="none" instance-id="-1" semantic-id="1" stroke="rgb(0,0,178)" stroke-width="0.1"/>
  <path d="M 0.6074932260493142,38.46504804468509 L 0.08558603304186363,38.49685659701208" fill="none" instance-id="-1" semantic-id="1" stroke="rgb(0,0,178)" stroke-width="0.1"/>
  <path d="M 6.878431500000033,80.28153500000002 A 65.5,65.5 0.0 0,0 0.516431500000067,80.59153500000002" fill="none" instance-id="-1" semantic-id="1" stroke="rgb(0,0,178)" stroke-width="0.1"/>
  <path d="M 6.878431500000033,78.28153500000002 A 67.5,67.5 0.0 0,0 0.3224314999999933,78.60153500000001" fill="none" instance-id="-1" semantic-id="1" stroke="rgb(0,0,178)" stroke-width="0.1"/>
 </g>
 <g id="layer窗" inkscape:groupmode="layer" inkscape:label="窗">
  <text fill="rgb(178,0,0)" font-family="Noto Sans CJK SC" font-size="2" transform="rotate(-0.0,24.645431499999972,27.806534999999997)" x="24.645431499999972" y="27.806534999999997">
   C03
  </text>
  <text fill="rgb(178,0,0)" font-family="Noto Sans CJK SC" font-size="2" transform="rotate(-0.0,61.66943149999997,27.806534999999997)" x="61.66943149999997" y="27.806534999999997">
   C04
  </text>
 </g>
</svg>