<?xml version="1.0" encoding="utf-8"?>
<svg style="background-color: #000;" version="1.1" viewBox="0 0 100.0 100.0" xmlns="http://www.w3.org/2000/svg" xmlns:inkscape="http://www.inkscape.org/namespaces/inkscape">
 <g id="layerCOLUMN" inkscape:groupmode="layer" inkscape:label="COLUMN">
  <path d="M 11.134648999999968,11.189018499999975 L 17.134648999999968,11.189018499999975" fill="none" stroke="rgb(178,0,178)" stroke-width="0.1"/>
  <path d="M 17.134648999999968,11.189018499999975 L 17.134648999999968,5.189018499999975" fill="none" stroke="rgb(178,0,178)" stroke-width="0.1"/>
  <path d="M 17.134648999999968,5.189018499999975 L 11.134648999999968,5.189018499999975" fill="none" stroke="rgb(178,0,178)" stroke-width="0.1"/>
  <path d="M 11.134648999999968,5.189018499999975 L 11.134648999999968,11.189018499999975" fill="none" stroke="rgb(178,0,178)" stroke-width="0.1"/>
  <path d="M 86.13464899999997,11.189018499999975 L 92.13464899999997,11.189018499999975" fill="none" stroke="rgb(178,0,178)" stroke-width="0.1"/>
  <path d="M 92.13464899999997,11.189018499999975 L 92.13464899999997,5.189018499999975" fill="none" stroke="rgb(178,0,178)" stroke-width="0.1"/>
  <path d="M 92.13464899999997,5.189018499999975 L 86.13464899999997,5.189018499999975" fill="none" stroke="rgb(178,0,178)" stroke-width="0.1"/>
  <path d="M 86.13464899999997,5.189018499999975 L 86.13464899999997,11.189018499999975" fill="none" stroke="rgb(178,0,178)" stroke-width="0.1"/>
  <path d="M 11.134648999999968,86.18901849999997 L 17.134648999999968,86.18901849999997" fill="none" stroke="rgb(178,0,178)" stroke-width="0.1"/>
  <path d="M 17.134648999999968,86.18901849999997 L 17.134648999999968,80.18901849999997" fill="none" stroke="rgb(178,0,178)" stroke-width="0.1"/>
  <path d="M 17.134648999999968,80.18901849999997 L 11.134648999999968,80.18901849999997" fill="none" stroke="rgb(178,0,178)" stroke-width="0.1"/>
  <path d="M 11.134648999999968,80.18901849999997 L 11.134648999999968,86.18901849999997" fill="none" stroke="rgb(178,0,178)" stroke-width="0.1"/>
  <path d="M 86.13464899999997,86.18901849999997 L 92.13464899999997,86.18901849999997" fill="none" stroke="rgb(178,0,178)" stroke-width="0.1"/>
  <path d="M 92.13464899999997,86.18901849999997 L 92.13464899999997,80.18901849999997" fill="none" stroke="rgb(178,0,178)" stroke-width="0.1"/>
  <path d="M 92.13464899999997,80.18901849999997 L 86.13464899999997,80.18901849999997" fill="none" stroke="rgb(178,0,178)" stroke-width="0.1"/>
  <path d="M 86.13464899999997,80.18901849999997 L 86.13464899999997,86.18901849999997" fill="none" stroke="rgb(178,0,178)" stroke-width="0.1"/>
 </g>
 <g id="layerDIM_ELEV" inkscape:groupmode="layer" inkscape:label="DIM_ELEV">
  <path d="M 51.094649000000004,22.655018499999983 L 27.61964899999998,22.655018499999983" fill="none" stroke="rgb(0,178,0)" stroke-width="0.1"/>
  <path d="M 27.61964899999998,22.655018499999983 L 32.11964899999998,27.155018499999983" fill="none" stroke="rgb(0,178,0)" stroke-width="0.1"/>
  <path d="M 32.11964899999998,27.155018499999983 L 36.61964899999998,22.655018499999983" fill="none" stroke="rgb(0,178,0)" stroke-width="0.1"/>
  <text fill="rgb(0,0,0)" font-family="Noto Sans CJK SC" font-size="2" transform="rotate(-0.0,32.36964899999998,21.92001849999997)" x="32.36964899999998" y="21.92001849999997">
   12.650
  </text>
 </g>
 <g id="layerDIM_IDEN" inkscape:groupmode="layer" inkscape:label="DIM_IDEN">
  <path d="M 56.40564899999998,62.07701850000001 L 56.40564899999998,49.88601849999998" fill="none" stroke="rgb(0,178,0)" stroke-width="0.1"/>
  <path d="M 56.40564899999998,49.88601849999998 L 87.24964899999998,49.88601849999998" fill="none" stroke="rgb(0,178,0)" stroke-width="0.1"/>
  <circle cx="56.40564899999998" cy="62.07701850000001" fill="none" r="0.0865833" stroke="rgb(0,178,0)" stroke-width="0.1"/>
  <circle cx="79.74964899999998" cy="49.88601849999998" fill="none" r="7.5" stroke="rgb(0,178,0)" stroke-width="0.1"/>
  <text fill="rgb(0,0,0)" font-family="Noto Sans CJK SC" font-size="2" transform="rotate(-0.0,77.42864900000001,46.13601849999998)" x="77.42864900000001" y="46.13601849999998">
   -
  </text>
  <text fill="rgb(0,0,0)" font-family="Noto Sans CJK SC" font-size="2" transform="rotate(-0.0,72.02364899999998,55.16601849999995)" x="72.02364899999998" y="55.16601849999995">
   05-05
  </text>
  <text fill="rgb(0,0,0)" font-family="Noto Sans CJK SC" font-size="2" transform="rotate(-0.0,63.352648999999985,48.04801850000001)" x="63.352648999999985" y="48.04801850000001">
   LT7
  </text>
 </g>
 <g id="layerDIM_LEAD" inkscape:groupmode="layer" inkscape:label="DIM_LEAD">
  <path d="M 24.141648999999973,53.189018499999975 L 24.141648999999973,34.70401849999996" fill="none" stroke="rgb(0,178,0)" stroke-width="0.1"/>
  <path d="M 24.141648999999973,34.70401849999996 L 49.51464899999996,34.70401849999996" fill="none" stroke="rgb(0,178,0)" stroke-width="0.1"/>
  <path d="M 9.132649000000015,100.0 L 9.132649000000015,78.68901849999997" fill="none" stroke="rgb(0,178,0)" stroke-width="0.1"/>
  <path d="M 54.200649,20.07701850000001 L 54.200649,9.07301849999999" fill="none" stroke="rgb(0,178,0)" stroke-width="0.1"/>
  <path d="M 54.200649,9.07301849999999 L 80.23564899999997,9.07301849999999" fill="none" stroke="rgb(0,178,0)" stroke-width="0.1"/>
  <text fill="rgb(0,0,0)" font-family="Noto Sans CJK SC" font-size="2" transform="rotate(-0.0,25.71464900000001,32.866018499999996)" x="25.71464900000001" y="32.866018499999996">
   DN700开孔
  </text>
  <text fill="rgb(0,0,0)" font-family="Noto Sans CJK SC" font-size="2" transform="rotate(-0.0,65.010649,7.2360185)" x="65.010649" y="7.2360185">
   鼓风机基础
  </text>
  <text fill="rgb(0,0,0)" font-family="Noto Sans CJK SC" font-size="2" transform="rotate(-0.0,68.68564900000001,13.536018499999955)" x="68.68564900000001" y="13.536018499999955">
   承重6t
  </text>
 </g>
 <g id="layerDOOR_FIRE" inkscape:groupmode="layer" inkscape:label="DOOR_FIRE">
  <path d="M 98.880649,30.689018499999975 A 9.75,9.75 0.0 0,0 89.13364899999999,21.189018499999975" fill="none" instance-id="1" semantic-id="4" stroke="rgb(178,178,0)" stroke-width="0.1"/>
  <path d="M 89.13364899999999,21.189018499999975 A 9.75,9.75 0.0 0,0 98.880649,11.689018499999975" fill="none" instance-id="1" semantic-id="4" stroke="rgb(178,178,0)" stroke-width="0.1"/>
  <path d="M 85.83464900000001,75.83901849999995 A 5.85,5.85 0.0 0,0 80.13464899999997,81.68901849999997" fill="none" instance-id="2" semantic-id="4" stroke="rgb(178,178,0)" stroke-width="0.1"/>
  <path d="M 80.13464899999997,81.68901849999997 A 5.85,5.85 0.0 0,0 74.43464899999998,75.83901849999995" fill="none" instance-id="2" semantic-id="4" stroke="rgb(178,178,0)" stroke-width="0.1"/>
  <path d="M 96.62101033824877,99.6936202097454 L 96.28954945599969,99.31644106024032" fill="none" instance-id="3" semantic-id="4" stroke="rgb(178,178,0)" stroke-width="0.1"/>
  <path d="M 96.28954945599969,99.31644106024032 L 95.93910981359124,98.95682670525548" fill="none" instance-id="3" semantic-id="4" stroke="rgb(178,178,0)" stroke-width="0.1"/>
  <path d="M 95.93910981359124,98.95682670525548 L 95.57062086792581,98.6157309354121" fill="none" instance-id="3" semantic-id="4" stroke="rgb(178,178,0)" stroke-width="0.1"/>
  <path d="M 95.57062086792581,98.6157309354121 L 95.18505994734335,98.29405842523715" fill="none" instance-id="3" semantic-id="4" stroke="rgb(178,178,0)" stroke-width="0.1"/>
  <path d="M 95.18505994734335,98.29405842523715 L 94.78344965949304,97.99266233373055" fill="none" instance-id="3" semantic-id="4" stroke="rgb(178,178,0)" stroke-width="0.1"/>
  <path d="M 94.78344965949304,97.99266233373055 L 94.36685517911229,97.71234204156644" fill="none" instance-id="3" semantic-id="4" stroke="rgb(178,178,0)" stroke-width="0.1"/>
  <path d="M 94.36685517911229,97.71234204156644 L 93.93638142290695,97.45384103092806" fill="none" instance-id="3" semantic-id="4" stroke="rgb(178,178,0)" stroke-width="0.1"/>
  <path d="M 93.93638142290695,97.45384103092806 L 93.49317011902514,97.21784491359995" fill="none" instance-id="3" semantic-id="4" stroke="rgb(178,178,0)" stroke-width="0.1"/>
  <path d="M 93.49317011902514,97.21784491359995 L 93.03839677889795,97.00497961254723" fill="none" instance-id="3" semantic-id="4" stroke="rgb(178,178,0)" stroke-width="0.1"/>
  <path d="M 93.03839677889795,97.00497961254723 L 92.57326757947817,96.8158097018063" fill="none" instance-id="3" semantic-id="4" stroke="rgb(178,178,0)" stroke-width="0.1"/>
  <path d="M 92.57326757947817,96.8158097018063 L 92.0990161641455,96.65083690908705" fill="none" instance-id="3" semantic-id="4" stroke="rgb(178,178,0)" stroke-width="0.1"/>
  <path d="M 92.0990161641455,96.65083690908705 L 91.61690037076443,96.51049878506092" fill="none" instance-id="3" semantic-id="4" stroke="rgb(178,178,0)" stroke-width="0.1"/>
  <path d="M 91.61690037076443,96.51049878506092 L 91.12819889557142,96.39516754286319" fill="none" instance-id="3" semantic-id="4" stroke="rgb(178,178,0)" stroke-width="0.1"/>
  <path d="M 91.12819889557142,96.39516754286319 L 90.63420790174081,96.30514907088741" fill="none" instance-id="3" semantic-id="4" stroke="rgb(178,178,0)" stroke-width="0.1"/>
  <path d="M 90.63420790174081,96.30514907088741 L 90.13623758162339,96.24068212148859" fill="none" instance-id="3" semantic-id="4" stroke="rgb(178,178,0)" stroke-width="0.1"/>
  <path d="M 90.13623758162339,96.24068212148859 L 89.6356086817762,96.20193767775208" fill="none" instance-id="3" semantic-id="4" stroke="rgb(178,178,0)" stroke-width="0.1"/>
  <path d="M 89.6356086817762,96.20193767775208 L 89.13364899999999,96.18901849999997" fill="none" instance-id="3" semantic-id="4" stroke="rgb(178,178,0)" stroke-width="0.1"/>
  <path d="M 89.13364899999999,96.18901849999997 A 9.75,9.75 0.0 0,0 98.880649,86.68901849999997" fill="none" instance-id="3" semantic-id="4" stroke="rgb(178,178,0)" stroke-width="0.1"/>
  <path d="M 88.13364899999999,31.189018499999975 L 88.13364899999999,11.189018499999975" fill="none" instance-id="1" semantic-id="4" stroke="rgb(178,178,0)" stroke-width="0.1"/>
  <path d="M 90.13364899999999,31.189018499999975 L 90.13364899999999,11.189018499999975" fill="none" instance-id="1" semantic-id="4" stroke="rgb(178,178,0)" stroke-width="0.1"/>
  <path d="M 74.13464899999997,82.68901849999997 L 86.13464899999997,82.68901849999997" fill="none" instance-id="2" semantic-id="4" stroke="rgb(178,178,0)" stroke-width="0.1"/>
  <path d="M 74.13464899999997,80.68901849999997 L 86.13464899999997,80.68901849999997" fill="none" instance-id="2" semantic-id="4" stroke="rgb(178,178,0)" stroke-width="0.1"/>
  <path d="M 88.13364899999999,100.0 L 88.13364899999999,86.18901849999997" fill="none" instance-id="3" semantic-id="4" stroke="rgb(178,178,0)" stroke-width="0.1"/>
  <path d="M 90.13364899999999,100.0 L 90.13364899999999,86.18901849999997" fill="none" instance-id="3" semantic-id="4" stroke="rgb(178,178,0)" stroke-width="0.1"/>
  <path d="M 98.88364899999999,31.189018499999975 L 98.88364899999999,30.689018499999975" fill="none" instance-id="1" semantic-id="4" stroke="rgb(178,178,0)" stroke-width="0.1"/>
  <path d="M 98.88364899999999,30.689018499999975 L 89.13364899999999,30.689018499999975" fill="none" instance-id="1" semantic-id="4" stroke="rgb(178,178,0)" stroke-width="0.1"/>
  <path d="M 89.13364899999999,30.689018499999975 L 89.13364899999999,31.189018499999975" fill="none" instance-id="1" semantic-id="4" stroke="rgb(178,178,0)" stroke-width="0.1"/>
  <path d="M 89.13364899999999,31.189018499999975 L 98.88364899999999,31.189018499999975" fill="none" instance-id="1" semantic-id="4" stroke="rgb(178,178,0)" stroke-width="0.1"/>
  <path d="M 98.88364899999999,11.689018499999975 L 98.88364899999999,11.189018499999975" fill="none" instance-id="1" semantic-id="4" stroke="rgb(178,178,0)" stroke-width="0.1"/>
  <path d="M 98.88364899999999,11.189018499999975 L 89.13364899999999,11.189018499999975" fill="none" instance-id="1" semantic-id="4" stroke="rgb(178,178,0)" stroke-width="0.1"/>
  <path d="M 89.13364899999999,11.189018499999975 L 89.13364899999999,11.689018499999975" fill="none" instance-id="1" semantic-id="4" stroke="rgb(178,178,0)" stroke-width="0.1"/>
  <path d="M 89.13364899999999,11.689018499999975 L 98.88364899999999,11.689018499999975" fill="none" instance-id="1" semantic-id="4" stroke="rgb(178,178,0)" stroke-width="0.1"/>
  <path d="M 74.43464899999998,75.83901849999995 L 74.43464899999998,81.68901849999997" fill="none" instance-id="2" semantic-id="4" stroke="rgb(178,178,0)" stroke-width="0.1"/>
  <path d="M 74.43464899999998,81.68901849999997 L 74.13464899999997,81.68901849999997" fill="none" instance-id="2" semantic-id="4" stroke="rgb(178,178,0)" stroke-width="0.1"/>
  <path d="M 74.13464899999997,81.68901849999997 L 74.13464899999997,75.83901849999995" fill="none" instance-id="2" semantic-id="4" stroke="rgb(178,178,0)" stroke-width="0.1"/>
  <path d="M 74.13464899999997,75.83901849999995 L 74.43464899999998,75.83901849999995" fill="none" instance-id="2" semantic-id="4" stroke="rgb(178,178,0)" stroke-width="0.1"/>
  <path d="M 86.13464899999997,75.83901849999995 L 86.13464899999997,81.68901849999997" fill="none" instance-id="2" semantic-id="4" stroke="rgb(178,178,0)" stroke-width="0.1"/>
  <path d="M 86.13464899999997,81.68901849999997 L 85.83464900000001,81.68901849999997" fill="none" instance-id="2" semantic-id="4" stroke="rgb(178,178,0)" stroke-width="0.1"/>
  <path d="M 85.83464900000001,81.68901849999997 L 85.83464900000001,75.83901849999995" fill="none" instance-id="2" semantic-id="4" stroke="rgb(178,178,0)" stroke-width="0.1"/>
  <path d="M 85.83464900000001,75.83901849999995 L 86.13464899999997,75.83901849999995" fill="none" instance-id="2" semantic-id="4" stroke="rgb(178,178,0)" stroke-width="0.1"/>
  <path d="M 98.88364899999999,86.68901849999997 L 98.88364899999999,86.18901849999997" fill="none" instance-id="3" semantic-id="4" stroke="rgb(178,178,0)" stroke-width="0.1"/>
  <path d="M 98.88364899999999,86.18901849999997 L 89.13364899999999,86.18901849999997" fill="none" instance-id="3" semantic-id="4" stroke="rgb(178,178,0)" stroke-width="0.1"/>
  <path d="M 89.13364899999999,86.18901849999997 L 89.13364899999999,86.68901849999997" fill="none" instance-id="3" semantic-id="4" stroke="rgb(178,178,0)" stroke-width="0.1"/>
  <path d="M 89.13364899999999,86.68901849999997 L 98.88364899999999,86.68901849999997" fill="none" instance-id="3" semantic-id="4" stroke="rgb(178,178,0)" stroke-width="0.1"/>
 </g>
 <g id="layerDOOR_FIRE_TEXT" inkscape:groupmode="layer" inkscape:label="DOOR_FIRE_TEXT">
  <text fill="rgb(0,0,0)" font-family="Noto Sans CJK SC" font-size="2" transform="rotate(-270.0,82.695649,12.752018499999963)" x="82.695649" y="12.752018499999963">
   FM甲2021
  </text>
  <text fill="rgb(0,0,0)" font-family="Noto Sans CJK SC" font-size="2" transform="rotate(-9.1505e-08,71.69664899999998,73.66901849999999)" x="71.69664899999998" y="73.66901849999999">
   FM乙1221
  </text>
  <text fill="rgb(0,0,0)" font-family="Noto Sans CJK SC" font-size="2" transform="rotate(-270.0,82.69664899999998,87.74901849999992)" x="82.69664899999998" y="87.74901849999992">
   FM甲2021
  </text>
 </g>
 <g id="layerDOTE" inkscape:groupmode="layer" inkscape:label="DOTE">
  <path d="M 0.0,8.189018499999975 L 100.0,8.189018499999975" fill="none" stroke="rgb(178,0,0)" stroke-width="0.1"/>
  <path d="M 0.0,83.18901849999997 L 100.0,83.18901849999997" fill="none" stroke="rgb(178,0,0)" stroke-width="0.1"/>
  <path d="M 29.13364899999999,0.0 L 29.13364899999999,100.0" fill="none" stroke="rgb(178,0,0)" stroke-width="0.1"/>
  <path d="M 89.13364899999999,0.0 L 89.13364899999999,100.0" fill="none" stroke="rgb(178,0,0)" stroke-width="0.1"/>
  <path d="M 14.134648999999968,0.0 L 14.134648999999968,100.0" fill="none" stroke="rgb(178,0,0)" stroke-width="0.1"/>
 </g>
 <g id="layerPUB_DIM" inkscape:groupmode="layer" inkscape:label="PUB_DIM">
  <path d="M 5.204649000000018,96.95901849999996 L 7.060649000000012,95.10901850000005" fill="none" stroke="rgb(0,178,0)" stroke-width="0.1"/>
  <path d="M 6.132649000000015,100.0 L 6.132649000000015,90.78901849999988" fill="none" stroke="rgb(0,178,0)" stroke-width="0.1"/>
  <path d="M 28.205648999999994,96.95901849999996 L 30.06164899999999,95.10901850000005" fill="none" stroke="rgb(0,178,0)" stroke-width="0.1"/>
  <path d="M 29.13364899999999,100.0 L 29.13364899999999,90.78901849999988" fill="none" stroke="rgb(0,178,0)" stroke-width="0.1"/>
  <path d="M 98.06264899999996,80.68901849999997 L 100.0,80.68901849999997" fill="none" stroke="rgb(0,178,0)" stroke-width="0.1"/>
  <path d="M 98.06264899999996,53.189018499999975 L 100.0,53.189018499999975" fill="none" stroke="rgb(0,178,0)" stroke-width="0.1"/>
  <path d="M 13.20664899999997,48.991018499999996 L 15.062648999999965,47.1350185" fill="none" stroke="rgb(0,178,0)" stroke-width="0.1"/>
  <path d="M 14.134648999999968,53.3130185 L 14.134648999999968,42.8130185" fill="none" stroke="rgb(0,178,0)" stroke-width="0.1"/>
  <path d="M 20.20664899999997,48.991018499999996 L 22.062648999999965,47.1350185" fill="none" stroke="rgb(0,178,0)" stroke-width="0.1"/>
  <path d="M 21.134648999999968,53.3130185 L 21.134648999999968,42.8130185" fill="none" stroke="rgb(0,178,0)" stroke-width="0.1"/>
  <path d="M 26.201648999999975,48.991018499999996 L 28.058649000000003,47.1350185" fill="none" stroke="rgb(0,178,0)" stroke-width="0.1"/>
  <path d="M 27.129648999999972,53.3130185 L 27.129648999999972,42.8130185" fill="none" stroke="rgb(0,178,0)" stroke-width="0.1"/>
  <path d="M 57.22064899999998,39.19001849999995 L 67.72064899999998,39.19001849999995" fill="none" stroke="rgb(0,178,0)" stroke-width="0.1"/>
  <path d="M 57.22064899999998,16.19001849999995 L 67.72064899999998,16.19001849999995" fill="none" stroke="rgb(0,178,0)" stroke-width="0.1"/>
  <path d="M 61.54264899999998,38.262018499999954 L 63.39864899999998,40.11801849999995" fill="none" stroke="rgb(0,178,0)" stroke-width="0.1"/>
  <path d="M 61.54264899999998,15.262018499999954 L 63.39864899999998,17.11801849999995" fill="none" stroke="rgb(0,178,0)" stroke-width="0.1"/>
  <path d="M 29.13364899999999,80.2890185 L 29.13364899999999,96.03901849999988" fill="none" stroke="rgb(0,178,0)" stroke-width="0.1"/>
  <path d="M 29.13364899999999,96.03901849999988 L 0.0,96.03901849999988" fill="none" stroke="rgb(0,178,0)" stroke-width="0.1"/>
  <path d="M 100.0,53.189018499999975 L 89.13364899999999,53.189018499999975" fill="none" stroke="rgb(0,178,0)" stroke-width="0.1"/>
  <path d="M 14.134648999999968,55.70001849999994 L 14.134648999999968,48.0630185" fill="none" stroke="rgb(0,178,0)" stroke-width="0.1"/>
  <path d="M 14.134648999999968,48.0630185 L 27.129648999999972,48.0630185" fill="none" stroke="rgb(0,178,0)" stroke-width="0.1"/>
  <path d="M 27.129648999999972,48.0630185 L 27.129648999999972,55.70001849999994" fill="none" stroke="rgb(0,178,0)" stroke-width="0.1"/>
  <path d="M 51.03364899999997,39.19001849999995 L 62.47064899999998,39.19001849999995" fill="none" stroke="rgb(0,178,0)" stroke-width="0.1"/>
  <path d="M 62.47064899999998,39.19001849999995 L 62.47064899999998,0.0" fill="none" stroke="rgb(0,178,0)" stroke-width="0.1"/>
  <text fill="rgb(0,0,0)" font-family="Noto Sans CJK SC" font-size="2" transform="rotate(-8.99699e-08,10.633648999999991,93.45901849999996)" x="10.633648999999991" y="93.45901849999996">
   2300
  </text>
  <text fill="rgb(0,0,0)" font-family="Noto Sans CJK SC" font-size="2" transform="rotate(-360.0,27.342648999999994,45.77501849999999)" x="27.342648999999994" y="45.77501849999999">
   600
  </text>
  <text fill="rgb(0,0,0)" font-family="Noto Sans CJK SC" font-size="2" transform="rotate(-360.0,3.334649000000013,45.77501849999999)" x="3.334649000000013" y="45.77501849999999">
   700
  </text>
  <text fill="rgb(0,0,0)" font-family="Noto Sans CJK SC" font-size="2" transform="rotate(-90.0,59.89864899999998,34.69001849999995)" x="59.89864899999998" y="34.69001849999995">
   2300
  </text>
  <text fill="rgb(0,0,0)" font-family="Noto Sans CJK SC" font-size="2" transform="rotate(-90.0,59.89864899999998,13.702018500000008)" x="59.89864899999998" y="13.702018500000008">
   1950
  </text>
 </g>
 <g id="layerPUB_HATCH" inkscape:groupmode="layer" inkscape:label="PUB_HATCH">
  <path d="M 11.134648999999968,11.189018499999975 L 17.134648999999968,11.189018499999975" fill="none" stroke="rgb(89,89,89)" stroke-width="0.1"/>
  <path d="M 17.134648999999968,11.189018499999975 L 17.134648999999968,5.189018499999975" fill="none" stroke="rgb(89,89,89)" stroke-width="0.1"/>
  <path d="M 17.134648999999968,5.189018499999975 L 11.134648999999968,5.189018499999975" fill="none" stroke="rgb(89,89,89)" stroke-width="0.1"/>
  <path d="M 11.134648999999968,5.189018499999975 L 11.134648999999968,11.189018499999975" fill="none" stroke="rgb(89,89,89)" stroke-width="0.1"/>
  <path d="M 86.13464899999997,11.189018499999975 L 92.13464899999997,11.189018499999975" fill="none" stroke="rgb(89,89,89)" stroke-width="0.1"/>
  <path d="M 92.13464899999997,11.189018499999975 L 92.13464899999997,5.189018499999975" fill="none" stroke="rgb(89,89,89)" stroke-width="0.1"/>
  <path d="M 92.13464899999997,5.189018499999975 L 86.13464899999997,5.189018499999975" fill="none" stroke="rgb(89,89,89)" stroke-width="0.1"/>
  <path d="M 86.13464899999997,5.189018499999975 L 86.13464899999997,11.189018499999975" fill="none" stroke="rgb(89,89,89)" stroke-width="0.1"/>
  <path d="M 11.134648999999968,86.18901849999997 L 17.134648999999968,86.18901849999997" fill="none" stroke="rgb(89,89,89)" stroke-width="0.1"/>
  <path d="M 17.134648999999968,86.18901849999997 L 17.134648999999968,80.18901849999997" fill="none" stroke="rgb(89,89,89)" stroke-width="0.1"/>
  <path d="M 17.134648999999968,80.18901849999997 L 11.134648999999968,80.18901849999997" fill="none" stroke="rgb(89,89,89)" stroke-width="0.1"/>
  <path d="M 11.134648999999968,80.18901849999997 L 11.134648999999968,86.18901849999997" fill="none" stroke="rgb(89,89,89)" stroke-width="0.1"/>
  <path d="M 86.13464899999997,86.18901849999997 L 92.13464899999997,86.18901849999997" fill="none" stroke="rgb(89,89,89)" stroke-width="0.1"/>
  <path d="M 92.13464899999997,86.18901849999997 L 92.13464899999997,80.18901849999997" fill="none" stroke="rgb(89,89,89)" stroke-width="0.1"/>
  <path d="M 92.13464899999997,80.18901849999997 L 86.13464899999997,80.18901849999997" fill="none" stroke="rgb(89,89,89)" stroke-width="0.1"/>
  <path d="M 86.13464899999997,80.18901849999997 L 86.13464899999997,86.18901849999997" fill="none" stroke="rgb(89,89,89)" stroke-width="0.1"/>
 </g>
 <g id="layerPUB_TEXT" inkscape:groupmode="layer" inkscape:label="PUB_TEXT">
  <text fill="rgb(178,0,178)" font-family="Noto Sans CJK SC" font-size="2" transform="rotate(-0.0,35.73864900000001,69.51901850000002)" x="35.73864900000001" y="69.51901850000002">
   LT7
  </text>
 </g>
 <g id="layerSTAIR" inkscape:groupmode="layer" inkscape:label="STAIR">
  <path d="M 49.233649000000014,80.68901849999997 L 49.233649000000014,68.68901849999997" fill="none" instance-id="5" semantic-id="30" stroke="rgb(178,178,0)" stroke-width="0.1"/>
  <path d="M 49.233649000000014,66.18901849999997 L 49.233649000000014,54.189018499999975" fill="none" instance-id="6" semantic-id="30" stroke="rgb(178,178,0)" stroke-width="0.1"/>
  <path d="M 51.83364899999998,80.68901849999997 L 51.83364899999998,68.68901849999997" fill="none" instance-id="5" semantic-id="30" stroke="rgb(178,178,0)" stroke-width="0.1"/>
  <path d="M 51.83364899999998,66.18901849999997 L 51.83364899999998,54.189018499999975" fill="none" instance-id="6" semantic-id="30" stroke="rgb(178,178,0)" stroke-width="0.1"/>
  <path d="M 54.433649,80.68901849999997 L 54.433649,68.68901849999997" fill="none" instance-id="5" semantic-id="30" stroke="rgb(178,178,0)" stroke-width="0.1"/>
  <path d="M 54.433649,66.18901849999997 L 54.433649,54.189018499999975" fill="none" instance-id="6" semantic-id="30" stroke="rgb(178,178,0)" stroke-width="0.1"/>
  <path d="M 57.03364899999997,80.68901849999997 L 57.03364899999997,68.68901849999997" fill="none" instance-id="5" semantic-id="30" stroke="rgb(178,178,0)" stroke-width="0.1"/>
  <path d="M 57.03364899999997,66.18901849999997 L 57.03364899999997,54.189018499999975" fill="none" instance-id="6" semantic-id="30" stroke="rgb(178,178,0)" stroke-width="0.1"/>
  <path d="M 59.63364899999999,80.68901849999997 L 59.63364899999999,68.68901849999997" fill="none" instance-id="5" semantic-id="30" stroke="rgb(178,178,0)" stroke-width="0.1"/>
  <path d="M 59.63364899999999,66.18901849999997 L 59.63364899999999,54.189018499999975" fill="none" instance-id="6" semantic-id="30" stroke="rgb(178,178,0)" stroke-width="0.1"/>
  <path d="M 62.233649000000014,80.68901849999997 L 62.233649000000014,68.68901849999997" fill="none" instance-id="5" semantic-id="30" stroke="rgb(178,178,0)" stroke-width="0.1"/>
  <path d="M 62.233649000000014,66.18901849999997 L 62.233649000000014,54.189018499999975" fill="none" instance-id="6" semantic-id="30" stroke="rgb(178,178,0)" stroke-width="0.1"/>
  <path d="M 46.63364899999999,66.18901849999997 L 64.83364899999998,66.18901849999997" fill="none" instance-id="6" semantic-id="30" stroke="rgb(178,178,0)" stroke-width="0.1"/>
  <path d="M 64.83364899999998,66.18901849999997 L 64.83364899999998,54.189018499999975" fill="none" instance-id="6" semantic-id="30" stroke="rgb(178,178,0)" stroke-width="0.1"/>
  <path d="M 64.83364899999998,54.189018499999975 L 64.83364899999998,80.68901849999997" fill="none" stroke="rgb(178,178,0)" stroke-width="0.1"/>
  <path d="M 64.83364899999998,80.68901849999997 L 46.63364899999999,80.68901849999997" fill="none" instance-id="5" semantic-id="30" stroke="rgb(178,178,0)" stroke-width="0.1"/>
  <path d="M 46.63364899999999,80.68901849999997 L 64.83364899999998,80.68901849999997" fill="none" instance-id="5" semantic-id="30" stroke="rgb(178,178,0)" stroke-width="0.1"/>
  <path d="M 64.83364899999998,80.68901849999997 L 30.13364899999999,80.68901849999997" fill="none" instance-id="5" semantic-id="30" stroke="rgb(178,178,0)" stroke-width="0.1"/>
  <path d="M 30.13364899999999,80.68901849999997 L 30.13364899999999,54.189018499999975" fill="none" stroke="rgb(178,178,0)" stroke-width="0.1"/>
  <path d="M 30.13364899999999,54.189018499999975 L 64.83364899999998,54.189018499999975" fill="none" instance-id="6" semantic-id="30" stroke="rgb(178,178,0)" stroke-width="0.1"/>
  <path d="M 64.83364899999998,54.189018499999975 L 46.63364899999999,54.189018499999975" fill="none" instance-id="6" semantic-id="30" stroke="rgb(178,178,0)" stroke-width="0.1"/>
  <path d="M 46.63364899999999,54.189018499999975 L 46.63364899999999,80.68901849999997" fill="none" stroke="rgb(178,178,0)" stroke-width="0.1"/>
  <path d="M 46.63364899999999,80.68901849999997 L 46.63364899999999,68.68901849999997" fill="none" instance-id="5" semantic-id="30" stroke="rgb(178,178,0)" stroke-width="0.1"/>
  <path d="M 46.63364899999999,68.68901849999997 L 64.83364899999998,68.68901849999997" fill="none" instance-id="5" semantic-id="30" stroke="rgb(178,178,0)" stroke-width="0.1"/>
  <path d="M 64.83364899999998,74.43901849999997 L 38.38364899999999,74.43901849999997" fill="none" instance-id="5" semantic-id="30" stroke="rgb(178,178,0)" stroke-width="0.1"/>
  <path d="M 38.38364899999999,74.43901849999997 L 38.38364899999999,60.439018499999975" fill="none" stroke="rgb(178,178,0)" stroke-width="0.1"/>
  <path d="M 38.38364899999999,60.439018499999975 L 64.83364899999998,60.439018499999975" fill="none" instance-id="6" semantic-id="30" stroke="rgb(178,178,0)" stroke-width="0.1"/>
  <path d="M 57.914649,73.83901849999995 L 57.914649,75.0390185" fill="none" instance-id="5" semantic-id="30" stroke="rgb(178,178,0)" stroke-width="0.1"/>
  <path d="M 57.914649,75.0390185 L 45.914649,73.83901849999995" fill="none" instance-id="5" semantic-id="30" stroke="rgb(178,178,0)" stroke-width="0.1"/>
  <path d="M 45.914649,73.83901849999995 L 45.914649,75.0390185" fill="none" instance-id="5" semantic-id="30" stroke="rgb(178,178,0)" stroke-width="0.1"/>
  <path d="M 45.914649,75.0390185 L 57.914649,73.83901849999995" fill="none" instance-id="5" semantic-id="30" stroke="rgb(178,178,0)" stroke-width="0.1"/>
  <path d="M 65.33364899999998,66.18901849999997 L 65.33364899999998,68.68901849999997" fill="none" stroke="rgb(178,178,0)" stroke-width="0.1"/>
  <path d="M 65.33364899999998,68.68901849999997 L 46.13364899999999,68.68901849999997" fill="none" instance-id="5" semantic-id="30" stroke="rgb(178,178,0)" stroke-width="0.1"/>
  <path d="M 46.13364899999999,68.68901849999997 L 46.13364899999999,66.18901849999997" fill="none" stroke="rgb(178,178,0)" stroke-width="0.1"/>
  <path d="M 46.13364899999999,66.18901849999997 L 65.33364899999998,66.18901849999997" fill="none" instance-id="6" semantic-id="30" stroke="rgb(178,178,0)" stroke-width="0.1"/>
  <path d="M 64.83364899999998,68.18901849999997 L 46.63364899999999,68.18901849999997" fill="none" instance-id="5" semantic-id="30" stroke="rgb(178,178,0)" stroke-width="0.1"/>
  <path d="M 46.63364899999999,68.18901849999997 L 64.83364899999998,68.18901849999997" fill="none" instance-id="5" semantic-id="30" stroke="rgb(178,178,0)" stroke-width="0.1"/>
  <path d="M 64.83364899999998,66.68901849999997 L 46.63364899999999,66.68901849999997" fill="none" instance-id="6" semantic-id="30" stroke="rgb(178,178,0)" stroke-width="0.1"/>
  <path d="M 46.63364899999999,66.68901849999997 L 64.83364899999998,66.68901849999997" fill="none" instance-id="6" semantic-id="30" stroke="rgb(178,178,0)" stroke-width="0.1"/>
  <path d="M 47.92964899999998,68.18901849999997 L 51.30664899999999,73.48901849999993" fill="none" instance-id="5" semantic-id="30" stroke="rgb(178,178,0)" stroke-width="0.1"/>
  <path d="M 51.30664899999999,73.48901849999993 L 49.78664900000001,75.11901849999992" fill="none" instance-id="5" semantic-id="30" stroke="rgb(178,178,0)" stroke-width="0.1"/>
  <path d="M 49.78664900000001,75.11901849999992 L 54.04264899999998,73.75901850000002" fill="none" instance-id="5" semantic-id="30" stroke="rgb(178,178,0)" stroke-width="0.1"/>
  <path d="M 54.04264899999998,73.75901850000002 L 52.52164899999997,75.38901850000002" fill="none" instance-id="5" semantic-id="30" stroke="rgb(178,178,0)" stroke-width="0.1"/>
  <path d="M 52.52164899999997,75.38901850000002 L 55.89864899999998,80.68901849999997" fill="none" instance-id="5" semantic-id="30" stroke="rgb(178,178,0)" stroke-width="0.1"/>
  <text fill="rgb(178,178,0)" font-family="Noto Sans CJK SC" font-size="2" transform="rotate(-0.0,67.98364900000001,76.01901850000002)" x="67.98364900000001" y="76.01901850000002">
   上
  </text>
  <text fill="rgb(178,178,0)" font-family="Noto Sans CJK SC" font-size="2" transform="rotate(-0.0,67.98364900000001,62.01401850000002)" x="67.98364900000001" y="62.01401850000002">
   下
  </text>
 </g>
 <g id="layerSURFACE" inkscape:groupmode="layer" inkscape:label="SURFACE">
  <path d="M 28.13364899999999,80.68901849999997 L 28.13364899999999,54.189018499999975" fill="none" stroke="rgb(178,0,178)" stroke-width="0.1"/>
  <path d="M 28.13364899999999,54.189018499999975 L 7.133648999999991,54.189018499999975" fill="none" stroke="rgb(178,0,178)" stroke-width="0.1"/>
  <path d="M 7.133648999999991,54.189018499999975 L 7.133648999999991,80.68901849999997" fill="none" stroke="rgb(178,0,178)" stroke-width="0.1"/>
  <path d="M 7.133648999999991,80.68901849999997 L 28.13364899999999,80.68901849999997" fill="none" stroke="rgb(178,0,178)" stroke-width="0.1"/>
  <path d="M 0.0,80.68901849999997 L 5.133648999999991,80.68901849999997" fill="none" stroke="rgb(178,0,178)" stroke-width="0.1"/>
  <path d="M 5.133648999999991,80.68901849999997 L 5.133648999999991,54.189018499999975" fill="none" stroke="rgb(178,0,178)" stroke-width="0.1"/>
  <path d="M 5.133648999999991,54.189018499999975 L 0.0,54.189018499999975" fill="none" stroke="rgb(178,0,178)" stroke-width="0.1"/>
  <path d="M 5.133648999999991,54.189018499999975 L 0.7246489999999994,75.99901849999992" fill="none" stroke="rgb(178,0,178)" stroke-width="0.1"/>
  <path d="M 0.7246489999999994,75.99901849999992 L 0.0,76.14945910953475" fill="none" stroke="rgb(178,0,178)" stroke-width="0.1"/>
  <path d="M 28.13364899999999,54.189018499999975 L 24.514648999999963,76.20901849999996" fill="none" stroke="rgb(178,0,178)" stroke-width="0.1"/>
  <path d="M 24.514648999999963,76.20901849999996 L 7.133648999999991,80.68901849999997" fill="none" stroke="rgb(178,0,178)" stroke-width="0.1"/>
  <text fill="rgb(178,0,178)" font-family="Noto Sans CJK SC" font-size="2" transform="rotate(-0.0,15.043649000000016,68.2890185)" x="15.043649000000016" y="68.2890185">
   PF
  </text>
 </g>
 <g id="layerWALL" inkscape:groupmode="layer" inkscape:label="WALL">
  <path d="M 90.13364899999999,53.189018499999975 L 90.13364899999999,80.18901849999997" fill="none" instance-id="-1" semantic-id="1" stroke="rgb(0,178,178)" stroke-width="0.1"/>
  <path d="M 88.13364899999999,54.189018499999975 L 88.13364899999999,80.18901849999997" fill="none" instance-id="-1" semantic-id="1" stroke="rgb(0,178,178)" stroke-width="0.1"/>
  <path d="M 5.132649000000015,80.68901849999997 L 5.132649000000015,54.189018499999975" fill="none" instance-id="-1" semantic-id="1" stroke="rgb(0,178,178)" stroke-width="0.1"/>
  <path d="M 7.132649000000015,80.68901849999997 L 7.132649000000015,54.189018499999975" fill="none" instance-id="-1" semantic-id="1" stroke="rgb(0,178,178)" stroke-width="0.1"/>
  <path d="M 0.0,80.68901849999997 L 5.132649000000015,80.68901849999997" fill="none" instance-id="-1" semantic-id="1" stroke="rgb(0,178,178)" stroke-width="0.1"/>
  <path d="M 0.0,82.68901849999997 L 6.132649000000015,82.68901849999997" fill="none" instance-id="-1" semantic-id="1" stroke="rgb(0,178,178)" stroke-width="0.1"/>
  <path d="M 7.132649000000015,80.68901849999997 L 11.134648999999968,80.68901849999997" fill="none" instance-id="-1" semantic-id="1" stroke="rgb(0,178,178)" stroke-width="0.1"/>
  <path d="M 6.132649000000015,82.68901849999997 L 11.134648999999968,82.68901849999997" fill="none" instance-id="-1" semantic-id="1" stroke="rgb(0,178,178)" stroke-width="0.1"/>
  <path d="M 6.132649000000015,52.189018499999975 L 21.134648999999968,52.189018499999975" fill="none" instance-id="-1" semantic-id="1" stroke="rgb(0,178,178)" stroke-width="0.1"/>
  <path d="M 7.132649000000015,54.189018499999975 L 21.134648999999968,54.189018499999975" fill="none" instance-id="-1" semantic-id="1" stroke="rgb(0,178,178)" stroke-width="0.1"/>
  <path d="M 21.134648999999968,52.189018499999975 L 21.134648999999968,54.189018499999975" fill="none" instance-id="-1" semantic-id="1" stroke="rgb(0,178,178)" stroke-width="0.1"/>
  <path d="M 30.13364899999999,80.68901849999997 L 74.13464899999997,80.68901849999997" fill="none" instance-id="-1" semantic-id="1" stroke="rgb(0,178,178)" stroke-width="0.1"/>
  <path d="M 29.13364899999999,82.68901849999997 L 74.13464899999997,82.68901849999997" fill="none" instance-id="-1" semantic-id="1" stroke="rgb(0,178,178)" stroke-width="0.1"/>
  <path d="M 74.13464899999997,80.68901849999997 L 74.13464899999997,82.68901849999997" fill="none" instance-id="-1" semantic-id="1" stroke="rgb(0,178,178)" stroke-width="0.1"/>
  <path d="M 29.13364899999999,52.189018499999975 L 88.13364899999999,52.189018499999975" fill="none" instance-id="-1" semantic-id="1" stroke="rgb(0,178,178)" stroke-width="0.1"/>
  <path d="M 30.13364899999999,54.189018499999975 L 88.13364899999999,54.189018499999975" fill="none" instance-id="-1" semantic-id="1" stroke="rgb(0,178,178)" stroke-width="0.1"/>
  <path d="M 28.13364899999999,80.68901849999997 L 28.13364899999999,54.189018499999975" fill="none" instance-id="-1" semantic-id="1" stroke="rgb(0,178,178)" stroke-width="0.1"/>
  <path d="M 30.13364899999999,80.68901849999997 L 30.13364899999999,54.189018499999975" fill="none" instance-id="-1" semantic-id="1" stroke="rgb(0,178,178)" stroke-width="0.1"/>
  <path d="M 27.129648999999972,52.189018499999975 L 29.13364899999999,52.189018499999975" fill="none" instance-id="-1" semantic-id="1" stroke="rgb(0,178,178)" stroke-width="0.1"/>
  <path d="M 27.129648999999972,54.189018499999975 L 28.13364899999999,54.189018499999975" fill="none" instance-id="-1" semantic-id="1" stroke="rgb(0,178,178)" stroke-width="0.1"/>
  <path d="M 27.129648999999972,52.189018499999975 L 27.129648999999972,54.189018499999975" fill="none" instance-id="-1" semantic-id="1" stroke="rgb(0,178,178)" stroke-width="0.1"/>
  <path d="M 0.1316489999999817,0.0 L 0.1316489999999817,52.189018499999975" fill="none" instance-id="-1" semantic-id="1" stroke="rgb(0,178,178)" stroke-width="0.1"/>
  <path d="M 0.1316489999999817,52.189018499999975 L 6.132649000000015,52.189018499999975" fill="none" instance-id="-1" semantic-id="1" stroke="rgb(0,178,178)" stroke-width="0.1"/>
  <path d="M 0.0,54.189018499999975 L 5.132649000000015,54.189018499999975" fill="none" instance-id="-1" semantic-id="1" stroke="rgb(0,178,178)" stroke-width="0.1"/>
  <path d="M 90.13364899999999,0.0 L 90.13364899999999,5.189018499999975" fill="none" instance-id="-1" semantic-id="1" stroke="rgb(0,178,178)" stroke-width="0.1"/>
  <path d="M 88.13364899999999,0.0 L 88.13364899999999,5.189018499999975" fill="none" instance-id="-1" semantic-id="1" stroke="rgb(0,178,178)" stroke-width="0.1"/>
  <path d="M 90.13364899999999,31.189018499999975 L 90.13364899999999,53.189018499999975" fill="none" instance-id="-1" semantic-id="1" stroke="rgb(0,178,178)" stroke-width="0.1"/>
  <path d="M 88.13364899999999,31.189018499999975 L 88.13364899999999,52.189018499999975" fill="none" instance-id="-1" semantic-id="1" stroke="rgb(0,178,178)" stroke-width="0.1"/>
  <path d="M 90.13364899999999,31.189018499999975 L 88.13364899999999,31.189018499999975" fill="none" instance-id="-1" semantic-id="1" stroke="rgb(0,178,178)" stroke-width="0.1"/>
  <path d="M 17.134648999999968,80.68901849999997 L 28.13364899999999,80.68901849999997" fill="none" instance-id="-1" semantic-id="1" stroke="rgb(0,178,178)" stroke-width="0.1"/>
  <path d="M 17.134648999999968,82.68901849999997 L 29.13364899999999,82.68901849999997" fill="none" instance-id="-1" semantic-id="1" stroke="rgb(0,178,178)" stroke-width="0.1"/>
 </g>
 <g id="layer设备层" inkscape:groupmode="layer" inkscape:label="设备层">
  <path d="M 22.53364899999997,16.19001849999995 L 68.13364899999999,16.19001849999995" fill="none" stroke="rgb(53,133,160)" stroke-width="0.1"/>
  <path d="M 68.13364899999999,16.19001849999995 L 68.13364899999999,39.19001849999995" fill="none" stroke="rgb(53,133,160)" stroke-width="0.1"/>
  <path d="M 68.13364899999999,39.19001849999995 L 22.53364899999997,39.19001849999995" fill="none" stroke="rgb(53,133,160)" stroke-width="0.1"/>
  <path d="M 22.53364899999997,39.19001849999995 L 22.53364899999997,16.19001849999995" fill="none" stroke="rgb(53,133,160)" stroke-width="0.1"/>
 </g>
 <g id="layer预留孔" inkscape:groupmode="layer" inkscape:label="预留孔">
  <path d="M 27.129648999999972,52.19001849999995 L 21.135649,54.189018499999975" fill="none" stroke="rgb(0,178,0)" stroke-width="0.1"/>
  <path d="M 21.134648999999968,52.19001849999995 L 27.129648999999972,54.189018499999975" fill="none" stroke="rgb(0,178,0)" stroke-width="0.1"/>
  <path d="M 0.1316489999999817,22.692018500000017 L 0.0,23.350922403903837" fill="none" stroke="rgb(0,178,0)" stroke-width="0.1"/>
  <path d="M 0.0,32.0331145960962 L 0.1316489999999817,32.69201850000002" fill="none" stroke="rgb(0,178,0)" stroke-width="0.1"/>
  <path d="M 8.163648999999964,78.45901849999996 L 8.901648999999964,77.71901849999995" fill="none" stroke="rgb(89,89,89)" stroke-width="0.1"/>
  <path d="M 8.161649000000011,78.9090185 L 9.355648999999971,77.71901849999995" fill="none" stroke="rgb(89,89,89)" stroke-width="0.1"/>
  <path d="M 8.294648999999993,79.22901849999994 L 9.670648999999969,77.84901849999994" fill="none" stroke="rgb(89,89,89)" stroke-width="0.1"/>
  <path d="M 8.505649000000005,79.46901849999995 L 9.906649000000016,78.05901849999998" fill="none" stroke="rgb(89,89,89)" stroke-width="0.1"/>
  <path d="M 8.791649000000007,79.62901850000003 L 10.070649000000003,78.34901849999994" fill="none" stroke="rgb(89,89,89)" stroke-width="0.1"/>
  <path d="M 9.179648999999984,79.68901849999997 L 10.12764900000002,78.73901849999993" fill="none" stroke="rgb(89,89,89)" stroke-width="0.1"/>
  <path d="M 27.129648999999972,52.19001849999995 L 21.134648999999968,52.19001849999995" fill="none" stroke="rgb(0,178,0)" stroke-width="0.1"/>
  <path d="M 21.134648999999968,52.19001849999995 L 21.134648999999968,54.189018499999975" fill="none" stroke="rgb(0,178,0)" stroke-width="0.1"/>
  <path d="M 21.134648999999968,54.189018499999975 L 27.129648999999972,54.189018499999975" fill="none" stroke="rgb(0,178,0)" stroke-width="0.1"/>
  <path d="M 27.129648999999972,54.189018499999975 L 27.129648999999972,52.19001849999995" fill="none" stroke="rgb(0,178,0)" stroke-width="0.1"/>
  <path d="M 0.13364899999999125,22.692018500000017 L 0.0,22.692018500000017" fill="none" stroke="rgb(0,178,0)" stroke-width="0.1"/>
  <path d="M 0.0,32.69201850000002 L 0.13364899999999125,32.69201850000002" fill="none" stroke="rgb(0,178,0)" stroke-width="0.1"/>
  <path d="M 0.13364899999999125,32.69201850000002 L 0.13364899999999125,22.692018500000017" fill="none" stroke="rgb(0,178,0)" stroke-width="0.1"/>
  <circle cx="9.132649000000015" cy="78.68901849999997" fill="none" r="1" stroke="rgb(0,178,0)" stroke-width="0.1"/>
 </g>
</svg>