<?xml version="1.0" encoding="utf-8"?>
<svg style="background-color: #000;" version="1.1" viewBox="0 0 100.0 100.0" xmlns="http://www.w3.org/2000/svg" xmlns:inkscape="http://www.inkscape.org/namespaces/inkscape">
 <g id="layerCOLUMN" inkscape:groupmode="layer" inkscape:label="COLUMN">
  <path d="M 61.13364899999999,51.189018499999975 L 67.13364899999999,51.189018499999975" fill="none" stroke="rgb(178,0,178)" stroke-width="0.1"/>
  <path d="M 67.13364899999999,51.189018499999975 L 67.13364899999999,45.189018499999975" fill="none" stroke="rgb(178,0,178)" stroke-width="0.1"/>
  <path d="M 67.13364899999999,45.189018499999975 L 61.13364899999999,45.189018499999975" fill="none" stroke="rgb(178,0,178)" stroke-width="0.1"/>
  <path d="M 61.13364899999999,45.189018499999975 L 61.13364899999999,51.189018499999975" fill="none" stroke="rgb(178,0,178)" stroke-width="0.1"/>
 </g>
 <g id="layerDIM_ELEV" inkscape:groupmode="layer" inkscape:label="DIM_ELEV">
  <path d="M 23.809649000000036,37.70901849999996 L 0.3346490000000131,37.70901849999996" fill="none" stroke="rgb(0,178,0)" stroke-width="0.1"/>
  <path d="M 0.3346490000000131,37.70901849999996 L 4.834649000000013,42.20901849999996" fill="none" stroke="rgb(0,178,0)" stroke-width="0.1"/>
  <path d="M 4.834649000000013,42.20901849999996 L 9.334649000000013,37.70901849999996" fill="none" stroke="rgb(0,178,0)" stroke-width="0.1"/>
  <text fill="rgb(0,0,0)" font-family="Noto Sans CJK SC" font-size="2" transform="rotate(-0.0,1.0596490000000358,36.97901849999994)" x="1.0596490000000358" y="36.97901849999994">
   11.2(结构)
  </text>
 </g>
 <g id="layerDIM_IDEN" inkscape:groupmode="layer" inkscape:label="DIM_IDEN">
  <path d="M 100.0,53.61901850000004 L 93.68264899999997,53.61901850000004" fill="none" stroke="rgb(0,178,0)" stroke-width="0.1"/>
  <path d="M 93.68264899999997,53.61901850000004 L 93.68264899999997,32.63901850000002" fill="none" stroke="rgb(0,178,0)" stroke-width="0.1"/>
  <path d="M 0.0,44.89901850000001 L 38.61964899999998,44.89901850000001" fill="none" stroke="rgb(0,178,0)" stroke-width="0.1"/>
  <circle cx="93.68264899999997" cy="32.63901850000002" fill="none" r="0.05" stroke="rgb(0,178,0)" stroke-width="0.1"/>
  <circle cx="31.11964899999998" cy="44.89901850000001" fill="none" r="7.5" stroke="rgb(0,178,0)" stroke-width="0.1"/>
  <text fill="rgb(0,0,0)" font-family="Noto Sans CJK SC" font-size="2" transform="rotate(-0.0,98.89464899999996,51.77901849999989)" x="98.89464899999996" y="51.77901849999989">
   参15J403-1
  </text>
  <text fill="rgb(0,0,0)" font-family="Noto Sans CJK SC" font-size="2" transform="rotate(-0.0,97.40764899999999,59.12901850000003)" x="97.40764899999999" y="59.12901850000003">
   1100高不锈钢栏杆
  </text>
  <text fill="rgb(0,0,0)" font-family="Noto Sans CJK SC" font-size="2" transform="rotate(-0.0,28.798648999999955,41.14901850000001)" x="28.798648999999955" y="41.14901850000001">
   -
  </text>
  <text fill="rgb(0,0,0)" font-family="Noto Sans CJK SC" font-size="2" transform="rotate(-0.0,25.673648999999955,50.5190184999999)" x="25.673648999999955" y="50.5190184999999">
   D19
  </text>
 </g>
 <g id="layerDIM_LEAD" inkscape:groupmode="layer" inkscape:label="DIM_LEAD">
  <path d="M 76.44064900000001,74.85901850000005 L 100.0,74.85901850000005" fill="none" stroke="rgb(0,178,0)" stroke-width="0.1"/>
  <text fill="rgb(0,0,0)" font-family="Noto Sans CJK SC" font-size="2" transform="rotate(-0.0,76.44064900000001,73.0190184999999)" x="76.44064900000001" y="73.0190184999999">
   设备承台（余同）
  </text>
  <text fill="rgb(0,0,0)" font-family="Noto Sans CJK SC" font-size="2" transform="rotate(-0.0,76.44064900000001,79.31901850000008)" x="76.44064900000001" y="79.31901850000008">
   详工艺
  </text>
 </g>
 <g id="layerDOTE" inkscape:groupmode="layer" inkscape:label="DOTE">
  <path d="M 0.0,48.189018499999975 L 100.0,48.189018499999975" fill="none" stroke="rgb(178,0,0)" stroke-width="0.1"/>
  <path d="M 64.13364899999999,0.0 L 64.13364899999999,100.0" fill="none" stroke="rgb(178,0,0)" stroke-width="0.1"/>
  <path d="M 0.0,10.689018499999975 L 100.0,10.689018499999975" fill="none" stroke="rgb(178,0,0)" stroke-width="0.1"/>
 </g>
 <g id="layerPUB_DIM" inkscape:groupmode="layer" inkscape:label="PUB_DIM">
  <path d="M 47.483649000000014,90.18901849999997 L 57.983649000000014,90.18901849999997" fill="none" stroke="rgb(0,178,0)" stroke-width="0.1"/>
  <path d="M 47.483649000000014,70.18901849999997 L 57.983649000000014,70.18901849999997" fill="none" stroke="rgb(0,178,0)" stroke-width="0.1"/>
  <path d="M 47.483649000000014,42.689018499999975 L 57.983649000000014,42.689018499999975" fill="none" stroke="rgb(0,178,0)" stroke-width="0.1"/>
  <path d="M 47.483649000000014,32.689018499999975 L 57.983649000000014,32.689018499999975" fill="none" stroke="rgb(0,178,0)" stroke-width="0.1"/>
  <path d="M 47.483649000000014,5.189018499999975 L 57.983649000000014,5.189018499999975" fill="none" stroke="rgb(0,178,0)" stroke-width="0.1"/>
  <path d="M 51.80564900000002,89.25901849999991 L 53.66164900000001,91.11901850000004" fill="none" stroke="rgb(0,178,0)" stroke-width="0.1"/>
  <path d="M 51.80564900000002,69.25901849999991 L 53.66164900000001,71.11901850000004" fill="none" stroke="rgb(0,178,0)" stroke-width="0.1"/>
  <path d="M 51.80564900000002,41.75901849999991 L 53.66164900000001,43.61901850000004" fill="none" stroke="rgb(0,178,0)" stroke-width="0.1"/>
  <path d="M 51.80564900000002,31.75901849999991 L 53.66164900000001,33.61901850000004" fill="none" stroke="rgb(0,178,0)" stroke-width="0.1"/>
  <path d="M 51.80564900000002,4.259018499999911 L 53.66164900000001,6.119018500000038" fill="none" stroke="rgb(0,178,0)" stroke-width="0.1"/>
  <path d="M 63.205648999999994,75.96901849999995 L 65.06164899999999,74.11901850000004" fill="none" stroke="rgb(0,178,0)" stroke-width="0.1"/>
  <path d="M 64.13364899999999,80.29901849999987 L 64.13364899999999,69.79901849999987" fill="none" stroke="rgb(0,178,0)" stroke-width="0.1"/>
  <path d="M 65.70664899999997,75.96901849999995 L 67.56264899999996,74.11901850000004" fill="none" stroke="rgb(0,178,0)" stroke-width="0.1"/>
  <path d="M 66.63464899999997,80.29901849999987 L 66.63464899999997,69.79901849999987" fill="none" stroke="rgb(0,178,0)" stroke-width="0.1"/>
  <path d="M 72.70664899999997,75.96901849999995 L 74.56264899999996,74.11901850000004" fill="none" stroke="rgb(0,178,0)" stroke-width="0.1"/>
  <path d="M 73.63464899999997,80.29901849999987 L 73.63464899999997,69.79901849999987" fill="none" stroke="rgb(0,178,0)" stroke-width="0.1"/>
  <path d="M 7.205648999999994,18.859018500000047 L 9.062648999999965,17.00901849999991" fill="none" stroke="rgb(0,178,0)" stroke-width="0.1"/>
  <path d="M 8.133648999999991,23.189018499999975 L 8.133648999999991,12.689018499999975" fill="none" stroke="rgb(0,178,0)" stroke-width="0.1"/>
  <path d="M 17.205648999999994,18.859018500000047 L 19.062648999999965,17.00901849999991" fill="none" stroke="rgb(0,178,0)" stroke-width="0.1"/>
  <path d="M 18.13364899999999,23.189018499999975 L 18.13364899999999,12.689018499999975" fill="none" stroke="rgb(0,178,0)" stroke-width="0.1"/>
  <path d="M 34.205648999999994,18.859018500000047 L 36.062648999999965,17.00901849999991" fill="none" stroke="rgb(0,178,0)" stroke-width="0.1"/>
  <path d="M 35.13364899999999,23.189018499999975 L 35.13364899999999,12.689018499999975" fill="none" stroke="rgb(0,178,0)" stroke-width="0.1"/>
  <path d="M 48.205648999999994,18.859018500000047 L 50.062648999999965,17.00901849999991" fill="none" stroke="rgb(0,178,0)" stroke-width="0.1"/>
  <path d="M 49.13364899999999,23.189018499999975 L 49.13364899999999,12.689018499999975" fill="none" stroke="rgb(0,178,0)" stroke-width="0.1"/>
  <path d="M 23.549649000000045,99.18901849999997 L 34.049649000000045,99.18901849999997" fill="none" stroke="rgb(0,178,0)" stroke-width="0.1"/>
  <path d="M 23.549649000000045,86.68901849999997 L 34.049649000000045,86.68901849999997" fill="none" stroke="rgb(0,178,0)" stroke-width="0.1"/>
  <path d="M 23.549649000000045,74.68901849999997 L 34.049649000000045,74.68901849999997" fill="none" stroke="rgb(0,178,0)" stroke-width="0.1"/>
  <path d="M 23.549649000000045,67.68901849999997 L 34.049649000000045,67.68901849999997" fill="none" stroke="rgb(0,178,0)" stroke-width="0.1"/>
  <path d="M 23.549649000000045,48.189018499999975 L 34.049649000000045,48.189018499999975" fill="none" stroke="rgb(0,178,0)" stroke-width="0.1"/>
  <path d="M 27.871649000000048,98.25901849999991 L 29.60888645376349,100.0" fill="none" stroke="rgb(0,178,0)" stroke-width="0.1"/>
  <path d="M 27.871649000000048,85.75901849999991 L 29.727649000000042,87.61901850000004" fill="none" stroke="rgb(0,178,0)" stroke-width="0.1"/>
  <path d="M 27.871649000000048,73.75901849999991 L 29.727649000000042,75.61901850000004" fill="none" stroke="rgb(0,178,0)" stroke-width="0.1"/>
  <path d="M 27.871649000000048,66.75901849999991 L 29.727649000000042,68.61901850000004" fill="none" stroke="rgb(0,178,0)" stroke-width="0.1"/>
  <path d="M 27.871649000000048,47.25901849999991 L 29.727649000000042,49.11901850000004" fill="none" stroke="rgb(0,178,0)" stroke-width="0.1"/>
  <path d="M 25.594649000000004,7.689018499999975 L 36.094649000000004,7.689018499999975" fill="none" stroke="rgb(0,178,0)" stroke-width="0.1"/>
  <path d="M 25.594649000000004,0.6890184999999747 L 36.094649000000004,0.6890184999999747" fill="none" stroke="rgb(0,178,0)" stroke-width="0.1"/>
  <path d="M 29.916649000000007,6.759018499999911 L 31.772649,8.619018500000038" fill="none" stroke="rgb(0,178,0)" stroke-width="0.1"/>
  <path d="M 30.15711226021517,0.0 L 31.772649,1.6190185000000383" fill="none" stroke="rgb(0,178,0)" stroke-width="0.1"/>
  <path d="M 52.733649000000014,100.0 L 52.733649000000014,0.0" fill="none" stroke="rgb(0,178,0)" stroke-width="0.1"/>
  <path d="M 64.13364899999999,86.09901850000006 L 64.13364899999999,75.04901849999987" fill="none" stroke="rgb(0,178,0)" stroke-width="0.1"/>
  <path d="M 64.13364899999999,75.04901849999987 L 73.63464899999997,75.04901849999987" fill="none" stroke="rgb(0,178,0)" stroke-width="0.1"/>
  <path d="M 73.63464899999997,75.04901849999987 L 73.63464899999997,86.09901850000006" fill="none" stroke="rgb(0,178,0)" stroke-width="0.1"/>
  <path d="M 49.13364899999999,96.18901849999997 L 49.13364899999999,100.0" fill="none" stroke="rgb(0,178,0)" stroke-width="0.1"/>
  <path d="M 0.0,17.939018499999975 L 49.13364899999999,17.939018499999975" fill="none" stroke="rgb(0,178,0)" stroke-width="0.1"/>
  <path d="M 49.13364899999999,17.939018499999975 L 49.13364899999999,7.689018499999975" fill="none" stroke="rgb(0,178,0)" stroke-width="0.1"/>
  <path d="M 39.13364899999999,48.189018499999975 L 28.799649000000045,48.189018499999975" fill="none" stroke="rgb(0,178,0)" stroke-width="0.1"/>
  <path d="M 28.799649000000045,48.189018499999975 L 28.799649000000045,99.18901849999997" fill="none" stroke="rgb(0,178,0)" stroke-width="0.1"/>
  <path d="M 28.799649000000045,99.18901849999997 L 39.13364899999999,99.18901849999997" fill="none" stroke="rgb(0,178,0)" stroke-width="0.1"/>
  <path d="M 30.844649000000004,0.0 L 30.844649000000004,7.689018499999975" fill="none" stroke="rgb(0,178,0)" stroke-width="0.1"/>
  <path d="M 30.844649000000004,7.689018499999975 L 42.13364899999999,7.689018499999975" fill="none" stroke="rgb(0,178,0)" stroke-width="0.1"/>
  <text fill="rgb(0,0,0)" font-family="Noto Sans CJK SC" font-size="2" transform="rotate(-450.0,50.16164900000001,2.1890184999999747)" x="50.16164900000001" y="2.1890184999999747">
   2000
  </text>
  <text fill="rgb(0,0,0)" font-family="Noto Sans CJK SC" font-size="2" transform="rotate(-450.0,50.16164900000001,25.939018499999975)" x="50.16164900000001" y="25.939018499999975">
   2750
  </text>
  <text fill="rgb(0,0,0)" font-family="Noto Sans CJK SC" font-size="2" transform="rotate(-450.0,50.16164900000001,44.949018499999966)" x="50.16164900000001" y="44.949018499999966">
   1000
  </text>
  <text fill="rgb(0,0,0)" font-family="Noto Sans CJK SC" font-size="2" transform="rotate(-450.0,50.16164900000001,63.439018499999975)" x="50.16164900000001" y="63.439018499999975">
   2750
  </text>
  <text fill="rgb(0,0,0)" font-family="Noto Sans CJK SC" font-size="2" transform="rotate(-450.0,50.16164900000001,87.18901849999997)" x="50.16164900000001" y="87.18901849999997">
   2000
  </text>
  <text fill="rgb(0,0,0)" font-family="Noto Sans CJK SC" font-size="2" transform="rotate(-360.0,64.88464899999997,72.46901849999995)" x="64.88464899999997" y="72.46901849999995">
   700
  </text>
  <text fill="rgb(0,0,0)" font-family="Noto Sans CJK SC" font-size="2" transform="rotate(-360.0,53.33364900000004,72.75901849999991)" x="53.33364900000004" y="72.75901849999991">
   250
  </text>
  <text fill="rgb(0,0,0)" font-family="Noto Sans CJK SC" font-size="2" transform="rotate(-360.0,34.87164900000005,15.359018500000047)" x="34.87164900000005" y="15.359018500000047">
   1400
  </text>
  <text fill="rgb(0,0,0)" font-family="Noto Sans CJK SC" font-size="2" transform="rotate(-360.0,19.371649000000048,15.359018500000047)" x="19.371649000000048" y="15.359018500000047">
   1700
  </text>
  <text fill="rgb(0,0,0)" font-family="Noto Sans CJK SC" font-size="2" transform="rotate(-360.0,5.871649000000048,15.359018500000047)" x="5.871649000000048" y="15.359018500000047">
   1000
  </text>
  <text fill="rgb(0,0,0)" font-family="Noto Sans CJK SC" font-size="2" transform="rotate(-90.0,26.227649000000042,87.94901849999997)" x="26.227649000000042" y="87.94901849999997">
   1200
  </text>
  <text fill="rgb(0,0,0)" font-family="Noto Sans CJK SC" font-size="2" transform="rotate(-90.0,21.26264900000001,76.43901849999997)" x="21.26264900000001" y="76.43901849999997">
   700
  </text>
  <text fill="rgb(0,0,0)" font-family="Noto Sans CJK SC" font-size="2" transform="rotate(-90.0,26.227649000000042,65.19901849999997)" x="26.227649000000042" y="65.19901849999997">
   1950
  </text>
  <text fill="rgb(0,0,0)" font-family="Noto Sans CJK SC" font-size="2" transform="rotate(-90.0,28.55764899999997,9.88901850000002)" x="28.55764899999997" y="9.88901850000002">
   700
  </text>
  <text fill="rgb(0,0,0)" font-family="Noto Sans CJK SC" font-size="2" transform="rotate(-90.0,28.272649,1.9490184999999656)" x="28.272649" y="1.9490184999999656">
   1200
  </text>
 </g>
 <g id="layerPUB_HATCH" inkscape:groupmode="layer" inkscape:label="PUB_HATCH">
  <path d="M 61.13364899999999,51.189018499999975 L 67.13364899999999,51.189018499999975" fill="none" stroke="rgb(89,89,89)" stroke-width="0.1"/>
  <path d="M 67.13364899999999,51.189018499999975 L 67.13364899999999,45.189018499999975" fill="none" stroke="rgb(89,89,89)" stroke-width="0.1"/>
  <path d="M 67.13364899999999,45.189018499999975 L 61.13364899999999,45.189018499999975" fill="none" stroke="rgb(89,89,89)" stroke-width="0.1"/>
  <path d="M 61.13364899999999,45.189018499999975 L 61.13364899999999,51.189018499999975" fill="none" stroke="rgb(89,89,89)" stroke-width="0.1"/>
 </g>
 <g id="layerTWT_DIM" inkscape:groupmode="layer" inkscape:label="TWT_DIM">
  <path d="M 100.0,96.18901849999997 L 82.63464899999997,96.18901849999997" fill="none" stroke="rgb(89,89,89)" stroke-width="0.1"/>
  <path d="M 82.63464899999997,96.18901849999997 L 82.63464899999997,100.0" fill="none" stroke="rgb(89,89,89)" stroke-width="0.1"/>
  <path d="M 93.63464899999997,71.18901849999997 L 93.63464899999997,89.18901849999997" fill="none" stroke="rgb(89,89,89)" stroke-width="0.1"/>
  <path d="M 93.63464899999997,89.18901849999997 L 100.0,89.18901849999997" fill="none" stroke="rgb(89,89,89)" stroke-width="0.1"/>
  <path d="M 100.0,71.18901849999997 L 93.63464899999997,71.18901849999997" fill="none" stroke="rgb(89,89,89)" stroke-width="0.1"/>
  <path d="M 73.63464899999997,70.18901849999997 L 66.63464899999997,70.18901849999997" fill="none" stroke="rgb(89,89,89)" stroke-width="0.1"/>
  <path d="M 66.63464899999997,70.18901849999997 L 66.63464899999997,42.689018499999975" fill="none" stroke="rgb(89,89,89)" stroke-width="0.1"/>
  <path d="M 66.63464899999997,42.689018499999975 L 73.63464899999997,42.689018499999975" fill="none" stroke="rgb(89,89,89)" stroke-width="0.1"/>
  <path d="M 73.63464899999997,42.689018499999975 L 73.63464899999997,70.18901849999997" fill="none" stroke="rgb(89,89,89)" stroke-width="0.1"/>
  <path d="M 73.63464899999997,100.0 L 73.63464899999997,90.18901849999997" fill="none" stroke="rgb(89,89,89)" stroke-width="0.1"/>
  <path d="M 73.63464899999997,90.18901849999997 L 66.63464899999997,90.18901849999997" fill="none" stroke="rgb(89,89,89)" stroke-width="0.1"/>
  <path d="M 66.63464899999997,90.18901849999997 L 66.63464899999997,100.0" fill="none" stroke="rgb(89,89,89)" stroke-width="0.1"/>
  <path d="M 93.63464899999997,4.189018499999975 L 93.63464899999997,0.0" fill="none" stroke="rgb(89,89,89)" stroke-width="0.1"/>
  <path d="M 100.0,4.189018499999975 L 93.63464899999997,4.189018499999975" fill="none" stroke="rgb(89,89,89)" stroke-width="0.1"/>
  <path d="M 73.63464899999997,5.189018499999975 L 66.63464899999997,5.189018499999975" fill="none" stroke="rgb(89,89,89)" stroke-width="0.1"/>
  <path d="M 66.63464899999997,5.189018499999975 L 66.63464899999997,32.689018499999975" fill="none" stroke="rgb(89,89,89)" stroke-width="0.1"/>
  <path d="M 66.63464899999997,32.689018499999975 L 73.63464899999997,32.689018499999975" fill="none" stroke="rgb(89,89,89)" stroke-width="0.1"/>
  <path d="M 73.63464899999997,32.689018499999975 L 73.63464899999997,5.189018499999975" fill="none" stroke="rgb(89,89,89)" stroke-width="0.1"/>
  <path d="M 74.13464899999997,4.689018499999975 L 66.13464899999997,4.689018499999975" fill="none" stroke="rgb(89,89,89)" stroke-width="0.1"/>
  <path d="M 66.13464899999997,4.689018499999975 L 66.13464899999997,33.189018499999975" fill="none" stroke="rgb(89,89,89)" stroke-width="0.1"/>
  <path d="M 66.13464899999997,33.189018499999975 L 74.13464899999997,33.189018499999975" fill="none" stroke="rgb(89,89,89)" stroke-width="0.1"/>
  <path d="M 74.13464899999997,33.189018499999975 L 74.13464899999997,4.689018499999975" fill="none" stroke="rgb(89,89,89)" stroke-width="0.1"/>
  <path d="M 82.63464899999997,11.189018499999975 L 100.0,11.189018499999975" fill="none" stroke="rgb(89,89,89)" stroke-width="0.1"/>
  <path d="M 100.0,32.689018499999975 L 82.63464899999997,32.689018499999975" fill="none" stroke="rgb(89,89,89)" stroke-width="0.1"/>
  <path d="M 82.63464899999997,32.689018499999975 L 82.63464899999997,11.189018499999975" fill="none" stroke="rgb(89,89,89)" stroke-width="0.1"/>
  <path d="M 82.63464899999997,64.18901849999997 L 100.0,64.18901849999997" fill="none" stroke="rgb(89,89,89)" stroke-width="0.1"/>
  <path d="M 100.0,42.689018499999975 L 82.63464899999997,42.689018499999975" fill="none" stroke="rgb(89,89,89)" stroke-width="0.1"/>
  <path d="M 82.63464899999997,42.689018499999975 L 82.63464899999997,64.18901849999997" fill="none" stroke="rgb(89,89,89)" stroke-width="0.1"/>
  <path d="M 74.13464899999997,70.68901849999997 L 66.13464899999997,70.68901849999997" fill="none" stroke="rgb(89,89,89)" stroke-width="0.1"/>
  <path d="M 66.13464899999997,70.68901849999997 L 66.13464899999997,42.189018499999975" fill="none" stroke="rgb(89,89,89)" stroke-width="0.1"/>
  <path d="M 66.13464899999997,42.189018499999975 L 74.13464899999997,42.189018499999975" fill="none" stroke="rgb(89,89,89)" stroke-width="0.1"/>
  <path d="M 74.13464899999997,42.189018499999975 L 74.13464899999997,70.68901849999997" fill="none" stroke="rgb(89,89,89)" stroke-width="0.1"/>
  <path d="M 74.13464899999997,100.0 L 74.13464899999997,89.68901849999997" fill="none" stroke="rgb(89,89,89)" stroke-width="0.1"/>
  <path d="M 74.13464899999997,89.68901849999997 L 66.13464899999997,89.68901849999997" fill="none" stroke="rgb(89,89,89)" stroke-width="0.1"/>
  <path d="M 66.13464899999997,89.68901849999997 L 66.13464899999997,100.0" fill="none" stroke="rgb(89,89,89)" stroke-width="0.1"/>
  <path d="M 100.0,33.189018499999975 L 82.13464899999997,33.189018499999975" fill="none" stroke="rgb(89,89,89)" stroke-width="0.1"/>
  <path d="M 82.13464899999997,33.189018499999975 L 82.13464899999997,10.689018499999975" fill="none" stroke="rgb(89,89,89)" stroke-width="0.1"/>
  <path d="M 82.13464899999997,10.689018499999975 L 100.0,10.689018499999975" fill="none" stroke="rgb(89,89,89)" stroke-width="0.1"/>
  <path d="M 100.0,42.189018499999975 L 82.13464899999997,42.189018499999975" fill="none" stroke="rgb(89,89,89)" stroke-width="0.1"/>
  <path d="M 82.13464899999997,42.189018499999975 L 82.13464899999997,64.68901849999997" fill="none" stroke="rgb(89,89,89)" stroke-width="0.1"/>
  <path d="M 82.13464899999997,64.68901849999997 L 100.0,64.68901849999997" fill="none" stroke="rgb(89,89,89)" stroke-width="0.1"/>
  <path d="M 100.0,95.68901849999997 L 82.13464899999997,95.68901849999997" fill="none" stroke="rgb(89,89,89)" stroke-width="0.1"/>
  <path d="M 82.13464899999997,95.68901849999997 L 82.13464899999997,100.0" fill="none" stroke="rgb(89,89,89)" stroke-width="0.1"/>
  <path d="M 73.63464899999997,90.18901849999997 L 68.35764900000004,91.9090185" fill="none" stroke="rgb(89,89,89)" stroke-width="0.1"/>
  <path d="M 68.35764900000004,91.9090185 L 67.75881905478957,100.0" fill="none" stroke="rgb(89,89,89)" stroke-width="0.1"/>
  <path d="M 82.63464899999997,42.689018499999975 L 100.0,44.93801168631512" fill="none" stroke="rgb(89,89,89)" stroke-width="0.1"/>
  <path d="M 82.63464899999997,32.689018499999975 L 100.0,30.347968963858193" fill="none" stroke="rgb(89,89,89)" stroke-width="0.1"/>
  <path d="M 73.63464899999997,42.689018499999975 L 68.35764900000004,44.4090185" fill="none" stroke="rgb(89,89,89)" stroke-width="0.1"/>
  <path d="M 68.35764900000004,44.4090185 L 66.63464899999997,70.18901849999997" fill="none" stroke="rgb(89,89,89)" stroke-width="0.1"/>
  <path d="M 73.63464899999997,5.189018499999975 L 68.37964899999997,6.939018499999975" fill="none" stroke="rgb(89,89,89)" stroke-width="0.1"/>
  <path d="M 68.37964899999997,6.939018499999975 L 66.63464899999997,32.689018499999975" fill="none" stroke="rgb(89,89,89)" stroke-width="0.1"/>
 </g>
 <g id="layerWALL" inkscape:groupmode="layer" inkscape:label="WALL">
  <path d="M 8.133648999999991,86.18901849999997 L 18.13364899999999,86.18901849999997" fill="none" stroke="rgb(0,178,178)" stroke-width="0.1"/>
  <path d="M 18.13364899999999,86.18901849999997 L 18.13364899999999,96.18901849999997" fill="none" stroke="rgb(0,178,178)" stroke-width="0.1"/>
  <path d="M 18.13364899999999,96.18901849999997 L 8.133648999999991,96.18901849999997" fill="none" stroke="rgb(0,178,178)" stroke-width="0.1"/>
  <path d="M 8.133648999999991,96.18901849999997 L 8.133648999999991,86.18901849999997" fill="none" stroke="rgb(0,178,178)" stroke-width="0.1"/>
  <path d="M 38.13364899999999,76.18901849999997 L 38.13364899999999,84.18901849999997" fill="none" stroke="rgb(0,178,178)" stroke-width="0.1"/>
  <path d="M 38.13364899999999,84.18901849999997 L 46.13364899999999,84.18901849999997" fill="none" stroke="rgb(0,178,178)" stroke-width="0.1"/>
  <path d="M 46.13364899999999,84.18901849999997 L 46.13364899999999,76.18901849999997" fill="none" stroke="rgb(0,178,178)" stroke-width="0.1"/>
  <path d="M 46.13364899999999,76.18901849999997 L 38.13364899999999,76.18901849999997" fill="none" stroke="rgb(0,178,178)" stroke-width="0.1"/>
  <path d="M 0.0,84.18901849999997 L 6.133648999999991,84.18901849999997" fill="none" stroke="rgb(0,178,178)" stroke-width="0.1"/>
  <path d="M 6.133648999999991,84.18901849999997 L 6.133648999999991,76.18901849999997" fill="none" stroke="rgb(0,178,178)" stroke-width="0.1"/>
  <path d="M 6.133648999999991,76.18901849999997 L 0.0,76.18901849999997" fill="none" stroke="rgb(0,178,178)" stroke-width="0.1"/>
  <path d="M 93.63364899999999,71.18901849999997 L 93.63364899999999,89.18901849999997" fill="none" stroke="rgb(0,178,178)" stroke-width="0.1"/>
  <path d="M 93.63364899999999,89.18901849999997 L 100.0,89.18901849999997" fill="none" stroke="rgb(0,178,178)" stroke-width="0.1"/>
  <path d="M 100.0,71.18901849999997 L 93.63364899999999,71.18901849999997" fill="none" stroke="rgb(0,178,178)" stroke-width="0.1"/>
  <path d="M 49.13364899999999,0.6890184999999747 L 49.13364899999999,7.689018499999975" fill="none" stroke="rgb(0,178,178)" stroke-width="0.1"/>
  <path d="M 49.13364899999999,7.689018499999975 L 35.13364899999999,7.689018499999975" fill="none" stroke="rgb(0,178,178)" stroke-width="0.1"/>
  <path d="M 35.13364899999999,7.689018499999975 L 35.13364899999999,0.6890184999999747" fill="none" stroke="rgb(0,178,178)" stroke-width="0.1"/>
  <path d="M 35.13364899999999,0.6890184999999747 L 49.13364899999999,0.6890184999999747" fill="none" stroke="rgb(0,178,178)" stroke-width="0.1"/>
  <path d="M 54.63364899999999,15.189018499999975 L 54.63364899999999,0.0" fill="none" stroke="rgb(0,178,178)" stroke-width="0.1"/>
  <path d="M 62.63364899999999,0.0 L 62.63364899999999,15.189018499999975" fill="none" stroke="rgb(0,178,178)" stroke-width="0.1"/>
  <path d="M 62.63364899999999,15.189018499999975 L 54.63364899999999,15.189018499999975" fill="none" stroke="rgb(0,178,178)" stroke-width="0.1"/>
  <path d="M 93.63364899999999,4.189018499999975 L 93.63364899999999,0.0" fill="none" stroke="rgb(0,178,178)" stroke-width="0.1"/>
  <path d="M 100.0,4.189018499999975 L 93.63364899999999,4.189018499999975" fill="none" stroke="rgb(0,178,178)" stroke-width="0.1"/>
  <path d="M 54.63364899999999,60.189018499999975 L 54.63364899999999,99.18901849999997" fill="none" stroke="rgb(0,178,178)" stroke-width="0.1"/>
  <path d="M 54.63364899999999,99.18901849999997 L 62.63364899999999,99.18901849999997" fill="none" stroke="rgb(0,178,178)" stroke-width="0.1"/>
  <path d="M 62.63364899999999,99.18901849999997 L 62.63364899999999,60.189018499999975" fill="none" stroke="rgb(0,178,178)" stroke-width="0.1"/>
  <path d="M 62.63364899999999,60.189018499999975 L 54.63364899999999,60.189018499999975" fill="none" stroke="rgb(0,178,178)" stroke-width="0.1"/>
  <path d="M 49.13364899999999,99.18901849999997 L 29.13364899999999,99.18901849999997" fill="none" stroke="rgb(0,178,178)" stroke-width="0.1"/>
  <path d="M 29.13364899999999,99.18901849999997 L 29.13364899999999,86.68901849999997" fill="none" stroke="rgb(0,178,178)" stroke-width="0.1"/>
  <path d="M 29.13364899999999,86.68901849999997 L 49.13364899999999,86.68901849999997" fill="none" stroke="rgb(0,178,178)" stroke-width="0.1"/>
  <path d="M 49.13364899999999,86.68901849999997 L 49.13364899999999,99.18901849999997" fill="none" stroke="rgb(0,178,178)" stroke-width="0.1"/>
  <path d="M 49.13364899999999,74.68901849999997 L 49.13364899999999,67.68901849999997" fill="none" stroke="rgb(0,178,178)" stroke-width="0.1"/>
  <path d="M 49.13364899999999,67.68901849999997 L 35.13364899999999,67.68901849999997" fill="none" stroke="rgb(0,178,178)" stroke-width="0.1"/>
  <path d="M 35.13364899999999,67.68901849999997 L 35.13364899999999,74.68901849999997" fill="none" stroke="rgb(0,178,178)" stroke-width="0.1"/>
  <path d="M 35.13364899999999,74.68901849999997 L 49.13364899999999,74.68901849999997" fill="none" stroke="rgb(0,178,178)" stroke-width="0.1"/>
  <circle cx="2.1336489999999912" cy="80.18901849999997" fill="none" r="1.75" stroke="rgb(0,178,178)" stroke-width="0.1"/>
  <circle cx="42.13364899999999" cy="80.19901849999997" fill="none" r="2.00004" stroke="rgb(0,178,178)" stroke-width="0.1"/>
 </g>
 <g id="layer_0" inkscape:groupmode="layer" inkscape:label="_0">
  <path d="M 56.22033973867076,0.0 L 56.87464899999998,9.819018500000084" fill="none" stroke="rgb(0,0,0)" stroke-width="0.1"/>
  <path d="M 56.87464899999998,9.819018500000084 L 62.63364899999999,14.689018499999975" fill="none" stroke="rgb(0,0,0)" stroke-width="0.1"/>
  <path d="M 35.13364899999999,0.6890184999999747 L 36.81564900000001,5.719018499999947" fill="none" stroke="rgb(0,0,0)" stroke-width="0.1"/>
  <path d="M 36.81564900000001,5.719018499999947 L 49.13364899999999,7.689018499999975" fill="none" stroke="rgb(0,0,0)" stroke-width="0.1"/>
  <path d="M 54.63364899999999,99.18901849999997 L 56.87464899999998,65.55901849999987" fill="none" stroke="rgb(0,0,0)" stroke-width="0.1"/>
  <path d="M 56.87464899999998,65.55901849999987 L 62.63364899999999,60.689018499999975" fill="none" stroke="rgb(0,0,0)" stroke-width="0.1"/>
  <path d="M 29.13364899999999,99.18901849999997 L 32.285649000000035,88.69901849999997" fill="none" stroke="rgb(0,0,0)" stroke-width="0.1"/>
  <path d="M 32.285649000000035,88.69901849999997 L 49.13364899999999,86.68901849999997" fill="none" stroke="rgb(0,0,0)" stroke-width="0.1"/>
  <path d="M 35.13364899999999,74.68901849999997 L 36.81564900000001,69.6590185" fill="none" stroke="rgb(0,0,0)" stroke-width="0.1"/>
  <path d="M 36.81564900000001,69.6590185 L 49.13364899999999,67.68901849999997" fill="none" stroke="rgb(0,0,0)" stroke-width="0.1"/>
  <path d="M 3.108649000000014,78.73901849999993 A 1.75,1.75 0.0 0,0 2.052648999999974,81.93901849999997" fill="none" stroke="rgb(0,0,0)" stroke-width="0.1"/>
  <path d="M 43.29764899999998,78.56901850000008 A 2.00004,2.00004 0.0 0,0 41.90764899999999,82.18901849999997" fill="none" stroke="rgb(0,0,0)" stroke-width="0.1"/>
  <path d="M 34.13364899999999,1.6990184999999656 L 35.83182221716413,0.0" fill="none" stroke="rgb(89,89,89)" stroke-width="0.1"/>
  <path d="M 34.13364899999999,3.9390184999999747 L 38.07730163941176,0.0" fill="none" stroke="rgb(89,89,89)" stroke-width="0.1"/>
  <path d="M 34.13364899999999,6.189018499999975 L 40.322667499999966,0.0" fill="none" stroke="rgb(89,89,89)" stroke-width="0.1"/>
  <path d="M 34.13364899999999,8.429018499999984 L 42.5674895929634,0.0" fill="none" stroke="rgb(89,89,89)" stroke-width="0.1"/>
  <path d="M 36.123649,8.689018499999975 L 44.812667499999975,0.0" fill="none" stroke="rgb(89,89,89)" stroke-width="0.1"/>
  <path d="M 38.368649000000005,8.689018499999975 L 47.05766749999998,0.0" fill="none" stroke="rgb(89,89,89)" stroke-width="0.1"/>
  <path d="M 40.61364900000001,8.689018499999975 L 49.302667499999984,0.0" fill="none" stroke="rgb(89,89,89)" stroke-width="0.1"/>
  <path d="M 42.858649000000014,8.689018499999975 L 50.13364899999999,1.409018500000002" fill="none" stroke="rgb(89,89,89)" stroke-width="0.1"/>
  <path d="M 45.10364900000002,8.689018499999975 L 50.13364899999999,3.659018500000002" fill="none" stroke="rgb(89,89,89)" stroke-width="0.1"/>
  <path d="M 53.63364899999999,0.15901850000000195 L 53.79266749999999,0.0" fill="none" stroke="rgb(89,89,89)" stroke-width="0.1"/>
  <path d="M 47.34864900000002,8.689018499999975 L 50.13364899999999,5.899018500000011" fill="none" stroke="rgb(89,89,89)" stroke-width="0.1"/>
  <path d="M 53.63364899999999,2.399018500000011 L 56.0326675,0.0" fill="none" stroke="rgb(89,89,89)" stroke-width="0.1"/>
  <path d="M 49.59364900000003,8.689018499999975 L 50.13364899999999,8.149018500000011" fill="none" stroke="rgb(89,89,89)" stroke-width="0.1"/>
  <path d="M 53.63364899999999,4.649018500000011 L 58.2826675,0.0" fill="none" stroke="rgb(89,89,89)" stroke-width="0.1"/>
  <path d="M 53.63364899999999,6.88901850000002 L 60.52266750000001,0.0" fill="none" stroke="rgb(89,89,89)" stroke-width="0.1"/>
  <path d="M 53.63364899999999,9.13901850000002 L 62.77266750000001,0.0" fill="none" stroke="rgb(89,89,89)" stroke-width="0.1"/>
  <path d="M 53.63364899999999,11.37901850000003 L 63.63364899999999,1.3790185000000292" fill="none" stroke="rgb(89,89,89)" stroke-width="0.1"/>
  <path d="M 53.63364899999999,13.62901850000003 L 63.63364899999999,3.6290185000000292" fill="none" stroke="rgb(89,89,89)" stroke-width="0.1"/>
  <path d="M 54.31864899999994,15.189018499999975 L 63.63364899999999,5.869018500000038" fill="none" stroke="rgb(89,89,89)" stroke-width="0.1"/>
  <path d="M 56.56364899999994,15.189018499999975 L 63.63364899999999,8.119018500000038" fill="none" stroke="rgb(89,89,89)" stroke-width="0.1"/>
  <path d="M 58.809649000000036,15.189018499999975 L 63.63364899999999,10.369018500000038" fill="none" stroke="rgb(89,89,89)" stroke-width="0.1"/>
  <path d="M 61.05464900000004,15.189018499999975 L 63.63364899999999,12.609018500000047" fill="none" stroke="rgb(89,89,89)" stroke-width="0.1"/>
  <path d="M 63.299649000000045,15.189018499999975 L 63.63364899999999,14.859018500000047" fill="none" stroke="rgb(89,89,89)" stroke-width="0.1"/>
  <path d="M 7.133648999999991,87.06901850000008 L 9.014648999999963,85.18901849999997" fill="none" stroke="rgb(89,89,89)" stroke-width="0.1"/>
  <path d="M 7.133648999999991,89.31901850000008 L 11.259648999999968,85.18901849999997" fill="none" stroke="rgb(89,89,89)" stroke-width="0.1"/>
  <path d="M 7.133648999999991,91.55901849999987 L 13.504648999999972,85.18901849999997" fill="none" stroke="rgb(89,89,89)" stroke-width="0.1"/>
  <path d="M 7.133648999999991,93.80901849999987 L 15.749648999999977,85.18901849999997" fill="none" stroke="rgb(89,89,89)" stroke-width="0.1"/>
  <path d="M 7.133648999999991,96.04901849999987 L 17.99464899999998,85.18901849999997" fill="none" stroke="rgb(89,89,89)" stroke-width="0.1"/>
  <path d="M 34.13364899999999,66.80901849999987 L 34.24964899999998,66.68901849999997" fill="none" stroke="rgb(89,89,89)" stroke-width="0.1"/>
  <path d="M 34.13364899999999,69.04901849999987 L 36.49564899999996,66.68901849999997" fill="none" stroke="rgb(89,89,89)" stroke-width="0.1"/>
  <path d="M 8.240648999999962,97.18901849999997 L 19.13364899999999,86.29901849999987" fill="none" stroke="rgb(89,89,89)" stroke-width="0.1"/>
  <path d="M 34.13364899999999,71.29901849999987 L 38.74064899999996,66.68901849999997" fill="none" stroke="rgb(89,89,89)" stroke-width="0.1"/>
  <path d="M 10.485648999999967,97.18901849999997 L 19.13364899999999,88.53901849999988" fill="none" stroke="rgb(89,89,89)" stroke-width="0.1"/>
  <path d="M 34.13364899999999,73.53901849999988 L 40.98564899999997,66.68901849999997" fill="none" stroke="rgb(89,89,89)" stroke-width="0.1"/>
  <path d="M 12.730648999999971,97.18901849999997 L 19.13364899999999,90.78901849999988" fill="none" stroke="rgb(89,89,89)" stroke-width="0.1"/>
  <path d="M 14.975648999999976,97.18901849999997 L 19.13364899999999,93.02901849999989" fill="none" stroke="rgb(89,89,89)" stroke-width="0.1"/>
  <path d="M 34.23064899999997,75.68901849999997 L 43.23064899999997,66.68901849999997" fill="none" stroke="rgb(89,89,89)" stroke-width="0.1"/>
  <path d="M 36.475648999999976,75.68901849999997 L 45.475648999999976,66.68901849999997" fill="none" stroke="rgb(89,89,89)" stroke-width="0.1"/>
  <path d="M 17.22064899999998,97.18901849999997 L 19.13364899999999,95.27901849999989" fill="none" stroke="rgb(89,89,89)" stroke-width="0.1"/>
  <path d="M 28.13364899999999,86.27901849999989 L 28.72064899999998,85.68901849999997" fill="none" stroke="rgb(89,89,89)" stroke-width="0.1"/>
  <path d="M 38.72064899999998,75.68901849999997 L 47.72064899999998,66.68901849999997" fill="none" stroke="rgb(89,89,89)" stroke-width="0.1"/>
  <path d="M 53.63364899999999,60.77901849999989 L 54.22064899999998,60.189018499999975" fill="none" stroke="rgb(89,89,89)" stroke-width="0.1"/>
  <path d="M 28.13364899999999,88.5190184999999 L 30.965648999999985,85.68901849999997" fill="none" stroke="rgb(89,89,89)" stroke-width="0.1"/>
  <path d="M 40.965648999999985,75.68901849999997 L 49.965648999999985,66.68901849999997" fill="none" stroke="rgb(89,89,89)" stroke-width="0.1"/>
  <path d="M 53.63364899999999,63.0190184999999 L 56.465648999999985,60.189018499999975" fill="none" stroke="rgb(89,89,89)" stroke-width="0.1"/>
  <path d="M 28.13364899999999,90.7690184999999 L 33.21064899999999,85.68901849999997" fill="none" stroke="rgb(89,89,89)" stroke-width="0.1"/>
  <path d="M 28.13364899999999,93.00901849999991 L 35.455648999999994,85.68901849999997" fill="none" stroke="rgb(89,89,89)" stroke-width="0.1"/>
  <path d="M 43.21064899999999,75.68901849999997 L 50.13364899999999,68.7690184999999" fill="none" stroke="rgb(89,89,89)" stroke-width="0.1"/>
  <path d="M 45.455648999999994,75.68901849999997 L 50.13364899999999,71.00901849999991" fill="none" stroke="rgb(89,89,89)" stroke-width="0.1"/>
  <path d="M 53.63364899999999,65.2690184999999 L 58.71064899999999,60.189018499999975" fill="none" stroke="rgb(89,89,89)" stroke-width="0.1"/>
  <path d="M 53.63364899999999,67.50901849999991 L 60.955648999999994,60.189018499999975" fill="none" stroke="rgb(89,89,89)" stroke-width="0.1"/>
  <path d="M 28.13364899999999,95.25901849999991 L 37.700649,85.68901849999997" fill="none" stroke="rgb(89,89,89)" stroke-width="0.1"/>
  <path d="M 47.700649,75.68901849999997 L 50.13364899999999,73.25901849999991" fill="none" stroke="rgb(89,89,89)" stroke-width="0.1"/>
  <path d="M 53.63364899999999,69.75901849999991 L 63.200649,60.189018499999975" fill="none" stroke="rgb(89,89,89)" stroke-width="0.1"/>
  <path d="M 28.13364899999999,97.49901849999992 L 39.945649,85.68901849999997" fill="none" stroke="rgb(89,89,89)" stroke-width="0.1"/>
  <path d="M 49.945649,75.68901849999997 L 50.13364899999999,75.49901849999992" fill="none" stroke="rgb(89,89,89)" stroke-width="0.1"/>
  <path d="M 53.63364899999999,71.99901849999992 L 63.63364899999999,61.99901849999992" fill="none" stroke="rgb(89,89,89)" stroke-width="0.1"/>
  <path d="M 28.13364899999999,99.74901849999992 L 42.19064900000001,85.68901849999997" fill="none" stroke="rgb(89,89,89)" stroke-width="0.1"/>
  <path d="M 53.63364899999999,74.24901849999992 L 63.63364899999999,64.24901849999992" fill="none" stroke="rgb(89,89,89)" stroke-width="0.1"/>
  <path d="M 30.124667499999987,100.0 L 44.43564900000001,85.68901849999997" fill="none" stroke="rgb(89,89,89)" stroke-width="0.1"/>
  <path d="M 32.36966749999999,100.0 L 46.68064900000002,85.68901849999997" fill="none" stroke="rgb(89,89,89)" stroke-width="0.1"/>
  <path d="M 34.614667499999996,100.0 L 48.92564900000002,85.68901849999997" fill="none" stroke="rgb(89,89,89)" stroke-width="0.1"/>
  <path d="M 53.63364899999999,76.48901849999993 L 63.63364899999999,66.48901849999993" fill="none" stroke="rgb(89,89,89)" stroke-width="0.1"/>
  <path d="M 53.63364899999999,78.73901849999993 L 63.63364899999999,68.73901849999993" fill="none" stroke="rgb(89,89,89)" stroke-width="0.1"/>
  <path d="M 53.63364899999999,80.97901849999994 L 63.63364899999999,70.97901849999994" fill="none" stroke="rgb(89,89,89)" stroke-width="0.1"/>
  <path d="M 36.859709628937594,100.0 L 50.13364899999999,86.72901849999994" fill="none" stroke="rgb(89,89,89)" stroke-width="0.1"/>
  <path d="M 53.63364899999999,83.22901849999994 L 63.63364899999999,73.22901849999994" fill="none" stroke="rgb(89,89,89)" stroke-width="0.1"/>
  <path d="M 39.10561696029413,100.0 L 50.13364899999999,88.96901849999995" fill="none" stroke="rgb(89,89,89)" stroke-width="0.1"/>
  <path d="M 41.35070964459305,100.0 L 50.13364899999999,91.21901849999995" fill="none" stroke="rgb(89,89,89)" stroke-width="0.1"/>
  <path d="M 43.5955832421248,100.0 L 50.13364899999999,93.45901849999996" fill="none" stroke="rgb(89,89,89)" stroke-width="0.1"/>
  <path d="M 45.84075188325892,100.0 L 50.13364899999999,95.70901849999996" fill="none" stroke="rgb(89,89,89)" stroke-width="0.1"/>
  <path d="M 48.08541435022323,100.0 L 50.13364899999999,97.94901849999997" fill="none" stroke="rgb(89,89,89)" stroke-width="0.1"/>
  <path d="M 53.63364899999999,85.46901849999995 L 63.63364899999999,75.46901849999995" fill="none" stroke="rgb(89,89,89)" stroke-width="0.1"/>
  <path d="M 53.63364899999999,87.71901849999995 L 63.63364899999999,77.71901849999995" fill="none" stroke="rgb(89,89,89)" stroke-width="0.1"/>
  <path d="M 53.63364899999999,89.95901849999996 L 63.63364899999999,79.95901849999996" fill="none" stroke="rgb(89,89,89)" stroke-width="0.1"/>
  <path d="M 53.63364899999999,92.20901849999996 L 63.63364899999999,82.20901849999996" fill="none" stroke="rgb(89,89,89)" stroke-width="0.1"/>
  <path d="M 53.63364899999999,94.44901849999997 L 63.63364899999999,84.44901849999997" fill="none" stroke="rgb(89,89,89)" stroke-width="0.1"/>
  <path d="M 53.63364899999999,96.69901849999997 L 63.63364899999999,86.69901849999997" fill="none" stroke="rgb(89,89,89)" stroke-width="0.1"/>
  <path d="M 53.63364899999999,98.93901849999997 L 63.63364899999999,88.93901849999997" fill="none" stroke="rgb(89,89,89)" stroke-width="0.1"/>
  <path d="M 55.63164900000004,99.18901849999997 L 63.63364899999999,91.18901849999997" fill="none" stroke="rgb(89,89,89)" stroke-width="0.1"/>
  <path d="M 57.87664900000004,99.18901849999997 L 63.63364899999999,93.42901849999998" fill="none" stroke="rgb(89,89,89)" stroke-width="0.1"/>
  <path d="M 60.12164900000005,99.18901849999997 L 63.63364899999999,95.67901849999998" fill="none" stroke="rgb(89,89,89)" stroke-width="0.1"/>
  <path d="M 62.36664899999994,99.18901849999997 L 63.63364899999999,97.91901849999999" fill="none" stroke="rgb(89,89,89)" stroke-width="0.1"/>
  <path d="M 50.13364899999999,0.0 L 50.13364899999999,8.689018499999975" fill="none" stroke="rgb(0,0,0)" stroke-width="0.1"/>
  <path d="M 50.13364899999999,8.689018499999975 L 34.13364899999999,8.689018499999975" fill="none" stroke="rgb(0,0,0)" stroke-width="0.1"/>
  <path d="M 34.13364899999999,8.689018499999975 L 34.13364899999999,0.0" fill="none" stroke="rgb(0,0,0)" stroke-width="0.1"/>
  <path d="M 53.63364899999999,15.189018499999975 L 53.63364899999999,0.0" fill="none" stroke="rgb(0,0,0)" stroke-width="0.1"/>
  <path d="M 63.63364899999999,0.0 L 63.63364899999999,15.189018499999975" fill="none" stroke="rgb(0,0,0)" stroke-width="0.1"/>
  <path d="M 63.63364899999999,15.189018499999975 L 53.63364899999999,15.189018499999975" fill="none" stroke="rgb(0,0,0)" stroke-width="0.1"/>
  <path d="M 7.133648999999991,85.18901849999997 L 19.13364899999999,85.18901849999997" fill="none" stroke="rgb(0,0,0)" stroke-width="0.1"/>
  <path d="M 19.13364899999999,85.18901849999997 L 19.13364899999999,97.18901849999997" fill="none" stroke="rgb(0,0,0)" stroke-width="0.1"/>
  <path d="M 19.13364899999999,97.18901849999997 L 7.133648999999991,97.18901849999997" fill="none" stroke="rgb(0,0,0)" stroke-width="0.1"/>
  <path d="M 7.133648999999991,97.18901849999997 L 7.133648999999991,85.18901849999997" fill="none" stroke="rgb(0,0,0)" stroke-width="0.1"/>
  <path d="M 53.63364899999999,60.189018499999975 L 53.63364899999999,99.18901849999997" fill="none" stroke="rgb(0,0,0)" stroke-width="0.1"/>
  <path d="M 53.63364899999999,99.18901849999997 L 63.63364899999999,99.18901849999997" fill="none" stroke="rgb(0,0,0)" stroke-width="0.1"/>
  <path d="M 63.63364899999999,99.18901849999997 L 63.63364899999999,60.189018499999975" fill="none" stroke="rgb(0,0,0)" stroke-width="0.1"/>
  <path d="M 63.63364899999999,60.189018499999975 L 53.63364899999999,60.189018499999975" fill="none" stroke="rgb(0,0,0)" stroke-width="0.1"/>
  <path d="M 28.13364899999999,100.0 L 28.13364899999999,85.68901849999997" fill="none" stroke="rgb(0,0,0)" stroke-width="0.1"/>
  <path d="M 28.13364899999999,85.68901849999997 L 50.13364899999999,85.68901849999997" fill="none" stroke="rgb(0,0,0)" stroke-width="0.1"/>
  <path d="M 50.13364899999999,85.68901849999997 L 50.13364899999999,100.0" fill="none" stroke="rgb(0,0,0)" stroke-width="0.1"/>
  <path d="M 50.13364899999999,75.68901849999997 L 50.13364899999999,66.68901849999997" fill="none" stroke="rgb(0,0,0)" stroke-width="0.1"/>
  <path d="M 50.13364899999999,66.68901849999997 L 34.13364899999999,66.68901849999997" fill="none" stroke="rgb(0,0,0)" stroke-width="0.1"/>
  <path d="M 34.13364899999999,66.68901849999997 L 34.13364899999999,75.68901849999997" fill="none" stroke="rgb(0,0,0)" stroke-width="0.1"/>
  <path d="M 34.13364899999999,75.68901849999997 L 50.13364899999999,75.68901849999997" fill="none" stroke="rgb(0,0,0)" stroke-width="0.1"/>
  <path d="M 7.133648999999991,97.18901849999997 L 19.13364899999999,97.18901849999997" fill="none" stroke="rgb(89,89,89)" stroke-width="0.1"/>
  <path d="M 19.13364899999999,97.18901849999997 L 19.13364899999999,85.18901849999997" fill="none" stroke="rgb(89,89,89)" stroke-width="0.1"/>
  <path d="M 19.13364899999999,85.18901849999997 L 7.133648999999991,85.18901849999997" fill="none" stroke="rgb(89,89,89)" stroke-width="0.1"/>
  <path d="M 7.133648999999991,85.18901849999997 L 7.133648999999991,97.18901849999997" fill="none" stroke="rgb(89,89,89)" stroke-width="0.1"/>
  <path d="M 50.13364899999999,100.0 L 50.13364899999999,85.68901849999997" fill="none" stroke="rgb(89,89,89)" stroke-width="0.1"/>
  <path d="M 50.13364899999999,85.68901849999997 L 28.13364899999999,85.68901849999997" fill="none" stroke="rgb(89,89,89)" stroke-width="0.1"/>
  <path d="M 28.13364899999999,85.68901849999997 L 28.13364899999999,100.0" fill="none" stroke="rgb(89,89,89)" stroke-width="0.1"/>
  <path d="M 34.13364899999999,75.68901849999997 L 50.13364899999999,75.68901849999997" fill="none" stroke="rgb(89,89,89)" stroke-width="0.1"/>
  <path d="M 50.13364899999999,75.68901849999997 L 50.13364899999999,66.68901849999997" fill="none" stroke="rgb(89,89,89)" stroke-width="0.1"/>
  <path d="M 50.13364899999999,66.68901849999997 L 34.13364899999999,66.68901849999997" fill="none" stroke="rgb(89,89,89)" stroke-width="0.1"/>
  <path d="M 34.13364899999999,66.68901849999997 L 34.13364899999999,75.68901849999997" fill="none" stroke="rgb(89,89,89)" stroke-width="0.1"/>
  <path d="M 34.13364899999999,0.0 L 34.13364899999999,8.689018499999975" fill="none" stroke="rgb(89,89,89)" stroke-width="0.1"/>
  <path d="M 34.13364899999999,8.689018499999975 L 50.13364899999999,8.689018499999975" fill="none" stroke="rgb(89,89,89)" stroke-width="0.1"/>
  <path d="M 50.13364899999999,8.689018499999975 L 50.13364899999999,0.0" fill="none" stroke="rgb(89,89,89)" stroke-width="0.1"/>
  <path d="M 53.63364899999999,99.18901849999997 L 63.63364899999999,99.18901849999997" fill="none" stroke="rgb(89,89,89)" stroke-width="0.1"/>
  <path d="M 63.63364899999999,99.18901849999997 L 63.63364899999999,60.189018499999975" fill="none" stroke="rgb(89,89,89)" stroke-width="0.1"/>
  <path d="M 63.63364899999999,60.189018499999975 L 53.63364899999999,60.189018499999975" fill="none" stroke="rgb(89,89,89)" stroke-width="0.1"/>
  <path d="M 53.63364899999999,60.189018499999975 L 53.63364899999999,99.18901849999997" fill="none" stroke="rgb(89,89,89)" stroke-width="0.1"/>
  <path d="M 53.63364899999999,0.0 L 53.63364899999999,15.189018499999975" fill="none" stroke="rgb(89,89,89)" stroke-width="0.1"/>
  <path d="M 53.63364899999999,15.189018499999975 L 63.63364899999999,15.189018499999975" fill="none" stroke="rgb(89,89,89)" stroke-width="0.1"/>
  <path d="M 63.63364899999999,15.189018499999975 L 63.63364899999999,0.0" fill="none" stroke="rgb(89,89,89)" stroke-width="0.1"/>
 </g>
</svg>