<?xml version="1.0" encoding="utf-8"?>
<svg style="background-color: #000;" version="1.1" viewBox="0 0 100.0 100.0" xmlns="http://www.w3.org/2000/svg" xmlns:inkscape="http://www.inkscape.org/namespaces/inkscape">
 <g id="layer20190525修改" inkscape:groupmode="layer" inkscape:label="20190525修改">
  <path d="M 71.49118650000003,59.689018499999975 L 71.49118650000003,63.689018499999975" fill="none" stroke="rgb(178,0,178)" stroke-width="0.1"/>
 </g>
 <g id="layerDIM_ELEV" inkscape:groupmode="layer" inkscape:label="DIM_ELEV">
  <path d="M 27.418186500000047,69.32401849999997 L 3.9431865000000244,69.32401849999997" fill="none" stroke="rgb(0,178,0)" stroke-width="0.1"/>
  <path d="M 3.9431865000000244,69.32401849999997 L 8.443186500000024,73.82401849999997" fill="none" stroke="rgb(0,178,0)" stroke-width="0.1"/>
  <path d="M 8.443186500000024,73.82401849999997 L 12.943186500000024,69.32401849999997" fill="none" stroke="rgb(0,178,0)" stroke-width="0.1"/>
  <path d="M 98.03518650000001,62.38501849999997 L 100.0,69.80384182859325" fill="none" stroke="rgb(0,178,0)" stroke-width="0.1"/>
  <text fill="rgb(0,0,0)" font-family="Noto Sans CJK SC" font-size="2" transform="rotate(-0.0,4.668186500000047,68.58901849999998)" x="4.668186500000047" y="68.58901849999998">
   13.7(结构)
  </text>
  <text fill="rgb(0,0,0)" font-family="Noto Sans CJK SC" font-size="2" transform="rotate(-0.0,93.5211865,79.19501849999997)" x="93.5211865" y="79.19501849999997">
   260宽x150高
  </text>
 </g>
 <g id="layerDIM_IDEN" inkscape:groupmode="layer" inkscape:label="DIM_IDEN">
  <path d="M 43.45818650000001,26.992018499999972 L 86.84018649999996,26.992018499999972" fill="none" stroke="rgb(0,178,0)" stroke-width="0.1"/>
  <path d="M 86.84018649999996,26.992018499999972 L 89.9441865,41.67301849999998" fill="none" stroke="rgb(0,178,0)" stroke-width="0.1"/>
  <path d="M 16.619186499999955,83.96901849999998 L 69.66818650000005,83.96901849999998" fill="none" stroke="rgb(0,178,0)" stroke-width="0.1"/>
  <path d="M 69.66818650000005,83.96901849999998 L 97.24518650000005,64.43501849999998" fill="none" stroke="rgb(0,178,0)" stroke-width="0.1"/>
  <circle cx="89.9441865" cy="41.67301849999998" fill="none" r="0.05" stroke="rgb(0,178,0)" stroke-width="0.1"/>
  <circle cx="50.95818650000001" cy="26.992018499999972" fill="none" r="7.5" stroke="rgb(0,178,0)" stroke-width="0.1"/>
  <circle cx="97.24518650000005" cy="64.43501849999998" fill="none" r="0.0645037" stroke="rgb(0,178,0)" stroke-width="0.1"/>
  <circle cx="39.119186499999955" cy="83.96901849999998" fill="none" r="7.5" stroke="rgb(0,178,0)" stroke-width="0.1"/>
  <circle cx="24.119186499999955" cy="83.96901849999998" fill="none" r="7.5" stroke="rgb(0,178,0)" stroke-width="0.1"/>
  <text fill="rgb(0,0,0)" font-family="Noto Sans CJK SC" font-size="2" transform="rotate(-0.0,48.63618650000001,23.242018499999972)" x="48.63618650000001" y="23.242018499999972">
   -
  </text>
  <text fill="rgb(0,0,0)" font-family="Noto Sans CJK SC" font-size="2" transform="rotate(-0.0,45.51118650000001,32.61701849999997)" x="45.51118650000001" y="32.61701849999997">
   D19
  </text>
  <text fill="rgb(0,0,0)" font-family="Noto Sans CJK SC" font-size="2" transform="rotate(-0.0,53.67418650000002,25.155018499999983)" x="53.67418650000002" y="25.155018499999983">
   参15J403-1
  </text>
  <text fill="rgb(0,0,0)" font-family="Noto Sans CJK SC" font-size="2" transform="rotate(-0.0,61.02418650000004,32.50501849999998)" x="61.02418650000004" y="32.50501849999998">
   不锈钢栏杆
  </text>
  <text fill="rgb(0,0,0)" font-family="Noto Sans CJK SC" font-size="2" transform="rotate(-0.0,36.79818650000004,80.21901849999998)" x="36.79818650000004" y="80.21901849999998">
   -
  </text>
  <text fill="rgb(0,0,0)" font-family="Noto Sans CJK SC" font-size="2" transform="rotate(-0.0,35.369186499999955,89.59401849999995)" x="35.369186499999955" y="89.59401849999995">
   C4
  </text>
  <text fill="rgb(0,0,0)" font-family="Noto Sans CJK SC" font-size="2" transform="rotate(-0.0,46.619186499999955,79.24401849999998)" x="46.619186499999955" y="79.24401849999998">
   参国标15J401
  </text>
  <text fill="rgb(0,0,0)" font-family="Noto Sans CJK SC" font-size="2" transform="rotate(-0.0,46.619186499999955,91.31901849999997)" x="46.619186499999955" y="91.31901849999997">
   钢斜梯T2A06
  </text>
  <text fill="rgb(0,0,0)" font-family="Noto Sans CJK SC" font-size="2" transform="rotate(-0.0,19.566186499999958,82.09401849999998)" x="19.566186499999958" y="82.09401849999998">
   TL3
  </text>
  <text fill="rgb(0,0,0)" font-family="Noto Sans CJK SC" font-size="2" transform="rotate(-0.0,20.369186499999955,89.59401849999995)" x="20.369186499999955" y="89.59401849999995">
   B5
  </text>
 </g>
 <g id="layerDIM_LEAD" inkscape:groupmode="layer" inkscape:label="DIM_LEAD">
  <path d="M 39.70118649999995,34.33901849999998 L 62.1461865,74.62901849999997" fill="none" stroke="rgb(0,178,0)" stroke-width="0.1"/>
  <path d="M 14.129186499999946,34.33901849999998 L 39.70118649999995,34.33901849999998" fill="none" stroke="rgb(0,178,0)" stroke-width="0.1"/>
  <path d="M 39.70118649999995,34.33901849999998 L 62.83718650000003,41.086018499999966" fill="none" stroke="rgb(0,178,0)" stroke-width="0.1"/>
  <text fill="rgb(0,0,0)" font-family="Noto Sans CJK SC" font-size="2" transform="rotate(-0.0,14.129186499999946,32.50101849999999)" x="14.129186499999946" y="32.50101849999999">
   清洗检修孔
  </text>
 </g>
 <g id="layerDIM_SYMB" inkscape:groupmode="layer" inkscape:label="DIM_SYMB">
  <path d="M 96.9921865,61.689018499999975 L 100.0,61.689018499999975" fill="none" stroke="rgb(0,178,0)" stroke-width="0.1"/>
  <path d="M 96.9921865,60.78901849999997 L 96.9921865,62.58901849999998" fill="none" stroke="rgb(0,178,0)" stroke-width="0.1"/>
  <path d="M 96.9921865,62.58901849999998 L 92.4921865,61.689018499999975" fill="none" stroke="rgb(0,178,0)" stroke-width="0.1"/>
  <path d="M 92.4921865,61.689018499999975 L 96.9921865,60.78901849999997" fill="none" stroke="rgb(0,178,0)" stroke-width="0.1"/>
 </g>
 <g id="layerDOTE" inkscape:groupmode="layer" inkscape:label="DOTE">
  <path d="M 0.0,23.189018499999975 L 100.0,23.189018499999975" fill="none" stroke="rgb(178,0,0)" stroke-width="0.1"/>
  <path d="M 89.99118650000003,0.0 L 89.99118650000003,100.0" fill="none" stroke="rgb(178,0,0)" stroke-width="0.1"/>
  <path d="M 24.991186500000026,0.0 L 24.991186500000026,100.0" fill="none" stroke="rgb(178,0,0)" stroke-width="0.1"/>
 </g>
 <g id="layerHANDRAIL" inkscape:groupmode="layer" inkscape:label="HANDRAIL">
  <path d="M 100.0,55.689018499999975 L 91.19218650000005,55.689018499999975" fill="none" instance-id="-1" semantic-id="33" stroke="rgb(0,178,0)" stroke-width="0.1"/>
  <path d="M 91.19218650000005,55.689018499999975 L 91.19218650000005,56.189018499999975" fill="none" instance-id="-1" semantic-id="33" stroke="rgb(0,178,0)" stroke-width="0.1"/>
  <path d="M 91.19218650000005,56.189018499999975 L 100.0,56.189018499999975" fill="none" instance-id="-1" semantic-id="33" stroke="rgb(0,178,0)" stroke-width="0.1"/>
  <path d="M 100.0,67.18901849999997 L 91.19218650000005,67.18901849999997" fill="none" instance-id="-1" semantic-id="33" stroke="rgb(0,178,0)" stroke-width="0.1"/>
  <path d="M 91.19218650000005,67.18901849999997 L 91.19218650000005,67.68901849999997" fill="none" instance-id="-1" semantic-id="33" stroke="rgb(0,178,0)" stroke-width="0.1"/>
  <path d="M 91.19218650000005,67.68901849999997 L 100.0,67.68901849999997" fill="none" instance-id="-1" semantic-id="33" stroke="rgb(0,178,0)" stroke-width="0.1"/>
 </g>
 <g id="layerPS-板面开孔" inkscape:groupmode="layer" inkscape:label="PS-板面开孔">
  <path d="M 52.491186500000026,37.45401849999996 L 53.75618650000001,36.189018499999975" fill="none" stroke="rgb(89,89,89)" stroke-width="0.1"/>
  <path d="M 52.491186500000026,39.699018499999966 L 56.00118650000002,36.189018499999975" fill="none" stroke="rgb(89,89,89)" stroke-width="0.1"/>
  <path d="M 52.491186500000026,41.94401849999997 L 58.24618650000002,36.189018499999975" fill="none" stroke="rgb(89,89,89)" stroke-width="0.1"/>
  <path d="M 52.491186500000026,44.189018499999975 L 60.491186500000026,36.189018499999975" fill="none" stroke="rgb(89,89,89)" stroke-width="0.1"/>
  <path d="M 52.491186500000026,46.43401849999998 L 62.73618650000003,36.189018499999975" fill="none" stroke="rgb(89,89,89)" stroke-width="0.1"/>
  <path d="M 52.491186500000026,48.679018499999984 L 64.98118650000004,36.189018499999975" fill="none" stroke="rgb(89,89,89)" stroke-width="0.1"/>
  <path d="M 52.491186500000026,50.92401849999999 L 67.22618650000004,36.189018499999975" fill="none" stroke="rgb(89,89,89)" stroke-width="0.1"/>
  <path d="M 52.491186500000026,53.169018499999964 L 69.47118650000004,36.189018499999975" fill="none" stroke="rgb(89,89,89)" stroke-width="0.1"/>
  <path d="M 52.491186500000026,55.41401849999997 L 70.49118650000003,37.41401849999997" fill="none" stroke="rgb(89,89,89)" stroke-width="0.1"/>
  <path d="M 52.491186500000026,57.65901849999997 L 70.49118650000003,39.65901849999997" fill="none" stroke="rgb(89,89,89)" stroke-width="0.1"/>
  <path d="M 53.706186499999944,58.689018499999975 L 70.49118650000003,41.90401849999998" fill="none" stroke="rgb(89,89,89)" stroke-width="0.1"/>
  <path d="M 55.95118649999995,58.689018499999975 L 70.49118650000003,44.14901849999998" fill="none" stroke="rgb(89,89,89)" stroke-width="0.1"/>
  <path d="M 58.19718650000004,58.689018499999975 L 70.49118650000003,46.39401849999999" fill="none" stroke="rgb(89,89,89)" stroke-width="0.1"/>
  <path d="M 60.44218650000005,58.689018499999975 L 70.49118650000003,48.63901849999996" fill="none" stroke="rgb(89,89,89)" stroke-width="0.1"/>
  <path d="M 62.68718650000005,58.689018499999975 L 70.49118650000003,50.88501849999997" fill="none" stroke="rgb(89,89,89)" stroke-width="0.1"/>
  <path d="M 64.93218649999994,58.689018499999975 L 70.49118650000003,53.13001849999998" fill="none" stroke="rgb(89,89,89)" stroke-width="0.1"/>
  <path d="M 67.17718649999995,58.689018499999975 L 70.49118650000003,55.37501849999998" fill="none" stroke="rgb(89,89,89)" stroke-width="0.1"/>
  <path d="M 69.42218649999995,58.689018499999975 L 70.49118650000003,57.620018499999986" fill="none" stroke="rgb(89,89,89)" stroke-width="0.1"/>
  <path d="M 52.491186500000026,66.64001849999997 L 54.44218650000005,64.68901849999997" fill="none" stroke="rgb(89,89,89)" stroke-width="0.1"/>
  <path d="M 52.491186500000026,68.88501849999997 L 56.68718650000005,64.68901849999997" fill="none" stroke="rgb(89,89,89)" stroke-width="0.1"/>
  <path d="M 52.491186500000026,71.13001849999998 L 58.93218649999994,64.68901849999997" fill="none" stroke="rgb(89,89,89)" stroke-width="0.1"/>
  <path d="M 52.491186500000026,73.37501849999998 L 61.17718649999995,64.68901849999997" fill="none" stroke="rgb(89,89,89)" stroke-width="0.1"/>
  <path d="M 52.491186500000026,75.62001849999999 L 63.42218649999995,64.68901849999997" fill="none" stroke="rgb(89,89,89)" stroke-width="0.1"/>
  <path d="M 52.491186500000026,77.86501849999996 L 65.66718649999996,64.68901849999997" fill="none" stroke="rgb(89,89,89)" stroke-width="0.1"/>
  <path d="M 52.491186500000026,80.11001849999997 L 67.91218649999996,64.68901849999997" fill="none" stroke="rgb(89,89,89)" stroke-width="0.1"/>
  <path d="M 52.491186500000026,82.35501849999997 L 70.15718649999997,64.68901849999997" fill="none" stroke="rgb(89,89,89)" stroke-width="0.1"/>
  <path d="M 52.491186500000026,84.60001849999998 L 70.49118650000003,66.60001849999998" fill="none" stroke="rgb(89,89,89)" stroke-width="0.1"/>
  <path d="M 52.491186500000026,86.84501849999998 L 70.49118650000003,68.84501849999998" fill="none" stroke="rgb(89,89,89)" stroke-width="0.1"/>
  <path d="M 54.39218649999998,87.18901849999997 L 70.49118650000003,71.09001849999999" fill="none" stroke="rgb(89,89,89)" stroke-width="0.1"/>
  <path d="M 56.637186499999984,87.18901849999997 L 70.49118650000003,73.33501849999996" fill="none" stroke="rgb(89,89,89)" stroke-width="0.1"/>
  <path d="M 58.88218649999999,87.18901849999997 L 70.49118650000003,75.58001849999997" fill="none" stroke="rgb(89,89,89)" stroke-width="0.1"/>
  <path d="M 61.12718649999999,87.18901849999997 L 70.49118650000003,77.82501849999997" fill="none" stroke="rgb(89,89,89)" stroke-width="0.1"/>
  <path d="M 63.373186499999974,87.18901849999997 L 70.49118650000003,80.07001849999997" fill="none" stroke="rgb(89,89,89)" stroke-width="0.1"/>
  <path d="M 65.61818649999998,87.18901849999997 L 70.49118650000003,82.31501849999998" fill="none" stroke="rgb(89,89,89)" stroke-width="0.1"/>
  <path d="M 67.86318649999998,87.18901849999997 L 70.49118650000003,84.56101849999999" fill="none" stroke="rgb(89,89,89)" stroke-width="0.1"/>
  <path d="M 70.10818649999999,87.18901849999997 L 70.49118650000003,86.80601849999996" fill="none" stroke="rgb(89,89,89)" stroke-width="0.1"/>
  <path d="M 92.49118650000003,24.973018499999966 L 94.27518650000002,23.189018499999975" fill="none" stroke="rgb(89,89,89)" stroke-width="0.1"/>
  <path d="M 92.49118650000003,27.21801849999997 L 96.52018650000002,23.189018499999975" fill="none" stroke="rgb(89,89,89)" stroke-width="0.1"/>
  <path d="M 92.49118650000003,29.463018499999976 L 98.76518650000003,23.189018499999975" fill="none" stroke="rgb(89,89,89)" stroke-width="0.1"/>
  <path d="M 92.49118650000003,31.70801849999998 L 100.0,24.20360951284607" fill="none" stroke="rgb(89,89,89)" stroke-width="0.1"/>
  <path d="M 92.49118650000003,33.953018499999985 L 100.0,26.44420500000001" fill="none" stroke="rgb(89,89,89)" stroke-width="0.1"/>
  <path d="M 93.50018650000004,35.189018499999975 L 100.0,28.690901341061362" fill="none" stroke="rgb(89,89,89)" stroke-width="0.1"/>
  <path d="M 95.74618650000002,35.189018499999975 L 100.0,30.936124842901933" fill="none" stroke="rgb(89,89,89)" stroke-width="0.1"/>
  <path d="M 97.99518650000005,35.189018499999975 L 100.0,33.18391859807144" fill="none" stroke="rgb(89,89,89)" stroke-width="0.1"/>
  <path d="M 52.491186500000026,36.189018499999975 L 70.49118650000003,36.189018499999975" fill="none" stroke="rgb(89,89,89)" stroke-width="0.1"/>
  <path d="M 70.49118650000003,36.189018499999975 L 70.49118650000003,58.689018499999975" fill="none" stroke="rgb(89,89,89)" stroke-width="0.1"/>
  <path d="M 70.49118650000003,58.689018499999975 L 52.491186500000026,58.689018499999975" fill="none" stroke="rgb(89,89,89)" stroke-width="0.1"/>
  <path d="M 52.491186500000026,58.689018499999975 L 52.491186500000026,36.189018499999975" fill="none" stroke="rgb(89,89,89)" stroke-width="0.1"/>
  <path d="M 52.491186500000026,64.68901849999997 L 70.49118650000003,64.68901849999997" fill="none" stroke="rgb(89,89,89)" stroke-width="0.1"/>
  <path d="M 70.49118650000003,64.68901849999997 L 70.49118650000003,87.18901849999997" fill="none" stroke="rgb(89,89,89)" stroke-width="0.1"/>
  <path d="M 70.49118650000003,87.18901849999997 L 52.491186500000026,87.18901849999997" fill="none" stroke="rgb(89,89,89)" stroke-width="0.1"/>
  <path d="M 52.491186500000026,87.18901849999997 L 52.491186500000026,64.68901849999997" fill="none" stroke="rgb(89,89,89)" stroke-width="0.1"/>
  <path d="M 51.491186500000026,63.689018499999975 L 71.49118650000003,63.689018499999975" fill="none" stroke="rgb(89,89,89)" stroke-width="0.1"/>
  <path d="M 71.49118650000003,63.689018499999975 L 71.49118650000003,88.18901849999997" fill="none" stroke="rgb(89,89,89)" stroke-width="0.1"/>
  <path d="M 71.49118650000003,88.18901849999997 L 51.491186500000026,88.18901849999997" fill="none" stroke="rgb(89,89,89)" stroke-width="0.1"/>
  <path d="M 51.491186500000026,88.18901849999997 L 51.491186500000026,63.689018499999975" fill="none" stroke="rgb(89,89,89)" stroke-width="0.1"/>
  <path d="M 51.491186500000026,35.189018499999975 L 71.49118650000003,35.189018499999975" fill="none" stroke="rgb(89,89,89)" stroke-width="0.1"/>
  <path d="M 71.49118650000003,35.189018499999975 L 71.49118650000003,59.689018499999975" fill="none" stroke="rgb(89,89,89)" stroke-width="0.1"/>
  <path d="M 71.49118650000003,59.689018499999975 L 51.491186500000026,59.689018499999975" fill="none" stroke="rgb(89,89,89)" stroke-width="0.1"/>
  <path d="M 51.491186500000026,59.689018499999975 L 51.491186500000026,35.189018499999975" fill="none" stroke="rgb(89,89,89)" stroke-width="0.1"/>
  <path d="M 92.49118650000003,35.189018499999975 L 100.0,35.189018499999975" fill="none" stroke="rgb(89,89,89)" stroke-width="0.1"/>
  <path d="M 100.0,23.189018499999975 L 92.49118650000003,23.189018499999975" fill="none" stroke="rgb(89,89,89)" stroke-width="0.1"/>
  <path d="M 92.49118650000003,23.189018499999975 L 92.49118650000003,35.189018499999975" fill="none" stroke="rgb(89,89,89)" stroke-width="0.1"/>
  <path d="M 91.49118650000003,36.189018499999975 L 100.0,36.189018499999975" fill="none" stroke="rgb(89,89,89)" stroke-width="0.1"/>
  <path d="M 100.0,22.189018499999975 L 91.49118650000003,22.189018499999975" fill="none" stroke="rgb(89,89,89)" stroke-width="0.1"/>
  <path d="M 91.49118650000003,22.189018499999975 L 91.49118650000003,36.189018499999975" fill="none" stroke="rgb(89,89,89)" stroke-width="0.1"/>
  <path d="M 52.491186500000026,58.689018499999975 L 70.49118650000003,58.689018499999975" fill="none" stroke="rgb(89,89,89)" stroke-width="0.1"/>
  <path d="M 70.49118650000003,58.689018499999975 L 70.49118650000003,36.189018499999975" fill="none" stroke="rgb(89,89,89)" stroke-width="0.1"/>
  <path d="M 70.49118650000003,36.189018499999975 L 52.491186500000026,36.189018499999975" fill="none" stroke="rgb(89,89,89)" stroke-width="0.1"/>
  <path d="M 52.491186500000026,36.189018499999975 L 52.491186500000026,58.689018499999975" fill="none" stroke="rgb(89,89,89)" stroke-width="0.1"/>
  <path d="M 52.491186500000026,64.68901849999997 L 52.491186500000026,87.18901849999997" fill="none" stroke="rgb(89,89,89)" stroke-width="0.1"/>
  <path d="M 52.491186500000026,87.18901849999997 L 70.49118650000003,87.18901849999997" fill="none" stroke="rgb(89,89,89)" stroke-width="0.1"/>
  <path d="M 70.49118650000003,87.18901849999997 L 70.49118650000003,64.68901849999997" fill="none" stroke="rgb(89,89,89)" stroke-width="0.1"/>
  <path d="M 70.49118650000003,64.68901849999997 L 52.491186500000026,64.68901849999997" fill="none" stroke="rgb(89,89,89)" stroke-width="0.1"/>
  <path d="M 92.49118650000003,35.189018499999975 L 100.0,35.189018499999975" fill="none" stroke="rgb(89,89,89)" stroke-width="0.1"/>
  <path d="M 100.0,23.189018499999975 L 92.49118650000003,23.189018499999975" fill="none" stroke="rgb(89,89,89)" stroke-width="0.1"/>
  <path d="M 92.49118650000003,23.189018499999975 L 92.49118650000003,35.189018499999975" fill="none" stroke="rgb(89,89,89)" stroke-width="0.1"/>
 </g>
 <g id="layerPUB_DIM" inkscape:groupmode="layer" inkscape:label="PUB_DIM">
  <path d="M 24.992186500000003,2.427018499999974 L 24.992186500000003,0.0" fill="none" stroke="rgb(0,178,0)" stroke-width="0.1"/>
  <path d="M 52.491186500000026,2.427018499999974 L 52.491186500000026,0.0" fill="none" stroke="rgb(0,178,0)" stroke-width="0.1"/>
  <path d="M 70.49118650000003,2.427018499999974 L 70.49118650000003,0.0" fill="none" stroke="rgb(0,178,0)" stroke-width="0.1"/>
  <path d="M 89.9921865,2.427018499999974 L 89.9921865,0.0" fill="none" stroke="rgb(0,178,0)" stroke-width="0.1"/>
  <path d="M 92.4921865,2.427018499999974 L 92.4921865,0.0" fill="none" stroke="rgb(0,178,0)" stroke-width="0.1"/>
  <path d="M 74.17418650000002,87.18901849999997 L 84.67418650000002,87.18901849999997" fill="none" stroke="rgb(0,178,0)" stroke-width="0.1"/>
  <path d="M 74.17418650000002,64.68901849999997 L 84.67418650000002,64.68901849999997" fill="none" stroke="rgb(0,178,0)" stroke-width="0.1"/>
  <path d="M 74.17418650000002,58.689018499999975 L 84.67418650000002,58.689018499999975" fill="none" stroke="rgb(0,178,0)" stroke-width="0.1"/>
  <path d="M 74.17418650000002,36.189018499999975 L 84.67418650000002,36.189018499999975" fill="none" stroke="rgb(0,178,0)" stroke-width="0.1"/>
  <path d="M 78.49618650000002,86.26101849999998 L 80.35218650000002,88.11701849999997" fill="none" stroke="rgb(0,178,0)" stroke-width="0.1"/>
  <path d="M 78.49618650000002,63.76101849999998 L 80.35218650000002,65.61701849999997" fill="none" stroke="rgb(0,178,0)" stroke-width="0.1"/>
  <path d="M 78.49618650000002,57.76101849999998 L 80.35218650000002,59.61701849999997" fill="none" stroke="rgb(0,178,0)" stroke-width="0.1"/>
  <path d="M 78.49618650000002,35.26101849999998 L 80.35218650000002,37.11701849999997" fill="none" stroke="rgb(0,178,0)" stroke-width="0.1"/>
  <path d="M 91.5641865,52.82901849999996 L 93.4201865,50.97201849999996" fill="none" stroke="rgb(0,178,0)" stroke-width="0.1"/>
  <path d="M 92.4921865,57.15001849999999 L 92.4921865,46.65001849999999" fill="none" stroke="rgb(0,178,0)" stroke-width="0.1"/>
  <path d="M 99.36518650000005,52.82901849999996 L 100.0,52.19180300297296" fill="none" stroke="rgb(0,178,0)" stroke-width="0.1"/>
  <path d="M 24.992186500000003,11.787018499999988 L 24.992186500000003,0.0" fill="none" stroke="rgb(0,178,0)" stroke-width="0.1"/>
  <path d="M 79.42418650000002,100.0 L 79.42418650000002,36.189018499999975" fill="none" stroke="rgb(0,178,0)" stroke-width="0.1"/>
  <path d="M 79.42418650000002,36.189018499999975 L 67.37418649999995,36.189018499999975" fill="none" stroke="rgb(0,178,0)" stroke-width="0.1"/>
  <path d="M 92.4921865,62.11901849999998 L 92.4921865,51.90001849999999" fill="none" stroke="rgb(0,178,0)" stroke-width="0.1"/>
  <path d="M 92.4921865,51.90001849999999 L 100.0,51.90001849999999" fill="none" stroke="rgb(0,178,0)" stroke-width="0.1"/>
  <text fill="rgb(0,0,0)" font-family="Noto Sans CJK SC" font-size="2" transform="rotate(-450.0,76.85218650000002,54.439018499999975)" x="76.85218650000002" y="54.439018499999975">
   2250
  </text>
  <text fill="rgb(0,0,0)" font-family="Noto Sans CJK SC" font-size="2" transform="rotate(-450.0,76.85218650000002,67.02601849999996)" x="76.85218650000002" y="67.02601849999996">
   600
  </text>
  <text fill="rgb(0,0,0)" font-family="Noto Sans CJK SC" font-size="2" transform="rotate(-450.0,76.85218650000002,82.93901849999997)" x="76.85218650000002" y="82.93901849999997">
   2250
  </text>
  <text fill="rgb(0,0,0)" font-family="Noto Sans CJK SC" font-size="2" transform="rotate(-360.0,89.77818649999995,49.61301849999998)" x="89.77818649999995" y="49.61301849999998">
   780
  </text>
 </g>
 <g id="layerPUB_HATCH" inkscape:groupmode="layer" inkscape:label="PUB_HATCH">
  <path d="M 0.0,12.189018499999975 L 100.0,12.189018499999975" fill="none" stroke="rgb(89,89,89)" stroke-width="0.1"/>
  <path d="M 100.0,18.189018499999975 L 0.0,18.189018499999975" fill="none" stroke="rgb(89,89,89)" stroke-width="0.1"/>
 </g>
 <g id="layerSTAIR" inkscape:groupmode="layer" inkscape:label="STAIR">
  <path d="M 95.08218650000003,67.68901849999997 L 95.08218650000003,55.689018499999975" fill="none" instance-id="2" semantic-id="30" stroke="rgb(178,178,0)" stroke-width="0.1"/>
  <path d="M 97.68518649999999,67.68901849999997 L 97.68518649999999,55.689018499999975" fill="none" instance-id="2" semantic-id="30" stroke="rgb(178,178,0)" stroke-width="0.1"/>
  <path d="M 100.0,55.689018499999975 L 92.4921865,55.689018499999975" fill="none" instance-id="2" semantic-id="30" stroke="rgb(178,178,0)" stroke-width="0.1"/>
  <path d="M 92.4921865,55.689018499999975 L 92.4921865,67.68901849999997" fill="none" instance-id="2" semantic-id="30" stroke="rgb(178,178,0)" stroke-width="0.1"/>
  <path d="M 92.4921865,67.68901849999997 L 100.0,67.68901849999997" fill="none" instance-id="2" semantic-id="30" stroke="rgb(178,178,0)" stroke-width="0.1"/>
 </g>
 <g id="layerWALL" inkscape:groupmode="layer" inkscape:label="WALL">
  <path d="M 0.0,12.189018499999975 L 100.0,12.189018499999975" fill="none" instance-id="-1" semantic-id="1" stroke="rgb(0,178,178)" stroke-width="0.1"/>
  <path d="M 0.0,18.189018499999975 L 100.0,18.189018499999975" fill="none" instance-id="-1" semantic-id="1" stroke="rgb(0,178,178)" stroke-width="0.1"/>
 </g>
 <g id="layersb" inkscape:groupmode="layer" inkscape:label="sb">
  <path d="M 92.49118650000003,18.189018499999975 L 92.49118650000003,55.689018499999975" fill="none" stroke="rgb(178,178,0)" stroke-width="0.1"/>
  <path d="M 92.4921865,67.68901849999997 L 92.4921865,100.0" fill="none" stroke="rgb(178,178,0)" stroke-width="0.1"/>
 </g>
</svg>