<?xml version="1.0" encoding="utf-8"?>
<svg style="background-color: #000;" version="1.1" viewBox="0 0 100.0 100.0" xmlns="http://www.w3.org/2000/svg" xmlns:inkscape="http://www.inkscape.org/namespaces/inkscape">
 <g id="layer0" inkscape:groupmode="layer" inkscape:label="0">
  <path d="M 39.995186500000045,79.50801849999993 L 40.31518649999998,79.1880185" fill="none" stroke="rgb(89,89,89)" stroke-width="0.1"/>
  <path d="M 39.995186500000045,81.75301849999994 L 42.55518649999999,79.1880185" fill="none" stroke="rgb(89,89,89)" stroke-width="0.1"/>
  <path d="M 39.995186500000045,83.99801849999994 L 44.80518649999999,79.1880185" fill="none" stroke="rgb(89,89,89)" stroke-width="0.1"/>
  <path d="M 39.995186500000045,86.24301849999995 L 47.0451865,79.1880185" fill="none" stroke="rgb(89,89,89)" stroke-width="0.1"/>
  <path d="M 39.995186500000045,88.48801849999995 L 49.2951865,79.1880185" fill="none" stroke="rgb(89,89,89)" stroke-width="0.1"/>
  <path d="M 39.995186500000045,90.73301849999996 L 51.53518650000001,79.1880185" fill="none" stroke="rgb(89,89,89)" stroke-width="0.1"/>
  <path d="M 40.78518650000001,92.1880185 L 52.995186500000045,79.97801849999996" fill="none" stroke="rgb(89,89,89)" stroke-width="0.1"/>
  <path d="M 43.02518650000002,92.1880185 L 52.995186500000045,82.22301849999997" fill="none" stroke="rgb(89,89,89)" stroke-width="0.1"/>
  <path d="M 45.27518650000002,92.1880185 L 52.995186500000045,84.46801849999997" fill="none" stroke="rgb(89,89,89)" stroke-width="0.1"/>
  <path d="M 47.51518650000003,92.1880185 L 52.995186500000045,86.71301849999998" fill="none" stroke="rgb(89,89,89)" stroke-width="0.1"/>
  <path d="M 49.76518650000003,92.1880185 L 52.995186500000045,88.95901849999996" fill="none" stroke="rgb(89,89,89)" stroke-width="0.1"/>
  <path d="M 52.005186500000036,92.1880185 L 52.995186500000045,91.20401849999996" fill="none" stroke="rgb(89,89,89)" stroke-width="0.1"/>
  <path d="M 0.49518650000004527,54.401018499999964 L 2.705186499999968,52.1880185" fill="none" stroke="rgb(89,89,89)" stroke-width="0.1"/>
  <path d="M 0.49518650000004527,56.64601849999997 L 4.945186499999977,52.1880185" fill="none" stroke="rgb(89,89,89)" stroke-width="0.1"/>
  <path d="M 0.49518650000004527,58.89101849999997 L 7.195186499999977,52.1880185" fill="none" stroke="rgb(89,89,89)" stroke-width="0.1"/>
  <path d="M 0.49518650000004527,61.13601849999998 L 9.435186499999986,52.1880185" fill="none" stroke="rgb(89,89,89)" stroke-width="0.1"/>
  <path d="M 0.49518650000004527,63.38101849999998 L 11.6851865000001,52.1880185" fill="none" stroke="rgb(89,89,89)" stroke-width="0.1"/>
  <path d="M 0.49518650000004527,65.62601849999999 L 13.925186500000109,52.1880185" fill="none" stroke="rgb(89,89,89)" stroke-width="0.1"/>
  <path d="M 0.49518650000004527,67.87101849999999 L 16.17518650000011,52.1880185" fill="none" stroke="rgb(89,89,89)" stroke-width="0.1"/>
  <path d="M 0.49518650000004527,70.11701849999997 L 18.41518649999989,52.1880185" fill="none" stroke="rgb(89,89,89)" stroke-width="0.1"/>
  <path d="M 0.6651865000000043,72.1880185 L 20.66518649999989,52.1880185" fill="none" stroke="rgb(89,89,89)" stroke-width="0.1"/>
  <path d="M 2.9051865000000134,72.1880185 L 22.9051864999999,52.1880185" fill="none" stroke="rgb(89,89,89)" stroke-width="0.1"/>
  <path d="M 5.155186500000013,72.1880185 L 25.1551864999999,52.1880185" fill="none" stroke="rgb(89,89,89)" stroke-width="0.1"/>
  <path d="M 7.405186500000013,72.1880185 L 27.4051864999999,52.1880185" fill="none" stroke="rgb(89,89,89)" stroke-width="0.1"/>
  <path d="M 9.645186500000023,72.1880185 L 29.64518649999991,52.1880185" fill="none" stroke="rgb(89,89,89)" stroke-width="0.1"/>
  <path d="M 11.895186499999909,72.1880185 L 31.89518649999991,52.1880185" fill="none" stroke="rgb(89,89,89)" stroke-width="0.1"/>
  <path d="M 14.135186499999918,72.1880185 L 32.495186500000045,53.832018500000004" fill="none" stroke="rgb(89,89,89)" stroke-width="0.1"/>
  <path d="M 16.385186499999918,72.1880185 L 32.495186500000045,56.07701850000001" fill="none" stroke="rgb(89,89,89)" stroke-width="0.1"/>
  <path d="M 18.625186499999927,72.1880185 L 32.495186500000045,58.32201850000001" fill="none" stroke="rgb(89,89,89)" stroke-width="0.1"/>
  <path d="M 20.875186499999927,72.1880185 L 32.495186500000045,60.56701850000002" fill="none" stroke="rgb(89,89,89)" stroke-width="0.1"/>
  <path d="M 23.115186499999936,72.1880185 L 32.495186500000045,62.81201850000002" fill="none" stroke="rgb(89,89,89)" stroke-width="0.1"/>
  <path d="M 25.365186499999936,72.1880185 L 32.495186500000045,65.05701850000003" fill="none" stroke="rgb(89,89,89)" stroke-width="0.1"/>
  <path d="M 27.605186499999945,72.1880185 L 32.495186500000045,67.30201850000003" fill="none" stroke="rgb(89,89,89)" stroke-width="0.1"/>
  <path d="M 29.855186499999945,72.1880185 L 32.495186500000045,69.54701849999992" fill="none" stroke="rgb(89,89,89)" stroke-width="0.1"/>
  <path d="M 32.095186499999954,72.1880185 L 32.495186500000045,71.79201849999993" fill="none" stroke="rgb(89,89,89)" stroke-width="0.1"/>
  <path d="M 76.49518650000005,53.48801849999995 L 77.7951865,52.1880185" fill="none" stroke="rgb(89,89,89)" stroke-width="0.1"/>
  <path d="M 76.49518650000005,55.73301849999996 L 80.03518650000001,52.1880185" fill="none" stroke="rgb(89,89,89)" stroke-width="0.1"/>
  <path d="M 76.49518650000005,57.97801849999996 L 82.28518650000001,52.1880185" fill="none" stroke="rgb(89,89,89)" stroke-width="0.1"/>
  <path d="M 76.49518650000005,60.22301849999997 L 84.52518650000002,52.1880185" fill="none" stroke="rgb(89,89,89)" stroke-width="0.1"/>
  <path d="M 76.49518650000005,62.46801849999997 L 86.77518650000002,52.1880185" fill="none" stroke="rgb(89,89,89)" stroke-width="0.1"/>
  <path d="M 76.49518650000005,64.71401849999995 L 89.01518650000003,52.1880185" fill="none" stroke="rgb(89,89,89)" stroke-width="0.1"/>
  <path d="M 76.49518650000005,66.95901849999996 L 91.26518650000003,52.1880185" fill="none" stroke="rgb(89,89,89)" stroke-width="0.1"/>
  <path d="M 76.49518650000005,69.20401849999996 L 93.50518650000004,52.1880185" fill="none" stroke="rgb(89,89,89)" stroke-width="0.1"/>
  <path d="M 76.49518650000005,71.44901849999997 L 95.75518650000004,52.1880185" fill="none" stroke="rgb(89,89,89)" stroke-width="0.1"/>
  <path d="M 77.99518650000005,72.1880185 L 97.99518650000005,52.1880185" fill="none" stroke="rgb(89,89,89)" stroke-width="0.1"/>
  <path d="M 80.24518650000005,72.1880185 L 100.0,52.433205000000044" fill="none" stroke="rgb(89,89,89)" stroke-width="0.1"/>
  <path d="M 82.48518650000005,72.1880185 L 100.0,54.67320500000005" fill="none" stroke="rgb(89,89,89)" stroke-width="0.1"/>
  <path d="M 84.73518650000005,72.1880185 L 100.0,56.92320500000005" fill="none" stroke="rgb(89,89,89)" stroke-width="0.1"/>
  <path d="M 86.97518650000006,72.1880185 L 100.0,59.16320500000006" fill="none" stroke="rgb(89,89,89)" stroke-width="0.1"/>
  <path d="M 89.22518650000006,72.1880185 L 100.0,61.41376414963679" fill="none" stroke="rgb(89,89,89)" stroke-width="0.1"/>
  <path d="M 91.46518650000007,72.1880185 L 100.0,63.65621198068118" fill="none" stroke="rgb(89,89,89)" stroke-width="0.1"/>
  <path d="M 93.71518650000007,72.1880185 L 100.0,65.90363022418819" fill="none" stroke="rgb(89,89,89)" stroke-width="0.1"/>
  <path d="M 95.95518650000008,72.1880185 L 100.0,68.14514031746421" fill="none" stroke="rgb(89,89,89)" stroke-width="0.1"/>
  <path d="M 98.20518650000008,72.1880185 L 100.0,70.39337942308077" fill="none" stroke="rgb(89,89,89)" stroke-width="0.1"/>
  <path d="M 39.495186500000045,80.00801849999993 L 40.81518649999998,78.6880185" fill="none" stroke="rgb(89,89,89)" stroke-width="0.1"/>
  <path d="M 39.495186500000045,82.25301849999994 L 43.05518649999999,78.6880185" fill="none" stroke="rgb(89,89,89)" stroke-width="0.1"/>
  <path d="M 39.495186500000045,84.49801849999994 L 45.30518649999999,78.6880185" fill="none" stroke="rgb(89,89,89)" stroke-width="0.1"/>
  <path d="M 39.495186500000045,86.74301849999995 L 47.5451865,78.6880185" fill="none" stroke="rgb(89,89,89)" stroke-width="0.1"/>
  <path d="M 39.495186500000045,88.98801849999995 L 49.7951865,78.6880185" fill="none" stroke="rgb(89,89,89)" stroke-width="0.1"/>
  <path d="M 39.495186500000045,91.23301849999996 L 52.03518650000001,78.6880185" fill="none" stroke="rgb(89,89,89)" stroke-width="0.1"/>
  <path d="M 40.28518650000001,92.6880185 L 53.495186500000045,79.47801849999996" fill="none" stroke="rgb(89,89,89)" stroke-width="0.1"/>
  <path d="M 42.52518650000002,92.6880185 L 53.495186500000045,81.72301849999997" fill="none" stroke="rgb(89,89,89)" stroke-width="0.1"/>
  <path d="M 44.77518650000002,92.6880185 L 53.495186500000045,83.96801849999997" fill="none" stroke="rgb(89,89,89)" stroke-width="0.1"/>
  <path d="M 47.01518650000003,92.6880185 L 53.495186500000045,86.21301849999998" fill="none" stroke="rgb(89,89,89)" stroke-width="0.1"/>
  <path d="M 49.26518650000003,92.6880185 L 53.495186500000045,88.45801849999998" fill="none" stroke="rgb(89,89,89)" stroke-width="0.1"/>
  <path d="M 51.505186500000036,92.6880185 L 53.495186500000045,90.70301849999998" fill="none" stroke="rgb(89,89,89)" stroke-width="0.1"/>
  <path d="M 53.495186500000045,92.6880185 L 39.495186500000045,92.6880185" fill="none" stroke="rgb(0,0,0)" stroke-width="0.1"/>
  <path d="M 39.495186500000045,92.6880185 L 39.495186500000045,78.6880185" fill="none" stroke="rgb(0,0,0)" stroke-width="0.1"/>
  <path d="M 39.495186500000045,78.6880185 L 53.495186500000045,78.6880185" fill="none" stroke="rgb(0,0,0)" stroke-width="0.1"/>
  <path d="M 53.495186500000045,78.6880185 L 53.495186500000045,92.6880185" fill="none" stroke="rgb(0,0,0)" stroke-width="0.1"/>
  <path d="M 52.995186500000045,79.1880185 L 39.995186500000045,79.1880185" fill="none" stroke="rgb(89,89,89)" stroke-width="0.1"/>
  <path d="M 39.995186500000045,79.1880185 L 39.995186500000045,92.1880185" fill="none" stroke="rgb(89,89,89)" stroke-width="0.1"/>
  <path d="M 39.995186500000045,92.1880185 L 52.995186500000045,92.1880185" fill="none" stroke="rgb(89,89,89)" stroke-width="0.1"/>
  <path d="M 52.995186500000045,92.1880185 L 52.995186500000045,79.1880185" fill="none" stroke="rgb(89,89,89)" stroke-width="0.1"/>
  <path d="M 32.495186500000045,52.1880185 L 0.49518650000004527,52.1880185" fill="none" stroke="rgb(89,89,89)" stroke-width="0.1"/>
  <path d="M 0.49518650000004527,52.1880185 L 0.49518650000004527,72.1880185" fill="none" stroke="rgb(89,89,89)" stroke-width="0.1"/>
  <path d="M 0.49518650000004527,72.1880185 L 32.495186500000045,72.1880185" fill="none" stroke="rgb(89,89,89)" stroke-width="0.1"/>
  <path d="M 32.495186500000045,72.1880185 L 32.495186500000045,52.1880185" fill="none" stroke="rgb(89,89,89)" stroke-width="0.1"/>
  <path d="M 100.0,52.1880185 L 76.49518650000005,52.1880185" fill="none" stroke="rgb(89,89,89)" stroke-width="0.1"/>
  <path d="M 76.49518650000005,52.1880185 L 76.49518650000005,72.1880185" fill="none" stroke="rgb(89,89,89)" stroke-width="0.1"/>
  <path d="M 76.49518650000005,72.1880185 L 100.0,72.1880185" fill="none" stroke="rgb(89,89,89)" stroke-width="0.1"/>
  <path d="M 53.495186500000045,92.6880185 L 53.495186500000045,78.6880185" fill="none" stroke="rgb(89,89,89)" stroke-width="0.1"/>
  <path d="M 53.495186500000045,78.6880185 L 39.495186500000045,78.6880185" fill="none" stroke="rgb(89,89,89)" stroke-width="0.1"/>
  <path d="M 39.495186500000045,78.6880185 L 39.495186500000045,92.6880185" fill="none" stroke="rgb(89,89,89)" stroke-width="0.1"/>
  <path d="M 39.495186500000045,92.6880185 L 53.495186500000045,92.6880185" fill="none" stroke="rgb(89,89,89)" stroke-width="0.1"/>
 </g>
 <g id="layerCOLUMN" inkscape:groupmode="layer" inkscape:label="COLUMN">
  <path d="M 51.995186500000045,1.1890184999999747 L 57.995186500000045,1.1890184999999747" fill="none" stroke="rgb(178,0,178)" stroke-width="0.1"/>
  <path d="M 57.995186500000045,1.1890184999999747 L 57.995186500000045,0.0" fill="none" stroke="rgb(178,0,178)" stroke-width="0.1"/>
  <path d="M 51.995186500000045,0.0 L 51.995186500000045,1.1890184999999747" fill="none" stroke="rgb(178,0,178)" stroke-width="0.1"/>
  <path d="M 51.995186500000045,76.18901849999997 L 57.995186500000045,76.18901849999997" fill="none" stroke="rgb(178,0,178)" stroke-width="0.1"/>
  <path d="M 57.995186500000045,76.18901849999997 L 57.995186500000045,70.18901849999997" fill="none" stroke="rgb(178,0,178)" stroke-width="0.1"/>
  <path d="M 57.995186500000045,70.18901849999997 L 51.995186500000045,70.18901849999997" fill="none" stroke="rgb(178,0,178)" stroke-width="0.1"/>
  <path d="M 51.995186500000045,70.18901849999997 L 51.995186500000045,76.18901849999997" fill="none" stroke="rgb(178,0,178)" stroke-width="0.1"/>
 </g>
 <g id="layerDIM_LEAD" inkscape:groupmode="layer" inkscape:label="DIM_LEAD">
  <path d="M 92.69518650000009,89.45301849999998 L 62.96518650000007,89.45301849999998" fill="none" stroke="rgb(0,178,0)" stroke-width="0.1"/>
  <path d="M 62.96518650000007,89.45301849999998 L 62.96518650000007,66.87501850000001" fill="none" stroke="rgb(0,178,0)" stroke-width="0.1"/>
  <path d="M 7.385186500000032,21.181018499999936 L 31.9351865000001,21.181018499999936" fill="none" stroke="rgb(0,178,0)" stroke-width="0.1"/>
  <path d="M 31.9351865000001,21.181018499999936 L 31.9351865000001,32.189018499999975" fill="none" stroke="rgb(0,178,0)" stroke-width="0.1"/>
  <text fill="rgb(0,0,0)" font-family="Noto Sans CJK SC" font-size="2" transform="rotate(-0.0,71.16518649999989,87.61501850000002)" x="71.16518649999989" y="87.61501850000002">
   预留孔（余同）
  </text>
  <text fill="rgb(0,0,0)" font-family="Noto Sans CJK SC" font-size="2" transform="rotate(-0.0,7.385186500000032,19.34301849999997)" x="7.385186500000032" y="19.34301849999997">
   500高窗台
  </text>
 </g>
 <g id="layerDOTE" inkscape:groupmode="layer" inkscape:label="DOTE">
  <path d="M 0.0,73.18901849999997 L 100.0,73.18901849999997" fill="none" stroke="rgb(178,0,0)" stroke-width="0.1"/>
  <path d="M 54.995186500000045,0.0 L 54.995186500000045,100.0" fill="none" stroke="rgb(178,0,0)" stroke-width="0.1"/>
 </g>
 <g id="layerPUB_DIM" inkscape:groupmode="layer" inkscape:label="PUB_DIM">
  <path d="M 0.0,53.189018499999975 L 3.195186499999977,53.189018499999975" fill="none" stroke="rgb(0,178,0)" stroke-width="0.1"/>
  <path d="M 0.0,91.68901849999997 L 3.195186499999977,91.68901849999997" fill="none" stroke="rgb(0,178,0)" stroke-width="0.1"/>
  <path d="M 0.0,79.68901849999997 L 3.195186499999977,79.68901849999997" fill="none" stroke="rgb(0,178,0)" stroke-width="0.1"/>
  <path d="M 0.0,73.18901849999997 L 3.195186499999977,73.18901849999997" fill="none" stroke="rgb(0,178,0)" stroke-width="0.1"/>
  <path d="M 0.0,71.18901849999997 L 3.195186499999977,71.18901849999997" fill="none" stroke="rgb(0,178,0)" stroke-width="0.1"/>
  <path d="M 1.4951865000000453,100.0 L 1.4951865000000453,96.18101849999994" fill="none" stroke="rgb(0,178,0)" stroke-width="0.1"/>
  <path d="M 31.495186500000045,100.0 L 31.495186500000045,96.18101849999994" fill="none" stroke="rgb(0,178,0)" stroke-width="0.1"/>
  <path d="M 40.495186500000045,100.0 L 40.495186500000045,96.18101849999994" fill="none" stroke="rgb(0,178,0)" stroke-width="0.1"/>
  <path d="M 52.495186500000045,100.0 L 52.495186500000045,96.18101849999994" fill="none" stroke="rgb(0,178,0)" stroke-width="0.1"/>
  <path d="M 54.995186500000045,100.0 L 54.995186500000045,96.18101849999994" fill="none" stroke="rgb(0,178,0)" stroke-width="0.1"/>
  <path d="M 77.49518650000005,100.0 L 77.49518650000005,96.18101849999994" fill="none" stroke="rgb(0,178,0)" stroke-width="0.1"/>
  <path d="M 54.06518649999998,54.67701850000003 L 55.91518649999989,52.82101849999992" fill="none" stroke="rgb(0,178,0)" stroke-width="0.1"/>
  <path d="M 54.995186500000045,58.99901849999992 L 54.995186500000045,48.49901849999992" fill="none" stroke="rgb(0,178,0)" stroke-width="0.1"/>
  <path d="M 57.56518649999998,54.67701850000003 L 59.42518650000011,52.82101849999992" fill="none" stroke="rgb(0,178,0)" stroke-width="0.1"/>
  <path d="M 58.495186500000045,58.99901849999992 L 58.495186500000045,48.49901849999992" fill="none" stroke="rgb(0,178,0)" stroke-width="0.1"/>
  <path d="M 63.56518649999998,54.67701850000003 L 65.42518650000011,52.82101849999992" fill="none" stroke="rgb(0,178,0)" stroke-width="0.1"/>
  <path d="M 64.49518650000005,58.99901849999992 L 64.49518650000005,48.49901849999992" fill="none" stroke="rgb(0,178,0)" stroke-width="0.1"/>
  <path d="M 67.66518649999989,73.18901849999997 L 78.16518649999989,73.18901849999997" fill="none" stroke="rgb(0,178,0)" stroke-width="0.1"/>
  <path d="M 67.66518649999989,69.68901849999997 L 78.16518649999989,69.68901849999997" fill="none" stroke="rgb(0,178,0)" stroke-width="0.1"/>
  <path d="M 67.66518649999989,63.689018499999975 L 78.16518649999989,63.689018499999975" fill="none" stroke="rgb(0,178,0)" stroke-width="0.1"/>
  <path d="M 71.98518650000005,72.26101849999998 L 73.84518649999995,74.11701849999997" fill="none" stroke="rgb(0,178,0)" stroke-width="0.1"/>
  <path d="M 71.98518650000005,68.76101849999998 L 73.84518649999995,70.61701849999997" fill="none" stroke="rgb(0,178,0)" stroke-width="0.1"/>
  <path d="M 71.98518650000005,62.76101849999998 L 73.84518649999995,64.61701849999997" fill="none" stroke="rgb(0,178,0)" stroke-width="0.1"/>
  <path d="M 8.605186499999945,53.189018499999975 L 0.0,53.189018499999975" fill="none" stroke="rgb(0,178,0)" stroke-width="0.1"/>
  <path d="M 0.0,91.68901849999997 L 8.605186499999945,91.68901849999997" fill="none" stroke="rgb(0,178,0)" stroke-width="0.1"/>
  <path d="M 1.4951865000000453,88.41301850000002 L 1.4951865000000453,100.0" fill="none" stroke="rgb(0,178,0)" stroke-width="0.1"/>
  <path d="M 0.0,23.117018499999972 L 100.0,23.117018499999972" fill="none" stroke="rgb(0,178,0)" stroke-width="0.1"/>
  <path d="M 54.995186500000045,63.689018499999975 L 54.995186500000045,53.74901849999992" fill="none" stroke="rgb(0,178,0)" stroke-width="0.1"/>
  <path d="M 54.995186500000045,53.74901849999992 L 64.49518650000005,53.74901849999992" fill="none" stroke="rgb(0,178,0)" stroke-width="0.1"/>
  <path d="M 64.49518650000005,53.74901849999992 L 64.49518650000005,63.689018499999975" fill="none" stroke="rgb(0,178,0)" stroke-width="0.1"/>
  <path d="M 62.57518649999997,73.18901849999997 L 72.91518649999989,73.18901849999997" fill="none" stroke="rgb(0,178,0)" stroke-width="0.1"/>
  <path d="M 72.91518649999989,73.18901849999997 L 72.91518649999989,63.689018499999975" fill="none" stroke="rgb(0,178,0)" stroke-width="0.1"/>
  <path d="M 72.91518649999989,63.689018499999975 L 62.57518649999997,63.689018499999975" fill="none" stroke="rgb(0,178,0)" stroke-width="0.1"/>
  <text fill="rgb(0,0,0)" font-family="Noto Sans CJK SC" font-size="2" transform="rotate(-360.0,85.49518650000005,98.85901849999993)" x="85.49518650000005" y="98.85901849999993">
   3000
  </text>
  <text fill="rgb(0,0,0)" font-family="Noto Sans CJK SC" font-size="2" transform="rotate(-360.0,59.245186500000045,98.85901849999993)" x="59.245186500000045" y="98.85901849999993">
   2250
  </text>
  <text fill="rgb(0,0,0)" font-family="Noto Sans CJK SC" font-size="2" transform="rotate(-360.0,48.495186500000045,94.44901849999997)" x="48.495186500000045" y="94.44901849999997">
   250
  </text>
  <text fill="rgb(0,0,0)" font-family="Noto Sans CJK SC" font-size="2" transform="rotate(-360.0,39.22518650000006,93.89401850000002)" x="39.22518650000006" y="93.89401850000002">
   1200
  </text>
  <text fill="rgb(0,0,0)" font-family="Noto Sans CJK SC" font-size="2" transform="rotate(-360.0,30.745186500000045,98.85901849999993)" x="30.745186500000045" y="98.85901849999993">
   900
  </text>
  <text fill="rgb(0,0,0)" font-family="Noto Sans CJK SC" font-size="2" transform="rotate(-360.0,9.495186500000045,98.85901849999993)" x="9.495186500000045" y="98.85901849999993">
   3000
  </text>
  <text fill="rgb(0,0,0)" font-family="Noto Sans CJK SC" font-size="2" transform="rotate(-360.0,45.97518650000006,20.54501849999997)" x="45.97518650000006" y="20.54501849999997">
   14800
  </text>
  <text fill="rgb(0,0,0)" font-family="Noto Sans CJK SC" font-size="2" transform="rotate(-0.0,44.19518650000009,51.4620185)" x="44.19518650000009" y="51.4620185">
   350
  </text>
  <text fill="rgb(0,0,0)" font-family="Noto Sans CJK SC" font-size="2" transform="rotate(-0.0,64.70518650000008,51.4620185)" x="64.70518650000008" y="51.4620185">
   600
  </text>
  <text fill="rgb(0,0,0)" font-family="Noto Sans CJK SC" font-size="2" transform="rotate(-90.0,70.62518649999993,83.98901849999993)" x="70.62518649999993" y="83.98901849999993">
   350
  </text>
  <text fill="rgb(0,0,0)" font-family="Noto Sans CJK SC" font-size="2" transform="rotate(-90.0,70.62518649999993,63.477018499999986)" x="70.62518649999993" y="63.477018499999986">
   600
  </text>
 </g>
 <g id="layerPUB_HATCH" inkscape:groupmode="layer" inkscape:label="PUB_HATCH">
  <path d="M 51.995186500000045,1.1890184999999747 L 57.995186500000045,1.1890184999999747" fill="none" stroke="rgb(89,89,89)" stroke-width="0.1"/>
  <path d="M 57.995186500000045,1.1890184999999747 L 57.995186500000045,0.0" fill="none" stroke="rgb(89,89,89)" stroke-width="0.1"/>
  <path d="M 51.995186500000045,0.0 L 51.995186500000045,1.1890184999999747" fill="none" stroke="rgb(89,89,89)" stroke-width="0.1"/>
  <path d="M 51.995186500000045,76.18901849999997 L 57.995186500000045,76.18901849999997" fill="none" stroke="rgb(89,89,89)" stroke-width="0.1"/>
  <path d="M 57.995186500000045,76.18901849999997 L 57.995186500000045,70.18901849999997" fill="none" stroke="rgb(89,89,89)" stroke-width="0.1"/>
  <path d="M 57.995186500000045,70.18901849999997 L 51.995186500000045,70.18901849999997" fill="none" stroke="rgb(89,89,89)" stroke-width="0.1"/>
  <path d="M 51.995186500000045,70.18901849999997 L 51.995186500000045,76.18901849999997" fill="none" stroke="rgb(89,89,89)" stroke-width="0.1"/>
 </g>
 <g id="layerWALL-CONC" inkscape:groupmode="layer" inkscape:label="WALL-CONC">
  <path d="M 40.495186500000045,79.6880185 L 52.495186500000045,79.6880185" fill="none" stroke="rgb(0,178,178)" stroke-width="0.1"/>
  <path d="M 52.495186500000045,79.6880185 L 52.495186500000045,91.6880185" fill="none" stroke="rgb(0,178,178)" stroke-width="0.1"/>
  <path d="M 52.495186500000045,91.6880185 L 40.495186500000045,91.6880185" fill="none" stroke="rgb(0,178,178)" stroke-width="0.1"/>
  <path d="M 40.495186500000045,91.6880185 L 40.495186500000045,79.6880185" fill="none" stroke="rgb(0,178,178)" stroke-width="0.1"/>
  <path d="M 52.495186500000045,91.6880185 L 40.495186500000045,91.6880185" fill="none" stroke="rgb(0,178,178)" stroke-width="0.1"/>
  <path d="M 40.495186500000045,91.6880185 L 40.495186500000045,79.6880185" fill="none" stroke="rgb(0,178,178)" stroke-width="0.1"/>
  <path d="M 40.495186500000045,79.6880185 L 52.495186500000045,79.6880185" fill="none" stroke="rgb(0,178,178)" stroke-width="0.1"/>
  <path d="M 52.495186500000045,79.6880185 L 52.495186500000045,91.6880185" fill="none" stroke="rgb(0,178,178)" stroke-width="0.1"/>
  <path d="M 31.495186500000045,71.1880185 L 31.495186500000045,53.1880185" fill="none" stroke="rgb(0,178,178)" stroke-width="0.1"/>
  <path d="M 31.495186500000045,53.1880185 L 1.4951865000000453,53.1880185" fill="none" stroke="rgb(0,178,178)" stroke-width="0.1"/>
  <path d="M 1.4951865000000453,53.1880185 L 1.4951865000000453,71.1880185" fill="none" stroke="rgb(0,178,178)" stroke-width="0.1"/>
  <path d="M 1.4951865000000453,71.1880185 L 31.495186500000045,71.1880185" fill="none" stroke="rgb(0,178,178)" stroke-width="0.1"/>
  <path d="M 100.0,53.1880185 L 77.49518650000005,53.1880185" fill="none" stroke="rgb(0,178,178)" stroke-width="0.1"/>
  <path d="M 77.49518650000005,53.1880185 L 77.49518650000005,71.1880185" fill="none" stroke="rgb(0,178,178)" stroke-width="0.1"/>
  <path d="M 77.49518650000005,71.1880185 L 100.0,71.1880185" fill="none" stroke="rgb(0,178,178)" stroke-width="0.1"/>
  <path d="M 40.495186500000045,79.6880185 L 52.495186500000045,79.6880185" fill="none" stroke="rgb(0,178,178)" stroke-width="0.1"/>
  <path d="M 52.495186500000045,79.6880185 L 52.495186500000045,91.6880185" fill="none" stroke="rgb(0,178,178)" stroke-width="0.1"/>
  <path d="M 52.495186500000045,91.6880185 L 40.495186500000045,91.6880185" fill="none" stroke="rgb(0,178,178)" stroke-width="0.1"/>
  <path d="M 40.495186500000045,91.6880185 L 40.495186500000045,79.6880185" fill="none" stroke="rgb(0,178,178)" stroke-width="0.1"/>
  <path d="M 52.495186500000045,91.6880185 L 40.495186500000045,91.6880185" fill="none" stroke="rgb(0,178,178)" stroke-width="0.1"/>
  <path d="M 40.495186500000045,91.6880185 L 40.495186500000045,79.6880185" fill="none" stroke="rgb(0,178,178)" stroke-width="0.1"/>
  <path d="M 40.495186500000045,79.6880185 L 52.495186500000045,79.6880185" fill="none" stroke="rgb(0,178,178)" stroke-width="0.1"/>
  <path d="M 52.495186500000045,79.6880185 L 52.495186500000045,91.6880185" fill="none" stroke="rgb(0,178,178)" stroke-width="0.1"/>
 </g>
 <g id="layerWINDOW" inkscape:groupmode="layer" inkscape:label="WINDOW">
  <path d="M 0.0,33.522018499999945 L 100.0,33.522018499999945" fill="none" instance-id="-1" semantic-id="2" stroke="rgb(178,178,0)" stroke-width="0.1"/>
  <path d="M 0.0,32.856018500000005 L 100.0,32.856018500000005" fill="none" instance-id="-1" semantic-id="2" stroke="rgb(178,178,0)" stroke-width="0.1"/>
  <path d="M 100.0,34.189018499999975 L 0.0,34.189018499999975" fill="none" instance-id="-1" semantic-id="2" stroke="rgb(178,178,0)" stroke-width="0.1"/>
  <path d="M 0.0,32.189018499999975 L 100.0,32.189018499999975" fill="none" instance-id="-1" semantic-id="2" stroke="rgb(178,178,0)" stroke-width="0.1"/>
 </g>
 <g id="layerWINDOW_TEXT" inkscape:groupmode="layer" inkscape:label="WINDOW_TEXT">
  <text fill="rgb(0,0,0)" font-family="Noto Sans CJK SC" font-size="2" transform="rotate(-0.0,47.42518650000011,29.376018499999986)" x="47.42518650000011" y="29.376018499999986">
   C14840
  </text>
 </g>
 <g id="layer_0" inkscape:groupmode="layer" inkscape:label="_0">
  <path d="M 32.495186500000045,72.1880185 L 32.495186500000045,52.1880185" fill="none" stroke="rgb(0,0,0)" stroke-width="0.1"/>
  <path d="M 32.495186500000045,52.1880185 L 0.49518650000004527,52.1880185" fill="none" stroke="rgb(0,0,0)" stroke-width="0.1"/>
  <path d="M 0.49518650000004527,52.1880185 L 0.49518650000004527,72.1880185" fill="none" stroke="rgb(0,0,0)" stroke-width="0.1"/>
  <path d="M 0.49518650000004527,72.1880185 L 32.495186500000045,72.1880185" fill="none" stroke="rgb(0,0,0)" stroke-width="0.1"/>
  <path d="M 100.0,52.1880185 L 76.49518650000005,52.1880185" fill="none" stroke="rgb(0,0,0)" stroke-width="0.1"/>
  <path d="M 76.49518650000005,52.1880185 L 76.49518650000005,72.1880185" fill="none" stroke="rgb(0,0,0)" stroke-width="0.1"/>
  <path d="M 76.49518650000005,72.1880185 L 100.0,72.1880185" fill="none" stroke="rgb(0,0,0)" stroke-width="0.1"/>
 </g>
 <g id="layer预留孔" inkscape:groupmode="layer" inkscape:label="预留孔">
  <path d="M 64.49518650000005,69.68901849999997 L 58.495186500000045,69.68901849999997" fill="none" stroke="rgb(178,0,0)" stroke-width="0.1"/>
  <path d="M 58.495186500000045,69.68901849999997 L 58.495186500000045,63.689018499999975" fill="none" stroke="rgb(178,0,0)" stroke-width="0.1"/>
  <path d="M 58.495186500000045,63.689018499999975 L 64.49518650000005,63.689018499999975" fill="none" stroke="rgb(178,0,0)" stroke-width="0.1"/>
  <path d="M 64.49518650000005,63.689018499999975 L 64.49518650000005,69.68901849999997" fill="none" stroke="rgb(178,0,0)" stroke-width="0.1"/>
 </g>
</svg>