<?xml version="1.0" encoding="utf-8"?>
<svg style="background-color: #000;" version="1.1" viewBox="0 0 100.0 100.0" xmlns="http://www.w3.org/2000/svg" xmlns:inkscape="http://www.inkscape.org/namespaces/inkscape">
 <g id="layerCOLUMN" inkscape:groupmode="layer" inkscape:label="COLUMN">
  <path d="M 19.101045500000055,46.189018499999975 L 25.101045500000055,46.189018499999975" fill="none" stroke="rgb(178,0,178)" stroke-width="0.1"/>
  <path d="M 25.101045500000055,46.189018499999975 L 25.101045500000055,40.189018499999975" fill="none" stroke="rgb(178,0,178)" stroke-width="0.1"/>
  <path d="M 25.101045500000055,40.189018499999975 L 19.101045500000055,40.189018499999975" fill="none" stroke="rgb(178,0,178)" stroke-width="0.1"/>
  <path d="M 19.101045500000055,40.189018499999975 L 19.101045500000055,46.189018499999975" fill="none" stroke="rgb(178,0,178)" stroke-width="0.1"/>
 </g>
 <g id="layerDIM_ELEV" inkscape:groupmode="layer" inkscape:label="DIM_ELEV">
  <text fill="rgb(0,0,0)" font-family="Noto Sans CJK SC" font-size="2" transform="rotate(-0.0,98.11804550000011,94.33801849999998)" x="98.11804550000011" y="94.33801849999998">
   5.5(钢板面)
  </text>
  <text fill="rgb(0,0,0)" font-family="Noto Sans CJK SC" font-size="2" transform="rotate(-0.0,94.26804550000008,88.82501849999994)" x="94.26804550000008" y="88.82501849999994">
   3.500(结构)
  </text>
 </g>
 <g id="layerDOTE" inkscape:groupmode="layer" inkscape:label="DOTE">
  <path d="M 0.0,43.189018499999975 L 100.0,43.189018499999975" fill="none" stroke="rgb(178,0,0)" stroke-width="0.1"/>
  <path d="M 22.10004550000008,0.0 L 22.10004550000008,100.0" fill="none" stroke="rgb(178,0,0)" stroke-width="0.1"/>
  <path d="M 97.10004550000008,0.0 L 97.10004550000008,100.0" fill="none" stroke="rgb(178,0,0)" stroke-width="0.1"/>
 </g>
 <g id="layerPS-开孔" inkscape:groupmode="layer" inkscape:label="PS-开孔">
  <path d="M 3.6000455000000784,81.68901849999997 L 0.0,82.40907560380685" fill="none" stroke="rgb(178,0,178)" stroke-width="0.1"/>
  <path d="M 0.0,83.9689613961931 L 3.6000455000000784,84.68901849999997" fill="none" stroke="rgb(178,0,178)" stroke-width="0.1"/>
  <path d="M 98.94008901106645,0.0 L 94.10104550000005,9.620018500000015" fill="none" stroke="rgb(178,0,178)" stroke-width="0.1"/>
  <path d="M 95.25503624999999,0.0 L 100.0,9.489927499999908" fill="none" stroke="rgb(178,0,178)" stroke-width="0.1"/>
  <path d="M 87.28414063812534,99.60947963538831 L 86.98830170137853,99.20585230521681" fill="none" stroke="rgb(178,0,178)" stroke-width="0.1"/>
  <path d="M 86.98830170137853,99.20585230521681 L 86.68688066573168,98.80637632668208" fill="none" stroke="rgb(178,0,178)" stroke-width="0.1"/>
  <path d="M 86.68688066573168,98.80637632668208 L 86.37993577700831,98.41112889349188" fill="none" stroke="rgb(178,0,178)" stroke-width="0.1"/>
  <path d="M 86.37993577700831,98.41112889349188 L 86.06752634844725,98.02018638224126" fill="none" stroke="rgb(178,0,178)" stroke-width="0.1"/>
  <path d="M 86.06752634844725,98.02018638224126 L 85.74971274924087,97.63362433765292" fill="none" stroke="rgb(178,0,178)" stroke-width="0.1"/>
  <path d="M 85.74971274924087,97.63362433765292 L 85.42655639286966,97.25151745797962" fill="none" stroke="rgb(178,0,178)" stroke-width="0.1"/>
  <path d="M 85.42655639286966,97.25151745797962 L 85.0981197252346,96.87393958056941" fill="none" stroke="rgb(178,0,178)" stroke-width="0.1"/>
  <path d="M 85.0981197252346,96.87393958056941 L 84.76446621259049,96.50096366759783" fill="none" stroke="rgb(178,0,178)" stroke-width="0.1"/>
  <path d="M 84.76446621259049,96.50096366759783 L 84.42566032928175,96.13266179196842" fill="none" stroke="rgb(178,0,178)" stroke-width="0.1"/>
  <path d="M 84.42566032928175,96.13266179196842 L 84.08176754528347,95.769105123386" fill="none" stroke="rgb(178,0,178)" stroke-width="0.1"/>
  <path d="M 84.08176754528347,95.769105123386 L 83.73285431355066,95.41036391460375" fill="none" stroke="rgb(178,0,178)" stroke-width="0.1"/>
  <path d="M 83.73285431355066,95.41036391460375 L 83.37898805717646,95.05650748784774" fill="none" stroke="rgb(178,0,178)" stroke-width="0.1"/>
  <path d="M 83.37898805717646,95.05650748784774 L 83.0202371563638,94.70760422142155" fill="none" stroke="rgb(178,0,178)" stroke-width="0.1"/>
  <path d="M 83.0202371563638,94.70760422142155 L 82.65667093521165,94.36372153649268" fill="none" stroke="rgb(178,0,178)" stroke-width="0.1"/>
  <path d="M 82.65667093521165,94.36372153649268 L 82.2883596483191,94.02492588406426" fill="none" stroke="rgb(178,0,178)" stroke-width="0.1"/>
  <path d="M 82.2883596483191,94.02492588406426 L 81.91537446720952,93.69128273213482" fill="none" stroke="rgb(178,0,178)" stroke-width="0.1"/>
  <path d="M 81.91537446720952,93.69128273213482 L 81.53778746657747,93.36285655304653" fill="none" stroke="rgb(178,0,178)" stroke-width="0.1"/>
  <path d="M 81.53778746657747,93.36285655304653 L 81.15567161036154,93.03971081102736" fill="none" stroke="rgb(178,0,178)" stroke-width="0.1"/>
  <path d="M 81.15567161036154,93.03971081102736 L 80.76910073764418,92.72190794992741" fill="none" stroke="rgb(178,0,178)" stroke-width="0.1"/>
  <path d="M 80.76910073764418,92.72190794992741 L 80.37814954838416,92.4095093811519" fill="none" stroke="rgb(178,0,178)" stroke-width="0.1"/>
  <path d="M 80.37814954838416,92.4095093811519 L 79.98289358898126,92.10257547179481" fill="none" stroke="rgb(178,0,178)" stroke-width="0.1"/>
  <path d="M 79.98289358898126,92.10257547179481 L 79.58340923767764,91.8011655329733" fill="none" stroke="rgb(178,0,178)" stroke-width="0.1"/>
  <path d="M 79.58340923767764,91.8011655329733 L 79.1797736897995,91.50533780836668" fill="none" stroke="rgb(178,0,178)" stroke-width="0.1"/>
  <path d="M 79.1797736897995,91.50533780836668 L 78.77206494283928,91.21514946296168" fill="none" stroke="rgb(178,0,178)" stroke-width="0.1"/>
  <path d="M 78.77206494283928,91.21514946296168 L 78.36036178138374,90.930656572006" fill="none" stroke="rgb(178,0,178)" stroke-width="0.1"/>
  <path d="M 78.36036178138374,90.930656572006 L 77.94474376189044,90.65191411017213" fill="none" stroke="rgb(178,0,178)" stroke-width="0.1"/>
  <path d="M 77.94474376189044,90.65191411017213 L 77.52529119731355,90.37897594093477" fill="none" stroke="rgb(178,0,178)" stroke-width="0.1"/>
  <path d="M 77.52529119731355,90.37897594093477 L 77.10208514158512,90.11189480616179" fill="none" stroke="rgb(178,0,178)" stroke-width="0.1"/>
  <path d="M 77.10208514158512,90.11189480616179 L 76.67520737395205,89.85072231592312" fill="none" stroke="rgb(178,0,178)" stroke-width="0.1"/>
  <path d="M 76.67520737395205,89.85072231592312 L 76.24474038317362,89.59550893851736" fill="none" stroke="rgb(178,0,178)" stroke-width="0.1"/>
  <path d="M 76.24474038317362,89.59550893851736 L 75.81076735158092,89.34630399071932" fill="none" stroke="rgb(178,0,178)" stroke-width="0.1"/>
  <path d="M 75.81076735158092,89.34630399071932 L 75.37337213900355,89.10315562825065" fill="none" stroke="rgb(178,0,178)" stroke-width="0.1"/>
  <path d="M 75.37337213900355,89.10315562825065 L 74.93263926656459,88.86611083647381" fill="none" stroke="rgb(178,0,178)" stroke-width="0.1"/>
  <path d="M 74.93263926656459,88.86611083647381 L 74.48865390034791,88.6352154213132" fill="none" stroke="rgb(178,0,178)" stroke-width="0.1"/>
  <path d="M 74.48865390034791,88.6352154213132 L 74.04150183494073,88.4105140004034" fill="none" stroke="rgb(178,0,178)" stroke-width="0.1"/>
  <path d="M 74.04150183494073,88.4105140004034 L 73.59126947685513,88.19204999446765" fill="none" stroke="rgb(178,0,178)" stroke-width="0.1"/>
  <path d="M 73.59126947685513,88.19204999446765 L 73.1380438278311,87.97986561892708" fill="none" stroke="rgb(178,0,178)" stroke-width="0.1"/>
  <path d="M 73.1380438278311,87.97986561892708 L 72.68191246802428,87.77400187574335" fill="none" stroke="rgb(178,0,178)" stroke-width="0.1"/>
  <path d="M 72.68191246802428,87.77400187574335 L 72.22296353908257,87.57449854549532" fill="none" stroke="rgb(178,0,178)" stroke-width="0.1"/>
  <path d="M 72.22296353908257,87.57449854549532 L 71.76128572711355,87.38139417969217" fill="none" stroke="rgb(178,0,178)" stroke-width="0.1"/>
  <path d="M 71.76128572711355,87.38139417969217 L 71.29696824554708,87.19472609332342" fill="none" stroke="rgb(178,0,178)" stroke-width="0.1"/>
  <path d="M 71.29696824554708,87.19472609332342 L 70.83010081789598,87.01453035764882" fill="none" stroke="rgb(178,0,178)" stroke-width="0.1"/>
  <path d="M 70.83010081789598,87.01453035764882 L 70.36077366041832,86.84084179322781" fill="none" stroke="rgb(178,0,178)" stroke-width="0.1"/>
  <path d="M 70.36077366041832,86.84084179322781 L 69.88907746468351,86.67369396319054" fill="none" stroke="rgb(178,0,178)" stroke-width="0.1"/>
  <path d="M 69.88907746468351,86.67369396319054 L 69.41510338004832,86.51311916675274" fill="none" stroke="rgb(178,0,178)" stroke-width="0.1"/>
  <path d="M 69.41510338004832,86.51311916675274 L 68.93894299604267,86.35914843297405" fill="none" stroke="rgb(178,0,178)" stroke-width="0.1"/>
  <path d="M 68.93894299604267,86.35914843297405 L 68.46068832467131,86.21181151476208" fill="none" stroke="rgb(178,0,178)" stroke-width="0.1"/>
  <path d="M 68.46068832467131,86.21181151476208 L 67.98043178263367,86.07113688312279" fill="none" stroke="rgb(178,0,178)" stroke-width="0.1"/>
  <path d="M 67.98043178263367,86.07113688312279 L 67.49826617346548,85.93715172165957" fill="none" stroke="rgb(178,0,178)" stroke-width="0.1"/>
  <path d="M 67.49826617346548,85.93715172165957 L 67.01428466960601,85.80988192131917" fill="none" stroke="rgb(178,0,178)" stroke-width="0.1"/>
  <path d="M 67.01428466960601,85.80988192131917 L 66.52858079439284,85.68935207538993" fill="none" stroke="rgb(178,0,178)" stroke-width="0.1"/>
  <path d="M 66.52858079439284,85.68935207538993 L 66.0412484039905,85.57558547474832" fill="none" stroke="rgb(178,0,178)" stroke-width="0.1"/>
  <path d="M 66.0412484039905,85.57558547474832 L 65.55238166925346,85.46860410335887" fill="none" stroke="rgb(178,0,178)" stroke-width="0.1"/>
  <path d="M 65.55238166925346,85.46860410335887 L 65.062075057529,85.36842863402615" fill="none" stroke="rgb(178,0,178)" stroke-width="0.1"/>
  <path d="M 65.062075057529,85.36842863402615 L 64.57042331440243,85.27507842439923" fill="none" stroke="rgb(178,0,178)" stroke-width="0.1"/>
  <path d="M 64.57042331440243,85.27507842439923 L 64.07752144538881,85.18857151323209" fill="none" stroke="rgb(178,0,178)" stroke-width="0.1"/>
  <path d="M 64.07752144538881,85.18857151323209 L 63.58346469757441,85.10892461689718" fill="none" stroke="rgb(178,0,178)" stroke-width="0.1"/>
  <path d="M 63.58346469757441,85.10892461689718 L 63.088348541211076,85.03615312615545" fill="none" stroke="rgb(178,0,178)" stroke-width="0.1"/>
  <path d="M 63.088348541211076,85.03615312615545 L 62.59226865126823,84.97027110318186" fill="none" stroke="rgb(178,0,178)" stroke-width="0.1"/>
  <path d="M 62.59226865126823,84.97027110318186 L 62.09532088894457,84.91129127884881" fill="none" stroke="rgb(178,0,178)" stroke-width="0.1"/>
  <path d="M 62.09532088894457,84.91129127884881 L 61.5976012831444,84.85922505026554" fill="none" stroke="rgb(178,0,178)" stroke-width="0.1"/>
  <path d="M 61.5976012831444,84.85922505026554 L 61.09920601192084,84.81408247857564" fill="none" stroke="rgb(178,0,178)" stroke-width="0.1"/>
  <path d="M 61.09920601192084,84.81408247857564 L 60.6002313838909,84.7758722870135" fill="none" stroke="rgb(178,0,178)" stroke-width="0.1"/>
  <path d="M 60.6002313838909,84.7758722870135 L 60.10077381962515,84.74460185921771" fill="none" stroke="rgb(178,0,178)" stroke-width="0.1"/>
  <path d="M 60.10077381962515,84.74460185921771 L 59.60092983301547,84.72027723780525" fill="none" stroke="rgb(178,0,178)" stroke-width="0.1"/>
  <path d="M 59.60092983301547,84.72027723780525 L 59.100796012624755,84.70290312320333" fill="none" stroke="rgb(178,0,178)" stroke-width="0.1"/>
  <path d="M 59.100796012624755,84.70290312320333 L 58.60046900302291,84.69248287274092" fill="none" stroke="rgb(178,0,178)" stroke-width="0.1"/>
  <path d="M 58.60046900302291,84.69248287274092 L 58.10004550000008,84.68901849999997" fill="none" stroke="rgb(178,0,178)" stroke-width="0.1"/>
  <path d="M 0.0,81.68901849999997 L 3.6000455000000784,81.68901849999997" fill="none" stroke="rgb(178,0,178)" stroke-width="0.1"/>
  <path d="M 3.6000455000000784,81.68901849999997 L 3.6000455000000784,84.68901849999997" fill="none" stroke="rgb(178,0,178)" stroke-width="0.1"/>
  <path d="M 3.6000455000000784,84.68901849999997 L 0.0,84.68901849999997" fill="none" stroke="rgb(178,0,178)" stroke-width="0.1"/>
  <path d="M 94.10104550000005,0.0 L 94.10104550000005,9.692018500000017" fill="none" stroke="rgb(178,0,178)" stroke-width="0.1"/>
  <path d="M 94.10104550000005,9.692018500000017 L 100.0,9.692018500000017" fill="none" stroke="rgb(178,0,178)" stroke-width="0.1"/>
 </g>
 <g id="layerPUB_DIM" inkscape:groupmode="layer" inkscape:label="PUB_DIM">
  <path d="M 52.15004550000003,43.189018499999975 L 62.65004550000003,43.189018499999975" fill="none" stroke="rgb(0,178,0)" stroke-width="0.1"/>
  <path d="M 56.472045500000036,42.26101849999998 L 58.32804550000003,44.11701849999997" fill="none" stroke="rgb(0,178,0)" stroke-width="0.1"/>
  <path d="M 2.672045500000081,76.47201849999999 L 4.528045500000076,74.6160185" fill="none" stroke="rgb(0,178,0)" stroke-width="0.1"/>
  <path d="M 3.6000455000000784,80.79401849999999 L 3.6000455000000784,70.29401849999999" fill="none" stroke="rgb(0,178,0)" stroke-width="0.1"/>
  <path d="M 21.17204550000008,76.47201849999999 L 23.029045500000052,74.6160185" fill="none" stroke="rgb(0,178,0)" stroke-width="0.1"/>
  <path d="M 22.10004550000008,80.79401849999999 L 22.10004550000008,70.29401849999999" fill="none" stroke="rgb(0,178,0)" stroke-width="0.1"/>
  <path d="M 2.0270455000000993,99.26101849999998 L 2.766027000000122,100.0" fill="none" stroke="rgb(0,178,0)" stroke-width="0.1"/>
  <path d="M 80.49660391729321,100.0 L 82.34004550000009,98.29701849999992" fill="none" stroke="rgb(0,178,0)" stroke-width="0.1"/>
  <path d="M 96.17204550000008,24.029018500000006 L 98.02904550000005,22.173018500000012" fill="none" stroke="rgb(0,178,0)" stroke-width="0.1"/>
  <path d="M 97.10004550000008,28.35101850000001 L 97.10004550000008,17.85101850000001" fill="none" stroke="rgb(0,178,0)" stroke-width="0.1"/>
  <path d="M 2.334045500000002,43.19001849999995 L 12.834045500000002,43.19001849999995" fill="none" stroke="rgb(0,178,0)" stroke-width="0.1"/>
  <path d="M 2.3360455000000684,25.689018499999975 L 12.836045500000068,25.69001849999995" fill="none" stroke="rgb(0,178,0)" stroke-width="0.1"/>
  <path d="M 2.3360455000000684,20.69001849999995 L 12.836045500000068,20.691018499999927" fill="none" stroke="rgb(0,178,0)" stroke-width="0.1"/>
  <path d="M 2.3370455000000447,15.689018499999975 L 12.837045500000045,15.690018499999951" fill="none" stroke="rgb(0,178,0)" stroke-width="0.1"/>
  <path d="M 2.3370455000000447,10.690018499999951 L 12.837045500000045,10.691018499999927" fill="none" stroke="rgb(0,178,0)" stroke-width="0.1"/>
  <path d="M 2.3370455000000447,9.190018499999951 L 12.837045500000045,9.190018499999951" fill="none" stroke="rgb(0,178,0)" stroke-width="0.1"/>
  <path d="M 2.3370455000000447,6.190018499999951 L 12.837045500000045,6.190018499999951" fill="none" stroke="rgb(0,178,0)" stroke-width="0.1"/>
  <path d="M 6.656045500000005,42.262018499999954 L 8.5120455,44.11801849999995" fill="none" stroke="rgb(0,178,0)" stroke-width="0.1"/>
  <path d="M 6.658045500000071,24.761018499999977 L 8.514045500000066,26.617018499999972" fill="none" stroke="rgb(0,178,0)" stroke-width="0.1"/>
  <path d="M 6.658045500000071,19.762018499999954 L 8.514045500000066,21.61801849999995" fill="none" stroke="rgb(0,178,0)" stroke-width="0.1"/>
  <path d="M 6.6590455000000475,14.762018499999954 L 8.515045500000042,16.61801849999995" fill="none" stroke="rgb(0,178,0)" stroke-width="0.1"/>
  <path d="M 6.6590455000000475,9.762018499999954 L 8.515045500000042,11.618018499999948" fill="none" stroke="rgb(0,178,0)" stroke-width="0.1"/>
  <path d="M 6.6590455000000475,8.262018499999954 L 8.515045500000042,10.118018499999948" fill="none" stroke="rgb(0,178,0)" stroke-width="0.1"/>
  <path d="M 6.6590455000000475,5.262018499999954 L 8.515045500000042,7.118018499999948" fill="none" stroke="rgb(0,178,0)" stroke-width="0.1"/>
  <path d="M 57.40004550000003,0.0 L 57.40004550000003,43.189018499999975" fill="none" stroke="rgb(0,178,0)" stroke-width="0.1"/>
  <path d="M 57.40004550000003,43.189018499999975 L 42.851045500000055,43.189018499999975" fill="none" stroke="rgb(0,178,0)" stroke-width="0.1"/>
  <path d="M 0.0,75.54401849999999 L 22.10004550000008,75.54401849999999" fill="none" stroke="rgb(0,178,0)" stroke-width="0.1"/>
  <path d="M 22.10004550000008,75.54401849999999 L 22.10004550000008,86.45901849999996" fill="none" stroke="rgb(0,178,0)" stroke-width="0.1"/>
  <path d="M 82.54404550000004,98.51801849999993 L 84.54404550000004,96.26201849999995" fill="none" stroke="rgb(0,178,0)" stroke-width="0.1"/>
  <path d="M 84.54404550000004,96.26201849999995 L 82.1370455,98.07701850000001" fill="none" stroke="rgb(0,178,0)" stroke-width="0.1"/>
  <path d="M 82.1370455,98.07701850000001 L 82.54404550000004,98.51801849999993" fill="none" stroke="rgb(0,178,0)" stroke-width="0.1"/>
  <path d="M 100.0,23.10101850000001 L 97.10004550000008,23.10101850000001" fill="none" stroke="rgb(0,178,0)" stroke-width="0.1"/>
  <path d="M 97.10004550000008,23.10101850000001 L 97.10004550000008,9.821018499999923" fill="none" stroke="rgb(0,178,0)" stroke-width="0.1"/>
  <path d="M 0.0,43.18939634696471 L 7.584045500000002,43.19001849999995" fill="none" stroke="rgb(0,178,0)" stroke-width="0.1"/>
  <path d="M 7.584045500000002,43.19001849999995 L 7.586045500000068,25.689018499999975" fill="none" stroke="rgb(0,178,0)" stroke-width="0.1"/>
  <path d="M 7.586045500000068,25.689018499999975 L 7.586045500000068,20.69001849999995" fill="none" stroke="rgb(0,178,0)" stroke-width="0.1"/>
  <path d="M 7.586045500000068,20.69001849999995 L 7.587045500000045,15.690018499999951" fill="none" stroke="rgb(0,178,0)" stroke-width="0.1"/>
  <path d="M 7.587045500000045,15.690018499999951 L 7.587045500000045,10.690018499999951" fill="none" stroke="rgb(0,178,0)" stroke-width="0.1"/>
  <path d="M 7.587045500000045,10.690018499999951 L 7.587045500000045,9.190018499999951" fill="none" stroke="rgb(0,178,0)" stroke-width="0.1"/>
  <path d="M 7.587045500000045,9.190018499999951 L 7.587045500000045,6.190018499999951" fill="none" stroke="rgb(0,178,0)" stroke-width="0.1"/>
  <path d="M 7.587045500000045,6.190018499999951 L 7.587595723866684,0.0" fill="none" stroke="rgb(0,178,0)" stroke-width="0.1"/>
  <text fill="rgb(0,0,0)" font-family="Noto Sans CJK SC" font-size="2" transform="rotate(-450.0,54.82804550000003,20.439018499999975)" x="54.82804550000003" y="20.439018499999975">
   5950
  </text>
  <text fill="rgb(0,0,0)" font-family="Noto Sans CJK SC" font-size="2" transform="rotate(-360.0,5.588045500000021,72.97101850000001)" x="5.588045500000021" y="72.97101850000001">
   1850
  </text>
  <text fill="rgb(0,0,0)" font-family="Noto Sans CJK SC" font-size="2" transform="rotate(-449.996,5.015045500000042,1.940018499999951)" x="5.015045500000042" y="1.940018499999951">
   2250
  </text>
  <text fill="rgb(0,0,0)" font-family="Noto Sans CJK SC" font-size="2" transform="rotate(-449.996,0.6040455000000975,12.940018499999951)" x="0.6040455000000975" y="12.940018499999951">
   300
  </text>
  <text fill="rgb(0,0,0)" font-family="Noto Sans CJK SC" font-size="2" transform="rotate(-449.996,0.049045500000033826,15.452018500000008)" x="0.049045500000033826" y="15.452018500000008">
   150
  </text>
  <text fill="rgb(0,0,0)" font-family="Noto Sans CJK SC" font-size="2" transform="rotate(-449.996,13.549045500000034,18.44001849999995)" x="13.549045500000034" y="18.44001849999995">
   500
  </text>
  <text fill="rgb(0,0,0)" font-family="Noto Sans CJK SC" font-size="2" transform="rotate(-449.996,5.013045500000089,23.44001849999995)" x="5.013045500000089" y="23.44001849999995">
   500
  </text>
  <text fill="rgb(0,0,0)" font-family="Noto Sans CJK SC" font-size="2" transform="rotate(-449.996,0.04804550000005747,28.439018499999975)" x="0.04804550000005747" y="28.439018499999975">
   500
  </text>
  <text fill="rgb(0,0,0)" font-family="Noto Sans CJK SC" font-size="2" transform="rotate(-449.996,5.012045499999999,41.70201850000001)" x="5.012045499999999" y="41.70201850000001">
   1750
  </text>
 </g>
 <g id="layerPUB_HATCH" inkscape:groupmode="layer" inkscape:label="PUB_HATCH">
  <path d="M 100.0,83.18901849999997 L 97.10004550000008,83.18901849999997" fill="none" instance-id="-1" semantic-id="1" stroke="rgb(89,89,89)" stroke-width="0.1"/>
  <path d="M 97.10004550000008,83.18901849999997 L 94.10004550000008,84.68901849999997" fill="none" instance-id="-1" semantic-id="1" stroke="rgb(89,89,89)" stroke-width="0.1"/>
  <path d="M 94.10004550000008,84.68901849999997 L 94.10054749939354,100.0" fill="none" instance-id="-1" semantic-id="1" stroke="rgb(89,89,89)" stroke-width="0.1"/>
  <path d="M 3.6000455000000784,81.68901849999997 L 3.6000455000000784,84.68901849999997" fill="none" instance-id="-1" semantic-id="1" stroke="rgb(89,89,89)" stroke-width="0.1"/>
  <path d="M 3.6000455000000784,84.68901849999997 L 94.10004550000008,84.68901849999997" fill="none" instance-id="-1" semantic-id="1" stroke="rgb(89,89,89)" stroke-width="0.1"/>
  <path d="M 94.10004550000008,84.68901849999997 L 97.10104550000005,83.18901849999997" fill="none" instance-id="-1" semantic-id="1" stroke="rgb(89,89,89)" stroke-width="0.1"/>
  <path d="M 97.10104550000005,83.18901849999997 L 94.10004550000008,81.68901849999997" fill="none" instance-id="-1" semantic-id="1" stroke="rgb(89,89,89)" stroke-width="0.1"/>
  <path d="M 94.10004550000008,81.68901849999997 L 3.6000455000000784,81.68901849999997" fill="none" instance-id="-1" semantic-id="1" stroke="rgb(89,89,89)" stroke-width="0.1"/>
  <path d="M 100.0,9.692018500000017 L 94.10004550000008,9.692018500000017" fill="none" instance-id="-1" semantic-id="1" stroke="rgb(89,89,89)" stroke-width="0.1"/>
  <path d="M 94.10004550000008,9.692018500000017 L 94.10104550000005,40.189018499999975" fill="none" instance-id="-1" semantic-id="1" stroke="rgb(89,89,89)" stroke-width="0.1"/>
  <path d="M 94.10104550000005,40.189018499999975 L 100.0,40.189018499999975" fill="none" instance-id="-1" semantic-id="1" stroke="rgb(89,89,89)" stroke-width="0.1"/>
  <path d="M 19.101045500000055,46.189018499999975 L 25.101045500000055,46.189018499999975" fill="none" instance-id="-1" semantic-id="1" stroke="rgb(89,89,89)" stroke-width="0.1"/>
  <path d="M 25.101045500000055,46.189018499999975 L 25.101045500000055,40.189018499999975" fill="none" instance-id="-1" semantic-id="1" stroke="rgb(89,89,89)" stroke-width="0.1"/>
  <path d="M 25.101045500000055,40.189018499999975 L 19.101045500000055,40.189018499999975" fill="none" instance-id="-1" semantic-id="1" stroke="rgb(89,89,89)" stroke-width="0.1"/>
  <path d="M 19.101045500000055,40.189018499999975 L 19.101045500000055,46.189018499999975" fill="none" instance-id="-1" semantic-id="1" stroke="rgb(89,89,89)" stroke-width="0.1"/>
  <path d="M 94.10104550000005,46.189018499999975 L 100.0,46.189018499999975" fill="none" instance-id="-1" semantic-id="1" stroke="rgb(89,89,89)" stroke-width="0.1"/>
  <path d="M 100.0,40.189018499999975 L 94.10104550000005,40.189018499999975" fill="none" instance-id="-1" semantic-id="1" stroke="rgb(89,89,89)" stroke-width="0.1"/>
  <path d="M 94.10104550000005,40.189018499999975 L 94.10104550000005,46.189018499999975" fill="none" instance-id="-1" semantic-id="1" stroke="rgb(89,89,89)" stroke-width="0.1"/>
  <path d="M 94.10004550000008,46.189018499999975 L 94.10004550000008,81.68901849999997" fill="none" instance-id="-1" semantic-id="1" stroke="rgb(89,89,89)" stroke-width="0.1"/>
  <path d="M 94.10004550000008,81.68901849999997 L 97.10004550000008,83.18901849999997" fill="none" instance-id="-1" semantic-id="1" stroke="rgb(89,89,89)" stroke-width="0.1"/>
  <path d="M 97.10004550000008,83.18901849999997 L 100.0,83.18901849999997" fill="none" instance-id="-1" semantic-id="1" stroke="rgb(89,89,89)" stroke-width="0.1"/>
  <path d="M 100.0,46.189018499999975 L 94.10004550000008,46.189018499999975" fill="none" instance-id="-1" semantic-id="1" stroke="rgb(89,89,89)" stroke-width="0.1"/>
 </g>
 <g id="layerPUB_TEXT" inkscape:groupmode="layer" inkscape:label="PUB_TEXT">
  <text fill="rgb(178,0,178)" font-family="Noto Sans CJK SC" font-size="2" transform="rotate(-0.0,36.26504550000004,27.56901849999997)" x="36.26504550000004" y="27.56901849999997">
   末端好氧区
  </text>
 </g>
 <g id="layerWALL" inkscape:groupmode="layer" inkscape:label="WALL">
  <path d="M 94.10004550000008,84.68901849999997 L 94.10004550000008,100.0" fill="none" instance-id="-1" semantic-id="1" stroke="rgb(0,178,178)" stroke-width="0.1"/>
  <path d="M 3.6000455000000784,81.68901849999997 L 94.10004550000008,81.68901849999997" fill="none" instance-id="-1" semantic-id="1" stroke="rgb(0,178,178)" stroke-width="0.1"/>
  <path d="M 3.6000455000000784,84.68901849999997 L 94.10004550000008,84.68901849999997" fill="none" instance-id="-1" semantic-id="1" stroke="rgb(0,178,178)" stroke-width="0.1"/>
  <path d="M 3.6000455000000784,81.68901849999997 L 3.6000455000000784,84.68901849999997" fill="none" instance-id="-1" semantic-id="1" stroke="rgb(0,178,178)" stroke-width="0.1"/>
  <path d="M 94.10004550000008,9.692018500000017 L 94.10004550000008,43.189018499999975" fill="none" instance-id="-1" semantic-id="1" stroke="rgb(0,178,178)" stroke-width="0.1"/>
  <path d="M 100.0,9.692018500000017 L 94.10004550000008,9.692018500000017" fill="none" instance-id="-1" semantic-id="1" stroke="rgb(0,178,178)" stroke-width="0.1"/>
  <path d="M 94.10104550000005,43.189018499999975 L 94.10004550000008,43.189018499999975" fill="none" stroke="rgb(0,178,178)" stroke-width="0.1"/>
  <path d="M 94.10004550000008,43.189018499999975 L 94.10004550000008,81.68901849999997" fill="none" instance-id="-1" semantic-id="1" stroke="rgb(0,178,178)" stroke-width="0.1"/>
  <path d="M 94.10104550000005,43.189018499999975 L 94.10004550000008,43.189018499999975" fill="none" stroke="rgb(0,178,178)" stroke-width="0.1"/>
 </g>
</svg>