<?xml version="1.0" encoding="utf-8"?>
<svg style="background-color: #000;" version="1.1" viewBox="0 0 100.0 100.0" xmlns="http://www.w3.org/2000/svg" xmlns:inkscape="http://www.inkscape.org/namespaces/inkscape">
 <g id="layerCOLUMN" inkscape:groupmode="layer" inkscape:label="COLUMN">
  <path d="M 0.0,41.189018499999975 L 0.10104550000005474,41.189018499999975" fill="none" stroke="rgb(178,0,178)" stroke-width="0.1"/>
  <path d="M 0.10104550000005474,36.689018499999975 L 0.10104550000005474,35.189018499999975" fill="none" stroke="rgb(178,0,178)" stroke-width="0.1"/>
  <path d="M 0.10104550000005474,41.189018499999975 L 0.10104550000005474,39.689018499999975" fill="none" stroke="rgb(178,0,178)" stroke-width="0.1"/>
  <path d="M 0.10104550000005474,35.189018499999975 L 0.0,35.189018499999975" fill="none" stroke="rgb(178,0,178)" stroke-width="0.1"/>
  <path d="M 69.10104550000005,41.189018499999975 L 75.10104550000005,41.189018499999975" fill="none" stroke="rgb(178,0,178)" stroke-width="0.1"/>
  <path d="M 75.10104550000005,36.689018499999975 L 75.10104550000005,35.189018499999975" fill="none" stroke="rgb(178,0,178)" stroke-width="0.1"/>
  <path d="M 75.10104550000005,41.189018499999975 L 75.10104550000005,39.689018499999975" fill="none" stroke="rgb(178,0,178)" stroke-width="0.1"/>
  <path d="M 75.10104550000005,35.189018499999975 L 69.10104550000005,35.189018499999975" fill="none" stroke="rgb(178,0,178)" stroke-width="0.1"/>
  <path d="M 69.10104550000005,39.689018499999975 L 69.10104550000005,41.189018499999975" fill="none" stroke="rgb(178,0,178)" stroke-width="0.1"/>
  <path d="M 69.10104550000005,35.189018499999975 L 69.10104550000005,36.689018499999975" fill="none" stroke="rgb(178,0,178)" stroke-width="0.1"/>
 </g>
 <g id="layerDIM_SYMB" inkscape:groupmode="layer" inkscape:label="DIM_SYMB">
  <path d="M 10.061045500000034,82.18901849999997 L 18.535045500000024,82.18901849999997" fill="none" stroke="rgb(0,178,0)" stroke-width="0.1"/>
  <path d="M 14.251138000000026,0.0 L 12.59604550000006,0.3310185000000274" fill="none" stroke="rgb(0,178,0)" stroke-width="0.1"/>
  <path d="M 12.59604550000006,0.3310185000000274 L 12.59604550000006,0.0" fill="none" stroke="rgb(0,178,0)" stroke-width="0.1"/>
  <path d="M 10.061045500000034,81.2890185 L 10.061045500000034,83.08901849999995" fill="none" stroke="rgb(0,178,0)" stroke-width="0.1"/>
  <path d="M 10.061045500000034,83.08901849999995 L 5.561045500000034,82.18901849999997" fill="none" stroke="rgb(0,178,0)" stroke-width="0.1"/>
  <path d="M 5.561045500000034,82.18901849999997 L 10.061045500000034,81.2890185" fill="none" stroke="rgb(0,178,0)" stroke-width="0.1"/>
 </g>
 <g id="layerDOTE" inkscape:groupmode="layer" inkscape:label="DOTE">
  <path d="M 0.0,38.189018499999975 L 100.0,38.189018499999975" fill="none" stroke="rgb(178,0,0)" stroke-width="0.1"/>
  <path d="M 72.10004550000008,0.0 L 72.10004550000008,100.0" fill="none" stroke="rgb(178,0,0)" stroke-width="0.1"/>
 </g>
 <g id="layerPUB_DIM" inkscape:groupmode="layer" inkscape:label="PUB_DIM">
  <path d="M 72.10004550000008,3.5810185000000274 L 72.10004550000008,0.0" fill="none" stroke="rgb(0,178,0)" stroke-width="0.1"/>
  <path d="M 91.10004550000008,3.5810185000000274 L 91.10004550000008,0.0" fill="none" stroke="rgb(0,178,0)" stroke-width="0.1"/>
  <path d="M 94.10004550000008,3.5810185000000274 L 94.10004550000008,0.0" fill="none" stroke="rgb(0,178,0)" stroke-width="0.1"/>
  <path d="M 97.0940455000001,52.189018499999975 L 100.0,52.189018499999975" fill="none" stroke="rgb(0,178,0)" stroke-width="0.1"/>
  <path d="M 97.0940455000001,49.189018499999975 L 100.0,49.189018499999975" fill="none" stroke="rgb(0,178,0)" stroke-width="0.1"/>
  <path d="M 97.0940455000001,39.689018499999975 L 100.0,39.689018499999975" fill="none" stroke="rgb(0,178,0)" stroke-width="0.1"/>
  <path d="M 97.0940455000001,36.689018499999975 L 100.0,36.689018499999975" fill="none" stroke="rgb(0,178,0)" stroke-width="0.1"/>
  <path d="M 97.0940455000001,27.189018499999975 L 100.0,27.189018499999975" fill="none" stroke="rgb(0,178,0)" stroke-width="0.1"/>
  <path d="M 97.0940455000001,24.189018499999975 L 100.0,24.189018499999975" fill="none" stroke="rgb(0,178,0)" stroke-width="0.1"/>
  <path d="M 100.0,24.189018499999975 L 89.91004550000002,24.189018499999975" fill="none" stroke="rgb(0,178,0)" stroke-width="0.1"/>
  <text fill="rgb(0,0,0)" font-family="Noto Sans CJK SC" font-size="2" transform="rotate(-90.0,99.77104550000001,89.77701849999994)" x="99.77104550000001" y="89.77701849999994">
   6100
  </text>
  <text fill="rgb(0,0,0)" font-family="Noto Sans CJK SC" font-size="2" transform="rotate(-90.0,95.36104550000005,55.939018499999975)" x="95.36104550000005" y="55.939018499999975">
   300
  </text>
  <text fill="rgb(0,0,0)" font-family="Noto Sans CJK SC" font-size="2" transform="rotate(-90.0,94.8060455000001,49.689018499999975)" x="94.8060455000001" y="49.689018499999975">
   950
  </text>
  <text fill="rgb(0,0,0)" font-family="Noto Sans CJK SC" font-size="2" transform="rotate(-90.0,99.77104550000001,43.439018499999975)" x="99.77104550000001" y="43.439018499999975">
   300
  </text>
  <text fill="rgb(0,0,0)" font-family="Noto Sans CJK SC" font-size="2" transform="rotate(-90.0,94.8060455000001,37.189018499999975)" x="94.8060455000001" y="37.189018499999975">
   950
  </text>
 </g>
 <g id="layerPUB_HATCH" inkscape:groupmode="layer" inkscape:label="PUB_HATCH">
  <path d="M 0.0,52.189018499999975 L 100.0,52.189018499999975" fill="none" instance-id="-1" semantic-id="1" stroke="rgb(89,89,89)" stroke-width="0.1"/>
  <path d="M 100.0,49.189018499999975 L 0.0,49.189018499999975" fill="none" instance-id="-1" semantic-id="1" stroke="rgb(89,89,89)" stroke-width="0.1"/>
  <path d="M 0.0,27.189018499999975 L 100.0,27.189018499999975" fill="none" instance-id="-1" semantic-id="1" stroke="rgb(89,89,89)" stroke-width="0.1"/>
  <path d="M 100.0,24.189018499999975 L 0.0,24.189018499999975" fill="none" instance-id="-1" semantic-id="1" stroke="rgb(89,89,89)" stroke-width="0.1"/>
  <path d="M 0.0,41.189018499999975 L 0.10104550000005474,41.189018499999975" fill="none" instance-id="-1" semantic-id="1" stroke="rgb(89,89,89)" stroke-width="0.1"/>
  <path d="M 0.10104550000005474,41.189018499999975 L 0.10104550000005474,35.189018499999975" fill="none" instance-id="-1" semantic-id="1" stroke="rgb(89,89,89)" stroke-width="0.1"/>
  <path d="M 0.10104550000005474,35.189018499999975 L 0.0,35.189018499999975" fill="none" instance-id="-1" semantic-id="1" stroke="rgb(89,89,89)" stroke-width="0.1"/>
  <path d="M 69.10104550000005,41.189018499999975 L 75.10104550000005,41.189018499999975" fill="none" instance-id="-1" semantic-id="1" stroke="rgb(89,89,89)" stroke-width="0.1"/>
  <path d="M 75.10104550000005,41.189018499999975 L 75.10104550000005,35.189018499999975" fill="none" instance-id="-1" semantic-id="1" stroke="rgb(89,89,89)" stroke-width="0.1"/>
  <path d="M 75.10104550000005,35.189018499999975 L 69.10104550000005,35.189018499999975" fill="none" instance-id="-1" semantic-id="1" stroke="rgb(89,89,89)" stroke-width="0.1"/>
  <path d="M 69.10104550000005,35.189018499999975 L 69.10104550000005,41.189018499999975" fill="none" instance-id="-1" semantic-id="1" stroke="rgb(89,89,89)" stroke-width="0.1"/>
  <path d="M 0.10104550000005474,36.689018499999975 L 0.10104550000005474,39.689018499999975" fill="none" instance-id="-1" semantic-id="1" stroke="rgb(89,89,89)" stroke-width="0.1"/>
  <path d="M 0.10104550000005474,39.689018499999975 L 69.10104550000005,39.689018499999975" fill="none" instance-id="-1" semantic-id="1" stroke="rgb(89,89,89)" stroke-width="0.1"/>
  <path d="M 69.10104550000005,39.689018499999975 L 69.10104550000005,36.689018499999975" fill="none" instance-id="-1" semantic-id="1" stroke="rgb(89,89,89)" stroke-width="0.1"/>
  <path d="M 69.10104550000005,36.689018499999975 L 0.10104550000005474,36.689018499999975" fill="none" instance-id="-1" semantic-id="1" stroke="rgb(89,89,89)" stroke-width="0.1"/>
  <path d="M 75.10104550000005,36.689018499999975 L 75.10104550000005,39.689018499999975" fill="none" instance-id="-1" semantic-id="1" stroke="rgb(89,89,89)" stroke-width="0.1"/>
  <path d="M 75.10104550000005,39.689018499999975 L 100.0,39.689018499999975" fill="none" instance-id="-1" semantic-id="1" stroke="rgb(89,89,89)" stroke-width="0.1"/>
  <path d="M 100.0,36.689018499999975 L 75.10104550000005,36.689018499999975" fill="none" instance-id="-1" semantic-id="1" stroke="rgb(89,89,89)" stroke-width="0.1"/>
 </g>
 <g id="layerWALL" inkscape:groupmode="layer" inkscape:label="WALL">
  <path d="M 0.0,49.189018499999975 L 100.0,49.189018499999975" fill="none" stroke="rgb(0,178,178)" stroke-width="0.1"/>
  <path d="M 0.0,52.189018499999975 L 100.0,52.189018499999975" fill="none" stroke="rgb(0,178,178)" stroke-width="0.1"/>
  <path d="M 0.0,24.189018499999975 L 100.0,24.189018499999975" fill="none" stroke="rgb(0,178,178)" stroke-width="0.1"/>
  <path d="M 0.0,27.189018499999975 L 100.0,27.189018499999975" fill="none" stroke="rgb(0,178,178)" stroke-width="0.1"/>
  <path d="M 69.10104550000005,39.689018499999975 L 0.10104550000005474,39.689018499999975" fill="none" stroke="rgb(0,178,178)" stroke-width="0.1"/>
  <path d="M 69.10104550000005,36.689018499999975 L 0.10104550000005474,36.689018499999975" fill="none" stroke="rgb(0,178,178)" stroke-width="0.1"/>
  <path d="M 100.0,39.689018499999975 L 75.10104550000005,39.689018499999975" fill="none" stroke="rgb(0,178,178)" stroke-width="0.1"/>
  <path d="M 100.0,36.689018499999975 L 75.10104550000005,36.689018499999975" fill="none" stroke="rgb(0,178,178)" stroke-width="0.1"/>
 </g>
</svg>