<?xml version="1.0" encoding="utf-8"?>
<svg style="background-color: #000;" version="1.1" viewBox="0 0 100.0 100.0" xmlns="http://www.w3.org/2000/svg" xmlns:inkscape="http://www.inkscape.org/namespaces/inkscape">
 <g id="layer0" inkscape:groupmode="layer" inkscape:label="0">
  <path d="M 33.10004550000008,7.191018499999927 L 31.60004550000008,21.189018499999975" fill="none" stroke="rgb(0,0,0)" stroke-width="0.1"/>
  <path d="M 33.10204550000003,21.189018499999975 L 31.60004550000008,7.189018499999975" fill="none" stroke="rgb(0,0,0)" stroke-width="0.1"/>
  <path d="M 31.60004550000008,7.189018499999975 L 33.10004550000008,7.189018499999975" fill="none" stroke="rgb(0,0,0)" stroke-width="0.1"/>
  <path d="M 33.10004550000008,7.189018499999975 L 33.10004550000008,21.189018499999975" fill="none" stroke="rgb(0,0,0)" stroke-width="0.1"/>
  <path d="M 33.10004550000008,21.189018499999975 L 31.60004550000008,21.189018499999975" fill="none" stroke="rgb(0,0,0)" stroke-width="0.1"/>
  <path d="M 31.60004550000008,21.189018499999975 L 31.60004550000008,7.189018499999975" fill="none" stroke="rgb(0,0,0)" stroke-width="0.1"/>
 </g>
 <g id="layerCOLUMN" inkscape:groupmode="layer" inkscape:label="COLUMN">
  <path d="M 60.101045500000055,46.189018499999975 L 60.101045500000055,40.189018499999975" fill="none" stroke="rgb(178,0,178)" stroke-width="0.1"/>
 </g>
 <g id="layerDIM_SYMB" inkscape:groupmode="layer" inkscape:label="DIM_SYMB">
  <path d="M 46.410045500000024,47.46901849999995 L 46.410045500000024,38.984018499999934" fill="none" stroke="rgb(0,178,0)" stroke-width="0.1"/>
  <path d="M 47.3100455,47.46901849999995 L 46.410045500000024,51.96901849999995" fill="none" stroke="rgb(0,178,0)" stroke-width="0.1"/>
  <path d="M 46.410045500000024,51.96901849999995 L 45.51004550000005,47.46901849999995" fill="none" stroke="rgb(0,178,0)" stroke-width="0.1"/>
  <path d="M 45.51004550000005,47.46901849999995 L 47.3100455,47.46901849999995" fill="none" stroke="rgb(0,178,0)" stroke-width="0.1"/>
 </g>
 <g id="layerDOTE" inkscape:groupmode="layer" inkscape:label="DOTE">
  <path d="M 0.0,43.189018499999975 L 100.0,43.189018499999975" fill="none" stroke="rgb(178,0,0)" stroke-width="0.1"/>
  <path d="M 57.10004550000008,0.0 L 57.10004550000008,100.0" fill="none" stroke="rgb(178,0,0)" stroke-width="0.1"/>
 </g>
 <g id="layerPS-开孔" inkscape:groupmode="layer" inkscape:label="PS-开孔">
  <path d="M 11.603045500000007,41.689018499999975 L 2.6030455000000075,44.689018499999975" fill="none" stroke="rgb(178,0,178)" stroke-width="0.1"/>
  <path d="M 2.6030455000000075,41.689018499999975 L 11.603045500000007,44.689018499999975" fill="none" stroke="rgb(178,0,178)" stroke-width="0.1"/>
  <path d="M 26.603045500000007,41.689018499999975 L 17.603045500000007,44.689018499999975" fill="none" stroke="rgb(178,0,178)" stroke-width="0.1"/>
  <path d="M 17.603045500000007,41.689018499999975 L 26.603045500000007,44.689018499999975" fill="none" stroke="rgb(178,0,178)" stroke-width="0.1"/>
  <path d="M 39.10304550000001,20.189018499999975 L 33.10304550000001,8.189018499999975" fill="none" stroke="rgb(178,0,178)" stroke-width="0.1"/>
  <path d="M 39.10304550000001,8.189018499999975 L 33.10304550000001,20.189018499999975" fill="none" stroke="rgb(178,0,178)" stroke-width="0.1"/>
  <path d="M 60.101045500000055,20.189018499999975 L 54.101045500000055,6.189018499999975" fill="none" stroke="rgb(178,0,178)" stroke-width="0.1"/>
  <path d="M 60.101045500000055,6.189018499999975 L 54.101045500000055,20.189018499999975" fill="none" stroke="rgb(178,0,178)" stroke-width="0.1"/>
  <path d="M 0.0,23.928391199999965 L 2.1010455000000547,25.189018499999975" fill="none" stroke="rgb(178,0,178)" stroke-width="0.1"/>
  <path d="M 2.1010455000000547,22.189018499999975 L 0.0,23.449645799999985" fill="none" stroke="rgb(178,0,178)" stroke-width="0.1"/>
  <path d="M 7.101045500000055,22.189018499999975 L 12.101045500000055,25.189018499999975" fill="none" stroke="rgb(178,0,178)" stroke-width="0.1"/>
  <path d="M 12.101045500000055,22.189018499999975 L 7.101045500000055,25.189018499999975" fill="none" stroke="rgb(178,0,178)" stroke-width="0.1"/>
  <path d="M 17.101045500000055,22.189018499999975 L 22.101045500000055,25.189018499999975" fill="none" stroke="rgb(178,0,178)" stroke-width="0.1"/>
  <path d="M 22.101045500000055,22.189018499999975 L 17.101045500000055,25.189018499999975" fill="none" stroke="rgb(178,0,178)" stroke-width="0.1"/>
  <path d="M 27.101045500000055,22.189018499999975 L 32.101045500000055,25.189018499999975" fill="none" stroke="rgb(178,0,178)" stroke-width="0.1"/>
  <path d="M 32.101045500000055,22.189018499999975 L 27.101045500000055,25.189018499999975" fill="none" stroke="rgb(178,0,178)" stroke-width="0.1"/>
  <path d="M 55.51838705555565,0.0 L 54.101045500000055,3.1890184999999747" fill="none" stroke="rgb(178,0,178)" stroke-width="0.1"/>
  <path d="M 58.68370394444446,0.0 L 60.101045500000055,3.1890184999999747" fill="none" stroke="rgb(178,0,178)" stroke-width="0.1"/>
  <path d="M 60.101045500000055,23.189018499999975 L 54.101045500000055,33.189018499999975" fill="none" stroke="rgb(178,0,178)" stroke-width="0.1"/>
  <path d="M 54.101045500000055,23.189018499999975 L 60.101045500000055,33.189018499999975" fill="none" stroke="rgb(178,0,178)" stroke-width="0.1"/>
  <path d="M 100.0,84.40920894602971 L 98.60104550000005,84.68901849999997" fill="none" stroke="rgb(178,0,178)" stroke-width="0.1"/>
  <path d="M 98.60104550000005,81.68901849999997 L 100.0,81.96882805397024" fill="none" stroke="rgb(178,0,178)" stroke-width="0.1"/>
  <path d="M 78.60004550000008,13.689018499999975 L 74.60004550000008,22.689018499999975" fill="none" stroke="rgb(178,0,178)" stroke-width="0.1"/>
  <path d="M 74.60004550000008,13.689018499999975 L 78.60004550000008,22.689018499999975" fill="none" stroke="rgb(178,0,178)" stroke-width="0.1"/>
  <path d="M 100.0,13.358560318166724 L 98.60204550000003,15.688018499999998" fill="none" stroke="rgb(178,0,178)" stroke-width="0.1"/>
  <path d="M 98.60104550000005,10.688018499999998 L 100.0,13.01929855814717" fill="none" stroke="rgb(178,0,178)" stroke-width="0.1"/>
  <path d="M 100.0,23.358560318166724 L 98.60204550000003,25.6880185" fill="none" stroke="rgb(178,0,178)" stroke-width="0.1"/>
  <path d="M 98.60204550000003,20.689018499999975 L 100.0,23.01894266666659" fill="none" stroke="rgb(178,0,178)" stroke-width="0.1"/>
  <path d="M 96.09604550000006,84.68901849999997 L 95.58715759745473,84.69656457801295" fill="none" stroke="rgb(178,0,178)" stroke-width="0.1"/>
  <path d="M 95.58715759745473,84.69656457801295 L 95.07870433725452,84.71890563533134" fill="none" stroke="rgb(178,0,178)" stroke-width="0.1"/>
  <path d="M 95.07870433725452,84.71890563533134 L 94.57111576516672,84.75602277606447" fill="none" stroke="rgb(178,0,178)" stroke-width="0.1"/>
  <path d="M 94.57111576516672,84.75602277606447 L 94.06482119561224,84.80788460682686" fill="none" stroke="rgb(178,0,178)" stroke-width="0.1"/>
  <path d="M 94.06482119561224,84.80788460682686 L 93.56024884855492,84.87444726328988" fill="none" stroke="rgb(178,0,178)" stroke-width="0.1"/>
  <path d="M 93.56024884855492,84.87444726328988 L 93.05782548731622,84.95565444728254" fill="none" stroke="rgb(178,0,178)" stroke-width="0.1"/>
  <path d="M 93.05782548731622,84.95565444728254 L 92.55797605762245,85.05143747440741" fill="none" stroke="rgb(178,0,178)" stroke-width="0.1"/>
  <path d="M 92.55797605762245,85.05143747440741 L 92.06112332818884,85.16171533213378" fill="none" stroke="rgb(178,0,178)" stroke-width="0.1"/>
  <path d="M 92.06112332818884,85.16171533213378 L 91.56768753314498,85.28639474831698" fill="none" stroke="rgb(178,0,178)" stroke-width="0.1"/>
  <path d="M 91.56768753314498,85.28639474831698 L 91.0780860166044,85.42537027008791" fill="none" stroke="rgb(178,0,178)" stroke-width="0.1"/>
  <path d="M 91.0780860166044,85.42537027008791 L 90.5927328796779,85.57852435304346" fill="none" stroke="rgb(178,0,178)" stroke-width="0.1"/>
  <path d="M 90.5927328796779,85.57852435304346 L 90.11203863023024,85.7457274606652" fill="none" stroke="rgb(178,0,178)" stroke-width="0.1"/>
  <path d="M 90.11203863023024,85.7457274606652 L 89.63640983567609,85.92683817388024" fill="none" stroke="rgb(178,0,178)" stroke-width="0.1"/>
  <path d="M 89.63640983567609,85.92683817388024 L 89.16624877910772,86.12170331067205" fill="none" stroke="rgb(178,0,178)" stroke-width="0.1"/>
  <path d="M 89.16624877910772,86.12170331067205 L 88.70195311904797,86.33015805564105" fill="none" stroke="rgb(178,0,178)" stroke-width="0.1"/>
  <path d="M 88.70195311904797,86.33015805564105 L 88.24391555311354,86.55202609940386" fill="none" stroke="rgb(178,0,178)" stroke-width="0.1"/>
  <path d="M 88.24391555311354,86.55202609940386 L 87.79252348587397,86.78711978771469" fill="none" stroke="rgb(178,0,178)" stroke-width="0.1"/>
  <path d="M 87.79252348587397,86.78711978771469 L 87.3481587011886,87.03524028018137" fill="none" stroke="rgb(178,0,178)" stroke-width="0.1"/>
  <path d="M 87.3481587011886,87.03524028018137 L 86.91119703929644,87.29617771844346" fill="none" stroke="rgb(178,0,178)" stroke-width="0.1"/>
  <path d="M 86.91119703929644,87.29617771844346 L 86.4820080789334,87.56971140366863" fill="none" stroke="rgb(178,0,178)" stroke-width="0.1"/>
  <path d="M 86.4820080789334,87.56971140366863 L 86.06095482474552,87.85560998321773" fill="none" stroke="rgb(178,0,178)" stroke-width="0.1"/>
  <path d="M 86.06095482474552,87.85560998321773 L 85.64839340026276,88.15363164632151" fill="none" stroke="rgb(178,0,178)" stroke-width="0.1"/>
  <path d="M 85.64839340026276,88.15363164632151 L 85.24467274669223,88.4635243286018" fill="none" stroke="rgb(178,0,178)" stroke-width="0.1"/>
  <path d="M 85.24467274669223,88.4635243286018 L 84.85013432778646,88.78502592526615" fill="none" stroke="rgb(178,0,178)" stroke-width="0.1"/>
  <path d="M 84.85013432778646,88.78502592526615 L 84.46511184103622,89.11786451279329" fill="none" stroke="rgb(178,0,178)" stroke-width="0.1"/>
  <path d="M 84.46511184103622,89.11786451279329 L 84.08993093543177,89.46175857892433" fill="none" stroke="rgb(178,0,178)" stroke-width="0.1"/>
  <path d="M 84.08993093543177,89.46175857892433 L 83.72490893603151,89.81641726076396" fill="none" stroke="rgb(178,0,178)" stroke-width="0.1"/>
  <path d="M 83.72490893603151,89.81641726076396 L 83.37035457557067,90.18154059078893" fill="none" stroke="rgb(178,0,178)" stroke-width="0.1"/>
  <path d="M 83.37035457557067,90.18154059078893 L 83.02656773333797,90.55681975055938" fill="none" stroke="rgb(178,0,178)" stroke-width="0.1"/>
  <path d="M 83.02656773333797,90.55681975055938 L 82.69383918153994,90.94193733191446" fill="none" stroke="rgb(178,0,178)" stroke-width="0.1"/>
  <path d="M 82.69383918153994,90.94193733191446 L 82.37245033936813,91.33656760543363" fill="none" stroke="rgb(178,0,178)" stroke-width="0.1"/>
  <path d="M 82.37245033936813,91.33656760543363 L 82.06267303497657,91.74037679593619" fill="none" stroke="rgb(178,0,178)" stroke-width="0.1"/>
  <path d="M 82.06267303497657,91.74037679593619 L 81.76476927557246,92.15302336478555" fill="none" stroke="rgb(178,0,178)" stroke-width="0.1"/>
  <path d="M 81.76476927557246,92.15302336478555 L 81.47899102581164,92.57415829876038" fill="none" stroke="rgb(178,0,178)" stroke-width="0.1"/>
  <path d="M 81.47899102581164,92.57415829876038 L 81.20557999468951,93.00342540524673" fill="none" stroke="rgb(178,0,178)" stroke-width="0.1"/>
  <path d="M 81.20557999468951,93.00342540524673 L 80.94476743110522,93.44046161350286" fill="none" stroke="rgb(178,0,178)" stroke-width="0.1"/>
  <path d="M 80.94476743110522,93.44046161350286 L 80.69677392827316,93.88489728174238" fill="none" stroke="rgb(178,0,178)" stroke-width="0.1"/>
  <path d="M 80.69677392827316,93.88489728174238 L 80.46180923714701,94.3363565097734" fill="none" stroke="rgb(178,0,178)" stroke-width="0.1"/>
  <path d="M 80.46180923714701,94.3363565097734 L 80.24007208901389,94.7944574569326" fill="none" stroke="rgb(178,0,178)" stroke-width="0.1"/>
  <path d="M 80.24007208901389,94.7944574569326 L 80.03175002740943,95.25881266504291" fill="none" stroke="rgb(178,0,178)" stroke-width="0.1"/>
  <path d="M 80.03175002740943,95.25881266504291 L 79.83701924949423,95.72902938612265" fill="none" stroke="rgb(178,0,178)" stroke-width="0.1"/>
  <path d="M 79.83701924949423,95.72902938612265 L 79.65604445702832,96.20470991456818" fill="none" stroke="rgb(178,0,178)" stroke-width="0.1"/>
  <path d="M 79.65604445702832,96.20470991456818 L 79.48897871706743,96.6854519235311" fill="none" stroke="rgb(178,0,178)" stroke-width="0.1"/>
  <path d="M 79.48897871706743,96.6854519235311 L 79.3359633325,97.17084880520224" fill="none" stroke="rgb(178,0,178)" stroke-width="0.1"/>
  <path d="M 79.3359633325,97.17084880520224 L 79.19712772253456,97.66049001471777" fill="none" stroke="rgb(178,0,178)" stroke-width="0.1"/>
  <path d="M 79.19712772253456,97.66049001471777 L 79.0725893132377,98.15396141739495" fill="none" stroke="rgb(178,0,178)" stroke-width="0.1"/>
  <path d="M 79.0725893132377,98.15396141739495 L 78.96245343821613,98.65084563900359" fill="none" stroke="rgb(178,0,178)" stroke-width="0.1"/>
  <path d="M 78.96245343821613,98.65084563900359 L 78.86681324952667,99.15072241877817" fill="none" stroke="rgb(178,0,178)" stroke-width="0.1"/>
  <path d="M 78.86681324952667,99.15072241877817 L 78.78574963888843,99.65316896487104" fill="none" stroke="rgb(178,0,178)" stroke-width="0.1"/>
  <path d="M 11.603045500000007,44.689018499999975 L 2.6030455000000075,44.689018499999975" fill="none" stroke="rgb(178,0,178)" stroke-width="0.1"/>
  <path d="M 2.6030455000000075,44.689018499999975 L 2.6030455000000075,41.689018499999975" fill="none" stroke="rgb(178,0,178)" stroke-width="0.1"/>
  <path d="M 2.6030455000000075,41.689018499999975 L 11.603045500000007,41.689018499999975" fill="none" stroke="rgb(178,0,178)" stroke-width="0.1"/>
  <path d="M 11.603045500000007,41.689018499999975 L 11.603045500000007,44.689018499999975" fill="none" stroke="rgb(178,0,178)" stroke-width="0.1"/>
  <path d="M 26.603045500000007,44.689018499999975 L 17.603045500000007,44.689018499999975" fill="none" stroke="rgb(178,0,178)" stroke-width="0.1"/>
  <path d="M 17.603045500000007,44.689018499999975 L 17.603045500000007,41.689018499999975" fill="none" stroke="rgb(178,0,178)" stroke-width="0.1"/>
  <path d="M 17.603045500000007,41.689018499999975 L 26.603045500000007,41.689018499999975" fill="none" stroke="rgb(178,0,178)" stroke-width="0.1"/>
  <path d="M 26.603045500000007,41.689018499999975 L 26.603045500000007,44.689018499999975" fill="none" stroke="rgb(178,0,178)" stroke-width="0.1"/>
  <path d="M 39.10304550000001,8.189018499999975 L 39.10304550000001,20.189018499999975" fill="none" stroke="rgb(178,0,178)" stroke-width="0.1"/>
  <path d="M 39.10304550000001,20.189018499999975 L 33.10304550000001,20.189018499999975" fill="none" stroke="rgb(178,0,178)" stroke-width="0.1"/>
  <path d="M 33.10304550000001,20.189018499999975 L 33.10304550000001,8.189018499999975" fill="none" stroke="rgb(178,0,178)" stroke-width="0.1"/>
  <path d="M 33.10304550000001,8.189018499999975 L 39.10304550000001,8.189018499999975" fill="none" stroke="rgb(178,0,178)" stroke-width="0.1"/>
  <path d="M 60.101045500000055,6.189018499999975 L 60.101045500000055,20.189018499999975" fill="none" stroke="rgb(178,0,178)" stroke-width="0.1"/>
  <path d="M 60.101045500000055,20.189018499999975 L 54.101045500000055,20.189018499999975" fill="none" stroke="rgb(178,0,178)" stroke-width="0.1"/>
  <path d="M 54.101045500000055,20.189018499999975 L 54.101045500000055,6.189018499999975" fill="none" stroke="rgb(178,0,178)" stroke-width="0.1"/>
  <path d="M 54.101045500000055,6.189018499999975 L 60.101045500000055,6.189018499999975" fill="none" stroke="rgb(178,0,178)" stroke-width="0.1"/>
  <path d="M 33.101045500000055,0.0 L 33.101045500000055,2.6890184999999747" fill="none" stroke="rgb(178,0,178)" stroke-width="0.1"/>
  <path d="M 33.101045500000055,2.6890184999999747 L 21.099045500000102,2.6890184999999747" fill="none" stroke="rgb(178,0,178)" stroke-width="0.1"/>
  <path d="M 21.099045500000102,2.6890184999999747 L 21.099045500000102,0.0" fill="none" stroke="rgb(178,0,178)" stroke-width="0.1"/>
  <path d="M 0.0,22.189018499999975 L 2.1010455000000547,22.189018499999975" fill="none" stroke="rgb(178,0,178)" stroke-width="0.1"/>
  <path d="M 2.1010455000000547,22.189018499999975 L 2.1010455000000547,25.189018499999975" fill="none" stroke="rgb(178,0,178)" stroke-width="0.1"/>
  <path d="M 2.1010455000000547,25.189018499999975 L 0.0,25.189018499999975" fill="none" stroke="rgb(178,0,178)" stroke-width="0.1"/>
  <path d="M 7.101045500000055,22.189018499999975 L 12.101045500000055,22.189018499999975" fill="none" stroke="rgb(178,0,178)" stroke-width="0.1"/>
  <path d="M 12.101045500000055,22.189018499999975 L 12.101045500000055,25.189018499999975" fill="none" stroke="rgb(178,0,178)" stroke-width="0.1"/>
  <path d="M 12.101045500000055,25.189018499999975 L 7.101045500000055,25.189018499999975" fill="none" stroke="rgb(178,0,178)" stroke-width="0.1"/>
  <path d="M 7.101045500000055,25.189018499999975 L 7.101045500000055,22.189018499999975" fill="none" stroke="rgb(178,0,178)" stroke-width="0.1"/>
  <path d="M 17.101045500000055,22.189018499999975 L 22.101045500000055,22.189018499999975" fill="none" stroke="rgb(178,0,178)" stroke-width="0.1"/>
  <path d="M 22.101045500000055,22.189018499999975 L 22.101045500000055,25.189018499999975" fill="none" stroke="rgb(178,0,178)" stroke-width="0.1"/>
  <path d="M 22.101045500000055,25.189018499999975 L 17.101045500000055,25.189018499999975" fill="none" stroke="rgb(178,0,178)" stroke-width="0.1"/>
  <path d="M 17.101045500000055,25.189018499999975 L 17.101045500000055,22.189018499999975" fill="none" stroke="rgb(178,0,178)" stroke-width="0.1"/>
  <path d="M 27.101045500000055,22.189018499999975 L 32.101045500000055,22.189018499999975" fill="none" stroke="rgb(178,0,178)" stroke-width="0.1"/>
  <path d="M 32.101045500000055,22.189018499999975 L 32.101045500000055,25.189018499999975" fill="none" stroke="rgb(178,0,178)" stroke-width="0.1"/>
  <path d="M 32.101045500000055,25.189018499999975 L 27.101045500000055,25.189018499999975" fill="none" stroke="rgb(178,0,178)" stroke-width="0.1"/>
  <path d="M 27.101045500000055,25.189018499999975 L 27.101045500000055,22.189018499999975" fill="none" stroke="rgb(178,0,178)" stroke-width="0.1"/>
  <path d="M 54.101045500000055,0.0 L 54.101045500000055,3.1890184999999747" fill="none" stroke="rgb(178,0,178)" stroke-width="0.1"/>
  <path d="M 54.101045500000055,3.1890184999999747 L 60.101045500000055,3.1890184999999747" fill="none" stroke="rgb(178,0,178)" stroke-width="0.1"/>
  <path d="M 60.101045500000055,3.1890184999999747 L 60.101045500000055,0.0" fill="none" stroke="rgb(178,0,178)" stroke-width="0.1"/>
  <path d="M 54.101045500000055,23.189018499999975 L 60.101045500000055,23.189018499999975" fill="none" stroke="rgb(178,0,178)" stroke-width="0.1"/>
  <path d="M 60.101045500000055,23.189018499999975 L 60.101045500000055,33.189018499999975" fill="none" stroke="rgb(178,0,178)" stroke-width="0.1"/>
  <path d="M 60.101045500000055,33.189018499999975 L 54.101045500000055,33.189018499999975" fill="none" stroke="rgb(178,0,178)" stroke-width="0.1"/>
  <path d="M 54.101045500000055,33.189018499999975 L 54.101045500000055,23.189018499999975" fill="none" stroke="rgb(178,0,178)" stroke-width="0.1"/>
  <path d="M 98.60104550000005,81.68901849999997 L 100.0,81.68901849999997" fill="none" stroke="rgb(178,0,178)" stroke-width="0.1"/>
  <path d="M 100.0,84.68901849999997 L 98.60104550000005,84.68901849999997" fill="none" stroke="rgb(178,0,178)" stroke-width="0.1"/>
  <path d="M 98.60104550000005,84.68901849999997 L 98.60104550000005,81.68901849999997" fill="none" stroke="rgb(178,0,178)" stroke-width="0.1"/>
  <path d="M 74.60004550000008,13.689018499999975 L 78.60004550000008,13.689018499999975" fill="none" stroke="rgb(178,0,178)" stroke-width="0.1"/>
  <path d="M 78.60004550000008,13.689018499999975 L 78.60004550000008,22.689018499999975" fill="none" stroke="rgb(178,0,178)" stroke-width="0.1"/>
  <path d="M 78.60004550000008,22.689018499999975 L 74.60004550000008,22.689018499999975" fill="none" stroke="rgb(178,0,178)" stroke-width="0.1"/>
  <path d="M 74.60004550000008,22.689018499999975 L 74.60004550000008,13.689018499999975" fill="none" stroke="rgb(178,0,178)" stroke-width="0.1"/>
  <path d="M 98.60204550000003,10.689018499999975 L 100.0,10.689018499999975" fill="none" stroke="rgb(178,0,178)" stroke-width="0.1"/>
  <path d="M 100.0,15.688018499999998 L 98.60204550000003,15.688018499999998" fill="none" stroke="rgb(178,0,178)" stroke-width="0.1"/>
  <path d="M 98.60204550000003,15.688018499999998 L 98.60204550000003,10.689018499999975" fill="none" stroke="rgb(178,0,178)" stroke-width="0.1"/>
  <path d="M 98.60204550000003,20.689018499999975 L 100.0,20.689018499999975" fill="none" stroke="rgb(178,0,178)" stroke-width="0.1"/>
  <path d="M 100.0,25.6880185 L 98.60204550000003,25.6880185" fill="none" stroke="rgb(178,0,178)" stroke-width="0.1"/>
  <path d="M 98.60204550000003,25.6880185 L 98.60204550000003,20.689018499999975" fill="none" stroke="rgb(178,0,178)" stroke-width="0.1"/>
  <path d="M 21.60929144153056,0.0 L 21.099045500000102,2.6890184999999747" fill="none" stroke="rgb(178,0,178)" stroke-width="0.1"/>
 </g>
 <g id="layerPUB_DIM" inkscape:groupmode="layer" inkscape:label="PUB_DIM">
  <path d="M 64.76104550000002,33.189018499999975 L 75.26104550000002,33.189018499999975" fill="none" stroke="rgb(0,178,0)" stroke-width="0.1"/>
  <path d="M 64.76104550000002,23.189018499999975 L 75.26104550000002,23.189018499999975" fill="none" stroke="rgb(0,178,0)" stroke-width="0.1"/>
  <path d="M 64.76104550000002,20.189018499999975 L 75.26104550000002,20.189018499999975" fill="none" stroke="rgb(0,178,0)" stroke-width="0.1"/>
  <path d="M 64.76104550000002,8.189018499999975 L 75.26104550000002,8.189018499999975" fill="none" stroke="rgb(0,178,0)" stroke-width="0.1"/>
  <path d="M 64.76104550000002,3.1890184999999747 L 75.26104550000002,3.1890184999999747" fill="none" stroke="rgb(0,178,0)" stroke-width="0.1"/>
  <path d="M 69.08304550000003,32.26101849999998 L 70.93904550000002,34.11701849999997" fill="none" stroke="rgb(0,178,0)" stroke-width="0.1"/>
  <path d="M 69.08304550000003,22.261018499999977 L 70.93904550000002,24.117018499999972" fill="none" stroke="rgb(0,178,0)" stroke-width="0.1"/>
  <path d="M 69.08304550000003,19.261018499999977 L 70.93904550000002,21.117018499999972" fill="none" stroke="rgb(0,178,0)" stroke-width="0.1"/>
  <path d="M 69.08304550000003,7.261018499999977 L 70.93904550000002,9.117018499999972" fill="none" stroke="rgb(0,178,0)" stroke-width="0.1"/>
  <path d="M 69.08304550000003,2.2610184999999774 L 70.93904550000002,4.117018499999972" fill="none" stroke="rgb(0,178,0)" stroke-width="0.1"/>
  <path d="M 1.1800455000000056,12.529018500000006 L 3.03704550000009,10.675018499999965" fill="none" stroke="rgb(0,178,0)" stroke-width="0.1"/>
  <path d="M 2.105045500000074,16.852018499999986 L 2.1130454999999984,6.352018499999986" fill="none" stroke="rgb(0,178,0)" stroke-width="0.1"/>
  <path d="M 6.180045500000006,12.533018500000026 L 8.03704550000009,10.679018499999984" fill="none" stroke="rgb(0,178,0)" stroke-width="0.1"/>
  <path d="M 7.105045500000074,16.856018500000005 L 7.113045499999998,6.356018500000005" fill="none" stroke="rgb(0,178,0)" stroke-width="0.1"/>
  <path d="M 11.180045500000006,12.537018499999931 L 13.03704550000009,10.682018500000027" fill="none" stroke="rgb(0,178,0)" stroke-width="0.1"/>
  <path d="M 12.105045500000074,16.860018500000024 L 12.113045499999998,6.360018500000024" fill="none" stroke="rgb(0,178,0)" stroke-width="0.1"/>
  <path d="M 16.180045500000006,12.54101849999995 L 18.03704550000009,10.686018499999932" fill="none" stroke="rgb(0,178,0)" stroke-width="0.1"/>
  <path d="M 17.105045500000074,16.86401849999993 L 17.1130455,6.364018499999929" fill="none" stroke="rgb(0,178,0)" stroke-width="0.1"/>
  <path d="M 21.180045500000006,12.54501849999997 L 23.03704550000009,10.690018499999951" fill="none" stroke="rgb(0,178,0)" stroke-width="0.1"/>
  <path d="M 22.105045500000074,16.867018499999972 L 22.1130455,6.367018499999972" fill="none" stroke="rgb(0,178,0)" stroke-width="0.1"/>
  <path d="M 26.180045500000006,12.549018499999988 L 28.03704550000009,10.69401849999997" fill="none" stroke="rgb(0,178,0)" stroke-width="0.1"/>
  <path d="M 27.104045500000097,16.87101849999999 L 27.112045500000022,6.371018499999991" fill="none" stroke="rgb(0,178,0)" stroke-width="0.1"/>
  <path d="M 31.180045500000006,12.552018500000031 L 33.03704550000009,10.69801849999999" fill="none" stroke="rgb(0,178,0)" stroke-width="0.1"/>
  <path d="M 32.1040455000001,16.87501850000001 L 32.1130455,6.37501850000001" fill="none" stroke="rgb(0,178,0)" stroke-width="0.1"/>
  <path d="M 32.180045500000006,12.553018500000007 L 34.03804550000007,10.69801849999999" fill="none" stroke="rgb(0,178,0)" stroke-width="0.1"/>
  <path d="M 33.105045500000074,16.876018499999986 L 33.1130455,6.3760184999999865" fill="none" stroke="rgb(0,178,0)" stroke-width="0.1"/>
  <path d="M 15.174045500000034,75.63401850000002 L 17.03004550000003,73.77801850000003" fill="none" stroke="rgb(0,178,0)" stroke-width="0.1"/>
  <path d="M 16.10204550000003,79.95601850000003 L 16.10204550000003,69.45601850000003" fill="none" stroke="rgb(0,178,0)" stroke-width="0.1"/>
  <path d="M 18.174045500000034,75.63401850000002 L 20.03004550000003,73.77801850000003" fill="none" stroke="rgb(0,178,0)" stroke-width="0.1"/>
  <path d="M 19.10204550000003,79.95601850000003 L 19.10204550000003,69.45601850000003" fill="none" stroke="rgb(0,178,0)" stroke-width="0.1"/>
  <path d="M 97.67204550000008,76.47201849999999 L 99.52904550000005,74.6160185" fill="none" stroke="rgb(0,178,0)" stroke-width="0.1"/>
  <path d="M 98.60104550000005,80.79401849999999 L 98.60104550000005,70.29401849999999" fill="none" stroke="rgb(0,178,0)" stroke-width="0.1"/>
  <path d="M 56.17204550000008,55.66301850000002 L 58.02904550000005,53.80701850000003" fill="none" stroke="rgb(0,178,0)" stroke-width="0.1"/>
  <path d="M 57.10004550000008,59.985018500000024 L 57.10004550000008,49.485018500000024" fill="none" stroke="rgb(0,178,0)" stroke-width="0.1"/>
  <path d="M 73.67304550000006,55.66301850000002 L 75.52904550000005,53.80701850000003" fill="none" stroke="rgb(0,178,0)" stroke-width="0.1"/>
  <path d="M 74.60104550000005,59.985018500000024 L 74.60104550000005,49.485018500000024" fill="none" stroke="rgb(0,178,0)" stroke-width="0.1"/>
  <path d="M 77.67304550000006,55.66301850000002 L 79.52904550000005,53.80701850000003" fill="none" stroke="rgb(0,178,0)" stroke-width="0.1"/>
  <path d="M 78.60104550000005,59.985018500000024 L 78.60104550000005,49.485018500000024" fill="none" stroke="rgb(0,178,0)" stroke-width="0.1"/>
  <path d="M 97.67304550000006,55.66301850000002 L 99.52904550000005,53.80701850000003" fill="none" stroke="rgb(0,178,0)" stroke-width="0.1"/>
  <path d="M 98.60104550000005,59.985018500000024 L 98.60104550000005,49.485018500000024" fill="none" stroke="rgb(0,178,0)" stroke-width="0.1"/>
  <path d="M 85.88404550000007,91.90001849999999 L 93.92698487676068,100.0" fill="none" stroke="rgb(0,178,0)" stroke-width="0.1"/>
  <path d="M 84.6470455000001,13.689018499999975 L 95.1470455000001,13.689018499999975" fill="none" stroke="rgb(0,178,0)" stroke-width="0.1"/>
  <path d="M 84.6470455000001,22.689018499999975 L 95.1470455000001,22.689018499999975" fill="none" stroke="rgb(0,178,0)" stroke-width="0.1"/>
  <path d="M 84.6470455000001,43.189018499999975 L 95.1470455000001,43.189018499999975" fill="none" stroke="rgb(0,178,0)" stroke-width="0.1"/>
  <path d="M 90.20802700000013,0.0 L 90.8250455000001,0.6170184999999719" fill="none" stroke="rgb(0,178,0)" stroke-width="0.1"/>
  <path d="M 88.9690455000001,21.761018499999977 L 90.8250455000001,23.617018499999972" fill="none" stroke="rgb(0,178,0)" stroke-width="0.1"/>
  <path d="M 88.9690455000001,12.761018499999977 L 90.8250455000001,14.617018499999972" fill="none" stroke="rgb(0,178,0)" stroke-width="0.1"/>
  <path d="M 88.9690455000001,42.26101849999998 L 90.8250455000001,44.11701849999997" fill="none" stroke="rgb(0,178,0)" stroke-width="0.1"/>
  <path d="M 1.6740455000000338,57.03501849999998 L 3.5300455000000284,55.179018499999984" fill="none" stroke="rgb(0,178,0)" stroke-width="0.1"/>
  <path d="M 2.602045500000031,61.35701849999998 L 2.602045500000031,50.85701849999998" fill="none" stroke="rgb(0,178,0)" stroke-width="0.1"/>
  <path d="M 10.674045500000034,57.03501849999998 L 12.530045500000028,55.179018499999984" fill="none" stroke="rgb(0,178,0)" stroke-width="0.1"/>
  <path d="M 11.602045500000031,61.35701849999998 L 11.602045500000031,50.85701849999998" fill="none" stroke="rgb(0,178,0)" stroke-width="0.1"/>
  <path d="M 16.674045500000034,57.03501849999998 L 18.53004550000003,55.179018499999984" fill="none" stroke="rgb(0,178,0)" stroke-width="0.1"/>
  <path d="M 17.60204550000003,61.35701849999998 L 17.60204550000003,50.85701849999998" fill="none" stroke="rgb(0,178,0)" stroke-width="0.1"/>
  <path d="M 25.674045500000034,57.03501849999998 L 27.53004550000003,55.179018499999984" fill="none" stroke="rgb(0,178,0)" stroke-width="0.1"/>
  <path d="M 26.60204550000003,61.35701849999998 L 26.60204550000003,50.85701849999998" fill="none" stroke="rgb(0,178,0)" stroke-width="0.1"/>
  <path d="M 70.01104550000002,0.0 L 70.01104550000002,3.1890184999999747" fill="none" stroke="rgb(0,178,0)" stroke-width="0.1"/>
  <path d="M 70.01104550000002,3.1890184999999747 L 70.01104550000002,33.189018499999975" fill="none" stroke="rgb(0,178,0)" stroke-width="0.1"/>
  <path d="M 70.01104550000002,33.189018499999975 L 55.51004550000005,33.189018499999975" fill="none" stroke="rgb(0,178,0)" stroke-width="0.1"/>
  <path d="M 0.0,11.60033126359997 L 2.109045500000093,11.602018499999986" fill="none" stroke="rgb(0,178,0)" stroke-width="0.1"/>
  <path d="M 2.109045500000093,11.602018499999986 L 7.109045500000093,11.606018500000005" fill="none" stroke="rgb(0,178,0)" stroke-width="0.1"/>
  <path d="M 7.109045500000093,11.606018500000005 L 12.109045500000093,11.610018500000024" fill="none" stroke="rgb(0,178,0)" stroke-width="0.1"/>
  <path d="M 12.109045500000093,11.610018500000024 L 17.109045500000093,11.61401849999993" fill="none" stroke="rgb(0,178,0)" stroke-width="0.1"/>
  <path d="M 17.109045500000093,11.61401849999993 L 22.109045500000093,11.617018499999972" fill="none" stroke="rgb(0,178,0)" stroke-width="0.1"/>
  <path d="M 22.109045500000093,11.617018499999972 L 27.108045500000003,11.621018499999991" fill="none" stroke="rgb(0,178,0)" stroke-width="0.1"/>
  <path d="M 27.108045500000003,11.621018499999991 L 32.10904550000009,11.62501850000001" fill="none" stroke="rgb(0,178,0)" stroke-width="0.1"/>
  <path d="M 32.10904550000009,11.62501850000001 L 33.10904550000009,11.626018499999986" fill="none" stroke="rgb(0,178,0)" stroke-width="0.1"/>
  <path d="M 33.10904550000009,11.626018499999986 L 33.101045500000055,22.220018499999924" fill="none" stroke="rgb(0,178,0)" stroke-width="0.1"/>
  <path d="M 0.0,74.70601850000003 L 19.10204550000003,74.70601850000003" fill="none" stroke="rgb(0,178,0)" stroke-width="0.1"/>
  <path d="M 19.10204550000003,74.70601850000003 L 19.10204550000003,61.689018499999975" fill="none" stroke="rgb(0,178,0)" stroke-width="0.1"/>
  <path d="M 98.60104550000005,86.45901849999996 L 98.60104550000005,75.54401849999999" fill="none" stroke="rgb(0,178,0)" stroke-width="0.1"/>
  <path d="M 98.60104550000005,75.54401849999999 L 100.0,75.54401849999999" fill="none" stroke="rgb(0,178,0)" stroke-width="0.1"/>
  <path d="M 57.10004550000008,40.54101849999995 L 57.10004550000008,54.735018500000024" fill="none" stroke="rgb(0,178,0)" stroke-width="0.1"/>
  <path d="M 57.10004550000008,54.735018500000024 L 100.0,54.735018500000024" fill="none" stroke="rgb(0,178,0)" stroke-width="0.1"/>
  <path d="M 86.09704550000004,91.68901849999997 L 85.6710455000001,92.1110185" fill="none" stroke="rgb(0,178,0)" stroke-width="0.1"/>
  <path d="M 85.6710455000001,92.1110185 L 83.77004550000004,89.77101849999997" fill="none" stroke="rgb(0,178,0)" stroke-width="0.1"/>
  <path d="M 83.77004550000004,89.77101849999997 L 86.09704550000004,91.68901849999997" fill="none" stroke="rgb(0,178,0)" stroke-width="0.1"/>
  <path d="M 89.8970455000001,0.0 L 89.8970455000001,13.689018499999975" fill="none" stroke="rgb(0,178,0)" stroke-width="0.1"/>
  <path d="M 89.8970455000001,13.689018499999975 L 89.8970455000001,22.689018499999975" fill="none" stroke="rgb(0,178,0)" stroke-width="0.1"/>
  <path d="M 89.8970455000001,22.689018499999975 L 89.8970455000001,43.189018499999975" fill="none" stroke="rgb(0,178,0)" stroke-width="0.1"/>
  <path d="M 89.8970455000001,43.189018499999975 L 77.67304550000006,43.189018499999975" fill="none" stroke="rgb(0,178,0)" stroke-width="0.1"/>
  <path d="M 0.0,56.10701849999998 L 26.60204550000003,56.10701849999998" fill="none" stroke="rgb(0,178,0)" stroke-width="0.1"/>
  <path d="M 26.60204550000003,56.10701849999998 L 26.60204550000003,44.689018499999975" fill="none" stroke="rgb(0,178,0)" stroke-width="0.1"/>
  <text fill="rgb(0,0,0)" font-family="Noto Sans CJK SC" font-size="2" transform="rotate(-450.0,67.43804550000004,3.7010184999999183)" x="67.43804550000004" y="3.7010184999999183">
   1350
  </text>
  <text fill="rgb(0,0,0)" font-family="Noto Sans CJK SC" font-size="2" transform="rotate(-450.0,62.47304550000001,10.939018499999975)" x="62.47304550000001" y="10.939018499999975">
   500
  </text>
  <text fill="rgb(0,0,0)" font-family="Noto Sans CJK SC" font-size="2" transform="rotate(-450.0,67.43804550000004,21.45201850000001)" x="67.43804550000004" y="21.45201850000001">
   1200
  </text>
  <text fill="rgb(0,0,0)" font-family="Noto Sans CJK SC" font-size="2" transform="rotate(-450.0,62.47304550000001,26.939018499999975)" x="62.47304550000001" y="26.939018499999975">
   300
  </text>
  <text fill="rgb(0,0,0)" font-family="Noto Sans CJK SC" font-size="2" transform="rotate(-450.0,67.72304550000001,40.00201849999996)" x="67.72304550000001" y="40.00201849999996">
   1000
  </text>
  <text fill="rgb(0,0,0)" font-family="Noto Sans CJK SC" font-size="2" transform="rotate(-359.956,4.364045500000088,4.621018499999991)" x="4.364045500000088" y="4.621018499999991">
   500
  </text>
  <text fill="rgb(0,0,0)" font-family="Noto Sans CJK SC" font-size="2" transform="rotate(-359.956,9.364045500000088,4.0700184999999465)" x="9.364045500000088" y="4.0700184999999465">
   500
  </text>
  <text fill="rgb(0,0,0)" font-family="Noto Sans CJK SC" font-size="2" transform="rotate(-359.956,14.36004550000007,9.039018499999997)" x="14.36004550000007" y="9.039018499999997">
   500
  </text>
  <text fill="rgb(0,0,0)" font-family="Noto Sans CJK SC" font-size="2" transform="rotate(-359.956,19.36404550000009,4.078018499999985)" x="19.36404550000009" y="4.078018499999985">
   500
  </text>
  <text fill="rgb(0,0,0)" font-family="Noto Sans CJK SC" font-size="2" transform="rotate(-359.956,24.36404550000009,4.637018499999954)" x="24.36404550000009" y="4.637018499999954">
   500
  </text>
  <text fill="rgb(0,0,0)" font-family="Noto Sans CJK SC" font-size="2" transform="rotate(-359.956,32.84804550000001,9.338018499999976)" x="32.84804550000001" y="9.338018499999976">
   100
  </text>
  <text fill="rgb(0,0,0)" font-family="Noto Sans CJK SC" font-size="2" transform="rotate(-360.0,19.4020455000001,72.41801850000002)" x="19.4020455000001" y="72.41801850000002">
   300
  </text>
  <text fill="rgb(0,0,0)" font-family="Noto Sans CJK SC" font-size="2" transform="rotate(-360.0,98.83804550000002,72.97101850000001)" x="98.83804550000002" y="72.97101850000001">
   1500
  </text>
  <text fill="rgb(0,0,0)" font-family="Noto Sans CJK SC" font-size="2" transform="rotate(-360.0,81.60104550000005,52.16301850000002)" x="81.60104550000005" y="52.16301850000002">
   2000
  </text>
  <text fill="rgb(0,0,0)" font-family="Noto Sans CJK SC" font-size="2" transform="rotate(-360.0,71.35104550000005,52.16301850000002)" x="71.35104550000005" y="52.16301850000002">
   400
  </text>
  <text fill="rgb(0,0,0)" font-family="Noto Sans CJK SC" font-size="2" transform="rotate(-360.0,58.58804550000002,52.16301850000002)" x="58.58804550000002" y="52.16301850000002">
   1750
  </text>
  <text fill="rgb(0,0,0)" font-family="Noto Sans CJK SC" font-size="2" transform="rotate(-314.797,85.11404550000009,81.54501849999997)" x="85.11404550000009" y="81.54501849999997">
   R1750
  </text>
  <text fill="rgb(0,0,0)" font-family="Noto Sans CJK SC" font-size="2" transform="rotate(-450.0,87.32404550000001,0.43901849999997467)" x="87.32404550000001" y="0.43901849999997467">
   900
  </text>
  <text fill="rgb(0,0,0)" font-family="Noto Sans CJK SC" font-size="2" transform="rotate(-450.0,87.32404550000001,13.952018500000008)" x="87.32404550000001" y="13.952018500000008">
   1400
  </text>
  <text fill="rgb(0,0,0)" font-family="Noto Sans CJK SC" font-size="2" transform="rotate(-450.0,87.32404550000001,23.439018499999975)" x="87.32404550000001" y="23.439018499999975">
   900
  </text>
  <text fill="rgb(0,0,0)" font-family="Noto Sans CJK SC" font-size="2" transform="rotate(-450.0,87.32404550000001,39.939018499999975)" x="87.32404550000001" y="39.939018499999975">
   2050
  </text>
  <text fill="rgb(0,0,0)" font-family="Noto Sans CJK SC" font-size="2" transform="rotate(-360.0,26.9020455000001,53.82001849999995)" x="26.9020455000001" y="53.82001849999995">
   900
  </text>
  <text fill="rgb(0,0,0)" font-family="Noto Sans CJK SC" font-size="2" transform="rotate(-360.0,9.265045500000042,53.53501849999998)" x="9.265045500000042" y="53.53501849999998">
   600
  </text>
  <text fill="rgb(0,0,0)" font-family="Noto Sans CJK SC" font-size="2" transform="rotate(-360.0,1.852045500000031,48.57001849999995)" x="1.852045500000031" y="48.57001849999995">
   900
  </text>
 </g>
 <g id="layerPUB_HATCH" inkscape:groupmode="layer" inkscape:label="PUB_HATCH">
  <path d="M 33.10004550000008,41.689018499999975 L 26.60204550000003,41.689018499999975" fill="none" instance-id="-1" semantic-id="1" stroke="rgb(89,89,89)" stroke-width="0.1"/>
  <path d="M 26.60204550000003,41.689018499999975 L 26.60204550000003,44.689018499999975" fill="none" instance-id="-1" semantic-id="1" stroke="rgb(89,89,89)" stroke-width="0.1"/>
  <path d="M 26.60204550000003,44.689018499999975 L 33.10004550000008,44.689018499999975" fill="none" instance-id="-1" semantic-id="1" stroke="rgb(89,89,89)" stroke-width="0.1"/>
  <path d="M 33.10004550000008,44.689018499999975 L 36.10004550000008,43.189018499999975" fill="none" instance-id="-1" semantic-id="1" stroke="rgb(89,89,89)" stroke-width="0.1"/>
  <path d="M 36.10004550000008,43.189018499999975 L 33.10004550000008,41.689018499999975" fill="none" instance-id="-1" semantic-id="1" stroke="rgb(89,89,89)" stroke-width="0.1"/>
  <path d="M 17.60204550000003,41.689018499999975 L 11.602045500000031,41.689018499999975" fill="none" instance-id="-1" semantic-id="1" stroke="rgb(89,89,89)" stroke-width="0.1"/>
  <path d="M 11.602045500000031,41.689018499999975 L 11.602045500000031,44.689018499999975" fill="none" instance-id="-1" semantic-id="1" stroke="rgb(89,89,89)" stroke-width="0.1"/>
  <path d="M 11.602045500000031,44.689018499999975 L 17.60204550000003,44.689018499999975" fill="none" instance-id="-1" semantic-id="1" stroke="rgb(89,89,89)" stroke-width="0.1"/>
  <path d="M 17.60204550000003,44.689018499999975 L 17.60204550000003,41.689018499999975" fill="none" instance-id="-1" semantic-id="1" stroke="rgb(89,89,89)" stroke-width="0.1"/>
  <path d="M 0.0,44.689018499999975 L 2.602045500000031,44.689018499999975" fill="none" instance-id="-1" semantic-id="1" stroke="rgb(89,89,89)" stroke-width="0.1"/>
  <path d="M 2.602045500000031,44.689018499999975 L 2.602045500000031,41.689018499999975" fill="none" instance-id="-1" semantic-id="1" stroke="rgb(89,89,89)" stroke-width="0.1"/>
  <path d="M 2.602045500000031,41.689018499999975 L 0.0,41.689018499999975" fill="none" instance-id="-1" semantic-id="1" stroke="rgb(89,89,89)" stroke-width="0.1"/>
  <path d="M 33.10004550000008,44.689018499999975 L 33.10004550000008,100.0" fill="none" instance-id="-1" semantic-id="1" stroke="rgb(89,89,89)" stroke-width="0.1"/>
  <path d="M 39.10004550000008,100.0 L 39.10004550000008,43.189018499999975" fill="none" instance-id="-1" semantic-id="1" stroke="rgb(89,89,89)" stroke-width="0.1"/>
  <path d="M 39.10004550000008,43.189018499999975 L 36.10004550000008,43.189018499999975" fill="none" instance-id="-1" semantic-id="1" stroke="rgb(89,89,89)" stroke-width="0.1"/>
  <path d="M 36.10004550000008,43.189018499999975 L 33.10004550000008,44.689018499999975" fill="none" instance-id="-1" semantic-id="1" stroke="rgb(89,89,89)" stroke-width="0.1"/>
  <path d="M 33.10204550000003,20.186018499999932 L 33.101045500000055,22.189018499999975" fill="none" instance-id="-1" semantic-id="1" stroke="rgb(89,89,89)" stroke-width="0.1"/>
  <path d="M 33.101045500000055,22.189018499999975 L 36.10004550000008,23.689018499999975" fill="none" instance-id="-1" semantic-id="1" stroke="rgb(89,89,89)" stroke-width="0.1"/>
  <path d="M 36.10004550000008,23.689018499999975 L 39.10004550000008,23.691018499999927" fill="none" instance-id="-1" semantic-id="1" stroke="rgb(89,89,89)" stroke-width="0.1"/>
  <path d="M 39.10004550000008,23.691018499999927 L 39.10204550000003,20.191018499999927" fill="none" instance-id="-1" semantic-id="1" stroke="rgb(89,89,89)" stroke-width="0.1"/>
  <path d="M 39.10204550000003,20.191018499999927 L 33.10204550000003,20.186018499999932" fill="none" instance-id="-1" semantic-id="1" stroke="rgb(89,89,89)" stroke-width="0.1"/>
  <path d="M 16.10204550000003,61.689018499999975 L 16.10204550000003,100.0" fill="none" instance-id="-1" semantic-id="1" stroke="rgb(89,89,89)" stroke-width="0.1"/>
  <path d="M 19.10204550000003,100.0 L 19.10204550000003,58.689018499999975" fill="none" instance-id="-1" semantic-id="1" stroke="rgb(89,89,89)" stroke-width="0.1"/>
  <path d="M 19.10204550000003,58.689018499999975 L 17.60204550000003,60.189018499999975" fill="none" instance-id="-1" semantic-id="1" stroke="rgb(89,89,89)" stroke-width="0.1"/>
  <path d="M 17.60204550000003,60.189018499999975 L 16.10204550000003,61.689018499999975" fill="none" instance-id="-1" semantic-id="1" stroke="rgb(89,89,89)" stroke-width="0.1"/>
  <path d="M 54.10004550000008,6.189018499999975 L 74.60104550000005,6.189018499999975" fill="none" instance-id="-1" semantic-id="1" stroke="rgb(89,89,89)" stroke-width="0.1"/>
  <path d="M 74.60104550000005,6.189018499999975 L 76.60104550000005,4.689018499999975" fill="none" instance-id="-1" semantic-id="1" stroke="rgb(89,89,89)" stroke-width="0.1"/>
  <path d="M 76.60104550000005,4.689018499999975 L 74.60104550000005,3.1890184999999747" fill="none" instance-id="-1" semantic-id="1" stroke="rgb(89,89,89)" stroke-width="0.1"/>
  <path d="M 74.60104550000005,3.1890184999999747 L 60.10004550000008,3.1890184999999747" fill="none" instance-id="-1" semantic-id="1" stroke="rgb(89,89,89)" stroke-width="0.1"/>
  <path d="M 60.10004550000008,3.1890184999999747 L 57.101045500000055,4.689018499999975" fill="none" instance-id="-1" semantic-id="1" stroke="rgb(89,89,89)" stroke-width="0.1"/>
  <path d="M 57.101045500000055,4.689018499999975 L 54.10004550000008,6.189018499999975" fill="none" instance-id="-1" semantic-id="1" stroke="rgb(89,89,89)" stroke-width="0.1"/>
  <path d="M 54.10004550000008,20.189018499999975 L 54.10004550000008,23.189018499999975" fill="none" instance-id="-1" semantic-id="1" stroke="rgb(89,89,89)" stroke-width="0.1"/>
  <path d="M 54.10004550000008,23.189018499999975 L 60.10004550000008,23.189018499999975" fill="none" instance-id="-1" semantic-id="1" stroke="rgb(89,89,89)" stroke-width="0.1"/>
  <path d="M 60.10004550000008,23.189018499999975 L 60.10004550000008,20.189018499999975" fill="none" instance-id="-1" semantic-id="1" stroke="rgb(89,89,89)" stroke-width="0.1"/>
  <path d="M 60.10004550000008,20.189018499999975 L 54.10004550000008,20.189018499999975" fill="none" instance-id="-1" semantic-id="1" stroke="rgb(89,89,89)" stroke-width="0.1"/>
  <path d="M 17.60204550000003,60.189018499999975 L 19.10204550000003,58.689018499999975" fill="none" instance-id="-1" semantic-id="1" stroke="rgb(89,89,89)" stroke-width="0.1"/>
  <path d="M 19.10204550000003,58.689018499999975 L 0.0,58.689018499999975" fill="none" instance-id="-1" semantic-id="1" stroke="rgb(89,89,89)" stroke-width="0.1"/>
  <path d="M 0.0,61.689018499999975 L 16.10204550000003,61.689018499999975" fill="none" instance-id="-1" semantic-id="1" stroke="rgb(89,89,89)" stroke-width="0.1"/>
  <path d="M 16.10204550000003,61.689018499999975 L 17.60204550000003,60.189018499999975" fill="none" instance-id="-1" semantic-id="1" stroke="rgb(89,89,89)" stroke-width="0.1"/>
  <path d="M 33.10004550000008,25.189018499999975 L 33.10004550000008,41.689018499999975" fill="none" instance-id="-1" semantic-id="1" stroke="rgb(89,89,89)" stroke-width="0.1"/>
  <path d="M 33.10004550000008,41.689018499999975 L 36.10004550000008,43.189018499999975" fill="none" instance-id="-1" semantic-id="1" stroke="rgb(89,89,89)" stroke-width="0.1"/>
  <path d="M 36.10004550000008,43.189018499999975 L 39.10004550000008,43.189018499999975" fill="none" instance-id="-1" semantic-id="1" stroke="rgb(89,89,89)" stroke-width="0.1"/>
  <path d="M 39.10004550000008,43.189018499999975 L 39.10004550000008,23.689018499999975" fill="none" instance-id="-1" semantic-id="1" stroke="rgb(89,89,89)" stroke-width="0.1"/>
  <path d="M 39.10004550000008,23.689018499999975 L 36.10004550000008,23.689018499999975" fill="none" instance-id="-1" semantic-id="1" stroke="rgb(89,89,89)" stroke-width="0.1"/>
  <path d="M 36.10004550000008,23.689018499999975 L 33.10004550000008,25.189018499999975" fill="none" instance-id="-1" semantic-id="1" stroke="rgb(89,89,89)" stroke-width="0.1"/>
  <path d="M 33.10164605516809,0.0 L 33.10204550000003,8.189018499999975" fill="none" instance-id="-1" semantic-id="1" stroke="rgb(89,89,89)" stroke-width="0.1"/>
  <path d="M 33.10204550000003,8.189018499999975 L 39.10204550000003,8.189018499999975" fill="none" instance-id="-1" semantic-id="1" stroke="rgb(89,89,89)" stroke-width="0.1"/>
  <path d="M 39.10204550000003,8.189018499999975 L 39.101673288805046,0.0" fill="none" instance-id="-1" semantic-id="1" stroke="rgb(89,89,89)" stroke-width="0.1"/>
  <path d="M 32.10004550000008,25.189018499999975 L 33.10004550000008,25.189018499999975" fill="none" instance-id="-1" semantic-id="1" stroke="rgb(89,89,89)" stroke-width="0.1"/>
  <path d="M 33.10004550000008,25.189018499999975 L 36.10004550000008,23.689018499999975" fill="none" instance-id="-1" semantic-id="1" stroke="rgb(89,89,89)" stroke-width="0.1"/>
  <path d="M 36.10004550000008,23.689018499999975 L 33.101045500000055,22.189018499999975" fill="none" instance-id="-1" semantic-id="1" stroke="rgb(89,89,89)" stroke-width="0.1"/>
  <path d="M 33.101045500000055,22.189018499999975 L 32.10004550000008,22.189018499999975" fill="none" instance-id="-1" semantic-id="1" stroke="rgb(89,89,89)" stroke-width="0.1"/>
  <path d="M 32.10004550000008,22.189018499999975 L 32.10004550000008,25.189018499999975" fill="none" instance-id="-1" semantic-id="1" stroke="rgb(89,89,89)" stroke-width="0.1"/>
  <path d="M 22.10004550000008,25.189018499999975 L 27.10004550000008,25.189018499999975" fill="none" instance-id="-1" semantic-id="1" stroke="rgb(89,89,89)" stroke-width="0.1"/>
  <path d="M 27.10004550000008,25.189018499999975 L 27.10004550000008,22.189018499999975" fill="none" instance-id="-1" semantic-id="1" stroke="rgb(89,89,89)" stroke-width="0.1"/>
  <path d="M 27.10004550000008,22.189018499999975 L 22.10004550000008,22.189018499999975" fill="none" instance-id="-1" semantic-id="1" stroke="rgb(89,89,89)" stroke-width="0.1"/>
  <path d="M 22.10004550000008,22.189018499999975 L 22.10004550000008,25.189018499999975" fill="none" instance-id="-1" semantic-id="1" stroke="rgb(89,89,89)" stroke-width="0.1"/>
  <path d="M 12.100045500000078,25.189018499999975 L 17.10004550000008,25.189018499999975" fill="none" instance-id="-1" semantic-id="1" stroke="rgb(89,89,89)" stroke-width="0.1"/>
  <path d="M 17.10004550000008,25.189018499999975 L 17.10004550000008,22.189018499999975" fill="none" instance-id="-1" semantic-id="1" stroke="rgb(89,89,89)" stroke-width="0.1"/>
  <path d="M 17.10004550000008,22.189018499999975 L 12.100045500000078,22.189018499999975" fill="none" instance-id="-1" semantic-id="1" stroke="rgb(89,89,89)" stroke-width="0.1"/>
  <path d="M 12.100045500000078,22.189018499999975 L 12.100045500000078,25.189018499999975" fill="none" instance-id="-1" semantic-id="1" stroke="rgb(89,89,89)" stroke-width="0.1"/>
  <path d="M 2.1000455000000784,25.189018499999975 L 7.100045500000078,25.189018499999975" fill="none" instance-id="-1" semantic-id="1" stroke="rgb(89,89,89)" stroke-width="0.1"/>
  <path d="M 7.100045500000078,25.189018499999975 L 7.100045500000078,22.189018499999975" fill="none" instance-id="-1" semantic-id="1" stroke="rgb(89,89,89)" stroke-width="0.1"/>
  <path d="M 7.100045500000078,22.189018499999975 L 2.1000455000000784,22.189018499999975" fill="none" instance-id="-1" semantic-id="1" stroke="rgb(89,89,89)" stroke-width="0.1"/>
  <path d="M 2.1000455000000784,22.189018499999975 L 2.1000455000000784,25.189018499999975" fill="none" instance-id="-1" semantic-id="1" stroke="rgb(89,89,89)" stroke-width="0.1"/>
  <path d="M 54.10004550000008,3.1890184999999747 L 54.10004550000008,6.189018499999975" fill="none" instance-id="-1" semantic-id="1" stroke="rgb(89,89,89)" stroke-width="0.1"/>
  <path d="M 54.10004550000008,6.189018499999975 L 57.10004550000008,4.689018499999975" fill="none" instance-id="-1" semantic-id="1" stroke="rgb(89,89,89)" stroke-width="0.1"/>
  <path d="M 57.10004550000008,4.689018499999975 L 60.10004550000008,3.1890184999999747" fill="none" instance-id="-1" semantic-id="1" stroke="rgb(89,89,89)" stroke-width="0.1"/>
  <path d="M 60.10004550000008,3.1890184999999747 L 54.10004550000008,3.1890184999999747" fill="none" instance-id="-1" semantic-id="1" stroke="rgb(89,89,89)" stroke-width="0.1"/>
  <path d="M 60.101045500000055,40.189018499999975 L 60.101045500000055,33.189018499999975" fill="none" instance-id="-1" semantic-id="1" stroke="rgb(89,89,89)" stroke-width="0.1"/>
  <path d="M 60.101045500000055,33.189018499999975 L 54.101045500000055,33.189018499999975" fill="none" instance-id="-1" semantic-id="1" stroke="rgb(89,89,89)" stroke-width="0.1"/>
  <path d="M 54.101045500000055,33.189018499999975 L 54.101045500000055,40.189018499999975" fill="none" instance-id="-1" semantic-id="1" stroke="rgb(89,89,89)" stroke-width="0.1"/>
  <path d="M 54.101045500000055,40.189018499999975 L 60.101045500000055,40.189018499999975" fill="none" instance-id="-1" semantic-id="1" stroke="rgb(89,89,89)" stroke-width="0.1"/>
  <path d="M 76.60104550000005,83.18901849999997 L 78.60104550000005,84.68901849999997" fill="none" instance-id="-1" semantic-id="1" stroke="rgb(89,89,89)" stroke-width="0.1"/>
  <path d="M 78.60104550000005,84.68901849999997 L 98.60004550000008,84.68901849999997" fill="none" instance-id="-1" semantic-id="1" stroke="rgb(89,89,89)" stroke-width="0.1"/>
  <path d="M 98.60004550000008,84.68901849999997 L 98.60004550000008,81.68901849999997" fill="none" instance-id="-1" semantic-id="1" stroke="rgb(89,89,89)" stroke-width="0.1"/>
  <path d="M 98.60004550000008,81.68901849999997 L 78.60104550000005,81.68901849999997" fill="none" instance-id="-1" semantic-id="1" stroke="rgb(89,89,89)" stroke-width="0.1"/>
  <path d="M 78.60104550000005,81.68901849999997 L 76.60104550000005,83.18901849999997" fill="none" instance-id="-1" semantic-id="1" stroke="rgb(89,89,89)" stroke-width="0.1"/>
  <path d="M 78.60104550000005,100.0 L 78.60104550000005,84.68901849999997" fill="none" instance-id="-1" semantic-id="1" stroke="rgb(89,89,89)" stroke-width="0.1"/>
  <path d="M 78.60104550000005,84.68901849999997 L 76.60104550000005,83.18901849999997" fill="none" instance-id="-1" semantic-id="1" stroke="rgb(89,89,89)" stroke-width="0.1"/>
  <path d="M 76.60104550000005,83.18901849999997 L 74.60104550000005,83.18901849999997" fill="none" instance-id="-1" semantic-id="1" stroke="rgb(89,89,89)" stroke-width="0.1"/>
  <path d="M 74.60104550000005,83.18901849999997 L 74.60104550000005,100.0" fill="none" instance-id="-1" semantic-id="1" stroke="rgb(89,89,89)" stroke-width="0.1"/>
  <path d="M 98.60104550000005,27.189018499999975 L 78.60104550000005,27.189018499999975" fill="none" instance-id="-1" semantic-id="1" stroke="rgb(89,89,89)" stroke-width="0.1"/>
  <path d="M 78.60104550000005,27.189018499999975 L 76.60104550000005,28.689018499999975" fill="none" instance-id="-1" semantic-id="1" stroke="rgb(89,89,89)" stroke-width="0.1"/>
  <path d="M 76.60104550000005,28.689018499999975 L 78.60104550000005,30.189018499999975" fill="none" instance-id="-1" semantic-id="1" stroke="rgb(89,89,89)" stroke-width="0.1"/>
  <path d="M 78.60104550000005,30.189018499999975 L 100.0,30.189018499999975" fill="none" instance-id="-1" semantic-id="1" stroke="rgb(89,89,89)" stroke-width="0.1"/>
  <path d="M 100.0,28.58797299999992 L 98.60104550000005,27.189018499999975" fill="none" instance-id="-1" semantic-id="1" stroke="rgb(89,89,89)" stroke-width="0.1"/>
  <path d="M 78.60004550000008,9.189018499999975 L 98.60104550000005,9.189018499999975" fill="none" instance-id="-1" semantic-id="1" stroke="rgb(89,89,89)" stroke-width="0.1"/>
  <path d="M 98.60104550000005,9.189018499999975 L 100.0,7.790064000000029" fill="none" instance-id="-1" semantic-id="1" stroke="rgb(89,89,89)" stroke-width="0.1"/>
  <path d="M 100.0,7.58797299999992 L 98.60104550000005,6.189018499999975" fill="none" instance-id="-1" semantic-id="1" stroke="rgb(89,89,89)" stroke-width="0.1"/>
  <path d="M 98.60104550000005,6.189018499999975 L 78.60004550000008,6.189018499999975" fill="none" instance-id="-1" semantic-id="1" stroke="rgb(89,89,89)" stroke-width="0.1"/>
  <path d="M 78.60004550000008,6.189018499999975 L 78.60004550000008,9.189018499999975" fill="none" instance-id="-1" semantic-id="1" stroke="rgb(89,89,89)" stroke-width="0.1"/>
  <path d="M 76.60104550000005,83.18901849999997 L 78.60104550000005,81.68901849999997" fill="none" instance-id="-1" semantic-id="1" stroke="rgb(89,89,89)" stroke-width="0.1"/>
  <path d="M 78.60104550000005,81.68901849999997 L 78.60104550000005,30.189018499999975" fill="none" instance-id="-1" semantic-id="1" stroke="rgb(89,89,89)" stroke-width="0.1"/>
  <path d="M 78.60104550000005,30.189018499999975 L 76.60104550000005,28.689018499999975" fill="none" instance-id="-1" semantic-id="1" stroke="rgb(89,89,89)" stroke-width="0.1"/>
  <path d="M 76.60104550000005,28.689018499999975 L 74.60104550000005,28.689018499999975" fill="none" instance-id="-1" semantic-id="1" stroke="rgb(89,89,89)" stroke-width="0.1"/>
  <path d="M 74.60104550000005,28.689018499999975 L 74.60104550000005,83.18901849999997" fill="none" instance-id="-1" semantic-id="1" stroke="rgb(89,89,89)" stroke-width="0.1"/>
  <path d="M 74.60104550000005,83.18901849999997 L 76.60104550000005,83.18901849999997" fill="none" instance-id="-1" semantic-id="1" stroke="rgb(89,89,89)" stroke-width="0.1"/>
  <path d="M 74.60104550000005,13.689018499999975 L 78.60104550000005,13.689018499999975" fill="none" instance-id="-1" semantic-id="1" stroke="rgb(89,89,89)" stroke-width="0.1"/>
  <path d="M 78.60104550000005,13.689018499999975 L 78.60104550000005,4.689018499999975" fill="none" instance-id="-1" semantic-id="1" stroke="rgb(89,89,89)" stroke-width="0.1"/>
  <path d="M 78.60104550000005,4.689018499999975 L 76.60104550000005,4.689018499999975" fill="none" instance-id="-1" semantic-id="1" stroke="rgb(89,89,89)" stroke-width="0.1"/>
  <path d="M 76.60104550000005,4.689018499999975 L 74.60104550000005,6.189018499999975" fill="none" instance-id="-1" semantic-id="1" stroke="rgb(89,89,89)" stroke-width="0.1"/>
  <path d="M 74.60104550000005,6.189018499999975 L 74.60104550000005,13.689018499999975" fill="none" instance-id="-1" semantic-id="1" stroke="rgb(89,89,89)" stroke-width="0.1"/>
  <path d="M 76.60104550000005,4.689018499999975 L 78.60104550000005,4.689018499999975" fill="none" instance-id="-1" semantic-id="1" stroke="rgb(89,89,89)" stroke-width="0.1"/>
  <path d="M 78.60104550000005,4.689018499999975 L 78.60104550000005,0.0" fill="none" instance-id="-1" semantic-id="1" stroke="rgb(89,89,89)" stroke-width="0.1"/>
  <path d="M 74.60104550000005,0.0 L 74.60104550000005,3.1890184999999747" fill="none" instance-id="-1" semantic-id="1" stroke="rgb(89,89,89)" stroke-width="0.1"/>
  <path d="M 74.60104550000005,3.1890184999999747 L 76.60104550000005,4.689018499999975" fill="none" instance-id="-1" semantic-id="1" stroke="rgb(89,89,89)" stroke-width="0.1"/>
  <path d="M 98.60104550000005,0.0 L 98.60104550000005,6.189018499999975" fill="none" instance-id="-1" semantic-id="1" stroke="rgb(89,89,89)" stroke-width="0.1"/>
  <path d="M 98.60104550000005,6.189018499999975 L 100.0,7.58797299999992" fill="none" instance-id="-1" semantic-id="1" stroke="rgb(89,89,89)" stroke-width="0.1"/>
  <path d="M 100.0,25.6880185 L 98.60104550000005,25.6880185" fill="none" instance-id="-1" semantic-id="1" stroke="rgb(89,89,89)" stroke-width="0.1"/>
  <path d="M 98.60104550000005,25.6880185 L 98.60104550000005,27.189018499999975" fill="none" instance-id="-1" semantic-id="1" stroke="rgb(89,89,89)" stroke-width="0.1"/>
  <path d="M 98.60104550000005,27.189018499999975 L 100.0,28.58797299999992" fill="none" instance-id="-1" semantic-id="1" stroke="rgb(89,89,89)" stroke-width="0.1"/>
  <path d="M 98.60104550000005,20.689018499999975 L 100.0,20.689018499999975" fill="none" instance-id="-1" semantic-id="1" stroke="rgb(89,89,89)" stroke-width="0.1"/>
  <path d="M 100.0,15.688018499999998 L 98.60104550000005,15.688018499999998" fill="none" instance-id="-1" semantic-id="1" stroke="rgb(89,89,89)" stroke-width="0.1"/>
  <path d="M 98.60104550000005,15.688018499999998 L 98.60104550000005,20.689018499999975" fill="none" instance-id="-1" semantic-id="1" stroke="rgb(89,89,89)" stroke-width="0.1"/>
  <path d="M 98.60104550000005,10.689018499999975 L 100.0,10.689018499999975" fill="none" instance-id="-1" semantic-id="1" stroke="rgb(89,89,89)" stroke-width="0.1"/>
  <path d="M 100.0,7.790064000000029 L 98.60104550000005,9.189018499999975" fill="none" instance-id="-1" semantic-id="1" stroke="rgb(89,89,89)" stroke-width="0.1"/>
  <path d="M 98.60104550000005,9.189018499999975 L 98.60104550000005,10.689018499999975" fill="none" instance-id="-1" semantic-id="1" stroke="rgb(89,89,89)" stroke-width="0.1"/>
  <path d="M 76.60104550000005,28.689018499999975 L 78.60104550000005,27.189018499999975" fill="none" instance-id="-1" semantic-id="1" stroke="rgb(89,89,89)" stroke-width="0.1"/>
  <path d="M 78.60104550000005,27.189018499999975 L 78.60104550000005,22.689018499999975" fill="none" instance-id="-1" semantic-id="1" stroke="rgb(89,89,89)" stroke-width="0.1"/>
  <path d="M 78.60104550000005,22.689018499999975 L 74.60104550000005,22.689018499999975" fill="none" instance-id="-1" semantic-id="1" stroke="rgb(89,89,89)" stroke-width="0.1"/>
  <path d="M 74.60104550000005,22.689018499999975 L 74.60104550000005,28.689018499999975" fill="none" instance-id="-1" semantic-id="1" stroke="rgb(89,89,89)" stroke-width="0.1"/>
  <path d="M 74.60104550000005,28.689018499999975 L 76.60104550000005,28.689018499999975" fill="none" instance-id="-1" semantic-id="1" stroke="rgb(89,89,89)" stroke-width="0.1"/>
  <path d="M 54.101045500000055,46.189018499999975 L 60.101045500000055,46.189018499999975" fill="none" instance-id="-1" semantic-id="1" stroke="rgb(89,89,89)" stroke-width="0.1"/>
  <path d="M 60.101045500000055,46.189018499999975 L 60.101045500000055,40.189018499999975" fill="none" instance-id="-1" semantic-id="1" stroke="rgb(89,89,89)" stroke-width="0.1"/>
  <path d="M 60.101045500000055,40.189018499999975 L 54.101045500000055,40.189018499999975" fill="none" instance-id="-1" semantic-id="1" stroke="rgb(89,89,89)" stroke-width="0.1"/>
  <path d="M 54.101045500000055,40.189018499999975 L 54.101045500000055,46.189018499999975" fill="none" instance-id="-1" semantic-id="1" stroke="rgb(89,89,89)" stroke-width="0.1"/>
  <path d="M 54.101045500000055,46.189018499999975 L 54.101045500000055,100.0" fill="none" instance-id="-1" semantic-id="1" stroke="rgb(89,89,89)" stroke-width="0.1"/>
  <path d="M 60.101045500000055,100.0 L 60.101045500000055,46.189018499999975" fill="none" instance-id="-1" semantic-id="1" stroke="rgb(89,89,89)" stroke-width="0.1"/>
  <path d="M 60.101045500000055,46.189018499999975 L 54.101045500000055,46.189018499999975" fill="none" instance-id="-1" semantic-id="1" stroke="rgb(89,89,89)" stroke-width="0.1"/>
 </g>
 <g id="layerPUB_TEXT" inkscape:groupmode="layer" inkscape:label="PUB_TEXT">
  <text fill="rgb(178,0,178)" font-family="Noto Sans CJK SC" font-size="2" transform="rotate(-0.0,5.358045500000003,35.137018499999954)" x="5.358045500000003" y="35.137018499999954">
   内回流泵
  </text>
  <text fill="rgb(178,0,178)" font-family="Noto Sans CJK SC" font-size="2" transform="rotate(-0.0,40.92304550000006,91.77001849999999)" x="40.92304550000006" y="91.77001849999999">
   进水渠
  </text>
  <text fill="rgb(178,0,178)" font-family="Noto Sans CJK SC" font-size="2" transform="rotate(-0.0,80.14304550000008,25.914018499999997)" x="80.14304550000008" y="25.914018499999997">
   内回流泵
  </text>
 </g>
 <g id="layerWALL" inkscape:groupmode="layer" inkscape:label="WALL">
  <path d="M 33.10004550000008,44.689018499999975 L 26.60204550000003,44.689018499999975" fill="none" instance-id="-1" semantic-id="1" stroke="rgb(0,178,178)" stroke-width="0.1"/>
  <path d="M 33.10004550000008,41.689018499999975 L 26.60204550000003,41.689018499999975" fill="none" instance-id="-1" semantic-id="1" stroke="rgb(0,178,178)" stroke-width="0.1"/>
  <path d="M 26.60204550000003,44.689018499999975 L 26.60204550000003,41.689018499999975" fill="none" instance-id="-1" semantic-id="1" stroke="rgb(0,178,178)" stroke-width="0.1"/>
  <path d="M 17.60204550000003,44.689018499999975 L 11.602045500000031,44.689018499999975" fill="none" instance-id="-1" semantic-id="1" stroke="rgb(0,178,178)" stroke-width="0.1"/>
  <path d="M 17.60204550000003,41.689018499999975 L 11.602045500000031,41.689018499999975" fill="none" instance-id="-1" semantic-id="1" stroke="rgb(0,178,178)" stroke-width="0.1"/>
  <path d="M 17.60204550000003,44.689018499999975 L 17.60204550000003,41.689018499999975" fill="none" instance-id="-1" semantic-id="1" stroke="rgb(0,178,178)" stroke-width="0.1"/>
  <path d="M 11.602045500000031,44.689018499999975 L 11.602045500000031,41.689018499999975" fill="none" instance-id="-1" semantic-id="1" stroke="rgb(0,178,178)" stroke-width="0.1"/>
  <path d="M 2.602045500000031,44.689018499999975 L 0.0,44.689018499999975" fill="none" instance-id="-1" semantic-id="1" stroke="rgb(0,178,178)" stroke-width="0.1"/>
  <path d="M 2.602045500000031,41.689018499999975 L 0.0,41.689018499999975" fill="none" instance-id="-1" semantic-id="1" stroke="rgb(0,178,178)" stroke-width="0.1"/>
  <path d="M 2.602045500000031,44.689018499999975 L 2.602045500000031,41.689018499999975" fill="none" instance-id="-1" semantic-id="1" stroke="rgb(0,178,178)" stroke-width="0.1"/>
  <path d="M 39.10004550000008,43.189018499999975 L 39.10004550000008,100.0" fill="none" instance-id="-1" semantic-id="1" stroke="rgb(0,178,178)" stroke-width="0.1"/>
  <path d="M 33.10004550000008,44.689018499999975 L 33.10004550000008,100.0" fill="none" instance-id="-1" semantic-id="1" stroke="rgb(0,178,178)" stroke-width="0.1"/>
  <path d="M 39.10204550000003,20.191018499999927 L 39.10004550000008,23.691018499999927" fill="none" instance-id="-1" semantic-id="1" stroke="rgb(0,178,178)" stroke-width="0.1"/>
  <path d="M 33.10204550000003,20.186018499999932 L 33.101045500000055,22.189018499999975" fill="none" instance-id="-1" semantic-id="1" stroke="rgb(0,178,178)" stroke-width="0.1"/>
  <path d="M 39.10204550000003,20.191018499999927 L 33.10204550000003,20.186018499999932" fill="none" instance-id="-1" semantic-id="1" stroke="rgb(0,178,178)" stroke-width="0.1"/>
  <path d="M 19.10204550000003,58.689018499999975 L 19.10204550000003,100.0" fill="none" instance-id="-1" semantic-id="1" stroke="rgb(0,178,178)" stroke-width="0.1"/>
  <path d="M 16.10204550000003,61.689018499999975 L 16.10204550000003,100.0" fill="none" instance-id="-1" semantic-id="1" stroke="rgb(0,178,178)" stroke-width="0.1"/>
  <path d="M 60.10004550000008,3.1890184999999747 L 74.60104550000005,3.1890184999999747" fill="none" instance-id="-1" semantic-id="1" stroke="rgb(0,178,178)" stroke-width="0.1"/>
  <path d="M 54.10004550000008,6.189018499999975 L 74.60104550000005,6.189018499999975" fill="none" instance-id="-1" semantic-id="1" stroke="rgb(0,178,178)" stroke-width="0.1"/>
  <path d="M 60.10004550000008,20.189018499999975 L 60.10004550000008,23.189018499999975" fill="none" instance-id="-1" semantic-id="1" stroke="rgb(0,178,178)" stroke-width="0.1"/>
  <path d="M 54.10004550000008,20.189018499999975 L 54.10004550000008,23.189018499999975" fill="none" instance-id="-1" semantic-id="1" stroke="rgb(0,178,178)" stroke-width="0.1"/>
  <path d="M 60.10004550000008,20.189018499999975 L 54.10004550000008,20.189018499999975" fill="none" instance-id="-1" semantic-id="1" stroke="rgb(0,178,178)" stroke-width="0.1"/>
  <path d="M 60.10004550000008,23.189018499999975 L 54.10004550000008,23.189018499999975" fill="none" instance-id="-1" semantic-id="1" stroke="rgb(0,178,178)" stroke-width="0.1"/>
  <path d="M 16.10204550000003,61.689018499999975 L 0.0,61.689018499999975" fill="none" instance-id="-1" semantic-id="1" stroke="rgb(0,178,178)" stroke-width="0.1"/>
  <path d="M 19.10204550000003,58.689018499999975 L 0.0,58.689018499999975" fill="none" instance-id="-1" semantic-id="1" stroke="rgb(0,178,178)" stroke-width="0.1"/>
  <path d="M 39.10004550000008,23.689018499999975 L 39.10004550000008,43.189018499999975" fill="none" instance-id="-1" semantic-id="1" stroke="rgb(0,178,178)" stroke-width="0.1"/>
  <path d="M 33.10004550000008,25.189018499999975 L 33.10004550000008,41.689018499999975" fill="none" instance-id="-1" semantic-id="1" stroke="rgb(0,178,178)" stroke-width="0.1"/>
  <path d="M 39.101673288805046,0.0 L 39.10204550000003,8.189018499999975" fill="none" instance-id="-1" semantic-id="1" stroke="rgb(0,178,178)" stroke-width="0.1"/>
  <path d="M 33.10164605516809,0.0 L 33.10204550000003,8.189018499999975" fill="none" instance-id="-1" semantic-id="1" stroke="rgb(0,178,178)" stroke-width="0.1"/>
  <path d="M 39.10204550000003,8.189018499999975 L 33.10204550000003,8.189018499999975" fill="none" instance-id="-1" semantic-id="1" stroke="rgb(0,178,178)" stroke-width="0.1"/>
  <path d="M 32.10004550000008,22.189018499999975 L 33.101045500000055,22.189018499999975" fill="none" instance-id="-1" semantic-id="1" stroke="rgb(0,178,178)" stroke-width="0.1"/>
  <path d="M 32.10004550000008,25.189018499999975 L 33.10004550000008,25.189018499999975" fill="none" instance-id="-1" semantic-id="1" stroke="rgb(0,178,178)" stroke-width="0.1"/>
  <path d="M 32.10004550000008,22.189018499999975 L 32.10004550000008,25.189018499999975" fill="none" instance-id="-1" semantic-id="1" stroke="rgb(0,178,178)" stroke-width="0.1"/>
  <path d="M 22.10004550000008,22.189018499999975 L 27.10004550000008,22.189018499999975" fill="none" instance-id="-1" semantic-id="1" stroke="rgb(0,178,178)" stroke-width="0.1"/>
  <path d="M 22.10004550000008,25.189018499999975 L 27.10004550000008,25.189018499999975" fill="none" instance-id="-1" semantic-id="1" stroke="rgb(0,178,178)" stroke-width="0.1"/>
  <path d="M 22.10004550000008,22.189018499999975 L 22.10004550000008,25.189018499999975" fill="none" instance-id="-1" semantic-id="1" stroke="rgb(0,178,178)" stroke-width="0.1"/>
  <path d="M 27.10004550000008,22.189018499999975 L 27.10004550000008,25.189018499999975" fill="none" instance-id="-1" semantic-id="1" stroke="rgb(0,178,178)" stroke-width="0.1"/>
  <path d="M 12.100045500000078,22.189018499999975 L 17.10004550000008,22.189018499999975" fill="none" instance-id="-1" semantic-id="1" stroke="rgb(0,178,178)" stroke-width="0.1"/>
  <path d="M 12.100045500000078,25.189018499999975 L 17.10004550000008,25.189018499999975" fill="none" instance-id="-1" semantic-id="1" stroke="rgb(0,178,178)" stroke-width="0.1"/>
  <path d="M 12.100045500000078,22.189018499999975 L 12.100045500000078,25.189018499999975" fill="none" instance-id="-1" semantic-id="1" stroke="rgb(0,178,178)" stroke-width="0.1"/>
  <path d="M 17.10004550000008,22.189018499999975 L 17.10004550000008,25.189018499999975" fill="none" instance-id="-1" semantic-id="1" stroke="rgb(0,178,178)" stroke-width="0.1"/>
  <path d="M 2.1000455000000784,22.189018499999975 L 7.100045500000078,22.189018499999975" fill="none" instance-id="-1" semantic-id="1" stroke="rgb(0,178,178)" stroke-width="0.1"/>
  <path d="M 2.1000455000000784,25.189018499999975 L 7.100045500000078,25.189018499999975" fill="none" instance-id="-1" semantic-id="1" stroke="rgb(0,178,178)" stroke-width="0.1"/>
  <path d="M 2.1000455000000784,22.189018499999975 L 2.1000455000000784,25.189018499999975" fill="none" instance-id="-1" semantic-id="1" stroke="rgb(0,178,178)" stroke-width="0.1"/>
  <path d="M 7.100045500000078,22.189018499999975 L 7.100045500000078,25.189018499999975" fill="none" instance-id="-1" semantic-id="1" stroke="rgb(0,178,178)" stroke-width="0.1"/>
  <path d="M 54.10004550000008,3.1890184999999747 L 54.10004550000008,6.189018499999975" fill="none" instance-id="-1" semantic-id="1" stroke="rgb(0,178,178)" stroke-width="0.1"/>
  <path d="M 60.10004550000008,3.1890184999999747 L 54.10004550000008,3.1890184999999747" fill="none" instance-id="-1" semantic-id="1" stroke="rgb(0,178,178)" stroke-width="0.1"/>
  <path d="M 60.101045500000055,33.189018499999975 L 60.101045500000055,40.189018499999975" fill="none" instance-id="-1" semantic-id="1" stroke="rgb(0,178,178)" stroke-width="0.1"/>
  <path d="M 54.101045500000055,33.189018499999975 L 54.101045500000055,43.189018499999975" fill="none" instance-id="-1" semantic-id="1" stroke="rgb(0,178,178)" stroke-width="0.1"/>
  <path d="M 60.101045500000055,33.189018499999975 L 54.101045500000055,33.189018499999975" fill="none" instance-id="-1" semantic-id="1" stroke="rgb(0,178,178)" stroke-width="0.1"/>
  <path d="M 78.60104550000005,81.68901849999997 L 98.60004550000008,81.68901849999997" fill="none" instance-id="-1" semantic-id="1" stroke="rgb(0,178,178)" stroke-width="0.1"/>
  <path d="M 78.60104550000005,84.68901849999997 L 98.60004550000008,84.68901849999997" fill="none" instance-id="-1" semantic-id="1" stroke="rgb(0,178,178)" stroke-width="0.1"/>
  <path d="M 98.60004550000008,81.68901849999997 L 98.60004550000008,84.68901849999997" fill="none" instance-id="-1" semantic-id="1" stroke="rgb(0,178,178)" stroke-width="0.1"/>
  <path d="M 74.60104550000005,100.0 L 74.60104550000005,83.18901849999997" fill="none" instance-id="-1" semantic-id="1" stroke="rgb(0,178,178)" stroke-width="0.1"/>
  <path d="M 78.60104550000005,100.0 L 78.60104550000005,84.68901849999997" fill="none" instance-id="-1" semantic-id="1" stroke="rgb(0,178,178)" stroke-width="0.1"/>
  <path d="M 100.0,30.189018499999975 L 78.60104550000005,30.189018499999975" fill="none" instance-id="-1" semantic-id="1" stroke="rgb(0,178,178)" stroke-width="0.1"/>
  <path d="M 98.60104550000005,27.189018499999975 L 78.60104550000005,27.189018499999975" fill="none" instance-id="-1" semantic-id="1" stroke="rgb(0,178,178)" stroke-width="0.1"/>
  <path d="M 78.60004550000008,6.189018499999975 L 98.60104550000005,6.189018499999975" fill="none" instance-id="-1" semantic-id="1" stroke="rgb(0,178,178)" stroke-width="0.1"/>
  <path d="M 78.60004550000008,9.189018499999975 L 98.60104550000005,9.189018499999975" fill="none" instance-id="-1" semantic-id="1" stroke="rgb(0,178,178)" stroke-width="0.1"/>
  <path d="M 78.60004550000008,6.189018499999975 L 78.60004550000008,9.189018499999975" fill="none" instance-id="-1" semantic-id="1" stroke="rgb(0,178,178)" stroke-width="0.1"/>
  <path d="M 74.60104550000005,83.18901849999997 L 74.60104550000005,28.689018499999975" fill="none" instance-id="-1" semantic-id="1" stroke="rgb(0,178,178)" stroke-width="0.1"/>
  <path d="M 78.60104550000005,81.68901849999997 L 78.60104550000005,30.189018499999975" fill="none" instance-id="-1" semantic-id="1" stroke="rgb(0,178,178)" stroke-width="0.1"/>
  <path d="M 74.60104550000005,13.689018499999975 L 74.60104550000005,6.189018499999975" fill="none" instance-id="-1" semantic-id="1" stroke="rgb(0,178,178)" stroke-width="0.1"/>
  <path d="M 78.60104550000005,13.689018499999975 L 78.60104550000005,4.689018499999975" fill="none" instance-id="-1" semantic-id="1" stroke="rgb(0,178,178)" stroke-width="0.1"/>
  <path d="M 74.60104550000005,13.689018499999975 L 78.60104550000005,13.689018499999975" fill="none" instance-id="-1" semantic-id="1" stroke="rgb(0,178,178)" stroke-width="0.1"/>
  <path d="M 74.60104550000005,3.1890184999999747 L 74.60104550000005,0.0" fill="none" instance-id="-1" semantic-id="1" stroke="rgb(0,178,178)" stroke-width="0.1"/>
  <path d="M 78.60104550000005,4.689018499999975 L 78.60104550000005,0.0" fill="none" instance-id="-1" semantic-id="1" stroke="rgb(0,178,178)" stroke-width="0.1"/>
  <path d="M 98.60104550000005,6.189018499999975 L 98.60104550000005,0.0" fill="none" instance-id="-1" semantic-id="1" stroke="rgb(0,178,178)" stroke-width="0.1"/>
  <path d="M 98.60104550000005,27.189018499999975 L 98.60104550000005,25.6880185" fill="none" instance-id="-1" semantic-id="1" stroke="rgb(0,178,178)" stroke-width="0.1"/>
  <path d="M 98.60104550000005,25.6880185 L 100.0,25.6880185" fill="none" instance-id="-1" semantic-id="1" stroke="rgb(0,178,178)" stroke-width="0.1"/>
  <path d="M 98.60104550000005,20.689018499999975 L 98.60104550000005,15.688018499999998" fill="none" instance-id="-1" semantic-id="1" stroke="rgb(0,178,178)" stroke-width="0.1"/>
  <path d="M 98.60104550000005,20.689018499999975 L 100.0,20.689018499999975" fill="none" instance-id="-1" semantic-id="1" stroke="rgb(0,178,178)" stroke-width="0.1"/>
  <path d="M 98.60104550000005,15.688018499999998 L 100.0,15.688018499999998" fill="none" instance-id="-1" semantic-id="1" stroke="rgb(0,178,178)" stroke-width="0.1"/>
  <path d="M 98.60104550000005,10.689018499999975 L 98.60104550000005,9.189018499999975" fill="none" instance-id="-1" semantic-id="1" stroke="rgb(0,178,178)" stroke-width="0.1"/>
  <path d="M 98.60104550000005,10.689018499999975 L 100.0,10.689018499999975" fill="none" instance-id="-1" semantic-id="1" stroke="rgb(0,178,178)" stroke-width="0.1"/>
  <path d="M 74.60104550000005,28.689018499999975 L 74.60104550000005,22.689018499999975" fill="none" instance-id="-1" semantic-id="1" stroke="rgb(0,178,178)" stroke-width="0.1"/>
  <path d="M 78.60104550000005,27.189018499999975 L 78.60104550000005,22.689018499999975" fill="none" instance-id="-1" semantic-id="1" stroke="rgb(0,178,178)" stroke-width="0.1"/>
  <path d="M 74.60104550000005,22.689018499999975 L 78.60104550000005,22.689018499999975" fill="none" instance-id="-1" semantic-id="1" stroke="rgb(0,178,178)" stroke-width="0.1"/>
  <path d="M 60.101045500000055,46.189018499999975 L 60.101045500000055,100.0" fill="none" instance-id="-1" semantic-id="1" stroke="rgb(0,178,178)" stroke-width="0.1"/>
  <path d="M 54.101045500000055,43.189018499999975 L 54.101045500000055,100.0" fill="none" instance-id="-1" semantic-id="1" stroke="rgb(0,178,178)" stroke-width="0.1"/>
 </g>
</svg>