<?xml version="1.0" encoding="utf-8"?>
<svg style="background-color: #000;" version="1.1" viewBox="0 0 100.0 100.0" xmlns="http://www.w3.org/2000/svg" xmlns:inkscape="http://www.inkscape.org/namespaces/inkscape">
 <g id="layer0" inkscape:groupmode="layer" inkscape:label="0">
  <path d="M 0.0,51.583023914908495 L 9.100045500000078,59.689018499999975" fill="none" stroke="rgb(89,89,89)" stroke-width="0.1"/>
  <path d="M 0.0,71.79501308509148 L 9.100045500000078,63.689018499999975" fill="none" stroke="rgb(89,89,89)" stroke-width="0.1"/>
  <path d="M 8.100045500000078,12.189018499999975 L 100.0,12.189018499999975" fill="none" stroke="rgb(89,89,89)" stroke-width="0.1"/>
  <path d="M 8.100045500000078,100.0 L 8.100045500000078,12.189018499999975" fill="none" stroke="rgb(89,89,89)" stroke-width="0.1"/>
  <path d="M 77.10004550000008,35.189018499999975 L 93.60004550000008,35.189018499999975" fill="none" stroke="rgb(178,0,178)" stroke-width="0.1"/>
  <path d="M 93.60004550000008,35.189018499999975 L 93.60004550000008,45.189018499999975" fill="none" stroke="rgb(178,0,178)" stroke-width="0.1"/>
  <path d="M 93.60004550000008,45.189018499999975 L 77.10004550000008,45.189018499999975" fill="none" stroke="rgb(178,0,178)" stroke-width="0.1"/>
  <path d="M 77.10004550000008,45.189018499999975 L 77.10004550000008,35.189018499999975" fill="none" stroke="rgb(178,0,178)" stroke-width="0.1"/>
  <path d="M 77.10004550000008,57.189018499999975 L 93.60004550000008,57.189018499999975" fill="none" stroke="rgb(178,0,178)" stroke-width="0.1"/>
  <path d="M 93.60004550000008,57.189018499999975 L 93.60004550000008,67.18901849999997" fill="none" stroke="rgb(178,0,178)" stroke-width="0.1"/>
  <path d="M 93.60004550000008,67.18901849999997 L 77.10004550000008,67.18901849999997" fill="none" stroke="rgb(178,0,178)" stroke-width="0.1"/>
  <path d="M 77.10004550000008,67.18901849999997 L 77.10004550000008,57.189018499999975" fill="none" stroke="rgb(178,0,178)" stroke-width="0.1"/>
  <path d="M 77.10004550000008,79.18901849999997 L 93.60004550000008,79.18901849999997" fill="none" stroke="rgb(178,0,178)" stroke-width="0.1"/>
  <path d="M 93.60004550000008,79.18901849999997 L 93.60004550000008,89.18901849999997" fill="none" stroke="rgb(178,0,178)" stroke-width="0.1"/>
  <path d="M 93.60004550000008,89.18901849999997 L 77.10004550000008,89.18901849999997" fill="none" stroke="rgb(178,0,178)" stroke-width="0.1"/>
  <path d="M 77.10004550000008,89.18901849999997 L 77.10004550000008,79.18901849999997" fill="none" stroke="rgb(178,0,178)" stroke-width="0.1"/>
 </g>
 <g id="layerDIM_ELEV" inkscape:groupmode="layer" inkscape:label="DIM_ELEV">
  <path d="M 51.936045500000034,72.18101849999996 L 28.46104550000007,72.18101849999996" fill="none" stroke="rgb(0,178,0)" stroke-width="0.1"/>
  <path d="M 28.46104550000007,72.18101849999996 L 32.96104550000007,76.68101849999996" fill="none" stroke="rgb(0,178,0)" stroke-width="0.1"/>
  <path d="M 32.96104550000007,76.68101849999996 L 37.46104550000007,72.18101849999996" fill="none" stroke="rgb(0,178,0)" stroke-width="0.1"/>
  <path d="M 92.79404550000004,75.50901849999997 L 69.31904550000007,75.50901849999997" fill="none" stroke="rgb(0,178,0)" stroke-width="0.1"/>
  <path d="M 69.31904550000007,75.50901849999997 L 73.81904550000007,80.00901849999997" fill="none" stroke="rgb(0,178,0)" stroke-width="0.1"/>
  <path d="M 73.81904550000007,80.00901849999997 L 78.31904550000007,75.50901849999997" fill="none" stroke="rgb(0,178,0)" stroke-width="0.1"/>
  <text fill="rgb(0,0,0)" font-family="Noto Sans CJK SC" font-size="2" transform="rotate(-0.0,32.686045500000034,71.44601849999998)" x="32.686045500000034" y="71.44601849999998">
   6.5(结构)
  </text>
  <text fill="rgb(0,0,0)" font-family="Noto Sans CJK SC" font-size="2" transform="rotate(-0.0,73.54404550000004,74.77401849999998)" x="73.54404550000004" y="74.77401849999998">
   6.5(结构)
  </text>
 </g>
 <g id="layerDIM_LEAD" inkscape:groupmode="layer" inkscape:label="DIM_LEAD">
  <path d="M 65.36419786972914,100.0 L 66.14804550000008,92.04301849999996" fill="none" stroke="rgb(0,178,0)" stroke-width="0.1"/>
  <path d="M 66.14804550000008,92.04301849999996 L 100.0,92.04301849999996" fill="none" stroke="rgb(0,178,0)" stroke-width="0.1"/>
  <text fill="rgb(0,0,0)" font-family="Noto Sans CJK SC" font-size="2" transform="rotate(-0.0,69.21504550000003,90.2050185)" x="69.21504550000003" y="90.2050185">
   %%c400风管预留洞口
  </text>
 </g>
 <g id="layerDOOR_FIRE_TEXT" inkscape:groupmode="layer" inkscape:label="DOOR_FIRE_TEXT">
  <text fill="rgb(0,0,0)" font-family="Noto Sans CJK SC" font-size="2" transform="rotate(-360.0,85.66304550000007,97.37701849999996)" x="85.66304550000007" y="97.37701849999996">
   FM甲2021
  </text>
  <text fill="rgb(0,0,0)" font-family="Noto Sans CJK SC" font-size="2" transform="rotate(-360.0,36.66304550000007,97.37701849999996)" x="36.66304550000007" y="97.37701849999996">
   FM甲2021
  </text>
 </g>
 <g id="layerDOTE" inkscape:groupmode="layer" inkscape:label="DOTE">
  <path d="M 0.0,23.189018499999975 L 100.0,23.189018499999975" fill="none" stroke="rgb(178,0,0)" stroke-width="0.1"/>
  <path d="M 32.10004550000008,0.0 L 32.10004550000008,100.0" fill="none" stroke="rgb(178,0,0)" stroke-width="0.1"/>
 </g>
 <g id="layerPS-开孔" inkscape:groupmode="layer" inkscape:label="PS-开孔">
  <path d="M 0.0,46.689018499999975 L 9.100045500000078,46.689018499999975" fill="none" stroke="rgb(178,0,178)" stroke-width="0.1"/>
  <path d="M 9.100045500000078,46.689018499999975 L 9.100045500000078,56.689018499999975" fill="none" stroke="rgb(178,0,178)" stroke-width="0.1"/>
  <path d="M 9.100045500000078,56.689018499999975 L 0.0,56.689018499999975" fill="none" stroke="rgb(178,0,178)" stroke-width="0.1"/>
  <path d="M 0.0,26.189018499999975 L 9.100045500000078,26.189018499999975" fill="none" stroke="rgb(178,0,178)" stroke-width="0.1"/>
  <path d="M 9.100045500000078,26.189018499999975 L 9.100045500000078,36.189018499999975" fill="none" stroke="rgb(178,0,178)" stroke-width="0.1"/>
  <path d="M 9.100045500000078,36.189018499999975 L 0.0,36.189018499999975" fill="none" stroke="rgb(178,0,178)" stroke-width="0.1"/>
  <path d="M 0.0,66.68901849999997 L 9.100045500000078,66.68901849999997" fill="none" stroke="rgb(178,0,178)" stroke-width="0.1"/>
  <path d="M 9.100045500000078,66.68901849999997 L 9.100045500000078,76.68901849999997" fill="none" stroke="rgb(178,0,178)" stroke-width="0.1"/>
  <path d="M 9.100045500000078,76.68901849999997 L 0.0,76.68901849999997" fill="none" stroke="rgb(178,0,178)" stroke-width="0.1"/>
  <path d="M 0.0,87.18901849999997 L 9.100045500000078,87.18901849999997" fill="none" stroke="rgb(178,0,178)" stroke-width="0.1"/>
  <path d="M 9.100045500000078,87.18901849999997 L 9.100045500000078,97.18901849999997" fill="none" stroke="rgb(178,0,178)" stroke-width="0.1"/>
  <path d="M 9.100045500000078,97.18901849999997 L 0.0,97.18901849999997" fill="none" stroke="rgb(178,0,178)" stroke-width="0.1"/>
 </g>
 <g id="layerPUB_HATCH" inkscape:groupmode="layer" inkscape:label="PUB_HATCH">
  <path d="M 11.100045500000078,23.189018499999975 L 14.100045500000078,23.189018499999975" fill="none" instance-id="-1" semantic-id="1" stroke="rgb(89,89,89)" stroke-width="0.1"/>
  <path d="M 14.100045500000078,23.189018499999975 L 59.10004550000008,23.189018499999975" fill="none" instance-id="-1" semantic-id="1" stroke="rgb(89,89,89)" stroke-width="0.1"/>
  <path d="M 59.10004550000008,23.189018499999975 L 60.60004550000008,23.189018499999975" fill="none" instance-id="-1" semantic-id="1" stroke="rgb(89,89,89)" stroke-width="0.1"/>
  <path d="M 60.60004550000008,23.189018499999975 L 60.60004550000008,12.189018499999975" fill="none" instance-id="-1" semantic-id="1" stroke="rgb(89,89,89)" stroke-width="0.1"/>
  <path d="M 60.60004550000008,12.189018499999975 L 11.100045500000078,12.189018499999975" fill="none" instance-id="-1" semantic-id="1" stroke="rgb(89,89,89)" stroke-width="0.1"/>
  <path d="M 11.100045500000078,12.189018499999975 L 11.100045500000078,23.189018499999975" fill="none" instance-id="-1" semantic-id="1" stroke="rgb(89,89,89)" stroke-width="0.1"/>
  <path d="M 14.100045500000078,100.0 L 14.100045500000078,61.689018499999975" fill="none" instance-id="-1" semantic-id="1" stroke="rgb(89,89,89)" stroke-width="0.1"/>
  <path d="M 14.100045500000078,61.689018499999975 L 11.100045500000078,61.689018499999975" fill="none" instance-id="-1" semantic-id="1" stroke="rgb(89,89,89)" stroke-width="0.1"/>
  <path d="M 11.100045500000078,61.689018499999975 L 9.100045500000078,63.689018499999975" fill="none" instance-id="-1" semantic-id="1" stroke="rgb(89,89,89)" stroke-width="0.1"/>
  <path d="M 9.100045500000078,63.689018499999975 L 9.100045500000078,100.0" fill="none" instance-id="-1" semantic-id="1" stroke="rgb(89,89,89)" stroke-width="0.1"/>
  <path d="M 0.0,63.689018499999975 L 9.100045500000078,63.689018499999975" fill="none" instance-id="-1" semantic-id="1" stroke="rgb(89,89,89)" stroke-width="0.1"/>
  <path d="M 9.100045500000078,63.689018499999975 L 11.100045500000078,61.689018499999975" fill="none" instance-id="-1" semantic-id="1" stroke="rgb(89,89,89)" stroke-width="0.1"/>
  <path d="M 11.100045500000078,61.689018499999975 L 9.100045500000078,59.689018499999975" fill="none" instance-id="-1" semantic-id="1" stroke="rgb(89,89,89)" stroke-width="0.1"/>
  <path d="M 9.100045500000078,59.689018499999975 L 0.0,59.689018499999975" fill="none" instance-id="-1" semantic-id="1" stroke="rgb(89,89,89)" stroke-width="0.1"/>
  <path d="M 0.0,23.189018499999975 L 9.100045500000078,23.189018499999975" fill="none" instance-id="-1" semantic-id="1" stroke="rgb(89,89,89)" stroke-width="0.1"/>
  <path d="M 9.100045500000078,23.189018499999975 L 11.100045500000078,23.189018499999975" fill="none" instance-id="-1" semantic-id="1" stroke="rgb(89,89,89)" stroke-width="0.1"/>
  <path d="M 11.100045500000078,23.189018499999975 L 11.100045500000078,12.189018499999975" fill="none" instance-id="-1" semantic-id="1" stroke="rgb(89,89,89)" stroke-width="0.1"/>
  <path d="M 11.100045500000078,12.189018499999975 L 0.0,12.189018499999975" fill="none" instance-id="-1" semantic-id="1" stroke="rgb(89,89,89)" stroke-width="0.1"/>
  <path d="M 62.10004550000008,100.0 L 62.10004550000008,97.68901849999997" fill="none" instance-id="-1" semantic-id="1" stroke="rgb(89,89,89)" stroke-width="0.1"/>
  <path d="M 62.10004550000008,97.68901849999997 L 59.10004550000008,97.68901849999997" fill="none" instance-id="-1" semantic-id="1" stroke="rgb(89,89,89)" stroke-width="0.1"/>
  <path d="M 59.10004550000008,97.68901849999997 L 59.10004550000008,100.0" fill="none" instance-id="-1" semantic-id="1" stroke="rgb(89,89,89)" stroke-width="0.1"/>
  <path d="M 59.10004550000008,92.68901849999997 L 62.10004550000008,92.68901849999997" fill="none" instance-id="-1" semantic-id="1" stroke="rgb(89,89,89)" stroke-width="0.1"/>
  <path d="M 62.10004550000008,92.68901849999997 L 62.10004550000008,23.189018499999975" fill="none" instance-id="-1" semantic-id="1" stroke="rgb(89,89,89)" stroke-width="0.1"/>
  <path d="M 62.10004550000008,23.189018499999975 L 60.60004550000008,23.189018499999975" fill="none" instance-id="-1" semantic-id="1" stroke="rgb(89,89,89)" stroke-width="0.1"/>
  <path d="M 60.60004550000008,23.189018499999975 L 59.10004550000008,23.189018499999975" fill="none" instance-id="-1" semantic-id="1" stroke="rgb(89,89,89)" stroke-width="0.1"/>
  <path d="M 59.10004550000008,23.189018499999975 L 59.10004550000008,92.68901849999997" fill="none" instance-id="-1" semantic-id="1" stroke="rgb(89,89,89)" stroke-width="0.1"/>
  <path d="M 60.60004550000008,23.189018499999975 L 62.10004550000008,23.189018499999975" fill="none" instance-id="-1" semantic-id="1" stroke="rgb(89,89,89)" stroke-width="0.1"/>
  <path d="M 62.10004550000008,23.189018499999975 L 100.0,23.189018499999975" fill="none" instance-id="-1" semantic-id="1" stroke="rgb(89,89,89)" stroke-width="0.1"/>
  <path d="M 100.0,12.189018499999975 L 60.60004550000008,12.189018499999975" fill="none" instance-id="-1" semantic-id="1" stroke="rgb(89,89,89)" stroke-width="0.1"/>
  <path d="M 60.60004550000008,12.189018499999975 L 60.60004550000008,23.189018499999975" fill="none" instance-id="-1" semantic-id="1" stroke="rgb(89,89,89)" stroke-width="0.1"/>
  <path d="M 11.100045500000078,61.689018499999975 L 14.100045500000078,61.689018499999975" fill="none" instance-id="-1" semantic-id="1" stroke="rgb(89,89,89)" stroke-width="0.1"/>
  <path d="M 14.100045500000078,61.689018499999975 L 14.100045500000078,23.189018499999975" fill="none" instance-id="-1" semantic-id="1" stroke="rgb(89,89,89)" stroke-width="0.1"/>
  <path d="M 14.100045500000078,23.189018499999975 L 11.100045500000078,23.189018499999975" fill="none" instance-id="-1" semantic-id="1" stroke="rgb(89,89,89)" stroke-width="0.1"/>
  <path d="M 11.100045500000078,23.189018499999975 L 9.100045500000078,23.189018499999975" fill="none" instance-id="-1" semantic-id="1" stroke="rgb(89,89,89)" stroke-width="0.1"/>
  <path d="M 9.100045500000078,23.189018499999975 L 9.100045500000078,59.689018499999975" fill="none" instance-id="-1" semantic-id="1" stroke="rgb(89,89,89)" stroke-width="0.1"/>
  <path d="M 9.100045500000078,59.689018499999975 L 11.100045500000078,61.689018499999975" fill="none" instance-id="-1" semantic-id="1" stroke="rgb(89,89,89)" stroke-width="0.1"/>
 </g>
 <g id="layerPUB_TEXT" inkscape:groupmode="layer" inkscape:label="PUB_TEXT">
  <text fill="rgb(178,0,178)" font-family="Noto Sans CJK SC" font-size="2" transform="rotate(-0.0,80.17904550000003,51.963018499999976)" x="80.17904550000003" y="51.963018499999976">
   罗茨风机房
  </text>
  <text fill="rgb(178,0,178)" font-family="Noto Sans CJK SC" font-size="2" transform="rotate(-0.0,30.89204550000005,51.963018499999976)" x="30.89204550000005" y="51.963018499999976">
   进水仪表间
  </text>
 </g>
 <g id="layerWALL" inkscape:groupmode="layer" inkscape:label="WALL">
  <path d="M 11.100045500000078,12.189018499999975 L 60.60004550000008,12.189018499999975" fill="none" instance-id="-1" semantic-id="1" stroke="rgb(0,178,178)" stroke-width="0.1"/>
  <path d="M 14.100045500000078,23.189018499999975 L 59.10004550000008,23.189018499999975" fill="none" instance-id="-1" semantic-id="1" stroke="rgb(0,178,178)" stroke-width="0.1"/>
  <path d="M 9.100045500000078,100.0 L 9.100045500000078,63.689018499999975" fill="none" instance-id="-1" semantic-id="1" stroke="rgb(0,178,178)" stroke-width="0.1"/>
  <path d="M 14.100045500000078,100.0 L 14.100045500000078,61.689018499999975" fill="none" instance-id="-1" semantic-id="1" stroke="rgb(0,178,178)" stroke-width="0.1"/>
  <path d="M 0.0,59.689018499999975 L 9.100045500000078,59.689018499999975" fill="none" instance-id="-1" semantic-id="1" stroke="rgb(0,178,178)" stroke-width="0.1"/>
  <path d="M 0.0,63.689018499999975 L 9.100045500000078,63.689018499999975" fill="none" instance-id="-1" semantic-id="1" stroke="rgb(0,178,178)" stroke-width="0.1"/>
  <path d="M 0.0,12.189018499999975 L 11.100045500000078,12.189018499999975" fill="none" instance-id="-1" semantic-id="1" stroke="rgb(0,178,178)" stroke-width="0.1"/>
  <path d="M 0.0,23.189018499999975 L 9.100045500000078,23.189018499999975" fill="none" instance-id="-1" semantic-id="1" stroke="rgb(0,178,178)" stroke-width="0.1"/>
  <path d="M 59.10004550000008,100.0 L 59.10004550000008,97.68901849999997" fill="none" instance-id="-1" semantic-id="1" stroke="rgb(0,178,178)" stroke-width="0.1"/>
  <path d="M 62.10004550000008,100.0 L 62.10004550000008,97.68901849999997" fill="none" instance-id="-1" semantic-id="1" stroke="rgb(0,178,178)" stroke-width="0.1"/>
  <path d="M 59.10004550000008,97.68901849999997 L 62.10004550000008,97.68901849999997" fill="none" instance-id="-1" semantic-id="1" stroke="rgb(0,178,178)" stroke-width="0.1"/>
  <path d="M 59.10004550000008,92.68901849999997 L 59.10004550000008,23.189018499999975" fill="none" instance-id="-1" semantic-id="1" stroke="rgb(0,178,178)" stroke-width="0.1"/>
  <path d="M 62.10004550000008,92.68901849999997 L 62.10004550000008,23.189018499999975" fill="none" instance-id="-1" semantic-id="1" stroke="rgb(0,178,178)" stroke-width="0.1"/>
  <path d="M 59.10004550000008,92.68901849999997 L 62.10004550000008,92.68901849999997" fill="none" instance-id="-1" semantic-id="1" stroke="rgb(0,178,178)" stroke-width="0.1"/>
  <path d="M 60.60004550000008,12.189018499999975 L 100.0,12.189018499999975" fill="none" instance-id="-1" semantic-id="1" stroke="rgb(0,178,178)" stroke-width="0.1"/>
  <path d="M 62.10004550000008,23.189018499999975 L 100.0,23.189018499999975" fill="none" instance-id="-1" semantic-id="1" stroke="rgb(0,178,178)" stroke-width="0.1"/>
  <path d="M 9.100045500000078,59.689018499999975 L 9.100045500000078,23.189018499999975" fill="none" instance-id="-1" semantic-id="1" stroke="rgb(0,178,178)" stroke-width="0.1"/>
  <path d="M 14.100045500000078,61.689018499999975 L 14.100045500000078,23.189018499999975" fill="none" instance-id="-1" semantic-id="1" stroke="rgb(0,178,178)" stroke-width="0.1"/>
  <path d="M 0.0,4.189018499999975 L 100.0,4.189018499999975" fill="none" instance-id="-1" semantic-id="1" stroke="rgb(0,178,178)" stroke-width="0.1"/>
 </g>
 <g id="layer预留孔" inkscape:groupmode="layer" inkscape:label="预留孔">
  <path d="M 62.10004550000008,92.68901849999997 L 59.10004550000008,97.68901849999997" fill="none" stroke="rgb(0,178,0)" stroke-width="0.1"/>
  <path d="M 59.10004550000008,92.68901849999997 L 62.10004550000008,97.68901849999997" fill="none" stroke="rgb(0,178,0)" stroke-width="0.1"/>
  <path d="M 62.10004550000008,97.68901849999997 L 62.10004550000008,92.68901849999997" fill="none" stroke="rgb(0,178,0)" stroke-width="0.1"/>
  <path d="M 62.10004550000008,92.68901849999997 L 59.10004550000008,92.68901849999997" fill="none" stroke="rgb(0,178,0)" stroke-width="0.1"/>
  <path d="M 59.10004550000008,92.68901849999997 L 59.10004550000008,97.68901849999997" fill="none" stroke="rgb(0,178,0)" stroke-width="0.1"/>
  <path d="M 59.10004550000008,97.68901849999997 L 62.10004550000008,97.68901849999997" fill="none" stroke="rgb(0,178,0)" stroke-width="0.1"/>
 </g>
</svg>