<?xml version="1.0" encoding="utf-8"?>
<svg style="background-color: #000;" version="1.1" viewBox="0 0 100.0 100.0" xmlns="http://www.w3.org/2000/svg" xmlns:inkscape="http://www.inkscape.org/namespaces/inkscape">
 <g id="layerCOLUMN" inkscape:groupmode="layer" inkscape:label="COLUMN">
  <path d="M 34.101045500000055,1.1890184999999747 L 40.101045500000055,1.1890184999999747" fill="none" instance-id="-1" semantic-id="1" stroke="rgb(178,0,178)" stroke-width="0.1"/>
  <path d="M 40.101045500000055,1.1890184999999747 L 40.101045500000055,0.0" fill="none" instance-id="-1" semantic-id="1" stroke="rgb(178,0,178)" stroke-width="0.1"/>
  <path d="M 34.101045500000055,0.0 L 34.101045500000055,1.1890184999999747" fill="none" instance-id="-1" semantic-id="1" stroke="rgb(178,0,178)" stroke-width="0.1"/>
  <path d="M 99.10104550000005,1.1890184999999747 L 100.0,1.1890184999999747" fill="none" instance-id="-1" semantic-id="1" stroke="rgb(178,0,178)" stroke-width="0.1"/>
  <path d="M 99.10104550000005,0.0 L 99.10104550000005,1.1890184999999747" fill="none" instance-id="-1" semantic-id="1" stroke="rgb(178,0,178)" stroke-width="0.1"/>
  <path d="M 34.101045500000055,76.18901849999997 L 40.101045500000055,76.18901849999997" fill="none" instance-id="-1" semantic-id="1" stroke="rgb(178,0,178)" stroke-width="0.1"/>
  <path d="M 40.101045500000055,71.68901849999997 L 40.101045500000055,70.18901849999997" fill="none" instance-id="-1" semantic-id="1" stroke="rgb(178,0,178)" stroke-width="0.1"/>
  <path d="M 40.101045500000055,76.18901849999997 L 40.101045500000055,74.68901849999997" fill="none" instance-id="-1" semantic-id="1" stroke="rgb(178,0,178)" stroke-width="0.1"/>
  <path d="M 40.101045500000055,70.18901849999997 L 34.101045500000055,70.18901849999997" fill="none" instance-id="-1" semantic-id="1" stroke="rgb(178,0,178)" stroke-width="0.1"/>
  <path d="M 34.101045500000055,74.68901849999997 L 34.101045500000055,76.18901849999997" fill="none" instance-id="-1" semantic-id="1" stroke="rgb(178,0,178)" stroke-width="0.1"/>
  <path d="M 34.101045500000055,70.18901849999997 L 34.101045500000055,71.68901849999997" fill="none" instance-id="-1" semantic-id="1" stroke="rgb(178,0,178)" stroke-width="0.1"/>
  <path d="M 99.10104550000005,76.18901849999997 L 100.0,76.18901849999997" fill="none" instance-id="-1" semantic-id="1" stroke="rgb(178,0,178)" stroke-width="0.1"/>
  <path d="M 100.0,70.18901849999997 L 99.10104550000005,70.18901849999997" fill="none" instance-id="-1" semantic-id="1" stroke="rgb(178,0,178)" stroke-width="0.1"/>
  <path d="M 99.10104550000005,74.68901849999997 L 99.10104550000005,76.18901849999997" fill="none" instance-id="-1" semantic-id="1" stroke="rgb(178,0,178)" stroke-width="0.1"/>
  <path d="M 99.10104550000005,70.18901849999997 L 99.10104550000005,71.68901849999997" fill="none" instance-id="-1" semantic-id="1" stroke="rgb(178,0,178)" stroke-width="0.1"/>
 </g>
 <g id="layerDIM_ELEV" inkscape:groupmode="layer" inkscape:label="DIM_ELEV">
  <path d="M 75.9590455,7.816018499999984 L 52.48404550000009,7.816018499999984" fill="none" stroke="rgb(0,178,0)" stroke-width="0.1"/>
  <path d="M 52.48404550000009,7.816018499999984 L 56.98404550000009,12.316018499999984" fill="none" stroke="rgb(0,178,0)" stroke-width="0.1"/>
  <path d="M 56.98404550000009,12.316018499999984 L 61.48404550000009,7.816018499999984" fill="none" stroke="rgb(0,178,0)" stroke-width="0.1"/>
  <text fill="rgb(0,0,0)" font-family="Noto Sans CJK SC" font-size="2" transform="rotate(-0.0,49.7090455,7.081018499999971)" x="49.7090455" y="7.081018499999971">
   3.500(结构)
  </text>
 </g>
 <g id="layerDIM_SYMB" inkscape:groupmode="layer" inkscape:label="DIM_SYMB">
  <path d="M 0.0,29.28801850000002 L 4.928045500000053,29.28801850000002" fill="none" stroke="rgb(0,178,0)" stroke-width="0.1"/>
 </g>
 <g id="layerDOTE" inkscape:groupmode="layer" inkscape:label="DOTE">
  <path d="M 0.0,73.18901849999997 L 100.0,73.18901849999997" fill="none" stroke="rgb(178,0,0)" stroke-width="0.1"/>
  <path d="M 37.10004550000008,0.0 L 37.10004550000008,100.0" fill="none" stroke="rgb(178,0,0)" stroke-width="0.1"/>
 </g>
 <g id="layerPS-开孔" inkscape:groupmode="layer" inkscape:label="PS-开孔">
  <path d="M 1.1010455000000547,34.189018499999975 L 0.0,29.784836499999756" fill="none" stroke="rgb(178,0,178)" stroke-width="0.1"/>
  <path d="M 0.0,26.593200500000194 L 1.1010455000000547,22.189018499999975" fill="none" stroke="rgb(178,0,178)" stroke-width="0.1"/>
  <path d="M 1.1010455000000547,61.689018499999975 A 10.0,10.0 0.0 0,0 11.087045500000045,71.68901849999997" fill="none" stroke="rgb(178,0,178)" stroke-width="0.1"/>
  <path d="M 0.0,34.189018499999975 L 1.1010455000000547,34.189018499999975" fill="none" stroke="rgb(178,0,178)" stroke-width="0.1"/>
  <path d="M 1.1010455000000547,34.189018499999975 L 1.1010455000000547,22.189018499999975" fill="none" stroke="rgb(178,0,178)" stroke-width="0.1"/>
  <path d="M 1.1010455000000547,22.189018499999975 L 0.0,22.189018499999975" fill="none" stroke="rgb(178,0,178)" stroke-width="0.1"/>
 </g>
 <g id="layerPUB_DIM" inkscape:groupmode="layer" inkscape:label="PUB_DIM">
  <path d="M 16.60004550000008,73.18901849999997 L 27.10004550000008,73.18901849999997" fill="none" stroke="rgb(0,178,0)" stroke-width="0.1"/>
  <path d="M 16.60004550000008,34.189018499999975 L 27.10004550000008,34.189018499999975" fill="none" stroke="rgb(0,178,0)" stroke-width="0.1"/>
  <path d="M 16.60004550000008,22.189018499999975 L 27.10004550000008,22.189018499999975" fill="none" stroke="rgb(0,178,0)" stroke-width="0.1"/>
  <path d="M 20.92204550000008,72.26101849999998 L 22.778045500000076,74.11701849999997" fill="none" stroke="rgb(0,178,0)" stroke-width="0.1"/>
  <path d="M 20.92204550000008,33.26101849999998 L 22.778045500000076,35.11701849999997" fill="none" stroke="rgb(0,178,0)" stroke-width="0.1"/>
  <path d="M 20.92204550000008,21.261018499999977 L 22.778045500000076,23.117018499999972" fill="none" stroke="rgb(0,178,0)" stroke-width="0.1"/>
  <path d="M 5.960045500000092,66.34301849999997 L 19.31104550000009,54.45901849999996" fill="none" stroke="rgb(0,178,0)" stroke-width="0.1"/>
  <path d="M 9.726045500000055,73.18901849999997 L 21.85004550000008,73.18901849999997" fill="none" stroke="rgb(0,178,0)" stroke-width="0.1"/>
  <path d="M 21.85004550000008,73.18901849999997 L 21.85004550000008,22.189018499999975" fill="none" stroke="rgb(0,178,0)" stroke-width="0.1"/>
  <path d="M 21.85004550000008,22.189018499999975 L 9.726045500000055,22.189018499999975" fill="none" stroke="rgb(0,178,0)" stroke-width="0.1"/>
  <path d="M 5.761045500000023,66.11901849999992 L 6.160045500000024,66.56701850000002" fill="none" stroke="rgb(0,178,0)" stroke-width="0.1"/>
  <path d="M 6.160045500000024,66.56701850000002 L 3.7190455000001066,68.33801849999998" fill="none" stroke="rgb(0,178,0)" stroke-width="0.1"/>
  <path d="M 3.7190455000001066,68.33801849999998 L 5.761045500000023,66.11901849999992" fill="none" stroke="rgb(0,178,0)" stroke-width="0.1"/>
  <text fill="rgb(0,0,0)" font-family="Noto Sans CJK SC" font-size="2" transform="rotate(-450.0,19.2770455000001,35.45201850000001)" x="19.2770455000001" y="35.45201850000001">
   1200
  </text>
  <text fill="rgb(0,0,0)" font-family="Noto Sans CJK SC" font-size="2" transform="rotate(-450.0,19.2770455000001,60.689018499999975)" x="19.2770455000001" y="60.689018499999975">
   3900
  </text>
 </g>
 <g id="layerPUB_HATCH" inkscape:groupmode="layer" inkscape:label="PUB_HATCH">
  <path d="M 0.0,72.79006400000003 L 1.1010455000000547,71.68901849999997" fill="none" instance-id="-1" semantic-id="1" stroke="rgb(89,89,89)" stroke-width="0.1"/>
  <path d="M 1.1010455000000547,71.68901849999997 L 1.1010455000000547,34.189018499999975" fill="none" instance-id="-1" semantic-id="1" stroke="rgb(89,89,89)" stroke-width="0.1"/>
  <path d="M 1.1010455000000547,34.189018499999975 L 0.0,34.189018499999975" fill="none" instance-id="-1" semantic-id="1" stroke="rgb(89,89,89)" stroke-width="0.1"/>
  <path d="M 0.0,91.68901849999997 L 100.0,91.68901849999997" fill="none" instance-id="-1" semantic-id="1" stroke="rgb(89,89,89)" stroke-width="0.1"/>
  <path d="M 100.0,88.68901849999997 L 0.0,88.68901849999997" fill="none" instance-id="-1" semantic-id="1" stroke="rgb(89,89,89)" stroke-width="0.1"/>
  <path d="M 0.0,22.189018499999975 L 1.1010455000000547,22.189018499999975" fill="none" instance-id="-1" semantic-id="1" stroke="rgb(89,89,89)" stroke-width="0.1"/>
  <path d="M 1.1010455000000547,22.189018499999975 L 1.1010455000000547,0.0" fill="none" instance-id="-1" semantic-id="1" stroke="rgb(89,89,89)" stroke-width="0.1"/>
  <path d="M 34.101045500000055,1.1890184999999747 L 40.101045500000055,1.1890184999999747" fill="none" instance-id="-1" semantic-id="1" stroke="rgb(89,89,89)" stroke-width="0.1"/>
  <path d="M 40.101045500000055,1.1890184999999747 L 40.101045500000055,0.0" fill="none" instance-id="-1" semantic-id="1" stroke="rgb(89,89,89)" stroke-width="0.1"/>
  <path d="M 34.101045500000055,0.0 L 34.101045500000055,1.1890184999999747" fill="none" instance-id="-1" semantic-id="1" stroke="rgb(89,89,89)" stroke-width="0.1"/>
  <path d="M 99.10104550000005,1.1890184999999747 L 100.0,1.1890184999999747" fill="none" instance-id="-1" semantic-id="1" stroke="rgb(89,89,89)" stroke-width="0.1"/>
  <path d="M 99.10104550000005,0.0 L 99.10104550000005,1.1890184999999747" fill="none" instance-id="-1" semantic-id="1" stroke="rgb(89,89,89)" stroke-width="0.1"/>
  <path d="M 34.101045500000055,76.18901849999997 L 40.101045500000055,76.18901849999997" fill="none" instance-id="-1" semantic-id="1" stroke="rgb(89,89,89)" stroke-width="0.1"/>
  <path d="M 40.101045500000055,76.18901849999997 L 40.101045500000055,70.18901849999997" fill="none" instance-id="-1" semantic-id="1" stroke="rgb(89,89,89)" stroke-width="0.1"/>
  <path d="M 40.101045500000055,70.18901849999997 L 34.101045500000055,70.18901849999997" fill="none" instance-id="-1" semantic-id="1" stroke="rgb(89,89,89)" stroke-width="0.1"/>
  <path d="M 34.101045500000055,70.18901849999997 L 34.101045500000055,76.18901849999997" fill="none" instance-id="-1" semantic-id="1" stroke="rgb(89,89,89)" stroke-width="0.1"/>
  <path d="M 99.10104550000005,76.18901849999997 L 100.0,76.18901849999997" fill="none" instance-id="-1" semantic-id="1" stroke="rgb(89,89,89)" stroke-width="0.1"/>
  <path d="M 100.0,70.18901849999997 L 99.10104550000005,70.18901849999997" fill="none" instance-id="-1" semantic-id="1" stroke="rgb(89,89,89)" stroke-width="0.1"/>
  <path d="M 99.10104550000005,70.18901849999997 L 99.10104550000005,76.18901849999997" fill="none" instance-id="-1" semantic-id="1" stroke="rgb(89,89,89)" stroke-width="0.1"/>
  <path d="M 1.1010455000000547,71.68901849999997 L 0.0,72.79006400000003" fill="none" instance-id="-1" semantic-id="1" stroke="rgb(89,89,89)" stroke-width="0.1"/>
  <path d="M 0.0,74.68901849999997 L 34.101045500000055,74.68901849999997" fill="none" instance-id="-1" semantic-id="1" stroke="rgb(89,89,89)" stroke-width="0.1"/>
  <path d="M 34.101045500000055,74.68901849999997 L 34.101045500000055,71.68901849999997" fill="none" instance-id="-1" semantic-id="1" stroke="rgb(89,89,89)" stroke-width="0.1"/>
  <path d="M 34.101045500000055,71.68901849999997 L 1.1010455000000547,71.68901849999997" fill="none" instance-id="-1" semantic-id="1" stroke="rgb(89,89,89)" stroke-width="0.1"/>
  <path d="M 40.101045500000055,71.68901849999997 L 40.101045500000055,74.68901849999997" fill="none" instance-id="-1" semantic-id="1" stroke="rgb(89,89,89)" stroke-width="0.1"/>
  <path d="M 40.101045500000055,74.68901849999997 L 99.10104550000005,74.68901849999997" fill="none" instance-id="-1" semantic-id="1" stroke="rgb(89,89,89)" stroke-width="0.1"/>
  <path d="M 99.10104550000005,74.68901849999997 L 99.10104550000005,71.68901849999997" fill="none" instance-id="-1" semantic-id="1" stroke="rgb(89,89,89)" stroke-width="0.1"/>
  <path d="M 99.10104550000005,71.68901849999997 L 40.101045500000055,71.68901849999997" fill="none" instance-id="-1" semantic-id="1" stroke="rgb(89,89,89)" stroke-width="0.1"/>
 </g>
 <g id="layerWALL" inkscape:groupmode="layer" inkscape:label="WALL">
  <path d="M 1.1010455000000547,71.68901849999997 L 1.1010455000000547,34.189018499999975" fill="none" instance-id="-1" semantic-id="1" stroke="rgb(0,178,178)" stroke-width="0.1"/>
  <path d="M 0.0,34.189018499999975 L 1.1010455000000547,34.189018499999975" fill="none" instance-id="-1" semantic-id="1" stroke="rgb(0,178,178)" stroke-width="0.1"/>
  <path d="M 0.0,88.68901849999997 L 100.0,88.68901849999997" fill="none" instance-id="-1" semantic-id="1" stroke="rgb(0,178,178)" stroke-width="0.1"/>
  <path d="M 0.0,91.68901849999997 L 100.0,91.68901849999997" fill="none" instance-id="-1" semantic-id="1" stroke="rgb(0,178,178)" stroke-width="0.1"/>
  <path d="M 1.1010455000000547,22.189018499999975 L 1.1010455000000547,0.0" fill="none" instance-id="-1" semantic-id="1" stroke="rgb(0,178,178)" stroke-width="0.1"/>
  <path d="M 0.0,22.189018499999975 L 1.1010455000000547,22.189018499999975" fill="none" instance-id="-1" semantic-id="1" stroke="rgb(0,178,178)" stroke-width="0.1"/>
  <path d="M 34.101045500000055,74.68901849999997 L 0.0,74.68901849999997" fill="none" instance-id="-1" semantic-id="1" stroke="rgb(0,178,178)" stroke-width="0.1"/>
  <path d="M 34.101045500000055,71.68901849999997 L 1.1010455000000547,71.68901849999997" fill="none" instance-id="-1" semantic-id="1" stroke="rgb(0,178,178)" stroke-width="0.1"/>
  <path d="M 99.10104550000005,74.68901849999997 L 40.101045500000055,74.68901849999997" fill="none" instance-id="-1" semantic-id="1" stroke="rgb(0,178,178)" stroke-width="0.1"/>
  <path d="M 99.10104550000005,71.68901849999997 L 40.101045500000055,71.68901849999997" fill="none" instance-id="-1" semantic-id="1" stroke="rgb(0,178,178)" stroke-width="0.1"/>
 </g>
</svg>