<?xml version="1.0" encoding="utf-8"?>
<svg style="background-color: #000;" version="1.1" viewBox="0 0 100.0 100.0" xmlns="http://www.w3.org/2000/svg" xmlns:inkscape="http://www.inkscape.org/namespaces/inkscape">
 <g id="layerCOLUMN" inkscape:groupmode="layer" inkscape:label="COLUMN">
  <path d="M 11.632613500000048,6.189018499999975 L 12.633613500000024,6.189018499999975" fill="none" stroke="rgb(178,0,178)" stroke-width="0.1"/>
  <path d="M 6.633613500000024,6.189018499999975 L 7.632613500000048,6.189018499999975" fill="none" stroke="rgb(178,0,178)" stroke-width="0.1"/>
  <path d="M 12.633613500000024,6.189018499999975 L 12.633613500000024,0.18901849999997467" fill="none" stroke="rgb(178,0,178)" stroke-width="0.1"/>
  <path d="M 7.632613500000048,0.18901849999997467 L 6.633613500000024,0.18901849999997467" fill="none" stroke="rgb(178,0,178)" stroke-width="0.1"/>
  <path d="M 12.633613500000024,0.18901849999997467 L 11.632613500000048,0.18901849999997467" fill="none" stroke="rgb(178,0,178)" stroke-width="0.1"/>
  <path d="M 6.633613500000024,0.18901849999997467 L 6.633613500000024,6.189018499999975" fill="none" stroke="rgb(178,0,178)" stroke-width="0.1"/>
  <path d="M 91.63261350000005,6.189018499999975 L 92.63361350000002,6.189018499999975" fill="none" stroke="rgb(178,0,178)" stroke-width="0.1"/>
  <path d="M 86.63361350000002,6.189018499999975 L 87.63261350000005,6.189018499999975" fill="none" stroke="rgb(178,0,178)" stroke-width="0.1"/>
  <path d="M 92.63361350000002,6.189018499999975 L 92.63361350000002,0.18901849999997467" fill="none" stroke="rgb(178,0,178)" stroke-width="0.1"/>
  <path d="M 87.63261350000005,0.18901849999997467 L 86.63361350000002,0.18901849999997467" fill="none" stroke="rgb(178,0,178)" stroke-width="0.1"/>
  <path d="M 92.63361350000002,0.18901849999997467 L 91.63261350000005,0.18901849999997467" fill="none" stroke="rgb(178,0,178)" stroke-width="0.1"/>
  <path d="M 86.63361350000002,0.18901849999997467 L 86.63361350000002,6.189018499999975" fill="none" stroke="rgb(178,0,178)" stroke-width="0.1"/>
  <path d="M 11.632613500000048,81.18901849999997 L 12.6346135,81.18901849999997" fill="none" stroke="rgb(178,0,178)" stroke-width="0.1"/>
  <path d="M 6.6346135,81.18901849999997 L 7.632613500000048,81.18901849999997" fill="none" stroke="rgb(178,0,178)" stroke-width="0.1"/>
  <path d="M 12.6346135,81.18901849999997 L 12.6346135,75.18901849999997" fill="none" stroke="rgb(178,0,178)" stroke-width="0.1"/>
  <path d="M 7.632613500000048,75.18901849999997 L 6.6346135,75.18901849999997" fill="none" stroke="rgb(178,0,178)" stroke-width="0.1"/>
  <path d="M 12.6346135,75.18901849999997 L 11.632613500000048,75.18901849999997" fill="none" stroke="rgb(178,0,178)" stroke-width="0.1"/>
  <path d="M 6.6346135,75.18901849999997 L 6.6346135,81.18901849999997" fill="none" stroke="rgb(178,0,178)" stroke-width="0.1"/>
  <path d="M 91.63261350000005,81.18901849999997 L 92.6346135,81.18901849999997" fill="none" stroke="rgb(178,0,178)" stroke-width="0.1"/>
  <path d="M 86.6346135,81.18901849999997 L 87.63261350000005,81.18901849999997" fill="none" stroke="rgb(178,0,178)" stroke-width="0.1"/>
  <path d="M 92.6346135,81.18901849999997 L 92.6346135,75.18901849999997" fill="none" stroke="rgb(178,0,178)" stroke-width="0.1"/>
  <path d="M 87.63261350000005,75.18901849999997 L 86.6346135,75.18901849999997" fill="none" stroke="rgb(178,0,178)" stroke-width="0.1"/>
  <path d="M 92.6346135,75.18901849999997 L 91.63261350000005,75.18901849999997" fill="none" stroke="rgb(178,0,178)" stroke-width="0.1"/>
  <path d="M 86.6346135,75.18901849999997 L 86.6346135,81.18901849999997" fill="none" stroke="rgb(178,0,178)" stroke-width="0.1"/>
 </g>
 <g id="layerDIM_ELEV" inkscape:groupmode="layer" inkscape:label="DIM_ELEV">
  <path d="M 100.0,12.988018499999953 L 90.39961349999999,12.988018499999953" fill="none" stroke="rgb(0,178,0)" stroke-width="0.1"/>
  <path d="M 90.39961349999999,12.988018499999953 L 94.89961349999999,17.488018499999953" fill="none" stroke="rgb(0,178,0)" stroke-width="0.1"/>
  <path d="M 94.89961349999999,17.488018499999953 L 99.39961349999999,12.988018499999953" fill="none" stroke="rgb(0,178,0)" stroke-width="0.1"/>
  <text fill="rgb(0,0,0)" font-family="Noto Sans CJK SC" font-size="2" transform="rotate(-0.0,91.12461350000001,12.25301849999994)" x="91.12461350000001" y="12.25301849999994">
   8.65(结构)
  </text>
 </g>
 <g id="layerDOTE" inkscape:groupmode="layer" inkscape:label="DOTE">
  <path d="M 0.0,78.18901849999997 L 100.0,78.18901849999997" fill="none" stroke="rgb(178,0,0)" stroke-width="0.1"/>
  <path d="M 0.0,3.1890184999999747 L 100.0,3.1890184999999747" fill="none" stroke="rgb(178,0,0)" stroke-width="0.1"/>
  <path d="M 9.633613500000024,0.0 L 9.633613500000024,100.0" fill="none" stroke="rgb(178,0,0)" stroke-width="0.1"/>
  <path d="M 89.63361350000002,0.0 L 89.63361350000002,100.0" fill="none" stroke="rgb(178,0,0)" stroke-width="0.1"/>
 </g>
 <g id="layerPUB_HATCH" inkscape:groupmode="layer" inkscape:label="PUB_HATCH">
  <path d="M 47.63261350000005,0.0 L 47.63261350000005,100.0" fill="none" instance-id="-1" semantic-id="1" stroke="rgb(89,89,89)" stroke-width="0.1"/>
  <path d="M 51.63261350000005,100.0 L 51.63261350000005,0.0" fill="none" instance-id="-1" semantic-id="1" stroke="rgb(89,89,89)" stroke-width="0.1"/>
  <path d="M 6.633613500000024,6.189018499999975 L 12.633613500000024,6.189018499999975" fill="none" instance-id="-1" semantic-id="1" stroke="rgb(89,89,89)" stroke-width="0.1"/>
  <path d="M 12.633613500000024,6.189018499999975 L 12.633613500000024,0.18901849999997467" fill="none" instance-id="-1" semantic-id="1" stroke="rgb(89,89,89)" stroke-width="0.1"/>
  <path d="M 12.633613500000024,0.18901849999997467 L 6.633613500000024,0.18901849999997467" fill="none" instance-id="-1" semantic-id="1" stroke="rgb(89,89,89)" stroke-width="0.1"/>
  <path d="M 6.633613500000024,0.18901849999997467 L 6.633613500000024,6.189018499999975" fill="none" instance-id="-1" semantic-id="1" stroke="rgb(89,89,89)" stroke-width="0.1"/>
  <path d="M 86.63361350000002,6.189018499999975 L 92.63361350000002,6.189018499999975" fill="none" instance-id="-1" semantic-id="1" stroke="rgb(89,89,89)" stroke-width="0.1"/>
  <path d="M 92.63361350000002,6.189018499999975 L 92.63361350000002,0.18901849999997467" fill="none" instance-id="-1" semantic-id="1" stroke="rgb(89,89,89)" stroke-width="0.1"/>
  <path d="M 92.63361350000002,0.18901849999997467 L 86.63361350000002,0.18901849999997467" fill="none" instance-id="-1" semantic-id="1" stroke="rgb(89,89,89)" stroke-width="0.1"/>
  <path d="M 86.63361350000002,0.18901849999997467 L 86.63361350000002,6.189018499999975" fill="none" instance-id="-1" semantic-id="1" stroke="rgb(89,89,89)" stroke-width="0.1"/>
  <path d="M 6.6346135,81.18901849999997 L 12.6346135,81.18901849999997" fill="none" instance-id="-1" semantic-id="1" stroke="rgb(89,89,89)" stroke-width="0.1"/>
  <path d="M 12.6346135,81.18901849999997 L 12.6346135,75.18901849999997" fill="none" instance-id="-1" semantic-id="1" stroke="rgb(89,89,89)" stroke-width="0.1"/>
  <path d="M 12.6346135,75.18901849999997 L 6.6346135,75.18901849999997" fill="none" instance-id="-1" semantic-id="1" stroke="rgb(89,89,89)" stroke-width="0.1"/>
  <path d="M 6.6346135,75.18901849999997 L 6.6346135,81.18901849999997" fill="none" instance-id="-1" semantic-id="1" stroke="rgb(89,89,89)" stroke-width="0.1"/>
  <path d="M 86.6346135,81.18901849999997 L 92.6346135,81.18901849999997" fill="none" instance-id="-1" semantic-id="1" stroke="rgb(89,89,89)" stroke-width="0.1"/>
  <path d="M 92.6346135,81.18901849999997 L 92.6346135,75.18901849999997" fill="none" instance-id="-1" semantic-id="1" stroke="rgb(89,89,89)" stroke-width="0.1"/>
  <path d="M 92.6346135,75.18901849999997 L 86.6346135,75.18901849999997" fill="none" instance-id="-1" semantic-id="1" stroke="rgb(89,89,89)" stroke-width="0.1"/>
  <path d="M 86.6346135,75.18901849999997 L 86.6346135,81.18901849999997" fill="none" instance-id="-1" semantic-id="1" stroke="rgb(89,89,89)" stroke-width="0.1"/>
  <path d="M 7.632613500000048,0.18901849999997467 L 11.632613500000048,0.18901849999997467" fill="none" instance-id="-1" semantic-id="1" stroke="rgb(89,89,89)" stroke-width="0.1"/>
  <path d="M 11.632613500000048,0.18901849999997467 L 11.632613500000048,0.0" fill="none" instance-id="-1" semantic-id="1" stroke="rgb(89,89,89)" stroke-width="0.1"/>
  <path d="M 7.632613500000048,0.0 L 7.632613500000048,0.18901849999997467" fill="none" instance-id="-1" semantic-id="1" stroke="rgb(89,89,89)" stroke-width="0.1"/>
  <path d="M 87.63261350000005,0.18901849999997467 L 91.63261350000005,0.18901849999997467" fill="none" instance-id="-1" semantic-id="1" stroke="rgb(89,89,89)" stroke-width="0.1"/>
  <path d="M 91.63261350000005,0.18901849999997467 L 91.63261350000005,0.0" fill="none" instance-id="-1" semantic-id="1" stroke="rgb(89,89,89)" stroke-width="0.1"/>
  <path d="M 87.63261350000005,0.0 L 87.63261350000005,0.18901849999997467" fill="none" instance-id="-1" semantic-id="1" stroke="rgb(89,89,89)" stroke-width="0.1"/>
  <path d="M 7.632613500000048,6.189018499999975 L 7.632613500000048,75.18901849999997" fill="none" instance-id="-1" semantic-id="1" stroke="rgb(89,89,89)" stroke-width="0.1"/>
  <path d="M 7.632613500000048,75.18901849999997 L 11.632613500000048,75.18901849999997" fill="none" instance-id="-1" semantic-id="1" stroke="rgb(89,89,89)" stroke-width="0.1"/>
  <path d="M 11.632613500000048,75.18901849999997 L 11.632613500000048,6.189018499999975" fill="none" instance-id="-1" semantic-id="1" stroke="rgb(89,89,89)" stroke-width="0.1"/>
  <path d="M 11.632613500000048,6.189018499999975 L 7.632613500000048,6.189018499999975" fill="none" instance-id="-1" semantic-id="1" stroke="rgb(89,89,89)" stroke-width="0.1"/>
  <path d="M 87.63261350000005,75.18901849999997 L 91.63261350000005,75.18901849999997" fill="none" instance-id="-1" semantic-id="1" stroke="rgb(89,89,89)" stroke-width="0.1"/>
  <path d="M 91.63261350000005,75.18901849999997 L 91.63261350000005,6.189018499999975" fill="none" instance-id="-1" semantic-id="1" stroke="rgb(89,89,89)" stroke-width="0.1"/>
  <path d="M 91.63261350000005,6.189018499999975 L 87.63261350000005,6.189018499999975" fill="none" instance-id="-1" semantic-id="1" stroke="rgb(89,89,89)" stroke-width="0.1"/>
  <path d="M 87.63261350000005,6.189018499999975 L 87.63261350000005,75.18901849999997" fill="none" instance-id="-1" semantic-id="1" stroke="rgb(89,89,89)" stroke-width="0.1"/>
  <path d="M 11.632613500000048,100.0 L 11.632613500000048,81.18901849999997" fill="none" instance-id="-1" semantic-id="1" stroke="rgb(89,89,89)" stroke-width="0.1"/>
  <path d="M 11.632613500000048,81.18901849999997 L 7.632613500000048,81.18901849999997" fill="none" instance-id="-1" semantic-id="1" stroke="rgb(89,89,89)" stroke-width="0.1"/>
  <path d="M 7.632613500000048,81.18901849999997 L 7.632613500000048,100.0" fill="none" instance-id="-1" semantic-id="1" stroke="rgb(89,89,89)" stroke-width="0.1"/>
  <path d="M 91.63261350000005,100.0 L 91.63261350000005,81.18901849999997" fill="none" instance-id="-1" semantic-id="1" stroke="rgb(89,89,89)" stroke-width="0.1"/>
  <path d="M 91.63261350000005,81.18901849999997 L 87.63261350000005,81.18901849999997" fill="none" instance-id="-1" semantic-id="1" stroke="rgb(89,89,89)" stroke-width="0.1"/>
  <path d="M 87.63261350000005,81.18901849999997 L 87.63261350000005,100.0" fill="none" instance-id="-1" semantic-id="1" stroke="rgb(89,89,89)" stroke-width="0.1"/>
 </g>
 <g id="layerWALL" inkscape:groupmode="layer" inkscape:label="WALL">
  <path d="M 51.63261350000005,0.0 L 51.63261350000005,100.0" fill="none" stroke="rgb(0,178,178)" stroke-width="0.1"/>
  <path d="M 47.63261350000005,0.0 L 47.63261350000005,100.0" fill="none" stroke="rgb(0,178,178)" stroke-width="0.1"/>
  <path d="M 2.133035099272547,0.0 L 2.1326342976693695,100.0" fill="none" stroke="rgb(0,178,178)" stroke-width="0.1"/>
  <path d="M 0.6330350992725471,0.0 L 0.6326342976693695,100.0" fill="none" stroke="rgb(0,178,178)" stroke-width="0.1"/>
  <path d="M 18.633035099272547,0.0 L 18.63263429766937,100.0" fill="none" stroke="rgb(0,178,178)" stroke-width="0.1"/>
  <path d="M 17.133035099272547,0.0 L 17.13263429766937,100.0" fill="none" stroke="rgb(0,178,178)" stroke-width="0.1"/>
  <path d="M 42.13303509927255,0.0 L 42.13263429766937,100.0" fill="none" stroke="rgb(0,178,178)" stroke-width="0.1"/>
  <path d="M 40.63303509927255,0.0 L 40.63263429766937,100.0" fill="none" stroke="rgb(0,178,178)" stroke-width="0.1"/>
  <path d="M 58.63303509927255,0.0 L 58.63263429766937,100.0" fill="none" stroke="rgb(0,178,178)" stroke-width="0.1"/>
  <path d="M 57.13303509927255,0.0 L 57.13263429766937,100.0" fill="none" stroke="rgb(0,178,178)" stroke-width="0.1"/>
  <path d="M 82.13303509927255,0.0 L 82.13263429766937,100.0" fill="none" stroke="rgb(0,178,178)" stroke-width="0.1"/>
  <path d="M 80.63303509927255,0.0 L 80.63263429766937,100.0" fill="none" stroke="rgb(0,178,178)" stroke-width="0.1"/>
  <path d="M 98.63303509927255,0.0 L 98.63263429766937,100.0" fill="none" stroke="rgb(0,178,178)" stroke-width="0.1"/>
  <path d="M 97.13303509927255,0.0 L 97.13263429766937,100.0" fill="none" stroke="rgb(0,178,178)" stroke-width="0.1"/>
  <path d="M 11.632613500000048,0.0 L 11.632613500000048,0.18901849999997467" fill="none" stroke="rgb(0,178,178)" stroke-width="0.1"/>
  <path d="M 7.632613500000048,0.0 L 7.632613500000048,0.18901849999997467" fill="none" stroke="rgb(0,178,178)" stroke-width="0.1"/>
  <path d="M 91.63261350000005,0.0 L 91.63261350000005,0.18901849999997467" fill="none" stroke="rgb(0,178,178)" stroke-width="0.1"/>
  <path d="M 87.63261350000005,0.0 L 87.63261350000005,0.18901849999997467" fill="none" stroke="rgb(0,178,178)" stroke-width="0.1"/>
  <path d="M 11.632613500000048,6.189018499999975 L 11.632613500000048,75.18901849999997" fill="none" stroke="rgb(0,178,178)" stroke-width="0.1"/>
  <path d="M 7.632613500000048,6.189018499999975 L 7.632613500000048,75.18901849999997" fill="none" stroke="rgb(0,178,178)" stroke-width="0.1"/>
  <path d="M 91.63261350000005,6.189018499999975 L 91.63261350000005,75.18901849999997" fill="none" stroke="rgb(0,178,178)" stroke-width="0.1"/>
  <path d="M 87.63261350000005,6.189018499999975 L 87.63261350000005,75.18901849999997" fill="none" stroke="rgb(0,178,178)" stroke-width="0.1"/>
  <path d="M 11.632613500000048,81.18901849999997 L 11.632613500000048,100.0" fill="none" stroke="rgb(0,178,178)" stroke-width="0.1"/>
  <path d="M 7.632613500000048,81.18901849999997 L 7.632613500000048,100.0" fill="none" stroke="rgb(0,178,178)" stroke-width="0.1"/>
  <path d="M 91.63261350000005,81.18901849999997 L 91.63261350000005,100.0" fill="none" stroke="rgb(0,178,178)" stroke-width="0.1"/>
  <path d="M 87.63261350000005,81.18901849999997 L 87.63261350000005,100.0" fill="none" stroke="rgb(0,178,178)" stroke-width="0.1"/>
 </g>
</svg>