<?xml version="1.0" encoding="utf-8"?>
<svg style="background-color: #000;" version="1.1" viewBox="0 0 100.0 100.0" xmlns="http://www.w3.org/2000/svg" xmlns:inkscape="http://www.inkscape.org/namespaces/inkscape">
 <g id="layerCOLUMN" inkscape:groupmode="layer" inkscape:label="COLUMN">
  <path d="M 39.792040000000014,19.097672000000017 L 45.792040000000014,19.097672000000017" fill="none" stroke="rgb(0,0,0)" stroke-width="0.1"/>
  <path d="M 45.792040000000014,19.097672000000017 L 45.792040000000014,13.097672000000017" fill="none" stroke="rgb(0,0,0)" stroke-width="0.1"/>
  <path d="M 45.792040000000014,13.097672000000017 L 39.792040000000014,13.097672000000017" fill="none" stroke="rgb(0,0,0)" stroke-width="0.1"/>
  <path d="M 39.792040000000014,13.097672000000017 L 39.792040000000014,19.097672000000017" fill="none" stroke="rgb(0,0,0)" stroke-width="0.1"/>
 </g>
 <g id="layerDIM_SYMB" inkscape:groupmode="layer" inkscape:label="DIM_SYMB">
  <path d="M 91.41804000000002,98.600672 L 91.41804000000002,58.39567200000002" fill="none" stroke="rgb(0,178,0)" stroke-width="0.1"/>
  <path d="M 92.01804000000001,58.39567200000002 L 91.41804000000002,55.39567200000002" fill="none" stroke="rgb(0,178,0)" stroke-width="0.1"/>
  <path d="M 91.41804000000002,55.39567200000002 L 90.81804000000002,58.39567200000002" fill="none" stroke="rgb(0,178,0)" stroke-width="0.1"/>
  <path d="M 90.81804000000002,58.39567200000002 L 92.01804000000001,58.39567200000002" fill="none" stroke="rgb(0,178,0)" stroke-width="0.1"/>
 </g>
 <g id="layerPUB_DIM" inkscape:groupmode="layer" inkscape:label="PUB_DIM">
  <path d="M 58.675040000000024,76.225672 L 59.91204000000002,74.98867200000001" fill="none" stroke="rgb(0,178,0)" stroke-width="0.1"/>
  <path d="M 59.29304000000002,79.10767200000001 L 59.29304000000002,72.10767200000001" fill="none" stroke="rgb(0,178,0)" stroke-width="0.1"/>
  <path d="M 80.67504000000002,76.225672 L 81.91204000000002,74.98867200000001" fill="none" stroke="rgb(0,178,0)" stroke-width="0.1"/>
  <path d="M 81.29304000000002,79.10767200000001 L 81.29304000000002,72.10767200000001" fill="none" stroke="rgb(0,178,0)" stroke-width="0.1"/>
  <path d="M 86.08304000000001,98.09767200000002 L 93.08304000000001,98.09767200000002" fill="none" stroke="rgb(0,178,0)" stroke-width="0.1"/>
  <path d="M 88.96404000000001,97.47867200000002 L 90.20204000000001,98.71667200000002" fill="none" stroke="rgb(0,178,0)" stroke-width="0.1"/>
  <path d="M 59.29304000000002,92.827672 L 59.29304000000002,75.60767200000001" fill="none" stroke="rgb(0,178,0)" stroke-width="0.1"/>
  <path d="M 59.29304000000002,75.60767200000001 L 81.29304000000002,75.60767200000001" fill="none" stroke="rgb(0,178,0)" stroke-width="0.1"/>
  <path d="M 81.29304000000002,75.60767200000001 L 81.29304000000002,92.827672" fill="none" stroke="rgb(0,178,0)" stroke-width="0.1"/>
  <path d="M 89.58304000000001,100.0 L 89.58304000000001,98.09767200000002" fill="none" stroke="rgb(0,178,0)" stroke-width="0.1"/>
  <path d="M 89.58304000000001,98.09767200000002 L 85.29304000000002,98.09767200000002" fill="none" stroke="rgb(0,178,0)" stroke-width="0.1"/>
  <text fill="rgb(0,0,0)" font-family="Noto Sans CJK SC" font-size="2" transform="rotate(-360.0,65.97704000000002,73.891672)" x="65.97704000000002" y="73.891672">
   2200
  </text>
 </g>
 <g id="layerSTAIR" inkscape:groupmode="layer" inkscape:label="STAIR">
  <path d="M 80.04304000000002,87.84767200000002 L 78.29304000000002,87.84767200000002" fill="none" instance-id="1" semantic-id="31" stroke="rgb(178,178,0)" stroke-width="0.1"/>
  <path d="M 78.29304000000002,87.84767200000002 L 78.29304000000002,74.34767200000002" fill="none" instance-id="1" semantic-id="31" stroke="rgb(178,178,0)" stroke-width="0.1"/>
  <path d="M 78.29304000000002,74.34767200000002 L 80.04304000000002,74.34767200000002" fill="none" instance-id="1" semantic-id="31" stroke="rgb(178,178,0)" stroke-width="0.1"/>
  <path d="M 77.04304000000002,91.09767200000002 L 62.54304000000002,91.09767200000002" fill="none" instance-id="1" semantic-id="31" stroke="rgb(178,178,0)" stroke-width="0.1"/>
  <path d="M 62.54304000000002,91.09767200000002 L 62.54304000000002,71.09767200000002" fill="none" instance-id="1" semantic-id="31" stroke="rgb(178,178,0)" stroke-width="0.1"/>
  <path d="M 62.54304000000002,71.09767200000002 L 77.04304000000002,71.09767200000002" fill="none" instance-id="1" semantic-id="31" stroke="rgb(178,178,0)" stroke-width="0.1"/>
  <path d="M 77.04304000000002,71.09767200000002 L 77.04304000000002,91.09767200000002" fill="none" instance-id="1" semantic-id="31" stroke="rgb(178,178,0)" stroke-width="0.1"/>
  <path d="M 77.04304000000002,91.09767200000002 L 62.54304000000002,71.09767200000002" fill="none" instance-id="1" semantic-id="31" stroke="rgb(178,178,0)" stroke-width="0.1"/>
  <path d="M 62.54304000000002,91.09767200000002 L 77.04304000000002,71.09767200000002" fill="none" instance-id="1" semantic-id="31" stroke="rgb(178,178,0)" stroke-width="0.1"/>
  <path d="M 80.04304000000002,87.84767200000002 L 80.04304000000002,74.34767200000002" fill="none" instance-id="1" semantic-id="31" stroke="rgb(178,178,0)" stroke-width="0.1"/>
  <path d="M 85.89304000000001,95.297672 L 85.89304000000001,51.09767200000002" fill="none" instance-id="2" semantic-id="30" stroke="rgb(178,178,0)" stroke-width="0.1"/>
  <path d="M 96.94304000000002,95.297672 L 96.94304000000002,51.09767200000002" fill="none" instance-id="2" semantic-id="30" stroke="rgb(178,178,0)" stroke-width="0.1"/>
  <path d="M 85.29304000000002,95.297672 L 97.54304000000002,95.297672" fill="none" instance-id="2" semantic-id="30" stroke="rgb(178,178,0)" stroke-width="0.1"/>
  <path d="M 85.89304000000001,92.69767200000001 L 96.94304000000002,92.69767200000001" fill="none" instance-id="2" semantic-id="30" stroke="rgb(178,178,0)" stroke-width="0.1"/>
  <path d="M 85.89304000000001,90.09767200000002 L 96.94304000000002,90.09767200000002" fill="none" instance-id="2" semantic-id="30" stroke="rgb(178,178,0)" stroke-width="0.1"/>
  <path d="M 85.89304000000001,87.497672 L 96.94304000000002,87.497672" fill="none" instance-id="2" semantic-id="30" stroke="rgb(178,178,0)" stroke-width="0.1"/>
  <path d="M 85.89304000000001,84.897672 L 96.94304000000002,84.897672" fill="none" instance-id="2" semantic-id="30" stroke="rgb(178,178,0)" stroke-width="0.1"/>
  <path d="M 85.89304000000001,82.297672 L 96.94304000000002,82.297672" fill="none" instance-id="2" semantic-id="30" stroke="rgb(178,178,0)" stroke-width="0.1"/>
  <path d="M 85.89304000000001,79.69767200000001 L 96.94304000000002,79.69767200000001" fill="none" instance-id="2" semantic-id="30" stroke="rgb(178,178,0)" stroke-width="0.1"/>
  <path d="M 85.89304000000001,77.09767200000002 L 96.94304000000002,77.09767200000002" fill="none" instance-id="2" semantic-id="30" stroke="rgb(178,178,0)" stroke-width="0.1"/>
  <path d="M 85.89304000000001,74.497672 L 96.94304000000002,74.497672" fill="none" instance-id="2" semantic-id="30" stroke="rgb(178,178,0)" stroke-width="0.1"/>
  <path d="M 85.89304000000001,71.897672 L 96.94304000000002,71.897672" fill="none" instance-id="2" semantic-id="30" stroke="rgb(178,178,0)" stroke-width="0.1"/>
  <path d="M 85.89304000000001,69.297672 L 96.94304000000002,69.297672" fill="none" instance-id="2" semantic-id="30" stroke="rgb(178,178,0)" stroke-width="0.1"/>
  <path d="M 85.89304000000001,66.69767200000001 L 96.94304000000002,66.69767200000001" fill="none" instance-id="2" semantic-id="30" stroke="rgb(178,178,0)" stroke-width="0.1"/>
  <path d="M 85.89304000000001,64.09767200000002 L 96.94304000000002,64.09767200000002" fill="none" instance-id="2" semantic-id="30" stroke="rgb(178,178,0)" stroke-width="0.1"/>
  <path d="M 85.89304000000001,61.497671999999994 L 96.94304000000002,61.497671999999994" fill="none" instance-id="2" semantic-id="30" stroke="rgb(178,178,0)" stroke-width="0.1"/>
  <path d="M 85.89304000000001,58.897672 L 96.94304000000002,58.897672" fill="none" instance-id="2" semantic-id="30" stroke="rgb(178,178,0)" stroke-width="0.1"/>
  <path d="M 85.89304000000001,56.297672000000006 L 96.94304000000002,56.297672000000006" fill="none" instance-id="2" semantic-id="30" stroke="rgb(178,178,0)" stroke-width="0.1"/>
  <path d="M 85.89304000000001,53.69767200000001 L 96.94304000000002,53.69767200000001" fill="none" instance-id="2" semantic-id="30" stroke="rgb(178,178,0)" stroke-width="0.1"/>
  <path d="M 85.29304000000002,51.09767200000002 L 97.54304000000002,51.09767200000002" fill="none" instance-id="2" semantic-id="30" stroke="rgb(178,178,0)" stroke-width="0.1"/>
  <path d="M 99.04304000000002,90.09767200000002 L 100.0,90.09767200000002" fill="none" stroke="rgb(178,178,0)" stroke-width="0.1"/>
  <path d="M 99.64304000000001,87.497672 L 100.0,87.497672" fill="none" stroke="rgb(178,178,0)" stroke-width="0.1"/>
  <path d="M 99.64304000000001,84.897672 L 100.0,84.897672" fill="none" stroke="rgb(178,178,0)" stroke-width="0.1"/>
  <path d="M 99.64304000000001,82.297672 L 100.0,82.297672" fill="none" stroke="rgb(178,178,0)" stroke-width="0.1"/>
  <path d="M 99.64304000000001,79.69767200000001 L 100.0,79.69767200000001" fill="none" stroke="rgb(178,178,0)" stroke-width="0.1"/>
  <path d="M 99.76404000000002,77.09767200000002 L 100.0,77.09767200000002" fill="none" stroke="rgb(178,178,0)" stroke-width="0.1"/>
  <path d="M 99.64304000000001,90.09767200000002 L 99.64304000000001,77.184672" fill="none" stroke="rgb(178,178,0)" stroke-width="0.1"/>
  <path d="M 100.0,76.92703660996852 L 99.04304000000002,77.617672" fill="none" stroke="rgb(178,178,0)" stroke-width="0.1"/>
  <path d="M 99.04304000000002,61.497671999999994 L 100.0,61.497671999999994" fill="none" stroke="rgb(178,178,0)" stroke-width="0.1"/>
  <path d="M 99.64304000000001,58.897672 L 100.0,58.897672" fill="none" stroke="rgb(178,178,0)" stroke-width="0.1"/>
  <path d="M 99.64304000000001,56.297672000000006 L 100.0,56.297672000000006" fill="none" stroke="rgb(178,178,0)" stroke-width="0.1"/>
  <path d="M 99.64304000000001,53.69767200000001 L 100.0,53.69767200000001" fill="none" stroke="rgb(178,178,0)" stroke-width="0.1"/>
  <path d="M 99.04304000000002,51.09767200000002 L 100.0,51.09767200000002" fill="none" stroke="rgb(178,178,0)" stroke-width="0.1"/>
  <path d="M 99.64304000000001,61.497671999999994 L 99.64304000000001,51.09767200000002" fill="none" stroke="rgb(178,178,0)" stroke-width="0.1"/>
 </g>
 <g id="layerWALL" inkscape:groupmode="layer" inkscape:label="WALL">
  <path d="M 94.29304000000002,0.09767200000001708 L 93.29304000000002,0.09767200000001708" fill="none" instance-id="-1" semantic-id="1" stroke="rgb(0,0,0)" stroke-width="0.1"/>
  <path d="M 94.29304000000002,4.097672000000017 L 94.29304000000002,0.09767200000001708" fill="none" instance-id="-1" semantic-id="1" stroke="rgb(0,0,0)" stroke-width="0.1"/>
  <path d="M 85.29304000000002,3.097672000000017 L 85.29304000000002,37.09767200000002" fill="none" instance-id="-1" semantic-id="1" stroke="rgb(0,0,0)" stroke-width="0.1"/>
  <path d="M 81.29304000000002,0.09767200000001708 L 81.29304000000002,38.09767200000002" fill="none" instance-id="-1" semantic-id="1" stroke="rgb(0,0,0)" stroke-width="0.1"/>
  <path d="M 83.29304000000002,38.09767200000002 L 83.29304000000002,65.59767200000002" fill="none" instance-id="-1" semantic-id="1" stroke="rgb(0,0,0)" stroke-width="0.1"/>
  <path d="M 81.29304000000002,38.09767200000002 L 81.29304000000002,64.59767200000002" fill="none" instance-id="-1" semantic-id="1" stroke="rgb(0,0,0)" stroke-width="0.1"/>
  <path d="M 85.29304000000002,37.09767200000002 L 93.29304000000002,37.09767200000002" fill="none" instance-id="-1" semantic-id="1" stroke="rgb(0,0,0)" stroke-width="0.1"/>
  <path d="M 83.29304000000002,38.09767200000002 L 93.29304000000002,38.09767200000002" fill="none" instance-id="-1" semantic-id="1" stroke="rgb(0,0,0)" stroke-width="0.1"/>
  <path d="M 94.29304000000002,4.097672000000017 L 94.29304000000002,7.097672000000017" fill="none" instance-id="-1" semantic-id="1" stroke="rgb(0,0,0)" stroke-width="0.1"/>
  <path d="M 93.29304000000002,3.097672000000017 L 93.29304000000002,7.097672000000017" fill="none" instance-id="-1" semantic-id="1" stroke="rgb(0,0,0)" stroke-width="0.1"/>
  <path d="M 94.29304000000002,7.097672000000017 L 93.29304000000002,7.097672000000017" fill="none" instance-id="-1" semantic-id="1" stroke="rgb(0,0,0)" stroke-width="0.1"/>
  <path d="M 94.29304000000002,17.097672000000017 L 94.29304000000002,21.097672000000017" fill="none" instance-id="-1" semantic-id="1" stroke="rgb(0,0,0)" stroke-width="0.1"/>
  <path d="M 93.29304000000002,17.097672000000017 L 93.29304000000002,21.097672000000017" fill="none" instance-id="-1" semantic-id="1" stroke="rgb(0,0,0)" stroke-width="0.1"/>
  <path d="M 94.29304000000002,17.097672000000017 L 93.29304000000002,17.097672000000017" fill="none" instance-id="-1" semantic-id="1" stroke="rgb(0,0,0)" stroke-width="0.1"/>
  <path d="M 94.29304000000002,21.097672000000017 L 93.29304000000002,21.097672000000017" fill="none" instance-id="-1" semantic-id="1" stroke="rgb(0,0,0)" stroke-width="0.1"/>
  <path d="M 94.29304000000002,31.097672000000017 L 94.29304000000002,37.09767200000002" fill="none" instance-id="-1" semantic-id="1" stroke="rgb(0,0,0)" stroke-width="0.1"/>
  <path d="M 93.29304000000002,31.097672000000017 L 93.29304000000002,37.09767200000002" fill="none" instance-id="-1" semantic-id="1" stroke="rgb(0,0,0)" stroke-width="0.1"/>
  <path d="M 94.29304000000002,31.097672000000017 L 93.29304000000002,31.097672000000017" fill="none" instance-id="-1" semantic-id="1" stroke="rgb(0,0,0)" stroke-width="0.1"/>
  <path d="M 93.29304000000002,3.097672000000017 L 85.29304000000002,3.097672000000017" fill="none" instance-id="-1" semantic-id="1" stroke="rgb(0,0,0)" stroke-width="0.1"/>
  <path d="M 93.29304000000002,0.09767200000001708 L 81.29304000000002,0.09767200000001708" fill="none" instance-id="-1" semantic-id="1" stroke="rgb(0,0,0)" stroke-width="0.1"/>
  <path d="M 99.04304000000002,51.09767200000002 L 99.04304000000002,95.854672" fill="none" instance-id="-1" semantic-id="1" stroke="rgb(0,0,0)" stroke-width="0.1"/>
  <path d="M 97.54304000000002,51.09767200000002 L 97.54304000000002,95.854672" fill="none" instance-id="-1" semantic-id="1" stroke="rgb(0,0,0)" stroke-width="0.1"/>
  <path d="M 99.04304000000002,51.09767200000002 L 97.54304000000002,51.09767200000002" fill="none" instance-id="-1" semantic-id="1" stroke="rgb(0,0,0)" stroke-width="0.1"/>
  <path d="M 99.04304000000002,95.854672 L 97.54304000000002,95.854672" fill="none" instance-id="-1" semantic-id="1" stroke="rgb(0,0,0)" stroke-width="0.1"/>
  <path d="M 85.29304000000002,95.59767200000002 L 85.29304000000002,98.09767200000002" fill="none" instance-id="-1" semantic-id="1" stroke="rgb(0,0,0)" stroke-width="0.1"/>
  <path d="M 83.29304000000002,96.59767200000002 L 83.29304000000002,98.09767200000002" fill="none" instance-id="-1" semantic-id="1" stroke="rgb(0,0,0)" stroke-width="0.1"/>
  <path d="M 85.29304000000002,98.09767200000002 L 83.29304000000002,98.09767200000002" fill="none" instance-id="-1" semantic-id="1" stroke="rgb(0,0,0)" stroke-width="0.1"/>
  <path d="M 59.29304000000002,94.59767200000002 L 58.29304000000002,94.59767200000002" fill="none" instance-id="-1" semantic-id="1" stroke="rgb(0,0,0)" stroke-width="0.1"/>
  <path d="M 59.29304000000002,96.59767200000002 L 58.29304000000002,96.59767200000002" fill="none" instance-id="-1" semantic-id="1" stroke="rgb(0,0,0)" stroke-width="0.1"/>
  <path d="M 55.29304000000002,64.59767200000002 L 81.29304000000002,64.59767200000002" fill="none" instance-id="-1" semantic-id="1" stroke="rgb(0,0,0)" stroke-width="0.1"/>
  <path d="M 59.29304000000002,67.59767200000002 L 81.29304000000002,67.59767200000002" fill="none" instance-id="-1" semantic-id="1" stroke="rgb(0,0,0)" stroke-width="0.1"/>
  <path d="M 59.29304000000002,67.59767200000002 L 59.29304000000002,94.59767200000002" fill="none" instance-id="-1" semantic-id="1" stroke="rgb(0,0,0)" stroke-width="0.1"/>
  <path d="M 55.29304000000002,64.59767200000002 L 55.29304000000002,95.59767200000002" fill="none" instance-id="-1" semantic-id="1" stroke="rgb(0,0,0)" stroke-width="0.1"/>
  <path d="M 65.29304000000002,47.09767200000002 L 49.29304000000002,47.09767200000002" fill="none" instance-id="-1" semantic-id="1" stroke="rgb(0,0,0)" stroke-width="0.1"/>
  <path d="M 65.29304000000002,43.09767200000002 L 49.29304000000002,43.09767200000002" fill="none" instance-id="-1" semantic-id="1" stroke="rgb(0,0,0)" stroke-width="0.1"/>
  <path d="M 65.29304000000002,47.09767200000002 L 65.29304000000002,43.09767200000002" fill="none" instance-id="-1" semantic-id="1" stroke="rgb(0,0,0)" stroke-width="0.1"/>
  <path d="M 49.29304000000002,47.09767200000002 L 49.29304000000002,43.09767200000002" fill="none" instance-id="-1" semantic-id="1" stroke="rgb(0,0,0)" stroke-width="0.1"/>
  <path d="M 30.29304000000002,47.09767200000002 L 23.29304000000002,47.09767200000002" fill="none" instance-id="-1" semantic-id="1" stroke="rgb(0,0,0)" stroke-width="0.1"/>
  <path d="M 30.29304000000002,43.09767200000002 L 19.29304000000002,43.09767200000002" fill="none" instance-id="-1" semantic-id="1" stroke="rgb(0,0,0)" stroke-width="0.1"/>
  <path d="M 30.29304000000002,47.09767200000002 L 30.29304000000002,43.09767200000002" fill="none" instance-id="-1" semantic-id="1" stroke="rgb(0,0,0)" stroke-width="0.1"/>
  <path d="M 23.29304000000002,47.09767200000002 L 23.29304000000002,56.59767200000002" fill="none" instance-id="-1" semantic-id="1" stroke="rgb(0,0,0)" stroke-width="0.1"/>
  <path d="M 19.29304000000002,43.09767200000002 L 19.29304000000002,56.59767200000002" fill="none" instance-id="-1" semantic-id="1" stroke="rgb(0,0,0)" stroke-width="0.1"/>
  <path d="M 23.29304000000002,56.59767200000002 L 19.29304000000002,56.59767200000002" fill="none" instance-id="-1" semantic-id="1" stroke="rgb(0,0,0)" stroke-width="0.1"/>
  <path d="M 23.29304000000002,71.59767200000002 L 23.29304000000002,80.09767200000002" fill="none" instance-id="-1" semantic-id="1" stroke="rgb(0,0,0)" stroke-width="0.1"/>
  <path d="M 19.29304000000002,71.59767200000002 L 19.29304000000002,78.09767200000002" fill="none" instance-id="-1" semantic-id="1" stroke="rgb(0,0,0)" stroke-width="0.1"/>
  <path d="M 23.29304000000002,71.59767200000002 L 19.29304000000002,71.59767200000002" fill="none" instance-id="-1" semantic-id="1" stroke="rgb(0,0,0)" stroke-width="0.1"/>
  <path d="M 23.29304000000002,80.09767200000002 L 23.29304000000002,100.0" fill="none" instance-id="-1" semantic-id="1" stroke="rgb(0,0,0)" stroke-width="0.1"/>
  <path d="M 19.29304000000002,82.09767200000002 L 19.29304000000002,100.0" fill="none" instance-id="-1" semantic-id="1" stroke="rgb(0,0,0)" stroke-width="0.1"/>
  <path d="M 19.29304000000002,82.09767200000002 L 12.792040000000014,82.09767200000002" fill="none" instance-id="-1" semantic-id="1" stroke="rgb(0,0,0)" stroke-width="0.1"/>
  <path d="M 19.29304000000002,78.09767200000002 L 12.792040000000014,78.09767200000002" fill="none" instance-id="-1" semantic-id="1" stroke="rgb(0,0,0)" stroke-width="0.1"/>
  <path d="M 12.792040000000014,82.09767200000002 L 12.792040000000014,78.09767200000002" fill="none" instance-id="-1" semantic-id="1" stroke="rgb(0,0,0)" stroke-width="0.1"/>
  <path d="M 85.29304000000002,65.59767200000002 L 83.29304000000002,65.59767200000002" fill="none" instance-id="-1" semantic-id="1" stroke="rgb(0,0,0)" stroke-width="0.1"/>
  <path d="M 85.29304000000002,65.59767200000002 L 85.29304000000002,95.59767200000002" fill="none" instance-id="-1" semantic-id="1" stroke="rgb(0,0,0)" stroke-width="0.1"/>
  <path d="M 81.29304000000002,67.59767200000002 L 81.29304000000002,94.59767200000002" fill="none" instance-id="-1" semantic-id="1" stroke="rgb(0,0,0)" stroke-width="0.1"/>
  <path d="M 94.29304000000002,37.09767200000002 L 100.0,37.09767200000002" fill="none" instance-id="-1" semantic-id="1" stroke="rgb(0,0,0)" stroke-width="0.1"/>
  <path d="M 93.29304000000002,38.09767200000002 L 100.0,38.09767200000002" fill="none" instance-id="-1" semantic-id="1" stroke="rgb(0,0,0)" stroke-width="0.1"/>
  <path d="M 58.29304000000002,94.59767200000002 L 64.29304000000002,94.59767200000002" fill="none" instance-id="-1" semantic-id="1" stroke="rgb(0,0,0)" stroke-width="0.1"/>
  <path d="M 58.29304000000002,96.59767200000002 L 64.29304000000002,96.59767200000002" fill="none" instance-id="-1" semantic-id="1" stroke="rgb(0,0,0)" stroke-width="0.1"/>
  <path d="M 64.29304000000002,94.59767200000002 L 64.29304000000002,96.59767200000002" fill="none" instance-id="-1" semantic-id="1" stroke="rgb(0,0,0)" stroke-width="0.1"/>
  <path d="M 76.29304000000002,94.59767200000002 L 81.29304000000002,94.59767200000002" fill="none" instance-id="-1" semantic-id="1" stroke="rgb(0,0,0)" stroke-width="0.1"/>
  <path d="M 76.29304000000002,96.59767200000002 L 83.29304000000002,96.59767200000002" fill="none" instance-id="-1" semantic-id="1" stroke="rgb(0,0,0)" stroke-width="0.1"/>
  <path d="M 76.29304000000002,94.59767200000002 L 76.29304000000002,96.59767200000002" fill="none" instance-id="-1" semantic-id="1" stroke="rgb(0,0,0)" stroke-width="0.1"/>
  <path d="M 59.29304000000002,96.59767200000002 L 59.29304000000002,100.0" fill="none" instance-id="-1" semantic-id="1" stroke="rgb(0,0,0)" stroke-width="0.1"/>
  <path d="M 55.29304000000002,95.59767200000002 L 55.29304000000002,100.0" fill="none" instance-id="-1" semantic-id="1" stroke="rgb(0,0,0)" stroke-width="0.1"/>
 </g>
 <g id="layerWINDOW" inkscape:groupmode="layer" inkscape:label="WINDOW">
  <path d="M 94.29304000000002,17.097672000000017 L 94.29304000000002,7.097672000000017" fill="none" instance-id="6" semantic-id="4" stroke="rgb(0,178,178)" stroke-width="0.1"/>
  <path d="M 93.29304000000002,7.097672000000017 L 93.29304000000002,17.097672000000017" fill="none" instance-id="6" semantic-id="4" stroke="rgb(0,178,178)" stroke-width="0.1"/>
  <path d="M 93.29304000000002,31.097672000000017 L 93.29304000000002,21.097672000000017" fill="none" instance-id="8" semantic-id="4" stroke="rgb(0,178,178)" stroke-width="0.1"/>
  <path d="M 94.29304000000002,21.097672000000017 L 94.29304000000002,31.097672000000017" fill="none" instance-id="8" semantic-id="4" stroke="rgb(0,178,178)" stroke-width="0.1"/>
  <path d="M 94.29304000000002,0.09767200000001708 L 100.0,0.09767200000001708" fill="none" stroke="rgb(0,178,178)" stroke-width="0.1"/>
  <path d="M 93.79304000000002,12.097672000000017 A 5.0,5.0 0.0 0,0 97.32904000000002,10.632672000000014" fill="none" instance-id="6" semantic-id="4" stroke="rgb(0,178,178)" stroke-width="0.1"/>
  <path d="M 97.32904000000002,13.561672000000016 A 5.0,5.0 0.0 0,0 93.79304000000002,12.097672000000017" fill="none" instance-id="6" semantic-id="4" stroke="rgb(0,178,178)" stroke-width="0.1"/>
  <path d="M 93.79304000000002,26.097672000000017 A 5.0,5.0 0.0 0,0 97.32904000000002,24.632672000000014" fill="none" instance-id="8" semantic-id="4" stroke="rgb(0,178,178)" stroke-width="0.1"/>
  <path d="M 97.32904000000002,27.561672000000016 A 5.0,5.0 0.0 0,0 93.79304000000002,26.097672000000017" fill="none" instance-id="8" semantic-id="4" stroke="rgb(0,178,178)" stroke-width="0.1"/>
  <path d="M 99.25804000000002,10.632672000000014 L 99.6760335432605,11.00633079026258" fill="none" stroke="rgb(0,178,178)" stroke-width="0.1"/>
  <path d="M 99.67609295039199,13.18816835667323 L 99.25804000000002,13.561672000000016" fill="none" stroke="rgb(0,178,178)" stroke-width="0.1"/>
  <path d="M 94.69355428054041,0.26279894482590294 L 94.55013932668632,0.7439932448361617" fill="none" stroke="rgb(0,178,178)" stroke-width="0.1"/>
  <path d="M 94.55013932668632,0.7439932448361617 L 94.43798151382006,1.233417833883749" fill="none" stroke="rgb(0,178,178)" stroke-width="0.1"/>
  <path d="M 94.43798151382006,1.233417833883749 L 94.35754561441198,1.7290445779540846" fill="none" stroke="rgb(0,178,178)" stroke-width="0.1"/>
  <path d="M 94.35754561441198,1.7290445779540846 L 94.30916494801167,2.2288196418278403" fill="none" stroke="rgb(0,178,178)" stroke-width="0.1"/>
  <path d="M 94.30916494801167,2.2288196418278403 L 94.29304000000002,2.7306719999999984" fill="none" stroke="rgb(0,178,178)" stroke-width="0.1"/>
  <path d="M 99.25804000000002,24.632672000000014 L 99.6760335432605,25.00633079026258" fill="none" stroke="rgb(0,178,178)" stroke-width="0.1"/>
  <path d="M 99.67609295039199,27.18816835667323 L 99.25804000000002,27.561672000000016" fill="none" stroke="rgb(0,178,178)" stroke-width="0.1"/>
  <path d="M 90.00727014902341,99.74637249799292 L 89.57617161229706,99.4888782635675" fill="none" stroke="rgb(0,178,178)" stroke-width="0.1"/>
  <path d="M 89.57617161229706,99.4888782635675 L 89.13349300480502,99.25184476467157" fill="none" stroke="rgb(0,178,178)" stroke-width="0.1"/>
  <path d="M 89.13349300480502,99.25184476467157 L 88.68020472831321,99.03579160564576" fill="none" stroke="rgb(0,178,178)" stroke-width="0.1"/>
  <path d="M 88.68020472831321,99.03579160564576 L 88.21730044218666,98.84119239954364" fill="none" stroke="rgb(0,178,178)" stroke-width="0.1"/>
  <path d="M 88.21730044218666,98.84119239954364 L 87.74579488517509,98.66847372991828" fill="none" stroke="rgb(0,178,178)" stroke-width="0.1"/>
  <path d="M 87.74579488517509,98.66847372991828 L 87.26672165099066,98.51801421570266" fill="none" stroke="rgb(0,178,178)" stroke-width="0.1"/>
  <path d="M 87.26672165099066,98.51801421570266 L 86.78113092255299,98.39014368123401" fill="none" stroke="rgb(0,178,178)" stroke-width="0.1"/>
  <path d="M 86.78113092255299,98.39014368123401 L 86.29008716986908,98.28514243324125" fill="none" stroke="rgb(0,178,178)" stroke-width="0.1"/>
  <path d="M 86.29008716986908,98.28514243324125 L 85.79466681659414,98.20324064638109" fill="none" stroke="rgb(0,178,178)" stroke-width="0.1"/>
  <path d="M 85.79466681659414,98.20324064638109 L 85.29595588038885,98.14461785866877" fill="none" stroke="rgb(0,178,178)" stroke-width="0.1"/>
  <path d="M 85.29595588038885,98.14461785866877 L 84.79504759224514,98.1094025779106" fill="none" stroke="rgb(0,178,178)" stroke-width="0.1"/>
  <path d="M 84.79504759224514,98.1094025779106 L 84.29304000000002,98.09767200000002" fill="none" stroke="rgb(0,178,178)" stroke-width="0.1"/>
  <path d="M 93.79304000000002,17.097672000000017 L 97.32904000000002,13.561672000000016" fill="none" instance-id="6" semantic-id="4" stroke="rgb(0,178,178)" stroke-width="0.1"/>
  <path d="M 93.79304000000002,7.097672000000017 L 97.32904000000002,10.632672000000014" fill="none" instance-id="6" semantic-id="4" stroke="rgb(0,178,178)" stroke-width="0.1"/>
  <path d="M 93.79304000000002,31.097672000000017 L 97.32904000000002,27.561672000000016" fill="none" instance-id="8" semantic-id="4" stroke="rgb(0,178,178)" stroke-width="0.1"/>
  <path d="M 93.79304000000002,21.097672000000017 L 97.32904000000002,24.632672000000014" fill="none" instance-id="8" semantic-id="4" stroke="rgb(0,178,178)" stroke-width="0.1"/>
  <path d="M 99.25804000000002,13.561672000000016 L 100.0,14.303841889674686" fill="none" stroke="rgb(0,178,178)" stroke-width="0.1"/>
  <path d="M 99.25804000000002,10.632672000000014 L 100.0,9.890712000000036" fill="none" stroke="rgb(0,178,178)" stroke-width="0.1"/>
  <path d="M 99.25804000000002,27.561672000000016 L 100.0,28.303841889674686" fill="none" stroke="rgb(0,178,178)" stroke-width="0.1"/>
  <path d="M 99.25804000000002,24.632672000000014 L 100.0,23.890712000000036" fill="none" stroke="rgb(0,178,178)" stroke-width="0.1"/>
  <path d="M 64.29304000000002,94.59767200000002 L 76.29304000000002,94.59767200000002" fill="none" instance-id="10" semantic-id="5" stroke="rgb(0,178,178)" stroke-width="0.1"/>
  <path d="M 59.29304000000002,96.59767200000002 L 59.29304000000002,100.0" fill="none" stroke="rgb(0,178,178)" stroke-width="0.1"/>
  <path d="M 57.29304000000002,96.59767200000002 L 57.29304000000002,100.0" fill="none" stroke="rgb(0,178,178)" stroke-width="0.1"/>
  <path d="M 58.62704000000002,96.59767200000002 L 58.62704000000002,100.0" fill="none" stroke="rgb(0,178,178)" stroke-width="0.1"/>
  <path d="M 57.96004000000002,96.59767200000002 L 57.96004000000002,100.0" fill="none" stroke="rgb(0,178,178)" stroke-width="0.1"/>
  <path d="M 70.09304000000003,94.26367200000001 L 70.09304000000003,93.93067200000002" fill="none" instance-id="10" semantic-id="5" stroke="rgb(0,178,178)" stroke-width="0.1"/>
  <path d="M 70.09304000000003,93.93067200000002 L 64.09304000000003,93.93067200000002" fill="none" instance-id="10" semantic-id="5" stroke="rgb(0,178,178)" stroke-width="0.1"/>
  <path d="M 64.09304000000003,93.93067200000002 L 64.09304000000003,94.26367200000001" fill="none" instance-id="10" semantic-id="5" stroke="rgb(0,178,178)" stroke-width="0.1"/>
  <path d="M 64.09304000000003,94.26367200000001 L 70.09304000000003,94.26367200000001" fill="none" instance-id="10" semantic-id="5" stroke="rgb(0,178,178)" stroke-width="0.1"/>
  <path d="M 76.49304000000001,93.93067200000002 L 76.49304000000001,94.26367200000001" fill="none" instance-id="10" semantic-id="5" stroke="rgb(0,178,178)" stroke-width="0.1"/>
  <path d="M 76.49304000000001,94.26367200000001 L 70.49304000000001,94.26367200000001" fill="none" instance-id="10" semantic-id="5" stroke="rgb(0,178,178)" stroke-width="0.1"/>
  <path d="M 70.49304000000001,94.26367200000001 L 70.49304000000001,93.93067200000002" fill="none" instance-id="10" semantic-id="5" stroke="rgb(0,178,178)" stroke-width="0.1"/>
  <path d="M 70.49304000000001,93.93067200000002 L 76.49304000000001,93.93067200000002" fill="none" instance-id="10" semantic-id="5" stroke="rgb(0,178,178)" stroke-width="0.1"/>
 </g>
 <g id="layerdote" inkscape:groupmode="layer" inkscape:label="dote">
  <path d="M 0.0,66.09767200000002 L 100.0,66.09767200000002" fill="none" stroke="rgb(178,0,0)" stroke-width="0.1"/>
  <path d="M 0.0,80.09767200000002 L 100.0,80.09767200000002" fill="none" stroke="rgb(178,0,0)" stroke-width="0.1"/>
  <path d="M 0.0,2.097672000000017 L 100.0,2.097672000000017" fill="none" stroke="rgb(178,0,0)" stroke-width="0.1"/>
  <path d="M 0.0,20.097672000000017 L 100.0,20.097672000000017" fill="none" stroke="rgb(178,0,0)" stroke-width="0.1"/>
  <path d="M 0.0,45.09767200000002 L 100.0,45.09767200000002" fill="none" stroke="rgb(178,0,0)" stroke-width="0.1"/>
  <path d="M 0.0,51.59767200000002 L 100.0,51.59767200000002" fill="none" stroke="rgb(178,0,0)" stroke-width="0.1"/>
  <path d="M 0.0,37.09767200000002 L 100.0,37.09767200000002" fill="none" stroke="rgb(178,0,0)" stroke-width="0.1"/>
  <path d="M 0.0,95.59767200000002 L 100.0,95.59767200000002" fill="none" stroke="rgb(178,0,0)" stroke-width="0.1"/>
  <path d="M 83.29304000000002,0.0 L 83.29304000000002,100.0" fill="none" stroke="rgb(178,0,0)" stroke-width="0.1"/>
  <path d="M 98.29304000000002,0.0 L 98.29304000000002,100.0" fill="none" stroke="rgb(178,0,0)" stroke-width="0.1"/>
  <path d="M 57.29304000000002,0.0 L 57.29304000000002,100.0" fill="none" stroke="rgb(178,0,0)" stroke-width="0.1"/>
  <path d="M 65.29304000000002,0.0 L 65.29304000000002,100.0" fill="none" stroke="rgb(178,0,0)" stroke-width="0.1"/>
  <path d="M 21.29304000000002,0.0 L 21.29304000000002,100.0" fill="none" stroke="rgb(178,0,0)" stroke-width="0.1"/>
 </g>
 <g id="layer填充" inkscape:groupmode="layer" inkscape:label="填充">
  <path d="M 99.04304000000002,51.09767200000002 L 97.54304000000002,51.09767200000002" fill="none" stroke="rgb(89,89,89)" stroke-width="0.1"/>
 </g>
 <g id="layer尺寸2" inkscape:groupmode="layer" inkscape:label="尺寸2">
  <path d="M 86.22904000000003,37.09767200000002 L 93.22904000000003,37.09767200000002" fill="none" stroke="rgb(254,255,12)" stroke-width="0.1"/>
  <path d="M 86.22904000000003,31.097672000000017 L 93.22904000000003,31.097672000000017" fill="none" stroke="rgb(254,255,12)" stroke-width="0.1"/>
  <path d="M 86.22904000000003,21.097672000000017 L 93.22904000000003,21.097672000000017" fill="none" stroke="rgb(254,255,12)" stroke-width="0.1"/>
  <path d="M 86.22904000000003,17.097672000000017 L 93.22904000000003,17.097672000000017" fill="none" stroke="rgb(254,255,12)" stroke-width="0.1"/>
  <path d="M 86.22904000000003,7.097672000000017 L 93.22904000000003,7.097672000000017" fill="none" stroke="rgb(254,255,12)" stroke-width="0.1"/>
  <path d="M 86.22904000000003,2.097672000000017 L 93.22904000000003,2.097672000000017" fill="none" stroke="rgb(254,255,12)" stroke-width="0.1"/>
  <path d="M 89.11004000000003,36.47867200000002 L 90.34704000000002,37.71667200000002" fill="none" stroke="rgb(254,255,12)" stroke-width="0.1"/>
  <path d="M 89.11004000000003,30.478672000000017 L 90.34704000000002,31.716672000000017" fill="none" stroke="rgb(254,255,12)" stroke-width="0.1"/>
  <path d="M 89.11004000000003,20.478672000000017 L 90.34704000000002,21.716672000000017" fill="none" stroke="rgb(254,255,12)" stroke-width="0.1"/>
  <path d="M 89.11004000000003,16.478672000000017 L 90.34704000000002,17.716672000000017" fill="none" stroke="rgb(254,255,12)" stroke-width="0.1"/>
  <path d="M 89.11004000000003,6.478672000000017 L 90.34704000000002,7.716672000000017" fill="none" stroke="rgb(254,255,12)" stroke-width="0.1"/>
  <path d="M 89.11004000000003,1.4786720000000173 L 90.34704000000002,2.716672000000017" fill="none" stroke="rgb(254,255,12)" stroke-width="0.1"/>
  <path d="M 95.77204000000003,37.09767200000002 L 89.72904000000003,37.09767200000002" fill="none" stroke="rgb(254,255,12)" stroke-width="0.1"/>
  <path d="M 89.72904000000003,37.09767200000002 L 89.72904000000003,2.097672000000017" fill="none" stroke="rgb(254,255,12)" stroke-width="0.1"/>
  <path d="M 89.72904000000003,2.097672000000017 L 95.77204000000003,2.097672000000017" fill="none" stroke="rgb(254,255,12)" stroke-width="0.1"/>
  <path d="M 83.29304000000002,95.802672 L 83.29304000000002,100.0" fill="none" stroke="rgb(254,255,12)" stroke-width="0.1"/>
  <path d="M 57.29304000000002,100.0 L 57.29304000000002,95.802672" fill="none" stroke="rgb(254,255,12)" stroke-width="0.1"/>
  <text fill="rgb(0,0,0)" font-family="Noto Sans CJK SC" font-size="2" transform="rotate(-450.0,87.50404000000003,1.5476720000000057)" x="87.50404000000003" y="1.5476720000000057">
   500
  </text>
  <text fill="rgb(0,0,0)" font-family="Noto Sans CJK SC" font-size="2" transform="rotate(-450.0,88.01404000000002,16.180672000000015)" x="88.01404000000002" y="16.180672000000015">
   1000
  </text>
  <text fill="rgb(0,0,0)" font-family="Noto Sans CJK SC" font-size="2" transform="rotate(-450.0,85.27904000000001,22.247671999999994)" x="85.27904000000001" y="22.247671999999994">
   400
  </text>
  <text fill="rgb(0,0,0)" font-family="Noto Sans CJK SC" font-size="2" transform="rotate(-450.0,88.01404000000002,30.180672000000015)" x="88.01404000000002" y="30.180672000000015">
   1000
  </text>
  <text fill="rgb(0,0,0)" font-family="Noto Sans CJK SC" font-size="2" transform="rotate(-450.0,88.01404000000002,37.247671999999994)" x="88.01404000000002" y="37.247671999999994">
   600
  </text>
 </g>
 <g id="layer文字" inkscape:groupmode="layer" inkscape:label="文字">
  <text fill="rgb(0,178,0)" font-family="Noto Sans CJK SC" font-size="2" transform="rotate(-0.0,89.91204000000002,23.186672000000016)" x="89.91204000000002" y="23.186672000000016">
   弱
  </text>
  <text fill="rgb(0,178,0)" font-family="Noto Sans CJK SC" font-size="2" transform="rotate(-0.0,89.91204000000002,30.888672000000014)" x="89.91204000000002" y="30.888672000000014">
   电
  </text>
  <text fill="rgb(0,178,0)" font-family="Noto Sans CJK SC" font-size="2" transform="rotate(-0.0,89.91204000000002,15.483672000000013)" x="89.91204000000002" y="15.483672000000013">
   强
  </text>
  <text fill="rgb(0,178,0)" font-family="Noto Sans CJK SC" font-size="2" transform="rotate(-0.0,63.20004000000003,83.64567200000002)" x="63.20004000000003" y="83.64567200000002">
   1#电梯
  </text>
 </g>
 <g id="layer砼墙" inkscape:groupmode="layer" inkscape:label="砼墙">
  <path d="M 81.29304000000002,96.59767200000002 L 85.29304000000002,96.59767200000002" fill="none" instance-id="-1" semantic-id="1" stroke="rgb(0,178,0)" stroke-width="0.1"/>
  <path d="M 85.29304000000002,96.59767200000002 L 85.29304000000002,92.59767200000002" fill="none" instance-id="-1" semantic-id="1" stroke="rgb(0,178,0)" stroke-width="0.1"/>
  <path d="M 81.29304000000002,92.59767200000002 L 81.29304000000002,94.59767200000002" fill="none" instance-id="-1" semantic-id="1" stroke="rgb(0,178,0)" stroke-width="0.1"/>
  <path d="M 94.29304000000002,3.097672000000017 L 94.29304000000002,0.09767200000001708" fill="none" instance-id="-1" semantic-id="1" stroke="rgb(0,178,0)" stroke-width="0.1"/>
  <path d="M 81.29304000000002,0.09767200000001708 L 94.29304000000002,0.09767200000001708" fill="none" instance-id="-1" semantic-id="1" stroke="rgb(0,178,0)" stroke-width="0.1"/>
  <path d="M 85.29304000000002,3.097672000000017 L 94.29304000000002,3.097672000000017" fill="none" instance-id="-1" semantic-id="1" stroke="rgb(0,178,0)" stroke-width="0.1"/>
  <path d="M 76.29304000000002,94.59767200000002 L 81.29304000000002,94.59767200000002" fill="none" instance-id="-1" semantic-id="1" stroke="rgb(0,178,0)" stroke-width="0.1"/>
  <path d="M 76.29304000000002,96.59767200000002 L 81.29304000000002,96.59767200000002" fill="none" instance-id="-1" semantic-id="1" stroke="rgb(0,178,0)" stroke-width="0.1"/>
  <path d="M 76.29304000000002,96.59767200000002 L 76.29304000000002,94.59767200000002" fill="none" instance-id="-1" semantic-id="1" stroke="rgb(0,178,0)" stroke-width="0.1"/>
  <path d="M 64.29304000000002,96.59767200000002 L 64.29304000000002,94.59767200000002" fill="none" instance-id="-1" semantic-id="1" stroke="rgb(0,178,0)" stroke-width="0.1"/>
  <path d="M 59.29304000000002,94.59767200000002 L 64.29304000000002,94.59767200000002" fill="none" instance-id="-1" semantic-id="1" stroke="rgb(0,178,0)" stroke-width="0.1"/>
  <path d="M 59.29304000000002,96.59767200000002 L 64.29304000000002,96.59767200000002" fill="none" instance-id="-1" semantic-id="1" stroke="rgb(0,178,0)" stroke-width="0.1"/>
  <path d="M 55.29304000000002,96.59767200000002 L 55.29304000000002,64.09767200000002" fill="none" instance-id="-1" semantic-id="1" stroke="rgb(0,178,0)" stroke-width="0.1"/>
  <path d="M 59.29304000000002,94.59767200000002 L 59.29304000000002,67.59767200000002" fill="none" instance-id="-1" semantic-id="1" stroke="rgb(0,178,0)" stroke-width="0.1"/>
  <path d="M 81.29304000000002,92.59767200000002 L 81.29304000000002,67.59767200000002" fill="none" instance-id="-1" semantic-id="1" stroke="rgb(0,178,0)" stroke-width="0.1"/>
  <path d="M 85.29304000000002,92.59767200000002 L 85.29304000000002,64.09767200000002" fill="none" instance-id="-1" semantic-id="1" stroke="rgb(0,178,0)" stroke-width="0.1"/>
  <path d="M 55.29304000000002,64.09767200000002 L 81.29304000000002,64.09767200000002" fill="none" instance-id="-1" semantic-id="1" stroke="rgb(0,178,0)" stroke-width="0.1"/>
  <path d="M 59.29304000000002,67.59767200000002 L 81.29304000000002,67.59767200000002" fill="none" instance-id="-1" semantic-id="1" stroke="rgb(0,178,0)" stroke-width="0.1"/>
  <path d="M 81.29304000000002,38.09767200000002 L 81.29304000000002,0.09767200000001708" fill="none" instance-id="-1" semantic-id="1" stroke="rgb(0,178,0)" stroke-width="0.1"/>
  <path d="M 85.29304000000002,38.09767200000002 L 85.29304000000002,3.097672000000017" fill="none" instance-id="-1" semantic-id="1" stroke="rgb(0,178,0)" stroke-width="0.1"/>
  <path d="M 85.29304000000002,38.09767200000002 L 81.29304000000002,38.09767200000002" fill="none" instance-id="-1" semantic-id="1" stroke="rgb(0,178,0)" stroke-width="0.1"/>
  <path d="M 85.29304000000002,49.09767200000002 L 81.29304000000002,49.09767200000002" fill="none" instance-id="-1" semantic-id="1" stroke="rgb(0,178,0)" stroke-width="0.1"/>
  <path d="M 81.29304000000002,64.09767200000002 L 81.29304000000002,49.09767200000002" fill="none" instance-id="-1" semantic-id="1" stroke="rgb(0,178,0)" stroke-width="0.1"/>
  <path d="M 85.29304000000002,64.09767200000002 L 85.29304000000002,49.09767200000002" fill="none" instance-id="-1" semantic-id="1" stroke="rgb(0,178,0)" stroke-width="0.1"/>
  <path d="M 19.29304000000002,60.34767200000002 L 19.29304000000002,43.09767200000002" fill="none" instance-id="-1" semantic-id="1" stroke="rgb(0,178,0)" stroke-width="0.1"/>
  <path d="M 23.29304000000002,60.34767200000002 L 23.29304000000002,47.09767200000002" fill="none" instance-id="-1" semantic-id="1" stroke="rgb(0,178,0)" stroke-width="0.1"/>
  <path d="M 23.29304000000002,60.34767200000002 L 19.29304000000002,60.34767200000002" fill="none" instance-id="-1" semantic-id="1" stroke="rgb(0,178,0)" stroke-width="0.1"/>
  <path d="M 23.29304000000002,72.34767200000002 L 19.29304000000002,72.34767200000002" fill="none" instance-id="-1" semantic-id="1" stroke="rgb(0,178,0)" stroke-width="0.1"/>
  <path d="M 19.29304000000002,78.09767200000002 L 19.29304000000002,72.34767200000002" fill="none" instance-id="-1" semantic-id="1" stroke="rgb(0,178,0)" stroke-width="0.1"/>
  <path d="M 23.29304000000002,82.09767200000002 L 23.29304000000002,72.34767200000002" fill="none" instance-id="-1" semantic-id="1" stroke="rgb(0,178,0)" stroke-width="0.1"/>
  <path d="M 66.54304000000002,43.09767200000002 L 66.54304000000002,47.09767200000002" fill="none" instance-id="-1" semantic-id="1" stroke="rgb(0,178,0)" stroke-width="0.1"/>
  <path d="M 49.29304000000002,43.09767200000002 L 66.54304000000002,43.09767200000002" fill="none" instance-id="-1" semantic-id="1" stroke="rgb(0,178,0)" stroke-width="0.1"/>
  <path d="M 49.29304000000002,47.09767200000002 L 66.54304000000002,47.09767200000002" fill="none" instance-id="-1" semantic-id="1" stroke="rgb(0,178,0)" stroke-width="0.1"/>
  <path d="M 49.29304000000002,47.09767200000002 L 49.29304000000002,43.09767200000002" fill="none" instance-id="-1" semantic-id="1" stroke="rgb(0,178,0)" stroke-width="0.1"/>
  <path d="M 30.29304000000002,47.09767200000002 L 30.29304000000002,43.09767200000002" fill="none" instance-id="-1" semantic-id="1" stroke="rgb(0,178,0)" stroke-width="0.1"/>
  <path d="M 19.29304000000002,43.09767200000002 L 30.29304000000002,43.09767200000002" fill="none" instance-id="-1" semantic-id="1" stroke="rgb(0,178,0)" stroke-width="0.1"/>
  <path d="M 23.29304000000002,47.09767200000002 L 30.29304000000002,47.09767200000002" fill="none" instance-id="-1" semantic-id="1" stroke="rgb(0,178,0)" stroke-width="0.1"/>
  <path d="M 19.29304000000002,100.0 L 19.29304000000002,82.09767200000002" fill="none" instance-id="-1" semantic-id="1" stroke="rgb(0,178,0)" stroke-width="0.1"/>
  <path d="M 23.29304000000002,100.0 L 23.29304000000002,82.09767200000002" fill="none" instance-id="-1" semantic-id="1" stroke="rgb(0,178,0)" stroke-width="0.1"/>
  <path d="M 12.793040000000019,78.09767200000002 L 19.29304000000002,78.09767200000002" fill="none" instance-id="-1" semantic-id="1" stroke="rgb(0,178,0)" stroke-width="0.1"/>
  <path d="M 12.793040000000019,82.09767200000002 L 19.29304000000002,82.09767200000002" fill="none" instance-id="-1" semantic-id="1" stroke="rgb(0,178,0)" stroke-width="0.1"/>
  <path d="M 12.793040000000019,82.09767200000002 L 12.793040000000019,78.09767200000002" fill="none" instance-id="-1" semantic-id="1" stroke="rgb(0,178,0)" stroke-width="0.1"/>
  <path d="M 55.29304000000002,100.0 L 55.29304000000002,96.59767200000002" fill="none" instance-id="-1" semantic-id="1" stroke="rgb(0,178,0)" stroke-width="0.1"/>
  <path d="M 59.29304000000002,100.0 L 59.29304000000002,96.59767200000002" fill="none" instance-id="-1" semantic-id="1" stroke="rgb(0,178,0)" stroke-width="0.1"/>
  <path d="M 23.29304000000002,100.0 L 23.29304000000002,82.09767200000002" fill="none" instance-id="-1" semantic-id="1" stroke="rgb(0,178,0)" stroke-width="0.1"/>
  <path d="M 23.29304000000002,82.09767200000002 L 23.29304000000002,72.34767200000002" fill="none" instance-id="-1" semantic-id="1" stroke="rgb(0,178,0)" stroke-width="0.1"/>
  <path d="M 23.29304000000002,72.34767200000002 L 19.29304000000002,72.34767200000002" fill="none" instance-id="-1" semantic-id="1" stroke="rgb(0,178,0)" stroke-width="0.1"/>
  <path d="M 19.29304000000002,72.34767200000002 L 19.29304000000002,78.09767200000002" fill="none" instance-id="-1" semantic-id="1" stroke="rgb(0,178,0)" stroke-width="0.1"/>
  <path d="M 19.29304000000002,78.09767200000002 L 12.793040000000019,78.09767200000002" fill="none" instance-id="-1" semantic-id="1" stroke="rgb(0,178,0)" stroke-width="0.1"/>
  <path d="M 12.793040000000019,78.09767200000002 L 12.793040000000019,82.09767200000002" fill="none" instance-id="-1" semantic-id="1" stroke="rgb(0,178,0)" stroke-width="0.1"/>
  <path d="M 12.793040000000019,82.09767200000002 L 19.29304000000002,82.09767200000002" fill="none" instance-id="-1" semantic-id="1" stroke="rgb(0,178,0)" stroke-width="0.1"/>
  <path d="M 19.29304000000002,82.09767200000002 L 19.29304000000002,100.0" fill="none" instance-id="-1" semantic-id="1" stroke="rgb(0,178,0)" stroke-width="0.1"/>
  <path d="M 19.29304000000002,60.34767200000002 L 23.29304000000002,60.34767200000002" fill="none" instance-id="-1" semantic-id="1" stroke="rgb(0,178,0)" stroke-width="0.1"/>
  <path d="M 23.29304000000002,60.34767200000002 L 23.29304000000002,47.09767200000002" fill="none" instance-id="-1" semantic-id="1" stroke="rgb(0,178,0)" stroke-width="0.1"/>
  <path d="M 23.29304000000002,47.09767200000002 L 30.29304000000002,47.09767200000002" fill="none" instance-id="-1" semantic-id="1" stroke="rgb(0,178,0)" stroke-width="0.1"/>
  <path d="M 30.29304000000002,47.09767200000002 L 30.29304000000002,43.09767200000002" fill="none" instance-id="-1" semantic-id="1" stroke="rgb(0,178,0)" stroke-width="0.1"/>
  <path d="M 30.29304000000002,43.09767200000002 L 19.29304000000002,43.09767200000002" fill="none" instance-id="-1" semantic-id="1" stroke="rgb(0,178,0)" stroke-width="0.1"/>
  <path d="M 19.29304000000002,43.09767200000002 L 19.29304000000002,60.34767200000002" fill="none" instance-id="-1" semantic-id="1" stroke="rgb(0,178,0)" stroke-width="0.1"/>
  <path d="M 49.29304000000002,47.09767200000002 L 66.54304000000002,47.09767200000002" fill="none" instance-id="-1" semantic-id="1" stroke="rgb(0,178,0)" stroke-width="0.1"/>
  <path d="M 66.54304000000002,47.09767200000002 L 66.54304000000002,43.09767200000002" fill="none" instance-id="-1" semantic-id="1" stroke="rgb(0,178,0)" stroke-width="0.1"/>
  <path d="M 66.54304000000002,43.09767200000002 L 49.29304000000002,43.09767200000002" fill="none" instance-id="-1" semantic-id="1" stroke="rgb(0,178,0)" stroke-width="0.1"/>
  <path d="M 49.29304000000002,43.09767200000002 L 49.29304000000002,47.09767200000002" fill="none" instance-id="-1" semantic-id="1" stroke="rgb(0,178,0)" stroke-width="0.1"/>
  <path d="M 76.29304000000002,96.59767200000002 L 81.29304000000002,96.59767200000002" fill="none" instance-id="-1" semantic-id="1" stroke="rgb(0,178,0)" stroke-width="0.1"/>
  <path d="M 81.29304000000002,96.59767200000002 L 85.29304000000002,96.59767200000002" fill="none" instance-id="-1" semantic-id="1" stroke="rgb(0,178,0)" stroke-width="0.1"/>
  <path d="M 85.29304000000002,96.59767200000002 L 85.29304000000002,92.59767200000002" fill="none" instance-id="-1" semantic-id="1" stroke="rgb(0,178,0)" stroke-width="0.1"/>
  <path d="M 85.29304000000002,92.59767200000002 L 85.29304000000002,64.09767200000002" fill="none" instance-id="-1" semantic-id="1" stroke="rgb(0,178,0)" stroke-width="0.1"/>
  <path d="M 85.29304000000002,64.09767200000002 L 85.29304000000002,49.09767200000002" fill="none" instance-id="-1" semantic-id="1" stroke="rgb(0,178,0)" stroke-width="0.1"/>
  <path d="M 85.29304000000002,49.09767200000002 L 81.29304000000002,49.09767200000002" fill="none" instance-id="-1" semantic-id="1" stroke="rgb(0,178,0)" stroke-width="0.1"/>
  <path d="M 81.29304000000002,49.09767200000002 L 81.29304000000002,64.09767200000002" fill="none" instance-id="-1" semantic-id="1" stroke="rgb(0,178,0)" stroke-width="0.1"/>
  <path d="M 81.29304000000002,64.09767200000002 L 55.29304000000002,64.09767200000002" fill="none" instance-id="-1" semantic-id="1" stroke="rgb(0,178,0)" stroke-width="0.1"/>
  <path d="M 55.29304000000002,64.09767200000002 L 55.29304000000002,96.59767200000002" fill="none" instance-id="-1" semantic-id="1" stroke="rgb(0,178,0)" stroke-width="0.1"/>
  <path d="M 55.29304000000002,96.59767200000002 L 55.29304000000002,100.0" fill="none" instance-id="-1" semantic-id="1" stroke="rgb(0,178,0)" stroke-width="0.1"/>
  <path d="M 59.29304000000002,100.0 L 59.29304000000002,96.59767200000002" fill="none" instance-id="-1" semantic-id="1" stroke="rgb(0,178,0)" stroke-width="0.1"/>
  <path d="M 59.29304000000002,96.59767200000002 L 64.29304000000002,96.59767200000002" fill="none" instance-id="-1" semantic-id="1" stroke="rgb(0,178,0)" stroke-width="0.1"/>
  <path d="M 64.29304000000002,96.59767200000002 L 64.29304000000002,94.59767200000002" fill="none" instance-id="-1" semantic-id="1" stroke="rgb(0,178,0)" stroke-width="0.1"/>
  <path d="M 64.29304000000002,94.59767200000002 L 59.29304000000002,94.59767200000002" fill="none" instance-id="-1" semantic-id="1" stroke="rgb(0,178,0)" stroke-width="0.1"/>
  <path d="M 59.29304000000002,94.59767200000002 L 59.29304000000002,67.59767200000002" fill="none" instance-id="-1" semantic-id="1" stroke="rgb(0,178,0)" stroke-width="0.1"/>
  <path d="M 59.29304000000002,67.59767200000002 L 81.29304000000002,67.59767200000002" fill="none" instance-id="-1" semantic-id="1" stroke="rgb(0,178,0)" stroke-width="0.1"/>
  <path d="M 81.29304000000002,67.59767200000002 L 81.29304000000002,92.59767200000002" fill="none" instance-id="-1" semantic-id="1" stroke="rgb(0,178,0)" stroke-width="0.1"/>
  <path d="M 81.29304000000002,92.59767200000002 L 81.29304000000002,94.59767200000002" fill="none" instance-id="-1" semantic-id="1" stroke="rgb(0,178,0)" stroke-width="0.1"/>
  <path d="M 81.29304000000002,94.59767200000002 L 76.29304000000002,94.59767200000002" fill="none" instance-id="-1" semantic-id="1" stroke="rgb(0,178,0)" stroke-width="0.1"/>
  <path d="M 76.29304000000002,94.59767200000002 L 76.29304000000002,96.59767200000002" fill="none" instance-id="-1" semantic-id="1" stroke="rgb(0,178,0)" stroke-width="0.1"/>
  <path d="M 81.29304000000002,38.09767200000002 L 85.29304000000002,38.09767200000002" fill="none" instance-id="-1" semantic-id="1" stroke="rgb(0,178,0)" stroke-width="0.1"/>
  <path d="M 85.29304000000002,38.09767200000002 L 85.29304000000002,3.097672000000017" fill="none" instance-id="-1" semantic-id="1" stroke="rgb(0,178,0)" stroke-width="0.1"/>
  <path d="M 85.29304000000002,3.097672000000017 L 94.29304000000002,3.097672000000017" fill="none" instance-id="-1" semantic-id="1" stroke="rgb(0,178,0)" stroke-width="0.1"/>
  <path d="M 94.29304000000002,3.097672000000017 L 94.29304000000002,0.09767200000001708" fill="none" instance-id="-1" semantic-id="1" stroke="rgb(0,178,0)" stroke-width="0.1"/>
  <path d="M 94.29304000000002,0.09767200000001708 L 81.29304000000002,0.09767200000001708" fill="none" instance-id="-1" semantic-id="1" stroke="rgb(0,178,0)" stroke-width="0.1"/>
  <path d="M 81.29304000000002,0.09767200000001708 L 81.29304000000002,38.09767200000002" fill="none" instance-id="-1" semantic-id="1" stroke="rgb(0,178,0)" stroke-width="0.1"/>
 </g>
 <g id="layer立管" inkscape:groupmode="layer" inkscape:label="立管">
  <circle cx="63.99304000000001" cy="48.397672" fill="none" r="0.55" stroke="rgb(178,178,0)" stroke-width="0.1"/>
 </g>
 <g id="layer门窗编号" inkscape:groupmode="layer" inkscape:label="门窗编号">
  <text fill="rgb(178,0,88)" font-family="Noto Sans CJK SC" font-size="2" transform="rotate(-90.0,97.19504,17.507672000000014)" x="97.19504" y="17.507672000000014">
   FM丙1020
  </text>
  <text fill="rgb(178,0,88)" font-family="Noto Sans CJK SC" font-size="2" transform="rotate(-90.0,97.36504000000002,32.52067200000002)" x="97.36504000000002" y="32.52067200000002">
   FM丙1020
  </text>
 </g>
</svg>