<?xml version="1.0" encoding="utf-8"?>
<svg style="background-color: #000;" version="1.1" viewBox="0 0 100.0 100.0" xmlns="http://www.w3.org/2000/svg" xmlns:inkscape="http://www.inkscape.org/namespaces/inkscape">
 <g id="layerCOLUMN" inkscape:groupmode="layer" inkscape:label="COLUMN">
  <path d="M 88.04304000000002,7.097672000000017 L 92.04304000000002,7.097672000000017" fill="none" instance-id="-1" semantic-id="1" stroke="rgb(0,0,0)" stroke-width="0.1"/>
  <path d="M 92.04304000000002,7.097672000000017 L 92.04304000000002,3.097672000000017" fill="none" instance-id="-1" semantic-id="1" stroke="rgb(0,0,0)" stroke-width="0.1"/>
  <path d="M 92.04304000000002,3.097672000000017 L 88.04304000000002,3.097672000000017" fill="none" instance-id="-1" semantic-id="1" stroke="rgb(0,0,0)" stroke-width="0.1"/>
  <path d="M 88.04304000000002,3.097672000000017 L 88.04304000000002,7.097672000000017" fill="none" instance-id="-1" semantic-id="1" stroke="rgb(0,0,0)" stroke-width="0.1"/>
  <path d="M 37.044039999999995,7.097672000000017 L 41.044039999999995,7.097672000000017" fill="none" instance-id="-1" semantic-id="1" stroke="rgb(0,0,0)" stroke-width="0.1"/>
  <path d="M 41.044039999999995,7.097672000000017 L 41.044039999999995,3.097672000000017" fill="none" instance-id="-1" semantic-id="1" stroke="rgb(0,0,0)" stroke-width="0.1"/>
  <path d="M 41.044039999999995,3.097672000000017 L 37.044039999999995,3.097672000000017" fill="none" instance-id="-1" semantic-id="1" stroke="rgb(0,0,0)" stroke-width="0.1"/>
  <path d="M 37.044039999999995,3.097672000000017 L 37.044039999999995,7.097672000000017" fill="none" instance-id="-1" semantic-id="1" stroke="rgb(0,0,0)" stroke-width="0.1"/>
 </g>
 <g id="layerPUB_DIM" inkscape:groupmode="layer" inkscape:label="PUB_DIM">
  <path d="M 91.92503999999997,66.25167200000001 L 93.16204000000005,65.01467200000002" fill="none" stroke="rgb(0,178,0)" stroke-width="0.1"/>
  <path d="M 92.54304000000002,69.13267200000001 L 92.54304000000002,62.132672000000014" fill="none" stroke="rgb(0,178,0)" stroke-width="0.1"/>
  <path d="M 1.9250399999999672,60.70867200000001 L 3.1620400000000473,59.47167200000001" fill="none" stroke="rgb(0,178,0)" stroke-width="0.1"/>
  <path d="M 2.543040000000019,63.58967200000001 L 2.543040000000019,56.58967200000001" fill="none" stroke="rgb(0,178,0)" stroke-width="0.1"/>
  <path d="M 13.925039999999967,60.70867200000001 L 15.162040000000047,59.47167200000001" fill="none" stroke="rgb(0,178,0)" stroke-width="0.1"/>
  <path d="M 14.543040000000019,63.58967200000001 L 14.543040000000019,56.58967200000001" fill="none" stroke="rgb(0,178,0)" stroke-width="0.1"/>
  <path d="M 92.54304000000002,73.848672 L 92.54304000000002,65.63267200000001" fill="none" stroke="rgb(0,178,0)" stroke-width="0.1"/>
  <path d="M 92.54304000000002,65.63267200000001 L 100.0,65.63267200000001" fill="none" stroke="rgb(0,178,0)" stroke-width="0.1"/>
  <path d="M 90.04304000000002,0.5976720000000171 L 90.04304000000002,0.0" fill="none" stroke="rgb(0,178,0)" stroke-width="0.1"/>
  <path d="M 2.543040000000019,67.75767200000001 L 2.543040000000019,60.08967200000001" fill="none" stroke="rgb(0,178,0)" stroke-width="0.1"/>
  <path d="M 2.543040000000019,60.08967200000001 L 14.543040000000019,60.08967200000001" fill="none" stroke="rgb(0,178,0)" stroke-width="0.1"/>
  <path d="M 14.543040000000019,60.08967200000001 L 14.543040000000019,67.75767200000001" fill="none" stroke="rgb(0,178,0)" stroke-width="0.1"/>
  <text fill="rgb(0,0,0)" font-family="Noto Sans CJK SC" font-size="2" transform="rotate(-360.0,94.46004000000005,63.918672000000015)" x="94.46004000000005" y="63.918672000000015">
   1200
  </text>
  <text fill="rgb(0,0,0)" font-family="Noto Sans CJK SC" font-size="2" transform="rotate(-360.0,4.460040000000049,58.374672000000004)" x="4.460040000000049" y="58.374672000000004">
   1200
  </text>
 </g>
 <g id="layerPUB_HATCH" inkscape:groupmode="layer" inkscape:label="PUB_HATCH">
  <path d="M 88.04304000000002,7.097672000000017 L 92.04304000000002,7.097672000000017" fill="none" instance-id="-1" semantic-id="1" stroke="rgb(89,89,89)" stroke-width="0.1"/>
  <path d="M 92.04304000000002,7.097672000000017 L 92.04304000000002,3.097672000000017" fill="none" instance-id="-1" semantic-id="1" stroke="rgb(89,89,89)" stroke-width="0.1"/>
  <path d="M 92.04304000000002,3.097672000000017 L 88.04304000000002,3.097672000000017" fill="none" instance-id="-1" semantic-id="1" stroke="rgb(89,89,89)" stroke-width="0.1"/>
  <path d="M 88.04304000000002,3.097672000000017 L 88.04304000000002,7.097672000000017" fill="none" instance-id="-1" semantic-id="1" stroke="rgb(89,89,89)" stroke-width="0.1"/>
  <path d="M 37.044039999999995,7.097672000000017 L 41.044039999999995,7.097672000000017" fill="none" instance-id="-1" semantic-id="1" stroke="rgb(89,89,89)" stroke-width="0.1"/>
  <path d="M 41.044039999999995,7.097672000000017 L 41.044039999999995,3.097672000000017" fill="none" instance-id="-1" semantic-id="1" stroke="rgb(89,89,89)" stroke-width="0.1"/>
  <path d="M 41.044039999999995,3.097672000000017 L 37.044039999999995,3.097672000000017" fill="none" instance-id="-1" semantic-id="1" stroke="rgb(89,89,89)" stroke-width="0.1"/>
  <path d="M 37.044039999999995,3.097672000000017 L 37.044039999999995,7.097672000000017" fill="none" instance-id="-1" semantic-id="1" stroke="rgb(89,89,89)" stroke-width="0.1"/>
 </g>
 <g id="layerWALL" inkscape:groupmode="layer" inkscape:label="WALL">
  <path d="M 88.29304000000002,43.09767200000002 L 100.0,43.09767200000002" fill="none" instance-id="-1" semantic-id="1" stroke="rgb(0,0,0)" stroke-width="0.1"/>
  <path d="M 91.79304000000002,46.59767200000002 L 100.0,46.59767200000002" fill="none" instance-id="-1" semantic-id="1" stroke="rgb(0,0,0)" stroke-width="0.1"/>
  <path d="M 91.79304000000002,46.59767200000002 L 91.79304000000002,71.34767200000002" fill="none" instance-id="-1" semantic-id="1" stroke="rgb(0,0,0)" stroke-width="0.1"/>
  <path d="M 88.29304000000002,43.09767200000002 L 88.29304000000002,69.59767200000002" fill="none" instance-id="-1" semantic-id="1" stroke="rgb(0,0,0)" stroke-width="0.1"/>
  <path d="M 65.29304000000002,99.59767200000002 L 88.29304000000002,99.59767200000002" fill="none" instance-id="-1" semantic-id="1" stroke="rgb(0,0,0)" stroke-width="0.1"/>
  <path d="M 65.29304000000002,99.59767200000002 L 65.29304000000002,100.0" fill="none" instance-id="-1" semantic-id="1" stroke="rgb(0,0,0)" stroke-width="0.1"/>
  <path d="M 64.29304000000002,69.59767200000002 L 88.29304000000002,69.59767200000002" fill="none" instance-id="-1" semantic-id="1" stroke="rgb(0,0,0)" stroke-width="0.1"/>
  <path d="M 66.29304000000002,73.09767200000002 L 88.29304000000002,73.09767200000002" fill="none" instance-id="-1" semantic-id="1" stroke="rgb(0,0,0)" stroke-width="0.1"/>
  <path d="M 91.79304000000002,71.34767200000002 L 91.79304000000002,72.59767200000002" fill="none" instance-id="-1" semantic-id="1" stroke="rgb(0,0,0)" stroke-width="0.1"/>
  <path d="M 88.29304000000002,73.09767200000002 L 88.29304000000002,73.59767200000002" fill="none" instance-id="-1" semantic-id="1" stroke="rgb(0,0,0)" stroke-width="0.1"/>
  <path d="M 0.7940399999999954,69.59767200000002 L 33.54304000000002,69.59767200000002" fill="none" instance-id="-1" semantic-id="1" stroke="rgb(0,0,0)" stroke-width="0.1"/>
  <path d="M 0.7940399999999954,71.59767200000002 L 31.54304000000002,71.59767200000002" fill="none" instance-id="-1" semantic-id="1" stroke="rgb(0,0,0)" stroke-width="0.1"/>
  <path d="M 0.7940399999999954,69.59767200000002 L 0.7940399999999954,71.59767200000002" fill="none" instance-id="-1" semantic-id="1" stroke="rgb(0,0,0)" stroke-width="0.1"/>
  <path d="M 31.54304000000002,86.59767200000002 L 31.54304000000002,71.59767200000002" fill="none" instance-id="-1" semantic-id="1" stroke="rgb(0,0,0)" stroke-width="0.1"/>
  <path d="M 33.54304000000002,86.59767200000002 L 33.54304000000002,69.59767200000002" fill="none" instance-id="-1" semantic-id="1" stroke="rgb(0,0,0)" stroke-width="0.1"/>
  <path d="M 31.54304000000002,86.59767200000002 L 33.54304000000002,86.59767200000002" fill="none" instance-id="-1" semantic-id="1" stroke="rgb(0,0,0)" stroke-width="0.1"/>
  <path d="M 91.79304000000002,72.59767200000002 L 92.54304000000002,72.59767200000002" fill="none" instance-id="-1" semantic-id="1" stroke="rgb(0,0,0)" stroke-width="0.1"/>
  <path d="M 91.79304000000002,74.59767200000002 L 92.54304000000002,74.59767200000002" fill="none" instance-id="-1" semantic-id="1" stroke="rgb(0,0,0)" stroke-width="0.1"/>
  <path d="M 92.54304000000002,72.59767200000002 L 92.54304000000002,74.59767200000002" fill="none" instance-id="-1" semantic-id="1" stroke="rgb(0,0,0)" stroke-width="0.1"/>
  <path d="M 91.79304000000002,74.59767200000002 L 91.79304000000002,100.0" fill="none" instance-id="-1" semantic-id="1" stroke="rgb(0,0,0)" stroke-width="0.1"/>
  <path d="M 88.29304000000002,73.59767200000002 L 88.29304000000002,99.59767200000002" fill="none" instance-id="-1" semantic-id="1" stroke="rgb(0,0,0)" stroke-width="0.1"/>
  <path d="M 66.29304000000002,73.09767200000002 L 66.29304000000002,75.09767200000002" fill="none" instance-id="-1" semantic-id="1" stroke="rgb(0,0,0)" stroke-width="0.1"/>
  <path d="M 64.29304000000002,69.59767200000002 L 64.29304000000002,75.09767200000002" fill="none" instance-id="-1" semantic-id="1" stroke="rgb(0,0,0)" stroke-width="0.1"/>
  <path d="M 66.29304000000002,75.09767200000002 L 64.29304000000002,75.09767200000002" fill="none" instance-id="-1" semantic-id="1" stroke="rgb(0,0,0)" stroke-width="0.1"/>
  <path d="M 66.29304000000002,85.09767200000002 L 66.29304000000002,100.0" fill="none" instance-id="-1" semantic-id="1" stroke="rgb(0,0,0)" stroke-width="0.1"/>
  <path d="M 64.29304000000002,85.09767200000002 L 64.29304000000002,100.0" fill="none" instance-id="-1" semantic-id="1" stroke="rgb(0,0,0)" stroke-width="0.1"/>
  <path d="M 66.29304000000002,85.09767200000002 L 64.29304000000002,85.09767200000002" fill="none" instance-id="-1" semantic-id="1" stroke="rgb(0,0,0)" stroke-width="0.1"/>
 </g>
 <g id="layerWINDOW" inkscape:groupmode="layer" inkscape:label="WINDOW">
  <path d="M 37.044039999999995,3.097672000000017 L 37.044039999999995,73.59767200000002" fill="none" stroke="rgb(0,178,178)" stroke-width="0.1"/>
  <path d="M 37.044039999999995,73.59767200000002 L 37.044039999999995,86.59767200000002" fill="none" stroke="rgb(0,178,178)" stroke-width="0.1"/>
  <path d="M 34.544039999999995,0.5976720000000171 L 34.544039999999995,73.59767200000002" fill="none" stroke="rgb(0,178,178)" stroke-width="0.1"/>
  <path d="M 34.544039999999995,73.59767200000002 L 34.544039999999995,86.59767200000002" fill="none" stroke="rgb(0,178,178)" stroke-width="0.1"/>
  <path d="M 34.044039999999995,0.09767200000001708 L 34.044039999999995,73.59767200000002" fill="none" stroke="rgb(0,178,178)" stroke-width="0.1"/>
  <path d="M 34.044039999999995,73.59767200000002 L 34.044039999999995,86.59767200000002" fill="none" stroke="rgb(0,178,178)" stroke-width="0.1"/>
  <path d="M 37.044039999999995,3.097672000000017 L 100.0,3.097672000000017" fill="none" stroke="rgb(0,178,178)" stroke-width="0.1"/>
  <path d="M 34.544039999999995,0.5976720000000171 L 100.0,0.5976720000000171" fill="none" stroke="rgb(0,178,178)" stroke-width="0.1"/>
  <path d="M 34.044039999999995,0.09767200000001708 L 100.0,0.09767200000001708" fill="none" stroke="rgb(0,178,178)" stroke-width="0.1"/>
  <path d="M 38.104040000000055,3.097672000000017 L 35.604040000000055,0.5976720000000171" fill="none" stroke="rgb(0,178,178)" stroke-width="0.1"/>
  <path d="M 37.044039999999995,4.157672000000019 L 34.544039999999995,1.6576720000000194" fill="none" stroke="rgb(0,178,178)" stroke-width="0.1"/>
  <path d="M 37.044039999999995,15.597672000000017 L 34.544039999999995,15.597672000000017" fill="none" stroke="rgb(0,178,178)" stroke-width="0.1"/>
  <path d="M 37.044039999999995,17.097672000000017 L 34.544039999999995,17.097672000000017" fill="none" stroke="rgb(0,178,178)" stroke-width="0.1"/>
  <path d="M 37.044039999999995,30.597672000000017 L 34.544039999999995,30.597672000000017" fill="none" stroke="rgb(0,178,178)" stroke-width="0.1"/>
  <path d="M 37.044039999999995,32.09767200000002 L 34.544039999999995,32.09767200000002" fill="none" stroke="rgb(0,178,178)" stroke-width="0.1"/>
  <path d="M 37.044039999999995,45.59767200000002 L 34.544039999999995,45.59767200000002" fill="none" stroke="rgb(0,178,178)" stroke-width="0.1"/>
  <path d="M 37.044039999999995,47.09767200000002 L 34.544039999999995,47.09767200000002" fill="none" stroke="rgb(0,178,178)" stroke-width="0.1"/>
  <path d="M 37.044039999999995,60.59767200000002 L 34.544039999999995,60.59767200000002" fill="none" stroke="rgb(0,178,178)" stroke-width="0.1"/>
  <path d="M 37.044039999999995,62.09767200000002 L 34.544039999999995,62.09767200000002" fill="none" stroke="rgb(0,178,178)" stroke-width="0.1"/>
  <path d="M 49.544039999999995,3.097672000000017 L 49.544039999999995,0.5976720000000171" fill="none" stroke="rgb(0,178,178)" stroke-width="0.1"/>
  <path d="M 51.044039999999995,3.097672000000017 L 51.044039999999995,0.5976720000000171" fill="none" stroke="rgb(0,178,178)" stroke-width="0.1"/>
  <path d="M 64.54404,3.097672000000017 L 64.54404,0.5976720000000171" fill="none" stroke="rgb(0,178,178)" stroke-width="0.1"/>
  <path d="M 66.04404,3.097672000000017 L 66.04404,0.5976720000000171" fill="none" stroke="rgb(0,178,178)" stroke-width="0.1"/>
  <path d="M 79.54404,3.097672000000017 L 79.54404,0.5976720000000171" fill="none" stroke="rgb(0,178,178)" stroke-width="0.1"/>
  <path d="M 81.04404,3.097672000000017 L 81.04404,0.5976720000000171" fill="none" stroke="rgb(0,178,178)" stroke-width="0.1"/>
  <path d="M 94.54404,3.097672000000017 L 94.54404,0.5976720000000171" fill="none" stroke="rgb(0,178,178)" stroke-width="0.1"/>
  <path d="M 96.04404,3.097672000000017 L 96.04404,0.5976720000000171" fill="none" stroke="rgb(0,178,178)" stroke-width="0.1"/>
  <path d="M 37.04304000000002,75.09767200000002 L 34.54304000000002,75.09767200000002" fill="none" stroke="rgb(0,178,178)" stroke-width="0.1"/>
  <path d="M 37.04304000000002,76.59767200000002 L 34.54304000000002,76.59767200000002" fill="none" stroke="rgb(0,178,178)" stroke-width="0.1"/>
  <path d="M 88.04304000000002,3.097672000000017 L 88.04304000000002,21.097672000000017" fill="none" stroke="rgb(0,178,178)" stroke-width="0.1"/>
  <path d="M 37.044039999999995,21.097672000000017 L 88.04304000000002,21.097672000000017" fill="none" stroke="rgb(0,178,178)" stroke-width="0.1"/>
  <path d="M 31.54304000000002,86.59767200000002 L 31.54304000000002,100.0" fill="none" instance-id="8" semantic-id="4" stroke="rgb(0,178,178)" stroke-width="0.1"/>
  <path d="M 33.54304000000002,100.0 L 33.54304000000002,86.59767200000002" fill="none" instance-id="8" semantic-id="4" stroke="rgb(0,178,178)" stroke-width="0.1"/>
  <path d="M 11.548040000000015,83.581672 L 0.0,63.16669890168694" fill="none" stroke="rgb(0,178,178)" stroke-width="0.1"/>
  <path d="M 32.54304000000002,94.09767200000002 A 7.3125,7.3125 0.0 0,0 39.853039999999964,86.97267200000002" fill="none" instance-id="8" semantic-id="4" stroke="rgb(0,178,178)" stroke-width="0.1"/>
  <path d="M 39.65215942458758,99.69794662612031 L 39.51447567939704,99.20327244146341" fill="none" instance-id="8" semantic-id="4" stroke="rgb(0,178,178)" stroke-width="0.1"/>
  <path d="M 39.51447567939704,99.20327244146341 L 39.34241717774978,98.71947988812406" fill="none" instance-id="8" semantic-id="4" stroke="rgb(0,178,178)" stroke-width="0.1"/>
  <path d="M 39.34241717774978,98.71947988812406 L 39.13683229408741,98.24895441775581" fill="none" instance-id="8" semantic-id="4" stroke="rgb(0,178,178)" stroke-width="0.1"/>
  <path d="M 39.13683229408741,98.24895441775581 L 38.898734712472105,97.79401606557539" fill="none" instance-id="8" semantic-id="4" stroke="rgb(0,178,178)" stroke-width="0.1"/>
  <path d="M 38.898734712472105,97.79401606557539 L 38.62929842838139,97.35690801088967" fill="none" instance-id="8" semantic-id="4" stroke="rgb(0,178,178)" stroke-width="0.1"/>
  <path d="M 38.62929842838139,97.35690801088967 L 38.3298519600512,96.93978551657861" fill="none" instance-id="8" semantic-id="4" stroke="rgb(0,178,178)" stroke-width="0.1"/>
  <path d="M 38.3298519600512,96.93978551657861 L 38.00187179790714,96.54470530207067" fill="none" instance-id="8" semantic-id="4" stroke="rgb(0,178,178)" stroke-width="0.1"/>
  <path d="M 38.00187179790714,96.54470530207067 L 37.64697512438556,96.17361540220946" fill="none" instance-id="8" semantic-id="4" stroke="rgb(0,178,178)" stroke-width="0.1"/>
  <path d="M 37.64697512438556,96.17361540220946 L 37.2669118400396,95.82834556201507" fill="none" instance-id="8" semantic-id="4" stroke="rgb(0,178,178)" stroke-width="0.1"/>
  <path d="M 37.2669118400396,95.82834556201507 L 36.86355593524763,95.51059821470093" fill="none" instance-id="8" semantic-id="4" stroke="rgb(0,178,178)" stroke-width="0.1"/>
  <path d="M 36.86355593524763,95.51059821470093 L 36.43889625006807,95.22194008743105" fill="none" instance-id="8" semantic-id="4" stroke="rgb(0,178,178)" stroke-width="0.1"/>
  <path d="M 36.43889625006807,95.22194008743105 L 35.99502666780131,94.96379447620748" fill="none" instance-id="8" semantic-id="4" stroke="rgb(0,178,178)" stroke-width="0.1"/>
  <path d="M 35.99502666780131,94.96379447620748 L 35.534135790610776,94.73743422797861" fill="none" instance-id="8" semantic-id="4" stroke="rgb(0,178,178)" stroke-width="0.1"/>
  <path d="M 35.534135790610776,94.73743422797861 L 35.05849614811177,94.54397546457122" fill="none" instance-id="8" semantic-id="4" stroke="rgb(0,178,178)" stroke-width="0.1"/>
  <path d="M 35.05849614811177,94.54397546457122 L 34.57045299213553,94.3843720793925" fill="none" instance-id="8" semantic-id="4" stroke="rgb(0,178,178)" stroke-width="0.1"/>
  <path d="M 34.57045299213553,94.3843720793925 L 34.07241273292016,94.25941103403673" fill="none" instance-id="8" semantic-id="4" stroke="rgb(0,178,178)" stroke-width="0.1"/>
  <path d="M 34.07241273292016,94.25941103403673 L 33.56683107374522,94.16970847798828" fill="none" instance-id="8" semantic-id="4" stroke="rgb(0,178,178)" stroke-width="0.1"/>
  <path d="M 33.56683107374522,94.16970847798828 L 33.056200902516025,94.11570671055324" fill="none" instance-id="8" semantic-id="4" stroke="rgb(0,178,178)" stroke-width="0.1"/>
  <path d="M 33.056200902516025,94.11570671055324 L 32.54304000000002,94.09767200000002" fill="none" instance-id="8" semantic-id="4" stroke="rgb(0,178,178)" stroke-width="0.1"/>
  <path d="M 99.86636513953044,69.63615192662542 L 99.60852239859935,69.19173525534956" fill="none" instance-id="6" semantic-id="4" stroke="rgb(0,178,178)" stroke-width="0.1"/>
  <path d="M 99.60852239859935,69.19173525534956 L 99.32394446413537,68.76394505446251" fill="none" instance-id="6" semantic-id="4" stroke="rgb(0,178,178)" stroke-width="0.1"/>
  <path d="M 99.32394446413537,68.76394505446251 L 99.01369985209794,68.35438756465123" fill="none" instance-id="6" semantic-id="4" stroke="rgb(0,178,178)" stroke-width="0.1"/>
  <path d="M 99.01369985209794,68.35438756465123 L 98.67895345013005,67.96460056752551" fill="none" instance-id="6" semantic-id="4" stroke="rgb(0,178,178)" stroke-width="0.1"/>
  <path d="M 98.67895345013005,67.96460056752551 L 98.32096214370847,67.59604761164897" fill="none" instance-id="6" semantic-id="4" stroke="rgb(0,178,178)" stroke-width="0.1"/>
  <path d="M 98.32096214370847,67.59604761164897 L 97.94107009686684,67.25011251729566" fill="none" instance-id="6" semantic-id="4" stroke="rgb(0,178,178)" stroke-width="0.1"/>
  <path d="M 97.94107009686684,67.25011251729566 L 97.54070370520981,66.92809418056567" fill="none" instance-id="6" semantic-id="4" stroke="rgb(0,178,178)" stroke-width="0.1"/>
  <path d="M 97.54070370520981,66.92809418056567 L 97.12136624016978,66.63120169636895" fill="none" instance-id="6" semantic-id="4" stroke="rgb(0,178,178)" stroke-width="0.1"/>
  <path d="M 97.12136624016978,66.63120169636895 L 96.68463220461388,66.36054981858896" fill="none" instance-id="6" semantic-id="4" stroke="rgb(0,178,178)" stroke-width="0.1"/>
  <path d="M 96.68463220461388,66.36054981858896 L 96.23214142099687,66.11715477447262" fill="none" instance-id="6" semantic-id="4" stroke="rgb(0,178,178)" stroke-width="0.1"/>
  <path d="M 96.23214142099687,66.11715477447262 L 95.76559287425471,65.90193044896182" fill="none" instance-id="6" semantic-id="4" stroke="rgb(0,178,178)" stroke-width="0.1"/>
  <path d="M 95.76559287425471,65.90193044896182 L 95.2867383325596,65.71568495329359" fill="none" instance-id="6" semantic-id="4" stroke="rgb(0,178,178)" stroke-width="0.1"/>
  <path d="M 95.2867383325596,65.71568495329359 L 94.79737576988657,65.55911759075329" fill="none" instance-id="6" semantic-id="4" stroke="rgb(0,178,178)" stroke-width="0.1"/>
  <path d="M 94.79737576988657,65.55911759075329 L 94.29934261509027,65.43281623097286" fill="none" instance-id="6" semantic-id="4" stroke="rgb(0,178,178)" stroke-width="0.1"/>
  <path d="M 94.29934261509027,65.43281623097286 L 93.79450885283836,65.33725510263378" fill="none" instance-id="6" semantic-id="4" stroke="rgb(0,178,178)" stroke-width="0.1"/>
  <path d="M 93.79450885283836,65.33725510263378 L 93.28477000230714,65.27279301286185" fill="none" instance-id="6" semantic-id="4" stroke="rgb(0,178,178)" stroke-width="0.1"/>
  <path d="M 93.28477000230714,65.27279301286185 L 92.77204000000006,65.23967200000001" fill="none" instance-id="6" semantic-id="4" stroke="rgb(0,178,178)" stroke-width="0.1"/>
  <path d="M 55.54704000000004,75.59767200000002 A 9.75,9.75 0.0 0,0 65.29304000000002,85.09767200000002" fill="none" instance-id="4" semantic-id="3" stroke="rgb(0,178,178)" stroke-width="0.1"/>
  <path d="M 90.04304000000002,3.097672000000017 L 90.04304000000002,7.097672000000017" fill="none" stroke="rgb(0,178,178)" stroke-width="0.1"/>
  <path d="M 39.044039999999995,3.097672000000017 L 39.044039999999995,7.097672000000017" fill="none" stroke="rgb(0,178,178)" stroke-width="0.1"/>
  <path d="M 92.77204000000006,73.61467200000001 L 92.77204000000006,65.309672" fill="none" instance-id="6" semantic-id="4" stroke="rgb(0,178,178)" stroke-width="0.1"/>
  <path d="M 39.85604000000001,86.97267200000002 L 39.85604000000001,86.59767200000002" fill="none" instance-id="8" semantic-id="4" stroke="rgb(0,178,178)" stroke-width="0.1"/>
  <path d="M 39.85604000000001,86.59767200000002 L 32.54304000000002,86.59767200000002" fill="none" instance-id="8" semantic-id="4" stroke="rgb(0,178,178)" stroke-width="0.1"/>
  <path d="M 32.54304000000002,86.59767200000002 L 32.54304000000002,86.97267200000002" fill="none" instance-id="8" semantic-id="4" stroke="rgb(0,178,178)" stroke-width="0.1"/>
  <path d="M 32.54304000000002,86.97267200000002 L 39.85604000000001,86.97267200000002" fill="none" instance-id="8" semantic-id="4" stroke="rgb(0,178,178)" stroke-width="0.1"/>
  <path d="M 65.29304000000002,75.09767200000002 L 65.29304000000002,75.59767200000002" fill="none" instance-id="4" semantic-id="3" stroke="rgb(0,178,178)" stroke-width="0.1"/>
  <path d="M 65.29304000000002,75.59767200000002 L 55.54304000000002,75.59767200000002" fill="none" instance-id="4" semantic-id="3" stroke="rgb(0,178,178)" stroke-width="0.1"/>
  <path d="M 55.54304000000002,75.59767200000002 L 55.54304000000002,75.09767200000002" fill="none" instance-id="4" semantic-id="3" stroke="rgb(0,178,178)" stroke-width="0.1"/>
  <path d="M 55.54304000000002,75.09767200000002 L 65.29304000000002,75.09767200000002" fill="none" instance-id="4" semantic-id="3" stroke="rgb(0,178,178)" stroke-width="0.1"/>
 </g>
 <g id="layerdote" inkscape:groupmode="layer" inkscape:label="dote">
  <path d="M 0.0,2.097672000000017 L 100.0,2.097672000000017" fill="none" stroke="rgb(178,0,0)" stroke-width="0.1"/>
  <path d="M 0.0,73.59767200000002 L 100.0,73.59767200000002" fill="none" stroke="rgb(178,0,0)" stroke-width="0.1"/>
  <path d="M 0.0,20.097672000000017 L 100.0,20.097672000000017" fill="none" stroke="rgb(178,0,0)" stroke-width="0.1"/>
  <path d="M 0.0,45.09767200000002 L 100.0,45.09767200000002" fill="none" stroke="rgb(178,0,0)" stroke-width="0.1"/>
  <path d="M 0.0,81.59767200000002 L 100.0,81.59767200000002" fill="none" stroke="rgb(178,0,0)" stroke-width="0.1"/>
  <path d="M 0.0,70.59767200000002 L 100.0,70.59767200000002" fill="none" stroke="rgb(178,0,0)" stroke-width="0.1"/>
  <path d="M 0.0,57.59767200000002 L 100.0,57.59767200000002" fill="none" stroke="rgb(178,0,0)" stroke-width="0.1"/>
  <path d="M 2.543040000000019,0.0 L 2.543040000000019,100.0" fill="none" stroke="rgb(178,0,0)" stroke-width="0.1"/>
  <path d="M 90.04304000000002,0.0 L 90.04304000000002,100.0" fill="none" stroke="rgb(178,0,0)" stroke-width="0.1"/>
  <path d="M 69.54304000000002,0.0 L 69.54304000000002,100.0" fill="none" stroke="rgb(178,0,0)" stroke-width="0.1"/>
  <path d="M 32.54304000000002,0.0 L 32.54304000000002,100.0" fill="none" stroke="rgb(178,0,0)" stroke-width="0.1"/>
 </g>
 <g id="layer填充" inkscape:groupmode="layer" inkscape:label="填充">
  <path d="M 4.778040000000033,82.677672 L 15.858040000000074,71.59767200000002" fill="none" stroke="rgb(89,89,89)" stroke-width="0.1"/>
  <path d="M 4.778040000000033,93.902672 L 27.083039999999983,71.59767200000002" fill="none" stroke="rgb(89,89,89)" stroke-width="0.1"/>
  <path d="M 11.809039999999982,98.09767200000002 L 31.54304000000002,78.362672" fill="none" stroke="rgb(89,89,89)" stroke-width="0.1"/>
  <path d="M 21.131469480576243,100.0 L 31.54304000000002,89.587672" fill="none" stroke="rgb(89,89,89)" stroke-width="0.1"/>
  <path d="M 31.54304000000002,100.0 L 31.54304000000002,71.59767200000002" fill="none" stroke="rgb(89,89,89)" stroke-width="0.1"/>
  <path d="M 31.54304000000002,71.59767200000002 L 4.778040000000033,71.59767200000002" fill="none" stroke="rgb(89,89,89)" stroke-width="0.1"/>
  <path d="M 4.778040000000033,71.59767200000002 L 4.778040000000033,98.09767200000002" fill="none" stroke="rgb(89,89,89)" stroke-width="0.1"/>
  <path d="M 4.778040000000033,98.09767200000002 L 17.798040000000015,98.09767200000002" fill="none" stroke="rgb(89,89,89)" stroke-width="0.1"/>
  <path d="M 17.798040000000015,98.09767200000002 L 17.798040000000015,100.0" fill="none" stroke="rgb(89,89,89)" stroke-width="0.1"/>
 </g>
 <g id="layer尺寸2" inkscape:groupmode="layer" inkscape:label="尺寸2">
  <path d="M 44.454039999999964,86.59767200000002 L 51.454039999999964,86.59767200000002" fill="none" stroke="rgb(254,255,12)" stroke-width="0.1"/>
  <path d="M 47.33504000000005,85.97867200000002 L 48.572040000000015,87.21667200000002" fill="none" stroke="rgb(254,255,12)" stroke-width="0.1"/>
  <path d="M 50.53904,85.09767200000002 L 57.53904,85.09767200000002" fill="none" stroke="rgb(254,255,12)" stroke-width="0.1"/>
  <path d="M 50.53904,75.09767200000002 L 57.53904,75.09767200000002" fill="none" stroke="rgb(254,255,12)" stroke-width="0.1"/>
  <path d="M 50.53904,70.59767200000002 L 57.53904,70.59767200000002" fill="none" stroke="rgb(254,255,12)" stroke-width="0.1"/>
  <path d="M 53.42003999999997,84.47867200000002 L 54.65704000000005,85.71667200000002" fill="none" stroke="rgb(254,255,12)" stroke-width="0.1"/>
  <path d="M 53.42003999999997,74.47867200000002 L 54.65704000000005,75.71667200000002" fill="none" stroke="rgb(254,255,12)" stroke-width="0.1"/>
  <path d="M 53.42003999999997,69.97867200000002 L 54.65704000000005,71.21667200000002" fill="none" stroke="rgb(254,255,12)" stroke-width="0.1"/>
  <path d="M 47.954039999999964,100.0 L 47.954039999999964,86.59767200000002" fill="none" stroke="rgb(254,255,12)" stroke-width="0.1"/>
  <path d="M 47.954039999999964,86.59767200000002 L 38.37904000000003,86.59767200000002" fill="none" stroke="rgb(254,255,12)" stroke-width="0.1"/>
  <path d="M 64.29304000000002,85.09767200000002 L 54.03904,85.09767200000002" fill="none" stroke="rgb(254,255,12)" stroke-width="0.1"/>
  <path d="M 54.03904,85.09767200000002 L 54.03904,70.59767200000002" fill="none" stroke="rgb(254,255,12)" stroke-width="0.1"/>
  <path d="M 54.03904,70.59767200000002 L 64.29304000000002,70.59767200000002" fill="none" stroke="rgb(254,255,12)" stroke-width="0.1"/>
  <text fill="rgb(0,0,0)" font-family="Noto Sans CJK SC" font-size="2" transform="rotate(-450.0,46.23804000000007,98.18067200000002)" x="46.23804000000007" y="98.18067200000002">
   1500
  </text>
  <text fill="rgb(0,0,0)" font-family="Noto Sans CJK SC" font-size="2" transform="rotate(-450.0,52.32403999999997,75.997672)" x="52.32403999999997" y="75.997672">
   450
  </text>
  <text fill="rgb(0,0,0)" font-family="Noto Sans CJK SC" font-size="2" transform="rotate(-450.0,52.32403999999997,84.18067200000002)" x="52.32403999999997" y="84.18067200000002">
   1000
  </text>
 </g>
 <g id="layer文字" inkscape:groupmode="layer" inkscape:label="文字">
  <text fill="rgb(0,178,0)" font-family="Noto Sans CJK SC" font-size="2" transform="rotate(-0.0,11.507040000000075,89.903672)" x="11.507040000000075" y="89.903672">
   配电间
  </text>
  <text fill="rgb(0,178,0)" font-family="Noto Sans CJK SC" font-size="2" transform="rotate(-0.0,71.13004000000001,84.356672)" x="71.13004000000001" y="84.356672">
   工具间
  </text>
 </g>
 <g id="layer暖留洞" inkscape:groupmode="layer" inkscape:label="暖留洞">
  <path d="M 14.543040000000019,57.58967200000001 L 14.543040000000019,79.767672" fill="none" stroke="rgb(255,73,12)" stroke-width="0.1"/>
  <path d="M 16.79304000000002,69.59767200000002 L 12.293040000000019,71.59767200000002" fill="none" instance-id="9" semantic-id="19" stroke="rgb(255,73,12)" stroke-width="0.1"/>
  <path d="M 33.71004000000005,50.48367200000001 L 12.744040000000041,50.48367200000001" fill="none" stroke="rgb(255,73,12)" stroke-width="0.1"/>
  <path d="M 12.744040000000041,50.48367200000001 L 14.543040000000019,70.59767200000002" fill="none" stroke="rgb(255,73,12)" stroke-width="0.1"/>
  <path d="M 26.54304000000002,91.58967200000001 L 26.54304000000002,100.0" fill="none" stroke="rgb(255,73,12)" stroke-width="0.1"/>
  <path d="M 67.30003999999997,89.247672 L 86.18304,89.247672" fill="none" stroke="rgb(255,73,12)" stroke-width="0.1"/>
  <path d="M 86.18304,89.247672 L 100.0,81.4904160080564" fill="none" stroke="rgb(255,73,12)" stroke-width="0.1"/>
  <path d="M 12.293040000000019,71.59767200000002 L 16.79304000000002,71.59767200000002" fill="none" instance-id="9" semantic-id="19" stroke="rgb(255,73,12)" stroke-width="0.1"/>
  <path d="M 16.79304000000002,71.59767200000002 L 16.79304000000002,69.59767200000002" fill="none" instance-id="9" semantic-id="19" stroke="rgb(255,73,12)" stroke-width="0.1"/>
  <path d="M 16.79304000000002,69.59767200000002 L 12.293040000000019,69.59767200000002" fill="none" instance-id="9" semantic-id="19" stroke="rgb(255,73,12)" stroke-width="0.1"/>
  <path d="M 12.293040000000019,69.59767200000002 L 12.293040000000019,71.59767200000002" fill="none" instance-id="9" semantic-id="19" stroke="rgb(255,73,12)" stroke-width="0.1"/>
  <text fill="rgb(255,73,12)" font-family="Noto Sans CJK SC" font-size="2" transform="rotate(-0.0,15.797040000000038,49.819672)" x="15.797040000000038" y="49.819672">
   洞400x400
  </text>
  <text fill="rgb(255,73,12)" font-family="Noto Sans CJK SC" font-size="2" transform="rotate(-0.0,15.486040000000003,55.844672)" x="15.486040000000003" y="55.844672">
   洞顶贴梁底
  </text>
  <text fill="rgb(255,73,12)" font-family="Noto Sans CJK SC" font-size="2" transform="rotate(-0.0,68.20904000000007,88.583672)" x="68.20904000000007" y="88.583672">
   洞500x700
  </text>
  <text fill="rgb(255,73,12)" font-family="Noto Sans CJK SC" font-size="2" transform="rotate(-0.0,67.82004000000006,94.60867200000001)" x="67.82004000000006" y="94.60867200000001">
   洞底距地400
  </text>
 </g>
 <g id="layer砼墙" inkscape:groupmode="layer" inkscape:label="砼墙">
  <path d="M 91.79503999999997,47.09767200000002 L 92.29503999999997,47.09767200000002" fill="none" instance-id="-1" semantic-id="1" stroke="rgb(142,0,71)" stroke-width="0.1"/>
  <path d="M 92.29503999999997,47.09767200000002 L 92.29503999999997,46.59767200000002" fill="none" instance-id="-1" semantic-id="1" stroke="rgb(142,0,71)" stroke-width="0.1"/>
  <path d="M 92.29503999999997,43.09767200000002 L 88.29503999999997,43.09767200000002" fill="none" instance-id="-1" semantic-id="1" stroke="rgb(142,0,71)" stroke-width="0.1"/>
  <path d="M 88.29503999999997,43.09767200000002 L 88.29503999999997,47.09767200000002" fill="none" instance-id="-1" semantic-id="1" stroke="rgb(142,0,71)" stroke-width="0.1"/>
  <path d="M 4.795039999999972,98.09767200000002 L 17.798040000000015,98.09767200000002" fill="none" instance-id="-1" semantic-id="1" stroke="rgb(142,0,71)" stroke-width="0.1"/>
  <path d="M 0.7950399999999718,98.09767200000002 L 0.7950399999999718,69.59767200000002" fill="none" instance-id="-1" semantic-id="1" stroke="rgb(142,0,71)" stroke-width="0.1"/>
  <path d="M 4.795039999999972,98.09767200000002 L 4.795039999999972,73.59767200000002" fill="none" instance-id="-1" semantic-id="1" stroke="rgb(142,0,71)" stroke-width="0.1"/>
  <path d="M 17.798040000000015,100.0 L 17.798040000000015,98.09767200000002" fill="none" instance-id="-1" semantic-id="1" stroke="rgb(142,0,71)" stroke-width="0.1"/>
  <path d="M 91.79404,100.0 L 91.79404,98.59767200000002" fill="none" instance-id="-1" semantic-id="1" stroke="rgb(142,0,71)" stroke-width="0.1"/>
  <path d="M 63.79503999999997,98.59767200000002 L 88.29404,98.59767200000002" fill="none" instance-id="-1" semantic-id="1" stroke="rgb(142,0,71)" stroke-width="0.1"/>
  <path d="M 88.29404,98.59767200000002 L 88.29503999999997,47.09767200000002" fill="none" instance-id="-1" semantic-id="1" stroke="rgb(142,0,71)" stroke-width="0.1"/>
  <path d="M 91.79404,98.59767200000002 L 91.79503999999997,47.09767200000002" fill="none" instance-id="-1" semantic-id="1" stroke="rgb(142,0,71)" stroke-width="0.1"/>
  <path d="M 63.79503999999997,100.0 L 63.79503999999997,98.59767200000002" fill="none" instance-id="-1" semantic-id="1" stroke="rgb(142,0,71)" stroke-width="0.1"/>
  <path d="M 0.7950399999999718,100.0 L 0.7950399999999718,98.09767200000002" fill="none" instance-id="-1" semantic-id="1" stroke="rgb(142,0,71)" stroke-width="0.1"/>
  <path d="M 92.29503999999997,46.59767200000002 L 92.29503999999997,43.09767200000002" fill="none" instance-id="-1" semantic-id="1" stroke="rgb(142,0,71)" stroke-width="0.1"/>
  <path d="M 71.29503999999997,69.59767200000002 L 71.29503999999997,73.59767200000002" fill="none" instance-id="-1" semantic-id="1" stroke="rgb(142,0,71)" stroke-width="0.1"/>
  <path d="M 58.79503999999997,69.59767200000002 L 71.29503999999997,69.59767200000002" fill="none" instance-id="-1" semantic-id="1" stroke="rgb(142,0,71)" stroke-width="0.1"/>
  <path d="M 58.79503999999997,73.59767200000002 L 71.29503999999997,73.59767200000002" fill="none" instance-id="-1" semantic-id="1" stroke="rgb(142,0,71)" stroke-width="0.1"/>
  <path d="M 58.79503999999997,73.59767200000002 L 58.79503999999997,69.59767200000002" fill="none" instance-id="-1" semantic-id="1" stroke="rgb(142,0,71)" stroke-width="0.1"/>
  <path d="M 39.79503999999997,73.59767200000002 L 39.79503999999997,69.59767200000002" fill="none" instance-id="-1" semantic-id="1" stroke="rgb(142,0,71)" stroke-width="0.1"/>
  <path d="M 28.79503999999997,69.59767200000002 L 39.79503999999997,69.59767200000002" fill="none" instance-id="-1" semantic-id="1" stroke="rgb(142,0,71)" stroke-width="0.1"/>
  <path d="M 28.79503999999997,73.59767200000002 L 39.79503999999997,73.59767200000002" fill="none" instance-id="-1" semantic-id="1" stroke="rgb(142,0,71)" stroke-width="0.1"/>
  <path d="M 28.79503999999997,73.59767200000002 L 28.79503999999997,69.59767200000002" fill="none" instance-id="-1" semantic-id="1" stroke="rgb(142,0,71)" stroke-width="0.1"/>
  <path d="M 11.295039999999972,73.59767200000002 L 11.295039999999972,69.59767200000002" fill="none" instance-id="-1" semantic-id="1" stroke="rgb(142,0,71)" stroke-width="0.1"/>
  <path d="M 0.7950399999999718,69.59767200000002 L 11.295039999999972,69.59767200000002" fill="none" instance-id="-1" semantic-id="1" stroke="rgb(142,0,71)" stroke-width="0.1"/>
  <path d="M 4.795039999999972,73.59767200000002 L 11.295039999999972,73.59767200000002" fill="none" instance-id="-1" semantic-id="1" stroke="rgb(142,0,71)" stroke-width="0.1"/>
  <path d="M 4.795039999999972,73.59767200000002 L 11.295039999999972,73.59767200000002" fill="none" instance-id="-1" semantic-id="1" stroke="rgb(142,0,71)" stroke-width="0.1"/>
  <path d="M 11.295039999999972,73.59767200000002 L 11.295039999999972,69.59767200000002" fill="none" instance-id="-1" semantic-id="1" stroke="rgb(142,0,71)" stroke-width="0.1"/>
  <path d="M 11.295039999999972,69.59767200000002 L 0.7950399999999718,69.59767200000002" fill="none" instance-id="-1" semantic-id="1" stroke="rgb(142,0,71)" stroke-width="0.1"/>
  <path d="M 0.7950399999999718,69.59767200000002 L 0.7950399999999718,98.09767200000002" fill="none" instance-id="-1" semantic-id="1" stroke="rgb(142,0,71)" stroke-width="0.1"/>
  <path d="M 0.7950399999999718,98.09767200000002 L 0.7950399999999718,100.0" fill="none" instance-id="-1" semantic-id="1" stroke="rgb(142,0,71)" stroke-width="0.1"/>
  <path d="M 17.798040000000015,100.0 L 17.798040000000015,98.09767200000002" fill="none" instance-id="-1" semantic-id="1" stroke="rgb(142,0,71)" stroke-width="0.1"/>
  <path d="M 17.798040000000015,98.09767200000002 L 4.795039999999972,98.09767200000002" fill="none" instance-id="-1" semantic-id="1" stroke="rgb(142,0,71)" stroke-width="0.1"/>
  <path d="M 4.795039999999972,98.09767200000002 L 4.795039999999972,73.59767200000002" fill="none" instance-id="-1" semantic-id="1" stroke="rgb(142,0,71)" stroke-width="0.1"/>
  <path d="M 28.79503999999997,73.59767200000002 L 28.79503999999997,69.59767200000002" fill="none" instance-id="-1" semantic-id="1" stroke="rgb(142,0,71)" stroke-width="0.1"/>
  <path d="M 28.79503999999997,69.59767200000002 L 39.79503999999997,69.59767200000002" fill="none" instance-id="-1" semantic-id="1" stroke="rgb(142,0,71)" stroke-width="0.1"/>
  <path d="M 39.79503999999997,69.59767200000002 L 39.79503999999997,73.59767200000002" fill="none" instance-id="-1" semantic-id="1" stroke="rgb(142,0,71)" stroke-width="0.1"/>
  <path d="M 39.79503999999997,73.59767200000002 L 28.79503999999997,73.59767200000002" fill="none" instance-id="-1" semantic-id="1" stroke="rgb(142,0,71)" stroke-width="0.1"/>
  <path d="M 58.79503999999997,73.59767200000002 L 58.79503999999997,69.59767200000002" fill="none" instance-id="-1" semantic-id="1" stroke="rgb(142,0,71)" stroke-width="0.1"/>
  <path d="M 58.79503999999997,69.59767200000002 L 71.29503999999997,69.59767200000002" fill="none" instance-id="-1" semantic-id="1" stroke="rgb(142,0,71)" stroke-width="0.1"/>
  <path d="M 71.29503999999997,69.59767200000002 L 71.29503999999997,73.59767200000002" fill="none" instance-id="-1" semantic-id="1" stroke="rgb(142,0,71)" stroke-width="0.1"/>
  <path d="M 71.29503999999997,73.59767200000002 L 58.79503999999997,73.59767200000002" fill="none" instance-id="-1" semantic-id="1" stroke="rgb(142,0,71)" stroke-width="0.1"/>
  <path d="M 92.29503999999997,46.59767200000002 L 100.0,46.59767200000002" fill="none" instance-id="-1" semantic-id="1" stroke="rgb(142,0,71)" stroke-width="0.1"/>
  <path d="M 100.0,89.79643563636364 L 84.4591865846154,100.0" fill="none" instance-id="-1" semantic-id="1" stroke="rgb(142,0,71)" stroke-width="0.1"/>
  <path d="M 100.0,99.63841774882198 L 91.79404,98.59767200000002" fill="none" instance-id="-1" semantic-id="1" stroke="rgb(142,0,71)" stroke-width="0.1"/>
  <path d="M 91.79404,98.59767200000002 L 88.29404,98.59767200000002" fill="none" instance-id="-1" semantic-id="1" stroke="rgb(142,0,71)" stroke-width="0.1"/>
  <path d="M 88.29404,98.59767200000002 L 78.24449010933347,100.0" fill="none" instance-id="-1" semantic-id="1" stroke="rgb(142,0,71)" stroke-width="0.1"/>
  <path d="M 65.19736799999998,100.0 L 63.79503999999997,98.59767200000002" fill="none" instance-id="-1" semantic-id="1" stroke="rgb(142,0,71)" stroke-width="0.1"/>
  <path d="M 63.79503999999997,98.59767200000002 L 100.0,98.59767200000002" fill="none" instance-id="-1" semantic-id="1" stroke="rgb(142,0,71)" stroke-width="0.1"/>
  <path d="M 100.0,53.3771596857396 L 88.29503999999997,43.09767200000002" fill="none" instance-id="-1" semantic-id="1" stroke="rgb(142,0,71)" stroke-width="0.1"/>
  <path d="M 88.29503999999997,43.09767200000002 L 92.29503999999997,43.09767200000002" fill="none" instance-id="-1" semantic-id="1" stroke="rgb(142,0,71)" stroke-width="0.1"/>
  <path d="M 92.29503999999997,43.09767200000002 L 92.29503999999997,47.09767200000002" fill="none" instance-id="-1" semantic-id="1" stroke="rgb(142,0,71)" stroke-width="0.1"/>
  <path d="M 92.29503999999997,47.09767200000002 L 91.79503999999997,47.09767200000002" fill="none" instance-id="-1" semantic-id="1" stroke="rgb(142,0,71)" stroke-width="0.1"/>
  <path d="M 91.79503999999997,47.09767200000002 L 100.0,46.676904820512846" fill="none" instance-id="-1" semantic-id="1" stroke="rgb(142,0,71)" stroke-width="0.1"/>
  <path d="M 100.0,46.59767200000002 L 92.29503999999997,46.59767200000002" fill="none" instance-id="-1" semantic-id="1" stroke="rgb(142,0,71)" stroke-width="0.1"/>
  <path d="M 91.79404,100.0 L 91.79404,98.59767200000002" fill="none" instance-id="-1" semantic-id="1" stroke="rgb(142,0,71)" stroke-width="0.1"/>
  <path d="M 91.79404,98.59767200000002 L 91.79503999999997,47.09767200000002" fill="none" instance-id="-1" semantic-id="1" stroke="rgb(142,0,71)" stroke-width="0.1"/>
  <path d="M 91.79503999999997,47.09767200000002 L 92.29503999999997,47.09767200000002" fill="none" instance-id="-1" semantic-id="1" stroke="rgb(142,0,71)" stroke-width="0.1"/>
  <path d="M 92.29503999999997,47.09767200000002 L 92.29503999999997,46.59767200000002" fill="none" instance-id="-1" semantic-id="1" stroke="rgb(142,0,71)" stroke-width="0.1"/>
  <path d="M 92.29503999999997,46.59767200000002 L 92.29503999999997,43.09767200000002" fill="none" instance-id="-1" semantic-id="1" stroke="rgb(142,0,71)" stroke-width="0.1"/>
  <path d="M 92.29503999999997,43.09767200000002 L 88.29503999999997,43.09767200000002" fill="none" instance-id="-1" semantic-id="1" stroke="rgb(142,0,71)" stroke-width="0.1"/>
  <path d="M 88.29503999999997,43.09767200000002 L 88.29503999999997,47.09767200000002" fill="none" instance-id="-1" semantic-id="1" stroke="rgb(142,0,71)" stroke-width="0.1"/>
  <path d="M 88.29503999999997,47.09767200000002 L 88.29404,98.59767200000002" fill="none" instance-id="-1" semantic-id="1" stroke="rgb(142,0,71)" stroke-width="0.1"/>
  <path d="M 88.29404,98.59767200000002 L 63.79503999999997,98.59767200000002" fill="none" instance-id="-1" semantic-id="1" stroke="rgb(142,0,71)" stroke-width="0.1"/>
  <path d="M 63.79503999999997,98.59767200000002 L 63.79503999999997,100.0" fill="none" instance-id="-1" semantic-id="1" stroke="rgb(142,0,71)" stroke-width="0.1"/>
 </g>
 <g id="layer立管" inkscape:groupmode="layer" inkscape:label="立管">
  <circle cx="67.04704000000004" cy="74.397672" fill="none" r="0.55" stroke="rgb(178,178,0)" stroke-width="0.1"/>
 </g>
 <g id="layer门窗编号" inkscape:groupmode="layer" inkscape:label="门窗编号">
  <text fill="rgb(178,0,88)" font-family="Noto Sans CJK SC" font-size="2" transform="rotate(-90.0,70.00404000000003,84.922672)" x="70.00404000000003" y="84.922672">
   M1024
  </text>
  <text fill="rgb(178,0,88)" font-family="Noto Sans CJK SC" font-size="2" transform="rotate(-0.0,92.29304000000002,79.094672)" x="92.29304000000002" y="79.094672">
   FM乙1224
  </text>
 </g>
</svg>