<?xml version="1.0" encoding="utf-8"?>
<svg style="background-color: #000;" version="1.1" viewBox="0 0 100.0 100.0" xmlns="http://www.w3.org/2000/svg" xmlns:inkscape="http://www.inkscape.org/namespaces/inkscape">
 <g id="layerAXIS" inkscape:groupmode="layer" inkscape:label="AXIS">
  <path d="M 0.0,98.25672850000001 L 16.518024500000006,98.25672850000001" fill="none" stroke="rgb(0,178,0)" stroke-width="0.1"/>
  <path d="M 0.0,70.25672850000001 L 16.518024500000006,70.25672850000001" fill="none" stroke="rgb(0,178,0)" stroke-width="0.1"/>
  <path d="M 0.0,51.25672850000001 L 16.518024500000006,51.25672850000001" fill="none" stroke="rgb(0,178,0)" stroke-width="0.1"/>
  <path d="M 0.0,0.25672850000000835 L 16.518024500000006,0.25672850000000835" fill="none" stroke="rgb(0,178,0)" stroke-width="0.1"/>
  <path d="M 3.7928245000000054,98.25672850000001 L 10.792824500000005,98.25672850000001" fill="none" stroke="rgb(0,178,0)" stroke-width="0.1"/>
  <path d="M 3.7928245000000054,70.25672850000001 L 10.792824500000005,70.25672850000001" fill="none" stroke="rgb(0,178,0)" stroke-width="0.1"/>
  <path d="M 3.7928245000000054,51.25672850000001 L 10.792824500000005,51.25672850000001" fill="none" stroke="rgb(0,178,0)" stroke-width="0.1"/>
  <path d="M 3.7928245000000054,0.25672850000000835 L 10.792824500000005,0.25672850000000835" fill="none" stroke="rgb(0,178,0)" stroke-width="0.1"/>
  <path d="M 6.674124500000005,97.63872850000001 L 7.911524500000006,98.87572849999998" fill="none" stroke="rgb(0,178,0)" stroke-width="0.1"/>
  <path d="M 6.674124500000005,69.63872850000001 L 7.911524500000006,70.87572849999998" fill="none" stroke="rgb(0,178,0)" stroke-width="0.1"/>
  <path d="M 6.674124500000005,50.63872850000001 L 7.911524500000006,51.87572849999998" fill="none" stroke="rgb(0,178,0)" stroke-width="0.1"/>
  <path d="M 7.035512821827002,0.0 L 7.911524500000006,0.8757284999999797" fill="none" stroke="rgb(0,178,0)" stroke-width="0.1"/>
  <path d="M 7.292824500000005,100.0 L 7.292824500000005,0.0" fill="none" stroke="rgb(0,178,0)" stroke-width="0.1"/>
  <text fill="rgb(0,0,0)" font-family="Noto Sans CJK SC" font-size="2" transform="rotate(-90.0,5.5778245000000055,88.57372850000002)" x="5.5778245000000055" y="88.57372850000002">
   2800
  </text>
  <text fill="rgb(0,0,0)" font-family="Noto Sans CJK SC" font-size="2" transform="rotate(-90.0,5.5778245000000055,64.83972849999998)" x="5.5778245000000055" y="64.83972849999998">
   1900
  </text>
  <text fill="rgb(0,0,0)" font-family="Noto Sans CJK SC" font-size="2" transform="rotate(-90.0,5.5778245000000055,29.83972849999998)" x="5.5778245000000055" y="29.83972849999998">
   5100
  </text>
 </g>
 <g id="layerCOLUMN" inkscape:groupmode="layer" inkscape:label="COLUMN">
  <path d="M 44.584624500000004,26.761728500000004 L 50.584624500000004,26.761728500000004" fill="none" stroke="rgb(0,0,0)" stroke-width="0.1"/>
  <path d="M 50.584624500000004,26.761728500000004 L 50.584624500000004,20.761728500000004" fill="none" stroke="rgb(0,0,0)" stroke-width="0.1"/>
  <path d="M 50.584624500000004,20.761728500000004 L 44.584624500000004,20.761728500000004" fill="none" stroke="rgb(0,0,0)" stroke-width="0.1"/>
  <path d="M 44.584624500000004,20.761728500000004 L 44.584624500000004,26.761728500000004" fill="none" stroke="rgb(0,0,0)" stroke-width="0.1"/>
 </g>
 <g id="layerDOTE" inkscape:groupmode="layer" inkscape:label="DOTE">
  <path d="M 10.339924500000006,70.25672850000001 L 100.0,70.25672850000001" fill="none" stroke="rgb(178,0,0)" stroke-width="0.1"/>
  <path d="M 29.286924500000005,98.25672850000001 L 100.0,98.25672850000001" fill="none" stroke="rgb(178,0,0)" stroke-width="0.1"/>
  <path d="M 26.863424500000008,0.25672850000000835 L 100.0,0.25672850000000835" fill="none" stroke="rgb(178,0,0)" stroke-width="0.1"/>
  <path d="M 10.339924500000006,51.25672850000001 L 100.0,51.25672850000001" fill="none" stroke="rgb(178,0,0)" stroke-width="0.1"/>
 </g>
 <g id="layercar" inkscape:groupmode="layer" inkscape:label="car">
  <path d="M 44.584624500000004,80.7617285 L 98.5842245,80.7617285" fill="none" instance-id="-1" semantic-id="35" stroke="rgb(12,73,255)" stroke-width="0.1"/>
  <path d="M 44.584624500000004,80.7617285 L 44.584624500000004,100.0" fill="none" instance-id="-1" semantic-id="35" stroke="rgb(12,73,255)" stroke-width="0.1"/>
  <path d="M 44.584624500000004,80.7617285 L 87.87041473714166,100.0" fill="none" instance-id="-1" semantic-id="35" stroke="rgb(12,73,255)" stroke-width="0.1"/>
  <path d="M 98.5842245,80.7617285 L 98.5842245,100.0" fill="none" instance-id="-1" semantic-id="35" stroke="rgb(12,73,255)" stroke-width="0.1"/>
  <path d="M 44.584624500000004,56.761728500000004 L 98.5842245,56.761728500000004" fill="none" instance-id="-1" semantic-id="35" stroke="rgb(12,73,255)" stroke-width="0.1"/>
  <path d="M 44.584624500000004,56.761728500000004 L 44.584624500000004,80.7617285" fill="none" instance-id="-1" semantic-id="35" stroke="rgb(12,73,255)" stroke-width="0.1"/>
  <path d="M 44.584624500000004,56.761728500000004 L 98.5842245,80.7617285" fill="none" instance-id="-1" semantic-id="35" stroke="rgb(12,73,255)" stroke-width="0.1"/>
  <path d="M 44.584624500000004,80.7617285 L 98.5842245,80.7617285" fill="none" instance-id="-1" semantic-id="35" stroke="rgb(12,73,255)" stroke-width="0.1"/>
  <path d="M 98.5842245,56.761728500000004 L 98.5842245,80.7617285" fill="none" instance-id="-1" semantic-id="35" stroke="rgb(12,73,255)" stroke-width="0.1"/>
  <path d="M 44.584624500000004,32.761728500000004 L 98.5842245,32.761728500000004" fill="none" instance-id="-1" semantic-id="35" stroke="rgb(12,73,255)" stroke-width="0.1"/>
  <path d="M 44.584624500000004,32.761728500000004 L 44.584624500000004,56.761728500000004" fill="none" instance-id="-1" semantic-id="35" stroke="rgb(12,73,255)" stroke-width="0.1"/>
  <path d="M 44.584624500000004,32.761728500000004 L 98.5842245,56.761728500000004" fill="none" instance-id="-1" semantic-id="35" stroke="rgb(12,73,255)" stroke-width="0.1"/>
  <path d="M 44.584624500000004,56.761728500000004 L 98.5842245,56.761728500000004" fill="none" instance-id="-1" semantic-id="35" stroke="rgb(12,73,255)" stroke-width="0.1"/>
  <path d="M 98.5842245,32.761728500000004 L 98.5842245,56.761728500000004" fill="none" instance-id="-1" semantic-id="35" stroke="rgb(12,73,255)" stroke-width="0.1"/>
  <path d="M 44.584624500000004,0.0 L 44.584624500000004,14.761728500000004" fill="none" instance-id="-1" semantic-id="35" stroke="rgb(12,73,255)" stroke-width="0.1"/>
  <path d="M 65.37058140380833,0.0 L 98.5842245,14.761728500000004" fill="none" instance-id="-1" semantic-id="35" stroke="rgb(12,73,255)" stroke-width="0.1"/>
  <path d="M 44.584624500000004,14.761728500000004 L 98.5842245,14.761728500000004" fill="none" instance-id="-1" semantic-id="35" stroke="rgb(12,73,255)" stroke-width="0.1"/>
  <path d="M 98.5842245,0.0 L 98.5842245,14.761728500000004" fill="none" instance-id="-1" semantic-id="35" stroke="rgb(12,73,255)" stroke-width="0.1"/>
 </g>
</svg>