<?xml version="1.0" encoding="utf-8"?>
<svg style="background-color: #000;" version="1.1" viewBox="0 0 100.0 100.0" xmlns="http://www.w3.org/2000/svg" xmlns:inkscape="http://www.inkscape.org/namespaces/inkscape">
 <g id="layerAXIS" inkscape:groupmode="layer" inkscape:label="AXIS">
  <path d="M 88.62329199999999,99.51972699999999 L 100.0,99.51972699999999" fill="none" stroke="rgb(0,178,0)" stroke-width="0.1"/>
  <path d="M 88.62329199999999,97.01972699999999 L 100.0,97.01972699999999" fill="none" stroke="rgb(0,178,0)" stroke-width="0.1"/>
  <path d="M 88.62329199999999,75.01972699999999 L 100.0,75.01972699999999" fill="none" stroke="rgb(0,178,0)" stroke-width="0.1"/>
  <path d="M 96.62329199999999,72.01972699999999 L 100.0,72.01972699999999" fill="none" stroke="rgb(0,178,0)" stroke-width="0.1"/>
  <path d="M 89.12329199999999,64.01972699999999 L 100.0,64.01972699999999" fill="none" stroke="rgb(0,178,0)" stroke-width="0.1"/>
  <path d="M 88.62329199999999,46.01972699999999 L 100.0,46.01972699999999" fill="none" stroke="rgb(0,178,0)" stroke-width="0.1"/>
  <path d="M 96.62329199999999,39.02022699999999 L 100.0,39.02022699999999" fill="none" stroke="rgb(0,178,0)" stroke-width="0.1"/>
  <path d="M 88.62329199999999,34.769626999999986 L 100.0,34.769626999999986" fill="none" stroke="rgb(0,178,0)" stroke-width="0.1"/>
  <path d="M 88.62329199999999,21.769626999999986 L 100.0,21.769626999999986" fill="none" stroke="rgb(0,178,0)" stroke-width="0.1"/>
  <path d="M 88.62329199999999,9.770126999999988 L 100.0,9.770126999999988" fill="none" stroke="rgb(0,178,0)" stroke-width="0.1"/>
 </g>
 <g id="layerCOLUMN" inkscape:groupmode="layer" inkscape:label="COLUMN">
  <path d="M 69.62829199999999,72.51972699999999 L 69.62829199999999,68.51972699999999" fill="none" stroke="rgb(0,178,178)" stroke-width="0.1"/>
  <path d="M 69.62829199999999,68.51972699999999 L 65.62829199999999,68.51972699999999" fill="none" stroke="rgb(0,178,178)" stroke-width="0.1"/>
  <path d="M 65.62829199999999,68.51972699999999 L 65.62829199999999,72.51972699999999" fill="none" stroke="rgb(0,178,178)" stroke-width="0.1"/>
  <path d="M 65.62829199999999,72.51972699999999 L 69.62829199999999,72.51972699999999" fill="none" stroke="rgb(0,178,178)" stroke-width="0.1"/>
  <path d="M 80.62329199999999,30.769626999999986 L 86.62329199999999,30.769626999999986" fill="none" stroke="rgb(0,178,178)" stroke-width="0.1"/>
  <path d="M 86.62329199999999,30.769626999999986 L 86.62329199999999,24.769626999999986" fill="none" stroke="rgb(0,178,178)" stroke-width="0.1"/>
  <path d="M 86.62329199999999,24.769626999999986 L 80.62329199999999,24.769626999999986" fill="none" stroke="rgb(0,178,178)" stroke-width="0.1"/>
  <path d="M 80.62329199999999,24.769626999999986 L 80.62329199999999,30.769626999999986" fill="none" stroke="rgb(0,178,178)" stroke-width="0.1"/>
  <path d="M 86.62329199999999,100.0 L 86.62329199999999,98.76972699999999" fill="none" stroke="rgb(0,178,178)" stroke-width="0.1"/>
  <path d="M 86.62329199999999,98.76972699999999 L 80.62329199999999,98.76972699999999" fill="none" stroke="rgb(0,178,178)" stroke-width="0.1"/>
  <path d="M 80.62329199999999,98.76972699999999 L 80.62329199999999,100.0" fill="none" stroke="rgb(0,178,178)" stroke-width="0.1"/>
 </g>
 <g id="layerPUB_DIM" inkscape:groupmode="layer" inkscape:label="PUB_DIM">
  <path d="M 81.62329199999999,9.76892699999999 L 73.04229199999997,9.76892699999999" fill="none" stroke="rgb(0,178,0)" stroke-width="0.1"/>
  <path d="M 75.54329199999995,9.76892699999999 L 75.54329199999995,0.0" fill="none" stroke="rgb(0,178,0)" stroke-width="0.1"/>
  <path d="M 12.421291999999994,27.769626999999986 L 2.9362919999999804,27.769626999999986" fill="none" stroke="rgb(0,178,0)" stroke-width="0.1"/>
  <path d="M 5.43629199999998,27.769626999999986 L 5.43629199999998,0.0" fill="none" stroke="rgb(0,178,0)" stroke-width="0.1"/>
  <path d="M 12.421291999999994,52.518726999999984 L 2.9362919999999804,52.518726999999984" fill="none" stroke="rgb(0,178,0)" stroke-width="0.1"/>
  <path d="M 12.421291999999994,27.769626999999986 L 2.9362919999999804,27.769626999999986" fill="none" stroke="rgb(0,178,0)" stroke-width="0.1"/>
  <path d="M 5.43629199999998,52.518726999999984 L 5.43629199999998,27.769626999999986" fill="none" stroke="rgb(0,178,0)" stroke-width="0.1"/>
  <text fill="rgb(0,178,0)" font-family="Noto Sans CJK SC" font-size="2" transform="rotate(-90.0,74.04229199999997,6.418926999999982)" x="74.04229199999997" y="6.418926999999982">
   1500
  </text>
  <text fill="rgb(0,178,0)" font-family="Noto Sans CJK SC" font-size="2" transform="rotate(-90.0,3.9362919999999804,13.769626999999986)" x="3.9362919999999804" y="13.769626999999986">
   3600
  </text>
  <text fill="rgb(0,178,0)" font-family="Noto Sans CJK SC" font-size="2" transform="rotate(-90.0,3.9362919999999804,44.143726999999984)" x="3.9362919999999804" y="44.143726999999984">
   2475
  </text>
 </g>
 <g id="layerWALL" inkscape:groupmode="layer" inkscape:label="WALL">
  <path d="M 55.62829199999999,33.269626999999986 L 55.62829199999999,57.51972699999999" fill="none" instance-id="-1" semantic-id="1" stroke="rgb(254,255,12)" stroke-width="0.1"/>
  <path d="M 52.12829199999999,36.769626999999986 L 52.12829199999999,57.51972699999999" fill="none" instance-id="-1" semantic-id="1" stroke="rgb(254,255,12)" stroke-width="0.1"/>
  <path d="M 69.62829199999999,72.51972699999999 L 69.62829199999999,100.0" fill="none" instance-id="-1" semantic-id="1" stroke="rgb(254,255,12)" stroke-width="0.1"/>
  <path d="M 66.12829199999999,72.51972699999999 L 66.12829199999999,100.0" fill="none" instance-id="-1" semantic-id="1" stroke="rgb(254,255,12)" stroke-width="0.1"/>
  <path d="M 52.12829199999999,36.769626999999986 L 47.12829199999999,36.769626999999986" fill="none" instance-id="-1" semantic-id="1" stroke="rgb(254,255,12)" stroke-width="0.1"/>
  <path d="M 55.62829199999999,33.269626999999986 L 47.12829199999999,33.269626999999986" fill="none" instance-id="-1" semantic-id="1" stroke="rgb(254,255,12)" stroke-width="0.1"/>
  <path d="M 47.12829199999999,36.769626999999986 L 47.12829199999999,33.269626999999986" fill="none" instance-id="-1" semantic-id="1" stroke="rgb(254,255,12)" stroke-width="0.1"/>
  <path d="M 55.62829199999999,72.51972699999999 L 32.62829199999999,72.51972699999999" fill="none" instance-id="-1" semantic-id="1" stroke="rgb(254,255,12)" stroke-width="0.1"/>
  <path d="M 52.12829199999999,69.01972699999999 L 32.62829199999999,69.01972699999999" fill="none" instance-id="-1" semantic-id="1" stroke="rgb(254,255,12)" stroke-width="0.1"/>
  <path d="M 32.62829199999999,72.51972699999999 L 32.62829199999999,69.01972699999999" fill="none" instance-id="-1" semantic-id="1" stroke="rgb(254,255,12)" stroke-width="0.1"/>
  <path d="M 20.878291999999988,56.51972699999999 L 52.12829199999999,56.51972699999999" fill="none" instance-id="-1" semantic-id="1" stroke="rgb(254,255,12)" stroke-width="0.1"/>
  <path d="M 20.878291999999988,58.51972699999999 L 52.12829199999999,58.51972699999999" fill="none" instance-id="-1" semantic-id="1" stroke="rgb(254,255,12)" stroke-width="0.1"/>
  <path d="M 20.878291999999988,56.51972699999999 L 20.878291999999988,58.51972699999999" fill="none" instance-id="-1" semantic-id="1" stroke="rgb(254,255,12)" stroke-width="0.1"/>
  <path d="M 84.62329199999999,24.769626999999986 L 84.62329199999999,9.769626999999986" fill="none" instance-id="-1" semantic-id="1" stroke="rgb(254,255,12)" stroke-width="0.1"/>
  <path d="M 84.62329199999999,9.769626999999986 L 82.62329199999999,9.769626999999986" fill="none" instance-id="-1" semantic-id="1" stroke="rgb(254,255,12)" stroke-width="0.1"/>
  <path d="M 82.62329199999999,9.769626999999986 L 82.62329199999999,24.769626999999986" fill="none" instance-id="-1" semantic-id="1" stroke="rgb(254,255,12)" stroke-width="0.1"/>
  <path d="M 22.628291999999988,0.0 L 22.628291999999988,33.269626999999986" fill="none" instance-id="-1" semantic-id="1" stroke="rgb(254,255,12)" stroke-width="0.1"/>
  <path d="M 20.628291999999988,0.0 L 20.628291999999988,33.269626999999986" fill="none" instance-id="-1" semantic-id="1" stroke="rgb(254,255,12)" stroke-width="0.1"/>
  <path d="M 22.628291999999988,33.269626999999986 L 20.628291999999988,33.269626999999986" fill="none" instance-id="-1" semantic-id="1" stroke="rgb(254,255,12)" stroke-width="0.1"/>
  <path d="M 80.62329199999999,30.320426999999995 L 55.62829199999999,30.320426999999995" fill="none" instance-id="-1" semantic-id="1" stroke="rgb(254,255,12)" stroke-width="0.1"/>
  <path d="M 80.62329199999999,28.320426999999995 L 53.62829199999999,28.320426999999995" fill="none" instance-id="-1" semantic-id="1" stroke="rgb(254,255,12)" stroke-width="0.1"/>
  <path d="M 55.62829199999999,30.320426999999995 L 55.62829199999999,34.26882699999999" fill="none" instance-id="-1" semantic-id="1" stroke="rgb(254,255,12)" stroke-width="0.1"/>
  <path d="M 53.62829199999999,28.320426999999995 L 53.62829199999999,34.26882699999999" fill="none" instance-id="-1" semantic-id="1" stroke="rgb(254,255,12)" stroke-width="0.1"/>
  <path d="M 55.62829199999999,34.26882699999999 L 53.62829199999999,34.26882699999999" fill="none" instance-id="-1" semantic-id="1" stroke="rgb(254,255,12)" stroke-width="0.1"/>
  <path d="M 55.62829199999999,57.51972699999999 L 55.62829199999999,72.51972699999999" fill="none" instance-id="-1" semantic-id="1" stroke="rgb(254,255,12)" stroke-width="0.1"/>
  <path d="M 52.12829199999999,57.51972699999999 L 52.12829199999999,69.01972699999999" fill="none" instance-id="-1" semantic-id="1" stroke="rgb(254,255,12)" stroke-width="0.1"/>
 </g>
 <g id="layerWINDOW" inkscape:groupmode="layer" inkscape:label="WINDOW">
  <path d="M 83.62329199999999,9.394626999999986 L 90.94329200000004,9.394626999999986" fill="none" instance-id="1" semantic-id="4" stroke="rgb(178,178,0)" stroke-width="0.1"/>
  <path d="M 83.62329199999999,9.769626999999986 L 90.94329200000004,9.769626999999986" fill="none" instance-id="1" semantic-id="4" stroke="rgb(178,178,0)" stroke-width="0.1"/>
  <path d="M 90.94329200000004,9.394626999999986 L 90.94329200000004,9.769626999999986" fill="none" instance-id="1" semantic-id="4" stroke="rgb(178,178,0)" stroke-width="0.1"/>
  <path d="M 83.62329199999999,9.769626999999986 L 83.62329199999999,9.394626999999986" fill="none" instance-id="1" semantic-id="4" stroke="rgb(178,178,0)" stroke-width="0.1"/>
  <path d="M 83.62329199999999,2.2696269999999856 L 84.136452902516,2.251592289446755" fill="none" instance-id="1" semantic-id="4" stroke="rgb(178,178,0)" stroke-width="0.1"/>
  <path d="M 84.136452902516,2.251592289446755 L 84.6470830737452,2.1975905220117298" fill="none" instance-id="1" semantic-id="4" stroke="rgb(178,178,0)" stroke-width="0.1"/>
  <path d="M 84.6470830737452,2.1975905220117298 L 85.15266473292013,2.107887965963272" fill="none" instance-id="1" semantic-id="4" stroke="rgb(178,178,0)" stroke-width="0.1"/>
  <path d="M 85.15266473292013,2.107887965963272 L 85.6507049921355,1.982926920607504" fill="none" instance-id="1" semantic-id="4" stroke="rgb(178,178,0)" stroke-width="0.1"/>
  <path d="M 85.6507049921355,1.982926920607504 L 86.13874814811163,1.8233235354287842" fill="none" instance-id="1" semantic-id="4" stroke="rgb(178,178,0)" stroke-width="0.1"/>
  <path d="M 86.13874814811163,1.8233235354287842 L 86.61438779061075,1.6298647720214063" fill="none" instance-id="1" semantic-id="4" stroke="rgb(178,178,0)" stroke-width="0.1"/>
  <path d="M 86.61438779061075,1.6298647720214063 L 87.07527866780129,1.4035045237925345" fill="none" instance-id="1" semantic-id="4" stroke="rgb(178,178,0)" stroke-width="0.1"/>
  <path d="M 87.07527866780129,1.4035045237925345 L 87.51914825006804,1.1453589125689803" fill="none" instance-id="1" semantic-id="4" stroke="rgb(178,178,0)" stroke-width="0.1"/>
  <path d="M 87.51914825006804,1.1453589125689803 L 87.9438079352476,0.8567007852990898" fill="none" instance-id="1" semantic-id="4" stroke="rgb(178,178,0)" stroke-width="0.1"/>
  <path d="M 87.9438079352476,0.8567007852990898 L 88.34716384003957,0.5389534379849437" fill="none" instance-id="1" semantic-id="4" stroke="rgb(178,178,0)" stroke-width="0.1"/>
  <path d="M 88.34716384003957,0.5389534379849437 L 88.72722712438554,0.1936835977905531" fill="none" instance-id="1" semantic-id="4" stroke="rgb(178,178,0)" stroke-width="0.1"/>
  <path d="M 90.93329199999994,9.394626999999986 A 7.3125,7.3125 0.0 0,0 83.62329199999999,2.2696269999999856" fill="none" instance-id="1" semantic-id="4" stroke="rgb(178,178,0)" stroke-width="0.1"/>
 </g>
 <g id="layerWINDOW_TEXT" inkscape:groupmode="layer" inkscape:label="WINDOW_TEXT">
  <text fill="rgb(0,0,0)" font-family="Noto Sans CJK SC" font-size="2" transform="rotate(-90.0,82.33329200000003,8.827726999999996)" x="82.33329200000003" y="8.827726999999996">
   FM甲1521
  </text>
 </g>
 <g id="layerdote" inkscape:groupmode="layer" inkscape:label="dote">
  <path d="M 0.0,99.51972699999999 L 88.62329199999999,99.51972699999999" fill="none" stroke="rgb(178,0,0)" stroke-width="0.1"/>
  <path d="M 0.0,75.01972699999999 L 88.62329199999999,75.01972699999999" fill="none" stroke="rgb(178,0,0)" stroke-width="0.1"/>
  <path d="M 0.0,46.01972699999999 L 88.62329199999999,46.01972699999999" fill="none" stroke="rgb(178,0,0)" stroke-width="0.1"/>
  <path d="M 0.0,9.770089507221797 L 88.62329199999999,9.770126999999988" fill="none" stroke="rgb(178,0,0)" stroke-width="0.1"/>
  <path d="M 20.876292000000035,100.0 L 20.876292000000035,0.0" fill="none" stroke="rgb(178,0,0)" stroke-width="0.1"/>
  <path d="M 68.62629200000003,100.0 L 68.62629200000003,0.0" fill="none" stroke="rgb(178,0,0)" stroke-width="0.1"/>
  <path d="M 54.626292000000035,75.01972699999999 L 54.626292000000035,0.0" fill="none" stroke="rgb(178,0,0)" stroke-width="0.1"/>
  <path d="M 0.0,64.01972699999999 L 89.12329199999999,64.01972699999999" fill="none" stroke="rgb(178,0,0)" stroke-width="0.1"/>
  <path d="M 0.0,39.02018013402726 L 88.62329199999999,39.02022699999999" fill="none" stroke="rgb(178,0,0)" stroke-width="0.1"/>
  <path d="M 0.0,34.76958012177094 L 88.62329199999999,34.769626999999986" fill="none" stroke="rgb(178,0,0)" stroke-width="0.1"/>
  <path d="M 0.0,72.01972699999999 L 88.62329199999999,72.01972699999999" fill="none" stroke="rgb(178,0,0)" stroke-width="0.1"/>
  <path d="M 56.126292000000035,100.0 L 56.126292000000035,90.508727" fill="none" stroke="rgb(178,0,0)" stroke-width="0.1"/>
  <path d="M 0.0,97.01972699999999 L 88.62329199999999,97.01972699999999" fill="none" stroke="rgb(178,0,0)" stroke-width="0.1"/>
  <path d="M 0.0,21.769580121770943 L 88.62329199999999,21.769626999999986" fill="none" stroke="rgb(178,0,0)" stroke-width="0.1"/>
  <path d="M 34.12829199999999,96.01972699999999 L 34.12829199999999,100.0" fill="none" stroke="rgb(178,0,0)" stroke-width="0.1"/>
 </g>
 <g id="layer剪力墙填充" inkscape:groupmode="layer" inkscape:label="剪力墙填充">
  <path d="M 18.628291999999988,100.0 L 18.628291999999988,95.51972699999999" fill="none" instance-id="-1" semantic-id="1" stroke="rgb(92,92,92)" stroke-width="0.1"/>
  <path d="M 18.628291999999988,95.51972699999999 L 22.628291999999988,95.51972699999999" fill="none" instance-id="-1" semantic-id="1" stroke="rgb(92,92,92)" stroke-width="0.1"/>
  <path d="M 22.628291999999988,95.51972699999999 L 22.628291999999988,100.0" fill="none" instance-id="-1" semantic-id="1" stroke="rgb(92,92,92)" stroke-width="0.1"/>
  <path d="M 69.62829199999999,68.51972699999999 L 69.62829199999999,72.51972699999999" fill="none" instance-id="-1" semantic-id="1" stroke="rgb(92,92,92)" stroke-width="0.1"/>
  <path d="M 69.62829199999999,72.51972699999999 L 69.62829199999999,100.0" fill="none" instance-id="-1" semantic-id="1" stroke="rgb(92,92,92)" stroke-width="0.1"/>
  <path d="M 65.62829199999999,100.0 L 65.62829199999999,72.51972699999999" fill="none" instance-id="-1" semantic-id="1" stroke="rgb(92,92,92)" stroke-width="0.1"/>
  <path d="M 65.62829199999999,72.51972699999999 L 65.62829199999999,68.51972699999999" fill="none" instance-id="-1" semantic-id="1" stroke="rgb(92,92,92)" stroke-width="0.1"/>
  <path d="M 65.62829199999999,68.51972699999999 L 69.62829199999999,68.51972699999999" fill="none" instance-id="-1" semantic-id="1" stroke="rgb(92,92,92)" stroke-width="0.1"/>
  <path d="M 18.628291999999988,37.269626999999986 L 17.878291999999988,37.269626999999986" fill="none" instance-id="-1" semantic-id="1" stroke="rgb(92,92,92)" stroke-width="0.1"/>
  <path d="M 17.878291999999988,37.269626999999986 L 13.128291999999988,37.269626999999986" fill="none" instance-id="-1" semantic-id="1" stroke="rgb(92,92,92)" stroke-width="0.1"/>
  <path d="M 13.128291999999988,37.269626999999986 L 13.128291999999988,33.269626999999986" fill="none" instance-id="-1" semantic-id="1" stroke="rgb(92,92,92)" stroke-width="0.1"/>
  <path d="M 13.128291999999988,33.269626999999986 L 17.878291999999988,33.269626999999986" fill="none" instance-id="-1" semantic-id="1" stroke="rgb(92,92,92)" stroke-width="0.1"/>
  <path d="M 17.878291999999988,33.269626999999986 L 17.878291999999988,31.269626999999986" fill="none" instance-id="-1" semantic-id="1" stroke="rgb(92,92,92)" stroke-width="0.1"/>
  <path d="M 17.878291999999988,31.269626999999986 L 23.878291999999988,31.269626999999986" fill="none" instance-id="-1" semantic-id="1" stroke="rgb(92,92,92)" stroke-width="0.1"/>
  <path d="M 23.878291999999988,31.269626999999986 L 23.878291999999988,33.269626999999986" fill="none" instance-id="-1" semantic-id="1" stroke="rgb(92,92,92)" stroke-width="0.1"/>
  <path d="M 23.878291999999988,33.269626999999986 L 23.878291999999988,37.269626999999986" fill="none" instance-id="-1" semantic-id="1" stroke="rgb(92,92,92)" stroke-width="0.1"/>
  <path d="M 23.878291999999988,37.269626999999986 L 22.628291999999988,37.269626999999986" fill="none" instance-id="-1" semantic-id="1" stroke="rgb(92,92,92)" stroke-width="0.1"/>
  <path d="M 22.628291999999988,37.269626999999986 L 22.628291999999988,68.51972699999999" fill="none" instance-id="-1" semantic-id="1" stroke="rgb(92,92,92)" stroke-width="0.1"/>
  <path d="M 22.628291999999988,68.51972699999999 L 51.62829199999999,68.51972699999999" fill="none" instance-id="-1" semantic-id="1" stroke="rgb(92,92,92)" stroke-width="0.1"/>
  <path d="M 51.62829199999999,68.51972699999999 L 51.62829199999999,60.51972699999999" fill="none" instance-id="-1" semantic-id="1" stroke="rgb(92,92,92)" stroke-width="0.1"/>
  <path d="M 51.62829199999999,60.51972699999999 L 51.62829199999999,54.51972699999999" fill="none" instance-id="-1" semantic-id="1" stroke="rgb(92,92,92)" stroke-width="0.1"/>
  <path d="M 51.62829199999999,54.51972699999999 L 51.62829199999999,37.269626999999986" fill="none" instance-id="-1" semantic-id="1" stroke="rgb(92,92,92)" stroke-width="0.1"/>
  <path d="M 51.62829199999999,37.269626999999986 L 46.12829199999999,37.269626999999986" fill="none" instance-id="-1" semantic-id="1" stroke="rgb(92,92,92)" stroke-width="0.1"/>
  <path d="M 46.12829199999999,37.269626999999986 L 46.12829199999999,33.269626999999986" fill="none" instance-id="-1" semantic-id="1" stroke="rgb(92,92,92)" stroke-width="0.1"/>
  <path d="M 46.12829199999999,33.269626999999986 L 55.62829199999999,33.269626999999986" fill="none" instance-id="-1" semantic-id="1" stroke="rgb(92,92,92)" stroke-width="0.1"/>
  <path d="M 55.62829199999999,33.269626999999986 L 55.62829199999999,54.51972699999999" fill="none" instance-id="-1" semantic-id="1" stroke="rgb(92,92,92)" stroke-width="0.1"/>
  <path d="M 55.62829199999999,54.51972699999999 L 57.62829199999999,54.51972699999999" fill="none" instance-id="-1" semantic-id="1" stroke="rgb(92,92,92)" stroke-width="0.1"/>
  <path d="M 57.62829199999999,54.51972699999999 L 57.62829199999999,60.51972699999999" fill="none" instance-id="-1" semantic-id="1" stroke="rgb(92,92,92)" stroke-width="0.1"/>
  <path d="M 57.62829199999999,60.51972699999999 L 55.62829199999999,60.51972699999999" fill="none" instance-id="-1" semantic-id="1" stroke="rgb(92,92,92)" stroke-width="0.1"/>
  <path d="M 55.62829199999999,60.51972699999999 L 55.62829199999999,72.51972699999999" fill="none" instance-id="-1" semantic-id="1" stroke="rgb(92,92,92)" stroke-width="0.1"/>
  <path d="M 55.62829199999999,72.51972699999999 L 22.628291999999988,72.51972699999999" fill="none" instance-id="-1" semantic-id="1" stroke="rgb(92,92,92)" stroke-width="0.1"/>
  <path d="M 22.628291999999988,72.51972699999999 L 22.628291999999988,75.51972699999999" fill="none" instance-id="-1" semantic-id="1" stroke="rgb(92,92,92)" stroke-width="0.1"/>
  <path d="M 22.628291999999988,75.51972699999999 L 18.628291999999988,75.51972699999999" fill="none" instance-id="-1" semantic-id="1" stroke="rgb(92,92,92)" stroke-width="0.1"/>
  <path d="M 18.628291999999988,75.51972699999999 L 18.628291999999988,72.51972699999999" fill="none" instance-id="-1" semantic-id="1" stroke="rgb(92,92,92)" stroke-width="0.1"/>
  <path d="M 18.628291999999988,72.51972699999999 L 18.628291999999988,37.269626999999986" fill="none" instance-id="-1" semantic-id="1" stroke="rgb(92,92,92)" stroke-width="0.1"/>
 </g>
 <g id="layer文字" inkscape:groupmode="layer" inkscape:label="文字">
  <text fill="rgb(0,0,0)" font-family="Noto Sans CJK SC" font-size="2" transform="rotate(-0.0,36.886292000000026,67.43972699999999)" x="36.886292000000026" y="67.43972699999999">
   风
  </text>
  <text fill="rgb(0,0,0)" font-family="Noto Sans CJK SC" font-size="2" transform="rotate(-0.0,32.94629199999997,17.085426999999996)" x="32.94629199999997" y="17.085426999999996">
   送风机房
  </text>
 </g>
 <g id="layer砼墙" inkscape:groupmode="layer" inkscape:label="砼墙">
  <path d="M 18.628291999999988,37.269626999999986 L 17.878291999999988,37.269626999999986" fill="none" instance-id="-1" semantic-id="1" stroke="rgb(0,178,0)" stroke-width="0.1"/>
  <path d="M 17.878291999999988,37.269626999999986 L 13.128291999999988,37.269626999999986" fill="none" instance-id="-1" semantic-id="1" stroke="rgb(0,178,0)" stroke-width="0.1"/>
  <path d="M 13.128291999999988,37.269626999999986 L 13.128291999999988,33.269626999999986" fill="none" instance-id="-1" semantic-id="1" stroke="rgb(0,178,0)" stroke-width="0.1"/>
  <path d="M 13.128291999999988,33.269626999999986 L 17.878291999999988,33.269626999999986" fill="none" instance-id="-1" semantic-id="1" stroke="rgb(0,178,0)" stroke-width="0.1"/>
  <path d="M 17.878291999999988,33.269626999999986 L 17.878291999999988,31.269626999999986" fill="none" instance-id="-1" semantic-id="1" stroke="rgb(0,178,0)" stroke-width="0.1"/>
  <path d="M 17.878291999999988,31.269626999999986 L 23.878291999999988,31.269626999999986" fill="none" instance-id="-1" semantic-id="1" stroke="rgb(0,178,0)" stroke-width="0.1"/>
  <path d="M 23.878291999999988,31.269626999999986 L 23.878291999999988,33.269626999999986" fill="none" instance-id="-1" semantic-id="1" stroke="rgb(0,178,0)" stroke-width="0.1"/>
  <path d="M 23.878291999999988,33.269626999999986 L 23.878291999999988,37.269626999999986" fill="none" instance-id="-1" semantic-id="1" stroke="rgb(0,178,0)" stroke-width="0.1"/>
  <path d="M 23.878291999999988,37.269626999999986 L 22.628291999999988,37.269626999999986" fill="none" instance-id="-1" semantic-id="1" stroke="rgb(0,178,0)" stroke-width="0.1"/>
  <path d="M 22.628291999999988,37.269626999999986 L 22.628291999999988,68.51972699999999" fill="none" instance-id="-1" semantic-id="1" stroke="rgb(0,178,0)" stroke-width="0.1"/>
  <path d="M 22.628291999999988,68.51972699999999 L 51.62829199999999,68.51972699999999" fill="none" instance-id="-1" semantic-id="1" stroke="rgb(0,178,0)" stroke-width="0.1"/>
  <path d="M 51.62829199999999,68.51972699999999 L 51.62829199999999,60.51972699999999" fill="none" instance-id="-1" semantic-id="1" stroke="rgb(0,178,0)" stroke-width="0.1"/>
  <path d="M 51.62829199999999,60.51972699999999 L 51.62829199999999,54.51972699999999" fill="none" instance-id="-1" semantic-id="1" stroke="rgb(0,178,0)" stroke-width="0.1"/>
  <path d="M 51.62829199999999,54.51972699999999 L 51.62829199999999,37.269626999999986" fill="none" instance-id="-1" semantic-id="1" stroke="rgb(0,178,0)" stroke-width="0.1"/>
  <path d="M 51.62829199999999,37.269626999999986 L 46.12829199999999,37.269626999999986" fill="none" instance-id="-1" semantic-id="1" stroke="rgb(0,178,0)" stroke-width="0.1"/>
  <path d="M 46.12829199999999,37.269626999999986 L 46.12829199999999,33.269626999999986" fill="none" instance-id="-1" semantic-id="1" stroke="rgb(0,178,0)" stroke-width="0.1"/>
  <path d="M 46.12829199999999,33.269626999999986 L 55.62829199999999,33.269626999999986" fill="none" instance-id="-1" semantic-id="1" stroke="rgb(0,178,0)" stroke-width="0.1"/>
  <path d="M 55.62829199999999,33.269626999999986 L 55.62829199999999,54.51972699999999" fill="none" instance-id="-1" semantic-id="1" stroke="rgb(0,178,0)" stroke-width="0.1"/>
  <path d="M 55.62829199999999,54.51972699999999 L 57.62829199999999,54.51972699999999" fill="none" instance-id="-1" semantic-id="1" stroke="rgb(0,178,0)" stroke-width="0.1"/>
  <path d="M 57.62829199999999,54.51972699999999 L 57.62829199999999,60.51972699999999" fill="none" instance-id="-1" semantic-id="1" stroke="rgb(0,178,0)" stroke-width="0.1"/>
  <path d="M 57.62829199999999,60.51972699999999 L 55.62829199999999,60.51972699999999" fill="none" instance-id="-1" semantic-id="1" stroke="rgb(0,178,0)" stroke-width="0.1"/>
  <path d="M 55.62829199999999,60.51972699999999 L 55.62829199999999,72.51972699999999" fill="none" instance-id="-1" semantic-id="1" stroke="rgb(0,178,0)" stroke-width="0.1"/>
  <path d="M 55.62829199999999,72.51972699999999 L 22.628291999999988,72.51972699999999" fill="none" instance-id="-1" semantic-id="1" stroke="rgb(0,178,0)" stroke-width="0.1"/>
  <path d="M 22.628291999999988,72.51972699999999 L 22.628291999999988,75.51972699999999" fill="none" instance-id="-1" semantic-id="1" stroke="rgb(0,178,0)" stroke-width="0.1"/>
  <path d="M 22.628291999999988,75.51972699999999 L 18.628291999999988,75.51972699999999" fill="none" instance-id="-1" semantic-id="1" stroke="rgb(0,178,0)" stroke-width="0.1"/>
  <path d="M 18.628291999999988,75.51972699999999 L 18.628291999999988,72.51972699999999" fill="none" instance-id="-1" semantic-id="1" stroke="rgb(0,178,0)" stroke-width="0.1"/>
  <path d="M 18.628291999999988,72.51972699999999 L 18.628291999999988,37.269626999999986" fill="none" instance-id="-1" semantic-id="1" stroke="rgb(0,178,0)" stroke-width="0.1"/>
  <path d="M 69.62829199999999,68.51972699999999 L 69.62829199999999,72.51972699999999" fill="none" instance-id="-1" semantic-id="1" stroke="rgb(0,178,0)" stroke-width="0.1"/>
  <path d="M 69.62829199999999,72.51972699999999 L 69.62829199999999,100.0" fill="none" instance-id="-1" semantic-id="1" stroke="rgb(0,178,0)" stroke-width="0.1"/>
  <path d="M 65.62829199999999,100.0 L 65.62829199999999,72.51972699999999" fill="none" instance-id="-1" semantic-id="1" stroke="rgb(0,178,0)" stroke-width="0.1"/>
  <path d="M 65.62829199999999,72.51972699999999 L 65.62829199999999,68.51972699999999" fill="none" instance-id="-1" semantic-id="1" stroke="rgb(0,178,0)" stroke-width="0.1"/>
  <path d="M 65.62829199999999,68.51972699999999 L 69.62829199999999,68.51972699999999" fill="none" instance-id="-1" semantic-id="1" stroke="rgb(0,178,0)" stroke-width="0.1"/>
  <path d="M 18.628291999999988,100.0 L 18.628291999999988,95.51972699999999" fill="none" instance-id="-1" semantic-id="1" stroke="rgb(0,178,0)" stroke-width="0.1"/>
  <path d="M 18.628291999999988,95.51972699999999 L 22.628291999999988,95.51972699999999" fill="none" instance-id="-1" semantic-id="1" stroke="rgb(0,178,0)" stroke-width="0.1"/>
  <path d="M 22.628291999999988,95.51972699999999 L 22.628291999999988,100.0" fill="none" instance-id="-1" semantic-id="1" stroke="rgb(0,178,0)" stroke-width="0.1"/>
 </g>
 <g id="layer金属肋" inkscape:groupmode="layer" inkscape:label="金属肋">
  <path d="M 65.62829199999999,68.51972699999999 L 65.62829199999999,68.819727" fill="none" stroke="rgb(178,133,0)" stroke-width="0.1"/>
 </g>
</svg>