<?xml version="1.0" encoding="utf-8"?>
<svg style="background-color: #000;" version="1.1" viewBox="0 0 100.0 100.0" xmlns="http://www.w3.org/2000/svg" xmlns:inkscape="http://www.inkscape.org/namespaces/inkscape">
 <g id="layerC1" inkscape:groupmode="layer" inkscape:label="C1">
  <path d="M 21.47453850000005,72.27272699999997 L 24.984538500000042,72.27272699999997" fill="none" stroke="rgb(79,107,0)" stroke-width="0.1"/>
  <path d="M 21.47453850000005,73.27272699999997 L 24.984538500000042,73.27272699999997" fill="none" stroke="rgb(79,107,0)" stroke-width="0.1"/>
 </g>
 <g id="layerDIM_SYMB" inkscape:groupmode="layer" inkscape:label="DIM_SYMB">
  <path d="M 5.4795385000000465,91.901727 L 20.897538499999996,91.901727" fill="none" stroke="rgb(0,178,0)" stroke-width="0.1"/>
  <path d="M 20.897538499999996,91.901727 L 23.897538499999996,91.901727" fill="none" stroke="rgb(0,178,0)" stroke-width="0.1"/>
  <text fill="rgb(0,178,0)" font-family="Noto Sans CJK SC" font-size="2" transform="rotate(-0.0,10.683538499999997,90.689727)" x="10.683538499999997" y="90.689727">
   1:20
  </text>
 </g>
 <g id="layerEQUIP_消防" inkscape:groupmode="layer" inkscape:label="EQUIP_消防">
  <path d="M 54.23453850000004,51.770726999999994 L 47.73453850000004,51.770726999999994" fill="none" stroke="rgb(0,0,0)" stroke-width="0.1"/>
  <path d="M 54.23453850000004,51.770726999999994 L 47.73453850000004,49.770726999999994" fill="none" stroke="rgb(0,0,0)" stroke-width="0.1"/>
  <path d="M 47.73453850000004,49.770726999999994 L 54.23453850000004,49.770726999999994" fill="none" stroke="rgb(0,0,0)" stroke-width="0.1"/>
  <path d="M 47.73453850000004,51.770726999999994 L 47.73453850000004,49.770726999999994" fill="none" stroke="rgb(0,0,0)" stroke-width="0.1"/>
  <path d="M 54.23453850000004,49.770726999999994 L 54.23453850000004,51.770726999999994" fill="none" stroke="rgb(0,0,0)" stroke-width="0.1"/>
 </g>
 <g id="layerLATRINE" inkscape:groupmode="layer" inkscape:label="LATRINE">
  <path d="M 69.48453850000004,5.988726999999983 L 63.00853850000004,5.988726999999983" fill="none" stroke="rgb(178,0,178)" stroke-width="0.1"/>
  <path d="M 63.00853850000004,5.988726999999983 L 63.00853850000004,6.238726999999983" fill="none" stroke="rgb(178,0,178)" stroke-width="0.1"/>
  <path d="M 63.00853850000004,6.238726999999983 L 69.48453850000004,6.238726999999983" fill="none" stroke="rgb(178,0,178)" stroke-width="0.1"/>
  <path d="M 69.48453850000004,6.238726999999983 L 69.48453850000004,5.988726999999983" fill="none" stroke="rgb(178,0,178)" stroke-width="0.1"/>
  <path d="M 56.23453850000004,6.238726999999983 L 57.00853850000004,6.238726999999983" fill="none" instance-id="1" semantic-id="3" stroke="rgb(178,0,178)" stroke-width="0.1"/>
  <path d="M 57.00853850000004,6.238726999999983 L 57.00853850000004,5.988726999999983" fill="none" instance-id="1" semantic-id="3" stroke="rgb(178,0,178)" stroke-width="0.1"/>
  <path d="M 57.00853850000004,5.988726999999983 L 56.23453850000004,5.988726999999983" fill="none" instance-id="1" semantic-id="3" stroke="rgb(178,0,178)" stroke-width="0.1"/>
  <path d="M 63.00853850000004,6.113726999999983 L 60.00853850000004,0.9167269999999803" fill="none" instance-id="1" semantic-id="3" stroke="rgb(178,0,178)" stroke-width="0.1"/>
  <path d="M 60.00853850000004,0.9167269999999803 A 6.0,6.0 0.0 0,0 57.00853850000004,6.113726999999983" fill="none" instance-id="1" semantic-id="3" stroke="rgb(178,0,178)" stroke-width="0.1"/>
 </g>
 <g id="layerLVTRY" inkscape:groupmode="layer" inkscape:label="LVTRY">
  <path d="M 68.9815385,10.625726999999983 L 68.31153850000004,10.532726999999994" fill="none" instance-id="3" semantic-id="27" stroke="rgb(178,0,178)" stroke-width="0.1"/>
  <path d="M 68.9815385,10.194727 L 68.31153850000004,10.28772699999999" fill="none" instance-id="3" semantic-id="27" stroke="rgb(178,0,178)" stroke-width="0.1"/>
  <path d="M 69.11453850000004,9.919726999999995 L 68.69753850000001,9.919726999999995" fill="none" instance-id="3" semantic-id="27" stroke="rgb(178,0,178)" stroke-width="0.1"/>
  <path d="M 68.91453850000005,10.111727000000002 L 68.91453850000005,9.706727" fill="none" instance-id="3" semantic-id="27" stroke="rgb(178,0,178)" stroke-width="0.1"/>
  <path d="M 68.91453850000005,10.708726999999982 L 68.91453850000005,11.113726999999983" fill="none" instance-id="3" semantic-id="27" stroke="rgb(178,0,178)" stroke-width="0.1"/>
  <path d="M 69.11453850000004,10.90072699999999 L 68.69753850000001,10.90072699999999" fill="none" instance-id="3" semantic-id="27" stroke="rgb(178,0,178)" stroke-width="0.1"/>
  <path d="M 69.48453850000004,2.448726999999991 L 69.48453850000004,0.0" fill="none" stroke="rgb(178,0,178)" stroke-width="0.1"/>
  <path d="M 69.48453850000004,2.448726999999991 L 67.53953850000005,2.448726999999991" fill="none" stroke="rgb(178,0,178)" stroke-width="0.1"/>
  <path d="M 68.31153850000004,10.28772699999999 A 0.130773,0.130773 0.0 0,0 68.24053850000001,10.409726999999975" fill="none" stroke="rgb(178,0,178)" stroke-width="0.1"/>
  <path d="M 68.24053850000001,10.409726999999975 A 0.130773,0.130773 0.0 0,0 68.31153850000004,10.532726999999994" fill="none" stroke="rgb(178,0,178)" stroke-width="0.1"/>
  <path d="M 69.12153850000004,10.502726999999993 A 0.186328,0.186328 0.0 0,0 69.15653850000001,10.41272699999999" fill="none" stroke="rgb(178,0,178)" stroke-width="0.1"/>
  <path d="M 69.15653850000001,10.41272699999999 A 0.186328,0.186328 0.0 0,0 69.12453850000003,10.321726999999981" fill="none" stroke="rgb(178,0,178)" stroke-width="0.1"/>
  <path d="M 68.99653850000004,10.196726999999981 A 0.0343655,0.0343655 0.0 0,0 68.9815385,10.194727" fill="none" stroke="rgb(178,0,178)" stroke-width="0.1"/>
  <path d="M 69.12453850000003,10.321726999999981 A 0.221526,0.221526 0.0 0,0 68.99653850000004,10.196726999999981" fill="none" stroke="rgb(178,0,178)" stroke-width="0.1"/>
  <path d="M 68.97453850000005,10.625726999999983 A 0.0343655,0.0343655 0.0 0,0 68.98953850000004,10.623727000000002" fill="none" stroke="rgb(178,0,178)" stroke-width="0.1"/>
  <path d="M 68.98953850000004,10.623727000000002 A 0.221526,0.221526 0.0 0,0 69.12153850000004,10.502726999999993" fill="none" stroke="rgb(178,0,178)" stroke-width="0.1"/>
  <path d="M 68.81753850000001,10.606726999999978 A 0.19952255511595743,0.19952255511595743 0.0 0,0 68.82353850000004,10.207726999999977" fill="none" instance-id="3" semantic-id="27" stroke="rgb(178,0,178)" stroke-width="0.1"/>
  <path d="M 68.81353850000005,10.606726999999978 A 0.200191,0.200191 0.0 0,0 68.8205385,10.207726999999977" fill="none" instance-id="3" semantic-id="27" stroke="rgb(178,0,178)" stroke-width="0.1"/>
  <path d="M 64.49174406388681,0.07653337157066176 L 64.66034716099654,0.5676574151089255" fill="none" stroke="rgb(178,0,178)" stroke-width="0.1"/>
  <path d="M 64.66034716099654,0.5676574151089255 L 64.90748709234265,1.0243320091369128" fill="none" stroke="rgb(178,0,178)" stroke-width="0.1"/>
  <path d="M 64.90748709234265,1.0243320091369128 L 65.22642252484371,1.4341002611913325" fill="none" stroke="rgb(178,0,178)" stroke-width="0.1"/>
  <path d="M 65.22642252484371,1.4341002611913325 L 65.60845373130371,1.78578476154226" fill="none" stroke="rgb(178,0,178)" stroke-width="0.1"/>
  <path d="M 65.60845373130371,1.78578476154226 L 66.04315989629151,2.0697924737932" fill="none" stroke="rgb(178,0,178)" stroke-width="0.1"/>
  <path d="M 66.04315989629151,2.0697924737932 L 66.51868336882052,2.2783764079067907" fill="none" stroke="rgb(178,0,178)" stroke-width="0.1"/>
  <path d="M 66.51868336882052,2.2783764079067907 L 67.02205310815742,2.4058469378981613" fill="none" stroke="rgb(178,0,178)" stroke-width="0.1"/>
  <path d="M 67.02205310815742,2.4058469378981613 L 67.53953850000005,2.448726999999991" fill="none" stroke="rgb(178,0,178)" stroke-width="0.1"/>
  <path d="M 65.04295675610325,0.1269177779355175 L 65.2352745691731,0.6485472562877703" fill="none" stroke="rgb(178,0,178)" stroke-width="0.1"/>
  <path d="M 65.2352745691731,0.6485472562877703 L 65.51402408991373,1.097223167691908" fill="none" stroke="rgb(178,0,178)" stroke-width="0.1"/>
  <path d="M 65.51402408991373,1.097223167691908 L 65.86403299534646,1.4485241039157586" fill="none" stroke="rgb(178,0,178)" stroke-width="0.1"/>
  <path d="M 65.86403299534646,1.4485241039157586 L 66.26625031761864,1.683328771932878" fill="none" stroke="rgb(178,0,178)" stroke-width="0.1"/>
  <path d="M 66.26625031761864,1.683328771932878 L 66.69878338726528,1.788856764980352" fill="none" stroke="rgb(178,0,178)" stroke-width="0.1"/>
  <path d="M 66.69878338726528,1.788856764980352 L 67.13808945015302,1.759364199482917" fill="none" stroke="rgb(178,0,178)" stroke-width="0.1"/>
  <path d="M 67.13808945015302,1.759364199482917 L 67.56025709845278,1.5964563543591055" fill="none" stroke="rgb(178,0,178)" stroke-width="0.1"/>
  <path d="M 67.56025709845278,1.5964563543591055 L 67.94230776741563,1.3090002957670492" fill="none" stroke="rgb(178,0,178)" stroke-width="0.1"/>
  <path d="M 67.94230776741563,1.3090002957670492 L 68.26344645754415,0.9126422431209562" fill="none" stroke="rgb(178,0,178)" stroke-width="0.1"/>
  <path d="M 68.26344645754415,0.9126422431209562 L 68.5061936054131,0.4289559461224144" fill="none" stroke="rgb(178,0,178)" stroke-width="0.1"/>
  <path d="M 69.56453850000003,9.187726999999995 A 0.100002,0.100002 0.0 0,0 69.48453850000004,9.089726999999982" fill="none" stroke="rgb(178,0,178)" stroke-width="0.1"/>
  <path d="M 69.48453850000004,9.089726999999982 L 68.04753850000003,8.794726999999995" fill="none" instance-id="3" semantic-id="27" stroke="rgb(178,0,178)" stroke-width="0.1"/>
  <path d="M 68.04753850000003,8.794726999999995 A 4.93559,4.93559 0.0 0,0 66.32353850000004,8.711726999999996" fill="none" instance-id="3" semantic-id="27" stroke="rgb(178,0,178)" stroke-width="0.1"/>
  <path d="M 66.32353850000004,8.711726999999996 A 2.6205,2.6205 0.0 0,0 65.15153850000002,9.227726999999987" fill="none" instance-id="3" semantic-id="27" stroke="rgb(178,0,178)" stroke-width="0.1"/>
  <path d="M 65.15153850000002,9.227726999999987 A 2.25376,2.25376 0.0 0,0 64.64853850000003,9.815726999999981" fill="none" instance-id="3" semantic-id="27" stroke="rgb(178,0,178)" stroke-width="0.1"/>
  <path d="M 64.64853850000003,9.815726999999981 A 1.19243,1.19243 0.0 0,0 64.50453850000002,10.409726999999975" fill="none" instance-id="3" semantic-id="27" stroke="rgb(178,0,178)" stroke-width="0.1"/>
  <path d="M 64.50453850000002,10.409726999999975 A 1.19245,1.19245 0.0 0,0 64.64853850000003,11.004727000000003" fill="none" instance-id="3" semantic-id="27" stroke="rgb(178,0,178)" stroke-width="0.1"/>
  <path d="M 64.64853850000003,11.004727000000003 A 2.25375,2.25375 0.0 0,0 65.15153850000002,11.592726999999996" fill="none" instance-id="3" semantic-id="27" stroke="rgb(178,0,178)" stroke-width="0.1"/>
  <path d="M 65.15153850000002,11.592726999999996 A 2.62051,2.62051 0.0 0,0 66.32353850000004,12.108726999999988" fill="none" instance-id="3" semantic-id="27" stroke="rgb(178,0,178)" stroke-width="0.1"/>
  <path d="M 66.32353850000004,12.108726999999988 A 4.93558,4.93558 0.0 0,0 68.04753850000003,12.02572699999999" fill="none" instance-id="3" semantic-id="27" stroke="rgb(178,0,178)" stroke-width="0.1"/>
  <path d="M 68.04753850000003,12.02572699999999 L 69.48453850000004,11.730727000000002" fill="none" instance-id="3" semantic-id="27" stroke="rgb(178,0,178)" stroke-width="0.1"/>
  <path d="M 69.48453850000004,11.730727000000002 A 0.100004,0.100004 0.0 0,0 69.56453850000003,11.632726999999988" fill="none" stroke="rgb(178,0,178)" stroke-width="0.1"/>
  <path d="M 69.56453850000003,11.632726999999988 L 69.56453850000003,9.187726999999995" fill="none" instance-id="3" semantic-id="27" stroke="rgb(178,0,178)" stroke-width="0.1"/>
  <path d="M 68.46553850000004,10.266727000000003 A 1.28124,1.28124 0.0 0,0 68.31453850000003,9.789727" fill="none" instance-id="3" semantic-id="27" stroke="rgb(178,0,178)" stroke-width="0.1"/>
  <path d="M 68.31453850000003,9.789727 A 1.66818,1.66818 0.0 0,0 67.3445385,9.069727" fill="none" instance-id="3" semantic-id="27" stroke="rgb(178,0,178)" stroke-width="0.1"/>
  <path d="M 67.3445385,9.069727 A 2.40031,2.40031 0.0 0,0 66.19453850000002,9.04972699999999" fill="none" instance-id="3" semantic-id="27" stroke="rgb(178,0,178)" stroke-width="0.1"/>
  <path d="M 66.19453850000002,9.04972699999999 A 2.56844,2.56844 0.0 0,0 65.2725385,9.536726999999985" fill="none" instance-id="3" semantic-id="27" stroke="rgb(178,0,178)" stroke-width="0.1"/>
  <path d="M 65.2725385,9.536726999999985 A 1.13895,1.13895 0.0 0,0 64.87453850000003,10.409726999999975" fill="none" instance-id="3" semantic-id="27" stroke="rgb(178,0,178)" stroke-width="0.1"/>
  <path d="M 64.87453850000003,10.409726999999975 A 1.13896,1.13896 0.0 0,0 65.2725385,11.283726999999999" fill="none" instance-id="3" semantic-id="27" stroke="rgb(178,0,178)" stroke-width="0.1"/>
  <path d="M 65.2725385,11.283726999999999 A 2.56842,2.56842 0.0 0,0 66.19453850000002,11.769726999999989" fill="none" instance-id="3" semantic-id="27" stroke="rgb(178,0,178)" stroke-width="0.1"/>
  <path d="M 66.19453850000002,11.769726999999989 A 2.40031,2.40031 0.0 0,0 67.3445385,11.749726999999979" fill="none" instance-id="3" semantic-id="27" stroke="rgb(178,0,178)" stroke-width="0.1"/>
  <path d="M 67.3445385,11.749726999999979 A 1.66819,1.66819 0.0 0,0 68.31453850000003,11.02972699999998" fill="none" instance-id="3" semantic-id="27" stroke="rgb(178,0,178)" stroke-width="0.1"/>
  <path d="M 68.31453850000003,11.02972699999998 A 1.28125,1.28125 0.0 0,0 68.46553850000004,10.55372699999998" fill="none" instance-id="3" semantic-id="27" stroke="rgb(178,0,178)" stroke-width="0.1"/>
  <path d="M 66.76453850000001,11.77972699999998 A 1.95706,1.95706 0.0 0,0 67.7745385,11.499726999999979" fill="none" instance-id="3" semantic-id="27" stroke="rgb(178,0,178)" stroke-width="0.1"/>
  <path d="M 67.7745385,11.499726999999979 A 1.29562,1.29562 0.0 0,0 68.39453850000001,10.689726999999976" fill="none" instance-id="3" semantic-id="27" stroke="rgb(178,0,178)" stroke-width="0.1"/>
  <path d="M 68.39453850000001,10.689726999999976 A 0.0795251,0.0795251 0.0 0,0 68.2505385,10.66072699999998" fill="none" stroke="rgb(178,0,178)" stroke-width="0.1"/>
  <path d="M 67.7145385,11.399726999999984 A 1.11977,1.11977 0.0 0,0 68.2505385,10.66072699999998" fill="none" instance-id="3" semantic-id="27" stroke="rgb(178,0,178)" stroke-width="0.1"/>
  <path d="M 66.76453850000001,11.689726999999976 A 1.88631,1.88631 0.0 0,0 67.7145385,11.399726999999984" fill="none" instance-id="3" semantic-id="27" stroke="rgb(178,0,178)" stroke-width="0.1"/>
  <path d="M 67.7145385,9.419726999999995 A 1.88631,1.88631 0.0 0,0 66.76453850000001,9.129727000000003" fill="none" instance-id="3" semantic-id="27" stroke="rgb(178,0,178)" stroke-width="0.1"/>
  <path d="M 68.2505385,10.159726999999975 A 1.11978,1.11978 0.0 0,0 67.7145385,9.419726999999995" fill="none" instance-id="3" semantic-id="27" stroke="rgb(178,0,178)" stroke-width="0.1"/>
  <path d="M 68.2505385,10.159726999999975 A 0.0795255,0.0795255 0.0 0,0 68.39453850000001,10.129727000000003" fill="none" stroke="rgb(178,0,178)" stroke-width="0.1"/>
  <path d="M 68.39453850000001,10.129727000000003 A 1.29563,1.29563 0.0 0,0 67.7745385,9.319727" fill="none" instance-id="3" semantic-id="27" stroke="rgb(178,0,178)" stroke-width="0.1"/>
  <path d="M 67.7745385,9.319727 A 1.95705,1.95705 0.0 0,0 66.76453850000001,9.039727" fill="none" instance-id="3" semantic-id="27" stroke="rgb(178,0,178)" stroke-width="0.1"/>
  <circle cx="68.91453850000005" cy="9.919726999999995" fill="none" instance-id="3" r="0.150491" semantic-id="27" stroke="rgb(178,0,178)" stroke-width="0.1"/>
  <circle cx="68.91453850000005" cy="9.919726999999995" fill="none" instance-id="3" r="0.100491" semantic-id="27" stroke="rgb(178,0,178)" stroke-width="0.1"/>
  <circle cx="68.91453850000005" cy="10.90072699999999" fill="none" instance-id="3" r="0.100491" semantic-id="27" stroke="rgb(178,0,178)" stroke-width="0.1"/>
  <circle cx="68.91453850000005" cy="10.90072699999999" fill="none" instance-id="3" r="0.150491" semantic-id="27" stroke="rgb(178,0,178)" stroke-width="0.1"/>
  <circle cx="67.83153850000002" cy="10.409726999999975" fill="none" instance-id="3" r="0.2" semantic-id="27" stroke="rgb(178,0,178)" stroke-width="0.1"/>
  <circle cx="69.01953850000001" cy="0.19972699999999577" fill="none" r="0.186748" stroke="rgb(178,0,178)" stroke-width="0.1"/>
 </g>
 <g id="layerPUB_DIM" inkscape:groupmode="layer" inkscape:label="PUB_DIM">
  <path d="M 90.82453850000002,91.314727 L 80.82453850000002,91.314727" fill="none" stroke="rgb(0,178,0)" stroke-width="0.1"/>
  <path d="M 80.82453850000002,91.314727 L 70.82453850000002,91.314727" fill="none" stroke="rgb(0,178,0)" stroke-width="0.1"/>
  <path d="M 70.82453850000002,91.314727 L 60.82453850000002,91.314727" fill="none" stroke="rgb(0,178,0)" stroke-width="0.1"/>
  <path d="M 93.59653850000001,14.519726999999989 L 83.1475385,14.519726999999989" fill="none" stroke="rgb(0,178,0)" stroke-width="0.1"/>
  <path d="M 85.6475385,14.519726999999989 L 85.6475385,0.0" fill="none" stroke="rgb(0,178,0)" stroke-width="0.1"/>
  <path d="M 93.59653850000001,17.76972699999999 L 83.1475385,17.76972699999999" fill="none" stroke="rgb(0,178,0)" stroke-width="0.1"/>
  <path d="M 93.59653850000001,14.519726999999989 L 83.1475385,14.519726999999989" fill="none" stroke="rgb(0,178,0)" stroke-width="0.1"/>
  <path d="M 85.6475385,17.76972699999999 L 85.6475385,14.519726999999989" fill="none" stroke="rgb(0,178,0)" stroke-width="0.1"/>
  <circle cx="85.82453850000002" cy="91.314727" fill="none" r="5" stroke="rgb(0,178,0)" stroke-width="0.1"/>
  <circle cx="75.82453850000002" cy="91.314727" fill="none" r="5" stroke="rgb(0,178,0)" stroke-width="0.1"/>
  <circle cx="65.82453850000002" cy="91.314727" fill="none" r="5" stroke="rgb(0,178,0)" stroke-width="0.1"/>
  <text fill="rgb(0,178,0)" font-family="Noto Sans CJK SC" font-size="2" transform="rotate(-0.0,84.12453850000003,95.21472699999998)" x="84.12453850000003" y="95.21472699999998">
   3
  </text>
  <text fill="rgb(0,178,0)" font-family="Noto Sans CJK SC" font-size="2" transform="rotate(-0.0,84.12453850000003,90.814727)" x="84.12453850000003" y="90.814727">
   14
  </text>
  <text fill="rgb(0,178,0)" font-family="Noto Sans CJK SC" font-size="2" transform="rotate(-0.0,74.12453850000003,95.21472699999998)" x="74.12453850000003" y="95.21472699999998">
   4
  </text>
  <text fill="rgb(0,178,0)" font-family="Noto Sans CJK SC" font-size="2" transform="rotate(-0.0,74.12453850000003,90.814727)" x="74.12453850000003" y="90.814727">
   15
  </text>
  <text fill="rgb(0,178,0)" font-family="Noto Sans CJK SC" font-size="2" transform="rotate(-0.0,64.12453850000003,95.21472699999998)" x="64.12453850000003" y="95.21472699999998">
   8
  </text>
  <text fill="rgb(0,178,0)" font-family="Noto Sans CJK SC" font-size="2" transform="rotate(-0.0,64.12453850000003,90.814727)" x="64.12453850000003" y="90.814727">
   17
  </text>
  <text fill="rgb(0,178,0)" font-family="Noto Sans CJK SC" font-size="2" transform="rotate(-90.0,84.1475385,9.669726999999995)" x="84.1475385" y="9.669726999999995">
   1800
  </text>
  <text fill="rgb(0,178,0)" font-family="Noto Sans CJK SC" font-size="2" transform="rotate(-90.0,83.69753850000001,24.469726999999978)" x="83.69753850000001" y="24.469726999999978">
   325
  </text>
 </g>
 <g id="layerPUB_TEXT" inkscape:groupmode="layer" inkscape:label="PUB_TEXT">
  <text fill="rgb(0,0,0)" font-family="Noto Sans CJK SC" font-size="2" transform="rotate(-0.0,72.17453850000004,60.09072699999999)" x="72.17453850000004" y="60.09072699999999">
   (车库顶板结构标高)
  </text>
  <text fill="rgb(0,0,0)" font-family="Noto Sans CJK SC" font-size="2" transform="rotate(-0.0,21.83553850000004,44.669726999999995)" x="21.83553850000004" y="44.669726999999995">
   栏杆
  </text>
  <text fill="rgb(0,0,0)" font-family="Noto Sans CJK SC" font-size="2" transform="rotate(-0.0,18.1185385,39.409726999999975)" x="18.1185385" y="39.409726999999975">
   05YJ7
  </text>
  <text fill="rgb(0,0,0)" font-family="Noto Sans CJK SC" font-size="2" transform="rotate(-0.0,85.37453850000003,64.04172699999998)" x="85.37453850000003" y="64.04172699999998">
   -1.900
  </text>
  <text fill="rgb(0,0,0)" font-family="Noto Sans CJK SC" font-size="2" transform="rotate(-0.0,2.5805385000000456,93.651727)" x="2.5805385000000456" y="93.651727">
   下
  </text>
 </g>
 <g id="layerSTAIR" inkscape:groupmode="layer" inkscape:label="STAIR">
  <path d="M 0.0,84.26972699999999 L 53.23253850000003,84.26972699999999" fill="none" stroke="rgb(178,178,0)" stroke-width="0.1"/>
  <path d="M 0.0,83.669727 L 53.23253850000003,83.669727" fill="none" stroke="rgb(178,178,0)" stroke-width="0.1"/>
  <path d="M 50.23253850000003,84.26972699999999 L 50.23253850000003,96.26972699999999" fill="none" stroke="rgb(178,178,0)" stroke-width="0.1"/>
  <path d="M 53.23253850000003,96.26972699999999 L 0.0,96.26972699999999" fill="none" stroke="rgb(178,178,0)" stroke-width="0.1"/>
  <path d="M 53.23253850000003,96.86972700000001 L 0.0,96.86972700000001" fill="none" stroke="rgb(178,178,0)" stroke-width="0.1"/>
  <path d="M 53.23253850000003,83.669727 L 53.23253850000003,84.26972699999999" fill="none" stroke="rgb(178,178,0)" stroke-width="0.1"/>
  <path d="M 53.23253850000003,96.26972699999999 L 53.23253850000003,96.86972700000001" fill="none" stroke="rgb(178,178,0)" stroke-width="0.1"/>
 </g>
 <g id="layerWALL" inkscape:groupmode="layer" inkscape:label="WALL">
  <path d="M 58.23653850000005,69.26972699999999 L 44.988538500000004,69.26972699999999" fill="none" instance-id="-1" semantic-id="1" stroke="rgb(254,255,12)" stroke-width="0.1"/>
  <path d="M 56.23753850000003,67.26972699999999 L 44.988538500000004,67.26972699999999" fill="none" instance-id="-1" semantic-id="1" stroke="rgb(254,255,12)" stroke-width="0.1"/>
  <path d="M 44.988538500000004,69.26972699999999 L 44.988538500000004,67.26972699999999" fill="none" instance-id="-1" semantic-id="1" stroke="rgb(254,255,12)" stroke-width="0.1"/>
  <path d="M 100.0,19.26972699999999 L 95.93053850000001,19.26972699999999" fill="none" instance-id="-1" semantic-id="1" stroke="rgb(254,255,12)" stroke-width="0.1"/>
  <path d="M 100.0,15.519726999999989 L 97.93053850000001,15.519726999999989" fill="none" instance-id="-1" semantic-id="1" stroke="rgb(254,255,12)" stroke-width="0.1"/>
  <path d="M 73.48453850000004,0.0 L 73.48453850000004,19.26972699999999" fill="none" instance-id="-1" semantic-id="1" stroke="rgb(254,255,12)" stroke-width="0.1"/>
  <path d="M 69.48453850000004,0.0 L 69.48453850000004,15.769726999999989" fill="none" instance-id="-1" semantic-id="1" stroke="rgb(254,255,12)" stroke-width="0.1"/>
  <path d="M 56.23453850000004,6.113726999999983 L 56.23453850000004,1.769726999999989" fill="none" instance-id="-1" semantic-id="1" stroke="rgb(254,255,12)" stroke-width="0.1"/>
  <path d="M 56.23453850000004,1.769726999999989 L 54.23453850000004,1.769726999999989" fill="none" instance-id="-1" semantic-id="1" stroke="rgb(254,255,12)" stroke-width="0.1"/>
  <path d="M 54.23453850000004,1.769726999999989 L 54.23453850000004,6.113726999999983" fill="none" instance-id="-1" semantic-id="1" stroke="rgb(254,255,12)" stroke-width="0.1"/>
  <path d="M 58.23453850000004,19.26972699999999 L 58.23453850000004,55.770726999999994" fill="none" instance-id="-1" semantic-id="1" stroke="rgb(254,255,12)" stroke-width="0.1"/>
  <path d="M 54.23453850000004,19.26972699999999 L 54.23453850000004,55.770726999999994" fill="none" instance-id="-1" semantic-id="1" stroke="rgb(254,255,12)" stroke-width="0.1"/>
  <path d="M 58.23453850000004,55.770726999999994 L 54.23453850000004,55.770726999999994" fill="none" instance-id="-1" semantic-id="1" stroke="rgb(254,255,12)" stroke-width="0.1"/>
  <path d="M 73.48453850000004,19.26972699999999 L 69.48453850000004,19.26972699999999" fill="none" instance-id="-1" semantic-id="1" stroke="rgb(254,255,12)" stroke-width="0.1"/>
  <path d="M 69.48453850000004,19.26972699999999 L 69.48453850000004,15.769726999999989" fill="none" instance-id="-1" semantic-id="1" stroke="rgb(254,255,12)" stroke-width="0.1"/>
  <path d="M 56.23453850000004,15.769726999999989 L 56.48453850000004,15.769726999999989" fill="none" instance-id="-1" semantic-id="1" stroke="rgb(254,255,12)" stroke-width="0.1"/>
  <path d="M 56.48453850000004,15.769726999999989 L 59.23453850000004,15.769726999999989" fill="none" instance-id="-1" semantic-id="1" stroke="rgb(254,255,12)" stroke-width="0.1"/>
  <path d="M 58.23453850000004,19.26972699999999 L 59.23453850000004,19.26972699999999" fill="none" instance-id="-1" semantic-id="1" stroke="rgb(254,255,12)" stroke-width="0.1"/>
  <path d="M 59.23453850000004,15.769726999999989 L 59.23453850000004,19.26972699999999" fill="none" instance-id="-1" semantic-id="1" stroke="rgb(254,255,12)" stroke-width="0.1"/>
  <path d="M 58.238538500000004,55.770726999999994 L 58.23653850000005,69.26972699999999" fill="none" instance-id="-1" semantic-id="1" stroke="rgb(254,255,12)" stroke-width="0.1"/>
  <path d="M 56.238538500000004,55.770726999999994 L 56.23753850000003,67.26972699999999" fill="none" instance-id="-1" semantic-id="1" stroke="rgb(254,255,12)" stroke-width="0.1"/>
  <path d="M 58.238538500000004,55.770726999999994 L 56.238538500000004,55.770726999999994" fill="none" instance-id="-1" semantic-id="1" stroke="rgb(254,255,12)" stroke-width="0.1"/>
  <path d="M 97.93053850000001,15.519726999999989 L 97.93053850000001,14.519726999999989" fill="none" instance-id="-1" semantic-id="1" stroke="rgb(254,255,12)" stroke-width="0.1"/>
  <path d="M 97.93053850000001,14.519726999999989 L 95.93053850000001,14.519726999999989" fill="none" instance-id="-1" semantic-id="1" stroke="rgb(254,255,12)" stroke-width="0.1"/>
  <path d="M 95.93053850000001,14.519726999999989 L 95.93053850000001,19.26972699999999" fill="none" instance-id="-1" semantic-id="1" stroke="rgb(254,255,12)" stroke-width="0.1"/>
  <path d="M 69.23453850000004,15.770726999999994 L 73.48453850000004,15.770726999999994" fill="none" instance-id="-1" semantic-id="1" stroke="rgb(254,255,12)" stroke-width="0.1"/>
  <path d="M 69.23453850000004,19.270726999999994 L 73.48453850000004,19.270726999999994" fill="none" instance-id="-1" semantic-id="1" stroke="rgb(254,255,12)" stroke-width="0.1"/>
  <path d="M 69.23453850000004,15.770726999999994 L 69.23453850000004,19.270726999999994" fill="none" instance-id="-1" semantic-id="1" stroke="rgb(254,255,12)" stroke-width="0.1"/>
  <path d="M 73.48453850000004,15.770726999999994 L 73.48453850000004,19.270726999999994" fill="none" instance-id="-1" semantic-id="1" stroke="rgb(254,255,12)" stroke-width="0.1"/>
  <path d="M 56.23453850000004,6.113726999999983 L 56.23453850000004,15.769726999999989" fill="none" instance-id="-1" semantic-id="1" stroke="rgb(254,255,12)" stroke-width="0.1"/>
  <path d="M 54.23453850000004,6.113726999999983 L 54.23453850000004,19.26972699999999" fill="none" instance-id="-1" semantic-id="1" stroke="rgb(254,255,12)" stroke-width="0.1"/>
 </g>
 <g id="layerWINDOW" inkscape:groupmode="layer" inkscape:label="WINDOW">
  <path d="M 68.23453850000004,18.26972699999999 L 60.23453850000004,18.26972699999999" fill="none" instance-id="8" semantic-id="9" stroke="rgb(178,178,0)" stroke-width="0.1"/>
  <path d="M 68.23453850000004,17.76972699999999 L 60.23453850000004,17.76972699999999" fill="none" instance-id="8" semantic-id="9" stroke="rgb(178,178,0)" stroke-width="0.1"/>
  <path d="M 68.23453850000004,17.26972699999999 L 60.23453850000004,17.26972699999999" fill="none" instance-id="8" semantic-id="9" stroke="rgb(178,178,0)" stroke-width="0.1"/>
  <path d="M 45.48453850000004,52.770726999999994 L 24.484538500000042,52.770726999999994" fill="none" stroke="rgb(178,178,0)" stroke-width="0.1"/>
  <path d="M 54.23453850000004,52.270726999999994 L 0.0,52.270726999999994" fill="none" stroke="rgb(178,178,0)" stroke-width="0.1"/>
  <path d="M 19.984538500000042,52.770726999999994 L 0.0,52.770726999999994" fill="none" stroke="rgb(178,178,0)" stroke-width="0.1"/>
  <path d="M 69.23353850000001,80.26972699999999 L 60.23353850000001,71.26972699999999" fill="none" stroke="rgb(53,160,107)" stroke-width="0.1"/>
  <path d="M 69.2315385,30.270726999999994 L 60.2315385,21.270726999999994" fill="none" stroke="rgb(53,160,107)" stroke-width="0.1"/>
  <path d="M 43.98453850000004,68.76772699999998 L 24.984538500000042,68.76772699999998" fill="none" instance-id="9" semantic-id="9" stroke="rgb(178,178,0)" stroke-width="0.1"/>
  <path d="M 43.98453850000004,67.76772699999998 L 24.984538500000042,67.76772699999998" fill="none" instance-id="9" semantic-id="9" stroke="rgb(178,178,0)" stroke-width="0.1"/>
  <path d="M 43.98453850000004,68.26772699999998 L 24.984538500000042,68.26772699999998" fill="none" instance-id="9" semantic-id="9" stroke="rgb(178,178,0)" stroke-width="0.1"/>
  <path d="M 33.98453850000004,83.669727 L 33.98453850000004,80.26972699999999" fill="none" stroke="rgb(53,160,107)" stroke-width="0.1"/>
  <path d="M 33.98453850000004,80.26972699999999 L 24.984538500000042,71.26972699999999" fill="none" stroke="rgb(53,160,107)" stroke-width="0.1"/>
  <path d="M 56.23453850000004,0.0 L 56.23453850000004,1.7177269999999965" fill="none" stroke="rgb(178,178,0)" stroke-width="0.1"/>
  <path d="M 0.0,55.770726999999994 L 45.48453850000004,55.770726999999994" fill="none" stroke="rgb(178,178,0)" stroke-width="0.1"/>
  <path d="M 69.23353850000001,80.26972699999999 L 69.2315385,30.270726999999994" fill="none" stroke="rgb(53,160,107)" stroke-width="0.1"/>
  <path d="M 69.2315385,30.270726999999994 L 91.76953850000001,30.270726999999994" fill="none" stroke="rgb(53,160,107)" stroke-width="0.1"/>
  <path d="M 69.23353850000001,80.26972699999999 L 33.98453850000004,80.26972699999999" fill="none" stroke="rgb(53,160,107)" stroke-width="0.1"/>
  <path d="M 97.26353850000004,1.0577269999999999 L 96.65218329289428,0.0" fill="none" instance-id="7" semantic-id="11" stroke="rgb(178,178,0)" stroke-width="0.1"/>
  <path d="M 97.26353850000004,3.5047270000000026 L 96.59653850000001,2.350726999999978" fill="none" instance-id="7" semantic-id="11" stroke="rgb(178,178,0)" stroke-width="0.1"/>
  <path d="M 97.26353850000004,2.2817269999999894 L 96.59653850000001,1.127726999999993" fill="none" instance-id="7" semantic-id="11" stroke="rgb(178,178,0)" stroke-width="0.1"/>
  <path d="M 97.26353850000004,5.952726999999982 L 96.59653850000001,4.798726999999985" fill="none" instance-id="7" semantic-id="11" stroke="rgb(178,178,0)" stroke-width="0.1"/>
  <path d="M 97.26353850000004,4.728726999999992 L 96.59653850000001,3.5747269999999958" fill="none" instance-id="7" semantic-id="11" stroke="rgb(178,178,0)" stroke-width="0.1"/>
  <path d="M 97.26353850000004,8.40072699999999 L 96.59653850000001,7.246726999999993" fill="none" instance-id="7" semantic-id="11" stroke="rgb(178,178,0)" stroke-width="0.1"/>
  <path d="M 97.26353850000004,7.176727 L 96.59653850000001,6.022726999999975" fill="none" instance-id="7" semantic-id="11" stroke="rgb(178,178,0)" stroke-width="0.1"/>
  <path d="M 97.26353850000004,10.847726999999992 L 96.59653850000001,9.694727" fill="none" instance-id="7" semantic-id="11" stroke="rgb(178,178,0)" stroke-width="0.1"/>
  <path d="M 97.26353850000004,9.624726999999979 L 96.59653850000001,8.470726999999982" fill="none" instance-id="7" semantic-id="11" stroke="rgb(178,178,0)" stroke-width="0.1"/>
  <path d="M 97.26353850000004,13.295727 L 96.59653850000001,12.141727000000003" fill="none" instance-id="7" semantic-id="11" stroke="rgb(178,178,0)" stroke-width="0.1"/>
  <path d="M 97.26353850000004,12.071726999999981 L 96.59653850000001,10.917726999999985" fill="none" instance-id="7" semantic-id="11" stroke="rgb(178,178,0)" stroke-width="0.1"/>
  <path d="M 97.26353850000004,14.519726999999989 L 96.59653850000001,13.365726999999993" fill="none" instance-id="7" semantic-id="11" stroke="rgb(178,178,0)" stroke-width="0.1"/>
  <path d="M 97.26353850000004,0.0 L 97.26353850000004,14.519726999999989" fill="none" instance-id="7" semantic-id="11" stroke="rgb(178,178,0)" stroke-width="0.1"/>
  <path d="M 96.59653850000001,0.0 L 96.59653850000001,14.519726999999989" fill="none" instance-id="7" semantic-id="11" stroke="rgb(178,178,0)" stroke-width="0.1"/>
  <path d="M 95.93053850000001,14.519726999999989 L 95.93053850000001,0.0" fill="none" instance-id="7" semantic-id="11" stroke="rgb(178,178,0)" stroke-width="0.1"/>
  <path d="M 97.93053850000001,14.519726999999989 L 97.93053850000001,0.0" fill="none" instance-id="7" semantic-id="11" stroke="rgb(178,178,0)" stroke-width="0.1"/>
  <path d="M 55.23453850000004,1.769726999999989 L 55.7364981817762,1.756807822247879" fill="none" stroke="rgb(178,178,0)" stroke-width="0.1"/>
  <path d="M 55.7364981817762,1.756807822247879 L 56.237127081623385,1.7180633785112605" fill="none" stroke="rgb(178,178,0)" stroke-width="0.1"/>
  <path d="M 56.237127081623385,1.7180633785112605 L 56.7350974017408,1.6535964291126106" fill="none" stroke="rgb(178,178,0)" stroke-width="0.1"/>
  <path d="M 56.7350974017408,1.6535964291126106 L 57.22908839557141,1.5635779571366868" fill="none" stroke="rgb(178,178,0)" stroke-width="0.1"/>
  <path d="M 57.22908839557141,1.5635779571366868 L 57.71778987076442,1.4482467149391027" fill="none" stroke="rgb(178,178,0)" stroke-width="0.1"/>
  <path d="M 57.71778987076442,1.4482467149391027 L 58.19990566414549,1.3079085909130015" fill="none" stroke="rgb(178,178,0)" stroke-width="0.1"/>
  <path d="M 58.19990566414549,1.3079085909130015 L 58.674157079478164,1.1429357981936903" fill="none" stroke="rgb(178,178,0)" stroke-width="0.1"/>
  <path d="M 58.674157079478164,1.1429357981936903 L 59.13928627889794,0.9537658874527608" fill="none" stroke="rgb(178,178,0)" stroke-width="0.1"/>
  <path d="M 59.13928627889794,0.9537658874527608 L 59.594059619025074,0.7409005864001017" fill="none" stroke="rgb(178,178,0)" stroke-width="0.1"/>
  <path d="M 59.594059619025074,0.7409005864001017 L 60.03727092290694,0.5049044690718745" fill="none" stroke="rgb(178,178,0)" stroke-width="0.1"/>
  <path d="M 60.03727092290694,0.5049044690718745 L 60.467744679112286,0.24640345843346267" fill="none" stroke="rgb(178,178,0)" stroke-width="0.1"/>
  <path d="M 98.23453850000004,19.26972699999999 L 71.48453850000004,19.26972699999999" fill="none" stroke="rgb(53,160,107)" stroke-width="0.1"/>
  <path d="M 15.484538500000042,68.770727 L 23.984538500000042,68.770727" fill="none" stroke="rgb(178,178,0)" stroke-width="0.1"/>
  <path d="M 68.23453850000004,17.26972699999999 L 69.23453850000004,17.26972699999999" fill="none" instance-id="8" semantic-id="9" stroke="rgb(178,178,0)" stroke-width="0.1"/>
  <path d="M 69.23453850000004,17.26972699999999 L 69.23453850000004,18.26972699999999" fill="none" instance-id="8" semantic-id="9" stroke="rgb(178,178,0)" stroke-width="0.1"/>
  <path d="M 69.23453850000004,18.26972699999999 L 68.23453850000004,18.26972699999999" fill="none" instance-id="8" semantic-id="9" stroke="rgb(178,178,0)" stroke-width="0.1"/>
  <path d="M 68.23453850000004,18.26972699999999 L 68.23453850000004,17.26972699999999" fill="none" instance-id="8" semantic-id="9" stroke="rgb(178,178,0)" stroke-width="0.1"/>
  <path d="M 68.38453850000002,17.419726999999995 L 69.08453850000001,17.419726999999995" fill="none" instance-id="8" semantic-id="9" stroke="rgb(178,178,0)" stroke-width="0.1"/>
  <path d="M 69.08453850000001,17.419726999999995 L 69.08453850000001,18.119726999999983" fill="none" instance-id="8" semantic-id="9" stroke="rgb(178,178,0)" stroke-width="0.1"/>
  <path d="M 69.08453850000001,18.119726999999983 L 68.38453850000002,18.119726999999983" fill="none" instance-id="8" semantic-id="9" stroke="rgb(178,178,0)" stroke-width="0.1"/>
  <path d="M 68.38453850000002,18.119726999999983 L 68.38453850000002,17.419726999999995" fill="none" instance-id="8" semantic-id="9" stroke="rgb(178,178,0)" stroke-width="0.1"/>
  <path d="M 59.23453850000004,17.26972699999999 L 60.23453850000004,17.26972699999999" fill="none" instance-id="8" semantic-id="9" stroke="rgb(178,178,0)" stroke-width="0.1"/>
  <path d="M 60.23453850000004,17.26972699999999 L 60.23453850000004,18.26972699999999" fill="none" instance-id="8" semantic-id="9" stroke="rgb(178,178,0)" stroke-width="0.1"/>
  <path d="M 60.23453850000004,18.26972699999999 L 59.23453850000004,18.26972699999999" fill="none" instance-id="8" semantic-id="9" stroke="rgb(178,178,0)" stroke-width="0.1"/>
  <path d="M 59.23453850000004,18.26972699999999 L 59.23453850000004,17.26972699999999" fill="none" instance-id="8" semantic-id="9" stroke="rgb(178,178,0)" stroke-width="0.1"/>
  <path d="M 59.38453850000002,17.419726999999995 L 60.08453850000001,17.419726999999995" fill="none" instance-id="8" semantic-id="9" stroke="rgb(178,178,0)" stroke-width="0.1"/>
  <path d="M 60.08453850000001,17.419726999999995 L 60.08453850000001,18.119726999999983" fill="none" instance-id="8" semantic-id="9" stroke="rgb(178,178,0)" stroke-width="0.1"/>
  <path d="M 60.08453850000001,18.119726999999983 L 59.38453850000002,18.119726999999983" fill="none" instance-id="8" semantic-id="9" stroke="rgb(178,178,0)" stroke-width="0.1"/>
  <path d="M 59.38453850000002,18.119726999999983 L 59.38453850000002,17.419726999999995" fill="none" instance-id="8" semantic-id="9" stroke="rgb(178,178,0)" stroke-width="0.1"/>
  <path d="M 43.98453850000004,67.76772699999998 L 44.98453850000004,67.76772699999998" fill="none" instance-id="9" semantic-id="9" stroke="rgb(178,178,0)" stroke-width="0.1"/>
  <path d="M 44.98453850000004,67.76772699999998 L 44.98453850000004,68.76772699999998" fill="none" instance-id="9" semantic-id="9" stroke="rgb(178,178,0)" stroke-width="0.1"/>
  <path d="M 44.98453850000004,68.76772699999998 L 43.98453850000004,68.76772699999998" fill="none" instance-id="9" semantic-id="9" stroke="rgb(178,178,0)" stroke-width="0.1"/>
  <path d="M 43.98453850000004,68.76772699999998 L 43.98453850000004,67.76772699999998" fill="none" instance-id="9" semantic-id="9" stroke="rgb(178,178,0)" stroke-width="0.1"/>
  <path d="M 44.13453850000002,67.91772699999999 L 44.83453850000001,67.91772699999999" fill="none" instance-id="9" semantic-id="9" stroke="rgb(178,178,0)" stroke-width="0.1"/>
  <path d="M 44.83453850000001,67.91772699999999 L 44.83453850000001,68.617727" fill="none" instance-id="9" semantic-id="9" stroke="rgb(178,178,0)" stroke-width="0.1"/>
  <path d="M 44.83453850000001,68.617727 L 44.13453850000002,68.617727" fill="none" instance-id="9" semantic-id="9" stroke="rgb(178,178,0)" stroke-width="0.1"/>
  <path d="M 44.13453850000002,68.617727 L 44.13453850000002,67.91772699999999" fill="none" instance-id="9" semantic-id="9" stroke="rgb(178,178,0)" stroke-width="0.1"/>
  <path d="M 23.984538500000042,67.76772699999998 L 24.984538500000042,67.76772699999998" fill="none" instance-id="9" semantic-id="9" stroke="rgb(178,178,0)" stroke-width="0.1"/>
  <path d="M 24.984538500000042,67.76772699999998 L 24.984538500000042,68.76772699999998" fill="none" instance-id="9" semantic-id="9" stroke="rgb(178,178,0)" stroke-width="0.1"/>
  <path d="M 24.984538500000042,68.76772699999998 L 23.984538500000042,68.770727" fill="none" instance-id="9" semantic-id="9" stroke="rgb(178,178,0)" stroke-width="0.1"/>
  <path d="M 23.984538500000042,68.770727 L 23.984538500000042,67.76772699999998" fill="none" instance-id="9" semantic-id="9" stroke="rgb(178,178,0)" stroke-width="0.1"/>
  <path d="M 24.13453850000002,67.91772699999999 L 24.834538500000008,67.91772699999999" fill="none" instance-id="9" semantic-id="9" stroke="rgb(178,178,0)" stroke-width="0.1"/>
  <path d="M 24.834538500000008,67.91772699999999 L 24.834538500000008,68.617727" fill="none" instance-id="9" semantic-id="9" stroke="rgb(178,178,0)" stroke-width="0.1"/>
  <path d="M 24.834538500000008,68.617727 L 24.13453850000002,68.617727" fill="none" instance-id="9" semantic-id="9" stroke="rgb(178,178,0)" stroke-width="0.1"/>
  <path d="M 24.13453850000002,68.617727 L 24.13453850000002,67.91772699999999" fill="none" instance-id="9" semantic-id="9" stroke="rgb(178,178,0)" stroke-width="0.1"/>
  <path d="M 100.0,30.270590885069538 L 91.76953850000001,30.270726999999994" fill="none" stroke="rgb(53,160,107)" stroke-width="0.1"/>
  <path d="M 24.487538500000028,68.76972699999999 L 24.487538500000028,76.76772699999998" fill="none" stroke="rgb(178,178,0)" stroke-width="0.1"/>
  <path d="M 24.487538500000028,76.76772699999998 L 0.0,76.76772699999998" fill="none" stroke="rgb(178,178,0)" stroke-width="0.1"/>
  <path d="M 24.984538500000042,68.76772699999998 L 24.984538500000042,77.26772699999998" fill="none" stroke="rgb(178,178,0)" stroke-width="0.1"/>
  <path d="M 24.984538500000042,77.26772699999998 L 0.0,77.26772699999998" fill="none" stroke="rgb(178,178,0)" stroke-width="0.1"/>
 </g>
 <g id="layerWINDOW_TEXT" inkscape:groupmode="layer" inkscape:label="WINDOW_TEXT">
  <text fill="rgb(0,0,0)" font-family="Noto Sans CJK SC" font-size="2" transform="rotate(-90.0,93.83453850000001,11.220726999999982)" x="93.83453850000001" y="11.220726999999982">
   BY1815
  </text>
  <text fill="rgb(0,0,0)" font-family="Noto Sans CJK SC" font-size="2" transform="rotate(-0.0,30.512538500000005,67.062727)" x="30.512538500000005" y="67.062727">
   C2154
  </text>
  <text fill="rgb(0,0,0)" font-family="Noto Sans CJK SC" font-size="2" transform="rotate(-0.0,59.27153850000002,15.80372699999998)" x="59.27153850000002" y="15.80372699999998">
   C1044
  </text>
  <text fill="rgb(0,0,0)" font-family="Noto Sans CJK SC" font-size="2" transform="rotate(-0.0,29.455538500000046,49.46472699999998)" x="29.455538500000046" y="49.46472699999998">
   FJLM2155
  </text>
  <text fill="rgb(0,0,0)" font-family="Noto Sans CJK SC" font-size="2" transform="rotate(-90.0,60.94953850000002,0.7907269999999755)" x="60.94953850000002" y="0.7907269999999755">
   M1024
  </text>
 </g>
 <g id="layerdote" inkscape:groupmode="layer" inkscape:label="dote">
  <path d="M 0.0,17.76972699999999 L 100.0,17.76972699999999" fill="none" stroke="rgb(178,0,0)" stroke-width="0.1"/>
  <path d="M 0.0,54.76972699999999 L 100.0,54.76972699999999" fill="none" stroke="rgb(178,0,0)" stroke-width="0.1"/>
  <path d="M 0.0,68.26972699999999 L 100.0,68.26972699999999" fill="none" stroke="rgb(178,0,0)" stroke-width="0.1"/>
  <path d="M 0.0,4.769726999999989 L 100.0,4.769726999999989" fill="none" stroke="rgb(178,0,0)" stroke-width="0.1"/>
  <path d="M 0.0,32.76972699999999 L 100.0,32.76972699999999" fill="none" stroke="rgb(178,0,0)" stroke-width="0.1"/>
  <path d="M 57.23253850000003,7.524726999999984 L 57.23253850000003,91.27072699999997" fill="none" stroke="rgb(178,0,0)" stroke-width="0.1"/>
  <path d="M 71.23253850000003,0.0 L 71.23253850000003,91.27072699999997" fill="none" stroke="rgb(178,0,0)" stroke-width="0.1"/>
  <path d="M 9.734538500000042,0.0 L 9.734538500000042,13.298726999999985" fill="none" stroke="rgb(178,0,0)" stroke-width="0.1"/>
  <path d="M 20.484538500000042,0.0 L 20.484538500000042,91.26972699999999" fill="none" stroke="rgb(178,0,0)" stroke-width="0.1"/>
  <path d="M 0.0,32.76972699999999 L 12.001538500000038,32.76972699999999" fill="none" stroke="rgb(178,0,0)" stroke-width="0.1"/>
  <path d="M 96.93053850000001,13.189726999999976 L 96.93053850000001,23.175726999999995" fill="none" stroke="rgb(178,0,0)" stroke-width="0.1"/>
 </g>
 <g id="layer剪力墙填充" inkscape:groupmode="layer" inkscape:label="剪力墙填充">
  <path d="M 23.984538500000042,69.270727 L 23.984538500000042,55.770726999999994" fill="none" instance-id="-1" semantic-id="1" stroke="rgb(92,92,92)" stroke-width="0.1"/>
  <path d="M 23.984538500000042,55.770726999999994 L 24.484538500000042,55.770726999999994" fill="none" instance-id="-1" semantic-id="1" stroke="rgb(92,92,92)" stroke-width="0.1"/>
  <path d="M 24.484538500000042,55.770726999999994 L 24.484538500000042,51.770726999999994" fill="none" instance-id="-1" semantic-id="1" stroke="rgb(92,92,92)" stroke-width="0.1"/>
  <path d="M 24.484538500000042,51.770726999999994 L 19.984538500000042,51.770726999999994" fill="none" instance-id="-1" semantic-id="1" stroke="rgb(92,92,92)" stroke-width="0.1"/>
  <path d="M 19.984538500000042,51.770726999999994 L 19.984538500000042,65.270727" fill="none" instance-id="-1" semantic-id="1" stroke="rgb(92,92,92)" stroke-width="0.1"/>
  <path d="M 19.984538500000042,65.270727 L 15.484538500000042,65.270727" fill="none" instance-id="-1" semantic-id="1" stroke="rgb(92,92,92)" stroke-width="0.1"/>
  <path d="M 15.484538500000042,65.270727 L 15.484538500000042,69.270727" fill="none" instance-id="-1" semantic-id="1" stroke="rgb(92,92,92)" stroke-width="0.1"/>
  <path d="M 15.484538500000042,69.270727 L 23.984538500000042,69.270727" fill="none" instance-id="-1" semantic-id="1" stroke="rgb(92,92,92)" stroke-width="0.1"/>
  <path d="M 69.48453850000004,19.270726999999994 L 73.48453850000004,19.270726999999994" fill="none" instance-id="-1" semantic-id="1" stroke="rgb(92,92,92)" stroke-width="0.1"/>
  <path d="M 73.48453850000004,19.270726999999994 L 73.48453850000004,0.0" fill="none" instance-id="-1" semantic-id="1" stroke="rgb(92,92,92)" stroke-width="0.1"/>
  <path d="M 69.48453850000004,0.0 L 69.48453850000004,19.270726999999994" fill="none" instance-id="-1" semantic-id="1" stroke="rgb(92,92,92)" stroke-width="0.1"/>
  <path d="M 98.48453850000004,15.270726999999994 L 98.48453850000004,19.270726999999994" fill="none" instance-id="-1" semantic-id="1" stroke="rgb(92,92,92)" stroke-width="0.1"/>
  <path d="M 98.48453850000004,19.270726999999994 L 100.0,19.270726999999994" fill="none" instance-id="-1" semantic-id="1" stroke="rgb(92,92,92)" stroke-width="0.1"/>
  <path d="M 100.0,15.270726999999994 L 98.48453850000004,15.270726999999994" fill="none" instance-id="-1" semantic-id="1" stroke="rgb(92,92,92)" stroke-width="0.1"/>
  <path d="M 33.84032856855657,0.0 L 45.48453850000004,51.770726999999994" fill="none" instance-id="-1" semantic-id="1" stroke="rgb(92,92,92)" stroke-width="0.1"/>
  <path d="M 45.48453850000004,51.770726999999994 L 54.23453850000004,51.770726999999994" fill="none" instance-id="-1" semantic-id="1" stroke="rgb(92,92,92)" stroke-width="0.1"/>
  <path d="M 54.23453850000004,51.770726999999994 L 58.23453850000004,55.770726999999994" fill="none" instance-id="-1" semantic-id="1" stroke="rgb(92,92,92)" stroke-width="0.1"/>
  <path d="M 58.23453850000004,55.770726999999994 L 0.0,55.770726999999994" fill="none" instance-id="-1" semantic-id="1" stroke="rgb(92,92,92)" stroke-width="0.1"/>
  <path d="M 0.0,28.96835612181303 L 58.23453850000004,15.770726999999994" fill="none" instance-id="-1" semantic-id="1" stroke="rgb(92,92,92)" stroke-width="0.1"/>
  <path d="M 58.23453850000004,15.770726999999994 L 58.23453850000004,55.770726999999994" fill="none" instance-id="-1" semantic-id="1" stroke="rgb(92,92,92)" stroke-width="0.1"/>
  <path d="M 58.23453850000004,55.770726999999994 L 54.23453850000004,51.770726999999994" fill="none" instance-id="-1" semantic-id="1" stroke="rgb(92,92,92)" stroke-width="0.1"/>
  <path d="M 54.23453850000004,51.770726999999994 L 0.0,21.263273103165545" fill="none" instance-id="-1" semantic-id="1" stroke="rgb(92,92,92)" stroke-width="0.1"/>
  <path d="M 45.48453850000004,55.770726999999994 L 58.23453850000004,55.770726999999994" fill="none" instance-id="-1" semantic-id="1" stroke="rgb(92,92,92)" stroke-width="0.1"/>
  <path d="M 58.23453850000004,55.770726999999994 L 58.23453850000004,15.770726999999994" fill="none" instance-id="-1" semantic-id="1" stroke="rgb(92,92,92)" stroke-width="0.1"/>
  <path d="M 58.23453850000004,15.770726999999994 L 54.23453850000004,15.770726999999994" fill="none" instance-id="-1" semantic-id="1" stroke="rgb(92,92,92)" stroke-width="0.1"/>
  <path d="M 54.23453850000004,15.770726999999994 L 54.23453850000004,51.770726999999994" fill="none" instance-id="-1" semantic-id="1" stroke="rgb(92,92,92)" stroke-width="0.1"/>
  <path d="M 54.23453850000004,51.770726999999994 L 45.48453850000004,51.770726999999994" fill="none" instance-id="-1" semantic-id="1" stroke="rgb(92,92,92)" stroke-width="0.1"/>
  <path d="M 45.48453850000004,51.770726999999994 L 45.48453850000004,55.770726999999994" fill="none" instance-id="-1" semantic-id="1" stroke="rgb(92,92,92)" stroke-width="0.1"/>
 </g>
 <g id="layer厨卫" inkscape:groupmode="layer" inkscape:label="厨卫">
  <path d="M 56.24853850000005,3.1387269999999887 L 56.24853850000005,3.6387269999999887" fill="none" stroke="rgb(53,93,107)" stroke-width="0.1"/>
 </g>
 <g id="layer尺寸2" inkscape:groupmode="layer" inkscape:label="尺寸2">
  <path d="M 80.97453850000005,68.04172699999998 L 77.97453850000005,65.04172699999998" fill="none" stroke="rgb(254,255,12)" stroke-width="0.1"/>
  <path d="M 80.97453850000005,68.04172699999998 L 83.97453850000005,65.04172699999998" fill="none" stroke="rgb(254,255,12)" stroke-width="0.1"/>
  <path d="M 77.97453850000005,65.04172699999998 L 95.97453850000005,65.04172699999998" fill="none" stroke="rgb(254,255,12)" stroke-width="0.1"/>
  <path d="M 24.984538500000042,74.26972699999999 L 24.984538500000042,69.372727" fill="none" stroke="rgb(254,255,12)" stroke-width="0.1"/>
  <path d="M 0.0,71.872727 L 24.984538500000042,71.872727" fill="none" stroke="rgb(254,255,12)" stroke-width="0.1"/>
  <path d="M 19.829538500000012,99.26972699999999 L 37.32353850000004,99.26972699999999" fill="none" stroke="rgb(254,255,12)" stroke-width="0.1"/>
  <path d="M 19.829538500000012,96.26972699999999 L 37.32353850000004,96.26972699999999" fill="none" stroke="rgb(254,255,12)" stroke-width="0.1"/>
  <path d="M 34.82353850000004,99.26972699999999 L 34.82353850000004,100.0" fill="none" stroke="rgb(254,255,12)" stroke-width="0.1"/>
  <path d="M 34.82353850000004,96.26972699999999 L 34.82353850000004,95.26972699999999" fill="none" stroke="rgb(254,255,12)" stroke-width="0.1"/>
  <path d="M 34.82353850000004,99.26972699999999 L 34.82353850000004,96.26972699999999" fill="none" stroke="rgb(254,255,12)" stroke-width="0.1"/>
  <path d="M 19.829538500000012,96.26972699999999 L 37.32353850000004,96.26972699999999" fill="none" stroke="rgb(254,255,12)" stroke-width="0.1"/>
  <path d="M 19.829538500000012,84.26972699999999 L 37.32353850000004,84.26972699999999" fill="none" stroke="rgb(254,255,12)" stroke-width="0.1"/>
  <path d="M 34.82353850000004,96.26972699999999 L 34.82353850000004,84.26972699999999" fill="none" stroke="rgb(254,255,12)" stroke-width="0.1"/>
  <path d="M 19.829538500000012,84.26972699999999 L 37.32353850000004,84.26972699999999" fill="none" stroke="rgb(254,255,12)" stroke-width="0.1"/>
  <path d="M 19.829538500000012,68.26972699999999 L 37.32353850000004,68.26972699999999" fill="none" stroke="rgb(254,255,12)" stroke-width="0.1"/>
  <path d="M 34.82353850000004,84.26972699999999 L 34.82353850000004,68.26972699999999" fill="none" stroke="rgb(254,255,12)" stroke-width="0.1"/>
  <path d="M 90.09953850000005,17.76972699999999 L 76.41753850000003,17.76972699999999" fill="none" stroke="rgb(254,255,12)" stroke-width="0.1"/>
  <path d="M 78.91753850000003,17.76972699999999 L 78.91753850000003,0.0" fill="none" stroke="rgb(254,255,12)" stroke-width="0.1"/>
  <path d="M 96.93053850000001,18.76972699999999 L 96.93053850000001,28.70472699999999" fill="none" stroke="rgb(254,255,12)" stroke-width="0.1"/>
  <path d="M 96.93053850000001,26.20472699999999 L 100.0,26.20472699999999" fill="none" stroke="rgb(254,255,12)" stroke-width="0.1"/>
  <path d="M 35.23453850000004,0.0 L 35.23453850000004,12.850726999999978" fill="none" stroke="rgb(254,255,12)" stroke-width="0.1"/>
  <path d="M 54.23453850000004,0.0 L 54.23453850000004,12.850726999999978" fill="none" stroke="rgb(254,255,12)" stroke-width="0.1"/>
  <path d="M 35.23453850000004,10.350726999999978 L 54.23453850000004,10.350726999999978" fill="none" stroke="rgb(254,255,12)" stroke-width="0.1"/>
  <path d="M 31.237538500000028,0.0 L 31.237538500000028,12.850726999999978" fill="none" stroke="rgb(254,255,12)" stroke-width="0.1"/>
  <path d="M 35.23453850000004,0.0 L 35.23453850000004,12.850726999999978" fill="none" stroke="rgb(254,255,12)" stroke-width="0.1"/>
  <path d="M 31.237538500000028,10.350726999999978 L 35.23453850000004,10.350726999999978" fill="none" stroke="rgb(254,255,12)" stroke-width="0.1"/>
  <path d="M 27.734538500000042,0.0 L 27.734538500000042,12.850726999999978" fill="none" stroke="rgb(254,255,12)" stroke-width="0.1"/>
  <path d="M 31.237538500000028,0.0 L 31.237538500000028,12.850726999999978" fill="none" stroke="rgb(254,255,12)" stroke-width="0.1"/>
  <path d="M 27.734538500000042,10.350726999999978 L 26.734538500000042,10.350726999999978" fill="none" stroke="rgb(254,255,12)" stroke-width="0.1"/>
  <path d="M 31.237538500000028,10.350726999999978 L 32.23753850000003,10.350726999999978" fill="none" stroke="rgb(254,255,12)" stroke-width="0.1"/>
  <path d="M 27.734538500000042,10.350726999999978 L 31.237538500000028,10.350726999999978" fill="none" stroke="rgb(254,255,12)" stroke-width="0.1"/>
  <path d="M 12.734538500000042,0.0 L 12.734538500000042,12.850726999999978" fill="none" stroke="rgb(254,255,12)" stroke-width="0.1"/>
  <path d="M 27.734538500000042,0.0 L 27.734538500000042,12.850726999999978" fill="none" stroke="rgb(254,255,12)" stroke-width="0.1"/>
  <path d="M 12.734538500000042,10.350726999999978 L 27.734538500000042,10.350726999999978" fill="none" stroke="rgb(254,255,12)" stroke-width="0.1"/>
  <path d="M 9.734538500000042,0.0 L 9.734538500000042,12.850726999999978" fill="none" stroke="rgb(254,255,12)" stroke-width="0.1"/>
  <path d="M 12.734538500000042,0.0 L 12.734538500000042,12.850726999999978" fill="none" stroke="rgb(254,255,12)" stroke-width="0.1"/>
  <path d="M 9.734538500000042,10.350726999999978 L 12.734538500000042,10.350726999999978" fill="none" stroke="rgb(254,255,12)" stroke-width="0.1"/>
  <path d="M 1.734538500000042,0.0 L 1.734538500000042,12.850726999999978" fill="none" stroke="rgb(254,255,12)" stroke-width="0.1"/>
  <path d="M 9.734538500000042,0.0 L 9.734538500000042,12.850726999999978" fill="none" stroke="rgb(254,255,12)" stroke-width="0.1"/>
  <path d="M 1.734538500000042,10.350726999999978 L 0.734538500000042,10.350726999999978" fill="none" stroke="rgb(254,255,12)" stroke-width="0.1"/>
  <path d="M 9.734538500000042,10.350726999999978 L 10.734538500000042,10.350726999999978" fill="none" stroke="rgb(254,255,12)" stroke-width="0.1"/>
  <path d="M 1.734538500000042,10.350726999999978 L 9.734538500000042,10.350726999999978" fill="none" stroke="rgb(254,255,12)" stroke-width="0.1"/>
  <path d="M 1.734538500000042,0.0 L 1.734538500000042,12.850726999999978" fill="none" stroke="rgb(254,255,12)" stroke-width="0.1"/>
  <path d="M 0.0,10.350726999999978 L 1.734538500000042,10.350726999999978" fill="none" stroke="rgb(254,255,12)" stroke-width="0.1"/>
  <path d="M 53.23453850000004,1.769726999999989 L 46.641538500000024,1.769726999999989" fill="none" stroke="rgb(254,255,12)" stroke-width="0.1"/>
  <path d="M 49.141538500000024,1.769726999999989 L 49.141538500000024,0.0" fill="none" stroke="rgb(254,255,12)" stroke-width="0.1"/>
  <text fill="rgb(254,255,12)" font-family="Noto Sans CJK SC" font-size="2" transform="rotate(-90.0,33.32353850000004,94.41972699999997)" x="33.32353850000004" y="94.41972699999997">
   1200
  </text>
  <text fill="rgb(254,255,12)" font-family="Noto Sans CJK SC" font-size="2" transform="rotate(-90.0,33.32353850000004,80.419727)" x="33.32353850000004" y="80.419727">
   1600
  </text>
  <text fill="rgb(254,255,12)" font-family="Noto Sans CJK SC" font-size="2" transform="rotate(-90.0,77.41753850000003,10.270726999999994)" x="77.41753850000003" y="10.270726999999994">
   2300
  </text>
  <text fill="rgb(254,255,12)" font-family="Noto Sans CJK SC" font-size="2" transform="rotate(-0.0,98.43153850000004,24.70472699999999)" x="98.43153850000004" y="24.70472699999999">
   1130
  </text>
  <text fill="rgb(254,255,12)" font-family="Noto Sans CJK SC" font-size="2" transform="rotate(-0.0,40.58453850000001,8.850726999999978)" x="40.58453850000001" y="8.850726999999978">
   1900
  </text>
  <text fill="rgb(254,255,12)" font-family="Noto Sans CJK SC" font-size="2" transform="rotate(-0.0,30.23553850000002,6.175726999999995)" x="30.23553850000002" y="6.175726999999995">
   400
  </text>
  <text fill="rgb(254,255,12)" font-family="Noto Sans CJK SC" font-size="2" transform="rotate(-0.0,26.48553850000002,8.850726999999978)" x="26.48553850000002" y="8.850726999999978">
   350
  </text>
  <text fill="rgb(254,255,12)" font-family="Noto Sans CJK SC" font-size="2" transform="rotate(-0.0,16.084538500000008,8.850726999999978)" x="16.084538500000008" y="8.850726999999978">
   1500
  </text>
  <text fill="rgb(254,255,12)" font-family="Noto Sans CJK SC" font-size="2" transform="rotate(-0.0,8.234538500000042,6.175726999999995)" x="8.234538500000042" y="6.175726999999995">
   300
  </text>
  <text fill="rgb(254,255,12)" font-family="Noto Sans CJK SC" font-size="2" transform="rotate(-0.0,2.734538500000042,8.850726999999978)" x="2.734538500000042" y="8.850726999999978">
   800
  </text>
  <text fill="rgb(254,255,12)" font-family="Noto Sans CJK SC" font-size="2" transform="rotate(-90.0,47.641538500000024,0.9197269999999946)" x="47.641538500000024" y="0.9197269999999946">
   1000
  </text>
 </g>
 <g id="layer文字" inkscape:groupmode="layer" inkscape:label="文字">
  <text fill="rgb(0,0,0)" font-family="Noto Sans CJK SC" font-size="2" transform="rotate(-0.0,99.72853850000001,7.977726999999987)" x="99.72853850000001" y="7.977726999999987">
   风
  </text>
  <text fill="rgb(0,0,0)" font-family="Noto Sans CJK SC" font-size="2" transform="rotate(-0.0,33.70853850000003,63.325727)" x="33.70853850000003" y="63.325727">
   采光井上空
  </text>
 </g>
 <g id="layer暖留洞" inkscape:groupmode="layer" inkscape:label="暖留洞">
  <path d="M 100.0,37.431726999999995 L 80.62153850000004,37.431726999999995" fill="none" stroke="rgb(255,73,12)" stroke-width="0.1"/>
  <path d="M 80.62153850000004,37.431726999999995 L 96.59653850000001,8.470726999999982" fill="none" stroke="rgb(255,73,12)" stroke-width="0.1"/>
  <text fill="rgb(255,73,12)" font-family="Noto Sans CJK SC" font-size="2" transform="rotate(-0.0,92.82453850000002,36.55572699999999)" x="92.82453850000002" y="36.55572699999999">
   百叶窗
  </text>
  <text fill="rgb(255,73,12)" font-family="Noto Sans CJK SC" font-size="2" transform="rotate(-0.0,85.85853850000001,42.79372699999999)" x="85.85853850000001" y="42.79372699999999">
   洞顶贴梁底
  </text>
 </g>
 <g id="layer栏杆" inkscape:groupmode="layer" inkscape:label="栏杆">
  <path d="M 45.48453850000004,51.770726999999994 L 0.0,51.770726999999994" fill="none" stroke="rgb(178,178,0)" stroke-width="0.1"/>
 </g>
 <g id="layer石材" inkscape:groupmode="layer" inkscape:label="石材">
  <path d="M 94.67653850000005,14.996726999999993 L 94.67953850000004,21.26972699999999" fill="none" stroke="rgb(133,12,255)" stroke-width="0.1"/>
  <path d="M 94.9765385,15.296726999999976 L 94.97953850000005,20.969726999999978" fill="none" stroke="rgb(133,12,255)" stroke-width="0.1"/>
  <path d="M 94.67953850000004,21.26972699999999 L 100.0,21.26972699999999" fill="none" stroke="rgb(133,12,255)" stroke-width="0.1"/>
  <path d="M 94.97953850000005,20.969726999999978 L 100.0,20.969726999999978" fill="none" stroke="rgb(133,12,255)" stroke-width="0.1"/>
  <path d="M 95.93053850000001,14.996726999999993 L 94.67653850000005,14.996726999999993" fill="none" stroke="rgb(133,12,255)" stroke-width="0.1"/>
  <path d="M 95.93053850000001,15.296726999999976 L 94.9765385,15.296726999999976" fill="none" stroke="rgb(133,12,255)" stroke-width="0.1"/>
  <path d="M 95.93053850000001,19.76972699999999 L 100.0,19.76972699999999" fill="none" stroke="rgb(133,12,255)" stroke-width="0.1"/>
  <path d="M 95.93053850000001,19.26972699999999 L 95.93053850000001,19.76972699999999" fill="none" stroke="rgb(133,12,255)" stroke-width="0.1"/>
  <path d="M 60.23453850000004,18.26972699999999 L 60.23553850000002,71.26972699999999" fill="none" stroke="rgb(133,12,255)" stroke-width="0.1"/>
  <path d="M 58.7315385,19.26972699999999 L 58.73353850000001,69.76972699999999" fill="none" stroke="rgb(133,12,255)" stroke-width="0.1"/>
  <path d="M 59.93453850000003,18.26972699999999 L 59.93553850000001,70.96972699999998" fill="none" stroke="rgb(133,12,255)" stroke-width="0.1"/>
  <path d="M 60.23353850000001,71.26972699999999 L 43.98453850000004,71.270727" fill="none" stroke="rgb(133,12,255)" stroke-width="0.1"/>
  <path d="M 58.73353850000001,69.76972699999999 L 44.2845385,69.770727" fill="none" stroke="rgb(133,12,255)" stroke-width="0.1"/>
  <path d="M 59.93553850000001,70.96972699999998 L 44.2845385,70.97072699999998" fill="none" stroke="rgb(133,12,255)" stroke-width="0.1"/>
  <path d="M 43.98453850000004,71.270727 L 43.98453850000004,68.76772699999998" fill="none" stroke="rgb(133,12,255)" stroke-width="0.1"/>
  <path d="M 44.2845385,70.97072699999998 L 44.2845385,68.76772699999998" fill="none" stroke="rgb(133,12,255)" stroke-width="0.1"/>
  <path d="M 68.23453850000004,21.26972699999999 L 75.47453850000005,21.26972699999999" fill="none" stroke="rgb(133,12,255)" stroke-width="0.1"/>
  <path d="M 68.5345385,20.969726999999978 L 75.17453850000004,20.969726999999978" fill="none" stroke="rgb(133,12,255)" stroke-width="0.1"/>
  <path d="M 75.47453850000005,21.26972699999999 L 75.4793133366735,0.0" fill="none" stroke="rgb(133,12,255)" stroke-width="0.1"/>
  <path d="M 75.17453850000004,20.969726999999978 L 75.17887108822316,0.0" fill="none" stroke="rgb(133,12,255)" stroke-width="0.1"/>
  <path d="M 68.5345385,18.26972699999999 L 68.5345385,20.969726999999978" fill="none" stroke="rgb(133,12,255)" stroke-width="0.1"/>
  <path d="M 68.23453850000004,18.26972699999999 L 68.23453850000004,21.26972699999999" fill="none" stroke="rgb(133,12,255)" stroke-width="0.1"/>
 </g>
 <g id="layer砼墙" inkscape:groupmode="layer" inkscape:label="砼墙">
  <path d="M 100.0,19.270726999999994 L 98.48453850000004,19.270726999999994" fill="none" instance-id="-1" semantic-id="1" stroke="rgb(0,178,0)" stroke-width="0.1"/>
  <path d="M 100.0,15.270726999999994 L 98.48453850000004,15.270726999999994" fill="none" instance-id="-1" semantic-id="1" stroke="rgb(0,178,0)" stroke-width="0.1"/>
  <path d="M 98.48453850000004,15.270726999999994 L 98.48453850000004,19.270726999999994" fill="none" instance-id="-1" semantic-id="1" stroke="rgb(0,178,0)" stroke-width="0.1"/>
  <path d="M 69.48453850000004,19.270726999999994 L 69.48453850000004,0.0" fill="none" instance-id="-1" semantic-id="1" stroke="rgb(0,178,0)" stroke-width="0.1"/>
  <path d="M 73.48453850000004,19.270726999999994 L 73.48453850000004,0.0" fill="none" instance-id="-1" semantic-id="1" stroke="rgb(0,178,0)" stroke-width="0.1"/>
  <path d="M 69.48453850000004,19.270726999999994 L 73.48453850000004,19.270726999999994" fill="none" instance-id="-1" semantic-id="1" stroke="rgb(0,178,0)" stroke-width="0.1"/>
  <path d="M 54.23453850000004,51.770726999999994 L 54.23453850000004,15.770726999999994" fill="none" instance-id="-1" semantic-id="1" stroke="rgb(0,178,0)" stroke-width="0.1"/>
  <path d="M 58.23453850000004,55.770726999999994 L 58.23453850000004,15.770726999999994" fill="none" instance-id="-1" semantic-id="1" stroke="rgb(0,178,0)" stroke-width="0.1"/>
  <path d="M 58.23453850000004,15.770726999999994 L 54.23453850000004,15.770726999999994" fill="none" instance-id="-1" semantic-id="1" stroke="rgb(0,178,0)" stroke-width="0.1"/>
  <path d="M 23.984538500000042,69.270727 L 15.484538500000042,69.270727" fill="none" instance-id="-1" semantic-id="1" stroke="rgb(0,178,0)" stroke-width="0.1"/>
  <path d="M 19.984538500000042,65.270727 L 15.484538500000042,65.270727" fill="none" instance-id="-1" semantic-id="1" stroke="rgb(0,178,0)" stroke-width="0.1"/>
  <path d="M 15.484538500000042,69.270727 L 15.484538500000042,65.270727" fill="none" instance-id="-1" semantic-id="1" stroke="rgb(0,178,0)" stroke-width="0.1"/>
  <path d="M 24.484538500000042,55.770726999999994 L 23.984538500000042,55.770726999999994" fill="none" instance-id="-1" semantic-id="1" stroke="rgb(0,178,0)" stroke-width="0.1"/>
  <path d="M 24.484538500000042,51.770726999999994 L 19.984538500000042,51.770726999999994" fill="none" instance-id="-1" semantic-id="1" stroke="rgb(0,178,0)" stroke-width="0.1"/>
  <path d="M 24.484538500000042,55.770726999999994 L 24.484538500000042,51.770726999999994" fill="none" instance-id="-1" semantic-id="1" stroke="rgb(0,178,0)" stroke-width="0.1"/>
  <path d="M 19.984538500000042,65.270727 L 19.984538500000042,51.770726999999994" fill="none" instance-id="-1" semantic-id="1" stroke="rgb(0,178,0)" stroke-width="0.1"/>
  <path d="M 23.984538500000042,69.270727 L 23.984538500000042,55.770726999999994" fill="none" instance-id="-1" semantic-id="1" stroke="rgb(0,178,0)" stroke-width="0.1"/>
  <path d="M 58.23453850000004,55.770726999999994 L 45.48453850000004,55.770726999999994" fill="none" instance-id="-1" semantic-id="1" stroke="rgb(0,178,0)" stroke-width="0.1"/>
  <path d="M 54.23453850000004,51.770726999999994 L 45.48453850000004,51.770726999999994" fill="none" instance-id="-1" semantic-id="1" stroke="rgb(0,178,0)" stroke-width="0.1"/>
  <path d="M 45.48453850000004,51.770726999999994 L 45.48453850000004,55.770726999999994" fill="none" instance-id="-1" semantic-id="1" stroke="rgb(0,178,0)" stroke-width="0.1"/>
 </g>
 <g id="layer索引" inkscape:groupmode="layer" inkscape:label="索引">
  <path d="M 14.639538500000015,39.75572699999998 L 42.851538500000004,39.75572699999998" fill="none" stroke="rgb(255,12,194)" stroke-width="0.1"/>
  <path d="M 14.639538500000015,39.75572699999998 L 13.871538500000042,51.82972699999999" fill="none" stroke="rgb(255,12,194)" stroke-width="0.1"/>
  <path d="M 32.851538500000004,39.75572699999998 L 42.851538500000004,39.75572699999998" fill="none" stroke="rgb(255,12,194)" stroke-width="0.1"/>
  <circle cx="37.851538500000004" cy="39.75572699999998" fill="none" r="5" stroke="rgb(255,12,194)" stroke-width="0.1"/>
  <text fill="rgb(255,12,194)" font-family="Noto Sans CJK SC" font-size="2" transform="rotate(-0.0,36.151538500000015,39.25572699999998)" x="36.151538500000015" y="39.25572699999998">
   A
  </text>
  <text fill="rgb(255,12,194)" font-family="Noto Sans CJK SC" font-size="2" transform="rotate(-0.0,36.151538500000015,43.655726999999985)" x="36.151538500000015" y="43.655726999999985">
   32
  </text>
 </g>
 <g id="layer线脚" inkscape:groupmode="layer" inkscape:label="线脚">
  <path d="M 56.23753850000003,67.26972699999999 L 51.272538499999996,58.527727" fill="none" stroke="rgb(107,79,0)" stroke-width="0.1"/>
  <path d="M 51.272538499999996,58.527727 L 24.484538500000042,52.270726999999994" fill="none" stroke="rgb(107,79,0)" stroke-width="0.1"/>
  <path d="M 19.984538500000042,65.270727 L 15.01953850000001,56.528726999999975" fill="none" stroke="rgb(107,79,0)" stroke-width="0.1"/>
  <path d="M 15.01953850000001,56.528726999999975 L 0.0,54.306972790064236" fill="none" stroke="rgb(107,79,0)" stroke-width="0.1"/>
  <path d="M 22.482538500000032,69.26872699999998 L 22.482538500000032,74.76772699999998" fill="none" stroke="rgb(107,79,0)" stroke-width="0.1"/>
  <path d="M 22.482538500000032,74.76772699999998 L 0.0,74.76772699999998" fill="none" stroke="rgb(107,79,0)" stroke-width="0.1"/>
 </g>
 <g id="layer金属肋" inkscape:groupmode="layer" inkscape:label="金属肋">
  <path d="M 6.483538500000009,76.76972699999999 L 7.983538500000009,76.76972699999999" fill="none" stroke="rgb(178,133,0)" stroke-width="0.1"/>
  <path d="M 7.983538500000009,76.76972699999999 L 7.983538500000009,74.76972699999999" fill="none" stroke="rgb(178,133,0)" stroke-width="0.1"/>
  <path d="M 7.983538500000009,74.76972699999999 L 6.483538500000009,74.76972699999999" fill="none" stroke="rgb(178,133,0)" stroke-width="0.1"/>
  <path d="M 6.483538500000009,74.76972699999999 L 6.483538500000009,76.76972699999999" fill="none" stroke="rgb(178,133,0)" stroke-width="0.1"/>
  <path d="M 21.42653850000005,74.76772699999998 L 22.487538500000028,74.76772699999998" fill="none" stroke="rgb(178,133,0)" stroke-width="0.1"/>
  <path d="M 22.487538500000028,74.76772699999998 L 22.487538500000028,73.70772699999998" fill="none" stroke="rgb(178,133,0)" stroke-width="0.1"/>
  <path d="M 22.487538500000028,73.70772699999998 L 24.487538500000028,75.70772699999998" fill="none" stroke="rgb(178,133,0)" stroke-width="0.1"/>
  <path d="M 24.487538500000028,75.70772699999998 L 24.487538500000028,76.76772699999998" fill="none" stroke="rgb(178,133,0)" stroke-width="0.1"/>
  <path d="M 24.487538500000028,76.76772699999998 L 23.42653850000005,76.76772699999998" fill="none" stroke="rgb(178,133,0)" stroke-width="0.1"/>
  <path d="M 23.42653850000005,76.76772699999998 L 21.42653850000005,74.76772699999998" fill="none" stroke="rgb(178,133,0)" stroke-width="0.1"/>
 </g>
 <g id="layer雨水" inkscape:groupmode="layer" inkscape:label="雨水">
  <path d="M 21.47453850000005,71.77272699999997 L 21.47453850000005,73.77272699999997" fill="none" stroke="rgb(53,107,160)" stroke-width="0.1"/>
  <path d="M 20.47453850000005,72.77272699999997 L 22.47453850000005,72.77272699999997" fill="none" stroke="rgb(53,107,160)" stroke-width="0.1"/>
  <path d="M 56.163538500000016,57.687726999999995 L 54.163538500000016,57.687726999999995" fill="none" stroke="rgb(53,107,160)" stroke-width="0.1"/>
  <path d="M 55.163538500000016,56.687726999999995 L 55.163538500000016,58.687726999999995" fill="none" stroke="rgb(53,107,160)" stroke-width="0.1"/>
  <circle cx="59.30153850000005" cy="57.677726999999976" fill="none" r="0.5" stroke="rgb(53,107,160)" stroke-width="0.1"/>
  <circle cx="21.47453850000005" cy="72.77272699999997" fill="none" r="0.5" stroke="rgb(53,107,160)" stroke-width="0.1"/>
  <circle cx="55.163538500000016" cy="57.687726999999995" fill="none" r="0.5" stroke="rgb(53,107,160)" stroke-width="0.1"/>
 </g>
</svg>