<?xml version="1.0" encoding="utf-8"?>
<svg style="background-color: #000;" version="1.1" viewBox="0 0 100.0 100.0" xmlns="http://www.w3.org/2000/svg" xmlns:inkscape="http://www.inkscape.org/namespaces/inkscape">
 <g id="layerAXIS" inkscape:groupmode="layer" inkscape:label="AXIS">
  <path d="M 9.749484999999993,1.2226115000000064 L 9.749484999999993,0.0" fill="none" stroke="rgb(0,178,0)" stroke-width="0.1"/>
  <path d="M 32.74948499999999,1.2226115000000064 L 32.74948499999999,0.0" fill="none" stroke="rgb(0,178,0)" stroke-width="0.1"/>
  <path d="M 55.74948499999999,1.2226115000000064 L 55.74948499999999,0.0" fill="none" stroke="rgb(0,178,0)" stroke-width="0.1"/>
  <path d="M 70.99948499999999,1.2226115000000064 L 70.99948499999999,0.0" fill="none" stroke="rgb(0,178,0)" stroke-width="0.1"/>
  <path d="M 95.74848500000002,1.2226115000000064 L 95.74848500000002,0.0" fill="none" stroke="rgb(0,178,0)" stroke-width="0.1"/>
  <path d="M 20.002485000000036,5.924711500000008 L 20.002485000000036,0.0" fill="none" stroke="rgb(0,178,0)" stroke-width="0.1"/>
 </g>
 <g id="layerCOLUMN" inkscape:groupmode="layer" inkscape:label="COLUMN">
  <path d="M 70.00048500000003,67.88861150000001 L 74.00048500000003,67.88861150000001" fill="none" stroke="rgb(134,134,134)" stroke-width="0.1"/>
  <path d="M 74.00048500000003,67.88861150000001 L 74.00048500000003,62.88851150000001" fill="none" stroke="rgb(134,134,134)" stroke-width="0.1"/>
  <path d="M 74.00048500000003,62.88851150000001 L 70.00048500000003,62.88851150000001" fill="none" stroke="rgb(134,134,134)" stroke-width="0.1"/>
  <path d="M 70.00048500000003,62.88851150000001 L 70.00048500000003,67.88861150000001" fill="none" stroke="rgb(134,134,134)" stroke-width="0.1"/>
 </g>
 <g id="layerDIM_SYMB" inkscape:groupmode="layer" inkscape:label="DIM_SYMB">
  <path d="M 9.349485000000016,86.57061150000001 L 15.899485000000027,86.57061150000001" fill="none" stroke="rgb(0,178,0)" stroke-width="0.1"/>
  <path d="M 15.899485000000027,86.57061150000001 L 18.899485000000027,86.57061150000001" fill="none" stroke="rgb(0,178,0)" stroke-width="0.1"/>
  <path d="M 9.349485000000016,72.94561150000001 L 60.849485000000016,72.94561150000001" fill="none" stroke="rgb(0,178,0)" stroke-width="0.1"/>
  <path d="M 60.849485000000016,72.94561150000001 L 60.849485000000016,86.57061150000001" fill="none" stroke="rgb(0,178,0)" stroke-width="0.1"/>
  <path d="M 60.849485000000016,86.57061150000001 L 45.64948500000003,86.57061150000001" fill="none" stroke="rgb(0,178,0)" stroke-width="0.1"/>
  <path d="M 45.64948500000003,86.57061150000001 L 42.64948500000003,86.57061150000001" fill="none" stroke="rgb(0,178,0)" stroke-width="0.1"/>
  <path d="M 100.0,5.924711500000008 L 44.16548499999999,5.924711500000008" fill="none" stroke="rgb(0,178,0)" stroke-width="0.1"/>
  <path d="M 44.16548499999999,5.924711500000008 L 43.400485,8.02471150000001" fill="none" stroke="rgb(0,178,0)" stroke-width="0.1"/>
  <path d="M 43.400485,8.02471150000001 L 42.660484999999994,3.8247115000000065" fill="none" stroke="rgb(0,178,0)" stroke-width="0.1"/>
  <path d="M 42.660484999999994,3.8247115000000065 L 41.91548499999999,5.924711500000008" fill="none" stroke="rgb(0,178,0)" stroke-width="0.1"/>
  <path d="M 41.91548499999999,5.924711500000008 L 0.0,5.924711500000008" fill="none" stroke="rgb(0,178,0)" stroke-width="0.1"/>
 </g>
 <g id="layerDOTE" inkscape:groupmode="layer" inkscape:label="DOTE">
  <path d="M 100.0,64.38861150000001 L 0.0,64.38861150000001" fill="none" stroke="rgb(178,0,0)" stroke-width="0.1"/>
  <path d="M 55.74948499999999,100.0 L 55.74948499999999,5.924711500000008" fill="none" stroke="rgb(178,0,0)" stroke-width="0.1"/>
  <path d="M 32.74948499999999,100.0 L 32.74948499999999,5.924711500000008" fill="none" stroke="rgb(178,0,0)" stroke-width="0.1"/>
  <path d="M 100.0,90.38861150000001 L 0.0,90.38861150000001" fill="none" stroke="rgb(178,0,0)" stroke-width="0.1"/>
  <path d="M 70.99948499999999,100.0 L 70.99948499999999,5.924711500000008" fill="none" stroke="rgb(178,0,0)" stroke-width="0.1"/>
  <path d="M 95.74948499999999,100.0 L 95.74948499999999,5.924711500000008" fill="none" stroke="rgb(178,0,0)" stroke-width="0.1"/>
  <path d="M 9.749484999999993,100.0 L 9.749484999999993,5.924711500000008" fill="none" stroke="rgb(178,0,0)" stroke-width="0.1"/>
  <path d="M 100.0,94.6386115 L 0.0,94.6386115" fill="none" stroke="rgb(178,0,0)" stroke-width="0.1"/>
 </g>
 <g id="layerPUB_TEXT" inkscape:groupmode="layer" inkscape:label="PUB_TEXT">
  <text fill="rgb(0,0,0)" font-family="Noto Sans CJK SC" font-size="2" transform="rotate(-0.0,6.264485000000036,88.32061150000001)" x="6.264485000000036" y="88.32061150000001">
   上
  </text>
  <text fill="rgb(0,0,0)" font-family="Noto Sans CJK SC" font-size="2" transform="rotate(-0.0,6.450485000000015,74.69561150000001)" x="6.450485000000015" y="74.69561150000001">
   下
  </text>
 </g>
 <g id="layerSTAIR" inkscape:groupmode="layer" inkscape:label="STAIR">
  <path d="M 10.649485000000027,80.50861150000001 L 10.649485000000027,78.99861150000001" fill="none" instance-id="3" semantic-id="30" stroke="rgb(178,178,0)" stroke-width="0.1"/>
  <path d="M 37.78848500000004,92.6336115 L 54.849485000000016,92.6336115" fill="none" instance-id="3" semantic-id="30" stroke="rgb(178,178,0)" stroke-width="0.1"/>
  <path d="M 9.649485000000027,79.00861150000001 L 9.649485000000027,80.50861150000001" fill="none" instance-id="3" semantic-id="30" stroke="rgb(178,178,0)" stroke-width="0.1"/>
  <path d="M 9.649485000000027,80.50861150000001 L 54.849485000000016,80.50861150000001" fill="none" instance-id="3" semantic-id="30" stroke="rgb(178,178,0)" stroke-width="0.1"/>
  <path d="M 54.849485000000016,80.50861150000001 L 54.849485000000016,79.00861150000001" fill="none" instance-id="3" semantic-id="30" stroke="rgb(178,178,0)" stroke-width="0.1"/>
  <path d="M 54.849485000000016,79.00861150000001 L 9.649485000000027,79.00861150000001" fill="none" instance-id="3" semantic-id="30" stroke="rgb(178,178,0)" stroke-width="0.1"/>
  <path d="M 9.049485000000004,78.4086115 L 9.049485000000004,81.10861150000001" fill="none" instance-id="3" semantic-id="30" stroke="rgb(178,178,0)" stroke-width="0.1"/>
  <path d="M 9.049485000000004,81.10861150000001 L 28.148484999999994,81.10861150000001" fill="none" instance-id="3" semantic-id="30" stroke="rgb(178,178,0)" stroke-width="0.1"/>
  <path d="M 44.44948500000004,81.10861150000001 L 55.44948500000004,81.10861150000001" fill="none" instance-id="3" semantic-id="30" stroke="rgb(178,178,0)" stroke-width="0.1"/>
  <path d="M 55.44948500000004,81.10861150000001 L 55.44948500000004,78.4086115" fill="none" instance-id="3" semantic-id="30" stroke="rgb(178,178,0)" stroke-width="0.1"/>
  <path d="M 55.44948500000004,78.4086115 L 9.049485000000004,78.4086115" fill="none" instance-id="3" semantic-id="30" stroke="rgb(178,178,0)" stroke-width="0.1"/>
  <path d="M 10.649485000000027,80.50861150000001 L 10.649485000000027,79.00861150000001" fill="none" instance-id="3" semantic-id="30" stroke="rgb(178,178,0)" stroke-width="0.1"/>
  <path d="M 44.44948500000004,81.10861150000001 L 44.44948500000004,92.6336115" fill="none" instance-id="3" semantic-id="30" stroke="rgb(178,178,0)" stroke-width="0.1"/>
  <path d="M 47.049485000000004,81.10861150000001 L 47.049485000000004,92.6336115" fill="none" instance-id="3" semantic-id="30" stroke="rgb(178,178,0)" stroke-width="0.1"/>
  <path d="M 49.64948500000003,81.10861150000001 L 49.64948500000003,92.6336115" fill="none" instance-id="3" semantic-id="30" stroke="rgb(178,178,0)" stroke-width="0.1"/>
  <path d="M 52.24948499999999,81.10861150000001 L 52.24948499999999,92.6336115" fill="none" instance-id="3" semantic-id="30" stroke="rgb(178,178,0)" stroke-width="0.1"/>
  <path d="M 54.849485000000016,81.10861150000001 L 54.849485000000016,92.6336115" fill="none" instance-id="3" semantic-id="30" stroke="rgb(178,178,0)" stroke-width="0.1"/>
  <path d="M 44.44948500000004,81.10861150000001 L 44.44948500000004,80.50861150000001" fill="none" instance-id="3" semantic-id="30" stroke="rgb(178,178,0)" stroke-width="0.1"/>
  <path d="M 54.849485000000016,79.00861150000001 L 10.649485000000027,79.00861150000001" fill="none" instance-id="3" semantic-id="30" stroke="rgb(178,178,0)" stroke-width="0.1"/>
  <path d="M 54.849485000000016,66.88361150000001 L 10.649485000000027,66.88361150000001" fill="none" instance-id="3" semantic-id="30" stroke="rgb(178,178,0)" stroke-width="0.1"/>
  <path d="M 54.849485000000016,79.00861150000001 L 54.849485000000016,66.88361150000001" fill="none" instance-id="3" semantic-id="30" stroke="rgb(178,178,0)" stroke-width="0.1"/>
  <path d="M 52.24948499999999,79.00861150000001 L 52.24948499999999,66.88361150000001" fill="none" instance-id="3" semantic-id="30" stroke="rgb(178,178,0)" stroke-width="0.1"/>
  <path d="M 49.64948500000003,79.00861150000001 L 49.64948500000003,66.88361150000001" fill="none" instance-id="3" semantic-id="30" stroke="rgb(178,178,0)" stroke-width="0.1"/>
  <path d="M 47.049485000000004,79.00861150000001 L 47.049485000000004,66.88361150000001" fill="none" instance-id="3" semantic-id="30" stroke="rgb(178,178,0)" stroke-width="0.1"/>
  <path d="M 44.44948500000004,79.00861150000001 L 44.44948500000004,66.88361150000001" fill="none" instance-id="3" semantic-id="30" stroke="rgb(178,178,0)" stroke-width="0.1"/>
  <path d="M 41.849485000000016,79.00861150000001 L 41.849485000000016,66.88361150000001" fill="none" instance-id="3" semantic-id="30" stroke="rgb(178,178,0)" stroke-width="0.1"/>
  <path d="M 39.24948499999999,79.00861150000001 L 39.24948499999999,66.88361150000001" fill="none" instance-id="3" semantic-id="30" stroke="rgb(178,178,0)" stroke-width="0.1"/>
  <path d="M 36.64948500000003,79.00861150000001 L 36.64948500000003,66.88361150000001" fill="none" instance-id="3" semantic-id="30" stroke="rgb(178,178,0)" stroke-width="0.1"/>
  <path d="M 34.049485000000004,79.00861150000001 L 34.049485000000004,66.88361150000001" fill="none" instance-id="3" semantic-id="30" stroke="rgb(178,178,0)" stroke-width="0.1"/>
  <path d="M 31.44948500000004,79.00861150000001 L 31.44948500000004,66.88361150000001" fill="none" instance-id="3" semantic-id="30" stroke="rgb(178,178,0)" stroke-width="0.1"/>
  <path d="M 28.849485000000016,79.00861150000001 L 28.849485000000016,66.88361150000001" fill="none" instance-id="3" semantic-id="30" stroke="rgb(178,178,0)" stroke-width="0.1"/>
  <path d="M 26.249484999999993,79.00861150000001 L 26.249484999999993,66.88361150000001" fill="none" instance-id="3" semantic-id="30" stroke="rgb(178,178,0)" stroke-width="0.1"/>
  <path d="M 23.649485000000027,79.00861150000001 L 23.649485000000027,66.88361150000001" fill="none" instance-id="3" semantic-id="30" stroke="rgb(178,178,0)" stroke-width="0.1"/>
  <path d="M 21.049485000000004,79.00861150000001 L 21.049485000000004,66.88361150000001" fill="none" instance-id="3" semantic-id="30" stroke="rgb(178,178,0)" stroke-width="0.1"/>
  <path d="M 18.44948500000004,79.00861150000001 L 18.44948500000004,66.88361150000001" fill="none" instance-id="3" semantic-id="30" stroke="rgb(178,178,0)" stroke-width="0.1"/>
  <path d="M 15.849485000000016,79.00861150000001 L 15.849485000000016,66.88361150000001" fill="none" instance-id="3" semantic-id="30" stroke="rgb(178,178,0)" stroke-width="0.1"/>
  <path d="M 13.249484999999993,79.00861150000001 L 13.249484999999993,66.88361150000001" fill="none" instance-id="3" semantic-id="30" stroke="rgb(178,178,0)" stroke-width="0.1"/>
  <path d="M 10.649485000000027,79.00861150000001 L 10.649485000000027,66.88361150000001" fill="none" instance-id="3" semantic-id="30" stroke="rgb(178,178,0)" stroke-width="0.1"/>
  <path d="M 21.049485000000004,93.2286115 L 21.049485000000004,88.03861150000002" fill="none" instance-id="3" semantic-id="30" stroke="rgb(178,178,0)" stroke-width="0.1"/>
  <path d="M 21.049485000000004,87.31961150000001 L 21.049485000000004,86.4916115" fill="none" instance-id="3" semantic-id="30" stroke="rgb(178,178,0)" stroke-width="0.1"/>
  <path d="M 18.44948500000004,93.2286115 L 18.44948500000004,81.10861150000001" fill="none" instance-id="3" semantic-id="30" stroke="rgb(178,178,0)" stroke-width="0.1"/>
  <path d="M 15.849485000000016,93.2286115 L 15.849485000000016,81.10861150000001" fill="none" instance-id="3" semantic-id="30" stroke="rgb(178,178,0)" stroke-width="0.1"/>
  <path d="M 13.249484999999993,93.2286115 L 13.249484999999993,81.10861150000001" fill="none" instance-id="3" semantic-id="30" stroke="rgb(178,178,0)" stroke-width="0.1"/>
  <path d="M 23.12948499999999,93.2286115 L 10.649485000000027,93.2286115" fill="none" instance-id="3" semantic-id="30" stroke="rgb(178,178,0)" stroke-width="0.1"/>
  <path d="M 18.96948500000002,81.10861150000001 L 10.649485000000027,81.10861150000001" fill="none" instance-id="3" semantic-id="30" stroke="rgb(178,178,0)" stroke-width="0.1"/>
  <path d="M 10.649485000000027,93.2286115 L 10.649485000000027,81.10861150000001" fill="none" instance-id="3" semantic-id="30" stroke="rgb(178,178,0)" stroke-width="0.1"/>
  <path d="M 18.96948500000002,81.10861150000001 L 20.82248500000003,86.50761150000001" fill="none" instance-id="3" semantic-id="30" stroke="rgb(178,178,0)" stroke-width="0.1"/>
  <path d="M 20.82248500000003,86.50761150000001 L 22.16948500000001,86.4146115" fill="none" instance-id="3" semantic-id="30" stroke="rgb(178,178,0)" stroke-width="0.1"/>
  <path d="M 22.16948500000001,86.4146115 L 20.077485000000024,88.10561150000001" fill="none" instance-id="3" semantic-id="30" stroke="rgb(178,178,0)" stroke-width="0.1"/>
  <path d="M 20.077485000000024,88.10561150000001 L 21.341485000000034,88.0186115" fill="none" instance-id="3" semantic-id="30" stroke="rgb(178,178,0)" stroke-width="0.1"/>
  <path d="M 21.341485000000034,88.0186115 L 23.12948499999999,93.2286115" fill="none" instance-id="3" semantic-id="30" stroke="rgb(178,178,0)" stroke-width="0.1"/>
 </g>
 <g id="layerWALL" inkscape:groupmode="layer" inkscape:label="WALL">
  <path d="M 10.649485000000027,79.00861150000001 L 54.849485000000016,79.00861150000001" fill="none" instance-id="-1" semantic-id="1" stroke="rgb(0,0,0)" stroke-width="0.1"/>
  <path d="M 10.649485000000027,80.50861150000001 L 54.849485000000016,80.50861150000001" fill="none" instance-id="-1" semantic-id="1" stroke="rgb(0,0,0)" stroke-width="0.1"/>
  <path d="M 10.649485000000027,79.00861150000001 L 10.649485000000027,80.50861150000001" fill="none" instance-id="-1" semantic-id="1" stroke="rgb(0,0,0)" stroke-width="0.1"/>
  <path d="M 54.849485000000016,79.00861150000001 L 54.849485000000016,80.50861150000001" fill="none" instance-id="-1" semantic-id="1" stroke="rgb(0,0,0)" stroke-width="0.1"/>
  <path d="M 37.49948499999999,100.0 L 37.49948499999999,95.6386115" fill="none" instance-id="-1" semantic-id="1" stroke="rgb(0,0,0)" stroke-width="0.1"/>
  <path d="M 39.49948499999999,100.0 L 39.49948499999999,95.6386115" fill="none" instance-id="-1" semantic-id="1" stroke="rgb(0,0,0)" stroke-width="0.1"/>
  <path d="M 54.74948499999999,100.0 L 54.74948499999999,95.6386115" fill="none" instance-id="-1" semantic-id="1" stroke="rgb(0,0,0)" stroke-width="0.1"/>
  <path d="M 56.74948499999999,100.0 L 56.74948499999999,92.6386115" fill="none" instance-id="-1" semantic-id="1" stroke="rgb(0,0,0)" stroke-width="0.1"/>
  <path d="M 10.749484999999993,95.6386115 L 8.749484999999993,95.6386115" fill="none" instance-id="-1" semantic-id="1" stroke="rgb(0,0,0)" stroke-width="0.1"/>
  <path d="M 8.749484999999993,62.888711500000014 L 56.74948499999999,62.888711500000014" fill="none" instance-id="-1" semantic-id="1" stroke="rgb(0,0,0)" stroke-width="0.1"/>
  <path d="M 8.749484999999993,66.88861150000001 L 56.74948499999999,66.88861150000001" fill="none" instance-id="-1" semantic-id="1" stroke="rgb(0,0,0)" stroke-width="0.1"/>
  <path d="M 8.749484999999993,62.888711500000014 L 8.749484999999993,66.88861150000001" fill="none" instance-id="-1" semantic-id="1" stroke="rgb(0,0,0)" stroke-width="0.1"/>
  <path d="M 56.74948499999999,62.888711500000014 L 56.74948499999999,66.88861150000001" fill="none" instance-id="-1" semantic-id="1" stroke="rgb(0,0,0)" stroke-width="0.1"/>
  <path d="M 69.99948499999999,100.0 L 69.99948499999999,65.88861150000001" fill="none" instance-id="-1" semantic-id="1" stroke="rgb(0,0,0)" stroke-width="0.1"/>
  <path d="M 73.49948499999999,100.0 L 73.49948499999999,67.88861150000001" fill="none" instance-id="-1" semantic-id="1" stroke="rgb(0,0,0)" stroke-width="0.1"/>
  <path d="M 9.749484999999993,92.6386115 L 38.49948499999999,92.6386115" fill="none" instance-id="-1" semantic-id="1" stroke="rgb(0,0,0)" stroke-width="0.1"/>
  <path d="M 10.749484999999993,95.6386115 L 37.49948499999999,95.6386115" fill="none" instance-id="-1" semantic-id="1" stroke="rgb(0,0,0)" stroke-width="0.1"/>
  <path d="M 38.49948499999999,92.6386115 L 56.74948499999999,92.6386115" fill="none" instance-id="-1" semantic-id="1" stroke="rgb(0,0,0)" stroke-width="0.1"/>
  <path d="M 39.49948499999999,95.6386115 L 54.74948499999999,95.6386115" fill="none" instance-id="-1" semantic-id="1" stroke="rgb(0,0,0)" stroke-width="0.1"/>
  <path d="M 9.749484999999993,94.6386115 L 8.499484999999993,94.6386115" fill="none" instance-id="-1" semantic-id="1" stroke="rgb(0,0,0)" stroke-width="0.1"/>
  <path d="M 8.499484999999993,94.6386115 L 8.499484999999993,95.6386115" fill="none" instance-id="-1" semantic-id="1" stroke="rgb(0,0,0)" stroke-width="0.1"/>
  <path d="M 8.499484999999993,95.6386115 L 8.749484999999993,95.6386115" fill="none" instance-id="-1" semantic-id="1" stroke="rgb(0,0,0)" stroke-width="0.1"/>
  <path d="M 0.0,62.88861150000001 L 8.749484999999993,62.88861150000001" fill="none" instance-id="-1" semantic-id="1" stroke="rgb(0,0,0)" stroke-width="0.1"/>
  <path d="M 0.0,64.88861150000001 L 8.749484999999993,64.88861150000001" fill="none" instance-id="-1" semantic-id="1" stroke="rgb(0,0,0)" stroke-width="0.1"/>
  <path d="M 8.749484999999993,62.88861150000001 L 8.749484999999993,64.88861150000001" fill="none" instance-id="-1" semantic-id="1" stroke="rgb(0,0,0)" stroke-width="0.1"/>
  <path d="M 56.750485000000026,62.88861150000001 L 69.99948499999999,62.88861150000001" fill="none" instance-id="-1" semantic-id="1" stroke="rgb(0,0,0)" stroke-width="0.1"/>
  <path d="M 56.750485000000026,64.88861150000001 L 69.99948499999999,64.88861150000001" fill="none" instance-id="-1" semantic-id="1" stroke="rgb(0,0,0)" stroke-width="0.1"/>
  <path d="M 56.750485000000026,62.88861150000001 L 56.750485000000026,64.88861150000001" fill="none" instance-id="-1" semantic-id="1" stroke="rgb(0,0,0)" stroke-width="0.1"/>
  <path d="M 69.99948499999999,62.88861150000001 L 69.99948499999999,64.88861150000001" fill="none" instance-id="-1" semantic-id="1" stroke="rgb(0,0,0)" stroke-width="0.1"/>
  <path d="M 56.74948499999999,92.6386115 L 69.99948499999999,92.6386115" fill="none" instance-id="-1" semantic-id="1" stroke="rgb(0,0,0)" stroke-width="0.1"/>
  <path d="M 56.74948499999999,94.6386115 L 69.99948499999999,94.6386115" fill="none" instance-id="-1" semantic-id="1" stroke="rgb(0,0,0)" stroke-width="0.1"/>
  <path d="M 56.74948499999999,92.6386115 L 56.74948499999999,94.6386115" fill="none" instance-id="-1" semantic-id="1" stroke="rgb(0,0,0)" stroke-width="0.1"/>
  <path d="M 69.99948499999999,92.6386115 L 69.99948499999999,94.6386115" fill="none" instance-id="-1" semantic-id="1" stroke="rgb(0,0,0)" stroke-width="0.1"/>
  <path d="M 98.74948499999999,93.3886115 L 98.74948499999999,100.0" fill="none" instance-id="-1" semantic-id="1" stroke="rgb(0,0,0)" stroke-width="0.1"/>
  <path d="M 94.74948499999999,89.38861150000001 L 94.74948499999999,100.0" fill="none" instance-id="-1" semantic-id="1" stroke="rgb(0,0,0)" stroke-width="0.1"/>
  <path d="M 100.0,93.3886115 L 98.74948499999999,93.3886115" fill="none" instance-id="-1" semantic-id="1" stroke="rgb(0,0,0)" stroke-width="0.1"/>
  <path d="M 100.0,89.38861150000001 L 94.74948499999999,89.38861150000001" fill="none" instance-id="-1" semantic-id="1" stroke="rgb(0,0,0)" stroke-width="0.1"/>
 </g>
 <g id="layerWINDOW" inkscape:groupmode="layer" inkscape:label="WINDOW">
  <path d="M 8.499484999999993,94.6386115 L 0.0,94.6386115" fill="none" instance-id="5" semantic-id="4" stroke="rgb(0,178,178)" stroke-width="0.1"/>
  <path d="M 8.749484999999993,95.6386115 L 8.749484999999993,100.0" fill="none" instance-id="4" semantic-id="9" stroke="rgb(0,178,178)" stroke-width="0.1"/>
  <path d="M 10.749484999999993,95.6386115 L 10.749484999999993,100.0" fill="none" instance-id="4" semantic-id="9" stroke="rgb(0,178,178)" stroke-width="0.1"/>
  <path d="M 10.083484999999996,100.0 L 10.083484999999996,95.6386115" fill="none" instance-id="4" semantic-id="9" stroke="rgb(0,178,178)" stroke-width="0.1"/>
  <path d="M 9.416485000000023,100.0 L 9.416485000000023,95.6386115" fill="none" instance-id="4" semantic-id="9" stroke="rgb(0,178,178)" stroke-width="0.1"/>
  <path d="M 8.749484999999993,95.6386115 L 10.749484999999993,95.6386115" fill="none" instance-id="4" semantic-id="9" stroke="rgb(0,178,178)" stroke-width="0.1"/>
  <path d="M 4.828485000000001,95.1216115 L 4.810281769330686,94.60813540595896" fill="none" instance-id="5" semantic-id="4" stroke="rgb(0,178,178)" stroke-width="0.1"/>
  <path d="M 4.810281769330686,94.60813540595896 L 4.760663759558611,94.09673819256702" fill="none" instance-id="5" semantic-id="4" stroke="rgb(0,178,178)" stroke-width="0.1"/>
  <path d="M 4.760663759558611,94.09673819256702 L 4.679817273375932,93.58934002304858" fill="none" instance-id="5" semantic-id="4" stroke="rgb(0,178,178)" stroke-width="0.1"/>
  <path d="M 4.679817273375932,93.58934002304858 L 4.568045868263027,93.08784604526036" fill="none" instance-id="5" semantic-id="4" stroke="rgb(0,178,178)" stroke-width="0.1"/>
  <path d="M 4.568045868263027,93.08784604526036 L 4.4257692167091705,92.59413923835837" fill="none" instance-id="5" semantic-id="4" stroke="rgb(0,178,178)" stroke-width="0.1"/>
  <path d="M 4.4257692167091705,92.59413923835837 L 4.253521530452019,92.11007334270178" fill="none" instance-id="5" semantic-id="4" stroke="rgb(0,178,178)" stroke-width="0.1"/>
  <path d="M 4.253521530452019,92.11007334270178 L 4.051949554651458,91.63746589954135" fill="none" instance-id="5" semantic-id="4" stroke="rgb(0,178,178)" stroke-width="0.1"/>
  <path d="M 4.051949554651458,91.63746589954135 L 3.8218101395304416,91.17809142662574" fill="none" instance-id="5" semantic-id="4" stroke="rgb(0,178,178)" stroke-width="0.1"/>
  <path d="M 3.8218101395304416,91.17809142662574 L 3.5639673985993454,90.73367475534988" fill="none" instance-id="5" semantic-id="4" stroke="rgb(0,178,178)" stroke-width="0.1"/>
  <path d="M 3.5639673985993454,90.73367475534988 L 3.27938946413542,90.30588455446282" fill="none" instance-id="5" semantic-id="4" stroke="rgb(0,178,178)" stroke-width="0.1"/>
  <path d="M 3.27938946413542,90.30588455446282 L 2.9691448520980543,89.89632706465152" fill="none" instance-id="5" semantic-id="4" stroke="rgb(0,178,178)" stroke-width="0.1"/>
  <path d="M 2.9691448520980543,89.89632706465152 L 2.6343984501301065,89.50654006752579" fill="none" instance-id="5" semantic-id="4" stroke="rgb(0,178,178)" stroke-width="0.1"/>
  <path d="M 2.6343984501301065,89.50654006752579 L 2.2764071437085818,89.13798711164922" fill="none" instance-id="5" semantic-id="4" stroke="rgb(0,178,178)" stroke-width="0.1"/>
  <path d="M 2.2764071437085818,89.13798711164922 L 1.896515096866949,88.7920520172959" fill="none" instance-id="5" semantic-id="4" stroke="rgb(0,178,178)" stroke-width="0.1"/>
  <path d="M 1.896515096866949,88.7920520172959 L 1.4961487052100324,88.4700336805659" fill="none" instance-id="5" semantic-id="4" stroke="rgb(0,178,178)" stroke-width="0.1"/>
  <path d="M 1.4961487052100324,88.4700336805659 L 1.0768112401699454,88.17314119636914" fill="none" instance-id="5" semantic-id="4" stroke="rgb(0,178,178)" stroke-width="0.1"/>
  <path d="M 1.0768112401699454,88.17314119636914 L 0.6400772046140446,87.90248931858915" fill="none" instance-id="5" semantic-id="4" stroke="rgb(0,178,178)" stroke-width="0.1"/>
  <path d="M 0.6400772046140446,87.90248931858915 L 0.18758642099703593,87.6590942744728" fill="none" instance-id="5" semantic-id="4" stroke="rgb(0,178,178)" stroke-width="0.1"/>
  <path d="M 8.236485000000016,91.4376115 A 3.68002,3.68002 0.0 0,0 4.828485000000001,95.1216115" fill="none" instance-id="5" semantic-id="4" stroke="rgb(0,178,178)" stroke-width="0.1"/>
  <path d="M 8.271484999999984,95.1216115 L 8.271484999999984,91.4376115" fill="none" instance-id="5" semantic-id="4" stroke="rgb(0,178,178)" stroke-width="0.1"/>
  <path d="M 10.749484999999993,95.6386115 L 35.361485000000016,96.70761150000001" fill="none" stroke="rgb(0,178,178)" stroke-width="0.1"/>
  <path d="M 35.361485000000016,96.70761150000001 L 37.15215572322563,100.0" fill="none" stroke="rgb(0,178,178)" stroke-width="0.1"/>
 </g>
 <g id="layercar" inkscape:groupmode="layer" inkscape:label="car">
  <path d="M 11.002485000000036,5.924711500000008 L 11.002485000000036,32.88911150000001" fill="none" instance-id="-1" semantic-id="35" stroke="rgb(12,73,255)" stroke-width="0.1"/>
  <path d="M 11.002485000000036,32.88911150000001 L 0.0,32.88911150000001" fill="none" instance-id="-1" semantic-id="35" stroke="rgb(12,73,255)" stroke-width="0.1"/>
  <path d="M 53.002485000000036,5.924711500000008 L 53.002485000000036,32.88911150000001" fill="none" instance-id="-1" semantic-id="35" stroke="rgb(12,73,255)" stroke-width="0.1"/>
  <path d="M 40.986485000000016,5.924711500000008 L 29.002485000000036,32.88911150000001" fill="none" instance-id="-1" semantic-id="35" stroke="rgb(12,73,255)" stroke-width="0.1"/>
  <path d="M 29.002485000000036,5.924711500000008 L 29.002485000000036,32.88911150000001" fill="none" instance-id="-1" semantic-id="35" stroke="rgb(12,73,255)" stroke-width="0.1"/>
  <path d="M 53.002485000000036,32.88911150000001 L 29.002485000000036,32.88911150000001" fill="none" instance-id="-1" semantic-id="35" stroke="rgb(12,73,255)" stroke-width="0.1"/>
  <path d="M 77.00248500000004,5.924711500000008 L 77.00248500000004,32.88911150000001" fill="none" instance-id="-1" semantic-id="35" stroke="rgb(12,73,255)" stroke-width="0.1"/>
  <path d="M 64.98648500000002,5.924711500000008 L 53.002485000000036,32.88911150000001" fill="none" instance-id="-1" semantic-id="35" stroke="rgb(12,73,255)" stroke-width="0.1"/>
  <path d="M 53.002485000000036,5.924711500000008 L 53.002485000000036,32.88911150000001" fill="none" instance-id="-1" semantic-id="35" stroke="rgb(12,73,255)" stroke-width="0.1"/>
  <path d="M 77.00248500000004,32.88911150000001 L 53.002485000000036,32.88911150000001" fill="none" instance-id="-1" semantic-id="35" stroke="rgb(12,73,255)" stroke-width="0.1"/>
  <path d="M 88.98648500000002,5.924711500000008 L 77.00248500000004,32.88911150000001" fill="none" instance-id="-1" semantic-id="35" stroke="rgb(12,73,255)" stroke-width="0.1"/>
  <path d="M 77.00248500000004,5.924711500000008 L 77.00248500000004,32.88911150000001" fill="none" instance-id="-1" semantic-id="35" stroke="rgb(12,73,255)" stroke-width="0.1"/>
  <path d="M 100.0,32.88911150000001 L 77.00248500000004,32.88911150000001" fill="none" instance-id="-1" semantic-id="35" stroke="rgb(12,73,255)" stroke-width="0.1"/>
  <path d="M 100.0,32.88911150000001 L 77.00248500000004,32.88911150000001" fill="none" instance-id="-1" semantic-id="35" stroke="rgb(12,73,255)" stroke-width="0.1"/>
  <path d="M 100.0,35.144681864895915 L 77.00248500000004,86.88861150000001" fill="none" instance-id="-1" semantic-id="35" stroke="rgb(12,73,255)" stroke-width="0.1"/>
  <path d="M 77.00248500000004,32.88911150000001 L 77.00248500000004,86.88861150000001" fill="none" instance-id="-1" semantic-id="35" stroke="rgb(12,73,255)" stroke-width="0.1"/>
  <path d="M 100.0,86.88861150000001 L 77.00248500000004,86.88861150000001" fill="none" instance-id="-1" semantic-id="35" stroke="rgb(12,73,255)" stroke-width="0.1"/>
 </g>
 <g id="layer剪力墙填充" inkscape:groupmode="layer" inkscape:label="剪力墙填充">
  <path d="M 73.49948499999999,100.0 L 73.49948499999999,67.88861150000001" fill="none" instance-id="-1" semantic-id="1" stroke="rgb(178,178,0)" stroke-width="0.1"/>
  <path d="M 73.49948499999999,67.88861150000001 L 73.99948499999999,67.88861150000001" fill="none" instance-id="-1" semantic-id="1" stroke="rgb(178,178,0)" stroke-width="0.1"/>
  <path d="M 73.99948499999999,67.88861150000001 L 73.99948499999999,62.888711500000014" fill="none" instance-id="-1" semantic-id="1" stroke="rgb(178,178,0)" stroke-width="0.1"/>
  <path d="M 73.99948499999999,62.888711500000014 L 69.99948499999999,62.888711500000014" fill="none" instance-id="-1" semantic-id="1" stroke="rgb(178,178,0)" stroke-width="0.1"/>
  <path d="M 69.99948499999999,62.888711500000014 L 69.99948499999999,67.88861150000001" fill="none" instance-id="-1" semantic-id="1" stroke="rgb(178,178,0)" stroke-width="0.1"/>
  <path d="M 69.99948499999999,67.88861150000001 L 69.99948499999999,100.0" fill="none" instance-id="-1" semantic-id="1" stroke="rgb(178,178,0)" stroke-width="0.1"/>
  <path d="M 39.49948499999999,95.6386115 L 56.74948499999999,95.6386115" fill="none" instance-id="-1" semantic-id="1" stroke="rgb(178,178,0)" stroke-width="0.1"/>
  <path d="M 56.74948499999999,95.6386115 L 56.74948499999999,92.6386115" fill="none" instance-id="-1" semantic-id="1" stroke="rgb(178,178,0)" stroke-width="0.1"/>
  <path d="M 56.74948499999999,92.6386115 L 37.49948499999999,92.6386115" fill="none" instance-id="-1" semantic-id="1" stroke="rgb(178,178,0)" stroke-width="0.1"/>
  <path d="M 37.49948499999999,92.6386115 L 8.749484999999993,92.6386115" fill="none" instance-id="-1" semantic-id="1" stroke="rgb(178,178,0)" stroke-width="0.1"/>
  <path d="M 8.749484999999993,92.6386115 L 8.749484999999993,95.6386115" fill="none" instance-id="-1" semantic-id="1" stroke="rgb(178,178,0)" stroke-width="0.1"/>
  <path d="M 8.749484999999993,95.6386115 L 37.49948499999999,95.6386115" fill="none" instance-id="-1" semantic-id="1" stroke="rgb(178,178,0)" stroke-width="0.1"/>
  <path d="M 37.49948499999999,95.6386115 L 37.49948499999999,100.0" fill="none" instance-id="-1" semantic-id="1" stroke="rgb(178,178,0)" stroke-width="0.1"/>
  <path d="M 39.49948499999999,100.0 L 39.49948499999999,95.6386115" fill="none" instance-id="-1" semantic-id="1" stroke="rgb(178,178,0)" stroke-width="0.1"/>
  <path d="M 56.74948499999999,66.88861150000001 L 56.74948499999999,62.888711500000014" fill="none" instance-id="-1" semantic-id="1" stroke="rgb(178,178,0)" stroke-width="0.1"/>
  <path d="M 56.74948499999999,62.888711500000014 L 8.749484999999993,62.888711500000014" fill="none" instance-id="-1" semantic-id="1" stroke="rgb(178,178,0)" stroke-width="0.1"/>
  <path d="M 8.749484999999993,62.888711500000014 L 8.749484999999993,66.88861150000001" fill="none" instance-id="-1" semantic-id="1" stroke="rgb(178,178,0)" stroke-width="0.1"/>
  <path d="M 8.749484999999993,66.88861150000001 L 56.74948499999999,66.88861150000001" fill="none" instance-id="-1" semantic-id="1" stroke="rgb(178,178,0)" stroke-width="0.1"/>
  <path d="M 94.74948499999999,89.38861150000001 L 94.74948499999999,100.0" fill="none" instance-id="-1" semantic-id="1" stroke="rgb(178,178,0)" stroke-width="0.1"/>
  <path d="M 98.74948499999999,100.0 L 98.74948499999999,93.3886115" fill="none" instance-id="-1" semantic-id="1" stroke="rgb(178,178,0)" stroke-width="0.1"/>
  <path d="M 98.74948499999999,93.3886115 L 100.0,93.3886115" fill="none" instance-id="-1" semantic-id="1" stroke="rgb(178,178,0)" stroke-width="0.1"/>
  <path d="M 100.0,89.38861150000001 L 94.74948499999999,89.38861150000001" fill="none" instance-id="-1" semantic-id="1" stroke="rgb(178,178,0)" stroke-width="0.1"/>
 </g>
 <g id="layer排气道" inkscape:groupmode="layer" inkscape:label="排气道">
  <path d="M 0.0,89.71649935343021 L 10.083484999999996,98.1386115" fill="none" stroke="rgb(133,0,178)" stroke-width="0.1"/>
 </g>
 <g id="layer文字" inkscape:groupmode="layer" inkscape:label="文字">
  <text fill="rgb(0,0,0)" font-family="Noto Sans CJK SC" font-size="2" transform="rotate(-0.0,23.204485000000034,49.9449115)" x="23.204485000000034" y="49.9449115">
   地下一层车库
  </text>
 </g>
 <g id="layer柱" inkscape:groupmode="layer" inkscape:label="柱">
  <path d="M 69.99948499999999,67.88861150000001 L 73.49948499999999,67.88861150000001" fill="none" stroke="rgb(178,178,0)" stroke-width="0.1"/>
  <path d="M 73.49948499999999,67.88861150000001 L 73.99948499999999,67.88861150000001" fill="none" stroke="rgb(178,178,0)" stroke-width="0.1"/>
  <path d="M 73.99948499999999,67.88861150000001 L 73.99948499999999,62.888711500000014" fill="none" stroke="rgb(178,178,0)" stroke-width="0.1"/>
  <path d="M 73.99948499999999,62.888711500000014 L 69.99948499999999,62.888711500000014" fill="none" stroke="rgb(178,178,0)" stroke-width="0.1"/>
  <path d="M 69.99948499999999,62.888711500000014 L 69.99948499999999,67.88861150000001" fill="none" stroke="rgb(178,178,0)" stroke-width="0.1"/>
  <path d="M 70.00048500000003,67.88861150000001 L 74.00048500000003,67.88861150000001" fill="none" stroke="rgb(178,178,0)" stroke-width="0.1"/>
  <path d="M 74.00048500000003,67.88861150000001 L 74.00048500000003,62.88851150000001" fill="none" stroke="rgb(178,178,0)" stroke-width="0.1"/>
  <path d="M 74.00048500000003,62.88851150000001 L 70.00048500000003,62.88851150000001" fill="none" stroke="rgb(178,178,0)" stroke-width="0.1"/>
  <path d="M 70.00048500000003,62.88851150000001 L 70.00048500000003,67.88861150000001" fill="none" stroke="rgb(178,178,0)" stroke-width="0.1"/>
 </g>
 <g id="layer砼墙" inkscape:groupmode="layer" inkscape:label="砼墙">
  <path d="M 73.49948499999999,100.0 L 73.49948499999999,67.88861150000001" fill="none" instance-id="-1" semantic-id="1" stroke="rgb(0,178,0)" stroke-width="0.1"/>
  <path d="M 69.99948499999999,100.0 L 69.99948499999999,67.88861150000001" fill="none" instance-id="-1" semantic-id="1" stroke="rgb(0,178,0)" stroke-width="0.1"/>
  <path d="M 39.49948499999999,95.6386115 L 56.74948499999999,95.6386115" fill="none" instance-id="-1" semantic-id="1" stroke="rgb(0,178,0)" stroke-width="0.1"/>
  <path d="M 37.49948499999999,92.6386115 L 56.74948499999999,92.6386115" fill="none" instance-id="-1" semantic-id="1" stroke="rgb(0,178,0)" stroke-width="0.1"/>
  <path d="M 56.74948499999999,92.6386115 L 56.74948499999999,95.6386115" fill="none" instance-id="-1" semantic-id="1" stroke="rgb(0,178,0)" stroke-width="0.1"/>
  <path d="M 39.49948499999999,100.0 L 39.49948499999999,95.6386115" fill="none" instance-id="-1" semantic-id="1" stroke="rgb(0,178,0)" stroke-width="0.1"/>
  <path d="M 37.49948499999999,100.0 L 37.49948499999999,95.6386115" fill="none" instance-id="-1" semantic-id="1" stroke="rgb(0,178,0)" stroke-width="0.1"/>
  <path d="M 8.749484999999993,66.88861150000001 L 56.74948499999999,66.88861150000001" fill="none" instance-id="-1" semantic-id="1" stroke="rgb(0,178,0)" stroke-width="0.1"/>
  <path d="M 8.749484999999993,62.888711500000014 L 56.74948499999999,62.888711500000014" fill="none" instance-id="-1" semantic-id="1" stroke="rgb(0,178,0)" stroke-width="0.1"/>
  <path d="M 8.749484999999993,66.88861150000001 L 8.749484999999993,62.888711500000014" fill="none" instance-id="-1" semantic-id="1" stroke="rgb(0,178,0)" stroke-width="0.1"/>
  <path d="M 56.74948499999999,62.888711500000014 L 56.74948499999999,66.88861150000001" fill="none" instance-id="-1" semantic-id="1" stroke="rgb(0,178,0)" stroke-width="0.1"/>
  <path d="M 8.749484999999993,95.6386115 L 37.49948499999999,95.6386115" fill="none" instance-id="-1" semantic-id="1" stroke="rgb(0,178,0)" stroke-width="0.1"/>
  <path d="M 8.749484999999993,92.6386115 L 37.49948499999999,92.6386115" fill="none" instance-id="-1" semantic-id="1" stroke="rgb(0,178,0)" stroke-width="0.1"/>
  <path d="M 8.749484999999993,95.6386115 L 8.749484999999993,92.6386115" fill="none" instance-id="-1" semantic-id="1" stroke="rgb(0,178,0)" stroke-width="0.1"/>
  <path d="M 98.74948499999999,100.0 L 98.74948499999999,93.3886115" fill="none" instance-id="-1" semantic-id="1" stroke="rgb(0,178,0)" stroke-width="0.1"/>
  <path d="M 94.74948499999999,100.0 L 94.74948499999999,89.38861150000001" fill="none" instance-id="-1" semantic-id="1" stroke="rgb(0,178,0)" stroke-width="0.1"/>
  <path d="M 98.74948499999999,93.3886115 L 100.0,93.3886115" fill="none" instance-id="-1" semantic-id="1" stroke="rgb(0,178,0)" stroke-width="0.1"/>
  <path d="M 94.74948499999999,89.38861150000001 L 100.0,89.38861150000001" fill="none" instance-id="-1" semantic-id="1" stroke="rgb(0,178,0)" stroke-width="0.1"/>
 </g>
 <g id="layer车库轴线" inkscape:groupmode="layer" inkscape:label="车库轴线">
  <path d="M 0.0,83.88861150000001 L 100.0,83.88861150000001" fill="none" stroke="rgb(89,89,89)" stroke-width="0.1"/>
  <path d="M 20.002485000000036,100.0 L 20.002485000000036,5.924711500000008" fill="none" stroke="rgb(89,89,89)" stroke-width="0.1"/>
 </g>
</svg>