<?xml version="1.0" encoding="utf-8"?>
<svg style="background-color: #000;" version="1.1" viewBox="0 0 100.0 100.0" xmlns="http://www.w3.org/2000/svg" xmlns:inkscape="http://www.inkscape.org/namespaces/inkscape">
 <g id="layerAXIS" inkscape:groupmode="layer" inkscape:label="AXIS">
  <path d="M 68.31072899999998,78.3098435 L 68.31072899999998,92.8398435" fill="none" stroke="rgb(0,178,0)" stroke-width="0.1"/>
  <path d="M 68.31072899999998,92.8398435 L 59.74372899999997,92.8398435" fill="none" stroke="rgb(0,178,0)" stroke-width="0.1"/>
 </g>
 <g id="layerDIM_SYMB" inkscape:groupmode="layer" inkscape:label="DIM_SYMB">
  <path d="M 66.74172899999996,57.316843500000004 L 66.74172899999996,36.04484350000001" fill="none" stroke="rgb(0,178,0)" stroke-width="0.1"/>
  <path d="M 80.49172899999996,57.316843500000004 L 80.49172899999996,17.110843499999987" fill="none" stroke="rgb(0,178,0)" stroke-width="0.1"/>
  <path d="M 67.34172899999999,36.04484350000001 L 66.74172899999996,33.04484350000001" fill="none" stroke="rgb(0,178,0)" stroke-width="0.1"/>
  <path d="M 66.74172899999996,33.04484350000001 L 66.14172899999997,36.04484350000001" fill="none" stroke="rgb(0,178,0)" stroke-width="0.1"/>
  <path d="M 66.14172899999997,36.04484350000001 L 67.34172899999999,36.04484350000001" fill="none" stroke="rgb(0,178,0)" stroke-width="0.1"/>
  <path d="M 81.09172899999999,17.110843499999987 L 80.49172899999996,14.110843499999987" fill="none" stroke="rgb(0,178,0)" stroke-width="0.1"/>
  <path d="M 80.49172899999996,14.110843499999987 L 79.89172899999997,17.110843499999987" fill="none" stroke="rgb(0,178,0)" stroke-width="0.1"/>
  <path d="M 79.89172899999997,17.110843499999987 L 81.09172899999999,17.110843499999987" fill="none" stroke="rgb(0,178,0)" stroke-width="0.1"/>
  <text fill="rgb(0,0,0)" font-family="Noto Sans CJK SC" font-size="2" transform="rotate(-0.0,65.56472899999997,59.0838435)" x="65.56472899999997" y="59.0838435">
   上
  </text>
  <text fill="rgb(0,0,0)" font-family="Noto Sans CJK SC" font-size="2" transform="rotate(-0.0,79.39172899999997,59.0838435)" x="79.39172899999997" y="59.0838435">
   下
  </text>
 </g>
 <g id="layerPUB_DIM" inkscape:groupmode="layer" inkscape:label="PUB_DIM">
  <path d="M 33.99872899999997,34.941843500000004 L 35.235728999999964,33.70484350000001" fill="none" stroke="rgb(0,178,0)" stroke-width="0.1"/>
  <path d="M 34.616728999999964,37.822843500000005 L 34.616728999999964,30.822843500000005" fill="none" stroke="rgb(0,178,0)" stroke-width="0.1"/>
  <path d="M 55.99872899999997,34.941843500000004 L 57.235728999999964,33.70484350000001" fill="none" stroke="rgb(0,178,0)" stroke-width="0.1"/>
  <path d="M 56.616728999999964,37.822843500000005 L 56.616728999999964,30.822843500000005" fill="none" stroke="rgb(0,178,0)" stroke-width="0.1"/>
  <path d="M 68.60072899999997,79.31284350000001 L 75.60072899999997,79.31284350000001" fill="none" stroke="rgb(0,178,0)" stroke-width="0.1"/>
  <path d="M 68.60072899999997,69.31284350000001 L 75.60072899999997,69.31284350000001" fill="none" stroke="rgb(0,178,0)" stroke-width="0.1"/>
  <path d="M 71.48172899999997,78.69484349999999 L 72.71972899999997,79.93184350000001" fill="none" stroke="rgb(0,178,0)" stroke-width="0.1"/>
  <path d="M 71.48172899999997,68.69484349999999 L 72.71972899999997,69.93184350000001" fill="none" stroke="rgb(0,178,0)" stroke-width="0.1"/>
  <path d="M 44.616728999999964,100.0 L 44.616728999999964,97.6958435" fill="none" stroke="rgb(0,178,0)" stroke-width="0.1"/>
  <path d="M 73.61672899999996,100.0 L 73.61672899999996,97.6958435" fill="none" stroke="rgb(0,178,0)" stroke-width="0.1"/>
  <path d="M 6.998728999999969,94.48584349999999 L 8.235728999999964,93.24884349999999" fill="none" stroke="rgb(0,178,0)" stroke-width="0.1"/>
  <path d="M 7.616728999999964,97.36784349999999 L 7.616728999999964,90.36784349999999" fill="none" stroke="rgb(0,178,0)" stroke-width="0.1"/>
  <path d="M 34.616728999999964,51.54384350000001 L 34.616728999999964,34.322843500000005" fill="none" stroke="rgb(0,178,0)" stroke-width="0.1"/>
  <path d="M 34.616728999999964,34.322843500000005 L 56.616728999999964,34.322843500000005" fill="none" stroke="rgb(0,178,0)" stroke-width="0.1"/>
  <path d="M 56.616728999999964,34.322843500000005 L 56.616728999999964,51.54384350000001" fill="none" stroke="rgb(0,178,0)" stroke-width="0.1"/>
  <path d="M 64.01472899999999,79.31284350000001 L 72.10072899999997,79.31284350000001" fill="none" stroke="rgb(0,178,0)" stroke-width="0.1"/>
  <path d="M 72.10072899999997,79.31284350000001 L 72.10072899999997,69.31284350000001" fill="none" stroke="rgb(0,178,0)" stroke-width="0.1"/>
  <path d="M 72.10072899999997,69.31284350000001 L 64.01472899999999,69.31284350000001" fill="none" stroke="rgb(0,178,0)" stroke-width="0.1"/>
  <path d="M 44.616728999999964,90.1018435 L 44.616728999999964,100.0" fill="none" stroke="rgb(0,178,0)" stroke-width="0.1"/>
  <path d="M 73.61672899999996,100.0 L 73.61672899999996,90.1018435" fill="none" stroke="rgb(0,178,0)" stroke-width="0.1"/>
  <path d="M 0.0,93.86784349999999 L 7.616728999999964,93.86784349999999" fill="none" stroke="rgb(0,178,0)" stroke-width="0.1"/>
  <path d="M 7.616728999999964,93.86784349999999 L 7.616728999999964,100.0" fill="none" stroke="rgb(0,178,0)" stroke-width="0.1"/>
  <text fill="rgb(0,0,0)" font-family="Noto Sans CJK SC" font-size="2" transform="rotate(-360.0,41.30072899999999,32.6078435)" x="41.30072899999999" y="32.6078435">
   2200
  </text>
  <text fill="rgb(0,0,0)" font-family="Noto Sans CJK SC" font-size="2" transform="rotate(-450.0,70.38572899999997,78.39684349999999)" x="70.38572899999997" y="78.39684349999999">
   1000
  </text>
  <text fill="rgb(0,0,0)" font-family="Noto Sans CJK SC" font-size="2" transform="rotate(-360.0,54.80072899999999,99.48084349999999)" x="54.80072899999999" y="99.48084349999999">
   2900
  </text>
 </g>
 <g id="layerSTAIR" inkscape:groupmode="layer" inkscape:label="STAIR">
  <path d="M 91.86672899999996,46.562843500000014 L 93.61672899999996,46.562843500000014" fill="none" stroke="rgb(178,178,0)" stroke-width="0.1"/>
  <path d="M 93.61672899999996,46.562843500000014 L 93.61672899999996,33.062843500000014" fill="none" stroke="rgb(178,178,0)" stroke-width="0.1"/>
  <path d="M 93.61672899999996,33.062843500000014 L 91.86672899999996,33.062843500000014" fill="none" stroke="rgb(178,178,0)" stroke-width="0.1"/>
  <path d="M 91.86672899999996,33.062843500000014 L 91.86672899999996,46.562843500000014" fill="none" stroke="rgb(178,178,0)" stroke-width="0.1"/>
  <path d="M 94.86672899999996,49.812843500000014 L 100.0,49.812843500000014" fill="none" stroke="rgb(178,178,0)" stroke-width="0.1"/>
  <path d="M 100.0,29.812843500000014 L 94.86672899999996,29.812843500000014" fill="none" stroke="rgb(178,178,0)" stroke-width="0.1"/>
  <path d="M 94.86672899999996,29.812843500000014 L 94.86672899999996,49.812843500000014" fill="none" stroke="rgb(178,178,0)" stroke-width="0.1"/>
  <path d="M 94.86672899999996,49.812843500000014 L 100.0,42.732469706896524" fill="none" stroke="rgb(178,178,0)" stroke-width="0.1"/>
  <path d="M 100.0,36.893217293103504 L 94.86672899999996,29.812843500000014" fill="none" stroke="rgb(178,178,0)" stroke-width="0.1"/>
  <path d="M 55.366728999999964,46.562843500000014 L 53.616728999999964,46.562843500000014" fill="none" instance-id="1" semantic-id="31" stroke="rgb(178,178,0)" stroke-width="0.1"/>
  <path d="M 53.616728999999964,46.562843500000014 L 53.616728999999964,33.062843500000014" fill="none" instance-id="1" semantic-id="31" stroke="rgb(178,178,0)" stroke-width="0.1"/>
  <path d="M 53.616728999999964,33.062843500000014 L 55.366728999999964,33.062843500000014" fill="none" instance-id="1" semantic-id="31" stroke="rgb(178,178,0)" stroke-width="0.1"/>
  <path d="M 52.366728999999964,49.812843500000014 L 37.866728999999964,49.812843500000014" fill="none" instance-id="1" semantic-id="31" stroke="rgb(178,178,0)" stroke-width="0.1"/>
  <path d="M 37.866728999999964,49.812843500000014 L 37.866728999999964,29.812843500000014" fill="none" instance-id="1" semantic-id="31" stroke="rgb(178,178,0)" stroke-width="0.1"/>
  <path d="M 37.866728999999964,29.812843500000014 L 52.366728999999964,29.812843500000014" fill="none" instance-id="1" semantic-id="31" stroke="rgb(178,178,0)" stroke-width="0.1"/>
  <path d="M 52.366728999999964,29.812843500000014 L 52.366728999999964,49.812843500000014" fill="none" instance-id="1" semantic-id="31" stroke="rgb(178,178,0)" stroke-width="0.1"/>
  <path d="M 52.366728999999964,49.812843500000014 L 37.866728999999964,29.812843500000014" fill="none" instance-id="1" semantic-id="31" stroke="rgb(178,178,0)" stroke-width="0.1"/>
  <path d="M 37.866728999999964,49.812843500000014 L 52.366728999999964,29.812843500000014" fill="none" instance-id="1" semantic-id="31" stroke="rgb(178,178,0)" stroke-width="0.1"/>
  <path d="M 55.366728999999964,46.562843500000014 L 55.366728999999964,33.062843500000014" fill="none" instance-id="1" semantic-id="31" stroke="rgb(178,178,0)" stroke-width="0.1"/>
  <path d="M 86.01672899999997,54.0128435 L 86.01672899999997,9.812843500000014" fill="none" instance-id="3" semantic-id="30" stroke="rgb(178,178,0)" stroke-width="0.1"/>
  <path d="M 74.96672899999999,54.0128435 L 74.96672899999999,9.812843500000014" fill="none" instance-id="3" semantic-id="30" stroke="rgb(178,178,0)" stroke-width="0.1"/>
  <path d="M 86.61672899999996,54.0128435 L 74.36672899999996,54.0128435" fill="none" instance-id="3" semantic-id="30" stroke="rgb(178,178,0)" stroke-width="0.1"/>
  <path d="M 86.01672899999997,51.41284350000001 L 74.96672899999999,51.41284350000001" fill="none" instance-id="3" semantic-id="30" stroke="rgb(178,178,0)" stroke-width="0.1"/>
  <path d="M 86.01672899999997,48.812843500000014 L 74.96672899999999,48.812843500000014" fill="none" instance-id="3" semantic-id="30" stroke="rgb(178,178,0)" stroke-width="0.1"/>
  <path d="M 86.01672899999997,46.21284349999999 L 74.96672899999999,46.21284349999999" fill="none" instance-id="3" semantic-id="30" stroke="rgb(178,178,0)" stroke-width="0.1"/>
  <path d="M 86.01672899999997,43.6128435 L 74.96672899999999,43.6128435" fill="none" instance-id="3" semantic-id="30" stroke="rgb(178,178,0)" stroke-width="0.1"/>
  <path d="M 86.01672899999997,41.0128435 L 74.96672899999999,41.0128435" fill="none" instance-id="3" semantic-id="30" stroke="rgb(178,178,0)" stroke-width="0.1"/>
  <path d="M 86.01672899999997,38.41284350000001 L 74.96672899999999,38.41284350000001" fill="none" instance-id="3" semantic-id="30" stroke="rgb(178,178,0)" stroke-width="0.1"/>
  <path d="M 86.01672899999997,35.812843500000014 L 74.96672899999999,35.812843500000014" fill="none" instance-id="3" semantic-id="30" stroke="rgb(178,178,0)" stroke-width="0.1"/>
  <path d="M 86.01672899999997,33.21284349999999 L 74.96672899999999,33.21284349999999" fill="none" instance-id="3" semantic-id="30" stroke="rgb(178,178,0)" stroke-width="0.1"/>
  <path d="M 86.01672899999997,30.612843499999997 L 74.96672899999999,30.612843499999997" fill="none" instance-id="3" semantic-id="30" stroke="rgb(178,178,0)" stroke-width="0.1"/>
  <path d="M 86.01672899999997,28.012843500000002 L 74.96672899999999,28.012843500000002" fill="none" instance-id="3" semantic-id="30" stroke="rgb(178,178,0)" stroke-width="0.1"/>
  <path d="M 86.01672899999997,25.412843500000008 L 74.96672899999999,25.412843500000008" fill="none" instance-id="3" semantic-id="30" stroke="rgb(178,178,0)" stroke-width="0.1"/>
  <path d="M 86.01672899999997,22.812843500000014 L 74.96672899999999,22.812843500000014" fill="none" instance-id="3" semantic-id="30" stroke="rgb(178,178,0)" stroke-width="0.1"/>
  <path d="M 86.01672899999997,20.21284349999999 L 74.96672899999999,20.21284349999999" fill="none" instance-id="3" semantic-id="30" stroke="rgb(178,178,0)" stroke-width="0.1"/>
  <path d="M 86.01672899999997,17.612843499999997 L 74.96672899999999,17.612843499999997" fill="none" instance-id="3" semantic-id="30" stroke="rgb(178,178,0)" stroke-width="0.1"/>
  <path d="M 86.01672899999997,15.012843500000002 L 74.96672899999999,15.012843500000002" fill="none" instance-id="3" semantic-id="30" stroke="rgb(178,178,0)" stroke-width="0.1"/>
  <path d="M 86.01672899999997,12.412843500000008 L 74.96672899999999,12.412843500000008" fill="none" instance-id="3" semantic-id="30" stroke="rgb(178,178,0)" stroke-width="0.1"/>
  <path d="M 86.61672899999996,9.812843500000014 L 74.36672899999996,9.812843500000014" fill="none" instance-id="3" semantic-id="30" stroke="rgb(178,178,0)" stroke-width="0.1"/>
  <path d="M 72.86672899999996,48.812843500000014 L 60.616728999999964,48.812843500000014" fill="none" instance-id="3" semantic-id="30" stroke="rgb(178,178,0)" stroke-width="0.1"/>
  <path d="M 72.26672899999997,46.21284349999999 L 61.21672899999999,46.21284349999999" fill="none" instance-id="3" semantic-id="30" stroke="rgb(178,178,0)" stroke-width="0.1"/>
  <path d="M 72.26672899999997,43.6128435 L 61.21672899999999,43.6128435" fill="none" instance-id="3" semantic-id="30" stroke="rgb(178,178,0)" stroke-width="0.1"/>
  <path d="M 72.26672899999997,41.0128435 L 61.21672899999999,41.0128435" fill="none" instance-id="3" semantic-id="30" stroke="rgb(178,178,0)" stroke-width="0.1"/>
  <path d="M 72.26672899999997,38.41284350000001 L 61.21672899999999,38.41284350000001" fill="none" instance-id="3" semantic-id="30" stroke="rgb(178,178,0)" stroke-width="0.1"/>
  <path d="M 72.14672899999997,35.812843500000014 L 61.21672899999999,35.812843500000014" fill="none" instance-id="3" semantic-id="30" stroke="rgb(178,178,0)" stroke-width="0.1"/>
  <path d="M 68.54372899999998,33.21284349999999 L 61.21672899999999,33.21284349999999" fill="none" instance-id="3" semantic-id="30" stroke="rgb(178,178,0)" stroke-width="0.1"/>
  <path d="M 64.94072899999998,30.612843499999997 L 61.21672899999999,30.612843499999997" fill="none" instance-id="3" semantic-id="30" stroke="rgb(178,178,0)" stroke-width="0.1"/>
  <path d="M 72.26672899999997,48.812843500000014 L 72.26672899999997,35.8998435" fill="none" instance-id="3" semantic-id="30" stroke="rgb(178,178,0)" stroke-width="0.1"/>
  <path d="M 61.21672899999999,48.812843500000014 L 61.21672899999999,27.925843500000013" fill="none" instance-id="3" semantic-id="30" stroke="rgb(178,178,0)" stroke-width="0.1"/>
  <path d="M 60.616728999999964,27.492843499999992 L 66.17572899999999,31.503843499999988" fill="none" instance-id="3" semantic-id="30" stroke="rgb(178,178,0)" stroke-width="0.1"/>
  <path d="M 66.17572899999999,31.503843499999988 L 65.69572899999997,32.76584349999999" fill="none" instance-id="3" semantic-id="30" stroke="rgb(178,178,0)" stroke-width="0.1"/>
  <path d="M 65.69572899999997,32.76584349999999 L 67.92072899999997,31.254843499999993" fill="none" instance-id="3" semantic-id="30" stroke="rgb(178,178,0)" stroke-width="0.1"/>
  <path d="M 67.92072899999997,31.254843499999993 L 67.47072899999998,32.43884349999999" fill="none" instance-id="3" semantic-id="30" stroke="rgb(178,178,0)" stroke-width="0.1"/>
  <path d="M 67.47072899999998,32.43884349999999 L 72.86672899999996,36.332843499999996" fill="none" instance-id="3" semantic-id="30" stroke="rgb(178,178,0)" stroke-width="0.1"/>
  <path d="M 72.86672899999996,20.21284349999999 L 60.616728999999964,20.21284349999999" fill="none" instance-id="3" semantic-id="30" stroke="rgb(178,178,0)" stroke-width="0.1"/>
  <path d="M 72.26672899999997,17.612843499999997 L 61.21672899999999,17.612843499999997" fill="none" instance-id="3" semantic-id="30" stroke="rgb(178,178,0)" stroke-width="0.1"/>
  <path d="M 72.26672899999997,15.012843500000002 L 61.21672899999999,15.012843500000002" fill="none" instance-id="3" semantic-id="30" stroke="rgb(178,178,0)" stroke-width="0.1"/>
  <path d="M 72.26672899999997,12.412843500000008 L 61.21672899999999,12.412843500000008" fill="none" instance-id="3" semantic-id="30" stroke="rgb(178,178,0)" stroke-width="0.1"/>
  <path d="M 72.86672899999996,9.812843500000014 L 60.616728999999964,9.812843500000014" fill="none" instance-id="3" semantic-id="30" stroke="rgb(178,178,0)" stroke-width="0.1"/>
  <path d="M 61.21672899999999,20.21284349999999 L 61.21672899999999,9.812843500000014" fill="none" instance-id="3" semantic-id="30" stroke="rgb(178,178,0)" stroke-width="0.1"/>
  <path d="M 72.26672899999997,20.21284349999999 L 72.26672899999997,9.812843500000014" fill="none" instance-id="3" semantic-id="30" stroke="rgb(178,178,0)" stroke-width="0.1"/>
 </g>
 <g id="layerWALL" inkscape:groupmode="layer" inkscape:label="WALL">
  <path d="M 58.616728999999964,0.0 L 58.616728999999964,24.312843500000014" fill="none" instance-id="-1" semantic-id="1" stroke="rgb(0,0,0)" stroke-width="0.1"/>
  <path d="M 56.616728999999964,0.0 L 56.616728999999964,23.312843500000014" fill="none" instance-id="-1" semantic-id="1" stroke="rgb(0,0,0)" stroke-width="0.1"/>
  <path d="M 58.616728999999964,82.31284350000001 L 58.616728999999964,68.81284350000001" fill="none" instance-id="-1" semantic-id="1" stroke="rgb(0,0,0)" stroke-width="0.1"/>
  <path d="M 60.616728999999964,82.31284350000001 L 60.616728999999964,69.31284350000001" fill="none" instance-id="-1" semantic-id="1" stroke="rgb(0,0,0)" stroke-width="0.1"/>
  <path d="M 58.616728999999964,82.31284350000001 L 60.616728999999964,82.31284350000001" fill="none" instance-id="-1" semantic-id="1" stroke="rgb(0,0,0)" stroke-width="0.1"/>
  <path d="M 88.61672899999996,68.81284350000001 L 88.61672899999996,82.31284350000001" fill="none" instance-id="-1" semantic-id="1" stroke="rgb(0,0,0)" stroke-width="0.1"/>
  <path d="M 86.61672899999996,69.31284350000001 L 86.61672899999996,82.31284350000001" fill="none" instance-id="-1" semantic-id="1" stroke="rgb(0,0,0)" stroke-width="0.1"/>
  <path d="M 88.61672899999996,82.31284350000001 L 86.61672899999996,82.31284350000001" fill="none" instance-id="-1" semantic-id="1" stroke="rgb(0,0,0)" stroke-width="0.1"/>
  <path d="M 88.61672899999996,68.81284350000001 L 88.61672899999996,67.81284350000001" fill="none" instance-id="-1" semantic-id="1" stroke="rgb(0,0,0)" stroke-width="0.1"/>
  <path d="M 86.61672899999996,67.81284350000001 L 88.61672899999996,67.81284350000001" fill="none" instance-id="-1" semantic-id="1" stroke="rgb(0,0,0)" stroke-width="0.1"/>
  <path d="M 86.61672899999996,56.812843500000014 L 86.61672899999996,54.312843500000014" fill="none" instance-id="-1" semantic-id="1" stroke="rgb(0,0,0)" stroke-width="0.1"/>
  <path d="M 88.61672899999996,56.812843500000014 L 88.61672899999996,55.312843500000014" fill="none" instance-id="-1" semantic-id="1" stroke="rgb(0,0,0)" stroke-width="0.1"/>
  <path d="M 86.61672899999996,56.812843500000014 L 88.61672899999996,56.812843500000014" fill="none" instance-id="-1" semantic-id="1" stroke="rgb(0,0,0)" stroke-width="0.1"/>
  <path d="M 80.61672899999996,69.31284350000001 L 80.61672899999996,82.31284350000001" fill="none" instance-id="-1" semantic-id="1" stroke="rgb(0,0,0)" stroke-width="0.1"/>
  <path d="M 78.61672899999996,69.31284350000001 L 78.61672899999996,82.31284350000001" fill="none" instance-id="-1" semantic-id="1" stroke="rgb(0,0,0)" stroke-width="0.1"/>
  <path d="M 80.61672899999996,82.31284350000001 L 78.61672899999996,82.31284350000001" fill="none" instance-id="-1" semantic-id="1" stroke="rgb(0,0,0)" stroke-width="0.1"/>
  <path d="M 86.61672899999996,69.31284350000001 L 80.61672899999996,69.31284350000001" fill="none" instance-id="-1" semantic-id="1" stroke="rgb(0,0,0)" stroke-width="0.1"/>
  <path d="M 86.61672899999996,67.81284350000001 L 79.61672899999996,67.81284350000001" fill="none" instance-id="-1" semantic-id="1" stroke="rgb(0,0,0)" stroke-width="0.1"/>
  <path d="M 95.61672899999996,55.312843500000014 L 88.61672899999996,55.312843500000014" fill="none" instance-id="-1" semantic-id="1" stroke="rgb(0,0,0)" stroke-width="0.1"/>
  <path d="M 95.61672899999996,53.312843500000014 L 90.61672899999996,53.312843500000014" fill="none" instance-id="-1" semantic-id="1" stroke="rgb(0,0,0)" stroke-width="0.1"/>
  <path d="M 95.61672899999996,55.312843500000014 L 95.61672899999996,53.312843500000014" fill="none" instance-id="-1" semantic-id="1" stroke="rgb(0,0,0)" stroke-width="0.1"/>
  <path d="M 100.0,26.312843500000014 L 90.61672899999996,26.312843500000014" fill="none" instance-id="-1" semantic-id="1" stroke="rgb(0,0,0)" stroke-width="0.1"/>
  <path d="M 100.0,23.312843500000014 L 90.61672899999996,23.312843500000014" fill="none" instance-id="-1" semantic-id="1" stroke="rgb(0,0,0)" stroke-width="0.1"/>
  <path d="M 78.61672899999996,69.31284350000001 L 60.616728999999964,69.31284350000001" fill="none" instance-id="-1" semantic-id="1" stroke="rgb(0,0,0)" stroke-width="0.1"/>
  <path d="M 79.61672899999996,67.81284350000001 L 60.616728999999964,67.81284350000001" fill="none" instance-id="-1" semantic-id="1" stroke="rgb(0,0,0)" stroke-width="0.1"/>
  <path d="M 60.616728999999964,54.312843500000014 L 60.616728999999964,56.812843500000014" fill="none" instance-id="-1" semantic-id="1" stroke="rgb(0,0,0)" stroke-width="0.1"/>
  <path d="M 58.616728999999964,55.312843500000014 L 58.616728999999964,56.812843500000014" fill="none" instance-id="-1" semantic-id="1" stroke="rgb(0,0,0)" stroke-width="0.1"/>
  <path d="M 60.616728999999964,56.812843500000014 L 58.616728999999964,56.812843500000014" fill="none" instance-id="-1" semantic-id="1" stroke="rgb(0,0,0)" stroke-width="0.1"/>
  <path d="M 58.616728999999964,67.81284350000001 L 58.616728999999964,68.81284350000001" fill="none" instance-id="-1" semantic-id="1" stroke="rgb(0,0,0)" stroke-width="0.1"/>
  <path d="M 60.616728999999964,67.81284350000001 L 58.616728999999964,67.81284350000001" fill="none" instance-id="-1" semantic-id="1" stroke="rgb(0,0,0)" stroke-width="0.1"/>
  <path d="M 90.61672899999996,1.8128435000000138 L 100.0,1.8128435000000138" fill="none" instance-id="-1" semantic-id="1" stroke="rgb(0,0,0)" stroke-width="0.1"/>
  <path d="M 90.61672899999996,3.812843500000014 L 100.0,3.812843500000014" fill="none" instance-id="-1" semantic-id="1" stroke="rgb(0,0,0)" stroke-width="0.1"/>
  <path d="M 86.61672899999996,24.312843500000014 L 88.61672899999996,24.312843500000014" fill="none" instance-id="-1" semantic-id="1" stroke="rgb(0,0,0)" stroke-width="0.1"/>
  <path d="M 86.61672899999996,54.312843500000014 L 86.61672899999996,24.312843500000014" fill="none" instance-id="-1" semantic-id="1" stroke="rgb(0,0,0)" stroke-width="0.1"/>
  <path d="M 90.61672899999996,53.312843500000014 L 90.61672899999996,26.312843500000014" fill="none" instance-id="-1" semantic-id="1" stroke="rgb(0,0,0)" stroke-width="0.1"/>
  <path d="M 88.61672899999996,24.312843500000014 L 88.61672899999996,3.812843500000014" fill="none" instance-id="-1" semantic-id="1" stroke="rgb(0,0,0)" stroke-width="0.1"/>
  <path d="M 90.61672899999996,23.312843500000014 L 90.61672899999996,3.812843500000014" fill="none" instance-id="-1" semantic-id="1" stroke="rgb(0,0,0)" stroke-width="0.1"/>
  <path d="M 34.616728999999964,53.312843500000014 L 33.616728999999964,53.312843500000014" fill="none" instance-id="-1" semantic-id="1" stroke="rgb(0,0,0)" stroke-width="0.1"/>
  <path d="M 34.616728999999964,55.312843500000014 L 33.616728999999964,55.312843500000014" fill="none" instance-id="-1" semantic-id="1" stroke="rgb(0,0,0)" stroke-width="0.1"/>
  <path d="M 30.616728999999964,23.312843500000014 L 56.616728999999964,23.312843500000014" fill="none" instance-id="-1" semantic-id="1" stroke="rgb(0,0,0)" stroke-width="0.1"/>
  <path d="M 34.616728999999964,26.312843500000014 L 56.616728999999964,26.312843500000014" fill="none" instance-id="-1" semantic-id="1" stroke="rgb(0,0,0)" stroke-width="0.1"/>
  <path d="M 34.616728999999964,26.312843500000014 L 34.616728999999964,53.312843500000014" fill="none" instance-id="-1" semantic-id="1" stroke="rgb(0,0,0)" stroke-width="0.1"/>
  <path d="M 30.616728999999964,23.312843500000014 L 30.616728999999964,54.312843500000014" fill="none" instance-id="-1" semantic-id="1" stroke="rgb(0,0,0)" stroke-width="0.1"/>
  <path d="M 41.866728999999964,5.812843500000014 L 24.616728999999964,5.812843500000014" fill="none" instance-id="-1" semantic-id="1" stroke="rgb(0,0,0)" stroke-width="0.1"/>
  <path d="M 41.866728999999964,1.8128435000000138 L 24.616728999999964,1.8128435000000138" fill="none" instance-id="-1" semantic-id="1" stroke="rgb(0,0,0)" stroke-width="0.1"/>
  <path d="M 41.866728999999964,5.812843500000014 L 41.866728999999964,1.8128435000000138" fill="none" instance-id="-1" semantic-id="1" stroke="rgb(0,0,0)" stroke-width="0.1"/>
  <path d="M 24.616728999999964,5.812843500000014 L 24.616728999999964,1.8128435000000138" fill="none" instance-id="-1" semantic-id="1" stroke="rgb(0,0,0)" stroke-width="0.1"/>
  <path d="M 5.616728999999964,5.812843500000014 L 0.0,5.812843500000014" fill="none" instance-id="-1" semantic-id="1" stroke="rgb(0,0,0)" stroke-width="0.1"/>
  <path d="M 5.616728999999964,1.8128435000000138 L 0.0,1.8128435000000138" fill="none" instance-id="-1" semantic-id="1" stroke="rgb(0,0,0)" stroke-width="0.1"/>
  <path d="M 5.616728999999964,5.812843500000014 L 5.616728999999964,1.8128435000000138" fill="none" instance-id="-1" semantic-id="1" stroke="rgb(0,0,0)" stroke-width="0.1"/>
  <path d="M 60.616728999999964,24.312843500000014 L 58.616728999999964,24.312843500000014" fill="none" instance-id="-1" semantic-id="1" stroke="rgb(0,0,0)" stroke-width="0.1"/>
  <path d="M 60.616728999999964,24.312843500000014 L 60.616728999999964,54.312843500000014" fill="none" instance-id="-1" semantic-id="1" stroke="rgb(0,0,0)" stroke-width="0.1"/>
  <path d="M 56.616728999999964,26.312843500000014 L 56.616728999999964,53.312843500000014" fill="none" instance-id="-1" semantic-id="1" stroke="rgb(0,0,0)" stroke-width="0.1"/>
  <path d="M 33.616728999999964,53.312843500000014 L 39.616728999999964,53.312843500000014" fill="none" instance-id="-1" semantic-id="1" stroke="rgb(0,0,0)" stroke-width="0.1"/>
  <path d="M 33.616728999999964,55.312843500000014 L 39.616728999999964,55.312843500000014" fill="none" instance-id="-1" semantic-id="1" stroke="rgb(0,0,0)" stroke-width="0.1"/>
  <path d="M 39.616728999999964,53.312843500000014 L 39.616728999999964,55.312843500000014" fill="none" instance-id="-1" semantic-id="1" stroke="rgb(0,0,0)" stroke-width="0.1"/>
  <path d="M 51.616728999999964,53.312843500000014 L 56.616728999999964,53.312843500000014" fill="none" instance-id="-1" semantic-id="1" stroke="rgb(0,0,0)" stroke-width="0.1"/>
  <path d="M 51.616728999999964,55.312843500000014 L 58.616728999999964,55.312843500000014" fill="none" instance-id="-1" semantic-id="1" stroke="rgb(0,0,0)" stroke-width="0.1"/>
  <path d="M 51.616728999999964,53.312843500000014 L 51.616728999999964,55.312843500000014" fill="none" instance-id="-1" semantic-id="1" stroke="rgb(0,0,0)" stroke-width="0.1"/>
  <path d="M 32.616728999999964,82.31284350000001 L 39.116728999999964,82.31284350000001" fill="none" instance-id="-1" semantic-id="1" stroke="rgb(0,0,0)" stroke-width="0.1"/>
  <path d="M 32.616728999999964,84.81284350000001 L 39.116728999999964,84.81284350000001" fill="none" instance-id="-1" semantic-id="1" stroke="rgb(0,0,0)" stroke-width="0.1"/>
  <path d="M 32.616728999999964,82.31284350000001 L 32.616728999999964,84.81284350000001" fill="none" instance-id="-1" semantic-id="1" stroke="rgb(0,0,0)" stroke-width="0.1"/>
  <path d="M 39.116728999999964,82.31284350000001 L 39.116728999999964,84.81284350000001" fill="none" instance-id="-1" semantic-id="1" stroke="rgb(0,0,0)" stroke-width="0.1"/>
  <path d="M 54.116728999999964,82.31284350000001 L 93.11672899999996,82.31284350000001" fill="none" instance-id="-1" semantic-id="1" stroke="rgb(0,0,0)" stroke-width="0.1"/>
  <path d="M 54.116728999999964,84.81284350000001 L 93.11672899999996,84.81284350000001" fill="none" instance-id="-1" semantic-id="1" stroke="rgb(0,0,0)" stroke-width="0.1"/>
  <path d="M 54.116728999999964,82.31284350000001 L 54.116728999999964,84.81284350000001" fill="none" instance-id="-1" semantic-id="1" stroke="rgb(0,0,0)" stroke-width="0.1"/>
  <path d="M 93.11672899999996,82.31284350000001 L 93.11672899999996,84.81284350000001" fill="none" instance-id="-1" semantic-id="1" stroke="rgb(0,0,0)" stroke-width="0.1"/>
  <path d="M 34.616728999999964,55.312843500000014 L 34.616728999999964,82.31284350000001" fill="none" instance-id="-1" semantic-id="1" stroke="rgb(0,0,0)" stroke-width="0.1"/>
  <path d="M 30.616728999999964,54.312843500000014 L 30.616728999999964,82.31284350000001" fill="none" instance-id="-1" semantic-id="1" stroke="rgb(0,0,0)" stroke-width="0.1"/>
  <path d="M 34.616728999999964,82.31284350000001 L 30.616728999999964,82.31284350000001" fill="none" instance-id="-1" semantic-id="1" stroke="rgb(0,0,0)" stroke-width="0.1"/>
  <path d="M 74.36672899999996,9.812843500000014 L 74.36672899999996,54.570843499999995" fill="none" instance-id="-1" semantic-id="1" stroke="rgb(0,0,0)" stroke-width="0.1"/>
  <path d="M 72.86672899999996,9.812843500000014 L 72.86672899999996,54.570843499999995" fill="none" instance-id="-1" semantic-id="1" stroke="rgb(0,0,0)" stroke-width="0.1"/>
  <path d="M 74.36672899999996,9.812843500000014 L 72.86672899999996,9.812843500000014" fill="none" instance-id="-1" semantic-id="1" stroke="rgb(0,0,0)" stroke-width="0.1"/>
  <path d="M 74.36672899999996,54.570843499999995 L 72.86672899999996,54.570843499999995" fill="none" instance-id="-1" semantic-id="1" stroke="rgb(0,0,0)" stroke-width="0.1"/>
  <path d="M 88.61672899999996,3.812843500000014 L 88.61672899999996,0.0" fill="none" instance-id="-1" semantic-id="1" stroke="rgb(0,0,0)" stroke-width="0.1"/>
  <path d="M 90.61672899999996,1.8128435000000138 L 90.61672899999996,0.0" fill="none" instance-id="-1" semantic-id="1" stroke="rgb(0,0,0)" stroke-width="0.1"/>
 </g>
 <g id="layerWINDOW" inkscape:groupmode="layer" inkscape:label="WINDOW">
  <path d="M 86.61672899999996,80.31284350000001 L 85.11972899999998,71.1778435" fill="none" stroke="rgb(0,178,178)" stroke-width="0.1"/>
  <path d="M 85.11972899999998,71.1778435 L 80.61672899999996,69.31284350000001" fill="none" stroke="rgb(0,178,178)" stroke-width="0.1"/>
  <path d="M 87.61672899999996,56.812843500000014 A 10.725,10.725 0.0 0,0 76.89572899999999,67.2628435" fill="none" instance-id="12" semantic-id="3" stroke="rgb(0,178,178)" stroke-width="0.1"/>
  <path d="M 99.70053666933808,77.44070711389071 L 99.41585593751867,77.85391433465932" fill="none" stroke="rgb(0,178,178)" stroke-width="0.1"/>
  <path d="M 99.41585593751867,77.85391433465932 L 99.15127778252139,78.28027301729969" fill="none" stroke="rgb(0,178,178)" stroke-width="0.1"/>
  <path d="M 99.15127778252139,78.28027301729969 L 98.90740860398532,78.71880596945346" fill="none" stroke="rgb(0,178,178)" stroke-width="0.1"/>
  <path d="M 98.90740860398532,78.71880596945346 L 98.68480733763138,79.16850809595743" fill="none" stroke="rgb(0,178,178)" stroke-width="0.1"/>
  <path d="M 98.68480733763138,79.16850809595743 L 98.48398417421052,79.62834870247039" fill="none" stroke="rgb(0,178,178)" stroke-width="0.1"/>
  <path d="M 98.48398417421052,79.62834870247039 L 98.3053993901722,80.09727385777194" fill="none" stroke="rgb(0,178,178)" stroke-width="0.1"/>
  <path d="M 98.3053993901722,80.09727385777194 L 98.14946229273446,80.57420880931906" fill="none" stroke="rgb(0,178,178)" stroke-width="0.1"/>
  <path d="M 98.14946229273446,80.57420880931906 L 98.01653028177259,81.05806044652431" fill="none" stroke="rgb(0,178,178)" stroke-width="0.1"/>
  <path d="M 98.01653028177259,81.05806044652431 L 97.90690803067676,81.54771980610937" fill="none" stroke="rgb(0,178,178)" stroke-width="0.1"/>
  <path d="M 97.90690803067676,81.54771980610937 L 97.82084678805629,82.04206461379243" fill="none" stroke="rgb(0,178,178)" stroke-width="0.1"/>
  <path d="M 97.82084678805629,82.04206461379243 L 97.75854380189054,82.53996185648353" fill="none" stroke="rgb(0,178,178)" stroke-width="0.1"/>
  <path d="M 97.75854380189054,82.53996185648353 L 97.72014186744661,83.04027037909287" fill="none" stroke="rgb(0,178,178)" stroke-width="0.1"/>
  <path d="M 97.72014186744661,83.04027037909287 L 97.70572899999999,83.5418435" fill="none" stroke="rgb(0,178,178)" stroke-width="0.1"/>
  <path d="M 97.70572899999999,83.5418435 A 4.60002,4.60002 0.0 0,0 93.44572899999997,78.93684350000001" fill="none" stroke="rgb(0,178,178)" stroke-width="0.1"/>
  <path d="M 49.52872899999997,83.5418435 A 10.4812,10.4812 0.0 0,0 39.402728999999965,73.11684349999999" fill="none" instance-id="5" semantic-id="4" stroke="rgb(0,178,178)" stroke-width="0.1"/>
  <path d="M 53.787728999999985,78.93684350000001 A 4.60002,4.60002 0.0 0,0 49.52872899999997,83.5418435" fill="none" instance-id="5" semantic-id="4" stroke="rgb(0,178,178)" stroke-width="0.1"/>
  <path d="M 70.33872899999997,67.2628435 A 10.725,10.725 0.0 0,0 59.616728999999964,56.812843500000014" fill="none" instance-id="8" semantic-id="3" stroke="rgb(0,178,178)" stroke-width="0.1"/>
  <path d="M 95.61672899999996,53.312843500000014 L 100.0,53.312843500000014" fill="none" stroke="rgb(0,178,178)" stroke-width="0.1"/>
  <path d="M 39.616728999999964,53.312843500000014 L 51.616728999999964,53.312843500000014" fill="none" instance-id="7" semantic-id="5" stroke="rgb(0,178,178)" stroke-width="0.1"/>
  <path d="M 34.616728999999964,55.312843500000014 L 34.616728999999964,100.0" fill="none" instance-id="6" semantic-id="9" stroke="rgb(0,178,178)" stroke-width="0.1"/>
  <path d="M 32.616728999999964,55.312843500000014 L 32.616728999999964,100.0" fill="none" instance-id="6" semantic-id="9" stroke="rgb(0,178,178)" stroke-width="0.1"/>
  <path d="M 33.95072899999997,55.312843500000014 L 33.95072899999997,100.0" fill="none" instance-id="6" semantic-id="9" stroke="rgb(0,178,178)" stroke-width="0.1"/>
  <path d="M 33.283728999999965,55.312843500000014 L 33.283728999999965,100.0" fill="none" instance-id="6" semantic-id="9" stroke="rgb(0,178,178)" stroke-width="0.1"/>
  <path d="M 93.40272899999997,83.5418435 L 93.40272899999997,78.93684350000001" fill="none" stroke="rgb(0,178,178)" stroke-width="0.1"/>
  <path d="M 39.402728999999965,83.5848435 L 39.402728999999965,73.2038435" fill="none" instance-id="5" semantic-id="4" stroke="rgb(0,178,178)" stroke-width="0.1"/>
  <path d="M 53.83172899999997,83.5418435 L 53.83172899999997,78.93684350000001" fill="none" instance-id="5" semantic-id="4" stroke="rgb(0,178,178)" stroke-width="0.1"/>
  <path d="M 87.61672899999996,67.2628435 L 87.61672899999996,67.81284350000001" fill="none" instance-id="12" semantic-id="3" stroke="rgb(0,178,178)" stroke-width="0.1"/>
  <path d="M 87.61672899999996,67.81284350000001 L 76.89172899999997,67.81284350000001" fill="none" instance-id="12" semantic-id="3" stroke="rgb(0,178,178)" stroke-width="0.1"/>
  <path d="M 76.89172899999997,67.81284350000001 L 76.89172899999997,67.2628435" fill="none" instance-id="12" semantic-id="3" stroke="rgb(0,178,178)" stroke-width="0.1"/>
  <path d="M 76.89172899999997,67.2628435 L 87.61672899999996,67.2628435" fill="none" instance-id="12" semantic-id="3" stroke="rgb(0,178,178)" stroke-width="0.1"/>
  <path d="M 100.0,52.97984349999999 L 95.41672899999998,52.97984349999999" fill="none" stroke="rgb(0,178,178)" stroke-width="0.1"/>
  <path d="M 95.41672899999998,52.97984349999999 L 95.41672899999998,52.64684349999999" fill="none" stroke="rgb(0,178,178)" stroke-width="0.1"/>
  <path d="M 95.41672899999998,52.64684349999999 L 100.0,52.64684349999999" fill="none" stroke="rgb(0,178,178)" stroke-width="0.1"/>
  <path d="M 45.416728999999975,52.97984349999999 L 45.416728999999975,52.64684349999999" fill="none" instance-id="7" semantic-id="5" stroke="rgb(0,178,178)" stroke-width="0.1"/>
  <path d="M 45.416728999999975,52.64684349999999 L 39.416728999999975,52.64684349999999" fill="none" instance-id="7" semantic-id="5" stroke="rgb(0,178,178)" stroke-width="0.1"/>
  <path d="M 39.416728999999975,52.64684349999999 L 39.416728999999975,52.97984349999999" fill="none" instance-id="7" semantic-id="5" stroke="rgb(0,178,178)" stroke-width="0.1"/>
  <path d="M 39.416728999999975,52.97984349999999 L 45.416728999999975,52.97984349999999" fill="none" instance-id="7" semantic-id="5" stroke="rgb(0,178,178)" stroke-width="0.1"/>
  <path d="M 51.81672899999998,52.64684349999999 L 51.81672899999998,52.97984349999999" fill="none" instance-id="7" semantic-id="5" stroke="rgb(0,178,178)" stroke-width="0.1"/>
  <path d="M 51.81672899999998,52.97984349999999 L 45.81672899999998,52.97984349999999" fill="none" instance-id="7" semantic-id="5" stroke="rgb(0,178,178)" stroke-width="0.1"/>
  <path d="M 45.81672899999998,52.97984349999999 L 45.81672899999998,52.64684349999999" fill="none" instance-id="7" semantic-id="5" stroke="rgb(0,178,178)" stroke-width="0.1"/>
  <path d="M 45.81672899999998,52.64684349999999 L 51.81672899999998,52.64684349999999" fill="none" instance-id="7" semantic-id="5" stroke="rgb(0,178,178)" stroke-width="0.1"/>
  <path d="M 70.34172899999999,67.2628435 L 70.34172899999999,67.81284350000001" fill="none" instance-id="8" semantic-id="3" stroke="rgb(0,178,178)" stroke-width="0.1"/>
  <path d="M 70.34172899999999,67.81284350000001 L 59.616728999999964,67.81284350000001" fill="none" instance-id="8" semantic-id="3" stroke="rgb(0,178,178)" stroke-width="0.1"/>
  <path d="M 59.616728999999964,67.81284350000001 L 59.616728999999964,67.2628435" fill="none" instance-id="8" semantic-id="3" stroke="rgb(0,178,178)" stroke-width="0.1"/>
  <path d="M 59.616728999999964,67.2628435 L 70.34172899999999,67.2628435" fill="none" instance-id="8" semantic-id="3" stroke="rgb(0,178,178)" stroke-width="0.1"/>
 </g>
 <g id="layerdote" inkscape:groupmode="layer" inkscape:label="dote">
  <path d="M 100.0,82.3098435 L 0.0,82.3098435" fill="none" stroke="rgb(178,0,0)" stroke-width="0.1"/>
  <path d="M 100.0,24.8098435 L 0.0,24.8098435" fill="none" stroke="rgb(178,0,0)" stroke-width="0.1"/>
  <path d="M 100.0,38.8098435 L 0.0,38.8098435" fill="none" stroke="rgb(178,0,0)" stroke-width="0.1"/>
  <path d="M 100.0,3.8098434999999995 L 0.0,3.8098434999999995" fill="none" stroke="rgb(178,0,0)" stroke-width="0.1"/>
  <path d="M 100.0,10.3098435 L 0.0,10.3098435" fill="none" stroke="rgb(178,0,0)" stroke-width="0.1"/>
  <path d="M 100.0,69.3098435 L 0.0,69.3098435" fill="none" stroke="rgb(178,0,0)" stroke-width="0.1"/>
  <path d="M 100.0,54.3098435 L 0.0,54.3098435" fill="none" stroke="rgb(178,0,0)" stroke-width="0.1"/>
  <path d="M 100.0,98.3098435 L 0.0,98.3098435" fill="none" stroke="rgb(178,0,0)" stroke-width="0.1"/>
  <path d="M 58.616728999999964,0.0 L 58.616728999999964,82.3098435" fill="none" stroke="rgb(178,0,0)" stroke-width="0.1"/>
  <path d="M 32.616728999999964,0.0 L 32.616728999999964,100.0" fill="none" stroke="rgb(178,0,0)" stroke-width="0.1"/>
  <path d="M 40.616728999999964,0.0 L 40.616728999999964,82.3098435" fill="none" stroke="rgb(178,0,0)" stroke-width="0.1"/>
  <path d="M 73.61672899999996,0.0 L 73.61672899999996,100.0" fill="none" stroke="rgb(178,0,0)" stroke-width="0.1"/>
  <path d="M 88.61672899999996,0.0 L 88.61672899999996,82.3098435" fill="none" stroke="rgb(178,0,0)" stroke-width="0.1"/>
 </g>
 <g id="layergps" inkscape:groupmode="layer" inkscape:label="gps">
  <path d="M 32.62172899999999,74.30784349999999 L 34.616728999999964,67.81284350000001" fill="none" stroke="rgb(0,0,0)" stroke-width="0.1"/>
  <path d="M 34.616728999999964,74.30784349999999 L 34.616728999999964,67.81284350000001" fill="none" stroke="rgb(0,0,0)" stroke-width="0.1"/>
  <path d="M 32.62172899999999,74.30784349999999 L 32.62172899999999,67.81284350000001" fill="none" stroke="rgb(0,0,0)" stroke-width="0.1"/>
  <path d="M 32.62172899999999,67.81284350000001 L 34.616728999999964,67.81284350000001" fill="none" stroke="rgb(0,0,0)" stroke-width="0.1"/>
  <path d="M 32.62172899999999,74.30784349999999 L 34.616728999999964,74.30784349999999" fill="none" stroke="rgb(0,0,0)" stroke-width="0.1"/>
 </g>
 <g id="layerlm" inkscape:groupmode="layer" inkscape:label="lm">
  <path d="M 60.616728999999964,71.5708435 L 62.874728999999974,69.31284350000001" fill="none" stroke="rgb(0,133,178)" stroke-width="0.1"/>
  <path d="M 60.616728999999964,74.93884349999999 L 66.24272899999997,69.31284350000001" fill="none" stroke="rgb(0,133,178)" stroke-width="0.1"/>
  <path d="M 60.616728999999964,78.30584350000001 L 69.61072899999996,69.31284350000001" fill="none" stroke="rgb(0,133,178)" stroke-width="0.1"/>
  <path d="M 60.97772899999998,81.31284350000001 L 72.97772899999998,69.31284350000001" fill="none" stroke="rgb(0,133,178)" stroke-width="0.1"/>
  <path d="M 64.34572899999998,81.31284350000001 L 76.34572899999998,69.31284350000001" fill="none" stroke="rgb(0,133,178)" stroke-width="0.1"/>
  <path d="M 67.71272899999997,81.31284350000001 L 77.11672899999996,71.90884349999999" fill="none" stroke="rgb(0,133,178)" stroke-width="0.1"/>
  <path d="M 71.08072899999999,81.31284350000001 L 77.11672899999996,75.27684350000001" fill="none" stroke="rgb(0,133,178)" stroke-width="0.1"/>
  <path d="M 74.44772899999998,81.31284350000001 L 77.11672899999996,78.6438435" fill="none" stroke="rgb(0,133,178)" stroke-width="0.1"/>
  <path d="M 60.616728999999964,81.31284350000001 L 77.11672899999996,81.31284350000001" fill="none" stroke="rgb(0,133,178)" stroke-width="0.1"/>
  <path d="M 77.11672899999996,81.31284350000001 L 77.11672899999996,69.31284350000001" fill="none" stroke="rgb(0,133,178)" stroke-width="0.1"/>
  <path d="M 77.11672899999996,69.31284350000001 L 60.616728999999964,69.31284350000001" fill="none" stroke="rgb(0,133,178)" stroke-width="0.1"/>
  <path d="M 60.616728999999964,69.31284350000001 L 60.616728999999964,81.31284350000001" fill="none" stroke="rgb(0,133,178)" stroke-width="0.1"/>
 </g>
 <g id="layer填充" inkscape:groupmode="layer" inkscape:label="填充">
  <path d="M 72.86672899999996,9.812843500000014 L 74.36672899999996,9.812843500000014" fill="none" stroke="rgb(89,89,89)" stroke-width="0.1"/>
 </g>
 <g id="layer尺寸2" inkscape:groupmode="layer" inkscape:label="尺寸2">
  <path d="M 87.99872899999997,64.4298435 L 89.23572899999996,63.19284350000001" fill="none" stroke="rgb(254,255,12)" stroke-width="0.1"/>
  <path d="M 88.61672899999996,67.31184350000001 L 88.61672899999996,60.31184350000001" fill="none" stroke="rgb(254,255,12)" stroke-width="0.1"/>
  <path d="M 94.99872899999997,64.4298435 L 96.23572899999996,63.19284350000001" fill="none" stroke="rgb(254,255,12)" stroke-width="0.1"/>
  <path d="M 95.61672899999996,67.31184350000001 L 95.61672899999996,60.31184350000001" fill="none" stroke="rgb(254,255,12)" stroke-width="0.1"/>
  <path d="M 31.99872899999997,63.445843499999995 L 33.235728999999964,62.2088435" fill="none" stroke="rgb(254,255,12)" stroke-width="0.1"/>
  <path d="M 32.616728999999964,66.3268435 L 32.616728999999964,59.326843499999995" fill="none" stroke="rgb(254,255,12)" stroke-width="0.1"/>
  <path d="M 38.99872899999997,63.445843499999995 L 40.235728999999964,62.2088435" fill="none" stroke="rgb(254,255,12)" stroke-width="0.1"/>
  <path d="M 39.616728999999964,66.3268435 L 39.616728999999964,59.326843499999995" fill="none" stroke="rgb(254,255,12)" stroke-width="0.1"/>
  <path d="M 50.99872899999997,63.445843499999995 L 52.235728999999964,62.2088435" fill="none" stroke="rgb(254,255,12)" stroke-width="0.1"/>
  <path d="M 51.616728999999964,66.3268435 L 51.616728999999964,59.326843499999995" fill="none" stroke="rgb(254,255,12)" stroke-width="0.1"/>
  <path d="M 57.99872899999997,63.445843499999995 L 59.235728999999964,62.2088435" fill="none" stroke="rgb(254,255,12)" stroke-width="0.1"/>
  <path d="M 58.616728999999964,66.3268435 L 58.616728999999964,59.326843499999995" fill="none" stroke="rgb(254,255,12)" stroke-width="0.1"/>
  <path d="M 72.99872899999997,94.69484349999999 L 74.23572899999996,93.45684349999999" fill="none" stroke="rgb(254,255,12)" stroke-width="0.1"/>
  <path d="M 73.61672899999996,97.57584349999999 L 73.61672899999996,90.57584349999999" fill="none" stroke="rgb(254,255,12)" stroke-width="0.1"/>
  <path d="M 78.99872899999997,94.69484349999999 L 80.23572899999996,93.45684349999999" fill="none" stroke="rgb(254,255,12)" stroke-width="0.1"/>
  <path d="M 79.61672899999996,97.57584349999999 L 79.61672899999996,90.57584349999999" fill="none" stroke="rgb(254,255,12)" stroke-width="0.1"/>
  <path d="M 87.99872899999997,94.69484349999999 L 89.23572899999996,93.45684349999999" fill="none" stroke="rgb(254,255,12)" stroke-width="0.1"/>
  <path d="M 88.61672899999996,97.57584349999999 L 88.61672899999996,90.57584349999999" fill="none" stroke="rgb(254,255,12)" stroke-width="0.1"/>
  <path d="M 92.49872899999997,94.69484349999999 L 93.73572899999996,93.45684349999999" fill="none" stroke="rgb(254,255,12)" stroke-width="0.1"/>
  <path d="M 93.11672899999996,97.57584349999999 L 93.11672899999996,90.57584349999999" fill="none" stroke="rgb(254,255,12)" stroke-width="0.1"/>
  <path d="M 31.99872899999997,93.5898435 L 33.235728999999964,92.3528435" fill="none" stroke="rgb(254,255,12)" stroke-width="0.1"/>
  <path d="M 32.616728999999964,96.4718435 L 32.616728999999964,89.4718435" fill="none" stroke="rgb(254,255,12)" stroke-width="0.1"/>
  <path d="M 38.49872899999997,93.5898435 L 39.735728999999964,92.3528435" fill="none" stroke="rgb(254,255,12)" stroke-width="0.1"/>
  <path d="M 39.116728999999964,96.4718435 L 39.116728999999964,89.4718435" fill="none" stroke="rgb(254,255,12)" stroke-width="0.1"/>
  <path d="M 53.49872899999997,93.5898435 L 54.735728999999964,92.3528435" fill="none" stroke="rgb(254,255,12)" stroke-width="0.1"/>
  <path d="M 54.116728999999964,96.4718435 L 54.116728999999964,89.4718435" fill="none" stroke="rgb(254,255,12)" stroke-width="0.1"/>
  <path d="M 1.616728999999964,100.0 L 1.616728999999964,99.23484350000001" fill="none" stroke="rgb(254,255,12)" stroke-width="0.1"/>
  <path d="M 23.616728999999964,100.0 L 23.616728999999964,98.2218435" fill="none" stroke="rgb(254,255,12)" stroke-width="0.1"/>
  <path d="M 32.616728999999964,100.0 L 32.616728999999964,98.2218435" fill="none" stroke="rgb(254,255,12)" stroke-width="0.1"/>
  <path d="M 88.61672899999996,54.5188435 L 88.61672899999996,63.81184350000001" fill="none" stroke="rgb(254,255,12)" stroke-width="0.1"/>
  <path d="M 88.61672899999996,63.81184350000001 L 100.0,63.81184350000001" fill="none" stroke="rgb(254,255,12)" stroke-width="0.1"/>
  <path d="M 58.616728999999964,54.7738435 L 58.616728999999964,62.826843499999995" fill="none" stroke="rgb(254,255,12)" stroke-width="0.1"/>
  <path d="M 58.616728999999964,62.826843499999995 L 32.616728999999964,62.826843499999995" fill="none" stroke="rgb(254,255,12)" stroke-width="0.1"/>
  <path d="M 32.616728999999964,62.826843499999995 L 32.616728999999964,54.7738435" fill="none" stroke="rgb(254,255,12)" stroke-width="0.1"/>
  <path d="M 73.61672899999996,86.2278435 L 73.61672899999996,94.07584349999999" fill="none" stroke="rgb(254,255,12)" stroke-width="0.1"/>
  <path d="M 73.61672899999996,94.07584349999999 L 100.0,94.07584349999999" fill="none" stroke="rgb(254,255,12)" stroke-width="0.1"/>
  <path d="M 32.616728999999964,84.16884350000001 L 32.616728999999964,92.9718435" fill="none" stroke="rgb(254,255,12)" stroke-width="0.1"/>
  <path d="M 32.616728999999964,92.9718435 L 54.116728999999964,92.9718435" fill="none" stroke="rgb(254,255,12)" stroke-width="0.1"/>
  <path d="M 54.116728999999964,92.9718435 L 54.116728999999964,84.16884350000001" fill="none" stroke="rgb(254,255,12)" stroke-width="0.1"/>
  <text fill="rgb(0,0,0)" font-family="Noto Sans CJK SC" font-size="2" transform="rotate(-360.0,97.53372899999997,62.096843500000006)" x="97.53372899999997" y="62.096843500000006">
   1200
  </text>
  <text fill="rgb(0,0,0)" font-family="Noto Sans CJK SC" font-size="2" transform="rotate(-360.0,88.96672899999999,62.096843500000006)" x="88.96672899999999" y="62.096843500000006">
   700
  </text>
  <text fill="rgb(0,0,0)" font-family="Noto Sans CJK SC" font-size="2" transform="rotate(-0.0,32.96672899999999,61.11184349999999)" x="32.96672899999999" y="61.11184349999999">
   700
  </text>
  <text fill="rgb(0,0,0)" font-family="Noto Sans CJK SC" font-size="2" transform="rotate(-0.0,41.533728999999965,61.11184349999999)" x="41.533728999999965" y="61.11184349999999">
   1200
  </text>
  <text fill="rgb(0,0,0)" font-family="Noto Sans CJK SC" font-size="2" transform="rotate(-0.0,51.96672899999999,61.11184349999999)" x="51.96672899999999" y="61.11184349999999">
   700
  </text>
  <text fill="rgb(0,0,0)" font-family="Noto Sans CJK SC" font-size="2" transform="rotate(-360.0,96.53372899999997,92.36084349999999)" x="96.53372899999997" y="92.36084349999999">
   1500
  </text>
  <text fill="rgb(0,0,0)" font-family="Noto Sans CJK SC" font-size="2" transform="rotate(-360.0,87.71672899999999,89.6258435)" x="87.71672899999999" y="89.6258435">
   450
  </text>
  <text fill="rgb(0,0,0)" font-family="Noto Sans CJK SC" font-size="2" transform="rotate(-360.0,80.96672899999999,92.36084349999999)" x="80.96672899999999" y="92.36084349999999">
   900
  </text>
  <text fill="rgb(0,0,0)" font-family="Noto Sans CJK SC" font-size="2" transform="rotate(-360.0,73.46672899999999,92.36084349999999)" x="73.46672899999999" y="92.36084349999999">
   600
  </text>
  <text fill="rgb(0,0,0)" font-family="Noto Sans CJK SC" font-size="2" transform="rotate(-360.0,42.533728999999965,91.2568435)" x="42.533728999999965" y="91.2568435">
   1500
  </text>
  <text fill="rgb(0,0,0)" font-family="Noto Sans CJK SC" font-size="2" transform="rotate(-360.0,32.71672899999999,91.2568435)" x="32.71672899999999" y="91.2568435">
   650
  </text>
 </g>
 <g id="layer文字" inkscape:groupmode="layer" inkscape:label="文字">
  <text fill="rgb(0,178,0)" font-family="Noto Sans CJK SC" font-size="2" transform="rotate(-0.0,82.50072899999998,76.8168435)" x="82.50072899999998" y="76.8168435">
   风
  </text>
  <text fill="rgb(0,178,0)" font-family="Noto Sans CJK SC" font-size="2" transform="rotate(-0.0,62.884728999999965,76.8168435)" x="62.884728999999965" y="76.8168435">
   风
  </text>
  <text fill="rgb(0,178,0)" font-family="Noto Sans CJK SC" font-size="2" transform="rotate(-0.0,94.68272899999997,75.5178435)" x="94.68272899999997" y="75.5178435">
   合用前室
  </text>
  <text fill="rgb(0,178,0)" font-family="Noto Sans CJK SC" font-size="2" transform="rotate(-0.0,47.005728999999974,75.5178435)" x="47.005728999999974" y="75.5178435">
   前室
  </text>
  <text fill="rgb(0,178,0)" font-family="Noto Sans CJK SC" font-size="2" transform="rotate(-0.0,97.23372899999998,42.36184349999999)" x="97.23372899999998" y="42.36184349999999">
   3#电梯
  </text>
  <text fill="rgb(0,178,0)" font-family="Noto Sans CJK SC" font-size="2" transform="rotate(-0.0,41.33772899999997,42.36184349999999)" x="41.33772899999997" y="42.36184349999999">
   4#电梯
  </text>
 </g>
 <g id="layer暖留洞" inkscape:groupmode="layer" inkscape:label="暖留洞">
  <path d="M 60.616728999999964,69.31284350000001 L 58.616728999999964,69.31284350000001" fill="none" stroke="rgb(255,73,12)" stroke-width="0.1"/>
  <path d="M 60.616728999999964,79.31284350000001 L 58.616728999999964,79.31284350000001" fill="none" stroke="rgb(255,73,12)" stroke-width="0.1"/>
  <path d="M 60.616728999999964,79.31284350000001 L 58.616728999999964,69.31284350000001" fill="none" stroke="rgb(255,73,12)" stroke-width="0.1"/>
  <path d="M 59.616728999999964,74.31284350000001 L 60.791936842540764,100.0" fill="none" stroke="rgb(255,73,12)" stroke-width="0.1"/>
  <path d="M 44.616728999999964,71.5718435 L 44.616728999999964,100.0" fill="none" stroke="rgb(255,73,12)" stroke-width="0.1"/>
  <path d="M 39.616728999999964,81.31284350000001 L 49.616728999999964,83.31284350000001" fill="none" stroke="rgb(255,73,12)" stroke-width="0.1"/>
  <path d="M 54.20098405422638,100.0 L 44.616728999999964,82.31284350000001" fill="none" stroke="rgb(255,73,12)" stroke-width="0.1"/>
  <path d="M 90.52968803293447,100.0 L 87.67572899999999,73.5488435" fill="none" stroke="rgb(255,73,12)" stroke-width="0.1"/>
  <path d="M 86.61672899999996,71.31284350000001 L 88.61672899999996,77.31284350000001" fill="none" stroke="rgb(255,73,12)" stroke-width="0.1"/>
  <path d="M 49.616728999999964,83.31284350000001 L 39.616728999999964,83.31284350000001" fill="none" stroke="rgb(255,73,12)" stroke-width="0.1"/>
  <path d="M 39.616728999999964,83.31284350000001 L 39.616728999999964,81.31284350000001" fill="none" stroke="rgb(255,73,12)" stroke-width="0.1"/>
  <path d="M 39.616728999999964,81.31284350000001 L 49.616728999999964,81.31284350000001" fill="none" stroke="rgb(255,73,12)" stroke-width="0.1"/>
  <path d="M 49.616728999999964,81.31284350000001 L 49.616728999999964,83.31284350000001" fill="none" stroke="rgb(255,73,12)" stroke-width="0.1"/>
  <path d="M 88.61672899999996,77.31284350000001 L 88.61672899999996,71.31284350000001" fill="none" stroke="rgb(255,73,12)" stroke-width="0.1"/>
  <path d="M 88.61672899999996,71.31284350000001 L 86.61672899999996,71.31284350000001" fill="none" stroke="rgb(255,73,12)" stroke-width="0.1"/>
  <path d="M 86.61672899999996,71.31284350000001 L 86.61672899999996,77.31284350000001" fill="none" stroke="rgb(255,73,12)" stroke-width="0.1"/>
  <path d="M 86.61672899999996,77.31284350000001 L 88.61672899999996,77.31284350000001" fill="none" stroke="rgb(255,73,12)" stroke-width="0.1"/>
  <text fill="rgb(255,73,12)" font-family="Noto Sans CJK SC" font-size="2" transform="rotate(-0.0,59.84672899999998,92.19484349999999)" x="59.84672899999998" y="92.19484349999999">
   注4
  </text>
 </g>
 <g id="layer砼墙" inkscape:groupmode="layer" inkscape:label="砼墙">
  <path d="M 60.616728999999964,51.312843500000014 L 60.616728999999964,55.312843500000014" fill="none" instance-id="-1" semantic-id="1" stroke="rgb(0,178,0)" stroke-width="0.1"/>
  <path d="M 60.616728999999964,55.312843500000014 L 56.616728999999964,55.312843500000014" fill="none" instance-id="-1" semantic-id="1" stroke="rgb(0,178,0)" stroke-width="0.1"/>
  <path d="M 56.616728999999964,53.312843500000014 L 56.616728999999964,51.312843500000014" fill="none" instance-id="-1" semantic-id="1" stroke="rgb(0,178,0)" stroke-width="0.1"/>
  <path d="M 90.61672899999996,55.312843500000014 L 86.61672899999996,55.312843500000014" fill="none" instance-id="-1" semantic-id="1" stroke="rgb(0,178,0)" stroke-width="0.1"/>
  <path d="M 86.61672899999996,55.312843500000014 L 86.61672899999996,51.312843500000014" fill="none" instance-id="-1" semantic-id="1" stroke="rgb(0,178,0)" stroke-width="0.1"/>
  <path d="M 90.61672899999996,51.312843500000014 L 90.61672899999996,53.312843500000014" fill="none" instance-id="-1" semantic-id="1" stroke="rgb(0,178,0)" stroke-width="0.1"/>
  <path d="M 80.61672899999996,67.81284350000001 L 77.11672899999996,67.81284350000001" fill="none" instance-id="-1" semantic-id="1" stroke="rgb(0,178,0)" stroke-width="0.1"/>
  <path d="M 80.61672899999996,81.31284350000001 L 80.61672899999996,67.81284350000001" fill="none" instance-id="-1" semantic-id="1" stroke="rgb(0,178,0)" stroke-width="0.1"/>
  <path d="M 77.11672899999996,81.31284350000001 L 77.11672899999996,67.81284350000001" fill="none" instance-id="-1" semantic-id="1" stroke="rgb(0,178,0)" stroke-width="0.1"/>
  <path d="M 39.116728999999964,81.31284350000001 L 34.616728999999964,81.31284350000001" fill="none" instance-id="-1" semantic-id="1" stroke="rgb(0,178,0)" stroke-width="0.1"/>
  <path d="M 39.116728999999964,84.81284350000001 L 30.616728999999964,84.81284350000001" fill="none" instance-id="-1" semantic-id="1" stroke="rgb(0,178,0)" stroke-width="0.1"/>
  <path d="M 39.116728999999964,84.81284350000001 L 39.116728999999964,81.31284350000001" fill="none" instance-id="-1" semantic-id="1" stroke="rgb(0,178,0)" stroke-width="0.1"/>
  <path d="M 54.116728999999964,84.81284350000001 L 54.116728999999964,81.31284350000001" fill="none" instance-id="-1" semantic-id="1" stroke="rgb(0,178,0)" stroke-width="0.1"/>
  <path d="M 77.11672899999996,81.31284350000001 L 54.116728999999964,81.31284350000001" fill="none" instance-id="-1" semantic-id="1" stroke="rgb(0,178,0)" stroke-width="0.1"/>
  <path d="M 80.61672899999996,84.81284350000001 L 54.116728999999964,84.81284350000001" fill="none" instance-id="-1" semantic-id="1" stroke="rgb(0,178,0)" stroke-width="0.1"/>
  <path d="M 41.866728999999964,5.812843500000014 L 41.866728999999964,1.8128435000000138" fill="none" instance-id="-1" semantic-id="1" stroke="rgb(0,178,0)" stroke-width="0.1"/>
  <path d="M 5.616728999999964,1.8128435000000138 L 0.0,1.8128435000000138" fill="none" instance-id="-1" semantic-id="1" stroke="rgb(0,178,0)" stroke-width="0.1"/>
  <path d="M 5.616728999999964,5.812843500000014 L 0.0,5.812843500000014" fill="none" instance-id="-1" semantic-id="1" stroke="rgb(0,178,0)" stroke-width="0.1"/>
  <path d="M 5.616728999999964,5.812843500000014 L 5.616728999999964,1.8128435000000138" fill="none" instance-id="-1" semantic-id="1" stroke="rgb(0,178,0)" stroke-width="0.1"/>
  <path d="M 24.616728999999964,5.812843500000014 L 24.616728999999964,1.8128435000000138" fill="none" instance-id="-1" semantic-id="1" stroke="rgb(0,178,0)" stroke-width="0.1"/>
  <path d="M 41.866728999999964,1.8128435000000138 L 24.616728999999964,1.8128435000000138" fill="none" instance-id="-1" semantic-id="1" stroke="rgb(0,178,0)" stroke-width="0.1"/>
  <path d="M 41.866728999999964,5.812843500000014 L 24.616728999999964,5.812843500000014" fill="none" instance-id="-1" semantic-id="1" stroke="rgb(0,178,0)" stroke-width="0.1"/>
  <path d="M 39.616728999999964,53.312843500000014 L 34.616728999999964,53.312843500000014" fill="none" instance-id="-1" semantic-id="1" stroke="rgb(0,178,0)" stroke-width="0.1"/>
  <path d="M 39.616728999999964,55.312843500000014 L 34.616728999999964,55.312843500000014" fill="none" instance-id="-1" semantic-id="1" stroke="rgb(0,178,0)" stroke-width="0.1"/>
  <path d="M 39.616728999999964,55.312843500000014 L 39.616728999999964,53.312843500000014" fill="none" instance-id="-1" semantic-id="1" stroke="rgb(0,178,0)" stroke-width="0.1"/>
  <path d="M 51.616728999999964,55.312843500000014 L 51.616728999999964,53.312843500000014" fill="none" instance-id="-1" semantic-id="1" stroke="rgb(0,178,0)" stroke-width="0.1"/>
  <path d="M 56.616728999999964,53.312843500000014 L 51.616728999999964,53.312843500000014" fill="none" instance-id="-1" semantic-id="1" stroke="rgb(0,178,0)" stroke-width="0.1"/>
  <path d="M 56.616728999999964,55.312843500000014 L 51.616728999999964,55.312843500000014" fill="none" instance-id="-1" semantic-id="1" stroke="rgb(0,178,0)" stroke-width="0.1"/>
  <path d="M 34.616728999999964,53.312843500000014 L 34.616728999999964,26.312843500000014" fill="none" instance-id="-1" semantic-id="1" stroke="rgb(0,178,0)" stroke-width="0.1"/>
  <path d="M 30.616728999999964,55.312843500000014 L 30.616728999999964,22.812843500000014" fill="none" instance-id="-1" semantic-id="1" stroke="rgb(0,178,0)" stroke-width="0.1"/>
  <path d="M 60.616728999999964,51.312843500000014 L 60.616728999999964,22.812843500000014" fill="none" instance-id="-1" semantic-id="1" stroke="rgb(0,178,0)" stroke-width="0.1"/>
  <path d="M 56.616728999999964,51.312843500000014 L 56.616728999999964,26.312843500000014" fill="none" instance-id="-1" semantic-id="1" stroke="rgb(0,178,0)" stroke-width="0.1"/>
  <path d="M 56.616728999999964,22.812843500000014 L 30.616728999999964,22.812843500000014" fill="none" instance-id="-1" semantic-id="1" stroke="rgb(0,178,0)" stroke-width="0.1"/>
  <path d="M 56.616728999999964,26.312843500000014 L 34.616728999999964,26.312843500000014" fill="none" instance-id="-1" semantic-id="1" stroke="rgb(0,178,0)" stroke-width="0.1"/>
  <path d="M 56.616728999999964,7.812843500000014 L 60.616728999999964,7.812843500000014" fill="none" instance-id="-1" semantic-id="1" stroke="rgb(0,178,0)" stroke-width="0.1"/>
  <path d="M 60.616728999999964,22.812843500000014 L 60.616728999999964,7.812843500000014" fill="none" instance-id="-1" semantic-id="1" stroke="rgb(0,178,0)" stroke-width="0.1"/>
  <path d="M 56.616728999999964,22.812843500000014 L 56.616728999999964,7.812843500000014" fill="none" instance-id="-1" semantic-id="1" stroke="rgb(0,178,0)" stroke-width="0.1"/>
  <path d="M 34.616728999999964,81.31284350000001 L 34.616728999999964,55.312843500000014" fill="none" instance-id="-1" semantic-id="1" stroke="rgb(0,178,0)" stroke-width="0.1"/>
  <path d="M 30.616728999999964,84.81284350000001 L 30.616728999999964,55.312843500000014" fill="none" instance-id="-1" semantic-id="1" stroke="rgb(0,178,0)" stroke-width="0.1"/>
  <path d="M 95.61672899999996,53.312843500000014 L 90.61672899999996,53.312843500000014" fill="none" instance-id="-1" semantic-id="1" stroke="rgb(0,178,0)" stroke-width="0.1"/>
  <path d="M 95.61672899999996,55.312843500000014 L 90.61672899999996,55.312843500000014" fill="none" instance-id="-1" semantic-id="1" stroke="rgb(0,178,0)" stroke-width="0.1"/>
  <path d="M 95.61672899999996,55.312843500000014 L 95.61672899999996,53.312843500000014" fill="none" instance-id="-1" semantic-id="1" stroke="rgb(0,178,0)" stroke-width="0.1"/>
  <path d="M 90.61672899999996,51.312843500000014 L 90.61672899999996,26.312843500000014" fill="none" instance-id="-1" semantic-id="1" stroke="rgb(0,178,0)" stroke-width="0.1"/>
  <path d="M 86.61672899999996,51.312843500000014 L 86.61672899999996,22.812843500000014" fill="none" instance-id="-1" semantic-id="1" stroke="rgb(0,178,0)" stroke-width="0.1"/>
  <path d="M 100.0,22.812843500000014 L 90.61672899999996,22.812843500000014" fill="none" instance-id="-1" semantic-id="1" stroke="rgb(0,178,0)" stroke-width="0.1"/>
  <path d="M 100.0,26.312843500000014 L 90.61672899999996,26.312843500000014" fill="none" instance-id="-1" semantic-id="1" stroke="rgb(0,178,0)" stroke-width="0.1"/>
  <path d="M 86.61672899999996,7.812843500000014 L 90.61672899999996,7.812843500000014" fill="none" instance-id="-1" semantic-id="1" stroke="rgb(0,178,0)" stroke-width="0.1"/>
  <path d="M 90.61672899999996,22.812843500000014 L 90.61672899999996,7.812843500000014" fill="none" instance-id="-1" semantic-id="1" stroke="rgb(0,178,0)" stroke-width="0.1"/>
  <path d="M 86.61672899999996,22.812843500000014 L 86.61672899999996,7.812843500000014" fill="none" instance-id="-1" semantic-id="1" stroke="rgb(0,178,0)" stroke-width="0.1"/>
  <path d="M 93.11672899999996,81.31284350000001 L 80.61672899999996,81.31284350000001" fill="none" instance-id="-1" semantic-id="1" stroke="rgb(0,178,0)" stroke-width="0.1"/>
  <path d="M 93.11672899999996,84.81284350000001 L 80.61672899999996,84.81284350000001" fill="none" instance-id="-1" semantic-id="1" stroke="rgb(0,178,0)" stroke-width="0.1"/>
  <path d="M 93.11672899999996,84.81284350000001 L 93.11672899999996,81.31284350000001" fill="none" instance-id="-1" semantic-id="1" stroke="rgb(0,178,0)" stroke-width="0.1"/>
  <path d="M 0.0,5.812843500000014 L 5.616728999999964,5.812843500000014" fill="none" instance-id="-1" semantic-id="1" stroke="rgb(0,178,0)" stroke-width="0.1"/>
  <path d="M 5.616728999999964,5.812843500000014 L 5.616728999999964,1.8128435000000138" fill="none" instance-id="-1" semantic-id="1" stroke="rgb(0,178,0)" stroke-width="0.1"/>
  <path d="M 5.616728999999964,1.8128435000000138 L 0.0,1.8128435000000138" fill="none" instance-id="-1" semantic-id="1" stroke="rgb(0,178,0)" stroke-width="0.1"/>
  <path d="M 24.616728999999964,5.812843500000014 L 41.866728999999964,5.812843500000014" fill="none" instance-id="-1" semantic-id="1" stroke="rgb(0,178,0)" stroke-width="0.1"/>
  <path d="M 41.866728999999964,5.812843500000014 L 41.866728999999964,1.8128435000000138" fill="none" instance-id="-1" semantic-id="1" stroke="rgb(0,178,0)" stroke-width="0.1"/>
  <path d="M 41.866728999999964,1.8128435000000138 L 24.616728999999964,1.8128435000000138" fill="none" instance-id="-1" semantic-id="1" stroke="rgb(0,178,0)" stroke-width="0.1"/>
  <path d="M 24.616728999999964,1.8128435000000138 L 24.616728999999964,5.812843500000014" fill="none" instance-id="-1" semantic-id="1" stroke="rgb(0,178,0)" stroke-width="0.1"/>
  <path d="M 51.616728999999964,55.312843500000014 L 56.616728999999964,55.312843500000014" fill="none" instance-id="-1" semantic-id="1" stroke="rgb(0,178,0)" stroke-width="0.1"/>
  <path d="M 56.616728999999964,55.312843500000014 L 60.616728999999964,55.312843500000014" fill="none" instance-id="-1" semantic-id="1" stroke="rgb(0,178,0)" stroke-width="0.1"/>
  <path d="M 60.616728999999964,55.312843500000014 L 60.616728999999964,51.312843500000014" fill="none" instance-id="-1" semantic-id="1" stroke="rgb(0,178,0)" stroke-width="0.1"/>
  <path d="M 60.616728999999964,51.312843500000014 L 60.616728999999964,22.812843500000014" fill="none" instance-id="-1" semantic-id="1" stroke="rgb(0,178,0)" stroke-width="0.1"/>
  <path d="M 60.616728999999964,22.812843500000014 L 60.616728999999964,7.812843500000014" fill="none" instance-id="-1" semantic-id="1" stroke="rgb(0,178,0)" stroke-width="0.1"/>
  <path d="M 60.616728999999964,7.812843500000014 L 56.616728999999964,7.812843500000014" fill="none" instance-id="-1" semantic-id="1" stroke="rgb(0,178,0)" stroke-width="0.1"/>
  <path d="M 56.616728999999964,7.812843500000014 L 56.616728999999964,22.812843500000014" fill="none" instance-id="-1" semantic-id="1" stroke="rgb(0,178,0)" stroke-width="0.1"/>
  <path d="M 56.616728999999964,22.812843500000014 L 30.616728999999964,22.812843500000014" fill="none" instance-id="-1" semantic-id="1" stroke="rgb(0,178,0)" stroke-width="0.1"/>
  <path d="M 30.616728999999964,22.812843500000014 L 30.616728999999964,55.312843500000014" fill="none" instance-id="-1" semantic-id="1" stroke="rgb(0,178,0)" stroke-width="0.1"/>
  <path d="M 30.616728999999964,55.312843500000014 L 30.616728999999964,84.81284350000001" fill="none" instance-id="-1" semantic-id="1" stroke="rgb(0,178,0)" stroke-width="0.1"/>
  <path d="M 30.616728999999964,84.81284350000001 L 39.116728999999964,84.81284350000001" fill="none" instance-id="-1" semantic-id="1" stroke="rgb(0,178,0)" stroke-width="0.1"/>
  <path d="M 39.116728999999964,84.81284350000001 L 39.116728999999964,81.31284350000001" fill="none" instance-id="-1" semantic-id="1" stroke="rgb(0,178,0)" stroke-width="0.1"/>
  <path d="M 39.116728999999964,81.31284350000001 L 34.616728999999964,81.31284350000001" fill="none" instance-id="-1" semantic-id="1" stroke="rgb(0,178,0)" stroke-width="0.1"/>
  <path d="M 34.616728999999964,81.31284350000001 L 34.616728999999964,55.312843500000014" fill="none" instance-id="-1" semantic-id="1" stroke="rgb(0,178,0)" stroke-width="0.1"/>
  <path d="M 34.616728999999964,55.312843500000014 L 39.616728999999964,55.312843500000014" fill="none" instance-id="-1" semantic-id="1" stroke="rgb(0,178,0)" stroke-width="0.1"/>
  <path d="M 39.616728999999964,55.312843500000014 L 39.616728999999964,53.312843500000014" fill="none" instance-id="-1" semantic-id="1" stroke="rgb(0,178,0)" stroke-width="0.1"/>
  <path d="M 39.616728999999964,53.312843500000014 L 34.616728999999964,53.312843500000014" fill="none" instance-id="-1" semantic-id="1" stroke="rgb(0,178,0)" stroke-width="0.1"/>
  <path d="M 34.616728999999964,53.312843500000014 L 34.616728999999964,26.312843500000014" fill="none" instance-id="-1" semantic-id="1" stroke="rgb(0,178,0)" stroke-width="0.1"/>
  <path d="M 34.616728999999964,26.312843500000014 L 56.616728999999964,26.312843500000014" fill="none" instance-id="-1" semantic-id="1" stroke="rgb(0,178,0)" stroke-width="0.1"/>
  <path d="M 56.616728999999964,26.312843500000014 L 56.616728999999964,51.312843500000014" fill="none" instance-id="-1" semantic-id="1" stroke="rgb(0,178,0)" stroke-width="0.1"/>
  <path d="M 56.616728999999964,51.312843500000014 L 56.616728999999964,53.312843500000014" fill="none" instance-id="-1" semantic-id="1" stroke="rgb(0,178,0)" stroke-width="0.1"/>
  <path d="M 56.616728999999964,53.312843500000014 L 51.616728999999964,53.312843500000014" fill="none" instance-id="-1" semantic-id="1" stroke="rgb(0,178,0)" stroke-width="0.1"/>
  <path d="M 51.616728999999964,53.312843500000014 L 51.616728999999964,55.312843500000014" fill="none" instance-id="-1" semantic-id="1" stroke="rgb(0,178,0)" stroke-width="0.1"/>
  <path d="M 80.61672899999996,81.31284350000001 L 80.61672899999996,67.81284350000001" fill="none" instance-id="-1" semantic-id="1" stroke="rgb(0,178,0)" stroke-width="0.1"/>
  <path d="M 80.61672899999996,67.81284350000001 L 77.11672899999996,67.81284350000001" fill="none" instance-id="-1" semantic-id="1" stroke="rgb(0,178,0)" stroke-width="0.1"/>
  <path d="M 77.11672899999996,67.81284350000001 L 77.11672899999996,81.31284350000001" fill="none" instance-id="-1" semantic-id="1" stroke="rgb(0,178,0)" stroke-width="0.1"/>
  <path d="M 77.11672899999996,81.31284350000001 L 54.116728999999964,81.31284350000001" fill="none" instance-id="-1" semantic-id="1" stroke="rgb(0,178,0)" stroke-width="0.1"/>
  <path d="M 54.116728999999964,81.31284350000001 L 54.116728999999964,84.81284350000001" fill="none" instance-id="-1" semantic-id="1" stroke="rgb(0,178,0)" stroke-width="0.1"/>
  <path d="M 54.116728999999964,84.81284350000001 L 80.61672899999996,84.81284350000001" fill="none" instance-id="-1" semantic-id="1" stroke="rgb(0,178,0)" stroke-width="0.1"/>
  <path d="M 80.61672899999996,84.81284350000001 L 93.11672899999996,84.81284350000001" fill="none" instance-id="-1" semantic-id="1" stroke="rgb(0,178,0)" stroke-width="0.1"/>
  <path d="M 93.11672899999996,84.81284350000001 L 93.11672899999996,81.31284350000001" fill="none" instance-id="-1" semantic-id="1" stroke="rgb(0,178,0)" stroke-width="0.1"/>
  <path d="M 93.11672899999996,81.31284350000001 L 80.61672899999996,81.31284350000001" fill="none" instance-id="-1" semantic-id="1" stroke="rgb(0,178,0)" stroke-width="0.1"/>
  <path d="M 100.0,22.812843500000014 L 90.61672899999996,22.812843500000014" fill="none" instance-id="-1" semantic-id="1" stroke="rgb(0,178,0)" stroke-width="0.1"/>
  <path d="M 90.61672899999996,22.812843500000014 L 90.61672899999996,7.812843500000014" fill="none" instance-id="-1" semantic-id="1" stroke="rgb(0,178,0)" stroke-width="0.1"/>
  <path d="M 90.61672899999996,7.812843500000014 L 86.61672899999996,7.812843500000014" fill="none" instance-id="-1" semantic-id="1" stroke="rgb(0,178,0)" stroke-width="0.1"/>
  <path d="M 86.61672899999996,7.812843500000014 L 86.61672899999996,22.812843500000014" fill="none" instance-id="-1" semantic-id="1" stroke="rgb(0,178,0)" stroke-width="0.1"/>
  <path d="M 86.61672899999996,22.812843500000014 L 86.61672899999996,51.312843500000014" fill="none" instance-id="-1" semantic-id="1" stroke="rgb(0,178,0)" stroke-width="0.1"/>
  <path d="M 86.61672899999996,51.312843500000014 L 86.61672899999996,55.312843500000014" fill="none" instance-id="-1" semantic-id="1" stroke="rgb(0,178,0)" stroke-width="0.1"/>
  <path d="M 86.61672899999996,55.312843500000014 L 90.61672899999996,55.312843500000014" fill="none" instance-id="-1" semantic-id="1" stroke="rgb(0,178,0)" stroke-width="0.1"/>
  <path d="M 90.61672899999996,55.312843500000014 L 95.61672899999996,55.312843500000014" fill="none" instance-id="-1" semantic-id="1" stroke="rgb(0,178,0)" stroke-width="0.1"/>
  <path d="M 95.61672899999996,55.312843500000014 L 95.61672899999996,53.312843500000014" fill="none" instance-id="-1" semantic-id="1" stroke="rgb(0,178,0)" stroke-width="0.1"/>
  <path d="M 95.61672899999996,53.312843500000014 L 90.61672899999996,53.312843500000014" fill="none" instance-id="-1" semantic-id="1" stroke="rgb(0,178,0)" stroke-width="0.1"/>
  <path d="M 90.61672899999996,53.312843500000014 L 90.61672899999996,51.312843500000014" fill="none" instance-id="-1" semantic-id="1" stroke="rgb(0,178,0)" stroke-width="0.1"/>
  <path d="M 90.61672899999996,51.312843500000014 L 90.61672899999996,26.312843500000014" fill="none" instance-id="-1" semantic-id="1" stroke="rgb(0,178,0)" stroke-width="0.1"/>
  <path d="M 90.61672899999996,26.312843500000014 L 100.0,26.312843500000014" fill="none" instance-id="-1" semantic-id="1" stroke="rgb(0,178,0)" stroke-width="0.1"/>
 </g>
 <g id="layer立管" inkscape:groupmode="layer" inkscape:label="立管">
  <circle cx="39.31672899999998" cy="7.112843499999997" fill="none" r="0.55" stroke="rgb(178,178,0)" stroke-width="0.1"/>
 </g>
 <g id="layer门窗编号" inkscape:groupmode="layer" inkscape:label="门窗编号">
  <text fill="rgb(178,0,88)" font-family="Noto Sans CJK SC" font-size="2" transform="rotate(-0.0,94.65972899999997,86.9408435)" x="94.65972899999997" y="86.9408435">
   FM乙1524
  </text>
  <text fill="rgb(178,0,88)" font-family="Noto Sans CJK SC" font-size="2" transform="rotate(-0.0,40.704728999999986,86.9408435)" x="40.704728999999986" y="86.9408435">
   FM乙1524
  </text>
  <text fill="rgb(178,0,88)" font-family="Noto Sans CJK SC" font-size="2" transform="rotate(-90.0,92.56572899999998,77.49684350000001)" x="92.56572899999998" y="77.49684350000001">
   FM乙1124
  </text>
  <text fill="rgb(178,0,88)" font-family="Noto Sans CJK SC" font-size="2" transform="rotate(-90.0,57.70272899999998,77.7198435)" x="57.70272899999998" y="77.7198435">
   FM乙1124
  </text>
 </g>
</svg>