<?xml version="1.0" encoding="utf-8"?>
<svg style="background-color: #000;" version="1.1" viewBox="0 0 100.0 100.0" xmlns="http://www.w3.org/2000/svg" xmlns:inkscape="http://www.inkscape.org/namespaces/inkscape">
 <g id="layerA-填充" inkscape:groupmode="layer" inkscape:label="A-填充">
  <path d="M 95.722534,0.0 L 95.722534,2.9000000000000057" fill="none" instance-id="-1" semantic-id="1" stroke="rgb(63,63,63)" stroke-width="0.1"/>
  <path d="M 95.722534,2.9000000000000057 L 99.722534,2.9000000000000057" fill="none" instance-id="-1" semantic-id="1" stroke="rgb(63,63,63)" stroke-width="0.1"/>
  <path d="M 99.722534,2.9000000000000057 L 99.722534,0.0" fill="none" instance-id="-1" semantic-id="1" stroke="rgb(63,63,63)" stroke-width="0.1"/>
  <path d="M 37.72153400000002,2.9000000000000057 L 41.72153400000002,2.9000000000000057" fill="none" instance-id="-1" semantic-id="1" stroke="rgb(63,63,63)" stroke-width="0.1"/>
  <path d="M 41.72153400000002,2.9000000000000057 L 41.72153400000002,0.0" fill="none" instance-id="-1" semantic-id="1" stroke="rgb(63,63,63)" stroke-width="0.1"/>
  <path d="M 37.72153400000002,0.0 L 37.72153400000002,2.9000000000000057" fill="none" instance-id="-1" semantic-id="1" stroke="rgb(63,63,63)" stroke-width="0.1"/>
  <path d="M 59.47153400000002,21.400000000000006 L 59.47153400000002,18.400000000000006" fill="none" instance-id="-1" semantic-id="1" stroke="rgb(63,63,63)" stroke-width="0.1"/>
  <path d="M 59.47153400000002,18.400000000000006 L 57.47153400000002,18.400000000000006" fill="none" instance-id="-1" semantic-id="1" stroke="rgb(63,63,63)" stroke-width="0.1"/>
  <path d="M 57.47153400000002,18.400000000000006 L 57.47153400000002,23.400000000000006" fill="none" instance-id="-1" semantic-id="1" stroke="rgb(63,63,63)" stroke-width="0.1"/>
  <path d="M 57.47153400000002,23.400000000000006 L 67.72153400000002,23.400000000000006" fill="none" instance-id="-1" semantic-id="1" stroke="rgb(63,63,63)" stroke-width="0.1"/>
  <path d="M 67.72153400000002,23.400000000000006 L 67.72153400000002,24.400000000000006" fill="none" instance-id="-1" semantic-id="1" stroke="rgb(63,63,63)" stroke-width="0.1"/>
  <path d="M 67.72153400000002,24.400000000000006 L 69.72153400000002,24.400000000000006" fill="none" instance-id="-1" semantic-id="1" stroke="rgb(63,63,63)" stroke-width="0.1"/>
  <path d="M 69.72153400000002,24.400000000000006 L 69.72153400000002,23.400000000000006" fill="none" instance-id="-1" semantic-id="1" stroke="rgb(63,63,63)" stroke-width="0.1"/>
  <path d="M 69.72153400000002,23.400000000000006 L 79.97153400000002,23.400000000000006" fill="none" instance-id="-1" semantic-id="1" stroke="rgb(63,63,63)" stroke-width="0.1"/>
  <path d="M 79.97153400000002,23.400000000000006 L 79.97153400000002,18.400000000000006" fill="none" instance-id="-1" semantic-id="1" stroke="rgb(63,63,63)" stroke-width="0.1"/>
  <path d="M 79.97153400000002,18.400000000000006 L 77.97153400000002,18.400000000000006" fill="none" instance-id="-1" semantic-id="1" stroke="rgb(63,63,63)" stroke-width="0.1"/>
  <path d="M 77.97153400000002,18.400000000000006 L 77.97153400000002,21.400000000000006" fill="none" instance-id="-1" semantic-id="1" stroke="rgb(63,63,63)" stroke-width="0.1"/>
  <path d="M 77.97153400000002,21.400000000000006 L 59.47153400000002,21.400000000000006" fill="none" instance-id="-1" semantic-id="1" stroke="rgb(63,63,63)" stroke-width="0.1"/>
  <path d="M 0.22153400000001966,41.400000000000006 L 0.22153400000001966,44.900000000000006" fill="none" instance-id="-1" semantic-id="1" stroke="rgb(63,63,63)" stroke-width="0.1"/>
  <path d="M 0.22153400000001966,44.900000000000006 L 4.72153400000002,44.900000000000006" fill="none" instance-id="-1" semantic-id="1" stroke="rgb(63,63,63)" stroke-width="0.1"/>
  <path d="M 4.72153400000002,44.900000000000006 L 4.72153400000002,42.900000000000006" fill="none" instance-id="-1" semantic-id="1" stroke="rgb(63,63,63)" stroke-width="0.1"/>
  <path d="M 4.72153400000002,42.900000000000006 L 2.7215340000000197,42.900000000000006" fill="none" instance-id="-1" semantic-id="1" stroke="rgb(63,63,63)" stroke-width="0.1"/>
  <path d="M 2.7215340000000197,42.900000000000006 L 2.7215340000000197,28.400000000000006" fill="none" instance-id="-1" semantic-id="1" stroke="rgb(63,63,63)" stroke-width="0.1"/>
  <path d="M 2.7215340000000197,28.400000000000006 L 0.7215340000000197,28.400000000000006" fill="none" instance-id="-1" semantic-id="1" stroke="rgb(63,63,63)" stroke-width="0.1"/>
  <path d="M 0.7215340000000197,28.400000000000006 L 0.7215340000000197,41.400000000000006" fill="none" instance-id="-1" semantic-id="1" stroke="rgb(63,63,63)" stroke-width="0.1"/>
  <path d="M 0.7215340000000197,41.400000000000006 L 0.22153400000001966,41.400000000000006" fill="none" instance-id="-1" semantic-id="1" stroke="rgb(63,63,63)" stroke-width="0.1"/>
  <path d="M 39.72153400000002,37.900000000000006 L 37.72153400000002,37.900000000000006" fill="none" instance-id="-1" semantic-id="1" stroke="rgb(63,63,63)" stroke-width="0.1"/>
  <path d="M 37.72153400000002,37.900000000000006 L 37.72153400000002,42.900000000000006" fill="none" instance-id="-1" semantic-id="1" stroke="rgb(63,63,63)" stroke-width="0.1"/>
  <path d="M 37.72153400000002,42.900000000000006 L 35.72153400000002,42.900000000000006" fill="none" instance-id="-1" semantic-id="1" stroke="rgb(63,63,63)" stroke-width="0.1"/>
  <path d="M 35.72153400000002,42.900000000000006 L 35.72153400000002,44.900000000000006" fill="none" instance-id="-1" semantic-id="1" stroke="rgb(63,63,63)" stroke-width="0.1"/>
  <path d="M 35.72153400000002,44.900000000000006 L 37.72153400000002,44.900000000000006" fill="none" instance-id="-1" semantic-id="1" stroke="rgb(63,63,63)" stroke-width="0.1"/>
  <path d="M 37.72153400000002,44.900000000000006 L 37.72153400000002,54.400000000000006" fill="none" instance-id="-1" semantic-id="1" stroke="rgb(63,63,63)" stroke-width="0.1"/>
  <path d="M 37.72153400000002,54.400000000000006 L 40.22153400000002,54.400000000000006" fill="none" instance-id="-1" semantic-id="1" stroke="rgb(63,63,63)" stroke-width="0.1"/>
  <path d="M 40.22153400000002,54.400000000000006 L 40.22153400000002,52.400000000000006" fill="none" instance-id="-1" semantic-id="1" stroke="rgb(63,63,63)" stroke-width="0.1"/>
  <path d="M 40.22153400000002,52.400000000000006 L 39.72153400000002,52.400000000000006" fill="none" instance-id="-1" semantic-id="1" stroke="rgb(63,63,63)" stroke-width="0.1"/>
  <path d="M 39.72153400000002,52.400000000000006 L 39.72153400000002,37.900000000000006" fill="none" instance-id="-1" semantic-id="1" stroke="rgb(63,63,63)" stroke-width="0.1"/>
  <path d="M 97.222534,52.400000000000006 L 97.222534,54.400000000000006" fill="none" instance-id="-1" semantic-id="1" stroke="rgb(63,63,63)" stroke-width="0.1"/>
  <path d="M 97.222534,54.400000000000006 L 99.722534,54.400000000000006" fill="none" instance-id="-1" semantic-id="1" stroke="rgb(63,63,63)" stroke-width="0.1"/>
  <path d="M 99.722534,54.400000000000006 L 99.722534,44.900000000000006" fill="none" instance-id="-1" semantic-id="1" stroke="rgb(63,63,63)" stroke-width="0.1"/>
  <path d="M 99.722534,44.900000000000006 L 100.0,44.900000000000006" fill="none" instance-id="-1" semantic-id="1" stroke="rgb(63,63,63)" stroke-width="0.1"/>
  <path d="M 100.0,42.900000000000006 L 99.722534,42.900000000000006" fill="none" instance-id="-1" semantic-id="1" stroke="rgb(63,63,63)" stroke-width="0.1"/>
  <path d="M 99.722534,42.900000000000006 L 99.722534,37.900000000000006" fill="none" instance-id="-1" semantic-id="1" stroke="rgb(63,63,63)" stroke-width="0.1"/>
  <path d="M 99.722534,37.900000000000006 L 97.722534,37.900000000000006" fill="none" instance-id="-1" semantic-id="1" stroke="rgb(63,63,63)" stroke-width="0.1"/>
  <path d="M 97.722534,37.900000000000006 L 97.722534,52.400000000000006" fill="none" instance-id="-1" semantic-id="1" stroke="rgb(63,63,63)" stroke-width="0.1"/>
  <path d="M 97.722534,52.400000000000006 L 97.222534,52.400000000000006" fill="none" instance-id="-1" semantic-id="1" stroke="rgb(63,63,63)" stroke-width="0.1"/>
  <path d="M 96.722534,71.9 L 96.722534,75.9" fill="none" instance-id="-1" semantic-id="1" stroke="rgb(63,63,63)" stroke-width="0.1"/>
  <path d="M 96.722534,75.9 L 100.0,75.9" fill="none" instance-id="-1" semantic-id="1" stroke="rgb(63,63,63)" stroke-width="0.1"/>
  <path d="M 100.0,71.9 L 96.722534,71.9" fill="none" instance-id="-1" semantic-id="1" stroke="rgb(63,63,63)" stroke-width="0.1"/>
  <path d="M 36.72153400000002,71.9 L 36.72153400000002,75.9" fill="none" instance-id="-1" semantic-id="1" stroke="rgb(63,63,63)" stroke-width="0.1"/>
  <path d="M 36.72153400000002,75.9 L 40.72153400000002,75.9" fill="none" instance-id="-1" semantic-id="1" stroke="rgb(63,63,63)" stroke-width="0.1"/>
  <path d="M 40.72153400000002,75.9 L 40.72153400000002,71.9" fill="none" instance-id="-1" semantic-id="1" stroke="rgb(63,63,63)" stroke-width="0.1"/>
  <path d="M 40.72153400000002,71.9 L 36.72153400000002,71.9" fill="none" instance-id="-1" semantic-id="1" stroke="rgb(63,63,63)" stroke-width="0.1"/>
  <path d="M 0.0,75.9 L 3.7215340000000197,75.9" fill="none" instance-id="-1" semantic-id="1" stroke="rgb(63,63,63)" stroke-width="0.1"/>
  <path d="M 3.7215340000000197,75.9 L 3.7215340000000197,71.9" fill="none" instance-id="-1" semantic-id="1" stroke="rgb(63,63,63)" stroke-width="0.1"/>
  <path d="M 3.7215340000000197,71.9 L 0.0,71.9" fill="none" instance-id="-1" semantic-id="1" stroke="rgb(63,63,63)" stroke-width="0.1"/>
 </g>
 <g id="layerA-墙体" inkscape:groupmode="layer" inkscape:label="A-墙体">
  <path d="M 37.72153400000002,0.0 L 37.72153400000002,1.9000000000000057" fill="none" instance-id="-1" semantic-id="1" stroke="rgb(0,0,0)" stroke-width="0.1"/>
  <path d="M 1.7215340000000197,75.9 L 9.22153400000002,75.9" fill="none" instance-id="-1" semantic-id="1" stroke="rgb(0,0,0)" stroke-width="0.1"/>
  <path d="M 9.22153400000002,75.9 L 9.22153400000002,73.9" fill="none" instance-id="-1" semantic-id="1" stroke="rgb(0,0,0)" stroke-width="0.1"/>
  <path d="M 9.22153400000002,73.9 L 2.7215340000000197,73.9" fill="none" instance-id="-1" semantic-id="1" stroke="rgb(0,0,0)" stroke-width="0.1"/>
  <path d="M 100.0,73.9 L 94.972534,73.9" fill="none" instance-id="-1" semantic-id="1" stroke="rgb(0,0,0)" stroke-width="0.1"/>
  <path d="M 94.972534,73.9 L 94.972534,75.9" fill="none" instance-id="-1" semantic-id="1" stroke="rgb(0,0,0)" stroke-width="0.1"/>
  <path d="M 94.972534,75.9 L 100.0,75.9" fill="none" instance-id="-1" semantic-id="1" stroke="rgb(0,0,0)" stroke-width="0.1"/>
  <path d="M 42.47153400000002,73.9 L 27.22153400000002,73.9" fill="none" instance-id="-1" semantic-id="1" stroke="rgb(0,0,0)" stroke-width="0.1"/>
  <path d="M 27.22153400000002,73.9 L 27.22153400000002,75.9" fill="none" instance-id="-1" semantic-id="1" stroke="rgb(0,0,0)" stroke-width="0.1"/>
  <path d="M 27.22153400000002,75.9 L 42.47153400000002,75.9" fill="none" instance-id="-1" semantic-id="1" stroke="rgb(0,0,0)" stroke-width="0.1"/>
  <path d="M 42.47153400000002,75.9 L 42.47153400000002,73.9" fill="none" instance-id="-1" semantic-id="1" stroke="rgb(0,0,0)" stroke-width="0.1"/>
  <path d="M 37.72153400000002,1.9000000000000057 L 57.47153400000002,1.9000000000000057" fill="none" instance-id="-1" semantic-id="1" stroke="rgb(0,0,0)" stroke-width="0.1"/>
  <path d="M 57.47153400000002,0.0 L 57.47153400000002,1.9000000000000057" fill="none" instance-id="-1" semantic-id="1" stroke="rgb(0,0,0)" stroke-width="0.1"/>
  <path d="M 2.7215340000000197,0.0 L 2.7215340000000197,73.9" fill="none" instance-id="-1" semantic-id="1" stroke="rgb(0,0,0)" stroke-width="0.1"/>
  <path d="M 0.7215340000000197,1.9000000000000057 L 0.7215340000000197,73.9" fill="none" instance-id="-1" semantic-id="1" stroke="rgb(0,0,0)" stroke-width="0.1"/>
  <path d="M 0.7215340000000197,73.9 L 0.0,73.9" fill="none" instance-id="-1" semantic-id="1" stroke="rgb(0,0,0)" stroke-width="0.1"/>
  <path d="M 0.0,75.9 L 1.7215340000000197,75.9" fill="none" instance-id="-1" semantic-id="1" stroke="rgb(0,0,0)" stroke-width="0.1"/>
  <path d="M 0.0,1.9000000000000057 L 0.7215340000000197,1.9000000000000057" fill="none" instance-id="-1" semantic-id="1" stroke="rgb(0,0,0)" stroke-width="0.1"/>
  <path d="M 57.47153400000002,0.0 L 57.47153400000002,23.400000000000006" fill="none" instance-id="-1" semantic-id="1" stroke="rgb(0,0,0)" stroke-width="0.1"/>
  <path d="M 59.47153400000002,1.9000000000000057 L 59.47153400000002,21.400000000000006" fill="none" instance-id="-1" semantic-id="1" stroke="rgb(0,0,0)" stroke-width="0.1"/>
  <path d="M 77.97153400000002,1.9000000000000057 L 77.97153400000002,21.400000000000006" fill="none" instance-id="-1" semantic-id="1" stroke="rgb(0,0,0)" stroke-width="0.1"/>
  <path d="M 79.97153400000002,1.9000000000000057 L 79.97153400000002,23.400000000000006" fill="none" instance-id="-1" semantic-id="1" stroke="rgb(0,0,0)" stroke-width="0.1"/>
  <path d="M 82.722534,0.0 L 82.722534,1.9000000000000057" fill="none" instance-id="-1" semantic-id="1" stroke="rgb(0,0,0)" stroke-width="0.1"/>
  <path d="M 77.97153400000002,21.400000000000006 L 59.47153400000002,21.400000000000006" fill="none" instance-id="-1" semantic-id="1" stroke="rgb(0,0,0)" stroke-width="0.1"/>
  <path d="M 79.97153400000002,23.400000000000006 L 57.47153400000002,23.400000000000006" fill="none" instance-id="-1" semantic-id="1" stroke="rgb(0,0,0)" stroke-width="0.1"/>
  <path d="M 77.97153400000002,1.9000000000000057 L 74.22153400000002,1.9000000000000057" fill="none" instance-id="-1" semantic-id="1" stroke="rgb(0,0,0)" stroke-width="0.1"/>
  <path d="M 74.22153400000002,1.9000000000000057 L 74.22153400000002,0.0" fill="none" instance-id="-1" semantic-id="1" stroke="rgb(0,0,0)" stroke-width="0.1"/>
  <path d="M 63.22153400000002,0.0 L 63.22153400000002,1.9000000000000057" fill="none" instance-id="-1" semantic-id="1" stroke="rgb(0,0,0)" stroke-width="0.1"/>
  <path d="M 63.22153400000002,1.9000000000000057 L 59.47153400000002,1.9000000000000057" fill="none" instance-id="-1" semantic-id="1" stroke="rgb(0,0,0)" stroke-width="0.1"/>
  <path d="M 82.722534,1.9000000000000057 L 79.97153400000002,1.9000000000000057" fill="none" instance-id="-1" semantic-id="1" stroke="rgb(0,0,0)" stroke-width="0.1"/>
 </g>
 <g id="layerA-文字" inkscape:groupmode="layer" inkscape:label="A-文字">
  <text fill="rgb(255,194,12)" font-family="Noto Sans CJK SC" font-size="2" transform="rotate(-0.0,14.781534000000079,55.224999999999994)" x="14.781534000000079" y="55.224999999999994">
   ±0.000
  </text>
  <text fill="rgb(255,194,12)" font-family="Noto Sans CJK SC" font-size="2" transform="rotate(-0.0,17.837534000000005,93.32999999999998)" x="17.837534000000005" y="93.32999999999998">
   下
  </text>
 </g>
 <g id="layerA-文字-房间名" inkscape:groupmode="layer" inkscape:label="A-文字-房间名">
  <text fill="rgb(178,178,0)" font-family="Noto Sans CJK SC" font-size="2" transform="rotate(-0.0,62.88653399999998,7.2309999999999945)" x="62.88653399999998" y="7.2309999999999945">
   DT-2
  </text>
  <text fill="rgb(178,178,0)" font-family="Noto Sans CJK SC" font-size="2" transform="rotate(-0.0,63.671534000000065,16.240999999999985)" x="63.671534000000065" y="16.240999999999985">
   无障碍电梯
  </text>
  <text fill="rgb(178,178,0)" font-family="Noto Sans CJK SC" font-size="2" transform="rotate(-0.0,61.34053400000005,12.051999999999992)" x="61.34053400000005" y="12.051999999999992">
   800KG
  </text>
 </g>
 <g id="layerA-材质-石材" inkscape:groupmode="layer" inkscape:label="A-材质-石材">
  <path d="M 99.92253400000004,79.6 L 100.0,79.6" fill="none" stroke="rgb(255,194,12)" stroke-width="0.1"/>
  <path d="M 100.0,80.4 L 97.972534,80.4" fill="none" stroke="rgb(255,194,12)" stroke-width="0.1"/>
  <path d="M 97.972534,80.4 L 95.972534,79.9" fill="none" stroke="rgb(255,194,12)" stroke-width="0.1"/>
  <path d="M 95.972534,79.9 L 94.472534,79.9" fill="none" stroke="rgb(255,194,12)" stroke-width="0.1"/>
  <path d="M 94.472534,79.9 L 94.472534,75.9" fill="none" stroke="rgb(255,194,12)" stroke-width="0.1"/>
  <path d="M 94.472534,75.9 L 94.77253400000006,75.9" fill="none" stroke="rgb(255,194,12)" stroke-width="0.1"/>
  <path d="M 94.77253400000006,75.9 L 94.77253400000006,79.6" fill="none" stroke="rgb(255,194,12)" stroke-width="0.1"/>
  <path d="M 94.77253400000006,79.6 L 96.01253400000007,79.6" fill="none" stroke="rgb(255,194,12)" stroke-width="0.1"/>
  <path d="M 96.01253400000007,79.6 L 98.01253400000007,80.1" fill="none" stroke="rgb(255,194,12)" stroke-width="0.1"/>
  <path d="M 98.01253400000007,80.1 L 99.92253400000004,80.1" fill="none" stroke="rgb(255,194,12)" stroke-width="0.1"/>
  <path d="M 99.92253400000004,80.1 L 99.92253400000004,79.6" fill="none" stroke="rgb(255,194,12)" stroke-width="0.1"/>
  <path d="M 35.921534000000065,79.6 L 37.521533999999974,79.6" fill="none" stroke="rgb(255,194,12)" stroke-width="0.1"/>
  <path d="M 37.521533999999974,79.6 L 37.521533999999974,80.1" fill="none" stroke="rgb(255,194,12)" stroke-width="0.1"/>
  <path d="M 37.521533999999974,80.1 L 39.434533999999985,80.1" fill="none" stroke="rgb(255,194,12)" stroke-width="0.1"/>
  <path d="M 39.434533999999985,80.1 L 41.434533999999985,79.6" fill="none" stroke="rgb(255,194,12)" stroke-width="0.1"/>
  <path d="M 41.434533999999985,79.6 L 42.671534000000065,79.6" fill="none" stroke="rgb(255,194,12)" stroke-width="0.1"/>
  <path d="M 42.671534000000065,79.6 L 42.671534000000065,75.9" fill="none" stroke="rgb(255,194,12)" stroke-width="0.1"/>
  <path d="M 42.671534000000065,75.9 L 42.97153400000002,75.9" fill="none" stroke="rgb(255,194,12)" stroke-width="0.1"/>
  <path d="M 42.97153400000002,75.9 L 42.97153400000002,79.9" fill="none" stroke="rgb(255,194,12)" stroke-width="0.1"/>
  <path d="M 42.97153400000002,79.9 L 41.47153400000002,79.9" fill="none" stroke="rgb(255,194,12)" stroke-width="0.1"/>
  <path d="M 41.47153400000002,79.9 L 39.47153400000002,80.4" fill="none" stroke="rgb(255,194,12)" stroke-width="0.1"/>
  <path d="M 39.47153400000002,80.4 L 37.22153400000002,80.4" fill="none" stroke="rgb(255,194,12)" stroke-width="0.1"/>
  <path d="M 37.22153400000002,80.4 L 37.22153400000002,79.9" fill="none" stroke="rgb(255,194,12)" stroke-width="0.1"/>
  <path d="M 37.22153400000002,79.9 L 36.22153400000002,79.9" fill="none" stroke="rgb(255,194,12)" stroke-width="0.1"/>
  <path d="M 36.22153400000002,79.9 L 36.22153400000002,80.4" fill="none" stroke="rgb(255,194,12)" stroke-width="0.1"/>
  <path d="M 36.22153400000002,80.4 L 33.97153400000002,80.4" fill="none" stroke="rgb(255,194,12)" stroke-width="0.1"/>
  <path d="M 33.97153400000002,80.4 L 31.97153400000002,79.9" fill="none" stroke="rgb(255,194,12)" stroke-width="0.1"/>
  <path d="M 31.97153400000002,79.9 L 30.47153400000002,79.9" fill="none" stroke="rgb(255,194,12)" stroke-width="0.1"/>
  <path d="M 30.47153400000002,79.9 L 30.47153400000002,75.9" fill="none" stroke="rgb(255,194,12)" stroke-width="0.1"/>
  <path d="M 30.47153400000002,75.9 L 30.771533999999974,75.9" fill="none" stroke="rgb(255,194,12)" stroke-width="0.1"/>
  <path d="M 30.771533999999974,75.9 L 30.771533999999974,79.6" fill="none" stroke="rgb(255,194,12)" stroke-width="0.1"/>
  <path d="M 30.771533999999974,79.6 L 32.008534000000054,79.6" fill="none" stroke="rgb(255,194,12)" stroke-width="0.1"/>
  <path d="M 32.008534000000054,79.6 L 34.008534000000054,80.1" fill="none" stroke="rgb(255,194,12)" stroke-width="0.1"/>
  <path d="M 34.008534000000054,80.1 L 35.921534000000065,80.1" fill="none" stroke="rgb(255,194,12)" stroke-width="0.1"/>
  <path d="M 35.921534000000065,80.1 L 35.921534000000065,79.6" fill="none" stroke="rgb(255,194,12)" stroke-width="0.1"/>
  <path d="M 0.0,79.6 L 0.7715339999999742,79.6" fill="none" stroke="rgb(255,194,12)" stroke-width="0.1"/>
  <path d="M 0.7715339999999742,79.6 L 0.7715339999999742,80.1" fill="none" stroke="rgb(255,194,12)" stroke-width="0.1"/>
  <path d="M 0.7715339999999742,80.1 L 2.684533999999985,80.1" fill="none" stroke="rgb(255,194,12)" stroke-width="0.1"/>
  <path d="M 2.684533999999985,80.1 L 4.684533999999985,79.6" fill="none" stroke="rgb(255,194,12)" stroke-width="0.1"/>
  <path d="M 4.684533999999985,79.6 L 5.921534000000065,79.6" fill="none" stroke="rgb(255,194,12)" stroke-width="0.1"/>
  <path d="M 5.921534000000065,79.6 L 5.921534000000065,75.9" fill="none" stroke="rgb(255,194,12)" stroke-width="0.1"/>
  <path d="M 5.921534000000065,75.9 L 6.22153400000002,75.9" fill="none" stroke="rgb(255,194,12)" stroke-width="0.1"/>
  <path d="M 6.22153400000002,75.9 L 6.22153400000002,79.9" fill="none" stroke="rgb(255,194,12)" stroke-width="0.1"/>
  <path d="M 6.22153400000002,79.9 L 4.72153400000002,79.9" fill="none" stroke="rgb(255,194,12)" stroke-width="0.1"/>
  <path d="M 4.72153400000002,79.9 L 2.7215340000000197,80.4" fill="none" stroke="rgb(255,194,12)" stroke-width="0.1"/>
  <path d="M 2.7215340000000197,80.4 L 0.47153400000001966,80.4" fill="none" stroke="rgb(255,194,12)" stroke-width="0.1"/>
  <path d="M 0.47153400000001966,80.4 L 0.47153400000001966,79.9" fill="none" stroke="rgb(255,194,12)" stroke-width="0.1"/>
  <path d="M 0.47153400000001966,79.9 L 0.0,79.9" fill="none" stroke="rgb(255,194,12)" stroke-width="0.1"/>
 </g>
 <g id="layerA-构件-主体结构线" inkscape:groupmode="layer" inkscape:label="A-构件-主体结构线">
  <path d="M 100.0,75.9 L 0.0,75.9" fill="none" stroke="rgb(178,178,0)" stroke-width="0.1"/>
 </g>
 <g id="layerA-构件-线脚" inkscape:groupmode="layer" inkscape:label="A-构件-线脚">
  <path d="M 36.22153400000002,80.4 L 37.22153400000002,80.4" fill="none" stroke="rgb(107,53,0)" stroke-width="0.1"/>
  <path d="M 0.0,80.4 L 0.47153400000001966,80.4" fill="none" stroke="rgb(107,53,0)" stroke-width="0.1"/>
  <path d="M 95.972534,79.9 L 95.972534,80.9" fill="none" stroke="rgb(107,53,0)" stroke-width="0.1"/>
  <path d="M 95.972534,80.9 L 95.67253400000004,80.9" fill="none" stroke="rgb(107,53,0)" stroke-width="0.1"/>
  <path d="M 95.67253400000004,80.9 L 95.67253400000004,80.69999999999999" fill="none" stroke="rgb(107,53,0)" stroke-width="0.1"/>
  <path d="M 95.67253400000004,80.69999999999999 L 94.77253400000006,80.69999999999999" fill="none" stroke="rgb(107,53,0)" stroke-width="0.1"/>
  <path d="M 94.77253400000006,80.69999999999999 L 94.77253400000006,80.9" fill="none" stroke="rgb(107,53,0)" stroke-width="0.1"/>
  <path d="M 94.77253400000006,80.9 L 94.472534,80.9" fill="none" stroke="rgb(107,53,0)" stroke-width="0.1"/>
  <path d="M 94.472534,80.9 L 94.472534,79.9" fill="none" stroke="rgb(107,53,0)" stroke-width="0.1"/>
  <path d="M 94.472534,79.9 L 95.972534,79.9" fill="none" stroke="rgb(107,53,0)" stroke-width="0.1"/>
  <path d="M 41.47153400000002,79.9 L 41.47153400000002,80.9" fill="none" stroke="rgb(107,53,0)" stroke-width="0.1"/>
  <path d="M 41.47153400000002,80.9 L 41.771533999999974,80.9" fill="none" stroke="rgb(107,53,0)" stroke-width="0.1"/>
  <path d="M 41.771533999999974,80.9 L 41.771533999999974,80.69999999999999" fill="none" stroke="rgb(107,53,0)" stroke-width="0.1"/>
  <path d="M 41.771533999999974,80.69999999999999 L 42.671534000000065,80.69999999999999" fill="none" stroke="rgb(107,53,0)" stroke-width="0.1"/>
  <path d="M 42.671534000000065,80.69999999999999 L 42.671534000000065,80.9" fill="none" stroke="rgb(107,53,0)" stroke-width="0.1"/>
  <path d="M 42.671534000000065,80.9 L 42.97153400000002,80.9" fill="none" stroke="rgb(107,53,0)" stroke-width="0.1"/>
  <path d="M 42.97153400000002,80.9 L 42.97153400000002,79.9" fill="none" stroke="rgb(107,53,0)" stroke-width="0.1"/>
  <path d="M 42.97153400000002,79.9 L 41.47153400000002,79.9" fill="none" stroke="rgb(107,53,0)" stroke-width="0.1"/>
  <path d="M 31.97153400000002,79.9 L 31.97153400000002,80.9" fill="none" stroke="rgb(107,53,0)" stroke-width="0.1"/>
  <path d="M 31.97153400000002,80.9 L 31.671534000000065,80.9" fill="none" stroke="rgb(107,53,0)" stroke-width="0.1"/>
  <path d="M 31.671534000000065,80.9 L 31.671534000000065,80.69999999999999" fill="none" stroke="rgb(107,53,0)" stroke-width="0.1"/>
  <path d="M 31.671534000000065,80.69999999999999 L 30.771533999999974,80.69999999999999" fill="none" stroke="rgb(107,53,0)" stroke-width="0.1"/>
  <path d="M 30.771533999999974,80.69999999999999 L 30.771533999999974,80.9" fill="none" stroke="rgb(107,53,0)" stroke-width="0.1"/>
  <path d="M 30.771533999999974,80.9 L 30.47153400000002,80.9" fill="none" stroke="rgb(107,53,0)" stroke-width="0.1"/>
  <path d="M 30.47153400000002,80.9 L 30.47153400000002,79.9" fill="none" stroke="rgb(107,53,0)" stroke-width="0.1"/>
  <path d="M 30.47153400000002,79.9 L 31.97153400000002,79.9" fill="none" stroke="rgb(107,53,0)" stroke-width="0.1"/>
  <path d="M 4.72153400000002,79.9 L 4.72153400000002,80.9" fill="none" stroke="rgb(107,53,0)" stroke-width="0.1"/>
  <path d="M 4.72153400000002,80.9 L 5.021533999999974,80.9" fill="none" stroke="rgb(107,53,0)" stroke-width="0.1"/>
  <path d="M 5.021533999999974,80.9 L 5.021533999999974,80.69999999999999" fill="none" stroke="rgb(107,53,0)" stroke-width="0.1"/>
  <path d="M 5.021533999999974,80.69999999999999 L 5.921534000000065,80.69999999999999" fill="none" stroke="rgb(107,53,0)" stroke-width="0.1"/>
  <path d="M 5.921534000000065,80.69999999999999 L 5.921534000000065,80.9" fill="none" stroke="rgb(107,53,0)" stroke-width="0.1"/>
  <path d="M 5.921534000000065,80.9 L 6.22153400000002,80.9" fill="none" stroke="rgb(107,53,0)" stroke-width="0.1"/>
  <path d="M 6.22153400000002,80.9 L 6.22153400000002,79.9" fill="none" stroke="rgb(107,53,0)" stroke-width="0.1"/>
  <path d="M 6.22153400000002,79.9 L 4.72153400000002,79.9" fill="none" stroke="rgb(107,53,0)" stroke-width="0.1"/>
  <path d="M 7.021533999999974,75.9 L 7.521533999999974,75.9" fill="none" stroke="rgb(107,53,0)" stroke-width="0.1"/>
  <path d="M 7.521533999999974,75.9 L 7.521533999999974,76.69999999999999" fill="none" stroke="rgb(107,53,0)" stroke-width="0.1"/>
  <path d="M 7.521533999999974,76.69999999999999 L 7.021533999999974,76.69999999999999" fill="none" stroke="rgb(107,53,0)" stroke-width="0.1"/>
  <path d="M 7.021533999999974,76.69999999999999 L 7.021533999999974,75.9" fill="none" stroke="rgb(107,53,0)" stroke-width="0.1"/>
  <path d="M 8.22153400000002,75.9 L 8.72153400000002,75.9" fill="none" stroke="rgb(107,53,0)" stroke-width="0.1"/>
  <path d="M 8.72153400000002,75.9 L 8.72153400000002,76.69999999999999" fill="none" stroke="rgb(107,53,0)" stroke-width="0.1"/>
  <path d="M 8.72153400000002,76.69999999999999 L 8.22153400000002,76.69999999999999" fill="none" stroke="rgb(107,53,0)" stroke-width="0.1"/>
  <path d="M 8.22153400000002,76.69999999999999 L 8.22153400000002,75.9" fill="none" stroke="rgb(107,53,0)" stroke-width="0.1"/>
  <path d="M 29.421534000000065,75.9 L 28.921534000000065,75.9" fill="none" stroke="rgb(107,53,0)" stroke-width="0.1"/>
  <path d="M 28.921534000000065,75.9 L 28.921534000000065,76.69999999999999" fill="none" stroke="rgb(107,53,0)" stroke-width="0.1"/>
  <path d="M 28.921534000000065,76.69999999999999 L 29.421534000000065,76.69999999999999" fill="none" stroke="rgb(107,53,0)" stroke-width="0.1"/>
  <path d="M 29.421534000000065,76.69999999999999 L 29.421534000000065,75.9" fill="none" stroke="rgb(107,53,0)" stroke-width="0.1"/>
  <path d="M 28.22153400000002,75.9 L 27.72153400000002,75.9" fill="none" stroke="rgb(107,53,0)" stroke-width="0.1"/>
  <path d="M 27.72153400000002,75.9 L 27.72153400000002,76.69999999999999" fill="none" stroke="rgb(107,53,0)" stroke-width="0.1"/>
  <path d="M 27.72153400000002,76.69999999999999 L 28.22153400000002,76.69999999999999" fill="none" stroke="rgb(107,53,0)" stroke-width="0.1"/>
  <path d="M 28.22153400000002,76.69999999999999 L 28.22153400000002,75.9" fill="none" stroke="rgb(107,53,0)" stroke-width="0.1"/>
  <path d="M 36.22153400000002,79.9 L 36.72153400000002,80.29999999999998" fill="none" stroke="rgb(107,53,0)" stroke-width="0.1"/>
  <path d="M 36.72153400000002,80.29999999999998 L 37.22153400000002,79.9" fill="none" stroke="rgb(107,53,0)" stroke-width="0.1"/>
  <path d="M 0.0,80.2772272 L 0.47153400000001966,79.9" fill="none" stroke="rgb(107,53,0)" stroke-width="0.1"/>
 </g>
 <g id="layerA-标注-标高" inkscape:groupmode="layer" inkscape:label="A-标注-标高">
  <path d="M 13.431534000000056,59.275000000000006 L 10.431534000000056,56.275000000000006" fill="none" stroke="rgb(0,178,0)" stroke-width="0.1"/>
  <path d="M 13.431534000000056,59.275000000000006 L 16.431534000000056,56.275000000000006" fill="none" stroke="rgb(0,178,0)" stroke-width="0.1"/>
  <path d="M 10.431534000000056,56.275000000000006 L 26.081534000000033,56.275000000000006" fill="none" stroke="rgb(0,178,0)" stroke-width="0.1"/>
  <path d="M 0.0,87.08253399999998 L 0.833533999999986,86.249" fill="none" stroke="rgb(0,178,0)" stroke-width="0.1"/>
  <path d="M 0.0,86.249 L 10.483534000000077,86.249" fill="none" stroke="rgb(0,178,0)" stroke-width="0.1"/>
 </g>
 <g id="layerA-标注-箭头" inkscape:groupmode="layer" inkscape:label="A-标注-箭头">
  <path d="M 18.78753400000005,94.38 L 18.78753400000005,97.78399999999999" fill="none" stroke="rgb(0,178,0)" stroke-width="0.1"/>
  <path d="M 18.78753400000005,97.78399999999999 L 18.78753400000005,100.0" fill="none" stroke="rgb(0,178,0)" stroke-width="0.1"/>
 </g>
 <g id="layerA-标注-细部尺寸" inkscape:groupmode="layer" inkscape:label="A-标注-细部尺寸">
  <path d="M 36.72153400000002,0.9000000000000057 L 28.601534000000015,0.9000000000000057" fill="none" stroke="rgb(0,178,0)" stroke-width="0.1"/>
  <path d="M 30.601534000000015,0.9000000000000057 L 30.601534000000015,0.0" fill="none" stroke="rgb(0,178,0)" stroke-width="0.1"/>
  <path d="M 98.842534,22.400000000000006 L 100.0,22.400000000000006" fill="none" stroke="rgb(0,178,0)" stroke-width="0.1"/>
  <path d="M 98.842534,0.9000000000000057 L 100.0,0.9000000000000057" fill="none" stroke="rgb(0,178,0)" stroke-width="0.1"/>
  <path d="M 98.842534,0.9000000000000057 L 100.0,0.9000000000000057" fill="none" stroke="rgb(0,178,0)" stroke-width="0.1"/>
  <path d="M 78.97153400000002,24.400000000000006 L 78.97153400000002,31.573999999999984" fill="none" stroke="rgb(0,178,0)" stroke-width="0.1"/>
  <path d="M 81.722534,24.400000000000006 L 81.722534,31.573999999999984" fill="none" stroke="rgb(0,178,0)" stroke-width="0.1"/>
  <path d="M 78.97153400000002,29.573999999999984 L 81.722534,29.573999999999984" fill="none" stroke="rgb(0,178,0)" stroke-width="0.1"/>
  <path d="M 58.47153400000002,24.400000000000006 L 58.47153400000002,31.573999999999984" fill="none" stroke="rgb(0,178,0)" stroke-width="0.1"/>
  <path d="M 78.97153400000002,24.400000000000006 L 78.97153400000002,31.573999999999984" fill="none" stroke="rgb(0,178,0)" stroke-width="0.1"/>
  <path d="M 58.47153400000002,29.573999999999984 L 78.97153400000002,29.573999999999984" fill="none" stroke="rgb(0,178,0)" stroke-width="0.1"/>
  <path d="M 38.72153400000002,24.400000000000006 L 38.72153400000002,31.573999999999984" fill="none" stroke="rgb(0,178,0)" stroke-width="0.1"/>
  <path d="M 58.47153400000002,24.400000000000006 L 58.47153400000002,31.573999999999984" fill="none" stroke="rgb(0,178,0)" stroke-width="0.1"/>
  <path d="M 38.72153400000002,29.573999999999984 L 58.47153400000002,29.573999999999984" fill="none" stroke="rgb(0,178,0)" stroke-width="0.1"/>
  <text fill="rgb(0,178,0)" font-family="Noto Sans CJK SC" font-size="2" transform="rotate(-0.0,82.462534,28.34899999999999)" x="82.462534" y="28.34899999999999">
   275
  </text>
  <text fill="rgb(0,178,0)" font-family="Noto Sans CJK SC" font-size="2" transform="rotate(-0.0,65.29253400000005,28.573999999999984)" x="65.29253400000005" y="28.573999999999984">
   2050
  </text>
  <text fill="rgb(0,178,0)" font-family="Noto Sans CJK SC" font-size="2" transform="rotate(-0.0,45.039534,28.573999999999984)" x="45.039534" y="28.573999999999984">
   1975
  </text>
 </g>
 <g id="layerA-楼电梯-楼梯台阶" inkscape:groupmode="layer" inkscape:label="A-楼电梯-楼梯台阶">
  <path d="M 0.0,98.9 L 100.0,98.9" fill="none" instance-id="-1" semantic-id="1" stroke="rgb(178,178,0)" stroke-width="0.1"/>
 </g>
 <g id="layerA-楼电梯-电梯" inkscape:groupmode="layer" inkscape:label="A-楼电梯-电梯">
  <path d="M 73.84653400000002,20.650000000000006 L 73.84653400000002,18.900000000000006" fill="none" instance-id="1" semantic-id="31" stroke="rgb(178,178,0)" stroke-width="0.1"/>
  <path d="M 73.84653400000002,18.900000000000006 L 63.59653400000002,18.900000000000006" fill="none" instance-id="1" semantic-id="31" stroke="rgb(178,178,0)" stroke-width="0.1"/>
  <path d="M 63.59653400000002,18.900000000000006 L 63.59653400000002,20.650000000000006" fill="none" instance-id="1" semantic-id="31" stroke="rgb(178,178,0)" stroke-width="0.1"/>
  <path d="M 63.59653400000002,20.650000000000006 L 73.84653400000002,20.650000000000006" fill="none" instance-id="1" semantic-id="31" stroke="rgb(178,178,0)" stroke-width="0.1"/>
  <path d="M 76.72153400000002,17.650000000000006 L 76.72153400000002,3.6500000000000057" fill="none" instance-id="1" semantic-id="31" stroke="rgb(178,178,0)" stroke-width="0.1"/>
  <path d="M 76.72153400000002,3.6500000000000057 L 60.72153400000002,3.6500000000000057" fill="none" instance-id="1" semantic-id="31" stroke="rgb(178,178,0)" stroke-width="0.1"/>
  <path d="M 60.72153400000002,3.6500000000000057 L 60.72153400000002,17.650000000000006" fill="none" instance-id="1" semantic-id="31" stroke="rgb(178,178,0)" stroke-width="0.1"/>
  <path d="M 60.72153400000002,17.650000000000006 L 76.72153400000002,17.650000000000006" fill="none" instance-id="1" semantic-id="31" stroke="rgb(178,178,0)" stroke-width="0.1"/>
  <path d="M 76.72153400000002,17.650000000000006 L 60.72153400000002,3.6500000000000057" fill="none" instance-id="1" semantic-id="31" stroke="rgb(178,178,0)" stroke-width="0.1"/>
  <path d="M 76.72153400000002,3.6500000000000057 L 60.72153400000002,17.650000000000006" fill="none" instance-id="1" semantic-id="31" stroke="rgb(178,178,0)" stroke-width="0.1"/>
  <path d="M 62.85453400000006,2.4899999999999807 L 68.35453400000006,2.4899999999999807" fill="none" instance-id="2" semantic-id="5" stroke="rgb(178,178,0)" stroke-width="0.1"/>
  <path d="M 62.85453400000006,2.281000000000006 L 68.35453400000006,2.281000000000006" fill="none" instance-id="2" semantic-id="5" stroke="rgb(178,178,0)" stroke-width="0.1"/>
  <path d="M 74.587534,2.4899999999999807 L 74.587534,2.281000000000006" fill="none" instance-id="2" semantic-id="5" stroke="rgb(178,178,0)" stroke-width="0.1"/>
  <path d="M 62.85453400000006,2.4899999999999807 L 62.85453400000006,2.281000000000006" fill="none" instance-id="2" semantic-id="5" stroke="rgb(178,178,0)" stroke-width="0.1"/>
  <path d="M 69.087534,2.4899999999999807 L 69.087534,2.281000000000006" fill="none" instance-id="2" semantic-id="5" stroke="rgb(178,178,0)" stroke-width="0.1"/>
  <path d="M 69.087534,2.281000000000006 L 74.587534,2.281000000000006" fill="none" instance-id="2" semantic-id="5" stroke="rgb(178,178,0)" stroke-width="0.1"/>
  <path d="M 69.087534,2.4899999999999807 L 74.587534,2.4899999999999807" fill="none" instance-id="2" semantic-id="5" stroke="rgb(178,178,0)" stroke-width="0.1"/>
  <path d="M 68.35453400000006,2.4899999999999807 L 68.35453400000006,2.281000000000006" fill="none" instance-id="2" semantic-id="5" stroke="rgb(178,178,0)" stroke-width="0.1"/>
  <path d="M 63.22153400000002,1.9000000000000057 L 74.22153400000002,1.9000000000000057" fill="none" instance-id="2" semantic-id="5" stroke="rgb(178,178,0)" stroke-width="0.1"/>
  <path d="M 75.18653400000005,9.617999999999995 A 0.18483844297116325,0.18483844297116325 0.0 1,0 75.53653400000007,9.498999999999995" fill="none" instance-id="1" semantic-id="31" stroke="rgb(178,178,0)" stroke-width="0.1"/>
  <path d="M 75.18653400000005,9.617999999999995 L 74.837534,8.593999999999994" fill="none" instance-id="1" semantic-id="31" stroke="rgb(178,178,0)" stroke-width="0.1"/>
  <path d="M 74.837534,8.593999999999994 L 73.53653400000007,8.593999999999994" fill="none" instance-id="1" semantic-id="31" stroke="rgb(178,178,0)" stroke-width="0.1"/>
  <path d="M 73.34053400000005,8.421999999999997 A 0.198,0.198 0.0 0,0 73.53653400000007,8.593999999999994" fill="none" instance-id="1" semantic-id="31" stroke="rgb(178,178,0)" stroke-width="0.1"/>
  <path d="M 73.34053400000005,8.421999999999997 L 73.17253400000004,7.167000000000002" fill="none" instance-id="1" semantic-id="31" stroke="rgb(178,178,0)" stroke-width="0.1"/>
  <path d="M 73.82153400000004,7.080999999999989 A 0.3273366004589172,0.3273366004589172 0.0 1,0 73.17253400000004,7.167000000000002" fill="none" instance-id="1" semantic-id="31" stroke="rgb(178,178,0)" stroke-width="0.1"/>
  <path d="M 73.82153400000004,7.080999999999989 L 73.87453400000004,7.481999999999999" fill="none" instance-id="1" semantic-id="31" stroke="rgb(178,178,0)" stroke-width="0.1"/>
  <path d="M 73.87453400000004,7.481999999999999 L 74.47453400000006,7.481999999999999" fill="none" instance-id="1" semantic-id="31" stroke="rgb(178,178,0)" stroke-width="0.1"/>
  <path d="M 74.47453400000006,7.811999999999983 A 0.165,0.165 0.0 1,0 74.47453400000006,7.481999999999999" fill="none" instance-id="1" semantic-id="31" stroke="rgb(178,178,0)" stroke-width="0.1"/>
  <path d="M 74.47453400000006,7.811999999999983 L 73.91853400000002,7.811999999999983" fill="none" instance-id="1" semantic-id="31" stroke="rgb(178,178,0)" stroke-width="0.1"/>
  <path d="M 73.91853400000002,7.811999999999983 L 73.96153400000003,8.132000000000005" fill="none" instance-id="1" semantic-id="31" stroke="rgb(178,178,0)" stroke-width="0.1"/>
  <path d="M 73.96153400000003,8.132000000000005 L 74.92853400000001,8.132000000000005" fill="none" instance-id="1" semantic-id="31" stroke="rgb(178,178,0)" stroke-width="0.1"/>
  <path d="M 75.11553400000003,8.265999999999991 A 0.198,0.198 0.0 0,0 74.92853400000001,8.132000000000005" fill="none" instance-id="1" semantic-id="31" stroke="rgb(178,178,0)" stroke-width="0.1"/>
  <path d="M 75.11553400000003,8.265999999999991 L 75.53653400000007,9.498999999999995" fill="none" instance-id="1" semantic-id="31" stroke="rgb(178,178,0)" stroke-width="0.1"/>
  <path d="M 73.08053400000006,7.628999999999991 A 1.19645,1.19645 0.0 1,0 74.75553400000001,8.687999999999988" fill="none" instance-id="1" semantic-id="31" stroke="rgb(178,178,0)" stroke-width="0.1"/>
  <path d="M 74.75553400000001,8.687999999999988 L 74.50453400000004,8.687999999999988" fill="none" instance-id="1" semantic-id="31" stroke="rgb(178,178,0)" stroke-width="0.1"/>
  <path d="M 73.11553400000003,7.889999999999986 A 0.945648,0.945648 0.0 1,0 74.50453400000004,8.687999999999988" fill="none" instance-id="1" semantic-id="31" stroke="rgb(178,178,0)" stroke-width="0.1"/>
  <path d="M 73.11553400000003,7.889999999999986 L 73.08053400000006,7.628999999999991" fill="none" instance-id="1" semantic-id="31" stroke="rgb(178,178,0)" stroke-width="0.1"/>
  <path d="M 75.53653400000007,9.498999999999995 A 0.18483844297116325,0.18483844297116325 0.0 1,0 75.18653400000005,9.617999999999995" fill="none" instance-id="1" semantic-id="31" stroke="rgb(178,178,0)" stroke-width="0.1"/>
  <path d="M 75.18653400000005,9.617999999999995 L 74.837534,8.593999999999994" fill="none" instance-id="1" semantic-id="31" stroke="rgb(178,178,0)" stroke-width="0.1"/>
  <path d="M 74.837534,8.593999999999994 L 73.53653400000007,8.593999999999994" fill="none" instance-id="1" semantic-id="31" stroke="rgb(178,178,0)" stroke-width="0.1"/>
  <path d="M 73.73253399999999,8.369 A 0.198,0.198 0.0 0,0 73.53653400000007,8.198000000000008" fill="none" instance-id="1" semantic-id="31" stroke="rgb(178,178,0)" stroke-width="0.1"/>
  <path d="M 73.34053400000005,8.421999999999997 L 73.17253400000004,7.167000000000002" fill="none" instance-id="1" semantic-id="31" stroke="rgb(178,178,0)" stroke-width="0.1"/>
  <path d="M 73.17253400000004,7.167000000000002 A 0.3273366004589172,0.3273366004589172 0.0 1,0 73.82153400000004,7.080999999999989" fill="none" instance-id="1" semantic-id="31" stroke="rgb(178,178,0)" stroke-width="0.1"/>
  <path d="M 73.82153400000004,7.080999999999989 L 73.87453400000004,7.481999999999999" fill="none" instance-id="1" semantic-id="31" stroke="rgb(178,178,0)" stroke-width="0.1"/>
  <path d="M 73.87453400000004,7.481999999999999 L 74.47453400000006,7.481999999999999" fill="none" instance-id="1" semantic-id="31" stroke="rgb(178,178,0)" stroke-width="0.1"/>
  <path d="M 74.47453400000006,7.481999999999999 A 0.165,0.165 0.0 1,0 74.47453400000006,7.811999999999983" fill="none" instance-id="1" semantic-id="31" stroke="rgb(178,178,0)" stroke-width="0.1"/>
  <path d="M 74.47453400000006,7.811999999999983 L 73.91853400000002,7.811999999999983" fill="none" instance-id="1" semantic-id="31" stroke="rgb(178,178,0)" stroke-width="0.1"/>
  <path d="M 73.91853400000002,7.811999999999983 L 73.96153400000003,8.132000000000005" fill="none" instance-id="1" semantic-id="31" stroke="rgb(178,178,0)" stroke-width="0.1"/>
  <path d="M 73.96153400000003,8.132000000000005 L 74.92853400000001,8.132000000000005" fill="none" instance-id="1" semantic-id="31" stroke="rgb(178,178,0)" stroke-width="0.1"/>
  <path d="M 74.74053400000003,8.394000000000005 A 0.198,0.198 0.0 0,0 74.92853400000001,8.527999999999992" fill="none" instance-id="1" semantic-id="31" stroke="rgb(178,178,0)" stroke-width="0.1"/>
  <path d="M 75.11553400000003,8.265999999999991 L 75.53653400000007,9.498999999999995" fill="none" instance-id="1" semantic-id="31" stroke="rgb(178,178,0)" stroke-width="0.1"/>
  <path d="M 74.039534,9.820999999999998 A 1.19645,1.19645 0.0 1,0 72.36453400000005,8.762" fill="none" instance-id="1" semantic-id="31" stroke="rgb(178,178,0)" stroke-width="0.1"/>
  <path d="M 74.75553400000001,8.687999999999988 L 74.50453400000004,8.687999999999988" fill="none" instance-id="1" semantic-id="31" stroke="rgb(178,178,0)" stroke-width="0.1"/>
  <path d="M 74.00453400000004,9.558999999999997 A 0.945648,0.945648 0.0 1,0 72.61553400000003,8.762" fill="none" instance-id="1" semantic-id="31" stroke="rgb(178,178,0)" stroke-width="0.1"/>
  <path d="M 73.11553400000003,7.889999999999986 L 73.08053400000006,7.628999999999991" fill="none" instance-id="1" semantic-id="31" stroke="rgb(178,178,0)" stroke-width="0.1"/>
  <path d="M 71.150534,3.6500000000000057 L 76.72153400000002,3.6500000000000057" fill="none" instance-id="1" semantic-id="31" stroke="rgb(178,178,0)" stroke-width="0.1"/>
  <path d="M 76.72153400000002,3.6500000000000057 L 76.72153400000002,12.221000000000004" fill="none" instance-id="1" semantic-id="31" stroke="rgb(178,178,0)" stroke-width="0.1"/>
  <path d="M 76.72153400000002,12.221000000000004 L 71.150534,12.221000000000004" fill="none" instance-id="1" semantic-id="31" stroke="rgb(178,178,0)" stroke-width="0.1"/>
  <path d="M 71.150534,12.221000000000004 L 71.150534,3.6500000000000057" fill="none" instance-id="1" semantic-id="31" stroke="rgb(178,178,0)" stroke-width="0.1"/>
  <path d="M 71.592534,5.430999999999983 L 76.27953400000001,5.430999999999983" fill="none" instance-id="1" semantic-id="31" stroke="rgb(178,178,0)" stroke-width="0.1"/>
  <path d="M 76.27953400000001,5.430999999999983 L 76.27953400000001,10.451999999999998" fill="none" instance-id="1" semantic-id="31" stroke="rgb(178,178,0)" stroke-width="0.1"/>
  <path d="M 76.27953400000001,10.451999999999998 L 71.592534,10.451999999999998" fill="none" instance-id="1" semantic-id="31" stroke="rgb(178,178,0)" stroke-width="0.1"/>
  <path d="M 71.592534,10.451999999999998 L 71.592534,5.430999999999983" fill="none" instance-id="1" semantic-id="31" stroke="rgb(178,178,0)" stroke-width="0.1"/>
  <path d="M 73.698534,4.489999999999981 L 73.698534,5.182999999999993" fill="none" instance-id="1" semantic-id="31" stroke="rgb(178,178,0)" stroke-width="0.1"/>
  <path d="M 73.698534,5.182999999999993 L 74.05853400000001,5.182999999999993" fill="none" instance-id="1" semantic-id="31" stroke="rgb(178,178,0)" stroke-width="0.1"/>
  <path d="M 74.05853400000001,5.182999999999993 L 74.05853400000001,4.489999999999981" fill="none" instance-id="1" semantic-id="31" stroke="rgb(178,178,0)" stroke-width="0.1"/>
  <path d="M 74.05853400000001,4.489999999999981 L 74.34853399999997,4.72999999999999" fill="none" instance-id="1" semantic-id="31" stroke="rgb(178,178,0)" stroke-width="0.1"/>
  <path d="M 74.34853399999997,4.72999999999999 L 74.34853399999997,4.298000000000002" fill="none" instance-id="1" semantic-id="31" stroke="rgb(178,178,0)" stroke-width="0.1"/>
  <path d="M 74.34853399999997,4.298000000000002 L 73.87853400000006,3.876999999999981" fill="none" instance-id="1" semantic-id="31" stroke="rgb(178,178,0)" stroke-width="0.1"/>
  <path d="M 73.87853400000006,3.876999999999981 L 73.40753400000006,4.298000000000002" fill="none" instance-id="1" semantic-id="31" stroke="rgb(178,178,0)" stroke-width="0.1"/>
  <path d="M 73.40753400000006,4.298000000000002 L 73.40753400000006,4.72999999999999" fill="none" instance-id="1" semantic-id="31" stroke="rgb(178,178,0)" stroke-width="0.1"/>
  <path d="M 73.40753400000006,4.72999999999999 L 73.698534,4.489999999999981" fill="none" instance-id="1" semantic-id="31" stroke="rgb(178,178,0)" stroke-width="0.1"/>
  <path d="M 73.698534,11.393 L 73.698534,10.699999999999989" fill="none" instance-id="1" semantic-id="31" stroke="rgb(178,178,0)" stroke-width="0.1"/>
  <path d="M 73.698534,10.699999999999989 L 74.05853400000001,10.699999999999989" fill="none" instance-id="1" semantic-id="31" stroke="rgb(178,178,0)" stroke-width="0.1"/>
  <path d="M 74.05853400000001,10.699999999999989 L 74.05853400000001,11.393" fill="none" instance-id="1" semantic-id="31" stroke="rgb(178,178,0)" stroke-width="0.1"/>
  <path d="M 74.05853400000001,11.393 L 74.34853399999997,11.153999999999996" fill="none" instance-id="1" semantic-id="31" stroke="rgb(178,178,0)" stroke-width="0.1"/>
  <path d="M 74.34853399999997,11.153999999999996 L 74.34853399999997,11.585000000000008" fill="none" instance-id="1" semantic-id="31" stroke="rgb(178,178,0)" stroke-width="0.1"/>
  <path d="M 74.34853399999997,11.585000000000008 L 73.87853400000006,12.006" fill="none" instance-id="1" semantic-id="31" stroke="rgb(178,178,0)" stroke-width="0.1"/>
  <path d="M 73.87853400000006,12.006 L 73.40753400000006,11.585000000000008" fill="none" instance-id="1" semantic-id="31" stroke="rgb(178,178,0)" stroke-width="0.1"/>
  <path d="M 73.40753400000006,11.585000000000008 L 73.40753400000006,11.153999999999996" fill="none" instance-id="1" semantic-id="31" stroke="rgb(178,178,0)" stroke-width="0.1"/>
  <path d="M 73.40753400000006,11.153999999999996 L 73.698534,11.393" fill="none" instance-id="1" semantic-id="31" stroke="rgb(178,178,0)" stroke-width="0.1"/>
  <path d="M 73.698534,5.182999999999993 L 74.05853400000001,5.182999999999993" fill="none" instance-id="1" semantic-id="31" stroke="rgb(178,178,0)" stroke-width="0.1"/>
  <path d="M 74.05853400000001,5.182999999999993 L 74.05853400000001,4.489999999999981" fill="none" instance-id="1" semantic-id="31" stroke="rgb(178,178,0)" stroke-width="0.1"/>
  <path d="M 74.05853400000001,4.489999999999981 L 74.34853399999997,4.72999999999999" fill="none" instance-id="1" semantic-id="31" stroke="rgb(178,178,0)" stroke-width="0.1"/>
  <path d="M 74.34853399999997,4.72999999999999 L 74.34853399999997,4.298000000000002" fill="none" instance-id="1" semantic-id="31" stroke="rgb(178,178,0)" stroke-width="0.1"/>
  <path d="M 74.34853399999997,4.298000000000002 L 73.87853400000006,3.876999999999981" fill="none" instance-id="1" semantic-id="31" stroke="rgb(178,178,0)" stroke-width="0.1"/>
  <path d="M 73.87853400000006,3.876999999999981 L 73.40753400000006,4.298000000000002" fill="none" instance-id="1" semantic-id="31" stroke="rgb(178,178,0)" stroke-width="0.1"/>
  <path d="M 73.40753400000006,4.298000000000002 L 73.40753400000006,4.72999999999999" fill="none" instance-id="1" semantic-id="31" stroke="rgb(178,178,0)" stroke-width="0.1"/>
  <path d="M 73.40753400000006,4.72999999999999 L 73.698534,4.489999999999981" fill="none" instance-id="1" semantic-id="31" stroke="rgb(178,178,0)" stroke-width="0.1"/>
  <path d="M 73.698534,4.489999999999981 L 73.698534,5.182999999999993" fill="none" instance-id="1" semantic-id="31" stroke="rgb(178,178,0)" stroke-width="0.1"/>
  <path d="M 73.40753400000006,11.153999999999996 L 73.40753400000006,11.585000000000008" fill="none" instance-id="1" semantic-id="31" stroke="rgb(178,178,0)" stroke-width="0.1"/>
  <path d="M 73.40753400000006,11.585000000000008 L 73.87853400000006,12.006" fill="none" instance-id="1" semantic-id="31" stroke="rgb(178,178,0)" stroke-width="0.1"/>
  <path d="M 73.87853400000006,12.006 L 74.34853399999997,11.585000000000008" fill="none" instance-id="1" semantic-id="31" stroke="rgb(178,178,0)" stroke-width="0.1"/>
  <path d="M 74.34853399999997,11.585000000000008 L 74.34853399999997,11.153999999999996" fill="none" instance-id="1" semantic-id="31" stroke="rgb(178,178,0)" stroke-width="0.1"/>
  <path d="M 74.34853399999997,11.153999999999996 L 74.05853400000001,11.393" fill="none" instance-id="1" semantic-id="31" stroke="rgb(178,178,0)" stroke-width="0.1"/>
  <path d="M 74.05853400000001,11.393 L 74.05853400000001,10.699999999999989" fill="none" instance-id="1" semantic-id="31" stroke="rgb(178,178,0)" stroke-width="0.1"/>
  <path d="M 74.05853400000001,10.699999999999989 L 73.698534,10.699999999999989" fill="none" instance-id="1" semantic-id="31" stroke="rgb(178,178,0)" stroke-width="0.1"/>
  <path d="M 73.698534,10.699999999999989 L 73.698534,11.393" fill="none" instance-id="1" semantic-id="31" stroke="rgb(178,178,0)" stroke-width="0.1"/>
  <path d="M 73.698534,11.393 L 73.40753400000006,11.153999999999996" fill="none" instance-id="1" semantic-id="31" stroke="rgb(178,178,0)" stroke-width="0.1"/>
  <circle cx="73.55453399999999" cy="6.451999999999998" fill="none" instance-id="1" r="0.318364" semantic-id="31" stroke="rgb(178,178,0)" stroke-width="0.1"/>
  <circle cx="75.212534" cy="6.216000000000008" fill="none" instance-id="1" r="0.222818" semantic-id="31" stroke="rgb(178,178,0)" stroke-width="0.1"/>
  <circle cx="75.212534" cy="6.924000000000007" fill="none" instance-id="1" r="0.222818" semantic-id="31" stroke="rgb(178,178,0)" stroke-width="0.1"/>
  <circle cx="75.212534" cy="7.632000000000005" fill="none" instance-id="1" r="0.222818" semantic-id="31" stroke="rgb(178,178,0)" stroke-width="0.1"/>
 </g>
 <g id="layerA-结构-柱子" inkscape:groupmode="layer" inkscape:label="A-结构-柱子">
  <path d="M 95.722534,0.0 L 95.722534,2.9000000000000057" fill="none" instance-id="-1" semantic-id="1" stroke="rgb(0,178,0)" stroke-width="0.1"/>
  <path d="M 95.722534,2.9000000000000057 L 99.722534,2.9000000000000057" fill="none" instance-id="-1" semantic-id="1" stroke="rgb(0,178,0)" stroke-width="0.1"/>
  <path d="M 99.722534,2.9000000000000057 L 99.722534,0.0" fill="none" instance-id="-1" semantic-id="1" stroke="rgb(0,178,0)" stroke-width="0.1"/>
  <path d="M 37.72153400000002,0.0 L 37.72153400000002,2.9000000000000057" fill="none" instance-id="-1" semantic-id="1" stroke="rgb(0,178,0)" stroke-width="0.1"/>
  <path d="M 37.72153400000002,2.9000000000000057 L 41.72153400000002,2.9000000000000057" fill="none" instance-id="-1" semantic-id="1" stroke="rgb(0,178,0)" stroke-width="0.1"/>
  <path d="M 41.72153400000002,2.9000000000000057 L 41.72153400000002,0.0" fill="none" instance-id="-1" semantic-id="1" stroke="rgb(0,178,0)" stroke-width="0.1"/>
  <path d="M 59.47153400000002,21.400000000000006 L 59.47153400000002,18.400000000000006" fill="none" instance-id="-1" semantic-id="1" stroke="rgb(0,178,0)" stroke-width="0.1"/>
  <path d="M 59.47153400000002,18.400000000000006 L 57.47153400000002,18.400000000000006" fill="none" instance-id="-1" semantic-id="1" stroke="rgb(0,178,0)" stroke-width="0.1"/>
  <path d="M 57.47153400000002,18.400000000000006 L 57.47153400000002,23.400000000000006" fill="none" instance-id="-1" semantic-id="1" stroke="rgb(0,178,0)" stroke-width="0.1"/>
  <path d="M 57.47153400000002,23.400000000000006 L 67.72153400000002,23.400000000000006" fill="none" instance-id="-1" semantic-id="1" stroke="rgb(0,178,0)" stroke-width="0.1"/>
  <path d="M 67.72153400000002,23.400000000000006 L 67.72153400000002,24.400000000000006" fill="none" instance-id="-1" semantic-id="1" stroke="rgb(0,178,0)" stroke-width="0.1"/>
  <path d="M 67.72153400000002,24.400000000000006 L 69.72153400000002,24.400000000000006" fill="none" instance-id="-1" semantic-id="1" stroke="rgb(0,178,0)" stroke-width="0.1"/>
  <path d="M 69.72153400000002,24.400000000000006 L 69.72153400000002,23.400000000000006" fill="none" instance-id="-1" semantic-id="1" stroke="rgb(0,178,0)" stroke-width="0.1"/>
  <path d="M 69.72153400000002,23.400000000000006 L 79.97153400000002,23.400000000000006" fill="none" instance-id="-1" semantic-id="1" stroke="rgb(0,178,0)" stroke-width="0.1"/>
  <path d="M 79.97153400000002,23.400000000000006 L 79.97153400000002,18.400000000000006" fill="none" instance-id="-1" semantic-id="1" stroke="rgb(0,178,0)" stroke-width="0.1"/>
  <path d="M 79.97153400000002,18.400000000000006 L 77.97153400000002,18.400000000000006" fill="none" instance-id="-1" semantic-id="1" stroke="rgb(0,178,0)" stroke-width="0.1"/>
  <path d="M 77.97153400000002,18.400000000000006 L 77.97153400000002,21.400000000000006" fill="none" instance-id="-1" semantic-id="1" stroke="rgb(0,178,0)" stroke-width="0.1"/>
  <path d="M 77.97153400000002,21.400000000000006 L 59.47153400000002,21.400000000000006" fill="none" instance-id="-1" semantic-id="1" stroke="rgb(0,178,0)" stroke-width="0.1"/>
  <path d="M 0.7215340000000197,41.400000000000006 L 0.22153400000001966,41.400000000000006" fill="none" instance-id="-1" semantic-id="1" stroke="rgb(0,178,0)" stroke-width="0.1"/>
  <path d="M 0.22153400000001966,41.400000000000006 L 0.22153400000001966,44.900000000000006" fill="none" instance-id="-1" semantic-id="1" stroke="rgb(0,178,0)" stroke-width="0.1"/>
  <path d="M 0.22153400000001966,44.900000000000006 L 4.72153400000002,44.900000000000006" fill="none" instance-id="-1" semantic-id="1" stroke="rgb(0,178,0)" stroke-width="0.1"/>
  <path d="M 4.72153400000002,44.900000000000006 L 4.72153400000002,42.900000000000006" fill="none" instance-id="-1" semantic-id="1" stroke="rgb(0,178,0)" stroke-width="0.1"/>
  <path d="M 4.72153400000002,42.900000000000006 L 2.7215340000000197,42.900000000000006" fill="none" instance-id="-1" semantic-id="1" stroke="rgb(0,178,0)" stroke-width="0.1"/>
  <path d="M 2.7215340000000197,42.900000000000006 L 2.7215340000000197,28.400000000000006" fill="none" instance-id="-1" semantic-id="1" stroke="rgb(0,178,0)" stroke-width="0.1"/>
  <path d="M 2.7215340000000197,28.400000000000006 L 0.7215340000000197,28.400000000000006" fill="none" instance-id="-1" semantic-id="1" stroke="rgb(0,178,0)" stroke-width="0.1"/>
  <path d="M 0.7215340000000197,28.400000000000006 L 0.7215340000000197,41.400000000000006" fill="none" instance-id="-1" semantic-id="1" stroke="rgb(0,178,0)" stroke-width="0.1"/>
  <path d="M 39.72153400000002,52.400000000000006 L 39.72153400000002,37.900000000000006" fill="none" instance-id="-1" semantic-id="1" stroke="rgb(0,178,0)" stroke-width="0.1"/>
  <path d="M 39.72153400000002,37.900000000000006 L 37.72153400000002,37.900000000000006" fill="none" instance-id="-1" semantic-id="1" stroke="rgb(0,178,0)" stroke-width="0.1"/>
  <path d="M 37.72153400000002,37.900000000000006 L 37.72153400000002,42.900000000000006" fill="none" instance-id="-1" semantic-id="1" stroke="rgb(0,178,0)" stroke-width="0.1"/>
  <path d="M 37.72153400000002,42.900000000000006 L 35.72153400000002,42.900000000000006" fill="none" instance-id="-1" semantic-id="1" stroke="rgb(0,178,0)" stroke-width="0.1"/>
  <path d="M 35.72153400000002,42.900000000000006 L 35.72153400000002,44.900000000000006" fill="none" instance-id="-1" semantic-id="1" stroke="rgb(0,178,0)" stroke-width="0.1"/>
  <path d="M 35.72153400000002,44.900000000000006 L 37.72153400000002,44.900000000000006" fill="none" instance-id="-1" semantic-id="1" stroke="rgb(0,178,0)" stroke-width="0.1"/>
  <path d="M 37.72153400000002,44.900000000000006 L 37.72153400000002,54.400000000000006" fill="none" instance-id="-1" semantic-id="1" stroke="rgb(0,178,0)" stroke-width="0.1"/>
  <path d="M 37.72153400000002,54.400000000000006 L 40.22153400000002,54.400000000000006" fill="none" instance-id="-1" semantic-id="1" stroke="rgb(0,178,0)" stroke-width="0.1"/>
  <path d="M 40.22153400000002,54.400000000000006 L 40.22153400000002,52.400000000000006" fill="none" instance-id="-1" semantic-id="1" stroke="rgb(0,178,0)" stroke-width="0.1"/>
  <path d="M 40.22153400000002,52.400000000000006 L 39.72153400000002,52.400000000000006" fill="none" instance-id="-1" semantic-id="1" stroke="rgb(0,178,0)" stroke-width="0.1"/>
  <path d="M 97.722534,52.400000000000006 L 97.222534,52.400000000000006" fill="none" instance-id="-1" semantic-id="1" stroke="rgb(0,178,0)" stroke-width="0.1"/>
  <path d="M 97.222534,52.400000000000006 L 97.222534,54.400000000000006" fill="none" instance-id="-1" semantic-id="1" stroke="rgb(0,178,0)" stroke-width="0.1"/>
  <path d="M 97.222534,54.400000000000006 L 99.722534,54.400000000000006" fill="none" instance-id="-1" semantic-id="1" stroke="rgb(0,178,0)" stroke-width="0.1"/>
  <path d="M 99.722534,54.400000000000006 L 99.722534,44.900000000000006" fill="none" instance-id="-1" semantic-id="1" stroke="rgb(0,178,0)" stroke-width="0.1"/>
  <path d="M 99.722534,44.900000000000006 L 100.0,44.900000000000006" fill="none" instance-id="-1" semantic-id="1" stroke="rgb(0,178,0)" stroke-width="0.1"/>
  <path d="M 100.0,42.900000000000006 L 99.722534,42.900000000000006" fill="none" instance-id="-1" semantic-id="1" stroke="rgb(0,178,0)" stroke-width="0.1"/>
  <path d="M 99.722534,42.900000000000006 L 99.722534,37.900000000000006" fill="none" instance-id="-1" semantic-id="1" stroke="rgb(0,178,0)" stroke-width="0.1"/>
  <path d="M 99.722534,37.900000000000006 L 97.722534,37.900000000000006" fill="none" instance-id="-1" semantic-id="1" stroke="rgb(0,178,0)" stroke-width="0.1"/>
  <path d="M 97.722534,37.900000000000006 L 97.722534,52.400000000000006" fill="none" instance-id="-1" semantic-id="1" stroke="rgb(0,178,0)" stroke-width="0.1"/>
  <path d="M 100.0,71.9 L 96.722534,71.9" fill="none" instance-id="-1" semantic-id="1" stroke="rgb(0,178,0)" stroke-width="0.1"/>
  <path d="M 96.722534,71.9 L 96.722534,75.9" fill="none" instance-id="-1" semantic-id="1" stroke="rgb(0,178,0)" stroke-width="0.1"/>
  <path d="M 96.722534,75.9 L 100.0,75.9" fill="none" instance-id="-1" semantic-id="1" stroke="rgb(0,178,0)" stroke-width="0.1"/>
  <path d="M 40.72153400000002,71.9 L 36.72153400000002,71.9" fill="none" instance-id="-1" semantic-id="1" stroke="rgb(0,178,0)" stroke-width="0.1"/>
  <path d="M 36.72153400000002,71.9 L 36.72153400000002,75.9" fill="none" instance-id="-1" semantic-id="1" stroke="rgb(0,178,0)" stroke-width="0.1"/>
  <path d="M 36.72153400000002,75.9 L 40.72153400000002,75.9" fill="none" instance-id="-1" semantic-id="1" stroke="rgb(0,178,0)" stroke-width="0.1"/>
  <path d="M 40.72153400000002,75.9 L 40.72153400000002,71.9" fill="none" instance-id="-1" semantic-id="1" stroke="rgb(0,178,0)" stroke-width="0.1"/>
  <path d="M 3.7215340000000197,71.9 L 0.0,71.9" fill="none" instance-id="-1" semantic-id="1" stroke="rgb(0,178,0)" stroke-width="0.1"/>
  <path d="M 0.0,75.9 L 3.7215340000000197,75.9" fill="none" instance-id="-1" semantic-id="1" stroke="rgb(0,178,0)" stroke-width="0.1"/>
  <path d="M 3.7215340000000197,75.9 L 3.7215340000000197,71.9" fill="none" instance-id="-1" semantic-id="1" stroke="rgb(0,178,0)" stroke-width="0.1"/>
 </g>
 <g id="layerA-门窗" inkscape:groupmode="layer" inkscape:label="A-门窗">
  <path d="M 27.22153400000002,75.9 L 9.22153400000002,75.9" fill="none" instance-id="4" semantic-id="4" stroke="rgb(0,178,178)" stroke-width="0.1"/>
  <path d="M 77.72153400000002,75.9 L 59.72153400000002,75.9" fill="none" instance-id="7" semantic-id="4" stroke="rgb(0,178,178)" stroke-width="0.1"/>
  <path d="M 94.972534,73.9 L 94.972534,75.9" fill="none" instance-id="6" semantic-id="9" stroke="rgb(0,178,178)" stroke-width="0.1"/>
  <path d="M 77.72153400000002,75.9 L 77.72153400000002,73.9" fill="none" instance-id="6" semantic-id="9" stroke="rgb(0,178,178)" stroke-width="0.1"/>
  <path d="M 94.972534,75.233 L 77.72153400000002,75.233" fill="none" instance-id="6" semantic-id="9" stroke="rgb(0,178,178)" stroke-width="0.1"/>
  <path d="M 94.972534,74.56700000000001 L 77.72153400000002,74.56700000000001" fill="none" instance-id="6" semantic-id="9" stroke="rgb(0,178,178)" stroke-width="0.1"/>
  <path d="M 77.72153400000002,73.9 L 94.972534,73.9" fill="none" instance-id="6" semantic-id="9" stroke="rgb(0,178,178)" stroke-width="0.1"/>
  <path d="M 77.72153400000002,75.9 L 94.972534,75.9" fill="none" instance-id="6" semantic-id="9" stroke="rgb(0,178,178)" stroke-width="0.1"/>
  <path d="M 27.22153400000002,74.9 L 27.22153400000002,83.67499999999998" fill="none" stroke="rgb(0,178,178)" stroke-width="0.1"/>
  <path d="M 26.771533999999974,74.9 L 26.771533999999974,83.67499999999998" fill="none" instance-id="4" semantic-id="4" stroke="rgb(0,178,178)" stroke-width="0.1"/>
  <path d="M 27.22153400000002,74.9 L 26.771533999999974,74.9" fill="none" stroke="rgb(0,178,178)" stroke-width="0.1"/>
  <path d="M 26.771533999999974,83.67499999999998 L 27.22153400000002,83.67499999999998" fill="none" stroke="rgb(0,178,178)" stroke-width="0.1"/>
  <path d="M 9.671534000000065,74.9 L 9.671534000000065,83.67499999999998" fill="none" instance-id="4" semantic-id="4" stroke="rgb(0,178,178)" stroke-width="0.1"/>
  <path d="M 9.22153400000002,74.9 L 9.22153400000002,83.67499999999998" fill="none" instance-id="4" semantic-id="4" stroke="rgb(0,178,178)" stroke-width="0.1"/>
  <path d="M 9.671534000000065,83.67499999999998 L 9.22153400000002,83.67499999999998" fill="none" instance-id="4" semantic-id="4" stroke="rgb(0,178,178)" stroke-width="0.1"/>
  <path d="M 9.22153400000002,74.9 L 9.671534000000065,74.9" fill="none" instance-id="4" semantic-id="4" stroke="rgb(0,178,178)" stroke-width="0.1"/>
  <path d="M 59.72153400000002,74.9 L 59.72153400000002,83.67499999999998" fill="none" stroke="rgb(0,178,178)" stroke-width="0.1"/>
  <path d="M 60.171534000000065,74.9 L 60.171534000000065,83.67499999999998" fill="none" stroke="rgb(0,178,178)" stroke-width="0.1"/>
  <path d="M 59.72153400000002,74.9 L 60.171534000000065,74.9" fill="none" instance-id="5" semantic-id="9" stroke="rgb(0,178,178)" stroke-width="0.1"/>
  <path d="M 60.171534000000065,83.67499999999998 L 59.72153400000002,83.67499999999998" fill="none" stroke="rgb(0,178,178)" stroke-width="0.1"/>
  <path d="M 77.27153399999997,74.9 L 77.27153399999997,83.67499999999998" fill="none" stroke="rgb(0,178,178)" stroke-width="0.1"/>
  <path d="M 77.72153400000002,74.9 L 77.72153400000002,83.67499999999998" fill="none" stroke="rgb(0,178,178)" stroke-width="0.1"/>
  <path d="M 77.27153399999997,83.67499999999998 L 77.72153400000002,83.67499999999998" fill="none" stroke="rgb(0,178,178)" stroke-width="0.1"/>
  <path d="M 77.72153400000002,74.9 L 77.27153399999997,74.9" fill="none" stroke="rgb(0,178,178)" stroke-width="0.1"/>
  <path d="M 42.47153400000002,73.9 L 42.47153400000002,75.9" fill="none" instance-id="5" semantic-id="9" stroke="rgb(0,178,178)" stroke-width="0.1"/>
  <path d="M 59.72153400000002,75.9 L 59.72153400000002,73.9" fill="none" instance-id="5" semantic-id="9" stroke="rgb(0,178,178)" stroke-width="0.1"/>
  <path d="M 42.47153400000002,75.233 L 59.72153400000002,75.233" fill="none" instance-id="5" semantic-id="9" stroke="rgb(0,178,178)" stroke-width="0.1"/>
  <path d="M 42.47153400000002,74.56700000000001 L 59.72153400000002,74.56700000000001" fill="none" instance-id="5" semantic-id="9" stroke="rgb(0,178,178)" stroke-width="0.1"/>
  <path d="M 59.72153400000002,73.9 L 42.47153400000002,73.9" fill="none" instance-id="5" semantic-id="9" stroke="rgb(0,178,178)" stroke-width="0.1"/>
  <path d="M 59.72153400000002,75.9 L 42.47153400000002,75.9" fill="none" instance-id="5" semantic-id="9" stroke="rgb(0,178,178)" stroke-width="0.1"/>
  <path d="M 18.22153400000002,74.9 A 8.775,8.775 0.0 0,0 26.771533999999974,83.672" fill="none" instance-id="4" semantic-id="4" stroke="rgb(0,178,178)" stroke-width="0.1"/>
  <path d="M 9.671534000000065,83.672 A 8.775,8.775 0.0 0,0 18.22153400000002,74.9" fill="none" instance-id="4" semantic-id="4" stroke="rgb(0,178,178)" stroke-width="0.1"/>
  <path d="M 60.171534000000065,83.672 A 8.775,8.775 0.0 0,0 68.72153400000002,74.9" fill="none" instance-id="7" semantic-id="4" stroke="rgb(0,178,178)" stroke-width="0.1"/>
  <path d="M 68.72153400000002,74.9 A 8.775,8.775 0.0 0,0 77.27153399999997,83.672" fill="none" instance-id="7" semantic-id="4" stroke="rgb(0,178,178)" stroke-width="0.1"/>
 </g>
 <g id="layerA-门窗-编号" inkscape:groupmode="layer" inkscape:label="A-门窗-编号">
  <text fill="rgb(194,255,12)" font-family="Noto Sans CJK SC" font-size="2" transform="rotate(-0.0,70.28453400000001,71.911)" x="70.28453400000001" y="71.911">
   C5227a
  </text>
  <text fill="rgb(194,255,12)" font-family="Noto Sans CJK SC" font-size="2" transform="rotate(-0.0,13.194533999999976,71.911)" x="13.194533999999976" y="71.911">
   M1827a
  </text>
 </g>
 <g id="layerA-防火-疏散距离" inkscape:groupmode="layer" inkscape:label="A-防火-疏散距离">
  <path d="M 4.362019351472782,0.0 L 18.22153400000002,74.9" fill="none" stroke="rgb(178,178,0)" stroke-width="0.1"/>
 </g>
 <g id="layerG-轴线" inkscape:groupmode="layer" inkscape:label="G-轴线">
  <path d="M 0.0,59.900000000000006 L 100.0,59.900000000000006" fill="none" stroke="rgb(89,89,89)" stroke-width="0.1"/>
  <path d="M 0.0,74.9 L 100.0,74.9" fill="none" stroke="rgb(89,89,89)" stroke-width="0.1"/>
  <path d="M 100.0,48.900000000000006 L 0.0,48.900000000000006" fill="none" stroke="rgb(89,89,89)" stroke-width="0.1"/>
  <path d="M 0.0,42.400000000000006 L 1.7215340000000197,42.400000000000006" fill="none" stroke="rgb(89,89,89)" stroke-width="0.1"/>
  <path d="M 100.0,3.9000000000000057 L 0.0,3.9000000000000057" fill="none" stroke="rgb(89,89,89)" stroke-width="0.1"/>
  <path d="M 98.722534,100.0 L 98.722534,0.0" fill="none" stroke="rgb(89,89,89)" stroke-width="0.1"/>
  <path d="M 81.722534,0.9000000000000057 L 81.722534,0.0" fill="none" stroke="rgb(89,89,89)" stroke-width="0.1"/>
  <path d="M 75.72153400000002,59.900000000000006 L 75.72153400000002,53.400000000000006" fill="none" stroke="rgb(89,89,89)" stroke-width="0.1"/>
  <path d="M 1.7215340000000197,43.900000000000006 L 38.72153400000002,43.900000000000006" fill="none" stroke="rgb(89,89,89)" stroke-width="0.1"/>
  <path d="M 98.722534,43.900000000000006 L 100.0,43.900000000000006" fill="none" stroke="rgb(89,89,89)" stroke-width="0.1"/>
  <path d="M 1.7215340000000197,100.0 L 1.7215340000000197,0.0" fill="none" stroke="rgb(89,89,89)" stroke-width="0.1"/>
  <path d="M 38.72153400000002,100.0 L 38.72153400000002,0.0" fill="none" stroke="rgb(89,89,89)" stroke-width="0.1"/>
  <path d="M 68.72153400000002,100.0 L 68.72153400000002,22.400000000000006" fill="none" stroke="rgb(89,89,89)" stroke-width="0.1"/>
  <path d="M 55.72153400000002,0.9000000000000057 L 55.72153400000002,0.0" fill="none" stroke="rgb(89,89,89)" stroke-width="0.1"/>
  <path d="M 98.722534,0.9000000000000057 L 0.0,0.9000000000000057" fill="none" stroke="rgb(89,89,89)" stroke-width="0.1"/>
  <path d="M 58.47153400000002,22.400000000000006 L 58.47153400000002,0.9000000000000057" fill="none" stroke="rgb(89,89,89)" stroke-width="0.1"/>
  <path d="M 78.97153400000002,22.400000000000006 L 78.97153400000002,0.9000000000000057" fill="none" stroke="rgb(89,89,89)" stroke-width="0.1"/>
  <path d="M 0.0,22.400000000000006 L 98.722534,22.400000000000006" fill="none" stroke="rgb(89,89,89)" stroke-width="0.1"/>
  <path d="M 98.722534,53.400000000000006 L 38.72153400000002,53.400000000000006" fill="none" stroke="rgb(89,89,89)" stroke-width="0.1"/>
  <path d="M 61.72153400000002,59.900000000000006 L 61.72153400000002,53.400000000000006" fill="none" stroke="rgb(89,89,89)" stroke-width="0.1"/>
 </g>
 <g id="layerG-轴线-编号" inkscape:groupmode="layer" inkscape:label="G-轴线-编号">
  <path d="M 98.722534,22.400000000000006 L 100.0,22.400000000000006" fill="none" stroke="rgb(0,0,0)" stroke-width="0.1"/>
  <path d="M 98.722534,0.9000000000000057 L 100.0,0.9000000000000057" fill="none" stroke="rgb(0,0,0)" stroke-width="0.1"/>
  <path d="M 58.47153400000002,22.400000000000006 L 58.47153400000002,35.571" fill="none" stroke="rgb(0,0,0)" stroke-width="0.1"/>
  <path d="M 78.97153400000002,22.400000000000006 L 78.97153400000002,35.571" fill="none" stroke="rgb(0,0,0)" stroke-width="0.1"/>
  <circle cx="58.47153400000002" cy="39.571" fill="none" r="4" stroke="rgb(0,0,0)" stroke-width="0.1"/>
  <circle cx="78.97153400000002" cy="39.571" fill="none" r="4" stroke="rgb(0,0,0)" stroke-width="0.1"/>
 </g>
 <g id="layerG-轴网-轴号" inkscape:groupmode="layer" inkscape:label="G-轴网-轴号">
  <text fill="rgb(0,0,0)" font-family="Noto Sans CJK SC" font-size="2" transform="rotate(-0.0,56.208533999999986,41.834)" x="56.208533999999986" y="41.834">
   1/18
  </text>
  <text fill="rgb(0,0,0)" font-family="Noto Sans CJK SC" font-size="2" transform="rotate(-0.0,76.70853399999999,41.834)" x="76.70853399999999" y="41.834">
   1/19
  </text>
 </g>
 <g id="layernoprint" inkscape:groupmode="layer" inkscape:label="noprint">
  <path d="M 38.72153400000002,0.0 L 38.72153400000002,0.9000000000000057" fill="none" stroke="rgb(107,53,107)" stroke-width="0.1"/>
  <path d="M 38.72153400000002,0.9000000000000057 L 58.47153400000002,0.9000000000000057" fill="none" stroke="rgb(107,53,107)" stroke-width="0.1"/>
  <path d="M 58.47153400000002,0.9000000000000057 L 58.47153400000002,22.400000000000006" fill="none" stroke="rgb(107,53,107)" stroke-width="0.1"/>
  <path d="M 58.47153400000002,22.400000000000006 L 78.97153400000002,22.400000000000006" fill="none" stroke="rgb(107,53,107)" stroke-width="0.1"/>
  <path d="M 78.97153400000002,22.400000000000006 L 78.97153400000002,0.9000000000000057" fill="none" stroke="rgb(107,53,107)" stroke-width="0.1"/>
  <path d="M 78.97153400000002,0.9000000000000057 L 81.722534,0.9000000000000057" fill="none" stroke="rgb(107,53,107)" stroke-width="0.1"/>
  <path d="M 81.722534,0.9000000000000057 L 81.722534,0.0" fill="none" stroke="rgb(107,53,107)" stroke-width="0.1"/>
  <path d="M 100.0,75.9 L 2.7215340000000197,75.9" fill="none" stroke="rgb(107,53,107)" stroke-width="0.1"/>
  <path d="M 2.7215340000000197,75.9 L 2.7215340000000197,0.0" fill="none" stroke="rgb(107,53,107)" stroke-width="0.1"/>
 </g>
</svg>