<?xml version="1.0" encoding="utf-8"?>
<svg style="background-color: #000;" version="1.1" viewBox="0 0 100.0 100.0" xmlns="http://www.w3.org/2000/svg" xmlns:inkscape="http://www.inkscape.org/namespaces/inkscape">
 <g id="layer0-室内玻璃墙" inkscape:groupmode="layer" inkscape:label="0-室内玻璃墙">
  <path d="M 63.55299999999997,0.0 L 63.55299999999997,12.25003049999998" fill="none" instance-id="-1" semantic-id="2" stroke="rgb(0,178,0)" stroke-width="0.1"/>
  <path d="M 63.55299999999997,30.25003049999998 L 63.55299999999997,51.00003049999998" fill="none" instance-id="-1" semantic-id="2" stroke="rgb(0,178,0)" stroke-width="0.1"/>
  <path d="M 62.88699999999997,0.0 L 62.88699999999997,12.25003049999998" fill="none" instance-id="-1" semantic-id="2" stroke="rgb(0,178,0)" stroke-width="0.1"/>
  <path d="M 62.88699999999997,30.25003049999998 L 62.88699999999997,51.00003049999998" fill="none" instance-id="-1" semantic-id="2" stroke="rgb(0,178,0)" stroke-width="0.1"/>
  <path d="M 62.21999999999997,0.0 L 62.21999999999997,12.25003049999998" fill="none" instance-id="-1" semantic-id="2" stroke="rgb(0,178,0)" stroke-width="0.1"/>
  <path d="M 62.21999999999997,12.25003049999998 L 64.21999999999997,12.25003049999998" fill="none" instance-id="-1" semantic-id="2" stroke="rgb(0,178,0)" stroke-width="0.1"/>
  <path d="M 64.21999999999997,12.25003049999998 L 64.21999999999997,0.0" fill="none" instance-id="-1" semantic-id="2" stroke="rgb(0,178,0)" stroke-width="0.1"/>
  <path d="M 64.21999999999997,51.00003049999998 L 64.21999999999997,30.25003049999998" fill="none" instance-id="-1" semantic-id="2" stroke="rgb(0,178,0)" stroke-width="0.1"/>
  <path d="M 64.21999999999997,30.25003049999998 L 62.21999999999997,30.25003049999998" fill="none" instance-id="-1" semantic-id="2" stroke="rgb(0,178,0)" stroke-width="0.1"/>
  <path d="M 62.21999999999997,30.25003049999998 L 62.21999999999997,51.00003049999998" fill="none" instance-id="-1" semantic-id="2" stroke="rgb(0,178,0)" stroke-width="0.1"/>
  <path d="M 62.21999999999997,51.00003049999998 L 64.21999999999997,51.00003049999998" fill="none" instance-id="-1" semantic-id="2" stroke="rgb(0,178,0)" stroke-width="0.1"/>
  <path d="M 55.728793764833156,100.0 L 62.89799999999997,73.5280305" fill="none" instance-id="-1" semantic-id="2" stroke="rgb(0,178,0)" stroke-width="0.1"/>
  <path d="M 56.419604711625254,100.0 L 63.54199999999997,73.70303049999995" fill="none" instance-id="-1" semantic-id="2" stroke="rgb(0,178,0)" stroke-width="0.1"/>
  <path d="M 62.25499999999997,73.35403049999996 L 55.03828746673854,100.0" fill="none" instance-id="-1" semantic-id="2" stroke="rgb(0,178,0)" stroke-width="0.1"/>
  <path d="M 57.109731692556565,100.0 L 64.18499999999997,73.87703049999999" fill="none" instance-id="-1" semantic-id="2" stroke="rgb(0,178,0)" stroke-width="0.1"/>
  <path d="M 64.18499999999997,73.87703049999999 L 62.25499999999997,73.35403049999996" fill="none" instance-id="-1" semantic-id="2" stroke="rgb(0,178,0)" stroke-width="0.1"/>
 </g>
 <g id="layerAXIS_TEXT" inkscape:groupmode="layer" inkscape:label="AXIS_TEXT">
  <text fill="rgb(0,0,0)" font-family="Noto Sans CJK SC" font-size="2" transform="rotate(-0.0,36.592099999999974,13.616030499999965)" x="36.592099999999974" y="13.616030499999965">
   24
  </text>
 </g>
 <g id="layerAxis【轴线号】" inkscape:groupmode="layer" inkscape:label="Axis【轴线号】">
  <path d="M 3.2199999999999704,41.50003049999998 L 3.2199999999999704,17.50003049999998" fill="none" stroke="rgb(0,178,0)" stroke-width="0.1"/>
  <path d="M 40.21999999999997,41.50003049999998 L 40.21999999999997,17.50003049999998" fill="none" stroke="rgb(0,178,0)" stroke-width="0.1"/>
  <circle cx="40.21999999999997" cy="11.50003049999998" fill="none" r="6" stroke="rgb(0,178,0)" stroke-width="0.1"/>
 </g>
 <g id="layerColumn【柱】" inkscape:groupmode="layer" inkscape:label="Column【柱】">
  <path d="M 7.21999999999997,59.00003049999998 L 7.21999999999997,51.00003049999998" fill="none" stroke="rgb(178,0,178)" stroke-width="0.1"/>
  <path d="M 7.21999999999997,51.00003049999998 L 0.0,51.00003049999998" fill="none" stroke="rgb(178,0,178)" stroke-width="0.1"/>
  <path d="M 0.0,59.00003049999998 L 7.21999999999997,59.00003049999998" fill="none" stroke="rgb(178,0,178)" stroke-width="0.1"/>
  <path d="M 64.21999999999997,59.00003049999998 L 64.21999999999997,51.00003049999998" fill="none" stroke="rgb(178,0,178)" stroke-width="0.1"/>
  <path d="M 64.21999999999997,51.00003049999998 L 56.21999999999997,51.00003049999998" fill="none" stroke="rgb(178,0,178)" stroke-width="0.1"/>
  <path d="M 56.21999999999997,51.00003049999998 L 56.21999999999997,59.00003049999998" fill="none" stroke="rgb(178,0,178)" stroke-width="0.1"/>
  <path d="M 56.21999999999997,59.00003049999998 L 64.21999999999997,59.00003049999998" fill="none" stroke="rgb(178,0,178)" stroke-width="0.1"/>
 </g>
 <g id="layerDote【轴线】" inkscape:groupmode="layer" inkscape:label="Dote【轴线】">
  <path d="M 40.21999999999997,55.00003049999998 L 40.21999999999997,0.0" fill="none" stroke="rgb(53,107,107)" stroke-width="0.1"/>
  <path d="M 3.2199999999999704,100.0 L 3.2199999999999704,0.0" fill="none" stroke="rgb(53,107,107)" stroke-width="0.1"/>
  <path d="M 0.0,55.00003049999998 L 100.0,55.00003049999998" fill="none" stroke="rgb(53,107,107)" stroke-width="0.1"/>
  <path d="M 97.21999999999997,100.0 L 97.21999999999997,0.0" fill="none" stroke="rgb(53,107,107)" stroke-width="0.1"/>
 </g>
 <g id="layerNEW-WALL 新增墙体" inkscape:groupmode="layer" inkscape:label="NEW-WALL 新增墙体">
  <path d="M 61.21999999999997,69.94803049999996 L 61.21999999999997,72.34103049999999" fill="none" stroke="rgb(178,178,0)" stroke-width="0.1"/>
  <path d="M 61.21999999999997,72.34103049999999 L 63.21999999999997,72.60703050000001" fill="none" stroke="rgb(178,178,0)" stroke-width="0.1"/>
  <path d="M 63.21999999999997,72.60703050000001 L 63.21999999999997,69.94803049999996" fill="none" stroke="rgb(178,178,0)" stroke-width="0.1"/>
  <path d="M 63.21999999999997,69.94803049999996 L 61.21999999999997,69.94803049999996" fill="none" stroke="rgb(178,178,0)" stroke-width="0.1"/>
  <path d="M 60.21999999999997,58.94803049999996 L 60.21999999999997,73.21603049999999" fill="none" stroke="rgb(178,178,0)" stroke-width="0.1"/>
  <path d="M 60.21999999999997,73.21603049999999 L 64.21999999999997,73.74803049999997" fill="none" stroke="rgb(178,178,0)" stroke-width="0.1"/>
  <path d="M 64.21999999999997,73.74803049999997 L 64.21999999999997,68.94803049999996" fill="none" stroke="rgb(178,178,0)" stroke-width="0.1"/>
  <path d="M 64.21999999999997,68.94803049999996 L 61.21999999999997,68.94803049999996" fill="none" stroke="rgb(178,178,0)" stroke-width="0.1"/>
  <path d="M 61.21999999999997,68.94803049999996 L 61.21999999999997,58.94803049999996" fill="none" stroke="rgb(178,178,0)" stroke-width="0.1"/>
 </g>
 <g id="layerP-EQPM-HYDR_消火栓" inkscape:groupmode="layer" inkscape:label="P-EQPM-HYDR_消火栓">
  <path d="M 61.21999999999997,59.50003049999998 L 63.21999999999997,66.50003049999998" fill="none" stroke="rgb(178,0,0)" stroke-width="0.1"/>
  <path d="M 63.16199999999998,60.80603049999996 L 62.67399999999998,60.1890305" fill="none" stroke="rgb(178,0,0)" stroke-width="0.1"/>
  <path d="M 63.16199999999998,60.80603049999996 L 62.67399999999998,61.42303049999998" fill="none" stroke="rgb(178,0,0)" stroke-width="0.1"/>
  <path d="M 62.67399999999998,61.42303049999998 L 62.67399999999998,60.1890305" fill="none" stroke="rgb(178,0,0)" stroke-width="0.1"/>
  <path d="M 62.67399999999998,60.80603049999996 L 61.80499999999998,60.80603049999996" fill="none" stroke="rgb(178,0,0)" stroke-width="0.1"/>
  <path d="M 64.79999999999997,63.80603049999996 L 63.809999999999974,63.23503049999999" fill="none" stroke="rgb(178,0,0)" stroke-width="0.1"/>
  <path d="M 63.809999999999974,64.37803049999997 L 64.79999999999997,63.80603049999996" fill="none" stroke="rgb(178,0,0)" stroke-width="0.1"/>
  <path d="M 64.79999999999997,62.126030499999956 L 63.809999999999974,61.55403049999995" fill="none" stroke="rgb(178,0,0)" stroke-width="0.1"/>
  <path d="M 63.809999999999974,62.69703049999998 L 64.79999999999997,62.126030499999956" fill="none" stroke="rgb(178,0,0)" stroke-width="0.1"/>
  <path d="M 63.809999999999974,63.23503049999999 L 63.809999999999974,64.37803049999997" fill="none" stroke="rgb(178,0,0)" stroke-width="0.1"/>
  <path d="M 64.03399999999998,63.9560305 L 64.33099999999997,63.9560305" fill="none" stroke="rgb(178,0,0)" stroke-width="0.1"/>
  <path d="M 64.33099999999997,63.9560305 L 64.33099999999997,63.65903049999997" fill="none" stroke="rgb(178,0,0)" stroke-width="0.1"/>
  <path d="M 64.33099999999997,63.65903049999997 L 64.03399999999998,63.65903049999997" fill="none" stroke="rgb(178,0,0)" stroke-width="0.1"/>
  <path d="M 64.03399999999998,63.65903049999997 L 64.03399999999998,63.9560305" fill="none" stroke="rgb(178,0,0)" stroke-width="0.1"/>
  <path d="M 64.03399999999998,62.27503049999996 L 64.33099999999997,62.27503049999996" fill="none" stroke="rgb(178,0,0)" stroke-width="0.1"/>
  <path d="M 64.33099999999997,62.27503049999996 L 64.33099999999997,61.97803049999999" fill="none" stroke="rgb(178,0,0)" stroke-width="0.1"/>
  <path d="M 64.33099999999997,61.97803049999999 L 64.03399999999998,61.97803049999999" fill="none" stroke="rgb(178,0,0)" stroke-width="0.1"/>
  <path d="M 64.03399999999998,61.97803049999999 L 64.03399999999998,62.27503049999996" fill="none" stroke="rgb(178,0,0)" stroke-width="0.1"/>
  <path d="M 63.809999999999974,61.55403049999995 L 63.809999999999974,62.69703049999998" fill="none" stroke="rgb(178,0,0)" stroke-width="0.1"/>
  <path d="M 63.21999999999997,66.50003049999998 L 61.21999999999997,66.50003049999998" fill="none" stroke="rgb(178,0,0)" stroke-width="0.1"/>
  <path d="M 61.21999999999997,66.50003049999998 L 61.21999999999997,59.50003049999998" fill="none" stroke="rgb(178,0,0)" stroke-width="0.1"/>
  <path d="M 61.21999999999997,59.50003049999998 L 63.21999999999997,59.50003049999998" fill="none" stroke="rgb(178,0,0)" stroke-width="0.1"/>
  <path d="M 63.21999999999997,59.50003049999998 L 63.21999999999997,66.50003049999998" fill="none" stroke="rgb(178,0,0)" stroke-width="0.1"/>
  <path d="M 63.21999999999997,61.13703049999998 L 63.21999999999997,64.86303049999998" fill="none" stroke="rgb(178,0,0)" stroke-width="0.1"/>
  <path d="M 63.21999999999997,64.86303049999998 L 65.05399999999997,64.86303049999998" fill="none" stroke="rgb(178,0,0)" stroke-width="0.1"/>
  <path d="M 65.05399999999997,64.86303049999998 L 65.05399999999997,61.13703049999998" fill="none" stroke="rgb(178,0,0)" stroke-width="0.1"/>
  <path d="M 65.05399999999997,61.13703049999998 L 63.21999999999997,61.13703049999998" fill="none" stroke="rgb(178,0,0)" stroke-width="0.1"/>
  <path d="M 62.67399999999998,61.42303049999998 L 63.16199999999998,60.80603049999996" fill="none" stroke="rgb(178,0,0)" stroke-width="0.1"/>
  <path d="M 63.16199999999998,60.80603049999996 L 62.67399999999998,60.1890305" fill="none" stroke="rgb(178,0,0)" stroke-width="0.1"/>
  <path d="M 62.67399999999998,60.1890305 L 62.67399999999998,61.42303049999998" fill="none" stroke="rgb(178,0,0)" stroke-width="0.1"/>
  <ellipse cx="64.15399999999997" cy="63.82303049999996" fill="none" rx="0.717653" ry="0.717653" stroke="rgb(178,0,0)" stroke-width="0.1" transform="rotate(45.0,64.15399999999997,63.82303049999996)"/>
  <ellipse cx="64.15399999999997" cy="62.12703049999999" fill="none" rx="0.717653" ry="0.717653" stroke="rgb(178,0,0)" stroke-width="0.1" transform="rotate(45.0,64.15399999999997,62.12703049999999)"/>
 </g>
 <g id="layerP-VPIPE-HYDR-1_消防" inkscape:groupmode="layer" inkscape:label="P-VPIPE-HYDR-1_消防">
  <circle cx="55.01499999999997" cy="49.81303049999997" fill="none" r="0.75" stroke="rgb(178,0,0)" stroke-width="0.1"/>
  <circle cx="62.21999999999997" cy="68.00003049999998" fill="none" r="0.75" stroke="rgb(178,0,0)" stroke-width="0.1"/>
 </g>
 <g id="layerWINDOW" inkscape:groupmode="layer" inkscape:label="WINDOW">
  <path d="M 63.21999999999997,12.25003049999998 L 69.58399999999997,18.614030499999956" fill="none" instance-id="1" semantic-id="4" stroke="rgb(0,178,178)" stroke-width="0.1"/>
  <path d="M 63.21999999999997,30.25003049999998 L 69.58399999999997,23.886030500000004" fill="none" instance-id="1" semantic-id="4" stroke="rgb(0,178,178)" stroke-width="0.1"/>
  <path d="M 63.21999999999997,30.25003049999998 L 56.855999999999966,23.886030500000004" fill="none" instance-id="1" semantic-id="4" stroke="rgb(0,178,178)" stroke-width="0.1"/>
  <path d="M 63.04999999999997,12.420030499999996 L 69.41399999999997,18.78403049999997" fill="none" instance-id="1" semantic-id="4" stroke="rgb(0,178,178)" stroke-width="0.1"/>
  <path d="M 63.38999999999997,30.080030499999964 L 57.02599999999997,23.716030499999988" fill="none" instance-id="1" semantic-id="4" stroke="rgb(0,178,178)" stroke-width="0.1"/>
  <path d="M 63.21999999999997,12.25003049999998 L 56.855999999999966,18.614030499999956" fill="none" instance-id="1" semantic-id="4" stroke="rgb(0,178,178)" stroke-width="0.1"/>
  <path d="M 63.21999999999997,21.25003049999998 L 65.54899999999998,21.557030499999996" fill="none" instance-id="1" semantic-id="4" stroke="rgb(0,178,178)" stroke-width="0.1"/>
  <path d="M 65.54899999999998,21.557030499999996 L 67.71999999999997,22.456030499999997" fill="none" instance-id="1" semantic-id="4" stroke="rgb(0,178,178)" stroke-width="0.1"/>
  <path d="M 67.71999999999997,22.456030499999997 L 69.58399999999997,23.886030500000004" fill="none" instance-id="1" semantic-id="4" stroke="rgb(0,178,178)" stroke-width="0.1"/>
  <path d="M 69.58399999999997,18.614030499999956 L 67.71999999999997,20.044030499999963" fill="none" instance-id="1" semantic-id="4" stroke="rgb(0,178,178)" stroke-width="0.1"/>
  <path d="M 67.71999999999997,20.044030499999963 L 65.54899999999998,20.943030499999963" fill="none" instance-id="1" semantic-id="4" stroke="rgb(0,178,178)" stroke-width="0.1"/>
  <path d="M 65.54899999999998,20.943030499999963 L 63.21999999999997,21.25003049999998" fill="none" instance-id="1" semantic-id="4" stroke="rgb(0,178,178)" stroke-width="0.1"/>
  <path d="M 56.855999999999966,23.886030500000004 L 58.71999999999997,22.456030499999997" fill="none" instance-id="1" semantic-id="4" stroke="rgb(0,178,178)" stroke-width="0.1"/>
  <path d="M 58.71999999999997,22.456030499999997 L 60.89099999999998,21.557030499999996" fill="none" instance-id="1" semantic-id="4" stroke="rgb(0,178,178)" stroke-width="0.1"/>
  <path d="M 60.89099999999998,21.557030499999996 L 63.21999999999997,21.25003049999998" fill="none" instance-id="1" semantic-id="4" stroke="rgb(0,178,178)" stroke-width="0.1"/>
  <path d="M 63.21999999999997,21.25003049999998 L 60.89099999999998,20.943030499999963" fill="none" instance-id="1" semantic-id="4" stroke="rgb(0,178,178)" stroke-width="0.1"/>
  <path d="M 60.89099999999998,20.943030499999963 L 58.71999999999997,20.044030499999963" fill="none" instance-id="1" semantic-id="4" stroke="rgb(0,178,178)" stroke-width="0.1"/>
  <path d="M 58.71999999999997,20.044030499999963 L 56.855999999999966,18.614030499999956" fill="none" instance-id="1" semantic-id="4" stroke="rgb(0,178,178)" stroke-width="0.1"/>
 </g>
</svg>