<?xml version="1.0" encoding="utf-8"?>
<svg style="background-color: #000;" version="1.1" viewBox="0 0 100.0 100.0" xmlns="http://www.w3.org/2000/svg" xmlns:inkscape="http://www.inkscape.org/namespaces/inkscape">
 <g id="layer0-室内玻璃墙" inkscape:groupmode="layer" inkscape:label="0-室内玻璃墙">
  <path d="M 59.31699999999998,48.07303049999996 L 61.24999999999997,30.519030499999985" fill="none" instance-id="-1" semantic-id="2" stroke="rgb(0,178,0)" stroke-width="0.1"/>
  <path d="M 63.218999999999966,12.627030499999933 L 64.60942753732905,0.0" fill="none" instance-id="-1" semantic-id="2" stroke="rgb(0,178,0)" stroke-width="0.1"/>
  <path d="M 59.97999999999996,48.14603049999994 L 61.91199999999998,30.592030499999964" fill="none" instance-id="-1" semantic-id="2" stroke="rgb(0,178,0)" stroke-width="0.1"/>
  <path d="M 63.88199999999998,12.700030500000025 L 65.28043838669487,0.0" fill="none" instance-id="-1" semantic-id="2" stroke="rgb(0,178,0)" stroke-width="0.1"/>
  <path d="M 60.64199999999997,48.21903050000003 L 62.57499999999996,30.665030499999943" fill="none" instance-id="-1" semantic-id="2" stroke="rgb(0,178,0)" stroke-width="0.1"/>
  <path d="M 62.57499999999996,30.665030499999943 L 60.58699999999996,30.446030500000006" fill="none" instance-id="-1" semantic-id="2" stroke="rgb(0,178,0)" stroke-width="0.1"/>
  <path d="M 60.58699999999996,30.446030500000006 L 58.65399999999997,48.00003049999998" fill="none" instance-id="-1" semantic-id="2" stroke="rgb(0,178,0)" stroke-width="0.1"/>
  <path d="M 58.65399999999997,48.00003049999998 L 60.64199999999997,48.21903050000003" fill="none" instance-id="-1" semantic-id="2" stroke="rgb(0,178,0)" stroke-width="0.1"/>
  <path d="M 63.938701431354644,0.0 L 62.55699999999996,12.554030499999953" fill="none" instance-id="-1" semantic-id="2" stroke="rgb(0,178,0)" stroke-width="0.1"/>
  <path d="M 62.55699999999996,12.554030499999953 L 64.54499999999996,12.773030500000004" fill="none" instance-id="-1" semantic-id="2" stroke="rgb(0,178,0)" stroke-width="0.1"/>
  <path d="M 64.54499999999996,12.773030500000004 L 65.9507304708265,0.0" fill="none" instance-id="-1" semantic-id="2" stroke="rgb(0,178,0)" stroke-width="0.1"/>
  <path d="M 53.60024020844568,100.0 L 57.127999999999986,67.95303049999995" fill="none" instance-id="-1" semantic-id="2" stroke="rgb(0,178,0)" stroke-width="0.1"/>
  <path d="M 54.27127611539106,100.0 L 57.79099999999997,68.02603049999993" fill="none" instance-id="-1" semantic-id="2" stroke="rgb(0,178,0)" stroke-width="0.1"/>
  <path d="M 56.46599999999998,67.88003049999998 L 52.92930185236847,100.0" fill="none" instance-id="-1" semantic-id="2" stroke="rgb(0,178,0)" stroke-width="0.1"/>
  <path d="M 54.94141572627274,100.0 L 58.45399999999998,68.09903050000003" fill="none" instance-id="-1" semantic-id="2" stroke="rgb(0,178,0)" stroke-width="0.1"/>
 </g>
 <g id="layer0-辅助线" inkscape:groupmode="layer" inkscape:label="0-辅助线">
  <path d="M 11.279999999999973,100.0 L 11.279999999999973,66.9850305" fill="none" stroke="rgb(89,89,89)" stroke-width="0.1"/>
 </g>
 <g id="layerColumn【柱】" inkscape:groupmode="layer" inkscape:label="Column【柱】">
  <path d="M 69.21999999999997,56.00003049999998 L 69.21999999999997,48.00003049999998" fill="none" stroke="rgb(178,0,178)" stroke-width="0.1"/>
  <path d="M 69.21999999999997,48.00003049999998 L 61.21999999999997,48.00003049999998" fill="none" stroke="rgb(178,0,178)" stroke-width="0.1"/>
  <path d="M 61.21999999999997,48.00003049999998 L 61.21999999999997,56.00003049999998" fill="none" stroke="rgb(178,0,178)" stroke-width="0.1"/>
  <path d="M 61.21999999999997,56.00003049999998 L 69.21999999999997,56.00003049999998" fill="none" stroke="rgb(178,0,178)" stroke-width="0.1"/>
 </g>
 <g id="layerDote【轴线】" inkscape:groupmode="layer" inkscape:label="Dote【轴线】">
  <path d="M 0.0,52.00003049999998 L 100.0,52.00003049999998" fill="none" stroke="rgb(53,107,107)" stroke-width="0.1"/>
  <path d="M 77.21999999999997,100.0 L 77.21999999999997,0.0" fill="none" stroke="rgb(53,107,107)" stroke-width="0.1"/>
 </g>
 <g id="layerFLOR 地坪线" inkscape:groupmode="layer" inkscape:label="FLOR 地坪线">
  <path d="M 11.682166344983273,100.0 L 22.691281789907606,0.0" fill="none" stroke="rgb(0,0,178)" stroke-width="0.1"/>
 </g>
 <g id="layerFire_RS【防火卷帘】" inkscape:groupmode="layer" inkscape:label="Fire_RS【防火卷帘】">
  <path d="M 14.196852926507319,100.0 L 25.206109891754267,0.0" fill="none" instance-id="-1" semantic-id="1" stroke="rgb(255,12,12)" stroke-width="0.1"/>
  <path d="M 18.221311290948506,100.0 L 29.230292282635986,0.0" fill="none" instance-id="-1" semantic-id="1" stroke="rgb(255,12,12)" stroke-width="0.1"/>
 </g>
 <g id="layerHandrail【栏杆】" inkscape:groupmode="layer" inkscape:label="Handrail【栏杆】">
  <path d="M 12.185105524495043,100.0 L 23.194309154815898,0.0" fill="none" instance-id="-1" semantic-id="33" stroke="rgb(53,107,107)" stroke-width="0.1"/>
  <path d="M 23.697016882349573,0.0 L 12.688030885907494,100.0" fill="none" instance-id="-1" semantic-id="33" stroke="rgb(53,107,107)" stroke-width="0.1"/>
 </g>
 <g id="layerLook_line【看线、投影线】" inkscape:groupmode="layer" inkscape:label="Look_line【看线、投影线】">
  <path d="M 13.190970509201946,100.0 L 24.20004758485433,0.0" fill="none" stroke="rgb(0,178,178)" stroke-width="0.1"/>
 </g>
 <g id="layerNEW-WALL 新增墙体" inkscape:groupmode="layer" inkscape:label="NEW-WALL 新增墙体">
  <path d="M 60.21999999999997,49.00003049999998 L 60.21999999999997,53.20503050000002" fill="none" instance-id="-1" semantic-id="1" stroke="rgb(178,178,0)" stroke-width="0.1"/>
  <path d="M 60.21999999999997,53.20503050000002 L 59.10099999999997,53.08203049999997" fill="none" instance-id="-1" semantic-id="1" stroke="rgb(178,178,0)" stroke-width="0.1"/>
  <path d="M 59.10099999999997,53.08203049999997 L 59.54999999999998,49.00003049999998" fill="none" instance-id="-1" semantic-id="1" stroke="rgb(178,178,0)" stroke-width="0.1"/>
  <path d="M 59.54999999999998,49.00003049999998 L 60.21999999999997,49.00003049999998" fill="none" instance-id="-1" semantic-id="1" stroke="rgb(178,178,0)" stroke-width="0.1"/>
  <path d="M 59.77499999999998,65.22803049999993 L 59.55599999999998,67.21403050000004" fill="none" instance-id="-1" semantic-id="1" stroke="rgb(178,178,0)" stroke-width="0.1"/>
  <path d="M 59.55599999999998,67.21403050000004 L 57.56899999999996,66.99503049999998" fill="none" instance-id="-1" semantic-id="1" stroke="rgb(178,178,0)" stroke-width="0.1"/>
  <path d="M 57.56899999999996,66.99503049999998 L 57.78699999999998,65.01003049999997" fill="none" instance-id="-1" semantic-id="1" stroke="rgb(178,178,0)" stroke-width="0.1"/>
  <path d="M 57.78699999999998,65.01003049999997 L 59.77499999999998,65.22803049999993" fill="none" instance-id="-1" semantic-id="1" stroke="rgb(178,178,0)" stroke-width="0.1"/>
  <path d="M 61.21999999999997,56.00003049999998 L 61.79799999999997,56.00003049999998" fill="none" instance-id="-1" semantic-id="1" stroke="rgb(178,178,0)" stroke-width="0.1"/>
  <path d="M 61.79799999999997,56.00003049999998 L 60.440999999999974,68.31703049999999" fill="none" instance-id="-1" semantic-id="1" stroke="rgb(178,178,0)" stroke-width="0.1"/>
  <path d="M 60.440999999999974,68.31703049999999 L 56.46599999999998,67.88003049999998" fill="none" instance-id="-1" semantic-id="1" stroke="rgb(178,178,0)" stroke-width="0.1"/>
  <path d="M 56.46599999999998,67.88003049999998 L 56.90299999999996,63.90603049999993" fill="none" instance-id="-1" semantic-id="1" stroke="rgb(178,178,0)" stroke-width="0.1"/>
  <path d="M 56.90299999999996,63.90603049999993 L 59.88499999999996,64.23403050000002" fill="none" instance-id="-1" semantic-id="1" stroke="rgb(178,178,0)" stroke-width="0.1"/>
  <path d="M 59.88499999999996,64.23403050000002 L 60.97999999999996,54.29403049999996" fill="none" instance-id="-1" semantic-id="1" stroke="rgb(178,178,0)" stroke-width="0.1"/>
  <path d="M 60.97999999999996,54.29403049999996 L 57.996999999999986,53.96603049999999" fill="none" instance-id="-1" semantic-id="1" stroke="rgb(178,178,0)" stroke-width="0.1"/>
  <path d="M 57.996999999999986,53.96603049999999 L 58.65399999999997,48.00003049999998" fill="none" instance-id="-1" semantic-id="1" stroke="rgb(178,178,0)" stroke-width="0.1"/>
  <path d="M 58.65399999999997,48.00003049999998 L 61.21999999999997,48.00003049999998" fill="none" instance-id="-1" semantic-id="1" stroke="rgb(178,178,0)" stroke-width="0.1"/>
  <path d="M 61.21999999999997,48.00003049999998 L 61.21999999999997,56.00003049999998" fill="none" instance-id="-1" semantic-id="1" stroke="rgb(178,178,0)" stroke-width="0.1"/>
 </g>
 <g id="layerP-EQPM-HYDR_消火栓" inkscape:groupmode="layer" inkscape:label="P-EQPM-HYDR_消火栓">
  <path d="M 60.65099999999998,57.27603049999993 L 57.89699999999996,64.01503049999997" fill="none" stroke="rgb(178,0,0)" stroke-width="0.1"/>
  <path d="M 58.57699999999997,58.362030499999946 L 59.12999999999997,57.8020305" fill="none" stroke="rgb(178,0,0)" stroke-width="0.1"/>
  <path d="M 58.57699999999997,58.362030499999946 L 58.994999999999976,59.029030499999976" fill="none" stroke="rgb(178,0,0)" stroke-width="0.1"/>
  <path d="M 58.994999999999976,59.029030499999976 L 59.12999999999997,57.8020305" fill="none" stroke="rgb(178,0,0)" stroke-width="0.1"/>
  <path d="M 59.06199999999998,58.41503049999994 L 59.92599999999996,58.51003049999997" fill="none" stroke="rgb(178,0,0)" stroke-width="0.1"/>
  <path d="M 56.62099999999998,61.16503049999994 L 57.66699999999997,60.7060305" fill="none" stroke="rgb(178,0,0)" stroke-width="0.1"/>
  <path d="M 57.54199999999997,61.842030499999964 L 56.62099999999998,61.16503049999994" fill="none" stroke="rgb(178,0,0)" stroke-width="0.1"/>
  <path d="M 56.80499999999998,59.495030499999984 L 57.85099999999997,59.03503049999995" fill="none" stroke="rgb(178,0,0)" stroke-width="0.1"/>
  <path d="M 57.72599999999997,60.17103050000003 L 56.80499999999998,59.495030499999984" fill="none" stroke="rgb(178,0,0)" stroke-width="0.1"/>
  <path d="M 57.66699999999997,60.7060305 L 57.54199999999997,61.842030499999964" fill="none" stroke="rgb(178,0,0)" stroke-width="0.1"/>
  <path d="M 57.365999999999985,61.39703050000003 L 57.07099999999997,61.36503049999999" fill="none" stroke="rgb(178,0,0)" stroke-width="0.1"/>
  <path d="M 57.07099999999997,61.36503049999999 L 57.10299999999998,61.07003050000003" fill="none" stroke="rgb(178,0,0)" stroke-width="0.1"/>
  <path d="M 57.10299999999998,61.07003050000003 L 57.39899999999997,61.102030499999955" fill="none" stroke="rgb(178,0,0)" stroke-width="0.1"/>
  <path d="M 57.39899999999997,61.102030499999955 L 57.365999999999985,61.39703050000003" fill="none" stroke="rgb(178,0,0)" stroke-width="0.1"/>
  <path d="M 57.54999999999998,59.727030499999955 L 57.25499999999997,59.69403049999994" fill="none" stroke="rgb(178,0,0)" stroke-width="0.1"/>
  <path d="M 57.25499999999997,59.69403049999994 L 57.28699999999998,59.39903049999998" fill="none" stroke="rgb(178,0,0)" stroke-width="0.1"/>
  <path d="M 57.28699999999998,59.39903049999998 L 57.58299999999997,59.432030499999996" fill="none" stroke="rgb(178,0,0)" stroke-width="0.1"/>
  <path d="M 57.58299999999997,59.432030499999996 L 57.54999999999998,59.727030499999955" fill="none" stroke="rgb(178,0,0)" stroke-width="0.1"/>
  <path d="M 57.85099999999997,59.03503049999995 L 57.72599999999997,60.17103050000003" fill="none" stroke="rgb(178,0,0)" stroke-width="0.1"/>
  <path d="M 57.89699999999996,64.01503049999997 L 59.88499999999996,64.23403050000002" fill="none" stroke="rgb(178,0,0)" stroke-width="0.1"/>
  <path d="M 59.88499999999996,64.23403050000002 L 60.65099999999998,57.27603049999993" fill="none" stroke="rgb(178,0,0)" stroke-width="0.1"/>
  <path d="M 60.65099999999998,57.27603049999993 L 58.66299999999998,57.05803049999997" fill="none" stroke="rgb(178,0,0)" stroke-width="0.1"/>
  <path d="M 58.66299999999998,57.05803049999997 L 57.89699999999996,64.01503049999997" fill="none" stroke="rgb(178,0,0)" stroke-width="0.1"/>
  <path d="M 58.482999999999976,58.68403049999995 L 58.075999999999965,62.38903049999999" fill="none" stroke="rgb(178,0,0)" stroke-width="0.1"/>
  <path d="M 58.075999999999965,62.38903049999999 L 56.25199999999998,62.18803049999997" fill="none" stroke="rgb(178,0,0)" stroke-width="0.1"/>
  <path d="M 56.25199999999998,62.18803049999997 L 56.65999999999997,58.48403050000002" fill="none" stroke="rgb(178,0,0)" stroke-width="0.1"/>
  <path d="M 56.65999999999997,58.48403050000002 L 58.482999999999976,58.68403049999995" fill="none" stroke="rgb(178,0,0)" stroke-width="0.1"/>
  <path d="M 58.57699999999997,58.362030499999946 L 58.994999999999976,59.029030499999976" fill="none" stroke="rgb(178,0,0)" stroke-width="0.1"/>
  <path d="M 58.994999999999976,59.029030499999976 L 59.12999999999997,57.8020305" fill="none" stroke="rgb(178,0,0)" stroke-width="0.1"/>
  <path d="M 59.12999999999997,57.8020305 L 58.57699999999997,58.362030499999946" fill="none" stroke="rgb(178,0,0)" stroke-width="0.1"/>
  <ellipse cx="57.26099999999997" cy="61.25303050000002" fill="none" rx="0.717653" ry="0.717653" stroke="rgb(178,0,0)" stroke-width="0.1" transform="rotate(141.282,57.26099999999997,61.25303050000002)"/>
  <ellipse cx="57.446999999999974" cy="59.56703049999999" fill="none" rx="0.717653" ry="0.717653" stroke="rgb(178,0,0)" stroke-width="0.1" transform="rotate(141.282,57.446999999999974,59.56703049999999)"/>
 </g>
 <g id="layerP-VPIPE-HYDR-1_消防" inkscape:groupmode="layer" inkscape:label="P-VPIPE-HYDR-1_消防">
  <circle cx="67.94899999999998" cy="57.00003049999998" fill="none" r="0.75" stroke="rgb(178,0,0)" stroke-width="0.1"/>
  <circle cx="59.82099999999997" cy="55.676030500000024" fill="none" r="0.75" stroke="rgb(178,0,0)" stroke-width="0.1"/>
 </g>
 <g id="layerWINDOW" inkscape:groupmode="layer" inkscape:label="WINDOW">
  <path d="M 63.55099999999996,12.66303049999999 L 56.52799999999996,18.293030499999986" fill="none" instance-id="2" semantic-id="4" stroke="rgb(0,178,178)" stroke-width="0.1"/>
  <path d="M 61.58099999999996,30.55503049999993 L 55.95199999999997,23.533030499999995" fill="none" instance-id="2" semantic-id="4" stroke="rgb(0,178,178)" stroke-width="0.1"/>
  <path d="M 61.58099999999996,30.55503049999993 L 68.60299999999998,24.926030500000024" fill="none" instance-id="2" semantic-id="4" stroke="rgb(0,178,178)" stroke-width="0.1"/>
  <path d="M 63.700999999999965,12.851030499999979 L 56.678999999999974,18.480030499999998" fill="none" instance-id="2" semantic-id="4" stroke="rgb(0,178,178)" stroke-width="0.1"/>
  <path d="M 61.43099999999998,30.36803050000003 L 68.45299999999997,24.739030500000013" fill="none" instance-id="2" semantic-id="4" stroke="rgb(0,178,178)" stroke-width="0.1"/>
  <path d="M 63.55099999999996,12.66303049999999 L 69.17999999999998,19.686030500000015" fill="none" instance-id="2" semantic-id="4" stroke="rgb(0,178,178)" stroke-width="0.1"/>
  <path d="M 62.565999999999974,21.609030500000017 L 60.216999999999985,21.65903049999997" fill="none" instance-id="2" semantic-id="4" stroke="rgb(0,178,178)" stroke-width="0.1"/>
  <path d="M 60.216999999999985,21.65903049999997 L 57.960999999999984,22.31603050000001" fill="none" instance-id="2" semantic-id="4" stroke="rgb(0,178,178)" stroke-width="0.1"/>
  <path d="M 57.960999999999984,22.31603050000001 L 55.95199999999997,23.533030499999995" fill="none" instance-id="2" semantic-id="4" stroke="rgb(0,178,178)" stroke-width="0.1"/>
  <path d="M 56.52799999999996,18.293030499999986 L 58.224999999999966,19.918030499999986" fill="none" instance-id="2" semantic-id="4" stroke="rgb(0,178,178)" stroke-width="0.1"/>
  <path d="M 58.224999999999966,19.918030499999986 L 60.28399999999996,21.050030499999934" fill="none" instance-id="2" semantic-id="4" stroke="rgb(0,178,178)" stroke-width="0.1"/>
  <path d="M 60.28399999999996,21.050030499999934 L 62.565999999999974,21.609030500000017" fill="none" instance-id="2" semantic-id="4" stroke="rgb(0,178,178)" stroke-width="0.1"/>
  <path d="M 68.60299999999998,24.926030500000024 L 66.90699999999998,23.300030499999934" fill="none" instance-id="2" semantic-id="4" stroke="rgb(0,178,178)" stroke-width="0.1"/>
  <path d="M 66.90699999999998,23.300030499999934 L 64.84799999999998,22.169030499999963" fill="none" instance-id="2" semantic-id="4" stroke="rgb(0,178,178)" stroke-width="0.1"/>
  <path d="M 64.84799999999998,22.169030499999963 L 62.565999999999974,21.609030500000017" fill="none" instance-id="2" semantic-id="4" stroke="rgb(0,178,178)" stroke-width="0.1"/>
  <path d="M 62.565999999999974,21.609030500000017 L 64.91499999999996,21.560030499999925" fill="none" instance-id="2" semantic-id="4" stroke="rgb(0,178,178)" stroke-width="0.1"/>
  <path d="M 64.91499999999996,21.560030499999925 L 67.17099999999996,20.9030305" fill="none" instance-id="2" semantic-id="4" stroke="rgb(0,178,178)" stroke-width="0.1"/>
  <path d="M 67.17099999999996,20.9030305 L 69.17999999999998,19.686030500000015" fill="none" instance-id="2" semantic-id="4" stroke="rgb(0,178,178)" stroke-width="0.1"/>
 </g>
 <g id="layerWall【砖墙】" inkscape:groupmode="layer" inkscape:label="Wall【砖墙】">
  <path d="M 69.21999999999997,51.00003049999998 L 100.0,51.00003049999998" fill="none" instance-id="-1" semantic-id="1" stroke="rgb(178,178,0)" stroke-width="0.1"/>
  <path d="M 69.21999999999997,53.00003049999998 L 100.0,53.00003049999998" fill="none" instance-id="-1" semantic-id="1" stroke="rgb(178,178,0)" stroke-width="0.1"/>
  <path d="M 69.21999999999997,51.00003049999998 L 69.21999999999997,53.00003049999998" fill="none" instance-id="-1" semantic-id="1" stroke="rgb(178,178,0)" stroke-width="0.1"/>
 </g>
 <g id="layerWindow_fire【防火门窗及编号】" inkscape:groupmode="layer" inkscape:label="Window_fire【防火门窗及编号】">
  <text fill="rgb(178,0,0)" font-family="Noto Sans CJK SC" font-size="2" transform="rotate(-83.7175,32.36799999999997,23.952030499999978)" x="32.36799999999997" y="23.952030499999978">
   FHJL-3.0h
  </text>
 </g>
</svg>