<?xml version="1.0" encoding="utf-8"?>
<svg style="background-color: #000;" version="1.1" viewBox="0 0 100.0 100.0" xmlns="http://www.w3.org/2000/svg" xmlns:inkscape="http://www.inkscape.org/namespaces/inkscape">
 <g id="layer0-室内玻璃墙" inkscape:groupmode="layer" inkscape:label="0-室内玻璃墙">
  <path d="M 2.968445000000017,56.84997099999998 L 0.0,70.33152837618553" fill="none" instance-id="-1" semantic-id="2" stroke="rgb(0,178,0)" stroke-width="0.1"/>
  <path d="M 2.285845000000016,56.84997099999998 L 0.0,67.23144265755519" fill="none" instance-id="-1" semantic-id="2" stroke="rgb(0,178,0)" stroke-width="0.1"/>
  <path d="M 1.6031450000000191,56.84997099999998 L 0.0,64.13115985636267" fill="none" instance-id="-1" semantic-id="2" stroke="rgb(0,178,0)" stroke-width="0.1"/>
  <path d="M 0.0,73.43227010950602 L 3.6510450000000176,56.84997099999998" fill="none" instance-id="-1" semantic-id="2" stroke="rgb(0,178,0)" stroke-width="0.1"/>
  <path d="M 15.485905729101866,0.0 L 15.110945000000015,1.702970999999991" fill="none" instance-id="-1" semantic-id="2" stroke="rgb(0,178,0)" stroke-width="0.1"/>
  <path d="M 14.803324190435603,0.0 L 14.459845000000016,1.5599709999999902" fill="none" instance-id="-1" semantic-id="2" stroke="rgb(0,178,0)" stroke-width="0.1"/>
  <path d="M 15.762045000000022,1.8459709999999916 L 16.16850258975157,0.0" fill="none" instance-id="-1" semantic-id="2" stroke="rgb(0,178,0)" stroke-width="0.1"/>
  <path d="M 14.12051782959766,0.0 L 13.808745000000016,1.4159709999999848" fill="none" instance-id="-1" semantic-id="2" stroke="rgb(0,178,0)" stroke-width="0.1"/>
  <path d="M 13.808745000000016,1.4159709999999848 L 15.762045000000022,1.8459709999999916" fill="none" instance-id="-1" semantic-id="2" stroke="rgb(0,178,0)" stroke-width="0.1"/>
 </g>
 <g id="layerAXIS_TEXT" inkscape:groupmode="layer" inkscape:label="AXIS_TEXT">
  <text fill="rgb(0,0,0)" font-family="Noto Sans CJK SC" font-size="2" transform="rotate(-0.0,2.081245000000017,0.056971000000004324)" x="2.081245000000017" y="0.056971000000004324">
   23
  </text>
 </g>
 <g id="layerColumn【柱】" inkscape:groupmode="layer" inkscape:label="Column【柱】">
  <path d="M 9.654645000000016,19.849970999999982 L 9.654645000000016,11.849970999999982" fill="none" stroke="rgb(178,0,178)" stroke-width="0.1"/>
  <path d="M 9.654645000000016,11.849970999999982 L 1.6546450000000164,11.849970999999982" fill="none" stroke="rgb(178,0,178)" stroke-width="0.1"/>
  <path d="M 1.6546450000000164,11.849970999999982 L 1.6546450000000164,19.849970999999982" fill="none" stroke="rgb(178,0,178)" stroke-width="0.1"/>
  <path d="M 1.6546450000000164,19.849970999999982 L 9.654645000000016,19.849970999999982" fill="none" stroke="rgb(178,0,178)" stroke-width="0.1"/>
 </g>
 <g id="layerDote【轴线】" inkscape:groupmode="layer" inkscape:label="Dote【轴线】">
  <path d="M 0.0,25.349970999999982 L 100.0,25.349970999999982" fill="none" stroke="rgb(53,107,107)" stroke-width="0.1"/>
  <path d="M 0.0,15.849970999999982 L 100.0,15.849970999999982" fill="none" stroke="rgb(53,107,107)" stroke-width="0.1"/>
  <path d="M 5.654645000000016,100.0 L 5.654645000000016,0.0" fill="none" stroke="rgb(53,107,107)" stroke-width="0.1"/>
  <path d="M 99.65464500000002,100.0 L 99.65464500000002,0.0" fill="none" stroke="rgb(53,107,107)" stroke-width="0.1"/>
 </g>
 <g id="layerFLOR 地坪线" inkscape:groupmode="layer" inkscape:label="FLOR 地坪线">
  <path d="M 59.6867858979076,0.0 L 37.66829690533426,100.0" fill="none" stroke="rgb(0,0,178)" stroke-width="0.1"/>
 </g>
 <g id="layerFire_RS【防火卷帘】" inkscape:groupmode="layer" inkscape:label="Fire_RS【防火卷帘】">
  <path d="M 34.14510054582871,100.0 L 51.597545000000025,20.736970999999983" fill="none" stroke="rgb(255,12,12)" stroke-width="0.1"/>
  <path d="M 30.049321350046753,100.0 L 47.69114500000002,19.876970999999998" fill="none" stroke="rgb(255,12,12)" stroke-width="0.1"/>
  <path d="M 53.31784500000002,12.923970999999995 L 56.16349242288753,0.0" fill="none" stroke="rgb(255,12,12)" stroke-width="0.1"/>
  <path d="M 49.411345000000026,12.063970999999981 L 52.06766076786404,0.0" fill="none" stroke="rgb(255,12,12)" stroke-width="0.1"/>
 </g>
 <g id="layerHandrail【栏杆】" inkscape:groupmode="layer" inkscape:label="Handrail【栏杆】">
  <path d="M 37.156335197400395,100.0 L 59.174684168058675,0.0" fill="none" instance-id="-1" semantic-id="33" stroke="rgb(53,107,107)" stroke-width="0.1"/>
  <path d="M 58.662569642874175,0.0 L 55.70134500000002,13.448971" fill="none" instance-id="-1" semantic-id="33" stroke="rgb(53,107,107)" stroke-width="0.1"/>
  <path d="M 53.98114500000001,21.261971000000017 L 36.644291679608656,100.0" fill="none" instance-id="-1" semantic-id="33" stroke="rgb(53,107,107)" stroke-width="0.1"/>
 </g>
 <g id="layerLook_line【看线、投影线】" inkscape:groupmode="layer" inkscape:label="Look_line【看线、投影线】">
  <path d="M 36.132326458693214,100.0 L 53.49284500000002,21.153971000000013" fill="none" stroke="rgb(0,178,178)" stroke-width="0.1"/>
  <path d="M 55.21304500000002,13.340970999999996 L 58.150498903748684,0.0" fill="none" stroke="rgb(0,178,178)" stroke-width="0.1"/>
 </g>
 <g id="layerNEW-FNSH 新增完成面" inkscape:groupmode="layer" inkscape:label="NEW-FNSH 新增完成面">
  <path d="M 48.37684500000002,11.835971 L 46.65654500000002,19.64897099999999" fill="none" stroke="rgb(178,88,0)" stroke-width="0.1"/>
  <path d="M 46.65654500000002,19.64897099999999 L 54.46944500000002,21.368970999999988" fill="none" stroke="rgb(178,88,0)" stroke-width="0.1"/>
  <path d="M 54.46944500000002,21.368970999999988 L 56.18964500000001,13.555971" fill="none" stroke="rgb(178,88,0)" stroke-width="0.1"/>
  <path d="M 56.18964500000001,13.555971 L 48.37684500000002,11.835971" fill="none" stroke="rgb(178,88,0)" stroke-width="0.1"/>
  <path d="M 49.51914500000002,13.623970999999983 L 48.44404500000002,18.506970999999993" fill="none" stroke="rgb(178,88,0)" stroke-width="0.1"/>
  <path d="M 48.44404500000002,18.506970999999993 L 53.32704500000001,19.58197099999998" fill="none" stroke="rgb(178,88,0)" stroke-width="0.1"/>
  <path d="M 53.32704500000001,19.58197099999998 L 54.40224500000002,14.698971" fill="none" stroke="rgb(178,88,0)" stroke-width="0.1"/>
  <path d="M 54.40224500000002,14.698971 L 49.51914500000002,13.623970999999983" fill="none" stroke="rgb(178,88,0)" stroke-width="0.1"/>
 </g>
 <g id="layerNEW-WALL 新增墙体" inkscape:groupmode="layer" inkscape:label="NEW-WALL 新增墙体">
  <path d="M 9.814545000000017,14.870970999999997 L 12.751745000000021,15.517970999999989" fill="none" instance-id="-1" semantic-id="1" stroke="rgb(178,178,0)" stroke-width="0.1"/>
  <path d="M 12.751745000000021,15.517970999999989 L 11.467545000000015,21.349970999999982" fill="none" instance-id="-1" semantic-id="1" stroke="rgb(178,178,0)" stroke-width="0.1"/>
  <path d="M 7.360145000000017,21.349970999999982 L 11.85594500000002,0.9849710000000016" fill="none" instance-id="-1" semantic-id="1" stroke="rgb(178,178,0)" stroke-width="0.1"/>
  <path d="M 11.85594500000002,0.9849710000000016 L 15.761745000000019,1.8469709999999964" fill="none" instance-id="-1" semantic-id="1" stroke="rgb(178,178,0)" stroke-width="0.1"/>
  <path d="M 15.761745000000019,1.8469709999999964 L 14.899445000000021,5.752971000000002" fill="none" instance-id="-1" semantic-id="1" stroke="rgb(178,178,0)" stroke-width="0.1"/>
  <path d="M 14.899445000000021,5.752971000000002 L 11.970145000000016,5.1059709999999825" fill="none" instance-id="-1" semantic-id="1" stroke="rgb(178,178,0)" stroke-width="0.1"/>
  <path d="M 11.970145000000016,5.1059709999999825 L 9.814545000000017,14.870970999999997" fill="none" instance-id="-1" semantic-id="1" stroke="rgb(178,178,0)" stroke-width="0.1"/>
 </g>
 <g id="layerP-EQPM-HYDR_消火栓" inkscape:groupmode="layer" inkscape:label="P-EQPM-HYDR_消火栓">
  <path d="M 9.82194500000002,14.872971000000007 L 13.28444500000002,8.468970999999982" fill="none" stroke="rgb(178,0,0)" stroke-width="0.1"/>
  <path d="M 11.999745000000019,14.015971000000008 L 11.390345000000018,14.513970999999998" fill="none" stroke="rgb(178,0,0)" stroke-width="0.1"/>
  <path d="M 11.999745000000019,14.015971000000008 L 11.65644500000002,13.308970999999985" fill="none" stroke="rgb(178,0,0)" stroke-width="0.1"/>
  <path d="M 11.65644500000002,13.308970999999985 L 11.390345000000018,14.513970999999998" fill="none" stroke="rgb(178,0,0)" stroke-width="0.1"/>
  <path d="M 11.52334500000002,13.91097099999999 L 10.674845000000019,13.723971000000006" fill="none" stroke="rgb(178,0,0)" stroke-width="0.1"/>
  <path d="M 14.246445000000016,11.438970999999981 L 13.15644500000002,11.78397099999998" fill="none" stroke="rgb(178,0,0)" stroke-width="0.1"/>
  <path d="M 13.40304500000002,10.667970999999994 L 14.246445000000016,11.438970999999981" fill="none" stroke="rgb(178,0,0)" stroke-width="0.1"/>
  <path d="M 13.884045000000022,13.080971000000005 L 12.794045000000018,13.424971" fill="none" stroke="rgb(178,0,0)" stroke-width="0.1"/>
  <path d="M 13.040545000000016,12.308970999999985 L 13.884045000000022,13.080971000000005" fill="none" stroke="rgb(178,0,0)" stroke-width="0.1"/>
  <path d="M 13.15644500000002,11.78397099999998 L 13.40304500000002,10.667970999999994" fill="none" stroke="rgb(178,0,0)" stroke-width="0.1"/>
  <path d="M 13.530345000000018,11.128971000000007 L 13.820345000000017,11.192971" fill="none" stroke="rgb(178,0,0)" stroke-width="0.1"/>
  <path d="M 13.820345000000017,11.192971 L 13.756345000000017,11.482970999999992" fill="none" stroke="rgb(178,0,0)" stroke-width="0.1"/>
  <path d="M 13.756345000000017,11.482970999999992 L 13.466245000000022,11.418970999999999" fill="none" stroke="rgb(178,0,0)" stroke-width="0.1"/>
  <path d="M 13.466245000000022,11.418970999999999 L 13.530345000000018,11.128971000000007" fill="none" stroke="rgb(178,0,0)" stroke-width="0.1"/>
  <path d="M 13.167945000000017,12.769970999999998 L 13.457945000000016,12.833970999999991" fill="none" stroke="rgb(178,0,0)" stroke-width="0.1"/>
  <path d="M 13.457945000000016,12.833970999999991 L 13.39384500000002,13.123970999999983" fill="none" stroke="rgb(178,0,0)" stroke-width="0.1"/>
  <path d="M 13.39384500000002,13.123970999999983 L 13.103845000000021,13.05997099999999" fill="none" stroke="rgb(178,0,0)" stroke-width="0.1"/>
  <path d="M 13.103845000000021,13.05997099999999 L 13.167945000000017,12.769970999999998" fill="none" stroke="rgb(178,0,0)" stroke-width="0.1"/>
  <path d="M 12.794045000000018,13.424971 L 13.040545000000016,12.308970999999985" fill="none" stroke="rgb(178,0,0)" stroke-width="0.1"/>
  <path d="M 13.28444500000002,8.468970999999982 L 11.331445000000016,8.036970999999994" fill="none" stroke="rgb(178,0,0)" stroke-width="0.1"/>
  <path d="M 11.331445000000016,8.036970999999994 L 9.82194500000002,14.872971000000007" fill="none" stroke="rgb(178,0,0)" stroke-width="0.1"/>
  <path d="M 9.82194500000002,14.872971000000007 L 11.77484500000002,15.30397099999999" fill="none" stroke="rgb(178,0,0)" stroke-width="0.1"/>
  <path d="M 11.77484500000002,15.30397099999999 L 13.28444500000002,8.468970999999982" fill="none" stroke="rgb(178,0,0)" stroke-width="0.1"/>
  <path d="M 12.127845000000022,13.705971000000005 L 12.931445000000018,10.066970999999995" fill="none" stroke="rgb(178,0,0)" stroke-width="0.1"/>
  <path d="M 12.931445000000018,10.066970999999995 L 14.722745000000018,10.461971000000005" fill="none" stroke="rgb(178,0,0)" stroke-width="0.1"/>
  <path d="M 14.722745000000018,10.461971000000005 L 13.919145000000022,14.100970999999987" fill="none" stroke="rgb(178,0,0)" stroke-width="0.1"/>
  <path d="M 13.919145000000022,14.100970999999987 L 12.127845000000022,13.705971000000005" fill="none" stroke="rgb(178,0,0)" stroke-width="0.1"/>
  <path d="M 11.390345000000018,14.513970999999998 L 11.999745000000019,14.015971000000008" fill="none" stroke="rgb(178,0,0)" stroke-width="0.1"/>
  <path d="M 11.999745000000019,14.015971000000008 L 11.65644500000002,13.308970999999985" fill="none" stroke="rgb(178,0,0)" stroke-width="0.1"/>
  <path d="M 11.65644500000002,13.308970999999985 L 11.390345000000018,14.513970999999998" fill="none" stroke="rgb(178,0,0)" stroke-width="0.1"/>
  <ellipse cx="13.619045000000021" cy="11.28397099999998" fill="none" rx="0.717653" ry="0.717653" stroke="rgb(178,0,0)" stroke-width="0.1" transform="rotate(-32.5467,13.619045000000021,11.28397099999998)"/>
  <ellipse cx="13.253345000000017" cy="12.939970999999986" fill="none" rx="0.717653" ry="0.717653" stroke="rgb(178,0,0)" stroke-width="0.1" transform="rotate(-32.5467,13.253345000000017,12.939970999999986)"/>
 </g>
 <g id="layerP-VPIPE-HYDR-1_消防" inkscape:groupmode="layer" inkscape:label="P-VPIPE-HYDR-1_消防">
  <circle cx="2.4262450000000158" cy="10.849970999999982" fill="none" r="0.75" stroke="rgb(178,0,0)" stroke-width="0.1"/>
  <circle cx="12.639745000000019" cy="6.7919709999999895" fill="none" r="0.75" stroke="rgb(178,0,0)" stroke-width="0.1"/>
 </g>
 <g id="layerPri_text【私人文字标注】" inkscape:groupmode="layer" inkscape:label="Pri_text【私人文字标注】">
  <path d="M 36.485345000000024,93.745971 L 44.59054500000002,88.63897099999997" fill="none" stroke="rgb(178,88,0)" stroke-width="0.1"/>
  <path d="M 44.59054500000002,88.63897099999997 L 74.80664500000002,88.63897099999997" fill="none" stroke="rgb(178,88,0)" stroke-width="0.1"/>
  <path d="M 49.01614500000002,18.232970999999992 L 43.21564500000002,23.849970999999982" fill="none" stroke="rgb(178,88,0)" stroke-width="0.1"/>
  <path d="M 43.21564500000002,23.849970999999982 L 30.29514500000002,23.849970999999982" fill="none" stroke="rgb(178,88,0)" stroke-width="0.1"/>
  <path d="M 36.231545000000025,93.90597099999997 A 0.30006636349314275,0.30006636349314275 0.0 1,0 36.739245000000025,93.58597099999997" fill="none" stroke="rgb(178,88,0)" stroke-width="0.1"/>
  <path d="M 36.739245000000025,93.58597099999997 A 0.30006636349314275,0.30006636349314275 0.0 1,0 36.231545000000025,93.90597099999997" fill="none" stroke="rgb(178,88,0)" stroke-width="0.1"/>
  <path d="M 49.231645000000015,18.024970999999994 A 0.3,0.3 0.0 1,0 48.80064500000002,18.441970999999995" fill="none" stroke="rgb(178,88,0)" stroke-width="0.1"/>
  <path d="M 48.80064500000002,18.441970999999995 A 0.3,0.3 0.0 1,0 49.231645000000015,18.024970999999994" fill="none" stroke="rgb(178,88,0)" stroke-width="0.1"/>
  <text fill="rgb(0,0,0)" font-family="Noto Sans CJK SC" font-size="2" transform="rotate(-0.0,41.91764500000002,87.04197099999999)" x="41.91764500000002" y="87.04197099999999">
   玻璃栏板1100高
  </text>
  <text fill="rgb(0,0,0)" font-family="Noto Sans CJK SC" font-size="2" transform="rotate(-0.0,31.870145000000022,22.274970999999994)" x="31.870145000000022" y="22.274970999999994">
   钢柱
  </text>
 </g>
 <g id="layerPub_text【公共文字标注】" inkscape:groupmode="layer" inkscape:label="Pub_text【公共文字标注】">
  <text fill="rgb(0,0,0)" font-family="Noto Sans CJK SC" font-size="2" transform="rotate(-0.0,29.64964500000002,8.129970999999983)" x="29.64964500000002" y="8.129970999999983">
   走道
  </text>
 </g>
 <g id="layerStair【楼梯、电梯】" inkscape:groupmode="layer" inkscape:label="Stair【楼梯、电梯】">
  <path d="M 73.49564500000002,19.758971000000003 L 63.72964500000002,17.608970999999997" fill="none" instance-id="1" semantic-id="32" stroke="rgb(89,89,89)" stroke-width="0.1"/>
  <path d="M 77.84643331705422,0.0 L 70.45064500000002,33.586971000000005" fill="none" instance-id="1" semantic-id="32" stroke="rgb(89,89,89)" stroke-width="0.1"/>
  <path d="M 67.60665704079965,0.0 L 60.68464500000002,31.43697099999997" fill="none" instance-id="1" semantic-id="32" stroke="rgb(89,89,89)" stroke-width="0.1"/>
  <path d="M 58.69764500000002,36.858971 L 58.111645000000024,36.72997099999998" fill="none" instance-id="1" semantic-id="32" stroke="rgb(89,89,89)" stroke-width="0.1"/>
  <path d="M 58.111645000000024,36.72997099999998 L 66.19922500669318,0.0" fill="none" instance-id="1" semantic-id="32" stroke="rgb(89,89,89)" stroke-width="0.1"/>
  <path d="M 66.81351469380233,0.0 L 58.69764500000002,36.858971" fill="none" instance-id="1" semantic-id="32" stroke="rgb(89,89,89)" stroke-width="0.1"/>
  <path d="M 59.752645000000015,32.06697099999997 L 60.68464500000002,31.43697099999997" fill="none" instance-id="1" semantic-id="32" stroke="rgb(89,89,89)" stroke-width="0.1"/>
  <path d="M 59.16664500000002,31.937971000000005 L 58.61364500000002,30.844970999999987" fill="none" instance-id="1" semantic-id="32" stroke="rgb(89,89,89)" stroke-width="0.1"/>
  <path d="M 70.30464500000002,39.41497099999998 L 70.89064500000002,39.543971" fill="none" instance-id="1" semantic-id="32" stroke="rgb(89,89,89)" stroke-width="0.1"/>
  <path d="M 70.89064500000002,39.543971 L 79.59730942651413,0.0" fill="none" instance-id="1" semantic-id="32" stroke="rgb(89,89,89)" stroke-width="0.1"/>
  <path d="M 78.982888252204,0.0 L 70.30464500000002,39.41497099999998" fill="none" instance-id="1" semantic-id="32" stroke="rgb(89,89,89)" stroke-width="0.1"/>
  <path d="M 71.35964500000001,34.621970999999974 L 70.45064500000002,33.586971000000005" fill="none" instance-id="1" semantic-id="32" stroke="rgb(89,89,89)" stroke-width="0.1"/>
  <path d="M 71.94564500000001,34.75097099999999 L 73.15064500000003,34.04597100000001" fill="none" instance-id="1" semantic-id="32" stroke="rgb(89,89,89)" stroke-width="0.1"/>
  <path d="M 73.15064500000003,34.04597100000001 L 80.64679316398532,0.0" fill="none" instance-id="1" semantic-id="32" stroke="rgb(89,89,89)" stroke-width="0.1"/>
  <path d="M 72.85064500000001,22.68897099999998 L 63.08464500000002,20.53797099999997" fill="none" instance-id="1" semantic-id="32" stroke="rgb(89,89,89)" stroke-width="0.1"/>
  <path d="M 72.20564500000002,25.618970999999988 L 62.43964500000001,23.467970999999977" fill="none" instance-id="1" semantic-id="32" stroke="rgb(89,89,89)" stroke-width="0.1"/>
  <path d="M 71.56064500000002,28.547971000000018 L 61.79464500000002,26.397970999999984" fill="none" instance-id="1" semantic-id="32" stroke="rgb(89,89,89)" stroke-width="0.1"/>
  <path d="M 61.79464500000002,26.397970999999984 L 71.56064500000002,28.547971000000018" fill="none" instance-id="1" semantic-id="32" stroke="rgb(89,89,89)" stroke-width="0.1"/>
  <path d="M 84.50188048375657,0.0 L 76.79864500000002,34.98497099999997" fill="none" instance-id="2" semantic-id="32" stroke="rgb(89,89,89)" stroke-width="0.1"/>
  <path d="M 94.74169629396596,0.0 L 86.56464500000001,37.13497100000001" fill="none" instance-id="2" semantic-id="32" stroke="rgb(89,89,89)" stroke-width="0.1"/>
  <path d="M 86.09164500000003,42.89097099999998 L 86.67764500000001,43.019971" fill="none" instance-id="2" semantic-id="32" stroke="rgb(89,89,89)" stroke-width="0.1"/>
  <path d="M 86.67764500000001,43.019971 L 96.14953459091842,0.0" fill="none" instance-id="2" semantic-id="32" stroke="rgb(89,89,89)" stroke-width="0.1"/>
  <path d="M 95.53511294376611,0.0 L 86.09164500000003,42.89097099999998" fill="none" instance-id="2" semantic-id="32" stroke="rgb(89,89,89)" stroke-width="0.1"/>
  <path d="M 87.146645,38.09797099999997 L 86.56464500000001,37.13497100000001" fill="none" instance-id="2" semantic-id="32" stroke="rgb(89,89,89)" stroke-width="0.1"/>
  <path d="M 87.73264500000002,38.22697099999999 L 88.69364500000003,37.46797099999998" fill="none" instance-id="2" semantic-id="32" stroke="rgb(89,89,89)" stroke-width="0.1"/>
  <path d="M 74.48464500000001,40.334970999999996 L 73.89864500000002,40.20597099999998" fill="none" instance-id="2" semantic-id="32" stroke="rgb(89,89,89)" stroke-width="0.1"/>
  <path d="M 73.89864500000002,40.20597099999998 L 82.75151547095489,0.0" fill="none" instance-id="2" semantic-id="32" stroke="rgb(89,89,89)" stroke-width="0.1"/>
  <path d="M 83.36579391148523,0.0 L 74.48464500000001,40.334970999999996" fill="none" instance-id="2" semantic-id="32" stroke="rgb(89,89,89)" stroke-width="0.1"/>
  <path d="M 75.53964500000002,35.542970999999966 L 76.79864500000002,34.98497099999997" fill="none" instance-id="2" semantic-id="32" stroke="rgb(89,89,89)" stroke-width="0.1"/>
  <path d="M 74.95364500000002,35.413971000000004 L 74.15664500000001,34.26697100000001" fill="none" instance-id="2" semantic-id="32" stroke="rgb(89,89,89)" stroke-width="0.1"/>
  <path d="M 74.15664500000001,34.26697100000001 L 81.70180519276364,0.0" fill="none" instance-id="2" semantic-id="32" stroke="rgb(89,89,89)" stroke-width="0.1"/>
  <path d="M 79.19864500000001,24.085970999999972 L 88.96464500000002,26.236970999999983" fill="none" instance-id="2" semantic-id="32" stroke="rgb(89,89,89)" stroke-width="0.1"/>
  <path d="M 78.55364500000002,27.01597099999998 L 88.31964500000001,29.16697099999999" fill="none" instance-id="2" semantic-id="32" stroke="rgb(89,89,89)" stroke-width="0.1"/>
  <path d="M 77.90864500000002,29.945970999999986 L 87.67464500000003,32.09597100000002" fill="none" instance-id="2" semantic-id="32" stroke="rgb(89,89,89)" stroke-width="0.1"/>
  <path d="M 87.67464500000003,32.09597100000002 L 77.90864500000002,29.945970999999986" fill="none" instance-id="2" semantic-id="32" stroke="rgb(89,89,89)" stroke-width="0.1"/>
  <path d="M 84.35964500000003,0.6479709999999841 L 94.12564500000002,2.7979709999999898" fill="none" instance-id="2" semantic-id="32" stroke="rgb(89,89,89)" stroke-width="0.1"/>
  <path d="M 83.71464500000002,3.577970999999991 L 93.48064500000001,5.727970999999997" fill="none" instance-id="2" semantic-id="32" stroke="rgb(89,89,89)" stroke-width="0.1"/>
  <path d="M 83.06964500000002,6.507970999999998 L 92.83564500000003,8.657971000000003" fill="none" instance-id="2" semantic-id="32" stroke="rgb(89,89,89)" stroke-width="0.1"/>
  <path d="M 82.42364500000002,9.436971 L 92.19064500000002,11.587970999999982" fill="none" instance-id="2" semantic-id="32" stroke="rgb(89,89,89)" stroke-width="0.1"/>
  <path d="M 81.77864500000001,12.366971000000007 L 91.54464500000003,14.517970999999989" fill="none" instance-id="2" semantic-id="32" stroke="rgb(89,89,89)" stroke-width="0.1"/>
  <path d="M 81.13364500000002,15.296970999999985 L 90.89964500000002,17.44697099999999" fill="none" instance-id="2" semantic-id="32" stroke="rgb(89,89,89)" stroke-width="0.1"/>
  <path d="M 80.48864500000002,18.226970999999992 L 90.25464500000001,20.37697099999997" fill="none" instance-id="2" semantic-id="32" stroke="rgb(89,89,89)" stroke-width="0.1"/>
  <path d="M 90.25464500000001,20.37697099999997 L 80.48864500000002,18.226970999999992" fill="none" instance-id="2" semantic-id="32" stroke="rgb(89,89,89)" stroke-width="0.1"/>
  <path d="M 79.84364500000002,21.156971 L 89.60964500000003,23.306970999999976" fill="none" instance-id="2" semantic-id="32" stroke="rgb(89,89,89)" stroke-width="0.1"/>
  <path d="M 77.36664500000002,2.1799709999999948 L 67.60064500000001,0.02997099999998909" fill="none" instance-id="1" semantic-id="32" stroke="rgb(89,89,89)" stroke-width="0.1"/>
  <path d="M 76.72164500000002,5.109971000000002 L 66.95564500000002,2.959970999999996" fill="none" instance-id="1" semantic-id="32" stroke="rgb(89,89,89)" stroke-width="0.1"/>
  <path d="M 76.07664500000001,8.03997099999998 L 66.30964500000002,5.888970999999998" fill="none" instance-id="1" semantic-id="32" stroke="rgb(89,89,89)" stroke-width="0.1"/>
  <path d="M 75.43064500000001,10.968970999999982 L 65.66464500000002,8.818971000000005" fill="none" instance-id="1" semantic-id="32" stroke="rgb(89,89,89)" stroke-width="0.1"/>
  <path d="M 74.78564500000002,13.898970999999989 L 65.01964500000003,11.748970999999983" fill="none" instance-id="1" semantic-id="32" stroke="rgb(89,89,89)" stroke-width="0.1"/>
  <path d="M 74.14064500000002,16.828970999999996 L 64.37464500000002,14.67897099999999" fill="none" instance-id="1" semantic-id="32" stroke="rgb(89,89,89)" stroke-width="0.1"/>
  <path d="M 64.37464500000002,14.67897099999999 L 74.14064500000002,16.828970999999996" fill="none" instance-id="1" semantic-id="32" stroke="rgb(89,89,89)" stroke-width="0.1"/>
  <path d="M 73.15064500000003,34.04597100000001 L 74.15664500000001,34.26697100000001" fill="none" stroke="rgb(89,89,89)" stroke-width="0.1"/>
  <path d="M 70.26664500000003,39.584970999999996 L 69.83664500000002,41.53797099999997" fill="none" instance-id="1" semantic-id="32" stroke="rgb(89,89,89)" stroke-width="0.1"/>
  <path d="M 69.83664500000002,41.53797099999997 L 74.01664500000003,42.45897100000002" fill="none" stroke="rgb(89,89,89)" stroke-width="0.1"/>
  <path d="M 74.01664500000003,42.45897100000002 L 74.44664500000002,40.50597099999999" fill="none" instance-id="2" semantic-id="32" stroke="rgb(89,89,89)" stroke-width="0.1"/>
  <path d="M 74.44664500000002,40.50597099999999 L 73.95864500000002,40.397970999999984" fill="none" instance-id="2" semantic-id="32" stroke="rgb(89,89,89)" stroke-width="0.1"/>
  <path d="M 73.95864500000002,40.397970999999984 L 73.63564500000003,41.862971000000016" fill="none" instance-id="2" semantic-id="32" stroke="rgb(89,89,89)" stroke-width="0.1"/>
  <path d="M 73.63564500000003,41.862971000000016 L 70.43264500000002,41.157970999999975" fill="none" stroke="rgb(89,89,89)" stroke-width="0.1"/>
  <path d="M 70.43264500000002,41.157970999999975 L 70.75564500000002,39.692971" fill="none" instance-id="1" semantic-id="32" stroke="rgb(89,89,89)" stroke-width="0.1"/>
  <path d="M 70.75564500000002,39.692971 L 70.26664500000003,39.584970999999996" fill="none" instance-id="1" semantic-id="32" stroke="rgb(89,89,89)" stroke-width="0.1"/>
  <path d="M 65.40525087870098,0.0 L 56.155345000000025,42.00997100000001" fill="none" instance-id="1" semantic-id="32" stroke="rgb(89,89,89)" stroke-width="0.1"/>
  <path d="M 56.155345000000025,42.00997100000001 L 70.69264500000001,45.21097099999997" fill="none" instance-id="1" semantic-id="32" stroke="rgb(89,89,89)" stroke-width="0.1"/>
  <path d="M 70.69264500000001,45.21097099999997 L 73.15064500000003,34.04597100000001" fill="none" instance-id="1" semantic-id="32" stroke="rgb(89,89,89)" stroke-width="0.1"/>
  <path d="M 56.155345000000025,42.00997100000001 L 55.779045000000025,43.71897100000001" fill="none" instance-id="1" semantic-id="32" stroke="rgb(89,89,89)" stroke-width="0.1"/>
  <path d="M 55.779045000000025,43.71897100000001 L 70.31564500000002,46.919970999999975" fill="none" instance-id="1" semantic-id="32" stroke="rgb(89,89,89)" stroke-width="0.1"/>
  <path d="M 70.31564500000002,46.919970999999975 L 70.69264500000001,45.21097099999997" fill="none" instance-id="1" semantic-id="32" stroke="rgb(89,89,89)" stroke-width="0.1"/>
  <path d="M 96.94326388756491,0.0 L 86.23464500000003,48.632971" fill="none" instance-id="2" semantic-id="32" stroke="rgb(89,89,89)" stroke-width="0.1"/>
  <path d="M 86.23464500000003,48.632971 L 71.69764500000002,45.431970999999976" fill="none" instance-id="2" semantic-id="32" stroke="rgb(89,89,89)" stroke-width="0.1"/>
  <path d="M 71.69764500000002,45.431970999999976 L 74.15664500000001,34.26697100000001" fill="none" instance-id="2" semantic-id="32" stroke="rgb(89,89,89)" stroke-width="0.1"/>
  <path d="M 71.69764500000002,45.431970999999976 L 71.32164500000002,47.14097099999998" fill="none" instance-id="2" semantic-id="32" stroke="rgb(89,89,89)" stroke-width="0.1"/>
  <path d="M 71.32164500000002,47.14097099999998 L 85.85864500000002,50.341971" fill="none" instance-id="2" semantic-id="32" stroke="rgb(89,89,89)" stroke-width="0.1"/>
  <path d="M 85.85864500000002,50.341971 L 86.23464500000003,48.632971" fill="none" instance-id="2" semantic-id="32" stroke="rgb(89,89,89)" stroke-width="0.1"/>
 </g>
 <g id="layerWINDOW" inkscape:groupmode="layer" inkscape:label="WINDOW">
  <path d="M 0.0,85.67421553534433 L 2.080245000000019,88.92897099999999" fill="none" stroke="rgb(0,178,178)" stroke-width="0.1"/>
  <path d="M 0.0,94.68295598252786 L 0.9465450000000217,94.07797099999999" fill="none" stroke="rgb(0,178,178)" stroke-width="0.1"/>
  <path d="M 0.0,86.11963868419747 L 1.8780450000000215,89.05797100000001" fill="none" stroke="rgb(0,178,178)" stroke-width="0.1"/>
  <path d="M 0.0,92.95297899180326 L 0.9465450000000217,94.07797099999999" fill="none" stroke="rgb(0,178,178)" stroke-width="0.1"/>
  <path d="M 2.080245000000019,88.92897099999999 L 0.0,89.90266526194836" fill="none" stroke="rgb(0,178,178)" stroke-width="0.1"/>
 </g>
 <g id="layerWall【砖墙】" inkscape:groupmode="layer" inkscape:label="Wall【砖墙】">
  <path d="M 7.360145000000017,23.349970999999982 L 11.027245000000022,23.349970999999982" fill="none" stroke="rgb(178,178,0)" stroke-width="0.1"/>
  <path d="M 11.027245000000022,23.349970999999982 L 11.467545000000015,21.349970999999982" fill="none" stroke="rgb(178,178,0)" stroke-width="0.1"/>
  <path d="M 7.360145000000017,23.349970999999982 L 0.0,23.349970999999982" fill="none" stroke="rgb(178,178,0)" stroke-width="0.1"/>
  <path d="M 7.360145000000017,21.349970999999982 L 0.0,21.349970999999982" fill="none" stroke="rgb(178,178,0)" stroke-width="0.1"/>
  <path d="M 3.6510450000000176,56.84997099999998 L 0.0,56.84997099999998" fill="none" stroke="rgb(178,178,0)" stroke-width="0.1"/>
  <path d="M 4.0914450000000215,54.84997099999998 L 0.0,54.84997099999998" fill="none" stroke="rgb(178,178,0)" stroke-width="0.1"/>
  <path d="M 3.6510450000000176,56.84997099999998 L 4.0914450000000215,54.84997099999998" fill="none" stroke="rgb(178,178,0)" stroke-width="0.1"/>
 </g>
 <g id="layerWindow_fire【防火门窗及编号】" inkscape:groupmode="layer" inkscape:label="Window_fire【防火门窗及编号】">
  <text fill="rgb(178,0,0)" font-family="Noto Sans CJK SC" font-size="2" transform="rotate(-77.2092,32.148445000000024,79.36697099999998)" x="32.148445000000024" y="79.36697099999998">
   FHJL-3.0h
  </text>
 </g>
</svg>