<?xml version="1.0" encoding="utf-8"?>
<svg style="background-color: #000;" version="1.1" viewBox="0 0 100.0 100.0" xmlns="http://www.w3.org/2000/svg" xmlns:inkscape="http://www.inkscape.org/namespaces/inkscape">
 <g id="layer0-室内玻璃墙" inkscape:groupmode="layer" inkscape:label="0-室内玻璃墙">
  <path d="M 30.30374500000002,99.09797100000003 L 25.788045000000025,78.58897100000002" fill="none" instance-id="-1" semantic-id="2" stroke="rgb(0,178,0)" stroke-width="0.1"/>
  <path d="M 21.917445000000015,61.009971000000064 L 17.40174500000002,40.501971000000026" fill="none" instance-id="-1" semantic-id="2" stroke="rgb(0,178,0)" stroke-width="0.1"/>
  <path d="M 30.95484500000002,98.954971 L 26.439145000000025,78.4459710000001" fill="none" instance-id="-1" semantic-id="2" stroke="rgb(0,178,0)" stroke-width="0.1"/>
  <path d="M 22.568545000000015,60.866971000000035 L 18.05284500000002,40.35797100000002" fill="none" instance-id="-1" semantic-id="2" stroke="rgb(0,178,0)" stroke-width="0.1"/>
  <path d="M 31.605845000000016,98.810971 L 27.09014500000002,78.30297100000007" fill="none" instance-id="-1" semantic-id="2" stroke="rgb(0,178,0)" stroke-width="0.1"/>
  <path d="M 27.09014500000002,78.30297100000007 L 25.136945000000026,78.73297100000002" fill="none" instance-id="-1" semantic-id="2" stroke="rgb(0,178,0)" stroke-width="0.1"/>
  <path d="M 25.136945000000026,78.73297100000002 L 29.65264500000002,99.24197100000004" fill="none" instance-id="-1" semantic-id="2" stroke="rgb(0,178,0)" stroke-width="0.1"/>
  <path d="M 16.750745000000016,40.644971000000055 L 21.266345000000015,61.15397100000007" fill="none" instance-id="-1" semantic-id="2" stroke="rgb(0,178,0)" stroke-width="0.1"/>
  <path d="M 21.266345000000015,61.15397100000007 L 23.219645000000014,60.723971000000006" fill="none" instance-id="-1" semantic-id="2" stroke="rgb(0,178,0)" stroke-width="0.1"/>
  <path d="M 23.219645000000014,60.723971000000006 L 18.70394500000002,40.214971000000105" fill="none" instance-id="-1" semantic-id="2" stroke="rgb(0,178,0)" stroke-width="0.1"/>
 </g>
 <g id="layer0-辅助线" inkscape:groupmode="layer" inkscape:label="0-辅助线">
  <path d="M 76.83664500000002,100.0 L 76.83664500000002,87.0899710000001" fill="none" stroke="rgb(89,89,89)" stroke-width="0.1"/>
 </g>
 <g id="layerColumn【柱】" inkscape:groupmode="layer" inkscape:label="Column【柱】">
  <path d="M 9.654645000000016,16.849971000000096 L 9.654645000000016,8.849971000000096" fill="none" stroke="rgb(178,0,178)" stroke-width="0.1"/>
  <path d="M 9.654645000000016,8.849971000000096 L 1.6546450000000164,8.849971000000096" fill="none" stroke="rgb(178,0,178)" stroke-width="0.1"/>
  <path d="M 1.6546450000000164,8.849971000000096 L 1.6546450000000164,16.849971000000096" fill="none" stroke="rgb(178,0,178)" stroke-width="0.1"/>
  <path d="M 1.6546450000000164,16.849971000000096 L 9.654645000000016,16.849971000000096" fill="none" stroke="rgb(178,0,178)" stroke-width="0.1"/>
 </g>
 <g id="layerDIM_SYMB" inkscape:groupmode="layer" inkscape:label="DIM_SYMB">
  <path d="M 100.0,75.83440697037531 L 90.05264500000001,30.65797100000009" fill="none" stroke="rgb(0,178,0)" stroke-width="0.1"/>
  <path d="M 90.05264500000001,30.65797100000009 L 89.08564500000003,26.263971000000083" fill="none" stroke="rgb(0,178,0)" stroke-width="0.1"/>
  <path d="M 72.97164500000002,29.811971000000085 L 83.19864500000001,76.2629710000001" fill="none" stroke="rgb(0,178,0)" stroke-width="0.1"/>
  <path d="M 83.19864500000001,76.2629710000001 L 84.16664500000002,80.656971" fill="none" stroke="rgb(0,178,0)" stroke-width="0.1"/>
 </g>
 <g id="layerDote【轴线】" inkscape:groupmode="layer" inkscape:label="Dote【轴线】">
  <path d="M 0.0,12.849971000000096 L 100.0,12.849971000000096" fill="none" stroke="rgb(53,107,107)" stroke-width="0.1"/>
  <path d="M 5.654645000000016,100.0 L 5.654645000000016,0.0" fill="none" stroke="rgb(53,107,107)" stroke-width="0.1"/>
  <path d="M 99.65464500000002,100.0 L 99.65464500000002,0.0" fill="none" stroke="rgb(53,107,107)" stroke-width="0.1"/>
 </g>
 <g id="layerF-儿童游艺场所" inkscape:groupmode="layer" inkscape:label="F-儿童游艺场所">
  <path d="M 9.84917187695055,0.0 L 31.867499906943294,100.0" fill="none" stroke="rgb(53,93,107)" stroke-width="0.1"/>
 </g>
 <g id="layerFLOR 地坪线" inkscape:groupmode="layer" inkscape:label="FLOR 地坪线">
  <path d="M 53.36729202745495,0.0 L 75.38564211457998,100.0" fill="none" stroke="rgb(0,0,178)" stroke-width="0.1"/>
 </g>
 <g id="layerFire_RS【防火卷帘】" inkscape:groupmode="layer" inkscape:label="Fire_RS【防火卷帘】">
  <path d="M 47.05264500000001,10.849971000000096 L 12.23824500000002,10.849971000000096" fill="none" instance-id="-1" semantic-id="1" stroke="rgb(255,12,12)" stroke-width="0.1"/>
  <path d="M 47.93334500000002,14.849971000000096 L 13.118945000000018,14.849971000000096" fill="none" instance-id="-1" semantic-id="1" stroke="rgb(255,12,12)" stroke-width="0.1"/>
  <path d="M 71.89155411420607,100.0 L 53.34544500000001,15.769971000000055" fill="none" instance-id="-1" semantic-id="1" stroke="rgb(255,12,12)" stroke-width="0.1"/>
  <path d="M 67.79591582124371,100.0 L 49.43904500000002,16.62997100000007" fill="none" instance-id="-1" semantic-id="1" stroke="rgb(255,12,12)" stroke-width="0.1"/>
  <path d="M 51.62524500000002,7.956971000000067 L 49.873250097141934,0.0" fill="none" instance-id="-1" semantic-id="1" stroke="rgb(255,12,12)" stroke-width="0.1"/>
  <path d="M 47.71874500000001,8.81697100000008 L 45.77739536179662,0.0" fill="none" instance-id="-1" semantic-id="1" stroke="rgb(255,12,12)" stroke-width="0.1"/>
  <path d="M 28.676045000000016,99.45697100000007 L 26.20943048186072,100.0" fill="none" instance-id="-1" semantic-id="1" stroke="rgb(255,12,12)" stroke-width="0.1"/>
  <path d="M 25.723792829376933,100.0 L 12.844245000000022,41.50497100000007" fill="none" instance-id="-1" semantic-id="1" stroke="rgb(255,12,12)" stroke-width="0.1"/>
  <path d="M 12.844245000000022,41.50497100000007 L 15.774145000000019,40.85997100000009" fill="none" instance-id="-1" semantic-id="1" stroke="rgb(255,12,12)" stroke-width="0.1"/>
  <path d="M 15.774145000000019,40.85997100000009 L 28.676045000000016,99.45697100000007" fill="none" instance-id="-1" semantic-id="1" stroke="rgb(255,12,12)" stroke-width="0.1"/>
 </g>
 <g id="layerHandrail【栏杆】" inkscape:groupmode="layer" inkscape:label="Handrail【栏杆】">
  <path d="M 52.34305560028679,0.0 L 74.36119943225775,100.0" fill="none" instance-id="-1" semantic-id="33" stroke="rgb(53,107,107)" stroke-width="0.1"/>
  <path d="M 82.46113624285542,100.0 L 81.98964500000002,97.85797100000002" fill="none" instance-id="-1" semantic-id="33" stroke="rgb(53,107,107)" stroke-width="0.1"/>
  <path d="M 81.98964500000002,97.85797100000002 L 81.50164500000002,97.9649710000001" fill="none" instance-id="-1" semantic-id="33" stroke="rgb(53,107,107)" stroke-width="0.1"/>
  <path d="M 81.50164500000002,97.9649710000001 L 81.94969340168068,100.0" fill="none" instance-id="-1" semantic-id="33" stroke="rgb(53,107,107)" stroke-width="0.1"/>
  <path d="M 74.87341702481766,100.0 L 52.85512645305819,0.0" fill="none" instance-id="-1" semantic-id="33" stroke="rgb(53,107,107)" stroke-width="0.1"/>
 </g>
 <g id="layerLook_line【看线、投影线】" inkscape:groupmode="layer" inkscape:label="Look_line【看线、投影线】">
  <path d="M 73.8499430160176,100.0 L 51.831461644067105,0.0" fill="none" stroke="rgb(0,178,178)" stroke-width="0.1"/>
 </g>
 <g id="layerNEW-FNSH 新增完成面" inkscape:groupmode="layer" inkscape:label="NEW-FNSH 新增完成面">
  <path d="M 46.65654500000002,9.050971000000004 L 48.37684500000002,16.863971000000106" fill="none" stroke="rgb(178,88,0)" stroke-width="0.1"/>
  <path d="M 48.37684500000002,16.863971000000106 L 56.18964500000001,15.143971000000079" fill="none" stroke="rgb(178,88,0)" stroke-width="0.1"/>
  <path d="M 56.18964500000001,15.143971000000079 L 54.46944500000002,7.3309710000000905" fill="none" stroke="rgb(178,88,0)" stroke-width="0.1"/>
  <path d="M 54.46944500000002,7.3309710000000905 L 46.65654500000002,9.050971000000004" fill="none" stroke="rgb(178,88,0)" stroke-width="0.1"/>
  <path d="M 48.44404500000002,10.193971000000033 L 49.51914500000002,15.076971000000071" fill="none" stroke="rgb(178,88,0)" stroke-width="0.1"/>
  <path d="M 49.51914500000002,15.076971000000071 L 54.40224500000002,14.00097100000005" fill="none" stroke="rgb(178,88,0)" stroke-width="0.1"/>
  <path d="M 54.40224500000002,14.00097100000005 L 53.32704500000001,9.117971000000011" fill="none" stroke="rgb(178,88,0)" stroke-width="0.1"/>
  <path d="M 53.32704500000001,9.117971000000011 L 48.44404500000002,10.193971000000033" fill="none" stroke="rgb(178,88,0)" stroke-width="0.1"/>
 </g>
 <g id="layerNEW-WALL 新增墙体" inkscape:groupmode="layer" inkscape:label="NEW-WALL 新增墙体">
  <path d="M 8.660145000000021,17.85197100000005 L 8.439545000000017,16.849971000000096" fill="none" instance-id="-1" semantic-id="1" stroke="rgb(178,178,0)" stroke-width="0.1"/>
  <path d="M 13.97324500000002,18.72997100000009 L 11.043345000000016,19.374971000000073" fill="none" instance-id="-1" semantic-id="1" stroke="rgb(178,178,0)" stroke-width="0.1"/>
  <path d="M 11.043345000000016,19.374971000000073 L 13.193745000000021,29.140971000000036" fill="none" instance-id="-1" semantic-id="1" stroke="rgb(178,178,0)" stroke-width="0.1"/>
  <path d="M 13.193745000000021,29.140971000000036 L 16.12354500000002,28.495971000000054" fill="none" instance-id="-1" semantic-id="1" stroke="rgb(178,178,0)" stroke-width="0.1"/>
  <path d="M 16.12354500000002,28.495971000000054 L 16.983645000000017,32.401971" fill="none" instance-id="-1" semantic-id="1" stroke="rgb(178,178,0)" stroke-width="0.1"/>
  <path d="M 16.983645000000017,32.401971 L 12.100645000000021,33.47697100000005" fill="none" instance-id="-1" semantic-id="1" stroke="rgb(178,178,0)" stroke-width="0.1"/>
  <path d="M 12.100645000000021,33.47697100000005 L 8.660145000000021,17.85197100000005" fill="none" instance-id="-1" semantic-id="1" stroke="rgb(178,178,0)" stroke-width="0.1"/>
  <path d="M 8.660145000000021,17.85197100000005 L 13.543145000000017,16.776971000000003" fill="none" instance-id="-1" semantic-id="1" stroke="rgb(178,178,0)" stroke-width="0.1"/>
  <path d="M 13.543145000000017,16.776971000000003 L 13.97324500000002,18.72997100000009" fill="none" instance-id="-1" semantic-id="1" stroke="rgb(178,178,0)" stroke-width="0.1"/>
 </g>
 <g id="layerP-EQPM-HYDR_消火栓" inkscape:groupmode="layer" inkscape:label="P-EQPM-HYDR_消火栓">
  <path d="M 13.198045000000022,29.13997100000006 L 13.641445000000019,21.872971000000007" fill="none" stroke="rgb(178,0,0)" stroke-width="0.1"/>
  <path d="M 14.812645000000018,27.4459710000001 L 14.469445000000022,28.15397100000007" fill="none" stroke="rgb(178,0,0)" stroke-width="0.1"/>
  <path d="M 14.812645000000018,27.4459710000001 L 14.203245000000017,26.94897100000003" fill="none" stroke="rgb(178,0,0)" stroke-width="0.1"/>
  <path d="M 14.203245000000017,26.94897100000003 L 14.469445000000022,28.15397100000007" fill="none" stroke="rgb(178,0,0)" stroke-width="0.1"/>
  <path d="M 14.336345000000016,27.550971000000004 L 13.487745000000018,27.738971000000106" fill="none" stroke="rgb(178,0,0)" stroke-width="0.1"/>
  <path d="M 15.765145000000018,24.162971000000084 L 14.921745000000016,24.933971000000042" fill="none" stroke="rgb(178,0,0)" stroke-width="0.1"/>
  <path d="M 14.675145000000022,23.817971000000057 L 15.765145000000018,24.162971000000084" fill="none" stroke="rgb(178,0,0)" stroke-width="0.1"/>
  <path d="M 16.12754500000002,25.803971000000047 L 15.284145000000017,26.574971000000005" fill="none" stroke="rgb(178,0,0)" stroke-width="0.1"/>
  <path d="M 15.037645000000019,25.45897100000002 L 16.12754500000002,25.803971000000047" fill="none" stroke="rgb(178,0,0)" stroke-width="0.1"/>
  <path d="M 14.921745000000016,24.933971000000042 L 14.675145000000022,23.817971000000057" fill="none" stroke="rgb(178,0,0)" stroke-width="0.1"/>
  <path d="M 14.984745000000018,24.18197100000009 L 15.274745000000017,24.11797100000001" fill="none" stroke="rgb(178,0,0)" stroke-width="0.1"/>
  <path d="M 15.274745000000017,24.11797100000001 L 15.33884500000002,24.40797100000009" fill="none" stroke="rgb(178,0,0)" stroke-width="0.1"/>
  <path d="M 15.33884500000002,24.40797100000009 L 15.048745000000018,24.471971000000053" fill="none" stroke="rgb(178,0,0)" stroke-width="0.1"/>
  <path d="M 15.048745000000018,24.471971000000053 L 14.984745000000018,24.18197100000009" fill="none" stroke="rgb(178,0,0)" stroke-width="0.1"/>
  <path d="M 15.347145000000019,25.822971000000052 L 15.637245000000021,25.758971000000088" fill="none" stroke="rgb(178,0,0)" stroke-width="0.1"/>
  <path d="M 15.637245000000021,25.758971000000088 L 15.701245000000021,26.04897100000005" fill="none" stroke="rgb(178,0,0)" stroke-width="0.1"/>
  <path d="M 15.701245000000021,26.04897100000005 L 15.411245000000015,26.112971000000016" fill="none" stroke="rgb(178,0,0)" stroke-width="0.1"/>
  <path d="M 15.411245000000015,26.112971000000016 L 15.347145000000019,25.822971000000052" fill="none" stroke="rgb(178,0,0)" stroke-width="0.1"/>
  <path d="M 15.284145000000017,26.574971000000005 L 15.037645000000019,25.45897100000002" fill="none" stroke="rgb(178,0,0)" stroke-width="0.1"/>
  <path d="M 13.641445000000019,21.872971000000007 L 11.688445000000016,22.304971000000023" fill="none" stroke="rgb(178,0,0)" stroke-width="0.1"/>
  <path d="M 11.688445000000016,22.304971000000023 L 13.198045000000022,29.13997100000006" fill="none" stroke="rgb(178,0,0)" stroke-width="0.1"/>
  <path d="M 13.198045000000022,29.13997100000006 L 15.151045000000018,28.70897100000002" fill="none" stroke="rgb(178,0,0)" stroke-width="0.1"/>
  <path d="M 15.151045000000018,28.70897100000002 L 13.641445000000019,21.872971000000007" fill="none" stroke="rgb(178,0,0)" stroke-width="0.1"/>
  <path d="M 14.798045000000016,27.109971000000087 L 13.99444500000002,23.471971000000053" fill="none" stroke="rgb(178,0,0)" stroke-width="0.1"/>
  <path d="M 13.99444500000002,23.471971000000053 L 15.78574500000002,23.075971000000095" fill="none" stroke="rgb(178,0,0)" stroke-width="0.1"/>
  <path d="M 15.78574500000002,23.075971000000095 L 16.589345000000016,26.714971000000105" fill="none" stroke="rgb(178,0,0)" stroke-width="0.1"/>
  <path d="M 16.589345000000016,26.714971000000105 L 14.798045000000016,27.109971000000087" fill="none" stroke="rgb(178,0,0)" stroke-width="0.1"/>
  <path d="M 14.469445000000022,28.15397100000007 L 14.812645000000018,27.4459710000001" fill="none" stroke="rgb(178,0,0)" stroke-width="0.1"/>
  <path d="M 14.812645000000018,27.4459710000001 L 14.203245000000017,26.94897100000003" fill="none" stroke="rgb(178,0,0)" stroke-width="0.1"/>
  <path d="M 14.203245000000017,26.94897100000003 L 14.469445000000022,28.15397100000007" fill="none" stroke="rgb(178,0,0)" stroke-width="0.1"/>
  <ellipse cx="15.13054500000002" cy="24.285971000000018" fill="none" rx="0.717653" ry="0.717653" stroke="rgb(178,0,0)" stroke-width="0.1" transform="rotate(-57.454,15.13054500000002,24.285971000000018)"/>
  <ellipse cx="15.49634500000002" cy="25.94197100000008" fill="none" rx="0.717653" ry="0.717653" stroke="rgb(178,0,0)" stroke-width="0.1" transform="rotate(-57.454,15.49634500000002,25.94197100000008)"/>
 </g>
 <g id="layerP-VPIPE-HYDR-1_消防" inkscape:groupmode="layer" inkscape:label="P-VPIPE-HYDR-1_消防">
  <circle cx="2.1546450000000164" cy="17.849971000000096" fill="none" r="0.75" stroke="rgb(178,0,0)" stroke-width="0.1"/>
  <circle cx="12.32084500000002" cy="20.509971000000064" fill="none" r="0.75" stroke="rgb(178,0,0)" stroke-width="0.1"/>
 </g>
 <g id="layerPri_text【私人文字标注】" inkscape:groupmode="layer" inkscape:label="Pri_text【私人文字标注】">
  <path d="M 50.98404500000002,14.753971000000092 L 46.972545000000025,29.079971" fill="none" stroke="rgb(178,88,0)" stroke-width="0.1"/>
  <path d="M 46.972545000000025,29.079971 L 36.15964500000001,29.079971" fill="none" stroke="rgb(178,88,0)" stroke-width="0.1"/>
  <path d="M 51.06494500000002,14.464971000000105 A 0.30009618874619765,0.30009618874619765 0.0 1,0 50.90324500000001,15.04297100000008" fill="none" stroke="rgb(178,88,0)" stroke-width="0.1"/>
  <path d="M 50.90324500000001,15.04297100000008 A 0.30009618874619765,0.30009618874619765 0.0 1,0 51.06494500000002,14.464971000000105" fill="none" stroke="rgb(178,88,0)" stroke-width="0.1"/>
  <text fill="rgb(0,0,0)" font-family="Noto Sans CJK SC" font-size="2" transform="rotate(-0.0,37.734645000000015,27.50497100000007)" x="37.734645000000015" y="27.50497100000007">
   钢柱
  </text>
 </g>
 <g id="layerPub_text【公共文字标注】" inkscape:groupmode="layer" inkscape:label="Pub_text【公共文字标注】">
  <text fill="rgb(0,0,0)" font-family="Noto Sans CJK SC" font-size="2" transform="rotate(-0.0,96.58664500000003,84.3019710000001)" x="96.58664500000003" y="84.3019710000001">
   3F上4F
  </text>
  <text fill="rgb(0,0,0)" font-family="Noto Sans CJK SC" font-size="2" transform="rotate(-0.0,80.73564500000002,89.901971)" x="80.73564500000002" y="89.901971">
   4F下3F
  </text>
 </g>
 <g id="layerStair【楼梯、电梯】" inkscape:groupmode="layer" inkscape:label="Stair【楼梯、电梯】">
  <path d="M 94.50564500000002,74.13097100000005 L 83.13764500000002,22.50097100000005" fill="none" stroke="rgb(44,178,0)" stroke-width="0.1"/>
  <path d="M 100.0,52.58145359155776 L 94.25064500000002,26.470971000000077" fill="none" stroke="rgb(44,178,0)" stroke-width="0.1"/>
  <path d="M 94.10764500000002,72.324971 L 100.0,71.02715658212173" fill="none" stroke="rgb(44,178,0)" stroke-width="0.1"/>
  <path d="M 93.46264500000001,69.39497100000006 L 100.0,67.95576218881843" fill="none" stroke="rgb(44,178,0)" stroke-width="0.1"/>
  <path d="M 92.81764500000003,66.4649710000001 L 100.0,64.88376444153187" fill="none" stroke="rgb(44,178,0)" stroke-width="0.1"/>
  <path d="M 92.17264500000002,63.53497100000004 L 100.0,61.81176669424542" fill="none" stroke="rgb(44,178,0)" stroke-width="0.1"/>
  <path d="M 91.52664500000003,60.60497100000009 L 100.0,58.73973978775473" fill="none" stroke="rgb(44,178,0)" stroke-width="0.1"/>
  <path d="M 90.88164500000002,57.675971000000004 L 100.0,55.667617364427656" fill="none" stroke="rgb(44,178,0)" stroke-width="0.1"/>
  <path d="M 90.23664500000001,54.745971000000054 L 100.0,52.59655330083979" fill="none" stroke="rgb(44,178,0)" stroke-width="0.1"/>
  <path d="M 89.59164500000003,51.815971000000104 L 99.35764500000002,49.66597100000001" fill="none" stroke="rgb(44,178,0)" stroke-width="0.1"/>
  <path d="M 88.94664500000002,48.88597100000004 L 98.71264500000001,46.73597100000006" fill="none" stroke="rgb(44,178,0)" stroke-width="0.1"/>
  <path d="M 88.30164500000001,45.95597100000009 L 98.06764500000003,43.805971" fill="none" stroke="rgb(44,178,0)" stroke-width="0.1"/>
  <path d="M 87.42764500000001,41.987971000000016 L 97.19364500000003,39.83697100000006" fill="none" stroke="rgb(44,178,0)" stroke-width="0.1"/>
  <path d="M 86.78264500000003,39.057971000000066 L 96.54864500000002,36.90797100000009" fill="none" stroke="rgb(44,178,0)" stroke-width="0.1"/>
  <path d="M 86.13764500000002,36.127971 L 95.90364500000001,33.977971000000025" fill="none" stroke="rgb(44,178,0)" stroke-width="0.1"/>
  <path d="M 85.49264500000001,33.19797100000005 L 95.25864500000003,31.047971000000075" fill="none" stroke="rgb(44,178,0)" stroke-width="0.1"/>
  <path d="M 84.84764500000003,30.26897100000008 L 94.61364500000002,28.11797100000001" fill="none" stroke="rgb(44,178,0)" stroke-width="0.1"/>
  <path d="M 84.20264500000002,27.338971000000015 L 91.92164500000001,25.638971000000083" fill="none" stroke="rgb(44,178,0)" stroke-width="0.1"/>
  <path d="M 93.76064500000001,25.233970999999997 L 93.96864500000001,25.18797100000006" fill="none" stroke="rgb(44,178,0)" stroke-width="0.1"/>
  <path d="M 83.55764500000002,24.408971000000065 L 93.32364500000003,22.258971000000088" fill="none" stroke="rgb(44,178,0)" stroke-width="0.1"/>
  <path d="M 82.91164500000002,21.478971 L 92.67864500000002,19.328971000000024" fill="none" stroke="rgb(89,89,89)" stroke-width="0.1"/>
  <path d="M 82.26664500000003,18.54897100000005 L 92.03264500000003,16.398971000000074" fill="none" stroke="rgb(89,89,89)" stroke-width="0.1"/>
  <path d="M 81.62164500000002,15.618971000000101 L 91.38764500000002,13.46897100000001" fill="none" stroke="rgb(89,89,89)" stroke-width="0.1"/>
  <path d="M 80.97664500000002,12.689971000000014 L 90.74264500000001,10.53897100000006" fill="none" stroke="rgb(89,89,89)" stroke-width="0.1"/>
  <path d="M 80.33164500000002,9.759971000000064 L 90.09764500000003,7.608970999999997" fill="none" stroke="rgb(89,89,89)" stroke-width="0.1"/>
  <path d="M 79.68664500000001,6.8299710000000005 L 89.45264500000002,4.679971000000023" fill="none" stroke="rgb(89,89,89)" stroke-width="0.1"/>
  <path d="M 79.04164500000002,3.8999710000000505 L 88.80764500000001,1.7499710000000732" fill="none" stroke="rgb(89,89,89)" stroke-width="0.1"/>
  <path d="M 78.39664500000002,0.9699710000001005 L 82.80256908651192,0.0" fill="none" stroke="rgb(89,89,89)" stroke-width="0.1"/>
  <path d="M 100.0,42.58327879753335 L 96.640645,27.324971000000005" fill="none" stroke="rgb(44,178,0)" stroke-width="0.1"/>
  <path d="M 96.38664500000002,26.1719710000001 L 90.62401548707044,0.0" fill="none" stroke="rgb(89,89,89)" stroke-width="0.1"/>
  <path d="M 94.50564500000002,74.13097100000005 L 83.13764500000002,22.50097100000005" fill="none" stroke="rgb(44,178,0)" stroke-width="0.1"/>
  <path d="M 95.77864500000001,27.016971000000012 L 100.0,46.18731312484749" fill="none" stroke="rgb(44,178,0)" stroke-width="0.1"/>
  <path d="M 100.0,48.97842202147831 L 95.11164500000001,26.77897100000007" fill="none" stroke="rgb(44,178,0)" stroke-width="0.1"/>
  <path d="M 94.25064500000002,26.470971000000077 L 100.0,52.58145359155776" fill="none" stroke="rgb(44,178,0)" stroke-width="0.1"/>
  <path d="M 91.83464500000002,74.7199710000001 L 80.09764500000001,21.415971000000013" fill="none" stroke="rgb(44,178,0)" stroke-width="0.1"/>
  <path d="M 81.23664500000002,21.822971000000052 L 92.83564500000003,74.4989710000001" fill="none" stroke="rgb(44,178,0)" stroke-width="0.1"/>
  <path d="M 93.42164500000001,74.36997100000008 L 81.90364500000001,22.060970999999995" fill="none" stroke="rgb(44,178,0)" stroke-width="0.1"/>
  <path d="M 83.13764500000002,22.50097100000005 L 94.50564500000002,74.13097100000005" fill="none" stroke="rgb(44,178,0)" stroke-width="0.1"/>
  <path d="M 80.09764500000001,21.415971000000013 L 91.83464500000002,74.7199710000001" fill="none" stroke="rgb(44,178,0)" stroke-width="0.1"/>
  <path d="M 83.13764500000002,22.50097100000005 L 78.18321056364451,0.0" fill="none" stroke="rgb(89,89,89)" stroke-width="0.1"/>
  <path d="M 89.83048601181764,0.0 L 95.52564500000003,25.863971000000106" fill="none" stroke="rgb(89,89,89)" stroke-width="0.1"/>
  <path d="M 94.85864500000002,25.62597100000005 L 89.21596350193863,0.0" fill="none" stroke="rgb(89,89,89)" stroke-width="0.1"/>
  <path d="M 88.4218220264543,0.0 L 93.99664500000003,25.318971000000033" fill="none" stroke="rgb(89,89,89)" stroke-width="0.1"/>
  <path d="M 76.43149616320899,0.0 L 81.23664500000002,21.822971000000052" fill="none" stroke="rgb(89,89,89)" stroke-width="0.1"/>
  <path d="M 81.90364500000001,22.060970999999995 L 77.04602345866482,0.0" fill="none" stroke="rgb(89,89,89)" stroke-width="0.1"/>
  <path d="M 75.38219836114658,0.0 L 80.09764500000001,21.415971000000013" fill="none" stroke="rgb(89,89,89)" stroke-width="0.1"/>
  <path d="M 77.88264500000002,28.866971000000035 L 71.52700450206544,0.0" fill="none" instance-id="1" semantic-id="32" stroke="rgb(89,89,89)" stroke-width="0.1"/>
  <path d="M 59.87963083008759,0.0 L 65.20964500000002,24.206971000000067" fill="none" instance-id="1" semantic-id="32" stroke="rgb(89,89,89)" stroke-width="0.1"/>
  <path d="M 65.87664500000002,24.44497100000001 L 60.49414965245661,0.0" fill="none" instance-id="1" semantic-id="32" stroke="rgb(89,89,89)" stroke-width="0.1"/>
  <path d="M 61.287597242681144,0.0 L 66.76964500000003,24.896971000000008" fill="none" instance-id="1" semantic-id="32" stroke="rgb(89,89,89)" stroke-width="0.1"/>
  <path d="M 73.27843292377153,0.0 L 79.78364500000002,29.544971000000032" fill="none" instance-id="1" semantic-id="32" stroke="rgb(89,89,89)" stroke-width="0.1"/>
  <path d="M 79.11664500000002,29.30697100000009 L 72.66391898891574,0.0" fill="none" instance-id="1" semantic-id="32" stroke="rgb(89,89,89)" stroke-width="0.1"/>
  <path d="M 74.32752880724902,0.0 L 80.92264500000002,29.95197100000007" fill="none" stroke="rgb(89,89,89)" stroke-width="0.1"/>
  <path d="M 59.085876980636215,0.0 L 64.37964500000002,24.04297100000008" fill="none" instance-id="1" semantic-id="32" stroke="rgb(89,89,89)" stroke-width="0.1"/>
  <path d="M 88.15764500000003,75.52897100000007 L 78.13664500000002,30.01897100000008" fill="none" instance-id="1" semantic-id="32" stroke="rgb(44,178,0)" stroke-width="0.1"/>
  <path d="M 78.39164500000003,77.67997100000002 L 67.02364500000002,26.04897100000005" fill="none" instance-id="1" semantic-id="32" stroke="rgb(44,178,0)" stroke-width="0.1"/>
  <path d="M 87.759645,73.72197100000005 L 77.99364500000001,75.872971" fill="none" instance-id="1" semantic-id="32" stroke="rgb(44,178,0)" stroke-width="0.1"/>
  <path d="M 87.11464500000002,70.79297100000008 L 77.34864500000002,72.94297100000006" fill="none" instance-id="1" semantic-id="32" stroke="rgb(44,178,0)" stroke-width="0.1"/>
  <path d="M 86.46964500000001,67.86297100000002 L 76.70364500000002,70.0129710000001" fill="none" instance-id="1" semantic-id="32" stroke="rgb(44,178,0)" stroke-width="0.1"/>
  <path d="M 85.82464500000003,64.93297100000007 L 76.05864500000001,67.08297100000004" fill="none" instance-id="1" semantic-id="32" stroke="rgb(44,178,0)" stroke-width="0.1"/>
  <path d="M 85.17964500000002,62.002971 L 75.41264500000001,64.15397100000007" fill="none" instance-id="1" semantic-id="32" stroke="rgb(44,178,0)" stroke-width="0.1"/>
  <path d="M 84.533645,59.07297100000005 L 74.76764500000002,61.223971000000006" fill="none" instance-id="1" semantic-id="32" stroke="rgb(44,178,0)" stroke-width="0.1"/>
  <path d="M 83.88864500000003,56.14397100000008 L 74.12264500000002,58.293971000000056" fill="none" instance-id="1" semantic-id="32" stroke="rgb(44,178,0)" stroke-width="0.1"/>
  <path d="M 83.24364500000001,53.213971000000015 L 73.47764500000002,55.363971000000106" fill="none" instance-id="1" semantic-id="32" stroke="rgb(44,178,0)" stroke-width="0.1"/>
  <path d="M 82.59864500000002,50.283971000000065 L 72.83264500000001,52.43397100000004" fill="none" instance-id="1" semantic-id="32" stroke="rgb(44,178,0)" stroke-width="0.1"/>
  <path d="M 81.95364500000002,47.353971 L 72.18764500000002,49.50397100000009" fill="none" instance-id="1" semantic-id="32" stroke="rgb(44,178,0)" stroke-width="0.1"/>
  <path d="M 81.07964500000001,43.38597100000004 L 71.31364500000002,45.53597100000002" fill="none" instance-id="1" semantic-id="32" stroke="rgb(44,178,0)" stroke-width="0.1"/>
  <path d="M 80.43464500000002,40.45597100000009 L 70.66864500000001,42.60597100000007" fill="none" instance-id="1" semantic-id="32" stroke="rgb(44,178,0)" stroke-width="0.1"/>
  <path d="M 79.78964500000002,37.52597100000003 L 70.02364500000002,39.675971000000004" fill="none" instance-id="1" semantic-id="32" stroke="rgb(44,178,0)" stroke-width="0.1"/>
  <path d="M 79.14464500000003,34.59597100000008 L 69.37864500000002,36.745971000000054" fill="none" instance-id="1" semantic-id="32" stroke="rgb(44,178,0)" stroke-width="0.1"/>
  <path d="M 78.49964500000002,31.665971000000013 L 68.73364500000002,33.81697100000008" fill="none" instance-id="1" semantic-id="32" stroke="rgb(44,178,0)" stroke-width="0.1"/>
  <path d="M 77.85464500000002,28.735971000000063 L 77.64664500000002,28.781971" fill="none" instance-id="1" semantic-id="32" stroke="rgb(44,178,0)" stroke-width="0.1"/>
  <path d="M 75.80764500000002,29.186971000000085 L 68.08864500000001,30.886971000000017" fill="none" instance-id="1" semantic-id="32" stroke="rgb(44,178,0)" stroke-width="0.1"/>
  <path d="M 77.20964500000002,25.80697100000009 L 67.44364500000002,27.956971000000067" fill="none" instance-id="1" semantic-id="32" stroke="rgb(44,178,0)" stroke-width="0.1"/>
  <path d="M 76.56464500000001,22.876971000000026 L 67.00564500000002,24.980971000000068" fill="none" instance-id="1" semantic-id="32" stroke="rgb(89,89,89)" stroke-width="0.1"/>
  <path d="M 75.91864500000001,19.946971000000076 L 66.15264500000002,22.096971000000053" fill="none" instance-id="1" semantic-id="32" stroke="rgb(89,89,89)" stroke-width="0.1"/>
  <path d="M 75.27364500000002,17.016971000000012 L 65.50764500000002,19.166971000000103" fill="none" instance-id="1" semantic-id="32" stroke="rgb(89,89,89)" stroke-width="0.1"/>
  <path d="M 74.62864500000002,14.086971000000062 L 64.86264500000001,16.237971000000016" fill="none" instance-id="1" semantic-id="32" stroke="rgb(89,89,89)" stroke-width="0.1"/>
  <path d="M 73.98364500000002,11.156970999999999 L 64.21764500000002,13.307971000000066" fill="none" instance-id="1" semantic-id="32" stroke="rgb(89,89,89)" stroke-width="0.1"/>
  <path d="M 73.33864500000001,8.227971000000025 L 63.57264500000002,10.377971000000002" fill="none" instance-id="1" semantic-id="32" stroke="rgb(89,89,89)" stroke-width="0.1"/>
  <path d="M 72.69364500000002,5.297971000000075 L 62.92764500000001,7.447971000000052" fill="none" instance-id="1" semantic-id="32" stroke="rgb(89,89,89)" stroke-width="0.1"/>
  <path d="M 72.04864500000002,2.3679710000000114 L 62.28264500000002,4.517971000000102" fill="none" instance-id="1" semantic-id="32" stroke="rgb(89,89,89)" stroke-width="0.1"/>
  <path d="M 68.85191314783845,0.0 L 61.63764500000002,1.588971000000015" fill="none" instance-id="1" semantic-id="32" stroke="rgb(89,89,89)" stroke-width="0.1"/>
  <path d="M 76.29164500000002,78.14197100000001 L 64.63364500000002,25.1959710000001" fill="none" instance-id="1" semantic-id="32" stroke="rgb(44,178,0)" stroke-width="0.1"/>
  <path d="M 88.15764500000003,75.52897100000007 L 78.13664500000002,30.01897100000008" fill="none" instance-id="1" semantic-id="32" stroke="rgb(44,178,0)" stroke-width="0.1"/>
  <path d="M 65.49464500000002,25.503971000000092 L 77.04864500000002,77.9749710000001" fill="none" instance-id="1" semantic-id="32" stroke="rgb(44,178,0)" stroke-width="0.1"/>
  <path d="M 77.63464500000002,77.84597100000008 L 66.16164500000002,25.741971000000035" fill="none" instance-id="1" semantic-id="32" stroke="rgb(44,178,0)" stroke-width="0.1"/>
  <path d="M 67.02364500000002,26.04897100000005 L 78.39164500000003,77.67997100000002" fill="none" instance-id="1" semantic-id="32" stroke="rgb(44,178,0)" stroke-width="0.1"/>
  <path d="M 90.82864500000002,74.9409710000001 L 81.17664500000002,31.10497100000009" fill="none" stroke="rgb(44,178,0)" stroke-width="0.1"/>
  <path d="M 80.03764500000001,30.697971000000052 L 89.82764500000002,75.161971" fill="none" instance-id="1" semantic-id="32" stroke="rgb(44,178,0)" stroke-width="0.1"/>
  <path d="M 89.241645,75.29097100000001 L 79.37064500000002,30.459970999999996" fill="none" instance-id="1" semantic-id="32" stroke="rgb(44,178,0)" stroke-width="0.1"/>
  <path d="M 78.13664500000002,30.01897100000008 L 88.15764500000003,75.52897100000007" fill="none" instance-id="1" semantic-id="32" stroke="rgb(44,178,0)" stroke-width="0.1"/>
  <path d="M 81.17664500000002,31.10497100000009 L 90.82864500000002,74.9409710000001" fill="none" stroke="rgb(44,178,0)" stroke-width="0.1"/>
  <path d="M 79.84364500000002,20.262971000000107 L 86.93564500000002,22.79597100000001" fill="none" stroke="rgb(89,89,89)" stroke-width="0.1"/>
  <path d="M 87.85164500000002,24.18497100000002 L 97.29064500000001,27.55697100000009" fill="none" stroke="rgb(44,178,0)" stroke-width="0.1"/>
  <path d="M 63.72964500000002,23.810970999999995 L 70.82164500000002,26.34397100000001" fill="none" instance-id="1" semantic-id="32" stroke="rgb(89,89,89)" stroke-width="0.1"/>
  <path d="M 71.73764500000001,27.73297100000002 L 81.17664500000002,31.10497100000009" fill="none" instance-id="1" semantic-id="32" stroke="rgb(44,178,0)" stroke-width="0.1"/>
  <path d="M 95.39764500000001,78.18397100000004 L 94.50564500000002,74.13097100000005" fill="none" stroke="rgb(44,178,0)" stroke-width="0.1"/>
  <path d="M 95.39764500000001,78.18397100000004 L 100.0,77.1707554306779" fill="none" stroke="rgb(44,178,0)" stroke-width="0.1"/>
  <path d="M 94.75264500000003,75.25497100000007 L 100.0,74.09922037487206" fill="none" stroke="rgb(44,178,0)" stroke-width="0.1"/>
  <path d="M 97.61864500000001,88.26997100000006 L 94.50564500000002,74.13097100000005" fill="none" stroke="rgb(44,178,0)" stroke-width="0.1"/>
  <path d="M 100.0,77.1707554306779 L 95.39764500000001,78.18397100000004" fill="none" stroke="rgb(44,178,0)" stroke-width="0.1"/>
  <path d="M 92.83564500000003,74.4989710000001 L 97.23964500000002,94.49997100000007" fill="none" stroke="rgb(44,178,0)" stroke-width="0.1"/>
  <path d="M 97.82464500000003,94.37097100000005 L 93.42164500000001,74.36997100000008" fill="none" stroke="rgb(44,178,0)" stroke-width="0.1"/>
  <path d="M 94.50564500000002,74.13097100000005 L 97.78464500000001,89.026971" fill="none" stroke="rgb(44,178,0)" stroke-width="0.1"/>
  <path d="M 91.83464500000002,74.7199710000001 L 95.08564500000003,89.48597100000006" fill="none" stroke="rgb(44,178,0)" stroke-width="0.1"/>
  <path d="M 97.82464500000003,94.37097100000005 L 97.23964500000002,94.49997100000007" fill="none" stroke="rgb(44,178,0)" stroke-width="0.1"/>
  <path d="M 96.87664500000002,90.06197100000009 L 97.78464500000001,89.026971" fill="none" stroke="rgb(44,178,0)" stroke-width="0.1"/>
  <path d="M 96.29064500000001,90.1909710000001 L 95.08564500000003,89.48597100000006" fill="none" stroke="rgb(44,178,0)" stroke-width="0.1"/>
  <path d="M 89.04964500000003,79.58197100000007 L 88.15764500000003,75.52897100000007" fill="none" instance-id="1" semantic-id="32" stroke="rgb(44,178,0)" stroke-width="0.1"/>
  <path d="M 79.28364500000002,81.73197100000004 L 78.39164500000003,77.67997100000002" fill="none" instance-id="1" semantic-id="32" stroke="rgb(44,178,0)" stroke-width="0.1"/>
  <path d="M 89.04964500000003,79.58197100000007 L 79.28364500000002,81.73197100000004" fill="none" instance-id="1" semantic-id="32" stroke="rgb(44,178,0)" stroke-width="0.1"/>
  <path d="M 88.40464500000002,76.651971 L 78.63864500000003,78.80297100000007" fill="none" instance-id="1" semantic-id="32" stroke="rgb(44,178,0)" stroke-width="0.1"/>
  <path d="M 91.27064500000003,89.66797100000008 L 88.15764500000003,75.52897100000007" fill="none" instance-id="1" semantic-id="32" stroke="rgb(44,178,0)" stroke-width="0.1"/>
  <path d="M 79.28364500000002,81.73197100000004 L 89.04964500000003,79.58197100000007" fill="none" instance-id="1" semantic-id="32" stroke="rgb(44,178,0)" stroke-width="0.1"/>
  <path d="M 77.04864500000002,77.9749710000001 L 81.45264500000002,97.97597100000007" fill="none" instance-id="1" semantic-id="32" stroke="rgb(44,178,0)" stroke-width="0.1"/>
  <path d="M 82.03864500000002,97.84697100000005 L 77.63464500000002,77.84597100000008" fill="none" instance-id="1" semantic-id="32" stroke="rgb(44,178,0)" stroke-width="0.1"/>
  <path d="M 78.39164500000003,77.67997100000002 L 81.67064500000002,92.574971" fill="none" instance-id="1" semantic-id="32" stroke="rgb(44,178,0)" stroke-width="0.1"/>
  <path d="M 76.29164500000002,78.14197100000001 L 79.54264500000002,92.90797100000009" fill="none" instance-id="1" semantic-id="32" stroke="rgb(44,178,0)" stroke-width="0.1"/>
  <path d="M 89.82764500000002,75.161971 L 94.23164500000001,95.161971" fill="none" instance-id="1" semantic-id="32" stroke="rgb(44,178,0)" stroke-width="0.1"/>
  <path d="M 93.64564500000003,95.29097100000001 L 89.241645,75.29097100000001" fill="none" instance-id="1" semantic-id="32" stroke="rgb(44,178,0)" stroke-width="0.1"/>
  <path d="M 88.15764500000003,75.52897100000007 L 91.43664500000003,90.42497100000003" fill="none" instance-id="1" semantic-id="32" stroke="rgb(44,178,0)" stroke-width="0.1"/>
  <path d="M 90.82864500000002,74.9409710000001 L 94.07964500000003,89.70697100000007" fill="none" instance-id="1" semantic-id="32" stroke="rgb(44,178,0)" stroke-width="0.1"/>
  <path d="M 82.03864500000002,97.84697100000005 L 81.45264500000002,97.97597100000007" fill="none" instance-id="1" semantic-id="32" stroke="rgb(44,178,0)" stroke-width="0.1"/>
  <path d="M 81.08964500000002,93.53797100000008 L 81.67064500000002,92.574971" fill="none" instance-id="1" semantic-id="32" stroke="rgb(44,178,0)" stroke-width="0.1"/>
  <path d="M 80.50364500000002,93.66797100000008 L 79.54264500000002,92.90797100000009" fill="none" instance-id="1" semantic-id="32" stroke="rgb(44,178,0)" stroke-width="0.1"/>
  <path d="M 93.64564500000003,95.29097100000001 L 94.23164500000001,95.161971" fill="none" instance-id="1" semantic-id="32" stroke="rgb(44,178,0)" stroke-width="0.1"/>
  <path d="M 92.69664500000002,90.98297100000002 L 91.43664500000003,90.42497100000003" fill="none" instance-id="1" semantic-id="32" stroke="rgb(44,178,0)" stroke-width="0.1"/>
  <path d="M 93.28264500000003,90.853971 L 94.07964500000003,89.70697100000007" fill="none" instance-id="1" semantic-id="32" stroke="rgb(44,178,0)" stroke-width="0.1"/>
  <path d="M 80.09764500000001,21.415971000000013 L 86.34764500000003,23.647971000000098" fill="none" stroke="rgb(44,178,0)" stroke-width="0.1"/>
  <path d="M 86.34764500000003,23.647971000000098 L 87.36164500000001,22.179971000000023" fill="none" stroke="rgb(44,178,0)" stroke-width="0.1"/>
  <path d="M 87.36164500000001,22.179971000000023 L 87.378645,24.869971000000078" fill="none" stroke="rgb(44,178,0)" stroke-width="0.1"/>
  <path d="M 87.378645,24.869971000000078 L 88.44064500000002,23.33397100000002" fill="none" stroke="rgb(44,178,0)" stroke-width="0.1"/>
  <path d="M 88.44064500000002,23.33397100000002 L 97.03664500000002,26.40397100000007" fill="none" stroke="rgb(44,178,0)" stroke-width="0.1"/>
  <path d="M 63.983645000000024,24.963971000000015 L 70.23364500000002,27.1959710000001" fill="none" instance-id="1" semantic-id="32" stroke="rgb(44,178,0)" stroke-width="0.1"/>
  <path d="M 70.23364500000002,27.1959710000001 L 71.24764500000002,25.727971000000025" fill="none" instance-id="1" semantic-id="32" stroke="rgb(44,178,0)" stroke-width="0.1"/>
  <path d="M 71.24764500000002,25.727971000000025 L 71.26464500000002,28.41797100000008" fill="none" instance-id="1" semantic-id="32" stroke="rgb(44,178,0)" stroke-width="0.1"/>
  <path d="M 71.26464500000002,28.41797100000008 L 72.32664500000001,26.88197100000002" fill="none" instance-id="1" semantic-id="32" stroke="rgb(44,178,0)" stroke-width="0.1"/>
  <path d="M 72.32664500000001,26.88197100000002 L 80.92264500000002,29.95197100000007" fill="none" instance-id="1" semantic-id="32" stroke="rgb(44,178,0)" stroke-width="0.1"/>
  <path d="M 100.0,99.69815271871778 L 98.62919277475794,100.0" fill="none" stroke="rgb(44,178,0)" stroke-width="0.1"/>
  <path d="M 97.40083965168958,100.0 L 95.08564500000003,89.48597100000006" fill="none" stroke="rgb(44,178,0)" stroke-width="0.1"/>
  <path d="M 79.54264500000002,92.90797100000009 L 81.10431347270703,100.0" fill="none" instance-id="1" semantic-id="32" stroke="rgb(44,178,0)" stroke-width="0.1"/>
  <path d="M 96.34617533679912,100.0 L 94.07964500000003,89.70697100000007" fill="none" instance-id="1" semantic-id="32" stroke="rgb(44,178,0)" stroke-width="0.1"/>
 </g>
 <g id="layerWINDOW" inkscape:groupmode="layer" inkscape:label="WINDOW">
  <path d="M 22.24294500000002,60.93897100000004 L 29.826545000000024,65.78497100000004" fill="none" instance-id="3" semantic-id="4" stroke="rgb(0,178,178)" stroke-width="0.1"/>
  <path d="M 26.113545000000016,78.5179710000001 L 30.960245000000015,70.93397100000004" fill="none" instance-id="3" semantic-id="4" stroke="rgb(0,178,178)" stroke-width="0.1"/>
  <path d="M 26.113545000000016,78.5179710000001 L 18.530045000000015,73.67097100000001" fill="none" instance-id="3" semantic-id="4" stroke="rgb(0,178,178)" stroke-width="0.1"/>
  <path d="M 22.113745000000023,61.140971000000036 L 29.697345000000013,65.98797100000002" fill="none" instance-id="3" semantic-id="4" stroke="rgb(0,178,178)" stroke-width="0.1"/>
  <path d="M 26.242845000000017,78.3159710000001 L 18.65924500000002,73.46897100000001" fill="none" instance-id="3" semantic-id="4" stroke="rgb(0,178,178)" stroke-width="0.1"/>
  <path d="M 22.24294500000002,60.93897100000004 L 17.396345000000018,68.52197100000001" fill="none" instance-id="3" semantic-id="4" stroke="rgb(0,178,178)" stroke-width="0.1"/>
  <path d="M 24.178245000000018,69.72797100000003 L 26.519145000000023,69.526971" fill="none" instance-id="3" semantic-id="4" stroke="rgb(0,178,178)" stroke-width="0.1"/>
  <path d="M 26.519145000000023,69.526971 L 28.832345000000018,69.93797100000006" fill="none" instance-id="3" semantic-id="4" stroke="rgb(0,178,178)" stroke-width="0.1"/>
  <path d="M 28.832345000000018,69.93797100000006 L 30.960245000000015,70.93397100000004" fill="none" instance-id="3" semantic-id="4" stroke="rgb(0,178,178)" stroke-width="0.1"/>
  <path d="M 29.826545000000024,65.78497100000004 L 28.313745000000026,67.58297100000004" fill="none" instance-id="3" semantic-id="4" stroke="rgb(0,178,178)" stroke-width="0.1"/>
  <path d="M 28.313745000000026,67.58297100000004 L 26.38724500000002,68.92797100000007" fill="none" instance-id="3" semantic-id="4" stroke="rgb(0,178,178)" stroke-width="0.1"/>
  <path d="M 26.38724500000002,68.92797100000007 L 24.178245000000018,69.72797100000003" fill="none" instance-id="3" semantic-id="4" stroke="rgb(0,178,178)" stroke-width="0.1"/>
  <path d="M 18.530045000000015,73.67097100000001 L 20.04284500000002,71.872971" fill="none" instance-id="3" semantic-id="4" stroke="rgb(0,178,178)" stroke-width="0.1"/>
  <path d="M 20.04284500000002,71.872971 L 21.96934500000002,70.52897100000007" fill="none" instance-id="3" semantic-id="4" stroke="rgb(0,178,178)" stroke-width="0.1"/>
  <path d="M 21.96934500000002,70.52897100000007 L 24.178245000000018,69.72797100000003" fill="none" instance-id="3" semantic-id="4" stroke="rgb(0,178,178)" stroke-width="0.1"/>
  <path d="M 24.178245000000018,69.72797100000003 L 21.837445000000017,69.92997100000002" fill="none" instance-id="3" semantic-id="4" stroke="rgb(0,178,178)" stroke-width="0.1"/>
  <path d="M 21.837445000000017,69.92997100000002 L 19.524245000000022,69.5179710000001" fill="none" instance-id="3" semantic-id="4" stroke="rgb(0,178,178)" stroke-width="0.1"/>
  <path d="M 19.524245000000022,69.5179710000001 L 17.396345000000018,68.52197100000001" fill="none" instance-id="3" semantic-id="4" stroke="rgb(0,178,178)" stroke-width="0.1"/>
 </g>
 <g id="layerWall【砖墙】" inkscape:groupmode="layer" inkscape:label="Wall【砖墙】">
  <path d="M 16.750745000000016,40.644971000000055 L 15.030445000000022,32.83197100000007" fill="none" instance-id="-1" semantic-id="1" stroke="rgb(178,178,0)" stroke-width="0.1"/>
  <path d="M 18.70394500000002,40.214971000000105 L 16.983645000000017,32.401971" fill="none" instance-id="-1" semantic-id="1" stroke="rgb(178,178,0)" stroke-width="0.1"/>
  <path d="M 16.750745000000016,40.644971000000055 L 18.70394500000002,40.214971000000105" fill="none" instance-id="-1" semantic-id="1" stroke="rgb(178,178,0)" stroke-width="0.1"/>
  <path d="M 15.030445000000022,32.83197100000007 L 16.983645000000017,32.401971" fill="none" instance-id="-1" semantic-id="1" stroke="rgb(178,178,0)" stroke-width="0.1"/>
  <path d="M 29.819556615100907,100.0 L 29.65264500000002,99.24197100000004" fill="none" instance-id="-1" semantic-id="1" stroke="rgb(178,178,0)" stroke-width="0.1"/>
  <path d="M 31.867647076870767,100.0 L 31.605845000000016,98.810971" fill="none" instance-id="-1" semantic-id="1" stroke="rgb(178,178,0)" stroke-width="0.1"/>
  <path d="M 11.589945000000021,17.206971000000067 L 7.801259525706811,0.0" fill="none" instance-id="-1" semantic-id="1" stroke="rgb(178,178,0)" stroke-width="0.1"/>
  <path d="M 13.543145000000017,16.776971000000003 L 9.849138290141653,0.0" fill="none" instance-id="-1" semantic-id="1" stroke="rgb(178,178,0)" stroke-width="0.1"/>
  <path d="M 11.589945000000021,17.206971000000067 L 13.543145000000017,16.776971000000003" fill="none" instance-id="-1" semantic-id="1" stroke="rgb(178,178,0)" stroke-width="0.1"/>
 </g>
 <g id="layerWindow_fire【防火门窗及编号】" inkscape:groupmode="layer" inkscape:label="Window_fire【防火门窗及编号】">
  <text fill="rgb(178,0,0)" font-family="Noto Sans CJK SC" font-size="2" transform="rotate(-283.422,8.720145000000016,61.59697100000005)" x="8.720145000000016" y="61.59697100000005">
   FHJL-3.0h
  </text>
  <text fill="rgb(178,0,0)" font-family="Noto Sans CJK SC" font-size="2" transform="rotate(-0.0,29.144645000000025,19.56997100000001)" x="29.144645000000025" y="19.56997100000001">
   FHJL-3.0h
  </text>
 </g>
</svg>