<?xml version="1.0" encoding="utf-8"?>
<svg style="background-color: #000;" version="1.1" viewBox="0 0 100.0 100.0" xmlns="http://www.w3.org/2000/svg" xmlns:inkscape="http://www.inkscape.org/namespaces/inkscape">
 <g id="layerDIM_SYMB" inkscape:groupmode="layer" inkscape:label="DIM_SYMB">
  <path d="M 63.29893551041664,0.0 L 43.18448549999994,74.26873850000004" fill="none" stroke="rgb(0,178,0)" stroke-width="0.1"/>
  <path d="M 43.18448549999994,74.26873850000004 L 42.00748550000003,78.61273850000009" fill="none" stroke="rgb(0,178,0)" stroke-width="0.1"/>
  <path d="M 57.93448549999994,82.92573850000008 L 80.39353967708337,0.0" fill="none" stroke="rgb(0,178,0)" stroke-width="0.1"/>
 </g>
 <g id="layerDefpoints" inkscape:groupmode="layer" inkscape:label="Defpoints">
  <path d="M 70.37748549999992,5.419738500000108 L 71.84540850120129,0.0" fill="none" stroke="rgb(0,0,0)" stroke-width="0.1"/>
 </g>
 <g id="layerDote【轴线】" inkscape:groupmode="layer" inkscape:label="Dote【轴线】">
  <path d="M 0.0,56.86873850000006 L 100.0,56.86873850000006" fill="none" stroke="rgb(53,107,107)" stroke-width="0.1"/>
  <path d="M 67.79348549999997,100.0 L 67.79348549999997,0.0" fill="none" stroke="rgb(53,107,107)" stroke-width="0.1"/>
 </g>
 <g id="layerFLOR 地坪线" inkscape:groupmode="layer" inkscape:label="FLOR 地坪线">
  <path d="M 22.41148549999997,60.1747385000001 L 26.796052312034192,100.0" fill="none" stroke="rgb(0,0,178)" stroke-width="0.1"/>
  <path d="M 38.70882188945819,0.0 L 22.41148549999997,60.1747385000001" fill="none" stroke="rgb(0,0,178)" stroke-width="0.1"/>
 </g>
 <g id="layerFire_RS【防火卷帘】" inkscape:groupmode="layer" inkscape:label="Fire_RS【防火卷帘】">
  <path d="M 0.0,16.868738500000063 L 25.333485499999995,16.868738500000063" fill="none" instance-id="-1" semantic-id="1" stroke="rgb(255,12,12)" stroke-width="0.1"/>
  <path d="M 0.0,20.868738500000063 L 24.250485499999968,20.868738500000063" fill="none" instance-id="-1" semantic-id="1" stroke="rgb(255,12,12)" stroke-width="0.1"/>
  <path d="M 25.801485499999956,22.79073850000009 L 15.815485499999966,59.662738500000046" fill="none" instance-id="-1" semantic-id="1" stroke="rgb(255,12,12)" stroke-width="0.1"/>
  <path d="M 15.815485499999966,59.662738500000046 L 20.256443185128546,100.0" fill="none" instance-id="-1" semantic-id="1" stroke="rgb(255,12,12)" stroke-width="0.1"/>
  <path d="M 29.662485500000003,23.836738500000024 L 19.87448549999999,59.9777385000001" fill="none" instance-id="-1" semantic-id="1" stroke="rgb(255,12,12)" stroke-width="0.1"/>
  <path d="M 19.87448549999999,59.9777385000001 L 24.280735866487532,100.0" fill="none" instance-id="-1" semantic-id="1" stroke="rgb(255,12,12)" stroke-width="0.1"/>
  <path d="M 27.893485499999997,15.068738500000109 L 31.97457638787347,0.0" fill="none" instance-id="-1" semantic-id="1" stroke="rgb(255,12,12)" stroke-width="0.1"/>
  <path d="M 31.754485499999987,16.114738500000044 L 36.11879192840104,0.0" fill="none" instance-id="-1" semantic-id="1" stroke="rgb(255,12,12)" stroke-width="0.1"/>
 </g>
 <g id="layerHandrail【栏杆】" inkscape:groupmode="layer" inkscape:label="Handrail【栏杆】">
  <path d="M 38.190553454029555,0.0 L 21.903485499999988,60.135738500000116" fill="none" instance-id="-1" semantic-id="33" stroke="rgb(53,107,107)" stroke-width="0.1"/>
  <path d="M 21.903485499999988,60.135738500000116 L 26.29266398268038,100.0" fill="none" instance-id="-1" semantic-id="33" stroke="rgb(53,107,107)" stroke-width="0.1"/>
  <path d="M 29.662734691054368,100.0 L 30.861485499999958,95.5737385000001" fill="none" instance-id="-1" semantic-id="33" stroke="rgb(53,107,107)" stroke-width="0.1"/>
  <path d="M 30.861485499999958,95.5737385000001 L 31.343485499999986,95.70473850000008" fill="none" instance-id="-1" semantic-id="33" stroke="rgb(53,107,107)" stroke-width="0.1"/>
  <path d="M 31.343485499999986,95.70473850000008 L 30.180710459507793,100.0" fill="none" instance-id="-1" semantic-id="33" stroke="rgb(53,107,107)" stroke-width="0.1"/>
  <path d="M 25.789421868500654,100.0 L 21.396485499999983,60.09573850000004" fill="none" instance-id="-1" semantic-id="33" stroke="rgb(53,107,107)" stroke-width="0.1"/>
  <path d="M 21.396485499999983,60.09573850000004 L 31.11048549999998,24.228738500000077" fill="none" instance-id="-1" semantic-id="33" stroke="rgb(53,107,107)" stroke-width="0.1"/>
  <path d="M 33.20148549999999,16.506738500000097 L 37.67217221259409,0.0" fill="none" instance-id="-1" semantic-id="33" stroke="rgb(53,107,107)" stroke-width="0.1"/>
 </g>
 <g id="layerLook_line【看线、投影线】" inkscape:groupmode="layer" inkscape:label="Look_line【看线、投影线】">
  <path d="M 30.628485499999954,24.097738500000105 L 20.889485499999978,60.05673850000005" fill="none" stroke="rgb(0,178,178)" stroke-width="0.1"/>
  <path d="M 20.889485499999978,60.05673850000005 L 25.287030670962906,100.0" fill="none" stroke="rgb(0,178,178)" stroke-width="0.1"/>
  <path d="M 37.154561337814414,0.0 L 32.71948549999996,16.37573850000001" fill="none" stroke="rgb(0,178,178)" stroke-width="0.1"/>
 </g>
 <g id="layerNEW-FNSH 新增完成面" inkscape:groupmode="layer" inkscape:label="NEW-FNSH 新增完成面">
  <path d="M 25.962485499999957,14.545738500000084 L 23.87148549999995,22.267738500000064" fill="none" stroke="rgb(178,88,0)" stroke-width="0.1"/>
  <path d="M 23.87148549999995,22.267738500000064 L 31.593485499999986,24.35973850000005" fill="none" stroke="rgb(178,88,0)" stroke-width="0.1"/>
  <path d="M 31.593485499999986,24.35973850000005 L 33.684485499999994,16.63773850000007" fill="none" stroke="rgb(178,88,0)" stroke-width="0.1"/>
  <path d="M 33.684485499999994,16.63773850000007 L 25.962485499999957,14.545738500000084" fill="none" stroke="rgb(178,88,0)" stroke-width="0.1"/>
  <path d="M 27.018485499999997,16.385738500000116 L 25.71148549999998,21.212738500000114" fill="none" stroke="rgb(178,88,0)" stroke-width="0.1"/>
  <path d="M 25.71148549999998,21.212738500000114 L 30.537485500000003,22.519738500000017" fill="none" stroke="rgb(178,88,0)" stroke-width="0.1"/>
  <path d="M 30.537485500000003,22.519738500000017 L 31.844485499999962,17.69273850000002" fill="none" stroke="rgb(178,88,0)" stroke-width="0.1"/>
  <path d="M 31.844485499999962,17.69273850000002 L 27.018485499999997,16.385738500000116" fill="none" stroke="rgb(178,88,0)" stroke-width="0.1"/>
 </g>
 <g id="layerPri_text【私人文字标注】" inkscape:groupmode="layer" inkscape:label="Pri_text【私人文字标注】">
  <path d="M 28.667485499999998,21.771738500000083 L 19.204485499999976,31.478738500000077" fill="none" stroke="rgb(178,88,0)" stroke-width="0.1"/>
  <path d="M 19.204485499999976,31.478738500000077 L 7.813485499999956,31.478738500000077" fill="none" stroke="rgb(178,88,0)" stroke-width="0.1"/>
  <path d="M 28.877485499999977,21.55673850000005 A 0.3001920218793465,0.3001920218793465 0.0 1,0 28.458485499999995,21.986738500000115" fill="none" stroke="rgb(178,88,0)" stroke-width="0.1"/>
  <path d="M 28.458485499999995,21.986738500000115 A 0.3001920218793465,0.3001920218793465 0.0 1,0 28.877485499999977,21.55673850000005" fill="none" stroke="rgb(178,88,0)" stroke-width="0.1"/>
  <text fill="rgb(0,0,0)" font-family="Noto Sans CJK SC" font-size="2" transform="rotate(-0.0,9.388485500000002,29.90373850000003)" x="9.388485500000002" y="29.90373850000003">
   钢柱
  </text>
 </g>
 <g id="layerPub_text【公共文字标注】" inkscape:groupmode="layer" inkscape:label="Pub_text【公共文字标注】">
  <text fill="rgb(0,0,0)" font-family="Noto Sans CJK SC" font-size="2" transform="rotate(-0.0,72.35448550000001,90.24973850000003)" x="72.35448550000001" y="90.24973850000003">
   中庭上空
  </text>
 </g>
 <g id="layerStair【楼梯、电梯】" inkscape:groupmode="layer" inkscape:label="Stair【楼梯、电梯】">
  <path d="M 68.47889095700089,0.0 L 48.24048549999998,74.72673850000001" fill="none" instance-id="4" semantic-id="32" stroke="rgb(44,178,0)" stroke-width="0.1"/>
  <path d="M 58.118935639713754,0.0 L 38.58848549999999,72.11273850000009" fill="none" instance-id="4" semantic-id="32" stroke="rgb(44,178,0)" stroke-width="0.1"/>
  <path d="M 68.28648550000003,0.7097385000000713 L 65.66582903404719,0.0" fill="none" instance-id="4" semantic-id="32" stroke="rgb(44,178,0)" stroke-width="0.1"/>
  <path d="M 67.50248549999992,3.604738500000053 L 57.85048549999999,0.9907385000000204" fill="none" instance-id="4" semantic-id="32" stroke="rgb(44,178,0)" stroke-width="0.1"/>
  <path d="M 66.71848549999993,6.500738500000011 L 57.06548550000002,3.8867385000000922" fill="none" instance-id="4" semantic-id="32" stroke="rgb(44,178,0)" stroke-width="0.1"/>
  <path d="M 65.93348549999996,9.396738500000083 L 56.28148550000003,6.78273850000005" fill="none" instance-id="4" semantic-id="32" stroke="rgb(44,178,0)" stroke-width="0.1"/>
  <path d="M 65.14948549999997,12.291738500000065 L 55.497485499999925,9.677738500000032" fill="none" instance-id="4" semantic-id="32" stroke="rgb(44,178,0)" stroke-width="0.1"/>
  <path d="M 64.08748549999996,16.214738500000067 L 54.43548550000003,13.600738500000034" fill="none" instance-id="4" semantic-id="32" stroke="rgb(44,178,0)" stroke-width="0.1"/>
  <path d="M 63.303485499999965,19.110738500000025 L 53.650485499999945,16.495738500000016" fill="none" instance-id="4" semantic-id="32" stroke="rgb(44,178,0)" stroke-width="0.1"/>
  <path d="M 62.5184855,22.005738500000007 L 52.86648549999995,19.391738500000088" fill="none" instance-id="4" semantic-id="32" stroke="rgb(44,178,0)" stroke-width="0.1"/>
  <path d="M 61.734485500000005,24.90173850000008 L 52.08248549999996,22.287738500000046" fill="none" instance-id="4" semantic-id="32" stroke="rgb(44,178,0)" stroke-width="0.1"/>
  <path d="M 60.95048550000001,27.797738500000037 L 51.29848549999997,25.182738500000028" fill="none" instance-id="4" semantic-id="32" stroke="rgb(44,178,0)" stroke-width="0.1"/>
  <path d="M 60.16648550000002,30.69273850000002 L 50.5134855,28.0787385000001" fill="none" instance-id="4" semantic-id="32" stroke="rgb(44,178,0)" stroke-width="0.1"/>
  <path d="M 59.38148549999994,33.58873850000009 L 49.72948550000001,30.974738500000058" fill="none" instance-id="4" semantic-id="32" stroke="rgb(44,178,0)" stroke-width="0.1"/>
  <path d="M 58.59748549999995,36.48473850000005 L 48.94548550000002,33.86973850000004" fill="none" instance-id="4" semantic-id="32" stroke="rgb(44,178,0)" stroke-width="0.1"/>
  <path d="M 57.813485499999956,39.37973850000003 L 48.161485500000026,36.76573850000011" fill="none" instance-id="4" semantic-id="32" stroke="rgb(44,178,0)" stroke-width="0.1"/>
  <path d="M 57.029485499999964,42.2757385000001 L 47.376485499999944,39.66173850000007" fill="none" instance-id="4" semantic-id="32" stroke="rgb(44,178,0)" stroke-width="0.1"/>
  <path d="M 56.244485499999996,45.17173850000006 L 46.59248549999995,42.55673850000005" fill="none" instance-id="4" semantic-id="32" stroke="rgb(44,178,0)" stroke-width="0.1"/>
  <path d="M 55.460485500000004,48.06673850000004 L 45.80848549999996,45.45273850000001" fill="none" instance-id="4" semantic-id="32" stroke="rgb(44,178,0)" stroke-width="0.1"/>
  <path d="M 54.67648550000001,50.962738500000114 L 45.02448549999997,48.34873850000008" fill="none" instance-id="4" semantic-id="32" stroke="rgb(44,178,0)" stroke-width="0.1"/>
  <path d="M 53.89248550000002,53.85873850000007 L 44.2394855,51.24473850000004" fill="none" instance-id="4" semantic-id="32" stroke="rgb(44,178,0)" stroke-width="0.1"/>
  <path d="M 53.10748549999994,56.753738500000054 L 43.45548550000001,54.13973850000002" fill="none" instance-id="4" semantic-id="32" stroke="rgb(44,178,0)" stroke-width="0.1"/>
  <path d="M 52.32348549999995,59.64973850000001 L 42.67148550000002,57.03573850000009" fill="none" instance-id="4" semantic-id="32" stroke="rgb(44,178,0)" stroke-width="0.1"/>
  <path d="M 51.539485499999955,62.545738500000084 L 41.887485500000025,59.93173850000005" fill="none" instance-id="4" semantic-id="32" stroke="rgb(44,178,0)" stroke-width="0.1"/>
  <path d="M 50.75548549999996,65.44073850000007 L 41.10248549999994,62.82673850000003" fill="none" instance-id="4" semantic-id="32" stroke="rgb(44,178,0)" stroke-width="0.1"/>
  <path d="M 49.970485499999995,68.33673850000002 L 40.31848549999995,65.7227385000001" fill="none" instance-id="4" semantic-id="32" stroke="rgb(44,178,0)" stroke-width="0.1"/>
  <path d="M 40.31848549999995,65.7227385000001 L 49.970485499999995,68.33673850000002" fill="none" instance-id="4" semantic-id="32" stroke="rgb(44,178,0)" stroke-width="0.1"/>
  <path d="M 37.26048549999996,71.75273850000008 L 56.69423082628123,0.0" fill="none" instance-id="4" semantic-id="32" stroke="rgb(44,178,0)" stroke-width="0.1"/>
  <path d="M 57.315956707269606,0.0 L 37.8404855,71.90973850000012" fill="none" instance-id="4" semantic-id="32" stroke="rgb(44,178,0)" stroke-width="0.1"/>
  <path d="M 36.51248549999997,71.55073850000008 L 55.89072795481877,0.0" fill="none" instance-id="4" semantic-id="32" stroke="rgb(44,178,0)" stroke-width="0.1"/>
  <path d="M 71.31253596536374,0.0 L 50.88048549999996,75.44173850000004" fill="none" instance-id="4" semantic-id="32" stroke="rgb(44,178,0)" stroke-width="0.1"/>
  <path d="M 49.890485499999954,75.17373850000001 L 70.25078560524912,0.0" fill="none" instance-id="4" semantic-id="32" stroke="rgb(44,178,0)" stroke-width="0.1"/>
  <path d="M 69.62843228906422,0.0 L 49.3114855,75.01673850000009" fill="none" instance-id="4" semantic-id="32" stroke="rgb(44,178,0)" stroke-width="0.1"/>
  <path d="M 49.1864855,71.2327385000001 L 39.53448549999996,68.61873850000006" fill="none" instance-id="4" semantic-id="32" stroke="rgb(44,178,0)" stroke-width="0.1"/>
  <path d="M 75.21303483001964,0.0 L 54.51448549999998,76.42573850000008" fill="none" instance-id="5" semantic-id="32" stroke="rgb(44,178,0)" stroke-width="0.1"/>
  <path d="M 77.14384864441445,0.0 L 84.99748549999993,2.1267385000001013" fill="none" instance-id="5" semantic-id="32" stroke="rgb(44,178,0)" stroke-width="0.1"/>
  <path d="M 74.56048550000003,2.4087385000000268 L 84.21248549999996,5.0227385000000595" fill="none" instance-id="5" semantic-id="32" stroke="rgb(44,178,0)" stroke-width="0.1"/>
  <path d="M 73.77648549999992,5.304738500000099 L 83.42848549999997,7.918738500000018" fill="none" instance-id="5" semantic-id="32" stroke="rgb(44,178,0)" stroke-width="0.1"/>
  <path d="M 72.99248549999993,8.19973850000008 L 82.64448549999997,10.813738500000113" fill="none" instance-id="5" semantic-id="32" stroke="rgb(44,178,0)" stroke-width="0.1"/>
  <path d="M 72.20748549999996,11.095738500000039 L 81.86048549999998,13.709738500000071" fill="none" instance-id="5" semantic-id="32" stroke="rgb(44,178,0)" stroke-width="0.1"/>
  <path d="M 71.42348549999997,13.99173850000011 L 81.07548550000001,16.60573850000003" fill="none" instance-id="5" semantic-id="32" stroke="rgb(44,178,0)" stroke-width="0.1"/>
  <path d="M 70.36148549999996,17.913738500000022 L 80.0134855,20.527738500000055" fill="none" instance-id="5" semantic-id="32" stroke="rgb(44,178,0)" stroke-width="0.1"/>
  <path d="M 69.57748549999997,20.809738500000094 L 79.22948550000001,23.423738500000013" fill="none" instance-id="5" semantic-id="32" stroke="rgb(44,178,0)" stroke-width="0.1"/>
  <path d="M 68.7924855,23.704738500000076 L 78.44548550000002,26.319738500000085" fill="none" instance-id="5" semantic-id="32" stroke="rgb(44,178,0)" stroke-width="0.1"/>
  <path d="M 68.0084855,26.600738500000034 L 77.66048549999994,29.214738500000067" fill="none" instance-id="5" semantic-id="32" stroke="rgb(44,178,0)" stroke-width="0.1"/>
  <path d="M 67.22448550000001,29.496738500000106 L 76.87648549999994,32.110738500000025" fill="none" instance-id="5" semantic-id="32" stroke="rgb(44,178,0)" stroke-width="0.1"/>
  <path d="M 66.44048550000002,32.39173850000009 L 76.09248549999995,35.0067385000001" fill="none" instance-id="5" semantic-id="32" stroke="rgb(44,178,0)" stroke-width="0.1"/>
  <path d="M 65.65548549999994,35.287738500000046 L 75.30848549999996,37.90173850000008" fill="none" instance-id="5" semantic-id="32" stroke="rgb(44,178,0)" stroke-width="0.1"/>
  <path d="M 64.87148549999995,38.18373850000012 L 74.52348549999999,40.79773850000004" fill="none" instance-id="5" semantic-id="32" stroke="rgb(44,178,0)" stroke-width="0.1"/>
  <path d="M 64.08748549999996,41.0787385000001 L 73.7394855,43.69373850000011" fill="none" instance-id="5" semantic-id="32" stroke="rgb(44,178,0)" stroke-width="0.1"/>
  <path d="M 63.303485499999965,43.97473850000006 L 72.95548550000001,46.58873850000009" fill="none" instance-id="5" semantic-id="32" stroke="rgb(44,178,0)" stroke-width="0.1"/>
  <path d="M 62.5184855,46.870738500000016 L 72.17148550000002,49.48473850000005" fill="none" instance-id="5" semantic-id="32" stroke="rgb(44,178,0)" stroke-width="0.1"/>
  <path d="M 61.734485500000005,49.76673850000009 L 71.38648549999994,52.38073850000001" fill="none" instance-id="5" semantic-id="32" stroke="rgb(44,178,0)" stroke-width="0.1"/>
  <path d="M 60.95048550000001,52.66173850000007 L 70.60248549999994,55.2757385000001" fill="none" instance-id="5" semantic-id="32" stroke="rgb(44,178,0)" stroke-width="0.1"/>
  <path d="M 60.16648550000002,55.55773850000003 L 69.81848549999995,58.17173850000006" fill="none" instance-id="5" semantic-id="32" stroke="rgb(44,178,0)" stroke-width="0.1"/>
  <path d="M 59.38148549999994,58.4537385000001 L 69.03448549999996,61.06773850000002" fill="none" instance-id="5" semantic-id="32" stroke="rgb(44,178,0)" stroke-width="0.1"/>
  <path d="M 58.59748549999995,61.34873850000008 L 68.24948549999999,63.962738500000114" fill="none" instance-id="5" semantic-id="32" stroke="rgb(44,178,0)" stroke-width="0.1"/>
  <path d="M 57.813485499999956,64.24473850000004 L 67.4654855,66.85873850000007" fill="none" instance-id="5" semantic-id="32" stroke="rgb(44,178,0)" stroke-width="0.1"/>
  <path d="M 57.029485499999964,67.14073850000011 L 66.68148550000001,69.75473850000003" fill="none" instance-id="5" semantic-id="32" stroke="rgb(44,178,0)" stroke-width="0.1"/>
  <path d="M 56.244485499999996,70.0357385000001 L 65.89748550000002,72.64973850000001" fill="none" instance-id="5" semantic-id="32" stroke="rgb(44,178,0)" stroke-width="0.1"/>
  <path d="M 65.89748550000002,72.64973850000001 L 56.244485499999996,70.0357385000001" fill="none" instance-id="5" semantic-id="32" stroke="rgb(44,178,0)" stroke-width="0.1"/>
  <path d="M 65.49348550000002,79.39973850000001 L 86.99748973193687,0.0" fill="none" instance-id="5" semantic-id="32" stroke="rgb(44,178,0)" stroke-width="0.1"/>
  <path d="M 86.37596907975103,0.0 L 64.91448549999996,79.24273850000009" fill="none" instance-id="5" semantic-id="32" stroke="rgb(44,178,0)" stroke-width="0.1"/>
  <path d="M 64.16648550000002,79.03973850000011 L 85.57299014730665,0.0" fill="none" instance-id="5" semantic-id="32" stroke="rgb(44,178,0)" stroke-width="0.1"/>
  <path d="M 66.24148549999995,79.60173850000001 L 87.80019783220166,0.0" fill="none" instance-id="5" semantic-id="32" stroke="rgb(44,178,0)" stroke-width="0.1"/>
  <path d="M 72.3793898216569,0.0 L 51.87448549999999,75.71073850000005" fill="none" instance-id="5" semantic-id="32" stroke="rgb(44,178,0)" stroke-width="0.1"/>
  <path d="M 52.863485500000024,75.97873850000008 L 73.44097284577037,0.0" fill="none" instance-id="5" semantic-id="32" stroke="rgb(44,178,0)" stroke-width="0.1"/>
  <path d="M 74.06333681757508,0.0 L 53.442485499999975,76.13573850000012" fill="none" instance-id="5" semantic-id="32" stroke="rgb(44,178,0)" stroke-width="0.1"/>
  <path d="M 55.460485500000004,72.93173850000005 L 65.11248549999993,75.54573850000008" fill="none" instance-id="5" semantic-id="32" stroke="rgb(44,178,0)" stroke-width="0.1"/>
  <path d="M 36.51248549999997,71.55073850000008 L 28.807695729006753,100.0" fill="none" instance-id="4" semantic-id="32" stroke="rgb(44,178,0)" stroke-width="0.1"/>
  <path d="M 48.24048549999998,74.72673850000001 L 43.28848549999998,93.01073850000012" fill="none" instance-id="4" semantic-id="32" stroke="rgb(44,178,0)" stroke-width="0.1"/>
  <path d="M 31.392485499999964,95.71773850000011 L 30.81248549999998,95.56073850000007" fill="none" instance-id="4" semantic-id="32" stroke="rgb(44,178,0)" stroke-width="0.1"/>
  <path d="M 30.81248549999998,95.56073850000007 L 37.26048549999996,71.75273850000008" fill="none" instance-id="4" semantic-id="32" stroke="rgb(44,178,0)" stroke-width="0.1"/>
  <path d="M 37.8404855,71.90973850000012 L 31.392485499999964,95.71773850000011" fill="none" instance-id="4" semantic-id="32" stroke="rgb(44,178,0)" stroke-width="0.1"/>
  <path d="M 32.674485499999946,90.98073850000003 L 33.63648549999999,90.3957385000001" fill="none" instance-id="4" semantic-id="32" stroke="rgb(44,178,0)" stroke-width="0.1"/>
  <path d="M 33.63648549999999,90.3957385000001 L 38.58848549999999,72.11273850000009" fill="none" instance-id="4" semantic-id="32" stroke="rgb(44,178,0)" stroke-width="0.1"/>
  <path d="M 32.095485499999995,90.8237385000001 L 31.595485499999995,89.70573850000005" fill="none" instance-id="4" semantic-id="32" stroke="rgb(44,178,0)" stroke-width="0.1"/>
  <path d="M 50.88048549999996,75.44173850000004 L 44.22865509136466,100.0" fill="none" instance-id="4" semantic-id="32" stroke="rgb(44,178,0)" stroke-width="0.1"/>
  <path d="M 42.863485500000024,98.82473850000008 L 43.442485499999975,98.98173850000012" fill="none" instance-id="4" semantic-id="32" stroke="rgb(44,178,0)" stroke-width="0.1"/>
  <path d="M 43.442485499999975,98.98173850000012 L 49.890485499999954,75.17373850000001" fill="none" instance-id="4" semantic-id="32" stroke="rgb(44,178,0)" stroke-width="0.1"/>
  <path d="M 49.3114855,75.01673850000009 L 42.863485500000024,98.82473850000008" fill="none" instance-id="4" semantic-id="32" stroke="rgb(44,178,0)" stroke-width="0.1"/>
  <path d="M 44.146485499999926,94.08773850000011 L 43.28848549999998,93.01073850000012" fill="none" instance-id="4" semantic-id="32" stroke="rgb(44,178,0)" stroke-width="0.1"/>
  <path d="M 43.28848549999998,93.01073850000012 L 48.24048549999998,74.72673850000001" fill="none" instance-id="4" semantic-id="32" stroke="rgb(44,178,0)" stroke-width="0.1"/>
  <path d="M 44.72548549999999,94.24473850000004 L 45.96348549999993,93.5977385000001" fill="none" instance-id="4" semantic-id="32" stroke="rgb(44,178,0)" stroke-width="0.1"/>
  <path d="M 48.40248550000001,74.12773850000008 L 38.75048549999997,71.51373850000004" fill="none" instance-id="4" semantic-id="32" stroke="rgb(44,178,0)" stroke-width="0.1"/>
  <path d="M 47.61848550000002,77.02373850000004 L 37.9654855,74.40973850000012" fill="none" instance-id="4" semantic-id="32" stroke="rgb(44,178,0)" stroke-width="0.1"/>
  <path d="M 46.83348549999994,79.91973850000011 L 37.18148549999995,77.30573850000007" fill="none" instance-id="4" semantic-id="32" stroke="rgb(44,178,0)" stroke-width="0.1"/>
  <path d="M 37.18148549999995,77.30573850000007 L 46.83348549999994,79.91973850000011" fill="none" instance-id="4" semantic-id="32" stroke="rgb(44,178,0)" stroke-width="0.1"/>
  <path d="M 28.890485499999954,99.69273850000002 L 30.025086690439366,100.0" fill="none" instance-id="4" semantic-id="32" stroke="rgb(44,178,0)" stroke-width="0.1"/>
  <path d="M 66.24148549999995,79.60173850000001 L 60.71729822933423,100.0" fill="none" instance-id="5" semantic-id="32" stroke="rgb(44,178,0)" stroke-width="0.1"/>
  <path d="M 54.51448549999998,76.42573850000008 L 49.56248549999998,94.70973850000007" fill="none" instance-id="5" semantic-id="32" stroke="rgb(44,178,0)" stroke-width="0.1"/>
  <path d="M 59.91401365760066,100.0 L 65.49348550000002,79.39973850000001" fill="none" instance-id="5" semantic-id="32" stroke="rgb(44,178,0)" stroke-width="0.1"/>
  <path d="M 64.91448549999996,79.24273850000009 L 59.29272717708329,100.0" fill="none" instance-id="5" semantic-id="32" stroke="rgb(44,178,0)" stroke-width="0.1"/>
  <path d="M 59.74948549999999,98.31373850000011 L 59.21448550000002,97.3237385000001" fill="none" instance-id="5" semantic-id="32" stroke="rgb(44,178,0)" stroke-width="0.1"/>
  <path d="M 59.21448550000002,97.3237385000001 L 64.16648550000002,79.03973850000011" fill="none" instance-id="5" semantic-id="32" stroke="rgb(44,178,0)" stroke-width="0.1"/>
  <path d="M 60.32848549999994,98.47073850000004 L 61.32448549999992,97.75773850000007" fill="none" instance-id="5" semantic-id="32" stroke="rgb(44,178,0)" stroke-width="0.1"/>
  <path d="M 51.87448549999999,75.71073850000005 L 45.29633043786657,100.0" fill="none" instance-id="5" semantic-id="32" stroke="rgb(44,178,0)" stroke-width="0.1"/>
  <path d="M 46.994485499999996,99.94373850000011 L 46.41548549999993,99.78673850000007" fill="none" instance-id="5" semantic-id="32" stroke="rgb(44,178,0)" stroke-width="0.1"/>
  <path d="M 46.41548549999993,99.78673850000007 L 52.863485500000024,75.97873850000008" fill="none" instance-id="5" semantic-id="32" stroke="rgb(44,178,0)" stroke-width="0.1"/>
  <path d="M 53.442485499999975,76.13573850000012 L 46.994485499999996,99.94373850000011" fill="none" instance-id="5" semantic-id="32" stroke="rgb(44,178,0)" stroke-width="0.1"/>
  <path d="M 48.27748550000001,95.20673850000003 L 49.56248549999998,94.70973850000007" fill="none" instance-id="5" semantic-id="32" stroke="rgb(44,178,0)" stroke-width="0.1"/>
  <path d="M 49.56248549999998,94.70973850000007 L 54.51448549999998,76.42573850000008" fill="none" instance-id="5" semantic-id="32" stroke="rgb(44,178,0)" stroke-width="0.1"/>
  <path d="M 47.69848549999995,95.0497385000001 L 46.95748549999996,93.86673850000011" fill="none" instance-id="5" semantic-id="32" stroke="rgb(44,178,0)" stroke-width="0.1"/>
  <path d="M 54.67648550000001,75.82773850000001 L 64.32848549999994,78.44173850000004" fill="none" instance-id="5" semantic-id="32" stroke="rgb(44,178,0)" stroke-width="0.1"/>
  <path d="M 53.89248550000002,78.7227385000001 L 63.54448549999995,81.33673850000002" fill="none" instance-id="5" semantic-id="32" stroke="rgb(44,178,0)" stroke-width="0.1"/>
  <path d="M 53.10748549999994,81.61873850000006 L 62.76048549999996,84.2327385000001" fill="none" instance-id="5" semantic-id="32" stroke="rgb(44,178,0)" stroke-width="0.1"/>
  <path d="M 62.76048549999996,84.2327385000001 L 53.10748549999994,81.61873850000006" fill="none" instance-id="5" semantic-id="32" stroke="rgb(44,178,0)" stroke-width="0.1"/>
  <path d="M 45.96348549999993,93.5977385000001 L 46.95748549999996,93.86673850000011" fill="none" instance-id="5" semantic-id="32" stroke="rgb(44,178,0)" stroke-width="0.1"/>
  <path d="M 42.81848549999995,98.99273850000009 L 42.545674643189955,100.0" fill="none" instance-id="4" semantic-id="32" stroke="rgb(44,178,0)" stroke-width="0.1"/>
  <path d="M 46.537503091602844,100.0 L 46.466485499999976,99.98073850000003" fill="none" instance-id="5" semantic-id="32" stroke="rgb(44,178,0)" stroke-width="0.1"/>
  <path d="M 46.466485499999976,99.98073850000003 L 46.46127106077347,100.0" fill="none" instance-id="5" semantic-id="32" stroke="rgb(44,178,0)" stroke-width="0.1"/>
  <path d="M 43.06326553591157,100.0 L 43.30048549999992,99.12373850000006" fill="none" instance-id="4" semantic-id="32" stroke="rgb(44,178,0)" stroke-width="0.1"/>
  <path d="M 43.30048549999992,99.12373850000006 L 42.81848549999995,98.99273850000009" fill="none" instance-id="4" semantic-id="32" stroke="rgb(44,178,0)" stroke-width="0.1"/>
 </g>
</svg>