<?xml version="1.0" encoding="utf-8"?>
<svg style="background-color: #000;" version="1.1" viewBox="0 0 100.0 100.0" xmlns="http://www.w3.org/2000/svg" xmlns:inkscape="http://www.inkscape.org/namespaces/inkscape">
 <g id="layerAxis【轴线号】" inkscape:groupmode="layer" inkscape:label="Axis【轴线号】">
  <path d="M 45.54438099999999,26.50750000000005 L 45.54438099999999,0.0" fill="none" stroke="rgb(0,178,0)" stroke-width="0.1"/>
 </g>
 <g id="layerCW_glass【金属幕墙】" inkscape:groupmode="layer" inkscape:label="CW_glass【金属幕墙】">
  <path d="M 39.04438099999999,94.25750000000005 L 39.04438099999999,96.75750000000005" fill="none" instance-id="-1" semantic-id="33" stroke="rgb(0,88,178)" stroke-width="0.1"/>
  <path d="M 38.54438099999999,93.75750000000005 L 38.54438099999999,96.75750000000005" fill="none" instance-id="-1" semantic-id="33" stroke="rgb(0,88,178)" stroke-width="0.1"/>
  <path d="M 100.0,94.25750000000005 L 39.04438099999999,94.25750000000005" fill="none" instance-id="-1" semantic-id="33" stroke="rgb(0,88,178)" stroke-width="0.1"/>
  <path d="M 39.04438099999999,94.25750000000005 L 39.04438099999999,96.75750000000005" fill="none" instance-id="-1" semantic-id="33" stroke="rgb(0,88,178)" stroke-width="0.1"/>
  <path d="M 100.0,93.75750000000005 L 38.54438099999999,93.75750000000005" fill="none" instance-id="-1" semantic-id="33" stroke="rgb(0,88,178)" stroke-width="0.1"/>
  <path d="M 38.54438099999999,93.75750000000005 L 38.54438099999999,96.75750000000005" fill="none" instance-id="-1" semantic-id="33" stroke="rgb(0,88,178)" stroke-width="0.1"/>
 </g>
 <g id="layerColumn【柱】" inkscape:groupmode="layer" inkscape:label="Column【柱】">
  <path d="M 49.54438099999999,100.0 L 49.54438099999999,96.75750000000005" fill="none" stroke="rgb(178,0,178)" stroke-width="0.1"/>
  <path d="M 49.54438099999999,96.75750000000005 L 37.54438099999999,96.75750000000005" fill="none" stroke="rgb(178,0,178)" stroke-width="0.1"/>
  <path d="M 37.54438099999999,96.75750000000005 L 37.54438099999999,100.0" fill="none" stroke="rgb(178,0,178)" stroke-width="0.1"/>
 </g>
 <g id="layerDote【轴线】" inkscape:groupmode="layer" inkscape:label="Dote【轴线】">
  <path d="M 45.54438099999999,100.0 L 45.54438099999999,1.75750000000005" fill="none" stroke="rgb(53,107,107)" stroke-width="0.1"/>
 </g>
 <g id="layerMetal【金属】" inkscape:groupmode="layer" inkscape:label="Metal【金属】">
  <path d="M 0.0,92.75950000000005 L 0.14438099999998144,92.75950000000005" fill="none" stroke="rgb(178,0,0)" stroke-width="0.1"/>
  <path d="M 0.14438099999998144,92.75950000000005 L 0.14438099999998144,88.75750000000005" fill="none" stroke="rgb(178,0,0)" stroke-width="0.1"/>
  <path d="M 0.14438099999998144,88.75750000000005 L 0.0,88.75750000000005" fill="none" stroke="rgb(178,0,0)" stroke-width="0.1"/>
  <path d="M 5.544380999999987,88.75750000000005 L 5.544380999999987,92.75950000000005" fill="none" stroke="rgb(178,0,0)" stroke-width="0.1"/>
  <path d="M 5.544380999999987,92.75950000000005 L 6.544380999999987,92.75950000000005" fill="none" stroke="rgb(178,0,0)" stroke-width="0.1"/>
  <path d="M 6.544380999999987,92.75950000000005 L 6.544380999999987,88.75750000000005" fill="none" stroke="rgb(178,0,0)" stroke-width="0.1"/>
  <path d="M 6.544380999999987,88.75750000000005 L 5.544380999999987,88.75750000000005" fill="none" stroke="rgb(178,0,0)" stroke-width="0.1"/>
  <path d="M 11.944380999999993,86.75750000000005 L 11.944380999999993,92.75950000000005" fill="none" stroke="rgb(178,0,0)" stroke-width="0.1"/>
  <path d="M 11.944380999999993,92.75950000000005 L 12.944380999999993,92.75950000000005" fill="none" stroke="rgb(178,0,0)" stroke-width="0.1"/>
  <path d="M 12.944380999999993,92.75950000000005 L 12.944380999999993,86.75750000000005" fill="none" stroke="rgb(178,0,0)" stroke-width="0.1"/>
  <path d="M 12.944380999999993,86.75750000000005 L 11.944380999999993,86.75750000000005" fill="none" stroke="rgb(178,0,0)" stroke-width="0.1"/>
  <path d="M 18.344381,88.75750000000005 L 18.344381,92.75950000000005" fill="none" stroke="rgb(178,0,0)" stroke-width="0.1"/>
  <path d="M 18.344381,92.75950000000005 L 19.344381,92.75950000000005" fill="none" stroke="rgb(178,0,0)" stroke-width="0.1"/>
  <path d="M 19.344381,92.75950000000005 L 19.344381,88.75750000000005" fill="none" stroke="rgb(178,0,0)" stroke-width="0.1"/>
  <path d="M 19.344381,88.75750000000005 L 18.344381,88.75750000000005" fill="none" stroke="rgb(178,0,0)" stroke-width="0.1"/>
  <path d="M 24.744380999999976,88.75450000000005 L 24.744380999999976,92.75750000000005" fill="none" stroke="rgb(178,0,0)" stroke-width="0.1"/>
  <path d="M 24.744380999999976,92.75750000000005 L 25.744380999999976,92.75750000000005" fill="none" stroke="rgb(178,0,0)" stroke-width="0.1"/>
  <path d="M 25.744380999999976,92.75750000000005 L 25.744380999999976,88.75450000000005" fill="none" stroke="rgb(178,0,0)" stroke-width="0.1"/>
  <path d="M 25.744380999999976,88.75450000000005 L 24.744380999999976,88.75450000000005" fill="none" stroke="rgb(178,0,0)" stroke-width="0.1"/>
  <path d="M 31.14438099999998,88.75750000000005 L 31.14438099999998,92.75950000000005" fill="none" stroke="rgb(178,0,0)" stroke-width="0.1"/>
  <path d="M 31.14438099999998,92.75950000000005 L 32.14438099999998,92.75950000000005" fill="none" stroke="rgb(178,0,0)" stroke-width="0.1"/>
  <path d="M 32.14438099999998,92.75950000000005 L 32.14438099999998,88.75750000000005" fill="none" stroke="rgb(178,0,0)" stroke-width="0.1"/>
  <path d="M 32.14438099999998,88.75750000000005 L 31.14438099999998,88.75750000000005" fill="none" stroke="rgb(178,0,0)" stroke-width="0.1"/>
  <path d="M 37.54438099999999,86.75750000000005 L 37.54438099999999,92.75950000000005" fill="none" stroke="rgb(178,0,0)" stroke-width="0.1"/>
  <path d="M 37.54438099999999,92.75950000000005 L 38.54438099999999,92.75950000000005" fill="none" stroke="rgb(178,0,0)" stroke-width="0.1"/>
  <path d="M 38.54438099999999,92.75950000000005 L 38.54438099999999,86.75750000000005" fill="none" stroke="rgb(178,0,0)" stroke-width="0.1"/>
  <path d="M 38.54438099999999,86.75750000000005 L 37.54438099999999,86.75750000000005" fill="none" stroke="rgb(178,0,0)" stroke-width="0.1"/>
  <path d="M 0.0,91.75950000000005 L 38.54438099999999,91.75950000000005" fill="none" stroke="rgb(178,0,0)" stroke-width="0.1"/>
  <path d="M 38.54438099999999,91.75950000000005 L 38.54438099999999,96.75750000000005" fill="none" stroke="rgb(178,0,0)" stroke-width="0.1"/>
  <path d="M 0.0,92.75950000000005 L 37.54438099999999,92.75950000000005" fill="none" stroke="rgb(178,0,0)" stroke-width="0.1"/>
  <path d="M 37.54438099999999,92.75950000000005 L 37.54438099999999,96.75750000000005" fill="none" stroke="rgb(178,0,0)" stroke-width="0.1"/>
  <path d="M 0.0,91.75831401904621 L 38.54438099999999,91.75950000000005" fill="none" stroke="rgb(178,0,0)" stroke-width="0.1"/>
  <path d="M 38.54438099999999,91.75950000000005 L 38.54438099999999,96.75750000000005" fill="none" stroke="rgb(178,0,0)" stroke-width="0.1"/>
  <path d="M 0.0,92.75830811488895 L 37.54438099999999,92.75950000000005" fill="none" stroke="rgb(178,0,0)" stroke-width="0.1"/>
  <path d="M 37.54438099999999,92.75950000000005 L 37.54438099999999,96.75750000000005" fill="none" stroke="rgb(178,0,0)" stroke-width="0.1"/>
 </g>
 <g id="layerWINDOW" inkscape:groupmode="layer" inkscape:label="WINDOW">
  <path d="M 37.54438099999999,98.75750000000005 L 37.54438099999999,96.75750000000005" fill="none" instance-id="1" semantic-id="9" stroke="rgb(0,178,178)" stroke-width="0.1"/>
  <path d="M 37.54438099999999,97.42450000000005 L 0.0,97.42450000000005" fill="none" instance-id="1" semantic-id="9" stroke="rgb(0,178,178)" stroke-width="0.1"/>
  <path d="M 37.54438099999999,98.09050000000005 L 0.0,98.09050000000005" fill="none" instance-id="1" semantic-id="9" stroke="rgb(0,178,178)" stroke-width="0.1"/>
  <path d="M 0.0,98.75750000000005 L 37.54438099999999,98.75750000000005" fill="none" instance-id="1" semantic-id="9" stroke="rgb(0,178,178)" stroke-width="0.1"/>
  <path d="M 0.0,96.75750000000005 L 37.54438099999999,96.75750000000005" fill="none" instance-id="1" semantic-id="9" stroke="rgb(0,178,178)" stroke-width="0.1"/>
 </g>
 <g id="layerWall【砖墙】" inkscape:groupmode="layer" inkscape:label="Wall【砖墙】">
  <path d="M 100.0,96.75750000000005 L 37.54438099999999,96.75750000000005" fill="none" instance-id="-1" semantic-id="1" stroke="rgb(178,178,0)" stroke-width="0.1"/>
  <path d="M 37.54438099999999,96.75750000000005 L 37.54438099999999,98.75750000000005" fill="none" instance-id="-1" semantic-id="1" stroke="rgb(178,178,0)" stroke-width="0.1"/>
  <path d="M 37.54438099999999,98.75750000000005 L 100.0,98.75750000000005" fill="none" instance-id="-1" semantic-id="1" stroke="rgb(178,178,0)" stroke-width="0.1"/>
  <path d="M 0.0,98.75750000000005 L 11.544380999999987,98.75750000000005" fill="none" instance-id="-1" semantic-id="1" stroke="rgb(178,178,0)" stroke-width="0.1"/>
  <path d="M 11.544380999999987,98.75750000000005 L 11.544380999999987,100.0" fill="none" instance-id="-1" semantic-id="1" stroke="rgb(178,178,0)" stroke-width="0.1"/>
 </g>
</svg>