<?xml version="1.0" encoding="utf-8"?>
<svg style="background-color: #000;" version="1.1" viewBox="0 0 100.0 100.0" xmlns="http://www.w3.org/2000/svg" xmlns:inkscape="http://www.inkscape.org/namespaces/inkscape">
 <g id="layer0-幕墙编号" inkscape:groupmode="layer" inkscape:label="0-幕墙编号">
  <text fill="rgb(0,178,178)" font-family="Noto Sans CJK SC" font-size="2" transform="rotate(-0.0,59.459,30.533821499999988)" x="59.459" y="30.533821499999988">
   BLMQ4
  </text>
 </g>
 <g id="layer0-梁线" inkscape:groupmode="layer" inkscape:label="0-梁线">
  <path d="M 11.25,30.24282149999999 L 0.0,30.24282149999999" fill="none" stroke="rgb(63,63,63)" stroke-width="0.1"/>
  <path d="M 11.25,32.24282149999999 L 0.0,32.24282149999999" fill="none" stroke="rgb(63,63,63)" stroke-width="0.1"/>
 </g>
 <g id="layer0-结构板线" inkscape:groupmode="layer" inkscape:label="0-结构板线">
  <path d="M 0.0,32.24282149999999 L 0.75,32.24282149999999" fill="none" stroke="rgb(0,0,178)" stroke-width="0.1"/>
  <path d="M 0.75,32.24282149999999 L 0.75,35.24282149999999" fill="none" stroke="rgb(0,0,178)" stroke-width="0.1"/>
  <path d="M 0.75,35.24282149999999 L 13.25,35.24282149999999" fill="none" stroke="rgb(0,0,178)" stroke-width="0.1"/>
  <path d="M 13.25,35.24282149999999 L 13.25,17.24282149999999" fill="none" stroke="rgb(0,0,178)" stroke-width="0.1"/>
  <path d="M 13.25,17.24282149999999 L 100.0,17.24282149999999" fill="none" stroke="rgb(0,0,178)" stroke-width="0.1"/>
 </g>
 <g id="layer0-风井" inkscape:groupmode="layer" inkscape:label="0-风井">
  <path d="M 14.25,8.242821499999991 L 14.25,4.242821499999991" fill="none" stroke="rgb(178,0,0)" stroke-width="0.1"/>
  <path d="M 14.25,4.242821499999991 L 27.25,4.242821499999991" fill="none" stroke="rgb(178,0,0)" stroke-width="0.1"/>
  <path d="M 27.25,4.242821499999991 L 27.25,8.242821499999991" fill="none" stroke="rgb(178,0,0)" stroke-width="0.1"/>
  <path d="M 27.25,8.242821499999991 L 14.25,8.242821499999991" fill="none" stroke="rgb(178,0,0)" stroke-width="0.1"/>
  <path d="M 29.25,8.242821499999991 L 29.25,4.242821499999991" fill="none" stroke="rgb(178,0,0)" stroke-width="0.1"/>
  <path d="M 29.25,4.242821499999991 L 42.25,4.242821499999991" fill="none" stroke="rgb(178,0,0)" stroke-width="0.1"/>
  <path d="M 42.25,4.242821499999991 L 42.25,8.242821499999991" fill="none" stroke="rgb(178,0,0)" stroke-width="0.1"/>
  <path d="M 42.25,8.242821499999991 L 29.25,8.242821499999991" fill="none" stroke="rgb(178,0,0)" stroke-width="0.1"/>
  <path d="M 27.25,4.242821499999991 L 15.61,5.332821500000023" fill="none" stroke="rgb(178,0,0)" stroke-width="0.1"/>
  <path d="M 15.61,5.332821500000023 L 14.25,8.242821499999991" fill="none" stroke="rgb(178,0,0)" stroke-width="0.1"/>
  <path d="M 42.25,4.242821499999991 L 30.61,5.332821500000023" fill="none" stroke="rgb(178,0,0)" stroke-width="0.1"/>
  <path d="M 30.61,5.332821500000023 L 29.25,8.242821499999991" fill="none" stroke="rgb(178,0,0)" stroke-width="0.1"/>
 </g>
 <g id="layerAxis【轴线号】" inkscape:groupmode="layer" inkscape:label="Axis【轴线号】">
  <path d="M 6.75,75.49282149999999 L 6.75,100.0" fill="none" stroke="rgb(0,178,0)" stroke-width="0.1"/>
 </g>
 <g id="layerCW_glass【玻璃幕墙】" inkscape:groupmode="layer" inkscape:label="CW_glass【玻璃幕墙】">
  <path d="M 14.25,20.24282149999999 L 100.0,20.24282149999999" fill="none" stroke="rgb(0,142,71)" stroke-width="0.1"/>
  <path d="M 14.25,19.74282149999999 L 100.0,19.74282149999999" fill="none" stroke="rgb(0,142,71)" stroke-width="0.1"/>
  <path d="M 13.25,17.24282149999999 L 100.0,17.24282149999999" fill="none" stroke="rgb(0,142,71)" stroke-width="0.1"/>
 </g>
 <g id="layerCW_stone【石材幕墙】" inkscape:groupmode="layer" inkscape:label="CW_stone【石材幕墙】">
  <path d="M 0.0,36.311787017241386 L 14.25,40.24282149999999" fill="none" stroke="rgb(107,79,53)" stroke-width="0.1"/>
  <path d="M 14.25,40.24282149999999 L 14.25,32.74282149999999" fill="none" stroke="rgb(107,79,53)" stroke-width="0.1"/>
  <path d="M 14.25,32.74282149999999 L 14.25,31.24282149999999" fill="none" stroke="rgb(107,79,53)" stroke-width="0.1"/>
  <path d="M 14.25,31.24282149999999 L 13.25,31.24282149999999" fill="none" stroke="rgb(107,79,53)" stroke-width="0.1"/>
 </g>
 <g id="layerColumn【柱】" inkscape:groupmode="layer" inkscape:label="Column【柱】">
  <path d="M 13.25,17.24282149999999 L 13.25,4.242821499999991" fill="none" stroke="rgb(178,0,178)" stroke-width="0.1"/>
  <path d="M 13.25,4.242821499999991 L 0.25,4.242821499999991" fill="none" stroke="rgb(178,0,178)" stroke-width="0.1"/>
  <path d="M 0.25,4.242821499999991 L 0.25,17.24282149999999" fill="none" stroke="rgb(178,0,178)" stroke-width="0.1"/>
  <path d="M 0.25,17.24282149999999 L 13.25,17.24282149999999" fill="none" stroke="rgb(178,0,178)" stroke-width="0.1"/>
  <path d="M 8.25,14.742821499999991 L 8.25,14.392821500000025" fill="none" stroke="rgb(178,0,0)" stroke-width="0.1"/>
  <path d="M 8.25,14.392821500000025 L 6.875,14.392821500000025" fill="none" stroke="rgb(178,0,0)" stroke-width="0.1"/>
  <path d="M 6.875,14.392821500000025 L 6.875,10.867821499999991" fill="none" stroke="rgb(178,0,0)" stroke-width="0.1"/>
  <path d="M 6.875,10.867821499999991 L 10.400000000000006,10.867821499999991" fill="none" stroke="rgb(178,0,0)" stroke-width="0.1"/>
  <path d="M 10.400000000000006,10.867821499999991 L 10.400000000000006,12.242821499999991" fill="none" stroke="rgb(178,0,0)" stroke-width="0.1"/>
  <path d="M 10.400000000000006,12.242821499999991 L 10.75,12.242821499999991" fill="none" stroke="rgb(178,0,0)" stroke-width="0.1"/>
  <path d="M 10.75,12.242821499999991 L 10.75,9.242821499999991" fill="none" stroke="rgb(178,0,0)" stroke-width="0.1"/>
  <path d="M 10.75,9.242821499999991 L 10.400000000000006,9.242821499999991" fill="none" stroke="rgb(178,0,0)" stroke-width="0.1"/>
  <path d="M 10.400000000000006,9.242821499999991 L 10.400000000000006,10.617821499999991" fill="none" stroke="rgb(178,0,0)" stroke-width="0.1"/>
  <path d="M 10.400000000000006,10.617821499999991 L 6.875,10.617821499999991" fill="none" stroke="rgb(178,0,0)" stroke-width="0.1"/>
  <path d="M 6.875,10.617821499999991 L 6.875,7.092821500000014" fill="none" stroke="rgb(178,0,0)" stroke-width="0.1"/>
  <path d="M 6.875,7.092821500000014 L 8.25,7.092821500000014" fill="none" stroke="rgb(178,0,0)" stroke-width="0.1"/>
  <path d="M 8.25,7.092821500000014 L 8.25,6.742821499999991" fill="none" stroke="rgb(178,0,0)" stroke-width="0.1"/>
  <path d="M 8.25,6.742821499999991 L 5.25,6.742821499999991" fill="none" stroke="rgb(178,0,0)" stroke-width="0.1"/>
  <path d="M 5.25,6.742821499999991 L 5.25,7.092821500000014" fill="none" stroke="rgb(178,0,0)" stroke-width="0.1"/>
  <path d="M 5.25,7.092821500000014 L 6.625,7.092821500000014" fill="none" stroke="rgb(178,0,0)" stroke-width="0.1"/>
  <path d="M 6.625,7.092821500000014 L 6.625,10.617821499999991" fill="none" stroke="rgb(178,0,0)" stroke-width="0.1"/>
  <path d="M 6.625,10.617821499999991 L 3.1000000000000014,10.617821499999991" fill="none" stroke="rgb(178,0,0)" stroke-width="0.1"/>
  <path d="M 3.1000000000000014,10.617821499999991 L 3.1000000000000014,9.242821499999991" fill="none" stroke="rgb(178,0,0)" stroke-width="0.1"/>
  <path d="M 3.1000000000000014,9.242821499999991 L 2.75,9.242821499999991" fill="none" stroke="rgb(178,0,0)" stroke-width="0.1"/>
  <path d="M 2.75,9.242821499999991 L 2.75,12.242821499999991" fill="none" stroke="rgb(178,0,0)" stroke-width="0.1"/>
  <path d="M 2.75,12.242821499999991 L 3.1000000000000014,12.242821499999991" fill="none" stroke="rgb(178,0,0)" stroke-width="0.1"/>
  <path d="M 3.1000000000000014,12.242821499999991 L 3.1000000000000014,10.867821499999991" fill="none" stroke="rgb(178,0,0)" stroke-width="0.1"/>
  <path d="M 3.1000000000000014,10.867821499999991 L 6.625,10.867821499999991" fill="none" stroke="rgb(178,0,0)" stroke-width="0.1"/>
  <path d="M 6.625,10.867821499999991 L 6.625,14.392821500000025" fill="none" stroke="rgb(178,0,0)" stroke-width="0.1"/>
  <path d="M 6.625,14.392821500000025 L 5.25,14.392821500000025" fill="none" stroke="rgb(178,0,0)" stroke-width="0.1"/>
  <path d="M 5.25,14.392821500000025 L 5.25,14.742821499999991" fill="none" stroke="rgb(178,0,0)" stroke-width="0.1"/>
  <path d="M 5.25,14.742821499999991 L 8.25,14.742821499999991" fill="none" stroke="rgb(178,0,0)" stroke-width="0.1"/>
 </g>
 <g id="layerDote【轴线】" inkscape:groupmode="layer" inkscape:label="Dote【轴线】">
  <path d="M 0.0,13.242821499999991 L 100.0,13.242821499999991" fill="none" stroke="rgb(53,107,107)" stroke-width="0.1"/>
  <path d="M 6.75,100.0 L 6.75,0.0" fill="none" stroke="rgb(53,107,107)" stroke-width="0.1"/>
  <path d="M 0.0,34.24282149999999 L 100.0,34.24282149999999" fill="none" stroke="rgb(53,107,107)" stroke-width="0.1"/>
  <path d="M 100.0,34.24282149999999 L 0.0,34.24282149999999" fill="none" stroke="rgb(53,107,107)" stroke-width="0.1"/>
  <path d="M 6.75,0.0 L 6.75,37.255821500000025" fill="none" stroke="rgb(53,107,107)" stroke-width="0.1"/>
  <path d="M 100.0,13.242821499999991 L 0.0,13.242821499999991" fill="none" stroke="rgb(53,107,107)" stroke-width="0.1"/>
 </g>
 <g id="layerHandrail【栏杆】" inkscape:groupmode="layer" inkscape:label="Handrail【栏杆】">
  <path d="M 100.0,16.74282149999999 L 44.25,16.74282149999999" fill="none" stroke="rgb(53,107,107)" stroke-width="0.1"/>
  <path d="M 100.0,16.24282149999999 L 44.25,16.24282149999999" fill="none" stroke="rgb(53,107,107)" stroke-width="0.1"/>
  <path d="M 0.0,31.74282149999999 L 1.25,31.74282149999999" fill="none" stroke="rgb(53,107,107)" stroke-width="0.1"/>
  <path d="M 1.25,31.74282149999999 L 1.25,33.24282149999999" fill="none" stroke="rgb(53,107,107)" stroke-width="0.1"/>
  <path d="M 0.0,31.24282149999999 L 1.75,31.24282149999999" fill="none" stroke="rgb(53,107,107)" stroke-width="0.1"/>
  <path d="M 1.75,31.24282149999999 L 1.75,33.24282149999999" fill="none" stroke="rgb(53,107,107)" stroke-width="0.1"/>
 </g>
 <g id="layerLook_line【看线、投影线】" inkscape:groupmode="layer" inkscape:label="Look_line【看线、投影线】">
  <path d="M 0.0,30.24282149999999 L 11.25,30.24282149999999" fill="none" stroke="rgb(0,178,178)" stroke-width="0.1"/>
  <path d="M 100.0,15.242821499999991 L 44.25,15.242821499999991" fill="none" stroke="rgb(0,178,178)" stroke-width="0.1"/>
 </g>
 <g id="layerMetal【金属】" inkscape:groupmode="layer" inkscape:label="Metal【金属】">
  <path d="M 69.25,21.24282149999999 L 69.25,22.24282149999999" fill="none" stroke="rgb(178,0,0)" stroke-width="0.1"/>
  <path d="M 69.25,22.24282149999999 L 68.25,22.24282149999999" fill="none" stroke="rgb(178,0,0)" stroke-width="0.1"/>
  <path d="M 68.25,22.24282149999999 L 68.25,21.24282149999999" fill="none" stroke="rgb(178,0,0)" stroke-width="0.1"/>
  <path d="M 68.25,21.24282149999999 L 69.25,21.24282149999999" fill="none" stroke="rgb(178,0,0)" stroke-width="0.1"/>
  <path d="M 82.25,21.24282149999999 L 82.25,22.24282149999999" fill="none" stroke="rgb(178,0,0)" stroke-width="0.1"/>
  <path d="M 82.25,22.24282149999999 L 81.25,22.24282149999999" fill="none" stroke="rgb(178,0,0)" stroke-width="0.1"/>
  <path d="M 81.25,22.24282149999999 L 81.25,21.24282149999999" fill="none" stroke="rgb(178,0,0)" stroke-width="0.1"/>
  <path d="M 81.25,21.24282149999999 L 82.25,21.24282149999999" fill="none" stroke="rgb(178,0,0)" stroke-width="0.1"/>
  <path d="M 48.25,21.24282149999999 L 48.25,22.24282149999999" fill="none" stroke="rgb(178,0,0)" stroke-width="0.1"/>
  <path d="M 48.25,22.24282149999999 L 47.25,22.24282149999999" fill="none" stroke="rgb(178,0,0)" stroke-width="0.1"/>
  <path d="M 47.25,22.24282149999999 L 47.25,21.24282149999999" fill="none" stroke="rgb(178,0,0)" stroke-width="0.1"/>
  <path d="M 47.25,21.24282149999999 L 48.25,21.24282149999999" fill="none" stroke="rgb(178,0,0)" stroke-width="0.1"/>
  <path d="M 35.25,21.24282149999999 L 35.25,22.24282149999999" fill="none" stroke="rgb(178,0,0)" stroke-width="0.1"/>
  <path d="M 35.25,22.24282149999999 L 34.25,22.24282149999999" fill="none" stroke="rgb(178,0,0)" stroke-width="0.1"/>
  <path d="M 34.25,22.24282149999999 L 34.25,21.24282149999999" fill="none" stroke="rgb(178,0,0)" stroke-width="0.1"/>
  <path d="M 34.25,21.24282149999999 L 35.25,21.24282149999999" fill="none" stroke="rgb(178,0,0)" stroke-width="0.1"/>
  <path d="M 14.25,21.24282149999999 L 14.25,22.24282149999999" fill="none" stroke="rgb(178,0,0)" stroke-width="0.1"/>
  <path d="M 14.25,22.24282149999999 L 13.25,22.24282149999999" fill="none" stroke="rgb(178,0,0)" stroke-width="0.1"/>
  <path d="M 13.25,22.24282149999999 L 13.25,21.24282149999999" fill="none" stroke="rgb(178,0,0)" stroke-width="0.1"/>
  <path d="M 13.25,21.24282149999999 L 14.25,21.24282149999999" fill="none" stroke="rgb(178,0,0)" stroke-width="0.1"/>
  <path d="M 35.25,21.24282149999999 L 34.25,21.24282149999999" fill="none" stroke="rgb(178,0,0)" stroke-width="0.1"/>
  <path d="M 34.25,21.24282149999999 L 34.25,20.24282149999999" fill="none" stroke="rgb(178,0,0)" stroke-width="0.1"/>
  <path d="M 34.25,20.24282149999999 L 35.25,20.24282149999999" fill="none" stroke="rgb(178,0,0)" stroke-width="0.1"/>
  <path d="M 35.25,20.24282149999999 L 35.25,21.24282149999999" fill="none" stroke="rgb(178,0,0)" stroke-width="0.1"/>
  <path d="M 35.25,19.74282149999999 L 34.25,19.74282149999999" fill="none" stroke="rgb(178,0,0)" stroke-width="0.1"/>
  <path d="M 34.25,19.74282149999999 L 34.25,17.24282149999999" fill="none" stroke="rgb(178,0,0)" stroke-width="0.1"/>
  <path d="M 34.25,17.24282149999999 L 35.25,17.24282149999999" fill="none" stroke="rgb(178,0,0)" stroke-width="0.1"/>
  <path d="M 35.25,17.24282149999999 L 35.25,19.74282149999999" fill="none" stroke="rgb(178,0,0)" stroke-width="0.1"/>
  <path d="M 34.650000000000006,20.24282149999999 L 34.849999999999994,20.24282149999999" fill="none" stroke="rgb(178,0,0)" stroke-width="0.1"/>
  <path d="M 34.849999999999994,20.24282149999999 L 34.849999999999994,19.74282149999999" fill="none" stroke="rgb(178,0,0)" stroke-width="0.1"/>
  <path d="M 34.849999999999994,19.74282149999999 L 34.650000000000006,19.74282149999999" fill="none" stroke="rgb(178,0,0)" stroke-width="0.1"/>
  <path d="M 34.650000000000006,19.74282149999999 L 34.650000000000006,20.24282149999999" fill="none" stroke="rgb(178,0,0)" stroke-width="0.1"/>
  <path d="M 34.25,19.74282149999999 L 34.650000000000006,19.74282149999999" fill="none" stroke="rgb(178,0,0)" stroke-width="0.1"/>
  <path d="M 34.650000000000006,19.74282149999999 L 34.650000000000006,19.99282149999999" fill="none" stroke="rgb(178,0,0)" stroke-width="0.1"/>
  <path d="M 34.650000000000006,19.99282149999999 L 34.25,19.99282149999999" fill="none" stroke="rgb(178,0,0)" stroke-width="0.1"/>
  <path d="M 34.25,19.99282149999999 L 34.25,19.74282149999999" fill="none" stroke="rgb(178,0,0)" stroke-width="0.1"/>
  <path d="M 35.25,19.74282149999999 L 34.849999999999994,19.74282149999999" fill="none" stroke="rgb(178,0,0)" stroke-width="0.1"/>
  <path d="M 34.849999999999994,19.74282149999999 L 34.849999999999994,19.99282149999999" fill="none" stroke="rgb(178,0,0)" stroke-width="0.1"/>
  <path d="M 34.849999999999994,19.99282149999999 L 35.25,19.99282149999999" fill="none" stroke="rgb(178,0,0)" stroke-width="0.1"/>
  <path d="M 35.25,19.99282149999999 L 35.25,19.74282149999999" fill="none" stroke="rgb(178,0,0)" stroke-width="0.1"/>
  <path d="M 48.25,21.24282149999999 L 47.25,21.24282149999999" fill="none" stroke="rgb(178,0,0)" stroke-width="0.1"/>
  <path d="M 47.25,21.24282149999999 L 47.25,20.24282149999999" fill="none" stroke="rgb(178,0,0)" stroke-width="0.1"/>
  <path d="M 47.25,20.24282149999999 L 48.25,20.24282149999999" fill="none" stroke="rgb(178,0,0)" stroke-width="0.1"/>
  <path d="M 48.25,20.24282149999999 L 48.25,21.24282149999999" fill="none" stroke="rgb(178,0,0)" stroke-width="0.1"/>
  <path d="M 48.25,19.74282149999999 L 47.25,19.74282149999999" fill="none" stroke="rgb(178,0,0)" stroke-width="0.1"/>
  <path d="M 47.25,19.74282149999999 L 47.25,17.24282149999999" fill="none" stroke="rgb(178,0,0)" stroke-width="0.1"/>
  <path d="M 47.25,17.24282149999999 L 48.25,17.24282149999999" fill="none" stroke="rgb(178,0,0)" stroke-width="0.1"/>
  <path d="M 48.25,17.24282149999999 L 48.25,19.74282149999999" fill="none" stroke="rgb(178,0,0)" stroke-width="0.1"/>
  <path d="M 47.650000000000006,20.24282149999999 L 47.849999999999994,20.24282149999999" fill="none" stroke="rgb(178,0,0)" stroke-width="0.1"/>
  <path d="M 47.849999999999994,20.24282149999999 L 47.849999999999994,19.74282149999999" fill="none" stroke="rgb(178,0,0)" stroke-width="0.1"/>
  <path d="M 47.849999999999994,19.74282149999999 L 47.650000000000006,19.74282149999999" fill="none" stroke="rgb(178,0,0)" stroke-width="0.1"/>
  <path d="M 47.650000000000006,19.74282149999999 L 47.650000000000006,20.24282149999999" fill="none" stroke="rgb(178,0,0)" stroke-width="0.1"/>
  <path d="M 47.25,19.74282149999999 L 47.650000000000006,19.74282149999999" fill="none" stroke="rgb(178,0,0)" stroke-width="0.1"/>
  <path d="M 47.650000000000006,19.74282149999999 L 47.650000000000006,19.99282149999999" fill="none" stroke="rgb(178,0,0)" stroke-width="0.1"/>
  <path d="M 47.650000000000006,19.99282149999999 L 47.25,19.99282149999999" fill="none" stroke="rgb(178,0,0)" stroke-width="0.1"/>
  <path d="M 47.25,19.99282149999999 L 47.25,19.74282149999999" fill="none" stroke="rgb(178,0,0)" stroke-width="0.1"/>
  <path d="M 48.25,19.74282149999999 L 47.849999999999994,19.74282149999999" fill="none" stroke="rgb(178,0,0)" stroke-width="0.1"/>
  <path d="M 47.849999999999994,19.74282149999999 L 47.849999999999994,19.99282149999999" fill="none" stroke="rgb(178,0,0)" stroke-width="0.1"/>
  <path d="M 47.849999999999994,19.99282149999999 L 48.25,19.99282149999999" fill="none" stroke="rgb(178,0,0)" stroke-width="0.1"/>
  <path d="M 48.25,19.99282149999999 L 48.25,19.74282149999999" fill="none" stroke="rgb(178,0,0)" stroke-width="0.1"/>
  <path d="M 69.25,21.24282149999999 L 68.25,21.24282149999999" fill="none" stroke="rgb(178,0,0)" stroke-width="0.1"/>
  <path d="M 68.25,21.24282149999999 L 68.25,20.24282149999999" fill="none" stroke="rgb(178,0,0)" stroke-width="0.1"/>
  <path d="M 68.25,20.24282149999999 L 69.25,20.24282149999999" fill="none" stroke="rgb(178,0,0)" stroke-width="0.1"/>
  <path d="M 69.25,20.24282149999999 L 69.25,21.24282149999999" fill="none" stroke="rgb(178,0,0)" stroke-width="0.1"/>
  <path d="M 69.25,19.74282149999999 L 68.25,19.74282149999999" fill="none" stroke="rgb(178,0,0)" stroke-width="0.1"/>
  <path d="M 68.25,19.74282149999999 L 68.25,17.24282149999999" fill="none" stroke="rgb(178,0,0)" stroke-width="0.1"/>
  <path d="M 68.25,17.24282149999999 L 69.25,17.24282149999999" fill="none" stroke="rgb(178,0,0)" stroke-width="0.1"/>
  <path d="M 69.25,17.24282149999999 L 69.25,19.74282149999999" fill="none" stroke="rgb(178,0,0)" stroke-width="0.1"/>
  <path d="M 68.65,20.24282149999999 L 68.85,20.24282149999999" fill="none" stroke="rgb(178,0,0)" stroke-width="0.1"/>
  <path d="M 68.85,20.24282149999999 L 68.85,19.74282149999999" fill="none" stroke="rgb(178,0,0)" stroke-width="0.1"/>
  <path d="M 68.85,19.74282149999999 L 68.65,19.74282149999999" fill="none" stroke="rgb(178,0,0)" stroke-width="0.1"/>
  <path d="M 68.65,19.74282149999999 L 68.65,20.24282149999999" fill="none" stroke="rgb(178,0,0)" stroke-width="0.1"/>
  <path d="M 68.25,19.74282149999999 L 68.65,19.74282149999999" fill="none" stroke="rgb(178,0,0)" stroke-width="0.1"/>
  <path d="M 68.65,19.74282149999999 L 68.65,19.99282149999999" fill="none" stroke="rgb(178,0,0)" stroke-width="0.1"/>
  <path d="M 68.65,19.99282149999999 L 68.25,19.99282149999999" fill="none" stroke="rgb(178,0,0)" stroke-width="0.1"/>
  <path d="M 68.25,19.99282149999999 L 68.25,19.74282149999999" fill="none" stroke="rgb(178,0,0)" stroke-width="0.1"/>
  <path d="M 69.25,19.74282149999999 L 68.85,19.74282149999999" fill="none" stroke="rgb(178,0,0)" stroke-width="0.1"/>
  <path d="M 68.85,19.74282149999999 L 68.85,19.99282149999999" fill="none" stroke="rgb(178,0,0)" stroke-width="0.1"/>
  <path d="M 68.85,19.99282149999999 L 69.25,19.99282149999999" fill="none" stroke="rgb(178,0,0)" stroke-width="0.1"/>
  <path d="M 69.25,19.99282149999999 L 69.25,19.74282149999999" fill="none" stroke="rgb(178,0,0)" stroke-width="0.1"/>
  <path d="M 82.25,21.24282149999999 L 81.25,21.24282149999999" fill="none" stroke="rgb(178,0,0)" stroke-width="0.1"/>
  <path d="M 81.25,21.24282149999999 L 81.25,20.24282149999999" fill="none" stroke="rgb(178,0,0)" stroke-width="0.1"/>
  <path d="M 81.25,20.24282149999999 L 82.25,20.24282149999999" fill="none" stroke="rgb(178,0,0)" stroke-width="0.1"/>
  <path d="M 82.25,20.24282149999999 L 82.25,21.24282149999999" fill="none" stroke="rgb(178,0,0)" stroke-width="0.1"/>
  <path d="M 82.25,19.74282149999999 L 81.25,19.74282149999999" fill="none" stroke="rgb(178,0,0)" stroke-width="0.1"/>
  <path d="M 81.25,19.74282149999999 L 81.25,17.24282149999999" fill="none" stroke="rgb(178,0,0)" stroke-width="0.1"/>
  <path d="M 81.25,17.24282149999999 L 82.25,17.24282149999999" fill="none" stroke="rgb(178,0,0)" stroke-width="0.1"/>
  <path d="M 82.25,17.24282149999999 L 82.25,19.74282149999999" fill="none" stroke="rgb(178,0,0)" stroke-width="0.1"/>
  <path d="M 81.65,20.24282149999999 L 81.85,20.24282149999999" fill="none" stroke="rgb(178,0,0)" stroke-width="0.1"/>
  <path d="M 81.85,20.24282149999999 L 81.85,19.74282149999999" fill="none" stroke="rgb(178,0,0)" stroke-width="0.1"/>
  <path d="M 81.85,19.74282149999999 L 81.65,19.74282149999999" fill="none" stroke="rgb(178,0,0)" stroke-width="0.1"/>
  <path d="M 81.65,19.74282149999999 L 81.65,20.24282149999999" fill="none" stroke="rgb(178,0,0)" stroke-width="0.1"/>
  <path d="M 81.25,19.74282149999999 L 81.65,19.74282149999999" fill="none" stroke="rgb(178,0,0)" stroke-width="0.1"/>
  <path d="M 81.65,19.74282149999999 L 81.65,19.99282149999999" fill="none" stroke="rgb(178,0,0)" stroke-width="0.1"/>
  <path d="M 81.65,19.99282149999999 L 81.25,19.99282149999999" fill="none" stroke="rgb(178,0,0)" stroke-width="0.1"/>
  <path d="M 81.25,19.99282149999999 L 81.25,19.74282149999999" fill="none" stroke="rgb(178,0,0)" stroke-width="0.1"/>
  <path d="M 82.25,19.74282149999999 L 81.85,19.74282149999999" fill="none" stroke="rgb(178,0,0)" stroke-width="0.1"/>
  <path d="M 81.85,19.74282149999999 L 81.85,19.99282149999999" fill="none" stroke="rgb(178,0,0)" stroke-width="0.1"/>
  <path d="M 81.85,19.99282149999999 L 82.25,19.99282149999999" fill="none" stroke="rgb(178,0,0)" stroke-width="0.1"/>
  <path d="M 82.25,19.99282149999999 L 82.25,19.74282149999999" fill="none" stroke="rgb(178,0,0)" stroke-width="0.1"/>
  <path d="M 14.25,21.24282149999999 L 13.25,21.24282149999999" fill="none" stroke="rgb(178,0,0)" stroke-width="0.1"/>
  <path d="M 13.25,21.24282149999999 L 13.25,20.24282149999999" fill="none" stroke="rgb(178,0,0)" stroke-width="0.1"/>
  <path d="M 13.25,20.24282149999999 L 14.25,20.24282149999999" fill="none" stroke="rgb(178,0,0)" stroke-width="0.1"/>
  <path d="M 14.25,20.24282149999999 L 14.25,21.24282149999999" fill="none" stroke="rgb(178,0,0)" stroke-width="0.1"/>
  <path d="M 14.25,19.74282149999999 L 13.25,19.74282149999999" fill="none" stroke="rgb(178,0,0)" stroke-width="0.1"/>
  <path d="M 13.25,19.74282149999999 L 13.25,17.24282149999999" fill="none" stroke="rgb(178,0,0)" stroke-width="0.1"/>
  <path d="M 13.25,17.24282149999999 L 14.25,17.24282149999999" fill="none" stroke="rgb(178,0,0)" stroke-width="0.1"/>
  <path d="M 14.25,17.24282149999999 L 14.25,19.74282149999999" fill="none" stroke="rgb(178,0,0)" stroke-width="0.1"/>
  <path d="M 13.650000000000006,20.24282149999999 L 13.849999999999994,20.24282149999999" fill="none" stroke="rgb(178,0,0)" stroke-width="0.1"/>
  <path d="M 13.849999999999994,20.24282149999999 L 13.849999999999994,19.74282149999999" fill="none" stroke="rgb(178,0,0)" stroke-width="0.1"/>
  <path d="M 13.849999999999994,19.74282149999999 L 13.650000000000006,19.74282149999999" fill="none" stroke="rgb(178,0,0)" stroke-width="0.1"/>
  <path d="M 13.650000000000006,19.74282149999999 L 13.650000000000006,20.24282149999999" fill="none" stroke="rgb(178,0,0)" stroke-width="0.1"/>
  <path d="M 13.25,19.74282149999999 L 13.650000000000006,19.74282149999999" fill="none" stroke="rgb(178,0,0)" stroke-width="0.1"/>
  <path d="M 13.650000000000006,19.74282149999999 L 13.650000000000006,19.99282149999999" fill="none" stroke="rgb(178,0,0)" stroke-width="0.1"/>
  <path d="M 13.650000000000006,19.99282149999999 L 13.25,19.99282149999999" fill="none" stroke="rgb(178,0,0)" stroke-width="0.1"/>
  <path d="M 13.25,19.99282149999999 L 13.25,19.74282149999999" fill="none" stroke="rgb(178,0,0)" stroke-width="0.1"/>
  <path d="M 14.25,19.74282149999999 L 13.849999999999994,19.74282149999999" fill="none" stroke="rgb(178,0,0)" stroke-width="0.1"/>
  <path d="M 13.849999999999994,19.74282149999999 L 13.849999999999994,19.99282149999999" fill="none" stroke="rgb(178,0,0)" stroke-width="0.1"/>
  <path d="M 13.849999999999994,19.99282149999999 L 14.25,19.99282149999999" fill="none" stroke="rgb(178,0,0)" stroke-width="0.1"/>
  <path d="M 14.25,19.99282149999999 L 14.25,19.74282149999999" fill="none" stroke="rgb(178,0,0)" stroke-width="0.1"/>
 </g>
 <g id="layerPub_text【公共文字标注】" inkscape:groupmode="layer" inkscape:label="Pub_text【公共文字标注】">
  <text fill="rgb(0,0,0)" font-family="Noto Sans CJK SC" font-size="2" transform="rotate(-0.0,15.504999999999995,13.202821500000027)" x="15.504999999999995" y="13.202821500000027">
   油烟
  </text>
  <text fill="rgb(0,0,0)" font-family="Noto Sans CJK SC" font-size="2" transform="rotate(-0.0,31.665000000000006,13.202821500000027)" x="31.665000000000006" y="13.202821500000027">
   排风
  </text>
 </g>
 <g id="layerWINDOW" inkscape:groupmode="layer" inkscape:label="WINDOW">
  <path d="M 0.75,35.24282149999999 L 0.0,35.24282149999999" fill="none" stroke="rgb(0,178,178)" stroke-width="0.1"/>
  <path d="M 0.75,33.24282149999999 L 0.0,33.24282149999999" fill="none" stroke="rgb(0,178,178)" stroke-width="0.1"/>
  <path d="M 0.0,33.90982150000002 L 0.75,33.90982150000002" fill="none" stroke="rgb(0,178,178)" stroke-width="0.1"/>
  <path d="M 0.0,34.576821499999994 L 0.75,34.576821499999994" fill="none" stroke="rgb(0,178,178)" stroke-width="0.1"/>
  <path d="M 0.75,35.24282149999999 L 0.75,33.24282149999999" fill="none" stroke="rgb(0,178,178)" stroke-width="0.1"/>
 </g>
 <g id="layerWall【砖墙】" inkscape:groupmode="layer" inkscape:label="Wall【砖墙】">
  <path d="M 13.25,17.24282149999999 L 13.25,35.24282149999999" fill="none" instance-id="-1" semantic-id="1" stroke="rgb(178,178,0)" stroke-width="0.1"/>
  <path d="M 11.25,17.24282149999999 L 11.25,33.24282149999999" fill="none" instance-id="-1" semantic-id="1" stroke="rgb(178,178,0)" stroke-width="0.1"/>
  <path d="M 13.25,17.24282149999999 L 11.25,17.24282149999999" fill="none" instance-id="-1" semantic-id="1" stroke="rgb(178,178,0)" stroke-width="0.1"/>
  <path d="M 11.25,33.24282149999999 L 0.75,33.24282149999999" fill="none" instance-id="-1" semantic-id="1" stroke="rgb(178,178,0)" stroke-width="0.1"/>
  <path d="M 0.75,33.24282149999999 L 0.75,35.24282149999999" fill="none" instance-id="-1" semantic-id="1" stroke="rgb(178,178,0)" stroke-width="0.1"/>
  <path d="M 0.75,35.24282149999999 L 13.25,35.24282149999999" fill="none" instance-id="-1" semantic-id="1" stroke="rgb(178,178,0)" stroke-width="0.1"/>
  <path d="M 29.25,4.242821499999991 L 29.25,15.242821499999991" fill="none" instance-id="-1" semantic-id="1" stroke="rgb(178,178,0)" stroke-width="0.1"/>
  <path d="M 27.25,4.242821499999991 L 27.25,15.242821499999991" fill="none" instance-id="-1" semantic-id="1" stroke="rgb(178,178,0)" stroke-width="0.1"/>
  <path d="M 44.25,17.24282149999999 L 28.25,17.24282149999999" fill="none" instance-id="-1" semantic-id="1" stroke="rgb(178,178,0)" stroke-width="0.1"/>
  <path d="M 42.25,15.242821499999991 L 29.25,15.242821499999991" fill="none" instance-id="-1" semantic-id="1" stroke="rgb(178,178,0)" stroke-width="0.1"/>
  <path d="M 27.25,4.242821499999991 L 0.25,4.242821499999991" fill="none" instance-id="-1" semantic-id="1" stroke="rgb(178,178,0)" stroke-width="0.1"/>
  <path d="M 28.25,2.242821499999991 L 0.25,2.242821499999991" fill="none" instance-id="-1" semantic-id="1" stroke="rgb(178,178,0)" stroke-width="0.1"/>
  <path d="M 0.25,4.242821499999991 L 0.25,2.242821499999991" fill="none" instance-id="-1" semantic-id="1" stroke="rgb(178,178,0)" stroke-width="0.1"/>
  <path d="M 42.25,4.242821499999991 L 29.25,4.242821499999991" fill="none" instance-id="-1" semantic-id="1" stroke="rgb(178,178,0)" stroke-width="0.1"/>
  <path d="M 44.25,2.242821499999991 L 28.25,2.242821499999991" fill="none" instance-id="-1" semantic-id="1" stroke="rgb(178,178,0)" stroke-width="0.1"/>
  <path d="M 44.25,2.242821499999991 L 44.25,17.24282149999999" fill="none" instance-id="-1" semantic-id="1" stroke="rgb(178,178,0)" stroke-width="0.1"/>
  <path d="M 42.25,4.242821499999991 L 42.25,15.242821499999991" fill="none" instance-id="-1" semantic-id="1" stroke="rgb(178,178,0)" stroke-width="0.1"/>
  <path d="M 28.25,17.24282149999999 L 13.25,17.24282149999999" fill="none" instance-id="-1" semantic-id="1" stroke="rgb(178,178,0)" stroke-width="0.1"/>
  <path d="M 27.25,15.242821499999991 L 13.25,15.242821499999991" fill="none" instance-id="-1" semantic-id="1" stroke="rgb(178,178,0)" stroke-width="0.1"/>
  <path d="M 13.25,17.24282149999999 L 13.25,15.242821499999991" fill="none" instance-id="-1" semantic-id="1" stroke="rgb(178,178,0)" stroke-width="0.1"/>
 </g>
</svg>