<?xml version="1.0" encoding="utf-8"?>
<svg style="background-color: #000;" version="1.1" viewBox="0 0 100.0 100.0" xmlns="http://www.w3.org/2000/svg" xmlns:inkscape="http://www.inkscape.org/namespaces/inkscape">
 <g id="layer0-电气预留洞" inkscape:groupmode="layer" inkscape:label="0-电气预留洞">
  <path d="M 43.923543499999994,5.75750000000005 L 46.923543499999994,5.75750000000005" fill="none" stroke="rgb(0,0,178)" stroke-width="0.1"/>
  <path d="M 46.923543499999994,5.75750000000005 L 46.923543499999994,9.75750000000005" fill="none" stroke="rgb(0,0,178)" stroke-width="0.1"/>
  <path d="M 46.923543499999994,9.75750000000005 L 43.923543499999994,9.75750000000005" fill="none" stroke="rgb(0,0,178)" stroke-width="0.1"/>
  <path d="M 43.923543499999994,9.75750000000005 L 43.923543499999994,5.75750000000005" fill="none" stroke="rgb(0,0,178)" stroke-width="0.1"/>
  <path d="M 46.923543499999994,0.0 L 46.923543499999994,5.75750000000005" fill="none" stroke="rgb(0,0,178)" stroke-width="0.1"/>
  <path d="M 46.923543499999994,5.75750000000005 L 43.923543499999994,5.75750000000005" fill="none" stroke="rgb(0,0,178)" stroke-width="0.1"/>
  <path d="M 43.923543499999994,5.75750000000005 L 43.923543499999994,0.0" fill="none" stroke="rgb(0,0,178)" stroke-width="0.1"/>
  <path d="M 44.8829053739903,0.0 L 43.923543499999994,5.75750000000005" fill="none" stroke="rgb(0,0,178)" stroke-width="0.1"/>
 </g>
 <g id="layer0-门槛门口线" inkscape:groupmode="layer" inkscape:label="0-门槛门口线">
  <path d="M 61.923543499999994,75.75750000000005 L 71.9235435,75.75750000000005" fill="none" stroke="rgb(0,0,0)" stroke-width="0.1"/>
  <path d="M 61.923543499999994,76.75750000000005 L 71.9235435,76.75750000000005" fill="none" stroke="rgb(0,0,0)" stroke-width="0.1"/>
  <path d="M 61.923543499999994,75.75750000000005 L 71.9235435,75.75750000000005" fill="none" stroke="rgb(0,0,0)" stroke-width="0.1"/>
  <path d="M 61.923543499999994,76.75750000000005 L 71.9235435,76.75750000000005" fill="none" stroke="rgb(0,0,0)" stroke-width="0.1"/>
  <path d="M 58.923543499999994,30.75750000000005 L 58.923543499999994,20.75750000000005" fill="none" stroke="rgb(0,0,0)" stroke-width="0.1"/>
  <path d="M 59.923543499999994,30.75750000000005 L 59.923543499999994,20.75750000000005" fill="none" stroke="rgb(0,0,0)" stroke-width="0.1"/>
 </g>
 <g id="layer0-风井" inkscape:groupmode="layer" inkscape:label="0-风井">
  <path d="M 0.0,52.75750000000005 L 1.9235434999999939,52.75750000000005" fill="none" stroke="rgb(178,0,0)" stroke-width="0.1"/>
  <path d="M 1.9235434999999939,52.75750000000005 L 1.9235434999999939,72.75750000000005" fill="none" stroke="rgb(178,0,0)" stroke-width="0.1"/>
  <path d="M 1.9235434999999939,72.75750000000005 L 0.0,72.75750000000005" fill="none" stroke="rgb(178,0,0)" stroke-width="0.1"/>
  <path d="M 0.0,38.75750000000005 L 1.9235434999999939,38.75750000000005" fill="none" stroke="rgb(178,0,0)" stroke-width="0.1"/>
  <path d="M 1.9235434999999939,38.75750000000005 L 1.9235434999999939,22.75750000000005" fill="none" stroke="rgb(178,0,0)" stroke-width="0.1"/>
  <path d="M 1.9235434999999939,22.75750000000005 L 0.0,22.75750000000005" fill="none" stroke="rgb(178,0,0)" stroke-width="0.1"/>
  <path d="M 1.9235434999999939,52.75750000000005 L 0.0,53.4299439098437" fill="none" stroke="rgb(178,0,0)" stroke-width="0.1"/>
  <path d="M 1.9235434999999939,22.75750000000005 L 0.0,23.509801123093325" fill="none" stroke="rgb(178,0,0)" stroke-width="0.1"/>
  <path d="M 0.0,50.75750000000005 L 1.9235434999999939,50.75750000000005" fill="none" stroke="rgb(178,0,0)" stroke-width="0.1"/>
  <path d="M 1.9235434999999939,50.75750000000005 L 1.9235434999999939,45.75750000000005" fill="none" stroke="rgb(178,0,0)" stroke-width="0.1"/>
  <path d="M 1.9235434999999939,45.75750000000005 L 0.0,45.75750000000005" fill="none" stroke="rgb(178,0,0)" stroke-width="0.1"/>
  <path d="M 1.9235434999999939,50.75750000000005 L 0.0,50.647065197515076" fill="none" stroke="rgb(178,0,0)" stroke-width="0.1"/>
 </g>
 <g id="layerColumn【柱】" inkscape:groupmode="layer" inkscape:label="Column【柱】">
  <path d="M 49.923543499999994,46.75750000000005 L 60.923543499999994,46.75750000000005" fill="none" stroke="rgb(178,0,178)" stroke-width="0.1"/>
  <path d="M 60.923543499999994,46.75750000000005 L 60.923543499999994,35.75750000000005" fill="none" stroke="rgb(178,0,178)" stroke-width="0.1"/>
  <path d="M 60.923543499999994,35.75750000000005 L 49.923543499999994,35.75750000000005" fill="none" stroke="rgb(178,0,178)" stroke-width="0.1"/>
  <path d="M 49.923543499999994,35.75750000000005 L 49.923543499999994,46.75750000000005" fill="none" stroke="rgb(178,0,178)" stroke-width="0.1"/>
 </g>
 <g id="layerCon_wall【混凝土墙】" inkscape:groupmode="layer" inkscape:label="Con_wall【混凝土墙】">
  <path d="M 43.923543499999994,45.75750000000005 L 40.923543499999994,45.75750000000005" fill="none" instance-id="-1" semantic-id="1" stroke="rgb(178,0,178)" stroke-width="0.1"/>
  <path d="M 40.923543499999994,45.75750000000005 L 40.923543499999994,0.0" fill="none" instance-id="-1" semantic-id="1" stroke="rgb(178,0,178)" stroke-width="0.1"/>
  <path d="M 43.923543499999994,0.0 L 43.923543499999994,35.75750000000005" fill="none" instance-id="-1" semantic-id="1" stroke="rgb(178,0,178)" stroke-width="0.1"/>
  <path d="M 43.923543499999994,35.75750000000005 L 49.923543499999994,35.75750000000005" fill="none" instance-id="-1" semantic-id="1" stroke="rgb(178,0,178)" stroke-width="0.1"/>
  <path d="M 43.923543499999994,40.25750000000005 L 43.923543499999994,45.75750000000005" fill="none" instance-id="-1" semantic-id="1" stroke="rgb(178,0,178)" stroke-width="0.1"/>
  <path d="M 49.923543499999994,40.25750000000005 L 43.923543499999994,40.25750000000005" fill="none" instance-id="-1" semantic-id="1" stroke="rgb(178,0,178)" stroke-width="0.1"/>
  <path d="M 0.0,42.75750000000005 L 0.9235434999999939,42.75750000000005" fill="none" instance-id="-1" semantic-id="1" stroke="rgb(178,0,178)" stroke-width="0.1"/>
  <path d="M 0.9235434999999939,42.75750000000005 L 0.9235434999999939,0.75750000000005" fill="none" instance-id="-1" semantic-id="1" stroke="rgb(178,0,178)" stroke-width="0.1"/>
  <path d="M 0.9235434999999939,0.75750000000005 L 3.923543499999994,0.75750000000005" fill="none" instance-id="-1" semantic-id="1" stroke="rgb(178,0,178)" stroke-width="0.1"/>
  <path d="M 3.923543499999994,0.75750000000005 L 3.923543499999994,45.75750000000005" fill="none" instance-id="-1" semantic-id="1" stroke="rgb(178,0,178)" stroke-width="0.1"/>
  <path d="M 3.923543499999994,45.75750000000005 L 0.0,45.75750000000005" fill="none" instance-id="-1" semantic-id="1" stroke="rgb(178,0,178)" stroke-width="0.1"/>
 </g>
 <g id="layerDIM_SYMB" inkscape:groupmode="layer" inkscape:label="DIM_SYMB">
  <path d="M 32.223543500000005,0.9575000000000955 L 32.223543500000005,41.25750000000005" fill="none" stroke="rgb(0,178,0)" stroke-width="0.1"/>
  <path d="M 32.223543500000005,41.25750000000005 L 32.223543500000005,45.75750000000005" fill="none" stroke="rgb(0,178,0)" stroke-width="0.1"/>
  <path d="M 12.623543499999982,45.75750000000005 L 12.623543499999982,7.25750000000005" fill="none" stroke="rgb(0,178,0)" stroke-width="0.1"/>
  <path d="M 12.623543499999982,7.25750000000005 L 12.623543499999982,2.75750000000005" fill="none" stroke="rgb(0,178,0)" stroke-width="0.1"/>
  <text fill="rgb(0,0,0)" font-family="Noto Sans CJK SC" font-size="2" transform="rotate(-0.0,10.665543500000013,52.582500000000095)" x="10.665543500000013" y="52.582500000000095">
   下
  </text>
 </g>
 <g id="layerDOOR_FIRE" inkscape:groupmode="layer" inkscape:label="DOOR_FIRE">
  <path d="M 34.556543499999975,48.39050000000009 L 34.556543499999975,49.0245000000001" fill="none" instance-id="6" semantic-id="4" stroke="rgb(0,178,178)" stroke-width="0.1"/>
  <path d="M 33.923543499999994,48.39050000000009 L 26.32354349999997,48.39050000000009" fill="none" instance-id="6" semantic-id="4" stroke="rgb(0,178,178)" stroke-width="0.1"/>
  <path d="M 26.32354349999997,49.0245000000001 L 33.923543499999994,49.0245000000001" fill="none" instance-id="6" semantic-id="4" stroke="rgb(0,178,178)" stroke-width="0.1"/>
  <path d="M 32.6565435,48.39050000000009 L 32.6565435,49.0245000000001" fill="none" instance-id="6" semantic-id="4" stroke="rgb(0,178,178)" stroke-width="0.1"/>
  <path d="M 33.923543499999994,49.0245000000001 L 33.923543499999994,48.39050000000009" fill="none" instance-id="6" semantic-id="4" stroke="rgb(0,178,178)" stroke-width="0.1"/>
  <path d="M 26.861543499999982,47.855500000000006 L 29.29954349999997,47.855500000000006" fill="none" instance-id="6" semantic-id="4" stroke="rgb(0,178,178)" stroke-width="0.1"/>
  <path d="M 26.861543499999982,49.55950000000007 L 29.29954349999997,49.55950000000007" fill="none" instance-id="6" semantic-id="4" stroke="rgb(0,178,178)" stroke-width="0.1"/>
  <path d="M 31.39054349999998,48.39050000000009 L 31.39054349999998,49.0245000000001" fill="none" instance-id="6" semantic-id="4" stroke="rgb(0,178,178)" stroke-width="0.1"/>
  <path d="M 30.123543499999982,48.39050000000009 L 30.123543499999982,49.0245000000001" fill="none" instance-id="6" semantic-id="4" stroke="rgb(0,178,178)" stroke-width="0.1"/>
  <path d="M 28.856543499999987,48.39050000000009 L 28.856543499999987,49.0245000000001" fill="none" instance-id="6" semantic-id="4" stroke="rgb(0,178,178)" stroke-width="0.1"/>
  <path d="M 27.590543499999967,48.39050000000009 L 27.590543499999967,49.0245000000001" fill="none" instance-id="6" semantic-id="4" stroke="rgb(0,178,178)" stroke-width="0.1"/>
  <path d="M 26.32354349999997,48.39050000000009 L 26.32354349999997,49.0245000000001" fill="none" instance-id="6" semantic-id="4" stroke="rgb(0,178,178)" stroke-width="0.1"/>
  <path d="M 34.556543499999975,49.0245000000001 L 35.19054349999999,49.0245000000001" fill="none" instance-id="6" semantic-id="4" stroke="rgb(0,178,178)" stroke-width="0.1"/>
  <path d="M 33.923543499999994,48.39050000000009 L 34.556543499999975,48.39050000000009" fill="none" instance-id="6" semantic-id="4" stroke="rgb(0,178,178)" stroke-width="0.1"/>
  <path d="M 33.923543499999994,47.75750000000005 L 33.923543499999994,48.39050000000009" fill="none" instance-id="6" semantic-id="4" stroke="rgb(0,178,178)" stroke-width="0.1"/>
  <path d="M 35.19054349999999,47.75750000000005 L 33.923543499999994,47.75750000000005" fill="none" instance-id="6" semantic-id="4" stroke="rgb(0,178,178)" stroke-width="0.1"/>
  <path d="M 35.19054349999999,49.0245000000001 L 35.19054349999999,47.75750000000005" fill="none" instance-id="6" semantic-id="4" stroke="rgb(0,178,178)" stroke-width="0.1"/>
  <path d="M 33.923543499999994,66.12450000000001 L 34.556543499999975,66.12450000000001" fill="none" instance-id="6" semantic-id="4" stroke="rgb(0,178,178)" stroke-width="0.1"/>
  <path d="M 33.923543499999994,66.75750000000005 L 33.923543499999994,66.12450000000001" fill="none" instance-id="6" semantic-id="4" stroke="rgb(0,178,178)" stroke-width="0.1"/>
  <path d="M 33.923543499999994,65.4905 L 33.923543499999994,66.12450000000001" fill="none" instance-id="6" semantic-id="4" stroke="rgb(0,178,178)" stroke-width="0.1"/>
  <path d="M 26.32354349999997,65.4905 L 33.923543499999994,65.4905" fill="none" instance-id="6" semantic-id="4" stroke="rgb(0,178,178)" stroke-width="0.1"/>
  <path d="M 35.19054349999999,66.75750000000005 L 33.923543499999994,66.75750000000005" fill="none" instance-id="6" semantic-id="4" stroke="rgb(0,178,178)" stroke-width="0.1"/>
  <path d="M 33.923543499999994,66.12450000000001 L 26.32354349999997,66.12450000000001" fill="none" instance-id="6" semantic-id="4" stroke="rgb(0,178,178)" stroke-width="0.1"/>
  <path d="M 33.923543499999994,65.4905 L 33.923543499999994,66.12450000000001" fill="none" instance-id="6" semantic-id="4" stroke="rgb(0,178,178)" stroke-width="0.1"/>
  <path d="M 35.19054349999999,66.75750000000005 L 33.923543499999994,66.75750000000005" fill="none" instance-id="6" semantic-id="4" stroke="rgb(0,178,178)" stroke-width="0.1"/>
  <path d="M 33.923543499999994,66.12450000000001 L 26.32354349999997,66.12450000000001" fill="none" instance-id="6" semantic-id="4" stroke="rgb(0,178,178)" stroke-width="0.1"/>
  <path d="M 33.923543499999994,66.12450000000001 L 34.556543499999975,66.12450000000001" fill="none" instance-id="6" semantic-id="4" stroke="rgb(0,178,178)" stroke-width="0.1"/>
  <path d="M 34.556543499999975,65.4905 L 35.19054349999999,65.4905" fill="none" instance-id="6" semantic-id="4" stroke="rgb(0,178,178)" stroke-width="0.1"/>
  <path d="M 34.556543499999975,66.12450000000001 L 34.556543499999975,65.4905" fill="none" instance-id="6" semantic-id="4" stroke="rgb(0,178,178)" stroke-width="0.1"/>
  <path d="M 35.19054349999999,65.4905 L 35.19054349999999,66.75750000000005" fill="none" instance-id="6" semantic-id="4" stroke="rgb(0,178,178)" stroke-width="0.1"/>
  <path d="M 26.32354349999997,66.12450000000001 L 26.32354349999997,65.4905" fill="none" instance-id="6" semantic-id="4" stroke="rgb(0,178,178)" stroke-width="0.1"/>
  <path d="M 27.590543499999967,66.12450000000001 L 27.590543499999967,65.4905" fill="none" instance-id="6" semantic-id="4" stroke="rgb(0,178,178)" stroke-width="0.1"/>
  <path d="M 28.856543499999987,66.12450000000001 L 28.856543499999987,65.4905" fill="none" instance-id="6" semantic-id="4" stroke="rgb(0,178,178)" stroke-width="0.1"/>
  <path d="M 26.861543499999982,64.95550000000003 L 29.29954349999997,64.95550000000003" fill="none" instance-id="6" semantic-id="4" stroke="rgb(0,178,178)" stroke-width="0.1"/>
  <path d="M 26.861543499999982,66.6595000000001 L 29.29954349999997,66.6595000000001" fill="none" instance-id="6" semantic-id="4" stroke="rgb(0,178,178)" stroke-width="0.1"/>
  <path d="M 26.32354349999997,65.4905 L 33.923543499999994,65.4905" fill="none" instance-id="6" semantic-id="4" stroke="rgb(0,178,178)" stroke-width="0.1"/>
  <path d="M 33.923543499999994,66.12450000000001 L 26.32354349999997,66.12450000000001" fill="none" instance-id="6" semantic-id="4" stroke="rgb(0,178,178)" stroke-width="0.1"/>
  <path d="M 33.923543499999994,65.4905 L 33.923543499999994,66.12450000000001" fill="none" instance-id="6" semantic-id="4" stroke="rgb(0,178,178)" stroke-width="0.1"/>
  <path d="M 32.6565435,66.12450000000001 L 32.6565435,65.4905" fill="none" instance-id="6" semantic-id="4" stroke="rgb(0,178,178)" stroke-width="0.1"/>
  <path d="M 30.123543499999982,66.12450000000001 L 30.123543499999982,65.4905" fill="none" instance-id="6" semantic-id="4" stroke="rgb(0,178,178)" stroke-width="0.1"/>
  <path d="M 31.39054349999998,66.12450000000001 L 31.39054349999998,65.4905" fill="none" instance-id="6" semantic-id="4" stroke="rgb(0,178,178)" stroke-width="0.1"/>
  <path d="M 26.861543499999982,66.6595000000001 L 26.861543499999982,66.12450000000001" fill="none" instance-id="6" semantic-id="4" stroke="rgb(0,178,178)" stroke-width="0.1"/>
  <path d="M 26.861543499999982,64.95550000000003 L 26.861543499999982,65.4905" fill="none" instance-id="6" semantic-id="4" stroke="rgb(0,178,178)" stroke-width="0.1"/>
  <path d="M 29.29954349999997,66.6595000000001 L 29.29954349999997,66.12450000000001" fill="none" instance-id="6" semantic-id="4" stroke="rgb(0,178,178)" stroke-width="0.1"/>
  <path d="M 29.29954349999997,64.95550000000003 L 29.29954349999997,65.4905" fill="none" instance-id="6" semantic-id="4" stroke="rgb(0,178,178)" stroke-width="0.1"/>
  <path d="M 26.861543499999982,49.55950000000007 L 26.861543499999982,49.0245000000001" fill="none" instance-id="6" semantic-id="4" stroke="rgb(0,178,178)" stroke-width="0.1"/>
  <path d="M 29.29954349999997,49.55950000000007 L 29.29954349999997,49.0245000000001" fill="none" instance-id="6" semantic-id="4" stroke="rgb(0,178,178)" stroke-width="0.1"/>
  <path d="M 26.861543499999982,47.855500000000006 L 26.861543499999982,48.39050000000009" fill="none" instance-id="6" semantic-id="4" stroke="rgb(0,178,178)" stroke-width="0.1"/>
  <path d="M 29.29954349999997,47.855500000000006 L 29.29954349999997,48.39050000000009" fill="none" instance-id="6" semantic-id="4" stroke="rgb(0,178,178)" stroke-width="0.1"/>
  <path d="M 60.556543499999975,48.39050000000009 L 60.556543499999975,49.0245000000001" fill="none" instance-id="7" semantic-id="4" stroke="rgb(0,178,178)" stroke-width="0.1"/>
  <path d="M 59.923543499999994,48.39050000000009 L 52.32354349999997,48.39050000000009" fill="none" instance-id="7" semantic-id="4" stroke="rgb(0,178,178)" stroke-width="0.1"/>
  <path d="M 52.32354349999997,49.0245000000001 L 59.923543499999994,49.0245000000001" fill="none" instance-id="7" semantic-id="4" stroke="rgb(0,178,178)" stroke-width="0.1"/>
  <path d="M 58.6565435,48.39050000000009 L 58.6565435,49.0245000000001" fill="none" instance-id="7" semantic-id="4" stroke="rgb(0,178,178)" stroke-width="0.1"/>
  <path d="M 59.923543499999994,49.0245000000001 L 59.923543499999994,48.39050000000009" fill="none" instance-id="7" semantic-id="4" stroke="rgb(0,178,178)" stroke-width="0.1"/>
  <path d="M 52.86154349999998,47.855500000000006 L 55.29954349999997,47.855500000000006" fill="none" instance-id="7" semantic-id="4" stroke="rgb(0,178,178)" stroke-width="0.1"/>
  <path d="M 52.86154349999998,49.55950000000007 L 55.29954349999997,49.55950000000007" fill="none" instance-id="7" semantic-id="4" stroke="rgb(0,178,178)" stroke-width="0.1"/>
  <path d="M 57.39054349999998,48.39050000000009 L 57.39054349999998,49.0245000000001" fill="none" instance-id="7" semantic-id="4" stroke="rgb(0,178,178)" stroke-width="0.1"/>
  <path d="M 56.12354349999998,48.39050000000009 L 56.12354349999998,49.0245000000001" fill="none" instance-id="7" semantic-id="4" stroke="rgb(0,178,178)" stroke-width="0.1"/>
  <path d="M 54.85654349999999,48.39050000000009 L 54.85654349999999,49.0245000000001" fill="none" instance-id="7" semantic-id="4" stroke="rgb(0,178,178)" stroke-width="0.1"/>
  <path d="M 53.59054349999997,48.39050000000009 L 53.59054349999997,49.0245000000001" fill="none" instance-id="7" semantic-id="4" stroke="rgb(0,178,178)" stroke-width="0.1"/>
  <path d="M 52.32354349999997,48.39050000000009 L 52.32354349999997,49.0245000000001" fill="none" instance-id="7" semantic-id="4" stroke="rgb(0,178,178)" stroke-width="0.1"/>
  <path d="M 60.556543499999975,49.0245000000001 L 61.19054349999999,49.0245000000001" fill="none" instance-id="7" semantic-id="4" stroke="rgb(0,178,178)" stroke-width="0.1"/>
  <path d="M 59.923543499999994,48.39050000000009 L 60.556543499999975,48.39050000000009" fill="none" instance-id="7" semantic-id="4" stroke="rgb(0,178,178)" stroke-width="0.1"/>
  <path d="M 59.923543499999994,47.75750000000005 L 59.923543499999994,48.39050000000009" fill="none" instance-id="7" semantic-id="4" stroke="rgb(0,178,178)" stroke-width="0.1"/>
  <path d="M 61.19054349999999,47.75750000000005 L 59.923543499999994,47.75750000000005" fill="none" instance-id="7" semantic-id="4" stroke="rgb(0,178,178)" stroke-width="0.1"/>
  <path d="M 61.19054349999999,49.0245000000001 L 61.19054349999999,47.75750000000005" fill="none" instance-id="7" semantic-id="4" stroke="rgb(0,178,178)" stroke-width="0.1"/>
  <path d="M 59.923543499999994,66.12450000000001 L 60.556543499999975,66.12450000000001" fill="none" instance-id="7" semantic-id="4" stroke="rgb(0,178,178)" stroke-width="0.1"/>
  <path d="M 59.923543499999994,66.75750000000005 L 59.923543499999994,66.12450000000001" fill="none" instance-id="7" semantic-id="4" stroke="rgb(0,178,178)" stroke-width="0.1"/>
  <path d="M 59.923543499999994,65.4905 L 59.923543499999994,66.12450000000001" fill="none" instance-id="7" semantic-id="4" stroke="rgb(0,178,178)" stroke-width="0.1"/>
  <path d="M 52.32354349999997,65.4905 L 59.923543499999994,65.4905" fill="none" instance-id="7" semantic-id="4" stroke="rgb(0,178,178)" stroke-width="0.1"/>
  <path d="M 61.19054349999999,66.75750000000005 L 59.923543499999994,66.75750000000005" fill="none" instance-id="7" semantic-id="4" stroke="rgb(0,178,178)" stroke-width="0.1"/>
  <path d="M 59.923543499999994,66.12450000000001 L 52.32354349999997,66.12450000000001" fill="none" instance-id="7" semantic-id="4" stroke="rgb(0,178,178)" stroke-width="0.1"/>
  <path d="M 59.923543499999994,65.4905 L 59.923543499999994,66.12450000000001" fill="none" instance-id="7" semantic-id="4" stroke="rgb(0,178,178)" stroke-width="0.1"/>
  <path d="M 61.19054349999999,66.75750000000005 L 59.923543499999994,66.75750000000005" fill="none" instance-id="7" semantic-id="4" stroke="rgb(0,178,178)" stroke-width="0.1"/>
  <path d="M 59.923543499999994,66.12450000000001 L 52.32354349999997,66.12450000000001" fill="none" instance-id="7" semantic-id="4" stroke="rgb(0,178,178)" stroke-width="0.1"/>
  <path d="M 59.923543499999994,66.12450000000001 L 60.556543499999975,66.12450000000001" fill="none" instance-id="7" semantic-id="4" stroke="rgb(0,178,178)" stroke-width="0.1"/>
  <path d="M 60.556543499999975,65.4905 L 61.19054349999999,65.4905" fill="none" instance-id="7" semantic-id="4" stroke="rgb(0,178,178)" stroke-width="0.1"/>
  <path d="M 60.556543499999975,66.12450000000001 L 60.556543499999975,65.4905" fill="none" instance-id="7" semantic-id="4" stroke="rgb(0,178,178)" stroke-width="0.1"/>
  <path d="M 61.19054349999999,65.4905 L 61.19054349999999,66.75750000000005" fill="none" instance-id="7" semantic-id="4" stroke="rgb(0,178,178)" stroke-width="0.1"/>
  <path d="M 52.32354349999997,66.12450000000001 L 52.32354349999997,65.4905" fill="none" instance-id="7" semantic-id="4" stroke="rgb(0,178,178)" stroke-width="0.1"/>
  <path d="M 53.59054349999997,66.12450000000001 L 53.59054349999997,65.4905" fill="none" instance-id="7" semantic-id="4" stroke="rgb(0,178,178)" stroke-width="0.1"/>
  <path d="M 54.85654349999999,66.12450000000001 L 54.85654349999999,65.4905" fill="none" instance-id="7" semantic-id="4" stroke="rgb(0,178,178)" stroke-width="0.1"/>
  <path d="M 52.86154349999998,64.95550000000003 L 55.29954349999997,64.95550000000003" fill="none" instance-id="7" semantic-id="4" stroke="rgb(0,178,178)" stroke-width="0.1"/>
  <path d="M 52.86154349999998,66.6595000000001 L 55.29954349999997,66.6595000000001" fill="none" instance-id="7" semantic-id="4" stroke="rgb(0,178,178)" stroke-width="0.1"/>
  <path d="M 52.32354349999997,65.4905 L 59.923543499999994,65.4905" fill="none" instance-id="7" semantic-id="4" stroke="rgb(0,178,178)" stroke-width="0.1"/>
  <path d="M 59.923543499999994,66.12450000000001 L 52.32354349999997,66.12450000000001" fill="none" instance-id="7" semantic-id="4" stroke="rgb(0,178,178)" stroke-width="0.1"/>
  <path d="M 59.923543499999994,65.4905 L 59.923543499999994,66.12450000000001" fill="none" instance-id="7" semantic-id="4" stroke="rgb(0,178,178)" stroke-width="0.1"/>
  <path d="M 58.6565435,66.12450000000001 L 58.6565435,65.4905" fill="none" instance-id="7" semantic-id="4" stroke="rgb(0,178,178)" stroke-width="0.1"/>
  <path d="M 56.12354349999998,66.12450000000001 L 56.12354349999998,65.4905" fill="none" instance-id="7" semantic-id="4" stroke="rgb(0,178,178)" stroke-width="0.1"/>
  <path d="M 57.39054349999998,66.12450000000001 L 57.39054349999998,65.4905" fill="none" instance-id="7" semantic-id="4" stroke="rgb(0,178,178)" stroke-width="0.1"/>
  <path d="M 52.86154349999998,66.6595000000001 L 52.86154349999998,66.12450000000001" fill="none" instance-id="7" semantic-id="4" stroke="rgb(0,178,178)" stroke-width="0.1"/>
  <path d="M 52.86154349999998,64.95550000000003 L 52.86154349999998,65.4905" fill="none" instance-id="7" semantic-id="4" stroke="rgb(0,178,178)" stroke-width="0.1"/>
  <path d="M 55.29954349999997,66.6595000000001 L 55.29954349999997,66.12450000000001" fill="none" instance-id="7" semantic-id="4" stroke="rgb(0,178,178)" stroke-width="0.1"/>
  <path d="M 55.29954349999997,64.95550000000003 L 55.29954349999997,65.4905" fill="none" instance-id="7" semantic-id="4" stroke="rgb(0,178,178)" stroke-width="0.1"/>
  <path d="M 52.86154349999998,49.55950000000007 L 52.86154349999998,49.0245000000001" fill="none" instance-id="7" semantic-id="4" stroke="rgb(0,178,178)" stroke-width="0.1"/>
  <path d="M 55.29954349999997,49.55950000000007 L 55.29954349999997,49.0245000000001" fill="none" instance-id="7" semantic-id="4" stroke="rgb(0,178,178)" stroke-width="0.1"/>
  <path d="M 52.86154349999998,47.855500000000006 L 52.86154349999998,48.39050000000009" fill="none" instance-id="7" semantic-id="4" stroke="rgb(0,178,178)" stroke-width="0.1"/>
  <path d="M 55.29954349999997,47.855500000000006 L 55.29954349999997,48.39050000000009" fill="none" instance-id="7" semantic-id="4" stroke="rgb(0,178,178)" stroke-width="0.1"/>
  <path d="M 62.82554349999998,66.87450000000001 L 62.82554349999998,75.04750000000001" fill="none" instance-id="8" semantic-id="3" stroke="rgb(0,178,178)" stroke-width="0.1"/>
  <path d="M 62.37154349999997,75.04750000000001 L 62.37154349999997,66.87450000000001" fill="none" instance-id="8" semantic-id="3" stroke="rgb(0,178,178)" stroke-width="0.1"/>
  <path d="M 62.37154349999997,74.13850000000002 L 62.82554349999998,74.13850000000002" fill="none" instance-id="8" semantic-id="3" stroke="rgb(0,178,178)" stroke-width="0.1"/>
  <path d="M 62.37154349999997,73.2305 L 62.82554349999998,73.2305" fill="none" instance-id="8" semantic-id="3" stroke="rgb(0,178,178)" stroke-width="0.1"/>
  <path d="M 62.37154349999997,72.3225000000001 L 62.82554349999998,72.3225000000001" fill="none" instance-id="8" semantic-id="3" stroke="rgb(0,178,178)" stroke-width="0.1"/>
  <path d="M 61.91754350000002,75.04750000000001 L 62.37154349999997,75.04750000000001" fill="none" instance-id="8" semantic-id="3" stroke="rgb(0,178,178)" stroke-width="0.1"/>
  <path d="M 62.82554349999998,75.04750000000001 L 62.37154349999997,75.04750000000001" fill="none" instance-id="8" semantic-id="3" stroke="rgb(0,178,178)" stroke-width="0.1"/>
  <path d="M 62.82554349999998,75.50150000000008 L 62.82554349999998,75.95550000000003" fill="none" instance-id="8" semantic-id="3" stroke="rgb(0,178,178)" stroke-width="0.1"/>
  <path d="M 62.82554349999998,75.95550000000003 L 61.91754350000002,75.95550000000003" fill="none" instance-id="8" semantic-id="3" stroke="rgb(0,178,178)" stroke-width="0.1"/>
  <path d="M 62.37154349999997,75.50150000000008 L 62.82554349999998,75.50150000000008" fill="none" instance-id="8" semantic-id="3" stroke="rgb(0,178,178)" stroke-width="0.1"/>
  <path d="M 62.37154349999997,75.04750000000001 L 62.37154349999997,75.50150000000008" fill="none" instance-id="8" semantic-id="3" stroke="rgb(0,178,178)" stroke-width="0.1"/>
  <path d="M 61.91754350000002,75.95550000000003 L 61.91754350000002,75.04750000000001" fill="none" instance-id="8" semantic-id="3" stroke="rgb(0,178,178)" stroke-width="0.1"/>
  <path d="M 62.37154349999997,71.41450000000009 L 62.82554349999998,71.41450000000009" fill="none" instance-id="8" semantic-id="3" stroke="rgb(0,178,178)" stroke-width="0.1"/>
  <path d="M 62.37154349999997,70.50650000000007 L 62.82554349999998,70.50650000000007" fill="none" instance-id="8" semantic-id="3" stroke="rgb(0,178,178)" stroke-width="0.1"/>
  <path d="M 62.37154349999997,69.59850000000006 L 62.82554349999998,69.59850000000006" fill="none" instance-id="8" semantic-id="3" stroke="rgb(0,178,178)" stroke-width="0.1"/>
  <path d="M 62.37154349999997,68.69050000000004 L 62.82554349999998,68.69050000000004" fill="none" instance-id="8" semantic-id="3" stroke="rgb(0,178,178)" stroke-width="0.1"/>
  <path d="M 62.37154349999997,67.78250000000003 L 62.82554349999998,67.78250000000003" fill="none" instance-id="8" semantic-id="3" stroke="rgb(0,178,178)" stroke-width="0.1"/>
  <path d="M 62.37154349999997,66.87450000000001 L 62.82554349999998,66.87450000000001" fill="none" instance-id="8" semantic-id="3" stroke="rgb(0,178,178)" stroke-width="0.1"/>
  <path d="M 63.209543499999995,68.2305 L 63.209543499999995,69.97750000000008" fill="none" instance-id="8" semantic-id="3" stroke="rgb(0,178,178)" stroke-width="0.1"/>
  <path d="M 61.987543500000015,68.2305 L 61.987543500000015,69.97750000000008" fill="none" instance-id="8" semantic-id="3" stroke="rgb(0,178,178)" stroke-width="0.1"/>
  <path d="M 71.90554350000002,75.04750000000001 L 71.45154350000001,75.04750000000001" fill="none" instance-id="8" semantic-id="3" stroke="rgb(0,178,178)" stroke-width="0.1"/>
  <path d="M 71.45154350000001,75.50150000000008 L 70.9975435,75.50150000000008" fill="none" instance-id="8" semantic-id="3" stroke="rgb(0,178,178)" stroke-width="0.1"/>
  <path d="M 70.9975435,75.50150000000008 L 70.9975435,75.95550000000003" fill="none" instance-id="8" semantic-id="3" stroke="rgb(0,178,178)" stroke-width="0.1"/>
  <path d="M 70.9975435,75.95550000000003 L 71.90554350000002,75.95550000000003" fill="none" instance-id="8" semantic-id="3" stroke="rgb(0,178,178)" stroke-width="0.1"/>
  <path d="M 71.90554350000002,75.95550000000003 L 71.90554350000002,75.04750000000001" fill="none" instance-id="8" semantic-id="3" stroke="rgb(0,178,178)" stroke-width="0.1"/>
  <path d="M 71.45154350000001,75.04750000000001 L 71.45154350000001,75.50150000000008" fill="none" instance-id="8" semantic-id="3" stroke="rgb(0,178,178)" stroke-width="0.1"/>
  <path d="M 61.987543500000015,68.2305 L 62.37154349999997,68.2305" fill="none" instance-id="8" semantic-id="3" stroke="rgb(0,178,178)" stroke-width="0.1"/>
  <path d="M 63.209543499999995,68.2305 L 62.82554349999998,68.2305" fill="none" instance-id="8" semantic-id="3" stroke="rgb(0,178,178)" stroke-width="0.1"/>
  <path d="M 63.209543499999995,69.97750000000008 L 62.82554349999998,69.97750000000008" fill="none" instance-id="8" semantic-id="3" stroke="rgb(0,178,178)" stroke-width="0.1"/>
  <path d="M 61.987543500000015,69.97750000000008 L 62.37154349999997,69.97750000000008" fill="none" instance-id="8" semantic-id="3" stroke="rgb(0,178,178)" stroke-width="0.1"/>
  <path d="M 68.80654349999998,21.659500000000094 L 60.63354349999997,21.659500000000094" fill="none" instance-id="5" semantic-id="3" stroke="rgb(0,178,178)" stroke-width="0.1"/>
  <path d="M 60.63354349999997,21.20550000000003 L 68.80654349999998,21.20550000000003" fill="none" instance-id="5" semantic-id="3" stroke="rgb(0,178,178)" stroke-width="0.1"/>
  <path d="M 61.54254350000002,21.20550000000003 L 61.54254350000002,21.659500000000094" fill="none" instance-id="5" semantic-id="3" stroke="rgb(0,178,178)" stroke-width="0.1"/>
  <path d="M 62.45054349999998,21.20550000000003 L 62.45054349999998,21.659500000000094" fill="none" instance-id="5" semantic-id="3" stroke="rgb(0,178,178)" stroke-width="0.1"/>
  <path d="M 63.358543499999996,21.20550000000003 L 63.358543499999996,21.659500000000094" fill="none" instance-id="5" semantic-id="3" stroke="rgb(0,178,178)" stroke-width="0.1"/>
  <path d="M 60.63354349999997,20.751500000000078 L 60.63354349999997,21.20550000000003" fill="none" instance-id="5" semantic-id="3" stroke="rgb(0,178,178)" stroke-width="0.1"/>
  <path d="M 60.63354349999997,21.659500000000094 L 60.63354349999997,21.20550000000003" fill="none" instance-id="5" semantic-id="3" stroke="rgb(0,178,178)" stroke-width="0.1"/>
  <path d="M 60.179543499999966,21.659500000000094 L 59.725543500000015,21.659500000000094" fill="none" instance-id="5" semantic-id="3" stroke="rgb(0,178,178)" stroke-width="0.1"/>
  <path d="M 59.725543500000015,21.659500000000094 L 59.725543500000015,20.751500000000078" fill="none" instance-id="5" semantic-id="3" stroke="rgb(0,178,178)" stroke-width="0.1"/>
  <path d="M 60.179543499999966,21.20550000000003 L 60.179543499999966,21.659500000000094" fill="none" instance-id="5" semantic-id="3" stroke="rgb(0,178,178)" stroke-width="0.1"/>
  <path d="M 60.63354349999997,21.20550000000003 L 60.179543499999966,21.20550000000003" fill="none" instance-id="5" semantic-id="3" stroke="rgb(0,178,178)" stroke-width="0.1"/>
  <path d="M 59.725543500000015,20.751500000000078 L 60.63354349999997,20.751500000000078" fill="none" instance-id="5" semantic-id="3" stroke="rgb(0,178,178)" stroke-width="0.1"/>
  <path d="M 64.26654350000001,21.20550000000003 L 64.26654350000001,21.659500000000094" fill="none" instance-id="5" semantic-id="3" stroke="rgb(0,178,178)" stroke-width="0.1"/>
  <path d="M 65.17454349999997,21.20550000000003 L 65.17454349999997,21.659500000000094" fill="none" instance-id="5" semantic-id="3" stroke="rgb(0,178,178)" stroke-width="0.1"/>
  <path d="M 66.08254349999999,21.20550000000003 L 66.08254349999999,21.659500000000094" fill="none" instance-id="5" semantic-id="3" stroke="rgb(0,178,178)" stroke-width="0.1"/>
  <path d="M 66.9905435,21.20550000000003 L 66.9905435,21.659500000000094" fill="none" instance-id="5" semantic-id="3" stroke="rgb(0,178,178)" stroke-width="0.1"/>
  <path d="M 67.89854350000002,21.20550000000003 L 67.89854350000002,21.659500000000094" fill="none" instance-id="5" semantic-id="3" stroke="rgb(0,178,178)" stroke-width="0.1"/>
  <path d="M 68.80654349999998,21.20550000000003 L 68.80654349999998,21.659500000000094" fill="none" instance-id="5" semantic-id="3" stroke="rgb(0,178,178)" stroke-width="0.1"/>
  <path d="M 67.45054349999998,22.043499999999995 L 65.70354349999997,22.043499999999995" fill="none" instance-id="5" semantic-id="3" stroke="rgb(0,178,178)" stroke-width="0.1"/>
  <path d="M 67.45054349999998,20.821500000000015 L 65.70354349999997,20.821500000000015" fill="none" instance-id="5" semantic-id="3" stroke="rgb(0,178,178)" stroke-width="0.1"/>
  <path d="M 60.63354349999997,30.73950000000002 L 60.63354349999997,30.28550000000007" fill="none" instance-id="5" semantic-id="3" stroke="rgb(0,178,178)" stroke-width="0.1"/>
  <path d="M 60.179543499999966,30.28550000000007 L 60.179543499999966,29.831500000000005" fill="none" instance-id="5" semantic-id="3" stroke="rgb(0,178,178)" stroke-width="0.1"/>
  <path d="M 60.179543499999966,29.831500000000005 L 59.725543500000015,29.831500000000005" fill="none" instance-id="5" semantic-id="3" stroke="rgb(0,178,178)" stroke-width="0.1"/>
  <path d="M 59.725543500000015,29.831500000000005 L 59.725543500000015,30.73950000000002" fill="none" instance-id="5" semantic-id="3" stroke="rgb(0,178,178)" stroke-width="0.1"/>
  <path d="M 59.725543500000015,30.73950000000002 L 60.63354349999997,30.73950000000002" fill="none" instance-id="5" semantic-id="3" stroke="rgb(0,178,178)" stroke-width="0.1"/>
  <path d="M 60.63354349999997,30.28550000000007 L 60.179543499999966,30.28550000000007" fill="none" instance-id="5" semantic-id="3" stroke="rgb(0,178,178)" stroke-width="0.1"/>
  <path d="M 67.45054349999998,20.821500000000015 L 67.45054349999998,21.20550000000003" fill="none" instance-id="5" semantic-id="3" stroke="rgb(0,178,178)" stroke-width="0.1"/>
  <path d="M 67.45054349999998,22.043499999999995 L 67.45054349999998,21.659500000000094" fill="none" instance-id="5" semantic-id="3" stroke="rgb(0,178,178)" stroke-width="0.1"/>
  <path d="M 65.70354349999997,22.043499999999995 L 65.70354349999997,21.659500000000094" fill="none" instance-id="5" semantic-id="3" stroke="rgb(0,178,178)" stroke-width="0.1"/>
  <path d="M 65.70354349999997,20.821500000000015 L 65.70354349999997,21.20550000000003" fill="none" instance-id="5" semantic-id="3" stroke="rgb(0,178,178)" stroke-width="0.1"/>
  <path d="M 3.6335434999999734,0.30950000000007094 L 11.806543499999975,0.30950000000007094" fill="none" stroke="rgb(0,178,178)" stroke-width="0.1"/>
  <path d="M 4.542543500000022,0.30950000000007094 L 4.542543500000022,0.0" fill="none" stroke="rgb(0,178,178)" stroke-width="0.1"/>
  <path d="M 5.450543499999981,0.30950000000007094 L 5.450543499999981,0.0" fill="none" stroke="rgb(0,178,178)" stroke-width="0.1"/>
  <path d="M 6.358543499999996,0.30950000000007094 L 6.358543499999996,0.0" fill="none" stroke="rgb(0,178,178)" stroke-width="0.1"/>
  <path d="M 3.6335434999999734,0.7635000000000218 L 3.6335434999999734,0.30950000000007094" fill="none" stroke="rgb(0,178,178)" stroke-width="0.1"/>
  <path d="M 3.6335434999999734,0.0 L 3.6335434999999734,0.30950000000007094" fill="none" stroke="rgb(0,178,178)" stroke-width="0.1"/>
  <path d="M 2.7255435000000148,0.0 L 2.7255435000000148,0.7635000000000218" fill="none" stroke="rgb(0,178,178)" stroke-width="0.1"/>
  <path d="M 3.1795434999999657,0.30950000000007094 L 3.1795434999999657,0.0" fill="none" stroke="rgb(0,178,178)" stroke-width="0.1"/>
  <path d="M 3.6335434999999734,0.30950000000007094 L 3.1795434999999657,0.30950000000007094" fill="none" stroke="rgb(0,178,178)" stroke-width="0.1"/>
  <path d="M 2.7255435000000148,0.7635000000000218 L 3.6335434999999734,0.7635000000000218" fill="none" stroke="rgb(0,178,178)" stroke-width="0.1"/>
  <path d="M 7.266543500000012,0.30950000000007094 L 7.266543500000012,0.0" fill="none" stroke="rgb(0,178,178)" stroke-width="0.1"/>
  <path d="M 8.17454349999997,0.30950000000007094 L 8.17454349999997,0.0" fill="none" stroke="rgb(0,178,178)" stroke-width="0.1"/>
  <path d="M 9.082543499999986,0.30950000000007094 L 9.082543499999986,0.0" fill="none" stroke="rgb(0,178,178)" stroke-width="0.1"/>
  <path d="M 9.990543500000001,0.30950000000007094 L 9.990543500000001,0.0" fill="none" stroke="rgb(0,178,178)" stroke-width="0.1"/>
  <path d="M 10.898543500000017,0.30950000000007094 L 10.898543500000017,0.0" fill="none" stroke="rgb(0,178,178)" stroke-width="0.1"/>
  <path d="M 11.806543499999975,0.30950000000007094 L 11.806543499999975,0.0" fill="none" stroke="rgb(0,178,178)" stroke-width="0.1"/>
  <path d="M 10.45054349999998,0.6935000000000855 L 8.703543499999967,0.6935000000000855" fill="none" stroke="rgb(0,178,178)" stroke-width="0.1"/>
  <path d="M 10.45054349999998,0.6935000000000855 L 10.45054349999998,0.30950000000007094" fill="none" stroke="rgb(0,178,178)" stroke-width="0.1"/>
  <path d="M 8.703543499999967,0.6935000000000855 L 8.703543499999967,0.30950000000007094" fill="none" stroke="rgb(0,178,178)" stroke-width="0.1"/>
  <path d="M 26.32354349999997,49.0245000000001 A 7.6,7.6 0.0 0,0 33.923543499999994,57.25750000000005" fill="none" instance-id="6" semantic-id="4" stroke="rgb(0,178,178)" stroke-width="0.1"/>
  <path d="M 33.923543499999994,57.25750000000005 A 7.6,7.6 0.0 0,0 26.32354349999997,65.4905" fill="none" instance-id="6" semantic-id="4" stroke="rgb(0,178,178)" stroke-width="0.1"/>
  <path d="M 52.32354349999997,49.0245000000001 A 7.6,7.6 0.0 0,0 59.923543499999994,57.25750000000005" fill="none" instance-id="7" semantic-id="4" stroke="rgb(0,178,178)" stroke-width="0.1"/>
  <path d="M 59.923543499999994,57.25750000000005 A 7.6,7.6 0.0 0,0 52.32354349999997,65.4905" fill="none" instance-id="7" semantic-id="4" stroke="rgb(0,178,178)" stroke-width="0.1"/>
  <path d="M 71.45154350000001,75.04750000000001 A 8.17204,8.17204 0.0 0,0 62.82554349999998,66.87450000000001" fill="none" instance-id="8" semantic-id="3" stroke="rgb(0,178,178)" stroke-width="0.1"/>
  <path d="M 60.63354349999997,30.28550000000007 A 8.17204,8.17204 0.0 0,0 68.80654349999998,21.659500000000094" fill="none" instance-id="5" semantic-id="3" stroke="rgb(0,178,178)" stroke-width="0.1"/>
 </g>
 <g id="layerDOOR_FIRE_TEXT" inkscape:groupmode="layer" inkscape:label="DOOR_FIRE_TEXT">
  <text fill="rgb(0,0,0)" font-family="Noto Sans CJK SC" font-size="2" transform="rotate(-90.0,39.86654349999998,65.05150000000003)" x="39.86654349999998" y="65.05150000000003">
   FM乙1923
  </text>
  <text fill="rgb(0,0,0)" font-family="Noto Sans CJK SC" font-size="2" transform="rotate(-90.0,64.38554349999998,65.05150000000003)" x="64.38554349999998" y="65.05150000000003">
   FM乙1923
  </text>
  <text fill="rgb(0,0,0)" font-family="Noto Sans CJK SC" font-size="2" transform="rotate(-360.0,73.8945435,72.3075)" x="73.8945435" y="72.3075">
   FM甲1023
  </text>
  <text fill="rgb(0,0,0)" font-family="Noto Sans CJK SC" font-size="2" transform="rotate(-90.0,57.423543499999994,35.7405)" x="57.423543499999994" y="35.7405">
   FM甲1023
  </text>
 </g>
 <g id="layerDote【轴线】" inkscape:groupmode="layer" inkscape:label="Dote【轴线】">
  <path d="M 0.0,37.75750000000005 L 100.0,37.75750000000005" fill="none" stroke="rgb(53,107,107)" stroke-width="0.1"/>
  <path d="M 55.923543499999994,100.0 L 55.923543499999994,0.0" fill="none" stroke="rgb(53,107,107)" stroke-width="0.1"/>
 </g>
 <g id="layerF-楼梯宽度" inkscape:groupmode="layer" inkscape:label="F-楼梯宽度">
  <text fill="rgb(178,0,178)" font-family="Noto Sans CJK SC" font-size="2" transform="rotate(-0.0,5.456543500000009,0.09750000000008185)" x="5.456543500000009" y="0.09750000000008185">
   1.75
  </text>
  <text fill="rgb(178,0,178)" font-family="Noto Sans CJK SC" font-size="2" transform="rotate(-0.0,5.456543500000009,39.897500000000036)" x="5.456543500000009" y="39.897500000000036">
   1.75
  </text>
 </g>
 <g id="layerHatch_wall【混凝土墙填充】" inkscape:groupmode="layer" inkscape:label="Hatch_wall【混凝土墙填充】">
  <path d="M 0.0,45.75750000000005 L 3.923543499999994,45.75750000000005" fill="none" instance-id="-1" semantic-id="1" stroke="rgb(89,89,89)" stroke-width="0.1"/>
  <path d="M 3.923543499999994,45.75750000000005 L 3.923543499999994,0.75750000000005" fill="none" instance-id="-1" semantic-id="1" stroke="rgb(89,89,89)" stroke-width="0.1"/>
  <path d="M 3.923543499999994,0.75750000000005 L 0.9235434999999939,0.75750000000005" fill="none" instance-id="-1" semantic-id="1" stroke="rgb(89,89,89)" stroke-width="0.1"/>
  <path d="M 0.9235434999999939,0.75750000000005 L 0.9235434999999939,42.75750000000005" fill="none" instance-id="-1" semantic-id="1" stroke="rgb(89,89,89)" stroke-width="0.1"/>
  <path d="M 0.9235434999999939,42.75750000000005 L 0.0,42.75750000000005" fill="none" instance-id="-1" semantic-id="1" stroke="rgb(89,89,89)" stroke-width="0.1"/>
  <path d="M 43.923543499999994,35.75750000000005 L 43.923543499999994,0.0" fill="none" instance-id="-1" semantic-id="1" stroke="rgb(89,89,89)" stroke-width="0.1"/>
  <path d="M 40.923543499999994,0.0 L 40.923543499999994,45.75750000000005" fill="none" instance-id="-1" semantic-id="1" stroke="rgb(89,89,89)" stroke-width="0.1"/>
  <path d="M 40.923543499999994,45.75750000000005 L 43.923543499999994,45.75750000000005" fill="none" instance-id="-1" semantic-id="1" stroke="rgb(89,89,89)" stroke-width="0.1"/>
  <path d="M 43.923543499999994,45.75750000000005 L 43.923543499999994,40.25750000000005" fill="none" instance-id="-1" semantic-id="1" stroke="rgb(89,89,89)" stroke-width="0.1"/>
  <path d="M 43.923543499999994,40.25750000000005 L 49.923543499999994,40.25750000000005" fill="none" instance-id="-1" semantic-id="1" stroke="rgb(89,89,89)" stroke-width="0.1"/>
  <path d="M 49.923543499999994,40.25750000000005 L 49.923543499999994,35.75750000000005" fill="none" instance-id="-1" semantic-id="1" stroke="rgb(89,89,89)" stroke-width="0.1"/>
  <path d="M 49.923543499999994,35.75750000000005 L 43.923543499999994,35.75750000000005" fill="none" instance-id="-1" semantic-id="1" stroke="rgb(89,89,89)" stroke-width="0.1"/>
 </g>
 <g id="layerP-EQPM-HYDR_消火栓" inkscape:groupmode="layer" inkscape:label="P-EQPM-HYDR_消火栓">
  <path d="M 0.9235434999999939,10.75750000000005 L 0.0,13.98990225" fill="none" stroke="rgb(178,0,0)" stroke-width="0.1"/>
  <path d="M 0.0,12.06350000000009 L 0.3385435000000143,12.06350000000009" fill="none" stroke="rgb(178,0,0)" stroke-width="0.1"/>
  <path d="M 0.0,17.75750000000005 L 0.9235434999999939,17.75750000000005" fill="none" stroke="rgb(178,0,0)" stroke-width="0.1"/>
  <path d="M 0.9235434999999939,17.75750000000005 L 0.9235434999999939,10.75750000000005" fill="none" stroke="rgb(178,0,0)" stroke-width="0.1"/>
  <path d="M 0.9235434999999939,10.75750000000005 L 0.0,10.75750000000005" fill="none" stroke="rgb(178,0,0)" stroke-width="0.1"/>
 </g>
 <g id="layerPUB_HATCH" inkscape:groupmode="layer" inkscape:label="PUB_HATCH">
  <path d="M 1.9235434999999939,45.75750000000005 L 1.9235434999999939,42.75750000000005" fill="none" instance-id="-1" semantic-id="1" stroke="rgb(89,89,89)" stroke-width="0.1"/>
  <path d="M 1.9235434999999939,42.75750000000005 L 0.0,42.75750000000005" fill="none" instance-id="-1" semantic-id="1" stroke="rgb(89,89,89)" stroke-width="0.1"/>
  <path d="M 0.0,45.75750000000005 L 1.9235434999999939,45.75750000000005" fill="none" instance-id="-1" semantic-id="1" stroke="rgb(89,89,89)" stroke-width="0.1"/>
 </g>
 <g id="layerPub_text【公共文字标注】" inkscape:groupmode="layer" inkscape:label="Pub_text【公共文字标注】">
  <text fill="rgb(0,0,0)" font-family="Noto Sans CJK SC" font-size="2" transform="rotate(-0.0,64.19054349999999,85.2555000000001)" x="64.19054349999999" y="85.2555000000001">
   弱电
  </text>
  <text fill="rgb(0,0,0)" font-family="Noto Sans CJK SC" font-size="2" transform="rotate(-0.0,42.5505435,58.433500000000095)" x="42.5505435" y="58.433500000000095">
   前室
  </text>
  <text fill="rgb(0,0,0)" font-family="Noto Sans CJK SC" font-size="2" transform="rotate(-0.0,44.93654349999997,28.79950000000008)" x="44.93654349999997" y="28.79950000000008">
   弱电
  </text>
  <text fill="rgb(0,0,0)" font-family="Noto Sans CJK SC" font-size="2" transform="rotate(-0.0,42.68254350000001,64.70550000000003)" x="42.68254350000001" y="64.70550000000003">
   6.00㎡
  </text>
  <text fill="rgb(0,0,0)" font-family="Noto Sans CJK SC" font-size="2" transform="rotate(-0.0,76.87854349999998,24.707500000000095)" x="76.87854349999998" y="24.707500000000095">
   走道
  </text>
 </g>
 <g id="layerStair【楼梯、电梯】" inkscape:groupmode="layer" inkscape:label="Stair【楼梯、电梯】">
  <path d="M 21.32354349999997,3.75750000000005 L 3.923543499999994,3.75750000000005" fill="none" instance-id="10" semantic-id="30" stroke="rgb(44,178,0)" stroke-width="0.1"/>
  <path d="M 21.32354349999997,6.5575000000000045 L 3.923543499999994,6.5575000000000045" fill="none" instance-id="10" semantic-id="30" stroke="rgb(44,178,0)" stroke-width="0.1"/>
  <path d="M 21.32354349999997,9.357500000000073 L 3.923543499999994,9.357500000000073" fill="none" instance-id="10" semantic-id="30" stroke="rgb(44,178,0)" stroke-width="0.1"/>
  <path d="M 21.32354349999997,12.157500000000027 L 3.923543499999994,12.157500000000027" fill="none" instance-id="10" semantic-id="30" stroke="rgb(44,178,0)" stroke-width="0.1"/>
  <path d="M 21.32354349999997,14.957500000000095 L 3.923543499999994,14.957500000000095" fill="none" instance-id="10" semantic-id="30" stroke="rgb(44,178,0)" stroke-width="0.1"/>
  <path d="M 21.32354349999997,17.75750000000005 L 3.923543499999994,17.75750000000005" fill="none" instance-id="10" semantic-id="30" stroke="rgb(44,178,0)" stroke-width="0.1"/>
  <path d="M 21.32354349999997,20.557500000000005 L 3.923543499999994,20.557500000000005" fill="none" instance-id="10" semantic-id="30" stroke="rgb(44,178,0)" stroke-width="0.1"/>
  <path d="M 21.32354349999997,23.357500000000073 L 3.923543499999994,23.357500000000073" fill="none" instance-id="10" semantic-id="30" stroke="rgb(44,178,0)" stroke-width="0.1"/>
  <path d="M 21.32354349999997,26.157500000000027 L 3.923543499999994,26.157500000000027" fill="none" instance-id="10" semantic-id="30" stroke="rgb(44,178,0)" stroke-width="0.1"/>
  <path d="M 21.32354349999997,28.957500000000095 L 3.923543499999994,28.957500000000095" fill="none" instance-id="10" semantic-id="30" stroke="rgb(44,178,0)" stroke-width="0.1"/>
  <path d="M 21.32354349999997,31.75750000000005 L 3.923543499999994,31.75750000000005" fill="none" instance-id="10" semantic-id="30" stroke="rgb(44,178,0)" stroke-width="0.1"/>
  <path d="M 21.32354349999997,34.557500000000005 L 3.923543499999994,34.557500000000005" fill="none" instance-id="10" semantic-id="30" stroke="rgb(44,178,0)" stroke-width="0.1"/>
  <path d="M 21.32354349999997,37.35750000000007 L 3.923543499999994,37.35750000000007" fill="none" instance-id="10" semantic-id="30" stroke="rgb(44,178,0)" stroke-width="0.1"/>
  <path d="M 21.32354349999997,40.15750000000003 L 3.923543499999994,40.15750000000003" fill="none" instance-id="10" semantic-id="30" stroke="rgb(44,178,0)" stroke-width="0.1"/>
  <path d="M 21.923543499999994,2.75750000000005 L 21.923543499999994,45.75750000000005" fill="none" instance-id="10" semantic-id="30" stroke="rgb(44,178,0)" stroke-width="0.1"/>
  <path d="M 3.923543499999994,42.957500000000095 L 21.32354349999997,42.957500000000095" fill="none" instance-id="10" semantic-id="30" stroke="rgb(44,178,0)" stroke-width="0.1"/>
  <path d="M 23.523543500000017,23.357500000000073 L 40.923543499999994,23.357500000000073" fill="none" instance-id="10" semantic-id="30" stroke="rgb(44,178,0)" stroke-width="0.1"/>
  <path d="M 23.523543500000017,20.557500000000005 L 40.923543499999994,20.557500000000005" fill="none" instance-id="10" semantic-id="30" stroke="rgb(44,178,0)" stroke-width="0.1"/>
  <path d="M 23.523543500000017,17.75750000000005 L 40.923543499999994,17.75750000000005" fill="none" instance-id="10" semantic-id="30" stroke="rgb(44,178,0)" stroke-width="0.1"/>
  <path d="M 23.523543500000017,14.957500000000095 L 40.923543499999994,14.957500000000095" fill="none" instance-id="10" semantic-id="30" stroke="rgb(44,178,0)" stroke-width="0.1"/>
  <path d="M 23.523543500000017,12.157500000000027 L 40.923543499999994,12.157500000000027" fill="none" instance-id="10" semantic-id="30" stroke="rgb(44,178,0)" stroke-width="0.1"/>
  <path d="M 23.523543500000017,9.357500000000073 L 40.923543499999994,9.357500000000073" fill="none" instance-id="10" semantic-id="30" stroke="rgb(44,178,0)" stroke-width="0.1"/>
  <path d="M 23.523543500000017,6.5575000000000045 L 40.923543499999994,6.5575000000000045" fill="none" instance-id="10" semantic-id="30" stroke="rgb(44,178,0)" stroke-width="0.1"/>
  <path d="M 23.523543500000017,3.75750000000005 L 40.923543499999994,3.75750000000005" fill="none" instance-id="10" semantic-id="30" stroke="rgb(44,178,0)" stroke-width="0.1"/>
  <path d="M 23.523543500000017,0.9575000000000955 L 40.923543499999994,0.9575000000000955" fill="none" instance-id="10" semantic-id="30" stroke="rgb(44,178,0)" stroke-width="0.1"/>
  <path d="M 22.923543499999994,45.75750000000005 L 22.923543499999994,0.9575000000000955" fill="none" instance-id="10" semantic-id="30" stroke="rgb(44,178,0)" stroke-width="0.1"/>
  <path d="M 21.32354349999997,2.75750000000005 L 21.32354349999997,47.25750000000005" fill="none" instance-id="10" semantic-id="30" stroke="rgb(44,178,0)" stroke-width="0.1"/>
  <path d="M 23.523543500000017,45.75750000000005 L 23.523543500000017,0.35750000000007276" fill="none" instance-id="10" semantic-id="30" stroke="rgb(44,178,0)" stroke-width="0.1"/>
  <path d="M 23.523543500000017,26.157500000000027 L 40.923543499999994,26.157500000000027" fill="none" instance-id="10" semantic-id="30" stroke="rgb(44,178,0)" stroke-width="0.1"/>
  <path d="M 23.523543500000017,28.957500000000095 L 40.923543499999994,28.957500000000095" fill="none" instance-id="10" semantic-id="30" stroke="rgb(44,178,0)" stroke-width="0.1"/>
  <path d="M 23.523543500000017,31.75750000000005 L 40.923543499999994,31.75750000000005" fill="none" instance-id="10" semantic-id="30" stroke="rgb(44,178,0)" stroke-width="0.1"/>
  <path d="M 23.523543500000017,34.557500000000005 L 40.923543499999994,34.557500000000005" fill="none" instance-id="10" semantic-id="30" stroke="rgb(44,178,0)" stroke-width="0.1"/>
  <path d="M 23.523543500000017,37.35750000000007 L 40.923543499999994,37.35750000000007" fill="none" instance-id="10" semantic-id="30" stroke="rgb(44,178,0)" stroke-width="0.1"/>
  <path d="M 23.523543500000017,40.15750000000003 L 40.923543499999994,40.15750000000003" fill="none" instance-id="10" semantic-id="30" stroke="rgb(44,178,0)" stroke-width="0.1"/>
  <path d="M 23.523543500000017,42.957500000000095 L 40.923543499999994,42.957500000000095" fill="none" instance-id="10" semantic-id="30" stroke="rgb(44,178,0)" stroke-width="0.1"/>
  <path d="M 3.923543499999994,45.75750000000005 L 21.32354349999997,45.75750000000005" fill="none" instance-id="10" semantic-id="30" stroke="rgb(44,178,0)" stroke-width="0.1"/>
  <path d="M 21.32354349999997,46.35750000000007 L 32.923543499999994,46.35750000000007" fill="none" instance-id="10" semantic-id="30" stroke="rgb(44,178,0)" stroke-width="0.1"/>
  <path d="M 21.923543499999994,45.75750000000005 L 40.923543499999994,45.75750000000005" fill="none" instance-id="10" semantic-id="30" stroke="rgb(44,178,0)" stroke-width="0.1"/>
  <path d="M 21.32354349999997,47.25750000000005 L 32.923543499999994,47.25750000000005" fill="none" instance-id="10" semantic-id="30" stroke="rgb(44,178,0)" stroke-width="0.1"/>
  <path d="M 21.923543499999994,0.35750000000007276 L 23.523543500000017,0.35750000000007276" fill="none" instance-id="10" semantic-id="30" stroke="rgb(44,178,0)" stroke-width="0.1"/>
  <path d="M 21.923543499999994,0.9575000000000955 L 22.923543499999994,0.9575000000000955" fill="none" instance-id="10" semantic-id="30" stroke="rgb(44,178,0)" stroke-width="0.1"/>
 </g>
 <g id="layerWINDOW" inkscape:groupmode="layer" inkscape:label="WINDOW">
  <path d="M 91.9235435,9.38250000000005 L 84.61154349999998,9.38250000000005" fill="none" instance-id="13" semantic-id="4" stroke="rgb(0,178,178)" stroke-width="0.1"/>
  <path d="M 91.9235435,9.75750000000005 L 84.61154349999998,9.75750000000005" fill="none" instance-id="13" semantic-id="4" stroke="rgb(0,178,178)" stroke-width="0.1"/>
  <path d="M 84.61154349999998,9.38250000000005 L 84.61154349999998,9.75750000000005" fill="none" instance-id="13" semantic-id="4" stroke="rgb(0,178,178)" stroke-width="0.1"/>
  <path d="M 91.9235435,9.75750000000005 L 91.9235435,9.38250000000005" fill="none" instance-id="13" semantic-id="4" stroke="rgb(0,178,178)" stroke-width="0.1"/>
  <path d="M 90.9235435,90.75750000000005 L 90.9235435,83.44450000000006" fill="none" instance-id="12" semantic-id="4" stroke="rgb(0,178,178)" stroke-width="0.1"/>
  <path d="M 90.5485435,90.75750000000005 L 90.5485435,83.44450000000006" fill="none" instance-id="12" semantic-id="4" stroke="rgb(0,178,178)" stroke-width="0.1"/>
  <path d="M 90.9235435,90.75750000000005 L 90.5485435,90.75750000000005" fill="none" instance-id="12" semantic-id="4" stroke="rgb(0,178,178)" stroke-width="0.1"/>
  <path d="M 90.5485435,83.44450000000006 L 90.9235435,83.44450000000006" fill="none" instance-id="12" semantic-id="4" stroke="rgb(0,178,178)" stroke-width="0.1"/>
  <path d="M 76.2985435,90.75750000000005 L 76.2985435,83.44450000000006" fill="none" instance-id="12" semantic-id="4" stroke="rgb(0,178,178)" stroke-width="0.1"/>
  <path d="M 75.9235435,90.75750000000005 L 75.9235435,83.44450000000006" fill="none" instance-id="12" semantic-id="4" stroke="rgb(0,178,178)" stroke-width="0.1"/>
  <path d="M 76.2985435,83.44450000000006 L 75.9235435,83.44450000000006" fill="none" instance-id="12" semantic-id="4" stroke="rgb(0,178,178)" stroke-width="0.1"/>
  <path d="M 75.9235435,90.75750000000005 L 76.2985435,90.75750000000005" fill="none" instance-id="12" semantic-id="4" stroke="rgb(0,178,178)" stroke-width="0.1"/>
  <path d="M 86.81960837561451,0.1815565977906317 L 87.19967165996047,0.5268264379850507" fill="none" instance-id="13" semantic-id="4" stroke="rgb(0,178,178)" stroke-width="0.1"/>
  <path d="M 87.19967165996047,0.5268264379850507 L 87.60302756475244,0.8445737852991897" fill="none" instance-id="13" semantic-id="4" stroke="rgb(0,178,178)" stroke-width="0.1"/>
  <path d="M 87.60302756475244,0.8445737852991897 L 88.02768724993194,1.1332319125690447" fill="none" instance-id="13" semantic-id="4" stroke="rgb(0,178,178)" stroke-width="0.1"/>
  <path d="M 88.02768724993194,1.1332319125690447 L 88.47155683219876,1.3913775237925847" fill="none" instance-id="13" semantic-id="4" stroke="rgb(0,178,178)" stroke-width="0.1"/>
  <path d="M 88.47155683219876,1.3913775237925847 L 88.9324477093893,1.617737772021428" fill="none" instance-id="13" semantic-id="4" stroke="rgb(0,178,178)" stroke-width="0.1"/>
  <path d="M 88.9324477093893,1.617737772021428 L 89.40808735188835,1.8111965354288486" fill="none" instance-id="13" semantic-id="4" stroke="rgb(0,178,178)" stroke-width="0.1"/>
  <path d="M 89.40808735188835,1.8111965354288486 L 89.89613050786454,1.9707999206075328" fill="none" instance-id="13" semantic-id="4" stroke="rgb(0,178,178)" stroke-width="0.1"/>
  <path d="M 89.89613050786454,1.9707999206075328 L 90.39417076707991,2.0957609659633363" fill="none" instance-id="13" semantic-id="4" stroke="rgb(0,178,178)" stroke-width="0.1"/>
  <path d="M 90.39417076707991,2.0957609659633363 L 90.89975242625485,2.185463522011787" fill="none" instance-id="13" semantic-id="4" stroke="rgb(0,178,178)" stroke-width="0.1"/>
  <path d="M 90.89975242625485,2.185463522011787 L 91.41038259748404,2.239465289446798" fill="none" instance-id="13" semantic-id="4" stroke="rgb(0,178,178)" stroke-width="0.1"/>
  <path d="M 91.41038259748404,2.239465289446798 L 91.9235435,2.25750000000005" fill="none" instance-id="13" semantic-id="4" stroke="rgb(0,178,178)" stroke-width="0.1"/>
  <path d="M 91.9235435,2.25750000000005 A 7.3125,7.3125 0.0 0,0 84.61354349999999,9.38250000000005" fill="none" instance-id="13" semantic-id="4" stroke="rgb(0,178,178)" stroke-width="0.1"/>
  <path d="M 90.5485435,83.4475000000001 A 7.3125,7.3125 0.0 0,0 83.4235435,90.75750000000005" fill="none" instance-id="12" semantic-id="4" stroke="rgb(0,178,178)" stroke-width="0.1"/>
  <path d="M 83.4235435,90.75750000000005 A 7.3125,7.3125 0.0 0,0 76.2985435,83.4475000000001" fill="none" instance-id="12" semantic-id="4" stroke="rgb(0,178,178)" stroke-width="0.1"/>
 </g>
 <g id="layerWINDOW_TEXT" inkscape:groupmode="layer" inkscape:label="WINDOW_TEXT">
  <text fill="rgb(0,0,0)" font-family="Noto Sans CJK SC" font-size="2" transform="rotate(-90.0,98.15354350000001,7.072500000000105)" x="98.15354350000001" y="7.072500000000105">
   M1523
  </text>
  <text fill="rgb(0,0,0)" font-family="Noto Sans CJK SC" font-size="2" transform="rotate(-360.0,78.6085435,97.29750000000001)" x="78.6085435" y="97.29750000000001">
   M1523
  </text>
 </g>
 <g id="layerWall【砖墙】" inkscape:groupmode="layer" inkscape:label="Wall【砖墙】">
  <path d="M 1.9235434999999939,45.75750000000005 L 0.0,45.75750000000005" fill="none" instance-id="-1" semantic-id="1" stroke="rgb(178,178,0)" stroke-width="0.1"/>
  <path d="M 1.9235434999999939,42.75750000000005 L 0.0,42.75750000000005" fill="none" instance-id="-1" semantic-id="1" stroke="rgb(178,178,0)" stroke-width="0.1"/>
  <path d="M 1.9235434999999939,22.75750000000005 L 0.0,22.75750000000005" fill="none" instance-id="-1" semantic-id="1" stroke="rgb(178,178,0)" stroke-width="0.1"/>
  <path d="M 1.9235434999999939,20.75750000000005 L 0.0,20.75750000000005" fill="none" instance-id="-1" semantic-id="1" stroke="rgb(178,178,0)" stroke-width="0.1"/>
  <path d="M 3.923543499999994,21.75750000000005 L 3.923543499999994,44.75750000000005" fill="none" instance-id="-1" semantic-id="1" stroke="rgb(178,178,0)" stroke-width="0.1"/>
  <path d="M 1.9235434999999939,22.75750000000005 L 1.9235434999999939,44.75750000000005" fill="none" instance-id="-1" semantic-id="1" stroke="rgb(178,178,0)" stroke-width="0.1"/>
  <path d="M 90.9235435,89.75750000000005 L 90.9235435,91.75750000000005" fill="none" instance-id="-1" semantic-id="1" stroke="rgb(178,178,0)" stroke-width="0.1"/>
  <path d="M 90.9235435,91.75750000000005 L 92.9235435,91.75750000000005" fill="none" instance-id="-1" semantic-id="1" stroke="rgb(178,178,0)" stroke-width="0.1"/>
  <path d="M 74.9235435,91.75750000000005 L 75.9235435,91.75750000000005" fill="none" instance-id="-1" semantic-id="1" stroke="rgb(178,178,0)" stroke-width="0.1"/>
  <path d="M 75.9235435,91.75750000000005 L 75.9235435,89.75750000000005" fill="none" instance-id="-1" semantic-id="1" stroke="rgb(178,178,0)" stroke-width="0.1"/>
  <path d="M 92.9235435,91.75750000000005 L 92.9235435,9.75750000000005" fill="none" instance-id="-1" semantic-id="1" stroke="rgb(178,178,0)" stroke-width="0.1"/>
  <path d="M 92.9235435,9.75750000000005 L 90.9235435,9.75750000000005" fill="none" instance-id="-1" semantic-id="1" stroke="rgb(178,178,0)" stroke-width="0.1"/>
  <path d="M 90.9235435,9.75750000000005 L 90.9235435,89.75750000000005" fill="none" instance-id="-1" semantic-id="1" stroke="rgb(178,178,0)" stroke-width="0.1"/>
  <path d="M 3.923543499999994,44.75750000000005 L 3.923543499999994,51.75750000000005" fill="none" instance-id="-1" semantic-id="1" stroke="rgb(178,178,0)" stroke-width="0.1"/>
  <path d="M 1.9235434999999939,44.75750000000005 L 1.9235434999999939,50.75750000000005" fill="none" instance-id="-1" semantic-id="1" stroke="rgb(178,178,0)" stroke-width="0.1"/>
  <path d="M 1.9235434999999939,52.75750000000005 L 0.0,52.75750000000005" fill="none" instance-id="-1" semantic-id="1" stroke="rgb(178,178,0)" stroke-width="0.1"/>
  <path d="M 1.9235434999999939,50.75750000000005 L 0.0,50.75750000000005" fill="none" instance-id="-1" semantic-id="1" stroke="rgb(178,178,0)" stroke-width="0.1"/>
  <path d="M 3.923543499999994,51.75750000000005 L 3.923543499999994,72.75750000000005" fill="none" instance-id="-1" semantic-id="1" stroke="rgb(178,178,0)" stroke-width="0.1"/>
  <path d="M 1.9235434999999939,52.75750000000005 L 1.9235434999999939,72.75750000000005" fill="none" instance-id="-1" semantic-id="1" stroke="rgb(178,178,0)" stroke-width="0.1"/>
  <path d="M 2.923543499999994,74.75750000000005 L 0.0,74.75750000000005" fill="none" instance-id="-1" semantic-id="1" stroke="rgb(178,178,0)" stroke-width="0.1"/>
  <path d="M 1.9235434999999939,72.75750000000005 L 0.0,72.75750000000005" fill="none" instance-id="-1" semantic-id="1" stroke="rgb(178,178,0)" stroke-width="0.1"/>
  <path d="M 58.923543499999994,47.75750000000005 L 41.923543499999994,47.75750000000005" fill="none" instance-id="-1" semantic-id="1" stroke="rgb(178,178,0)" stroke-width="0.1"/>
  <path d="M 58.923543499999994,45.75750000000005 L 42.923543499999994,45.75750000000005" fill="none" instance-id="-1" semantic-id="1" stroke="rgb(178,178,0)" stroke-width="0.1"/>
  <path d="M 32.923543499999994,45.75750000000005 L 32.923543499999994,47.75750000000005" fill="none" instance-id="-1" semantic-id="1" stroke="rgb(178,178,0)" stroke-width="0.1"/>
  <path d="M 32.923543499999994,47.75750000000005 L 34.923543499999994,47.75750000000005" fill="none" instance-id="-1" semantic-id="1" stroke="rgb(178,178,0)" stroke-width="0.1"/>
  <path d="M 34.923543499999994,72.75750000000005 L 34.923543499999994,66.75750000000005" fill="none" instance-id="-1" semantic-id="1" stroke="rgb(178,178,0)" stroke-width="0.1"/>
  <path d="M 34.923543499999994,66.75750000000005 L 32.923543499999994,66.75750000000005" fill="none" instance-id="-1" semantic-id="1" stroke="rgb(178,178,0)" stroke-width="0.1"/>
  <path d="M 32.923543499999994,66.75750000000005 L 32.923543499999994,72.75750000000005" fill="none" instance-id="-1" semantic-id="1" stroke="rgb(178,178,0)" stroke-width="0.1"/>
  <path d="M 58.923543499999994,19.75750000000005 L 42.923543499999994,19.75750000000005" fill="none" instance-id="-1" semantic-id="1" stroke="rgb(178,178,0)" stroke-width="0.1"/>
  <path d="M 58.923543499999994,17.75750000000005 L 42.923543499999994,17.75750000000005" fill="none" instance-id="-1" semantic-id="1" stroke="rgb(178,178,0)" stroke-width="0.1"/>
  <path d="M 58.923543499999994,19.75750000000005 L 58.923543499999994,20.75750000000005" fill="none" instance-id="-1" semantic-id="1" stroke="rgb(178,178,0)" stroke-width="0.1"/>
  <path d="M 58.923543499999994,20.75750000000005 L 60.923543499999994,20.75750000000005" fill="none" instance-id="-1" semantic-id="1" stroke="rgb(178,178,0)" stroke-width="0.1"/>
  <path d="M 60.923543499999994,20.75750000000005 L 60.923543499999994,18.75750000000005" fill="none" instance-id="-1" semantic-id="1" stroke="rgb(178,178,0)" stroke-width="0.1"/>
  <path d="M 60.923543499999994,46.75750000000005 L 60.923543499999994,30.75750000000005" fill="none" instance-id="-1" semantic-id="1" stroke="rgb(178,178,0)" stroke-width="0.1"/>
  <path d="M 60.923543499999994,30.75750000000005 L 58.923543499999994,30.75750000000005" fill="none" instance-id="-1" semantic-id="1" stroke="rgb(178,178,0)" stroke-width="0.1"/>
  <path d="M 58.923543499999994,30.75750000000005 L 58.923543499999994,45.75750000000005" fill="none" instance-id="-1" semantic-id="1" stroke="rgb(178,178,0)" stroke-width="0.1"/>
  <path d="M 42.923543499999994,19.75750000000005 L 42.923543499999994,45.75750000000005" fill="none" instance-id="-1" semantic-id="1" stroke="rgb(178,178,0)" stroke-width="0.1"/>
  <path d="M 40.923543499999994,18.75750000000005 L 40.923543499999994,45.75750000000005" fill="none" instance-id="-1" semantic-id="1" stroke="rgb(178,178,0)" stroke-width="0.1"/>
  <path d="M 60.923543499999994,18.75750000000005 L 60.923543499999994,0.0" fill="none" instance-id="-1" semantic-id="1" stroke="rgb(178,178,0)" stroke-width="0.1"/>
  <path d="M 58.923543499999994,0.0 L 58.923543499999994,17.75750000000005" fill="none" instance-id="-1" semantic-id="1" stroke="rgb(178,178,0)" stroke-width="0.1"/>
  <path d="M 42.923543499999994,0.0 L 42.923543499999994,17.75750000000005" fill="none" instance-id="-1" semantic-id="1" stroke="rgb(178,178,0)" stroke-width="0.1"/>
  <path d="M 40.923543499999994,0.0 L 40.923543499999994,18.75750000000005" fill="none" instance-id="-1" semantic-id="1" stroke="rgb(178,178,0)" stroke-width="0.1"/>
  <path d="M 60.923543499999994,73.75750000000005 L 60.923543499999994,74.75750000000005" fill="none" instance-id="-1" semantic-id="1" stroke="rgb(178,178,0)" stroke-width="0.1"/>
  <path d="M 58.923543499999994,74.75750000000005 L 58.923543499999994,75.75750000000005" fill="none" instance-id="-1" semantic-id="1" stroke="rgb(178,178,0)" stroke-width="0.1"/>
  <path d="M 58.923543499999994,47.75750000000005 L 60.923543499999994,47.75750000000005" fill="none" instance-id="-1" semantic-id="1" stroke="rgb(178,178,0)" stroke-width="0.1"/>
  <path d="M 60.923543499999994,47.75750000000005 L 60.923543499999994,46.75750000000005" fill="none" instance-id="-1" semantic-id="1" stroke="rgb(178,178,0)" stroke-width="0.1"/>
  <path d="M 60.923543499999994,73.75750000000005 L 60.923543499999994,66.75750000000005" fill="none" instance-id="-1" semantic-id="1" stroke="rgb(178,178,0)" stroke-width="0.1"/>
  <path d="M 60.923543499999994,66.75750000000005 L 58.923543499999994,66.75750000000005" fill="none" instance-id="-1" semantic-id="1" stroke="rgb(178,178,0)" stroke-width="0.1"/>
  <path d="M 58.923543499999994,66.75750000000005 L 58.923543499999994,72.75750000000005" fill="none" instance-id="-1" semantic-id="1" stroke="rgb(178,178,0)" stroke-width="0.1"/>
  <path d="M 41.923543499999994,47.75750000000005 L 34.923543499999994,47.75750000000005" fill="none" instance-id="-1" semantic-id="1" stroke="rgb(178,178,0)" stroke-width="0.1"/>
  <path d="M 40.923543499999994,45.75750000000005 L 32.923543499999994,45.75750000000005" fill="none" instance-id="-1" semantic-id="1" stroke="rgb(178,178,0)" stroke-width="0.1"/>
  <path d="M 75.9235435,74.75750000000005 L 71.9235435,74.75750000000005" fill="none" instance-id="-1" semantic-id="1" stroke="rgb(178,178,0)" stroke-width="0.1"/>
  <path d="M 71.9235435,74.75750000000005 L 71.9235435,76.75750000000005" fill="none" instance-id="-1" semantic-id="1" stroke="rgb(178,178,0)" stroke-width="0.1"/>
  <path d="M 71.9235435,76.75750000000005 L 73.9235435,76.75750000000005" fill="none" instance-id="-1" semantic-id="1" stroke="rgb(178,178,0)" stroke-width="0.1"/>
  <path d="M 60.923543499999994,76.75750000000005 L 61.923543499999994,76.75750000000005" fill="none" instance-id="-1" semantic-id="1" stroke="rgb(178,178,0)" stroke-width="0.1"/>
  <path d="M 61.923543499999994,76.75750000000005 L 61.923543499999994,74.75750000000005" fill="none" instance-id="-1" semantic-id="1" stroke="rgb(178,178,0)" stroke-width="0.1"/>
  <path d="M 61.923543499999994,74.75750000000005 L 60.923543499999994,74.75750000000005" fill="none" instance-id="-1" semantic-id="1" stroke="rgb(178,178,0)" stroke-width="0.1"/>
  <path d="M 58.923543499999994,74.75750000000005 L 33.923543499999994,74.75750000000005" fill="none" instance-id="-1" semantic-id="1" stroke="rgb(178,178,0)" stroke-width="0.1"/>
  <path d="M 58.923543499999994,72.75750000000005 L 34.923543499999994,72.75750000000005" fill="none" instance-id="-1" semantic-id="1" stroke="rgb(178,178,0)" stroke-width="0.1"/>
  <path d="M 74.9235435,91.75750000000005 L 58.923543499999994,91.75750000000005" fill="none" instance-id="-1" semantic-id="1" stroke="rgb(178,178,0)" stroke-width="0.1"/>
  <path d="M 73.9235435,89.75750000000005 L 60.923543499999994,89.75750000000005" fill="none" instance-id="-1" semantic-id="1" stroke="rgb(178,178,0)" stroke-width="0.1"/>
  <path d="M 75.9235435,74.75750000000005 L 75.9235435,89.75750000000005" fill="none" instance-id="-1" semantic-id="1" stroke="rgb(178,178,0)" stroke-width="0.1"/>
  <path d="M 73.9235435,76.75750000000005 L 73.9235435,89.75750000000005" fill="none" instance-id="-1" semantic-id="1" stroke="rgb(178,178,0)" stroke-width="0.1"/>
  <path d="M 60.923543499999994,76.75750000000005 L 60.923543499999994,89.75750000000005" fill="none" instance-id="-1" semantic-id="1" stroke="rgb(178,178,0)" stroke-width="0.1"/>
  <path d="M 58.923543499999994,75.75750000000005 L 58.923543499999994,91.75750000000005" fill="none" instance-id="-1" semantic-id="1" stroke="rgb(178,178,0)" stroke-width="0.1"/>
  <path d="M 33.923543499999994,74.75750000000005 L 2.923543499999994,74.75750000000005" fill="none" instance-id="-1" semantic-id="1" stroke="rgb(178,178,0)" stroke-width="0.1"/>
  <path d="M 32.923543499999994,72.75750000000005 L 3.923543499999994,72.75750000000005" fill="none" instance-id="-1" semantic-id="1" stroke="rgb(178,178,0)" stroke-width="0.1"/>
  <path d="M 21.923543499999994,0.0 L 21.923543499999994,2.75750000000005" fill="none" instance-id="-1" semantic-id="1" stroke="rgb(178,178,0)" stroke-width="0.1"/>
  <path d="M 19.923543499999994,0.0 L 19.923543499999994,0.75750000000005" fill="none" instance-id="-1" semantic-id="1" stroke="rgb(178,178,0)" stroke-width="0.1"/>
  <path d="M 3.923543499999994,0.75750000000005 L 1.9235434999999939,0.75750000000005" fill="none" instance-id="-1" semantic-id="1" stroke="rgb(178,178,0)" stroke-width="0.1"/>
  <path d="M 1.9235434999999939,0.75750000000005 L 1.9235434999999939,1.75750000000005" fill="none" instance-id="-1" semantic-id="1" stroke="rgb(178,178,0)" stroke-width="0.1"/>
  <path d="M 21.923543499999994,2.75750000000005 L 3.923543499999994,2.75750000000005" fill="none" instance-id="-1" semantic-id="1" stroke="rgb(178,178,0)" stroke-width="0.1"/>
  <path d="M 19.923543499999994,0.75750000000005 L 3.923543499999994,0.75750000000005" fill="none" instance-id="-1" semantic-id="1" stroke="rgb(178,178,0)" stroke-width="0.1"/>
  <path d="M 3.923543499999994,2.75750000000005 L 3.923543499999994,21.75750000000005" fill="none" instance-id="-1" semantic-id="1" stroke="rgb(178,178,0)" stroke-width="0.1"/>
  <path d="M 1.9235434999999939,1.75750000000005 L 1.9235434999999939,20.75750000000005" fill="none" instance-id="-1" semantic-id="1" stroke="rgb(178,178,0)" stroke-width="0.1"/>
 </g>
</svg>