<?xml version="1.0" encoding="utf-8"?>
<svg style="background-color: #000;" version="1.1" viewBox="0 0 100.0 100.0" xmlns="http://www.w3.org/2000/svg" xmlns:inkscape="http://www.inkscape.org/namespaces/inkscape">
 <g id="layer0-楼梯编号" inkscape:groupmode="layer" inkscape:label="0-楼梯编号">
  <text fill="rgb(53,53,107)" font-family="Noto Sans CJK SC" font-size="2" transform="rotate(-0.0,74.97990550000003,24.53200000000004)" x="74.97990550000003" y="24.53200000000004">
   SLT-41
  </text>
 </g>
 <g id="layer0-电梯编号" inkscape:groupmode="layer" inkscape:label="0-电梯编号">
  <text fill="rgb(0,178,178)" font-family="Noto Sans CJK SC" font-size="2" transform="rotate(-0.0,80.2189055,63.37699999999995)" x="80.2189055" y="63.37699999999995">
   3000Kg
  </text>
  <text fill="rgb(0,178,178)" font-family="Noto Sans CJK SC" font-size="2" transform="rotate(-0.0,80.2189055,55.37699999999995)" x="80.2189055" y="55.37699999999995">
   SDT-8
  </text>
  <text fill="rgb(0,178,178)" font-family="Noto Sans CJK SC" font-size="2" transform="rotate(-0.0,80.2189055,99.37699999999995)" x="80.2189055" y="99.37699999999995">
   3000Kg
  </text>
  <text fill="rgb(0,178,178)" font-family="Noto Sans CJK SC" font-size="2" transform="rotate(-0.0,80.2189055,91.37699999999995)" x="80.2189055" y="91.37699999999995">
   SDT-9
  </text>
 </g>
 <g id="layerAccessible【无障碍】" inkscape:groupmode="layer" inkscape:label="Accessible【无障碍】">
  <path d="M 70.03490549999998,56.62800000000004 L 69.9689055,57.22799999999995" fill="none" stroke="rgb(178,0,0)" stroke-width="0.1"/>
  <path d="M 69.23490550000002,56.99800000000005 L 69.1589055,57.684999999999945" fill="none" stroke="rgb(178,0,0)" stroke-width="0.1"/>
  <path d="M 67.83790550000003,58.82600000000002 L 67.56190550000002,59.37199999999996" fill="none" stroke="rgb(178,0,0)" stroke-width="0.1"/>
  <path d="M 67.41990550000003,56.49199999999996 L 67.51090549999998,56.99800000000005" fill="none" stroke="rgb(178,0,0)" stroke-width="0.1"/>
  <path d="M 69.29090550000001,56.49199999999996 L 67.41990550000003,56.49199999999996" fill="none" stroke="rgb(178,0,0)" stroke-width="0.1"/>
  <path d="M 69.23490550000002,56.99800000000005 L 67.51090549999998,56.99800000000005" fill="none" stroke="rgb(178,0,0)" stroke-width="0.1"/>
  <path d="M 66.16290550000002,59.39099999999996 L 67.01290549999999,59.79899999999998" fill="none" stroke="rgb(178,0,0)" stroke-width="0.1"/>
  <path d="M 66.35890549999999,58.98400000000004 L 66.16290550000002,59.39099999999996" fill="none" stroke="rgb(178,0,0)" stroke-width="0.1"/>
  <path d="M 66.74690550000003,59.17100000000005 L 66.35890549999999,58.98400000000004" fill="none" stroke="rgb(178,0,0)" stroke-width="0.1"/>
  <path d="M 67.79090550000001,58.25999999999999 L 67.01290549999999,59.79899999999998" fill="none" stroke="rgb(178,0,0)" stroke-width="0.1"/>
  <path d="M 67.50090549999999,57.684999999999945 L 66.74690550000003,59.17100000000005" fill="none" stroke="rgb(178,0,0)" stroke-width="0.1"/>
  <path d="M 67.79090550000001,58.25999999999999 L 69.69790549999999,58.25999999999999" fill="none" stroke="rgb(178,0,0)" stroke-width="0.1"/>
  <path d="M 67.50090549999999,57.684999999999945 L 69.1589055,57.684999999999945" fill="none" stroke="rgb(178,0,0)" stroke-width="0.1"/>
  <path d="M 69.39590550000003,55.548 L 69.29090550000001,56.49199999999996" fill="none" stroke="rgb(178,0,0)" stroke-width="0.1"/>
  <path d="M 69.98690549999998,55.63900000000001 L 69.69790549999999,58.25999999999999" fill="none" stroke="rgb(178,0,0)" stroke-width="0.1"/>
  <path d="M 70.03490549999998,92.62800000000004 L 69.9689055,93.22799999999995" fill="none" stroke="rgb(178,0,0)" stroke-width="0.1"/>
  <path d="M 69.23490550000002,92.99800000000005 L 69.1589055,93.68499999999995" fill="none" stroke="rgb(178,0,0)" stroke-width="0.1"/>
  <path d="M 67.83790550000003,94.82600000000002 L 67.56190550000002,95.37199999999996" fill="none" stroke="rgb(178,0,0)" stroke-width="0.1"/>
  <path d="M 67.41990550000003,92.49199999999996 L 67.51090549999998,92.99800000000005" fill="none" stroke="rgb(178,0,0)" stroke-width="0.1"/>
  <path d="M 69.29090550000001,92.49199999999996 L 67.41990550000003,92.49199999999996" fill="none" stroke="rgb(178,0,0)" stroke-width="0.1"/>
  <path d="M 69.23490550000002,92.99800000000005 L 67.51090549999998,92.99800000000005" fill="none" stroke="rgb(178,0,0)" stroke-width="0.1"/>
  <path d="M 66.16290550000002,95.39099999999996 L 67.01290549999999,95.79899999999998" fill="none" stroke="rgb(178,0,0)" stroke-width="0.1"/>
  <path d="M 66.35890549999999,94.98400000000004 L 66.16290550000002,95.39099999999996" fill="none" stroke="rgb(178,0,0)" stroke-width="0.1"/>
  <path d="M 66.74690550000003,95.17100000000005 L 66.35890549999999,94.98400000000004" fill="none" stroke="rgb(178,0,0)" stroke-width="0.1"/>
  <path d="M 67.79090550000001,94.25999999999999 L 67.01290549999999,95.79899999999998" fill="none" stroke="rgb(178,0,0)" stroke-width="0.1"/>
  <path d="M 67.50090549999999,93.68499999999995 L 66.74690550000003,95.17100000000005" fill="none" stroke="rgb(178,0,0)" stroke-width="0.1"/>
  <path d="M 67.79090550000001,94.25999999999999 L 69.69790549999999,94.25999999999999" fill="none" stroke="rgb(178,0,0)" stroke-width="0.1"/>
  <path d="M 67.50090549999999,93.68499999999995 L 69.1589055,93.68499999999995" fill="none" stroke="rgb(178,0,0)" stroke-width="0.1"/>
  <path d="M 69.39590550000003,91.548 L 69.29090550000001,92.49199999999996" fill="none" stroke="rgb(178,0,0)" stroke-width="0.1"/>
  <path d="M 69.98690549999998,91.63900000000001 L 69.69790549999999,94.25999999999999" fill="none" stroke="rgb(178,0,0)" stroke-width="0.1"/>
  <path d="M 67.56190550000002,59.37199999999996 A 1.96709,1.96709 -90.0 1,0 70.03490549999998,56.62800000000004" fill="none" stroke="rgb(178,0,0)" stroke-width="0.1"/>
  <path d="M 67.83790550000003,58.82600000000002 A 1.4438,1.4438 -90.0 1,0 69.9689055,57.22799999999995" fill="none" stroke="rgb(178,0,0)" stroke-width="0.1"/>
  <path d="M 69.98690549999998,55.63900000000001 A 0.600624,0.600624 -90.0 1,0 69.39590550000003,55.548" fill="none" stroke="rgb(178,0,0)" stroke-width="0.1"/>
  <path d="M 67.56190550000002,95.37199999999996 A 1.96709,1.96709 -90.0 1,0 70.03490549999998,92.62800000000004" fill="none" stroke="rgb(178,0,0)" stroke-width="0.1"/>
  <path d="M 67.83790550000003,94.82600000000002 A 1.4438,1.4438 -90.0 1,0 69.9689055,93.22799999999995" fill="none" stroke="rgb(178,0,0)" stroke-width="0.1"/>
  <path d="M 69.98690549999998,91.63900000000001 A 0.600624,0.600624 -90.0 1,0 69.39590550000003,91.548" fill="none" stroke="rgb(178,0,0)" stroke-width="0.1"/>
  <circle cx="69.25890550000003" cy="57.75" fill="none" r="3.75" stroke="rgb(255,12,12)" stroke-width="0.1"/>
  <circle cx="69.25890550000003" cy="93.75" fill="none" r="3.75" stroke="rgb(255,12,12)" stroke-width="0.1"/>
 </g>
 <g id="layerDIM_SYMB" inkscape:groupmode="layer" inkscape:label="DIM_SYMB">
  <path d="M 67.28090550000002,0.0 L 67.28090550000002,28.25" fill="none" stroke="rgb(0,178,0)" stroke-width="0.1"/>
  <path d="M 67.28090550000002,28.25 L 91.53090550000002,28.25" fill="none" stroke="rgb(0,178,0)" stroke-width="0.1"/>
  <path d="M 91.53090550000002,28.25 L 91.53090550000002,0.0" fill="none" stroke="rgb(0,178,0)" stroke-width="0.1"/>
 </g>
 <g id="layerDim_elev【标高】" inkscape:groupmode="layer" inkscape:label="Dim_elev【标高】">
  <path d="M 73.55390549999998,34.98199999999997 L 69.05390549999998,30.48199999999997" fill="none" stroke="rgb(0,178,0)" stroke-width="0.1"/>
  <path d="M 73.55390549999998,34.98199999999997 L 78.05390549999998,30.48199999999997" fill="none" stroke="rgb(0,178,0)" stroke-width="0.1"/>
  <path d="M 69.05390549999998,30.48199999999997 L 94.25390550000003,30.48199999999997" fill="none" stroke="rgb(0,178,0)" stroke-width="0.1"/>
  <text fill="rgb(0,0,0)" font-family="Noto Sans CJK SC" font-size="2" transform="rotate(-0.0,82.25190550000002,28.90700000000004)" x="82.25190550000002" y="28.90700000000004">
   -2.368
  </text>
 </g>
 <g id="layerDote【轴线】" inkscape:groupmode="layer" inkscape:label="Dote【轴线】">
  <path d="M 81.78090550000002,100.0 L 81.78090550000002,0.0" fill="none" stroke="rgb(53,107,107)" stroke-width="0.1"/>
  <path d="M 0.0,12.75 L 100.0,12.75" fill="none" stroke="rgb(53,107,107)" stroke-width="0.1"/>
  <path d="M 21.780905500000017,100.0 L 21.780905500000017,0.0" fill="none" stroke="rgb(53,107,107)" stroke-width="0.1"/>
 </g>
 <g id="layerPUB_HATCH" inkscape:groupmode="layer" inkscape:label="PUB_HATCH">
  <path d="M 72.78090550000002,40.75 L 100.0,40.75" fill="none" instance-id="-1" semantic-id="1" stroke="rgb(89,89,89)" stroke-width="0.1"/>
  <path d="M 100.0,38.75 L 72.78090550000002,38.75" fill="none" instance-id="-1" semantic-id="1" stroke="rgb(89,89,89)" stroke-width="0.1"/>
  <path d="M 72.78090550000002,38.75 L 72.78090550000002,40.75" fill="none" instance-id="-1" semantic-id="1" stroke="rgb(89,89,89)" stroke-width="0.1"/>
 </g>
 <g id="layerStair【楼梯、电梯】" inkscape:groupmode="layer" inkscape:label="Stair【楼梯、电梯】">
  <path d="M 99.63090549999998,43.25 L 77.63090549999998,72.25" fill="none" instance-id="1" semantic-id="31" stroke="rgb(44,178,0)" stroke-width="0.1"/>
  <path d="M 77.63090549999998,43.25 L 99.63090549999998,72.25" fill="none" instance-id="1" semantic-id="31" stroke="rgb(44,178,0)" stroke-width="0.1"/>
  <path d="M 99.63090549999998,79.25 L 83.88952618965516,100.0" fill="none" instance-id="2" semantic-id="31" stroke="rgb(44,178,0)" stroke-width="0.1"/>
  <path d="M 77.63090549999998,79.25 L 93.37228481034481,100.0" fill="none" instance-id="2" semantic-id="31" stroke="rgb(44,178,0)" stroke-width="0.1"/>
  <path d="M 80.78090550000002,0.0 L 80.78090550000002,12.149999999999977" fill="none" instance-id="3" semantic-id="30" stroke="rgb(44,178,0)" stroke-width="0.1"/>
  <path d="M 81.28090550000002,0.9500000000000455 L 100.0,0.9500000000000455" fill="none" instance-id="3" semantic-id="30" stroke="rgb(44,178,0)" stroke-width="0.1"/>
  <path d="M 81.28090550000002,3.75 L 100.0,3.75" fill="none" instance-id="3" semantic-id="30" stroke="rgb(44,178,0)" stroke-width="0.1"/>
  <path d="M 81.28090550000002,6.5499999999999545 L 100.0,6.5499999999999545" fill="none" instance-id="3" semantic-id="30" stroke="rgb(44,178,0)" stroke-width="0.1"/>
  <path d="M 81.28090550000002,9.350000000000023 L 100.0,9.350000000000023" fill="none" instance-id="3" semantic-id="30" stroke="rgb(44,178,0)" stroke-width="0.1"/>
  <path d="M 81.28090550000002,12.149999999999977 L 100.0,12.149999999999977" fill="none" instance-id="3" semantic-id="30" stroke="rgb(44,178,0)" stroke-width="0.1"/>
  <path d="M 79.78090550000002,17.75 L 79.78090550000002,0.0" fill="none" instance-id="3" semantic-id="30" stroke="rgb(44,178,0)" stroke-width="0.1"/>
  <path d="M 79.28090550000002,17.75 L 58.78090550000002,17.75" fill="none" instance-id="3" semantic-id="30" stroke="rgb(44,178,0)" stroke-width="0.1"/>
  <path d="M 79.28090550000002,14.950000000000045 L 58.78090550000002,14.950000000000045" fill="none" instance-id="3" semantic-id="30" stroke="rgb(44,178,0)" stroke-width="0.1"/>
  <path d="M 79.28090550000002,12.149999999999977 L 58.78090550000002,12.149999999999977" fill="none" instance-id="3" semantic-id="30" stroke="rgb(44,178,0)" stroke-width="0.1"/>
  <path d="M 79.28090550000002,9.350000000000023 L 58.78090550000002,9.350000000000023" fill="none" instance-id="3" semantic-id="30" stroke="rgb(44,178,0)" stroke-width="0.1"/>
  <path d="M 79.28090550000002,6.5499999999999545 L 58.78090550000002,6.5499999999999545" fill="none" instance-id="3" semantic-id="30" stroke="rgb(44,178,0)" stroke-width="0.1"/>
  <path d="M 79.28090550000002,3.75 L 58.78090550000002,3.75" fill="none" instance-id="3" semantic-id="30" stroke="rgb(44,178,0)" stroke-width="0.1"/>
  <path d="M 79.28090550000002,0.9500000000000455 L 58.78090550000002,0.9500000000000455" fill="none" instance-id="3" semantic-id="30" stroke="rgb(44,178,0)" stroke-width="0.1"/>
  <path d="M 80.78090550000002,0.0 L 80.78090550000002,17.75" fill="none" instance-id="3" semantic-id="30" stroke="rgb(44,178,0)" stroke-width="0.1"/>
  <path d="M 80.78090550000002,17.75 L 79.78090550000002,17.75" fill="none" instance-id="3" semantic-id="30" stroke="rgb(44,178,0)" stroke-width="0.1"/>
  <path d="M 79.78090550000002,17.75 L 79.78090550000002,0.0" fill="none" instance-id="3" semantic-id="30" stroke="rgb(44,178,0)" stroke-width="0.1"/>
  <path d="M 81.28090550000002,0.0 L 81.28090550000002,18.25" fill="none" instance-id="3" semantic-id="30" stroke="rgb(44,178,0)" stroke-width="0.1"/>
  <path d="M 81.28090550000002,18.25 L 79.28090550000002,18.25" fill="none" instance-id="3" semantic-id="30" stroke="rgb(44,178,0)" stroke-width="0.1"/>
  <path d="M 79.28090550000002,18.25 L 79.28090550000002,0.0" fill="none" instance-id="3" semantic-id="30" stroke="rgb(44,178,0)" stroke-width="0.1"/>
  <path d="M 81.28090550000002,14.950000000000045 L 100.0,14.950000000000045" fill="none" instance-id="3" semantic-id="30" stroke="rgb(44,178,0)" stroke-width="0.1"/>
  <path d="M 81.28090550000002,17.75 L 100.0,17.75" fill="none" instance-id="3" semantic-id="30" stroke="rgb(44,178,0)" stroke-width="0.1"/>
  <path d="M 58.78090550000002,0.0 L 58.78090550000002,38.75" fill="none" instance-id="3" semantic-id="30" stroke="rgb(44,178,0)" stroke-width="0.1"/>
  <path d="M 57.78090550000002,0.0 L 57.78090550000002,39.75" fill="none" instance-id="3" semantic-id="30" stroke="rgb(44,178,0)" stroke-width="0.1"/>
  <path d="M 72.78090550000002,38.75 L 58.78090550000002,38.75" fill="none" instance-id="3" semantic-id="30" stroke="rgb(44,178,0)" stroke-width="0.1"/>
  <path d="M 72.78090550000002,39.75 L 57.78090550000002,39.75" fill="none" stroke="rgb(44,178,0)" stroke-width="0.1"/>
  <path d="M 77.63090549999998,43.25 L 77.63090549999998,72.25" fill="none" instance-id="1" semantic-id="31" stroke="rgb(44,178,0)" stroke-width="0.1"/>
  <path d="M 77.63090549999998,72.25 L 99.63090549999998,72.25" fill="none" instance-id="1" semantic-id="31" stroke="rgb(44,178,0)" stroke-width="0.1"/>
  <path d="M 99.63090549999998,72.25 L 99.63090549999998,43.25" fill="none" instance-id="1" semantic-id="31" stroke="rgb(44,178,0)" stroke-width="0.1"/>
  <path d="M 99.63090549999998,43.25 L 77.63090549999998,43.25" fill="none" instance-id="1" semantic-id="31" stroke="rgb(44,178,0)" stroke-width="0.1"/>
  <path d="M 77.63090549999998,79.25 L 77.63090549999998,100.0" fill="none" instance-id="2" semantic-id="31" stroke="rgb(44,178,0)" stroke-width="0.1"/>
  <path d="M 99.63090549999998,100.0 L 99.63090549999998,79.25" fill="none" instance-id="2" semantic-id="31" stroke="rgb(44,178,0)" stroke-width="0.1"/>
  <path d="M 99.63090549999998,79.25 L 77.63090549999998,79.25" fill="none" instance-id="2" semantic-id="31" stroke="rgb(44,178,0)" stroke-width="0.1"/>
  <path d="M 74.78090550000002,40.75 L 100.0,40.75" fill="none" instance-id="1" semantic-id="31" stroke="rgb(44,178,0)" stroke-width="0.1"/>
  <path d="M 100.0,74.75 L 74.78090550000002,74.75" fill="none" instance-id="1" semantic-id="31" stroke="rgb(44,178,0)" stroke-width="0.1"/>
  <path d="M 74.78090550000002,74.75 L 74.78090550000002,40.75" fill="none" instance-id="1" semantic-id="31" stroke="rgb(44,178,0)" stroke-width="0.1"/>
  <path d="M 74.78090550000002,76.75 L 100.0,76.75" fill="none" instance-id="2" semantic-id="31" stroke="rgb(44,178,0)" stroke-width="0.1"/>
  <path d="M 74.78090550000002,100.0 L 74.78090550000002,76.75" fill="none" instance-id="2" semantic-id="31" stroke="rgb(44,178,0)" stroke-width="0.1"/>
 </g>
 <g id="layerWINDOW" inkscape:groupmode="layer" inkscape:label="WINDOW">
  <path d="M 75.37090549999999,46.01700000000005 L 75.37090549999999,57.01700000000005" fill="none" instance-id="4" semantic-id="5" stroke="rgb(0,178,178)" stroke-width="0.1"/>
  <path d="M 75.16190549999999,46.01700000000005 L 75.16190549999999,57.01700000000005" fill="none" instance-id="4" semantic-id="5" stroke="rgb(0,178,178)" stroke-width="0.1"/>
  <path d="M 75.37090549999999,69.48299999999995 L 75.16190549999999,69.48299999999995" fill="none" instance-id="4" semantic-id="5" stroke="rgb(0,178,178)" stroke-width="0.1"/>
  <path d="M 75.37090549999999,46.01700000000005 L 75.16190549999999,46.01700000000005" fill="none" instance-id="4" semantic-id="5" stroke="rgb(0,178,178)" stroke-width="0.1"/>
  <path d="M 75.37090549999999,58.48299999999995 L 75.16190549999999,58.48299999999995" fill="none" instance-id="4" semantic-id="5" stroke="rgb(0,178,178)" stroke-width="0.1"/>
  <path d="M 75.16190549999999,58.48299999999995 L 75.16190549999999,69.48299999999995" fill="none" instance-id="4" semantic-id="5" stroke="rgb(0,178,178)" stroke-width="0.1"/>
  <path d="M 75.37090549999999,58.48299999999995 L 75.37090549999999,69.48299999999995" fill="none" instance-id="4" semantic-id="5" stroke="rgb(0,178,178)" stroke-width="0.1"/>
  <path d="M 75.37090549999999,57.01700000000005 L 75.16190549999999,57.01700000000005" fill="none" instance-id="4" semantic-id="5" stroke="rgb(0,178,178)" stroke-width="0.1"/>
  <path d="M 74.78090550000002,46.75 L 74.78090550000002,68.75" fill="none" instance-id="4" semantic-id="5" stroke="rgb(0,178,178)" stroke-width="0.1"/>
  <path d="M 75.37090549999999,82.01700000000005 L 75.37090549999999,93.01700000000005" fill="none" instance-id="5" semantic-id="5" stroke="rgb(0,178,178)" stroke-width="0.1"/>
  <path d="M 75.16190549999999,82.01700000000005 L 75.16190549999999,93.01700000000005" fill="none" instance-id="5" semantic-id="5" stroke="rgb(0,178,178)" stroke-width="0.1"/>
  <path d="M 75.37090549999999,82.01700000000005 L 75.16190549999999,82.01700000000005" fill="none" instance-id="5" semantic-id="5" stroke="rgb(0,178,178)" stroke-width="0.1"/>
  <path d="M 75.37090549999999,94.48299999999995 L 75.16190549999999,94.48299999999995" fill="none" instance-id="5" semantic-id="5" stroke="rgb(0,178,178)" stroke-width="0.1"/>
  <path d="M 75.16190549999999,94.48299999999995 L 75.16190549999999,100.0" fill="none" instance-id="5" semantic-id="5" stroke="rgb(0,178,178)" stroke-width="0.1"/>
  <path d="M 75.37090549999999,94.48299999999995 L 75.37090549999999,100.0" fill="none" instance-id="5" semantic-id="5" stroke="rgb(0,178,178)" stroke-width="0.1"/>
  <path d="M 75.37090549999999,93.01700000000005 L 75.16190549999999,93.01700000000005" fill="none" instance-id="5" semantic-id="5" stroke="rgb(0,178,178)" stroke-width="0.1"/>
  <path d="M 74.78090550000002,82.75 L 74.78090550000002,100.0" fill="none" instance-id="5" semantic-id="5" stroke="rgb(0,178,178)" stroke-width="0.1"/>
 </g>
 <g id="layerWall【砖墙】" inkscape:groupmode="layer" inkscape:label="Wall【砖墙】">
  <path d="M 100.0,76.75 L 74.78090550000002,76.75" fill="none" instance-id="-1" semantic-id="1" stroke="rgb(178,178,0)" stroke-width="0.1"/>
  <path d="M 100.0,74.75 L 74.78090550000002,74.75" fill="none" instance-id="-1" semantic-id="1" stroke="rgb(178,178,0)" stroke-width="0.1"/>
  <path d="M 74.78090550000002,74.75 L 74.78090550000002,68.75" fill="none" instance-id="-1" semantic-id="1" stroke="rgb(178,178,0)" stroke-width="0.1"/>
  <path d="M 74.78090550000002,68.75 L 72.78090550000002,68.75" fill="none" instance-id="-1" semantic-id="1" stroke="rgb(178,178,0)" stroke-width="0.1"/>
  <path d="M 72.78090550000002,68.75 L 72.78090550000002,75.75" fill="none" instance-id="-1" semantic-id="1" stroke="rgb(178,178,0)" stroke-width="0.1"/>
  <path d="M 72.78090550000002,40.75 L 72.78090550000002,46.75" fill="none" instance-id="-1" semantic-id="1" stroke="rgb(178,178,0)" stroke-width="0.1"/>
  <path d="M 72.78090550000002,46.75 L 74.78090550000002,46.75" fill="none" instance-id="-1" semantic-id="1" stroke="rgb(178,178,0)" stroke-width="0.1"/>
  <path d="M 74.78090550000002,46.75 L 74.78090550000002,40.75" fill="none" instance-id="-1" semantic-id="1" stroke="rgb(178,178,0)" stroke-width="0.1"/>
  <path d="M 72.78090550000002,75.75 L 72.78090550000002,82.75" fill="none" instance-id="-1" semantic-id="1" stroke="rgb(178,178,0)" stroke-width="0.1"/>
  <path d="M 72.78090550000002,82.75 L 74.78090550000002,82.75" fill="none" instance-id="-1" semantic-id="1" stroke="rgb(178,178,0)" stroke-width="0.1"/>
  <path d="M 74.78090550000002,82.75 L 74.78090550000002,76.75" fill="none" instance-id="-1" semantic-id="1" stroke="rgb(178,178,0)" stroke-width="0.1"/>
  <path d="M 72.78090550000002,38.75 L 100.0,38.75" fill="none" instance-id="-1" semantic-id="1" stroke="rgb(178,178,0)" stroke-width="0.1"/>
  <path d="M 72.78090550000002,40.75 L 100.0,40.75" fill="none" instance-id="-1" semantic-id="1" stroke="rgb(178,178,0)" stroke-width="0.1"/>
  <path d="M 72.78090550000002,38.75 L 72.78090550000002,40.75" fill="none" instance-id="-1" semantic-id="1" stroke="rgb(178,178,0)" stroke-width="0.1"/>
 </g>
</svg>