<?xml version="1.0" encoding="utf-8"?>
<svg style="background-color: #000;" version="1.1" viewBox="0 0 100.0 100.0" xmlns="http://www.w3.org/2000/svg" xmlns:inkscape="http://www.inkscape.org/namespaces/inkscape">
 <g id="layer0-梁线" inkscape:groupmode="layer" inkscape:label="0-梁线">
  <path d="M 50.76749999999997,64.75 L 0.0,64.75" fill="none" stroke="rgb(63,63,63)" stroke-width="0.1"/>
  <path d="M 50.76749999999997,62.25 L 0.0,62.25" fill="none" stroke="rgb(63,63,63)" stroke-width="0.1"/>
 </g>
 <g id="layer0-楼梯编号" inkscape:groupmode="layer" inkscape:label="0-楼梯编号">
  <text fill="rgb(53,53,107)" font-family="Noto Sans CJK SC" font-size="2" transform="rotate(-0.0,18.63119999999998,12.539999999999964)" x="18.63119999999998" y="12.539999999999964">
   SLT-7
  </text>
 </g>
 <g id="layer0-电气预留洞" inkscape:groupmode="layer" inkscape:label="0-电气预留洞">
  <path d="M 46.76749999999997,0.0 L 46.76749999999997,3.25" fill="none" stroke="rgb(0,0,178)" stroke-width="0.1"/>
  <path d="M 46.76749999999997,3.25 L 43.76739999999997,3.25" fill="none" stroke="rgb(0,0,178)" stroke-width="0.1"/>
  <path d="M 43.76739999999997,3.25 L 43.76739999999997,0.0" fill="none" stroke="rgb(0,0,178)" stroke-width="0.1"/>
  <path d="M 43.76739999999997,5.250999999999976 L 46.76749999999997,5.250999999999976" fill="none" stroke="rgb(0,0,178)" stroke-width="0.1"/>
  <path d="M 46.76749999999997,5.250999999999976 L 46.76749999999997,10.250999999999976" fill="none" stroke="rgb(0,0,178)" stroke-width="0.1"/>
  <path d="M 46.76749999999997,10.250999999999976 L 43.76739999999997,10.250999999999976" fill="none" stroke="rgb(0,0,178)" stroke-width="0.1"/>
  <path d="M 43.76739999999997,10.250999999999976 L 43.76739999999997,5.250999999999976" fill="none" stroke="rgb(0,0,178)" stroke-width="0.1"/>
  <path d="M 44.12985451152372,0.0 L 43.96739999999997,3.25" fill="none" stroke="rgb(0,0,178)" stroke-width="0.1"/>
  <path d="M 46.76749999999997,5.250999999999976 L 45.21109999999997,6.583999999999946" fill="none" stroke="rgb(0,0,178)" stroke-width="0.1"/>
  <path d="M 45.21109999999997,6.583999999999946 L 43.76739999999997,10.250999999999976" fill="none" stroke="rgb(0,0,178)" stroke-width="0.1"/>
 </g>
 <g id="layer0-门槛门口线" inkscape:groupmode="layer" inkscape:label="0-门槛门口线">
  <path d="M 58.76749999999997,3.25 L 58.76749999999997,13.25" fill="none" stroke="rgb(0,0,0)" stroke-width="0.1"/>
  <path d="M 59.76749999999997,3.25 L 59.76749999999997,13.25" fill="none" stroke="rgb(0,0,0)" stroke-width="0.1"/>
  <path d="M 58.76749999999997,38.25 L 58.76749999999997,48.25" fill="none" stroke="rgb(0,0,0)" stroke-width="0.1"/>
  <path d="M 59.76749999999997,38.25 L 59.76749999999997,48.25" fill="none" stroke="rgb(0,0,0)" stroke-width="0.1"/>
 </g>
 <g id="layer0-降板" inkscape:groupmode="layer" inkscape:label="0-降板">
  <path d="M 3.76749999999997,9.104000000000042 L 12.871398017251025,0.0" fill="none" stroke="rgb(63,63,63)" stroke-width="0.1"/>
  <path d="M 3.76749999999997,22.573999999999955 L 26.34164413229469,0.0" fill="none" stroke="rgb(63,63,63)" stroke-width="0.1"/>
  <path d="M 3.76749999999997,36.04499999999996 L 39.81249999999993,0.0" fill="none" stroke="rgb(63,63,63)" stroke-width="0.1"/>
  <path d="M 3.76749999999997,49.514999999999986 L 40.76749999999997,12.514999999999986" fill="none" stroke="rgb(63,63,63)" stroke-width="0.1"/>
  <path d="M 3.76749999999997,62.985000000000014 L 40.76749999999997,25.985000000000014" fill="none" stroke="rgb(63,63,63)" stroke-width="0.1"/>
  <path d="M 3.76749999999997,76.45600000000002 L 40.76749999999997,39.45600000000002" fill="none" stroke="rgb(63,63,63)" stroke-width="0.1"/>
  <path d="M 3.76749999999997,89.92600000000004 L 40.76749999999997,52.926000000000045" fill="none" stroke="rgb(63,63,63)" stroke-width="0.1"/>
  <path d="M 7.163499999999928,100.0 L 40.76749999999997,66.39599999999996" fill="none" stroke="rgb(63,63,63)" stroke-width="0.1"/>
  <path d="M 20.634426476280865,100.0 L 40.76749999999997,79.86699999999996" fill="none" stroke="rgb(63,63,63)" stroke-width="0.1"/>
  <path d="M 34.104595780924285,100.0 L 40.76749999999997,93.33699999999999" fill="none" stroke="rgb(63,63,63)" stroke-width="0.1"/>
  <path d="M 9.61167852451505,100.0 L 3.76749999999997,94.15599999999995" fill="none" stroke="rgb(63,63,63)" stroke-width="0.1"/>
  <path d="M 23.082354583098052,100.0 L 3.76749999999997,80.68499999999995" fill="none" stroke="rgb(63,63,63)" stroke-width="0.1"/>
  <path d="M 36.55249999999994,100.0 L 3.76749999999997,67.21500000000003" fill="none" stroke="rgb(63,63,63)" stroke-width="0.1"/>
  <path d="M 40.76749999999997,90.74400000000003 L 3.76749999999997,53.74400000000003" fill="none" stroke="rgb(63,63,63)" stroke-width="0.1"/>
  <path d="M 40.76749999999997,77.274 L 3.76749999999997,40.274" fill="none" stroke="rgb(63,63,63)" stroke-width="0.1"/>
  <path d="M 40.76749999999997,63.803999999999974 L 3.76749999999997,26.803999999999974" fill="none" stroke="rgb(63,63,63)" stroke-width="0.1"/>
  <path d="M 40.76749999999997,50.33299999999997 L 3.76749999999997,13.33299999999997" fill="none" stroke="rgb(63,63,63)" stroke-width="0.1"/>
  <path d="M 40.76749999999997,36.863000000000056 L 3.9044999999999135,0.0" fill="none" stroke="rgb(63,63,63)" stroke-width="0.1"/>
  <path d="M 40.76749999999997,23.392000000000053 L 17.375136114740798,0.0" fill="none" stroke="rgb(63,63,63)" stroke-width="0.1"/>
  <path d="M 40.76749999999997,9.922000000000025 L 30.845446861610924,0.0" fill="none" stroke="rgb(63,63,63)" stroke-width="0.1"/>
  <path d="M 3.76749999999997,100.0 L 3.76749999999997,0.0" fill="none" stroke="rgb(63,63,63)" stroke-width="0.1"/>
  <path d="M 40.76749999999997,0.0 L 40.76749999999997,100.0" fill="none" stroke="rgb(63,63,63)" stroke-width="0.1"/>
  <path d="M 2.054499999999976,100.0 L 2.054499999999976,98.05399999999997" fill="none" stroke="rgb(63,63,63)" stroke-width="0.1"/>
  <path d="M 2.054499999999976,98.05399999999997 L 0.0,98.05399999999997" fill="none" stroke="rgb(63,63,63)" stroke-width="0.1"/>
  <path d="M 2.054499999999976,100.0 L 2.054499999999976,98.05399999999997" fill="none" stroke="rgb(63,63,63)" stroke-width="0.1"/>
  <path d="M 2.054499999999976,98.05399999999997 L 0.0,98.05399999999997" fill="none" stroke="rgb(63,63,63)" stroke-width="0.1"/>
  <path d="M 3.76749999999997,0.0 L 3.76749999999997,100.0" fill="none" stroke="rgb(63,63,63)" stroke-width="0.1"/>
  <path d="M 40.76749999999997,100.0 L 40.76749999999997,0.0" fill="none" stroke="rgb(63,63,63)" stroke-width="0.1"/>
 </g>
 <g id="layer0-风井" inkscape:groupmode="layer" inkscape:label="0-风井">
  <path d="M 1.7674999999999699,0.0 L 1.7674999999999699,0.25" fill="none" stroke="rgb(178,0,0)" stroke-width="0.1"/>
  <path d="M 1.7674999999999699,0.25 L 0.0,0.25" fill="none" stroke="rgb(178,0,0)" stroke-width="0.1"/>
  <path d="M 0.0,2.25 L 1.7674999999999699,2.25" fill="none" stroke="rgb(178,0,0)" stroke-width="0.1"/>
  <path d="M 1.7674999999999699,2.25 L 1.7674999999999699,12.25" fill="none" stroke="rgb(178,0,0)" stroke-width="0.1"/>
  <path d="M 1.7674999999999699,12.25 L 0.0,12.25" fill="none" stroke="rgb(178,0,0)" stroke-width="0.1"/>
  <path d="M 0.0,76.25 L 1.7674999999999699,76.25" fill="none" stroke="rgb(178,0,0)" stroke-width="0.1"/>
  <path d="M 1.7674999999999699,76.25 L 1.7674999999999699,89.25" fill="none" stroke="rgb(178,0,0)" stroke-width="0.1"/>
  <path d="M 1.7674999999999699,89.25 L 0.0,89.25" fill="none" stroke="rgb(178,0,0)" stroke-width="0.1"/>
  <path d="M 0.0,76.25 L 1.7674999999999699,76.25" fill="none" stroke="rgb(178,0,0)" stroke-width="0.1"/>
  <path d="M 1.7674999999999699,76.25 L 1.7674999999999699,96.25" fill="none" stroke="rgb(178,0,0)" stroke-width="0.1"/>
  <path d="M 1.7674999999999699,96.25 L 0.0,96.25" fill="none" stroke="rgb(178,0,0)" stroke-width="0.1"/>
  <path d="M 0.0,62.25 L 1.7674999999999699,62.25" fill="none" stroke="rgb(178,0,0)" stroke-width="0.1"/>
  <path d="M 1.7674999999999699,62.25 L 1.7674999999999699,46.25" fill="none" stroke="rgb(178,0,0)" stroke-width="0.1"/>
  <path d="M 1.7674999999999699,46.25 L 0.0,46.25" fill="none" stroke="rgb(178,0,0)" stroke-width="0.1"/>
  <path d="M 1.7674999999999699,76.25 L 0.0,76.86789328426858" fill="none" stroke="rgb(178,0,0)" stroke-width="0.1"/>
  <path d="M 50.76749999999997,69.25 L 55.76749999999997,69.25" fill="none" stroke="rgb(178,0,0)" stroke-width="0.1"/>
  <path d="M 55.76749999999997,69.25 L 55.76749999999997,74.25" fill="none" stroke="rgb(178,0,0)" stroke-width="0.1"/>
  <path d="M 55.76749999999997,74.25 L 42.76749999999997,74.25" fill="none" stroke="rgb(178,0,0)" stroke-width="0.1"/>
  <path d="M 42.76749999999997,74.25 L 42.76749999999997,64.75" fill="none" stroke="rgb(178,0,0)" stroke-width="0.1"/>
  <path d="M 42.76749999999997,64.75 L 50.76749999999997,64.75" fill="none" stroke="rgb(178,0,0)" stroke-width="0.1"/>
  <path d="M 50.76749999999997,64.75 L 50.76749999999997,69.25" fill="none" stroke="rgb(178,0,0)" stroke-width="0.1"/>
  <path d="M 50.76749999999997,64.75 L 44.64939999999997,67.31700000000001" fill="none" stroke="rgb(178,0,0)" stroke-width="0.1"/>
  <path d="M 44.64939999999997,67.31700000000001 L 42.76749999999997,74.25" fill="none" stroke="rgb(178,0,0)" stroke-width="0.1"/>
 </g>
 <g id="layerColumn【柱】" inkscape:groupmode="layer" inkscape:label="Column【柱】">
  <path d="M 49.76749999999997,70.25 L 60.76749999999997,70.25" fill="none" stroke="rgb(178,0,178)" stroke-width="0.1"/>
  <path d="M 60.76749999999997,70.25 L 60.76749999999997,59.25" fill="none" stroke="rgb(178,0,178)" stroke-width="0.1"/>
  <path d="M 60.76749999999997,59.25 L 49.76749999999997,59.25" fill="none" stroke="rgb(178,0,178)" stroke-width="0.1"/>
  <path d="M 49.76749999999997,59.25 L 49.76749999999997,70.25" fill="none" stroke="rgb(178,0,178)" stroke-width="0.1"/>
 </g>
 <g id="layerCon_wall【混凝土墙】" inkscape:groupmode="layer" inkscape:label="Con_wall【混凝土墙】">
  <path d="M 43.76749999999997,69.25 L 40.76749999999997,69.25" fill="none" instance-id="-1" semantic-id="1" stroke="rgb(178,0,178)" stroke-width="0.1"/>
  <path d="M 40.76749999999997,69.25 L 40.76749999999997,42.25" fill="none" instance-id="-1" semantic-id="1" stroke="rgb(178,0,178)" stroke-width="0.1"/>
  <path d="M 40.76749999999997,19.649999999999977 L 43.76749999999997,19.649999999999977" fill="none" instance-id="-1" semantic-id="1" stroke="rgb(178,0,178)" stroke-width="0.1"/>
  <path d="M 43.76749999999997,19.649999999999977 L 43.76749999999997,27.25" fill="none" instance-id="-1" semantic-id="1" stroke="rgb(178,0,178)" stroke-width="0.1"/>
  <path d="M 0.7674999999999699,42.25 L 3.76749999999997,42.25" fill="none" instance-id="-1" semantic-id="1" stroke="rgb(178,0,178)" stroke-width="0.1"/>
  <path d="M 0.7674999999999699,27.25 L 3.76749999999997,27.25" fill="none" instance-id="-1" semantic-id="1" stroke="rgb(178,0,178)" stroke-width="0.1"/>
  <path d="M 43.76749999999997,42.25 L 43.76749999999997,59.25" fill="none" instance-id="-1" semantic-id="1" stroke="rgb(178,0,178)" stroke-width="0.1"/>
  <path d="M 40.76749999999997,27.25 L 40.76749999999997,19.649999999999977" fill="none" instance-id="-1" semantic-id="1" stroke="rgb(178,0,178)" stroke-width="0.1"/>
  <path d="M 40.76749999999997,27.25 L 43.76749999999997,27.25" fill="none" instance-id="-1" semantic-id="1" stroke="rgb(178,0,178)" stroke-width="0.1"/>
  <path d="M 40.76749999999997,42.25 L 43.76749999999997,42.25" fill="none" instance-id="-1" semantic-id="1" stroke="rgb(178,0,178)" stroke-width="0.1"/>
  <path d="M 43.76749999999997,59.25 L 49.76749999999997,59.25" fill="none" instance-id="-1" semantic-id="1" stroke="rgb(178,0,178)" stroke-width="0.1"/>
  <path d="M 43.76749999999997,63.75 L 43.76749999999997,69.25" fill="none" instance-id="-1" semantic-id="1" stroke="rgb(178,0,178)" stroke-width="0.1"/>
  <path d="M 49.76749999999997,63.75 L 43.76749999999997,63.75" fill="none" instance-id="-1" semantic-id="1" stroke="rgb(178,0,178)" stroke-width="0.1"/>
  <path d="M 0.0,66.25 L 0.7674999999999699,66.25" fill="none" instance-id="-1" semantic-id="1" stroke="rgb(178,0,178)" stroke-width="0.1"/>
  <path d="M 0.7674999999999699,66.25 L 0.7674999999999699,42.25" fill="none" instance-id="-1" semantic-id="1" stroke="rgb(178,0,178)" stroke-width="0.1"/>
  <path d="M 3.76749999999997,42.25 L 3.76749999999997,69.25" fill="none" instance-id="-1" semantic-id="1" stroke="rgb(178,0,178)" stroke-width="0.1"/>
  <path d="M 3.76749999999997,69.25 L 0.0,69.25" fill="none" instance-id="-1" semantic-id="1" stroke="rgb(178,0,178)" stroke-width="0.1"/>
  <path d="M 0.7674999999999699,27.25 L 0.7674999999999699,19.649999999999977" fill="none" instance-id="-1" semantic-id="1" stroke="rgb(178,0,178)" stroke-width="0.1"/>
  <path d="M 0.7674999999999699,19.649999999999977 L 3.76749999999997,19.649999999999977" fill="none" instance-id="-1" semantic-id="1" stroke="rgb(178,0,178)" stroke-width="0.1"/>
  <path d="M 3.76749999999997,19.649999999999977 L 3.76749999999997,27.25" fill="none" instance-id="-1" semantic-id="1" stroke="rgb(178,0,178)" stroke-width="0.1"/>
 </g>
 <g id="layerDIM_SYMB" inkscape:groupmode="layer" inkscape:label="DIM_SYMB">
  <path d="M 36.96749999999997,98.75 L 30.26749999999997,98.75" fill="none" stroke="rgb(0,178,0)" stroke-width="0.1"/>
  <path d="M 30.26749999999997,98.75 L 25.76749999999997,98.75" fill="none" stroke="rgb(0,178,0)" stroke-width="0.1"/>
  <path d="M 31.76749999999997,69.25 L 31.76749999999997,52.75" fill="none" stroke="rgb(0,178,0)" stroke-width="0.1"/>
  <path d="M 31.76749999999997,52.75 L 31.76749999999997,48.25" fill="none" stroke="rgb(0,178,0)" stroke-width="0.1"/>
  <path d="M 12.76749999999997,24.450000000000045 L 12.76749999999997,40.950000000000045" fill="none" stroke="rgb(0,178,0)" stroke-width="0.1"/>
  <path d="M 12.76749999999997,40.950000000000045 L 12.76749999999997,45.450000000000045" fill="none" stroke="rgb(0,178,0)" stroke-width="0.1"/>
  <text fill="rgb(0,0,0)" font-family="Noto Sans CJK SC" font-size="2" transform="rotate(-0.0,29.70289999999997,76.07500000000005)" x="29.70289999999997" y="76.07500000000005">
   上
  </text>
  <text fill="rgb(0,0,0)" font-family="Noto Sans CJK SC" font-size="2" transform="rotate(-0.0,10.702899999999971,22.875)" x="10.702899999999971" y="22.875">
   上
  </text>
 </g>
 <g id="layerDOOR_FIRE" inkscape:groupmode="layer" inkscape:label="DOOR_FIRE">
  <path d="M 4.400799999999975,88.88300000000004 L 5.03419999999997,88.88300000000004" fill="none" instance-id="7" semantic-id="4" stroke="rgb(0,178,178)" stroke-width="0.1"/>
  <path d="M 4.400799999999975,88.25 L 4.400799999999975,80.64999999999998" fill="none" instance-id="7" semantic-id="4" stroke="rgb(0,178,178)" stroke-width="0.1"/>
  <path d="M 5.03419999999997,80.64999999999998 L 5.03419999999997,88.25" fill="none" instance-id="7" semantic-id="4" stroke="rgb(0,178,178)" stroke-width="0.1"/>
  <path d="M 4.400799999999975,86.98299999999995 L 5.03419999999997,86.98299999999995" fill="none" instance-id="7" semantic-id="4" stroke="rgb(0,178,178)" stroke-width="0.1"/>
  <path d="M 5.03419999999997,88.25 L 4.400799999999975,88.25" fill="none" instance-id="7" semantic-id="4" stroke="rgb(0,178,178)" stroke-width="0.1"/>
  <path d="M 3.86509999999997,81.18799999999999 L 3.86509999999997,83.62599999999998" fill="none" instance-id="7" semantic-id="4" stroke="rgb(0,178,178)" stroke-width="0.1"/>
  <path d="M 5.569899999999976,81.18799999999999 L 5.569899999999976,83.62599999999998" fill="none" instance-id="7" semantic-id="4" stroke="rgb(0,178,178)" stroke-width="0.1"/>
  <path d="M 4.400799999999975,85.71699999999998 L 5.03419999999997,85.71699999999998" fill="none" instance-id="7" semantic-id="4" stroke="rgb(0,178,178)" stroke-width="0.1"/>
  <path d="M 4.400799999999975,84.45000000000005 L 5.03419999999997,84.45000000000005" fill="none" instance-id="7" semantic-id="4" stroke="rgb(0,178,178)" stroke-width="0.1"/>
  <path d="M 4.400799999999975,83.18299999999999 L 5.03419999999997,83.18299999999999" fill="none" instance-id="7" semantic-id="4" stroke="rgb(0,178,178)" stroke-width="0.1"/>
  <path d="M 4.400799999999975,81.91700000000003 L 5.03419999999997,81.91700000000003" fill="none" instance-id="7" semantic-id="4" stroke="rgb(0,178,178)" stroke-width="0.1"/>
  <path d="M 4.400799999999975,80.64999999999998 L 5.03419999999997,80.64999999999998" fill="none" instance-id="7" semantic-id="4" stroke="rgb(0,178,178)" stroke-width="0.1"/>
  <path d="M 5.03419999999997,88.88300000000004 L 5.03419999999997,89.51700000000005" fill="none" instance-id="7" semantic-id="4" stroke="rgb(0,178,178)" stroke-width="0.1"/>
  <path d="M 4.400799999999975,88.25 L 4.400799999999975,88.88300000000004" fill="none" instance-id="7" semantic-id="4" stroke="rgb(0,178,178)" stroke-width="0.1"/>
  <path d="M 3.76749999999997,88.25 L 4.400799999999975,88.25" fill="none" instance-id="7" semantic-id="4" stroke="rgb(0,178,178)" stroke-width="0.1"/>
  <path d="M 3.76749999999997,89.51700000000005 L 3.76749999999997,88.25" fill="none" instance-id="7" semantic-id="4" stroke="rgb(0,178,178)" stroke-width="0.1"/>
  <path d="M 5.03419999999997,89.51700000000005 L 3.76749999999997,89.51700000000005" fill="none" instance-id="7" semantic-id="4" stroke="rgb(0,178,178)" stroke-width="0.1"/>
  <path d="M 22.13419999999998,88.25 L 22.13419999999998,88.88300000000004" fill="none" instance-id="7" semantic-id="4" stroke="rgb(0,178,178)" stroke-width="0.1"/>
  <path d="M 22.76749999999997,88.25 L 22.13419999999998,88.25" fill="none" instance-id="7" semantic-id="4" stroke="rgb(0,178,178)" stroke-width="0.1"/>
  <path d="M 21.50079999999997,88.25 L 22.13419999999998,88.25" fill="none" instance-id="7" semantic-id="4" stroke="rgb(0,178,178)" stroke-width="0.1"/>
  <path d="M 21.50079999999997,80.64999999999998 L 21.50079999999997,88.25" fill="none" instance-id="7" semantic-id="4" stroke="rgb(0,178,178)" stroke-width="0.1"/>
  <path d="M 22.76749999999997,89.51700000000005 L 22.76749999999997,88.25" fill="none" instance-id="7" semantic-id="4" stroke="rgb(0,178,178)" stroke-width="0.1"/>
  <path d="M 22.13419999999998,88.25 L 22.13419999999998,80.64999999999998" fill="none" instance-id="7" semantic-id="4" stroke="rgb(0,178,178)" stroke-width="0.1"/>
  <path d="M 21.50079999999997,88.25 L 22.13419999999998,88.25" fill="none" instance-id="7" semantic-id="4" stroke="rgb(0,178,178)" stroke-width="0.1"/>
  <path d="M 22.76749999999997,89.51700000000005 L 22.76749999999997,88.25" fill="none" instance-id="7" semantic-id="4" stroke="rgb(0,178,178)" stroke-width="0.1"/>
  <path d="M 22.13419999999998,88.25 L 22.13419999999998,80.64999999999998" fill="none" instance-id="7" semantic-id="4" stroke="rgb(0,178,178)" stroke-width="0.1"/>
  <path d="M 22.13419999999998,88.25 L 22.13419999999998,88.88300000000004" fill="none" instance-id="7" semantic-id="4" stroke="rgb(0,178,178)" stroke-width="0.1"/>
  <path d="M 21.50079999999997,88.88300000000004 L 21.50079999999997,89.51700000000005" fill="none" instance-id="7" semantic-id="4" stroke="rgb(0,178,178)" stroke-width="0.1"/>
  <path d="M 22.13419999999998,88.88300000000004 L 21.50079999999997,88.88300000000004" fill="none" instance-id="7" semantic-id="4" stroke="rgb(0,178,178)" stroke-width="0.1"/>
  <path d="M 21.50079999999997,89.51700000000005 L 22.76749999999997,89.51700000000005" fill="none" instance-id="7" semantic-id="4" stroke="rgb(0,178,178)" stroke-width="0.1"/>
  <path d="M 22.13419999999998,80.64999999999998 L 21.50079999999997,80.64999999999998" fill="none" instance-id="7" semantic-id="4" stroke="rgb(0,178,178)" stroke-width="0.1"/>
  <path d="M 22.13419999999998,81.91700000000003 L 21.50079999999997,81.91700000000003" fill="none" instance-id="7" semantic-id="4" stroke="rgb(0,178,178)" stroke-width="0.1"/>
  <path d="M 22.13419999999998,83.18299999999999 L 21.50079999999997,83.18299999999999" fill="none" instance-id="7" semantic-id="4" stroke="rgb(0,178,178)" stroke-width="0.1"/>
  <path d="M 20.96509999999998,81.18799999999999 L 20.96509999999998,83.62599999999998" fill="none" instance-id="7" semantic-id="4" stroke="rgb(0,178,178)" stroke-width="0.1"/>
  <path d="M 22.66989999999997,81.18799999999999 L 22.66989999999997,83.62599999999998" fill="none" instance-id="7" semantic-id="4" stroke="rgb(0,178,178)" stroke-width="0.1"/>
  <path d="M 21.50079999999997,80.64999999999998 L 21.50079999999997,88.25" fill="none" instance-id="7" semantic-id="4" stroke="rgb(0,178,178)" stroke-width="0.1"/>
  <path d="M 22.13419999999998,88.25 L 22.13419999999998,80.64999999999998" fill="none" instance-id="7" semantic-id="4" stroke="rgb(0,178,178)" stroke-width="0.1"/>
  <path d="M 21.50079999999997,88.25 L 22.13419999999998,88.25" fill="none" instance-id="7" semantic-id="4" stroke="rgb(0,178,178)" stroke-width="0.1"/>
  <path d="M 22.13419999999998,86.98299999999995 L 21.50079999999997,86.98299999999995" fill="none" instance-id="7" semantic-id="4" stroke="rgb(0,178,178)" stroke-width="0.1"/>
  <path d="M 22.13419999999998,84.45000000000005 L 21.50079999999997,84.45000000000005" fill="none" instance-id="7" semantic-id="4" stroke="rgb(0,178,178)" stroke-width="0.1"/>
  <path d="M 22.13419999999998,85.71699999999998 L 21.50079999999997,85.71699999999998" fill="none" instance-id="7" semantic-id="4" stroke="rgb(0,178,178)" stroke-width="0.1"/>
  <path d="M 22.66989999999997,81.18799999999999 L 22.13419999999998,81.18799999999999" fill="none" instance-id="7" semantic-id="4" stroke="rgb(0,178,178)" stroke-width="0.1"/>
  <path d="M 20.96509999999998,81.18799999999999 L 21.50079999999997,81.18799999999999" fill="none" instance-id="7" semantic-id="4" stroke="rgb(0,178,178)" stroke-width="0.1"/>
  <path d="M 22.66989999999997,83.62599999999998 L 22.13419999999998,83.62599999999998" fill="none" instance-id="7" semantic-id="4" stroke="rgb(0,178,178)" stroke-width="0.1"/>
  <path d="M 20.96509999999998,83.62599999999998 L 21.50079999999997,83.62599999999998" fill="none" instance-id="7" semantic-id="4" stroke="rgb(0,178,178)" stroke-width="0.1"/>
  <path d="M 5.569899999999976,81.18799999999999 L 5.03419999999997,81.18799999999999" fill="none" instance-id="7" semantic-id="4" stroke="rgb(0,178,178)" stroke-width="0.1"/>
  <path d="M 5.569899999999976,83.62599999999998 L 5.03419999999997,83.62599999999998" fill="none" instance-id="7" semantic-id="4" stroke="rgb(0,178,178)" stroke-width="0.1"/>
  <path d="M 3.86509999999997,81.18799999999999 L 4.400799999999975,81.18799999999999" fill="none" instance-id="7" semantic-id="4" stroke="rgb(0,178,178)" stroke-width="0.1"/>
  <path d="M 3.86509999999997,83.62599999999998 L 4.400799999999975,83.62599999999998" fill="none" instance-id="7" semantic-id="4" stroke="rgb(0,178,178)" stroke-width="0.1"/>
  <path d="M 68.65049999999998,4.152000000000044 L 60.47749999999998,4.152000000000044" fill="none" instance-id="4" semantic-id="3" stroke="rgb(0,178,178)" stroke-width="0.1"/>
  <path d="M 60.47749999999998,3.697999999999979 L 68.65049999999998,3.697999999999979" fill="none" instance-id="4" semantic-id="3" stroke="rgb(0,178,178)" stroke-width="0.1"/>
  <path d="M 61.38649999999997,3.697999999999979 L 61.38649999999997,4.152000000000044" fill="none" instance-id="4" semantic-id="3" stroke="rgb(0,178,178)" stroke-width="0.1"/>
  <path d="M 62.29449999999997,3.697999999999979 L 62.29449999999997,4.152000000000044" fill="none" instance-id="4" semantic-id="3" stroke="rgb(0,178,178)" stroke-width="0.1"/>
  <path d="M 63.20249999999997,3.697999999999979 L 63.20249999999997,4.152000000000044" fill="none" instance-id="4" semantic-id="3" stroke="rgb(0,178,178)" stroke-width="0.1"/>
  <path d="M 60.47749999999998,3.244000000000028 L 60.47749999999998,3.697999999999979" fill="none" instance-id="4" semantic-id="3" stroke="rgb(0,178,178)" stroke-width="0.1"/>
  <path d="M 60.47749999999998,4.152000000000044 L 60.47749999999998,3.697999999999979" fill="none" instance-id="4" semantic-id="3" stroke="rgb(0,178,178)" stroke-width="0.1"/>
  <path d="M 60.02349999999997,4.152000000000044 L 59.56949999999998,4.152000000000044" fill="none" instance-id="4" semantic-id="3" stroke="rgb(0,178,178)" stroke-width="0.1"/>
  <path d="M 59.56949999999998,4.152000000000044 L 59.56949999999998,3.244000000000028" fill="none" instance-id="4" semantic-id="3" stroke="rgb(0,178,178)" stroke-width="0.1"/>
  <path d="M 60.02349999999997,3.697999999999979 L 60.02349999999997,4.152000000000044" fill="none" instance-id="4" semantic-id="3" stroke="rgb(0,178,178)" stroke-width="0.1"/>
  <path d="M 60.47749999999998,3.697999999999979 L 60.02349999999997,3.697999999999979" fill="none" instance-id="4" semantic-id="3" stroke="rgb(0,178,178)" stroke-width="0.1"/>
  <path d="M 59.56949999999998,3.244000000000028 L 60.47749999999998,3.244000000000028" fill="none" instance-id="4" semantic-id="3" stroke="rgb(0,178,178)" stroke-width="0.1"/>
  <path d="M 64.11049999999997,3.697999999999979 L 64.11049999999997,4.152000000000044" fill="none" instance-id="4" semantic-id="3" stroke="rgb(0,178,178)" stroke-width="0.1"/>
  <path d="M 65.01849999999997,3.697999999999979 L 65.01849999999997,4.152000000000044" fill="none" instance-id="4" semantic-id="3" stroke="rgb(0,178,178)" stroke-width="0.1"/>
  <path d="M 65.92649999999998,3.697999999999979 L 65.92649999999998,4.152000000000044" fill="none" instance-id="4" semantic-id="3" stroke="rgb(0,178,178)" stroke-width="0.1"/>
  <path d="M 66.83449999999998,3.697999999999979 L 66.83449999999998,4.152000000000044" fill="none" instance-id="4" semantic-id="3" stroke="rgb(0,178,178)" stroke-width="0.1"/>
  <path d="M 67.74249999999998,3.697999999999979 L 67.74249999999998,4.152000000000044" fill="none" instance-id="4" semantic-id="3" stroke="rgb(0,178,178)" stroke-width="0.1"/>
  <path d="M 68.65049999999998,3.697999999999979 L 68.65049999999998,4.152000000000044" fill="none" instance-id="4" semantic-id="3" stroke="rgb(0,178,178)" stroke-width="0.1"/>
  <path d="M 67.29449999999997,4.5359999999999445 L 65.54749999999997,4.5359999999999445" fill="none" instance-id="4" semantic-id="3" stroke="rgb(0,178,178)" stroke-width="0.1"/>
  <path d="M 67.29449999999997,3.3139999999999645 L 65.54749999999997,3.3139999999999645" fill="none" instance-id="4" semantic-id="3" stroke="rgb(0,178,178)" stroke-width="0.1"/>
  <path d="M 60.47749999999998,13.231999999999971 L 60.47749999999998,12.77800000000002" fill="none" instance-id="4" semantic-id="3" stroke="rgb(0,178,178)" stroke-width="0.1"/>
  <path d="M 60.02349999999997,12.77800000000002 L 60.02349999999997,12.323999999999955" fill="none" instance-id="4" semantic-id="3" stroke="rgb(0,178,178)" stroke-width="0.1"/>
  <path d="M 60.02349999999997,12.323999999999955 L 59.56949999999998,12.323999999999955" fill="none" instance-id="4" semantic-id="3" stroke="rgb(0,178,178)" stroke-width="0.1"/>
  <path d="M 59.56949999999998,12.323999999999955 L 59.56949999999998,13.231999999999971" fill="none" instance-id="4" semantic-id="3" stroke="rgb(0,178,178)" stroke-width="0.1"/>
  <path d="M 59.56949999999998,13.231999999999971 L 60.47749999999998,13.231999999999971" fill="none" instance-id="4" semantic-id="3" stroke="rgb(0,178,178)" stroke-width="0.1"/>
  <path d="M 60.47749999999998,12.77800000000002 L 60.02349999999997,12.77800000000002" fill="none" instance-id="4" semantic-id="3" stroke="rgb(0,178,178)" stroke-width="0.1"/>
  <path d="M 67.29449999999997,3.3139999999999645 L 67.29449999999997,3.697999999999979" fill="none" instance-id="4" semantic-id="3" stroke="rgb(0,178,178)" stroke-width="0.1"/>
  <path d="M 67.29449999999997,4.5359999999999445 L 67.29449999999997,4.152000000000044" fill="none" instance-id="4" semantic-id="3" stroke="rgb(0,178,178)" stroke-width="0.1"/>
  <path d="M 65.54749999999997,4.5359999999999445 L 65.54749999999997,4.152000000000044" fill="none" instance-id="4" semantic-id="3" stroke="rgb(0,178,178)" stroke-width="0.1"/>
  <path d="M 65.54749999999997,3.3139999999999645 L 65.54749999999997,3.697999999999979" fill="none" instance-id="4" semantic-id="3" stroke="rgb(0,178,178)" stroke-width="0.1"/>
  <path d="M 68.65049999999998,39.152000000000044 L 60.47749999999998,39.152000000000044" fill="none" instance-id="5" semantic-id="3" stroke="rgb(0,178,178)" stroke-width="0.1"/>
  <path d="M 60.47749999999998,38.69799999999998 L 68.65049999999998,38.69799999999998" fill="none" instance-id="5" semantic-id="3" stroke="rgb(0,178,178)" stroke-width="0.1"/>
  <path d="M 61.38649999999997,38.69799999999998 L 61.38649999999997,39.152000000000044" fill="none" instance-id="5" semantic-id="3" stroke="rgb(0,178,178)" stroke-width="0.1"/>
  <path d="M 62.29449999999997,38.69799999999998 L 62.29449999999997,39.152000000000044" fill="none" instance-id="5" semantic-id="3" stroke="rgb(0,178,178)" stroke-width="0.1"/>
  <path d="M 63.20249999999997,38.69799999999998 L 63.20249999999997,39.152000000000044" fill="none" instance-id="5" semantic-id="3" stroke="rgb(0,178,178)" stroke-width="0.1"/>
  <path d="M 60.47749999999998,38.24400000000003 L 60.47749999999998,38.69799999999998" fill="none" instance-id="5" semantic-id="3" stroke="rgb(0,178,178)" stroke-width="0.1"/>
  <path d="M 60.47749999999998,39.152000000000044 L 60.47749999999998,38.69799999999998" fill="none" instance-id="5" semantic-id="3" stroke="rgb(0,178,178)" stroke-width="0.1"/>
  <path d="M 60.02349999999997,39.152000000000044 L 59.56949999999998,39.152000000000044" fill="none" instance-id="5" semantic-id="3" stroke="rgb(0,178,178)" stroke-width="0.1"/>
  <path d="M 59.56949999999998,39.152000000000044 L 59.56949999999998,38.24400000000003" fill="none" instance-id="5" semantic-id="3" stroke="rgb(0,178,178)" stroke-width="0.1"/>
  <path d="M 60.02349999999997,38.69799999999998 L 60.02349999999997,39.152000000000044" fill="none" instance-id="5" semantic-id="3" stroke="rgb(0,178,178)" stroke-width="0.1"/>
  <path d="M 60.47749999999998,38.69799999999998 L 60.02349999999997,38.69799999999998" fill="none" instance-id="5" semantic-id="3" stroke="rgb(0,178,178)" stroke-width="0.1"/>
  <path d="M 59.56949999999998,38.24400000000003 L 60.47749999999998,38.24400000000003" fill="none" instance-id="5" semantic-id="3" stroke="rgb(0,178,178)" stroke-width="0.1"/>
  <path d="M 64.11049999999997,38.69799999999998 L 64.11049999999997,39.152000000000044" fill="none" instance-id="5" semantic-id="3" stroke="rgb(0,178,178)" stroke-width="0.1"/>
  <path d="M 65.01849999999997,38.69799999999998 L 65.01849999999997,39.152000000000044" fill="none" instance-id="5" semantic-id="3" stroke="rgb(0,178,178)" stroke-width="0.1"/>
  <path d="M 65.92649999999998,38.69799999999998 L 65.92649999999998,39.152000000000044" fill="none" instance-id="5" semantic-id="3" stroke="rgb(0,178,178)" stroke-width="0.1"/>
  <path d="M 66.83449999999998,38.69799999999998 L 66.83449999999998,39.152000000000044" fill="none" instance-id="5" semantic-id="3" stroke="rgb(0,178,178)" stroke-width="0.1"/>
  <path d="M 67.74249999999998,38.69799999999998 L 67.74249999999998,39.152000000000044" fill="none" instance-id="5" semantic-id="3" stroke="rgb(0,178,178)" stroke-width="0.1"/>
  <path d="M 68.65049999999998,38.69799999999998 L 68.65049999999998,39.152000000000044" fill="none" instance-id="5" semantic-id="3" stroke="rgb(0,178,178)" stroke-width="0.1"/>
  <path d="M 67.29449999999997,39.535999999999945 L 65.54749999999997,39.535999999999945" fill="none" instance-id="5" semantic-id="3" stroke="rgb(0,178,178)" stroke-width="0.1"/>
  <path d="M 67.29449999999997,38.313999999999965 L 65.54749999999997,38.313999999999965" fill="none" instance-id="5" semantic-id="3" stroke="rgb(0,178,178)" stroke-width="0.1"/>
  <path d="M 60.47749999999998,48.23199999999997 L 60.47749999999998,47.77800000000002" fill="none" instance-id="5" semantic-id="3" stroke="rgb(0,178,178)" stroke-width="0.1"/>
  <path d="M 60.02349999999997,47.77800000000002 L 60.02349999999997,47.323999999999955" fill="none" instance-id="5" semantic-id="3" stroke="rgb(0,178,178)" stroke-width="0.1"/>
  <path d="M 60.02349999999997,47.323999999999955 L 59.56949999999998,47.323999999999955" fill="none" instance-id="5" semantic-id="3" stroke="rgb(0,178,178)" stroke-width="0.1"/>
  <path d="M 59.56949999999998,47.323999999999955 L 59.56949999999998,48.23199999999997" fill="none" instance-id="5" semantic-id="3" stroke="rgb(0,178,178)" stroke-width="0.1"/>
  <path d="M 59.56949999999998,48.23199999999997 L 60.47749999999998,48.23199999999997" fill="none" instance-id="5" semantic-id="3" stroke="rgb(0,178,178)" stroke-width="0.1"/>
  <path d="M 60.47749999999998,47.77800000000002 L 60.02349999999997,47.77800000000002" fill="none" instance-id="5" semantic-id="3" stroke="rgb(0,178,178)" stroke-width="0.1"/>
  <path d="M 67.29449999999997,38.313999999999965 L 67.29449999999997,38.69799999999998" fill="none" instance-id="5" semantic-id="3" stroke="rgb(0,178,178)" stroke-width="0.1"/>
  <path d="M 67.29449999999997,39.535999999999945 L 67.29449999999997,39.152000000000044" fill="none" instance-id="5" semantic-id="3" stroke="rgb(0,178,178)" stroke-width="0.1"/>
  <path d="M 65.54749999999997,39.535999999999945 L 65.54749999999997,39.152000000000044" fill="none" instance-id="5" semantic-id="3" stroke="rgb(0,178,178)" stroke-width="0.1"/>
  <path d="M 65.54749999999997,38.313999999999965 L 65.54749999999997,38.69799999999998" fill="none" instance-id="5" semantic-id="3" stroke="rgb(0,178,178)" stroke-width="0.1"/>
  <path d="M 60.36749999999998,89.85000000000002 L 60.36749999999998,90.45000000000005" fill="none" instance-id="6" semantic-id="4" stroke="rgb(0,178,178)" stroke-width="0.1"/>
  <path d="M 59.76749999999997,89.85000000000002 L 52.56749999999997,89.85000000000002" fill="none" instance-id="6" semantic-id="4" stroke="rgb(0,178,178)" stroke-width="0.1"/>
  <path d="M 52.56749999999997,90.45000000000005 L 59.76749999999997,90.45000000000005" fill="none" instance-id="6" semantic-id="4" stroke="rgb(0,178,178)" stroke-width="0.1"/>
  <path d="M 58.56749999999997,89.85000000000002 L 58.56749999999997,90.45000000000005" fill="none" instance-id="6" semantic-id="4" stroke="rgb(0,178,178)" stroke-width="0.1"/>
  <path d="M 59.76749999999997,90.45000000000005 L 59.76749999999997,89.85000000000002" fill="none" instance-id="6" semantic-id="4" stroke="rgb(0,178,178)" stroke-width="0.1"/>
  <path d="M 53.07749999999997,89.34199999999998 L 55.38649999999997,89.34199999999998" fill="none" instance-id="6" semantic-id="4" stroke="rgb(0,178,178)" stroke-width="0.1"/>
  <path d="M 53.07749999999997,90.95799999999997 L 55.38649999999997,90.95799999999997" fill="none" instance-id="6" semantic-id="4" stroke="rgb(0,178,178)" stroke-width="0.1"/>
  <path d="M 57.36749999999998,89.85000000000002 L 57.36749999999998,90.45000000000005" fill="none" instance-id="6" semantic-id="4" stroke="rgb(0,178,178)" stroke-width="0.1"/>
  <path d="M 56.167499999999976,89.85000000000002 L 56.167499999999976,90.45000000000005" fill="none" instance-id="6" semantic-id="4" stroke="rgb(0,178,178)" stroke-width="0.1"/>
  <path d="M 54.96749999999997,89.85000000000002 L 54.96749999999997,90.45000000000005" fill="none" instance-id="6" semantic-id="4" stroke="rgb(0,178,178)" stroke-width="0.1"/>
  <path d="M 53.76749999999997,89.85000000000002 L 53.76749999999997,90.45000000000005" fill="none" instance-id="6" semantic-id="4" stroke="rgb(0,178,178)" stroke-width="0.1"/>
  <path d="M 52.56749999999997,89.85000000000002 L 52.56749999999997,90.45000000000005" fill="none" instance-id="6" semantic-id="4" stroke="rgb(0,178,178)" stroke-width="0.1"/>
  <path d="M 60.36749999999998,90.45000000000005 L 60.96749999999997,90.45000000000005" fill="none" instance-id="6" semantic-id="4" stroke="rgb(0,178,178)" stroke-width="0.1"/>
  <path d="M 59.76749999999997,89.85000000000002 L 60.36749999999998,89.85000000000002" fill="none" instance-id="6" semantic-id="4" stroke="rgb(0,178,178)" stroke-width="0.1"/>
  <path d="M 59.76749999999997,89.25 L 59.76749999999997,89.85000000000002" fill="none" instance-id="6" semantic-id="4" stroke="rgb(0,178,178)" stroke-width="0.1"/>
  <path d="M 60.96749999999997,89.25 L 59.76749999999997,89.25" fill="none" instance-id="6" semantic-id="4" stroke="rgb(0,178,178)" stroke-width="0.1"/>
  <path d="M 60.96749999999997,90.45000000000005 L 60.96749999999997,89.25" fill="none" instance-id="6" semantic-id="4" stroke="rgb(0,178,178)" stroke-width="0.1"/>
  <path d="M 53.07749999999997,90.95799999999997 L 53.07749999999997,90.45000000000005" fill="none" instance-id="6" semantic-id="4" stroke="rgb(0,178,178)" stroke-width="0.1"/>
  <path d="M 55.38649999999997,90.95799999999997 L 55.38649999999997,90.45000000000005" fill="none" instance-id="6" semantic-id="4" stroke="rgb(0,178,178)" stroke-width="0.1"/>
  <path d="M 53.07749999999997,89.34199999999998 L 53.07749999999997,89.85000000000002" fill="none" instance-id="6" semantic-id="4" stroke="rgb(0,178,178)" stroke-width="0.1"/>
  <path d="M 55.38649999999997,89.34199999999998 L 55.38649999999997,89.85000000000002" fill="none" instance-id="6" semantic-id="4" stroke="rgb(0,178,178)" stroke-width="0.1"/>
  <path d="M 13.26749999999997,88.25 A 7.6,7.6 0.0 0,0 5.03419999999997,80.64999999999998" fill="none" instance-id="7" semantic-id="4" stroke="rgb(0,178,178)" stroke-width="0.1"/>
  <path d="M 21.50079999999997,80.64999999999998 A 7.6,7.6 0.0 0,0 13.26749999999997,88.25" fill="none" instance-id="7" semantic-id="4" stroke="rgb(0,178,178)" stroke-width="0.1"/>
  <path d="M 60.47749999999998,12.77800000000002 A 8.17204,8.17204 0.0 0,0 68.65049999999998,4.152000000000044" fill="none" instance-id="4" semantic-id="3" stroke="rgb(0,178,178)" stroke-width="0.1"/>
  <path d="M 60.47749999999998,47.77800000000002 A 8.17204,8.17204 0.0 0,0 68.65049999999998,39.152000000000044" fill="none" instance-id="5" semantic-id="3" stroke="rgb(0,178,178)" stroke-width="0.1"/>
  <path d="M 52.56749999999997,90.45000000000005 A 7.2,7.2 0.0 0,0 59.76749999999997,98.25" fill="none" instance-id="6" semantic-id="4" stroke="rgb(0,178,178)" stroke-width="0.1"/>
  <path d="M 59.76749999999997,98.25 L 59.24895157791559,98.26688908397978" fill="none" instance-id="6" semantic-id="4" stroke="rgb(0,178,178)" stroke-width="0.1"/>
  <path d="M 59.24895157791559,98.26688908397978 L 58.732965646728786,98.32107603832435" fill="none" instance-id="6" semantic-id="4" stroke="rgb(0,178,178)" stroke-width="0.1"/>
  <path d="M 58.732965646728786,98.32107603832435 L 58.222221448528785,98.41227949883387" fill="none" instance-id="6" semantic-id="4" stroke="rgb(0,178,178)" stroke-width="0.1"/>
  <path d="M 58.222221448528785,98.41227949883387 L 57.71937100785725,98.54002589416575" fill="none" instance-id="6" semantic-id="4" stroke="rgb(0,178,178)" stroke-width="0.1"/>
  <path d="M 57.71937100785725,98.54002589416575 L 57.227025361147156,98.70365190484097" fill="none" instance-id="6" semantic-id="4" stroke="rgb(0,178,178)" stroke-width="0.1"/>
  <path d="M 57.227025361147156,98.70365190484097 L 56.74774099899135,98.90230790751082" fill="none" instance-id="6" semantic-id="4" stroke="rgb(0,178,178)" stroke-width="0.1"/>
  <path d="M 56.74774099899135,98.90230790751082 L 56.28400659163876,99.13496238660207" fill="none" instance-id="6" semantic-id="4" stroke="rgb(0,178,178)" stroke-width="0.1"/>
  <path d="M 56.28400659163876,99.13496238660207 L 55.838230066645764,99.40040729043153" fill="none" instance-id="6" semantic-id="4" stroke="rgb(0,178,178)" stroke-width="0.1"/>
  <path d="M 55.838230066645764,99.40040729043153 L 55.412726105781715,99.69726430397986" fill="none" instance-id="6" semantic-id="4" stroke="rgb(0,178,178)" stroke-width="0.1"/>
 </g>
 <g id="layerDOOR_FIRE_TEXT" inkscape:groupmode="layer" inkscape:label="DOOR_FIRE_TEXT">
  <text fill="rgb(0,0,0)" font-family="Noto Sans CJK SC" font-size="2" transform="rotate(-360.0,5.498799999999974,95.11900000000003)" x="5.498799999999974" y="95.11900000000003">
   FM乙1923
  </text>
  <text fill="rgb(0,0,0)" font-family="Noto Sans CJK SC" font-size="2" transform="rotate(-90.0,57.26749999999997,16.019000000000005)" x="57.26749999999997" y="16.019000000000005">
   FM甲1023
  </text>
  <text fill="rgb(0,0,0)" font-family="Noto Sans CJK SC" font-size="2" transform="rotate(-90.0,57.26749999999997,51.019000000000005)" x="57.26749999999997" y="51.019000000000005">
   FM甲1023
  </text>
 </g>
 <g id="layerDim_elev【标高】" inkscape:groupmode="layer" inkscape:label="Dim_elev【标高】">
  <path d="M 20.538399999999967,6.864000000000033 L 16.038399999999967,2.3640000000000327" fill="none" stroke="rgb(0,178,0)" stroke-width="0.1"/>
  <path d="M 20.538399999999967,6.864000000000033 L 25.038399999999967,2.3640000000000327" fill="none" stroke="rgb(0,178,0)" stroke-width="0.1"/>
  <path d="M 16.038399999999967,2.3640000000000327 L 38.92439999999998,2.3640000000000327" fill="none" stroke="rgb(0,178,0)" stroke-width="0.1"/>
  <path d="M 13.360199999999978,81.83299999999997 L 8.86019999999997,77.33299999999997" fill="none" stroke="rgb(0,178,0)" stroke-width="0.1"/>
  <path d="M 13.360199999999978,81.83299999999997 L 17.860199999999978,77.33299999999997" fill="none" stroke="rgb(0,178,0)" stroke-width="0.1"/>
  <path d="M 8.86019999999997,77.33299999999997 L 34.060199999999966,77.33299999999997" fill="none" stroke="rgb(0,178,0)" stroke-width="0.1"/>
  <text fill="rgb(0,0,0)" font-family="Noto Sans CJK SC" font-size="2" transform="rotate(-0.0,25.236499999999978,0.7889999999999873)" x="25.236499999999978" y="0.7889999999999873">
   -9.700
  </text>
  <text fill="rgb(0,0,0)" font-family="Noto Sans CJK SC" font-size="2" transform="rotate(-0.0,20.372299999999967,75.75800000000004)" x="20.372299999999967" y="75.75800000000004">
   -9.700
  </text>
 </g>
 <g id="layerDote【轴线】" inkscape:groupmode="layer" inkscape:label="Dote【轴线】">
  <path d="M 0.0,98.25 L 100.0,98.25" fill="none" stroke="rgb(53,107,107)" stroke-width="0.1"/>
  <path d="M 55.76749999999997,100.0 L 55.76749999999997,0.0" fill="none" stroke="rgb(53,107,107)" stroke-width="0.1"/>
  <path d="M 0.0,61.25 L 100.0,61.25" fill="none" stroke="rgb(53,107,107)" stroke-width="0.1"/>
 </g>
 <g id="layerLook_line【看线、投影线】" inkscape:groupmode="layer" inkscape:label="Look_line【看线、投影线】">
  <path d="M 100.0,69.25 L 87.76749999999998,69.25" fill="none" stroke="rgb(0,178,178)" stroke-width="0.1"/>
  <path d="M 87.76749999999998,69.25 L 87.76749999999998,100.0" fill="none" stroke="rgb(0,178,178)" stroke-width="0.1"/>
 </g>
 <g id="layerPub_text【公共文字标注】" inkscape:groupmode="layer" inkscape:label="Pub_text【公共文字标注】">
  <text fill="rgb(0,0,0)" font-family="Noto Sans CJK SC" font-size="2" transform="rotate(-0.0,43.77649999999997,20.92999999999995)" x="43.77649999999997" y="20.92999999999995">
   电缆井
  </text>
  <text fill="rgb(0,0,0)" font-family="Noto Sans CJK SC" font-size="2" transform="rotate(-0.0,44.685899999999975,52.69500000000005)" x="44.685899999999975" y="52.69500000000005">
   弱电
  </text>
  <text fill="rgb(0,0,0)" font-family="Noto Sans CJK SC" font-size="2" transform="rotate(-0.0,45.205999999999975,78.55499999999995)" x="45.205999999999975" y="78.55499999999995">
   排风
  </text>
  <text fill="rgb(0,0,0)" font-family="Noto Sans CJK SC" font-size="2" transform="rotate(-0.0,43.77649999999997,14.92999999999995)" x="43.77649999999997" y="14.92999999999995">
   公寓
  </text>
  <text fill="rgb(0,0,0)" font-family="Noto Sans CJK SC" font-size="2" transform="rotate(-0.0,43.77649999999997,8.92999999999995)" x="43.77649999999997" y="8.92999999999995">
   商业
  </text>
  <text fill="rgb(0,0,0)" font-family="Noto Sans CJK SC" font-size="2" transform="rotate(-0.0,44.685899999999975,46.69500000000005)" x="44.685899999999975" y="46.69500000000005">
   公寓
  </text>
  <text fill="rgb(0,0,0)" font-family="Noto Sans CJK SC" font-size="2" transform="rotate(-0.0,44.685899999999975,40.69500000000005)" x="44.685899999999975" y="40.69500000000005">
   商业
  </text>
 </g>
 <g id="layerStair【楼梯、电梯】" inkscape:groupmode="layer" inkscape:label="Stair【楼梯、电梯】">
  <path d="M 36.96749999999997,89.25 L 25.76749999999997,89.25" fill="none" instance-id="11" semantic-id="30" stroke="rgb(44,178,0)" stroke-width="0.1"/>
  <path d="M 36.96749999999997,100.0 L 36.96749999999997,89.25" fill="none" instance-id="11" semantic-id="30" stroke="rgb(44,178,0)" stroke-width="0.1"/>
  <path d="M 34.167499999999976,100.0 L 34.167499999999976,89.25" fill="none" instance-id="11" semantic-id="30" stroke="rgb(44,178,0)" stroke-width="0.1"/>
  <path d="M 31.36749999999998,100.0 L 31.36749999999998,89.25" fill="none" instance-id="11" semantic-id="30" stroke="rgb(44,178,0)" stroke-width="0.1"/>
  <path d="M 28.567499999999967,100.0 L 28.567499999999967,89.25" fill="none" instance-id="11" semantic-id="30" stroke="rgb(44,178,0)" stroke-width="0.1"/>
  <path d="M 25.76749999999997,100.0 L 25.76749999999997,89.25" fill="none" instance-id="11" semantic-id="30" stroke="rgb(44,178,0)" stroke-width="0.1"/>
  <path d="M 21.167499999999976,30.049999999999955 L 3.76749999999997,30.049999999999955" fill="none" instance-id="10" semantic-id="30" stroke="rgb(44,178,0)" stroke-width="0.1"/>
  <path d="M 21.167499999999976,32.85000000000002 L 3.76749999999997,32.85000000000002" fill="none" instance-id="10" semantic-id="30" stroke="rgb(44,178,0)" stroke-width="0.1"/>
  <path d="M 21.167499999999976,35.64999999999998 L 3.76749999999997,35.64999999999998" fill="none" instance-id="10" semantic-id="30" stroke="rgb(44,178,0)" stroke-width="0.1"/>
  <path d="M 21.167499999999976,38.450000000000045 L 3.76749999999997,38.450000000000045" fill="none" instance-id="10" semantic-id="30" stroke="rgb(44,178,0)" stroke-width="0.1"/>
  <path d="M 21.167499999999976,41.25 L 3.76749999999997,41.25" fill="none" instance-id="10" semantic-id="30" stroke="rgb(44,178,0)" stroke-width="0.1"/>
  <path d="M 21.76749999999997,44.049999999999955 L 19.042099999999976,44.049999999999955" fill="none" instance-id="10" semantic-id="30" stroke="rgb(44,178,0)" stroke-width="0.1"/>
  <path d="M 19.042099999999976,44.049999999999955 L 3.76749999999997,44.049999999999955" fill="none" instance-id="10" semantic-id="30" stroke="rgb(44,178,0)" stroke-width="0.1"/>
  <path d="M 21.76749999999997,46.85000000000002 L 14.192399999999978,46.85000000000002" fill="none" instance-id="10" semantic-id="30" stroke="rgb(44,178,0)" stroke-width="0.1"/>
  <path d="M 14.192399999999978,46.85000000000002 L 3.76749999999997,46.85000000000002" fill="none" instance-id="10" semantic-id="30" stroke="rgb(44,178,0)" stroke-width="0.1"/>
  <path d="M 21.76749999999997,49.64999999999998 L 11.342599999999976,49.64999999999998" fill="none" instance-id="10" semantic-id="30" stroke="rgb(44,178,0)" stroke-width="0.1"/>
  <path d="M 11.342599999999976,49.64999999999998 L 3.76749999999997,49.64999999999998" fill="none" instance-id="10" semantic-id="30" stroke="rgb(44,178,0)" stroke-width="0.1"/>
  <path d="M 21.76749999999997,52.450000000000045 L 6.49289999999997,52.450000000000045" fill="none" instance-id="10" semantic-id="30" stroke="rgb(44,178,0)" stroke-width="0.1"/>
  <path d="M 6.49289999999997,52.450000000000045 L 3.76749999999997,52.450000000000045" fill="none" instance-id="10" semantic-id="30" stroke="rgb(44,178,0)" stroke-width="0.1"/>
  <path d="M 21.76749999999997,55.25 L 3.76749999999997,55.25" fill="none" instance-id="10" semantic-id="30" stroke="rgb(44,178,0)" stroke-width="0.1"/>
  <path d="M 21.76749999999997,58.049999999999955 L 3.76749999999997,58.049999999999955" fill="none" instance-id="10" semantic-id="30" stroke="rgb(44,178,0)" stroke-width="0.1"/>
  <path d="M 21.76749999999997,60.85000000000002 L 3.76749999999997,60.85000000000002" fill="none" instance-id="10" semantic-id="30" stroke="rgb(44,178,0)" stroke-width="0.1"/>
  <path d="M 21.76749999999997,63.64999999999998 L 3.76749999999997,63.64999999999998" fill="none" instance-id="10" semantic-id="30" stroke="rgb(44,178,0)" stroke-width="0.1"/>
  <path d="M 21.76749999999997,66.45000000000005 L 3.76749999999997,66.45000000000005" fill="none" instance-id="10" semantic-id="30" stroke="rgb(44,178,0)" stroke-width="0.1"/>
  <path d="M 21.76749999999997,23.850000000000023 L 21.76749999999997,69.85000000000002" fill="none" instance-id="10" semantic-id="30" stroke="rgb(44,178,0)" stroke-width="0.1"/>
  <path d="M 21.76749999999997,42.476 L 13.411499999999975,47.301000000000045" fill="none" instance-id="10" semantic-id="30" stroke="rgb(44,178,0)" stroke-width="0.1"/>
  <path d="M 13.411499999999975,47.301000000000045 L 13.873399999999975,49.024" fill="none" instance-id="10" semantic-id="30" stroke="rgb(44,178,0)" stroke-width="0.1"/>
  <path d="M 13.873399999999975,49.024 L 11.81289999999997,47.29499999999996" fill="none" instance-id="10" semantic-id="30" stroke="rgb(44,178,0)" stroke-width="0.1"/>
  <path d="M 11.81289999999997,47.29499999999996 L 12.296299999999974,49.099000000000046" fill="none" instance-id="10" semantic-id="30" stroke="rgb(44,178,0)" stroke-width="0.1"/>
  <path d="M 12.296299999999974,49.099000000000046 L 3.76749999999997,54.024" fill="none" instance-id="10" semantic-id="30" stroke="rgb(44,178,0)" stroke-width="0.1"/>
  <path d="M 3.76749999999997,69.25 L 22.76749999999997,69.25" fill="none" instance-id="10" semantic-id="30" stroke="rgb(44,178,0)" stroke-width="0.1"/>
  <path d="M 23.36749999999998,69.25 L 40.76749999999997,69.25" fill="none" instance-id="10" semantic-id="30" stroke="rgb(44,178,0)" stroke-width="0.1"/>
  <path d="M 22.76749999999997,69.85000000000002 L 23.36749999999998,69.85000000000002" fill="none" instance-id="10" semantic-id="30" stroke="rgb(44,178,0)" stroke-width="0.1"/>
  <path d="M 23.36749999999998,66.45000000000005 L 40.76749999999997,66.45000000000005" fill="none" instance-id="10" semantic-id="30" stroke="rgb(44,178,0)" stroke-width="0.1"/>
  <path d="M 23.36749999999998,63.64999999999998 L 40.76749999999997,63.64999999999998" fill="none" instance-id="10" semantic-id="30" stroke="rgb(44,178,0)" stroke-width="0.1"/>
  <path d="M 23.36749999999998,60.85000000000002 L 40.76749999999997,60.85000000000002" fill="none" instance-id="10" semantic-id="30" stroke="rgb(44,178,0)" stroke-width="0.1"/>
  <path d="M 23.36749999999998,58.049999999999955 L 40.76749999999997,58.049999999999955" fill="none" instance-id="10" semantic-id="30" stroke="rgb(44,178,0)" stroke-width="0.1"/>
  <path d="M 23.36749999999998,55.25 L 40.76749999999997,55.25" fill="none" instance-id="10" semantic-id="30" stroke="rgb(44,178,0)" stroke-width="0.1"/>
  <path d="M 22.76749999999997,52.450000000000045 L 25.492899999999977,52.450000000000045" fill="none" instance-id="10" semantic-id="30" stroke="rgb(44,178,0)" stroke-width="0.1"/>
  <path d="M 25.492899999999977,52.450000000000045 L 40.76749999999997,52.450000000000045" fill="none" instance-id="10" semantic-id="30" stroke="rgb(44,178,0)" stroke-width="0.1"/>
  <path d="M 22.76749999999997,49.64999999999998 L 30.342599999999976,49.64999999999998" fill="none" instance-id="10" semantic-id="30" stroke="rgb(44,178,0)" stroke-width="0.1"/>
  <path d="M 30.342599999999976,49.64999999999998 L 40.76749999999997,49.64999999999998" fill="none" instance-id="10" semantic-id="30" stroke="rgb(44,178,0)" stroke-width="0.1"/>
  <path d="M 22.76749999999997,46.85000000000002 L 33.19239999999998,46.85000000000002" fill="none" instance-id="10" semantic-id="30" stroke="rgb(44,178,0)" stroke-width="0.1"/>
  <path d="M 33.19239999999998,46.85000000000002 L 40.76749999999997,46.85000000000002" fill="none" instance-id="10" semantic-id="30" stroke="rgb(44,178,0)" stroke-width="0.1"/>
  <path d="M 22.76749999999997,44.049999999999955 L 38.04209999999998,44.049999999999955" fill="none" instance-id="10" semantic-id="30" stroke="rgb(44,178,0)" stroke-width="0.1"/>
  <path d="M 38.04209999999998,44.049999999999955 L 40.76749999999997,44.049999999999955" fill="none" instance-id="10" semantic-id="30" stroke="rgb(44,178,0)" stroke-width="0.1"/>
  <path d="M 22.76749999999997,41.25 L 40.76749999999997,41.25" fill="none" instance-id="10" semantic-id="30" stroke="rgb(44,178,0)" stroke-width="0.1"/>
  <path d="M 22.76749999999997,38.450000000000045 L 40.76749999999997,38.450000000000045" fill="none" instance-id="10" semantic-id="30" stroke="rgb(44,178,0)" stroke-width="0.1"/>
  <path d="M 22.76749999999997,35.64999999999998 L 40.76749999999997,35.64999999999998" fill="none" instance-id="10" semantic-id="30" stroke="rgb(44,178,0)" stroke-width="0.1"/>
  <path d="M 22.76749999999997,32.85000000000002 L 40.76749999999997,32.85000000000002" fill="none" instance-id="10" semantic-id="30" stroke="rgb(44,178,0)" stroke-width="0.1"/>
  <path d="M 22.76749999999997,30.049999999999955 L 40.76749999999997,30.049999999999955" fill="none" instance-id="10" semantic-id="30" stroke="rgb(44,178,0)" stroke-width="0.1"/>
  <path d="M 22.76749999999997,27.25 L 40.76749999999997,27.25" fill="none" instance-id="10" semantic-id="30" stroke="rgb(44,178,0)" stroke-width="0.1"/>
  <path d="M 3.76749999999997,27.25 L 21.167499999999976,27.25" fill="none" instance-id="10" semantic-id="30" stroke="rgb(44,178,0)" stroke-width="0.1"/>
  <path d="M 21.167499999999976,23.850000000000023 L 23.36749999999998,23.850000000000023" fill="none" instance-id="10" semantic-id="30" stroke="rgb(44,178,0)" stroke-width="0.1"/>
  <path d="M 22.76749999999997,69.85000000000002 L 22.76749999999997,54.024" fill="none" instance-id="10" semantic-id="30" stroke="rgb(44,178,0)" stroke-width="0.1"/>
  <path d="M 22.76749999999997,54.024 L 22.76749999999997,24.450000000000045" fill="none" instance-id="10" semantic-id="30" stroke="rgb(44,178,0)" stroke-width="0.1"/>
  <path d="M 22.76749999999997,54.024 L 31.12349999999998,49.198999999999955" fill="none" instance-id="10" semantic-id="30" stroke="rgb(44,178,0)" stroke-width="0.1"/>
  <path d="M 31.12349999999998,49.198999999999955 L 30.66159999999998,47.476" fill="none" instance-id="10" semantic-id="30" stroke="rgb(44,178,0)" stroke-width="0.1"/>
  <path d="M 30.66159999999998,47.476 L 32.72209999999997,49.20500000000004" fill="none" instance-id="10" semantic-id="30" stroke="rgb(44,178,0)" stroke-width="0.1"/>
  <path d="M 32.72209999999997,49.20500000000004 L 32.238699999999966,47.400999999999954" fill="none" instance-id="10" semantic-id="30" stroke="rgb(44,178,0)" stroke-width="0.1"/>
  <path d="M 32.238699999999966,47.400999999999954 L 40.76749999999997,42.476" fill="none" instance-id="10" semantic-id="30" stroke="rgb(44,178,0)" stroke-width="0.1"/>
  <path d="M 23.36749999999998,69.85000000000002 L 23.36749999999998,53.67700000000002" fill="none" instance-id="10" semantic-id="30" stroke="rgb(44,178,0)" stroke-width="0.1"/>
  <path d="M 21.167499999999976,23.850000000000023 L 21.167499999999976,42.82299999999998" fill="none" instance-id="10" semantic-id="30" stroke="rgb(44,178,0)" stroke-width="0.1"/>
  <path d="M 23.36749999999998,54.024 L 23.36749999999998,23.850000000000023" fill="none" instance-id="10" semantic-id="30" stroke="rgb(44,178,0)" stroke-width="0.1"/>
  <path d="M 21.167499999999976,23.850000000000023 L 21.167499999999976,69.85000000000002" fill="none" instance-id="10" semantic-id="30" stroke="rgb(44,178,0)" stroke-width="0.1"/>
  <path d="M 21.167499999999976,69.85000000000002 L 22.76749999999997,69.85000000000002" fill="none" instance-id="10" semantic-id="30" stroke="rgb(44,178,0)" stroke-width="0.1"/>
  <path d="M 22.76749999999997,24.450000000000045 L 40.76749999999997,24.450000000000045" fill="none" instance-id="10" semantic-id="30" stroke="rgb(44,178,0)" stroke-width="0.1"/>
  <path d="M 3.76749999999997,24.450000000000045 L 21.167499999999976,24.450000000000045" fill="none" instance-id="10" semantic-id="30" stroke="rgb(44,178,0)" stroke-width="0.1"/>
 </g>
 <g id="layerWINDOW" inkscape:groupmode="layer" inkscape:label="WINDOW">
  <path d="M 0.7674999999999699,12.25 L 0.7674999999999699,14.25" fill="none" stroke="rgb(0,178,178)" stroke-width="0.1"/>
  <path d="M 0.0,14.25 L 0.7674999999999699,14.25" fill="none" stroke="rgb(0,178,178)" stroke-width="0.1"/>
  <path d="M 0.0,12.25 L 0.7674999999999699,12.25" fill="none" stroke="rgb(0,178,178)" stroke-width="0.1"/>
  <path d="M 0.7674999999999699,12.91700000000003 L 0.0,12.91700000000003" fill="none" stroke="rgb(0,178,178)" stroke-width="0.1"/>
  <path d="M 0.7674999999999699,13.58299999999997 L 0.0,13.58299999999997" fill="none" stroke="rgb(0,178,178)" stroke-width="0.1"/>
  <path d="M 0.0,12.99925429017162 L 0.04749999999997101,12.91700000000003" fill="none" stroke="rgb(0,178,178)" stroke-width="0.1"/>
  <path d="M 0.47869999999997503,13.58299999999997 L 0.7674999999999699,13.08299999999997" fill="none" stroke="rgb(0,178,178)" stroke-width="0.1"/>
  <path d="M 0.07079999999997,13.58299999999997 L 0.45539999999997605,12.91700000000003" fill="none" stroke="rgb(0,178,178)" stroke-width="0.1"/>
  <path d="M 1.7674999999999699,58.25 L 3.76749999999997,58.25" fill="none" instance-id="12" semantic-id="11" stroke="rgb(0,178,178)" stroke-width="0.1"/>
  <path d="M 3.76749999999997,64.25 L 1.7674999999999699,64.25" fill="none" instance-id="12" semantic-id="11" stroke="rgb(0,178,178)" stroke-width="0.1"/>
  <path d="M 1.7674999999999699,58.25 L 1.7674999999999699,64.25" fill="none" instance-id="12" semantic-id="11" stroke="rgb(0,178,178)" stroke-width="0.1"/>
  <path d="M 3.76749999999997,58.25 L 3.76749999999997,64.25" fill="none" instance-id="12" semantic-id="11" stroke="rgb(0,178,178)" stroke-width="0.1"/>
  <path d="M 3.100799999999971,64.25 L 3.100799999999971,58.25" fill="none" instance-id="12" semantic-id="11" stroke="rgb(0,178,178)" stroke-width="0.1"/>
  <path d="M 2.4341999999999757,64.25 L 2.4341999999999757,58.25" fill="none" instance-id="12" semantic-id="11" stroke="rgb(0,178,178)" stroke-width="0.1"/>
  <path d="M 2.4341999999999757,58.25 L 3.100799999999971,58.63499999999999" fill="none" instance-id="12" semantic-id="11" stroke="rgb(0,178,178)" stroke-width="0.1"/>
  <path d="M 2.4341999999999757,59.06600000000003 L 3.100799999999971,59.45100000000002" fill="none" instance-id="12" semantic-id="11" stroke="rgb(0,178,178)" stroke-width="0.1"/>
  <path d="M 2.4341999999999757,58.658000000000015 L 3.100799999999971,59.043000000000006" fill="none" instance-id="12" semantic-id="11" stroke="rgb(0,178,178)" stroke-width="0.1"/>
  <path d="M 2.4341999999999757,59.88199999999995 L 3.100799999999971,60.26599999999996" fill="none" instance-id="12" semantic-id="11" stroke="rgb(0,178,178)" stroke-width="0.1"/>
  <path d="M 2.4341999999999757,59.474000000000046 L 3.100799999999971,59.85799999999995" fill="none" instance-id="12" semantic-id="11" stroke="rgb(0,178,178)" stroke-width="0.1"/>
  <path d="M 2.4341999999999757,60.69799999999998 L 3.100799999999971,61.081999999999994" fill="none" instance-id="12" semantic-id="11" stroke="rgb(0,178,178)" stroke-width="0.1"/>
  <path d="M 2.4341999999999757,60.289999999999964 L 3.100799999999971,60.67399999999998" fill="none" instance-id="12" semantic-id="11" stroke="rgb(0,178,178)" stroke-width="0.1"/>
  <path d="M 2.4341999999999757,61.51400000000001 L 3.100799999999971,61.898000000000025" fill="none" instance-id="12" semantic-id="11" stroke="rgb(0,178,178)" stroke-width="0.1"/>
  <path d="M 2.4341999999999757,61.105999999999995 L 3.100799999999971,61.49000000000001" fill="none" instance-id="12" semantic-id="11" stroke="rgb(0,178,178)" stroke-width="0.1"/>
  <path d="M 2.4341999999999757,62.32899999999995 L 3.100799999999971,62.714000000000055" fill="none" instance-id="12" semantic-id="11" stroke="rgb(0,178,178)" stroke-width="0.1"/>
  <path d="M 2.4341999999999757,61.922000000000025 L 3.100799999999971,62.30600000000004" fill="none" instance-id="12" semantic-id="11" stroke="rgb(0,178,178)" stroke-width="0.1"/>
  <path d="M 2.4341999999999757,63.14499999999998 L 3.100799999999971,63.52999999999997" fill="none" instance-id="12" semantic-id="11" stroke="rgb(0,178,178)" stroke-width="0.1"/>
  <path d="M 2.4341999999999757,62.736999999999966 L 3.100799999999971,63.12199999999996" fill="none" instance-id="12" semantic-id="11" stroke="rgb(0,178,178)" stroke-width="0.1"/>
  <path d="M 2.4341999999999757,63.96100000000001 L 2.934699999999971,64.25" fill="none" instance-id="12" semantic-id="11" stroke="rgb(0,178,178)" stroke-width="0.1"/>
  <path d="M 2.4341999999999757,63.553 L 3.100799999999971,63.93799999999999" fill="none" instance-id="12" semantic-id="11" stroke="rgb(0,178,178)" stroke-width="0.1"/>
 </g>
 <g id="layerWall【砖墙】" inkscape:groupmode="layer" inkscape:label="Wall【砖墙】">
  <path d="M 1.7674999999999699,12.25 L 0.7674999999999699,12.25" fill="none" instance-id="-1" semantic-id="1" stroke="rgb(178,178,0)" stroke-width="0.1"/>
  <path d="M 0.7674999999999699,12.25 L 0.7674999999999699,14.25" fill="none" instance-id="-1" semantic-id="1" stroke="rgb(178,178,0)" stroke-width="0.1"/>
  <path d="M 0.7674999999999699,14.25 L 1.7674999999999699,14.25" fill="none" instance-id="-1" semantic-id="1" stroke="rgb(178,178,0)" stroke-width="0.1"/>
  <path d="M 1.7674999999999699,46.25 L 1.7674999999999699,58.25" fill="none" instance-id="-1" semantic-id="1" stroke="rgb(178,178,0)" stroke-width="0.1"/>
  <path d="M 1.7674999999999699,58.25 L 3.76749999999997,58.25" fill="none" instance-id="-1" semantic-id="1" stroke="rgb(178,178,0)" stroke-width="0.1"/>
  <path d="M 3.76749999999997,58.25 L 3.76749999999997,45.25" fill="none" instance-id="-1" semantic-id="1" stroke="rgb(178,178,0)" stroke-width="0.1"/>
  <path d="M 3.76749999999997,87.25 L 3.76749999999997,64.25" fill="none" instance-id="-1" semantic-id="1" stroke="rgb(178,178,0)" stroke-width="0.1"/>
  <path d="M 3.76749999999997,64.25 L 1.7674999999999699,64.25" fill="none" instance-id="-1" semantic-id="1" stroke="rgb(178,178,0)" stroke-width="0.1"/>
  <path d="M 1.7674999999999699,64.25 L 1.7674999999999699,88.25" fill="none" instance-id="-1" semantic-id="1" stroke="rgb(178,178,0)" stroke-width="0.1"/>
  <path d="M 1.7674999999999699,46.25 L 0.0,46.25" fill="none" instance-id="-1" semantic-id="1" stroke="rgb(178,178,0)" stroke-width="0.1"/>
  <path d="M 1.7674999999999699,44.25 L 0.0,44.25" fill="none" instance-id="-1" semantic-id="1" stroke="rgb(178,178,0)" stroke-width="0.1"/>
  <path d="M 3.76749999999997,89.25 L 3.76749999999997,97.25" fill="none" instance-id="-1" semantic-id="1" stroke="rgb(178,178,0)" stroke-width="0.1"/>
  <path d="M 1.7674999999999699,88.25 L 1.7674999999999699,96.25" fill="none" instance-id="-1" semantic-id="1" stroke="rgb(178,178,0)" stroke-width="0.1"/>
  <path d="M 40.76749999999997,87.25 L 22.76749999999997,87.25" fill="none" instance-id="-1" semantic-id="1" stroke="rgb(178,178,0)" stroke-width="0.1"/>
  <path d="M 22.76749999999997,87.25 L 22.76749999999997,89.25" fill="none" instance-id="-1" semantic-id="1" stroke="rgb(178,178,0)" stroke-width="0.1"/>
  <path d="M 22.76749999999997,89.25 L 41.76749999999997,89.25" fill="none" instance-id="-1" semantic-id="1" stroke="rgb(178,178,0)" stroke-width="0.1"/>
  <path d="M 3.76749999999997,87.25 L 3.76749999999997,89.25" fill="none" instance-id="-1" semantic-id="1" stroke="rgb(178,178,0)" stroke-width="0.1"/>
  <path d="M 58.76749999999997,89.25 L 41.76749999999997,89.25" fill="none" instance-id="-1" semantic-id="1" stroke="rgb(178,178,0)" stroke-width="0.1"/>
  <path d="M 58.76749999999997,87.25 L 42.76749999999997,87.25" fill="none" instance-id="-1" semantic-id="1" stroke="rgb(178,178,0)" stroke-width="0.1"/>
  <path d="M 1.7674999999999699,2.25 L 0.0,2.25" fill="none" instance-id="-1" semantic-id="1" stroke="rgb(178,178,0)" stroke-width="0.1"/>
  <path d="M 1.7674999999999699,0.25 L 0.0,0.25" fill="none" instance-id="-1" semantic-id="1" stroke="rgb(178,178,0)" stroke-width="0.1"/>
  <path d="M 3.76749999999997,1.25 L 3.76749999999997,13.25" fill="none" instance-id="-1" semantic-id="1" stroke="rgb(178,178,0)" stroke-width="0.1"/>
  <path d="M 1.7674999999999699,2.25 L 1.7674999999999699,12.25" fill="none" instance-id="-1" semantic-id="1" stroke="rgb(178,178,0)" stroke-width="0.1"/>
  <path d="M 42.76749999999997,0.0 L 42.76749999999997,25.25" fill="none" instance-id="-1" semantic-id="1" stroke="rgb(178,178,0)" stroke-width="0.1"/>
  <path d="M 40.76749999999997,0.0 L 40.76749999999997,26.25" fill="none" instance-id="-1" semantic-id="1" stroke="rgb(178,178,0)" stroke-width="0.1"/>
  <path d="M 58.76749999999997,0.0 L 58.76749999999997,3.25" fill="none" instance-id="-1" semantic-id="1" stroke="rgb(178,178,0)" stroke-width="0.1"/>
  <path d="M 58.76749999999997,3.25 L 60.76749999999997,3.25" fill="none" instance-id="-1" semantic-id="1" stroke="rgb(178,178,0)" stroke-width="0.1"/>
  <path d="M 60.76749999999997,3.25 L 60.76749999999997,0.0" fill="none" instance-id="-1" semantic-id="1" stroke="rgb(178,178,0)" stroke-width="0.1"/>
  <path d="M 60.76749999999997,26.25 L 60.76749999999997,13.25" fill="none" instance-id="-1" semantic-id="1" stroke="rgb(178,178,0)" stroke-width="0.1"/>
  <path d="M 60.76749999999997,13.25 L 58.76749999999997,13.25" fill="none" instance-id="-1" semantic-id="1" stroke="rgb(178,178,0)" stroke-width="0.1"/>
  <path d="M 58.76749999999997,13.25 L 58.76749999999997,25.25" fill="none" instance-id="-1" semantic-id="1" stroke="rgb(178,178,0)" stroke-width="0.1"/>
  <path d="M 58.76749999999997,27.25 L 42.76749999999997,27.25" fill="none" instance-id="-1" semantic-id="1" stroke="rgb(178,178,0)" stroke-width="0.1"/>
  <path d="M 58.76749999999997,25.25 L 42.76749999999997,25.25" fill="none" instance-id="-1" semantic-id="1" stroke="rgb(178,178,0)" stroke-width="0.1"/>
  <path d="M 58.76749999999997,61.25 L 42.76749999999997,61.25" fill="none" instance-id="-1" semantic-id="1" stroke="rgb(178,178,0)" stroke-width="0.1"/>
  <path d="M 58.76749999999997,59.25 L 42.76749999999997,59.25" fill="none" instance-id="-1" semantic-id="1" stroke="rgb(178,178,0)" stroke-width="0.1"/>
  <path d="M 58.76749999999997,27.25 L 58.76749999999997,38.25" fill="none" instance-id="-1" semantic-id="1" stroke="rgb(178,178,0)" stroke-width="0.1"/>
  <path d="M 58.76749999999997,38.25 L 60.76749999999997,38.25" fill="none" instance-id="-1" semantic-id="1" stroke="rgb(178,178,0)" stroke-width="0.1"/>
  <path d="M 60.76749999999997,38.25 L 60.76749999999997,26.25" fill="none" instance-id="-1" semantic-id="1" stroke="rgb(178,178,0)" stroke-width="0.1"/>
  <path d="M 60.76749999999997,60.25 L 60.76749999999997,48.25" fill="none" instance-id="-1" semantic-id="1" stroke="rgb(178,178,0)" stroke-width="0.1"/>
  <path d="M 60.76749999999997,48.25 L 58.76749999999997,48.25" fill="none" instance-id="-1" semantic-id="1" stroke="rgb(178,178,0)" stroke-width="0.1"/>
  <path d="M 58.76749999999997,48.25 L 58.76749999999997,59.25" fill="none" instance-id="-1" semantic-id="1" stroke="rgb(178,178,0)" stroke-width="0.1"/>
  <path d="M 42.76749999999997,27.25 L 42.76749999999997,59.25" fill="none" instance-id="-1" semantic-id="1" stroke="rgb(178,178,0)" stroke-width="0.1"/>
  <path d="M 40.76749999999997,26.25 L 40.76749999999997,60.25" fill="none" instance-id="-1" semantic-id="1" stroke="rgb(178,178,0)" stroke-width="0.1"/>
  <path d="M 60.76749999999997,60.25 L 60.76749999999997,88.25" fill="none" instance-id="-1" semantic-id="1" stroke="rgb(178,178,0)" stroke-width="0.1"/>
  <path d="M 58.76749999999997,61.25 L 58.76749999999997,87.25" fill="none" instance-id="-1" semantic-id="1" stroke="rgb(178,178,0)" stroke-width="0.1"/>
  <path d="M 42.76749999999997,61.25 L 42.76749999999997,87.25" fill="none" instance-id="-1" semantic-id="1" stroke="rgb(178,178,0)" stroke-width="0.1"/>
  <path d="M 40.76749999999997,60.25 L 40.76749999999997,87.25" fill="none" instance-id="-1" semantic-id="1" stroke="rgb(178,178,0)" stroke-width="0.1"/>
  <path d="M 1.7674999999999699,98.25 L 0.0,98.25" fill="none" instance-id="-1" semantic-id="1" stroke="rgb(178,178,0)" stroke-width="0.1"/>
  <path d="M 1.7674999999999699,96.25 L 0.0,96.25" fill="none" instance-id="-1" semantic-id="1" stroke="rgb(178,178,0)" stroke-width="0.1"/>
  <path d="M 3.76749999999997,1.25 L 3.76749999999997,0.0" fill="none" instance-id="-1" semantic-id="1" stroke="rgb(178,178,0)" stroke-width="0.1"/>
  <path d="M 1.7674999999999699,0.0 L 1.7674999999999699,0.25" fill="none" instance-id="-1" semantic-id="1" stroke="rgb(178,178,0)" stroke-width="0.1"/>
  <path d="M 3.76749999999997,97.25 L 3.76749999999997,100.0" fill="none" instance-id="-1" semantic-id="1" stroke="rgb(178,178,0)" stroke-width="0.1"/>
  <path d="M 1.7674999999999699,98.25 L 1.7674999999999699,100.0" fill="none" instance-id="-1" semantic-id="1" stroke="rgb(178,178,0)" stroke-width="0.1"/>
  <path d="M 58.76749999999997,89.25 L 60.76749999999997,89.25" fill="none" instance-id="-1" semantic-id="1" stroke="rgb(178,178,0)" stroke-width="0.1"/>
  <path d="M 60.76749999999997,89.25 L 60.76749999999997,88.25" fill="none" instance-id="-1" semantic-id="1" stroke="rgb(178,178,0)" stroke-width="0.1"/>
  <path d="M 3.76749999999997,13.25 L 3.76749999999997,45.25" fill="none" instance-id="-1" semantic-id="1" stroke="rgb(178,178,0)" stroke-width="0.1"/>
  <path d="M 1.7674999999999699,14.25 L 1.7674999999999699,44.25" fill="none" instance-id="-1" semantic-id="1" stroke="rgb(178,178,0)" stroke-width="0.1"/>
 </g>
</svg>