<?xml version="1.0" encoding="utf-8"?>
<svg style="background-color: #000;" version="1.1" viewBox="0 0 100.0 100.0" xmlns="http://www.w3.org/2000/svg" xmlns:inkscape="http://www.inkscape.org/namespaces/inkscape">
 <g id="layer0-电气预留洞" inkscape:groupmode="layer" inkscape:label="0-电气预留洞">
  <path d="M 22.000001499999996,43.83525500000002 L 22.000001499999996,36.83525500000002" fill="none" stroke="rgb(0,0,178)" stroke-width="0.1"/>
  <path d="M 22.000001499999996,36.83525500000002 L 19.500001499999996,36.83525500000002" fill="none" stroke="rgb(0,0,178)" stroke-width="0.1"/>
  <path d="M 19.500001499999996,36.83525500000002 L 19.500001499999996,43.83525500000002" fill="none" stroke="rgb(0,0,178)" stroke-width="0.1"/>
  <path d="M 19.500001499999996,43.83525500000002 L 22.000001499999996,43.83525500000002" fill="none" stroke="rgb(0,0,178)" stroke-width="0.1"/>
  <path d="M 14.000001499999996,34.33525500000002 L 8.000001499999996,34.33525500000002" fill="none" stroke="rgb(0,0,178)" stroke-width="0.1"/>
  <path d="M 8.000001499999996,34.33525500000002 L 8.000001499999996,36.83525500000002" fill="none" stroke="rgb(0,0,178)" stroke-width="0.1"/>
  <path d="M 8.000001499999996,36.83525500000002 L 14.000001499999996,36.83525500000002" fill="none" stroke="rgb(0,0,178)" stroke-width="0.1"/>
  <path d="M 14.000001499999996,36.83525500000002 L 14.000001499999996,34.33525500000002" fill="none" stroke="rgb(0,0,178)" stroke-width="0.1"/>
  <path d="M 22.000001499999996,43.83525500000002 L 21.101001499999995,38.57825500000001" fill="none" stroke="rgb(0,0,178)" stroke-width="0.1"/>
  <path d="M 21.101001499999995,38.57825500000001 L 19.500001499999996,36.83525500000002" fill="none" stroke="rgb(0,0,178)" stroke-width="0.1"/>
  <path d="M 14.000001499999996,34.33525500000002 L 8.7270015,35.30525499999999" fill="none" stroke="rgb(0,0,178)" stroke-width="0.1"/>
  <path d="M 8.7270015,35.30525499999999 L 8.000001499999996,36.83525500000002" fill="none" stroke="rgb(0,0,178)" stroke-width="0.1"/>
 </g>
 <g id="layer0-门槛门口线" inkscape:groupmode="layer" inkscape:label="0-门槛门口线">
  <path d="M 5.000001499999996,46.334254999999985 L 15.000001499999996,46.334254999999985" fill="none" stroke="rgb(0,0,0)" stroke-width="0.1"/>
  <path d="M 5.000001499999996,47.334254999999985 L 15.000001499999996,47.334254999999985" fill="none" stroke="rgb(0,0,0)" stroke-width="0.1"/>
 </g>
 <g id="layer0-风井" inkscape:groupmode="layer" inkscape:label="0-风井">
  <path d="M 10.000001499999996,75.33425499999998 L 16.000001499999996,75.33425499999998" fill="none" stroke="rgb(178,0,0)" stroke-width="0.1"/>
  <path d="M 16.000001499999996,75.33425499999998 L 16.000001499999996,92.83425499999998" fill="none" stroke="rgb(178,0,0)" stroke-width="0.1"/>
  <path d="M 16.000001499999996,92.83425499999998 L 10.000001499999996,92.83425499999998" fill="none" stroke="rgb(178,0,0)" stroke-width="0.1"/>
  <path d="M 10.000001499999996,92.83425499999998 L 10.000001499999996,75.33425499999998" fill="none" stroke="rgb(178,0,0)" stroke-width="0.1"/>
  <path d="M 23.000001499999996,94.83425499999998 L 10.000001499999996,94.83425499999998" fill="none" stroke="rgb(178,0,0)" stroke-width="0.1"/>
  <path d="M 10.000001499999996,94.83425499999998 L 10.000001499999996,100.0" fill="none" stroke="rgb(178,0,0)" stroke-width="0.1"/>
  <path d="M 23.000001499999996,100.0 L 23.000001499999996,94.83425499999998" fill="none" stroke="rgb(178,0,0)" stroke-width="0.1"/>
  <path d="M 16.000001499999996,75.33425499999998 L 12.039001499999983,77.29625499999997" fill="none" stroke="rgb(178,0,0)" stroke-width="0.1"/>
  <path d="M 12.039001499999983,77.29625499999997 L 10.000001499999996,92.83425499999998" fill="none" stroke="rgb(178,0,0)" stroke-width="0.1"/>
  <path d="M 23.000001499999996,94.83425499999998 L 11.386001499999992,95.63325500000002" fill="none" stroke="rgb(178,0,0)" stroke-width="0.1"/>
  <path d="M 11.386001499999992,95.63325500000002 L 10.324379228468672,100.0" fill="none" stroke="rgb(178,0,0)" stroke-width="0.1"/>
 </g>
 <g id="layerCon_wall【混凝土墙】" inkscape:groupmode="layer" inkscape:label="Con_wall【混凝土墙】">
  <path d="M 38.000001499999996,100.0 L 38.000001499999996,88.33525500000002" fill="none" stroke="rgb(178,0,178)" stroke-width="0.1"/>
  <path d="M 38.000001499999996,88.33525500000002 L 46.500001499999996,88.33525500000002" fill="none" stroke="rgb(178,0,178)" stroke-width="0.1"/>
  <path d="M 46.500001499999996,88.33525500000002 L 46.500001499999996,100.0" fill="none" stroke="rgb(178,0,178)" stroke-width="0.1"/>
  <path d="M 0.0,27.335255000000018 L 8.000001499999996,27.335255000000018" fill="none" stroke="rgb(178,0,178)" stroke-width="0.1"/>
  <path d="M 8.000001499999996,27.335255000000018 L 8.000001499999996,34.33525500000002" fill="none" stroke="rgb(178,0,178)" stroke-width="0.1"/>
  <path d="M 8.000001499999996,34.33525500000002 L 0.0,34.33525500000002" fill="none" stroke="rgb(178,0,178)" stroke-width="0.1"/>
  <path d="M 20.000001499999996,34.33525500000002 L 20.000001499999996,27.335255000000018" fill="none" stroke="rgb(178,0,178)" stroke-width="0.1"/>
  <path d="M 20.000001499999996,27.335255000000018 L 46.500001499999996,27.335255000000018" fill="none" stroke="rgb(178,0,178)" stroke-width="0.1"/>
  <path d="M 46.500001499999996,27.335255000000018 L 46.500001499999996,53.33525500000002" fill="none" stroke="rgb(178,0,178)" stroke-width="0.1"/>
  <path d="M 46.500001499999996,53.33525500000002 L 38.000001499999996,53.33525500000002" fill="none" stroke="rgb(178,0,178)" stroke-width="0.1"/>
  <path d="M 38.000001499999996,53.33525500000002 L 38.000001499999996,34.33525500000002" fill="none" stroke="rgb(178,0,178)" stroke-width="0.1"/>
  <path d="M 38.000001499999996,34.33525500000002 L 20.000001499999996,34.33525500000002" fill="none" stroke="rgb(178,0,178)" stroke-width="0.1"/>
 </g>
 <g id="layerDOOR_FIRE" inkscape:groupmode="layer" inkscape:label="DOOR_FIRE">
  <path d="M 25.883001500000006,57.23625500000003 L 17.710001500000004,57.23625500000003" fill="none" instance-id="2" semantic-id="3" stroke="rgb(0,178,178)" stroke-width="0.1"/>
  <path d="M 17.710001500000004,56.78225500000002 L 25.883001500000006,56.78225500000002" fill="none" instance-id="2" semantic-id="3" stroke="rgb(0,178,178)" stroke-width="0.1"/>
  <path d="M 18.619001499999996,56.78225500000002 L 18.619001499999996,57.23625500000003" fill="none" instance-id="2" semantic-id="3" stroke="rgb(0,178,178)" stroke-width="0.1"/>
  <path d="M 19.527001499999983,56.78225500000002 L 19.527001499999983,57.23625500000003" fill="none" instance-id="2" semantic-id="3" stroke="rgb(0,178,178)" stroke-width="0.1"/>
  <path d="M 20.4350015,56.78225500000002 L 20.4350015,57.23625500000003" fill="none" instance-id="2" semantic-id="3" stroke="rgb(0,178,178)" stroke-width="0.1"/>
  <path d="M 17.710001500000004,56.32825500000001 L 17.710001500000004,56.78225500000002" fill="none" instance-id="2" semantic-id="3" stroke="rgb(0,178,178)" stroke-width="0.1"/>
  <path d="M 17.710001500000004,57.23625500000003 L 17.710001500000004,56.78225500000002" fill="none" instance-id="2" semantic-id="3" stroke="rgb(0,178,178)" stroke-width="0.1"/>
  <path d="M 17.256001499999996,57.23625500000003 L 16.80200149999999,57.23625500000003" fill="none" instance-id="2" semantic-id="3" stroke="rgb(0,178,178)" stroke-width="0.1"/>
  <path d="M 16.80200149999999,57.23625500000003 L 16.80200149999999,56.32825500000001" fill="none" instance-id="2" semantic-id="3" stroke="rgb(0,178,178)" stroke-width="0.1"/>
  <path d="M 17.256001499999996,56.78225500000002 L 17.256001499999996,57.23625500000003" fill="none" instance-id="2" semantic-id="3" stroke="rgb(0,178,178)" stroke-width="0.1"/>
  <path d="M 17.710001500000004,56.78225500000002 L 17.256001499999996,56.78225500000002" fill="none" instance-id="2" semantic-id="3" stroke="rgb(0,178,178)" stroke-width="0.1"/>
  <path d="M 16.80200149999999,56.32825500000001 L 17.710001500000004,56.32825500000001" fill="none" instance-id="2" semantic-id="3" stroke="rgb(0,178,178)" stroke-width="0.1"/>
  <path d="M 21.343001499999986,56.78225500000002 L 21.343001499999986,57.23625500000003" fill="none" instance-id="2" semantic-id="3" stroke="rgb(0,178,178)" stroke-width="0.1"/>
  <path d="M 22.2510015,56.78225500000002 L 22.2510015,57.23625500000003" fill="none" instance-id="2" semantic-id="3" stroke="rgb(0,178,178)" stroke-width="0.1"/>
  <path d="M 23.159001499999988,56.78225500000002 L 23.159001499999988,57.23625500000003" fill="none" instance-id="2" semantic-id="3" stroke="rgb(0,178,178)" stroke-width="0.1"/>
  <path d="M 24.067001500000003,56.78225500000002 L 24.067001500000003,57.23625500000003" fill="none" instance-id="2" semantic-id="3" stroke="rgb(0,178,178)" stroke-width="0.1"/>
  <path d="M 24.97500149999999,56.78225500000002 L 24.97500149999999,57.23625500000003" fill="none" instance-id="2" semantic-id="3" stroke="rgb(0,178,178)" stroke-width="0.1"/>
  <path d="M 25.883001500000006,56.78225500000002 L 25.883001500000006,57.23625500000003" fill="none" instance-id="2" semantic-id="3" stroke="rgb(0,178,178)" stroke-width="0.1"/>
  <path d="M 24.527001499999983,57.620254999999986 L 22.780001499999997,57.620254999999986" fill="none" instance-id="2" semantic-id="3" stroke="rgb(0,178,178)" stroke-width="0.1"/>
  <path d="M 24.527001499999983,56.398255000000006 L 22.780001499999997,56.398255000000006" fill="none" instance-id="2" semantic-id="3" stroke="rgb(0,178,178)" stroke-width="0.1"/>
  <path d="M 17.710001500000004,66.31725499999999 L 17.710001500000004,65.862255" fill="none" instance-id="2" semantic-id="3" stroke="rgb(0,178,178)" stroke-width="0.1"/>
  <path d="M 17.256001499999996,65.862255 L 17.256001499999996,65.408255" fill="none" instance-id="2" semantic-id="3" stroke="rgb(0,178,178)" stroke-width="0.1"/>
  <path d="M 17.256001499999996,65.408255 L 16.80200149999999,65.408255" fill="none" instance-id="2" semantic-id="3" stroke="rgb(0,178,178)" stroke-width="0.1"/>
  <path d="M 16.80200149999999,65.408255 L 16.80200149999999,66.31725499999999" fill="none" instance-id="2" semantic-id="3" stroke="rgb(0,178,178)" stroke-width="0.1"/>
  <path d="M 16.80200149999999,66.31725499999999 L 17.710001500000004,66.31725499999999" fill="none" instance-id="2" semantic-id="3" stroke="rgb(0,178,178)" stroke-width="0.1"/>
  <path d="M 17.710001500000004,65.862255 L 17.256001499999996,65.862255" fill="none" instance-id="2" semantic-id="3" stroke="rgb(0,178,178)" stroke-width="0.1"/>
  <path d="M 24.527001499999983,56.398255000000006 L 24.527001499999983,56.78225500000002" fill="none" instance-id="2" semantic-id="3" stroke="rgb(0,178,178)" stroke-width="0.1"/>
  <path d="M 24.527001499999983,57.620254999999986 L 24.527001499999983,57.23625500000003" fill="none" instance-id="2" semantic-id="3" stroke="rgb(0,178,178)" stroke-width="0.1"/>
  <path d="M 22.780001499999997,57.620254999999986 L 22.780001499999997,57.23625500000003" fill="none" instance-id="2" semantic-id="3" stroke="rgb(0,178,178)" stroke-width="0.1"/>
  <path d="M 22.780001499999997,56.398255000000006 L 22.780001499999997,56.78225500000002" fill="none" instance-id="2" semantic-id="3" stroke="rgb(0,178,178)" stroke-width="0.1"/>
  <path d="M 14.09800150000001,56.21725500000002 L 14.09800150000001,48.045255" fill="none" instance-id="3" semantic-id="3" stroke="rgb(0,178,178)" stroke-width="0.1"/>
  <path d="M 14.552001499999989,48.045255 L 14.552001499999989,56.21725500000002" fill="none" instance-id="3" semantic-id="3" stroke="rgb(0,178,178)" stroke-width="0.1"/>
  <path d="M 14.552001499999989,48.95325500000001 L 14.09800150000001,48.95325500000001" fill="none" instance-id="3" semantic-id="3" stroke="rgb(0,178,178)" stroke-width="0.1"/>
  <path d="M 14.552001499999989,49.86125500000003 L 14.09800150000001,49.86125500000003" fill="none" instance-id="3" semantic-id="3" stroke="rgb(0,178,178)" stroke-width="0.1"/>
  <path d="M 14.552001499999989,50.76925499999999 L 14.09800150000001,50.76925499999999" fill="none" instance-id="3" semantic-id="3" stroke="rgb(0,178,178)" stroke-width="0.1"/>
  <path d="M 15.006001499999996,48.045255 L 14.552001499999989,48.045255" fill="none" instance-id="3" semantic-id="3" stroke="rgb(0,178,178)" stroke-width="0.1"/>
  <path d="M 14.09800150000001,48.045255 L 14.552001499999989,48.045255" fill="none" instance-id="3" semantic-id="3" stroke="rgb(0,178,178)" stroke-width="0.1"/>
  <path d="M 14.09800150000001,47.59125499999999 L 14.09800150000001,47.13725499999998" fill="none" instance-id="3" semantic-id="3" stroke="rgb(0,178,178)" stroke-width="0.1"/>
  <path d="M 14.09800150000001,47.13725499999998 L 15.006001499999996,47.13725499999998" fill="none" instance-id="3" semantic-id="3" stroke="rgb(0,178,178)" stroke-width="0.1"/>
  <path d="M 14.552001499999989,47.59125499999999 L 14.09800150000001,47.59125499999999" fill="none" instance-id="3" semantic-id="3" stroke="rgb(0,178,178)" stroke-width="0.1"/>
  <path d="M 14.552001499999989,48.045255 L 14.552001499999989,47.59125499999999" fill="none" instance-id="3" semantic-id="3" stroke="rgb(0,178,178)" stroke-width="0.1"/>
  <path d="M 15.006001499999996,47.13725499999998 L 15.006001499999996,48.045255" fill="none" instance-id="3" semantic-id="3" stroke="rgb(0,178,178)" stroke-width="0.1"/>
  <path d="M 14.552001499999989,51.677255 L 14.09800150000001,51.677255" fill="none" instance-id="3" semantic-id="3" stroke="rgb(0,178,178)" stroke-width="0.1"/>
  <path d="M 14.552001499999989,52.58525500000002 L 14.09800150000001,52.58525500000002" fill="none" instance-id="3" semantic-id="3" stroke="rgb(0,178,178)" stroke-width="0.1"/>
  <path d="M 14.552001499999989,53.49325499999998 L 14.09800150000001,53.49325499999998" fill="none" instance-id="3" semantic-id="3" stroke="rgb(0,178,178)" stroke-width="0.1"/>
  <path d="M 14.552001499999989,54.40125499999999 L 14.09800150000001,54.40125499999999" fill="none" instance-id="3" semantic-id="3" stroke="rgb(0,178,178)" stroke-width="0.1"/>
  <path d="M 14.552001499999989,55.30925500000001 L 14.09800150000001,55.30925500000001" fill="none" instance-id="3" semantic-id="3" stroke="rgb(0,178,178)" stroke-width="0.1"/>
  <path d="M 14.552001499999989,56.21725500000002 L 14.09800150000001,56.21725500000002" fill="none" instance-id="3" semantic-id="3" stroke="rgb(0,178,178)" stroke-width="0.1"/>
  <path d="M 13.714001499999995,54.86125500000003 L 13.714001499999995,53.114255000000014" fill="none" instance-id="3" semantic-id="3" stroke="rgb(0,178,178)" stroke-width="0.1"/>
  <path d="M 14.936001500000003,54.86125500000003 L 14.936001500000003,53.114255000000014" fill="none" instance-id="3" semantic-id="3" stroke="rgb(0,178,178)" stroke-width="0.1"/>
  <path d="M 5.018001499999997,48.045255 L 5.472001500000005,48.045255" fill="none" instance-id="3" semantic-id="3" stroke="rgb(0,178,178)" stroke-width="0.1"/>
  <path d="M 5.472001500000005,47.59125499999999 L 5.926001499999984,47.59125499999999" fill="none" instance-id="3" semantic-id="3" stroke="rgb(0,178,178)" stroke-width="0.1"/>
  <path d="M 5.926001499999984,47.59125499999999 L 5.926001499999984,47.13725499999998" fill="none" instance-id="3" semantic-id="3" stroke="rgb(0,178,178)" stroke-width="0.1"/>
  <path d="M 5.926001499999984,47.13725499999998 L 5.018001499999997,47.13725499999998" fill="none" instance-id="3" semantic-id="3" stroke="rgb(0,178,178)" stroke-width="0.1"/>
  <path d="M 5.018001499999997,47.13725499999998 L 5.018001499999997,48.045255" fill="none" instance-id="3" semantic-id="3" stroke="rgb(0,178,178)" stroke-width="0.1"/>
  <path d="M 5.472001500000005,48.045255 L 5.472001500000005,47.59125499999999" fill="none" instance-id="3" semantic-id="3" stroke="rgb(0,178,178)" stroke-width="0.1"/>
  <path d="M 14.936001500000003,54.86125500000003 L 14.552001499999989,54.86125500000003" fill="none" instance-id="3" semantic-id="3" stroke="rgb(0,178,178)" stroke-width="0.1"/>
  <path d="M 13.714001499999995,54.86125500000003 L 14.09800150000001,54.86125500000003" fill="none" instance-id="3" semantic-id="3" stroke="rgb(0,178,178)" stroke-width="0.1"/>
  <path d="M 13.714001499999995,53.114255000000014 L 14.09800150000001,53.114255000000014" fill="none" instance-id="3" semantic-id="3" stroke="rgb(0,178,178)" stroke-width="0.1"/>
  <path d="M 14.936001500000003,53.114255000000014 L 14.552001499999989,53.114255000000014" fill="none" instance-id="3" semantic-id="3" stroke="rgb(0,178,178)" stroke-width="0.1"/>
  <path d="M 46.200001499999985,7.03425500000003 L 46.200001499999985,7.734255000000019" fill="none" instance-id="5" semantic-id="4" stroke="rgb(0,178,178)" stroke-width="0.1"/>
  <path d="M 45.500001499999996,7.03425500000003 L 37.10000149999999,7.03425500000003" fill="none" instance-id="5" semantic-id="4" stroke="rgb(0,178,178)" stroke-width="0.1"/>
  <path d="M 37.10000149999999,7.734255000000019 L 45.500001499999996,7.734255000000019" fill="none" instance-id="5" semantic-id="4" stroke="rgb(0,178,178)" stroke-width="0.1"/>
  <path d="M 44.10000149999999,7.03425500000003 L 44.10000149999999,7.734255000000019" fill="none" instance-id="5" semantic-id="4" stroke="rgb(0,178,178)" stroke-width="0.1"/>
  <path d="M 45.500001499999996,7.734255000000019 L 45.500001499999996,7.03425500000003" fill="none" instance-id="5" semantic-id="4" stroke="rgb(0,178,178)" stroke-width="0.1"/>
  <path d="M 37.69500149999999,6.442254999999989 L 40.389001500000006,6.442254999999989" fill="none" instance-id="5" semantic-id="4" stroke="rgb(0,178,178)" stroke-width="0.1"/>
  <path d="M 37.69500149999999,8.32725499999998 L 40.389001500000006,8.32725499999998" fill="none" instance-id="5" semantic-id="4" stroke="rgb(0,178,178)" stroke-width="0.1"/>
  <path d="M 42.700001499999985,7.03425500000003 L 42.700001499999985,7.734255000000019" fill="none" instance-id="5" semantic-id="4" stroke="rgb(0,178,178)" stroke-width="0.1"/>
  <path d="M 41.30000150000001,7.03425500000003 L 41.30000150000001,7.734255000000019" fill="none" instance-id="5" semantic-id="4" stroke="rgb(0,178,178)" stroke-width="0.1"/>
  <path d="M 39.9000015,7.03425500000003 L 39.9000015,7.734255000000019" fill="none" instance-id="5" semantic-id="4" stroke="rgb(0,178,178)" stroke-width="0.1"/>
  <path d="M 38.500001499999996,7.03425500000003 L 38.500001499999996,7.734255000000019" fill="none" instance-id="5" semantic-id="4" stroke="rgb(0,178,178)" stroke-width="0.1"/>
  <path d="M 37.10000149999999,7.03425500000003 L 37.10000149999999,7.734255000000019" fill="none" instance-id="5" semantic-id="4" stroke="rgb(0,178,178)" stroke-width="0.1"/>
  <path d="M 46.200001499999985,7.734255000000019 L 46.9000015,7.734255000000019" fill="none" instance-id="5" semantic-id="4" stroke="rgb(0,178,178)" stroke-width="0.1"/>
  <path d="M 45.500001499999996,7.03425500000003 L 46.200001499999985,7.03425500000003" fill="none" instance-id="5" semantic-id="4" stroke="rgb(0,178,178)" stroke-width="0.1"/>
  <path d="M 45.500001499999996,6.334254999999985 L 45.500001499999996,7.03425500000003" fill="none" instance-id="5" semantic-id="4" stroke="rgb(0,178,178)" stroke-width="0.1"/>
  <path d="M 46.9000015,6.334254999999985 L 45.500001499999996,6.334254999999985" fill="none" instance-id="5" semantic-id="4" stroke="rgb(0,178,178)" stroke-width="0.1"/>
  <path d="M 46.9000015,7.734255000000019 L 46.9000015,6.334254999999985" fill="none" instance-id="5" semantic-id="4" stroke="rgb(0,178,178)" stroke-width="0.1"/>
  <path d="M 45.500001499999996,26.634254999999996 L 46.200001499999985,26.634254999999996" fill="none" instance-id="5" semantic-id="4" stroke="rgb(0,178,178)" stroke-width="0.1"/>
  <path d="M 45.500001499999996,27.334254999999985 L 45.500001499999996,26.634254999999996" fill="none" instance-id="5" semantic-id="4" stroke="rgb(0,178,178)" stroke-width="0.1"/>
  <path d="M 45.500001499999996,25.934255000000007 L 45.500001499999996,26.634254999999996" fill="none" instance-id="5" semantic-id="4" stroke="rgb(0,178,178)" stroke-width="0.1"/>
  <path d="M 37.10000149999999,25.934255000000007 L 45.500001499999996,25.934255000000007" fill="none" instance-id="5" semantic-id="4" stroke="rgb(0,178,178)" stroke-width="0.1"/>
  <path d="M 46.9000015,27.334254999999985 L 45.500001499999996,27.334254999999985" fill="none" instance-id="5" semantic-id="4" stroke="rgb(0,178,178)" stroke-width="0.1"/>
  <path d="M 45.500001499999996,26.634254999999996 L 37.10000149999999,26.634254999999996" fill="none" instance-id="5" semantic-id="4" stroke="rgb(0,178,178)" stroke-width="0.1"/>
  <path d="M 45.500001499999996,25.934255000000007 L 45.500001499999996,26.634254999999996" fill="none" instance-id="5" semantic-id="4" stroke="rgb(0,178,178)" stroke-width="0.1"/>
  <path d="M 46.9000015,27.334254999999985 L 45.500001499999996,27.334254999999985" fill="none" instance-id="5" semantic-id="4" stroke="rgb(0,178,178)" stroke-width="0.1"/>
  <path d="M 45.500001499999996,26.634254999999996 L 37.10000149999999,26.634254999999996" fill="none" instance-id="5" semantic-id="4" stroke="rgb(0,178,178)" stroke-width="0.1"/>
  <path d="M 45.500001499999996,26.634254999999996 L 46.200001499999985,26.634254999999996" fill="none" instance-id="5" semantic-id="4" stroke="rgb(0,178,178)" stroke-width="0.1"/>
  <path d="M 46.200001499999985,25.934255000000007 L 46.9000015,25.934255000000007" fill="none" instance-id="5" semantic-id="4" stroke="rgb(0,178,178)" stroke-width="0.1"/>
  <path d="M 46.200001499999985,26.634254999999996 L 46.200001499999985,25.934255000000007" fill="none" instance-id="5" semantic-id="4" stroke="rgb(0,178,178)" stroke-width="0.1"/>
  <path d="M 46.9000015,25.934255000000007 L 46.9000015,27.334254999999985" fill="none" instance-id="5" semantic-id="4" stroke="rgb(0,178,178)" stroke-width="0.1"/>
  <path d="M 37.10000149999999,26.634254999999996 L 37.10000149999999,25.934255000000007" fill="none" instance-id="5" semantic-id="4" stroke="rgb(0,178,178)" stroke-width="0.1"/>
  <path d="M 38.500001499999996,26.634254999999996 L 38.500001499999996,25.934255000000007" fill="none" instance-id="5" semantic-id="4" stroke="rgb(0,178,178)" stroke-width="0.1"/>
  <path d="M 39.9000015,26.634254999999996 L 39.9000015,25.934255000000007" fill="none" instance-id="5" semantic-id="4" stroke="rgb(0,178,178)" stroke-width="0.1"/>
  <path d="M 37.69500149999999,25.342255000000023 L 40.389001500000006,25.342255000000023" fill="none" instance-id="5" semantic-id="4" stroke="rgb(0,178,178)" stroke-width="0.1"/>
  <path d="M 37.69500149999999,27.227255000000014 L 40.389001500000006,27.227255000000014" fill="none" instance-id="5" semantic-id="4" stroke="rgb(0,178,178)" stroke-width="0.1"/>
  <path d="M 37.10000149999999,25.934255000000007 L 45.500001499999996,25.934255000000007" fill="none" instance-id="5" semantic-id="4" stroke="rgb(0,178,178)" stroke-width="0.1"/>
  <path d="M 45.500001499999996,26.634254999999996 L 37.10000149999999,26.634254999999996" fill="none" instance-id="5" semantic-id="4" stroke="rgb(0,178,178)" stroke-width="0.1"/>
  <path d="M 45.500001499999996,25.934255000000007 L 45.500001499999996,26.634254999999996" fill="none" instance-id="5" semantic-id="4" stroke="rgb(0,178,178)" stroke-width="0.1"/>
  <path d="M 44.10000149999999,26.634254999999996 L 44.10000149999999,25.934255000000007" fill="none" instance-id="5" semantic-id="4" stroke="rgb(0,178,178)" stroke-width="0.1"/>
  <path d="M 41.30000150000001,26.634254999999996 L 41.30000150000001,25.934255000000007" fill="none" instance-id="5" semantic-id="4" stroke="rgb(0,178,178)" stroke-width="0.1"/>
  <path d="M 42.700001499999985,26.634254999999996 L 42.700001499999985,25.934255000000007" fill="none" instance-id="5" semantic-id="4" stroke="rgb(0,178,178)" stroke-width="0.1"/>
  <path d="M 37.69500149999999,27.227255000000014 L 37.69500149999999,26.634254999999996" fill="none" instance-id="5" semantic-id="4" stroke="rgb(0,178,178)" stroke-width="0.1"/>
  <path d="M 37.69500149999999,25.342255000000023 L 37.69500149999999,25.934255000000007" fill="none" instance-id="5" semantic-id="4" stroke="rgb(0,178,178)" stroke-width="0.1"/>
  <path d="M 40.389001500000006,27.227255000000014 L 40.389001500000006,26.634254999999996" fill="none" instance-id="5" semantic-id="4" stroke="rgb(0,178,178)" stroke-width="0.1"/>
  <path d="M 40.389001500000006,25.342255000000023 L 40.389001500000006,25.934255000000007" fill="none" instance-id="5" semantic-id="4" stroke="rgb(0,178,178)" stroke-width="0.1"/>
  <path d="M 37.69500149999999,8.32725499999998 L 37.69500149999999,7.734255000000019" fill="none" instance-id="5" semantic-id="4" stroke="rgb(0,178,178)" stroke-width="0.1"/>
  <path d="M 40.389001500000006,8.32725499999998 L 40.389001500000006,7.734255000000019" fill="none" instance-id="5" semantic-id="4" stroke="rgb(0,178,178)" stroke-width="0.1"/>
  <path d="M 37.69500149999999,6.442254999999989 L 37.69500149999999,7.03425500000003" fill="none" instance-id="5" semantic-id="4" stroke="rgb(0,178,178)" stroke-width="0.1"/>
  <path d="M 40.389001500000006,6.442254999999989 L 40.389001500000006,7.03425500000003" fill="none" instance-id="5" semantic-id="4" stroke="rgb(0,178,178)" stroke-width="0.1"/>
  <path d="M 73.70000149999998,7.03425500000003 L 73.70000149999998,7.734255000000019" fill="none" instance-id="4" semantic-id="4" stroke="rgb(0,178,178)" stroke-width="0.1"/>
  <path d="M 73.0000015,7.03425500000003 L 64.60000149999999,7.03425500000003" fill="none" instance-id="4" semantic-id="4" stroke="rgb(0,178,178)" stroke-width="0.1"/>
  <path d="M 64.60000149999999,7.734255000000019 L 73.0000015,7.734255000000019" fill="none" instance-id="4" semantic-id="4" stroke="rgb(0,178,178)" stroke-width="0.1"/>
  <path d="M 71.60000149999999,7.03425500000003 L 71.60000149999999,7.734255000000019" fill="none" instance-id="4" semantic-id="4" stroke="rgb(0,178,178)" stroke-width="0.1"/>
  <path d="M 73.0000015,7.734255000000019 L 73.0000015,7.03425500000003" fill="none" instance-id="4" semantic-id="4" stroke="rgb(0,178,178)" stroke-width="0.1"/>
  <path d="M 65.19500149999999,6.442254999999989 L 67.8890015,6.442254999999989" fill="none" instance-id="4" semantic-id="4" stroke="rgb(0,178,178)" stroke-width="0.1"/>
  <path d="M 65.19500149999999,8.32725499999998 L 67.8890015,8.32725499999998" fill="none" instance-id="4" semantic-id="4" stroke="rgb(0,178,178)" stroke-width="0.1"/>
  <path d="M 70.20000149999998,7.03425500000003 L 70.20000149999998,7.734255000000019" fill="none" instance-id="4" semantic-id="4" stroke="rgb(0,178,178)" stroke-width="0.1"/>
  <path d="M 68.80000150000001,7.03425500000003 L 68.80000150000001,7.734255000000019" fill="none" instance-id="4" semantic-id="4" stroke="rgb(0,178,178)" stroke-width="0.1"/>
  <path d="M 67.4000015,7.03425500000003 L 67.4000015,7.734255000000019" fill="none" instance-id="4" semantic-id="4" stroke="rgb(0,178,178)" stroke-width="0.1"/>
  <path d="M 66.0000015,7.03425500000003 L 66.0000015,7.734255000000019" fill="none" instance-id="4" semantic-id="4" stroke="rgb(0,178,178)" stroke-width="0.1"/>
  <path d="M 64.60000149999999,7.03425500000003 L 64.60000149999999,7.734255000000019" fill="none" instance-id="4" semantic-id="4" stroke="rgb(0,178,178)" stroke-width="0.1"/>
  <path d="M 73.70000149999998,7.734255000000019 L 74.4000015,7.734255000000019" fill="none" instance-id="4" semantic-id="4" stroke="rgb(0,178,178)" stroke-width="0.1"/>
  <path d="M 73.0000015,7.03425500000003 L 73.70000149999998,7.03425500000003" fill="none" instance-id="4" semantic-id="4" stroke="rgb(0,178,178)" stroke-width="0.1"/>
  <path d="M 73.0000015,6.334254999999985 L 73.0000015,7.03425500000003" fill="none" instance-id="4" semantic-id="4" stroke="rgb(0,178,178)" stroke-width="0.1"/>
  <path d="M 74.4000015,6.334254999999985 L 73.0000015,6.334254999999985" fill="none" instance-id="4" semantic-id="4" stroke="rgb(0,178,178)" stroke-width="0.1"/>
  <path d="M 74.4000015,7.734255000000019 L 74.4000015,6.334254999999985" fill="none" instance-id="4" semantic-id="4" stroke="rgb(0,178,178)" stroke-width="0.1"/>
  <path d="M 73.0000015,26.634254999999996 L 73.70000149999998,26.634254999999996" fill="none" instance-id="4" semantic-id="4" stroke="rgb(0,178,178)" stroke-width="0.1"/>
  <path d="M 73.0000015,27.334254999999985 L 73.0000015,26.634254999999996" fill="none" instance-id="4" semantic-id="4" stroke="rgb(0,178,178)" stroke-width="0.1"/>
  <path d="M 73.0000015,25.934255000000007 L 73.0000015,26.634254999999996" fill="none" instance-id="4" semantic-id="4" stroke="rgb(0,178,178)" stroke-width="0.1"/>
  <path d="M 64.60000149999999,25.934255000000007 L 73.0000015,25.934255000000007" fill="none" instance-id="4" semantic-id="4" stroke="rgb(0,178,178)" stroke-width="0.1"/>
  <path d="M 74.4000015,27.334254999999985 L 73.0000015,27.334254999999985" fill="none" instance-id="4" semantic-id="4" stroke="rgb(0,178,178)" stroke-width="0.1"/>
  <path d="M 73.0000015,26.634254999999996 L 64.60000149999999,26.634254999999996" fill="none" instance-id="4" semantic-id="4" stroke="rgb(0,178,178)" stroke-width="0.1"/>
  <path d="M 73.0000015,25.934255000000007 L 73.0000015,26.634254999999996" fill="none" instance-id="4" semantic-id="4" stroke="rgb(0,178,178)" stroke-width="0.1"/>
  <path d="M 74.4000015,27.334254999999985 L 73.0000015,27.334254999999985" fill="none" instance-id="4" semantic-id="4" stroke="rgb(0,178,178)" stroke-width="0.1"/>
  <path d="M 73.0000015,26.634254999999996 L 64.60000149999999,26.634254999999996" fill="none" instance-id="4" semantic-id="4" stroke="rgb(0,178,178)" stroke-width="0.1"/>
  <path d="M 73.0000015,26.634254999999996 L 73.70000149999998,26.634254999999996" fill="none" instance-id="4" semantic-id="4" stroke="rgb(0,178,178)" stroke-width="0.1"/>
  <path d="M 73.70000149999998,25.934255000000007 L 74.4000015,25.934255000000007" fill="none" instance-id="4" semantic-id="4" stroke="rgb(0,178,178)" stroke-width="0.1"/>
  <path d="M 73.70000149999998,26.634254999999996 L 73.70000149999998,25.934255000000007" fill="none" instance-id="4" semantic-id="4" stroke="rgb(0,178,178)" stroke-width="0.1"/>
  <path d="M 74.4000015,25.934255000000007 L 74.4000015,27.334254999999985" fill="none" instance-id="4" semantic-id="4" stroke="rgb(0,178,178)" stroke-width="0.1"/>
  <path d="M 64.60000149999999,26.634254999999996 L 64.60000149999999,25.934255000000007" fill="none" instance-id="4" semantic-id="4" stroke="rgb(0,178,178)" stroke-width="0.1"/>
  <path d="M 66.0000015,26.634254999999996 L 66.0000015,25.934255000000007" fill="none" instance-id="4" semantic-id="4" stroke="rgb(0,178,178)" stroke-width="0.1"/>
  <path d="M 67.4000015,26.634254999999996 L 67.4000015,25.934255000000007" fill="none" instance-id="4" semantic-id="4" stroke="rgb(0,178,178)" stroke-width="0.1"/>
  <path d="M 65.19500149999999,25.342255000000023 L 67.8890015,25.342255000000023" fill="none" instance-id="4" semantic-id="4" stroke="rgb(0,178,178)" stroke-width="0.1"/>
  <path d="M 65.19500149999999,27.227255000000014 L 67.8890015,27.227255000000014" fill="none" instance-id="4" semantic-id="4" stroke="rgb(0,178,178)" stroke-width="0.1"/>
  <path d="M 64.60000149999999,25.934255000000007 L 73.0000015,25.934255000000007" fill="none" instance-id="4" semantic-id="4" stroke="rgb(0,178,178)" stroke-width="0.1"/>
  <path d="M 73.0000015,26.634254999999996 L 64.60000149999999,26.634254999999996" fill="none" instance-id="4" semantic-id="4" stroke="rgb(0,178,178)" stroke-width="0.1"/>
  <path d="M 73.0000015,25.934255000000007 L 73.0000015,26.634254999999996" fill="none" instance-id="4" semantic-id="4" stroke="rgb(0,178,178)" stroke-width="0.1"/>
  <path d="M 71.60000149999999,26.634254999999996 L 71.60000149999999,25.934255000000007" fill="none" instance-id="4" semantic-id="4" stroke="rgb(0,178,178)" stroke-width="0.1"/>
  <path d="M 68.80000150000001,26.634254999999996 L 68.80000150000001,25.934255000000007" fill="none" instance-id="4" semantic-id="4" stroke="rgb(0,178,178)" stroke-width="0.1"/>
  <path d="M 70.20000149999998,26.634254999999996 L 70.20000149999998,25.934255000000007" fill="none" instance-id="4" semantic-id="4" stroke="rgb(0,178,178)" stroke-width="0.1"/>
  <path d="M 65.19500149999999,27.227255000000014 L 65.19500149999999,26.634254999999996" fill="none" instance-id="4" semantic-id="4" stroke="rgb(0,178,178)" stroke-width="0.1"/>
  <path d="M 65.19500149999999,25.342255000000023 L 65.19500149999999,25.934255000000007" fill="none" instance-id="4" semantic-id="4" stroke="rgb(0,178,178)" stroke-width="0.1"/>
  <path d="M 67.8890015,27.227255000000014 L 67.8890015,26.634254999999996" fill="none" instance-id="4" semantic-id="4" stroke="rgb(0,178,178)" stroke-width="0.1"/>
  <path d="M 67.8890015,25.342255000000023 L 67.8890015,25.934255000000007" fill="none" instance-id="4" semantic-id="4" stroke="rgb(0,178,178)" stroke-width="0.1"/>
  <path d="M 65.19500149999999,8.32725499999998 L 65.19500149999999,7.734255000000019" fill="none" instance-id="4" semantic-id="4" stroke="rgb(0,178,178)" stroke-width="0.1"/>
  <path d="M 67.8890015,8.32725499999998 L 67.8890015,7.734255000000019" fill="none" instance-id="4" semantic-id="4" stroke="rgb(0,178,178)" stroke-width="0.1"/>
  <path d="M 65.19500149999999,6.442254999999989 L 65.19500149999999,7.03425500000003" fill="none" instance-id="4" semantic-id="4" stroke="rgb(0,178,178)" stroke-width="0.1"/>
  <path d="M 67.8890015,6.442254999999989 L 67.8890015,7.03425500000003" fill="none" instance-id="4" semantic-id="4" stroke="rgb(0,178,178)" stroke-width="0.1"/>
  <path d="M 37.09800150000001,100.0 L 37.09800150000001,94.545255" fill="none" instance-id="1" semantic-id="3" stroke="rgb(0,178,178)" stroke-width="0.1"/>
  <path d="M 37.55200149999999,94.545255 L 37.55200149999999,100.0" fill="none" instance-id="1" semantic-id="3" stroke="rgb(0,178,178)" stroke-width="0.1"/>
  <path d="M 37.55200149999999,95.45325500000001 L 37.09800150000001,95.45325500000001" fill="none" instance-id="1" semantic-id="3" stroke="rgb(0,178,178)" stroke-width="0.1"/>
  <path d="M 37.55200149999999,96.36125500000003 L 37.09800150000001,96.36125500000003" fill="none" instance-id="1" semantic-id="3" stroke="rgb(0,178,178)" stroke-width="0.1"/>
  <path d="M 37.55200149999999,97.26925499999999 L 37.09800150000001,97.26925499999999" fill="none" instance-id="1" semantic-id="3" stroke="rgb(0,178,178)" stroke-width="0.1"/>
  <path d="M 38.006001499999996,94.545255 L 37.55200149999999,94.545255" fill="none" instance-id="1" semantic-id="3" stroke="rgb(0,178,178)" stroke-width="0.1"/>
  <path d="M 37.09800150000001,94.545255 L 37.55200149999999,94.545255" fill="none" instance-id="1" semantic-id="3" stroke="rgb(0,178,178)" stroke-width="0.1"/>
  <path d="M 37.09800150000001,94.09125499999999 L 37.09800150000001,93.63725499999998" fill="none" instance-id="1" semantic-id="3" stroke="rgb(0,178,178)" stroke-width="0.1"/>
  <path d="M 37.09800150000001,93.63725499999998 L 38.006001499999996,93.63725499999998" fill="none" instance-id="1" semantic-id="3" stroke="rgb(0,178,178)" stroke-width="0.1"/>
  <path d="M 37.55200149999999,94.09125499999999 L 37.09800150000001,94.09125499999999" fill="none" instance-id="1" semantic-id="3" stroke="rgb(0,178,178)" stroke-width="0.1"/>
  <path d="M 37.55200149999999,94.545255 L 37.55200149999999,94.09125499999999" fill="none" instance-id="1" semantic-id="3" stroke="rgb(0,178,178)" stroke-width="0.1"/>
  <path d="M 38.006001499999996,93.63725499999998 L 38.006001499999996,94.545255" fill="none" instance-id="1" semantic-id="3" stroke="rgb(0,178,178)" stroke-width="0.1"/>
  <path d="M 37.55200149999999,98.177255 L 37.09800150000001,98.177255" fill="none" instance-id="1" semantic-id="3" stroke="rgb(0,178,178)" stroke-width="0.1"/>
  <path d="M 37.55200149999999,99.08525500000002 L 37.09800150000001,99.08525500000002" fill="none" instance-id="1" semantic-id="3" stroke="rgb(0,178,178)" stroke-width="0.1"/>
  <path d="M 37.55200149999999,99.99325499999998 L 37.09800150000001,99.99325499999998" fill="none" instance-id="1" semantic-id="3" stroke="rgb(0,178,178)" stroke-width="0.1"/>
  <path d="M 36.714001499999995,100.0 L 36.714001499999995,99.61425500000001" fill="none" instance-id="1" semantic-id="3" stroke="rgb(0,178,178)" stroke-width="0.1"/>
  <path d="M 37.9360015,100.0 L 37.9360015,99.61425500000001" fill="none" instance-id="1" semantic-id="3" stroke="rgb(0,178,178)" stroke-width="0.1"/>
  <path d="M 28.018001499999997,94.545255 L 28.472001500000005,94.545255" fill="none" instance-id="1" semantic-id="3" stroke="rgb(0,178,178)" stroke-width="0.1"/>
  <path d="M 28.472001500000005,94.09125499999999 L 28.926001499999984,94.09125499999999" fill="none" instance-id="1" semantic-id="3" stroke="rgb(0,178,178)" stroke-width="0.1"/>
  <path d="M 28.926001499999984,94.09125499999999 L 28.926001499999984,93.63725499999998" fill="none" instance-id="1" semantic-id="3" stroke="rgb(0,178,178)" stroke-width="0.1"/>
  <path d="M 28.926001499999984,93.63725499999998 L 28.018001499999997,93.63725499999998" fill="none" instance-id="1" semantic-id="3" stroke="rgb(0,178,178)" stroke-width="0.1"/>
  <path d="M 28.018001499999997,93.63725499999998 L 28.018001499999997,94.545255" fill="none" instance-id="1" semantic-id="3" stroke="rgb(0,178,178)" stroke-width="0.1"/>
  <path d="M 28.472001500000005,94.545255 L 28.472001500000005,94.09125499999999" fill="none" instance-id="1" semantic-id="3" stroke="rgb(0,178,178)" stroke-width="0.1"/>
  <path d="M 36.714001499999995,99.61425500000001 L 37.09800150000001,99.61425500000001" fill="none" instance-id="1" semantic-id="3" stroke="rgb(0,178,178)" stroke-width="0.1"/>
  <path d="M 37.9360015,99.61425500000001 L 37.55200149999999,99.61425500000001" fill="none" instance-id="1" semantic-id="3" stroke="rgb(0,178,178)" stroke-width="0.1"/>
  <path d="M 17.710001500000004,65.862255 A 8.17204,8.17204 0.0 0,0 25.883001500000006,57.23625500000003" fill="none" instance-id="2" semantic-id="3" stroke="rgb(0,178,178)" stroke-width="0.1"/>
  <path d="M 5.472001500000005,48.045255 A 8.17204,8.17204 0.0 0,0 14.09800150000001,56.21725500000002" fill="none" instance-id="3" semantic-id="3" stroke="rgb(0,178,178)" stroke-width="0.1"/>
  <path d="M 37.10000149999999,7.734255000000019 A 8.4,8.4 0.0 0,0 45.500001499999996,16.834254999999985" fill="none" instance-id="5" semantic-id="4" stroke="rgb(0,178,178)" stroke-width="0.1"/>
  <path d="M 45.500001499999996,16.834254999999985 A 8.4,8.4 0.0 0,0 37.10000149999999,25.934255000000007" fill="none" instance-id="5" semantic-id="4" stroke="rgb(0,178,178)" stroke-width="0.1"/>
  <path d="M 64.60000149999999,7.734255000000019 A 8.4,8.4 0.0 0,0 73.0000015,16.834254999999985" fill="none" instance-id="4" semantic-id="4" stroke="rgb(0,178,178)" stroke-width="0.1"/>
  <path d="M 73.0000015,16.834254999999985 A 8.4,8.4 0.0 0,0 64.60000149999999,25.934255000000007" fill="none" instance-id="4" semantic-id="4" stroke="rgb(0,178,178)" stroke-width="0.1"/>
  <path d="M 28.472001500000005,94.545255 L 28.487227504141543,95.05661375662822" fill="none" instance-id="1" semantic-id="3" stroke="rgb(0,178,178)" stroke-width="0.1"/>
  <path d="M 28.487227504141543,95.05661375662822 L 28.534420026760074,95.5660177956683" fill="none" instance-id="1" semantic-id="3" stroke="rgb(0,178,178)" stroke-width="0.1"/>
  <path d="M 28.534420026760074,95.5660177956683 L 28.61339412034573,96.07147076254432" fill="none" instance-id="1" semantic-id="3" stroke="rgb(0,178,178)" stroke-width="0.1"/>
  <path d="M 28.61339412034573,96.07147076254432 L 28.7238402854029,96.57099178693232" fill="none" instance-id="1" semantic-id="3" stroke="rgb(0,178,178)" stroke-width="0.1"/>
  <path d="M 28.7238402854029,96.57099178693232 L 28.865325683378558,97.06262324579262" fill="none" instance-id="1" semantic-id="3" stroke="rgb(0,178,178)" stroke-width="0.1"/>
  <path d="M 28.865325683378558,97.06262324579262 L 29.037295832957,97.54443843529526" fill="none" instance-id="1" semantic-id="3" stroke="rgb(0,178,178)" stroke-width="0.1"/>
  <path d="M 29.037295832957,97.54443843529526 L 29.239076783072107,98.01454912157254" fill="none" instance-id="1" semantic-id="3" stroke="rgb(0,178,178)" stroke-width="0.1"/>
  <path d="M 29.239076783072107,98.01454912157254 L 29.46987775412171,98.47111294070845" fill="none" instance-id="1" semantic-id="3" stroke="rgb(0,178,178)" stroke-width="0.1"/>
  <path d="M 29.46987775412171,98.47111294070845 L 29.7287942370333,98.9123406189633" fill="none" instance-id="1" semantic-id="3" stroke="rgb(0,178,178)" stroke-width="0.1"/>
  <path d="M 29.7287942370333,98.9123406189633 L 30.014811538035133,99.3365029849378" fill="none" instance-id="1" semantic-id="3" stroke="rgb(0,178,178)" stroke-width="0.1"/>
  <path d="M 30.014811538035133,99.3365029849378 L 30.326808755241558,99.74193774619653" fill="none" instance-id="1" semantic-id="3" stroke="rgb(0,178,178)" stroke-width="0.1"/>
 </g>
 <g id="layerDOOR_FIRE_TEXT" inkscape:groupmode="layer" inkscape:label="DOOR_FIRE_TEXT">
  <text fill="rgb(0,0,0)" font-family="Noto Sans CJK SC" font-size="2" transform="rotate(-90.0,23.0600015,69.10325499999999)" x="23.0600015" y="69.10325499999999">
   FM乙1023
  </text>
  <text fill="rgb(0,0,0)" font-family="Noto Sans CJK SC" font-size="2" transform="rotate(-0.0,2.2310014999999908,44.834254999999985)" x="2.2310014999999908" y="44.834254999999985">
   FM甲1023
  </text>
  <text fill="rgb(0,0,0)" font-family="Noto Sans CJK SC" font-size="2" transform="rotate(-90.0,53.125001499999996,24.60325499999999)" x="53.125001499999996" y="24.60325499999999">
   FM乙2123
  </text>
  <text fill="rgb(0,0,0)" font-family="Noto Sans CJK SC" font-size="2" transform="rotate(-90.0,79.81200150000001,24.60325499999999)" x="79.81200150000001" y="24.60325499999999">
   FM乙2123
  </text>
  <text fill="rgb(0,0,0)" font-family="Noto Sans CJK SC" font-size="2" transform="rotate(-0.0,21.396001499999983,91.33425499999998)" x="21.396001499999983" y="91.33425499999998">
   FM乙1023
  </text>
 </g>
 <g id="layerDote【轴线】" inkscape:groupmode="layer" inkscape:label="Dote【轴线】">
  <path d="M 0.0,31.334254999999985 L 100.0,31.334254999999985" fill="none" stroke="rgb(53,107,107)" stroke-width="0.1"/>
  <path d="M 69.0000015,100.0 L 69.0000015,0.0" fill="none" stroke="rgb(53,107,107)" stroke-width="0.1"/>
  <path d="M 40.000001499999996,100.0 L 40.000001499999996,0.0" fill="none" stroke="rgb(53,107,107)" stroke-width="0.1"/>
 </g>
 <g id="layerHatch_wall【混凝土墙填充】" inkscape:groupmode="layer" inkscape:label="Hatch_wall【混凝土墙填充】">
  <path d="M 0.0,34.33525500000002 L 8.000001499999996,34.33525500000002" fill="none" stroke="rgb(89,89,89)" stroke-width="0.1"/>
  <path d="M 8.000001499999996,34.33525500000002 L 8.000001499999996,27.335255000000018" fill="none" stroke="rgb(89,89,89)" stroke-width="0.1"/>
  <path d="M 8.000001499999996,27.335255000000018 L 0.0,27.335255000000018" fill="none" stroke="rgb(89,89,89)" stroke-width="0.1"/>
 </g>
 <g id="layerLook_line【看线、投影线】" inkscape:groupmode="layer" inkscape:label="Look_line【看线、投影线】">
  <path d="M 74.0000015,0.0 L 74.0000015,1.334255000000013" fill="none" stroke="rgb(0,178,178)" stroke-width="0.1"/>
 </g>
 <g id="layerPub_text【公共文字标注】" inkscape:groupmode="layer" inkscape:label="Pub_text【公共文字标注】">
  <text fill="rgb(0,0,0)" font-family="Noto Sans CJK SC" font-size="2" transform="rotate(-0.0,31.275001500000002,67.951255)" x="31.275001500000002" y="67.951255">
   前室
  </text>
  <text fill="rgb(0,0,0)" font-family="Noto Sans CJK SC" font-size="2" transform="rotate(-0.0,31.275001500000002,73.951255)" x="31.275001500000002" y="73.951255">
   11.18m
  </text>
  <text fill="rgb(0,0,0)" font-family="Noto Sans CJK SC" font-size="2" transform="rotate(-0.0,44.88500149999999,71.326255)" x="44.88500149999999" y="71.326255">
   2
  </text>
  <text fill="rgb(0,0,0)" font-family="Noto Sans CJK SC" font-size="2" transform="rotate(-0.0,9.960001500000004,39.102255000000014)" x="9.960001500000004" y="39.102255000000014">
   强电
  </text>
  <text fill="rgb(0,0,0)" font-family="Noto Sans CJK SC" font-size="2" transform="rotate(-0.0,54.2680015,22.38325500000002)" x="54.2680015" y="22.38325500000002">
   6.12m
  </text>
  <text fill="rgb(0,0,0)" font-family="Noto Sans CJK SC" font-size="2" transform="rotate(-0.0,65.61000150000001,19.75825500000002)" x="65.61000150000001" y="19.75825500000002">
   2
  </text>
  <text fill="rgb(0,0,0)" font-family="Noto Sans CJK SC" font-size="2" transform="rotate(-0.0,55.972001500000005,14.38325500000002)" x="55.972001500000005" y="14.38325500000002">
   前室
  </text>
  <text fill="rgb(0,0,0)" font-family="Noto Sans CJK SC" font-size="2" transform="rotate(-0.0,11.0840015,86.713255)" x="11.0840015" y="86.713255">
   烟
  </text>
 </g>
 <g id="layerStair【楼梯、电梯】" inkscape:groupmode="layer" inkscape:label="Stair【楼梯、电梯】">
  <path d="M 0.0,90.37449784146344 L 4.750001499999996,93.73425500000002" fill="none" stroke="rgb(44,178,0)" stroke-width="0.1"/>
  <path d="M 0.0,82.5940121585366 L 4.750001499999996,79.23425500000002" fill="none" stroke="rgb(44,178,0)" stroke-width="0.1"/>
  <path d="M 17.200001499999985,6.334254999999985 L 17.200001499999985,0.0" fill="none" instance-id="7" semantic-id="30" stroke="rgb(44,178,0)" stroke-width="0.1"/>
  <path d="M 16.60000149999999,6.334254999999985 L 16.60000149999999,5.834254999999985" fill="none" instance-id="7" semantic-id="30" stroke="rgb(44,178,0)" stroke-width="0.1"/>
  <path d="M 14.400001500000002,5.834254999999985 L 14.400001500000002,0.0" fill="none" instance-id="7" semantic-id="30" stroke="rgb(44,178,0)" stroke-width="0.1"/>
  <path d="M 11.60000149999999,5.834254999999985 L 11.60000149999999,0.0" fill="none" instance-id="7" semantic-id="30" stroke="rgb(44,178,0)" stroke-width="0.1"/>
  <path d="M 8.800001500000008,6.334254999999985 L 8.800001500000008,4.60925499999999" fill="none" instance-id="7" semantic-id="30" stroke="rgb(44,178,0)" stroke-width="0.1"/>
  <path d="M 8.800001500000008,2.6092549999999903 L 8.800001500000008,0.0" fill="none" instance-id="7" semantic-id="30" stroke="rgb(44,178,0)" stroke-width="0.1"/>
  <path d="M 6.000001499999996,6.334254999999985 L 6.000001499999996,0.0" fill="none" instance-id="7" semantic-id="30" stroke="rgb(44,178,0)" stroke-width="0.1"/>
  <path d="M 3.200001499999985,6.334254999999985 L 3.200001499999985,0.0" fill="none" instance-id="7" semantic-id="30" stroke="rgb(44,178,0)" stroke-width="0.1"/>
  <path d="M 0.4000015000000019,6.334254999999985 L 0.4000015000000019,0.0" fill="none" instance-id="7" semantic-id="30" stroke="rgb(44,178,0)" stroke-width="0.1"/>
  <path d="M 17.200001499999985,6.334254999999985 L 10.95100149999999,6.334254999999985" fill="none" instance-id="7" semantic-id="30" stroke="rgb(44,178,0)" stroke-width="0.1"/>
  <path d="M 9.796001499999988,6.334254999999985 L 0.0,6.334254999999985" fill="none" instance-id="7" semantic-id="30" stroke="rgb(44,178,0)" stroke-width="0.1"/>
  <path d="M 10.95100149999999,6.334254999999985 L 7.2933162504008635,0.0" fill="none" instance-id="7" semantic-id="30" stroke="rgb(44,178,0)" stroke-width="0.1"/>
  <path d="M 0.4000015000000019,7.334254999999985 L 0.4000015000000019,27.334254999999985" fill="none" instance-id="7" semantic-id="30" stroke="rgb(44,178,0)" stroke-width="0.1"/>
  <path d="M 3.200001499999985,7.334254999999985 L 3.200001499999985,27.334254999999985" fill="none" instance-id="7" semantic-id="30" stroke="rgb(44,178,0)" stroke-width="0.1"/>
  <path d="M 6.000001499999996,7.334254999999985 L 6.000001499999996,27.334254999999985" fill="none" instance-id="7" semantic-id="30" stroke="rgb(44,178,0)" stroke-width="0.1"/>
  <path d="M 8.800001500000008,7.334254999999985 L 8.800001500000008,27.334254999999985" fill="none" instance-id="7" semantic-id="30" stroke="rgb(44,178,0)" stroke-width="0.1"/>
  <path d="M 11.60000149999999,7.334254999999985 L 11.60000149999999,27.334254999999985" fill="none" instance-id="7" semantic-id="30" stroke="rgb(44,178,0)" stroke-width="0.1"/>
  <path d="M 14.400001500000002,7.334254999999985 L 14.400001500000002,27.334254999999985" fill="none" instance-id="7" semantic-id="30" stroke="rgb(44,178,0)" stroke-width="0.1"/>
  <path d="M 17.200001499999985,7.334254999999985 L 17.200001499999985,27.334254999999985" fill="none" instance-id="7" semantic-id="30" stroke="rgb(44,178,0)" stroke-width="0.1"/>
  <path d="M 0.0,7.334254999999985 L 17.200001499999985,7.334254999999985" fill="none" instance-id="7" semantic-id="30" stroke="rgb(44,178,0)" stroke-width="0.1"/>
  <path d="M 17.200001499999985,7.334254999999985 L 17.200001499999985,6.334254999999985" fill="none" instance-id="7" semantic-id="30" stroke="rgb(44,178,0)" stroke-width="0.1"/>
  <path d="M 16.60000149999999,5.834254999999985 L 10.662001500000002,5.834254999999985" fill="none" instance-id="7" semantic-id="30" stroke="rgb(44,178,0)" stroke-width="0.1"/>
  <path d="M 17.200001499999985,6.334254999999985 L 17.200001499999985,7.334254999999985" fill="none" instance-id="7" semantic-id="30" stroke="rgb(44,178,0)" stroke-width="0.1"/>
  <path d="M 37.200001499999985,6.334254999999985 L 37.19358300592859,5.827600713736217" fill="none" instance-id="7" semantic-id="30" stroke="rgb(44,178,0)" stroke-width="0.1"/>
  <path d="M 37.19358300592859,5.827600713736217 L 37.174331643421056,5.321271623225755" fill="none" instance-id="7" semantic-id="30" stroke="rgb(44,178,0)" stroke-width="0.1"/>
  <path d="M 37.174331643421056,5.321271623225755 L 37.142259768952925,4.8155927154950575" fill="none" instance-id="7" semantic-id="30" stroke="rgb(44,178,0)" stroke-width="0.1"/>
  <path d="M 37.142259768952925,4.8155927154950575 L 37.0973879678379,4.310888560251357" fill="none" instance-id="7" semantic-id="30" stroke="rgb(44,178,0)" stroke-width="0.1"/>
  <path d="M 37.0973879678379,4.310888560251357 L 37.03974504101484,3.807483101557409" fill="none" instance-id="7" semantic-id="30" stroke="rgb(44,178,0)" stroke-width="0.1"/>
  <path d="M 37.03974504101484,3.807483101557409 L 36.96936798656222,3.3056994499084453" fill="none" instance-id="7" semantic-id="30" stroke="rgb(44,178,0)" stroke-width="0.1"/>
  <path d="M 36.96936798656222,3.3056994499084453 L 36.88630197595066,2.8058596748438163" fill="none" instance-id="7" semantic-id="30" stroke="rgb(44,178,0)" stroke-width="0.1"/>
  <path d="M 36.88630197595066,2.8058596748438163 L 36.790600325049866,2.308284598226777" fill="none" instance-id="7" semantic-id="30" stroke="rgb(44,178,0)" stroke-width="0.1"/>
  <path d="M 36.790600325049866,2.308284598226777 L 36.68232445990773,1.8132935883252799" fill="none" instance-id="7" semantic-id="30" stroke="rgb(44,178,0)" stroke-width="0.1"/>
  <path d="M 36.68232445990773,1.8132935883252799 L 36.561543877324084,1.3212043548255679" fill="none" instance-id="7" semantic-id="30" stroke="rgb(44,178,0)" stroke-width="0.1"/>
  <path d="M 36.561543877324084,1.3212043548255679 L 36.42833610024422,0.832332744910417" fill="none" instance-id="7" semantic-id="30" stroke="rgb(44,178,0)" stroke-width="0.1"/>
  <path d="M 36.42833610024422,0.832332744910417 L 36.28278662800096,0.346992540532824" fill="none" instance-id="7" semantic-id="30" stroke="rgb(44,178,0)" stroke-width="0.1"/>
  <path d="M 37.200001499999985,6.334254999999985 L 37.200001499999985,7.334254999999985" fill="none" instance-id="7" semantic-id="30" stroke="rgb(44,178,0)" stroke-width="0.1"/>
  <path d="M 17.200001499999985,27.334254999999985 A 20.0,20.0 0.0 0,0 37.200001499999985,7.334254999999985" fill="none" instance-id="7" semantic-id="30" stroke="rgb(44,178,0)" stroke-width="0.1"/>
  <path d="M 0.0,98.23425500000002 L 2.750001499999996,98.23425500000002" fill="none" stroke="rgb(44,178,0)" stroke-width="0.1"/>
  <path d="M 2.750001499999996,98.23425500000002 L 2.750001499999996,96.73425500000002" fill="none" stroke="rgb(44,178,0)" stroke-width="0.1"/>
  <path d="M 2.750001499999996,96.73425500000002 L 0.0,96.73425500000002" fill="none" stroke="rgb(44,178,0)" stroke-width="0.1"/>
  <path d="M 0.0,93.73425500000002 L 4.750001499999996,93.73425500000002" fill="none" stroke="rgb(44,178,0)" stroke-width="0.1"/>
  <path d="M 4.750001499999996,93.73425500000002 L 4.750001499999996,79.23425500000002" fill="none" stroke="rgb(44,178,0)" stroke-width="0.1"/>
  <path d="M 4.750001499999996,79.23425500000002 L 0.0,79.23425500000002" fill="none" stroke="rgb(44,178,0)" stroke-width="0.1"/>
 </g>
 <g id="layerWINDOW" inkscape:groupmode="layer" inkscape:label="WINDOW">
  <path d="M 1.9670015000000092,75.92425500000002 L 1.9670015000000092,75.71525500000001" fill="none" stroke="rgb(0,178,178)" stroke-width="0.1"/>
  <path d="M 0.0,75.71525500000001 L 1.9670015000000092,75.71525500000001" fill="none" stroke="rgb(0,178,178)" stroke-width="0.1"/>
  <path d="M 0.0,75.92425500000002 L 1.9670015000000092,75.92425500000002" fill="none" stroke="rgb(0,178,178)" stroke-width="0.1"/>
  <path d="M 0.0,75.33425499999998 L 1.5000014999999962,75.33425499999998" fill="none" stroke="rgb(0,178,178)" stroke-width="0.1"/>
 </g>
 <g id="layerWall【砖墙】" inkscape:groupmode="layer" inkscape:label="Wall【砖墙】">
  <path d="M 10.000001499999996,92.83425499999998 L 16.000001499999996,92.83425499999998" fill="none" instance-id="-1" semantic-id="1" stroke="rgb(178,178,0)" stroke-width="0.1"/>
  <path d="M 10.000001499999996,94.83425499999998 L 17.000001499999996,94.83425499999998" fill="none" instance-id="-1" semantic-id="1" stroke="rgb(178,178,0)" stroke-width="0.1"/>
  <path d="M 8.000001499999996,100.0 L 8.000001499999996,93.83425499999998" fill="none" instance-id="-1" semantic-id="1" stroke="rgb(178,178,0)" stroke-width="0.1"/>
  <path d="M 10.000001499999996,100.0 L 10.000001499999996,94.83425499999998" fill="none" instance-id="-1" semantic-id="1" stroke="rgb(178,178,0)" stroke-width="0.1"/>
  <path d="M 9.000001499999996,73.33425499999998 L 1.5000014999999962,73.33425499999998" fill="none" instance-id="-1" semantic-id="1" stroke="rgb(178,178,0)" stroke-width="0.1"/>
  <path d="M 1.5000014999999962,73.33425499999998 L 1.5000014999999962,75.33425499999998" fill="none" instance-id="-1" semantic-id="1" stroke="rgb(178,178,0)" stroke-width="0.1"/>
  <path d="M 1.5000014999999962,75.33425499999998 L 8.000001499999996,75.33425499999998" fill="none" instance-id="-1" semantic-id="1" stroke="rgb(178,178,0)" stroke-width="0.1"/>
  <path d="M 8.000001499999996,93.83425499999998 L 8.000001499999996,75.33425499999998" fill="none" instance-id="-1" semantic-id="1" stroke="rgb(178,178,0)" stroke-width="0.1"/>
  <path d="M 10.000001499999996,92.83425499999998 L 10.000001499999996,75.33425499999998" fill="none" instance-id="-1" semantic-id="1" stroke="rgb(178,178,0)" stroke-width="0.1"/>
  <path d="M 16.000001499999996,92.83425499999998 L 16.000001499999996,75.33425499999998" fill="none" instance-id="-1" semantic-id="1" stroke="rgb(178,178,0)" stroke-width="0.1"/>
  <path d="M 18.000001499999996,92.83425499999998 L 18.000001499999996,74.33425499999998" fill="none" instance-id="-1" semantic-id="1" stroke="rgb(178,178,0)" stroke-width="0.1"/>
  <path d="M 25.000001499999996,94.83425499999998 L 28.000001499999996,94.83425499999998" fill="none" instance-id="-1" semantic-id="1" stroke="rgb(178,178,0)" stroke-width="0.1"/>
  <path d="M 28.000001499999996,94.83425499999998 L 28.000001499999996,92.83425499999998" fill="none" instance-id="-1" semantic-id="1" stroke="rgb(178,178,0)" stroke-width="0.1"/>
  <path d="M 28.000001499999996,92.83425499999998 L 24.000001499999996,92.83425499999998" fill="none" instance-id="-1" semantic-id="1" stroke="rgb(178,178,0)" stroke-width="0.1"/>
  <path d="M 44.500001499999996,92.83425499999998 L 38.000001499999996,92.83425499999998" fill="none" instance-id="-1" semantic-id="1" stroke="rgb(178,178,0)" stroke-width="0.1"/>
  <path d="M 38.000001499999996,92.83425499999998 L 38.000001499999996,94.83425499999998" fill="none" instance-id="-1" semantic-id="1" stroke="rgb(178,178,0)" stroke-width="0.1"/>
  <path d="M 38.000001499999996,94.83425499999998 L 46.500001499999996,94.83425499999998" fill="none" instance-id="-1" semantic-id="1" stroke="rgb(178,178,0)" stroke-width="0.1"/>
  <path d="M 46.500001499999996,29.334254999999985 L 46.500001499999996,46.334254999999985" fill="none" instance-id="-1" semantic-id="1" stroke="rgb(178,178,0)" stroke-width="0.1"/>
  <path d="M 44.500001499999996,29.334254999999985 L 44.500001499999996,46.334254999999985" fill="none" instance-id="-1" semantic-id="1" stroke="rgb(178,178,0)" stroke-width="0.1"/>
  <path d="M 23.000001499999996,100.0 L 23.000001499999996,94.83425499999998" fill="none" instance-id="-1" semantic-id="1" stroke="rgb(178,178,0)" stroke-width="0.1"/>
  <path d="M 25.000001499999996,100.0 L 25.000001499999996,94.83425499999998" fill="none" instance-id="-1" semantic-id="1" stroke="rgb(178,178,0)" stroke-width="0.1"/>
  <path d="M 46.500001499999996,27.334254999999985 L 72.0000015,27.334254999999985" fill="none" instance-id="-1" semantic-id="1" stroke="rgb(178,178,0)" stroke-width="0.1"/>
  <path d="M 45.500001499999996,29.334254999999985 L 74.0000015,29.334254999999985" fill="none" instance-id="-1" semantic-id="1" stroke="rgb(178,178,0)" stroke-width="0.1"/>
  <path d="M 46.500001499999996,0.0 L 46.500001499999996,1.334255000000013" fill="none" instance-id="-1" semantic-id="1" stroke="rgb(178,178,0)" stroke-width="0.1"/>
  <path d="M 44.500001499999996,0.0 L 44.500001499999996,2.334255000000013" fill="none" instance-id="-1" semantic-id="1" stroke="rgb(178,178,0)" stroke-width="0.1"/>
  <path d="M 72.0000015,3.334255000000013 L 72.0000015,6.334254999999985" fill="none" instance-id="-1" semantic-id="1" stroke="rgb(178,178,0)" stroke-width="0.1"/>
  <path d="M 72.0000015,6.334254999999985 L 74.0000015,6.334254999999985" fill="none" instance-id="-1" semantic-id="1" stroke="rgb(178,178,0)" stroke-width="0.1"/>
  <path d="M 74.0000015,6.334254999999985 L 74.0000015,1.334255000000013" fill="none" instance-id="-1" semantic-id="1" stroke="rgb(178,178,0)" stroke-width="0.1"/>
  <path d="M 74.0000015,29.334254999999985 L 74.0000015,27.334254999999985" fill="none" instance-id="-1" semantic-id="1" stroke="rgb(178,178,0)" stroke-width="0.1"/>
  <path d="M 74.0000015,27.334254999999985 L 72.0000015,27.334254999999985" fill="none" instance-id="-1" semantic-id="1" stroke="rgb(178,178,0)" stroke-width="0.1"/>
  <path d="M 44.500001499999996,2.334255000000013 L 44.500001499999996,6.334254999999985" fill="none" instance-id="-1" semantic-id="1" stroke="rgb(178,178,0)" stroke-width="0.1"/>
  <path d="M 44.500001499999996,6.334254999999985 L 46.500001499999996,6.334254999999985" fill="none" instance-id="-1" semantic-id="1" stroke="rgb(178,178,0)" stroke-width="0.1"/>
  <path d="M 46.500001499999996,6.334254999999985 L 46.500001499999996,3.334255000000013" fill="none" instance-id="-1" semantic-id="1" stroke="rgb(178,178,0)" stroke-width="0.1"/>
  <path d="M 44.500001499999996,27.334254999999985 L 46.500001499999996,27.334254999999985" fill="none" instance-id="-1" semantic-id="1" stroke="rgb(178,178,0)" stroke-width="0.1"/>
  <path d="M 46.500001499999996,1.334255000000013 L 52.25300149999998,1.334255000000013" fill="none" instance-id="-1" semantic-id="1" stroke="rgb(178,178,0)" stroke-width="0.1"/>
  <path d="M 46.500001499999996,3.334255000000013 L 55.98500150000001,3.334255000000013" fill="none" instance-id="-1" semantic-id="1" stroke="rgb(178,178,0)" stroke-width="0.1"/>
  <path d="M 18.000001499999996,92.83425499999998 L 24.000001499999996,92.83425499999998" fill="none" instance-id="-1" semantic-id="1" stroke="rgb(178,178,0)" stroke-width="0.1"/>
  <path d="M 17.000001499999996,94.83425499999998 L 23.000001499999996,94.83425499999998" fill="none" instance-id="-1" semantic-id="1" stroke="rgb(178,178,0)" stroke-width="0.1"/>
  <path d="M 16.000001499999996,75.33425499999998 L 10.000001499999996,75.33425499999998" fill="none" instance-id="-1" semantic-id="1" stroke="rgb(178,178,0)" stroke-width="0.1"/>
  <path d="M 16.000001499999996,73.33425499999998 L 9.000001499999996,73.33425499999998" fill="none" instance-id="-1" semantic-id="1" stroke="rgb(178,178,0)" stroke-width="0.1"/>
  <path d="M 0.0,27.334254999999985 L 44.500001499999996,27.334254999999985" fill="none" instance-id="-1" semantic-id="1" stroke="rgb(178,178,0)" stroke-width="0.1"/>
  <path d="M 1.499999996212864e-06,29.334254999999985 L 45.500001499999996,29.334254999999985" fill="none" instance-id="-1" semantic-id="1" stroke="rgb(178,178,0)" stroke-width="0.1"/>
  <path d="M 18.000001499999996,74.33425499999998 L 18.000001499999996,66.33425499999998" fill="none" instance-id="-1" semantic-id="1" stroke="rgb(178,178,0)" stroke-width="0.1"/>
  <path d="M 18.000001499999996,66.33425499999998 L 16.000001499999996,66.33425499999998" fill="none" instance-id="-1" semantic-id="1" stroke="rgb(178,178,0)" stroke-width="0.1"/>
  <path d="M 16.000001499999996,66.33425499999998 L 16.000001499999996,73.33425499999998" fill="none" instance-id="-1" semantic-id="1" stroke="rgb(178,178,0)" stroke-width="0.1"/>
  <path d="M 16.000001499999996,48.334254999999985 L 16.000001499999996,56.334254999999985" fill="none" instance-id="-1" semantic-id="1" stroke="rgb(178,178,0)" stroke-width="0.1"/>
  <path d="M 16.000001499999996,56.334254999999985 L 18.000001499999996,56.334254999999985" fill="none" instance-id="-1" semantic-id="1" stroke="rgb(178,178,0)" stroke-width="0.1"/>
  <path d="M 18.000001499999996,56.334254999999985 L 18.000001499999996,48.334254999999985" fill="none" instance-id="-1" semantic-id="1" stroke="rgb(178,178,0)" stroke-width="0.1"/>
  <path d="M 46.500001499999996,94.83425499999998 L 46.500001499999996,100.0" fill="none" instance-id="-1" semantic-id="1" stroke="rgb(178,178,0)" stroke-width="0.1"/>
  <path d="M 44.500001499999996,94.83425499999998 L 44.500001499999996,100.0" fill="none" instance-id="-1" semantic-id="1" stroke="rgb(178,178,0)" stroke-width="0.1"/>
  <path d="M 1.499999996212864e-06,46.334254999999985 L 1.499999996212864e-06,29.334254999999985" fill="none" instance-id="-1" semantic-id="1" stroke="rgb(178,178,0)" stroke-width="0.1"/>
  <path d="M 0.0,48.334254999999985 L 5.000001499999996,48.334254999999985" fill="none" instance-id="-1" semantic-id="1" stroke="rgb(178,178,0)" stroke-width="0.1"/>
  <path d="M 5.000001499999996,48.334254999999985 L 5.000001499999996,46.334254999999985" fill="none" instance-id="-1" semantic-id="1" stroke="rgb(178,178,0)" stroke-width="0.1"/>
  <path d="M 5.000001499999996,46.334254999999985 L 1.499999996212864e-06,46.334254999999985" fill="none" instance-id="-1" semantic-id="1" stroke="rgb(178,178,0)" stroke-width="0.1"/>
  <path d="M 17.000001499999996,46.334254999999985 L 15.000001499999996,46.334254999999985" fill="none" instance-id="-1" semantic-id="1" stroke="rgb(178,178,0)" stroke-width="0.1"/>
  <path d="M 15.000001499999996,46.334254999999985 L 15.000001499999996,48.334254999999985" fill="none" instance-id="-1" semantic-id="1" stroke="rgb(178,178,0)" stroke-width="0.1"/>
  <path d="M 15.000001499999996,48.334254999999985 L 16.000001499999996,48.334254999999985" fill="none" instance-id="-1" semantic-id="1" stroke="rgb(178,178,0)" stroke-width="0.1"/>
  <path d="M 46.500001499999996,46.334254999999985 L 46.500001499999996,94.83425499999998" fill="none" instance-id="-1" semantic-id="1" stroke="rgb(178,178,0)" stroke-width="0.1"/>
  <path d="M 44.500001499999996,48.334254999999985 L 44.500001499999996,92.83425499999998" fill="none" instance-id="-1" semantic-id="1" stroke="rgb(178,178,0)" stroke-width="0.1"/>
  <path d="M 17.000001499999996,46.334254999999985 L 46.500001499999996,46.334254999999985" fill="none" instance-id="-1" semantic-id="1" stroke="rgb(178,178,0)" stroke-width="0.1"/>
  <path d="M 18.000001499999996,48.334254999999985 L 44.500001499999996,48.334254999999985" fill="none" instance-id="-1" semantic-id="1" stroke="rgb(178,178,0)" stroke-width="0.1"/>
  <path d="M 56.25300149999998,1.334255000000013 L 74.0000015,1.334255000000013" fill="none" instance-id="-1" semantic-id="1" stroke="rgb(178,178,0)" stroke-width="0.1"/>
  <path d="M 55.98500150000001,3.334255000000013 L 72.0000015,3.334255000000013" fill="none" instance-id="-1" semantic-id="1" stroke="rgb(178,178,0)" stroke-width="0.1"/>
  <path d="M 53.941780598665275,0.0 L 56.25300149999998,1.334255000000013" fill="none" instance-id="-1" semantic-id="1" stroke="rgb(178,178,0)" stroke-width="0.1"/>
  <path d="M 49.941658827612116,0.0 L 52.25300149999998,1.334255000000013" fill="none" instance-id="-1" semantic-id="1" stroke="rgb(178,178,0)" stroke-width="0.1"/>
 </g>
</svg>