<?xml version="1.0" encoding="utf-8"?>
<svg style="background-color: #000;" version="1.1" viewBox="0 0 100.0 100.0" xmlns="http://www.w3.org/2000/svg" xmlns:inkscape="http://www.inkscape.org/namespaces/inkscape">
 <g id="layer0-AA数字报建关闭KTV门" inkscape:groupmode="layer" inkscape:label="0-AA数字报建关闭KTV门">
  <path d="M 65.38292350000002,60.30450000000002 L 57.21092350000002,60.30450000000002" fill="none" instance-id="1" semantic-id="3" stroke="rgb(0,178,0)" stroke-width="0.1"/>
  <path d="M 57.21092350000002,59.85050000000001 L 65.38292350000002,59.85050000000001" fill="none" instance-id="1" semantic-id="3" stroke="rgb(0,178,0)" stroke-width="0.1"/>
  <path d="M 58.11892350000002,59.85050000000001 L 58.11892350000002,60.30450000000002" fill="none" instance-id="1" semantic-id="3" stroke="rgb(0,178,0)" stroke-width="0.1"/>
  <path d="M 59.026923500000024,59.85050000000001 L 59.026923500000024,60.30450000000002" fill="none" instance-id="1" semantic-id="3" stroke="rgb(0,178,0)" stroke-width="0.1"/>
  <path d="M 59.934923500000025,59.85050000000001 L 59.934923500000025,60.30450000000002" fill="none" instance-id="1" semantic-id="3" stroke="rgb(0,178,0)" stroke-width="0.1"/>
  <path d="M 57.21092350000002,59.3965 L 57.21092350000002,59.85050000000001" fill="none" instance-id="1" semantic-id="3" stroke="rgb(0,178,0)" stroke-width="0.1"/>
  <path d="M 57.21092350000002,60.30450000000002 L 57.21092350000002,59.85050000000001" fill="none" instance-id="1" semantic-id="3" stroke="rgb(0,178,0)" stroke-width="0.1"/>
  <path d="M 56.75692350000003,60.30450000000002 L 56.30292350000002,60.30450000000002" fill="none" instance-id="1" semantic-id="3" stroke="rgb(0,178,0)" stroke-width="0.1"/>
  <path d="M 56.30292350000002,60.30450000000002 L 56.30292350000002,59.3965" fill="none" instance-id="1" semantic-id="3" stroke="rgb(0,178,0)" stroke-width="0.1"/>
  <path d="M 56.75692350000003,59.85050000000001 L 56.75692350000003,60.30450000000002" fill="none" instance-id="1" semantic-id="3" stroke="rgb(0,178,0)" stroke-width="0.1"/>
  <path d="M 57.21092350000002,59.85050000000001 L 56.75692350000003,59.85050000000001" fill="none" instance-id="1" semantic-id="3" stroke="rgb(0,178,0)" stroke-width="0.1"/>
  <path d="M 56.30292350000002,59.3965 L 57.21092350000002,59.3965" fill="none" instance-id="1" semantic-id="3" stroke="rgb(0,178,0)" stroke-width="0.1"/>
  <path d="M 60.842923500000026,59.85050000000001 L 60.842923500000026,60.30450000000002" fill="none" instance-id="1" semantic-id="3" stroke="rgb(0,178,0)" stroke-width="0.1"/>
  <path d="M 61.75092350000003,59.85050000000001 L 61.75092350000003,60.30450000000002" fill="none" instance-id="1" semantic-id="3" stroke="rgb(0,178,0)" stroke-width="0.1"/>
  <path d="M 62.65892350000003,59.85050000000001 L 62.65892350000003,60.30450000000002" fill="none" instance-id="1" semantic-id="3" stroke="rgb(0,178,0)" stroke-width="0.1"/>
  <path d="M 63.566923500000016,59.85050000000001 L 63.566923500000016,60.30450000000002" fill="none" instance-id="1" semantic-id="3" stroke="rgb(0,178,0)" stroke-width="0.1"/>
  <path d="M 64.47492350000002,59.85050000000001 L 64.47492350000002,60.30450000000002" fill="none" instance-id="1" semantic-id="3" stroke="rgb(0,178,0)" stroke-width="0.1"/>
  <path d="M 65.38292350000002,59.85050000000001 L 65.38292350000002,60.30450000000002" fill="none" instance-id="1" semantic-id="3" stroke="rgb(0,178,0)" stroke-width="0.1"/>
  <path d="M 64.02692350000002,60.688499999999976 L 62.279923500000024,60.688499999999976" fill="none" instance-id="1" semantic-id="3" stroke="rgb(0,178,0)" stroke-width="0.1"/>
  <path d="M 64.02692350000002,59.466499999999996 L 62.279923500000024,59.466499999999996" fill="none" instance-id="1" semantic-id="3" stroke="rgb(0,178,0)" stroke-width="0.1"/>
  <path d="M 57.21092350000002,69.3845 L 57.21092350000002,68.9305" fill="none" instance-id="1" semantic-id="3" stroke="rgb(0,178,0)" stroke-width="0.1"/>
  <path d="M 56.75692350000003,68.9305 L 56.75692350000003,68.47649999999999" fill="none" instance-id="1" semantic-id="3" stroke="rgb(0,178,0)" stroke-width="0.1"/>
  <path d="M 56.75692350000003,68.47649999999999 L 56.30292350000002,68.47649999999999" fill="none" instance-id="1" semantic-id="3" stroke="rgb(0,178,0)" stroke-width="0.1"/>
  <path d="M 56.30292350000002,68.47649999999999 L 56.30292350000002,69.3845" fill="none" instance-id="1" semantic-id="3" stroke="rgb(0,178,0)" stroke-width="0.1"/>
  <path d="M 56.30292350000002,69.3845 L 57.21092350000002,69.3845" fill="none" instance-id="1" semantic-id="3" stroke="rgb(0,178,0)" stroke-width="0.1"/>
  <path d="M 57.21092350000002,68.9305 L 56.75692350000003,68.9305" fill="none" instance-id="1" semantic-id="3" stroke="rgb(0,178,0)" stroke-width="0.1"/>
  <path d="M 64.02692350000002,59.466499999999996 L 64.02692350000002,59.85050000000001" fill="none" instance-id="1" semantic-id="3" stroke="rgb(0,178,0)" stroke-width="0.1"/>
  <path d="M 64.02692350000002,60.688499999999976 L 64.02692350000002,60.30450000000002" fill="none" instance-id="1" semantic-id="3" stroke="rgb(0,178,0)" stroke-width="0.1"/>
  <path d="M 62.279923500000024,60.688499999999976 L 62.279923500000024,60.30450000000002" fill="none" instance-id="1" semantic-id="3" stroke="rgb(0,178,0)" stroke-width="0.1"/>
  <path d="M 62.279923500000024,59.466499999999996 L 62.279923500000024,59.85050000000001" fill="none" instance-id="1" semantic-id="3" stroke="rgb(0,178,0)" stroke-width="0.1"/>
  <path d="M 57.21092350000002,68.9305 A 8.17204,8.17204 0.0 0,0 65.38292350000002,60.30450000000002" fill="none" instance-id="1" semantic-id="3" stroke="rgb(0,178,0)" stroke-width="0.1"/>
 </g>
 <g id="layer0-AA数字报建关闭KTV隔间" inkscape:groupmode="layer" inkscape:label="0-AA数字报建关闭KTV隔间">
  <path d="M 55.49992350000002,56.402499999999975 L 55.49992350000002,59.402499999999975" fill="none" instance-id="-1" semantic-id="1" stroke="rgb(178,0,178)" stroke-width="0.1"/>
  <path d="M 55.49992350000002,59.402499999999975 L 57.49992350000002,59.402499999999975" fill="none" instance-id="-1" semantic-id="1" stroke="rgb(178,0,178)" stroke-width="0.1"/>
  <path d="M 57.49992350000002,59.402499999999975 L 57.49992350000002,58.402499999999975" fill="none" instance-id="-1" semantic-id="1" stroke="rgb(178,0,178)" stroke-width="0.1"/>
  <path d="M 55.49992350000002,69.40249999999997 L 55.49992350000002,100.0" fill="none" instance-id="-1" semantic-id="1" stroke="rgb(178,0,178)" stroke-width="0.1"/>
  <path d="M 57.49992350000002,100.0 L 57.49992350000002,69.40249999999997" fill="none" instance-id="-1" semantic-id="1" stroke="rgb(178,0,178)" stroke-width="0.1"/>
  <path d="M 57.49992350000002,69.40249999999997 L 55.49992350000002,69.40249999999997" fill="none" instance-id="-1" semantic-id="1" stroke="rgb(178,0,178)" stroke-width="0.1"/>
  <path d="M 55.49992350000002,56.402499999999975 L 99.49992350000002,56.402499999999975" fill="none" instance-id="-1" semantic-id="1" stroke="rgb(178,0,178)" stroke-width="0.1"/>
  <path d="M 57.49992350000002,58.402499999999975 L 99.49992350000002,58.402499999999975" fill="none" instance-id="-1" semantic-id="1" stroke="rgb(178,0,178)" stroke-width="0.1"/>
  <path d="M 99.49992350000002,56.402499999999975 L 99.49992350000002,58.402499999999975" fill="none" instance-id="-1" semantic-id="1" stroke="rgb(178,0,178)" stroke-width="0.1"/>
  <text fill="rgb(178,0,178)" font-family="Noto Sans CJK SC" font-size="2" transform="rotate(-0.0,84.27892350000002,97.89949999999999)" x="84.27892350000002" y="97.89949999999999">
   KTV
  </text>
  <text fill="rgb(178,0,178)" font-family="Noto Sans CJK SC" font-size="2" transform="rotate(-90.0,52.52492350000003,71.82749999999999)" x="52.52492350000003" y="71.82749999999999">
   FM乙1023
  </text>
  <text fill="rgb(178,0,178)" font-family="Noto Sans CJK SC" font-size="2" transform="rotate(-0.0,23.108923500000017,31.606499999999983)" x="23.108923500000017" y="31.606499999999983">
   KTV大堂
  </text>
 </g>
 <g id="layer0-幕墙编号" inkscape:groupmode="layer" inkscape:label="0-幕墙编号">
  <text fill="rgb(0,178,178)" font-family="Noto Sans CJK SC" font-size="2" transform="rotate(-315.0,64.69092350000003,27.10949999999997)" x="64.69092350000003" y="27.10949999999997">
   BLMQ6
  </text>
 </g>
 <g id="layer0-梁线" inkscape:groupmode="layer" inkscape:label="0-梁线">
  <path d="M 99.49992350000002,60.27350000000001 L 11.560393184629135,0.0" fill="none" stroke="rgb(63,63,63)" stroke-width="0.1"/>
  <path d="M 23.94164370272898,0.0 L 100.0,52.12981644967243" fill="none" stroke="rgb(63,63,63)" stroke-width="0.1"/>
 </g>
 <g id="layer0-结构板线" inkscape:groupmode="layer" inkscape:label="0-结构板线">
  <path d="M 100.0,43.90256221435675 L 56.097487960000024,0.0" fill="none" stroke="rgb(0,0,178)" stroke-width="0.1"/>
 </g>
 <g id="layerCW_glass【玻璃幕墙】" inkscape:groupmode="layer" inkscape:label="CW_glass【玻璃幕墙】">
  <path d="M 100.0,39.65957649999996 L 71.03292350000001,10.692499999999995" fill="none" instance-id="-1" semantic-id="2" stroke="rgb(0,142,71)" stroke-width="0.1"/>
  <path d="M 100.0,40.36657649999995 L 70.67892350000002,11.045500000000004" fill="none" instance-id="-1" semantic-id="2" stroke="rgb(0,142,71)" stroke-width="0.1"/>
  <path d="M 71.03292350000001,10.692499999999995 L 68.91092350000002,12.813499999999976" fill="none" instance-id="-1" semantic-id="2" stroke="rgb(0,142,71)" stroke-width="0.1"/>
  <path d="M 86.58892350000002,30.491499999999974 L 100.0,43.90257649999995" fill="none" instance-id="-1" semantic-id="2" stroke="rgb(0,142,71)" stroke-width="0.1"/>
 </g>
 <g id="layerCW_stone【石材幕墙】" inkscape:groupmode="layer" inkscape:label="CW_stone【石材幕墙】">
  <path d="M 68.91092350000002,12.813499999999976 L 71.03292350000001,10.692499999999995" fill="none" stroke="rgb(107,79,53)" stroke-width="0.1"/>
  <path d="M 71.03292350000001,10.692499999999995 L 60.34042350000003,0.0" fill="none" instance-id="-1" semantic-id="33" stroke="rgb(107,79,53)" stroke-width="0.1"/>
  <path d="M 68.55792350000003,12.460499999999968 L 70.32592350000002,10.692499999999995" fill="none" instance-id="-1" semantic-id="33" stroke="rgb(107,79,53)" stroke-width="0.1"/>
  <path d="M 70.32592350000002,10.692499999999995 L 59.63342350000002,0.0" fill="none" instance-id="-1" semantic-id="33" stroke="rgb(107,79,53)" stroke-width="0.1"/>
 </g>
 <g id="layerColumn【柱】" inkscape:groupmode="layer" inkscape:label="Column【柱】">
  <path d="M 100.0,56.402499999999975 L 99.49992350000002,56.402499999999975" fill="none" stroke="rgb(178,0,178)" stroke-width="0.1"/>
  <path d="M 99.49992350000002,56.402499999999975 L 99.49992350000002,69.40249999999997" fill="none" stroke="rgb(178,0,178)" stroke-width="0.1"/>
  <path d="M 99.49992350000002,69.40249999999997 L 100.0,69.40249999999997" fill="none" stroke="rgb(178,0,178)" stroke-width="0.1"/>
 </g>
 <g id="layerDOOR_FIRE" inkscape:groupmode="layer" inkscape:label="DOOR_FIRE">
  <path d="M 8.200123500000018,38.60250000000002 L 8.200123500000018,39.30250000000001" fill="none" instance-id="2" semantic-id="4" stroke="rgb(0,178,178)" stroke-width="0.1"/>
  <path d="M 7.500123500000029,38.60250000000002 L 0.0,38.60250000000002" fill="none" instance-id="2" semantic-id="4" stroke="rgb(0,178,178)" stroke-width="0.1"/>
  <path d="M 0.0,39.30250000000001 L 7.500123500000029,39.30250000000001" fill="none" instance-id="2" semantic-id="4" stroke="rgb(0,178,178)" stroke-width="0.1"/>
  <path d="M 6.100123500000024,38.60250000000002 L 6.100123500000024,39.30250000000001" fill="none" instance-id="2" semantic-id="4" stroke="rgb(0,178,178)" stroke-width="0.1"/>
  <path d="M 7.500123500000029,39.30250000000001 L 7.500123500000029,38.60250000000002" fill="none" instance-id="2" semantic-id="4" stroke="rgb(0,178,178)" stroke-width="0.1"/>
  <path d="M 0.0,38.01049999999998 L 2.3889235000000255,38.01049999999998" fill="none" instance-id="2" semantic-id="4" stroke="rgb(0,178,178)" stroke-width="0.1"/>
  <path d="M 0.0,39.894499999999994 L 2.3889235000000255,39.894499999999994" fill="none" instance-id="2" semantic-id="4" stroke="rgb(0,178,178)" stroke-width="0.1"/>
  <path d="M 4.700123500000025,38.60250000000002 L 4.700123500000025,39.30250000000001" fill="none" instance-id="2" semantic-id="4" stroke="rgb(0,178,178)" stroke-width="0.1"/>
  <path d="M 3.3001235000000193,38.60250000000002 L 3.3001235000000193,39.30250000000001" fill="none" instance-id="2" semantic-id="4" stroke="rgb(0,178,178)" stroke-width="0.1"/>
  <path d="M 1.9001235000000207,38.60250000000002 L 1.9001235000000207,39.30250000000001" fill="none" instance-id="2" semantic-id="4" stroke="rgb(0,178,178)" stroke-width="0.1"/>
  <path d="M 0.5001235000000221,38.60250000000002 L 0.5001235000000221,39.30250000000001" fill="none" instance-id="2" semantic-id="4" stroke="rgb(0,178,178)" stroke-width="0.1"/>
  <path d="M 8.200123500000018,39.30250000000001 L 8.90012350000002,39.30250000000001" fill="none" instance-id="2" semantic-id="4" stroke="rgb(0,178,178)" stroke-width="0.1"/>
  <path d="M 7.500123500000029,38.60250000000002 L 8.200123500000018,38.60250000000002" fill="none" instance-id="2" semantic-id="4" stroke="rgb(0,178,178)" stroke-width="0.1"/>
  <path d="M 7.500123500000029,37.902499999999975 L 7.500123500000029,38.60250000000002" fill="none" instance-id="2" semantic-id="4" stroke="rgb(0,178,178)" stroke-width="0.1"/>
  <path d="M 8.90012350000002,37.902499999999975 L 7.500123500000029,37.902499999999975" fill="none" instance-id="2" semantic-id="4" stroke="rgb(0,178,178)" stroke-width="0.1"/>
  <path d="M 8.90012350000002,39.30250000000001 L 8.90012350000002,37.902499999999975" fill="none" instance-id="2" semantic-id="4" stroke="rgb(0,178,178)" stroke-width="0.1"/>
  <path d="M 7.500123500000029,58.202499999999986 L 8.200123500000018,58.202499999999986" fill="none" instance-id="2" semantic-id="4" stroke="rgb(0,178,178)" stroke-width="0.1"/>
  <path d="M 7.500123500000029,58.902499999999975 L 7.500123500000029,58.202499999999986" fill="none" instance-id="2" semantic-id="4" stroke="rgb(0,178,178)" stroke-width="0.1"/>
  <path d="M 7.500123500000029,57.5025 L 7.500123500000029,58.202499999999986" fill="none" instance-id="2" semantic-id="4" stroke="rgb(0,178,178)" stroke-width="0.1"/>
  <path d="M 0.0,57.5025 L 7.500123500000029,57.5025" fill="none" instance-id="2" semantic-id="4" stroke="rgb(0,178,178)" stroke-width="0.1"/>
  <path d="M 8.90012350000002,58.902499999999975 L 7.500123500000029,58.902499999999975" fill="none" instance-id="2" semantic-id="4" stroke="rgb(0,178,178)" stroke-width="0.1"/>
  <path d="M 7.500123500000029,58.202499999999986 L 0.0,58.202499999999986" fill="none" instance-id="2" semantic-id="4" stroke="rgb(0,178,178)" stroke-width="0.1"/>
  <path d="M 7.500123500000029,57.5025 L 7.500123500000029,58.202499999999986" fill="none" instance-id="2" semantic-id="4" stroke="rgb(0,178,178)" stroke-width="0.1"/>
  <path d="M 8.90012350000002,58.902499999999975 L 7.500123500000029,58.902499999999975" fill="none" instance-id="2" semantic-id="4" stroke="rgb(0,178,178)" stroke-width="0.1"/>
  <path d="M 7.500123500000029,58.202499999999986 L 0.0,58.202499999999986" fill="none" instance-id="2" semantic-id="4" stroke="rgb(0,178,178)" stroke-width="0.1"/>
  <path d="M 7.500123500000029,58.202499999999986 L 8.200123500000018,58.202499999999986" fill="none" instance-id="2" semantic-id="4" stroke="rgb(0,178,178)" stroke-width="0.1"/>
  <path d="M 8.200123500000018,57.5025 L 8.90012350000002,57.5025" fill="none" instance-id="2" semantic-id="4" stroke="rgb(0,178,178)" stroke-width="0.1"/>
  <path d="M 8.200123500000018,58.202499999999986 L 8.200123500000018,57.5025" fill="none" instance-id="2" semantic-id="4" stroke="rgb(0,178,178)" stroke-width="0.1"/>
  <path d="M 8.90012350000002,57.5025 L 8.90012350000002,58.902499999999975" fill="none" instance-id="2" semantic-id="4" stroke="rgb(0,178,178)" stroke-width="0.1"/>
  <path d="M 0.5001235000000221,58.202499999999986 L 0.5001235000000221,57.5025" fill="none" instance-id="2" semantic-id="4" stroke="rgb(0,178,178)" stroke-width="0.1"/>
  <path d="M 1.9001235000000207,58.202499999999986 L 1.9001235000000207,57.5025" fill="none" instance-id="2" semantic-id="4" stroke="rgb(0,178,178)" stroke-width="0.1"/>
  <path d="M 0.0,56.91050000000001 L 2.3889235000000255,56.91050000000001" fill="none" instance-id="2" semantic-id="4" stroke="rgb(0,178,178)" stroke-width="0.1"/>
  <path d="M 0.0,58.79449999999997 L 2.3889235000000255,58.79449999999997" fill="none" instance-id="2" semantic-id="4" stroke="rgb(0,178,178)" stroke-width="0.1"/>
  <path d="M 0.0,57.5025 L 7.500123500000029,57.5025" fill="none" instance-id="2" semantic-id="4" stroke="rgb(0,178,178)" stroke-width="0.1"/>
  <path d="M 7.500123500000029,58.202499999999986 L 0.0,58.202499999999986" fill="none" instance-id="2" semantic-id="4" stroke="rgb(0,178,178)" stroke-width="0.1"/>
  <path d="M 7.500123500000029,57.5025 L 7.500123500000029,58.202499999999986" fill="none" instance-id="2" semantic-id="4" stroke="rgb(0,178,178)" stroke-width="0.1"/>
  <path d="M 6.100123500000024,58.202499999999986 L 6.100123500000024,57.5025" fill="none" instance-id="2" semantic-id="4" stroke="rgb(0,178,178)" stroke-width="0.1"/>
  <path d="M 3.3001235000000193,58.202499999999986 L 3.3001235000000193,57.5025" fill="none" instance-id="2" semantic-id="4" stroke="rgb(0,178,178)" stroke-width="0.1"/>
  <path d="M 4.700123500000025,58.202499999999986 L 4.700123500000025,57.5025" fill="none" instance-id="2" semantic-id="4" stroke="rgb(0,178,178)" stroke-width="0.1"/>
  <path d="M 2.3889235000000255,58.79449999999997 L 2.3889235000000255,58.202499999999986" fill="none" instance-id="2" semantic-id="4" stroke="rgb(0,178,178)" stroke-width="0.1"/>
  <path d="M 2.3889235000000255,56.91050000000001 L 2.3889235000000255,57.5025" fill="none" instance-id="2" semantic-id="4" stroke="rgb(0,178,178)" stroke-width="0.1"/>
  <path d="M 2.3889235000000255,39.894499999999994 L 2.3889235000000255,39.30250000000001" fill="none" instance-id="2" semantic-id="4" stroke="rgb(0,178,178)" stroke-width="0.1"/>
  <path d="M 2.3889235000000255,38.01049999999998 L 2.3889235000000255,38.60250000000002" fill="none" instance-id="2" semantic-id="4" stroke="rgb(0,178,178)" stroke-width="0.1"/>
  <path d="M 0.22557818765591264,44.25287860293997 L 0.5000219668921204,44.689429829826906" fill="none" instance-id="2" semantic-id="4" stroke="rgb(0,178,178)" stroke-width="0.1"/>
  <path d="M 0.5000219668921204,44.689429829826906 L 0.8007346176856345,45.10831915090188" fill="none" instance-id="2" semantic-id="4" stroke="rgb(0,178,178)" stroke-width="0.1"/>
  <path d="M 0.8007346176856345,45.10831915090188 L 1.1265829427610754,45.50796803517835" fill="none" instance-id="2" semantic-id="4" stroke="rgb(0,178,178)" stroke-width="0.1"/>
  <path d="M 1.1265829427610754,45.50796803517835 L 1.4763390242600138,45.88687045680223" fill="none" instance-id="2" semantic-id="4" stroke="rgb(0,178,178)" stroke-width="0.1"/>
  <path d="M 1.4763390242600138,45.88687045680223 L 1.8486848509928606,46.243598570318" fill="none" instance-id="2" semantic-id="4" stroke="rgb(0,178,178)" stroke-width="0.1"/>
  <path d="M 1.8486848509928606,46.243598570318 L 2.242217285195906,46.576808091322675" fill="none" instance-id="2" semantic-id="4" stroke="rgb(0,178,178)" stroke-width="0.1"/>
  <path d="M 2.242217285195906,46.576808091322675 L 2.6554533500770816,46.88524336222957" fill="none" instance-id="2" semantic-id="4" stroke="rgb(0,178,178)" stroke-width="0.1"/>
  <path d="M 2.6554533500770816,46.88524336222957 L 3.0868358182248556,47.167742084054396" fill="none" instance-id="2" semantic-id="4" stroke="rgb(0,178,178)" stroke-width="0.1"/>
  <path d="M 3.0868358182248556,47.167742084054396 L 3.5347390798211364,47.423239696390226" fill="none" instance-id="2" semantic-id="4" stroke="rgb(0,178,178)" stroke-width="0.1"/>
  <path d="M 3.5347390798211364,47.423239696390226 L 3.997475268544612,47.650773389068036" fill="none" instance-id="2" semantic-id="4" stroke="rgb(0,178,178)" stroke-width="0.1"/>
  <path d="M 3.997475268544612,47.650773389068036 L 4.4733006220796625,47.84948573038372" fill="none" instance-id="2" semantic-id="4" stroke="rgb(0,178,178)" stroke-width="0.1"/>
  <path d="M 4.4733006220796625,47.84948573038372 L 4.960422053262327,48.0186278982203" fill="none" instance-id="2" semantic-id="4" stroke="rgb(0,178,178)" stroke-width="0.1"/>
  <path d="M 4.960422053262327,48.0186278982203 L 5.457003907100585,48.157562501888606" fill="none" instance-id="2" semantic-id="4" stroke="rgb(0,178,178)" stroke-width="0.1"/>
  <path d="M 5.457003907100585,48.157562501888606 L 5.961174878206094,48.265765984052734" fill="none" instance-id="2" semantic-id="4" stroke="rgb(0,178,178)" stroke-width="0.1"/>
  <path d="M 5.961174878206094,48.265765984052734 L 6.471035062569932,48.34283059368897" fill="none" instance-id="2" semantic-id="4" stroke="rgb(0,178,178)" stroke-width="0.1"/>
  <path d="M 6.471035062569932,48.34283059368897 L 6.984663117108511,48.38846592264389" fill="none" instance-id="2" semantic-id="4" stroke="rgb(0,178,178)" stroke-width="0.1"/>
  <path d="M 6.984663117108511,48.38846592264389 L 7.500123500000029,48.402499999999975" fill="none" instance-id="2" semantic-id="4" stroke="rgb(0,178,178)" stroke-width="0.1"/>
  <path d="M 7.500123500000029,48.402499999999975 L 6.984663117108511,48.41653407735606" fill="none" instance-id="2" semantic-id="4" stroke="rgb(0,178,178)" stroke-width="0.1"/>
  <path d="M 6.984663117108511,48.41653407735606 L 6.471035062569918,48.46216940631098" fill="none" instance-id="2" semantic-id="4" stroke="rgb(0,178,178)" stroke-width="0.1"/>
  <path d="M 6.471035062569918,48.46216940631098 L 5.961174878206087,48.539234015947216" fill="none" instance-id="2" semantic-id="4" stroke="rgb(0,178,178)" stroke-width="0.1"/>
  <path d="M 5.961174878206087,48.539234015947216 L 5.457003907100571,48.647437498111344" fill="none" instance-id="2" semantic-id="4" stroke="rgb(0,178,178)" stroke-width="0.1"/>
  <path d="M 5.457003907100571,48.647437498111344 L 4.960422053262313,48.78637210177965" fill="none" instance-id="2" semantic-id="4" stroke="rgb(0,178,178)" stroke-width="0.1"/>
  <path d="M 4.960422053262313,48.78637210177965 L 4.473300622079641,48.95551426961623" fill="none" instance-id="2" semantic-id="4" stroke="rgb(0,178,178)" stroke-width="0.1"/>
  <path d="M 4.473300622079641,48.95551426961623 L 3.9974752685445907,49.154226610931914" fill="none" instance-id="2" semantic-id="4" stroke="rgb(0,178,178)" stroke-width="0.1"/>
  <path d="M 3.9974752685445907,49.154226610931914 L 3.5347390798211222,49.381760303609724" fill="none" instance-id="2" semantic-id="4" stroke="rgb(0,178,178)" stroke-width="0.1"/>
  <path d="M 3.5347390798211222,49.381760303609724 L 3.086835818224827,49.637257915945554" fill="none" instance-id="2" semantic-id="4" stroke="rgb(0,178,178)" stroke-width="0.1"/>
  <path d="M 3.086835818224827,49.637257915945554 L 2.6554533500770603,49.91975663777038" fill="none" instance-id="2" semantic-id="4" stroke="rgb(0,178,178)" stroke-width="0.1"/>
  <path d="M 2.6554533500770603,49.91975663777038 L 2.242217285195885,50.22819190867733" fill="none" instance-id="2" semantic-id="4" stroke="rgb(0,178,178)" stroke-width="0.1"/>
  <path d="M 2.242217285195885,50.22819190867733 L 1.8486848509928322,50.56140142968195" fill="none" instance-id="2" semantic-id="4" stroke="rgb(0,178,178)" stroke-width="0.1"/>
  <path d="M 1.8486848509928322,50.56140142968195 L 1.4763390242599854,50.91812954319778" fill="none" instance-id="2" semantic-id="4" stroke="rgb(0,178,178)" stroke-width="0.1"/>
  <path d="M 1.4763390242599854,50.91812954319778 L 1.126582942761047,51.2970319648216" fill="none" instance-id="2" semantic-id="4" stroke="rgb(0,178,178)" stroke-width="0.1"/>
  <path d="M 1.126582942761047,51.2970319648216 L 0.8007346176856132,51.69668084909813" fill="none" instance-id="2" semantic-id="4" stroke="rgb(0,178,178)" stroke-width="0.1"/>
  <path d="M 0.8007346176856132,51.69668084909813 L 0.5000219668920991,52.1155701701731" fill="none" instance-id="2" semantic-id="4" stroke="rgb(0,178,178)" stroke-width="0.1"/>
  <path d="M 0.5000219668920991,52.1155701701731 L 0.22557818765589133,52.55212139705998" fill="none" instance-id="2" semantic-id="4" stroke="rgb(0,178,178)" stroke-width="0.1"/>
 </g>
 <g id="layerDOOR_FIRE_TEXT" inkscape:groupmode="layer" inkscape:label="DOOR_FIRE_TEXT">
  <text fill="rgb(0,0,0)" font-family="Noto Sans CJK SC" font-size="2" transform="rotate(-90.0,8.764023500000022,56.17149999999998)" x="8.764023500000022" y="56.17149999999998">
   FM乙2123
  </text>
 </g>
 <g id="layerDim_elev【标高】" inkscape:groupmode="layer" inkscape:label="Dim_elev【标高】">
  <path d="M 39.14002350000003,29.00849999999997 L 34.64002350000003,24.50849999999997" fill="none" stroke="rgb(0,178,0)" stroke-width="0.1"/>
  <path d="M 39.14002350000003,29.00849999999997 L 43.63992350000002,24.50849999999997" fill="none" stroke="rgb(0,178,0)" stroke-width="0.1"/>
  <path d="M 34.64002350000003,24.50849999999997 L 59.839923500000026,24.50849999999997" fill="none" stroke="rgb(0,178,0)" stroke-width="0.1"/>
  <text fill="rgb(0,0,0)" font-family="Noto Sans CJK SC" font-size="2" transform="rotate(-0.0,48.544923500000024,22.93349999999998)" x="48.544923500000024" y="22.93349999999998">
   5.900
  </text>
 </g>
 <g id="layerDote【轴线】" inkscape:groupmode="layer" inkscape:label="Dote【轴线】">
  <path d="M 0.0,62.902499999999975 L 100.0,62.902499999999975" fill="none" stroke="rgb(53,107,107)" stroke-width="0.1"/>
  <path d="M 3.500123500000022,100.0 L 3.500123500000022,0.0" fill="none" stroke="rgb(53,107,107)" stroke-width="0.1"/>
  <path d="M 100.0,62.902499999999975 L 0.0,62.902499999999975" fill="none" stroke="rgb(53,107,107)" stroke-width="0.1"/>
  <path d="M 3.500123500000022,0.0 L 3.500123500000022,100.0" fill="none" stroke="rgb(53,107,107)" stroke-width="0.1"/>
 </g>
 <g id="layerLook_line【看线、投影线】" inkscape:groupmode="layer" inkscape:label="Look_line【看线、投影线】">
  <path d="M 100.0,29.38378018136109 L 95.20592350000001,32.03750000000002" fill="none" stroke="rgb(0,178,178)" stroke-width="0.1"/>
  <path d="M 95.20592350000001,32.03750000000002 L 63.1684235,0.0" fill="none" stroke="rgb(0,178,178)" stroke-width="0.1"/>
 </g>
 <g id="layerMetal【金属】" inkscape:groupmode="layer" inkscape:label="Metal【金属】">
  <path d="M 97.90292350000001,36.14850000000001 L 98.60992350000004,35.44150000000002" fill="none" stroke="rgb(178,0,0)" stroke-width="0.1"/>
  <path d="M 98.60992350000004,35.44150000000002 L 99.31692350000003,36.14850000000001" fill="none" stroke="rgb(178,0,0)" stroke-width="0.1"/>
  <path d="M 99.31692350000003,36.14850000000001 L 98.60992350000004,36.855500000000006" fill="none" stroke="rgb(178,0,0)" stroke-width="0.1"/>
  <path d="M 98.60992350000004,36.855500000000006 L 97.90292350000001,36.14850000000001" fill="none" stroke="rgb(178,0,0)" stroke-width="0.1"/>
  <path d="M 88.70992350000003,26.955499999999972 L 89.41692350000002,26.24849999999998" fill="none" stroke="rgb(178,0,0)" stroke-width="0.1"/>
  <path d="M 89.41692350000002,26.24849999999998 L 90.12492350000002,26.955499999999972" fill="none" stroke="rgb(178,0,0)" stroke-width="0.1"/>
  <path d="M 90.12492350000002,26.955499999999972 L 89.41692350000002,27.662500000000023" fill="none" stroke="rgb(178,0,0)" stroke-width="0.1"/>
  <path d="M 89.41692350000002,27.662500000000023 L 88.70992350000003,26.955499999999972" fill="none" stroke="rgb(178,0,0)" stroke-width="0.1"/>
  <path d="M 71.73992350000003,9.985500000000002 L 72.44692350000003,9.278500000000008" fill="none" stroke="rgb(178,0,0)" stroke-width="0.1"/>
  <path d="M 72.44692350000003,9.278500000000008 L 73.15392350000002,9.985500000000002" fill="none" stroke="rgb(178,0,0)" stroke-width="0.1"/>
  <path d="M 73.15392350000002,9.985500000000002 L 72.44692350000003,10.692499999999995" fill="none" stroke="rgb(178,0,0)" stroke-width="0.1"/>
  <path d="M 72.44692350000003,10.692499999999995 L 71.73992350000003,9.985500000000002" fill="none" stroke="rgb(178,0,0)" stroke-width="0.1"/>
  <path d="M 97.90292350000001,36.14850000000001 L 98.60992350000004,36.855500000000006" fill="none" stroke="rgb(178,0,0)" stroke-width="0.1"/>
  <path d="M 98.60992350000004,36.855500000000006 L 97.90292350000001,37.5625" fill="none" stroke="rgb(178,0,0)" stroke-width="0.1"/>
  <path d="M 97.90292350000001,37.5625 L 97.19592350000002,36.855500000000006" fill="none" stroke="rgb(178,0,0)" stroke-width="0.1"/>
  <path d="M 97.19592350000002,36.855500000000006 L 97.90292350000001,36.14850000000001" fill="none" stroke="rgb(178,0,0)" stroke-width="0.1"/>
  <path d="M 96.84192350000004,37.208500000000015 L 97.54892350000003,37.91550000000001" fill="none" stroke="rgb(178,0,0)" stroke-width="0.1"/>
  <path d="M 97.54892350000003,37.91550000000001 L 95.78092350000003,39.68349999999998" fill="none" stroke="rgb(178,0,0)" stroke-width="0.1"/>
  <path d="M 95.78092350000003,39.68349999999998 L 95.07392350000003,38.97649999999999" fill="none" stroke="rgb(178,0,0)" stroke-width="0.1"/>
  <path d="M 95.07392350000003,38.97649999999999 L 96.84192350000004,37.208500000000015" fill="none" stroke="rgb(178,0,0)" stroke-width="0.1"/>
  <path d="M 97.61992350000003,37.279499999999985 L 97.47792350000003,37.13850000000002" fill="none" stroke="rgb(178,0,0)" stroke-width="0.1"/>
  <path d="M 97.47792350000003,37.13850000000002 L 97.12492350000002,37.491499999999974" fill="none" stroke="rgb(178,0,0)" stroke-width="0.1"/>
  <path d="M 97.12492350000002,37.491499999999974 L 97.26592350000001,37.63349999999997" fill="none" stroke="rgb(178,0,0)" stroke-width="0.1"/>
  <path d="M 97.26592350000001,37.63349999999997 L 97.61992350000003,37.279499999999985" fill="none" stroke="rgb(178,0,0)" stroke-width="0.1"/>
  <path d="M 97.54892350000003,37.91550000000001 L 97.26592350000001,37.63349999999997" fill="none" stroke="rgb(178,0,0)" stroke-width="0.1"/>
  <path d="M 97.26592350000001,37.63349999999997 L 97.44292350000003,37.456500000000005" fill="none" stroke="rgb(178,0,0)" stroke-width="0.1"/>
  <path d="M 97.44292350000003,37.456500000000005 L 97.72592350000002,37.73950000000002" fill="none" stroke="rgb(178,0,0)" stroke-width="0.1"/>
  <path d="M 97.72592350000002,37.73950000000002 L 97.54892350000003,37.91550000000001" fill="none" stroke="rgb(178,0,0)" stroke-width="0.1"/>
  <path d="M 96.84192350000004,37.208500000000015 L 97.12492350000002,37.491499999999974" fill="none" stroke="rgb(178,0,0)" stroke-width="0.1"/>
  <path d="M 97.12492350000002,37.491499999999974 L 97.30192350000002,37.31450000000001" fill="none" stroke="rgb(178,0,0)" stroke-width="0.1"/>
  <path d="M 97.30192350000002,37.31450000000001 L 97.01892350000003,37.03249999999997" fill="none" stroke="rgb(178,0,0)" stroke-width="0.1"/>
  <path d="M 97.01892350000003,37.03249999999997 L 96.84192350000004,37.208500000000015" fill="none" stroke="rgb(178,0,0)" stroke-width="0.1"/>
  <path d="M 88.70992350000003,26.955499999999972 L 89.41692350000002,27.662500000000023" fill="none" stroke="rgb(178,0,0)" stroke-width="0.1"/>
  <path d="M 89.41692350000002,27.662500000000023 L 88.70992350000003,28.370499999999993" fill="none" stroke="rgb(178,0,0)" stroke-width="0.1"/>
  <path d="M 88.70992350000003,28.370499999999993 L 88.00292350000001,27.662500000000023" fill="none" stroke="rgb(178,0,0)" stroke-width="0.1"/>
  <path d="M 88.00292350000001,27.662500000000023 L 88.70992350000003,26.955499999999972" fill="none" stroke="rgb(178,0,0)" stroke-width="0.1"/>
  <path d="M 87.64992350000003,28.016500000000008 L 88.35692350000002,28.7235" fill="none" stroke="rgb(178,0,0)" stroke-width="0.1"/>
  <path d="M 88.35692350000002,28.7235 L 86.58892350000002,30.491499999999974" fill="none" stroke="rgb(178,0,0)" stroke-width="0.1"/>
  <path d="M 86.58892350000002,30.491499999999974 L 85.88192350000003,29.78449999999998" fill="none" stroke="rgb(178,0,0)" stroke-width="0.1"/>
  <path d="M 85.88192350000003,29.78449999999998 L 87.64992350000003,28.016500000000008" fill="none" stroke="rgb(178,0,0)" stroke-width="0.1"/>
  <path d="M 88.42692350000002,28.087499999999977 L 88.28592350000002,27.94549999999998" fill="none" stroke="rgb(178,0,0)" stroke-width="0.1"/>
  <path d="M 88.28592350000002,27.94549999999998 L 87.93192350000001,28.299500000000023" fill="none" stroke="rgb(178,0,0)" stroke-width="0.1"/>
  <path d="M 87.93192350000001,28.299500000000023 L 88.07392350000003,28.440499999999986" fill="none" stroke="rgb(178,0,0)" stroke-width="0.1"/>
  <path d="M 88.07392350000003,28.440499999999986 L 88.42692350000002,28.087499999999977" fill="none" stroke="rgb(178,0,0)" stroke-width="0.1"/>
  <path d="M 88.35692350000002,28.7235 L 88.07392350000003,28.440499999999986" fill="none" stroke="rgb(178,0,0)" stroke-width="0.1"/>
  <path d="M 88.07392350000003,28.440499999999986 L 88.25092350000003,28.263500000000022" fill="none" stroke="rgb(178,0,0)" stroke-width="0.1"/>
  <path d="M 88.25092350000003,28.263500000000022 L 88.53392350000001,28.54649999999998" fill="none" stroke="rgb(178,0,0)" stroke-width="0.1"/>
  <path d="M 88.53392350000001,28.54649999999998 L 88.35692350000002,28.7235" fill="none" stroke="rgb(178,0,0)" stroke-width="0.1"/>
  <path d="M 87.64992350000003,28.016500000000008 L 87.93192350000001,28.299500000000023" fill="none" stroke="rgb(178,0,0)" stroke-width="0.1"/>
  <path d="M 87.93192350000001,28.299500000000023 L 88.10892350000003,28.122500000000002" fill="none" stroke="rgb(178,0,0)" stroke-width="0.1"/>
  <path d="M 88.10892350000003,28.122500000000002 L 87.82592350000002,27.839499999999987" fill="none" stroke="rgb(178,0,0)" stroke-width="0.1"/>
  <path d="M 87.82592350000002,27.839499999999987 L 87.64992350000003,28.016500000000008" fill="none" stroke="rgb(178,0,0)" stroke-width="0.1"/>
  <path d="M 71.73992350000003,9.985500000000002 L 72.44692350000003,10.692499999999995" fill="none" stroke="rgb(178,0,0)" stroke-width="0.1"/>
  <path d="M 72.44692350000003,10.692499999999995 L 71.73992350000003,11.399499999999989" fill="none" stroke="rgb(178,0,0)" stroke-width="0.1"/>
  <path d="M 71.73992350000003,11.399499999999989 L 71.03292350000001,10.692499999999995" fill="none" stroke="rgb(178,0,0)" stroke-width="0.1"/>
  <path d="M 71.03292350000001,10.692499999999995 L 71.73992350000003,9.985500000000002" fill="none" stroke="rgb(178,0,0)" stroke-width="0.1"/>
  <path d="M 70.67892350000002,11.045500000000004 L 71.38592350000002,11.753499999999974" fill="none" stroke="rgb(178,0,0)" stroke-width="0.1"/>
  <path d="M 71.38592350000002,11.753499999999974 L 69.61792350000002,13.52049999999997" fill="none" stroke="rgb(178,0,0)" stroke-width="0.1"/>
  <path d="M 69.61792350000002,13.52049999999997 L 68.91092350000002,12.813499999999976" fill="none" stroke="rgb(178,0,0)" stroke-width="0.1"/>
  <path d="M 68.91092350000002,12.813499999999976 L 70.67892350000002,11.045500000000004" fill="none" stroke="rgb(178,0,0)" stroke-width="0.1"/>
  <path d="M 71.45692350000002,11.116499999999974 L 71.31492350000002,10.975500000000011" fill="none" stroke="rgb(178,0,0)" stroke-width="0.1"/>
  <path d="M 71.31492350000002,10.975500000000011 L 70.96192350000001,11.32850000000002" fill="none" stroke="rgb(178,0,0)" stroke-width="0.1"/>
  <path d="M 70.96192350000001,11.32850000000002 L 71.10292350000003,11.470500000000015" fill="none" stroke="rgb(178,0,0)" stroke-width="0.1"/>
  <path d="M 71.10292350000003,11.470500000000015 L 71.45692350000002,11.116499999999974" fill="none" stroke="rgb(178,0,0)" stroke-width="0.1"/>
  <path d="M 71.38592350000002,11.753499999999974 L 71.10292350000003,11.470500000000015" fill="none" stroke="rgb(178,0,0)" stroke-width="0.1"/>
  <path d="M 71.10292350000003,11.470500000000015 L 71.27992350000002,11.293499999999995" fill="none" stroke="rgb(178,0,0)" stroke-width="0.1"/>
  <path d="M 71.27992350000002,11.293499999999995 L 71.56292350000001,11.57650000000001" fill="none" stroke="rgb(178,0,0)" stroke-width="0.1"/>
  <path d="M 71.56292350000001,11.57650000000001 L 71.38592350000002,11.753499999999974" fill="none" stroke="rgb(178,0,0)" stroke-width="0.1"/>
  <path d="M 70.67892350000002,11.045500000000004 L 70.96192350000001,11.32850000000002" fill="none" stroke="rgb(178,0,0)" stroke-width="0.1"/>
  <path d="M 70.96192350000001,11.32850000000002 L 71.13892350000003,11.151499999999999" fill="none" stroke="rgb(178,0,0)" stroke-width="0.1"/>
  <path d="M 71.13892350000003,11.151499999999999 L 70.85592350000002,10.869500000000016" fill="none" stroke="rgb(178,0,0)" stroke-width="0.1"/>
  <path d="M 70.85592350000002,10.869500000000016 L 70.67892350000002,11.045500000000004" fill="none" stroke="rgb(178,0,0)" stroke-width="0.1"/>
 </g>
 <g id="layerPri_text【私人文字标注】" inkscape:groupmode="layer" inkscape:label="Pri_text【私人文字标注】">
  <path d="M 0.0,92.90249999999997 L 20.800123500000026,92.90249999999997" fill="none" stroke="rgb(178,88,0)" stroke-width="0.1"/>
  <text fill="rgb(0,0,0)" font-family="Noto Sans CJK SC" font-size="2" transform="rotate(-0.0,10.754223500000023,99.72750000000002)" x="10.754223500000023" y="99.72750000000002">
   余同
  </text>
 </g>
 <g id="layerWall【砖墙】" inkscape:groupmode="layer" inkscape:label="Wall【砖墙】">
  <path d="M 6.500123500000029,34.902499999999975 L 6.500123500000029,37.902499999999975" fill="none" instance-id="-1" semantic-id="1" stroke="rgb(178,178,0)" stroke-width="0.1"/>
  <path d="M 6.500123500000029,37.902499999999975 L 8.50012350000003,37.902499999999975" fill="none" instance-id="-1" semantic-id="1" stroke="rgb(178,178,0)" stroke-width="0.1"/>
  <path d="M 8.50012350000003,37.902499999999975 L 8.50012350000003,32.902499999999975" fill="none" instance-id="-1" semantic-id="1" stroke="rgb(178,178,0)" stroke-width="0.1"/>
  <path d="M 8.50012350000003,60.902499999999975 L 8.50012350000003,58.902499999999975" fill="none" instance-id="-1" semantic-id="1" stroke="rgb(178,178,0)" stroke-width="0.1"/>
  <path d="M 8.50012350000003,58.902499999999975 L 6.500123500000029,58.902499999999975" fill="none" instance-id="-1" semantic-id="1" stroke="rgb(178,178,0)" stroke-width="0.1"/>
  <path d="M 8.50012350000003,60.902499999999975 L 0.0,60.902499999999975" fill="none" instance-id="-1" semantic-id="1" stroke="rgb(178,178,0)" stroke-width="0.1"/>
  <path d="M 6.500123500000029,58.902499999999975 L 0.0,58.902499999999975" fill="none" instance-id="-1" semantic-id="1" stroke="rgb(178,178,0)" stroke-width="0.1"/>
  <path d="M 0.0,32.902499999999975 L 8.50012350000003,32.902499999999975" fill="none" instance-id="-1" semantic-id="1" stroke="rgb(178,178,0)" stroke-width="0.1"/>
  <path d="M 0.0,34.902499999999975 L 6.500123500000029,34.902499999999975" fill="none" instance-id="-1" semantic-id="1" stroke="rgb(178,178,0)" stroke-width="0.1"/>
  <path d="M 100.0,46.730614765015616 L 53.26922393548797,0.0" fill="none" instance-id="-1" semantic-id="1" stroke="rgb(178,178,0)" stroke-width="0.1"/>
  <path d="M 100.0,43.90254792868092 L 56.09755242000003,0.0" fill="none" instance-id="-1" semantic-id="1" stroke="rgb(178,178,0)" stroke-width="0.1"/>
 </g>
</svg>