<?xml version="1.0" encoding="utf-8"?>
<svg style="background-color: #000;" version="1.1" viewBox="0 0 100.0 100.0" xmlns="http://www.w3.org/2000/svg" xmlns:inkscape="http://www.inkscape.org/namespaces/inkscape">
 <g id="layer0_Car_编号" inkscape:groupmode="layer" inkscape:label="0_Car_编号">
  <text fill="rgb(0,178,0)" font-family="Noto Sans CJK SC" font-size="2" transform="rotate(-0.0,44.523000000000025,19.417838999999958)" x="44.523000000000025" y="19.417838999999958">
   机械187
  </text>
  <text fill="rgb(0,178,0)" font-family="Noto Sans CJK SC" font-size="2" transform="rotate(-0.0,38.843999999999994,53.41783899999996)" x="38.843999999999994" y="53.41783899999996">
   机械188、189
  </text>
  <text fill="rgb(0,178,0)" font-family="Noto Sans CJK SC" font-size="2" transform="rotate(-0.0,38.94999999999999,78.41783899999996)" x="38.94999999999999" y="78.41783899999996">
   机械190、191
  </text>
 </g>
 <g id="layerCar_mech【机械车位】" inkscape:groupmode="layer" inkscape:label="Car_mech【机械车位】">
  <path d="M 13.75,100.0 L 13.75,92.29283899999996" fill="none" instance-id="-1" semantic-id="35" stroke="rgb(53,107,107)" stroke-width="0.1"/>
  <path d="M 14.75,100.0 L 14.75,92.29283899999996" fill="none" instance-id="-1" semantic-id="35" stroke="rgb(53,107,107)" stroke-width="0.1"/>
  <path d="M 14.75,92.29283899999996 L 13.75,92.29283899999996" fill="none" instance-id="-1" semantic-id="35" stroke="rgb(53,107,107)" stroke-width="0.1"/>
  <path d="M 10.75,100.0 L 10.75,97.29283899999996" fill="none" instance-id="-1" semantic-id="35" stroke="rgb(53,107,107)" stroke-width="0.1"/>
  <path d="M 6.731026126857074,100.0 L 10.75,97.29283899999996" fill="none" instance-id="-1" semantic-id="35" stroke="rgb(53,107,107)" stroke-width="0.1"/>
  <path d="M 14.75,84.29283899999996 L 13.75,84.29283899999996" fill="none" instance-id="-1" semantic-id="35" stroke="rgb(53,107,107)" stroke-width="0.1"/>
  <path d="M 13.75,84.29283899999996 L 13.75,67.29283899999996" fill="none" instance-id="-1" semantic-id="35" stroke="rgb(53,107,107)" stroke-width="0.1"/>
  <path d="M 14.75,84.29283899999996 L 14.75,67.29283899999996" fill="none" instance-id="-1" semantic-id="35" stroke="rgb(53,107,107)" stroke-width="0.1"/>
  <path d="M 14.75,67.29283899999996 L 13.75,67.29283899999996" fill="none" instance-id="-1" semantic-id="35" stroke="rgb(53,107,107)" stroke-width="0.1"/>
  <path d="M 10.75,79.29283899999996 L 10.75,72.29283899999996" fill="none" instance-id="-1" semantic-id="35" stroke="rgb(53,107,107)" stroke-width="0.1"/>
  <path d="M 5.554000000000002,75.79283899999996 L 10.75,72.29283899999996" fill="none" instance-id="-1" semantic-id="35" stroke="rgb(53,107,107)" stroke-width="0.1"/>
  <path d="M 5.554000000000002,75.79283899999996 L 10.75,79.29283899999996" fill="none" instance-id="-1" semantic-id="35" stroke="rgb(53,107,107)" stroke-width="0.1"/>
  <path d="M 14.75,59.29283899999996 L 13.75,59.29283899999996" fill="none" instance-id="-1" semantic-id="35" stroke="rgb(53,107,107)" stroke-width="0.1"/>
  <path d="M 13.75,59.29283899999996 L 13.75,42.29283899999996" fill="none" instance-id="-1" semantic-id="35" stroke="rgb(53,107,107)" stroke-width="0.1"/>
  <path d="M 14.75,59.29283899999996 L 14.75,42.29283899999996" fill="none" instance-id="-1" semantic-id="35" stroke="rgb(53,107,107)" stroke-width="0.1"/>
  <path d="M 14.75,42.29283899999996 L 13.75,42.29283899999996" fill="none" instance-id="-1" semantic-id="35" stroke="rgb(53,107,107)" stroke-width="0.1"/>
  <path d="M 10.75,54.29283899999996 L 10.75,47.29283899999996" fill="none" instance-id="-1" semantic-id="35" stroke="rgb(53,107,107)" stroke-width="0.1"/>
  <path d="M 5.554000000000002,50.79283899999996 L 10.75,47.29283899999996" fill="none" instance-id="-1" semantic-id="35" stroke="rgb(53,107,107)" stroke-width="0.1"/>
  <path d="M 5.554000000000002,50.79283899999996 L 10.75,54.29283899999996" fill="none" instance-id="-1" semantic-id="35" stroke="rgb(53,107,107)" stroke-width="0.1"/>
  <path d="M 14.75,25.292838999999958 L 13.75,25.292838999999958" fill="none" instance-id="-1" semantic-id="35" stroke="rgb(53,107,107)" stroke-width="0.1"/>
  <path d="M 13.75,25.292838999999958 L 13.75,8.292838999999958" fill="none" instance-id="-1" semantic-id="35" stroke="rgb(53,107,107)" stroke-width="0.1"/>
  <path d="M 14.75,25.292838999999958 L 14.75,8.292838999999958" fill="none" instance-id="-1" semantic-id="35" stroke="rgb(53,107,107)" stroke-width="0.1"/>
  <path d="M 14.75,8.292838999999958 L 13.75,8.292838999999958" fill="none" instance-id="-1" semantic-id="35" stroke="rgb(53,107,107)" stroke-width="0.1"/>
  <path d="M 10.75,20.292838999999958 L 10.75,13.292838999999958" fill="none" instance-id="-1" semantic-id="35" stroke="rgb(53,107,107)" stroke-width="0.1"/>
  <path d="M 5.554000000000002,16.792838999999958 L 10.75,13.292838999999958" fill="none" instance-id="-1" semantic-id="35" stroke="rgb(53,107,107)" stroke-width="0.1"/>
  <path d="M 5.554000000000002,16.792838999999958 L 10.75,20.292838999999958" fill="none" instance-id="-1" semantic-id="35" stroke="rgb(53,107,107)" stroke-width="0.1"/>
  <path d="M 14.75,0.2928389999999581 L 13.75,0.2928389999999581" fill="none" instance-id="-1" semantic-id="35" stroke="rgb(53,107,107)" stroke-width="0.1"/>
  <path d="M 13.75,0.2928389999999581 L 13.75,0.0" fill="none" instance-id="-1" semantic-id="35" stroke="rgb(53,107,107)" stroke-width="0.1"/>
  <path d="M 14.75,0.2928389999999581 L 14.75,0.0" fill="none" instance-id="-1" semantic-id="35" stroke="rgb(53,107,107)" stroke-width="0.1"/>
  <path d="M 70.75,25.292838999999958 L 69.75,25.292838999999958" fill="none" instance-id="-1" semantic-id="35" stroke="rgb(53,107,107)" stroke-width="0.1"/>
  <path d="M 69.75,25.292838999999958 L 69.75,8.292838999999958" fill="none" instance-id="-1" semantic-id="35" stroke="rgb(53,107,107)" stroke-width="0.1"/>
  <path d="M 70.75,25.292838999999958 L 70.75,8.292838999999958" fill="none" instance-id="-1" semantic-id="35" stroke="rgb(53,107,107)" stroke-width="0.1"/>
  <path d="M 70.75,8.292838999999958 L 69.75,8.292838999999958" fill="none" instance-id="-1" semantic-id="35" stroke="rgb(53,107,107)" stroke-width="0.1"/>
  <path d="M 66.75,20.292838999999958 L 66.75,13.292838999999958" fill="none" instance-id="-1" semantic-id="35" stroke="rgb(53,107,107)" stroke-width="0.1"/>
  <path d="M 61.553999999999974,16.792838999999958 L 66.75,13.292838999999958" fill="none" instance-id="-1" semantic-id="35" stroke="rgb(53,107,107)" stroke-width="0.1"/>
  <path d="M 61.553999999999974,16.792838999999958 L 66.75,20.292838999999958" fill="none" instance-id="-1" semantic-id="35" stroke="rgb(53,107,107)" stroke-width="0.1"/>
  <path d="M 70.75,0.2928389999999581 L 69.75,0.2928389999999581" fill="none" instance-id="-1" semantic-id="35" stroke="rgb(53,107,107)" stroke-width="0.1"/>
  <path d="M 69.75,0.2928389999999581 L 69.75,0.0" fill="none" instance-id="-1" semantic-id="35" stroke="rgb(53,107,107)" stroke-width="0.1"/>
  <path d="M 70.75,0.2928389999999581 L 70.75,0.0" fill="none" instance-id="-1" semantic-id="35" stroke="rgb(53,107,107)" stroke-width="0.1"/>
  <path d="M 69.75,100.0 L 69.75,92.29283899999996" fill="none" instance-id="-1" semantic-id="35" stroke="rgb(53,107,107)" stroke-width="0.1"/>
  <path d="M 70.75,100.0 L 70.75,92.29283899999996" fill="none" instance-id="-1" semantic-id="35" stroke="rgb(53,107,107)" stroke-width="0.1"/>
  <path d="M 70.75,92.29283899999996 L 69.75,92.29283899999996" fill="none" instance-id="-1" semantic-id="35" stroke="rgb(53,107,107)" stroke-width="0.1"/>
  <path d="M 66.75,100.0 L 66.75,97.29283899999996" fill="none" instance-id="-1" semantic-id="35" stroke="rgb(53,107,107)" stroke-width="0.1"/>
  <path d="M 62.731026126857046,100.0 L 66.75,97.29283899999996" fill="none" instance-id="-1" semantic-id="35" stroke="rgb(53,107,107)" stroke-width="0.1"/>
  <path d="M 70.75,84.29283899999996 L 69.75,84.29283899999996" fill="none" instance-id="-1" semantic-id="35" stroke="rgb(53,107,107)" stroke-width="0.1"/>
  <path d="M 69.75,84.29283899999996 L 69.75,67.29283899999996" fill="none" instance-id="-1" semantic-id="35" stroke="rgb(53,107,107)" stroke-width="0.1"/>
  <path d="M 70.75,84.29283899999996 L 70.75,67.29283899999996" fill="none" instance-id="-1" semantic-id="35" stroke="rgb(53,107,107)" stroke-width="0.1"/>
  <path d="M 70.75,67.29283899999996 L 69.75,67.29283899999996" fill="none" instance-id="-1" semantic-id="35" stroke="rgb(53,107,107)" stroke-width="0.1"/>
  <path d="M 66.75,79.29283899999996 L 66.75,72.29283899999996" fill="none" instance-id="-1" semantic-id="35" stroke="rgb(53,107,107)" stroke-width="0.1"/>
  <path d="M 61.553999999999974,75.79283899999996 L 66.75,72.29283899999996" fill="none" instance-id="-1" semantic-id="35" stroke="rgb(53,107,107)" stroke-width="0.1"/>
  <path d="M 61.553999999999974,75.79283899999996 L 66.75,79.29283899999996" fill="none" instance-id="-1" semantic-id="35" stroke="rgb(53,107,107)" stroke-width="0.1"/>
  <path d="M 70.75,59.29283899999996 L 69.75,59.29283899999996" fill="none" instance-id="-1" semantic-id="35" stroke="rgb(53,107,107)" stroke-width="0.1"/>
  <path d="M 69.75,59.29283899999996 L 69.75,42.29283899999996" fill="none" instance-id="-1" semantic-id="35" stroke="rgb(53,107,107)" stroke-width="0.1"/>
  <path d="M 70.75,59.29283899999996 L 70.75,42.29283899999996" fill="none" instance-id="-1" semantic-id="35" stroke="rgb(53,107,107)" stroke-width="0.1"/>
  <path d="M 70.75,42.29283899999996 L 69.75,42.29283899999996" fill="none" instance-id="-1" semantic-id="35" stroke="rgb(53,107,107)" stroke-width="0.1"/>
  <path d="M 66.75,54.29283899999996 L 66.75,47.29283899999996" fill="none" instance-id="-1" semantic-id="35" stroke="rgb(53,107,107)" stroke-width="0.1"/>
  <path d="M 61.553999999999974,50.79283899999996 L 66.75,47.29283899999996" fill="none" instance-id="-1" semantic-id="35" stroke="rgb(53,107,107)" stroke-width="0.1"/>
  <path d="M 61.553999999999974,50.79283899999996 L 66.75,54.29283899999996" fill="none" instance-id="-1" semantic-id="35" stroke="rgb(53,107,107)" stroke-width="0.1"/>
  <path d="M 22.25,100.0 L 22.25,88.29283899999996" fill="none" instance-id="-1" semantic-id="35" stroke="rgb(53,107,107)" stroke-width="0.1"/>
  <path d="M 22.25,88.29283899999996 L 0.0,88.29283899999996" fill="none" instance-id="-1" semantic-id="35" stroke="rgb(53,107,107)" stroke-width="0.1"/>
  <path d="M 0.0,88.29283899999996 L 22.25,88.29283899999996" fill="none" instance-id="-1" semantic-id="35" stroke="rgb(53,107,107)" stroke-width="0.1"/>
  <path d="M 22.25,88.29283899999996 L 22.25,63.29283899999996" fill="none" instance-id="-1" semantic-id="35" stroke="rgb(53,107,107)" stroke-width="0.1"/>
  <path d="M 22.25,63.29283899999996 L 0.0,63.29283899999996" fill="none" instance-id="-1" semantic-id="35" stroke="rgb(53,107,107)" stroke-width="0.1"/>
  <path d="M 0.0,63.29283899999996 L 22.25,63.29283899999996" fill="none" instance-id="-1" semantic-id="35" stroke="rgb(53,107,107)" stroke-width="0.1"/>
  <path d="M 22.25,63.29283899999996 L 22.25,38.29283899999996" fill="none" instance-id="-1" semantic-id="35" stroke="rgb(53,107,107)" stroke-width="0.1"/>
  <path d="M 22.25,38.29283899999996 L 0.0,38.29283899999996" fill="none" instance-id="-1" semantic-id="35" stroke="rgb(53,107,107)" stroke-width="0.1"/>
  <path d="M 0.0,29.292838999999958 L 22.25,29.292838999999958" fill="none" instance-id="-1" semantic-id="35" stroke="rgb(53,107,107)" stroke-width="0.1"/>
  <path d="M 22.25,29.292838999999958 L 22.25,4.292838999999958" fill="none" instance-id="-1" semantic-id="35" stroke="rgb(53,107,107)" stroke-width="0.1"/>
  <path d="M 22.25,4.292838999999958 L 0.0,4.292838999999958" fill="none" instance-id="-1" semantic-id="35" stroke="rgb(53,107,107)" stroke-width="0.1"/>
  <path d="M 0.0,4.292838999999958 L 22.25,4.292838999999958" fill="none" instance-id="-1" semantic-id="35" stroke="rgb(53,107,107)" stroke-width="0.1"/>
  <path d="M 22.25,4.292838999999958 L 22.25,0.0" fill="none" instance-id="-1" semantic-id="35" stroke="rgb(53,107,107)" stroke-width="0.1"/>
  <path d="M 22.25,29.292838999999958 L 78.25,29.292838999999958" fill="none" instance-id="-1" semantic-id="35" stroke="rgb(53,107,107)" stroke-width="0.1"/>
  <path d="M 78.25,29.292838999999958 L 78.25,4.292838999999958" fill="none" instance-id="-1" semantic-id="35" stroke="rgb(53,107,107)" stroke-width="0.1"/>
  <path d="M 78.25,4.292838999999958 L 22.25,4.292838999999958" fill="none" instance-id="-1" semantic-id="35" stroke="rgb(53,107,107)" stroke-width="0.1"/>
  <path d="M 22.25,4.292838999999958 L 22.25,29.292838999999958" fill="none" instance-id="-1" semantic-id="35" stroke="rgb(53,107,107)" stroke-width="0.1"/>
  <path d="M 22.25,4.292838999999958 L 78.25,4.292838999999958" fill="none" instance-id="-1" semantic-id="35" stroke="rgb(53,107,107)" stroke-width="0.1"/>
  <path d="M 78.25,4.292838999999958 L 78.25,0.0" fill="none" instance-id="-1" semantic-id="35" stroke="rgb(53,107,107)" stroke-width="0.1"/>
  <path d="M 22.25,0.0 L 22.25,4.292838999999958" fill="none" instance-id="-1" semantic-id="35" stroke="rgb(53,107,107)" stroke-width="0.1"/>
  <path d="M 78.25,100.0 L 78.25,88.29283899999996" fill="none" instance-id="-1" semantic-id="35" stroke="rgb(53,107,107)" stroke-width="0.1"/>
  <path d="M 78.25,88.29283899999996 L 22.25,88.29283899999996" fill="none" instance-id="-1" semantic-id="35" stroke="rgb(53,107,107)" stroke-width="0.1"/>
  <path d="M 22.25,88.29283899999996 L 22.25,100.0" fill="none" instance-id="-1" semantic-id="35" stroke="rgb(53,107,107)" stroke-width="0.1"/>
  <path d="M 22.25,88.29283899999996 L 78.25,88.29283899999996" fill="none" instance-id="-1" semantic-id="35" stroke="rgb(53,107,107)" stroke-width="0.1"/>
  <path d="M 78.25,88.29283899999996 L 78.25,63.29283899999996" fill="none" instance-id="-1" semantic-id="35" stroke="rgb(53,107,107)" stroke-width="0.1"/>
  <path d="M 78.25,63.29283899999996 L 22.25,63.29283899999996" fill="none" instance-id="-1" semantic-id="35" stroke="rgb(53,107,107)" stroke-width="0.1"/>
  <path d="M 22.25,63.29283899999996 L 22.25,88.29283899999996" fill="none" instance-id="-1" semantic-id="35" stroke="rgb(53,107,107)" stroke-width="0.1"/>
  <path d="M 22.25,63.29283899999996 L 78.25,63.29283899999996" fill="none" instance-id="-1" semantic-id="35" stroke="rgb(53,107,107)" stroke-width="0.1"/>
  <path d="M 78.25,63.29283899999996 L 78.25,38.29283899999996" fill="none" instance-id="-1" semantic-id="35" stroke="rgb(53,107,107)" stroke-width="0.1"/>
  <path d="M 78.25,38.29283899999996 L 22.25,38.29283899999996" fill="none" instance-id="-1" semantic-id="35" stroke="rgb(53,107,107)" stroke-width="0.1"/>
  <path d="M 22.25,38.29283899999996 L 22.25,63.29283899999996" fill="none" instance-id="-1" semantic-id="35" stroke="rgb(53,107,107)" stroke-width="0.1"/>
 </g>
 <g id="layerColumn【柱】" inkscape:groupmode="layer" inkscape:label="Column【柱】">
  <path d="M 60.25,29.792838999999958 L 52.25,29.792838999999958" fill="none" stroke="rgb(178,0,178)" stroke-width="0.1"/>
  <path d="M 52.25,29.792838999999958 L 52.25,37.79283899999996" fill="none" stroke="rgb(178,0,178)" stroke-width="0.1"/>
  <path d="M 52.25,37.79283899999996 L 60.25,37.79283899999996" fill="none" stroke="rgb(178,0,178)" stroke-width="0.1"/>
  <path d="M 60.25,37.79283899999996 L 60.25,29.792838999999958" fill="none" stroke="rgb(178,0,178)" stroke-width="0.1"/>
 </g>
 <g id="layerDote【轴线】" inkscape:groupmode="layer" inkscape:label="Dote【轴线】">
  <path d="M 0.0,33.79283899999996 L 100.0,33.79283899999996" fill="none" stroke="rgb(53,107,107)" stroke-width="0.1"/>
  <path d="M 56.25,100.0 L 56.25,0.0" fill="none" stroke="rgb(53,107,107)" stroke-width="0.1"/>
 </g>
 <g id="layerJ-立体停车" inkscape:groupmode="layer" inkscape:label="J-立体停车">
  <path d="M 0.0,78.35980328571429 L 22.25,88.29283899999996" fill="none" stroke="rgb(53,133,160)" stroke-width="0.1"/>
  <path d="M 0.0,53.35980328571429 L 22.25,63.29283899999996" fill="none" stroke="rgb(53,133,160)" stroke-width="0.1"/>
  <path d="M 12.63404064000008,0.0 L 22.25,4.292838999999958" fill="none" stroke="rgb(53,133,160)" stroke-width="0.1"/>
  <path d="M 68.63404064000008,0.0 L 78.25,4.292838999999958" fill="none" stroke="rgb(53,133,160)" stroke-width="0.1"/>
  <path d="M 22.25,88.29283899999996 L 48.47404064000011,100.0" fill="none" stroke="rgb(53,133,160)" stroke-width="0.1"/>
  <path d="M 22.25,63.29283899999996 L 78.25,88.29283899999996" fill="none" stroke="rgb(53,133,160)" stroke-width="0.1"/>
  <path d="M 22.25,38.29283899999996 L 78.25,63.29283899999996" fill="none" stroke="rgb(53,133,160)" stroke-width="0.1"/>
 </g>
</svg>