<?xml version="1.0" encoding="utf-8"?>
<svg style="background-color: #000;" version="1.1" viewBox="0 0 100.0 100.0" xmlns="http://www.w3.org/2000/svg" xmlns:inkscape="http://www.inkscape.org/namespaces/inkscape">
 <g id="layer0-风井" inkscape:groupmode="layer" inkscape:label="0-风井">
  <path d="M 0.0,31.75 L 3.7975000000000136,31.75" fill="none" stroke="rgb(178,0,0)" stroke-width="0.1"/>
  <path d="M 3.7975000000000136,31.75 L 3.7975000000000136,35.75" fill="none" stroke="rgb(178,0,0)" stroke-width="0.1"/>
  <path d="M 3.7975000000000136,35.75 L 0.0,35.75" fill="none" stroke="rgb(178,0,0)" stroke-width="0.1"/>
  <path d="M 3.7975000000000136,31.75 L 0.0,31.992630718954274" fill="none" stroke="rgb(178,0,0)" stroke-width="0.1"/>
 </g>
 <g id="layerColumn【柱】" inkscape:groupmode="layer" inkscape:label="Column【柱】">
  <path d="M 92.79750000000001,31.75 L 82.79750000000001,31.75" fill="none" stroke="rgb(178,0,178)" stroke-width="0.1"/>
  <path d="M 82.79750000000001,31.75 L 82.79750000000001,39.75" fill="none" stroke="rgb(178,0,178)" stroke-width="0.1"/>
  <path d="M 82.79750000000001,39.75 L 92.79750000000001,39.75" fill="none" stroke="rgb(178,0,178)" stroke-width="0.1"/>
  <path d="M 92.79750000000001,39.75 L 92.79750000000001,31.75" fill="none" stroke="rgb(178,0,178)" stroke-width="0.1"/>
  <path d="M 13.797500000000014,31.75 L 3.7975000000000136,31.75" fill="none" stroke="rgb(178,0,178)" stroke-width="0.1"/>
  <path d="M 3.7975000000000136,31.75 L 3.7975000000000136,39.75" fill="none" stroke="rgb(178,0,178)" stroke-width="0.1"/>
  <path d="M 3.7975000000000136,39.75 L 13.797500000000014,39.75" fill="none" stroke="rgb(178,0,178)" stroke-width="0.1"/>
  <path d="M 13.797500000000014,39.75 L 13.797500000000014,31.75" fill="none" stroke="rgb(178,0,178)" stroke-width="0.1"/>
 </g>
 <g id="layerDim_elev【标高】" inkscape:groupmode="layer" inkscape:label="Dim_elev【标高】">
  <path d="M 0.0,69.14200000000005 L 11.803499999999985,69.14200000000005" fill="none" stroke="rgb(0,178,0)" stroke-width="0.1"/>
  <path d="M 0.0,13.43100000000004 L 9.825500000000034,13.43100000000004" fill="none" stroke="rgb(0,178,0)" stroke-width="0.1"/>
 </g>
 <g id="layerDote【轴线】" inkscape:groupmode="layer" inkscape:label="Dote【轴线】">
  <path d="M 0.0,35.75 L 100.0,35.75" fill="none" stroke="rgb(53,107,107)" stroke-width="0.1"/>
  <path d="M 4.797500000000014,100.0 L 4.797500000000014,0.0" fill="none" stroke="rgb(53,107,107)" stroke-width="0.1"/>
  <path d="M 88.79750000000001,100.0 L 88.79750000000001,0.0" fill="none" stroke="rgb(53,107,107)" stroke-width="0.1"/>
 </g>
 <g id="layerEmpty【空洞】" inkscape:groupmode="layer" inkscape:label="Empty【空洞】">
  <path d="M 100.0,87.01135488416048 L 0.0,99.073803036458" fill="none" stroke="rgb(178,0,0)" stroke-width="0.1"/>
  <path d="M 13.797500000000014,76.75 L 16.51750000000004,43.745000000000005" fill="none" stroke="rgb(178,0,0)" stroke-width="0.1"/>
  <path d="M 16.51750000000004,43.745000000000005 L 32.797500000000014,39.75" fill="none" stroke="rgb(178,0,0)" stroke-width="0.1"/>
  <path d="M 34.797500000000014,76.75 L 38.37250000000006,43.745000000000005" fill="none" stroke="rgb(178,0,0)" stroke-width="0.1"/>
  <path d="M 38.37250000000006,43.745000000000005 L 50.797500000000014,36.75" fill="none" stroke="rgb(178,0,0)" stroke-width="0.1"/>
  <path d="M 13.797500000000014,29.75 L 16.398349088044597,0.0" fill="none" stroke="rgb(178,0,0)" stroke-width="0.1"/>
 </g>
 <g id="layerPub_text【公共文字标注】" inkscape:groupmode="layer" inkscape:label="Pub_text【公共文字标注】">
  <text fill="rgb(0,0,0)" font-family="Noto Sans CJK SC" font-size="2" transform="rotate(-0.0,16.037500000000023,63.66899999999998)" x="16.037500000000023" y="63.66899999999998">
   上空
  </text>
  <text fill="rgb(0,0,0)" font-family="Noto Sans CJK SC" font-size="2" transform="rotate(-0.0,36.696500000000015,63.66899999999998)" x="36.696500000000015" y="63.66899999999998">
   上空
  </text>
  <text fill="rgb(0,0,0)" font-family="Noto Sans CJK SC" font-size="2" transform="rotate(-0.0,16.037500000000023,0.9959999999999809)" x="16.037500000000023" y="0.9959999999999809">
   上空
  </text>
 </g>
 <g id="layerStair【楼梯、电梯】" inkscape:groupmode="layer" inkscape:label="Stair【楼梯、电梯】">
  <path d="M 10.797500000000014,10.75 L 10.79041927489493,10.245167387034371" fill="none" stroke="rgb(44,178,0)" stroke-width="0.1"/>
  <path d="M 10.79041927489493,10.245167387034371 L 10.769182670320674,9.740731949730502" fill="none" stroke="rgb(44,178,0)" stroke-width="0.1"/>
  <path d="M 10.769182670320674,9.740731949730502 L 10.733806894117151,9.237090551273582" fill="none" stroke="rgb(44,178,0)" stroke-width="0.1"/>
  <path d="M 10.733806894117151,9.237090551273582 L 10.684319778078361,8.734639430140419" fill="none" stroke="rgb(44,178,0)" stroke-width="0.1"/>
  <path d="M 10.684319778078361,8.734639430140419 L 10.620760256056087,8.233773888361043" fill="none" stroke="rgb(44,178,0)" stroke-width="0.1"/>
  <path d="M 10.620760256056087,8.233773888361043 L 10.543178333328228,7.7348879805147135" fill="none" stroke="rgb(44,178,0)" stroke-width="0.1"/>
  <path d="M 10.543178333328228,7.7348879805147135 L 10.45163504725815,7.238374203709668" fill="none" stroke="rgb(44,178,0)" stroke-width="0.1"/>
  <path d="M 10.45163504725815,7.238374203709668 L 10.3462024192728,6.744623188786363" fill="none" stroke="rgb(44,178,0)" stroke-width="0.1"/>
  <path d="M 10.3462024192728,6.744623188786363 L 10.226963398200724,6.254023392989893" fill="none" stroke="rgb(44,178,0)" stroke-width="0.1"/>
  <path d="M 10.226963398200724,6.254023392989893 L 10.094011795011852,5.766960794352713" fill="none" stroke="rgb(44,178,0)" stroke-width="0.1"/>
  <path d="M 10.094011795011852,5.766960794352713 L 9.947452209012113,5.283818588026975" fill="none" stroke="rgb(44,178,0)" stroke-width="0.1"/>
  <path d="M 9.947452209012113,5.283818588026975 L 9.787399945550646,4.804976884807047" fill="none" stroke="rgb(44,178,0)" stroke-width="0.1"/>
  <path d="M 9.787399945550646,4.804976884807047 L 9.613980925302826,4.3308124120783305" fill="none" stroke="rgb(44,178,0)" stroke-width="0.1"/>
  <path d="M 9.613980925302826,4.3308124120783305 L 9.427331585203206,3.8616982174283976" fill="none" stroke="rgb(44,178,0)" stroke-width="0.1"/>
  <path d="M 9.427331585203206,3.8616982174283976 L 9.227598771103771,3.3980033751520295" fill="none" stroke="rgb(44,178,0)" stroke-width="0.1"/>
  <path d="M 9.227598771103771,3.3980033751520295 L 9.01493962224356,2.9400926958840046" fill="none" stroke="rgb(44,178,0)" stroke-width="0.1"/>
  <path d="M 9.01493962224356,2.9400926958840046 L 8.789521447619677,2.4883264395842843" fill="none" stroke="rgb(44,178,0)" stroke-width="0.1"/>
  <path d="M 8.789521447619677,2.4883264395842843 L 8.55152159435761,2.0430600321057" fill="none" stroke="rgb(44,178,0)" stroke-width="0.1"/>
  <path d="M 8.55152159435761,2.0430600321057 L 8.301127308183368,1.6046437855624163" fill="none" stroke="rgb(44,178,0)" stroke-width="0.1"/>
  <path d="M 8.301127308183368,1.6046437855624163 L 8.038535586109106,1.1734226227239333" fill="none" stroke="rgb(44,178,0)" stroke-width="0.1"/>
  <path d="M 8.038535586109106,1.1734226227239333 L 7.763953021445786,0.7497358056471057" fill="none" stroke="rgb(44,178,0)" stroke-width="0.1"/>
  <path d="M 7.763953021445786,0.7497358056471057 L 7.477595641266703,0.33391666876354975" fill="none" stroke="rgb(44,178,0)" stroke-width="0.1"/>
  <path d="M 10.797500000000014,10.75 L 10.797500000000014,11.75" fill="none" stroke="rgb(44,178,0)" stroke-width="0.1"/>
  <path d="M 0.1494966248479841,28.180098771103758 L 0.6074073041160091,27.967439622243546" fill="none" stroke="rgb(44,178,0)" stroke-width="0.1"/>
  <path d="M 0.6074073041160091,27.967439622243546 L 1.0591735604157293,27.742021447619663" fill="none" stroke="rgb(44,178,0)" stroke-width="0.1"/>
  <path d="M 1.0591735604157293,27.742021447619663 L 1.5044399678943137,27.504021594357596" fill="none" stroke="rgb(44,178,0)" stroke-width="0.1"/>
  <path d="M 1.5044399678943137,27.504021594357596 L 1.9428562144375974,27.253627308183354" fill="none" stroke="rgb(44,178,0)" stroke-width="0.1"/>
  <path d="M 1.9428562144375974,27.253627308183354 L 2.3740773772760804,26.991035586109092" fill="none" stroke="rgb(44,178,0)" stroke-width="0.1"/>
  <path d="M 2.3740773772760804,26.991035586109092 L 2.797764194352908,26.716453021445773" fill="none" stroke="rgb(44,178,0)" stroke-width="0.1"/>
  <path d="M 2.797764194352908,26.716453021445773 L 3.213583331236464,26.43009564126669" fill="none" stroke="rgb(44,178,0)" stroke-width="0.1"/>
  <path d="M 3.213583331236464,26.43009564126669 L 3.621207643371349,26.132188736448484" fill="none" stroke="rgb(44,178,0)" stroke-width="0.1"/>
  <path d="M 3.621207643371349,26.132188736448484 L 4.020316433457197,25.8229666844245" fill="none" stroke="rgb(44,178,0)" stroke-width="0.1"/>
  <path d="M 4.020316433457197,25.8229666844245 L 4.410595703757622,25.50267276478894" fill="none" stroke="rgb(44,178,0)" stroke-width="0.1"/>
  <path d="M 4.410595703757622,25.50267276478894 L 4.791738403136037,25.171558967897" fill="none" stroke="rgb(44,178,0)" stroke-width="0.1"/>
  <path d="M 4.791738403136037,25.171558967897 L 5.1634446686282445,24.82988579661253" fill="none" stroke="rgb(44,178,0)" stroke-width="0.1"/>
  <path d="M 5.1634446686282445,24.82988579661253 L 5.525422061357858,24.477922061357845" fill="none" stroke="rgb(44,178,0)" stroke-width="0.1"/>
  <path d="M 5.525422061357858,24.477922061357845 L 5.877385796612543,24.11594466862823" fill="none" stroke="rgb(44,178,0)" stroke-width="0.1"/>
  <path d="M 5.877385796612543,24.11594466862823 L 6.219058967897013,23.744238403136023" fill="none" stroke="rgb(44,178,0)" stroke-width="0.1"/>
  <path d="M 6.219058967897013,23.744238403136023 L 6.550172764788954,23.363095703757608" fill="none" stroke="rgb(44,178,0)" stroke-width="0.1"/>
  <path d="M 6.550172764788954,23.363095703757608 L 6.870466684424514,22.972816433457183" fill="none" stroke="rgb(44,178,0)" stroke-width="0.1"/>
  <path d="M 6.870466684424514,22.972816433457183 L 7.179688736448497,22.573707643371336" fill="none" stroke="rgb(44,178,0)" stroke-width="0.1"/>
  <path d="M 7.179688736448497,22.573707643371336 L 7.477595641266703,22.16608333123645" fill="none" stroke="rgb(44,178,0)" stroke-width="0.1"/>
  <path d="M 7.477595641266703,22.16608333123645 L 7.763953021445786,21.750264194352894" fill="none" stroke="rgb(44,178,0)" stroke-width="0.1"/>
  <path d="M 7.763953021445786,21.750264194352894 L 8.038535586109106,21.326577377276067" fill="none" stroke="rgb(44,178,0)" stroke-width="0.1"/>
  <path d="M 8.038535586109106,21.326577377276067 L 8.301127308183368,20.895356214437584" fill="none" stroke="rgb(44,178,0)" stroke-width="0.1"/>
  <path d="M 8.301127308183368,20.895356214437584 L 8.55152159435761,20.4569399678943" fill="none" stroke="rgb(44,178,0)" stroke-width="0.1"/>
  <path d="M 8.55152159435761,20.4569399678943 L 8.789521447619677,20.011673560415716" fill="none" stroke="rgb(44,178,0)" stroke-width="0.1"/>
  <path d="M 8.789521447619677,20.011673560415716 L 9.01493962224356,19.559907304115995" fill="none" stroke="rgb(44,178,0)" stroke-width="0.1"/>
  <path d="M 9.01493962224356,19.559907304115995 L 9.227598771103771,19.10199662484797" fill="none" stroke="rgb(44,178,0)" stroke-width="0.1"/>
  <path d="M 9.227598771103771,19.10199662484797 L 9.427331585203206,18.638301782571602" fill="none" stroke="rgb(44,178,0)" stroke-width="0.1"/>
  <path d="M 9.427331585203206,18.638301782571602 L 9.613980925302826,18.16918758792167" fill="none" stroke="rgb(44,178,0)" stroke-width="0.1"/>
  <path d="M 9.613980925302826,18.16918758792167 L 9.787399945550646,17.695023115192953" fill="none" stroke="rgb(44,178,0)" stroke-width="0.1"/>
  <path d="M 9.787399945550646,17.695023115192953 L 9.947452209012113,17.216181411973025" fill="none" stroke="rgb(44,178,0)" stroke-width="0.1"/>
  <path d="M 9.947452209012113,17.216181411973025 L 10.094011795011852,16.733039205647287" fill="none" stroke="rgb(44,178,0)" stroke-width="0.1"/>
  <path d="M 10.094011795011852,16.733039205647287 L 10.226963398200724,16.245976607010107" fill="none" stroke="rgb(44,178,0)" stroke-width="0.1"/>
  <path d="M 10.226963398200724,16.245976607010107 L 10.3462024192728,15.755376811213637" fill="none" stroke="rgb(44,178,0)" stroke-width="0.1"/>
  <path d="M 10.3462024192728,15.755376811213637 L 10.45163504725815,15.261625796290332" fill="none" stroke="rgb(44,178,0)" stroke-width="0.1"/>
  <path d="M 10.45163504725815,15.261625796290332 L 10.543178333328228,14.765112019485287" fill="none" stroke="rgb(44,178,0)" stroke-width="0.1"/>
  <path d="M 10.543178333328228,14.765112019485287 L 10.620760256056087,14.266226111638957" fill="none" stroke="rgb(44,178,0)" stroke-width="0.1"/>
  <path d="M 10.620760256056087,14.266226111638957 L 10.684319778078361,13.765360569859581" fill="none" stroke="rgb(44,178,0)" stroke-width="0.1"/>
  <path d="M 10.684319778078361,13.765360569859581 L 10.733806894117151,13.262909448726418" fill="none" stroke="rgb(44,178,0)" stroke-width="0.1"/>
  <path d="M 10.733806894117151,13.262909448726418 L 10.769182670320674,12.759268050269498" fill="none" stroke="rgb(44,178,0)" stroke-width="0.1"/>
  <path d="M 10.769182670320674,12.759268050269498 L 10.79041927489493,12.254832612965629" fill="none" stroke="rgb(44,178,0)" stroke-width="0.1"/>
  <path d="M 10.79041927489493,12.254832612965629 L 10.797500000000014,11.75" fill="none" stroke="rgb(44,178,0)" stroke-width="0.1"/>
  <path d="M 10.797500000000014,57.75 L 10.79041927489493,57.24516738703437" fill="none" stroke="rgb(44,178,0)" stroke-width="0.1"/>
  <path d="M 10.79041927489493,57.24516738703437 L 10.769182670320674,56.7407319497305" fill="none" stroke="rgb(44,178,0)" stroke-width="0.1"/>
  <path d="M 10.769182670320674,56.7407319497305 L 10.733806894117151,56.23709055127358" fill="none" stroke="rgb(44,178,0)" stroke-width="0.1"/>
  <path d="M 10.733806894117151,56.23709055127358 L 10.684319778078361,55.73463943014042" fill="none" stroke="rgb(44,178,0)" stroke-width="0.1"/>
  <path d="M 10.684319778078361,55.73463943014042 L 10.620760256056087,55.23377388836104" fill="none" stroke="rgb(44,178,0)" stroke-width="0.1"/>
  <path d="M 10.620760256056087,55.23377388836104 L 10.543178333328228,54.73488798051471" fill="none" stroke="rgb(44,178,0)" stroke-width="0.1"/>
  <path d="M 10.543178333328228,54.73488798051471 L 10.45163504725815,54.23837420370967" fill="none" stroke="rgb(44,178,0)" stroke-width="0.1"/>
  <path d="M 10.45163504725815,54.23837420370967 L 10.3462024192728,53.74462318878636" fill="none" stroke="rgb(44,178,0)" stroke-width="0.1"/>
  <path d="M 10.3462024192728,53.74462318878636 L 10.226963398200724,53.25402339298989" fill="none" stroke="rgb(44,178,0)" stroke-width="0.1"/>
  <path d="M 10.226963398200724,53.25402339298989 L 10.094011795011852,52.76696079435271" fill="none" stroke="rgb(44,178,0)" stroke-width="0.1"/>
  <path d="M 10.094011795011852,52.76696079435271 L 9.947452209012113,52.283818588026975" fill="none" stroke="rgb(44,178,0)" stroke-width="0.1"/>
  <path d="M 9.947452209012113,52.283818588026975 L 9.787399945550646,51.80497688480705" fill="none" stroke="rgb(44,178,0)" stroke-width="0.1"/>
  <path d="M 9.787399945550646,51.80497688480705 L 9.613980925302826,51.33081241207833" fill="none" stroke="rgb(44,178,0)" stroke-width="0.1"/>
  <path d="M 9.613980925302826,51.33081241207833 L 9.427331585203206,50.8616982174284" fill="none" stroke="rgb(44,178,0)" stroke-width="0.1"/>
  <path d="M 9.427331585203206,50.8616982174284 L 9.227598771103771,50.39800337515203" fill="none" stroke="rgb(44,178,0)" stroke-width="0.1"/>
  <path d="M 9.227598771103771,50.39800337515203 L 9.01493962224356,49.940092695884005" fill="none" stroke="rgb(44,178,0)" stroke-width="0.1"/>
  <path d="M 9.01493962224356,49.940092695884005 L 8.789521447619677,49.488326439584284" fill="none" stroke="rgb(44,178,0)" stroke-width="0.1"/>
  <path d="M 8.789521447619677,49.488326439584284 L 8.55152159435761,49.0430600321057" fill="none" stroke="rgb(44,178,0)" stroke-width="0.1"/>
  <path d="M 8.55152159435761,49.0430600321057 L 8.301127308183368,48.604643785562416" fill="none" stroke="rgb(44,178,0)" stroke-width="0.1"/>
  <path d="M 8.301127308183368,48.604643785562416 L 8.038535586109106,48.17342262272393" fill="none" stroke="rgb(44,178,0)" stroke-width="0.1"/>
  <path d="M 8.038535586109106,48.17342262272393 L 7.763953021445786,47.749735805647106" fill="none" stroke="rgb(44,178,0)" stroke-width="0.1"/>
  <path d="M 7.763953021445786,47.749735805647106 L 7.477595641266703,47.33391666876355" fill="none" stroke="rgb(44,178,0)" stroke-width="0.1"/>
  <path d="M 7.477595641266703,47.33391666876355 L 7.179688736448497,46.926292356628664" fill="none" stroke="rgb(44,178,0)" stroke-width="0.1"/>
  <path d="M 7.179688736448497,46.926292356628664 L 6.870466684424514,46.52718356654282" fill="none" stroke="rgb(44,178,0)" stroke-width="0.1"/>
  <path d="M 6.870466684424514,46.52718356654282 L 6.550172764788954,46.13690429624239" fill="none" stroke="rgb(44,178,0)" stroke-width="0.1"/>
  <path d="M 6.550172764788954,46.13690429624239 L 6.219058967897013,45.75576159686398" fill="none" stroke="rgb(44,178,0)" stroke-width="0.1"/>
  <path d="M 6.219058967897013,45.75576159686398 L 5.877385796612543,45.38405533137177" fill="none" stroke="rgb(44,178,0)" stroke-width="0.1"/>
  <path d="M 5.877385796612543,45.38405533137177 L 5.525422061357858,45.022077938642155" fill="none" stroke="rgb(44,178,0)" stroke-width="0.1"/>
  <path d="M 5.525422061357858,45.022077938642155 L 5.1634446686282445,44.67011420338747" fill="none" stroke="rgb(44,178,0)" stroke-width="0.1"/>
  <path d="M 5.1634446686282445,44.67011420338747 L 4.791738403136037,44.328441032103" fill="none" stroke="rgb(44,178,0)" stroke-width="0.1"/>
  <path d="M 4.791738403136037,44.328441032103 L 4.410595703757622,43.99732723521106" fill="none" stroke="rgb(44,178,0)" stroke-width="0.1"/>
  <path d="M 4.410595703757622,43.99732723521106 L 4.020316433457197,43.6770333155755" fill="none" stroke="rgb(44,178,0)" stroke-width="0.1"/>
  <path d="M 4.020316433457197,43.6770333155755 L 3.621207643371349,43.367811263551516" fill="none" stroke="rgb(44,178,0)" stroke-width="0.1"/>
  <path d="M 3.621207643371349,43.367811263551516 L 3.213583331236464,43.06990435873331" fill="none" stroke="rgb(44,178,0)" stroke-width="0.1"/>
  <path d="M 3.213583331236464,43.06990435873331 L 2.797764194352908,42.78354697855423" fill="none" stroke="rgb(44,178,0)" stroke-width="0.1"/>
  <path d="M 2.797764194352908,42.78354697855423 L 2.3740773772760804,42.50896441389091" fill="none" stroke="rgb(44,178,0)" stroke-width="0.1"/>
  <path d="M 2.3740773772760804,42.50896441389091 L 1.9428562144375974,42.246372691816646" fill="none" stroke="rgb(44,178,0)" stroke-width="0.1"/>
  <path d="M 1.9428562144375974,42.246372691816646 L 1.5044399678943137,41.995978405642404" fill="none" stroke="rgb(44,178,0)" stroke-width="0.1"/>
  <path d="M 1.5044399678943137,41.995978405642404 L 1.0591735604157293,41.75797855238034" fill="none" stroke="rgb(44,178,0)" stroke-width="0.1"/>
  <path d="M 1.0591735604157293,41.75797855238034 L 0.6074073041160091,41.532560377756454" fill="none" stroke="rgb(44,178,0)" stroke-width="0.1"/>
  <path d="M 0.6074073041160091,41.532560377756454 L 0.1494966248479841,41.31990122889624" fill="none" stroke="rgb(44,178,0)" stroke-width="0.1"/>
  <path d="M 10.797500000000014,57.75 L 10.797500000000014,58.75" fill="none" stroke="rgb(44,178,0)" stroke-width="0.1"/>
  <path d="M 0.1494966248479841,75.18009877110376 L 0.6074073041160091,74.96743962224355" fill="none" stroke="rgb(44,178,0)" stroke-width="0.1"/>
  <path d="M 0.6074073041160091,74.96743962224355 L 1.0591735604157293,74.74202144761966" fill="none" stroke="rgb(44,178,0)" stroke-width="0.1"/>
  <path d="M 1.0591735604157293,74.74202144761966 L 1.5044399678943137,74.5040215943576" fill="none" stroke="rgb(44,178,0)" stroke-width="0.1"/>
  <path d="M 1.5044399678943137,74.5040215943576 L 1.9428562144375974,74.25362730818335" fill="none" stroke="rgb(44,178,0)" stroke-width="0.1"/>
  <path d="M 1.9428562144375974,74.25362730818335 L 2.3740773772760804,73.99103558610909" fill="none" stroke="rgb(44,178,0)" stroke-width="0.1"/>
  <path d="M 2.3740773772760804,73.99103558610909 L 2.797764194352908,73.71645302144577" fill="none" stroke="rgb(44,178,0)" stroke-width="0.1"/>
  <path d="M 2.797764194352908,73.71645302144577 L 3.213583331236464,73.43009564126669" fill="none" stroke="rgb(44,178,0)" stroke-width="0.1"/>
  <path d="M 3.213583331236464,73.43009564126669 L 3.621207643371349,73.13218873644848" fill="none" stroke="rgb(44,178,0)" stroke-width="0.1"/>
  <path d="M 3.621207643371349,73.13218873644848 L 4.020316433457197,72.8229666844245" fill="none" stroke="rgb(44,178,0)" stroke-width="0.1"/>
  <path d="M 4.020316433457197,72.8229666844245 L 4.410595703757622,72.50267276478894" fill="none" stroke="rgb(44,178,0)" stroke-width="0.1"/>
  <path d="M 4.410595703757622,72.50267276478894 L 4.791738403136037,72.171558967897" fill="none" stroke="rgb(44,178,0)" stroke-width="0.1"/>
  <path d="M 4.791738403136037,72.171558967897 L 5.1634446686282445,71.82988579661253" fill="none" stroke="rgb(44,178,0)" stroke-width="0.1"/>
  <path d="M 5.1634446686282445,71.82988579661253 L 5.525422061357858,71.47792206135784" fill="none" stroke="rgb(44,178,0)" stroke-width="0.1"/>
  <path d="M 5.525422061357858,71.47792206135784 L 5.877385796612543,71.11594466862823" fill="none" stroke="rgb(44,178,0)" stroke-width="0.1"/>
  <path d="M 5.877385796612543,71.11594466862823 L 6.219058967897013,70.74423840313602" fill="none" stroke="rgb(44,178,0)" stroke-width="0.1"/>
  <path d="M 6.219058967897013,70.74423840313602 L 6.550172764788954,70.36309570375761" fill="none" stroke="rgb(44,178,0)" stroke-width="0.1"/>
  <path d="M 6.550172764788954,70.36309570375761 L 6.870466684424514,69.97281643345718" fill="none" stroke="rgb(44,178,0)" stroke-width="0.1"/>
  <path d="M 6.870466684424514,69.97281643345718 L 7.179688736448497,69.57370764337134" fill="none" stroke="rgb(44,178,0)" stroke-width="0.1"/>
  <path d="M 7.179688736448497,69.57370764337134 L 7.477595641266703,69.16608333123645" fill="none" stroke="rgb(44,178,0)" stroke-width="0.1"/>
  <path d="M 7.477595641266703,69.16608333123645 L 7.763953021445786,68.7502641943529" fill="none" stroke="rgb(44,178,0)" stroke-width="0.1"/>
  <path d="M 7.763953021445786,68.7502641943529 L 8.038535586109106,68.32657737727607" fill="none" stroke="rgb(44,178,0)" stroke-width="0.1"/>
  <path d="M 8.038535586109106,68.32657737727607 L 8.301127308183368,67.89535621443758" fill="none" stroke="rgb(44,178,0)" stroke-width="0.1"/>
  <path d="M 8.301127308183368,67.89535621443758 L 8.55152159435761,67.4569399678943" fill="none" stroke="rgb(44,178,0)" stroke-width="0.1"/>
  <path d="M 8.55152159435761,67.4569399678943 L 8.789521447619677,67.01167356041572" fill="none" stroke="rgb(44,178,0)" stroke-width="0.1"/>
  <path d="M 8.789521447619677,67.01167356041572 L 9.01493962224356,66.559907304116" fill="none" stroke="rgb(44,178,0)" stroke-width="0.1"/>
  <path d="M 9.01493962224356,66.559907304116 L 9.227598771103771,66.10199662484797" fill="none" stroke="rgb(44,178,0)" stroke-width="0.1"/>
  <path d="M 9.227598771103771,66.10199662484797 L 9.427331585203206,65.6383017825716" fill="none" stroke="rgb(44,178,0)" stroke-width="0.1"/>
  <path d="M 9.427331585203206,65.6383017825716 L 9.613980925302826,65.16918758792167" fill="none" stroke="rgb(44,178,0)" stroke-width="0.1"/>
  <path d="M 9.613980925302826,65.16918758792167 L 9.787399945550646,64.69502311519295" fill="none" stroke="rgb(44,178,0)" stroke-width="0.1"/>
  <path d="M 9.787399945550646,64.69502311519295 L 9.947452209012113,64.21618141197303" fill="none" stroke="rgb(44,178,0)" stroke-width="0.1"/>
  <path d="M 9.947452209012113,64.21618141197303 L 10.094011795011852,63.73303920564729" fill="none" stroke="rgb(44,178,0)" stroke-width="0.1"/>
  <path d="M 10.094011795011852,63.73303920564729 L 10.226963398200724,63.24597660701011" fill="none" stroke="rgb(44,178,0)" stroke-width="0.1"/>
  <path d="M 10.226963398200724,63.24597660701011 L 10.3462024192728,62.75537681121364" fill="none" stroke="rgb(44,178,0)" stroke-width="0.1"/>
  <path d="M 10.3462024192728,62.75537681121364 L 10.45163504725815,62.26162579629033" fill="none" stroke="rgb(44,178,0)" stroke-width="0.1"/>
  <path d="M 10.45163504725815,62.26162579629033 L 10.543178333328228,61.76511201948529" fill="none" stroke="rgb(44,178,0)" stroke-width="0.1"/>
  <path d="M 10.543178333328228,61.76511201948529 L 10.620760256056087,61.26622611163896" fill="none" stroke="rgb(44,178,0)" stroke-width="0.1"/>
  <path d="M 10.620760256056087,61.26622611163896 L 10.684319778078361,60.76536056985958" fill="none" stroke="rgb(44,178,0)" stroke-width="0.1"/>
  <path d="M 10.684319778078361,60.76536056985958 L 10.733806894117151,60.26290944872642" fill="none" stroke="rgb(44,178,0)" stroke-width="0.1"/>
  <path d="M 10.733806894117151,60.26290944872642 L 10.769182670320674,59.7592680502695" fill="none" stroke="rgb(44,178,0)" stroke-width="0.1"/>
  <path d="M 10.769182670320674,59.7592680502695 L 10.79041927489493,59.25483261296563" fill="none" stroke="rgb(44,178,0)" stroke-width="0.1"/>
  <path d="M 10.79041927489493,59.25483261296563 L 10.797500000000014,58.75" fill="none" stroke="rgb(44,178,0)" stroke-width="0.1"/>
 </g>
 <g id="layerWall【砖墙】" inkscape:groupmode="layer" inkscape:label="Wall【砖墙】">
  <path d="M 0.0,76.75 L 11.797500000000014,76.75" fill="none" instance-id="-1" semantic-id="1" stroke="rgb(178,178,0)" stroke-width="0.1"/>
  <path d="M 0.0,78.75 L 12.797500000000014,78.75" fill="none" instance-id="-1" semantic-id="1" stroke="rgb(178,178,0)" stroke-width="0.1"/>
  <path d="M 8.797500000000014,31.75 L 8.797500000000014,37.75" fill="none" instance-id="-1" semantic-id="1" stroke="rgb(178,178,0)" stroke-width="0.1"/>
  <path d="M 6.797500000000014,31.75 L 6.797500000000014,37.75" fill="none" instance-id="-1" semantic-id="1" stroke="rgb(178,178,0)" stroke-width="0.1"/>
  <path d="M 7.797500000000014,39.75 L 0.0,39.75" fill="none" instance-id="-1" semantic-id="1" stroke="rgb(178,178,0)" stroke-width="0.1"/>
  <path d="M 6.797500000000014,37.75 L 0.0,37.75" fill="none" instance-id="-1" semantic-id="1" stroke="rgb(178,178,0)" stroke-width="0.1"/>
  <path d="M 50.797500000000014,36.75 L 34.797500000000014,36.75" fill="none" instance-id="-1" semantic-id="1" stroke="rgb(178,178,0)" stroke-width="0.1"/>
  <path d="M 51.797500000000014,34.75 L 34.797500000000014,34.75" fill="none" instance-id="-1" semantic-id="1" stroke="rgb(178,178,0)" stroke-width="0.1"/>
  <path d="M 52.797500000000014,36.75 L 52.797500000000014,78.75" fill="none" instance-id="-1" semantic-id="1" stroke="rgb(178,178,0)" stroke-width="0.1"/>
  <path d="M 50.797500000000014,36.75 L 50.797500000000014,76.75" fill="none" instance-id="-1" semantic-id="1" stroke="rgb(178,178,0)" stroke-width="0.1"/>
  <path d="M 13.797500000000014,39.75 L 13.797500000000014,76.75" fill="none" instance-id="-1" semantic-id="1" stroke="rgb(178,178,0)" stroke-width="0.1"/>
  <path d="M 11.797500000000014,39.75 L 11.797500000000014,76.75" fill="none" instance-id="-1" semantic-id="1" stroke="rgb(178,178,0)" stroke-width="0.1"/>
  <path d="M 34.797500000000014,76.75 L 50.797500000000014,76.75" fill="none" instance-id="-1" semantic-id="1" stroke="rgb(178,178,0)" stroke-width="0.1"/>
  <path d="M 33.797500000000014,78.75 L 52.797500000000014,78.75" fill="none" instance-id="-1" semantic-id="1" stroke="rgb(178,178,0)" stroke-width="0.1"/>
  <path d="M 34.797500000000014,0.0 L 34.797500000000014,30.75" fill="none" instance-id="-1" semantic-id="1" stroke="rgb(178,178,0)" stroke-width="0.1"/>
  <path d="M 32.797500000000014,0.0 L 32.797500000000014,29.75" fill="none" instance-id="-1" semantic-id="1" stroke="rgb(178,178,0)" stroke-width="0.1"/>
  <path d="M 13.797500000000014,0.0 L 13.797500000000014,29.75" fill="none" instance-id="-1" semantic-id="1" stroke="rgb(178,178,0)" stroke-width="0.1"/>
  <path d="M 11.797500000000014,0.0 L 11.797500000000014,29.75" fill="none" instance-id="-1" semantic-id="1" stroke="rgb(178,178,0)" stroke-width="0.1"/>
  <path d="M 32.797500000000014,39.75 L 13.797500000000014,39.75" fill="none" instance-id="-1" semantic-id="1" stroke="rgb(178,178,0)" stroke-width="0.1"/>
  <path d="M 32.797500000000014,37.75 L 12.797500000000014,37.75" fill="none" instance-id="-1" semantic-id="1" stroke="rgb(178,178,0)" stroke-width="0.1"/>
  <path d="M 32.797500000000014,31.75 L 12.797500000000014,31.75" fill="none" instance-id="-1" semantic-id="1" stroke="rgb(178,178,0)" stroke-width="0.1"/>
  <path d="M 32.797500000000014,29.75 L 13.797500000000014,29.75" fill="none" instance-id="-1" semantic-id="1" stroke="rgb(178,178,0)" stroke-width="0.1"/>
  <path d="M 34.797500000000014,38.75 L 34.797500000000014,76.75" fill="none" instance-id="-1" semantic-id="1" stroke="rgb(178,178,0)" stroke-width="0.1"/>
  <path d="M 32.797500000000014,39.75 L 32.797500000000014,76.75" fill="none" instance-id="-1" semantic-id="1" stroke="rgb(178,178,0)" stroke-width="0.1"/>
  <path d="M 34.797500000000014,30.75 L 34.797500000000014,34.75" fill="none" instance-id="-1" semantic-id="1" stroke="rgb(178,178,0)" stroke-width="0.1"/>
  <path d="M 32.797500000000014,31.75 L 32.797500000000014,35.75" fill="none" instance-id="-1" semantic-id="1" stroke="rgb(178,178,0)" stroke-width="0.1"/>
  <path d="M 34.797500000000014,36.75 L 34.797500000000014,38.75" fill="none" instance-id="-1" semantic-id="1" stroke="rgb(178,178,0)" stroke-width="0.1"/>
  <path d="M 32.797500000000014,35.75 L 32.797500000000014,37.75" fill="none" instance-id="-1" semantic-id="1" stroke="rgb(178,178,0)" stroke-width="0.1"/>
  <path d="M 100.0,36.75 L 52.797500000000014,36.75" fill="none" instance-id="-1" semantic-id="1" stroke="rgb(178,178,0)" stroke-width="0.1"/>
  <path d="M 100.0,34.75 L 51.797500000000014,34.75" fill="none" instance-id="-1" semantic-id="1" stroke="rgb(178,178,0)" stroke-width="0.1"/>
  <path d="M 11.797500000000014,39.75 L 7.797500000000014,39.75" fill="none" instance-id="-1" semantic-id="1" stroke="rgb(178,178,0)" stroke-width="0.1"/>
  <path d="M 12.797500000000014,37.75 L 8.797500000000014,37.75" fill="none" instance-id="-1" semantic-id="1" stroke="rgb(178,178,0)" stroke-width="0.1"/>
  <path d="M 13.797500000000014,76.75 L 32.797500000000014,76.75" fill="none" instance-id="-1" semantic-id="1" stroke="rgb(178,178,0)" stroke-width="0.1"/>
  <path d="M 12.797500000000014,78.75 L 33.797500000000014,78.75" fill="none" instance-id="-1" semantic-id="1" stroke="rgb(178,178,0)" stroke-width="0.1"/>
  <path d="M 12.797500000000014,31.75 L 8.797500000000014,31.75" fill="none" instance-id="-1" semantic-id="1" stroke="rgb(178,178,0)" stroke-width="0.1"/>
  <path d="M 11.797500000000014,29.75 L 7.797500000000014,29.75" fill="none" instance-id="-1" semantic-id="1" stroke="rgb(178,178,0)" stroke-width="0.1"/>
  <path d="M 6.797500000000014,31.75 L 0.0,31.75" fill="none" instance-id="-1" semantic-id="1" stroke="rgb(178,178,0)" stroke-width="0.1"/>
  <path d="M 7.797500000000014,29.75 L 0.0,29.75" fill="none" instance-id="-1" semantic-id="1" stroke="rgb(178,178,0)" stroke-width="0.1"/>
 </g>
</svg>