<?xml version="1.0" encoding="utf-8"?>
<svg style="background-color: #000;" version="1.1" viewBox="0 0 100.0 100.0" xmlns="http://www.w3.org/2000/svg" xmlns:inkscape="http://www.inkscape.org/namespaces/inkscape">
 <g id="layer-ACO-AXIS" inkscape:groupmode="layer" inkscape:label="-ACO-AXIS">
  <path d="M 16.001428499999975,35.5 L 16.001428499999975,100.0" fill="none" stroke="rgb(89,89,89)" stroke-width="0.1"/>
  <path d="M 31.001428499999975,35.5 L 31.001428499999975,100.0" fill="none" stroke="rgb(89,89,89)" stroke-width="0.1"/>
  <path d="M 51.001428499999975,100.0 L 51.001428499999975,35.5" fill="none" stroke="rgb(89,89,89)" stroke-width="0.1"/>
  <path d="M 67.00142849999997,35.5 L 67.00142849999997,100.0" fill="none" stroke="rgb(89,89,89)" stroke-width="0.1"/>
  <path d="M 88.00142849999997,35.5 L 88.00142849999997,100.0" fill="none" stroke="rgb(89,89,89)" stroke-width="0.1"/>
  <path d="M 100.0,93.5 L 0.0,93.5" fill="none" stroke="rgb(89,89,89)" stroke-width="0.1"/>
  <path d="M 100.0,89.5 L 0.0,89.5" fill="none" stroke="rgb(89,89,89)" stroke-width="0.1"/>
  <path d="M 100.0,68.5 L 0.0,68.5" fill="none" stroke="rgb(89,89,89)" stroke-width="0.1"/>
 </g>
 <g id="layer-ACO-AXIS-NUMB" inkscape:groupmode="layer" inkscape:label="-ACO-AXIS-NUMB">
  <circle cx="16.001428499999975" cy="31.5" fill="none" r="4" stroke="rgb(53,93,107)" stroke-width="0.1"/>
  <circle cx="31.001428499999975" cy="31.5" fill="none" r="4" stroke="rgb(53,93,107)" stroke-width="0.1"/>
  <circle cx="51.001428499999975" cy="31.5" fill="none" r="4" stroke="rgb(53,93,107)" stroke-width="0.1"/>
  <circle cx="67.00142849999997" cy="31.5" fill="none" r="4" stroke="rgb(53,93,107)" stroke-width="0.1"/>
  <circle cx="88.00142849999997" cy="31.5" fill="none" r="4" stroke="rgb(53,93,107)" stroke-width="0.1"/>
  <text fill="rgb(53,93,107)" font-family="Noto Sans CJK SC" font-size="2" transform="rotate(-0.0,12.06142849999992,33.07999999999993)" x="12.06142849999992" y="33.07999999999993">
   15
  </text>
  <text fill="rgb(53,93,107)" font-family="Noto Sans CJK SC" font-size="2" transform="rotate(-0.0,27.06142849999992,33.07999999999993)" x="27.06142849999992" y="33.07999999999993">
   16
  </text>
  <text fill="rgb(53,93,107)" font-family="Noto Sans CJK SC" font-size="2" transform="rotate(-0.0,47.06142849999992,33.84999999999991)" x="47.06142849999992" y="33.84999999999991">
   17
  </text>
  <text fill="rgb(53,93,107)" font-family="Noto Sans CJK SC" font-size="2" transform="rotate(-0.0,63.06142849999992,33.07999999999993)" x="63.06142849999992" y="33.07999999999993">
   18
  </text>
  <text fill="rgb(53,93,107)" font-family="Noto Sans CJK SC" font-size="2" transform="rotate(-0.0,84.15142849999984,33.07999999999993)" x="84.15142849999984" y="33.07999999999993">
   19
  </text>
  <text fill="rgb(53,93,107)" font-family="Noto Sans CJK SC" font-size="2" transform="rotate(-0.0,99.3314284999999,33.07999999999993)" x="99.3314284999999" y="33.07999999999993">
   20
  </text>
 </g>
 <g id="layer71#72#-WALL-14~JFF$0$S-EDIT" inkscape:groupmode="layer" inkscape:label="71#72#-WALL-14~JFF$0$S-EDIT">
  <path d="M 16.001428499999975,67.5 L 17.001428499999975,67.5" fill="none" stroke="rgb(255,12,73)" stroke-width="0.1"/>
  <path d="M 17.001428499999975,67.5 L 17.001428499999975,68.5" fill="none" stroke="rgb(255,12,73)" stroke-width="0.1"/>
 </g>
 <g id="layerA-CONC" inkscape:groupmode="layer" inkscape:label="A-CONC">
  <path d="M 0.0,67.5 L 17.001428499999975,67.5" fill="none" instance-id="-1" semantic-id="1" stroke="rgb(178,88,0)" stroke-width="0.1"/>
  <path d="M 17.001428499999975,67.5 L 17.001428499999975,90.5" fill="none" instance-id="-1" semantic-id="1" stroke="rgb(178,88,0)" stroke-width="0.1"/>
  <path d="M 17.001428499999975,90.5 L 11.001428499999975,90.5" fill="none" instance-id="-1" semantic-id="1" stroke="rgb(178,88,0)" stroke-width="0.1"/>
  <path d="M 11.001428499999975,90.5 L 11.001428499999975,88.5" fill="none" instance-id="-1" semantic-id="1" stroke="rgb(178,88,0)" stroke-width="0.1"/>
  <path d="M 11.001428499999975,88.5 L 15.401428499999838,88.5" fill="none" instance-id="-1" semantic-id="1" stroke="rgb(178,88,0)" stroke-width="0.1"/>
  <path d="M 15.401428499999838,88.5 L 15.401428499999838,69.09999999999991" fill="none" instance-id="-1" semantic-id="1" stroke="rgb(178,88,0)" stroke-width="0.1"/>
  <path d="M 15.401428499999838,69.09999999999991 L 0.0,69.09999999999991" fill="none" instance-id="-1" semantic-id="1" stroke="rgb(178,88,0)" stroke-width="0.1"/>
 </g>
 <g id="layerA-DIMS-INSD" inkscape:groupmode="layer" inkscape:label="A-DIMS-INSD">
  <path d="M 55.6914284999998,94.5 L 62.371428499999865,94.5" fill="none" stroke="rgb(0,178,0)" stroke-width="0.1"/>
  <path d="M 55.6914284999998,92.5 L 62.371428499999865,92.5" fill="none" stroke="rgb(0,178,0)" stroke-width="0.1"/>
  <path d="M 59.871428499999865,94.5 L 59.871428499999865,92.5" fill="none" stroke="rgb(0,178,0)" stroke-width="0.1"/>
  <path d="M 55.6914284999998,92.5 L 62.371428499999865,92.5" fill="none" stroke="rgb(0,178,0)" stroke-width="0.1"/>
  <path d="M 70.90142849999984,82.5 L 57.371428499999865,82.5" fill="none" stroke="rgb(0,178,0)" stroke-width="0.1"/>
  <path d="M 59.871428499999865,92.5 L 59.871428499999865,82.5" fill="none" stroke="rgb(0,178,0)" stroke-width="0.1"/>
  <path d="M 17.001428499999975,82.30999999999995 L 17.001428499999975,76.90000000000009" fill="none" stroke="rgb(0,178,0)" stroke-width="0.1"/>
  <path d="M 100.0,79.40000000000009 L 17.001428499999975,79.40000000000009" fill="none" stroke="rgb(0,178,0)" stroke-width="0.1"/>
  <path d="M 17.001428499999975,82.30999999999995 L 17.001428499999975,76.90000000000009" fill="none" stroke="rgb(0,178,0)" stroke-width="0.1"/>
  <path d="M 16.001428499999975,82.30999999999995 L 16.001428499999975,76.90000000000009" fill="none" stroke="rgb(0,178,0)" stroke-width="0.1"/>
  <path d="M 17.001428499999975,79.40000000000009 L 16.001428499999975,79.40000000000009" fill="none" stroke="rgb(0,178,0)" stroke-width="0.1"/>
  <path d="M 0.0,41.5 L 100.0,41.5" fill="none" stroke="rgb(0,178,0)" stroke-width="0.1"/>
  <path d="M 16.001428499999975,56.960000000000036 L 16.001428499999975,47.0" fill="none" stroke="rgb(0,178,0)" stroke-width="0.1"/>
  <path d="M 0.0,49.5 L 16.001428499999975,49.5" fill="none" stroke="rgb(0,178,0)" stroke-width="0.1"/>
  <path d="M 16.001428499999975,56.960000000000036 L 16.001428499999975,47.0" fill="none" stroke="rgb(0,178,0)" stroke-width="0.1"/>
  <path d="M 31.001428499999975,56.960000000000036 L 31.001428499999975,47.0" fill="none" stroke="rgb(0,178,0)" stroke-width="0.1"/>
  <path d="M 16.001428499999975,49.5 L 31.001428499999975,49.5" fill="none" stroke="rgb(0,178,0)" stroke-width="0.1"/>
  <path d="M 31.001428499999975,56.960000000000036 L 31.001428499999975,47.0" fill="none" stroke="rgb(0,178,0)" stroke-width="0.1"/>
  <path d="M 51.001428499999975,56.91000000000008 L 51.001428499999975,47.0" fill="none" stroke="rgb(0,178,0)" stroke-width="0.1"/>
  <path d="M 31.001428499999975,49.5 L 51.001428499999975,49.5" fill="none" stroke="rgb(0,178,0)" stroke-width="0.1"/>
  <path d="M 51.001428499999975,56.91000000000008 L 51.001428499999975,47.0" fill="none" stroke="rgb(0,178,0)" stroke-width="0.1"/>
  <path d="M 67.00142849999997,56.960000000000036 L 67.00142849999997,47.0" fill="none" stroke="rgb(0,178,0)" stroke-width="0.1"/>
  <path d="M 51.001428499999975,49.5 L 67.00142849999997,49.5" fill="none" stroke="rgb(0,178,0)" stroke-width="0.1"/>
  <path d="M 67.00142849999997,56.960000000000036 L 67.00142849999997,47.0" fill="none" stroke="rgb(0,178,0)" stroke-width="0.1"/>
  <path d="M 88.00142849999997,56.960000000000036 L 88.00142849999997,47.0" fill="none" stroke="rgb(0,178,0)" stroke-width="0.1"/>
  <path d="M 67.00142849999997,49.5 L 88.00142849999997,49.5" fill="none" stroke="rgb(0,178,0)" stroke-width="0.1"/>
  <path d="M 88.00142849999997,56.960000000000036 L 88.00142849999997,47.0" fill="none" stroke="rgb(0,178,0)" stroke-width="0.1"/>
  <path d="M 88.00142849999997,49.5 L 100.0,49.5" fill="none" stroke="rgb(0,178,0)" stroke-width="0.1"/>
  <path d="M 18.05142849999993,90.5 L 27.371428499999865,90.5" fill="none" stroke="rgb(0,178,0)" stroke-width="0.1"/>
  <path d="M 24.871428499999865,100.0 L 24.871428499999865,90.5" fill="none" stroke="rgb(0,178,0)" stroke-width="0.1"/>
 </g>
 <g id="layerA-DRAIN" inkscape:groupmode="layer" inkscape:label="A-DRAIN">
  <path d="M 69.3314284999999,91.46000000000004 L 69.3314284999999,88.46000000000004" fill="none" stroke="rgb(0,71,142)" stroke-width="0.1"/>
  <path d="M 69.3314284999999,88.46000000000004 L 69.3314284999999,85.46000000000004" fill="none" stroke="rgb(0,71,142)" stroke-width="0.1"/>
  <path d="M 69.3314284999999,85.46000000000004 L 69.3314284999999,83.46000000000004" fill="none" stroke="rgb(0,71,142)" stroke-width="0.1"/>
  <path d="M 69.3314284999999,83.46000000000004 L 68.8314284999999,85.46000000000004" fill="none" stroke="rgb(0,71,142)" stroke-width="0.1"/>
  <path d="M 68.8314284999999,85.46000000000004 L 69.3314284999999,85.46000000000004" fill="none" stroke="rgb(0,71,142)" stroke-width="0.1"/>
  <path d="M 69.3314284999999,85.46000000000004 L 69.3314284999999,91.46000000000004" fill="none" stroke="rgb(0,71,142)" stroke-width="0.1"/>
  <text fill="rgb(0,71,142)" font-family="Noto Sans CJK SC" font-size="2" transform="rotate(-90.0,68.3314284999999,93.66000000000008)" x="68.3314284999999" y="93.66000000000008">
   1:0.30
  </text>
 </g>
 <g id="layerA-EVTR" inkscape:groupmode="layer" inkscape:label="A-EVTR">
  <path d="M 98.12142849999987,94.82999999999993 L 98.12142849999987,99.17000000000007" fill="none" stroke="rgb(107,53,160)" stroke-width="0.1"/>
  <path d="M 98.3314284999999,94.61999999999989 L 98.12142849999987,94.82999999999993" fill="none" stroke="rgb(107,53,160)" stroke-width="0.1"/>
  <path d="M 100.0,94.61999999999989 L 98.3314284999999,94.61999999999989" fill="none" stroke="rgb(107,53,160)" stroke-width="0.1"/>
  <path d="M 98.3314284999999,99.38000000000011 L 100.0,99.38000000000011" fill="none" stroke="rgb(107,53,160)" stroke-width="0.1"/>
  <path d="M 98.12142849999987,99.17000000000007 L 98.3314284999999,99.38000000000011" fill="none" stroke="rgb(107,53,160)" stroke-width="0.1"/>
  <path d="M 99.24142849999998,99.5 L 99.24142849999998,99.38000000000011" fill="none" stroke="rgb(107,53,160)" stroke-width="0.1"/>
  <path d="M 99.84142849999989,99.66000000000008 L 100.0,99.66000000000008" fill="none" stroke="rgb(107,53,160)" stroke-width="0.1"/>
  <path d="M 100.0,99.50142849999997 L 99.84142849999989,99.66000000000008" fill="none" stroke="rgb(107,53,160)" stroke-width="0.1"/>
  <path d="M 98.00142849999997,99.5 L 100.0,99.5" fill="none" stroke="rgb(107,53,160)" stroke-width="0.1"/>
  <path d="M 98.00142849999997,94.5 L 98.00142849999997,99.5" fill="none" stroke="rgb(107,53,160)" stroke-width="0.1"/>
  <path d="M 100.0,94.5 L 98.00142849999997,94.5" fill="none" stroke="rgb(107,53,160)" stroke-width="0.1"/>
  <path d="M 0.0,88.5 L 9.501428499999975,88.5" fill="none" instance-id="3" semantic-id="31" stroke="rgb(107,53,160)" stroke-width="0.1"/>
  <path d="M 9.001428499999975,70.59999999999991 L 8.501428499999975,70.59999999999991" fill="none" instance-id="3" semantic-id="31" stroke="rgb(107,53,160)" stroke-width="0.1"/>
  <path d="M 9.001428499999975,70.84999999999991 L 9.001428499999975,70.34999999999991" fill="none" instance-id="3" semantic-id="31" stroke="rgb(107,53,160)" stroke-width="0.1"/>
  <path d="M 8.501428499999975,71.09999999999991 L 8.501428499999975,70.09999999999991" fill="none" instance-id="3" semantic-id="31" stroke="rgb(107,53,160)" stroke-width="0.1"/>
  <path d="M 8.501428499999975,70.09999999999991 L 0.0,70.09999999999991" fill="none" instance-id="3" semantic-id="31" stroke="rgb(107,53,160)" stroke-width="0.1"/>
  <path d="M 8.501428499999975,71.09999999999991 L 0.0,71.09999999999991" fill="none" instance-id="3" semantic-id="31" stroke="rgb(107,53,160)" stroke-width="0.1"/>
  <path d="M 13.101428499999884,79.09999999999991 L 0.0,79.09999999999991" fill="none" instance-id="3" semantic-id="31" stroke="rgb(107,53,160)" stroke-width="0.1"/>
  <path d="M 11.70142850000002,71.90000000000009 L 0.0,71.90000000000009" fill="none" instance-id="3" semantic-id="31" stroke="rgb(107,53,160)" stroke-width="0.1"/>
  <path d="M 12.001428499999975,71.59999999999991 L 0.0,71.59999999999991" fill="none" instance-id="3" semantic-id="31" stroke="rgb(107,53,160)" stroke-width="0.1"/>
  <path d="M 8.70142850000002,86.59999999999991 L 8.70142850000002,86.04999999999995" fill="none" instance-id="3" semantic-id="31" stroke="rgb(107,53,160)" stroke-width="0.1"/>
  <path d="M 11.70142850000002,86.04999999999995 L 11.70142850000002,71.90000000000009" fill="none" instance-id="3" semantic-id="31" stroke="rgb(107,53,160)" stroke-width="0.1"/>
  <path d="M 11.70142850000002,86.04999999999995 L 8.70142850000002,86.04999999999995" fill="none" instance-id="3" semantic-id="31" stroke="rgb(107,53,160)" stroke-width="0.1"/>
  <path d="M 4.0014284999999745,88.5 L 4.0014284999999745,69.59999999999991" fill="none" instance-id="3" semantic-id="31" stroke="rgb(107,53,160)" stroke-width="0.1"/>
  <path d="M 13.101428499999884,87.5 L 13.101428499999884,88.09999999999991" fill="none" instance-id="3" semantic-id="31" stroke="rgb(107,53,160)" stroke-width="0.1"/>
  <path d="M 13.101428499999884,87.20000000000005 L 13.101428499999884,86.59999999999991" fill="none" instance-id="3" semantic-id="31" stroke="rgb(107,53,160)" stroke-width="0.1"/>
  <path d="M 13.101428499999884,86.59999999999991 L 0.0,86.59999999999991" fill="none" instance-id="3" semantic-id="31" stroke="rgb(107,53,160)" stroke-width="0.1"/>
  <path d="M 13.101428499999884,87.20000000000005 L 0.0,87.20000000000005" fill="none" instance-id="3" semantic-id="31" stroke="rgb(107,53,160)" stroke-width="0.1"/>
  <path d="M 13.101428499999884,87.5 L 0.0,87.5" fill="none" instance-id="3" semantic-id="31" stroke="rgb(107,53,160)" stroke-width="0.1"/>
  <path d="M 13.101428499999884,88.09999999999991 L 0.0,88.09999999999991" fill="none" instance-id="3" semantic-id="31" stroke="rgb(107,53,160)" stroke-width="0.1"/>
  <path d="M 12.001428499999975,71.59999999999991 L 12.001428499999975,86.59999999999991" fill="none" instance-id="3" semantic-id="31" stroke="rgb(107,53,160)" stroke-width="0.1"/>
  <path d="M 98.12142849999987,94.82999999999993 L 98.12142849999987,99.17000000000007" fill="none" stroke="rgb(107,53,160)" stroke-width="0.1"/>
  <path d="M 98.3314284999999,94.61999999999989 L 98.12142849999987,94.82999999999993" fill="none" stroke="rgb(107,53,160)" stroke-width="0.1"/>
  <path d="M 100.0,94.61999999999989 L 98.3314284999999,94.61999999999989" fill="none" stroke="rgb(107,53,160)" stroke-width="0.1"/>
  <path d="M 98.3314284999999,99.38000000000011 L 100.0,99.38000000000011" fill="none" stroke="rgb(107,53,160)" stroke-width="0.1"/>
  <path d="M 98.12142849999987,99.17000000000007 L 98.3314284999999,99.38000000000011" fill="none" stroke="rgb(107,53,160)" stroke-width="0.1"/>
  <path d="M 99.24142849999998,99.5 L 99.24142849999998,99.38000000000011" fill="none" stroke="rgb(107,53,160)" stroke-width="0.1"/>
  <path d="M 99.84142849999989,99.66000000000008 L 100.0,99.66000000000008" fill="none" stroke="rgb(107,53,160)" stroke-width="0.1"/>
  <path d="M 100.0,99.50142849999997 L 99.84142849999989,99.66000000000008" fill="none" stroke="rgb(107,53,160)" stroke-width="0.1"/>
  <path d="M 98.00142849999997,99.5 L 100.0,99.5" fill="none" stroke="rgb(107,53,160)" stroke-width="0.1"/>
  <path d="M 98.00142849999997,94.5 L 98.00142849999997,99.5" fill="none" stroke="rgb(107,53,160)" stroke-width="0.1"/>
  <path d="M 100.0,94.5 L 98.00142849999997,94.5" fill="none" stroke="rgb(107,53,160)" stroke-width="0.1"/>
  <circle cx="4.0014284999999745" cy="79.09999999999991" fill="none" instance-id="3" r="0.6" semantic-id="31" stroke="rgb(107,53,160)" stroke-width="0.1"/>
  <circle cx="4.0014284999999745" cy="70.59999999999991" fill="none" instance-id="3" r="0.6" semantic-id="31" stroke="rgb(107,53,160)" stroke-width="0.1"/>
 </g>
 <g id="layerA-HATCH" inkscape:groupmode="layer" inkscape:label="A-HATCH">
  <path d="M 91.0814284999999,91.5 L 90.28142849999995,91.5" fill="none" stroke="rgb(63,63,63)" stroke-width="0.1"/>
  <path d="M 87.0814284999999,91.5 L 86.28142849999995,91.5" fill="none" stroke="rgb(63,63,63)" stroke-width="0.1"/>
  <path d="M 83.0814284999999,91.5 L 82.28142849999995,91.5" fill="none" stroke="rgb(63,63,63)" stroke-width="0.1"/>
  <path d="M 79.0814284999999,91.5 L 78.28142849999995,91.5" fill="none" stroke="rgb(63,63,63)" stroke-width="0.1"/>
  <path d="M 75.0814284999999,91.5 L 74.28142849999995,91.5" fill="none" stroke="rgb(63,63,63)" stroke-width="0.1"/>
  <path d="M 71.0814284999999,91.5 L 70.28142849999995,91.5" fill="none" stroke="rgb(63,63,63)" stroke-width="0.1"/>
  <path d="M 67.0814284999999,91.5 L 66.28142849999995,91.5" fill="none" stroke="rgb(63,63,63)" stroke-width="0.1"/>
  <path d="M 63.0814284999999,91.5 L 62.28142849999995,91.5" fill="none" stroke="rgb(63,63,63)" stroke-width="0.1"/>
  <path d="M 59.0814284999999,91.5 L 58.28142849999995,91.5" fill="none" stroke="rgb(63,63,63)" stroke-width="0.1"/>
  <path d="M 55.0814284999999,91.5 L 54.28142849999995,91.5" fill="none" stroke="rgb(63,63,63)" stroke-width="0.1"/>
  <path d="M 51.0814284999999,91.5 L 50.28142849999995,91.5" fill="none" stroke="rgb(63,63,63)" stroke-width="0.1"/>
  <path d="M 47.0814284999999,91.5 L 46.28142849999995,91.5" fill="none" stroke="rgb(63,63,63)" stroke-width="0.1"/>
  <path d="M 43.0814284999999,91.5 L 42.28142849999995,91.5" fill="none" stroke="rgb(63,63,63)" stroke-width="0.1"/>
  <path d="M 39.0814284999999,91.5 L 38.28142849999995,91.5" fill="none" stroke="rgb(63,63,63)" stroke-width="0.1"/>
  <path d="M 35.0814284999999,91.5 L 34.28142849999995,91.5" fill="none" stroke="rgb(63,63,63)" stroke-width="0.1"/>
  <path d="M 31.0814284999999,91.5 L 30.281428499999947,91.5" fill="none" stroke="rgb(63,63,63)" stroke-width="0.1"/>
  <path d="M 27.0814284999999,91.5 L 26.281428499999947,91.5" fill="none" stroke="rgb(63,63,63)" stroke-width="0.1"/>
  <path d="M 23.0814284999999,91.5 L 22.281428499999947,91.5" fill="none" stroke="rgb(63,63,63)" stroke-width="0.1"/>
  <path d="M 19.0814284999999,91.5 L 18.281428499999947,91.5" fill="none" stroke="rgb(63,63,63)" stroke-width="0.1"/>
  <path d="M 99.0814284999999,87.5 L 98.28142849999995,87.5" fill="none" stroke="rgb(63,63,63)" stroke-width="0.1"/>
  <path d="M 95.0814284999999,87.5 L 94.28142849999995,87.5" fill="none" stroke="rgb(63,63,63)" stroke-width="0.1"/>
  <path d="M 99.0814284999999,83.5 L 98.28142849999995,83.5" fill="none" stroke="rgb(63,63,63)" stroke-width="0.1"/>
  <path d="M 95.0814284999999,83.5 L 94.28142849999995,83.5" fill="none" stroke="rgb(63,63,63)" stroke-width="0.1"/>
  <path d="M 91.0814284999999,87.5 L 90.28142849999995,87.5" fill="none" stroke="rgb(63,63,63)" stroke-width="0.1"/>
  <path d="M 87.0814284999999,87.5 L 86.28142849999995,87.5" fill="none" stroke="rgb(63,63,63)" stroke-width="0.1"/>
  <path d="M 83.0814284999999,87.5 L 82.28142849999995,87.5" fill="none" stroke="rgb(63,63,63)" stroke-width="0.1"/>
  <path d="M 79.0814284999999,87.5 L 78.28142849999995,87.5" fill="none" stroke="rgb(63,63,63)" stroke-width="0.1"/>
  <path d="M 75.0814284999999,87.5 L 74.28142849999995,87.5" fill="none" stroke="rgb(63,63,63)" stroke-width="0.1"/>
  <path d="M 71.0814284999999,87.5 L 70.28142849999995,87.5" fill="none" stroke="rgb(63,63,63)" stroke-width="0.1"/>
  <path d="M 67.0814284999999,87.5 L 66.28142849999995,87.5" fill="none" stroke="rgb(63,63,63)" stroke-width="0.1"/>
  <path d="M 63.0814284999999,87.5 L 62.28142849999995,87.5" fill="none" stroke="rgb(63,63,63)" stroke-width="0.1"/>
  <path d="M 59.0814284999999,87.5 L 58.28142849999995,87.5" fill="none" stroke="rgb(63,63,63)" stroke-width="0.1"/>
  <path d="M 55.0814284999999,87.5 L 54.28142849999995,87.5" fill="none" stroke="rgb(63,63,63)" stroke-width="0.1"/>
  <path d="M 51.0814284999999,87.5 L 50.28142849999995,87.5" fill="none" stroke="rgb(63,63,63)" stroke-width="0.1"/>
  <path d="M 47.0814284999999,87.5 L 46.28142849999995,87.5" fill="none" stroke="rgb(63,63,63)" stroke-width="0.1"/>
  <path d="M 43.0814284999999,87.5 L 42.28142849999995,87.5" fill="none" stroke="rgb(63,63,63)" stroke-width="0.1"/>
  <path d="M 39.0814284999999,87.5 L 38.28142849999995,87.5" fill="none" stroke="rgb(63,63,63)" stroke-width="0.1"/>
  <path d="M 35.0814284999999,87.5 L 34.28142849999995,87.5" fill="none" stroke="rgb(63,63,63)" stroke-width="0.1"/>
  <path d="M 31.0814284999999,87.5 L 30.281428499999947,87.5" fill="none" stroke="rgb(63,63,63)" stroke-width="0.1"/>
  <path d="M 27.0814284999999,87.5 L 26.281428499999947,87.5" fill="none" stroke="rgb(63,63,63)" stroke-width="0.1"/>
  <path d="M 23.0814284999999,87.5 L 22.281428499999947,87.5" fill="none" stroke="rgb(63,63,63)" stroke-width="0.1"/>
  <path d="M 19.0814284999999,87.5 L 18.281428499999947,87.5" fill="none" stroke="rgb(63,63,63)" stroke-width="0.1"/>
  <path d="M 91.0814284999999,83.5 L 90.28142849999995,83.5" fill="none" stroke="rgb(63,63,63)" stroke-width="0.1"/>
  <path d="M 87.0814284999999,83.5 L 86.28142849999995,83.5" fill="none" stroke="rgb(63,63,63)" stroke-width="0.1"/>
  <path d="M 83.0814284999999,83.5 L 82.28142849999995,83.5" fill="none" stroke="rgb(63,63,63)" stroke-width="0.1"/>
  <path d="M 79.0814284999999,83.5 L 78.28142849999995,83.5" fill="none" stroke="rgb(63,63,63)" stroke-width="0.1"/>
  <path d="M 75.0814284999999,83.5 L 74.28142849999995,83.5" fill="none" stroke="rgb(63,63,63)" stroke-width="0.1"/>
  <path d="M 71.0814284999999,83.5 L 70.28142849999995,83.5" fill="none" stroke="rgb(63,63,63)" stroke-width="0.1"/>
  <path d="M 67.0814284999999,83.5 L 66.28142849999995,83.5" fill="none" stroke="rgb(63,63,63)" stroke-width="0.1"/>
  <path d="M 63.0814284999999,83.5 L 62.28142849999995,83.5" fill="none" stroke="rgb(63,63,63)" stroke-width="0.1"/>
  <path d="M 59.0814284999999,83.5 L 58.28142849999995,83.5" fill="none" stroke="rgb(63,63,63)" stroke-width="0.1"/>
  <path d="M 55.0814284999999,83.5 L 54.28142849999995,83.5" fill="none" stroke="rgb(63,63,63)" stroke-width="0.1"/>
  <path d="M 51.0814284999999,83.5 L 50.28142849999995,83.5" fill="none" stroke="rgb(63,63,63)" stroke-width="0.1"/>
  <path d="M 47.0814284999999,83.5 L 46.28142849999995,83.5" fill="none" stroke="rgb(63,63,63)" stroke-width="0.1"/>
  <path d="M 43.0814284999999,83.5 L 42.28142849999995,83.5" fill="none" stroke="rgb(63,63,63)" stroke-width="0.1"/>
  <path d="M 39.0814284999999,83.5 L 38.28142849999995,83.5" fill="none" stroke="rgb(63,63,63)" stroke-width="0.1"/>
  <path d="M 35.0814284999999,83.5 L 34.28142849999995,83.5" fill="none" stroke="rgb(63,63,63)" stroke-width="0.1"/>
  <path d="M 31.0814284999999,83.5 L 30.281428499999947,83.5" fill="none" stroke="rgb(63,63,63)" stroke-width="0.1"/>
  <path d="M 27.0814284999999,83.5 L 26.281428499999947,83.5" fill="none" stroke="rgb(63,63,63)" stroke-width="0.1"/>
  <path d="M 23.0814284999999,83.5 L 22.281428499999947,83.5" fill="none" stroke="rgb(63,63,63)" stroke-width="0.1"/>
  <path d="M 19.0814284999999,83.5 L 18.281428499999947,83.5" fill="none" stroke="rgb(63,63,63)" stroke-width="0.1"/>
  <path d="M 20.71142850000001,94.31999999999994 L 20.68142849999981,94.29999999999995" fill="none" stroke="rgb(63,63,63)" stroke-width="0.1"/>
  <path d="M 24.721428500000002,94.32999999999993 L 24.68142849999981,94.29999999999995" fill="none" stroke="rgb(63,63,63)" stroke-width="0.1"/>
  <path d="M 28.731428499999993,94.33999999999992 L 28.68142849999981,94.29999999999995" fill="none" stroke="rgb(63,63,63)" stroke-width="0.1"/>
  <path d="M 17.481428499999993,91.09999999999991 L 17.001428499999975,90.6099999999999" fill="none" stroke="rgb(63,63,63)" stroke-width="0.1"/>
  <path d="M 21.481428499999993,91.09999999999991 L 20.68142849999981,90.29999999999995" fill="none" stroke="rgb(63,63,63)" stroke-width="0.1"/>
  <path d="M 17.481428499999993,87.09999999999991 L 17.001428499999975,86.6099999999999" fill="none" stroke="rgb(63,63,63)" stroke-width="0.1"/>
  <path d="M 25.481428499999993,91.09999999999991 L 24.68142849999981,90.29999999999995" fill="none" stroke="rgb(63,63,63)" stroke-width="0.1"/>
  <path d="M 21.481428499999993,87.09999999999991 L 20.68142849999981,86.29999999999995" fill="none" stroke="rgb(63,63,63)" stroke-width="0.1"/>
  <path d="M 17.481428499999993,83.09999999999991 L 17.001428499999975,82.6099999999999" fill="none" stroke="rgb(63,63,63)" stroke-width="0.1"/>
  <path d="M 32.741428499999984,94.34999999999991 L 32.68142849999981,94.29999999999995" fill="none" stroke="rgb(63,63,63)" stroke-width="0.1"/>
  <path d="M 36.751428499999975,94.3599999999999 L 36.68142849999981,94.29999999999995" fill="none" stroke="rgb(63,63,63)" stroke-width="0.1"/>
  <path d="M 40.761428499999965,94.36999999999989 L 40.68142849999981,94.29999999999995" fill="none" stroke="rgb(63,63,63)" stroke-width="0.1"/>
  <path d="M 44.771428499999956,94.38000000000011 L 44.68142849999981,94.29999999999995" fill="none" stroke="rgb(63,63,63)" stroke-width="0.1"/>
  <path d="M 48.78142849999995,94.3900000000001 L 48.68142849999981,94.29999999999995" fill="none" stroke="rgb(63,63,63)" stroke-width="0.1"/>
  <path d="M 52.79142849999994,94.40000000000009 L 52.68142849999981,94.29999999999995" fill="none" stroke="rgb(63,63,63)" stroke-width="0.1"/>
  <path d="M 56.80142849999993,94.41000000000008 L 56.68142849999981,94.29999999999995" fill="none" stroke="rgb(63,63,63)" stroke-width="0.1"/>
  <path d="M 60.81142849999992,94.42000000000007 L 60.68142849999981,94.29999999999995" fill="none" stroke="rgb(63,63,63)" stroke-width="0.1"/>
  <path d="M 64.82142849999991,94.43000000000006 L 64.68142849999981,94.29999999999995" fill="none" stroke="rgb(63,63,63)" stroke-width="0.1"/>
  <path d="M 68.8314284999999,94.44000000000005 L 68.68142849999981,94.29999999999995" fill="none" stroke="rgb(63,63,63)" stroke-width="0.1"/>
  <path d="M 72.84142849999989,94.45000000000005 L 72.68142849999981,94.29999999999995" fill="none" stroke="rgb(63,63,63)" stroke-width="0.1"/>
  <path d="M 76.85142849999988,94.46000000000004 L 76.68142849999981,94.29999999999995" fill="none" stroke="rgb(63,63,63)" stroke-width="0.1"/>
  <path d="M 80.86142849999987,94.47000000000003 L 80.68142849999981,94.29999999999995" fill="none" stroke="rgb(63,63,63)" stroke-width="0.1"/>
  <path d="M 84.87142849999987,94.48000000000002 L 84.68142849999981,94.29999999999995" fill="none" stroke="rgb(63,63,63)" stroke-width="0.1"/>
  <path d="M 88.88142849999986,94.49000000000001 L 88.68142849999981,94.29999999999995" fill="none" stroke="rgb(63,63,63)" stroke-width="0.1"/>
  <path d="M 92.89142849999985,94.5 L 92.68142849999981,94.29999999999995" fill="none" stroke="rgb(63,63,63)" stroke-width="0.1"/>
  <path d="M 29.481428499999993,91.09999999999991 L 28.68142849999981,90.29999999999995" fill="none" stroke="rgb(63,63,63)" stroke-width="0.1"/>
  <path d="M 25.481428499999993,87.09999999999991 L 24.68142849999981,86.29999999999995" fill="none" stroke="rgb(63,63,63)" stroke-width="0.1"/>
  <path d="M 21.481428499999993,83.09999999999991 L 20.71142850000001,82.31999999999994" fill="none" stroke="rgb(63,63,63)" stroke-width="0.1"/>
  <path d="M 33.48142849999999,91.09999999999991 L 32.68142849999981,90.29999999999995" fill="none" stroke="rgb(63,63,63)" stroke-width="0.1"/>
  <path d="M 29.481428499999993,87.09999999999991 L 28.68142849999981,86.29999999999995" fill="none" stroke="rgb(63,63,63)" stroke-width="0.1"/>
  <path d="M 25.481428499999993,83.09999999999991 L 24.721428500000002,82.32999999999993" fill="none" stroke="rgb(63,63,63)" stroke-width="0.1"/>
  <path d="M 37.48142849999999,91.09999999999991 L 36.68142849999981,90.29999999999995" fill="none" stroke="rgb(63,63,63)" stroke-width="0.1"/>
  <path d="M 33.48142849999999,87.09999999999991 L 32.68142849999981,86.29999999999995" fill="none" stroke="rgb(63,63,63)" stroke-width="0.1"/>
  <path d="M 29.481428499999993,83.09999999999991 L 28.731428499999993,82.33999999999992" fill="none" stroke="rgb(63,63,63)" stroke-width="0.1"/>
  <path d="M 41.48142849999999,91.09999999999991 L 40.68142849999981,90.29999999999995" fill="none" stroke="rgb(63,63,63)" stroke-width="0.1"/>
  <path d="M 37.48142849999999,87.09999999999991 L 36.68142849999981,86.29999999999995" fill="none" stroke="rgb(63,63,63)" stroke-width="0.1"/>
  <path d="M 33.48142849999999,83.09999999999991 L 32.741428499999984,82.34999999999991" fill="none" stroke="rgb(63,63,63)" stroke-width="0.1"/>
  <path d="M 45.48142849999999,91.09999999999991 L 44.68142849999981,90.29999999999995" fill="none" stroke="rgb(63,63,63)" stroke-width="0.1"/>
  <path d="M 41.48142849999999,87.09999999999991 L 40.68142849999981,86.29999999999995" fill="none" stroke="rgb(63,63,63)" stroke-width="0.1"/>
  <path d="M 37.48142849999999,83.09999999999991 L 36.751428499999975,82.3599999999999" fill="none" stroke="rgb(63,63,63)" stroke-width="0.1"/>
  <path d="M 49.48142849999999,91.09999999999991 L 48.68142849999981,90.29999999999995" fill="none" stroke="rgb(63,63,63)" stroke-width="0.1"/>
  <path d="M 45.48142849999999,87.09999999999991 L 44.68142849999981,86.29999999999995" fill="none" stroke="rgb(63,63,63)" stroke-width="0.1"/>
  <path d="M 41.48142849999999,83.09999999999991 L 40.761428499999965,82.36999999999989" fill="none" stroke="rgb(63,63,63)" stroke-width="0.1"/>
  <path d="M 53.48142849999999,91.09999999999991 L 52.68142849999981,90.29999999999995" fill="none" stroke="rgb(63,63,63)" stroke-width="0.1"/>
  <path d="M 49.48142849999999,87.09999999999991 L 48.68142849999981,86.29999999999995" fill="none" stroke="rgb(63,63,63)" stroke-width="0.1"/>
  <path d="M 45.48142849999999,83.09999999999991 L 44.771428499999956,82.38000000000011" fill="none" stroke="rgb(63,63,63)" stroke-width="0.1"/>
  <path d="M 57.48142849999999,91.09999999999991 L 56.68142849999981,90.29999999999995" fill="none" stroke="rgb(63,63,63)" stroke-width="0.1"/>
  <path d="M 53.48142849999999,87.09999999999991 L 52.68142849999981,86.29999999999995" fill="none" stroke="rgb(63,63,63)" stroke-width="0.1"/>
  <path d="M 49.48142849999999,83.09999999999991 L 48.78142849999995,82.3900000000001" fill="none" stroke="rgb(63,63,63)" stroke-width="0.1"/>
  <path d="M 61.48142849999999,91.09999999999991 L 60.68142849999981,90.29999999999995" fill="none" stroke="rgb(63,63,63)" stroke-width="0.1"/>
  <path d="M 57.48142849999999,87.09999999999991 L 56.68142849999981,86.29999999999995" fill="none" stroke="rgb(63,63,63)" stroke-width="0.1"/>
  <path d="M 53.48142849999999,83.09999999999991 L 52.79142849999994,82.40000000000009" fill="none" stroke="rgb(63,63,63)" stroke-width="0.1"/>
  <path d="M 65.48142849999999,91.09999999999991 L 64.68142849999981,90.29999999999995" fill="none" stroke="rgb(63,63,63)" stroke-width="0.1"/>
  <path d="M 61.48142849999999,87.09999999999991 L 60.68142849999981,86.29999999999995" fill="none" stroke="rgb(63,63,63)" stroke-width="0.1"/>
  <path d="M 57.48142849999999,83.09999999999991 L 56.80142849999993,82.41000000000008" fill="none" stroke="rgb(63,63,63)" stroke-width="0.1"/>
  <path d="M 69.48142849999999,91.09999999999991 L 68.68142849999981,90.29999999999995" fill="none" stroke="rgb(63,63,63)" stroke-width="0.1"/>
  <path d="M 65.48142849999999,87.09999999999991 L 64.68142849999981,86.29999999999995" fill="none" stroke="rgb(63,63,63)" stroke-width="0.1"/>
  <path d="M 61.48142849999999,83.09999999999991 L 60.81142849999992,82.42000000000007" fill="none" stroke="rgb(63,63,63)" stroke-width="0.1"/>
  <path d="M 73.48142849999999,91.09999999999991 L 72.68142849999981,90.29999999999995" fill="none" stroke="rgb(63,63,63)" stroke-width="0.1"/>
  <path d="M 69.48142849999999,87.09999999999991 L 68.68142849999981,86.29999999999995" fill="none" stroke="rgb(63,63,63)" stroke-width="0.1"/>
  <path d="M 65.48142849999999,83.09999999999991 L 64.82142849999991,82.43000000000006" fill="none" stroke="rgb(63,63,63)" stroke-width="0.1"/>
  <path d="M 77.48142849999999,91.09999999999991 L 76.68142849999981,90.29999999999995" fill="none" stroke="rgb(63,63,63)" stroke-width="0.1"/>
  <path d="M 73.48142849999999,87.09999999999991 L 72.68142849999981,86.29999999999995" fill="none" stroke="rgb(63,63,63)" stroke-width="0.1"/>
  <path d="M 69.48142849999999,83.09999999999991 L 68.8314284999999,82.44000000000005" fill="none" stroke="rgb(63,63,63)" stroke-width="0.1"/>
  <path d="M 81.48142849999999,91.09999999999991 L 80.68142849999981,90.29999999999995" fill="none" stroke="rgb(63,63,63)" stroke-width="0.1"/>
  <path d="M 77.48142849999999,87.09999999999991 L 76.68142849999981,86.29999999999995" fill="none" stroke="rgb(63,63,63)" stroke-width="0.1"/>
  <path d="M 73.48142849999999,83.09999999999991 L 72.84142849999989,82.45000000000005" fill="none" stroke="rgb(63,63,63)" stroke-width="0.1"/>
  <path d="M 85.48142849999999,91.09999999999991 L 84.68142849999981,90.29999999999995" fill="none" stroke="rgb(63,63,63)" stroke-width="0.1"/>
  <path d="M 81.48142849999999,87.09999999999991 L 80.68142849999981,86.29999999999995" fill="none" stroke="rgb(63,63,63)" stroke-width="0.1"/>
  <path d="M 77.48142849999999,83.09999999999991 L 76.85142849999988,82.46000000000004" fill="none" stroke="rgb(63,63,63)" stroke-width="0.1"/>
  <path d="M 89.48142849999999,91.09999999999991 L 88.68142849999981,90.29999999999995" fill="none" stroke="rgb(63,63,63)" stroke-width="0.1"/>
  <path d="M 85.48142849999999,87.09999999999991 L 84.68142849999981,86.29999999999995" fill="none" stroke="rgb(63,63,63)" stroke-width="0.1"/>
  <path d="M 81.48142849999999,83.09999999999991 L 80.86142849999987,82.47000000000003" fill="none" stroke="rgb(63,63,63)" stroke-width="0.1"/>
  <path d="M 93.48142849999999,91.09999999999991 L 92.68142849999981,90.29999999999995" fill="none" stroke="rgb(63,63,63)" stroke-width="0.1"/>
  <path d="M 89.48142849999999,87.09999999999991 L 88.68142849999981,86.29999999999995" fill="none" stroke="rgb(63,63,63)" stroke-width="0.1"/>
  <path d="M 85.48142849999999,83.09999999999991 L 84.87142849999987,82.48000000000002" fill="none" stroke="rgb(63,63,63)" stroke-width="0.1"/>
  <path d="M 96.88142849999986,90.5 L 96.68142849999981,90.29999999999995" fill="none" stroke="rgb(63,63,63)" stroke-width="0.1"/>
  <path d="M 97.48142849999999,87.09999999999991 L 96.68142849999981,86.29999999999995" fill="none" stroke="rgb(63,63,63)" stroke-width="0.1"/>
  <path d="M 93.48142849999999,87.09999999999991 L 92.68142849999981,86.29999999999995" fill="none" stroke="rgb(63,63,63)" stroke-width="0.1"/>
  <path d="M 89.48142849999999,83.09999999999991 L 88.88142849999986,82.49000000000001" fill="none" stroke="rgb(63,63,63)" stroke-width="0.1"/>
  <path d="M 93.48142849999999,83.09999999999991 L 92.89142849999985,82.5" fill="none" stroke="rgb(63,63,63)" stroke-width="0.1"/>
  <path d="M 97.48142849999999,83.09999999999991 L 96.89142849999985,82.5" fill="none" stroke="rgb(63,63,63)" stroke-width="0.1"/>
  <path d="M 20.68142849999981,94.31999999999994 L 20.68142849999981,94.29999999999995" fill="none" stroke="rgb(63,63,63)" stroke-width="0.1"/>
  <path d="M 20.68142849999981,94.29999999999995 L 20.68142849999981,92.31999999999994" fill="none" stroke="rgb(63,63,63)" stroke-width="0.1"/>
  <path d="M 24.68142849999981,94.32999999999993 L 24.68142849999981,94.29999999999995" fill="none" stroke="rgb(63,63,63)" stroke-width="0.1"/>
  <path d="M 24.68142849999981,94.29999999999995 L 24.68142849999981,92.32999999999993" fill="none" stroke="rgb(63,63,63)" stroke-width="0.1"/>
  <path d="M 28.68142849999981,94.33999999999992 L 28.68142849999981,94.29999999999995" fill="none" stroke="rgb(63,63,63)" stroke-width="0.1"/>
  <path d="M 28.68142849999981,94.29999999999995 L 28.68142849999981,92.33999999999992" fill="none" stroke="rgb(63,63,63)" stroke-width="0.1"/>
  <path d="M 32.68142849999981,94.34999999999991 L 32.68142849999981,94.29999999999995" fill="none" stroke="rgb(63,63,63)" stroke-width="0.1"/>
  <path d="M 32.68142849999981,94.29999999999995 L 32.68142849999981,92.34999999999991" fill="none" stroke="rgb(63,63,63)" stroke-width="0.1"/>
  <path d="M 36.68142849999981,94.3599999999999 L 36.68142849999981,94.29999999999995" fill="none" stroke="rgb(63,63,63)" stroke-width="0.1"/>
  <path d="M 36.68142849999981,94.29999999999995 L 36.68142849999981,92.3599999999999" fill="none" stroke="rgb(63,63,63)" stroke-width="0.1"/>
  <path d="M 40.68142849999981,94.36999999999989 L 40.68142849999981,94.29999999999995" fill="none" stroke="rgb(63,63,63)" stroke-width="0.1"/>
  <path d="M 40.68142849999981,94.29999999999995 L 40.68142849999981,92.36999999999989" fill="none" stroke="rgb(63,63,63)" stroke-width="0.1"/>
  <path d="M 44.68142849999981,94.38000000000011 L 44.68142849999981,94.29999999999995" fill="none" stroke="rgb(63,63,63)" stroke-width="0.1"/>
  <path d="M 44.68142849999981,94.29999999999995 L 44.68142849999981,92.38000000000011" fill="none" stroke="rgb(63,63,63)" stroke-width="0.1"/>
  <path d="M 48.68142849999981,94.3900000000001 L 48.68142849999981,94.29999999999995" fill="none" stroke="rgb(63,63,63)" stroke-width="0.1"/>
  <path d="M 48.68142849999981,94.29999999999995 L 48.68142849999981,92.3900000000001" fill="none" stroke="rgb(63,63,63)" stroke-width="0.1"/>
  <path d="M 52.68142849999981,94.40000000000009 L 52.68142849999981,94.29999999999995" fill="none" stroke="rgb(63,63,63)" stroke-width="0.1"/>
  <path d="M 52.68142849999981,94.29999999999995 L 52.68142849999981,92.40000000000009" fill="none" stroke="rgb(63,63,63)" stroke-width="0.1"/>
  <path d="M 56.68142849999981,94.41000000000008 L 56.68142849999981,94.29999999999995" fill="none" stroke="rgb(63,63,63)" stroke-width="0.1"/>
  <path d="M 56.68142849999981,94.29999999999995 L 56.68142849999981,92.41000000000008" fill="none" stroke="rgb(63,63,63)" stroke-width="0.1"/>
  <path d="M 60.68142849999981,94.42000000000007 L 60.68142849999981,94.29999999999995" fill="none" stroke="rgb(63,63,63)" stroke-width="0.1"/>
  <path d="M 60.68142849999981,94.29999999999995 L 60.68142849999981,92.42000000000007" fill="none" stroke="rgb(63,63,63)" stroke-width="0.1"/>
  <path d="M 64.68142849999981,94.43000000000006 L 64.68142849999981,94.29999999999995" fill="none" stroke="rgb(63,63,63)" stroke-width="0.1"/>
  <path d="M 64.68142849999981,94.29999999999995 L 64.68142849999981,92.43000000000006" fill="none" stroke="rgb(63,63,63)" stroke-width="0.1"/>
  <path d="M 68.68142849999981,94.44000000000005 L 68.68142849999981,94.29999999999995" fill="none" stroke="rgb(63,63,63)" stroke-width="0.1"/>
  <path d="M 68.68142849999981,94.29999999999995 L 68.68142849999981,92.44000000000005" fill="none" stroke="rgb(63,63,63)" stroke-width="0.1"/>
  <path d="M 72.68142849999981,94.45000000000005 L 72.68142849999981,94.29999999999995" fill="none" stroke="rgb(63,63,63)" stroke-width="0.1"/>
  <path d="M 72.68142849999981,94.29999999999995 L 72.68142849999981,92.45000000000005" fill="none" stroke="rgb(63,63,63)" stroke-width="0.1"/>
  <path d="M 76.68142849999981,94.46000000000004 L 76.68142849999981,94.29999999999995" fill="none" stroke="rgb(63,63,63)" stroke-width="0.1"/>
  <path d="M 76.68142849999981,94.29999999999995 L 76.68142849999981,92.46000000000004" fill="none" stroke="rgb(63,63,63)" stroke-width="0.1"/>
  <path d="M 80.68142849999981,94.47000000000003 L 80.68142849999981,94.29999999999995" fill="none" stroke="rgb(63,63,63)" stroke-width="0.1"/>
  <path d="M 80.68142849999981,94.29999999999995 L 80.68142849999981,92.47000000000003" fill="none" stroke="rgb(63,63,63)" stroke-width="0.1"/>
  <path d="M 84.68142849999981,94.48000000000002 L 84.68142849999981,94.29999999999995" fill="none" stroke="rgb(63,63,63)" stroke-width="0.1"/>
  <path d="M 84.68142849999981,94.29999999999995 L 84.68142849999981,92.48000000000002" fill="none" stroke="rgb(63,63,63)" stroke-width="0.1"/>
  <path d="M 88.68142849999981,94.49000000000001 L 88.68142849999981,94.29999999999995" fill="none" stroke="rgb(63,63,63)" stroke-width="0.1"/>
  <path d="M 88.68142849999981,94.29999999999995 L 88.68142849999981,92.49000000000001" fill="none" stroke="rgb(63,63,63)" stroke-width="0.1"/>
  <path d="M 92.68142849999981,94.5 L 92.68142849999981,94.29999999999995" fill="none" stroke="rgb(63,63,63)" stroke-width="0.1"/>
  <path d="M 92.68142849999981,94.29999999999995 L 92.68142849999981,92.5" fill="none" stroke="rgb(63,63,63)" stroke-width="0.1"/>
  <path d="M 20.68142849999981,92.31999999999994 L 20.68142849999981,90.29999999999995" fill="none" stroke="rgb(63,63,63)" stroke-width="0.1"/>
  <path d="M 20.68142849999981,90.29999999999995 L 20.68142849999981,86.29999999999995" fill="none" stroke="rgb(63,63,63)" stroke-width="0.1"/>
  <path d="M 20.68142849999981,86.29999999999995 L 20.68142849999981,82.31999999999994" fill="none" stroke="rgb(63,63,63)" stroke-width="0.1"/>
  <path d="M 24.68142849999981,92.32999999999993 L 24.68142849999981,90.29999999999995" fill="none" stroke="rgb(63,63,63)" stroke-width="0.1"/>
  <path d="M 24.68142849999981,90.29999999999995 L 24.68142849999981,86.29999999999995" fill="none" stroke="rgb(63,63,63)" stroke-width="0.1"/>
  <path d="M 24.68142849999981,86.29999999999995 L 24.68142849999981,82.32999999999993" fill="none" stroke="rgb(63,63,63)" stroke-width="0.1"/>
  <path d="M 28.68142849999981,92.33999999999992 L 28.68142849999981,90.29999999999995" fill="none" stroke="rgb(63,63,63)" stroke-width="0.1"/>
  <path d="M 28.68142849999981,90.29999999999995 L 28.68142849999981,86.29999999999995" fill="none" stroke="rgb(63,63,63)" stroke-width="0.1"/>
  <path d="M 28.68142849999981,86.29999999999995 L 28.68142849999981,82.33999999999992" fill="none" stroke="rgb(63,63,63)" stroke-width="0.1"/>
  <path d="M 32.68142849999981,92.34999999999991 L 32.68142849999981,90.29999999999995" fill="none" stroke="rgb(63,63,63)" stroke-width="0.1"/>
  <path d="M 32.68142849999981,90.29999999999995 L 32.68142849999981,86.29999999999995" fill="none" stroke="rgb(63,63,63)" stroke-width="0.1"/>
  <path d="M 32.68142849999981,86.29999999999995 L 32.68142849999981,82.34999999999991" fill="none" stroke="rgb(63,63,63)" stroke-width="0.1"/>
  <path d="M 36.68142849999981,92.3599999999999 L 36.68142849999981,90.29999999999995" fill="none" stroke="rgb(63,63,63)" stroke-width="0.1"/>
  <path d="M 36.68142849999981,90.29999999999995 L 36.68142849999981,86.29999999999995" fill="none" stroke="rgb(63,63,63)" stroke-width="0.1"/>
  <path d="M 36.68142849999981,86.29999999999995 L 36.68142849999981,82.3599999999999" fill="none" stroke="rgb(63,63,63)" stroke-width="0.1"/>
  <path d="M 40.68142849999981,92.36999999999989 L 40.68142849999981,90.29999999999995" fill="none" stroke="rgb(63,63,63)" stroke-width="0.1"/>
  <path d="M 40.68142849999981,90.29999999999995 L 40.68142849999981,86.29999999999995" fill="none" stroke="rgb(63,63,63)" stroke-width="0.1"/>
  <path d="M 40.68142849999981,86.29999999999995 L 40.68142849999981,82.36999999999989" fill="none" stroke="rgb(63,63,63)" stroke-width="0.1"/>
  <path d="M 44.68142849999981,92.38000000000011 L 44.68142849999981,90.29999999999995" fill="none" stroke="rgb(63,63,63)" stroke-width="0.1"/>
  <path d="M 44.68142849999981,90.29999999999995 L 44.68142849999981,86.29999999999995" fill="none" stroke="rgb(63,63,63)" stroke-width="0.1"/>
  <path d="M 44.68142849999981,86.29999999999995 L 44.68142849999981,82.38000000000011" fill="none" stroke="rgb(63,63,63)" stroke-width="0.1"/>
  <path d="M 48.68142849999981,92.3900000000001 L 48.68142849999981,90.29999999999995" fill="none" stroke="rgb(63,63,63)" stroke-width="0.1"/>
  <path d="M 48.68142849999981,90.29999999999995 L 48.68142849999981,86.29999999999995" fill="none" stroke="rgb(63,63,63)" stroke-width="0.1"/>
  <path d="M 48.68142849999981,86.29999999999995 L 48.68142849999981,82.3900000000001" fill="none" stroke="rgb(63,63,63)" stroke-width="0.1"/>
  <path d="M 52.68142849999981,92.40000000000009 L 52.68142849999981,90.29999999999995" fill="none" stroke="rgb(63,63,63)" stroke-width="0.1"/>
  <path d="M 52.68142849999981,90.29999999999995 L 52.68142849999981,86.29999999999995" fill="none" stroke="rgb(63,63,63)" stroke-width="0.1"/>
  <path d="M 52.68142849999981,86.29999999999995 L 52.68142849999981,82.40000000000009" fill="none" stroke="rgb(63,63,63)" stroke-width="0.1"/>
  <path d="M 56.68142849999981,92.41000000000008 L 56.68142849999981,90.29999999999995" fill="none" stroke="rgb(63,63,63)" stroke-width="0.1"/>
  <path d="M 56.68142849999981,90.29999999999995 L 56.68142849999981,86.29999999999995" fill="none" stroke="rgb(63,63,63)" stroke-width="0.1"/>
  <path d="M 56.68142849999981,86.29999999999995 L 56.68142849999981,82.41000000000008" fill="none" stroke="rgb(63,63,63)" stroke-width="0.1"/>
  <path d="M 60.68142849999981,92.42000000000007 L 60.68142849999981,90.29999999999995" fill="none" stroke="rgb(63,63,63)" stroke-width="0.1"/>
  <path d="M 60.68142849999981,90.29999999999995 L 60.68142849999981,86.29999999999995" fill="none" stroke="rgb(63,63,63)" stroke-width="0.1"/>
  <path d="M 60.68142849999981,86.29999999999995 L 60.68142849999981,82.42000000000007" fill="none" stroke="rgb(63,63,63)" stroke-width="0.1"/>
  <path d="M 64.68142849999981,92.43000000000006 L 64.68142849999981,90.29999999999995" fill="none" stroke="rgb(63,63,63)" stroke-width="0.1"/>
  <path d="M 64.68142849999981,90.29999999999995 L 64.68142849999981,86.29999999999995" fill="none" stroke="rgb(63,63,63)" stroke-width="0.1"/>
  <path d="M 64.68142849999981,86.29999999999995 L 64.68142849999981,82.43000000000006" fill="none" stroke="rgb(63,63,63)" stroke-width="0.1"/>
  <path d="M 68.68142849999981,92.44000000000005 L 68.68142849999981,90.29999999999995" fill="none" stroke="rgb(63,63,63)" stroke-width="0.1"/>
  <path d="M 68.68142849999981,90.29999999999995 L 68.68142849999981,86.29999999999995" fill="none" stroke="rgb(63,63,63)" stroke-width="0.1"/>
  <path d="M 68.68142849999981,86.29999999999995 L 68.68142849999981,82.44000000000005" fill="none" stroke="rgb(63,63,63)" stroke-width="0.1"/>
  <path d="M 72.68142849999981,92.45000000000005 L 72.68142849999981,90.29999999999995" fill="none" stroke="rgb(63,63,63)" stroke-width="0.1"/>
  <path d="M 72.68142849999981,90.29999999999995 L 72.68142849999981,86.29999999999995" fill="none" stroke="rgb(63,63,63)" stroke-width="0.1"/>
  <path d="M 72.68142849999981,86.29999999999995 L 72.68142849999981,82.45000000000005" fill="none" stroke="rgb(63,63,63)" stroke-width="0.1"/>
  <path d="M 76.68142849999981,92.46000000000004 L 76.68142849999981,90.29999999999995" fill="none" stroke="rgb(63,63,63)" stroke-width="0.1"/>
  <path d="M 76.68142849999981,90.29999999999995 L 76.68142849999981,86.29999999999995" fill="none" stroke="rgb(63,63,63)" stroke-width="0.1"/>
  <path d="M 76.68142849999981,86.29999999999995 L 76.68142849999981,82.46000000000004" fill="none" stroke="rgb(63,63,63)" stroke-width="0.1"/>
  <path d="M 80.68142849999981,92.47000000000003 L 80.68142849999981,90.29999999999995" fill="none" stroke="rgb(63,63,63)" stroke-width="0.1"/>
  <path d="M 80.68142849999981,90.29999999999995 L 80.68142849999981,86.29999999999995" fill="none" stroke="rgb(63,63,63)" stroke-width="0.1"/>
  <path d="M 80.68142849999981,86.29999999999995 L 80.68142849999981,82.47000000000003" fill="none" stroke="rgb(63,63,63)" stroke-width="0.1"/>
  <path d="M 84.68142849999981,92.48000000000002 L 84.68142849999981,90.29999999999995" fill="none" stroke="rgb(63,63,63)" stroke-width="0.1"/>
  <path d="M 84.68142849999981,90.29999999999995 L 84.68142849999981,86.29999999999995" fill="none" stroke="rgb(63,63,63)" stroke-width="0.1"/>
  <path d="M 84.68142849999981,86.29999999999995 L 84.68142849999981,82.48000000000002" fill="none" stroke="rgb(63,63,63)" stroke-width="0.1"/>
  <path d="M 88.68142849999981,92.49000000000001 L 88.68142849999981,90.29999999999995" fill="none" stroke="rgb(63,63,63)" stroke-width="0.1"/>
  <path d="M 88.68142849999981,90.29999999999995 L 88.68142849999981,86.29999999999995" fill="none" stroke="rgb(63,63,63)" stroke-width="0.1"/>
  <path d="M 88.68142849999981,86.29999999999995 L 88.68142849999981,82.49000000000001" fill="none" stroke="rgb(63,63,63)" stroke-width="0.1"/>
  <path d="M 92.68142849999981,92.5 L 92.68142849999981,90.29999999999995" fill="none" stroke="rgb(63,63,63)" stroke-width="0.1"/>
  <path d="M 92.68142849999981,90.29999999999995 L 92.68142849999981,86.29999999999995" fill="none" stroke="rgb(63,63,63)" stroke-width="0.1"/>
  <path d="M 92.68142849999981,86.29999999999995 L 92.68142849999981,82.5" fill="none" stroke="rgb(63,63,63)" stroke-width="0.1"/>
  <path d="M 96.68142849999981,90.5 L 96.68142849999981,90.29999999999995" fill="none" stroke="rgb(63,63,63)" stroke-width="0.1"/>
  <path d="M 96.68142849999981,90.29999999999995 L 96.68142849999981,86.29999999999995" fill="none" stroke="rgb(63,63,63)" stroke-width="0.1"/>
  <path d="M 96.68142849999981,86.29999999999995 L 96.68142849999981,82.5" fill="none" stroke="rgb(63,63,63)" stroke-width="0.1"/>
  <path d="M 19.881428499999856,83.09999999999991 L 20.66142849999983,82.31999999999994" fill="none" stroke="rgb(63,63,63)" stroke-width="0.1"/>
  <path d="M 19.881428499999856,87.09999999999991 L 20.68142849999981,86.29999999999995" fill="none" stroke="rgb(63,63,63)" stroke-width="0.1"/>
  <path d="M 23.881428499999856,83.09999999999991 L 24.651428499999838,82.32999999999993" fill="none" stroke="rgb(63,63,63)" stroke-width="0.1"/>
  <path d="M 19.881428499999856,91.09999999999991 L 20.68142849999981,90.29999999999995" fill="none" stroke="rgb(63,63,63)" stroke-width="0.1"/>
  <path d="M 23.881428499999856,87.09999999999991 L 24.68142849999981,86.29999999999995" fill="none" stroke="rgb(63,63,63)" stroke-width="0.1"/>
  <path d="M 27.881428499999856,83.09999999999991 L 28.641428499999847,82.33999999999992" fill="none" stroke="rgb(63,63,63)" stroke-width="0.1"/>
  <path d="M 20.66142849999983,94.31999999999994 L 20.68142849999981,94.29999999999995" fill="none" stroke="rgb(63,63,63)" stroke-width="0.1"/>
  <path d="M 24.651428499999838,94.32999999999993 L 24.68142849999981,94.29999999999995" fill="none" stroke="rgb(63,63,63)" stroke-width="0.1"/>
  <path d="M 28.641428499999847,94.33999999999992 L 28.68142849999981,94.29999999999995" fill="none" stroke="rgb(63,63,63)" stroke-width="0.1"/>
  <path d="M 32.631428499999856,94.34999999999991 L 32.68142849999981,94.29999999999995" fill="none" stroke="rgb(63,63,63)" stroke-width="0.1"/>
  <path d="M 36.621428499999865,94.3599999999999 L 36.68142849999981,94.29999999999995" fill="none" stroke="rgb(63,63,63)" stroke-width="0.1"/>
  <path d="M 40.611428499999874,94.36999999999989 L 40.68142849999981,94.29999999999995" fill="none" stroke="rgb(63,63,63)" stroke-width="0.1"/>
  <path d="M 44.601428499999884,94.38000000000011 L 44.68142849999981,94.29999999999995" fill="none" stroke="rgb(63,63,63)" stroke-width="0.1"/>
  <path d="M 48.59142849999989,94.3900000000001 L 48.68142849999981,94.29999999999995" fill="none" stroke="rgb(63,63,63)" stroke-width="0.1"/>
  <path d="M 52.5814284999999,94.40000000000009 L 52.68142849999981,94.29999999999995" fill="none" stroke="rgb(63,63,63)" stroke-width="0.1"/>
  <path d="M 56.57142849999991,94.41000000000008 L 56.68142849999981,94.29999999999995" fill="none" stroke="rgb(63,63,63)" stroke-width="0.1"/>
  <path d="M 60.56142849999992,94.42000000000007 L 60.68142849999981,94.29999999999995" fill="none" stroke="rgb(63,63,63)" stroke-width="0.1"/>
  <path d="M 64.55142849999993,94.43000000000006 L 64.68142849999981,94.29999999999995" fill="none" stroke="rgb(63,63,63)" stroke-width="0.1"/>
  <path d="M 68.54142849999994,94.44000000000005 L 68.68142849999981,94.29999999999995" fill="none" stroke="rgb(63,63,63)" stroke-width="0.1"/>
  <path d="M 72.53142849999995,94.45000000000005 L 72.68142849999981,94.29999999999995" fill="none" stroke="rgb(63,63,63)" stroke-width="0.1"/>
  <path d="M 76.52142849999996,94.46000000000004 L 76.68142849999981,94.29999999999995" fill="none" stroke="rgb(63,63,63)" stroke-width="0.1"/>
  <path d="M 80.51142849999997,94.47000000000003 L 80.68142849999981,94.29999999999995" fill="none" stroke="rgb(63,63,63)" stroke-width="0.1"/>
  <path d="M 23.881428499999856,91.09999999999991 L 24.68142849999981,90.29999999999995" fill="none" stroke="rgb(63,63,63)" stroke-width="0.1"/>
  <path d="M 27.881428499999856,87.09999999999991 L 28.68142849999981,86.29999999999995" fill="none" stroke="rgb(63,63,63)" stroke-width="0.1"/>
  <path d="M 31.881428499999856,83.09999999999991 L 32.631428499999856,82.34999999999991" fill="none" stroke="rgb(63,63,63)" stroke-width="0.1"/>
  <path d="M 27.881428499999856,91.09999999999991 L 28.68142849999981,90.29999999999995" fill="none" stroke="rgb(63,63,63)" stroke-width="0.1"/>
  <path d="M 31.881428499999856,87.09999999999991 L 32.68142849999981,86.29999999999995" fill="none" stroke="rgb(63,63,63)" stroke-width="0.1"/>
  <path d="M 35.881428499999856,83.09999999999991 L 36.621428499999865,82.3599999999999" fill="none" stroke="rgb(63,63,63)" stroke-width="0.1"/>
  <path d="M 31.881428499999856,91.09999999999991 L 32.68142849999981,90.29999999999995" fill="none" stroke="rgb(63,63,63)" stroke-width="0.1"/>
  <path d="M 35.881428499999856,87.09999999999991 L 36.68142849999981,86.29999999999995" fill="none" stroke="rgb(63,63,63)" stroke-width="0.1"/>
  <path d="M 39.881428499999856,83.09999999999991 L 40.611428499999874,82.36999999999989" fill="none" stroke="rgb(63,63,63)" stroke-width="0.1"/>
  <path d="M 35.881428499999856,91.09999999999991 L 36.68142849999981,90.29999999999995" fill="none" stroke="rgb(63,63,63)" stroke-width="0.1"/>
  <path d="M 39.881428499999856,87.09999999999991 L 40.68142849999981,86.29999999999995" fill="none" stroke="rgb(63,63,63)" stroke-width="0.1"/>
  <path d="M 43.881428499999856,83.09999999999991 L 44.601428499999884,82.38000000000011" fill="none" stroke="rgb(63,63,63)" stroke-width="0.1"/>
  <path d="M 39.881428499999856,91.09999999999991 L 40.68142849999981,90.29999999999995" fill="none" stroke="rgb(63,63,63)" stroke-width="0.1"/>
  <path d="M 43.881428499999856,87.09999999999991 L 44.68142849999981,86.29999999999995" fill="none" stroke="rgb(63,63,63)" stroke-width="0.1"/>
  <path d="M 47.881428499999856,83.09999999999991 L 48.59142849999989,82.3900000000001" fill="none" stroke="rgb(63,63,63)" stroke-width="0.1"/>
  <path d="M 43.881428499999856,91.09999999999991 L 44.68142849999981,90.29999999999995" fill="none" stroke="rgb(63,63,63)" stroke-width="0.1"/>
  <path d="M 47.881428499999856,87.09999999999991 L 48.68142849999981,86.29999999999995" fill="none" stroke="rgb(63,63,63)" stroke-width="0.1"/>
  <path d="M 51.881428499999856,83.09999999999991 L 52.5814284999999,82.40000000000009" fill="none" stroke="rgb(63,63,63)" stroke-width="0.1"/>
  <path d="M 47.881428499999856,91.09999999999991 L 48.68142849999981,90.29999999999995" fill="none" stroke="rgb(63,63,63)" stroke-width="0.1"/>
  <path d="M 51.881428499999856,87.09999999999991 L 52.68142849999981,86.29999999999995" fill="none" stroke="rgb(63,63,63)" stroke-width="0.1"/>
  <path d="M 55.881428499999856,83.09999999999991 L 56.57142849999991,82.41000000000008" fill="none" stroke="rgb(63,63,63)" stroke-width="0.1"/>
  <path d="M 51.881428499999856,91.09999999999991 L 52.68142849999981,90.29999999999995" fill="none" stroke="rgb(63,63,63)" stroke-width="0.1"/>
  <path d="M 55.881428499999856,87.09999999999991 L 56.68142849999981,86.29999999999995" fill="none" stroke="rgb(63,63,63)" stroke-width="0.1"/>
  <path d="M 59.881428499999856,83.09999999999991 L 60.56142849999992,82.42000000000007" fill="none" stroke="rgb(63,63,63)" stroke-width="0.1"/>
  <path d="M 55.881428499999856,91.09999999999991 L 56.68142849999981,90.29999999999995" fill="none" stroke="rgb(63,63,63)" stroke-width="0.1"/>
  <path d="M 59.881428499999856,87.09999999999991 L 60.68142849999981,86.29999999999995" fill="none" stroke="rgb(63,63,63)" stroke-width="0.1"/>
  <path d="M 63.881428499999856,83.09999999999991 L 64.55142849999993,82.43000000000006" fill="none" stroke="rgb(63,63,63)" stroke-width="0.1"/>
  <path d="M 59.881428499999856,91.09999999999991 L 60.68142849999981,90.29999999999995" fill="none" stroke="rgb(63,63,63)" stroke-width="0.1"/>
  <path d="M 63.881428499999856,87.09999999999991 L 64.68142849999981,86.29999999999995" fill="none" stroke="rgb(63,63,63)" stroke-width="0.1"/>
  <path d="M 67.88142849999986,83.09999999999991 L 68.54142849999994,82.44000000000005" fill="none" stroke="rgb(63,63,63)" stroke-width="0.1"/>
  <path d="M 63.881428499999856,91.09999999999991 L 64.68142849999981,90.29999999999995" fill="none" stroke="rgb(63,63,63)" stroke-width="0.1"/>
  <path d="M 67.88142849999986,87.09999999999991 L 68.68142849999981,86.29999999999995" fill="none" stroke="rgb(63,63,63)" stroke-width="0.1"/>
  <path d="M 71.88142849999986,83.09999999999991 L 72.53142849999995,82.45000000000005" fill="none" stroke="rgb(63,63,63)" stroke-width="0.1"/>
  <path d="M 67.88142849999986,91.09999999999991 L 68.68142849999981,90.29999999999995" fill="none" stroke="rgb(63,63,63)" stroke-width="0.1"/>
  <path d="M 71.88142849999986,87.09999999999991 L 72.68142849999981,86.29999999999995" fill="none" stroke="rgb(63,63,63)" stroke-width="0.1"/>
  <path d="M 75.88142849999986,83.09999999999991 L 76.52142849999996,82.46000000000004" fill="none" stroke="rgb(63,63,63)" stroke-width="0.1"/>
  <path d="M 71.88142849999986,91.09999999999991 L 72.68142849999981,90.29999999999995" fill="none" stroke="rgb(63,63,63)" stroke-width="0.1"/>
  <path d="M 75.88142849999986,87.09999999999991 L 76.68142849999981,86.29999999999995" fill="none" stroke="rgb(63,63,63)" stroke-width="0.1"/>
  <path d="M 79.88142849999986,83.09999999999991 L 80.51142849999997,82.47000000000003" fill="none" stroke="rgb(63,63,63)" stroke-width="0.1"/>
  <path d="M 75.88142849999986,91.09999999999991 L 76.68142849999981,90.29999999999995" fill="none" stroke="rgb(63,63,63)" stroke-width="0.1"/>
  <path d="M 79.88142849999986,87.09999999999991 L 80.68142849999981,86.29999999999995" fill="none" stroke="rgb(63,63,63)" stroke-width="0.1"/>
  <path d="M 83.88142849999986,83.09999999999991 L 84.50142849999997,82.48000000000002" fill="none" stroke="rgb(63,63,63)" stroke-width="0.1"/>
  <path d="M 79.88142849999986,91.09999999999991 L 80.68142849999981,90.29999999999995" fill="none" stroke="rgb(63,63,63)" stroke-width="0.1"/>
  <path d="M 83.88142849999986,87.09999999999991 L 84.68142849999981,86.29999999999995" fill="none" stroke="rgb(63,63,63)" stroke-width="0.1"/>
  <path d="M 87.88142849999986,83.09999999999991 L 88.49142849999998,82.49000000000001" fill="none" stroke="rgb(63,63,63)" stroke-width="0.1"/>
  <path d="M 83.88142849999986,91.09999999999991 L 84.68142849999981,90.29999999999995" fill="none" stroke="rgb(63,63,63)" stroke-width="0.1"/>
  <path d="M 87.88142849999986,87.09999999999991 L 88.68142849999981,86.29999999999995" fill="none" stroke="rgb(63,63,63)" stroke-width="0.1"/>
  <path d="M 91.88142849999986,83.09999999999991 L 92.48142849999999,82.5" fill="none" stroke="rgb(63,63,63)" stroke-width="0.1"/>
  <path d="M 84.50142849999997,94.48000000000002 L 84.68142849999981,94.29999999999995" fill="none" stroke="rgb(63,63,63)" stroke-width="0.1"/>
  <path d="M 88.49142849999998,94.49000000000001 L 88.68142849999981,94.29999999999995" fill="none" stroke="rgb(63,63,63)" stroke-width="0.1"/>
  <path d="M 87.88142849999986,91.09999999999991 L 88.68142849999981,90.29999999999995" fill="none" stroke="rgb(63,63,63)" stroke-width="0.1"/>
  <path d="M 91.88142849999986,87.09999999999991 L 92.68142849999981,86.29999999999995" fill="none" stroke="rgb(63,63,63)" stroke-width="0.1"/>
  <path d="M 91.88142849999986,91.09999999999991 L 92.68142849999981,90.29999999999995" fill="none" stroke="rgb(63,63,63)" stroke-width="0.1"/>
  <path d="M 95.88142849999986,83.09999999999991 L 96.48142849999999,82.5" fill="none" stroke="rgb(63,63,63)" stroke-width="0.1"/>
  <path d="M 95.88142849999986,87.09999999999991 L 96.68142849999981,86.29999999999995" fill="none" stroke="rgb(63,63,63)" stroke-width="0.1"/>
  <path d="M 99.88142849999986,83.09999999999991 L 100.0,82.98142849999977" fill="none" stroke="rgb(63,63,63)" stroke-width="0.1"/>
  <path d="M 92.48142849999999,94.5 L 92.68142849999981,94.29999999999995" fill="none" stroke="rgb(63,63,63)" stroke-width="0.1"/>
  <path d="M 96.48142849999999,90.5 L 96.68142849999981,90.29999999999995" fill="none" stroke="rgb(63,63,63)" stroke-width="0.1"/>
  <path d="M 99.88142849999986,87.09999999999991 L 100.0,86.98142849999977" fill="none" stroke="rgb(63,63,63)" stroke-width="0.1"/>
  <path d="M 18.281428499999947,91.5 L 17.481428499999993,91.09999999999991" fill="none" stroke="rgb(63,63,63)" stroke-width="0.1"/>
  <path d="M 22.281428499999947,91.5 L 21.481428499999993,91.09999999999991" fill="none" stroke="rgb(63,63,63)" stroke-width="0.1"/>
  <path d="M 26.281428499999947,91.5 L 25.481428499999993,91.09999999999991" fill="none" stroke="rgb(63,63,63)" stroke-width="0.1"/>
  <path d="M 18.281428499999947,87.5 L 17.481428499999993,87.09999999999991" fill="none" stroke="rgb(63,63,63)" stroke-width="0.1"/>
  <path d="M 30.281428499999947,91.5 L 29.481428499999993,91.09999999999991" fill="none" stroke="rgb(63,63,63)" stroke-width="0.1"/>
  <path d="M 22.281428499999947,87.5 L 21.481428499999993,87.09999999999991" fill="none" stroke="rgb(63,63,63)" stroke-width="0.1"/>
  <path d="M 34.28142849999995,91.5 L 33.48142849999999,91.09999999999991" fill="none" stroke="rgb(63,63,63)" stroke-width="0.1"/>
  <path d="M 26.281428499999947,87.5 L 25.481428499999993,87.09999999999991" fill="none" stroke="rgb(63,63,63)" stroke-width="0.1"/>
  <path d="M 18.281428499999947,83.5 L 17.481428499999993,83.09999999999991" fill="none" stroke="rgb(63,63,63)" stroke-width="0.1"/>
  <path d="M 38.28142849999995,91.5 L 37.48142849999999,91.09999999999991" fill="none" stroke="rgb(63,63,63)" stroke-width="0.1"/>
  <path d="M 30.281428499999947,87.5 L 29.481428499999993,87.09999999999991" fill="none" stroke="rgb(63,63,63)" stroke-width="0.1"/>
  <path d="M 22.281428499999947,83.5 L 21.481428499999993,83.09999999999991" fill="none" stroke="rgb(63,63,63)" stroke-width="0.1"/>
  <path d="M 42.28142849999995,91.5 L 41.48142849999999,91.09999999999991" fill="none" stroke="rgb(63,63,63)" stroke-width="0.1"/>
  <path d="M 34.28142849999995,87.5 L 33.48142849999999,87.09999999999991" fill="none" stroke="rgb(63,63,63)" stroke-width="0.1"/>
  <path d="M 26.281428499999947,83.5 L 25.481428499999993,83.09999999999991" fill="none" stroke="rgb(63,63,63)" stroke-width="0.1"/>
  <path d="M 46.28142849999995,91.5 L 45.48142849999999,91.09999999999991" fill="none" stroke="rgb(63,63,63)" stroke-width="0.1"/>
  <path d="M 38.28142849999995,87.5 L 37.48142849999999,87.09999999999991" fill="none" stroke="rgb(63,63,63)" stroke-width="0.1"/>
  <path d="M 30.281428499999947,83.5 L 29.481428499999993,83.09999999999991" fill="none" stroke="rgb(63,63,63)" stroke-width="0.1"/>
  <path d="M 50.28142849999995,91.5 L 49.48142849999999,91.09999999999991" fill="none" stroke="rgb(63,63,63)" stroke-width="0.1"/>
  <path d="M 42.28142849999995,87.5 L 41.48142849999999,87.09999999999991" fill="none" stroke="rgb(63,63,63)" stroke-width="0.1"/>
  <path d="M 34.28142849999995,83.5 L 33.48142849999999,83.09999999999991" fill="none" stroke="rgb(63,63,63)" stroke-width="0.1"/>
  <path d="M 54.28142849999995,91.5 L 53.48142849999999,91.09999999999991" fill="none" stroke="rgb(63,63,63)" stroke-width="0.1"/>
  <path d="M 46.28142849999995,87.5 L 45.48142849999999,87.09999999999991" fill="none" stroke="rgb(63,63,63)" stroke-width="0.1"/>
  <path d="M 38.28142849999995,83.5 L 37.48142849999999,83.09999999999991" fill="none" stroke="rgb(63,63,63)" stroke-width="0.1"/>
  <path d="M 58.28142849999995,91.5 L 57.48142849999999,91.09999999999991" fill="none" stroke="rgb(63,63,63)" stroke-width="0.1"/>
  <path d="M 50.28142849999995,87.5 L 49.48142849999999,87.09999999999991" fill="none" stroke="rgb(63,63,63)" stroke-width="0.1"/>
  <path d="M 42.28142849999995,83.5 L 41.48142849999999,83.09999999999991" fill="none" stroke="rgb(63,63,63)" stroke-width="0.1"/>
  <path d="M 62.28142849999995,91.5 L 61.48142849999999,91.09999999999991" fill="none" stroke="rgb(63,63,63)" stroke-width="0.1"/>
  <path d="M 54.28142849999995,87.5 L 53.48142849999999,87.09999999999991" fill="none" stroke="rgb(63,63,63)" stroke-width="0.1"/>
  <path d="M 46.28142849999995,83.5 L 45.48142849999999,83.09999999999991" fill="none" stroke="rgb(63,63,63)" stroke-width="0.1"/>
  <path d="M 66.28142849999995,91.5 L 65.48142849999999,91.09999999999991" fill="none" stroke="rgb(63,63,63)" stroke-width="0.1"/>
  <path d="M 58.28142849999995,87.5 L 57.48142849999999,87.09999999999991" fill="none" stroke="rgb(63,63,63)" stroke-width="0.1"/>
  <path d="M 50.28142849999995,83.5 L 49.48142849999999,83.09999999999991" fill="none" stroke="rgb(63,63,63)" stroke-width="0.1"/>
  <path d="M 70.28142849999995,91.5 L 69.48142849999999,91.09999999999991" fill="none" stroke="rgb(63,63,63)" stroke-width="0.1"/>
  <path d="M 62.28142849999995,87.5 L 61.48142849999999,87.09999999999991" fill="none" stroke="rgb(63,63,63)" stroke-width="0.1"/>
  <path d="M 54.28142849999995,83.5 L 53.48142849999999,83.09999999999991" fill="none" stroke="rgb(63,63,63)" stroke-width="0.1"/>
  <path d="M 74.28142849999995,91.5 L 73.48142849999999,91.09999999999991" fill="none" stroke="rgb(63,63,63)" stroke-width="0.1"/>
  <path d="M 66.28142849999995,87.5 L 65.48142849999999,87.09999999999991" fill="none" stroke="rgb(63,63,63)" stroke-width="0.1"/>
  <path d="M 58.28142849999995,83.5 L 57.48142849999999,83.09999999999991" fill="none" stroke="rgb(63,63,63)" stroke-width="0.1"/>
  <path d="M 78.28142849999995,91.5 L 77.48142849999999,91.09999999999991" fill="none" stroke="rgb(63,63,63)" stroke-width="0.1"/>
  <path d="M 70.28142849999995,87.5 L 69.48142849999999,87.09999999999991" fill="none" stroke="rgb(63,63,63)" stroke-width="0.1"/>
  <path d="M 62.28142849999995,83.5 L 61.48142849999999,83.09999999999991" fill="none" stroke="rgb(63,63,63)" stroke-width="0.1"/>
  <path d="M 82.28142849999995,91.5 L 81.48142849999999,91.09999999999991" fill="none" stroke="rgb(63,63,63)" stroke-width="0.1"/>
  <path d="M 74.28142849999995,87.5 L 73.48142849999999,87.09999999999991" fill="none" stroke="rgb(63,63,63)" stroke-width="0.1"/>
  <path d="M 66.28142849999995,83.5 L 65.48142849999999,83.09999999999991" fill="none" stroke="rgb(63,63,63)" stroke-width="0.1"/>
  <path d="M 86.28142849999995,91.5 L 85.48142849999999,91.09999999999991" fill="none" stroke="rgb(63,63,63)" stroke-width="0.1"/>
  <path d="M 78.28142849999995,87.5 L 77.48142849999999,87.09999999999991" fill="none" stroke="rgb(63,63,63)" stroke-width="0.1"/>
  <path d="M 70.28142849999995,83.5 L 69.48142849999999,83.09999999999991" fill="none" stroke="rgb(63,63,63)" stroke-width="0.1"/>
  <path d="M 90.28142849999995,91.5 L 89.48142849999999,91.09999999999991" fill="none" stroke="rgb(63,63,63)" stroke-width="0.1"/>
  <path d="M 82.28142849999995,87.5 L 81.48142849999999,87.09999999999991" fill="none" stroke="rgb(63,63,63)" stroke-width="0.1"/>
  <path d="M 74.28142849999995,83.5 L 73.48142849999999,83.09999999999991" fill="none" stroke="rgb(63,63,63)" stroke-width="0.1"/>
  <path d="M 94.00142849999997,91.3599999999999 L 93.48142849999999,91.09999999999991" fill="none" stroke="rgb(63,63,63)" stroke-width="0.1"/>
  <path d="M 86.28142849999995,87.5 L 85.48142849999999,87.09999999999991" fill="none" stroke="rgb(63,63,63)" stroke-width="0.1"/>
  <path d="M 78.28142849999995,83.5 L 77.48142849999999,83.09999999999991" fill="none" stroke="rgb(63,63,63)" stroke-width="0.1"/>
  <path d="M 94.28142849999995,87.5 L 94.00142849999997,87.3599999999999" fill="none" stroke="rgb(63,63,63)" stroke-width="0.1"/>
  <path d="M 98.28142849999995,87.5 L 97.48142849999999,87.09999999999991" fill="none" stroke="rgb(63,63,63)" stroke-width="0.1"/>
  <path d="M 90.28142849999995,87.5 L 89.48142849999999,87.09999999999991" fill="none" stroke="rgb(63,63,63)" stroke-width="0.1"/>
  <path d="M 82.28142849999995,83.5 L 81.48142849999999,83.09999999999991" fill="none" stroke="rgb(63,63,63)" stroke-width="0.1"/>
  <path d="M 94.00142849999997,87.3599999999999 L 93.48142849999999,87.09999999999991" fill="none" stroke="rgb(63,63,63)" stroke-width="0.1"/>
  <path d="M 86.28142849999995,83.5 L 85.48142849999999,83.09999999999991" fill="none" stroke="rgb(63,63,63)" stroke-width="0.1"/>
  <path d="M 90.28142849999995,83.5 L 89.48142849999999,83.09999999999991" fill="none" stroke="rgb(63,63,63)" stroke-width="0.1"/>
  <path d="M 94.28142849999995,83.5 L 94.00142849999997,83.3599999999999" fill="none" stroke="rgb(63,63,63)" stroke-width="0.1"/>
  <path d="M 94.00142849999997,83.3599999999999 L 93.48142849999999,83.09999999999991" fill="none" stroke="rgb(63,63,63)" stroke-width="0.1"/>
  <path d="M 98.28142849999995,83.5 L 97.48142849999999,83.09999999999991" fill="none" stroke="rgb(63,63,63)" stroke-width="0.1"/>
  <path d="M 99.88142849999986,87.09999999999991 L 99.0814284999999,87.5" fill="none" stroke="rgb(63,63,63)" stroke-width="0.1"/>
  <path d="M 91.88142849999986,91.09999999999991 L 91.0814284999999,91.5" fill="none" stroke="rgb(63,63,63)" stroke-width="0.1"/>
  <path d="M 95.88142849999986,87.09999999999991 L 95.0814284999999,87.5" fill="none" stroke="rgb(63,63,63)" stroke-width="0.1"/>
  <path d="M 99.88142849999986,83.09999999999991 L 99.0814284999999,83.5" fill="none" stroke="rgb(63,63,63)" stroke-width="0.1"/>
  <path d="M 95.88142849999986,83.09999999999991 L 95.0814284999999,83.5" fill="none" stroke="rgb(63,63,63)" stroke-width="0.1"/>
  <path d="M 87.88142849999986,91.09999999999991 L 87.0814284999999,91.5" fill="none" stroke="rgb(63,63,63)" stroke-width="0.1"/>
  <path d="M 91.88142849999986,87.09999999999991 L 91.0814284999999,87.5" fill="none" stroke="rgb(63,63,63)" stroke-width="0.1"/>
  <path d="M 83.88142849999986,91.09999999999991 L 83.0814284999999,91.5" fill="none" stroke="rgb(63,63,63)" stroke-width="0.1"/>
  <path d="M 87.88142849999986,87.09999999999991 L 87.0814284999999,87.5" fill="none" stroke="rgb(63,63,63)" stroke-width="0.1"/>
  <path d="M 79.88142849999986,91.09999999999991 L 79.0814284999999,91.5" fill="none" stroke="rgb(63,63,63)" stroke-width="0.1"/>
  <path d="M 91.88142849999986,83.09999999999991 L 91.0814284999999,83.5" fill="none" stroke="rgb(63,63,63)" stroke-width="0.1"/>
  <path d="M 83.88142849999986,87.09999999999991 L 83.0814284999999,87.5" fill="none" stroke="rgb(63,63,63)" stroke-width="0.1"/>
  <path d="M 75.88142849999986,91.09999999999991 L 75.0814284999999,91.5" fill="none" stroke="rgb(63,63,63)" stroke-width="0.1"/>
  <path d="M 87.88142849999986,83.09999999999991 L 87.0814284999999,83.5" fill="none" stroke="rgb(63,63,63)" stroke-width="0.1"/>
  <path d="M 79.88142849999986,87.09999999999991 L 79.0814284999999,87.5" fill="none" stroke="rgb(63,63,63)" stroke-width="0.1"/>
  <path d="M 71.88142849999986,91.09999999999991 L 71.0814284999999,91.5" fill="none" stroke="rgb(63,63,63)" stroke-width="0.1"/>
  <path d="M 83.88142849999986,83.09999999999991 L 83.0814284999999,83.5" fill="none" stroke="rgb(63,63,63)" stroke-width="0.1"/>
  <path d="M 75.88142849999986,87.09999999999991 L 75.0814284999999,87.5" fill="none" stroke="rgb(63,63,63)" stroke-width="0.1"/>
  <path d="M 67.88142849999986,91.09999999999991 L 67.0814284999999,91.5" fill="none" stroke="rgb(63,63,63)" stroke-width="0.1"/>
  <path d="M 79.88142849999986,83.09999999999991 L 79.0814284999999,83.5" fill="none" stroke="rgb(63,63,63)" stroke-width="0.1"/>
  <path d="M 71.88142849999986,87.09999999999991 L 71.0814284999999,87.5" fill="none" stroke="rgb(63,63,63)" stroke-width="0.1"/>
  <path d="M 63.881428499999856,91.09999999999991 L 63.0814284999999,91.5" fill="none" stroke="rgb(63,63,63)" stroke-width="0.1"/>
  <path d="M 75.88142849999986,83.09999999999991 L 75.0814284999999,83.5" fill="none" stroke="rgb(63,63,63)" stroke-width="0.1"/>
  <path d="M 67.88142849999986,87.09999999999991 L 67.0814284999999,87.5" fill="none" stroke="rgb(63,63,63)" stroke-width="0.1"/>
  <path d="M 59.881428499999856,91.09999999999991 L 59.0814284999999,91.5" fill="none" stroke="rgb(63,63,63)" stroke-width="0.1"/>
  <path d="M 71.88142849999986,83.09999999999991 L 71.0814284999999,83.5" fill="none" stroke="rgb(63,63,63)" stroke-width="0.1"/>
  <path d="M 63.881428499999856,87.09999999999991 L 63.0814284999999,87.5" fill="none" stroke="rgb(63,63,63)" stroke-width="0.1"/>
  <path d="M 55.881428499999856,91.09999999999991 L 55.0814284999999,91.5" fill="none" stroke="rgb(63,63,63)" stroke-width="0.1"/>
  <path d="M 67.88142849999986,83.09999999999991 L 67.0814284999999,83.5" fill="none" stroke="rgb(63,63,63)" stroke-width="0.1"/>
  <path d="M 59.881428499999856,87.09999999999991 L 59.0814284999999,87.5" fill="none" stroke="rgb(63,63,63)" stroke-width="0.1"/>
  <path d="M 51.881428499999856,91.09999999999991 L 51.0814284999999,91.5" fill="none" stroke="rgb(63,63,63)" stroke-width="0.1"/>
  <path d="M 63.881428499999856,83.09999999999991 L 63.0814284999999,83.5" fill="none" stroke="rgb(63,63,63)" stroke-width="0.1"/>
  <path d="M 55.881428499999856,87.09999999999991 L 55.0814284999999,87.5" fill="none" stroke="rgb(63,63,63)" stroke-width="0.1"/>
  <path d="M 47.881428499999856,91.09999999999991 L 47.0814284999999,91.5" fill="none" stroke="rgb(63,63,63)" stroke-width="0.1"/>
  <path d="M 59.881428499999856,83.09999999999991 L 59.0814284999999,83.5" fill="none" stroke="rgb(63,63,63)" stroke-width="0.1"/>
  <path d="M 51.881428499999856,87.09999999999991 L 51.0814284999999,87.5" fill="none" stroke="rgb(63,63,63)" stroke-width="0.1"/>
  <path d="M 43.881428499999856,91.09999999999991 L 43.0814284999999,91.5" fill="none" stroke="rgb(63,63,63)" stroke-width="0.1"/>
  <path d="M 55.881428499999856,83.09999999999991 L 55.0814284999999,83.5" fill="none" stroke="rgb(63,63,63)" stroke-width="0.1"/>
  <path d="M 47.881428499999856,87.09999999999991 L 47.0814284999999,87.5" fill="none" stroke="rgb(63,63,63)" stroke-width="0.1"/>
  <path d="M 39.881428499999856,91.09999999999991 L 39.0814284999999,91.5" fill="none" stroke="rgb(63,63,63)" stroke-width="0.1"/>
  <path d="M 51.881428499999856,83.09999999999991 L 51.0814284999999,83.5" fill="none" stroke="rgb(63,63,63)" stroke-width="0.1"/>
  <path d="M 43.881428499999856,87.09999999999991 L 43.0814284999999,87.5" fill="none" stroke="rgb(63,63,63)" stroke-width="0.1"/>
  <path d="M 35.881428499999856,91.09999999999991 L 35.0814284999999,91.5" fill="none" stroke="rgb(63,63,63)" stroke-width="0.1"/>
  <path d="M 47.881428499999856,83.09999999999991 L 47.0814284999999,83.5" fill="none" stroke="rgb(63,63,63)" stroke-width="0.1"/>
  <path d="M 39.881428499999856,87.09999999999991 L 39.0814284999999,87.5" fill="none" stroke="rgb(63,63,63)" stroke-width="0.1"/>
  <path d="M 31.881428499999856,91.09999999999991 L 31.0814284999999,91.5" fill="none" stroke="rgb(63,63,63)" stroke-width="0.1"/>
  <path d="M 43.881428499999856,83.09999999999991 L 43.0814284999999,83.5" fill="none" stroke="rgb(63,63,63)" stroke-width="0.1"/>
  <path d="M 35.881428499999856,87.09999999999991 L 35.0814284999999,87.5" fill="none" stroke="rgb(63,63,63)" stroke-width="0.1"/>
  <path d="M 27.881428499999856,91.09999999999991 L 27.0814284999999,91.5" fill="none" stroke="rgb(63,63,63)" stroke-width="0.1"/>
  <path d="M 39.881428499999856,83.09999999999991 L 39.0814284999999,83.5" fill="none" stroke="rgb(63,63,63)" stroke-width="0.1"/>
  <path d="M 31.881428499999856,87.09999999999991 L 31.0814284999999,87.5" fill="none" stroke="rgb(63,63,63)" stroke-width="0.1"/>
  <path d="M 23.881428499999856,91.09999999999991 L 23.0814284999999,91.5" fill="none" stroke="rgb(63,63,63)" stroke-width="0.1"/>
  <path d="M 35.881428499999856,83.09999999999991 L 35.0814284999999,83.5" fill="none" stroke="rgb(63,63,63)" stroke-width="0.1"/>
  <path d="M 27.881428499999856,87.09999999999991 L 27.0814284999999,87.5" fill="none" stroke="rgb(63,63,63)" stroke-width="0.1"/>
  <path d="M 19.881428499999856,91.09999999999991 L 19.0814284999999,91.5" fill="none" stroke="rgb(63,63,63)" stroke-width="0.1"/>
  <path d="M 31.881428499999856,83.09999999999991 L 31.0814284999999,83.5" fill="none" stroke="rgb(63,63,63)" stroke-width="0.1"/>
  <path d="M 23.881428499999856,87.09999999999991 L 23.0814284999999,87.5" fill="none" stroke="rgb(63,63,63)" stroke-width="0.1"/>
  <path d="M 27.881428499999856,83.09999999999991 L 27.0814284999999,83.5" fill="none" stroke="rgb(63,63,63)" stroke-width="0.1"/>
  <path d="M 19.881428499999856,87.09999999999991 L 19.0814284999999,87.5" fill="none" stroke="rgb(63,63,63)" stroke-width="0.1"/>
  <path d="M 23.881428499999856,83.09999999999991 L 23.0814284999999,83.5" fill="none" stroke="rgb(63,63,63)" stroke-width="0.1"/>
  <path d="M 19.881428499999856,83.09999999999991 L 19.0814284999999,83.5" fill="none" stroke="rgb(63,63,63)" stroke-width="0.1"/>
  <path d="M 11.001428499999975,90.5 L 17.001428499999975,90.5" fill="none" instance-id="-1" semantic-id="1" stroke="rgb(63,63,63)" stroke-width="0.1"/>
  <path d="M 17.001428499999975,90.5 L 17.001428499999975,67.5" fill="none" instance-id="-1" semantic-id="1" stroke="rgb(63,63,63)" stroke-width="0.1"/>
  <path d="M 17.001428499999975,67.5 L 0.0,67.5" fill="none" instance-id="-1" semantic-id="1" stroke="rgb(63,63,63)" stroke-width="0.1"/>
  <path d="M 0.0,69.09999999999991 L 15.401428499999838,69.09999999999991" fill="none" instance-id="-1" semantic-id="1" stroke="rgb(63,63,63)" stroke-width="0.1"/>
  <path d="M 15.401428499999838,69.09999999999991 L 15.401428499999838,88.5" fill="none" instance-id="-1" semantic-id="1" stroke="rgb(63,63,63)" stroke-width="0.1"/>
  <path d="M 15.401428499999838,88.5 L 11.001428499999975,88.5" fill="none" instance-id="-1" semantic-id="1" stroke="rgb(63,63,63)" stroke-width="0.1"/>
  <path d="M 11.001428499999975,88.5 L 11.001428499999975,90.5" fill="none" instance-id="-1" semantic-id="1" stroke="rgb(63,63,63)" stroke-width="0.1"/>
  <path d="M 17.001428499999975,94.30999999999995 L 94.00142849999997,94.5" fill="none" stroke="rgb(63,63,63)" stroke-width="0.1"/>
  <path d="M 94.00142849999997,94.5 L 94.00142849999997,92.5" fill="none" stroke="rgb(63,63,63)" stroke-width="0.1"/>
  <path d="M 94.00142849999997,92.5 L 94.00142849999997,90.5" fill="none" stroke="rgb(63,63,63)" stroke-width="0.1"/>
  <path d="M 94.00142849999997,90.5 L 100.0,90.5" fill="none" stroke="rgb(63,63,63)" stroke-width="0.1"/>
  <path d="M 100.0,82.5 L 94.00142849999997,82.5" fill="none" stroke="rgb(63,63,63)" stroke-width="0.1"/>
  <path d="M 94.00142849999997,82.5 L 17.001428499999975,82.30999999999995" fill="none" stroke="rgb(63,63,63)" stroke-width="0.1"/>
  <path d="M 17.001428499999975,82.30999999999995 L 17.001428499999975,92.30999999999995" fill="none" instance-id="-1" semantic-id="1" stroke="rgb(63,63,63)" stroke-width="0.1"/>
  <path d="M 17.001428499999975,92.30999999999995 L 17.001428499999975,94.30999999999995" fill="none" instance-id="-1" semantic-id="1" stroke="rgb(63,63,63)" stroke-width="0.1"/>
  <path d="M 94.00142849999997,92.5 L 17.001428499999975,92.30999999999995" fill="none" stroke="rgb(63,63,63)" stroke-width="0.1"/>
  <path d="M 17.001428499999975,92.30999999999995 L 94.00142849999997,92.5" fill="none" stroke="rgb(63,63,63)" stroke-width="0.1"/>
 </g>
 <g id="layerA-HOLE-FLOR" inkscape:groupmode="layer" inkscape:label="A-HOLE-FLOR">
  <path d="M 92.40011825198872,100.0 L 91.84142849999989,97.13000000000011" fill="none" stroke="rgb(142,0,35)" stroke-width="0.1"/>
  <path d="M 91.84142849999989,97.13000000000011 L 17.001428499999975,94.5" fill="none" stroke="rgb(142,0,35)" stroke-width="0.1"/>
 </g>
 <g id="layerA-INDEX" inkscape:groupmode="layer" inkscape:label="A-INDEX">
  <path d="M 37.7214285,71.93000000000006 L 45.7214285,71.93000000000006" fill="none" stroke="rgb(0,107,107)" stroke-width="0.1"/>
  <path d="M 45.601428499999884,71.93000000000006 L 18.001428499999975,71.93000000000006" fill="none" stroke="rgb(0,107,107)" stroke-width="0.1"/>
  <path d="M 100.0,72.61999999999989 L 98.36142849999987,72.61999999999989" fill="none" stroke="rgb(0,107,107)" stroke-width="0.1"/>
  <path d="M 98.36142849999987,72.61999999999989 L 98.36142849999987,90.5" fill="none" stroke="rgb(0,107,107)" stroke-width="0.1"/>
  <path d="M 0.0,57.5 L 1.4714285000000018,57.5" fill="none" stroke="rgb(0,107,107)" stroke-width="0.1"/>
  <circle cx="41.7214285" cy="71.93000000000006" fill="none" r="4" stroke="rgb(0,107,107)" stroke-width="0.1"/>
  <text fill="rgb(0,107,107)" font-family="Noto Sans CJK SC" font-size="2" transform="rotate(-0.0,28.621428499999865,70.93000000000006)" x="28.621428499999865" y="70.93000000000006">
   8
  </text>
  <text fill="rgb(0,107,107)" font-family="Noto Sans CJK SC" font-size="2" transform="rotate(-0.0,40.7214285,71.43000000000006)" x="40.7214285" y="71.43000000000006">
   1
  </text>
  <text fill="rgb(0,107,107)" font-family="Noto Sans CJK SC" font-size="2" transform="rotate(-0.0,39.9414284999998,74.93000000000006)" x="39.9414284999998" y="74.93000000000006">
   A203
  </text>
  <text fill="rgb(0,107,107)" font-family="Noto Sans CJK SC" font-size="2" transform="rotate(-0.0,1.70142850000002,75.48000000000002)" x="1.70142850000002" y="75.48000000000002">
   E4
  </text>
 </g>
 <g id="layerA-LEVEL" inkscape:groupmode="layer" inkscape:label="A-LEVEL">
  <path d="M 89.27142849999996,92.5 L 92.25142849999997,89.51999999999998" fill="none" stroke="rgb(73,12,255)" stroke-width="0.1"/>
  <path d="M 100.0,89.51999999999998 L 86.28142849999995,89.51999999999998" fill="none" stroke="rgb(73,12,255)" stroke-width="0.1"/>
  <path d="M 89.27142849999996,92.5 L 86.28142849999995,89.51999999999998" fill="none" stroke="rgb(73,12,255)" stroke-width="0.1"/>
  <text fill="rgb(73,12,255)" font-family="Noto Sans CJK SC" font-size="2" transform="rotate(-0.0,88.98142849999999,88.15000000000009)" x="88.98142849999999" y="88.15000000000009">
   43.700()
  </text>
 </g>
 <g id="layerA-MARK" inkscape:groupmode="layer" inkscape:label="A-MARK">
  <text fill="rgb(142,0,71)" font-family="Noto Sans CJK SC" font-size="2" transform="rotate(-0.0,99.14142849999985,97.50999999999999)" x="99.14142849999985" y="97.50999999999999">
   
  </text>
 </g>
 <g id="layerA-ROOF" inkscape:groupmode="layer" inkscape:label="A-ROOF">
  <path d="M 94.00142849999997,92.5 L 17.001428499999975,92.5" fill="none" stroke="rgb(0,133,178)" stroke-width="0.1"/>
  <path d="M 94.00142849999997,94.5 L 17.001428499999975,94.5" fill="none" stroke="rgb(0,133,178)" stroke-width="0.1"/>
  <path d="M 100.0,82.5 L 17.001428499999975,82.5" fill="none" stroke="rgb(0,133,178)" stroke-width="0.1"/>
 </g>
 <g id="layerA-ROOM-IDEN" inkscape:groupmode="layer" inkscape:label="A-ROOM-IDEN">
  <path d="M 8.001428499999975,71.90000000000009 L 8.001428499999975,76.90000000000009" fill="none" stroke="rgb(255,133,12)" stroke-width="0.1"/>
  <path d="M 0.0014284999999745196,71.90000000000009 L 0.0014284999999745196,76.90000000000009" fill="none" stroke="rgb(255,133,12)" stroke-width="0.1"/>
  <path d="M 0.0014284999999745196,71.90000000000009 L 8.001428499999975,71.90000000000009" fill="none" stroke="rgb(255,133,12)" stroke-width="0.1"/>
  <path d="M 0.0014284999999745196,76.90000000000009 L 8.001428499999975,76.90000000000009" fill="none" stroke="rgb(255,133,12)" stroke-width="0.1"/>
 </g>
 <g id="layerA-STAIR" inkscape:groupmode="layer" inkscape:label="A-STAIR">
  <path d="M 98.00142849999997,99.5 L 100.0,99.5" fill="none" stroke="rgb(0,107,142)" stroke-width="0.1"/>
 </g>
 <g id="layerA-WALL" inkscape:groupmode="layer" inkscape:label="A-WALL">
  <path d="M 11.001428499999975,88.5 L 9.501428499999975,88.5" fill="none" stroke="rgb(178,178,0)" stroke-width="0.1"/>
  <path d="M 9.501428499999975,88.5 L 9.501428499999975,90.5" fill="none" stroke="rgb(178,178,0)" stroke-width="0.1"/>
  <path d="M 11.001428499999975,90.5 L 9.501428499999975,90.5" fill="none" stroke="rgb(178,178,0)" stroke-width="0.1"/>
  <path d="M 96.00142849999997,92.5 L 100.0,92.5" fill="none" instance-id="-1" semantic-id="1" stroke="rgb(178,178,0)" stroke-width="0.1"/>
  <path d="M 100.0,94.5 L 98.00142849999997,94.5" fill="none" instance-id="-1" semantic-id="1" stroke="rgb(178,178,0)" stroke-width="0.1"/>
  <path d="M 98.00142849999997,94.5 L 98.00142849999997,100.0" fill="none" instance-id="-1" semantic-id="1" stroke="rgb(178,178,0)" stroke-width="0.1"/>
  <path d="M 96.00142849999997,100.0 L 96.00142849999997,92.5" fill="none" instance-id="-1" semantic-id="1" stroke="rgb(178,178,0)" stroke-width="0.1"/>
  <path d="M 94.00142849999997,100.0 L 94.00142849999997,97.5" fill="none" stroke="rgb(178,178,0)" stroke-width="0.1"/>
  <path d="M 94.00142849999997,97.5 L 95.00142849999997,97.5" fill="none" stroke="rgb(178,178,0)" stroke-width="0.1"/>
  <path d="M 95.00142849999997,97.5 L 95.00142849999997,95.5" fill="none" stroke="rgb(178,178,0)" stroke-width="0.1"/>
  <path d="M 95.00142849999997,95.5 L 94.00142849999997,95.5" fill="none" stroke="rgb(178,178,0)" stroke-width="0.1"/>
  <path d="M 94.00142849999997,95.5 L 94.00142849999997,91.5" fill="none" stroke="rgb(178,178,0)" stroke-width="0.1"/>
  <path d="M 94.00142849999997,91.5 L 95.00142849999997,91.5" fill="none" stroke="rgb(178,178,0)" stroke-width="0.1"/>
  <path d="M 95.00142849999997,91.5 L 95.00142849999997,90.5" fill="none" stroke="rgb(178,178,0)" stroke-width="0.1"/>
  <path d="M 95.00142849999997,90.5 L 99.00142849999997,90.5" fill="none" stroke="rgb(178,178,0)" stroke-width="0.1"/>
  <path d="M 99.00142849999997,90.5 L 99.00142849999997,91.5" fill="none" stroke="rgb(178,178,0)" stroke-width="0.1"/>
  <path d="M 99.00142849999997,91.5 L 100.0,91.5" fill="none" stroke="rgb(178,178,0)" stroke-width="0.1"/>
  <path d="M 100.0,94.5 L 98.00142849999997,94.5" fill="none" instance-id="-1" semantic-id="1" stroke="rgb(178,178,0)" stroke-width="0.1"/>
  <path d="M 98.00142849999997,94.5 L 98.00142849999997,100.0" fill="none" instance-id="-1" semantic-id="1" stroke="rgb(178,178,0)" stroke-width="0.1"/>
  <path d="M 96.00142849999997,100.0 L 96.00142849999997,92.5" fill="none" instance-id="-1" semantic-id="1" stroke="rgb(178,178,0)" stroke-width="0.1"/>
  <path d="M 96.00142849999997,92.5 L 100.0,92.5" fill="none" instance-id="-1" semantic-id="1" stroke="rgb(178,178,0)" stroke-width="0.1"/>
  <path d="M 7.0014284999999745,67.5 L 7.0014284999999745,66.5" fill="none" stroke="rgb(178,178,0)" stroke-width="0.1"/>
  <path d="M 7.0014284999999745,66.5 L 8.001428499999975,66.5" fill="none" stroke="rgb(178,178,0)" stroke-width="0.1"/>
  <path d="M 8.001428499999975,66.5 L 8.001428499999975,65.5" fill="none" stroke="rgb(178,178,0)" stroke-width="0.1"/>
  <path d="M 8.001428499999975,65.5 L 12.001428499999975,65.5" fill="none" stroke="rgb(178,178,0)" stroke-width="0.1"/>
  <path d="M 12.001428499999975,65.5 L 12.001428499999975,66.5" fill="none" stroke="rgb(178,178,0)" stroke-width="0.1"/>
  <path d="M 12.001428499999975,66.5 L 14.001428499999975,66.5" fill="none" stroke="rgb(178,178,0)" stroke-width="0.1"/>
  <path d="M 14.001428499999975,66.5 L 14.001428499999975,65.5" fill="none" stroke="rgb(178,178,0)" stroke-width="0.1"/>
  <path d="M 14.001428499999975,65.5 L 18.001428499999975,65.5" fill="none" stroke="rgb(178,178,0)" stroke-width="0.1"/>
  <path d="M 18.001428499999975,65.5 L 18.001428499999975,66.5" fill="none" stroke="rgb(178,178,0)" stroke-width="0.1"/>
  <path d="M 18.001428499999975,66.5 L 19.001428499999975,66.5" fill="none" stroke="rgb(178,178,0)" stroke-width="0.1"/>
  <path d="M 19.001428499999975,66.5 L 19.001428499999975,70.5" fill="none" stroke="rgb(178,178,0)" stroke-width="0.1"/>
  <path d="M 19.001428499999975,70.5 L 18.001428499999975,70.5" fill="none" stroke="rgb(178,178,0)" stroke-width="0.1"/>
  <path d="M 18.001428499999975,70.5 L 18.001428499999975,72.5" fill="none" stroke="rgb(178,178,0)" stroke-width="0.1"/>
  <path d="M 18.001428499999975,72.5 L 19.001428499999975,72.5" fill="none" stroke="rgb(178,178,0)" stroke-width="0.1"/>
  <path d="M 19.001428499999975,72.5 L 19.001428499999975,76.5" fill="none" stroke="rgb(178,178,0)" stroke-width="0.1"/>
  <path d="M 19.001428499999975,76.5 L 18.001428499999975,76.5" fill="none" stroke="rgb(178,178,0)" stroke-width="0.1"/>
  <path d="M 18.001428499999975,76.5 L 18.001428499999975,77.5" fill="none" stroke="rgb(178,178,0)" stroke-width="0.1"/>
  <path d="M 18.001428499999975,77.5 L 17.001428499999975,77.5" fill="none" stroke="rgb(178,178,0)" stroke-width="0.1"/>
 </g>
 <g id="layerA-WIND" inkscape:groupmode="layer" inkscape:label="A-WIND">
  <path d="M 17.001428499999975,100.0 L 17.001428499999975,90.5" fill="none" stroke="rgb(0,88,66)" stroke-width="0.1"/>
  <path d="M 15.001428499999975,100.0 L 15.001428499999975,90.5" fill="none" stroke="rgb(0,88,66)" stroke-width="0.1"/>
  <path d="M 15.751428499999975,91.0 L 16.251428499999975,91.0" fill="none" stroke="rgb(0,88,66)" stroke-width="0.1"/>
  <path d="M 16.251428499999975,100.0 L 16.251428499999975,90.5" fill="none" stroke="rgb(0,88,66)" stroke-width="0.1"/>
  <path d="M 15.751428499999975,100.0 L 15.751428499999975,90.5" fill="none" stroke="rgb(0,88,66)" stroke-width="0.1"/>
 </g>
</svg>