<?xml version="1.0" encoding="utf-8"?>
<svg style="background-color: #000;" version="1.1" viewBox="0 0 100.0 100.0" xmlns="http://www.w3.org/2000/svg" xmlns:inkscape="http://www.inkscape.org/namespaces/inkscape">
 <g id="layer-ACO-AXIS" inkscape:groupmode="layer" inkscape:label="-ACO-AXIS">
  <path d="M 16.00086699999997,0.0 L 16.00086699999997,89.99571449999985" fill="none" stroke="rgb(89,89,89)" stroke-width="0.1"/>
  <path d="M 31.00086699999997,0.0 L 31.00086699999997,100.0" fill="none" stroke="rgb(89,89,89)" stroke-width="0.1"/>
  <path d="M 51.00086699999997,89.99571449999985 L 51.00086699999997,0.0" fill="none" stroke="rgb(89,89,89)" stroke-width="0.1"/>
  <path d="M 67.00086699999997,0.0 L 67.00086699999997,100.0" fill="none" stroke="rgb(89,89,89)" stroke-width="0.1"/>
  <path d="M 88.00086699999997,0.0 L 88.00086699999997,89.99571449999985" fill="none" stroke="rgb(89,89,89)" stroke-width="0.1"/>
  <path d="M 100.0,89.99571449999985 L 0.0,89.99571449999985" fill="none" stroke="rgb(89,89,89)" stroke-width="0.1"/>
  <path d="M 100.0,85.99571449999985 L 0.0,85.99571449999985" fill="none" stroke="rgb(89,89,89)" stroke-width="0.1"/>
  <path d="M 100.0,66.99571449999985 L 0.0,66.99571449999985" fill="none" stroke="rgb(89,89,89)" stroke-width="0.1"/>
  <path d="M 100.0,62.99571449999985 L 0.0,62.99571449999985" fill="none" stroke="rgb(89,89,89)" stroke-width="0.1"/>
  <path d="M 100.0,47.99571449999985 L 0.0,47.99571449999985" fill="none" stroke="rgb(89,89,89)" stroke-width="0.1"/>
  <path d="M 100.0,39.99571449999985 L 0.0,39.99571449999985" fill="none" stroke="rgb(89,89,89)" stroke-width="0.1"/>
  <path d="M 100.0,21.99571449999985 L 0.0,21.99571449999985" fill="none" stroke="rgb(89,89,89)" stroke-width="0.1"/>
  <path d="M 100.0,17.99571449999985 L 0.0,17.99571449999985" fill="none" stroke="rgb(89,89,89)" stroke-width="0.1"/>
 </g>
 <g id="layer-ACO-VIEW" inkscape:groupmode="layer" inkscape:label="-ACO-VIEW">
  <path d="M 37.410866999999826,33.275714499999594 L 3.5908669999998892,33.275714499999594" fill="none" stroke="rgb(0,142,71)" stroke-width="0.1"/>
 </g>
 <g id="layer71#-WALL--1~1F$0$S-WALL-S" inkscape:groupmode="layer" inkscape:label="71#-WALL--1~1F$0$S-WALL-S">
  <path d="M 17.00086699999997,39.49571449999985 L 15.000866999999971,39.49571449999985" fill="none" instance-id="-1" semantic-id="1" stroke="rgb(178,88,0)" stroke-width="0.1"/>
  <path d="M 15.000866999999971,39.49571449999985 L 15.000866999999971,46.99571449999985" fill="none" instance-id="-1" semantic-id="1" stroke="rgb(178,88,0)" stroke-width="0.1"/>
  <path d="M 15.000866999999971,46.99571449999985 L 9.000866999999971,46.99571449999985" fill="none" instance-id="-1" semantic-id="1" stroke="rgb(178,88,0)" stroke-width="0.1"/>
  <path d="M 9.000866999999971,46.99571449999985 L 9.000866999999971,48.99571449999985" fill="none" instance-id="-1" semantic-id="1" stroke="rgb(178,88,0)" stroke-width="0.1"/>
  <path d="M 9.000866999999971,48.99571449999985 L 17.00086699999997,48.99571449999985" fill="none" instance-id="-1" semantic-id="1" stroke="rgb(178,88,0)" stroke-width="0.1"/>
  <path d="M 17.00086699999997,48.99571449999985 L 17.00086699999997,39.49571449999985" fill="none" instance-id="-1" semantic-id="1" stroke="rgb(178,88,0)" stroke-width="0.1"/>
  <path d="M 32.25086699999997,84.99571449999985 L 32.25086699999997,64.49571449999985" fill="none" instance-id="-1" semantic-id="1" stroke="rgb(178,88,0)" stroke-width="0.1"/>
  <path d="M 32.25086699999997,64.49571449999985 L 36.00086699999997,64.49571449999985" fill="none" instance-id="-1" semantic-id="1" stroke="rgb(178,88,0)" stroke-width="0.1"/>
  <path d="M 36.00086699999997,64.49571449999985 L 36.00086699999997,61.99571449999985" fill="none" instance-id="-1" semantic-id="1" stroke="rgb(178,88,0)" stroke-width="0.1"/>
  <path d="M 36.00086699999997,61.99571449999985 L 29.75086699999997,61.99571449999985" fill="none" instance-id="-1" semantic-id="1" stroke="rgb(178,88,0)" stroke-width="0.1"/>
  <path d="M 29.75086699999997,61.99571449999985 L 29.75086699999997,84.99571449999985" fill="none" instance-id="-1" semantic-id="1" stroke="rgb(178,88,0)" stroke-width="0.1"/>
  <path d="M 29.75086699999997,84.99571449999985 L 32.25086699999997,84.99571449999985" fill="none" instance-id="-1" semantic-id="1" stroke="rgb(178,88,0)" stroke-width="0.1"/>
  <path d="M 17.00086699999997,0.0 L 17.00086699999997,18.99571449999985" fill="none" instance-id="-1" semantic-id="1" stroke="rgb(178,88,0)" stroke-width="0.1"/>
  <path d="M 17.00086699999997,18.99571449999985 L 11.000866999999971,18.99571449999985" fill="none" instance-id="-1" semantic-id="1" stroke="rgb(178,88,0)" stroke-width="0.1"/>
  <path d="M 11.000866999999971,18.99571449999985 L 11.000866999999971,16.99571449999985" fill="none" instance-id="-1" semantic-id="1" stroke="rgb(178,88,0)" stroke-width="0.1"/>
  <path d="M 11.000866999999971,16.99571449999985 L 15.400866999999835,16.99571449999985" fill="none" instance-id="-1" semantic-id="1" stroke="rgb(178,88,0)" stroke-width="0.1"/>
  <path d="M 15.400866999999835,16.99571449999985 L 15.400866999999835,0.0" fill="none" instance-id="-1" semantic-id="1" stroke="rgb(178,88,0)" stroke-width="0.1"/>
 </g>
 <g id="layerA-DIMS-INSD" inkscape:groupmode="layer" inkscape:label="A-DIMS-INSD">
  <path d="M 14.810866999999917,39.99571449999985 L 5.1708669999998165,39.99571449999985" fill="none" stroke="rgb(0,178,0)" stroke-width="0.1"/>
  <path d="M 14.810866999999917,39.49571449999985 L 5.1708669999998165,39.49571449999985" fill="none" stroke="rgb(0,178,0)" stroke-width="0.1"/>
  <path d="M 7.6708669999998165,39.99571449999985 L 7.6708669999998165,39.49571449999985" fill="none" stroke="rgb(0,178,0)" stroke-width="0.1"/>
  <path d="M 14.810866999999917,39.49571449999985 L 5.1708669999998165,39.49571449999985" fill="none" stroke="rgb(0,178,0)" stroke-width="0.1"/>
  <path d="M 14.810866999999917,18.99571449999985 L 5.1708669999998165,18.99571449999985" fill="none" stroke="rgb(0,178,0)" stroke-width="0.1"/>
  <path d="M 7.6708669999998165,39.49571449999985 L 7.6708669999998165,18.99571449999985" fill="none" stroke="rgb(0,178,0)" stroke-width="0.1"/>
  <path d="M 27.00086699999997,16.805714499999794 L 27.00086699999997,9.775714499999594" fill="none" stroke="rgb(0,178,0)" stroke-width="0.1"/>
  <path d="M 25.00086699999997,16.805714499999794 L 25.00086699999997,9.775714499999594" fill="none" stroke="rgb(0,178,0)" stroke-width="0.1"/>
  <path d="M 27.00086699999997,12.275714499999594 L 25.00086699999997,12.275714499999594" fill="none" stroke="rgb(0,178,0)" stroke-width="0.1"/>
  <path d="M 25.00086699999997,16.805714499999794 L 25.00086699999997,9.775714499999594" fill="none" stroke="rgb(0,178,0)" stroke-width="0.1"/>
  <path d="M 17.00086699999997,16.805714499999794 L 17.00086699999997,9.775714499999594" fill="none" stroke="rgb(0,178,0)" stroke-width="0.1"/>
  <path d="M 25.00086699999997,12.275714499999594 L 17.00086699999997,12.275714499999594" fill="none" stroke="rgb(0,178,0)" stroke-width="0.1"/>
  <path d="M 32.1908669999998,18.99571449999985 L 37.030866999999944,18.99571449999985" fill="none" stroke="rgb(0,178,0)" stroke-width="0.1"/>
  <path d="M 32.1908669999998,21.99571449999985 L 37.030866999999944,21.99571449999985" fill="none" stroke="rgb(0,178,0)" stroke-width="0.1"/>
  <path d="M 34.530866999999944,18.99571449999985 L 34.530866999999944,21.99571449999985" fill="none" stroke="rgb(0,178,0)" stroke-width="0.1"/>
  <path d="M 32.1908669999998,21.99571449999985 L 37.030866999999944,21.99571449999985" fill="none" stroke="rgb(0,178,0)" stroke-width="0.1"/>
  <path d="M 32.1908669999998,46.99571449999985 L 37.030866999999944,46.99571449999985" fill="none" stroke="rgb(0,178,0)" stroke-width="0.1"/>
  <path d="M 34.530866999999944,21.99571449999985 L 34.530866999999944,46.99571449999985" fill="none" stroke="rgb(0,178,0)" stroke-width="0.1"/>
  <path d="M 32.1908669999998,46.99571449999985 L 37.030866999999944,46.99571449999985" fill="none" stroke="rgb(0,178,0)" stroke-width="0.1"/>
  <path d="M 31.1908669999998,47.99571449999985 L 37.030866999999944,47.99571449999985" fill="none" stroke="rgb(0,178,0)" stroke-width="0.1"/>
  <path d="M 34.530866999999944,46.99571449999985 L 34.530866999999944,47.99571449999985" fill="none" stroke="rgb(0,178,0)" stroke-width="0.1"/>
  <path d="M 10.000866999999971,88.8057144999998 L 10.000866999999971,78.5557144999998" fill="none" stroke="rgb(0,178,0)" stroke-width="0.1"/>
  <path d="M 0.0,81.0557144999998 L 10.000866999999971,81.0557144999998" fill="none" stroke="rgb(0,178,0)" stroke-width="0.1"/>
  <path d="M 10.000866999999971,88.8057144999998 L 10.000866999999971,78.5557144999998" fill="none" stroke="rgb(0,178,0)" stroke-width="0.1"/>
  <path d="M 16.00086699999997,88.8057144999998 L 16.00086699999997,78.5557144999998" fill="none" stroke="rgb(0,178,0)" stroke-width="0.1"/>
  <path d="M 10.000866999999971,81.0557144999998 L 16.00086699999997,81.0557144999998" fill="none" stroke="rgb(0,178,0)" stroke-width="0.1"/>
  <path d="M 17.00086699999997,16.805714499999794 L 17.00086699999997,9.775714499999594" fill="none" stroke="rgb(0,178,0)" stroke-width="0.1"/>
  <path d="M 16.00086699999997,16.805714499999794 L 16.00086699999997,9.775714499999594" fill="none" stroke="rgb(0,178,0)" stroke-width="0.1"/>
  <path d="M 17.00086699999997,12.275714499999594 L 16.00086699999997,12.275714499999594" fill="none" stroke="rgb(0,178,0)" stroke-width="0.1"/>
  <path d="M 27.1908669999998,18.99571449999985 L 37.030866999999944,18.99571449999985" fill="none" stroke="rgb(0,178,0)" stroke-width="0.1"/>
  <path d="M 27.1908669999998,16.99571449999985 L 37.030866999999944,16.99571449999985" fill="none" stroke="rgb(0,178,0)" stroke-width="0.1"/>
  <path d="M 34.530866999999944,18.99571449999985 L 34.530866999999944,16.99571449999985" fill="none" stroke="rgb(0,178,0)" stroke-width="0.1"/>
  <path d="M 99.81086699999992,68.99571449999985 L 93.46086700000001,68.99571449999985" fill="none" stroke="rgb(0,178,0)" stroke-width="0.1"/>
  <path d="M 99.81086699999992,69.99571449999985 L 93.46086700000001,69.99571449999985" fill="none" stroke="rgb(0,178,0)" stroke-width="0.1"/>
  <path d="M 95.96086700000001,68.99571449999985 L 95.96086700000001,69.99571449999985" fill="none" stroke="rgb(0,178,0)" stroke-width="0.1"/>
  <path d="M 99.81086699999992,68.99571449999985 L 93.46086700000001,68.99571449999985" fill="none" stroke="rgb(0,178,0)" stroke-width="0.1"/>
  <path d="M 99.81086699999992,66.99571449999985 L 93.46086700000001,66.99571449999985" fill="none" stroke="rgb(0,178,0)" stroke-width="0.1"/>
  <path d="M 95.96086700000001,68.99571449999985 L 95.96086700000001,66.99571449999985" fill="none" stroke="rgb(0,178,0)" stroke-width="0.1"/>
  <path d="M 99.81086699999992,66.99571449999985 L 93.46086700000001,66.99571449999985" fill="none" stroke="rgb(0,178,0)" stroke-width="0.1"/>
  <path d="M 99.81086699999992,65.99571449999985 L 93.46086700000001,65.99571449999985" fill="none" stroke="rgb(0,178,0)" stroke-width="0.1"/>
  <path d="M 95.96086700000001,66.99571449999985 L 95.96086700000001,65.99571449999985" fill="none" stroke="rgb(0,178,0)" stroke-width="0.1"/>
  <path d="M 99.00086699999997,66.8057144999998 L 99.00086699999997,60.49571449999985" fill="none" stroke="rgb(0,178,0)" stroke-width="0.1"/>
  <path d="M 100.0,62.99571449999985 L 99.00086699999997,62.99571449999985" fill="none" stroke="rgb(0,178,0)" stroke-width="0.1"/>
 </g>
 <g id="layerA-DOOR" inkscape:groupmode="layer" inkscape:label="A-DOOR">
  <path d="M 10.000866999999971,90.99571449999985 L 10.000866999999971,89.99571449999985" fill="none" instance-id="2" semantic-id="4" stroke="rgb(88,0,178)" stroke-width="0.1"/>
  <path d="M 10.000866999999971,97.49571449999985 L 9.60086699999988,97.49571449999985" fill="none" instance-id="2" semantic-id="4" stroke="rgb(88,0,178)" stroke-width="0.1"/>
  <path d="M 9.60086699999988,89.99571449999985 L 10.000866999999971,89.99571449999985" fill="none" instance-id="2" semantic-id="4" stroke="rgb(88,0,178)" stroke-width="0.1"/>
  <path d="M 9.60086699999988,89.99571449999985 L 9.60086699999988,97.49571449999985" fill="none" instance-id="2" semantic-id="4" stroke="rgb(88,0,178)" stroke-width="0.1"/>
  <path d="M 10.000866999999971,90.99571449999985 L 10.000866999999971,97.49571449999985" fill="none" instance-id="2" semantic-id="4" stroke="rgb(88,0,178)" stroke-width="0.1"/>
  <path d="M 0.1200155741398703,95.47698423208567 L 0.48213673208579166,95.11486307413998" fill="none" instance-id="2" semantic-id="4" stroke="rgb(88,0,178)" stroke-width="0.1"/>
  <path d="M 0.48213673208579166,95.11486307413998 L 0.818701680283084,94.72887408244515" fill="none" instance-id="2" semantic-id="4" stroke="rgb(88,0,178)" stroke-width="0.1"/>
  <path d="M 0.818701680283084,94.72887408244515 L 1.1281411975783158,94.32081691586154" fill="none" instance-id="2" semantic-id="4" stroke="rgb(88,0,178)" stroke-width="0.1"/>
  <path d="M 1.1281411975783158,94.32081691586154 L 1.409012534098565,93.89259412526553" fill="none" instance-id="2" semantic-id="4" stroke="rgb(88,0,178)" stroke-width="0.1"/>
  <path d="M 1.409012534098565,93.89259412526553 L 1.6600061380177067,93.44620228298345" fill="none" instance-id="2" semantic-id="4" stroke="rgb(88,0,178)" stroke-width="0.1"/>
  <path d="M 1.6600061380177067,93.44620228298345 L 1.8799517612908403,92.98372267384684" fill="none" instance-id="2" semantic-id="4" stroke="rgb(88,0,178)" stroke-width="0.1"/>
  <path d="M 1.8799517612908403,92.98372267384684 L 2.06782391589104,92.50731159128236" fill="none" instance-id="2" semantic-id="4" stroke="rgb(88,0,178)" stroke-width="0.1"/>
  <path d="M 2.06782391589104,92.50731159128236 L 2.2227466551084945,92.01919028367774" fill="none" instance-id="2" semantic-id="4" stroke="rgb(88,0,178)" stroke-width="0.1"/>
  <path d="M 2.2227466551084945,92.01919028367774 L 2.343997657617365,91.52163459789472" fill="none" instance-id="2" semantic-id="4" stroke="rgb(88,0,178)" stroke-width="0.1"/>
  <path d="M 2.343997657617365,91.52163459789472 L 2.4310115952723663,91.01696436822158" fill="none" instance-id="2" semantic-id="4" stroke="rgb(88,0,178)" stroke-width="0.1"/>
  <path d="M 2.4310115952723663,91.01696436822158 L 2.4833827689290047,90.50753260023475" fill="none" instance-id="2" semantic-id="4" stroke="rgb(88,0,178)" stroke-width="0.1"/>
  <path d="M 2.4833827689290047,90.50753260023475 L 2.500866999999971,89.99571449999985" fill="none" instance-id="2" semantic-id="4" stroke="rgb(88,0,178)" stroke-width="0.1"/>
  <path d="M 2.500866999999971,89.99571449999985 A 7.5,7.5 0.0 0,0 10.000866999999971,97.49571449999985" fill="none" instance-id="2" semantic-id="4" stroke="rgb(88,0,178)" stroke-width="0.1"/>
 </g>
 <g id="layerA-EVTR" inkscape:groupmode="layer" inkscape:label="A-EVTR">
  <path d="M 9.500866999999971,16.99571449999985 L 0.0,16.99571449999985" fill="none" instance-id="3" semantic-id="31" stroke="rgb(142,0,142)" stroke-width="0.1"/>
  <path d="M 9.000866999999971,0.5957144999997581 L 9.500866999999971,0.5957144999997581" fill="none" instance-id="3" semantic-id="31" stroke="rgb(142,0,142)" stroke-width="0.1"/>
  <path d="M 9.500866999999971,0.8457144999997581 L 9.500866999999971,0.3457144999997581" fill="none" instance-id="3" semantic-id="31" stroke="rgb(142,0,142)" stroke-width="0.1"/>
  <path d="M 9.000866999999971,1.0957144999997581 L 9.000866999999971,0.09571449999975812" fill="none" instance-id="3" semantic-id="31" stroke="rgb(142,0,142)" stroke-width="0.1"/>
  <path d="M 0.0,0.09571449999975812 L 9.000866999999971,0.09571449999975812" fill="none" instance-id="3" semantic-id="31" stroke="rgb(142,0,142)" stroke-width="0.1"/>
  <path d="M 0.0,1.0957144999997581 L 9.000866999999971,1.0957144999997581" fill="none" instance-id="3" semantic-id="31" stroke="rgb(142,0,142)" stroke-width="0.1"/>
  <path d="M 0.0,8.345714499999758 L 13.60086699999988,8.345714499999758" fill="none" instance-id="3" semantic-id="31" stroke="rgb(142,0,142)" stroke-width="0.1"/>
  <path d="M 0.0,1.89571449999994 L 12.200867000000017,1.89571449999994" fill="none" instance-id="3" semantic-id="31" stroke="rgb(142,0,142)" stroke-width="0.1"/>
  <path d="M 0.0,1.5957144999997581 L 12.500866999999971,1.5957144999997581" fill="none" instance-id="3" semantic-id="31" stroke="rgb(142,0,142)" stroke-width="0.1"/>
  <path d="M 9.200867000000017,15.095714499999758 L 9.200867000000017,14.545714500000031" fill="none" instance-id="3" semantic-id="31" stroke="rgb(142,0,142)" stroke-width="0.1"/>
  <path d="M 12.200867000000017,14.545714500000031 L 12.200867000000017,1.89571449999994" fill="none" instance-id="3" semantic-id="31" stroke="rgb(142,0,142)" stroke-width="0.1"/>
  <path d="M 9.200867000000017,14.545714500000031 L 12.200867000000017,14.545714500000031" fill="none" instance-id="3" semantic-id="31" stroke="rgb(142,0,142)" stroke-width="0.1"/>
  <path d="M 4.000866999999971,16.99571449999985 L 4.000866999999971,0.0" fill="none" instance-id="3" semantic-id="31" stroke="rgb(142,0,142)" stroke-width="0.1"/>
  <path d="M 13.60086699999988,15.995714499999849 L 13.60086699999988,16.595714499999758" fill="none" instance-id="3" semantic-id="31" stroke="rgb(142,0,142)" stroke-width="0.1"/>
  <path d="M 13.60086699999988,15.695714499999667 L 13.60086699999988,15.095714499999758" fill="none" instance-id="3" semantic-id="31" stroke="rgb(142,0,142)" stroke-width="0.1"/>
  <path d="M 0.0,15.095714499999758 L 13.60086699999988,15.095714499999758" fill="none" instance-id="3" semantic-id="31" stroke="rgb(142,0,142)" stroke-width="0.1"/>
  <path d="M 0.0,15.695714499999667 L 13.60086699999988,15.695714499999667" fill="none" instance-id="3" semantic-id="31" stroke="rgb(142,0,142)" stroke-width="0.1"/>
  <path d="M 0.0,15.995714499999849 L 13.60086699999988,15.995714499999849" fill="none" instance-id="3" semantic-id="31" stroke="rgb(142,0,142)" stroke-width="0.1"/>
  <path d="M 0.0,16.595714499999758 L 13.60086699999988,16.595714499999758" fill="none" instance-id="3" semantic-id="31" stroke="rgb(142,0,142)" stroke-width="0.1"/>
  <path d="M 12.500866999999971,15.095714499999758 L 12.500866999999971,1.5957144999997581" fill="none" instance-id="3" semantic-id="31" stroke="rgb(142,0,142)" stroke-width="0.1"/>
  <circle cx="4.000866999999971" cy="8.345714499999758" fill="none" instance-id="3" r="0.6" semantic-id="31" stroke="rgb(142,0,142)" stroke-width="0.1"/>
 </g>
 <g id="layerA-HATCH" inkscape:groupmode="layer" inkscape:label="A-HATCH">
  <path d="M 9.000866999999971,48.99571449999985 L 17.00086699999997,48.99571449999985" fill="none" instance-id="-1" semantic-id="1" stroke="rgb(63,63,63)" stroke-width="0.1"/>
  <path d="M 17.00086699999997,48.99571449999985 L 17.00086699999997,39.49571449999985" fill="none" instance-id="-1" semantic-id="1" stroke="rgb(63,63,63)" stroke-width="0.1"/>
  <path d="M 17.00086699999997,39.49571449999985 L 15.000866999999971,39.49571449999985" fill="none" instance-id="-1" semantic-id="1" stroke="rgb(63,63,63)" stroke-width="0.1"/>
  <path d="M 15.000866999999971,39.49571449999985 L 15.000866999999971,46.99571449999985" fill="none" instance-id="-1" semantic-id="1" stroke="rgb(63,63,63)" stroke-width="0.1"/>
  <path d="M 15.000866999999971,46.99571449999985 L 9.000866999999971,46.99571449999985" fill="none" instance-id="-1" semantic-id="1" stroke="rgb(63,63,63)" stroke-width="0.1"/>
  <path d="M 9.000866999999971,46.99571449999985 L 9.000866999999971,48.99571449999985" fill="none" instance-id="-1" semantic-id="1" stroke="rgb(63,63,63)" stroke-width="0.1"/>
  <path d="M 15.400866999999835,0.0 L 15.400866999999835,16.99571449999985" fill="none" instance-id="-1" semantic-id="1" stroke="rgb(63,63,63)" stroke-width="0.1"/>
  <path d="M 15.400866999999835,16.99571449999985 L 11.000866999999971,16.99571449999985" fill="none" instance-id="-1" semantic-id="1" stroke="rgb(63,63,63)" stroke-width="0.1"/>
  <path d="M 11.000866999999971,16.99571449999985 L 11.000866999999971,18.99571449999985" fill="none" instance-id="-1" semantic-id="1" stroke="rgb(63,63,63)" stroke-width="0.1"/>
  <path d="M 11.000866999999971,18.99571449999985 L 17.00086699999997,18.99571449999985" fill="none" instance-id="-1" semantic-id="1" stroke="rgb(63,63,63)" stroke-width="0.1"/>
  <path d="M 17.00086699999997,18.99571449999985 L 17.00086699999997,0.0" fill="none" instance-id="-1" semantic-id="1" stroke="rgb(63,63,63)" stroke-width="0.1"/>
  <path d="M 29.75086699999997,61.99571449999985 L 29.75086699999997,84.99571449999985" fill="none" instance-id="-1" semantic-id="1" stroke="rgb(63,63,63)" stroke-width="0.1"/>
  <path d="M 29.75086699999997,84.99571449999985 L 32.25086699999997,84.99571449999985" fill="none" instance-id="-1" semantic-id="1" stroke="rgb(63,63,63)" stroke-width="0.1"/>
  <path d="M 32.25086699999997,84.99571449999985 L 32.25086699999997,64.49571449999985" fill="none" instance-id="-1" semantic-id="1" stroke="rgb(63,63,63)" stroke-width="0.1"/>
  <path d="M 32.25086699999997,64.49571449999985 L 36.00086699999997,64.49571449999985" fill="none" instance-id="-1" semantic-id="1" stroke="rgb(63,63,63)" stroke-width="0.1"/>
  <path d="M 36.00086699999997,64.49571449999985 L 36.00086699999997,61.99571449999985" fill="none" instance-id="-1" semantic-id="1" stroke="rgb(63,63,63)" stroke-width="0.1"/>
  <path d="M 36.00086699999997,61.99571449999985 L 29.75086699999997,61.99571449999985" fill="none" instance-id="-1" semantic-id="1" stroke="rgb(63,63,63)" stroke-width="0.1"/>
 </g>
 <g id="layerA-HOLE-FLOR" inkscape:groupmode="layer" inkscape:label="A-HOLE-FLOR">
  <path d="M 17.00086699999997,46.99571449999985 L 18.6908669999998,22.855714499999976" fill="none" stroke="rgb(142,0,35)" stroke-width="0.1"/>
  <path d="M 18.6908669999998,22.855714499999976 L 25.00086699999997,18.99571449999985" fill="none" stroke="rgb(142,0,35)" stroke-width="0.1"/>
 </g>
 <g id="layerA-INDEX" inkscape:groupmode="layer" inkscape:label="A-INDEX">
  <path d="M 68.90086699999983,0.9557144999998854 L 76.90086699999983,0.9557144999998854" fill="none" stroke="rgb(0,107,107)" stroke-width="0.1"/>
  <path d="M 99.52086699999995,37.56571450000001 L 95.24086699999998,37.56571450000001" fill="none" stroke="rgb(0,107,107)" stroke-width="0.1"/>
  <path d="M 99.52086699999995,30.945714499999667 L 99.52086699999995,37.56571450000001" fill="none" stroke="rgb(0,107,107)" stroke-width="0.1"/>
  <path d="M 51.900866999999835,9.535714499999813 L 51.900866999999835,14.535714499999813" fill="none" stroke="rgb(0,107,107)" stroke-width="0.1"/>
  <path d="M 100.0,0.7757144999995944 L 99.12086699999986,0.7757144999995944" fill="none" stroke="rgb(0,107,107)" stroke-width="0.1"/>
  <path d="M 99.12086699999986,0.7757144999995944 L 99.12086699999986,18.655714499999704" fill="none" stroke="rgb(0,107,107)" stroke-width="0.1"/>
  <path d="M 20.033877759237384,0.0 L 19.8308669999999,0.21571449999964898" fill="none" stroke="rgb(0,107,107)" stroke-width="0.1"/>
  <path d="M 76.90086699999983,0.9557144999998854 L 51.400866999999835,0.9557144999998854" fill="none" stroke="rgb(0,107,107)" stroke-width="0.1"/>
  <path d="M 51.400866999999835,0.9557144999998854 L 51.400866999999835,14.535714499999813" fill="none" stroke="rgb(0,107,107)" stroke-width="0.1"/>
  <text fill="rgb(0,107,107)" font-family="Noto Sans CJK SC" font-size="2" transform="rotate(-0.0,52.95086700000002,4.105714499999976)" x="52.95086700000002" y="4.105714499999976">
   详12J003
  </text>
  <text fill="rgb(0,107,107)" font-family="Noto Sans CJK SC" font-size="2" transform="rotate(-0.0,70.95086700000002,0.45571449999988545)" x="70.95086700000002" y="0.45571449999988545">
   6A
  </text>
  <text fill="rgb(0,107,107)" font-family="Noto Sans CJK SC" font-size="2" transform="rotate(-0.0,70.75086699999997,3.9557144999998854)" x="70.75086699999997" y="3.9557144999998854">
   A2
  </text>
  <text fill="rgb(0,107,107)" font-family="Noto Sans CJK SC" font-size="2" transform="rotate(-0.0,95.00086699999997,37.085714499999995)" x="95.00086699999997" y="37.085714499999995">
   YL
  </text>
  <text fill="rgb(0,107,107)" font-family="Noto Sans CJK SC" font-size="2" transform="rotate(-0.0,1.7908669999999347,3.7257144999998673)" x="1.7908669999999347" y="3.7257144999998673">
   E4
  </text>
  <text fill="rgb(0,107,107)" font-family="Noto Sans CJK SC" font-size="2" transform="rotate(-0.0,1.7908669999999347,3.7257144999998673)" x="1.7908669999999347" y="3.7257144999998673">
   E4
  </text>
 </g>
 <g id="layerA-OTHER" inkscape:groupmode="layer" inkscape:label="A-OTHER">
  <path d="M 100.0,11.995714499999849 L 26.00086699999997,11.995714499999849" fill="none" stroke="rgb(66,107,53)" stroke-width="0.1"/>
  <path d="M 26.00086699999997,11.995714499999849 L 26.00086699999997,0.0" fill="none" stroke="rgb(66,107,53)" stroke-width="0.1"/>
 </g>
 <g id="layerA-ROOM-IDEN" inkscape:groupmode="layer" inkscape:label="A-ROOM-IDEN">
  <path d="M 8.09086699999989,0.15571449999970355 L 8.09086699999989,5.1557144999997035" fill="none" stroke="rgb(255,133,12)" stroke-width="0.1"/>
  <path d="M 0.09086699999988923,0.15571449999970355 L 0.09086699999988923,5.1557144999997035" fill="none" stroke="rgb(255,133,12)" stroke-width="0.1"/>
  <path d="M 0.09086699999988923,0.15571449999970355 L 8.09086699999989,0.15571449999970355" fill="none" stroke="rgb(255,133,12)" stroke-width="0.1"/>
  <path d="M 0.09086699999988923,5.1557144999997035 L 8.09086699999989,5.1557144999997035" fill="none" stroke="rgb(255,133,12)" stroke-width="0.1"/>
  <path d="M 8.09086699999989,0.15571449999970355 L 8.09086699999989,5.1557144999997035" fill="none" stroke="rgb(255,133,12)" stroke-width="0.1"/>
  <path d="M 0.09086699999988923,0.15571449999970355 L 0.09086699999988923,5.1557144999997035" fill="none" stroke="rgb(255,133,12)" stroke-width="0.1"/>
  <path d="M 0.09086699999988923,0.15571449999970355 L 8.09086699999989,0.15571449999970355" fill="none" stroke="rgb(255,133,12)" stroke-width="0.1"/>
  <path d="M 0.09086699999988923,5.1557144999997035 L 8.09086699999989,5.1557144999997035" fill="none" stroke="rgb(255,133,12)" stroke-width="0.1"/>
  <text fill="rgb(255,133,12)" font-family="Noto Sans CJK SC" font-size="2" transform="rotate(-0.0,18.160866999999826,33.1557144999997)" x="18.160866999999826" y="33.1557144999997">
   采光天
  </text>
  <text fill="rgb(255,133,12)" font-family="Noto Sans CJK SC" font-size="2" transform="rotate(-0.0,20.310866999999917,36.91571449999992)" x="20.310866999999917" y="36.91571449999992">
   窗
  </text>
 </g>
 <g id="layerA-SECT" inkscape:groupmode="layer" inkscape:label="A-SECT">
  <path d="M 94.50086699999997,29.99571449999985 L 100.0,29.99571449999985" fill="none" stroke="rgb(53,107,107)" stroke-width="0.1"/>
  <path d="M 100.0,18.29571450000003 L 93.30086699999993,18.29571450000003" fill="none" stroke="rgb(134,134,134)" stroke-width="0.1"/>
  <path d="M 93.30086699999993,18.29571450000003 L 93.30086699999993,31.695714499999667" fill="none" stroke="rgb(134,134,134)" stroke-width="0.1"/>
  <path d="M 93.30086699999993,31.695714499999667 L 94.30086699999993,31.695714499999667" fill="none" stroke="rgb(134,134,134)" stroke-width="0.1"/>
  <path d="M 94.30086699999993,31.695714499999667 L 94.30086699999993,32.69571449999967" fill="none" stroke="rgb(134,134,134)" stroke-width="0.1"/>
  <path d="M 94.30086699999993,32.69571449999967 L 100.0,32.69571449999967" fill="none" stroke="rgb(134,134,134)" stroke-width="0.1"/>
  <path d="M 100.0,32.99571449999985 L 94.00086699999997,32.99571449999985" fill="none" stroke="rgb(134,134,134)" stroke-width="0.1"/>
  <path d="M 94.00086699999997,32.99571449999985 L 94.00086699999997,31.99571449999985" fill="none" stroke="rgb(134,134,134)" stroke-width="0.1"/>
  <path d="M 94.00086699999997,31.99571449999985 L 93.00086699999997,31.99571449999985" fill="none" stroke="rgb(134,134,134)" stroke-width="0.1"/>
  <path d="M 93.00086699999997,31.99571449999985 L 93.00086699999997,17.99571449999985" fill="none" stroke="rgb(134,134,134)" stroke-width="0.1"/>
  <path d="M 93.00086699999997,17.99571449999985 L 100.0,17.99571449999985" fill="none" stroke="rgb(134,134,134)" stroke-width="0.1"/>
  <path d="M 20.00086699999997,0.0 L 20.00086699999997,5.995714499999849" fill="none" stroke="rgb(134,134,134)" stroke-width="0.1"/>
  <path d="M 20.00086699999997,5.995714499999849 L 19.00086699999997,5.995714499999849" fill="none" stroke="rgb(134,134,134)" stroke-width="0.1"/>
  <path d="M 19.00086699999997,5.995714499999849 L 19.00086699999997,6.995714499999849" fill="none" stroke="rgb(134,134,134)" stroke-width="0.1"/>
  <path d="M 19.00086699999997,6.995714499999849 L 17.00086699999997,6.995714499999849" fill="none" stroke="rgb(134,134,134)" stroke-width="0.1"/>
  <path d="M 17.00086699999997,6.695714499999667 L 18.700867000000017,6.695714499999667" fill="none" stroke="rgb(134,134,134)" stroke-width="0.1"/>
  <path d="M 18.700867000000017,6.695714499999667 L 18.700867000000017,5.695714499999667" fill="none" stroke="rgb(134,134,134)" stroke-width="0.1"/>
  <path d="M 18.700867000000017,5.695714499999667 L 19.700867000000017,5.695714499999667" fill="none" stroke="rgb(134,134,134)" stroke-width="0.1"/>
  <path d="M 19.700867000000017,5.695714499999667 L 19.700867000000017,0.0" fill="none" stroke="rgb(134,134,134)" stroke-width="0.1"/>
 </g>
 <g id="layerA-STAIR" inkscape:groupmode="layer" inkscape:label="A-STAIR">
  <path d="M 93.00086699999997,20.99571449999985 L 27.00086699999997,20.99571449999985" fill="none" stroke="rgb(0,107,142)" stroke-width="0.1"/>
  <path d="M 15.000866999999971,46.99571449999985 L 15.000866999999971,39.49571449999985" fill="none" stroke="rgb(0,142,142)" stroke-width="0.1"/>
 </g>
 <g id="layerA-TITLE" inkscape:groupmode="layer" inkscape:label="A-TITLE">
  <path d="M 0.0,33.275714499999594 L 3.5908669999998892,33.275714499999594" fill="none" stroke="rgb(142,0,107)" stroke-width="0.1"/>
  <path d="M 44.300866999999926,27.275714499999594 L 44.300866999999926,33.275714499999594" fill="none" stroke="rgb(142,0,107)" stroke-width="0.1"/>
  <path d="M 44.300866999999926,33.275714499999594 L 37.410866999999826,33.275714499999594" fill="none" stroke="rgb(142,0,107)" stroke-width="0.1"/>
  <text fill="rgb(142,0,107)" font-family="Noto Sans CJK SC" font-size="2" transform="rotate(-0.0,38.73086699999999,30.275714499999594)" x="38.73086699999999" y="30.275714499999594">
   a
  </text>
 </g>
 <g id="layerA-WALL" inkscape:groupmode="layer" inkscape:label="A-WALL">
  <path d="M 25.00086699999997,16.99571449999985 L 25.00086699999997,18.99571449999985" fill="none" instance-id="-1" semantic-id="1" stroke="rgb(178,178,0)" stroke-width="0.1"/>
  <path d="M 30.00086699999997,48.99571449999985 L 30.00086699999997,61.99571449999985" fill="none" instance-id="-1" semantic-id="1" stroke="rgb(178,178,0)" stroke-width="0.1"/>
  <path d="M 30.00086699999997,84.99571449999985 L 30.00086699999997,88.99571449999985" fill="none" instance-id="-1" semantic-id="1" stroke="rgb(178,178,0)" stroke-width="0.1"/>
  <path d="M 32.00086699999997,88.99571449999985 L 32.00086699999997,84.99571449999985" fill="none" instance-id="-1" semantic-id="1" stroke="rgb(178,178,0)" stroke-width="0.1"/>
  <path d="M 32.00086699999997,61.99571449999985 L 32.00086699999997,46.99571449999985" fill="none" instance-id="-1" semantic-id="1" stroke="rgb(178,178,0)" stroke-width="0.1"/>
  <path d="M 27.00086699999997,18.99571449999985 L 27.00086699999997,16.99571449999985" fill="none" instance-id="-1" semantic-id="1" stroke="rgb(178,178,0)" stroke-width="0.1"/>
  <path d="M 17.00086699999997,48.99571449999985 L 30.00086699999997,48.99571449999985" fill="none" instance-id="-1" semantic-id="1" stroke="rgb(178,178,0)" stroke-width="0.1"/>
  <path d="M 32.00086699999997,46.99571449999985 L 17.00086699999997,46.99571449999985" fill="none" instance-id="-1" semantic-id="1" stroke="rgb(178,178,0)" stroke-width="0.1"/>
  <path d="M 9.500866999999971,18.99571449999985 L 17.00086699999997,18.99571449999985" fill="none" instance-id="-1" semantic-id="1" stroke="rgb(178,178,0)" stroke-width="0.1"/>
  <path d="M 25.00086699999997,18.99571449999985 L 27.00086699999997,18.99571449999985" fill="none" instance-id="-1" semantic-id="1" stroke="rgb(178,178,0)" stroke-width="0.1"/>
  <path d="M 27.00086699999997,16.99571449999985 L 25.00086699999997,16.99571449999985" fill="none" instance-id="-1" semantic-id="1" stroke="rgb(178,178,0)" stroke-width="0.1"/>
  <path d="M 17.00086699999997,16.99571449999985 L 9.500866999999971,16.99571449999985" fill="none" instance-id="-1" semantic-id="1" stroke="rgb(178,178,0)" stroke-width="0.1"/>
  <path d="M 9.500866999999971,16.99571449999985 L 9.500866999999971,18.99571449999985" fill="none" instance-id="-1" semantic-id="1" stroke="rgb(178,178,0)" stroke-width="0.1"/>
  <path d="M 10.000866999999971,90.99571449999985 L 32.00086699999997,90.99571449999985" fill="none" instance-id="-1" semantic-id="1" stroke="rgb(178,178,0)" stroke-width="0.1"/>
  <path d="M 32.00086699999997,90.99571449999985 L 32.00086699999997,88.99571449999985" fill="none" instance-id="-1" semantic-id="1" stroke="rgb(178,178,0)" stroke-width="0.1"/>
  <path d="M 30.00086699999997,88.99571449999985 L 10.000866999999971,88.99571449999985" fill="none" instance-id="-1" semantic-id="1" stroke="rgb(178,178,0)" stroke-width="0.1"/>
  <path d="M 10.000866999999971,88.99571449999985 L 10.000866999999971,89.99571449999985" fill="none" instance-id="-1" semantic-id="1" stroke="rgb(178,178,0)" stroke-width="0.1"/>
  <path d="M 17.00086699999997,18.99571449999985 L 17.00086699999997,16.99571449999985" fill="none" instance-id="-1" semantic-id="1" stroke="rgb(178,178,0)" stroke-width="0.1"/>
  <path d="M 15.000866999999971,39.49571449999985 L 15.000866999999971,46.99571449999985" fill="none" instance-id="-1" semantic-id="1" stroke="rgb(178,178,0)" stroke-width="0.1"/>
  <path d="M 100.0,20.99571449999985 L 94.50086699999997,20.99571449999985" fill="none" instance-id="-1" semantic-id="1" stroke="rgb(178,178,0)" stroke-width="0.1"/>
  <path d="M 96.50086699999997,22.99571449999985 L 100.0,22.99571449999985" fill="none" instance-id="-1" semantic-id="1" stroke="rgb(178,178,0)" stroke-width="0.1"/>
  <path d="M 94.50086699999997,20.99571449999985 L 94.50086699999997,29.99571449999985" fill="none" instance-id="-1" semantic-id="1" stroke="rgb(178,178,0)" stroke-width="0.1"/>
  <path d="M 96.50086699999997,27.99571449999985 L 96.50086699999997,22.99571449999985" fill="none" instance-id="-1" semantic-id="1" stroke="rgb(178,178,0)" stroke-width="0.1"/>
  <path d="M 94.50086699999997,29.99571449999985 L 100.0,29.99571449999985" fill="none" instance-id="-1" semantic-id="1" stroke="rgb(178,178,0)" stroke-width="0.1"/>
  <path d="M 100.0,27.99571449999985 L 96.50086699999997,27.99571449999985" fill="none" instance-id="-1" semantic-id="1" stroke="rgb(178,178,0)" stroke-width="0.1"/>
  <path d="M 36.00086699999997,61.99571449999985 L 36.00086699999997,55.99571449999985" fill="none" instance-id="-1" semantic-id="1" stroke="rgb(178,178,0)" stroke-width="0.1"/>
  <path d="M 36.00086699999997,55.99571449999985 L 32.00086699999997,55.99571449999985" fill="none" instance-id="-1" semantic-id="1" stroke="rgb(178,178,0)" stroke-width="0.1"/>
  <path d="M 35.00086699999997,61.99571449999985 L 35.00086699999997,56.99571449999985" fill="none" instance-id="-1" semantic-id="1" stroke="rgb(178,178,0)" stroke-width="0.1"/>
  <path d="M 35.00086699999997,56.99571449999985 L 32.00086699999997,56.99571449999985" fill="none" instance-id="-1" semantic-id="1" stroke="rgb(178,178,0)" stroke-width="0.1"/>
  <path d="M 100.0,69.99571449999985 L 99.00086699999997,69.99571449999985" fill="none" instance-id="-1" semantic-id="1" stroke="rgb(178,178,0)" stroke-width="0.1"/>
  <path d="M 99.00086699999997,69.99571449999985 L 99.00086699999997,65.99571449999985" fill="none" instance-id="-1" semantic-id="1" stroke="rgb(178,178,0)" stroke-width="0.1"/>
  <path d="M 99.00086699999997,65.99571449999985 L 100.0,65.99571449999985" fill="none" instance-id="-1" semantic-id="1" stroke="rgb(178,178,0)" stroke-width="0.1"/>
 </g>
 <g id="layerA-WALL-FINI" inkscape:groupmode="layer" inkscape:label="A-WALL-FINI">
  <path d="M 19.700867000000017,0.0 L 19.700867000000017,5.695714499999667" fill="none" stroke="rgb(134,134,134)" stroke-width="0.1"/>
  <path d="M 19.700867000000017,5.695714499999667 L 18.700867000000017,5.695714499999667" fill="none" stroke="rgb(134,134,134)" stroke-width="0.1"/>
  <path d="M 18.700867000000017,5.695714499999667 L 18.700867000000017,6.695714499999667" fill="none" stroke="rgb(134,134,134)" stroke-width="0.1"/>
  <path d="M 18.700867000000017,6.695714499999667 L 17.00086699999997,6.695714499999667" fill="none" stroke="rgb(134,134,134)" stroke-width="0.1"/>
  <path d="M 17.00086699999997,6.995714499999849 L 19.00086699999997,6.995714499999849" fill="none" stroke="rgb(134,134,134)" stroke-width="0.1"/>
  <path d="M 19.00086699999997,6.995714499999849 L 19.00086699999997,5.995714499999849" fill="none" stroke="rgb(134,134,134)" stroke-width="0.1"/>
  <path d="M 19.00086699999997,5.995714499999849 L 20.00086699999997,5.995714499999849" fill="none" stroke="rgb(134,134,134)" stroke-width="0.1"/>
  <path d="M 20.00086699999997,5.995714499999849 L 20.00086699999997,0.0" fill="none" stroke="rgb(134,134,134)" stroke-width="0.1"/>
  <path d="M 100.0,17.99571449999985 L 93.00086699999997,17.99571449999985" fill="none" stroke="rgb(134,134,134)" stroke-width="0.1"/>
  <path d="M 93.00086699999997,17.99571449999985 L 93.00086699999997,31.99571449999985" fill="none" stroke="rgb(134,134,134)" stroke-width="0.1"/>
  <path d="M 93.00086699999997,31.99571449999985 L 94.00086699999997,31.99571449999985" fill="none" stroke="rgb(134,134,134)" stroke-width="0.1"/>
  <path d="M 94.00086699999997,31.99571449999985 L 94.00086699999997,32.99571449999985" fill="none" stroke="rgb(134,134,134)" stroke-width="0.1"/>
  <path d="M 94.00086699999997,32.99571449999985 L 100.0,32.99571449999985" fill="none" stroke="rgb(134,134,134)" stroke-width="0.1"/>
  <path d="M 100.0,32.69571449999967 L 94.30086699999993,32.69571449999967" fill="none" stroke="rgb(134,134,134)" stroke-width="0.1"/>
  <path d="M 94.30086699999993,32.69571449999967 L 94.30086699999993,31.695714499999667" fill="none" stroke="rgb(134,134,134)" stroke-width="0.1"/>
  <path d="M 94.30086699999993,31.695714499999667 L 93.30086699999993,31.695714499999667" fill="none" stroke="rgb(134,134,134)" stroke-width="0.1"/>
  <path d="M 93.30086699999993,31.695714499999667 L 93.30086699999993,18.29571450000003" fill="none" stroke="rgb(134,134,134)" stroke-width="0.1"/>
  <path d="M 93.30086699999993,18.29571450000003 L 100.0,18.29571450000003" fill="none" stroke="rgb(134,134,134)" stroke-width="0.1"/>
 </g>
 <g id="layerA-WIND" inkscape:groupmode="layer" inkscape:label="A-WIND">
  <path d="M 15.800866999999926,18.99571449999985 L 15.800866999999926,39.49571449999985" fill="none" instance-id="5" semantic-id="9" stroke="rgb(0,107,79)" stroke-width="0.1"/>
  <path d="M 16.200867000000017,18.99571449999985 L 16.200867000000017,39.49571449999985" fill="none" instance-id="5" semantic-id="9" stroke="rgb(0,107,79)" stroke-width="0.1"/>
  <path d="M 17.00086699999997,39.49571449999985 L 15.000866999999971,39.49571449999985" fill="none" instance-id="5" semantic-id="9" stroke="rgb(0,107,53)" stroke-width="0.1"/>
  <path d="M 15.000866999999971,39.49571449999985 L 15.000866999999971,18.99571449999985" fill="none" instance-id="5" semantic-id="9" stroke="rgb(0,107,79)" stroke-width="0.1"/>
  <path d="M 15.000866999999971,18.99571449999985 L 17.00086699999997,18.99571449999985" fill="none" instance-id="5" semantic-id="9" stroke="rgb(0,107,53)" stroke-width="0.1"/>
  <path d="M 17.00086699999997,18.99571449999985 L 17.00086699999997,39.49571449999985" fill="none" instance-id="5" semantic-id="9" stroke="rgb(0,107,79)" stroke-width="0.1"/>
  <path d="M 26.23086699999999,46.99571449999985 L 25.650866999999835,46.425714499999685" fill="none" instance-id="6" semantic-id="11" stroke="rgb(0,88,66)" stroke-width="0.1"/>
  <path d="M 26.35086699999988,46.44571449999967 L 25.650866999999835,45.74571449999985" fill="none" instance-id="6" semantic-id="11" stroke="rgb(0,88,66)" stroke-width="0.1"/>
  <path d="M 26.35086699999988,45.775714499999594 L 25.650866999999835,45.075714499999776" fill="none" instance-id="6" semantic-id="11" stroke="rgb(0,88,66)" stroke-width="0.1"/>
  <path d="M 26.35086699999988,45.105714499999976 L 25.650866999999835,44.4057144999997" fill="none" instance-id="6" semantic-id="11" stroke="rgb(0,88,66)" stroke-width="0.1"/>
  <path d="M 26.35086699999988,44.425714499999685 L 25.650866999999835,43.72571449999987" fill="none" instance-id="6" semantic-id="11" stroke="rgb(0,88,66)" stroke-width="0.1"/>
  <path d="M 26.35086699999988,43.75571449999961 L 25.650866999999835,43.055714499999794" fill="none" instance-id="6" semantic-id="11" stroke="rgb(0,88,66)" stroke-width="0.1"/>
  <path d="M 26.35086699999988,43.085714499999995 L 25.650866999999835,42.38571449999972" fill="none" instance-id="6" semantic-id="11" stroke="rgb(0,88,66)" stroke-width="0.1"/>
  <path d="M 26.35086699999988,42.4057144999997 L 25.650866999999835,41.705714499999885" fill="none" instance-id="6" semantic-id="11" stroke="rgb(0,88,66)" stroke-width="0.1"/>
  <path d="M 26.35086699999988,41.73571449999963 L 25.650866999999835,41.03571449999981" fill="none" instance-id="6" semantic-id="11" stroke="rgb(0,88,66)" stroke-width="0.1"/>
  <path d="M 26.35086699999988,41.06571450000001 L 25.650866999999835,40.36571449999974" fill="none" instance-id="6" semantic-id="11" stroke="rgb(0,88,66)" stroke-width="0.1"/>
  <path d="M 26.35086699999988,40.38571449999972 L 25.650866999999835,39.685714499999904" fill="none" instance-id="6" semantic-id="11" stroke="rgb(0,88,66)" stroke-width="0.1"/>
  <path d="M 26.35086699999988,39.71571449999965 L 25.650866999999835,39.01571449999983" fill="none" instance-id="6" semantic-id="11" stroke="rgb(0,88,66)" stroke-width="0.1"/>
  <path d="M 26.35086699999988,39.04571450000003 L 25.650866999999835,38.34571449999976" fill="none" instance-id="6" semantic-id="11" stroke="rgb(0,88,66)" stroke-width="0.1"/>
  <path d="M 26.35086699999988,38.36571449999974 L 25.650866999999835,37.66571449999992" fill="none" instance-id="6" semantic-id="11" stroke="rgb(0,88,66)" stroke-width="0.1"/>
  <path d="M 26.35086699999988,37.69571449999967 L 25.650866999999835,36.99571449999985" fill="none" instance-id="6" semantic-id="11" stroke="rgb(0,88,66)" stroke-width="0.1"/>
  <path d="M 26.35086699999988,37.01571449999983 L 25.650866999999835,36.31571450000001" fill="none" instance-id="6" semantic-id="11" stroke="rgb(0,88,66)" stroke-width="0.1"/>
  <path d="M 26.35086699999988,36.34571449999976 L 25.650866999999835,35.64571449999994" fill="none" instance-id="6" semantic-id="11" stroke="rgb(0,88,66)" stroke-width="0.1"/>
  <path d="M 26.35086699999988,35.675714499999685 L 25.650866999999835,34.97571449999987" fill="none" instance-id="6" semantic-id="11" stroke="rgb(0,88,66)" stroke-width="0.1"/>
  <path d="M 26.35086699999988,34.99571449999985 L 25.650866999999835,34.29571450000003" fill="none" instance-id="6" semantic-id="11" stroke="rgb(0,88,66)" stroke-width="0.1"/>
  <path d="M 26.35086699999988,34.325714499999776 L 25.650866999999835,33.62571449999996" fill="none" instance-id="6" semantic-id="11" stroke="rgb(0,88,66)" stroke-width="0.1"/>
  <path d="M 26.35086699999988,33.6557144999997 L 25.650866999999835,32.955714499999885" fill="none" instance-id="6" semantic-id="11" stroke="rgb(0,88,66)" stroke-width="0.1"/>
  <path d="M 26.35086699999988,32.97571449999987 L 25.650866999999835,32.275714499999594" fill="none" instance-id="6" semantic-id="11" stroke="rgb(0,88,66)" stroke-width="0.1"/>
  <path d="M 26.35086699999988,32.305714499999794 L 25.650866999999835,31.605714499999976" fill="none" instance-id="6" semantic-id="11" stroke="rgb(0,88,66)" stroke-width="0.1"/>
  <path d="M 26.35086699999988,31.63571449999972 L 25.650866999999835,30.935714499999904" fill="none" instance-id="6" semantic-id="11" stroke="rgb(0,88,66)" stroke-width="0.1"/>
  <path d="M 26.35086699999988,30.955714499999885 L 25.650866999999835,30.255714499999613" fill="none" instance-id="6" semantic-id="11" stroke="rgb(0,88,66)" stroke-width="0.1"/>
  <path d="M 26.35086699999988,30.285714499999813 L 25.650866999999835,29.585714499999995" fill="none" instance-id="6" semantic-id="11" stroke="rgb(0,88,66)" stroke-width="0.1"/>
  <path d="M 26.35086699999988,29.61571449999974 L 25.650866999999835,28.915714499999922" fill="none" instance-id="6" semantic-id="11" stroke="rgb(0,88,66)" stroke-width="0.1"/>
  <path d="M 26.35086699999988,28.935714499999904 L 25.650866999999835,28.23571449999963" fill="none" instance-id="6" semantic-id="11" stroke="rgb(0,88,66)" stroke-width="0.1"/>
  <path d="M 26.35086699999988,28.26571449999983 L 25.650866999999835,27.565714500000013" fill="none" instance-id="6" semantic-id="11" stroke="rgb(0,88,66)" stroke-width="0.1"/>
  <path d="M 26.35086699999988,27.595714499999758 L 25.650866999999835,26.89571449999994" fill="none" instance-id="6" semantic-id="11" stroke="rgb(0,88,66)" stroke-width="0.1"/>
  <path d="M 26.35086699999988,26.915714499999922 L 25.650866999999835,26.21571449999965" fill="none" instance-id="6" semantic-id="11" stroke="rgb(0,88,66)" stroke-width="0.1"/>
  <path d="M 26.35086699999988,26.24571449999985 L 25.650866999999835,25.54571450000003" fill="none" instance-id="6" semantic-id="11" stroke="rgb(0,88,66)" stroke-width="0.1"/>
  <path d="M 26.35086699999988,25.575714499999776 L 25.650866999999835,24.875714499999958" fill="none" instance-id="6" semantic-id="11" stroke="rgb(0,88,66)" stroke-width="0.1"/>
  <path d="M 26.35086699999988,24.89571449999994 L 25.650866999999835,24.195714499999667" fill="none" instance-id="6" semantic-id="11" stroke="rgb(0,88,66)" stroke-width="0.1"/>
  <path d="M 26.35086699999988,24.225714499999867 L 25.650866999999835,23.525714499999594" fill="none" instance-id="6" semantic-id="11" stroke="rgb(0,88,66)" stroke-width="0.1"/>
  <path d="M 26.35086699999988,23.54571450000003 L 25.650866999999835,22.845714499999758" fill="none" instance-id="6" semantic-id="11" stroke="rgb(0,88,66)" stroke-width="0.1"/>
  <path d="M 26.35086699999988,22.875714499999958 L 25.650866999999835,22.175714499999685" fill="none" instance-id="6" semantic-id="11" stroke="rgb(0,88,66)" stroke-width="0.1"/>
  <path d="M 26.35086699999988,22.205714499999885 L 25.650866999999835,21.505714499999613" fill="none" instance-id="6" semantic-id="11" stroke="rgb(0,88,66)" stroke-width="0.1"/>
  <path d="M 26.35086699999988,21.525714499999594 L 25.650866999999835,20.825714499999776" fill="none" instance-id="6" semantic-id="11" stroke="rgb(0,88,66)" stroke-width="0.1"/>
  <path d="M 26.35086699999988,20.855714499999976 L 25.650866999999835,20.155714499999704" fill="none" instance-id="6" semantic-id="11" stroke="rgb(0,88,66)" stroke-width="0.1"/>
  <path d="M 26.35086699999988,20.185714499999904 L 25.650866999999835,19.48571449999963" fill="none" instance-id="6" semantic-id="11" stroke="rgb(0,88,66)" stroke-width="0.1"/>
  <path d="M 26.35086699999988,19.505714499999613 L 25.84086699999989,18.99571449999985" fill="none" instance-id="6" semantic-id="11" stroke="rgb(0,88,66)" stroke-width="0.1"/>
  <path d="M 17.00086699999997,17.76571449999983 L 17.11086699999987,17.64571449999994" fill="none" stroke="rgb(0,88,66)" stroke-width="0.1"/>
  <path d="M 17.0808669999999,18.345714499999758 L 17.780866999999944,17.64571449999994" fill="none" instance-id="7" semantic-id="11" stroke="rgb(0,88,66)" stroke-width="0.1"/>
  <path d="M 17.760866999999962,18.345714499999758 L 18.460867000000007,17.64571449999994" fill="none" instance-id="7" semantic-id="11" stroke="rgb(0,88,66)" stroke-width="0.1"/>
  <path d="M 18.430866999999807,18.345714499999758 L 19.130866999999853,17.64571449999994" fill="none" instance-id="7" semantic-id="11" stroke="rgb(0,88,66)" stroke-width="0.1"/>
  <path d="M 19.10086699999988,18.345714499999758 L 19.800866999999926,17.64571449999994" fill="none" instance-id="7" semantic-id="11" stroke="rgb(0,88,66)" stroke-width="0.1"/>
  <path d="M 19.780866999999944,18.345714499999758 L 20.48086699999999,17.64571449999994" fill="none" instance-id="7" semantic-id="11" stroke="rgb(0,88,66)" stroke-width="0.1"/>
  <path d="M 20.450867000000017,18.345714499999758 L 21.150866999999835,17.64571449999994" fill="none" instance-id="7" semantic-id="11" stroke="rgb(0,88,66)" stroke-width="0.1"/>
  <path d="M 21.120866999999862,18.345714499999758 L 21.820866999999907,17.64571449999994" fill="none" instance-id="7" semantic-id="11" stroke="rgb(0,88,66)" stroke-width="0.1"/>
  <path d="M 21.800866999999926,18.345714499999758 L 22.50086699999997,17.64571449999994" fill="none" instance-id="7" semantic-id="11" stroke="rgb(0,88,66)" stroke-width="0.1"/>
  <path d="M 22.470867,18.345714499999758 L 23.170866999999816,17.64571449999994" fill="none" instance-id="7" semantic-id="11" stroke="rgb(0,88,66)" stroke-width="0.1"/>
  <path d="M 23.140866999999844,18.345714499999758 L 23.84086699999989,17.64571449999994" fill="none" instance-id="7" semantic-id="11" stroke="rgb(0,88,66)" stroke-width="0.1"/>
  <path d="M 23.820866999999907,18.345714499999758 L 24.520866999999953,17.64571449999994" fill="none" instance-id="7" semantic-id="11" stroke="rgb(0,88,66)" stroke-width="0.1"/>
  <path d="M 24.49086699999998,18.345714499999758 L 25.00086699999997,17.845714499999758" fill="none" instance-id="7" semantic-id="11" stroke="rgb(0,88,66)" stroke-width="0.1"/>
  <path d="M 25.00086699999997,18.99571449999985 L 25.00086699999997,46.99571449999985" fill="none" instance-id="6" semantic-id="11" stroke="rgb(0,88,66)" stroke-width="0.1"/>
  <path d="M 25.00086699999997,46.99571449999985 L 27.00086699999997,46.99571449999985" fill="none" instance-id="6" semantic-id="11" stroke="rgb(0,88,66)" stroke-width="0.1"/>
  <path d="M 27.00086699999997,46.99571449999985 L 27.00086699999997,18.99571449999985" fill="none" instance-id="6" semantic-id="11" stroke="rgb(0,88,66)" stroke-width="0.1"/>
  <path d="M 27.00086699999997,18.99571449999985 L 25.00086699999997,18.99571449999985" fill="none" instance-id="6" semantic-id="11" stroke="rgb(0,88,66)" stroke-width="0.1"/>
  <path d="M 25.00086699999997,16.99571449999985 L 17.00086699999997,16.99571449999985" fill="none" instance-id="7" semantic-id="11" stroke="rgb(0,88,66)" stroke-width="0.1"/>
  <path d="M 17.00086699999997,16.99571449999985 L 17.00086699999997,18.99571449999985" fill="none" instance-id="7" semantic-id="11" stroke="rgb(0,88,66)" stroke-width="0.1"/>
  <path d="M 17.00086699999997,18.99571449999985 L 25.00086699999997,18.99571449999985" fill="none" instance-id="7" semantic-id="11" stroke="rgb(0,88,66)" stroke-width="0.1"/>
  <path d="M 25.00086699999997,18.99571449999985 L 25.00086699999997,16.99571449999985" fill="none" instance-id="7" semantic-id="11" stroke="rgb(0,88,66)" stroke-width="0.1"/>
  <path d="M 26.35086699999988,46.99571449999985 L 26.35086699999988,18.99571449999985" fill="none" instance-id="6" semantic-id="11" stroke="rgb(0,88,66)" stroke-width="0.1"/>
  <path d="M 26.35086699999988,18.99571449999985 L 25.650866999999835,18.99571449999985" fill="none" instance-id="6" semantic-id="11" stroke="rgb(0,88,66)" stroke-width="0.1"/>
  <path d="M 25.650866999999835,18.99571449999985 L 25.650866999999835,46.99571449999985" fill="none" instance-id="6" semantic-id="11" stroke="rgb(0,88,66)" stroke-width="0.1"/>
  <path d="M 25.650866999999835,46.99571449999985 L 26.35086699999988,46.99571449999985" fill="none" instance-id="6" semantic-id="11" stroke="rgb(0,88,66)" stroke-width="0.1"/>
  <path d="M 17.00086699999997,18.345714499999758 L 25.00086699999997,18.345714499999758" fill="none" instance-id="7" semantic-id="11" stroke="rgb(0,88,66)" stroke-width="0.1"/>
  <path d="M 25.00086699999997,18.345714499999758 L 25.00086699999997,17.64571449999994" fill="none" instance-id="7" semantic-id="11" stroke="rgb(0,88,66)" stroke-width="0.1"/>
  <path d="M 25.00086699999997,17.64571449999994 L 17.00086699999997,17.64571449999994" fill="none" instance-id="7" semantic-id="11" stroke="rgb(0,88,66)" stroke-width="0.1"/>
  <path d="M 17.00086699999997,17.64571449999994 L 17.00086699999997,18.345714499999758" fill="none" instance-id="7" semantic-id="11" stroke="rgb(0,88,66)" stroke-width="0.1"/>
  <path d="M 26.35086699999988,46.99571449999985 L 26.35086699999988,18.99571449999985" fill="none" instance-id="6" semantic-id="11" stroke="rgb(0,88,66)" stroke-width="0.1"/>
  <path d="M 26.35086699999988,18.99571449999985 L 25.650866999999835,18.99571449999985" fill="none" instance-id="6" semantic-id="11" stroke="rgb(0,88,66)" stroke-width="0.1"/>
  <path d="M 25.650866999999835,18.99571449999985 L 25.650866999999835,46.99571449999985" fill="none" instance-id="6" semantic-id="11" stroke="rgb(0,88,66)" stroke-width="0.1"/>
  <path d="M 25.650866999999835,46.99571449999985 L 26.35086699999988,46.99571449999985" fill="none" instance-id="6" semantic-id="11" stroke="rgb(0,88,66)" stroke-width="0.1"/>
  <path d="M 17.00086699999997,18.345714499999758 L 25.00086699999997,18.345714499999758" fill="none" instance-id="7" semantic-id="11" stroke="rgb(0,88,66)" stroke-width="0.1"/>
  <path d="M 25.00086699999997,18.345714499999758 L 25.00086699999997,17.64571449999994" fill="none" instance-id="7" semantic-id="11" stroke="rgb(0,88,66)" stroke-width="0.1"/>
  <path d="M 25.00086699999997,17.64571449999994 L 17.00086699999997,17.64571449999994" fill="none" instance-id="7" semantic-id="11" stroke="rgb(0,88,66)" stroke-width="0.1"/>
  <path d="M 17.00086699999997,17.64571449999994 L 17.00086699999997,18.345714499999758" fill="none" instance-id="7" semantic-id="11" stroke="rgb(0,88,66)" stroke-width="0.1"/>
 </g>
 <g id="layerA-WIND-IDEN" inkscape:groupmode="layer" inkscape:label="A-WIND-IDEN">
  <text fill="rgb(107,0,26)" font-family="Noto Sans CJK SC" font-size="2" transform="rotate(-90.0,13.450867000000017,38.6557144999997)" x="13.450867000000017" y="38.6557144999997">
   FC2015甲
  </text>
  <text fill="rgb(107,0,26)" font-family="Noto Sans CJK SC" font-size="2" transform="rotate(-90.0,30.210867000000007,37.805714499999794)" x="30.210867000000007" y="37.805714499999794">
   BY2806
  </text>
  <text fill="rgb(107,0,26)" font-family="Noto Sans CJK SC" font-size="2" transform="rotate(-0.0,15.720866999999998,15.955714499999885)" x="15.720866999999998" y="15.955714499999885">
   BY0806
  </text>
 </g>
 <g id="layerP-PIPE" inkscape:groupmode="layer" inkscape:label="P-PIPE">
  <path d="M 33.50086699999997,57.99571449999985 A 0.5,0.5 0.0 1,0 32.50086699999997,57.99571449999985" fill="none" stroke="rgb(178,0,133)" stroke-width="0.1"/>
  <path d="M 32.50086699999997,57.99571449999985 A 0.5,0.5 0.0 1,0 33.50086699999997,57.99571449999985" fill="none" stroke="rgb(178,0,133)" stroke-width="0.1"/>
  <path d="M 33.50086699999997,59.99571449999985 A 0.5,0.5 0.0 1,0 32.50086699999997,59.99571449999985" fill="none" stroke="rgb(178,0,133)" stroke-width="0.1"/>
  <path d="M 32.50086699999997,59.99571449999985 A 0.5,0.5 0.0 1,0 33.50086699999997,59.99571449999985" fill="none" stroke="rgb(178,0,133)" stroke-width="0.1"/>
  <path d="M 99.77086699999995,30.512701798107628 L 99.27086699999995,30.512701798107628" fill="none" stroke="rgb(0,178,178)" stroke-width="0.1"/>
  <path d="M 99.27086699999995,30.512701798107628 L 99.02086699999995,30.945714499999667" fill="none" stroke="rgb(0,178,178)" stroke-width="0.1"/>
  <path d="M 99.02086699999995,30.945714499999667 L 99.27086699999995,31.378727201891706" fill="none" stroke="rgb(0,178,178)" stroke-width="0.1"/>
  <path d="M 99.27086699999995,31.378727201891706 L 99.77086699999995,31.378727201891706" fill="none" stroke="rgb(0,178,178)" stroke-width="0.1"/>
 </g>
</svg>