<?xml version="1.0" encoding="utf-8"?>
<svg style="background-color: #000;" version="1.1" viewBox="0 0 100.0 100.0" xmlns="http://www.w3.org/2000/svg" xmlns:inkscape="http://www.inkscape.org/namespaces/inkscape">
 <g id="layerAXIS" inkscape:groupmode="layer" inkscape:label="AXIS">
  <path d="M 40.00512050000009,76.00026550000001 L 40.00512050000009,100.0" fill="none" stroke="rgb(0,178,0)" stroke-width="0.1"/>
  <path d="M 6.005120500000089,88.38026550000001 L 6.005120500000089,98.62626549999999" fill="none" stroke="rgb(0,178,0)" stroke-width="0.1"/>
  <path d="M 0.0,96.12626549999999 L 6.005120500000089,96.12626549999999" fill="none" stroke="rgb(0,178,0)" stroke-width="0.1"/>
  <path d="M 6.005120500000089,88.38026550000001 L 6.005120500000089,98.62626549999999" fill="none" stroke="rgb(0,178,0)" stroke-width="0.1"/>
  <path d="M 8.00512050000009,88.38026550000001 L 8.00512050000009,98.62626549999999" fill="none" stroke="rgb(0,178,0)" stroke-width="0.1"/>
  <path d="M 6.005120500000089,96.12626549999999 L 5.005120500000089,96.12626549999999" fill="none" stroke="rgb(0,178,0)" stroke-width="0.1"/>
  <path d="M 8.00512050000009,96.12626549999999 L 9.00512050000009,96.12626549999999" fill="none" stroke="rgb(0,178,0)" stroke-width="0.1"/>
  <path d="M 6.005120500000089,96.12626549999999 L 8.00512050000009,96.12626549999999" fill="none" stroke="rgb(0,178,0)" stroke-width="0.1"/>
  <path d="M 8.00512050000009,88.38026550000001 L 8.00512050000009,98.62626549999999" fill="none" stroke="rgb(0,178,0)" stroke-width="0.1"/>
  <path d="M 16.00512050000009,88.38026550000001 L 16.00512050000009,98.62626549999999" fill="none" stroke="rgb(0,178,0)" stroke-width="0.1"/>
  <path d="M 8.00512050000009,96.12626549999999 L 7.005120500000089,96.12626549999999" fill="none" stroke="rgb(0,178,0)" stroke-width="0.1"/>
  <path d="M 16.00512050000009,96.12626549999999 L 17.00512050000009,96.12626549999999" fill="none" stroke="rgb(0,178,0)" stroke-width="0.1"/>
  <path d="M 8.00512050000009,96.12626549999999 L 16.00512050000009,96.12626549999999" fill="none" stroke="rgb(0,178,0)" stroke-width="0.1"/>
  <path d="M 16.00512050000009,88.38026550000001 L 16.00512050000009,98.62626549999999" fill="none" stroke="rgb(0,178,0)" stroke-width="0.1"/>
  <path d="M 18.00512050000009,88.38026550000001 L 18.00512050000009,98.62626549999999" fill="none" stroke="rgb(0,178,0)" stroke-width="0.1"/>
  <path d="M 16.00512050000009,96.12626549999999 L 15.00512050000009,96.12626549999999" fill="none" stroke="rgb(0,178,0)" stroke-width="0.1"/>
  <path d="M 18.00512050000009,96.12626549999999 L 19.00512050000009,96.12626549999999" fill="none" stroke="rgb(0,178,0)" stroke-width="0.1"/>
  <path d="M 16.00512050000009,96.12626549999999 L 18.00512050000009,96.12626549999999" fill="none" stroke="rgb(0,178,0)" stroke-width="0.1"/>
  <path d="M 18.00512050000009,88.38026550000001 L 18.00512050000009,98.62626549999999" fill="none" stroke="rgb(0,178,0)" stroke-width="0.1"/>
  <path d="M 34.00512050000009,88.38026550000001 L 34.00512050000009,98.62626549999999" fill="none" stroke="rgb(0,178,0)" stroke-width="0.1"/>
  <path d="M 18.00512050000009,96.12626549999999 L 34.00512050000009,96.12626549999999" fill="none" stroke="rgb(0,178,0)" stroke-width="0.1"/>
  <path d="M 34.00512050000009,88.38026550000001 L 34.00512050000009,98.62626549999999" fill="none" stroke="rgb(0,178,0)" stroke-width="0.1"/>
  <path d="M 36.00512050000009,88.38026550000001 L 36.00512050000009,98.62626549999999" fill="none" stroke="rgb(0,178,0)" stroke-width="0.1"/>
  <path d="M 34.00512050000009,96.12626549999999 L 33.00512050000009,96.12626549999999" fill="none" stroke="rgb(0,178,0)" stroke-width="0.1"/>
  <path d="M 36.00512050000009,96.12626549999999 L 37.00512050000009,96.12626549999999" fill="none" stroke="rgb(0,178,0)" stroke-width="0.1"/>
  <path d="M 34.00512050000009,96.12626549999999 L 36.00512050000009,96.12626549999999" fill="none" stroke="rgb(0,178,0)" stroke-width="0.1"/>
  <path d="M 36.00512050000009,88.38026550000001 L 36.00512050000009,98.62626549999999" fill="none" stroke="rgb(0,178,0)" stroke-width="0.1"/>
  <path d="M 40.00512050000009,88.38026550000001 L 40.00512050000009,98.62626549999999" fill="none" stroke="rgb(0,178,0)" stroke-width="0.1"/>
  <path d="M 36.00512050000009,96.12626549999999 L 35.00512050000009,96.12626549999999" fill="none" stroke="rgb(0,178,0)" stroke-width="0.1"/>
  <path d="M 40.00512050000009,96.12626549999999 L 41.00512050000009,96.12626549999999" fill="none" stroke="rgb(0,178,0)" stroke-width="0.1"/>
  <path d="M 36.00512050000009,96.12626549999999 L 40.00512050000009,96.12626549999999" fill="none" stroke="rgb(0,178,0)" stroke-width="0.1"/>
  <path d="M 40.00512050000009,88.38026550000001 L 40.00512050000009,98.62626549999999" fill="none" stroke="rgb(0,178,0)" stroke-width="0.1"/>
  <path d="M 44.00512050000009,88.38026550000001 L 44.00512050000009,98.62626549999999" fill="none" stroke="rgb(0,178,0)" stroke-width="0.1"/>
  <path d="M 40.00512050000009,96.12626549999999 L 44.00512050000009,96.12626549999999" fill="none" stroke="rgb(0,178,0)" stroke-width="0.1"/>
  <path d="M 44.00512050000009,88.38026550000001 L 44.00512050000009,98.62626549999999" fill="none" stroke="rgb(0,178,0)" stroke-width="0.1"/>
  <path d="M 46.00512050000009,88.38026550000001 L 46.00512050000009,98.62626549999999" fill="none" stroke="rgb(0,178,0)" stroke-width="0.1"/>
  <path d="M 44.00512050000009,96.12626549999999 L 43.00512050000009,96.12626549999999" fill="none" stroke="rgb(0,178,0)" stroke-width="0.1"/>
  <path d="M 46.00512050000009,96.12626549999999 L 47.00512050000009,96.12626549999999" fill="none" stroke="rgb(0,178,0)" stroke-width="0.1"/>
  <path d="M 44.00512050000009,96.12626549999999 L 46.00512050000009,96.12626549999999" fill="none" stroke="rgb(0,178,0)" stroke-width="0.1"/>
  <path d="M 46.00512050000009,88.38026550000001 L 46.00512050000009,98.62626549999999" fill="none" stroke="rgb(0,178,0)" stroke-width="0.1"/>
  <path d="M 62.00512050000009,88.38026550000001 L 62.00512050000009,98.62626549999999" fill="none" stroke="rgb(0,178,0)" stroke-width="0.1"/>
  <path d="M 46.00512050000009,96.12626549999999 L 62.00512050000009,96.12626549999999" fill="none" stroke="rgb(0,178,0)" stroke-width="0.1"/>
  <path d="M 62.00512050000009,88.38026550000001 L 62.00512050000009,98.62626549999999" fill="none" stroke="rgb(0,178,0)" stroke-width="0.1"/>
  <path d="M 64.00512050000009,88.38026550000001 L 64.00512050000009,98.62626549999999" fill="none" stroke="rgb(0,178,0)" stroke-width="0.1"/>
  <path d="M 62.00512050000009,96.12626549999999 L 61.00512050000009,96.12626549999999" fill="none" stroke="rgb(0,178,0)" stroke-width="0.1"/>
  <path d="M 64.00512050000009,96.12626549999999 L 65.00512050000009,96.12626549999999" fill="none" stroke="rgb(0,178,0)" stroke-width="0.1"/>
  <path d="M 62.00512050000009,96.12626549999999 L 64.00512050000009,96.12626549999999" fill="none" stroke="rgb(0,178,0)" stroke-width="0.1"/>
  <path d="M 64.00512050000009,88.38026550000001 L 64.00512050000009,98.62626549999999" fill="none" stroke="rgb(0,178,0)" stroke-width="0.1"/>
  <path d="M 72.00512050000009,88.38026550000001 L 72.00512050000009,98.62626549999999" fill="none" stroke="rgb(0,178,0)" stroke-width="0.1"/>
  <path d="M 64.00512050000009,96.12626549999999 L 63.00512050000009,96.12626549999999" fill="none" stroke="rgb(0,178,0)" stroke-width="0.1"/>
  <path d="M 72.00512050000009,96.12626549999999 L 73.00512050000009,96.12626549999999" fill="none" stroke="rgb(0,178,0)" stroke-width="0.1"/>
  <path d="M 64.00512050000009,96.12626549999999 L 72.00512050000009,96.12626549999999" fill="none" stroke="rgb(0,178,0)" stroke-width="0.1"/>
  <path d="M 72.00512050000009,88.38026550000001 L 72.00512050000009,98.62626549999999" fill="none" stroke="rgb(0,178,0)" stroke-width="0.1"/>
  <path d="M 74.00512050000009,88.38026550000001 L 74.00512050000009,98.62626549999999" fill="none" stroke="rgb(0,178,0)" stroke-width="0.1"/>
  <path d="M 72.00512050000009,96.12626549999999 L 71.00512050000009,96.12626549999999" fill="none" stroke="rgb(0,178,0)" stroke-width="0.1"/>
  <path d="M 74.00512050000009,96.12626549999999 L 75.00512050000009,96.12626549999999" fill="none" stroke="rgb(0,178,0)" stroke-width="0.1"/>
  <path d="M 72.00512050000009,96.12626549999999 L 74.00512050000009,96.12626549999999" fill="none" stroke="rgb(0,178,0)" stroke-width="0.1"/>
  <path d="M 74.00512050000009,88.38026550000001 L 74.00512050000009,98.62626549999999" fill="none" stroke="rgb(0,178,0)" stroke-width="0.1"/>
  <path d="M 90.00512050000009,88.38026550000001 L 90.00512050000009,98.62626549999999" fill="none" stroke="rgb(0,178,0)" stroke-width="0.1"/>
  <path d="M 74.00512050000009,96.12626549999999 L 90.00512050000009,96.12626549999999" fill="none" stroke="rgb(0,178,0)" stroke-width="0.1"/>
  <path d="M 90.00512050000009,88.38026550000001 L 90.00512050000009,98.62626549999999" fill="none" stroke="rgb(0,178,0)" stroke-width="0.1"/>
  <path d="M 92.00512050000009,88.38026550000001 L 92.00512050000009,98.62626549999999" fill="none" stroke="rgb(0,178,0)" stroke-width="0.1"/>
  <path d="M 90.00512050000009,96.12626549999999 L 89.00512050000009,96.12626549999999" fill="none" stroke="rgb(0,178,0)" stroke-width="0.1"/>
  <path d="M 92.00512050000009,96.12626549999999 L 93.00512050000009,96.12626549999999" fill="none" stroke="rgb(0,178,0)" stroke-width="0.1"/>
  <path d="M 90.00512050000009,96.12626549999999 L 92.00512050000009,96.12626549999999" fill="none" stroke="rgb(0,178,0)" stroke-width="0.1"/>
  <path d="M 92.00512050000009,88.38026550000001 L 92.00512050000009,98.62626549999999" fill="none" stroke="rgb(0,178,0)" stroke-width="0.1"/>
  <path d="M 92.00512050000009,96.12626549999999 L 91.00512050000009,96.12626549999999" fill="none" stroke="rgb(0,178,0)" stroke-width="0.1"/>
  <path d="M 92.00512050000009,96.12626549999999 L 100.0,96.12626549999999" fill="none" stroke="rgb(0,178,0)" stroke-width="0.1"/>
  <path d="M 100.0,96.12626549999999 L 99.00512050000009,96.12626549999999" fill="none" stroke="rgb(0,178,0)" stroke-width="0.1"/>
  <path d="M 40.00512050000009,79.00026550000001 L 40.00512050000009,100.0" fill="none" stroke="rgb(0,178,0)" stroke-width="0.1"/>
  <path d="M 40.00512050000009,79.00026550000001 L 40.00512050000009,100.0" fill="none" stroke="rgb(0,178,0)" stroke-width="0.1"/>
  <text fill="rgb(0,178,0)" font-family="Noto Sans CJK SC" font-size="2" transform="rotate(-0.0,3.5761205000001155,91.95126549999998)" x="3.5761205000001155" y="91.95126549999998">
   200
  </text>
  <text fill="rgb(0,178,0)" font-family="Noto Sans CJK SC" font-size="2" transform="rotate(-0.0,8.576120500000115,94.62626549999999)" x="8.576120500000115" y="94.62626549999999">
   800
  </text>
  <text fill="rgb(0,178,0)" font-family="Noto Sans CJK SC" font-size="2" transform="rotate(-0.0,13.576120500000115,91.95126549999998)" x="13.576120500000115" y="91.95126549999998">
   200
  </text>
  <text fill="rgb(0,178,0)" font-family="Noto Sans CJK SC" font-size="2" transform="rotate(-0.0,21.262120500000037,94.62626549999999)" x="21.262120500000037" y="94.62626549999999">
   1600
  </text>
  <text fill="rgb(0,178,0)" font-family="Noto Sans CJK SC" font-size="2" transform="rotate(-0.0,31.576120500000115,91.95126549999998)" x="31.576120500000115" y="91.95126549999998">
   200
  </text>
  <text fill="rgb(0,178,0)" font-family="Noto Sans CJK SC" font-size="2" transform="rotate(-0.0,34.576120500000115,94.62626549999999)" x="34.576120500000115" y="94.62626549999999">
   400
  </text>
  <text fill="rgb(0,178,0)" font-family="Noto Sans CJK SC" font-size="2" transform="rotate(-0.0,38.576120500000115,91.95126549999998)" x="38.576120500000115" y="91.95126549999998">
   400
  </text>
  <text fill="rgb(0,178,0)" font-family="Noto Sans CJK SC" font-size="2" transform="rotate(-0.0,41.576120500000115,94.62626549999999)" x="41.576120500000115" y="94.62626549999999">
   200
  </text>
  <text fill="rgb(0,178,0)" font-family="Noto Sans CJK SC" font-size="2" transform="rotate(-0.0,49.26212050000004,94.62626549999999)" x="49.26212050000004" y="94.62626549999999">
   1600
  </text>
  <text fill="rgb(0,178,0)" font-family="Noto Sans CJK SC" font-size="2" transform="rotate(-0.0,59.576120500000115,91.95126549999998)" x="59.576120500000115" y="91.95126549999998">
   200
  </text>
  <text fill="rgb(0,178,0)" font-family="Noto Sans CJK SC" font-size="2" transform="rotate(-0.0,64.57612050000012,94.62626549999999)" x="64.57612050000012" y="94.62626549999999">
   800
  </text>
  <text fill="rgb(0,178,0)" font-family="Noto Sans CJK SC" font-size="2" transform="rotate(-0.0,69.57612050000012,91.95126549999998)" x="69.57612050000012" y="91.95126549999998">
   200
  </text>
  <text fill="rgb(0,178,0)" font-family="Noto Sans CJK SC" font-size="2" transform="rotate(-0.0,77.26212050000004,94.62626549999999)" x="77.26212050000004" y="94.62626549999999">
   1600
  </text>
  <text fill="rgb(0,178,0)" font-family="Noto Sans CJK SC" font-size="2" transform="rotate(-0.0,87.57612050000012,91.95126549999998)" x="87.57612050000012" y="91.95126549999998">
   200
  </text>
  <text fill="rgb(0,178,0)" font-family="Noto Sans CJK SC" font-size="2" transform="rotate(-0.0,92.57612050000012,94.62626549999999)" x="92.57612050000012" y="94.62626549999999">
   800
  </text>
  <text fill="rgb(0,178,0)" font-family="Noto Sans CJK SC" font-size="2" transform="rotate(-0.0,97.57612050000012,91.95126549999998)" x="97.57612050000012" y="91.95126549999998">
   200
  </text>
 </g>
 <g id="layerCOLUMN" inkscape:groupmode="layer" inkscape:label="COLUMN">
  <path d="M 36.00512050000009,70.00026550000001 L 44.00512050000009,70.00026550000001" fill="none" stroke="rgb(0,178,178)" stroke-width="0.1"/>
  <path d="M 44.00512050000009,70.00026550000001 L 44.00512050000009,61.50026550000001" fill="none" stroke="rgb(0,178,178)" stroke-width="0.1"/>
  <path d="M 44.00512050000009,61.50026550000001 L 36.00512050000009,61.50026550000001" fill="none" stroke="rgb(0,178,178)" stroke-width="0.1"/>
  <path d="M 36.00512050000009,61.50026550000001 L 36.00512050000009,70.00026550000001" fill="none" stroke="rgb(0,178,178)" stroke-width="0.1"/>
 </g>
 <g id="layerDOTE" inkscape:groupmode="layer" inkscape:label="DOTE">
  <path d="M 0.0,66.00026550000001 L 100.0,66.00026550000001" fill="none" stroke="rgb(178,0,0)" stroke-width="0.1"/>
  <path d="M 40.00512050000009,76.00026550000001 L 40.00512050000009,0.0" fill="none" stroke="rgb(178,0,0)" stroke-width="0.1"/>
 </g>
 <g id="layerPUB_DIM" inkscape:groupmode="layer" inkscape:label="PUB_DIM">
  <path d="M 40.00512050000009,11.250265500000012 L 40.00512050000009,21.99226550000003" fill="none" stroke="rgb(0,178,0)" stroke-width="0.1"/>
  <path d="M 0.0,19.49226550000003 L 40.00512050000009,19.49226550000003" fill="none" stroke="rgb(0,178,0)" stroke-width="0.1"/>
  <path d="M 40.00512050000009,11.250265500000012 L 40.00512050000009,21.99226550000003" fill="none" stroke="rgb(0,178,0)" stroke-width="0.1"/>
  <path d="M 68.00512050000009,11.250265500000012 L 68.00512050000009,21.99226550000003" fill="none" stroke="rgb(0,178,0)" stroke-width="0.1"/>
  <path d="M 40.00512050000009,19.49226550000003 L 68.00512050000009,19.49226550000003" fill="none" stroke="rgb(0,178,0)" stroke-width="0.1"/>
  <path d="M 68.00512050000009,11.250265500000012 L 68.00512050000009,21.99226550000003" fill="none" stroke="rgb(0,178,0)" stroke-width="0.1"/>
  <path d="M 99.50512050000009,11.250265500000012 L 99.50512050000009,21.99226550000003" fill="none" stroke="rgb(0,178,0)" stroke-width="0.1"/>
  <path d="M 68.00512050000009,19.49226550000003 L 99.50512050000009,19.49226550000003" fill="none" stroke="rgb(0,178,0)" stroke-width="0.1"/>
  <path d="M 99.50512050000009,11.250265500000012 L 99.50512050000009,21.99226550000003" fill="none" stroke="rgb(0,178,0)" stroke-width="0.1"/>
  <path d="M 99.50512050000009,19.49226550000003 L 100.0,19.49226550000003" fill="none" stroke="rgb(0,178,0)" stroke-width="0.1"/>
  <text fill="rgb(0,178,0)" font-family="Noto Sans CJK SC" font-size="2" transform="rotate(-0.0,1.37612050000007,17.99226550000003)" x="1.37612050000007" y="17.99226550000003">
   6800
  </text>
  <text fill="rgb(0,178,0)" font-family="Noto Sans CJK SC" font-size="2" transform="rotate(-0.0,49.43412050000006,17.99226550000003)" x="49.43412050000006" y="17.99226550000003">
   2800
  </text>
  <text fill="rgb(0,178,0)" font-family="Noto Sans CJK SC" font-size="2" transform="rotate(-0.0,79.18412050000006,17.99226550000003)" x="79.18412050000006" y="17.99226550000003">
   3150
  </text>
 </g>
 <g id="layerPUB_HATCH" inkscape:groupmode="layer" inkscape:label="PUB_HATCH">
  <path d="M 90.00512050000009,72.50026550000001 L 92.00512050000009,72.50026550000001" fill="none" stroke="rgb(89,89,89)" stroke-width="0.1"/>
  <path d="M 92.00512050000009,72.50026550000001 L 92.00512050000009,66.50026550000001" fill="none" stroke="rgb(89,89,89)" stroke-width="0.1"/>
  <path d="M 92.00512050000009,66.50026550000001 L 90.00512050000009,66.50026550000001" fill="none" stroke="rgb(89,89,89)" stroke-width="0.1"/>
  <path d="M 90.00512050000009,66.50026550000001 L 90.00512050000009,72.50026550000001" fill="none" stroke="rgb(89,89,89)" stroke-width="0.1"/>
  <path d="M 62.00512050000009,72.50026550000001 L 64.00512050000009,72.50026550000001" fill="none" stroke="rgb(89,89,89)" stroke-width="0.1"/>
  <path d="M 64.00512050000009,72.50026550000001 L 64.00512050000009,66.50026550000001" fill="none" stroke="rgb(89,89,89)" stroke-width="0.1"/>
  <path d="M 64.00512050000009,66.50026550000001 L 62.00512050000009,66.50026550000001" fill="none" stroke="rgb(89,89,89)" stroke-width="0.1"/>
  <path d="M 62.00512050000009,66.50026550000001 L 62.00512050000009,72.50026550000001" fill="none" stroke="rgb(89,89,89)" stroke-width="0.1"/>
  <path d="M 72.00512050000009,72.50026550000001 L 74.00512050000009,72.50026550000001" fill="none" stroke="rgb(89,89,89)" stroke-width="0.1"/>
  <path d="M 74.00512050000009,72.50026550000001 L 74.00512050000009,66.50026550000001" fill="none" stroke="rgb(89,89,89)" stroke-width="0.1"/>
  <path d="M 74.00512050000009,66.50026550000001 L 72.00512050000009,66.50026550000001" fill="none" stroke="rgb(89,89,89)" stroke-width="0.1"/>
  <path d="M 72.00512050000009,66.50026550000001 L 72.00512050000009,72.50026550000001" fill="none" stroke="rgb(89,89,89)" stroke-width="0.1"/>
  <path d="M 34.00512050000009,72.50026550000001 L 36.00512050000009,72.50026550000001" fill="none" stroke="rgb(89,89,89)" stroke-width="0.1"/>
  <path d="M 36.00512050000009,72.50026550000001 L 36.00512050000009,66.50026550000001" fill="none" stroke="rgb(89,89,89)" stroke-width="0.1"/>
  <path d="M 36.00512050000009,66.50026550000001 L 34.00512050000009,66.50026550000001" fill="none" stroke="rgb(89,89,89)" stroke-width="0.1"/>
  <path d="M 34.00512050000009,66.50026550000001 L 34.00512050000009,72.50026550000001" fill="none" stroke="rgb(89,89,89)" stroke-width="0.1"/>
  <path d="M 44.00512050000009,72.50026550000001 L 46.00512050000009,72.50026550000001" fill="none" stroke="rgb(89,89,89)" stroke-width="0.1"/>
  <path d="M 46.00512050000009,72.50026550000001 L 46.00512050000009,66.50026550000001" fill="none" stroke="rgb(89,89,89)" stroke-width="0.1"/>
  <path d="M 46.00512050000009,66.50026550000001 L 44.00512050000009,66.50026550000001" fill="none" stroke="rgb(89,89,89)" stroke-width="0.1"/>
  <path d="M 44.00512050000009,66.50026550000001 L 44.00512050000009,72.50026550000001" fill="none" stroke="rgb(89,89,89)" stroke-width="0.1"/>
  <path d="M 6.005120500000089,72.50026550000001 L 8.00512050000009,72.50026550000001" fill="none" stroke="rgb(89,89,89)" stroke-width="0.1"/>
  <path d="M 8.00512050000009,72.50026550000001 L 8.00512050000009,66.50026550000001" fill="none" stroke="rgb(89,89,89)" stroke-width="0.1"/>
  <path d="M 8.00512050000009,66.50026550000001 L 6.005120500000089,66.50026550000001" fill="none" stroke="rgb(89,89,89)" stroke-width="0.1"/>
  <path d="M 6.005120500000089,66.50026550000001 L 6.005120500000089,72.50026550000001" fill="none" stroke="rgb(89,89,89)" stroke-width="0.1"/>
  <path d="M 16.00512050000009,72.50026550000001 L 18.00512050000009,72.50026550000001" fill="none" stroke="rgb(89,89,89)" stroke-width="0.1"/>
  <path d="M 18.00512050000009,72.50026550000001 L 18.00512050000009,66.50026550000001" fill="none" stroke="rgb(89,89,89)" stroke-width="0.1"/>
  <path d="M 18.00512050000009,66.50026550000001 L 16.00512050000009,66.50026550000001" fill="none" stroke="rgb(89,89,89)" stroke-width="0.1"/>
  <path d="M 16.00512050000009,66.50026550000001 L 16.00512050000009,72.50026550000001" fill="none" stroke="rgb(89,89,89)" stroke-width="0.1"/>
 </g>
 <g id="layerWALL" inkscape:groupmode="layer" inkscape:label="WALL">
  <path d="M 44.00512050000009,66.50026550000001 L 45.00512050000009,66.50026550000001" fill="none" instance-id="-1" semantic-id="1" stroke="rgb(0,178,178)" stroke-width="0.1"/>
  <path d="M 90.00512050000009,72.50026550000001 L 90.00512050000009,68.50026550000001" fill="none" instance-id="-1" semantic-id="1" stroke="rgb(0,178,178)" stroke-width="0.1"/>
  <path d="M 92.00512050000009,72.50026550000001 L 92.00512050000009,68.50026550000001" fill="none" instance-id="-1" semantic-id="1" stroke="rgb(0,178,178)" stroke-width="0.1"/>
  <path d="M 90.00512050000009,72.50026550000001 L 92.00512050000009,72.50026550000001" fill="none" instance-id="-1" semantic-id="1" stroke="rgb(0,178,178)" stroke-width="0.1"/>
  <path d="M 62.00512050000009,72.50026550000001 L 62.00512050000009,68.50026550000001" fill="none" instance-id="-1" semantic-id="1" stroke="rgb(0,178,178)" stroke-width="0.1"/>
  <path d="M 64.00512050000009,72.50026550000001 L 64.00512050000009,68.50026550000001" fill="none" instance-id="-1" semantic-id="1" stroke="rgb(0,178,178)" stroke-width="0.1"/>
  <path d="M 62.00512050000009,72.50026550000001 L 64.00512050000009,72.50026550000001" fill="none" instance-id="-1" semantic-id="1" stroke="rgb(0,178,178)" stroke-width="0.1"/>
  <path d="M 72.00512050000009,72.50026550000001 L 72.00512050000009,68.50026550000001" fill="none" instance-id="-1" semantic-id="1" stroke="rgb(0,178,178)" stroke-width="0.1"/>
  <path d="M 74.00512050000009,72.50026550000001 L 74.00512050000009,68.50026550000001" fill="none" instance-id="-1" semantic-id="1" stroke="rgb(0,178,178)" stroke-width="0.1"/>
  <path d="M 72.00512050000009,72.50026550000001 L 74.00512050000009,72.50026550000001" fill="none" instance-id="-1" semantic-id="1" stroke="rgb(0,178,178)" stroke-width="0.1"/>
  <path d="M 34.00512050000009,72.50026550000001 L 34.00512050000009,68.50026550000001" fill="none" instance-id="-1" semantic-id="1" stroke="rgb(0,178,178)" stroke-width="0.1"/>
  <path d="M 36.00512050000009,72.50026550000001 L 36.00512050000009,68.50026550000001" fill="none" instance-id="-1" semantic-id="1" stroke="rgb(0,178,178)" stroke-width="0.1"/>
  <path d="M 34.00512050000009,72.50026550000001 L 36.00512050000009,72.50026550000001" fill="none" instance-id="-1" semantic-id="1" stroke="rgb(0,178,178)" stroke-width="0.1"/>
  <path d="M 44.00512050000009,72.50026550000001 L 44.00512050000009,68.50026550000001" fill="none" instance-id="-1" semantic-id="1" stroke="rgb(0,178,178)" stroke-width="0.1"/>
  <path d="M 46.00512050000009,72.50026550000001 L 46.00512050000009,68.50026550000001" fill="none" instance-id="-1" semantic-id="1" stroke="rgb(0,178,178)" stroke-width="0.1"/>
  <path d="M 44.00512050000009,72.50026550000001 L 46.00512050000009,72.50026550000001" fill="none" instance-id="-1" semantic-id="1" stroke="rgb(0,178,178)" stroke-width="0.1"/>
  <path d="M 6.005120500000089,68.50026550000001 L 6.005120500000089,66.50026550000001" fill="none" instance-id="-1" semantic-id="1" stroke="rgb(0,178,178)" stroke-width="0.1"/>
  <path d="M 6.005120500000089,72.50026550000001 L 6.005120500000089,68.50026550000001" fill="none" instance-id="-1" semantic-id="1" stroke="rgb(0,178,178)" stroke-width="0.1"/>
  <path d="M 8.00512050000009,72.50026550000001 L 8.00512050000009,68.50026550000001" fill="none" instance-id="-1" semantic-id="1" stroke="rgb(0,178,178)" stroke-width="0.1"/>
  <path d="M 6.005120500000089,72.50026550000001 L 8.00512050000009,72.50026550000001" fill="none" instance-id="-1" semantic-id="1" stroke="rgb(0,178,178)" stroke-width="0.1"/>
  <path d="M 16.00512050000009,72.50026550000001 L 16.00512050000009,68.50026550000001" fill="none" instance-id="-1" semantic-id="1" stroke="rgb(0,178,178)" stroke-width="0.1"/>
  <path d="M 18.00512050000009,72.50026550000001 L 18.00512050000009,68.50026550000001" fill="none" instance-id="-1" semantic-id="1" stroke="rgb(0,178,178)" stroke-width="0.1"/>
  <path d="M 16.00512050000009,72.50026550000001 L 18.00512050000009,72.50026550000001" fill="none" instance-id="-1" semantic-id="1" stroke="rgb(0,178,178)" stroke-width="0.1"/>
  <path d="M 7.005120500000089,66.50026550000001 L 17.00512050000009,66.50026550000001" fill="none" instance-id="-1" semantic-id="1" stroke="rgb(0,178,178)" stroke-width="0.1"/>
  <path d="M 8.00512050000009,68.50026550000001 L 16.00512050000009,68.50026550000001" fill="none" instance-id="-1" semantic-id="1" stroke="rgb(0,178,178)" stroke-width="0.1"/>
  <path d="M 18.00512050000009,68.50026550000001 L 18.00512050000009,66.50026550000001" fill="none" instance-id="-1" semantic-id="1" stroke="rgb(0,178,178)" stroke-width="0.1"/>
  <path d="M 34.00512050000009,68.50026550000001 L 34.00512050000009,66.50026550000001" fill="none" instance-id="-1" semantic-id="1" stroke="rgb(0,178,178)" stroke-width="0.1"/>
  <path d="M 35.00512050000009,66.50026550000001 L 36.00512050000009,66.50026550000001" fill="none" instance-id="-1" semantic-id="1" stroke="rgb(0,178,178)" stroke-width="0.1"/>
  <path d="M 46.00512050000009,68.50026550000001 L 46.00512050000009,66.50026550000001" fill="none" instance-id="-1" semantic-id="1" stroke="rgb(0,178,178)" stroke-width="0.1"/>
  <path d="M 62.00512050000009,68.50026550000001 L 62.00512050000009,66.50026550000001" fill="none" instance-id="-1" semantic-id="1" stroke="rgb(0,178,178)" stroke-width="0.1"/>
  <path d="M 63.00512050000009,66.50026550000001 L 73.00512050000009,66.50026550000001" fill="none" instance-id="-1" semantic-id="1" stroke="rgb(0,178,178)" stroke-width="0.1"/>
  <path d="M 64.00512050000009,68.50026550000001 L 72.00512050000009,68.50026550000001" fill="none" instance-id="-1" semantic-id="1" stroke="rgb(0,178,178)" stroke-width="0.1"/>
  <path d="M 74.00512050000009,68.50026550000001 L 74.00512050000009,66.50026550000001" fill="none" instance-id="-1" semantic-id="1" stroke="rgb(0,178,178)" stroke-width="0.1"/>
  <path d="M 90.00512050000009,68.50026550000001 L 90.00512050000009,66.50026550000001" fill="none" instance-id="-1" semantic-id="1" stroke="rgb(0,178,178)" stroke-width="0.1"/>
  <path d="M 91.00512050000009,66.50026550000001 L 100.0,66.50026550000001" fill="none" instance-id="-1" semantic-id="1" stroke="rgb(0,178,178)" stroke-width="0.1"/>
  <path d="M 92.00512050000009,68.50026550000001 L 100.0,68.50026550000001" fill="none" instance-id="-1" semantic-id="1" stroke="rgb(0,178,178)" stroke-width="0.1"/>
  <path d="M 45.00512050000009,66.50026550000001 L 46.00512050000009,66.50026550000001" fill="none" instance-id="-1" semantic-id="1" stroke="rgb(0,178,178)" stroke-width="0.1"/>
  <path d="M 6.005120500000089,66.50026550000001 L 7.005120500000089,66.50026550000001" fill="none" instance-id="-1" semantic-id="1" stroke="rgb(0,178,178)" stroke-width="0.1"/>
  <path d="M 17.00512050000009,66.50026550000001 L 18.00512050000009,66.50026550000001" fill="none" instance-id="-1" semantic-id="1" stroke="rgb(0,178,178)" stroke-width="0.1"/>
  <path d="M 34.00512050000009,66.50026550000001 L 35.00512050000009,66.50026550000001" fill="none" instance-id="-1" semantic-id="1" stroke="rgb(0,178,178)" stroke-width="0.1"/>
  <path d="M 62.00512050000009,66.50026550000001 L 63.00512050000009,66.50026550000001" fill="none" instance-id="-1" semantic-id="1" stroke="rgb(0,178,178)" stroke-width="0.1"/>
  <path d="M 73.00512050000009,66.50026550000001 L 74.00512050000009,66.50026550000001" fill="none" instance-id="-1" semantic-id="1" stroke="rgb(0,178,178)" stroke-width="0.1"/>
  <path d="M 90.00512050000009,66.50026550000001 L 91.00512050000009,66.50026550000001" fill="none" instance-id="-1" semantic-id="1" stroke="rgb(0,178,178)" stroke-width="0.1"/>
  <path d="M 0.0,8.250265500000012 L 100.0,8.250265500000012" fill="none" instance-id="-1" semantic-id="1" stroke="rgb(0,178,178)" stroke-width="0.1"/>
  <path d="M 100.0,6.250265500000012 L 0.0,6.250265500000012" fill="none" instance-id="-1" semantic-id="1" stroke="rgb(0,178,178)" stroke-width="0.1"/>
  <path d="M 90.00512050000009,72.50026550000001 L 92.00512050000009,72.50026550000001" fill="none" instance-id="-1" semantic-id="1" stroke="rgb(0,178,178)" stroke-width="0.1"/>
  <path d="M 92.00512050000009,72.50026550000001 L 92.00512050000009,66.50026550000001" fill="none" instance-id="-1" semantic-id="1" stroke="rgb(0,178,178)" stroke-width="0.1"/>
  <path d="M 92.00512050000009,66.50026550000001 L 90.00512050000009,66.50026550000001" fill="none" instance-id="-1" semantic-id="1" stroke="rgb(0,178,178)" stroke-width="0.1"/>
  <path d="M 90.00512050000009,66.50026550000001 L 90.00512050000009,72.50026550000001" fill="none" instance-id="-1" semantic-id="1" stroke="rgb(0,178,178)" stroke-width="0.1"/>
  <path d="M 72.00512050000009,72.50026550000001 L 74.00512050000009,72.50026550000001" fill="none" instance-id="-1" semantic-id="1" stroke="rgb(0,178,178)" stroke-width="0.1"/>
  <path d="M 74.00512050000009,72.50026550000001 L 74.00512050000009,66.50026550000001" fill="none" instance-id="-1" semantic-id="1" stroke="rgb(0,178,178)" stroke-width="0.1"/>
  <path d="M 74.00512050000009,66.50026550000001 L 72.00512050000009,66.50026550000001" fill="none" instance-id="-1" semantic-id="1" stroke="rgb(0,178,178)" stroke-width="0.1"/>
  <path d="M 72.00512050000009,66.50026550000001 L 72.00512050000009,72.50026550000001" fill="none" instance-id="-1" semantic-id="1" stroke="rgb(0,178,178)" stroke-width="0.1"/>
  <path d="M 62.00512050000009,72.50026550000001 L 64.00512050000009,72.50026550000001" fill="none" instance-id="-1" semantic-id="1" stroke="rgb(0,178,178)" stroke-width="0.1"/>
  <path d="M 64.00512050000009,72.50026550000001 L 64.00512050000009,66.50026550000001" fill="none" instance-id="-1" semantic-id="1" stroke="rgb(0,178,178)" stroke-width="0.1"/>
  <path d="M 64.00512050000009,66.50026550000001 L 62.00512050000009,66.50026550000001" fill="none" instance-id="-1" semantic-id="1" stroke="rgb(0,178,178)" stroke-width="0.1"/>
  <path d="M 62.00512050000009,66.50026550000001 L 62.00512050000009,72.50026550000001" fill="none" instance-id="-1" semantic-id="1" stroke="rgb(0,178,178)" stroke-width="0.1"/>
  <path d="M 44.00512050000009,72.50026550000001 L 46.00512050000009,72.50026550000001" fill="none" instance-id="-1" semantic-id="1" stroke="rgb(0,178,178)" stroke-width="0.1"/>
  <path d="M 46.00512050000009,72.50026550000001 L 46.00512050000009,66.50026550000001" fill="none" instance-id="-1" semantic-id="1" stroke="rgb(0,178,178)" stroke-width="0.1"/>
  <path d="M 46.00512050000009,66.50026550000001 L 44.00512050000009,66.50026550000001" fill="none" instance-id="-1" semantic-id="1" stroke="rgb(0,178,178)" stroke-width="0.1"/>
  <path d="M 44.00512050000009,66.50026550000001 L 44.00512050000009,72.50026550000001" fill="none" instance-id="-1" semantic-id="1" stroke="rgb(0,178,178)" stroke-width="0.1"/>
  <path d="M 34.00512050000009,72.50026550000001 L 36.00512050000009,72.50026550000001" fill="none" instance-id="-1" semantic-id="1" stroke="rgb(0,178,178)" stroke-width="0.1"/>
  <path d="M 36.00512050000009,72.50026550000001 L 36.00512050000009,66.50026550000001" fill="none" instance-id="-1" semantic-id="1" stroke="rgb(0,178,178)" stroke-width="0.1"/>
  <path d="M 36.00512050000009,66.50026550000001 L 34.00512050000009,66.50026550000001" fill="none" instance-id="-1" semantic-id="1" stroke="rgb(0,178,178)" stroke-width="0.1"/>
  <path d="M 34.00512050000009,66.50026550000001 L 34.00512050000009,72.50026550000001" fill="none" instance-id="-1" semantic-id="1" stroke="rgb(0,178,178)" stroke-width="0.1"/>
  <path d="M 16.00512050000009,72.50026550000001 L 18.00512050000009,72.50026550000001" fill="none" instance-id="-1" semantic-id="1" stroke="rgb(0,178,178)" stroke-width="0.1"/>
  <path d="M 18.00512050000009,72.50026550000001 L 18.00512050000009,66.50026550000001" fill="none" instance-id="-1" semantic-id="1" stroke="rgb(0,178,178)" stroke-width="0.1"/>
  <path d="M 18.00512050000009,66.50026550000001 L 16.00512050000009,66.50026550000001" fill="none" instance-id="-1" semantic-id="1" stroke="rgb(0,178,178)" stroke-width="0.1"/>
  <path d="M 16.00512050000009,66.50026550000001 L 16.00512050000009,72.50026550000001" fill="none" instance-id="-1" semantic-id="1" stroke="rgb(0,178,178)" stroke-width="0.1"/>
  <path d="M 6.005120500000089,72.50026550000001 L 8.00512050000009,72.50026550000001" fill="none" instance-id="-1" semantic-id="1" stroke="rgb(0,178,178)" stroke-width="0.1"/>
  <path d="M 8.00512050000009,72.50026550000001 L 8.00512050000009,66.50026550000001" fill="none" instance-id="-1" semantic-id="1" stroke="rgb(0,178,178)" stroke-width="0.1"/>
  <path d="M 8.00512050000009,66.50026550000001 L 6.005120500000089,66.50026550000001" fill="none" instance-id="-1" semantic-id="1" stroke="rgb(0,178,178)" stroke-width="0.1"/>
  <path d="M 6.005120500000089,66.50026550000001 L 6.005120500000089,72.50026550000001" fill="none" instance-id="-1" semantic-id="1" stroke="rgb(0,178,178)" stroke-width="0.1"/>
 </g>
 <g id="layerWINDOW" inkscape:groupmode="layer" inkscape:label="WINDOW">
  <path d="M 46.00512050000009,66.50026550000001 L 46.00512050000009,68.50026550000001" fill="none" instance-id="3" semantic-id="9" stroke="rgb(178,178,0)" stroke-width="0.1"/>
  <path d="M 62.00512050000009,68.50026550000001 L 62.00512050000009,66.50026550000001" fill="none" instance-id="3" semantic-id="9" stroke="rgb(178,178,0)" stroke-width="0.1"/>
  <path d="M 46.00512050000009,67.83326549999998 L 62.00512050000009,67.83326549999998" fill="none" instance-id="3" semantic-id="9" stroke="rgb(178,178,0)" stroke-width="0.1"/>
  <path d="M 46.00512050000009,67.16626550000001 L 62.00512050000009,67.16626550000001" fill="none" instance-id="3" semantic-id="9" stroke="rgb(178,178,0)" stroke-width="0.1"/>
  <path d="M 62.00512050000009,66.50026550000001 L 46.00512050000009,66.50026550000001" fill="none" instance-id="3" semantic-id="9" stroke="rgb(178,178,0)" stroke-width="0.1"/>
  <path d="M 62.00512050000009,68.50026550000001 L 46.00512050000009,68.50026550000001" fill="none" instance-id="3" semantic-id="9" stroke="rgb(178,178,0)" stroke-width="0.1"/>
  <path d="M 74.00512050000009,66.50026550000001 L 74.00512050000009,68.50026550000001" fill="none" instance-id="4" semantic-id="9" stroke="rgb(178,178,0)" stroke-width="0.1"/>
  <path d="M 90.00512050000009,68.50026550000001 L 90.00512050000009,66.50026550000001" fill="none" instance-id="4" semantic-id="9" stroke="rgb(178,178,0)" stroke-width="0.1"/>
  <path d="M 74.00512050000009,67.83326549999998 L 90.00512050000009,67.83326549999998" fill="none" instance-id="4" semantic-id="9" stroke="rgb(178,178,0)" stroke-width="0.1"/>
  <path d="M 74.00512050000009,67.16626550000001 L 90.00512050000009,67.16626550000001" fill="none" instance-id="4" semantic-id="9" stroke="rgb(178,178,0)" stroke-width="0.1"/>
  <path d="M 90.00512050000009,66.50026550000001 L 74.00512050000009,66.50026550000001" fill="none" instance-id="4" semantic-id="9" stroke="rgb(178,178,0)" stroke-width="0.1"/>
  <path d="M 90.00512050000009,68.50026550000001 L 74.00512050000009,68.50026550000001" fill="none" instance-id="4" semantic-id="9" stroke="rgb(178,178,0)" stroke-width="0.1"/>
  <path d="M 34.00512050000009,66.50026550000001 L 34.00512050000009,68.50026550000001" fill="none" instance-id="2" semantic-id="9" stroke="rgb(178,178,0)" stroke-width="0.1"/>
  <path d="M 18.00512050000009,68.50026550000001 L 18.00512050000009,66.50026550000001" fill="none" instance-id="2" semantic-id="9" stroke="rgb(178,178,0)" stroke-width="0.1"/>
  <path d="M 34.00512050000009,67.83326549999998 L 18.00512050000009,67.83326549999998" fill="none" instance-id="2" semantic-id="9" stroke="rgb(178,178,0)" stroke-width="0.1"/>
  <path d="M 34.00512050000009,67.16626550000001 L 18.00512050000009,67.16626550000001" fill="none" instance-id="2" semantic-id="9" stroke="rgb(178,178,0)" stroke-width="0.1"/>
  <path d="M 18.00512050000009,66.50026550000001 L 34.00512050000009,66.50026550000001" fill="none" instance-id="2" semantic-id="9" stroke="rgb(178,178,0)" stroke-width="0.1"/>
  <path d="M 18.00512050000009,68.50026550000001 L 34.00512050000009,68.50026550000001" fill="none" instance-id="2" semantic-id="9" stroke="rgb(178,178,0)" stroke-width="0.1"/>
  <path d="M 6.005120500000089,66.50026550000001 L 6.005120500000089,68.50026550000001" fill="none" stroke="rgb(178,178,0)" stroke-width="0.1"/>
  <path d="M 6.005120500000089,67.83326549999998 L 0.0,67.83326549999998" fill="none" stroke="rgb(178,178,0)" stroke-width="0.1"/>
  <path d="M 6.005120500000089,67.16626550000001 L 0.0,67.16626550000001" fill="none" stroke="rgb(178,178,0)" stroke-width="0.1"/>
  <path d="M 0.0,66.50026550000001 L 6.005120500000089,66.50026550000001" fill="none" stroke="rgb(178,178,0)" stroke-width="0.1"/>
  <path d="M 0.0,68.50026550000001 L 6.005120500000089,68.50026550000001" fill="none" stroke="rgb(178,178,0)" stroke-width="0.1"/>
 </g>
 <g id="layerWINDOW_TEXT" inkscape:groupmode="layer" inkscape:label="WINDOW_TEXT">
  <text fill="rgb(0,0,0)" font-family="Noto Sans CJK SC" font-size="2" transform="rotate(-0.0,49.405120500000066,64.05926549999998)" x="49.405120500000066" y="64.05926549999998">
   C1624
  </text>
  <text fill="rgb(0,0,0)" font-family="Noto Sans CJK SC" font-size="2" transform="rotate(-0.0,77.40512050000007,64.05926549999998)" x="77.40512050000007" y="64.05926549999998">
   C1624
  </text>
  <text fill="rgb(0,0,0)" font-family="Noto Sans CJK SC" font-size="2" transform="rotate(-0.0,21.405120500000066,64.05926549999998)" x="21.405120500000066" y="64.05926549999998">
   C1624
  </text>
 </g>
 <g id="layer看线" inkscape:groupmode="layer" inkscape:label="看线">
  <path d="M 0.0,72.50026550000001 L 100.0,72.50026550000001" fill="none" stroke="rgb(53,107,160)" stroke-width="0.1"/>
 </g>
</svg>