<?xml version="1.0" encoding="utf-8"?>
<svg style="background-color: #000;" version="1.1" viewBox="0 0 100.0 100.0" xmlns="http://www.w3.org/2000/svg" xmlns:inkscape="http://www.inkscape.org/namespaces/inkscape">
 <g id="layerCOLUMN" inkscape:groupmode="layer" inkscape:label="COLUMN">
  <path d="M 47.57587100000001,7.464445000000012 L 55.57587100000001,7.464445000000012" fill="none" stroke="rgb(0,178,178)" stroke-width="0.1"/>
  <path d="M 55.57587100000001,7.464445000000012 L 55.57587100000001,0.0" fill="none" stroke="rgb(0,178,178)" stroke-width="0.1"/>
  <path d="M 47.57587100000001,0.0 L 47.57587100000001,7.464445000000012" fill="none" stroke="rgb(0,178,178)" stroke-width="0.1"/>
  <path d="M 47.57587100000001,91.46444500000001 L 55.57587100000001,91.46444500000001" fill="none" stroke="rgb(0,178,178)" stroke-width="0.1"/>
  <path d="M 55.57587100000001,91.46444500000001 L 55.57587100000001,82.96444500000001" fill="none" stroke="rgb(0,178,178)" stroke-width="0.1"/>
  <path d="M 55.57587100000001,82.96444500000001 L 47.57587100000001,82.96444500000001" fill="none" stroke="rgb(0,178,178)" stroke-width="0.1"/>
  <path d="M 47.57587100000001,82.96444500000001 L 47.57587100000001,91.46444500000001" fill="none" stroke="rgb(0,178,178)" stroke-width="0.1"/>
 </g>
 <g id="layerDIM_ELEV" inkscape:groupmode="layer" inkscape:label="DIM_ELEV">
  <path d="M 87.91587099999998,64.86444499999999 L 84.91587099999998,61.86444499999999" fill="none" stroke="rgb(0,178,0)" stroke-width="0.1"/>
  <path d="M 87.91587099999998,64.86444499999999 L 90.91587099999998,61.86444499999999" fill="none" stroke="rgb(0,178,0)" stroke-width="0.1"/>
  <path d="M 84.91587099999998,61.86444499999999 L 100.0,61.86444499999999" fill="none" stroke="rgb(0,178,0)" stroke-width="0.1"/>
 </g>
 <g id="layerDOTE" inkscape:groupmode="layer" inkscape:label="DOTE">
  <path d="M 0.0,87.21444500000001 L 100.0,87.21444500000001" fill="none" stroke="rgb(178,0,0)" stroke-width="0.1"/>
  <path d="M 0.0,3.214445000000012 L 100.0,3.214445000000012" fill="none" stroke="rgb(178,0,0)" stroke-width="0.1"/>
  <path d="M 51.57587100000001,100.0 L 51.57587100000001,0.0" fill="none" stroke="rgb(178,0,0)" stroke-width="0.1"/>
 </g>
 <g id="layerPUB_DIM" inkscape:groupmode="layer" inkscape:label="PUB_DIM">
  <path d="M 0.0,91.46444500000001 L 7.994870999999989,91.46444500000001" fill="none" stroke="rgb(0,178,0)" stroke-width="0.1"/>
  <path d="M 5.494870999999989,100.0 L 5.494870999999989,91.46444500000001" fill="none" stroke="rgb(0,178,0)" stroke-width="0.1"/>
  <path d="M 0.0,91.46444500000001 L 7.994870999999989,91.46444500000001" fill="none" stroke="rgb(0,178,0)" stroke-width="0.1"/>
  <path d="M 0.0,87.21444500000001 L 7.994870999999989,87.21444500000001" fill="none" stroke="rgb(0,178,0)" stroke-width="0.1"/>
  <path d="M 5.494870999999989,91.46444500000001 L 5.494870999999989,87.21444500000001" fill="none" stroke="rgb(0,178,0)" stroke-width="0.1"/>
  <path d="M 0.0,87.21444500000001 L 7.994870999999989,87.21444500000001" fill="none" stroke="rgb(0,178,0)" stroke-width="0.1"/>
  <path d="M 0.0,52.712445 L 7.994870999999989,52.712445" fill="none" stroke="rgb(0,178,0)" stroke-width="0.1"/>
  <path d="M 5.494870999999989,87.21444500000001 L 5.494870999999989,52.712445" fill="none" stroke="rgb(0,178,0)" stroke-width="0.1"/>
  <path d="M 0.0,52.712445 L 7.994870999999989,52.712445" fill="none" stroke="rgb(0,178,0)" stroke-width="0.1"/>
  <path d="M 0.0,37.712445 L 7.994870999999989,37.712445" fill="none" stroke="rgb(0,178,0)" stroke-width="0.1"/>
  <path d="M 5.494870999999989,52.712445 L 5.494870999999989,37.712445" fill="none" stroke="rgb(0,178,0)" stroke-width="0.1"/>
  <path d="M 0.0,37.712445 L 7.994870999999989,37.712445" fill="none" stroke="rgb(0,178,0)" stroke-width="0.1"/>
  <path d="M 0.0,3.214445000000012 L 7.994870999999989,3.214445000000012" fill="none" stroke="rgb(0,178,0)" stroke-width="0.1"/>
  <path d="M 5.494870999999989,37.712445 L 5.494870999999989,3.214445000000012" fill="none" stroke="rgb(0,178,0)" stroke-width="0.1"/>
  <path d="M 0.0,3.214445000000012 L 7.994870999999989,3.214445000000012" fill="none" stroke="rgb(0,178,0)" stroke-width="0.1"/>
  <path d="M 5.494870999999989,3.214445000000012 L 5.494870999999989,0.0" fill="none" stroke="rgb(0,178,0)" stroke-width="0.1"/>
  <text fill="rgb(0,178,0)" font-family="Noto Sans CJK SC" font-size="2" transform="rotate(-90.0,1.3198709999999778,92.76744500000001)" x="1.3198709999999778" y="92.76744500000001">
   425
  </text>
  <text fill="rgb(0,178,0)" font-family="Noto Sans CJK SC" font-size="2" transform="rotate(-90.0,3.994870999999989,74.534445)" x="3.994870999999989" y="74.534445">
   3450
  </text>
  <text fill="rgb(0,178,0)" font-family="Noto Sans CJK SC" font-size="2" transform="rotate(-90.0,3.994870999999989,49.955445)" x="3.994870999999989" y="49.955445">
   1500
  </text>
  <text fill="rgb(0,178,0)" font-family="Noto Sans CJK SC" font-size="2" transform="rotate(-90.0,3.994870999999989,25.034445000000005)" x="3.994870999999989" y="25.034445000000005">
   3450
  </text>
  <text fill="rgb(0,178,0)" font-family="Noto Sans CJK SC" font-size="2" transform="rotate(-90.0,1.3198709999999778,4.517445000000009)" x="1.3198709999999778" y="4.517445000000009">
   425
  </text>
 </g>
 <g id="layerPUB_TEXT" inkscape:groupmode="layer" inkscape:label="PUB_TEXT">
  <text fill="rgb(0,178,0)" font-family="Noto Sans CJK SC" font-size="2" transform="rotate(-0.0,91.86587099999997,60.36344500000001)" x="91.86587099999997" y="60.36344500000001">
   5.500
  </text>
  <text fill="rgb(0,178,0)" font-family="Noto Sans CJK SC" font-size="2" transform="rotate(-0.0,92.450871,47.461445)" x="92.450871" y="47.461445">
   办公
  </text>
 </g>
</svg>