<?xml version="1.0" encoding="utf-8"?>
<svg style="background-color: #000;" version="1.1" viewBox="0 0 100.00000000000006 100.0" xmlns="http://www.w3.org/2000/svg" xmlns:inkscape="http://www.inkscape.org/namespaces/inkscape">
 <g id="layerAX-01-B01-100$0$A-Anno-Dims" inkscape:groupmode="layer" inkscape:label="AX-01-B01-100$0$A-Anno-Dims">
  <path d="M 55.32374150000004,12.149863500000038 L 55.32374150000004,8.10086350000006" fill="none" stroke="rgb(255,12,12)" stroke-width="0.1"/>
 </g>
 <g id="layerAX-01-B01-100$0$A-Flor" inkscape:groupmode="layer" inkscape:label="AX-01-B01-100$0$A-Flor">
  <path d="M 0.0,82.64986350000004 L 95.32374150000004,82.64986350000004" fill="none" stroke="rgb(0,0,178)" stroke-width="0.1"/>
 </g>
 <g id="layerAX-01-B01-100$0$A-Spac-Area-Auto" inkscape:groupmode="layer" inkscape:label="AX-01-B01-100$0$A-Spac-Area-Auto">
  <text fill="rgb(178,0,0)" font-family="Noto Sans CJK SC" font-size="2" transform="rotate(-0.0,69.98974149999998,1.1908635000000913)" x="69.98974149999998" y="1.1908635000000913">
   6.15m2
  </text>
  <text fill="rgb(12,255,73)" font-family="Noto Sans CJK SC" font-size="2" transform="rotate(-0.0,77.80574150000001,51.86386350000009)" x="77.80574150000001" y="51.86386350000009">
   6.13m2
  </text>
  <text fill="rgb(12,255,73)" font-family="Noto Sans CJK SC" font-size="2" transform="rotate(-0.0,58.57674149999997,51.64986350000004)" x="58.57674149999997" y="51.64986350000004">
   9.01m2
  </text>
  <text fill="rgb(12,255,73)" font-family="Noto Sans CJK SC" font-size="2" transform="rotate(-0.0,75.79874149999995,24.149863500000038)" x="75.79874149999995" y="24.149863500000038">
   3.61m2
  </text>
  <text fill="rgb(178,0,0)" font-family="Noto Sans CJK SC" font-size="2" transform="rotate(-0.0,54.091741499999955,5.649863500000038)" x="54.091741499999955" y="5.649863500000038">
   1.44m2
  </text>
  <text fill="rgb(12,255,73)" font-family="Noto Sans CJK SC" font-size="2" transform="rotate(-0.0,64.87074149999995,76.01386350000007)" x="64.87074149999995" y="76.01386350000007">
   6.16m2
  </text>
 </g>
 <g id="layerAX-01-B01-100$0$A-Spac-Iden-Auto" inkscape:groupmode="layer" inkscape:label="AX-01-B01-100$0$A-Spac-Iden-Auto">
  <text fill="rgb(255,12,133)" font-family="Noto Sans CJK SC" font-size="2" transform="rotate(-0.0,65.86174149999994,73.76386350000007)" x="65.86174149999994" y="73.76386350000007">
   蓄水池检修人孔
  </text>
  <text fill="rgb(255,12,133)" font-family="Noto Sans CJK SC" font-size="2" transform="rotate(-0.0,77.60274150000004,47.11386350000009)" x="77.60274150000004" y="47.11386350000009">
   B1-8弱电井
  </text>
  <text fill="rgb(255,12,133)" font-family="Noto Sans CJK SC" font-size="2" transform="rotate(-0.0,58.373741499999994,46.89986350000004)" x="58.373741499999994" y="46.89986350000004">
   B1-8强电井
  </text>
  <text fill="rgb(255,12,133)" font-family="Noto Sans CJK SC" font-size="2" transform="rotate(-0.0,81.25174150000004,20.87086350000004)" x="81.25174150000004" y="20.87086350000004">
   走道
  </text>
  <text fill="rgb(255,12,133)" font-family="Noto Sans CJK SC" font-size="2" transform="rotate(-0.0,58.66374149999996,0.5238635000000613)" x="58.66374149999996" y="0.5238635000000613">
   进风井
  </text>
  <text fill="rgb(255,12,133)" font-family="Noto Sans CJK SC" font-size="2" transform="rotate(-0.0,98.49974149999997,18.41686350000009)" x="98.49974149999997" y="18.41686350000009">
   空调水井
  </text>
 </g>
 <g id="layerAX-01-B01-100$0$A-Wall" inkscape:groupmode="layer" inkscape:label="AX-01-B01-100$0$A-Wall">
  <path d="M 0.0,83.14986350000004 L 95.32374150000004,83.14986350000004" fill="none" instance-id="-1" semantic-id="33" stroke="rgb(178,178,0)" stroke-width="0.1"/>
  <path d="M 0.0,84.14986350000004 L 95.32374150000004,84.14986350000004" fill="none" instance-id="-1" semantic-id="33" stroke="rgb(178,178,0)" stroke-width="0.1"/>
 </g>
 <g id="layerAX-01-B01-100$0$A-Wind-Iden" inkscape:groupmode="layer" inkscape:label="AX-01-B01-100$0$A-Wind-Iden">
  <text fill="rgb(255,12,12)" font-family="Noto Sans CJK SC" font-size="2" transform="rotate(-0.0,78.77374149999997,15.407863500000076)" x="78.77374149999997" y="15.407863500000076">
   FM乙1222
  </text>
  <text fill="rgb(255,12,12)" font-family="Noto Sans CJK SC" font-size="2" transform="rotate(-90.0,73.44874150000004,28.699863499999992)" x="73.44874150000004" y="28.699863499999992">
   FM丙0818
  </text>
  <text fill="rgb(255,12,12)" font-family="Noto Sans CJK SC" font-size="2" transform="rotate(-1.36633e-07,79.77374149999997,33.74586350000004)" x="79.77374149999997" y="33.74586350000004">
   FM丙0818
  </text>
  <text fill="rgb(255,12,12)" font-family="Noto Sans CJK SC" font-size="2" transform="rotate(-90.0,93.78774149999998,29.177863500000058)" x="93.78774149999998" y="29.177863500000058">
   FM丙0818
  </text>
 </g>
 <g id="layerAX-01-B01-100$0$AX-A-B-P01$0$A-Strs" inkscape:groupmode="layer" inkscape:label="AX-01-B01-100$0$AX-A-B-P01$0$A-Strs">
  <path d="M 59.32374150000004,79.14986350000004 L 59.32374150000004,75.14986350000004" fill="none" stroke="rgb(12,133,255)" stroke-width="0.1"/>
  <path d="M 59.32374150000004,75.14986350000004 L 64.32374150000004,75.14986350000004" fill="none" stroke="rgb(12,133,255)" stroke-width="0.1"/>
  <path d="M 64.32374150000004,75.14986350000004 L 64.32374150000004,79.14986350000004" fill="none" stroke="rgb(12,133,255)" stroke-width="0.1"/>
 </g>
 <g id="layerAX-01-B01-100$0$AX-B-P02-LN$0$A-Detl-Medm" inkscape:groupmode="layer" inkscape:label="AX-01-B01-100$0$AX-B-P02-LN$0$A-Detl-Medm">
  <path d="M 87.32374150000004,32.14986350000004 L 87.32374150000004,30.150863500000014" fill="none" stroke="rgb(178,133,0)" stroke-width="0.1"/>
  <path d="M 87.32374150000004,30.150863500000014 L 88.82374150000004,30.150863500000014" fill="none" stroke="rgb(178,133,0)" stroke-width="0.1"/>
  <path d="M 88.82374150000004,30.150863500000014 L 88.82374150000004,28.149863500000038" fill="none" stroke="rgb(178,133,0)" stroke-width="0.1"/>
  <path d="M 88.82374150000004,28.149863500000038 L 87.32374150000004,28.149863500000038" fill="none" stroke="rgb(178,133,0)" stroke-width="0.1"/>
  <path d="M 87.32374150000004,28.149863500000038 L 87.32374150000004,26.149863500000038" fill="none" stroke="rgb(178,133,0)" stroke-width="0.1"/>
  <path d="M 97.82274149999995,25.30086349999999 L 95.82374150000004,25.30086349999999" fill="none" stroke="rgb(178,133,0)" stroke-width="0.1"/>
  <path d="M 95.82374150000004,25.30086349999999 L 95.82374150000004,23.80086349999999" fill="none" stroke="rgb(178,133,0)" stroke-width="0.1"/>
  <path d="M 95.82374150000004,23.80086349999999 L 93.82274149999995,23.80086349999999" fill="none" stroke="rgb(178,133,0)" stroke-width="0.1"/>
  <path d="M 93.82274149999995,23.80086349999999 L 93.82274149999995,25.30086349999999" fill="none" stroke="rgb(178,133,0)" stroke-width="0.1"/>
  <path d="M 93.82274149999995,25.30086349999999 L 91.82274149999995,25.30086349999999" fill="none" stroke="rgb(178,133,0)" stroke-width="0.1"/>
  <path d="M 78.32274149999995,25.30086349999999 L 76.32374150000004,25.30086349999999" fill="none" stroke="rgb(178,133,0)" stroke-width="0.1"/>
  <path d="M 76.32374150000004,25.30086349999999 L 76.32374150000004,23.80086349999999" fill="none" stroke="rgb(178,133,0)" stroke-width="0.1"/>
  <path d="M 76.32374150000004,23.80086349999999 L 74.32274149999995,23.80086349999999" fill="none" stroke="rgb(178,133,0)" stroke-width="0.1"/>
  <path d="M 74.32274149999995,23.80086349999999 L 74.32274149999995,25.30086349999999" fill="none" stroke="rgb(178,133,0)" stroke-width="0.1"/>
  <path d="M 74.32274149999995,25.30086349999999 L 72.32274149999995,25.30086349999999" fill="none" stroke="rgb(178,133,0)" stroke-width="0.1"/>
 </g>
 <g id="layerAX-01-B01-100$0$AX-B-P02-LN$0$AX-DK-X01$0$A-Wall-Patt" inkscape:groupmode="layer" inkscape:label="AX-01-B01-100$0$AX-B-P02-LN$0$AX-DK-X01$0$A-Wall-Patt">
  <path d="M 87.01074149999994,30.091863500000045 L 86.95574149999999,30.0408635" fill="none" stroke="rgb(160,53,53)" stroke-width="0.1"/>
  <path d="M 86.34874150000002,29.48186350000003 L 86.32374150000004,29.458863500000007" fill="none" stroke="rgb(160,53,53)" stroke-width="0.1"/>
  <path d="M 87.76874149999998,29.987863500000003 L 87.71274149999994,29.936863500000072" fill="none" stroke="rgb(160,53,53)" stroke-width="0.1"/>
  <path d="M 87.10674149999994,29.37786349999999 L 87.05074150000002,29.32686350000006" fill="none" stroke="rgb(160,53,53)" stroke-width="0.1"/>
  <path d="M 86.44374150000004,28.768863500000066 L 86.38874149999998,28.71786350000002" fill="none" stroke="rgb(160,53,53)" stroke-width="0.1"/>
  <path d="M 88.52574150000004,29.883863500000075 L 88.47074149999997,29.83286350000003" fill="none" stroke="rgb(160,53,53)" stroke-width="0.1"/>
  <path d="M 87.8637415,29.27386350000006 L 87.80874149999994,29.223863499999993" fill="none" stroke="rgb(160,53,53)" stroke-width="0.1"/>
  <path d="M 87.20174149999997,28.664863500000024 L 87.14674150000002,28.613863500000093" fill="none" stroke="rgb(160,53,53)" stroke-width="0.1"/>
  <path d="M 88.62174150000004,29.16986350000002 L 88.56674149999998,29.119863500000065" fill="none" stroke="rgb(160,53,53)" stroke-width="0.1"/>
  <path d="M 87.9597415,28.560863499999982 L 87.90474149999994,28.50986350000005" fill="none" stroke="rgb(160,53,53)" stroke-width="0.1"/>
  <path d="M 88.71774150000005,28.456863500000054 L 88.66274149999998,28.40586350000001" fill="none" stroke="rgb(160,53,53)" stroke-width="0.1"/>
  <path d="M 86.34874150000002,29.48186350000003 L 86.35674149999994,29.422863500000062" fill="none" stroke="rgb(160,53,53)" stroke-width="0.1"/>
  <path d="M 86.44474150000002,28.768863500000066 L 86.45274149999995,28.708863500000007" fill="none" stroke="rgb(160,53,53)" stroke-width="0.1"/>
  <path d="M 87.01074149999994,30.091863500000045 L 87.01874149999998,30.032863500000076" fill="none" stroke="rgb(160,53,53)" stroke-width="0.1"/>
  <path d="M 87.10674149999994,29.37786349999999 L 87.11474149999998,29.31886350000002" fill="none" stroke="rgb(160,53,53)" stroke-width="0.1"/>
  <path d="M 87.20174149999997,28.664863500000024 L 87.2097415,28.60486350000008" fill="none" stroke="rgb(160,53,53)" stroke-width="0.1"/>
  <path d="M 87.76874149999998,29.987863500000003 L 87.77674150000001,29.928863500000034" fill="none" stroke="rgb(160,53,53)" stroke-width="0.1"/>
  <path d="M 87.8637415,29.274863500000038 L 87.87174150000004,29.214863500000092" fill="none" stroke="rgb(160,53,53)" stroke-width="0.1"/>
  <path d="M 87.9597415,28.560863499999982 L 87.96774150000005,28.500863500000037" fill="none" stroke="rgb(160,53,53)" stroke-width="0.1"/>
  <path d="M 88.52574150000004,29.883863500000075 L 88.53374149999996,29.824863499999992" fill="none" stroke="rgb(160,53,53)" stroke-width="0.1"/>
  <path d="M 88.62174150000004,29.170863499999996 L 88.62974149999997,29.11086350000005" fill="none" stroke="rgb(160,53,53)" stroke-width="0.1"/>
  <path d="M 88.71774150000005,28.456863500000054 L 88.72574149999997,28.397863500000085" fill="none" stroke="rgb(160,53,53)" stroke-width="0.1"/>
  <path d="M 88.70674149999996,30.008863500000075 L 88.64374149999998,30.01786350000009" fill="none" stroke="rgb(160,53,53)" stroke-width="0.1"/>
  <path d="M 87.94974150000002,30.112863500000003 L 87.88574149999994,30.121863500000018" fill="none" stroke="rgb(160,53,53)" stroke-width="0.1"/>
  <path d="M 88.80274149999997,29.295863499999996 L 88.73974149999998,29.303863500000034" fill="none" stroke="rgb(160,53,53)" stroke-width="0.1"/>
  <path d="M 88.04474150000004,29.399863500000038 L 87.98174149999994,29.407863500000076" fill="none" stroke="rgb(160,53,53)" stroke-width="0.1"/>
  <path d="M 87.28774149999998,29.50286349999999 L 87.22374150000002,29.511863500000004" fill="none" stroke="rgb(160,53,53)" stroke-width="0.1"/>
  <path d="M 86.52974149999994,29.60686350000003 L 86.46674149999996,29.615863500000046" fill="none" stroke="rgb(160,53,53)" stroke-width="0.1"/>
  <path d="M 88.14074150000005,28.685863499999982 L 88.07774149999995,28.694863499999997" fill="none" stroke="rgb(160,53,53)" stroke-width="0.1"/>
  <path d="M 87.38274150000001,28.789863500000024 L 87.31974150000002,28.797863500000062" fill="none" stroke="rgb(160,53,53)" stroke-width="0.1"/>
  <path d="M 86.62574149999995,28.893863500000066 L 86.56174149999998,28.90186349999999" fill="none" stroke="rgb(160,53,53)" stroke-width="0.1"/>
  <path d="M 86.72074149999997,28.17986350000001 L 86.65774149999999,28.188863500000025" fill="none" stroke="rgb(160,53,53)" stroke-width="0.1"/>
  <path d="M 87.91474150000005,30.14886350000006 L 87.90974149999994,30.14286350000009" fill="none" stroke="rgb(160,53,53)" stroke-width="0.1"/>
  <path d="M 87.05674149999999,29.24586350000004 L 86.97974149999999,29.163863500000048" fill="none" stroke="rgb(160,53,53)" stroke-width="0.1"/>
  <path d="M 88.20174149999997,29.1658635 L 88.1237415,29.083863500000007" fill="none" stroke="rgb(160,53,53)" stroke-width="0.1"/>
  <path d="M 87.27174150000002,28.186863500000072 L 87.23374150000001,28.146863499999995" fill="none" stroke="rgb(160,53,53)" stroke-width="0.1"/>
  <path d="M 88.82374150000004,29.289863500000024 L 88.73274150000003,29.295863499999996" fill="none" stroke="rgb(160,53,53)" stroke-width="0.1"/>
  <path d="M 87.68374149999994,29.36886350000009 L 87.58874150000003,29.375863500000037" fill="none" stroke="rgb(160,53,53)" stroke-width="0.1"/>
  <path d="M 86.53974150000005,29.448863500000016 L 86.44374150000004,29.455863500000078" fill="none" stroke="rgb(160,53,53)" stroke-width="0.1"/>
  <path d="M 87.89874149999997,28.310863499999982 L 87.80374149999994,28.316863500000068" fill="none" stroke="rgb(160,53,53)" stroke-width="0.1"/>
  <path d="M 86.75374149999999,28.390863500000023 L 86.65874149999996,28.396863499999995" fill="none" stroke="rgb(160,53,53)" stroke-width="0.1"/>
  <path d="M 87.05674149999999,29.24586350000004 L 87.07474150000002,29.157863500000076" fill="none" stroke="rgb(160,53,53)" stroke-width="0.1"/>
  <path d="M 87.27174150000002,28.186863500000072 L 87.27974149999994,28.146863499999995" fill="none" stroke="rgb(160,53,53)" stroke-width="0.1"/>
  <path d="M 88.00274150000001,30.14886350000006 L 88.00474149999997,30.135863500000028" fill="none" stroke="rgb(160,53,53)" stroke-width="0.1"/>
  <path d="M 88.20174149999997,29.1658635 L 88.2197415,29.077863500000035" fill="none" stroke="rgb(160,53,53)" stroke-width="0.1"/>
  <path d="M 86.62474149999997,29.61886350000009 L 86.60174149999995,29.547863500000062" fill="none" stroke="rgb(160,53,53)" stroke-width="0.1"/>
  <path d="M 86.34174149999996,28.764863500000047 L 86.32374150000004,28.709863499999983" fill="none" stroke="rgb(160,53,53)" stroke-width="0.1"/>
  <path d="M 87.33774149999994,29.89586350000002 L 87.31474150000003,29.824863499999992" fill="none" stroke="rgb(160,53,53)" stroke-width="0.1"/>
  <path d="M 87.05474150000003,29.04186350000009 L 87.03074150000003,28.970863500000064" fill="none" stroke="rgb(160,53,53)" stroke-width="0.1"/>
  <path d="M 86.77174150000002,28.18786350000005 L 86.75774150000001,28.14586350000002" fill="none" stroke="rgb(160,53,53)" stroke-width="0.1"/>
  <path d="M 88.04374149999995,30.14886350000006 L 88.02774149999999,30.10086350000006" fill="none" stroke="rgb(160,53,53)" stroke-width="0.1"/>
  <path d="M 87.7677415,29.317863500000044 L 87.74474149999998,29.246863500000018" fill="none" stroke="rgb(160,53,53)" stroke-width="0.1"/>
  <path d="M 87.48474149999998,28.463863500000002 L 87.46074149999998,28.39286350000009" fill="none" stroke="rgb(160,53,53)" stroke-width="0.1"/>
  <path d="M 88.48074149999997,29.594863500000088 L 88.45774149999994,29.52386350000006" fill="none" stroke="rgb(160,53,53)" stroke-width="0.1"/>
  <path d="M 88.19774149999995,28.740863500000046 L 88.17374149999995,28.668863500000043" fill="none" stroke="rgb(160,53,53)" stroke-width="0.1"/>
  <path d="M 88.62774150000001,28.16286350000007 L 88.62274150000002,28.149863500000038" fill="none" stroke="rgb(160,53,53)" stroke-width="0.1"/>
  <path d="M 86.34174149999996,28.765863500000023 L 86.37774150000001,28.716863500000045" fill="none" stroke="rgb(160,53,53)" stroke-width="0.1"/>
  <path d="M 86.77174150000002,28.18786350000005 L 86.80174149999999,28.14586350000002" fill="none" stroke="rgb(160,53,53)" stroke-width="0.1"/>
  <path d="M 86.62474149999997,29.619863500000065 L 86.66074150000003,29.571863500000063" fill="none" stroke="rgb(160,53,53)" stroke-width="0.1"/>
  <path d="M 87.05474150000003,29.04186350000009 L 87.09074149999998,28.99386350000009" fill="none" stroke="rgb(160,53,53)" stroke-width="0.1"/>
  <path d="M 87.48474149999998,28.463863500000002 L 87.51974149999995,28.4158635" fill="none" stroke="rgb(160,53,53)" stroke-width="0.1"/>
  <path d="M 87.33774149999994,29.89586350000002 L 87.3737415,29.847863500000017" fill="none" stroke="rgb(160,53,53)" stroke-width="0.1"/>
  <path d="M 87.7677415,29.31886350000002 L 87.80374149999994,29.269863500000042" fill="none" stroke="rgb(160,53,53)" stroke-width="0.1"/>
  <path d="M 88.19774149999995,28.740863500000046 L 88.23374150000001,28.692863500000044" fill="none" stroke="rgb(160,53,53)" stroke-width="0.1"/>
  <path d="M 88.62774150000001,28.16286350000007 L 88.63674150000003,28.149863500000038" fill="none" stroke="rgb(160,53,53)" stroke-width="0.1"/>
  <path d="M 88.06874150000004,30.14886350000006 L 88.08674149999996,30.12486350000006" fill="none" stroke="rgb(160,53,53)" stroke-width="0.1"/>
  <path d="M 88.48074149999997,29.594863500000088 L 88.51674150000002,29.546863500000086" fill="none" stroke="rgb(160,53,53)" stroke-width="0.1"/>
  <path d="M 86.7917415,30.136863500000004 L 86.73274150000003,30.113863500000093" fill="none" stroke="rgb(160,53,53)" stroke-width="0.1"/>
  <path d="M 88.64874149999997,30.111863500000027 L 88.58874150000003,30.088863500000002" fill="none" stroke="rgb(160,53,53)" stroke-width="0.1"/>
  <path d="M 87.93474150000003,29.835863500000073 L 87.87574149999995,29.81286350000005" fill="none" stroke="rgb(160,53,53)" stroke-width="0.1"/>
  <path d="M 87.22174149999995,29.55886350000003 L 87.16274149999998,29.535863500000005" fill="none" stroke="rgb(160,53,53)" stroke-width="0.1"/>
  <path d="M 86.50874149999999,29.282863500000076 L 86.44974150000002,29.25986350000005" fill="none" stroke="rgb(160,53,53)" stroke-width="0.1"/>
  <path d="M 88.36474149999998,29.257863499999985 L 88.30574150000001,29.234863500000074" fill="none" stroke="rgb(160,53,53)" stroke-width="0.1"/>
  <path d="M 87.65174150000001,28.980863500000055 L 87.59274150000005,28.95786350000003" fill="none" stroke="rgb(160,53,53)" stroke-width="0.1"/>
  <path d="M 86.93874149999994,28.704863499999988 L 86.87874149999999,28.681863500000077" fill="none" stroke="rgb(160,53,53)" stroke-width="0.1"/>
  <path d="M 88.79474150000004,28.67986350000001 L 88.73474149999998,28.656863499999986" fill="none" stroke="rgb(160,53,53)" stroke-width="0.1"/>
  <path d="M 88.08174149999996,28.403863500000057 L 88.02174150000002,28.380863500000032" fill="none" stroke="rgb(160,53,53)" stroke-width="0.1"/>
  <path d="M 95.76474149999996,25.613863500000093 L 95.71374150000003,25.668863500000043" fill="none" stroke="rgb(160,53,53)" stroke-width="0.1"/>
  <path d="M 95.15474149999994,26.275863500000014 L 95.13174150000003,26.30086349999999" fill="none" stroke="rgb(160,53,53)" stroke-width="0.1"/>
  <path d="M 95.66074150000003,24.855863500000055 L 95.60974149999998,24.910863500000005" fill="none" stroke="rgb(160,53,53)" stroke-width="0.1"/>
  <path d="M 95.05074150000002,25.51786350000009 L 94.99974149999997,25.57286350000004" fill="none" stroke="rgb(160,53,53)" stroke-width="0.1"/>
  <path d="M 94.4407415,26.17986350000001 L 94.39074150000005,26.234863500000074" fill="none" stroke="rgb(160,53,53)" stroke-width="0.1"/>
  <path d="M 95.55674149999999,24.097863500000017 L 95.50574149999994,24.15286350000008" fill="none" stroke="rgb(160,53,53)" stroke-width="0.1"/>
  <path d="M 94.94674149999997,24.75986350000005 L 94.89574150000004,24.8148635" fill="none" stroke="rgb(160,53,53)" stroke-width="0.1"/>
  <path d="M 94.33774149999994,25.421863500000086 L 94.2867415,25.476863500000036" fill="none" stroke="rgb(160,53,53)" stroke-width="0.1"/>
  <path d="M 94.84274150000005,24.001863500000013 L 94.79274149999998,24.057863500000053" fill="none" stroke="rgb(160,53,53)" stroke-width="0.1"/>
  <path d="M 94.23374150000001,24.663863500000048 L 94.18274149999996,24.719863500000088" fill="none" stroke="rgb(160,53,53)" stroke-width="0.1"/>
  <path d="M 94.12974149999997,23.906863499999986 L 94.07874150000004,23.96186350000005" fill="none" stroke="rgb(160,53,53)" stroke-width="0.1"/>
  <path d="M 95.15474149999994,26.275863500000014 L 95.09574149999997,26.26786350000009" fill="none" stroke="rgb(160,53,53)" stroke-width="0.1"/>
  <path d="M 94.44174149999998,26.17986350000001 L 94.38174150000003,26.171863500000086" fill="none" stroke="rgb(160,53,53)" stroke-width="0.1"/>
  <path d="M 95.76474149999996,25.613863500000093 L 95.70574149999999,25.605863500000055" fill="none" stroke="rgb(160,53,53)" stroke-width="0.1"/>
  <path d="M 95.05074150000002,25.51786350000009 L 94.99174150000005,25.50986350000005" fill="none" stroke="rgb(160,53,53)" stroke-width="0.1"/>
  <path d="M 94.33774149999994,25.421863500000086 L 94.27774149999999,25.413863500000048" fill="none" stroke="rgb(160,53,53)" stroke-width="0.1"/>
  <path d="M 95.66074150000003,24.855863500000055 L 95.60174149999995,24.847863500000017" fill="none" stroke="rgb(160,53,53)" stroke-width="0.1"/>
  <path d="M 94.94674149999997,24.75986350000005 L 94.8877415,24.751863500000013" fill="none" stroke="rgb(160,53,53)" stroke-width="0.1"/>
  <path d="M 94.23374150000001,24.663863500000048 L 94.17374149999995,24.65586350000001" fill="none" stroke="rgb(160,53,53)" stroke-width="0.1"/>
  <path d="M 95.55674149999999,24.097863500000017 L 95.49774150000002,24.089863500000092" fill="none" stroke="rgb(160,53,53)" stroke-width="0.1"/>
  <path d="M 94.84374150000002,24.001863500000013 L 94.78374149999996,23.99386350000009" fill="none" stroke="rgb(160,53,53)" stroke-width="0.1"/>
  <path d="M 94.12974149999997,23.90586350000001 L 94.06974150000002,23.897863500000085" fill="none" stroke="rgb(160,53,53)" stroke-width="0.1"/>
  <path d="M 95.68174149999999,23.91686350000009 L 95.6907415,23.97986350000008" fill="none" stroke="rgb(160,53,53)" stroke-width="0.1"/>
  <path d="M 95.78574150000003,24.674863500000015 L 95.79474150000004,24.737863500000003" fill="none" stroke="rgb(160,53,53)" stroke-width="0.1"/>
  <path d="M 94.96874150000002,23.820863500000087 L 94.97674149999995,23.883863500000075" fill="none" stroke="rgb(160,53,53)" stroke-width="0.1"/>
  <path d="M 95.07174149999997,24.57886350000001 L 95.08074149999999,24.6418635" fill="none" stroke="rgb(160,53,53)" stroke-width="0.1"/>
  <path d="M 95.17574150000002,25.33686350000005 L 95.18474150000003,25.399863500000038" fill="none" stroke="rgb(160,53,53)" stroke-width="0.1"/>
  <path d="M 95.27974149999994,26.094863500000088 L 95.28874149999996,26.157863500000076" fill="none" stroke="rgb(160,53,53)" stroke-width="0.1"/>
  <path d="M 94.35874150000001,24.482863500000008 L 94.36674150000005,24.545863499999996" fill="none" stroke="rgb(160,53,53)" stroke-width="0.1"/>
  <path d="M 94.46274149999994,25.240863500000046 L 94.47074149999997,25.303863500000034" fill="none" stroke="rgb(160,53,53)" stroke-width="0.1"/>
  <path d="M 94.56674149999998,25.998863500000084 L 94.57474150000002,26.061863500000072" fill="none" stroke="rgb(160,53,53)" stroke-width="0.1"/>
  <path d="M 93.85274150000004,25.90286350000008 L 93.86174149999994,25.96586350000007" fill="none" stroke="rgb(160,53,53)" stroke-width="0.1"/>
  <path d="M 95.82174149999997,24.708863500000007 L 95.8157415,24.714863500000092" fill="none" stroke="rgb(160,53,53)" stroke-width="0.1"/>
  <path d="M 94.91874149999995,25.566863500000068 L 94.83674149999996,25.644863500000042" fill="none" stroke="rgb(160,53,53)" stroke-width="0.1"/>
  <path d="M 94.83874150000003,24.422863500000062 L 94.75674150000003,24.49986350000006" fill="none" stroke="rgb(160,53,53)" stroke-width="0.1"/>
  <path d="M 93.85974149999998,25.352863500000012 L 93.81974150000002,25.390863500000023" fill="none" stroke="rgb(160,53,53)" stroke-width="0.1"/>
  <path d="M 94.96274149999994,23.80086349999999 L 94.96874150000002,23.890863500000023" fill="none" stroke="rgb(160,53,53)" stroke-width="0.1"/>
  <path d="M 95.0417415,24.9398635 L 95.04874149999995,25.03486350000003" fill="none" stroke="rgb(160,53,53)" stroke-width="0.1"/>
  <path d="M 95.12174150000004,26.084863499999983 L 95.12874149999999,26.17986350000001" fill="none" stroke="rgb(160,53,53)" stroke-width="0.1"/>
  <path d="M 93.98374150000001,24.72586350000006 L 93.98974149999998,24.820863500000087" fill="none" stroke="rgb(160,53,53)" stroke-width="0.1"/>
  <path d="M 94.06374149999994,25.869863500000065 L 94.06974150000002,25.964863500000092" fill="none" stroke="rgb(160,53,53)" stroke-width="0.1"/>
  <path d="M 94.91874149999995,25.566863500000068 L 94.82974150000001,25.54886350000004" fill="none" stroke="rgb(160,53,53)" stroke-width="0.1"/>
  <path d="M 93.85974149999998,25.352863500000012 L 93.81974150000002,25.344863500000088" fill="none" stroke="rgb(160,53,53)" stroke-width="0.1"/>
  <path d="M 95.82174149999997,24.621863500000018 L 95.80874149999994,24.61886350000009" fill="none" stroke="rgb(160,53,53)" stroke-width="0.1"/>
  <path d="M 94.83874150000003,24.422863500000062 L 94.75074149999995,24.404863500000033" fill="none" stroke="rgb(160,53,53)" stroke-width="0.1"/>
  <path d="M 95.2917415,25.998863500000084 L 95.22074149999997,26.022863500000085" fill="none" stroke="rgb(160,53,53)" stroke-width="0.1"/>
  <path d="M 94.43774149999996,26.282863500000076 L 94.38274150000001,26.30086349999999" fill="none" stroke="rgb(160,53,53)" stroke-width="0.1"/>
  <path d="M 95.56874150000004,25.285863500000005 L 95.49774150000002,25.309863500000006" fill="none" stroke="rgb(160,53,53)" stroke-width="0.1"/>
  <path d="M 94.7147415,25.56886350000002 L 94.6427415,25.59286350000002" fill="none" stroke="rgb(160,53,53)" stroke-width="0.1"/>
  <path d="M 93.85974149999998,25.852863500000012 L 93.81874150000004,25.866863500000022" fill="none" stroke="rgb(160,53,53)" stroke-width="0.1"/>
  <path d="M 95.82174149999997,24.580863500000078 L 95.77374149999997,24.595863500000064" fill="none" stroke="rgb(160,53,53)" stroke-width="0.1"/>
  <path d="M 94.99074149999996,24.855863500000055 L 94.91974150000004,24.879863500000056" fill="none" stroke="rgb(160,53,53)" stroke-width="0.1"/>
  <path d="M 94.13674150000003,25.139863500000047 L 94.0657415,25.16286350000007" fill="none" stroke="rgb(160,53,53)" stroke-width="0.1"/>
  <path d="M 95.2677415,24.14286350000009 L 95.1957415,24.16686350000009" fill="none" stroke="rgb(160,53,53)" stroke-width="0.1"/>
  <path d="M 94.41274149999998,24.42686350000008 L 94.34174149999996,24.449863499999992" fill="none" stroke="rgb(160,53,53)" stroke-width="0.1"/>
  <path d="M 93.83574149999998,23.996863500000018 L 93.82274149999995,24.000863500000037" fill="none" stroke="rgb(160,53,53)" stroke-width="0.1"/>
  <path d="M 94.43774149999996,26.282863500000076 L 94.38974149999996,26.246863500000018" fill="none" stroke="rgb(160,53,53)" stroke-width="0.1"/>
  <path d="M 93.86074149999996,25.852863500000012 L 93.81874150000004,25.821863500000063" fill="none" stroke="rgb(160,53,53)" stroke-width="0.1"/>
  <path d="M 95.29274149999998,25.998863500000084 L 95.2437415,25.962863500000026" fill="none" stroke="rgb(160,53,53)" stroke-width="0.1"/>
  <path d="M 94.7147415,25.56886350000002 L 94.6667415,25.533863500000052" fill="none" stroke="rgb(160,53,53)" stroke-width="0.1"/>
  <path d="M 94.13674150000003,25.139863500000047 L 94.08874150000003,25.10386349999999" fill="none" stroke="rgb(160,53,53)" stroke-width="0.1"/>
  <path d="M 95.56874150000004,25.285863500000005 L 95.52074150000004,25.24986350000006" fill="none" stroke="rgb(160,53,53)" stroke-width="0.1"/>
  <path d="M 94.99074149999996,24.855863500000055 L 94.94274149999995,24.820863500000087" fill="none" stroke="rgb(160,53,53)" stroke-width="0.1"/>
  <path d="M 94.41374149999996,24.42686350000008 L 94.36574149999996,24.390863500000023" fill="none" stroke="rgb(160,53,53)" stroke-width="0.1"/>
  <path d="M 93.83574149999998,23.996863500000018 L 93.82274149999995,23.986863500000027" fill="none" stroke="rgb(160,53,53)" stroke-width="0.1"/>
  <path d="M 95.82174149999997,24.55486350000001 L 95.7967415,24.53686349999998" fill="none" stroke="rgb(160,53,53)" stroke-width="0.1"/>
  <path d="M 95.2677415,24.14286350000009 L 95.2197415,24.10686350000003" fill="none" stroke="rgb(160,53,53)" stroke-width="0.1"/>
  <path d="M 95.80974150000003,25.831863500000054 L 95.7867415,25.890863500000023" fill="none" stroke="rgb(160,53,53)" stroke-width="0.1"/>
  <path d="M 95.78474149999994,23.97586350000006 L 95.76174150000003,24.03486350000003" fill="none" stroke="rgb(160,53,53)" stroke-width="0.1"/>
  <path d="M 95.50874149999999,24.688863500000025 L 95.48574149999996,24.747863499999994" fill="none" stroke="rgb(160,53,53)" stroke-width="0.1"/>
  <path d="M 95.23174149999994,25.40186349999999 L 95.20874150000003,25.46186350000005" fill="none" stroke="rgb(160,53,53)" stroke-width="0.1"/>
  <path d="M 94.95574149999999,26.11486350000007 L 94.93274149999996,26.174863500000015" fill="none" stroke="rgb(160,53,53)" stroke-width="0.1"/>
  <path d="M 94.93074150000001,24.258863500000075 L 94.90774149999999,24.31886350000002" fill="none" stroke="rgb(160,53,53)" stroke-width="0.1"/>
  <path d="M 94.65374149999997,24.97186350000004 L 94.63074149999994,25.031863499999986" fill="none" stroke="rgb(160,53,53)" stroke-width="0.1"/>
  <path d="M 94.37774150000001,25.685863499999982 L 94.35474149999999,25.744863500000065" fill="none" stroke="rgb(160,53,53)" stroke-width="0.1"/>
  <path d="M 94.35274150000004,23.829863499999988 L 94.32974150000001,23.88886350000007" fill="none" stroke="rgb(160,53,53)" stroke-width="0.1"/>
  <path d="M 94.07674149999997,24.542863500000067 L 94.05374149999994,24.601863500000036" fill="none" stroke="rgb(160,53,53)" stroke-width="0.1"/>
  <path d="M 76.26474149999996,25.613863500000093 L 76.21374150000003,25.668863500000043" fill="none" stroke="rgb(160,53,53)" stroke-width="0.1"/>
  <path d="M 75.65474149999994,26.275863500000014 L 75.63174150000003,26.30086349999999" fill="none" stroke="rgb(160,53,53)" stroke-width="0.1"/>
  <path d="M 76.16074150000003,24.855863500000055 L 76.10974149999998,24.910863500000005" fill="none" stroke="rgb(160,53,53)" stroke-width="0.1"/>
  <path d="M 75.55074150000002,25.51786350000009 L 75.49974149999997,25.57286350000004" fill="none" stroke="rgb(160,53,53)" stroke-width="0.1"/>
  <path d="M 74.9407415,26.17986350000001 L 74.89074150000005,26.234863500000074" fill="none" stroke="rgb(160,53,53)" stroke-width="0.1"/>
  <path d="M 76.05674149999999,24.097863500000017 L 76.00574149999994,24.15286350000008" fill="none" stroke="rgb(160,53,53)" stroke-width="0.1"/>
  <path d="M 75.44674149999997,24.75986350000005 L 75.39574150000004,24.8148635" fill="none" stroke="rgb(160,53,53)" stroke-width="0.1"/>
  <path d="M 74.83774149999994,25.421863500000086 L 74.7867415,25.476863500000036" fill="none" stroke="rgb(160,53,53)" stroke-width="0.1"/>
  <path d="M 75.34274150000005,24.001863500000013 L 75.29274149999998,24.057863500000053" fill="none" stroke="rgb(160,53,53)" stroke-width="0.1"/>
  <path d="M 74.73374150000001,24.663863500000048 L 74.68274149999996,24.719863500000088" fill="none" stroke="rgb(160,53,53)" stroke-width="0.1"/>
  <path d="M 74.62974149999997,23.906863499999986 L 74.57874150000004,23.96186350000005" fill="none" stroke="rgb(160,53,53)" stroke-width="0.1"/>
  <path d="M 75.65474149999994,26.275863500000014 L 75.59574149999997,26.26786350000009" fill="none" stroke="rgb(160,53,53)" stroke-width="0.1"/>
  <path d="M 74.94174149999998,26.17986350000001 L 74.88174150000003,26.171863500000086" fill="none" stroke="rgb(160,53,53)" stroke-width="0.1"/>
  <path d="M 76.26474149999996,25.613863500000093 L 76.20574149999999,25.605863500000055" fill="none" stroke="rgb(160,53,53)" stroke-width="0.1"/>
  <path d="M 75.55074150000002,25.51786350000009 L 75.49174150000005,25.50986350000005" fill="none" stroke="rgb(160,53,53)" stroke-width="0.1"/>
  <path d="M 74.83774149999994,25.421863500000086 L 74.77774149999999,25.413863500000048" fill="none" stroke="rgb(160,53,53)" stroke-width="0.1"/>
  <path d="M 76.16074150000003,24.855863500000055 L 76.10174149999995,24.847863500000017" fill="none" stroke="rgb(160,53,53)" stroke-width="0.1"/>
  <path d="M 75.44674149999997,24.75986350000005 L 75.3877415,24.751863500000013" fill="none" stroke="rgb(160,53,53)" stroke-width="0.1"/>
  <path d="M 74.73374150000001,24.663863500000048 L 74.67374149999995,24.65586350000001" fill="none" stroke="rgb(160,53,53)" stroke-width="0.1"/>
  <path d="M 76.05674149999999,24.097863500000017 L 75.99774150000002,24.089863500000092" fill="none" stroke="rgb(160,53,53)" stroke-width="0.1"/>
  <path d="M 75.34374150000002,24.001863500000013 L 75.28374149999996,23.99386350000009" fill="none" stroke="rgb(160,53,53)" stroke-width="0.1"/>
  <path d="M 74.62974149999997,23.90586350000001 L 74.56974150000002,23.897863500000085" fill="none" stroke="rgb(160,53,53)" stroke-width="0.1"/>
  <path d="M 76.18174149999999,23.91686350000009 L 76.1907415,23.97986350000008" fill="none" stroke="rgb(160,53,53)" stroke-width="0.1"/>
  <path d="M 76.28574150000003,24.674863500000015 L 76.29474150000004,24.737863500000003" fill="none" stroke="rgb(160,53,53)" stroke-width="0.1"/>
  <path d="M 75.46874150000002,23.820863500000087 L 75.47674149999995,23.883863500000075" fill="none" stroke="rgb(160,53,53)" stroke-width="0.1"/>
  <path d="M 75.57174149999997,24.57886350000001 L 75.58074149999999,24.6418635" fill="none" stroke="rgb(160,53,53)" stroke-width="0.1"/>
  <path d="M 75.67574150000002,25.33686350000005 L 75.68474150000003,25.399863500000038" fill="none" stroke="rgb(160,53,53)" stroke-width="0.1"/>
  <path d="M 75.77974149999994,26.094863500000088 L 75.78874149999996,26.157863500000076" fill="none" stroke="rgb(160,53,53)" stroke-width="0.1"/>
  <path d="M 74.85874150000001,24.482863500000008 L 74.86674150000005,24.545863499999996" fill="none" stroke="rgb(160,53,53)" stroke-width="0.1"/>
  <path d="M 74.96274149999994,25.240863500000046 L 74.97074149999997,25.303863500000034" fill="none" stroke="rgb(160,53,53)" stroke-width="0.1"/>
  <path d="M 75.06674149999998,25.998863500000084 L 75.07474150000002,26.061863500000072" fill="none" stroke="rgb(160,53,53)" stroke-width="0.1"/>
  <path d="M 74.35274150000004,25.90286350000008 L 74.36174149999994,25.96586350000007" fill="none" stroke="rgb(160,53,53)" stroke-width="0.1"/>
  <path d="M 76.32174149999997,24.708863500000007 L 76.3157415,24.714863500000092" fill="none" stroke="rgb(160,53,53)" stroke-width="0.1"/>
  <path d="M 75.41874149999995,25.566863500000068 L 75.33674149999996,25.644863500000042" fill="none" stroke="rgb(160,53,53)" stroke-width="0.1"/>
  <path d="M 75.33874150000003,24.422863500000062 L 75.25674150000003,24.49986350000006" fill="none" stroke="rgb(160,53,53)" stroke-width="0.1"/>
  <path d="M 74.35974149999998,25.352863500000012 L 74.31974150000002,25.390863500000023" fill="none" stroke="rgb(160,53,53)" stroke-width="0.1"/>
  <path d="M 75.46274149999994,23.80086349999999 L 75.46874150000002,23.890863500000023" fill="none" stroke="rgb(160,53,53)" stroke-width="0.1"/>
  <path d="M 75.5417415,24.9398635 L 75.54874149999995,25.03486350000003" fill="none" stroke="rgb(160,53,53)" stroke-width="0.1"/>
  <path d="M 75.62174150000004,26.084863499999983 L 75.62874149999999,26.17986350000001" fill="none" stroke="rgb(160,53,53)" stroke-width="0.1"/>
  <path d="M 74.48374150000001,24.72586350000006 L 74.48974149999998,24.820863500000087" fill="none" stroke="rgb(160,53,53)" stroke-width="0.1"/>
  <path d="M 74.56374149999994,25.869863500000065 L 74.56974150000002,25.964863500000092" fill="none" stroke="rgb(160,53,53)" stroke-width="0.1"/>
  <path d="M 75.41874149999995,25.566863500000068 L 75.32974150000001,25.54886350000004" fill="none" stroke="rgb(160,53,53)" stroke-width="0.1"/>
  <path d="M 74.35974149999998,25.352863500000012 L 74.31974150000002,25.344863500000088" fill="none" stroke="rgb(160,53,53)" stroke-width="0.1"/>
  <path d="M 76.32174149999997,24.621863500000018 L 76.30874149999994,24.61886350000009" fill="none" stroke="rgb(160,53,53)" stroke-width="0.1"/>
  <path d="M 75.33874150000003,24.422863500000062 L 75.25074149999995,24.404863500000033" fill="none" stroke="rgb(160,53,53)" stroke-width="0.1"/>
  <path d="M 75.7917415,25.998863500000084 L 75.72074149999997,26.022863500000085" fill="none" stroke="rgb(160,53,53)" stroke-width="0.1"/>
  <path d="M 74.93774149999996,26.282863500000076 L 74.88274150000001,26.30086349999999" fill="none" stroke="rgb(160,53,53)" stroke-width="0.1"/>
  <path d="M 76.06874150000004,25.285863500000005 L 75.99774150000002,25.309863500000006" fill="none" stroke="rgb(160,53,53)" stroke-width="0.1"/>
  <path d="M 75.2147415,25.56886350000002 L 75.1427415,25.59286350000002" fill="none" stroke="rgb(160,53,53)" stroke-width="0.1"/>
  <path d="M 74.35974149999998,25.852863500000012 L 74.31874150000004,25.866863500000022" fill="none" stroke="rgb(160,53,53)" stroke-width="0.1"/>
  <path d="M 76.32174149999997,24.580863500000078 L 76.27374149999997,24.595863500000064" fill="none" stroke="rgb(160,53,53)" stroke-width="0.1"/>
  <path d="M 75.49074149999996,24.855863500000055 L 75.41974150000004,24.879863500000056" fill="none" stroke="rgb(160,53,53)" stroke-width="0.1"/>
  <path d="M 74.63674150000003,25.139863500000047 L 74.5657415,25.16286350000007" fill="none" stroke="rgb(160,53,53)" stroke-width="0.1"/>
  <path d="M 75.7677415,24.14286350000009 L 75.6957415,24.16686350000009" fill="none" stroke="rgb(160,53,53)" stroke-width="0.1"/>
  <path d="M 74.91274149999998,24.42686350000008 L 74.84174149999996,24.449863499999992" fill="none" stroke="rgb(160,53,53)" stroke-width="0.1"/>
  <path d="M 74.33574149999998,23.996863500000018 L 74.32274149999995,24.000863500000037" fill="none" stroke="rgb(160,53,53)" stroke-width="0.1"/>
  <path d="M 74.93774149999996,26.282863500000076 L 74.88974149999996,26.246863500000018" fill="none" stroke="rgb(160,53,53)" stroke-width="0.1"/>
  <path d="M 74.36074149999996,25.852863500000012 L 74.31874150000004,25.821863500000063" fill="none" stroke="rgb(160,53,53)" stroke-width="0.1"/>
  <path d="M 75.79274149999998,25.998863500000084 L 75.7437415,25.962863500000026" fill="none" stroke="rgb(160,53,53)" stroke-width="0.1"/>
  <path d="M 75.2147415,25.56886350000002 L 75.1667415,25.533863500000052" fill="none" stroke="rgb(160,53,53)" stroke-width="0.1"/>
  <path d="M 74.63674150000003,25.139863500000047 L 74.58874150000003,25.10386349999999" fill="none" stroke="rgb(160,53,53)" stroke-width="0.1"/>
  <path d="M 76.06874150000004,25.285863500000005 L 76.02074150000004,25.24986350000006" fill="none" stroke="rgb(160,53,53)" stroke-width="0.1"/>
  <path d="M 75.49074149999996,24.855863500000055 L 75.44274149999995,24.820863500000087" fill="none" stroke="rgb(160,53,53)" stroke-width="0.1"/>
  <path d="M 74.91374149999996,24.42686350000008 L 74.86574149999996,24.390863500000023" fill="none" stroke="rgb(160,53,53)" stroke-width="0.1"/>
  <path d="M 74.33574149999998,23.996863500000018 L 74.32274149999995,23.986863500000027" fill="none" stroke="rgb(160,53,53)" stroke-width="0.1"/>
  <path d="M 76.32174149999997,24.55486350000001 L 76.2967415,24.53686349999998" fill="none" stroke="rgb(160,53,53)" stroke-width="0.1"/>
  <path d="M 75.7677415,24.14286350000009 L 75.7197415,24.10686350000003" fill="none" stroke="rgb(160,53,53)" stroke-width="0.1"/>
  <path d="M 76.30974150000003,25.831863500000054 L 76.2867415,25.890863500000023" fill="none" stroke="rgb(160,53,53)" stroke-width="0.1"/>
  <path d="M 76.28474149999994,23.97586350000006 L 76.26174150000003,24.03486350000003" fill="none" stroke="rgb(160,53,53)" stroke-width="0.1"/>
  <path d="M 76.00874149999999,24.688863500000025 L 75.98574149999996,24.747863499999994" fill="none" stroke="rgb(160,53,53)" stroke-width="0.1"/>
  <path d="M 75.73174149999994,25.40186349999999 L 75.70874150000003,25.46186350000005" fill="none" stroke="rgb(160,53,53)" stroke-width="0.1"/>
  <path d="M 75.45574149999999,26.11486350000007 L 75.43274149999996,26.174863500000015" fill="none" stroke="rgb(160,53,53)" stroke-width="0.1"/>
  <path d="M 75.43074150000001,24.258863500000075 L 75.40774149999999,24.31886350000002" fill="none" stroke="rgb(160,53,53)" stroke-width="0.1"/>
  <path d="M 75.15374149999997,24.97186350000004 L 75.13074149999994,25.031863499999986" fill="none" stroke="rgb(160,53,53)" stroke-width="0.1"/>
  <path d="M 74.87774150000001,25.685863499999982 L 74.85474149999999,25.744863500000065" fill="none" stroke="rgb(160,53,53)" stroke-width="0.1"/>
  <path d="M 74.85274150000004,23.829863499999988 L 74.82974150000001,23.88886350000007" fill="none" stroke="rgb(160,53,53)" stroke-width="0.1"/>
  <path d="M 74.57674149999997,24.542863500000067 L 74.55374149999994,24.601863500000036" fill="none" stroke="rgb(160,53,53)" stroke-width="0.1"/>
  <path d="M 86.32374150000004,30.144863500000042 L 88.82374150000004,30.150863500000014" fill="none" stroke="rgb(160,53,53)" stroke-width="0.1"/>
  <path d="M 88.82374150000004,30.150863500000014 L 88.82374150000004,28.150863500000014" fill="none" stroke="rgb(160,53,53)" stroke-width="0.1"/>
  <path d="M 88.82374150000004,28.150863500000014 L 86.32374150000004,28.144863500000042" fill="none" stroke="rgb(160,53,53)" stroke-width="0.1"/>
  <path d="M 86.32374150000004,28.144863500000042 L 86.32374150000004,30.144863500000042" fill="none" stroke="rgb(160,53,53)" stroke-width="0.1"/>
  <path d="M 95.81774149999995,26.30086349999999 L 95.82374150000004,23.80086349999999" fill="none" stroke="rgb(160,53,53)" stroke-width="0.1"/>
  <path d="M 95.82374150000004,23.80086349999999 L 93.82374150000004,23.80086349999999" fill="none" stroke="rgb(160,53,53)" stroke-width="0.1"/>
  <path d="M 93.82374150000004,23.80086349999999 L 93.81774149999995,26.30086349999999" fill="none" stroke="rgb(160,53,53)" stroke-width="0.1"/>
  <path d="M 93.81774149999995,26.30086349999999 L 95.81774149999995,26.30086349999999" fill="none" stroke="rgb(160,53,53)" stroke-width="0.1"/>
  <path d="M 76.31774149999995,26.30086349999999 L 76.32374150000004,23.80086349999999" fill="none" stroke="rgb(160,53,53)" stroke-width="0.1"/>
  <path d="M 76.32374150000004,23.80086349999999 L 74.32374150000004,23.80086349999999" fill="none" stroke="rgb(160,53,53)" stroke-width="0.1"/>
  <path d="M 74.32374150000004,23.80086349999999 L 74.31774149999995,26.30086349999999" fill="none" stroke="rgb(160,53,53)" stroke-width="0.1"/>
  <path d="M 74.31774149999995,26.30086349999999 L 76.31774149999995,26.30086349999999" fill="none" stroke="rgb(160,53,53)" stroke-width="0.1"/>
 </g>
 <g id="layerAX-01-B01-100$0$M-AUX-TO-ARCH(2019-11-16)" inkscape:groupmode="layer" inkscape:label="AX-01-B01-100$0$M-AUX-TO-ARCH(2019-11-16)">
  <path d="M 65.57374150000004,0.0 L 65.57374150000004,7.649863500000038" fill="none" stroke="rgb(178,0,0)" stroke-width="0.1"/>
  <path d="M 65.57374150000004,7.649863500000038 L 59.07374150000004,7.649863500000038" fill="none" stroke="rgb(178,0,0)" stroke-width="0.1"/>
  <path d="M 59.07374150000004,7.649863500000038 L 59.07374150000004,0.0" fill="none" stroke="rgb(178,0,0)" stroke-width="0.1"/>
 </g>
 <g id="layerAx-01-B01-100-KD$0$A-Detl-Fine" inkscape:groupmode="layer" inkscape:label="Ax-01-B01-100-KD$0$A-Detl-Fine">
  <path d="M 65.57374150000004,0.0 L 65.57374150000004,7.649863500000038" fill="none" stroke="rgb(0,71,142)" stroke-width="0.1"/>
  <path d="M 65.57374150000004,7.649863500000038 L 59.07374150000004,7.649863500000038" fill="none" stroke="rgb(0,71,142)" stroke-width="0.1"/>
  <path d="M 59.07374150000004,7.649863500000038 L 59.07374150000004,0.0" fill="none" stroke="rgb(0,71,142)" stroke-width="0.1"/>
  <path d="M 57.32374150000004,67.14986350000004 L 93.82374150000004,67.14986350000004" fill="none" stroke="rgb(0,71,142)" stroke-width="0.1"/>
  <path d="M 93.82374150000004,67.14986350000004 L 93.82374150000004,77.14986350000004" fill="none" stroke="rgb(0,71,142)" stroke-width="0.1"/>
  <path d="M 93.82374150000004,77.14986350000004 L 57.32374150000004,77.14986350000004" fill="none" stroke="rgb(0,71,142)" stroke-width="0.1"/>
  <path d="M 57.32374150000004,77.14986350000004 L 57.32374150000004,67.14986350000004" fill="none" stroke="rgb(0,71,142)" stroke-width="0.1"/>
  <path d="M 57.32374150000004,77.14986350000004 L 59.925741500000015,68.40186349999999" fill="none" stroke="rgb(0,71,142)" stroke-width="0.1"/>
  <path d="M 59.925741500000015,68.40186349999999 L 93.82374150000004,67.14986350000004" fill="none" stroke="rgb(0,71,142)" stroke-width="0.1"/>
  <path d="M 59.07374150000004,7.649863500000038 L 60.355741499999965,0.7628635000000941" fill="none" stroke="rgb(0,71,142)" stroke-width="0.1"/>
  <path d="M 60.355741499999965,0.7628635000000941 L 62.23961359796516,0.0" fill="none" stroke="rgb(0,71,142)" stroke-width="0.1"/>
 </g>
 <g id="layerAx-01-Grid-100$0$A-Grid" inkscape:groupmode="layer" inkscape:label="Ax-01-Grid-100$0$A-Grid">
  <path d="M 5.323741499999983,0.0 L 5.323741499999983,100.0" fill="none" stroke="rgb(142,0,107)" stroke-width="0.1"/>
  <path d="M 95.32374150000004,0.0 L 95.32374150000004,100.0" fill="none" stroke="rgb(142,0,107)" stroke-width="0.1"/>
  <path d="M 0.0,15.149863500000038 L 95.32374150000004,15.149863500000038" fill="none" stroke="rgb(142,0,107)" stroke-width="0.1"/>
 </g>
 <g id="layerAx-01-Grid-B-100$0$A-Grid" inkscape:groupmode="layer" inkscape:label="Ax-01-Grid-B-100$0$A-Grid">
  <path d="M 0.0,78.64986350000004 L 95.32374150000004,78.64986350000004" fill="none" stroke="rgb(142,0,107)" stroke-width="0.1"/>
 </g>
 <g id="layerSX-DXS-COLU-B01$0$S-COLU" inkscape:groupmode="layer" inkscape:label="SX-DXS-COLU-B01$0$S-COLU">
  <path d="M 0.3237414999999828,74.14986350000004 L 8.323741499999983,74.14986350000004" fill="none" stroke="rgb(178,88,0)" stroke-width="0.1"/>
  <path d="M 8.323741499999983,74.14986350000004 L 8.323741499999983,82.14986350000004" fill="none" stroke="rgb(178,88,0)" stroke-width="0.1"/>
  <path d="M 8.323741499999983,82.14986350000004 L 0.3237414999999828,82.14986350000004" fill="none" stroke="rgb(178,88,0)" stroke-width="0.1"/>
  <path d="M 0.3237414999999828,82.14986350000004 L 0.3237414999999828,74.14986350000004" fill="none" stroke="rgb(178,88,0)" stroke-width="0.1"/>
 </g>
 <g id="layerSX-DXS-COLU-B01$0$S-PATT-SOLD" inkscape:groupmode="layer" inkscape:label="SX-DXS-COLU-B01$0$S-PATT-SOLD">
  <path d="M 0.3237414999999828,82.14986350000004 L 8.323741499999983,82.14986350000004" fill="none" stroke="rgb(178,178,0)" stroke-width="0.1"/>
  <path d="M 8.323741499999983,82.14986350000004 L 8.323741499999983,74.14986350000004" fill="none" stroke="rgb(178,178,0)" stroke-width="0.1"/>
  <path d="M 8.323741499999983,74.14986350000004 L 0.3237414999999828,74.14986350000004" fill="none" stroke="rgb(178,178,0)" stroke-width="0.1"/>
  <path d="M 0.3237414999999828,74.14986350000004 L 0.3237414999999828,82.14986350000004" fill="none" stroke="rgb(178,178,0)" stroke-width="0.1"/>
 </g>
</svg>