<?xml version="1.0" encoding="utf-8"?>
<svg style="background-color: #000;" version="1.1" viewBox="0 0 100.0 100.0" xmlns="http://www.w3.org/2000/svg" xmlns:inkscape="http://www.inkscape.org/namespaces/inkscape">
 <g id="layerAx-01-B03-100$0$A-Anno-Dims" inkscape:groupmode="layer" inkscape:label="Ax-01-B03-100$0$A-Anno-Dims">
  <path d="M 6.385799000000134,85.27577950000023 L 7.615799000000152,84.04577950000021" fill="none" stroke="rgb(0,178,0)" stroke-width="0.1"/>
  <path d="M 6.995798999999806,88.1657795000001 L 6.995798999999806,81.1657795000001" fill="none" stroke="rgb(0,178,0)" stroke-width="0.1"/>
  <path d="M 7.385799000000134,85.27577950000023 L 8.615799000000152,84.04577950000021" fill="none" stroke="rgb(0,178,0)" stroke-width="0.1"/>
  <path d="M 7.995798999999806,88.1657795000001 L 7.995798999999806,81.1657795000001" fill="none" stroke="rgb(0,178,0)" stroke-width="0.1"/>
  <path d="M 25.385799000000134,85.27577950000023 L 26.615799000000152,84.04577950000021" fill="none" stroke="rgb(0,178,0)" stroke-width="0.1"/>
  <path d="M 25.995798999999806,88.1657795000001 L 25.995798999999806,81.1657795000001" fill="none" stroke="rgb(0,178,0)" stroke-width="0.1"/>
  <path d="M 26.385799000000134,85.27577950000023 L 27.615799000000152,84.04577950000021" fill="none" stroke="rgb(0,178,0)" stroke-width="0.1"/>
  <path d="M 26.995798999999806,88.1657795000001 L 26.995798999999806,81.1657795000001" fill="none" stroke="rgb(0,178,0)" stroke-width="0.1"/>
  <path d="M 62.385799000000134,85.27577950000023 L 63.61579900000015,84.04577950000021" fill="none" stroke="rgb(0,178,0)" stroke-width="0.1"/>
  <path d="M 62.995798999999806,88.1657795000001 L 62.995798999999806,81.1657795000001" fill="none" stroke="rgb(0,178,0)" stroke-width="0.1"/>
  <path d="M 65.38579900000013,85.27577950000023 L 66.61579900000015,84.04577950000021" fill="none" stroke="rgb(0,178,0)" stroke-width="0.1"/>
  <path d="M 65.9957989999998,88.1657795000001 L 65.9957989999998,81.1657795000001" fill="none" stroke="rgb(0,178,0)" stroke-width="0.1"/>
  <path d="M 67.38579900000013,85.27577950000023 L 68.61579900000015,84.04577950000021" fill="none" stroke="rgb(0,178,0)" stroke-width="0.1"/>
  <path d="M 67.9957989999998,88.1657795000001 L 67.9957989999998,81.1657795000001" fill="none" stroke="rgb(0,178,0)" stroke-width="0.1"/>
  <path d="M 80.38579900000013,85.27577950000023 L 81.61579900000015,84.04577950000021" fill="none" stroke="rgb(0,178,0)" stroke-width="0.1"/>
  <path d="M 80.9957989999998,88.1657795000001 L 80.9957989999998,81.1657795000001" fill="none" stroke="rgb(0,178,0)" stroke-width="0.1"/>
  <path d="M 82.38579900000013,85.27577950000023 L 83.61579900000015,84.04577950000021" fill="none" stroke="rgb(0,178,0)" stroke-width="0.1"/>
  <path d="M 82.9957989999998,88.1657795000001 L 82.9957989999998,81.1657795000001" fill="none" stroke="rgb(0,178,0)" stroke-width="0.1"/>
  <path d="M 92.38579900000013,85.27577950000023 L 93.61579900000015,84.04577950000021" fill="none" stroke="rgb(0,178,0)" stroke-width="0.1"/>
  <path d="M 92.9957989999998,88.1657795000001 L 92.9957989999998,81.1657795000001" fill="none" stroke="rgb(0,178,0)" stroke-width="0.1"/>
  <path d="M 0.0,89.24577950000025 L 6.09579900000017,89.24577950000025" fill="none" stroke="rgb(0,178,0)" stroke-width="0.1"/>
  <path d="M 0.0,80.24577950000025 L 6.09579900000017,80.24577950000025" fill="none" stroke="rgb(0,178,0)" stroke-width="0.1"/>
  <path d="M 0.0,79.24577950000025 L 6.09579900000017,79.24577950000025" fill="none" stroke="rgb(0,178,0)" stroke-width="0.1"/>
  <path d="M 0.0,67.24577950000025 L 6.09579900000017,67.24577950000025" fill="none" stroke="rgb(0,178,0)" stroke-width="0.1"/>
  <path d="M 0.0,66.24577950000025 L 6.09579900000017,66.24577950000025" fill="none" stroke="rgb(0,178,0)" stroke-width="0.1"/>
  <path d="M 1.9757989999998244,88.63577950000013 L 3.215799000000061,89.86577950000014" fill="none" stroke="rgb(0,178,0)" stroke-width="0.1"/>
  <path d="M 1.9757989999998244,79.63577950000013 L 3.215799000000061,80.86577950000014" fill="none" stroke="rgb(0,178,0)" stroke-width="0.1"/>
  <path d="M 1.9757989999998244,78.63577950000013 L 3.215799000000061,79.86577950000014" fill="none" stroke="rgb(0,178,0)" stroke-width="0.1"/>
  <path d="M 1.9757989999998244,66.63577950000013 L 3.215799000000061,67.86577950000014" fill="none" stroke="rgb(0,178,0)" stroke-width="0.1"/>
  <path d="M 1.9757989999998244,65.63577950000013 L 3.215799000000061,66.86577950000014" fill="none" stroke="rgb(0,178,0)" stroke-width="0.1"/>
  <path d="M 100.0,84.6657795000001 L 0.0,84.6657795000001" fill="none" stroke="rgb(0,178,0)" stroke-width="0.1"/>
  <path d="M 7.995798999999806,66.24577950000025 L 2.59579900000017,66.24577950000025" fill="none" stroke="rgb(0,178,0)" stroke-width="0.1"/>
  <path d="M 2.59579900000017,66.24577950000025 L 2.59579900000017,89.24577950000025" fill="none" stroke="rgb(0,178,0)" stroke-width="0.1"/>
  <path d="M 2.59579900000017,89.24577950000025 L 7.995798999999806,89.24577950000025" fill="none" stroke="rgb(0,178,0)" stroke-width="0.1"/>
  <path d="M 100.0,97.45577950000006 L 84.26579899999979,97.45577950000006" fill="none" stroke="rgb(0,178,0)" stroke-width="0.1"/>
  <path d="M 84.26579899999979,97.45577950000006 L 84.26579899999979,82.79577950000021" fill="none" stroke="rgb(0,178,0)" stroke-width="0.1"/>
  <text fill="rgb(0,0,0)" font-family="Noto Sans CJK SC" font-size="2" transform="rotate(-0.0,4.585798999999952,81.21577950000028)" x="4.585798999999952" y="81.21577950000028">
   100
  </text>
  <text fill="rgb(0,0,0)" font-family="Noto Sans CJK SC" font-size="2" transform="rotate(-0.0,12.915798999999879,82.94577950000007)" x="12.915798999999879" y="82.94577950000007">
   1800
  </text>
  <text fill="rgb(0,0,0)" font-family="Noto Sans CJK SC" font-size="2" transform="rotate(-0.0,23.58579899999995,81.21577950000028)" x="23.58579899999995" y="81.21577950000028">
   100
  </text>
  <text fill="rgb(0,0,0)" font-family="Noto Sans CJK SC" font-size="2" transform="rotate(-0.0,40.68579899999986,82.94577950000007)" x="40.68579899999986" y="82.94577950000007">
   3600
  </text>
  <text fill="rgb(0,0,0)" font-family="Noto Sans CJK SC" font-size="2" transform="rotate(-0.0,61.34579900000017,81.21577950000028)" x="61.34579900000017" y="81.21577950000028">
   300
  </text>
  <text fill="rgb(0,0,0)" font-family="Noto Sans CJK SC" font-size="2" transform="rotate(-0.0,63.84579900000017,80.00577950000024)" x="63.84579900000017" y="80.00577950000024">
   200
  </text>
  <text fill="rgb(0,0,0)" font-family="Noto Sans CJK SC" font-size="2" transform="rotate(-0.0,70.41579899999988,82.94577950000007)" x="70.41579899999988" y="82.94577950000007">
   1300
  </text>
  <text fill="rgb(0,0,0)" font-family="Noto Sans CJK SC" font-size="2" transform="rotate(-0.0,78.84579900000017,81.21577950000028)" x="78.84579900000017" y="81.21577950000028">
   200
  </text>
  <text fill="rgb(0,0,0)" font-family="Noto Sans CJK SC" font-size="2" transform="rotate(-0.0,83.91579899999988,82.94577950000007)" x="83.91579899999988" y="82.94577950000007">
   1000
  </text>
  <text fill="rgb(0,0,0)" font-family="Noto Sans CJK SC" font-size="2" transform="rotate(-90.0,0.8757989999999154,87.89577950000012)" x="0.8757989999999154" y="87.89577950000012">
   900
  </text>
  <text fill="rgb(0,0,0)" font-family="Noto Sans CJK SC" font-size="2" transform="rotate(-90.0,0.8757989999999154,77.33577950000017)" x="0.8757989999999154" y="77.33577950000017">
   1200
  </text>
  <text fill="rgb(0,0,0)" font-family="Noto Sans CJK SC" font-size="2" transform="rotate(-0.0,85.32579899999973,96.22577950000027)" x="85.32579899999973" y="96.22577950000027">
   窗洞底标高-14.900
  </text>
 </g>
 <g id="layerAx-01-B03-100$0$A-Anno-Levl" inkscape:groupmode="layer" inkscape:label="Ax-01-B03-100$0$A-Anno-Levl">
  <path d="M 100.0,74.52577950000023 L 93.45579899999984,74.52577950000023" fill="none" stroke="rgb(194,12,255)" stroke-width="0.1"/>
  <path d="M 93.45579899999984,74.52577950000023 L 96.45579899999984,77.52577950000023" fill="none" stroke="rgb(194,12,255)" stroke-width="0.1"/>
  <path d="M 96.45579899999984,77.52577950000023 L 99.45579899999984,74.52577950000023" fill="none" stroke="rgb(194,12,255)" stroke-width="0.1"/>
  <path d="M 100.0,74.52577950000023 L 93.45579899999984,74.52577950000023" fill="none" stroke="rgb(194,12,255)" stroke-width="0.1"/>
  <path d="M 93.45579899999984,74.52577950000023 L 96.45579899999984,77.52577950000023" fill="none" stroke="rgb(194,12,255)" stroke-width="0.1"/>
  <path d="M 96.45579899999984,77.52577950000023 L 99.45579899999984,74.52577950000023" fill="none" stroke="rgb(194,12,255)" stroke-width="0.1"/>
  <text fill="rgb(0,0,0)" font-family="Noto Sans CJK SC" font-size="2" transform="rotate(-0.0,96.13579900000013,74.03577950000022)" x="96.13579900000013" y="74.03577950000022">
   -16.100(结构)
  </text>
 </g>
 <g id="layerAx-01-B03-100$0$A-Detl-Fine" inkscape:groupmode="layer" inkscape:label="Ax-01-B03-100$0$A-Detl-Fine">
  <path d="M 100.0,60.74577950000025 L 0.0,60.74577950000025" fill="none" stroke="rgb(0,71,142)" stroke-width="0.1"/>
  <path d="M 26.995798999999806,66.24577950000025 L 6.995798999999806,66.24577950000025" fill="none" instance-id="-1" semantic-id="1" stroke="rgb(0,71,142)" stroke-width="0.1"/>
  <path d="M 6.995798999999806,66.24577950000025 L 6.995798999999806,80.24577950000025" fill="none" instance-id="-1" semantic-id="1" stroke="rgb(0,71,142)" stroke-width="0.1"/>
  <path d="M 6.995798999999806,80.24577950000025 L 26.995798999999806,80.24577950000025" fill="none" instance-id="-1" semantic-id="1" stroke="rgb(0,71,142)" stroke-width="0.1"/>
  <path d="M 26.995798999999806,80.24577950000025 L 26.995798999999806,66.24577950000025" fill="none" instance-id="-1" semantic-id="1" stroke="rgb(0,71,142)" stroke-width="0.1"/>
  <path d="M 7.995798999999806,67.24577950000025 L 25.995798999999806,67.24577950000025" fill="none" instance-id="-1" semantic-id="1" stroke="rgb(0,71,142)" stroke-width="0.1"/>
  <path d="M 25.995798999999806,67.24577950000025 L 25.995798999999806,79.24577950000025" fill="none" instance-id="-1" semantic-id="1" stroke="rgb(0,71,142)" stroke-width="0.1"/>
  <path d="M 25.995798999999806,79.24577950000025 L 7.995798999999806,79.24577950000025" fill="none" instance-id="-1" semantic-id="1" stroke="rgb(0,71,142)" stroke-width="0.1"/>
  <path d="M 7.995798999999806,79.24577950000025 L 7.995798999999806,67.24577950000025" fill="none" instance-id="-1" semantic-id="1" stroke="rgb(0,71,142)" stroke-width="0.1"/>
  <path d="M 25.495798999999806,80.24577950000025 L 25.495798999999806,100.0" fill="none" instance-id="-1" semantic-id="1" stroke="rgb(0,71,142)" stroke-width="0.1"/>
  <path d="M 22.495798999999806,100.0 L 22.495798999999806,80.24577950000025" fill="none" instance-id="-1" semantic-id="1" stroke="rgb(0,71,142)" stroke-width="0.1"/>
  <path d="M 6.995798999999806,78.24577950000025 L 0.0,78.24577950000025" fill="none" instance-id="-1" semantic-id="1" stroke="rgb(0,71,142)" stroke-width="0.1"/>
  <path d="M 0.0,75.24577950000025 L 6.995798999999806,75.24577950000025" fill="none" instance-id="-1" semantic-id="1" stroke="rgb(0,71,142)" stroke-width="0.1"/>
 </g>
 <g id="layerAx-01-B03-100$0$A-Detl-Patt" inkscape:groupmode="layer" inkscape:label="Ax-01-B03-100$0$A-Detl-Patt">
  <path d="M 0.0,59.03334875619839 L 0.9957989999998063,58.04577950000021" fill="none" stroke="rgb(89,89,89)" stroke-width="0.1"/>
  <path d="M 0.26579899999978807,58.04577950000021 L 0.6357990000001337,58.40577950000011" fill="none" stroke="rgb(89,89,89)" stroke-width="0.1"/>
  <path d="M 0.6357990000001337,59.24577950000025 L 1.8357989999999518,58.04577950000021" fill="none" stroke="rgb(89,89,89)" stroke-width="0.1"/>
  <path d="M 1.8357989999999518,58.885779500000126 L 2.195799000000079,59.24577950000025" fill="none" stroke="rgb(89,89,89)" stroke-width="0.1"/>
  <path d="M 2.2557990000000245,58.46577950000028 L 3.0057990000000245,59.21577950000028" fill="none" stroke="rgb(89,89,89)" stroke-width="0.1"/>
  <path d="M 2.9757989999998244,59.24577950000025 L 4.185798999999861,58.04577950000021" fill="none" stroke="rgb(89,89,89)" stroke-width="0.1"/>
  <path d="M 3.4557989999998426,58.04577950000021 L 3.8257989999997335,58.40577950000011" fill="none" stroke="rgb(89,89,89)" stroke-width="0.1"/>
  <path d="M 5.025799000000006,58.885779500000126 L 5.385799000000134,59.24577950000025" fill="none" stroke="rgb(89,89,89)" stroke-width="0.1"/>
  <path d="M 5.445799000000079,58.46577950000028 L 6.195799000000079,59.21577950000028" fill="none" stroke="rgb(89,89,89)" stroke-width="0.1"/>
  <path d="M 6.165798999999879,59.24577950000025 L 7.375798999999915,58.04577950000021" fill="none" stroke="rgb(89,89,89)" stroke-width="0.1"/>
  <path d="M 6.645798999999897,58.04577950000021 L 7.0057990000000245,58.40577950000011" fill="none" stroke="rgb(89,89,89)" stroke-width="0.1"/>
  <path d="M 8.215799000000061,58.885779500000126 L 8.575798999999733,59.24577950000025" fill="none" stroke="rgb(89,89,89)" stroke-width="0.1"/>
  <path d="M 8.635799000000134,58.46577950000028 L 9.385799000000134,59.21577950000028" fill="none" stroke="rgb(89,89,89)" stroke-width="0.1"/>
  <path d="M 9.355798999999934,59.24577950000025 L 10.555798999999752,58.04577950000021" fill="none" stroke="rgb(89,89,89)" stroke-width="0.1"/>
  <path d="M 9.835798999999952,58.04577950000021 L 10.195799000000079,58.40577950000011" fill="none" stroke="rgb(89,89,89)" stroke-width="0.1"/>
  <path d="M 10.195799000000079,59.24577950000025 L 11.405799000000115,58.04577950000021" fill="none" stroke="rgb(89,89,89)" stroke-width="0.1"/>
  <path d="M 11.405799000000115,58.885779500000126 L 11.765798999999788,59.24577950000025" fill="none" stroke="rgb(89,89,89)" stroke-width="0.1"/>
  <path d="M 11.825798999999733,58.46577950000028 L 12.575798999999733,59.21577950000028" fill="none" stroke="rgb(89,89,89)" stroke-width="0.1"/>
  <path d="M 12.545798999999988,59.24577950000025 L 13.745798999999806,58.04577950000021" fill="none" stroke="rgb(89,89,89)" stroke-width="0.1"/>
  <path d="M 13.025799000000006,58.04577950000021 L 13.385799000000134,58.40577950000011" fill="none" stroke="rgb(89,89,89)" stroke-width="0.1"/>
  <path d="M 14.59579900000017,58.885779500000126 L 14.955798999999843,59.24577950000025" fill="none" stroke="rgb(89,89,89)" stroke-width="0.1"/>
  <path d="M 15.015798999999788,58.46577950000028 L 15.765798999999788,59.21577950000028" fill="none" stroke="rgb(89,89,89)" stroke-width="0.1"/>
  <path d="M 15.735799000000043,59.24577950000025 L 16.93579899999986,58.04577950000021" fill="none" stroke="rgb(89,89,89)" stroke-width="0.1"/>
  <path d="M 16.21579900000006,58.04577950000021 L 16.575798999999733,58.40577950000011" fill="none" stroke="rgb(89,89,89)" stroke-width="0.1"/>
  <path d="M 16.575798999999733,59.24577950000025 L 17.78579899999977,58.04577950000021" fill="none" stroke="rgb(89,89,89)" stroke-width="0.1"/>
  <path d="M 17.78579899999977,58.885779500000126 L 18.145798999999897,59.24577950000025" fill="none" stroke="rgb(89,89,89)" stroke-width="0.1"/>
  <path d="M 18.205798999999843,58.46577950000028 L 18.955798999999843,59.21577950000028" fill="none" stroke="rgb(89,89,89)" stroke-width="0.1"/>
  <path d="M 18.925799000000097,59.24577950000025 L 20.125798999999915,58.04577950000021" fill="none" stroke="rgb(89,89,89)" stroke-width="0.1"/>
  <path d="M 19.405799000000115,58.04577950000021 L 19.765798999999788,58.40577950000011" fill="none" stroke="rgb(89,89,89)" stroke-width="0.1"/>
  <path d="M 20.96579900000006,58.885779500000126 L 21.33579899999995,59.24577950000025" fill="none" stroke="rgb(89,89,89)" stroke-width="0.1"/>
  <path d="M 21.395798999999897,58.46577950000028 L 22.145798999999897,59.21577950000028" fill="none" stroke="rgb(89,89,89)" stroke-width="0.1"/>
  <path d="M 22.115799000000152,59.24577950000025 L 23.31579899999997,58.04577950000021" fill="none" stroke="rgb(89,89,89)" stroke-width="0.1"/>
  <path d="M 22.59579900000017,58.04577950000021 L 22.955798999999843,58.40577950000011" fill="none" stroke="rgb(89,89,89)" stroke-width="0.1"/>
  <path d="M 24.155799000000115,58.885779500000126 L 24.525799000000006,59.24577950000025" fill="none" stroke="rgb(89,89,89)" stroke-width="0.1"/>
  <path d="M 24.58579899999995,58.46577950000028 L 25.33579899999995,59.21577950000028" fill="none" stroke="rgb(89,89,89)" stroke-width="0.1"/>
  <path d="M 25.30579899999975,59.24577950000025 L 26.505799000000025,58.04577950000021" fill="none" stroke="rgb(89,89,89)" stroke-width="0.1"/>
  <path d="M 25.78579899999977,58.04577950000021 L 26.145798999999897,58.40577950000011" fill="none" stroke="rgb(89,89,89)" stroke-width="0.1"/>
  <path d="M 26.145798999999897,59.24577950000025 L 27.34579900000017,58.04577950000021" fill="none" stroke="rgb(89,89,89)" stroke-width="0.1"/>
  <path d="M 27.34579900000017,58.885779500000126 L 27.705798999999843,59.24577950000025" fill="none" stroke="rgb(89,89,89)" stroke-width="0.1"/>
  <path d="M 27.765798999999788,58.46577950000028 L 28.525799000000006,59.21577950000028" fill="none" stroke="rgb(89,89,89)" stroke-width="0.1"/>
  <path d="M 28.495798999999806,59.24577950000025 L 29.69579900000008,58.04577950000021" fill="none" stroke="rgb(89,89,89)" stroke-width="0.1"/>
  <path d="M 28.975798999999824,58.04577950000021 L 29.33579899999995,58.40577950000011" fill="none" stroke="rgb(89,89,89)" stroke-width="0.1"/>
  <path d="M 30.53579899999977,58.885779500000126 L 30.895798999999897,59.24577950000025" fill="none" stroke="rgb(89,89,89)" stroke-width="0.1"/>
  <path d="M 30.955798999999843,58.46577950000028 L 31.71579900000006,59.21577950000028" fill="none" stroke="rgb(89,89,89)" stroke-width="0.1"/>
  <path d="M 31.68579899999986,59.24577950000025 L 32.885799000000134,58.04577950000021" fill="none" stroke="rgb(89,89,89)" stroke-width="0.1"/>
  <path d="M 32.16579899999988,58.04577950000021 L 32.525799000000006,58.40577950000011" fill="none" stroke="rgb(89,89,89)" stroke-width="0.1"/>
  <path d="M 32.525799000000006,59.24577950000025 L 33.725798999999824,58.04577950000021" fill="none" stroke="rgb(89,89,89)" stroke-width="0.1"/>
  <path d="M 33.725798999999824,58.885779500000126 L 34.08579899999995,59.24577950000025" fill="none" stroke="rgb(89,89,89)" stroke-width="0.1"/>
  <path d="M 34.1457989999999,58.46577950000028 L 34.905799000000115,59.21577950000028" fill="none" stroke="rgb(89,89,89)" stroke-width="0.1"/>
  <path d="M 34.875798999999915,59.24577950000025 L 36.07579899999973,58.04577950000021" fill="none" stroke="rgb(89,89,89)" stroke-width="0.1"/>
  <path d="M 35.355798999999934,58.04577950000021 L 35.71579900000006,58.40577950000011" fill="none" stroke="rgb(89,89,89)" stroke-width="0.1"/>
  <path d="M 36.91579899999988,58.885779500000126 L 37.275799000000006,59.24577950000025" fill="none" stroke="rgb(89,89,89)" stroke-width="0.1"/>
  <path d="M 37.33579899999995,58.46577950000028 L 38.08579899999995,59.21577950000028" fill="none" stroke="rgb(89,89,89)" stroke-width="0.1"/>
  <path d="M 38.05579899999975,59.24577950000025 L 39.26579899999979,58.04577950000021" fill="none" stroke="rgb(89,89,89)" stroke-width="0.1"/>
  <path d="M 38.54579899999999,58.04577950000021 L 38.905799000000115,58.40577950000011" fill="none" stroke="rgb(89,89,89)" stroke-width="0.1"/>
  <path d="M 40.105798999999934,58.885779500000126 L 40.46579900000006,59.24577950000025" fill="none" stroke="rgb(89,89,89)" stroke-width="0.1"/>
  <path d="M 40.525799000000006,58.46577950000028 L 41.275799000000006,59.21577950000028" fill="none" stroke="rgb(89,89,89)" stroke-width="0.1"/>
  <path d="M 41.245798999999806,59.24577950000025 L 42.45579899999984,58.04577950000021" fill="none" stroke="rgb(89,89,89)" stroke-width="0.1"/>
  <path d="M 41.73579900000004,58.04577950000021 L 42.09579900000017,58.40577950000011" fill="none" stroke="rgb(89,89,89)" stroke-width="0.1"/>
  <path d="M 42.09579900000017,59.24577950000025 L 43.29579899999999,58.04577950000021" fill="none" stroke="rgb(89,89,89)" stroke-width="0.1"/>
  <path d="M 43.29579899999999,58.885779500000126 L 43.655799000000115,59.24577950000025" fill="none" stroke="rgb(89,89,89)" stroke-width="0.1"/>
  <path d="M 43.71579900000006,58.46577950000028 L 44.46579900000006,59.21577950000028" fill="none" stroke="rgb(89,89,89)" stroke-width="0.1"/>
  <path d="M 44.43579899999986,59.24577950000025 L 45.6457989999999,58.04577950000021" fill="none" stroke="rgb(89,89,89)" stroke-width="0.1"/>
  <path d="M 44.91579899999988,58.04577950000021 L 45.28579899999977,58.40577950000011" fill="none" stroke="rgb(89,89,89)" stroke-width="0.1"/>
  <path d="M 46.48579900000004,58.885779500000126 L 46.84579900000017,59.24577950000025" fill="none" stroke="rgb(89,89,89)" stroke-width="0.1"/>
  <path d="M 46.905799000000115,58.46577950000028 L 47.655799000000115,59.21577950000028" fill="none" stroke="rgb(89,89,89)" stroke-width="0.1"/>
  <path d="M 47.625798999999915,59.24577950000025 L 48.83579899999995,58.04577950000021" fill="none" stroke="rgb(89,89,89)" stroke-width="0.1"/>
  <path d="M 48.105798999999934,58.04577950000021 L 48.475798999999824,58.40577950000011" fill="none" stroke="rgb(89,89,89)" stroke-width="0.1"/>
  <path d="M 48.475798999999824,59.24577950000025 L 49.6757990000001,58.04577950000021" fill="none" stroke="rgb(89,89,89)" stroke-width="0.1"/>
  <path d="M 49.6757990000001,58.885779500000126 L 50.03579899999977,59.24577950000025" fill="none" stroke="rgb(89,89,89)" stroke-width="0.1"/>
  <path d="M 50.09579900000017,58.46577950000028 L 50.84579900000017,59.21577950000028" fill="none" stroke="rgb(89,89,89)" stroke-width="0.1"/>
  <path d="M 50.81579899999997,59.24577950000025 L 52.025799000000006,58.04577950000021" fill="none" stroke="rgb(89,89,89)" stroke-width="0.1"/>
  <path d="M 51.29579899999999,58.04577950000021 L 51.655799000000115,58.40577950000011" fill="none" stroke="rgb(89,89,89)" stroke-width="0.1"/>
  <path d="M 52.86579900000015,58.885779500000126 L 53.225798999999824,59.24577950000025" fill="none" stroke="rgb(89,89,89)" stroke-width="0.1"/>
  <path d="M 53.28579899999977,58.46577950000028 L 54.03579899999977,59.21577950000028" fill="none" stroke="rgb(89,89,89)" stroke-width="0.1"/>
  <path d="M 54.005799000000025,59.24577950000025 L 55.20579899999984,58.04577950000021" fill="none" stroke="rgb(89,89,89)" stroke-width="0.1"/>
  <path d="M 54.48579900000004,58.04577950000021 L 54.84579900000017,58.40577950000011" fill="none" stroke="rgb(89,89,89)" stroke-width="0.1"/>
  <path d="M 56.05579899999975,58.885779500000126 L 56.41579899999988,59.24577950000025" fill="none" stroke="rgb(89,89,89)" stroke-width="0.1"/>
  <path d="M 56.475798999999824,58.46577950000028 L 57.225798999999824,59.21577950000028" fill="none" stroke="rgb(89,89,89)" stroke-width="0.1"/>
  <path d="M 57.19579900000008,59.24577950000025 L 58.3957989999999,58.04577950000021" fill="none" stroke="rgb(89,89,89)" stroke-width="0.1"/>
  <path d="M 57.6757990000001,58.04577950000021 L 58.03579899999977,58.40577950000011" fill="none" stroke="rgb(89,89,89)" stroke-width="0.1"/>
  <path d="M 58.03579899999977,59.24577950000025 L 59.245798999999806,58.04577950000021" fill="none" stroke="rgb(89,89,89)" stroke-width="0.1"/>
  <path d="M 59.245798999999806,58.885779500000126 L 59.605798999999934,59.24577950000025" fill="none" stroke="rgb(89,89,89)" stroke-width="0.1"/>
  <path d="M 59.66579899999988,58.46577950000028 L 60.41579899999988,59.21577950000028" fill="none" stroke="rgb(89,89,89)" stroke-width="0.1"/>
  <path d="M 60.385799000000134,59.24577950000025 L 61.58579899999995,58.04577950000021" fill="none" stroke="rgb(89,89,89)" stroke-width="0.1"/>
  <path d="M 60.86579900000015,58.04577950000021 L 61.225798999999824,58.40577950000011" fill="none" stroke="rgb(89,89,89)" stroke-width="0.1"/>
  <path d="M 62.43579899999986,58.885779500000126 L 62.79579899999999,59.24577950000025" fill="none" stroke="rgb(89,89,89)" stroke-width="0.1"/>
  <path d="M 62.855798999999934,58.46577950000028 L 63.605798999999934,59.21577950000028" fill="none" stroke="rgb(89,89,89)" stroke-width="0.1"/>
  <path d="M 63.57579899999973,59.24577950000025 L 64.775799,58.04577950000021" fill="none" stroke="rgb(89,89,89)" stroke-width="0.1"/>
  <path d="M 64.05579899999975,58.04577950000021 L 64.41579899999988,58.40577950000011" fill="none" stroke="rgb(89,89,89)" stroke-width="0.1"/>
  <path d="M 64.41579899999988,59.24577950000025 L 65.62579899999992,58.04577950000021" fill="none" stroke="rgb(89,89,89)" stroke-width="0.1"/>
  <path d="M 65.62579899999992,58.885779500000126 L 65.98579900000004,59.24577950000025" fill="none" stroke="rgb(89,89,89)" stroke-width="0.1"/>
  <path d="M 66.04579899999999,58.46577950000028 L 66.79579899999999,59.21577950000028" fill="none" stroke="rgb(89,89,89)" stroke-width="0.1"/>
  <path d="M 66.76579899999979,59.24577950000025 L 67.96579900000006,58.04577950000021" fill="none" stroke="rgb(89,89,89)" stroke-width="0.1"/>
  <path d="M 67.2457989999998,58.04577950000021 L 67.60579899999993,58.40577950000011" fill="none" stroke="rgb(89,89,89)" stroke-width="0.1"/>
  <path d="M 68.80579899999975,58.885779500000126 L 69.1757990000001,59.24577950000025" fill="none" stroke="rgb(89,89,89)" stroke-width="0.1"/>
  <path d="M 69.23579900000004,58.46577950000028 L 69.98579900000004,59.21577950000028" fill="none" stroke="rgb(89,89,89)" stroke-width="0.1"/>
  <path d="M 69.95579899999984,59.24577950000025 L 71.15579900000012,58.04577950000021" fill="none" stroke="rgb(89,89,89)" stroke-width="0.1"/>
  <path d="M 70.43579899999986,58.04577950000021 L 70.79579899999999,58.40577950000011" fill="none" stroke="rgb(89,89,89)" stroke-width="0.1"/>
  <path d="M 71.9957989999998,58.885779500000126 L 72.35579899999993,59.24577950000025" fill="none" stroke="rgb(89,89,89)" stroke-width="0.1"/>
  <path d="M 72.41579899999988,58.46577950000028 L 73.1757990000001,59.21577950000028" fill="none" stroke="rgb(89,89,89)" stroke-width="0.1"/>
  <path d="M 73.1457989999999,59.24577950000025 L 74.34579900000017,58.04577950000021" fill="none" stroke="rgb(89,89,89)" stroke-width="0.1"/>
  <path d="M 73.62579899999992,58.04577950000021 L 73.98579900000004,58.40577950000011" fill="none" stroke="rgb(89,89,89)" stroke-width="0.1"/>
  <path d="M 75.18579899999986,58.885779500000126 L 75.54579899999999,59.24577950000025" fill="none" stroke="rgb(89,89,89)" stroke-width="0.1"/>
  <path d="M 75.60579899999993,58.46577950000028 L 76.36579900000015,59.21577950000028" fill="none" stroke="rgb(89,89,89)" stroke-width="0.1"/>
  <path d="M 76.33579899999995,59.24577950000025 L 77.53579899999977,58.04577950000021" fill="none" stroke="rgb(89,89,89)" stroke-width="0.1"/>
  <path d="M 76.81579899999997,58.04577950000021 L 77.1757990000001,58.40577950000011" fill="none" stroke="rgb(89,89,89)" stroke-width="0.1"/>
  <path d="M 78.37579899999992,58.885779500000126 L 78.73579900000004,59.24577950000025" fill="none" stroke="rgb(89,89,89)" stroke-width="0.1"/>
  <path d="M 78.79579899999999,58.46577950000028 L 79.55579899999975,59.21577950000028" fill="none" stroke="rgb(89,89,89)" stroke-width="0.1"/>
  <path d="M 79.525799,59.24577950000025 L 80.72579899999982,58.04577950000021" fill="none" stroke="rgb(89,89,89)" stroke-width="0.1"/>
  <path d="M 80.00579900000002,58.04577950000021 L 80.36579900000015,58.40577950000011" fill="none" stroke="rgb(89,89,89)" stroke-width="0.1"/>
  <path d="M 81.56579899999997,58.885779500000126 L 81.9257990000001,59.24577950000025" fill="none" stroke="rgb(89,89,89)" stroke-width="0.1"/>
  <path d="M 81.98579900000004,58.46577950000028 L 82.73579900000004,59.21577950000028" fill="none" stroke="rgb(89,89,89)" stroke-width="0.1"/>
  <path d="M 82.70579899999984,59.24577950000025 L 83.91579899999988,58.04577950000021" fill="none" stroke="rgb(89,89,89)" stroke-width="0.1"/>
  <path d="M 83.19579900000008,58.04577950000021 L 83.55579899999975,58.40577950000011" fill="none" stroke="rgb(89,89,89)" stroke-width="0.1"/>
  <path d="M 84.75579900000002,58.885779500000126 L 85.11579900000015,59.24577950000025" fill="none" stroke="rgb(89,89,89)" stroke-width="0.1"/>
  <path d="M 85.1757990000001,58.46577950000028 L 85.9257990000001,59.21577950000028" fill="none" stroke="rgb(89,89,89)" stroke-width="0.1"/>
  <path d="M 85.8957989999999,59.24577950000025 L 87.10579899999993,58.04577950000021" fill="none" stroke="rgb(89,89,89)" stroke-width="0.1"/>
  <path d="M 86.38579900000013,58.04577950000021 L 86.7457989999998,58.40577950000011" fill="none" stroke="rgb(89,89,89)" stroke-width="0.1"/>
  <path d="M 87.94579900000008,58.885779500000126 L 88.30579899999975,59.24577950000025" fill="none" stroke="rgb(89,89,89)" stroke-width="0.1"/>
  <path d="M 88.36579900000015,58.46577950000028 L 89.11579900000015,59.21577950000028" fill="none" stroke="rgb(89,89,89)" stroke-width="0.1"/>
  <path d="M 89.08579899999995,59.24577950000025 L 90.29579899999999,58.04577950000021" fill="none" stroke="rgb(89,89,89)" stroke-width="0.1"/>
  <path d="M 89.56579899999997,58.04577950000021 L 89.93579899999986,58.40577950000011" fill="none" stroke="rgb(89,89,89)" stroke-width="0.1"/>
  <path d="M 91.13579900000013,58.885779500000126 L 91.4957989999998,59.24577950000025" fill="none" stroke="rgb(89,89,89)" stroke-width="0.1"/>
  <path d="M 91.55579899999975,58.46577950000028 L 92.30579899999975,59.21577950000028" fill="none" stroke="rgb(89,89,89)" stroke-width="0.1"/>
  <path d="M 92.275799,59.24577950000025 L 93.48579900000004,58.04577950000021" fill="none" stroke="rgb(89,89,89)" stroke-width="0.1"/>
  <path d="M 92.75579900000002,58.04577950000021 L 93.12579899999992,58.40577950000011" fill="none" stroke="rgb(89,89,89)" stroke-width="0.1"/>
  <path d="M 94.32579899999973,58.885779500000126 L 94.68579899999986,59.24577950000025" fill="none" stroke="rgb(89,89,89)" stroke-width="0.1"/>
  <path d="M 94.7457989999998,58.46577950000028 L 95.4957989999998,59.21577950000028" fill="none" stroke="rgb(89,89,89)" stroke-width="0.1"/>
  <path d="M 95.46579900000006,59.24577950000025 L 96.6757990000001,58.04577950000021" fill="none" stroke="rgb(89,89,89)" stroke-width="0.1"/>
  <path d="M 95.94579900000008,58.04577950000021 L 96.30579899999975,58.40577950000011" fill="none" stroke="rgb(89,89,89)" stroke-width="0.1"/>
  <path d="M 97.51579899999979,58.885779500000126 L 97.87579899999992,59.24577950000025" fill="none" stroke="rgb(89,89,89)" stroke-width="0.1"/>
  <path d="M 97.93579899999986,58.46577950000028 L 98.68579899999986,59.21577950000028" fill="none" stroke="rgb(89,89,89)" stroke-width="0.1"/>
  <path d="M 98.65579900000012,59.24577950000025 L 99.85579899999993,58.04577950000021" fill="none" stroke="rgb(89,89,89)" stroke-width="0.1"/>
  <path d="M 99.13579900000013,58.04577950000021 L 99.4957989999998,58.40577950000011" fill="none" stroke="rgb(89,89,89)" stroke-width="0.1"/>
  <path d="M 25.995798999999806,98.96577950000028 L 21.995798999999806,98.96577950000028" fill="none" stroke="rgb(89,89,89)" stroke-width="0.1"/>
  <path d="M 25.995798999999806,97.37577950000014 L 21.995798999999806,97.37577950000014" fill="none" stroke="rgb(89,89,89)" stroke-width="0.1"/>
  <path d="M 25.995798999999806,95.78577950000022 L 21.995798999999806,95.78577950000022" fill="none" stroke="rgb(89,89,89)" stroke-width="0.1"/>
  <path d="M 25.995798999999806,94.19577950000007 L 21.995798999999806,94.19577950000007" fill="none" stroke="rgb(89,89,89)" stroke-width="0.1"/>
  <path d="M 25.995798999999806,92.61577950000014 L 21.995798999999806,92.61577950000014" fill="none" stroke="rgb(89,89,89)" stroke-width="0.1"/>
  <path d="M 25.995798999999806,91.02577950000023 L 21.995798999999806,91.02577950000023" fill="none" stroke="rgb(89,89,89)" stroke-width="0.1"/>
  <path d="M 25.995798999999806,89.43577950000008 L 21.995798999999806,89.43577950000008" fill="none" stroke="rgb(89,89,89)" stroke-width="0.1"/>
  <path d="M 25.995798999999806,87.84577950000016 L 21.995798999999806,87.84577950000016" fill="none" stroke="rgb(89,89,89)" stroke-width="0.1"/>
  <path d="M 25.995798999999806,86.26577950000024 L 21.995798999999806,86.26577950000024" fill="none" stroke="rgb(89,89,89)" stroke-width="0.1"/>
  <path d="M 25.995798999999806,84.67577950000009 L 21.995798999999806,84.67577950000009" fill="none" stroke="rgb(89,89,89)" stroke-width="0.1"/>
  <path d="M 25.995798999999806,83.08577950000017 L 21.995798999999806,83.08577950000017" fill="none" stroke="rgb(89,89,89)" stroke-width="0.1"/>
  <path d="M 25.995798999999806,81.49577950000025 L 21.995798999999806,81.49577950000025" fill="none" stroke="rgb(89,89,89)" stroke-width="0.1"/>
  <path d="M 25.995798999999806,79.9157795000001 L 21.995798999999806,79.9157795000001" fill="none" stroke="rgb(89,89,89)" stroke-width="0.1"/>
  <path d="M 25.995798999999806,78.32577950000018 L 22.925799000000097,78.32577950000018" fill="none" stroke="rgb(89,89,89)" stroke-width="0.1"/>
  <path d="M 25.995798999999806,76.73577950000026 L 24.515798999999788,76.73577950000026" fill="none" stroke="rgb(89,89,89)" stroke-width="0.1"/>
  <path d="M 1.195799000000079,78.74577950000025 L 1.195799000000079,74.74577950000025" fill="none" stroke="rgb(89,89,89)" stroke-width="0.1"/>
  <path d="M 2.78579899999977,78.74577950000025 L 2.78579899999977,74.74577950000025" fill="none" stroke="rgb(89,89,89)" stroke-width="0.1"/>
  <path d="M 4.375798999999915,78.74577950000025 L 4.375798999999915,74.74577950000025" fill="none" stroke="rgb(89,89,89)" stroke-width="0.1"/>
  <path d="M 5.965799000000061,78.74577950000025 L 5.965799000000061,74.74577950000025" fill="none" stroke="rgb(89,89,89)" stroke-width="0.1"/>
  <path d="M 26.995798999999806,79.96577950000028 L 6.995798999999806,79.96577950000028" fill="none" stroke="rgb(89,89,89)" stroke-width="0.1"/>
  <path d="M 26.995798999999806,78.37577950000014 L 6.995798999999806,78.37577950000014" fill="none" stroke="rgb(89,89,89)" stroke-width="0.1"/>
  <path d="M 26.995798999999806,76.79577950000021 L 6.995798999999806,76.79577950000021" fill="none" stroke="rgb(89,89,89)" stroke-width="0.1"/>
  <path d="M 26.995798999999806,75.20577950000006 L 6.995798999999806,75.20577950000006" fill="none" stroke="rgb(89,89,89)" stroke-width="0.1"/>
  <path d="M 26.995798999999806,73.61577950000014 L 6.995798999999806,73.61577950000014" fill="none" stroke="rgb(89,89,89)" stroke-width="0.1"/>
  <path d="M 26.995798999999806,72.02577950000023 L 6.995798999999806,72.02577950000023" fill="none" stroke="rgb(89,89,89)" stroke-width="0.1"/>
  <path d="M 26.995798999999806,70.44577950000007 L 6.995798999999806,70.44577950000007" fill="none" stroke="rgb(89,89,89)" stroke-width="0.1"/>
  <path d="M 26.995798999999806,68.85577950000015 L 6.995798999999806,68.85577950000015" fill="none" stroke="rgb(89,89,89)" stroke-width="0.1"/>
  <path d="M 26.995798999999806,67.26577950000024 L 6.995798999999806,67.26577950000024" fill="none" stroke="rgb(89,89,89)" stroke-width="0.1"/>
  <path d="M 0.0,58.559980500000165 L 0.23579900000004272,58.79577950000021" fill="none" stroke="rgb(89,89,89)" stroke-width="0.1"/>
  <path d="M 1.4757989999998244,59.24577950000025 L 2.6757990000000973,58.04577950000021" fill="none" stroke="rgb(89,89,89)" stroke-width="0.1"/>
  <path d="M 2.6757990000000973,58.04577950000021 L 3.4257990000000973,58.79577950000021" fill="none" stroke="rgb(89,89,89)" stroke-width="0.1"/>
  <path d="M 3.8257989999997335,59.24577950000025 L 4.185798999999861,58.885779500000126" fill="none" stroke="rgb(89,89,89)" stroke-width="0.1"/>
  <path d="M 4.185798999999861,58.885779500000126 L 5.025799000000006,58.04577950000021" fill="none" stroke="rgb(89,89,89)" stroke-width="0.1"/>
  <path d="M 4.665798999999879,59.24577950000025 L 5.865799000000152,58.04577950000021" fill="none" stroke="rgb(89,89,89)" stroke-width="0.1"/>
  <path d="M 5.865799000000152,58.04577950000021 L 6.615799000000152,58.79577950000021" fill="none" stroke="rgb(89,89,89)" stroke-width="0.1"/>
  <path d="M 7.0057990000000245,59.24577950000025 L 7.375798999999915,58.885779500000126" fill="none" stroke="rgb(89,89,89)" stroke-width="0.1"/>
  <path d="M 7.375798999999915,58.885779500000126 L 8.215799000000061,58.04577950000021" fill="none" stroke="rgb(89,89,89)" stroke-width="0.1"/>
  <path d="M 7.855798999999934,59.24577950000025 L 9.055798999999752,58.04577950000021" fill="none" stroke="rgb(89,89,89)" stroke-width="0.1"/>
  <path d="M 9.055798999999752,58.04577950000021 L 9.805798999999752,58.79577950000021" fill="none" stroke="rgb(89,89,89)" stroke-width="0.1"/>
  <path d="M 11.045798999999988,59.24577950000025 L 12.245798999999806,58.04577950000021" fill="none" stroke="rgb(89,89,89)" stroke-width="0.1"/>
  <path d="M 12.245798999999806,58.04577950000021 L 12.995798999999806,58.79577950000021" fill="none" stroke="rgb(89,89,89)" stroke-width="0.1"/>
  <path d="M 13.385799000000134,59.24577950000025 L 13.745798999999806,58.885779500000126" fill="none" stroke="rgb(89,89,89)" stroke-width="0.1"/>
  <path d="M 13.745798999999806,58.885779500000126 L 14.59579900000017,58.04577950000021" fill="none" stroke="rgb(89,89,89)" stroke-width="0.1"/>
  <path d="M 14.235799000000043,59.24577950000025 L 15.43579899999986,58.04577950000021" fill="none" stroke="rgb(89,89,89)" stroke-width="0.1"/>
  <path d="M 15.43579899999986,58.04577950000021 L 16.18579899999986,58.79577950000021" fill="none" stroke="rgb(89,89,89)" stroke-width="0.1"/>
  <path d="M 17.41579899999988,59.24577950000025 L 18.625798999999915,58.04577950000021" fill="none" stroke="rgb(89,89,89)" stroke-width="0.1"/>
  <path d="M 18.625798999999915,58.04577950000021 L 19.375798999999915,58.79577950000021" fill="none" stroke="rgb(89,89,89)" stroke-width="0.1"/>
  <path d="M 19.765798999999788,59.24577950000025 L 20.125798999999915,58.885779500000126" fill="none" stroke="rgb(89,89,89)" stroke-width="0.1"/>
  <path d="M 20.125798999999915,58.885779500000126 L 20.96579900000006,58.04577950000021" fill="none" stroke="rgb(89,89,89)" stroke-width="0.1"/>
  <path d="M 20.605798999999934,59.24577950000025 L 21.81579899999997,58.04577950000021" fill="none" stroke="rgb(89,89,89)" stroke-width="0.1"/>
  <path d="M 21.81579899999997,58.04577950000021 L 22.56579899999997,58.79577950000021" fill="none" stroke="rgb(89,89,89)" stroke-width="0.1"/>
  <path d="M 22.955798999999843,59.24577950000025 L 23.31579899999997,58.885779500000126" fill="none" stroke="rgb(89,89,89)" stroke-width="0.1"/>
  <path d="M 23.31579899999997,58.885779500000126 L 24.155799000000115,58.04577950000021" fill="none" stroke="rgb(89,89,89)" stroke-width="0.1"/>
  <path d="M 23.795798999999988,59.24577950000025 L 25.005799000000025,58.04577950000021" fill="none" stroke="rgb(89,89,89)" stroke-width="0.1"/>
  <path d="M 25.005799000000025,58.04577950000021 L 25.755799000000025,58.79577950000021" fill="none" stroke="rgb(89,89,89)" stroke-width="0.1"/>
  <path d="M 26.985799000000043,59.24577950000025 L 28.19579900000008,58.04577950000021" fill="none" stroke="rgb(89,89,89)" stroke-width="0.1"/>
  <path d="M 28.19579900000008,58.04577950000021 L 28.94579900000008,58.79577950000021" fill="none" stroke="rgb(89,89,89)" stroke-width="0.1"/>
  <path d="M 29.33579899999995,59.24577950000025 L 29.69579900000008,58.885779500000126" fill="none" stroke="rgb(89,89,89)" stroke-width="0.1"/>
  <path d="M 29.69579900000008,58.885779500000126 L 30.53579899999977,58.04577950000021" fill="none" stroke="rgb(89,89,89)" stroke-width="0.1"/>
  <path d="M 30.175799000000097,59.24577950000025 L 31.385799000000134,58.04577950000021" fill="none" stroke="rgb(89,89,89)" stroke-width="0.1"/>
  <path d="M 31.385799000000134,58.04577950000021 L 32.135799000000134,58.79577950000021" fill="none" stroke="rgb(89,89,89)" stroke-width="0.1"/>
  <path d="M 33.36579900000015,59.24577950000025 L 34.56579899999997,58.04577950000021" fill="none" stroke="rgb(89,89,89)" stroke-width="0.1"/>
  <path d="M 34.56579899999997,58.04577950000021 L 35.32579899999973,58.79577950000021" fill="none" stroke="rgb(89,89,89)" stroke-width="0.1"/>
  <path d="M 35.71579900000006,59.24577950000025 L 36.07579899999973,58.885779500000126" fill="none" stroke="rgb(89,89,89)" stroke-width="0.1"/>
  <path d="M 36.07579899999973,58.885779500000126 L 36.91579899999988,58.04577950000021" fill="none" stroke="rgb(89,89,89)" stroke-width="0.1"/>
  <path d="M 36.55579899999975,59.24577950000025 L 37.755799000000025,58.04577950000021" fill="none" stroke="rgb(89,89,89)" stroke-width="0.1"/>
  <path d="M 37.755799000000025,58.04577950000021 L 38.51579899999979,58.79577950000021" fill="none" stroke="rgb(89,89,89)" stroke-width="0.1"/>
  <path d="M 38.905799000000115,59.24577950000025 L 39.26579899999979,58.885779500000126" fill="none" stroke="rgb(89,89,89)" stroke-width="0.1"/>
  <path d="M 39.26579899999979,58.885779500000126 L 40.105798999999934,58.04577950000021" fill="none" stroke="rgb(89,89,89)" stroke-width="0.1"/>
  <path d="M 39.745798999999806,59.24577950000025 L 40.94579900000008,58.04577950000021" fill="none" stroke="rgb(89,89,89)" stroke-width="0.1"/>
  <path d="M 40.94579900000008,58.04577950000021 L 41.70579899999984,58.79577950000021" fill="none" stroke="rgb(89,89,89)" stroke-width="0.1"/>
  <path d="M 42.93579899999986,59.24577950000025 L 44.135799000000134,58.04577950000021" fill="none" stroke="rgb(89,89,89)" stroke-width="0.1"/>
  <path d="M 44.135799000000134,58.04577950000021 L 44.885799000000134,58.79577950000021" fill="none" stroke="rgb(89,89,89)" stroke-width="0.1"/>
  <path d="M 45.28579899999977,59.24577950000025 L 45.6457989999999,58.885779500000126" fill="none" stroke="rgb(89,89,89)" stroke-width="0.1"/>
  <path d="M 45.6457989999999,58.885779500000126 L 46.48579900000004,58.04577950000021" fill="none" stroke="rgb(89,89,89)" stroke-width="0.1"/>
  <path d="M 46.125798999999915,59.24577950000025 L 47.32579899999973,58.04577950000021" fill="none" stroke="rgb(89,89,89)" stroke-width="0.1"/>
  <path d="M 47.32579899999973,58.04577950000021 L 48.07579899999973,58.79577950000021" fill="none" stroke="rgb(89,89,89)" stroke-width="0.1"/>
  <path d="M 49.31579899999997,59.24577950000025 L 50.51579899999979,58.04577950000021" fill="none" stroke="rgb(89,89,89)" stroke-width="0.1"/>
  <path d="M 50.51579899999979,58.04577950000021 L 51.26579899999979,58.79577950000021" fill="none" stroke="rgb(89,89,89)" stroke-width="0.1"/>
  <path d="M 51.655799000000115,59.24577950000025 L 52.025799000000006,58.885779500000126" fill="none" stroke="rgb(89,89,89)" stroke-width="0.1"/>
  <path d="M 52.025799000000006,58.885779500000126 L 52.86579900000015,58.04577950000021" fill="none" stroke="rgb(89,89,89)" stroke-width="0.1"/>
  <path d="M 52.505799000000025,59.24577950000025 L 53.70579899999984,58.04577950000021" fill="none" stroke="rgb(89,89,89)" stroke-width="0.1"/>
  <path d="M 53.70579899999984,58.04577950000021 L 54.45579899999984,58.79577950000021" fill="none" stroke="rgb(89,89,89)" stroke-width="0.1"/>
  <path d="M 54.84579900000017,59.24577950000025 L 55.20579899999984,58.885779500000126" fill="none" stroke="rgb(89,89,89)" stroke-width="0.1"/>
  <path d="M 55.20579899999984,58.885779500000126 L 56.05579899999975,58.04577950000021" fill="none" stroke="rgb(89,89,89)" stroke-width="0.1"/>
  <path d="M 55.69579900000008,59.24577950000025 L 56.8957989999999,58.04577950000021" fill="none" stroke="rgb(89,89,89)" stroke-width="0.1"/>
  <path d="M 56.8957989999999,58.04577950000021 L 57.6457989999999,58.79577950000021" fill="none" stroke="rgb(89,89,89)" stroke-width="0.1"/>
  <path d="M 58.885799000000134,59.24577950000025 L 60.08579899999995,58.04577950000021" fill="none" stroke="rgb(89,89,89)" stroke-width="0.1"/>
  <path d="M 60.08579899999995,58.04577950000021 L 60.83579899999995,58.79577950000021" fill="none" stroke="rgb(89,89,89)" stroke-width="0.1"/>
  <path d="M 61.225798999999824,59.24577950000025 L 61.58579899999995,58.885779500000126" fill="none" stroke="rgb(89,89,89)" stroke-width="0.1"/>
  <path d="M 61.58579899999995,58.885779500000126 L 62.43579899999986,58.04577950000021" fill="none" stroke="rgb(89,89,89)" stroke-width="0.1"/>
  <path d="M 62.06579899999997,59.24577950000025 L 63.275799000000006,58.04577950000021" fill="none" stroke="rgb(89,89,89)" stroke-width="0.1"/>
  <path d="M 63.275799000000006,58.04577950000021 L 64.025799,58.79577950000021" fill="none" stroke="rgb(89,89,89)" stroke-width="0.1"/>
  <path d="M 65.25579900000002,59.24577950000025 L 66.46579900000006,58.04577950000021" fill="none" stroke="rgb(89,89,89)" stroke-width="0.1"/>
  <path d="M 66.46579900000006,58.04577950000021 L 67.21579900000006,58.79577950000021" fill="none" stroke="rgb(89,89,89)" stroke-width="0.1"/>
  <path d="M 67.60579899999993,59.24577950000025 L 67.96579900000006,58.885779500000126" fill="none" stroke="rgb(89,89,89)" stroke-width="0.1"/>
  <path d="M 67.96579900000006,58.885779500000126 L 68.80579899999975,58.04577950000021" fill="none" stroke="rgb(89,89,89)" stroke-width="0.1"/>
  <path d="M 68.44579900000008,59.24577950000025 L 69.65579900000012,58.04577950000021" fill="none" stroke="rgb(89,89,89)" stroke-width="0.1"/>
  <path d="M 69.65579900000012,58.04577950000021 L 70.40579900000012,58.79577950000021" fill="none" stroke="rgb(89,89,89)" stroke-width="0.1"/>
  <path d="M 70.79579899999999,59.24577950000025 L 71.15579900000012,58.885779500000126" fill="none" stroke="rgb(89,89,89)" stroke-width="0.1"/>
  <path d="M 71.15579900000012,58.885779500000126 L 71.9957989999998,58.04577950000021" fill="none" stroke="rgb(89,89,89)" stroke-width="0.1"/>
  <path d="M 71.63579900000013,59.24577950000025 L 72.84579900000017,58.04577950000021" fill="none" stroke="rgb(89,89,89)" stroke-width="0.1"/>
  <path d="M 72.84579900000017,58.04577950000021 L 73.59579900000017,58.79577950000021" fill="none" stroke="rgb(89,89,89)" stroke-width="0.1"/>
  <path d="M 73.98579900000004,59.24577950000025 L 74.34579900000017,58.885779500000126" fill="none" stroke="rgb(89,89,89)" stroke-width="0.1"/>
  <path d="M 74.34579900000017,58.885779500000126 L 75.18579899999986,58.04577950000021" fill="none" stroke="rgb(89,89,89)" stroke-width="0.1"/>
  <path d="M 74.82579899999973,59.24577950000025 L 76.03579899999977,58.04577950000021" fill="none" stroke="rgb(89,89,89)" stroke-width="0.1"/>
  <path d="M 76.03579899999977,58.04577950000021 L 76.78579899999977,58.79577950000021" fill="none" stroke="rgb(89,89,89)" stroke-width="0.1"/>
  <path d="M 77.1757990000001,59.24577950000025 L 77.53579899999977,58.885779500000126" fill="none" stroke="rgb(89,89,89)" stroke-width="0.1"/>
  <path d="M 77.53579899999977,58.885779500000126 L 78.37579899999992,58.04577950000021" fill="none" stroke="rgb(89,89,89)" stroke-width="0.1"/>
  <path d="M 78.01579899999979,59.24577950000025 L 79.21579900000006,58.04577950000021" fill="none" stroke="rgb(89,89,89)" stroke-width="0.1"/>
  <path d="M 79.21579900000006,58.04577950000021 L 79.97579899999982,58.79577950000021" fill="none" stroke="rgb(89,89,89)" stroke-width="0.1"/>
  <path d="M 80.36579900000015,59.24577950000025 L 80.72579899999982,58.885779500000126" fill="none" stroke="rgb(89,89,89)" stroke-width="0.1"/>
  <path d="M 80.72579899999982,58.885779500000126 L 81.56579899999997,58.04577950000021" fill="none" stroke="rgb(89,89,89)" stroke-width="0.1"/>
  <path d="M 81.20579899999984,59.24577950000025 L 82.40579900000012,58.04577950000021" fill="none" stroke="rgb(89,89,89)" stroke-width="0.1"/>
  <path d="M 82.40579900000012,58.04577950000021 L 83.16579899999988,58.79577950000021" fill="none" stroke="rgb(89,89,89)" stroke-width="0.1"/>
  <path d="M 83.55579899999975,59.24577950000025 L 83.91579899999988,58.885779500000126" fill="none" stroke="rgb(89,89,89)" stroke-width="0.1"/>
  <path d="M 83.91579899999988,58.885779500000126 L 84.75579900000002,58.04577950000021" fill="none" stroke="rgb(89,89,89)" stroke-width="0.1"/>
  <path d="M 84.3957989999999,59.24577950000025 L 85.59579900000017,58.04577950000021" fill="none" stroke="rgb(89,89,89)" stroke-width="0.1"/>
  <path d="M 85.59579900000017,58.04577950000021 L 86.35579899999993,58.79577950000021" fill="none" stroke="rgb(89,89,89)" stroke-width="0.1"/>
  <path d="M 86.7457989999998,59.24577950000025 L 87.10579899999993,58.885779500000126" fill="none" stroke="rgb(89,89,89)" stroke-width="0.1"/>
  <path d="M 87.10579899999993,58.885779500000126 L 87.94579900000008,58.04577950000021" fill="none" stroke="rgb(89,89,89)" stroke-width="0.1"/>
  <path d="M 87.58579899999995,59.24577950000025 L 88.78579899999977,58.04577950000021" fill="none" stroke="rgb(89,89,89)" stroke-width="0.1"/>
  <path d="M 88.78579899999977,58.04577950000021 L 89.53579899999977,58.79577950000021" fill="none" stroke="rgb(89,89,89)" stroke-width="0.1"/>
  <path d="M 89.93579899999986,59.24577950000025 L 90.29579899999999,58.885779500000126" fill="none" stroke="rgb(89,89,89)" stroke-width="0.1"/>
  <path d="M 90.29579899999999,58.885779500000126 L 91.13579900000013,58.04577950000021" fill="none" stroke="rgb(89,89,89)" stroke-width="0.1"/>
  <path d="M 90.775799,59.24577950000025 L 91.97579899999982,58.04577950000021" fill="none" stroke="rgb(89,89,89)" stroke-width="0.1"/>
  <path d="M 91.97579899999982,58.04577950000021 L 92.72579899999982,58.79577950000021" fill="none" stroke="rgb(89,89,89)" stroke-width="0.1"/>
  <path d="M 93.12579899999992,59.24577950000025 L 93.48579900000004,58.885779500000126" fill="none" stroke="rgb(89,89,89)" stroke-width="0.1"/>
  <path d="M 93.48579900000004,58.885779500000126 L 94.32579899999973,58.04577950000021" fill="none" stroke="rgb(89,89,89)" stroke-width="0.1"/>
  <path d="M 93.96579900000006,59.24577950000025 L 95.16579899999988,58.04577950000021" fill="none" stroke="rgb(89,89,89)" stroke-width="0.1"/>
  <path d="M 95.16579899999988,58.04577950000021 L 95.91579899999988,58.79577950000021" fill="none" stroke="rgb(89,89,89)" stroke-width="0.1"/>
  <path d="M 96.30579899999975,59.24577950000025 L 96.6757990000001,58.885779500000126" fill="none" stroke="rgb(89,89,89)" stroke-width="0.1"/>
  <path d="M 96.6757990000001,58.885779500000126 L 97.51579899999979,58.04577950000021" fill="none" stroke="rgb(89,89,89)" stroke-width="0.1"/>
  <path d="M 97.15579900000012,59.24577950000025 L 98.35579899999993,58.04577950000021" fill="none" stroke="rgb(89,89,89)" stroke-width="0.1"/>
  <path d="M 98.35579899999993,58.04577950000021 L 99.10579899999993,58.79577950000021" fill="none" stroke="rgb(89,89,89)" stroke-width="0.1"/>
  <path d="M 99.4957989999998,59.24577950000025 L 99.85579899999993,58.885779500000126" fill="none" stroke="rgb(89,89,89)" stroke-width="0.1"/>
  <path d="M 99.85579899999993,58.885779500000126 L 100.0,58.74327498235289" fill="none" stroke="rgb(89,89,89)" stroke-width="0.1"/>
  <path d="M 25.995798999999806,100.0 L 25.995798999999806,75.24577950000025" fill="none" stroke="rgb(89,89,89)" stroke-width="0.1"/>
  <path d="M 25.995798999999806,75.24577950000025 L 21.995798999999806,79.24577950000025" fill="none" stroke="rgb(89,89,89)" stroke-width="0.1"/>
  <path d="M 21.995798999999806,79.24577950000025 L 21.995798999999806,100.0" fill="none" stroke="rgb(89,89,89)" stroke-width="0.1"/>
  <path d="M 0.0,78.74577950000025 L 6.995798999999806,78.74577950000025" fill="none" stroke="rgb(89,89,89)" stroke-width="0.1"/>
  <path d="M 6.995798999999806,78.74577950000025 L 6.995798999999806,74.74577950000025" fill="none" stroke="rgb(89,89,89)" stroke-width="0.1"/>
  <path d="M 6.995798999999806,74.74577950000025 L 0.0,74.74577950000025" fill="none" stroke="rgb(89,89,89)" stroke-width="0.1"/>
  <path d="M 6.995798999999806,80.24577950000025 L 26.995798999999806,80.24577950000025" fill="none" stroke="rgb(89,89,89)" stroke-width="0.1"/>
  <path d="M 26.995798999999806,80.24577950000025 L 26.995798999999806,66.24577950000025" fill="none" stroke="rgb(89,89,89)" stroke-width="0.1"/>
  <path d="M 26.995798999999806,66.24577950000025 L 6.995798999999806,66.24577950000025" fill="none" stroke="rgb(89,89,89)" stroke-width="0.1"/>
  <path d="M 6.995798999999806,66.24577950000025 L 6.995798999999806,80.24577950000025" fill="none" stroke="rgb(89,89,89)" stroke-width="0.1"/>
 </g>
 <g id="layerAx-01-B03-100$0$A-Detl-Thin" inkscape:groupmode="layer" inkscape:label="Ax-01-B03-100$0$A-Detl-Thin">
  <path d="M 6.995798999999806,66.24577950000025 L 26.995798999999806,66.24577950000025" fill="none" instance-id="-1" semantic-id="1" stroke="rgb(12,254,255)" stroke-width="0.1"/>
  <path d="M 26.995798999999806,66.24577950000025 L 26.995798999999806,80.24577950000025" fill="none" instance-id="-1" semantic-id="1" stroke="rgb(12,254,255)" stroke-width="0.1"/>
  <path d="M 26.995798999999806,80.24577950000025 L 6.995798999999806,80.24577950000025" fill="none" instance-id="-1" semantic-id="1" stroke="rgb(12,254,255)" stroke-width="0.1"/>
  <path d="M 6.995798999999806,80.24577950000025 L 6.995798999999806,66.24577950000025" fill="none" instance-id="-1" semantic-id="1" stroke="rgb(12,254,255)" stroke-width="0.1"/>
  <path d="M 25.995798999999806,80.24577950000025 L 25.995798999999806,100.0" fill="none" instance-id="-1" semantic-id="1" stroke="rgb(12,254,255)" stroke-width="0.1"/>
  <path d="M 21.995798999999806,100.0 L 21.995798999999806,80.24577950000025" fill="none" instance-id="-1" semantic-id="1" stroke="rgb(12,254,255)" stroke-width="0.1"/>
  <path d="M 6.995798999999806,78.74577950000025 L 0.0,78.74577950000025" fill="none" instance-id="-1" semantic-id="1" stroke="rgb(12,254,255)" stroke-width="0.1"/>
  <path d="M 0.0,74.74577950000025 L 6.995798999999806,74.74577950000025" fill="none" instance-id="-1" semantic-id="1" stroke="rgb(12,254,255)" stroke-width="0.1"/>
 </g>
 <g id="layerAx-01-B03-100$0$A-Spac-Area-Auto" inkscape:groupmode="layer" inkscape:label="Ax-01-B03-100$0$A-Spac-Area-Auto">
  <text fill="rgb(178,0,0)" font-family="Noto Sans CJK SC" font-size="2" transform="rotate(-0.0,91.30579899999975,73.51577950000024)" x="91.30579899999975" y="73.51577950000024">
   19.85m2
  </text>
 </g>
 <g id="layerAx-01-B03-100$0$A-Spac-Iden-Auto" inkscape:groupmode="layer" inkscape:label="Ax-01-B03-100$0$A-Spac-Iden-Auto">
  <text fill="rgb(255,12,133)" font-family="Noto Sans CJK SC" font-size="2" transform="rotate(-0.0,15.145798999999897,75.93577950000008)" x="15.145798999999897" y="75.93577950000008">
   集水坑
  </text>
  <text fill="rgb(255,12,133)" font-family="Noto Sans CJK SC" font-size="2" transform="rotate(-0.0,78.09579900000017,72.8057795000002)" x="78.09579900000017" y="72.8057795000002">
   控制室
  </text>
 </g>
 <g id="layerAx-01-B03-100$0$A-Wall" inkscape:groupmode="layer" inkscape:label="Ax-01-B03-100$0$A-Wall">
  <path d="M 0.0,61.24577950000025 L 66.9957989999998,61.24577950000025" fill="none" instance-id="-1" semantic-id="2" stroke="rgb(178,178,0)" stroke-width="0.1"/>
  <path d="M 0.0,66.24577950000025 L 66.9957989999998,66.24577950000025" fill="none" stroke="rgb(178,178,0)" stroke-width="0.1"/>
  <path d="M 66.9957989999998,61.24577950000025 L 100.0,61.24577950000025" fill="none" instance-id="-1" semantic-id="2" stroke="rgb(178,178,0)" stroke-width="0.1"/>
  <path d="M 66.9957989999998,66.24577950000025 L 100.0,66.24577950000025" fill="none" stroke="rgb(178,178,0)" stroke-width="0.1"/>
  <path d="M 67.9957989999998,66.24577950000025 L 67.9957989999998,81.24577950000025" fill="none" instance-id="-1" semantic-id="1" stroke="rgb(178,178,0)" stroke-width="0.1"/>
  <path d="M 65.9957989999998,66.24577950000025 L 65.9957989999998,83.24577950000025" fill="none" instance-id="-1" semantic-id="1" stroke="rgb(178,178,0)" stroke-width="0.1"/>
  <path d="M 67.9957989999998,81.24577950000025 L 68.9957989999998,81.24577950000025" fill="none" instance-id="-1" semantic-id="1" stroke="rgb(178,178,0)" stroke-width="0.1"/>
  <path d="M 65.9957989999998,83.24577950000025 L 68.9957989999998,83.24577950000025" fill="none" instance-id="-1" semantic-id="1" stroke="rgb(178,178,0)" stroke-width="0.1"/>
  <path d="M 68.9957989999998,81.24577950000025 L 68.9957989999998,83.24577950000025" fill="none" instance-id="-1" semantic-id="1" stroke="rgb(178,178,0)" stroke-width="0.1"/>
  <path d="M 80.9957989999998,81.24577950000025 L 82.9957989999998,81.24577950000025" fill="none" instance-id="-1" semantic-id="1" stroke="rgb(178,178,0)" stroke-width="0.1"/>
  <path d="M 80.9957989999998,83.24577950000025 L 82.9957989999998,83.24577950000025" fill="none" instance-id="-1" semantic-id="1" stroke="rgb(178,178,0)" stroke-width="0.1"/>
  <path d="M 80.9957989999998,81.24577950000025 L 80.9957989999998,83.24577950000025" fill="none" instance-id="-1" semantic-id="1" stroke="rgb(178,178,0)" stroke-width="0.1"/>
  <path d="M 82.9957989999998,81.24577950000025 L 82.9957989999998,83.24577950000025" fill="none" instance-id="-1" semantic-id="1" stroke="rgb(178,178,0)" stroke-width="0.1"/>
  <path d="M 92.9957989999998,81.24577950000025 L 100.0,81.24577950000025" fill="none" instance-id="-1" semantic-id="1" stroke="rgb(178,178,0)" stroke-width="0.1"/>
  <path d="M 92.9957989999998,83.24577950000025 L 100.0,83.24577950000025" fill="none" instance-id="-1" semantic-id="1" stroke="rgb(178,178,0)" stroke-width="0.1"/>
  <path d="M 92.9957989999998,81.24577950000025 L 92.9957989999998,83.24577950000025" fill="none" instance-id="-1" semantic-id="1" stroke="rgb(178,178,0)" stroke-width="0.1"/>
  <path d="M 0.0,60.24577950000025 L 100.0,60.24577950000025" fill="none" instance-id="-1" semantic-id="2" stroke="rgb(178,178,0)" stroke-width="0.1"/>
  <path d="M 0.0,59.24577950000025 L 100.0,59.24577950000025" fill="none" instance-id="-1" semantic-id="2" stroke="rgb(178,178,0)" stroke-width="0.1"/>
 </g>
 <g id="layerAx-01-B03-100$0$A-Wall-Patt" inkscape:groupmode="layer" inkscape:label="Ax-01-B03-100$0$A-Wall-Patt">
  <path d="M 0.0,66.24577950000025 L 66.9957989999998,66.24577950000025" fill="none" instance-id="-1" semantic-id="1" stroke="rgb(160,53,53)" stroke-width="0.1"/>
  <path d="M 66.9957989999998,66.24577950000025 L 66.9957989999998,62.24577950000025" fill="none" instance-id="-1" semantic-id="1" stroke="rgb(160,53,53)" stroke-width="0.1"/>
  <path d="M 66.9957989999998,62.24577950000025 L 66.9957989999998,61.24577950000025" fill="none" instance-id="-1" semantic-id="1" stroke="rgb(160,53,53)" stroke-width="0.1"/>
  <path d="M 66.9957989999998,61.24577950000025 L 0.0,61.24577950000025" fill="none" instance-id="-1" semantic-id="1" stroke="rgb(160,53,53)" stroke-width="0.1"/>
  <path d="M 66.9957989999998,66.24577950000025 L 100.0,66.24577950000025" fill="none" instance-id="-1" semantic-id="1" stroke="rgb(160,53,53)" stroke-width="0.1"/>
  <path d="M 100.0,61.24577950000025 L 66.9957989999998,61.24577950000025" fill="none" instance-id="-1" semantic-id="1" stroke="rgb(160,53,53)" stroke-width="0.1"/>
  <path d="M 66.9957989999998,61.24577950000025 L 66.9957989999998,62.24577950000025" fill="none" instance-id="-1" semantic-id="1" stroke="rgb(160,53,53)" stroke-width="0.1"/>
  <path d="M 66.9957989999998,62.24577950000025 L 66.9957989999998,66.24577950000025" fill="none" instance-id="-1" semantic-id="1" stroke="rgb(160,53,53)" stroke-width="0.1"/>
 </g>
 <g id="layerAx-01-B03-100$0$A-Wind" inkscape:groupmode="layer" inkscape:label="Ax-01-B03-100$0$A-Wind">
  <path d="M 69.29579899999999,88.09577950000016 A 5.85,5.85 0.0 0,0 74.9957989999998,82.24577950000025" fill="none" instance-id="1" semantic-id="4" stroke="rgb(0,178,178)" stroke-width="0.1"/>
  <path d="M 74.9957989999998,82.24577950000025 A 5.85,5.85 0.0 0,0 80.69579900000008,88.09577950000016" fill="none" instance-id="1" semantic-id="4" stroke="rgb(0,178,178)" stroke-width="0.1"/>
  <path d="M 68.9957989999998,83.24577950000025 L 80.9957989999998,83.24577950000025" fill="none" instance-id="1" semantic-id="4" stroke="rgb(0,178,178)" stroke-width="0.1"/>
  <path d="M 68.9957989999998,81.24577950000025 L 80.9957989999998,81.24577950000025" fill="none" instance-id="1" semantic-id="4" stroke="rgb(0,178,178)" stroke-width="0.1"/>
  <path d="M 82.9957989999998,82.58577950000017 L 92.9957989999998,82.58577950000017" fill="none" instance-id="2" semantic-id="9" stroke="rgb(0,178,178)" stroke-width="0.1"/>
  <path d="M 82.9957989999998,81.9157795000001 L 92.9957989999998,81.9157795000001" fill="none" instance-id="2" semantic-id="9" stroke="rgb(0,178,178)" stroke-width="0.1"/>
  <path d="M 69.29579899999999,82.24577950000025 L 69.29579899999999,88.09577950000016" fill="none" instance-id="1" semantic-id="4" stroke="rgb(0,178,178)" stroke-width="0.1"/>
  <path d="M 69.29579899999999,88.09577950000016 L 68.9957989999998,88.09577950000016" fill="none" instance-id="1" semantic-id="4" stroke="rgb(0,178,178)" stroke-width="0.1"/>
  <path d="M 68.9957989999998,88.09577950000016 L 68.9957989999998,82.24577950000025" fill="none" instance-id="1" semantic-id="4" stroke="rgb(0,178,178)" stroke-width="0.1"/>
  <path d="M 68.9957989999998,82.24577950000025 L 69.29579899999999,82.24577950000025" fill="none" instance-id="1" semantic-id="4" stroke="rgb(0,178,178)" stroke-width="0.1"/>
  <path d="M 80.9957989999998,82.24577950000025 L 80.9957989999998,88.09577950000016" fill="none" instance-id="1" semantic-id="4" stroke="rgb(0,178,178)" stroke-width="0.1"/>
  <path d="M 80.9957989999998,88.09577950000016 L 80.69579900000008,88.09577950000016" fill="none" instance-id="1" semantic-id="4" stroke="rgb(0,178,178)" stroke-width="0.1"/>
  <path d="M 80.69579900000008,88.09577950000016 L 80.69579900000008,82.24577950000025" fill="none" instance-id="1" semantic-id="4" stroke="rgb(0,178,178)" stroke-width="0.1"/>
  <path d="M 80.69579900000008,82.24577950000025 L 80.9957989999998,82.24577950000025" fill="none" instance-id="1" semantic-id="4" stroke="rgb(0,178,178)" stroke-width="0.1"/>
  <path d="M 92.9957989999998,81.24577950000025 L 92.9957989999998,83.24577950000025" fill="none" instance-id="2" semantic-id="9" stroke="rgb(0,178,178)" stroke-width="0.1"/>
  <path d="M 92.9957989999998,83.24577950000025 L 82.9957989999998,83.24577950000025" fill="none" instance-id="2" semantic-id="9" stroke="rgb(0,178,178)" stroke-width="0.1"/>
  <path d="M 82.9957989999998,83.24577950000025 L 82.9957989999998,81.24577950000025" fill="none" instance-id="2" semantic-id="9" stroke="rgb(0,178,178)" stroke-width="0.1"/>
  <path d="M 82.9957989999998,81.24577950000025 L 92.9957989999998,81.24577950000025" fill="none" instance-id="2" semantic-id="9" stroke="rgb(0,178,178)" stroke-width="0.1"/>
 </g>
 <g id="layerAx-01-B03-100$0$A-Wind-Iden" inkscape:groupmode="layer" inkscape:label="Ax-01-B03-100$0$A-Wind-Iden">
  <text fill="rgb(255,12,12)" font-family="Noto Sans CJK SC" font-size="2" transform="rotate(-3.41843e-08,65.10579899999993,90.60577950000015)" x="65.10579899999993" y="90.60577950000015">
   FM甲1221
  </text>
  <text fill="rgb(255,12,12)" font-family="Noto Sans CJK SC" font-size="2" transform="rotate(-3.41843e-08,83.13579900000013,90.60577950000015)" x="83.13579900000013" y="90.60577950000015">
   FC甲1010
  </text>
 </g>
 <g id="layerAx-01-B03-100$0$DIM_IDEN" inkscape:groupmode="layer" inkscape:label="Ax-01-B03-100$0$DIM_IDEN">
  <path d="M 49.525799000000006,93.51577950000024 L 13.335798999999952,93.51577950000024" fill="none" stroke="rgb(0,178,0)" stroke-width="0.1"/>
  <path d="M 13.335798999999952,93.51577950000024 L 13.335798999999952,77.71577950000028" fill="none" stroke="rgb(0,178,0)" stroke-width="0.1"/>
  <circle cx="13.335798999999952" cy="77.71577950000028" fill="none" r="0.149617" stroke="rgb(0,178,0)" stroke-width="0.1"/>
  <circle cx="44.525799000000006" cy="93.51577950000024" fill="none" r="5" stroke="rgb(0,178,0)" stroke-width="0.1"/>
  <text fill="rgb(0,0,0)" font-family="Noto Sans CJK SC" font-size="2" transform="rotate(-0.0,42.745798999999806,92.26577950000024)" x="42.745798999999806" y="92.26577950000024">
   12
  </text>
  <text fill="rgb(0,0,0)" font-family="Noto Sans CJK SC" font-size="2" transform="rotate(-0.0,41.31579899999997,97.26577950000024)" x="41.31579899999997" y="97.26577950000024">
   D06
  </text>
  <text fill="rgb(0,0,0)" font-family="Noto Sans CJK SC" font-size="2" transform="rotate(-0.0,7.435798999999861,71.46577950000028)" x="7.435798999999861" y="71.46577950000028">
   集水坑坑底标高-17.400（结）
  </text>
  <text fill="rgb(0,0,0)" font-family="Noto Sans CJK SC" font-size="2" transform="rotate(-0.0,34.33579899999995,98.4157795000001)" x="34.33579899999995" y="98.4157795000001">
   做法详
  </text>
 </g>
 <g id="layerAx-01-B03-RFQT$0$-RF平时" inkscape:groupmode="layer" inkscape:label="Ax-01-B03-RFQT$0$-RF平时">
  <path d="M 100.0,66.24577950000025 L 0.0,66.24577950000025" fill="none" instance-id="-1" semantic-id="1" stroke="rgb(178,0,178)" stroke-width="0.1"/>
  <path d="M 100.0,61.24577950000025 L 0.0,61.24577950000025" fill="none" instance-id="-1" semantic-id="1" stroke="rgb(178,0,178)" stroke-width="0.1"/>
 </g>
 <g id="layerAx-01-B03-RFQT$0$人防墙-填充" inkscape:groupmode="layer" inkscape:label="Ax-01-B03-RFQT$0$人防墙-填充">
  <path d="M 100.0,66.24577950000025 L 0.0,66.24577950000025" fill="none" instance-id="-1" semantic-id="1" stroke="rgb(12,133,255)" stroke-width="0.1"/>
  <path d="M 0.0,61.24577950000025 L 100.0,61.24577950000025" fill="none" instance-id="-1" semantic-id="1" stroke="rgb(12,133,255)" stroke-width="0.1"/>
 </g>
 <g id="layerAx-01-Grid-100$0$A-Grid" inkscape:groupmode="layer" inkscape:label="Ax-01-Grid-100$0$A-Grid">
  <path d="M 62.995798999999806,0.0 L 62.995798999999806,100.0" fill="none" stroke="rgb(142,0,107)" stroke-width="0.1"/>
  <path d="M 0.0,89.24577950000025 L 100.0,89.24577950000025" fill="none" stroke="rgb(142,0,107)" stroke-width="0.1"/>
  <path d="M 62.995798999999806,0.0 L 62.995798999999806,100.0" fill="none" stroke="rgb(142,0,107)" stroke-width="0.1"/>
  <path d="M 0.0,89.24577950000025 L 100.0,89.24577950000025" fill="none" stroke="rgb(142,0,107)" stroke-width="0.1"/>
 </g>
 <g id="layerAx-01-Grid-B-100$0$A-Grid" inkscape:groupmode="layer" inkscape:label="Ax-01-Grid-B-100$0$A-Grid">
  <path d="M 0.0,65.24577950000025 L 100.0,65.24577950000025" fill="none" stroke="rgb(142,0,107)" stroke-width="0.1"/>
  <path d="M 0.0,1.7457795000002534 L 100.0,1.7457795000002534" fill="none" stroke="rgb(142,0,107)" stroke-width="0.1"/>
  <path d="M 0.0,65.24577950000025 L 100.0,65.24577950000025" fill="none" stroke="rgb(142,0,107)" stroke-width="0.1"/>
  <path d="M 0.0,1.7457795000002534 L 100.0,1.7457795000002534" fill="none" stroke="rgb(142,0,107)" stroke-width="0.1"/>
 </g>
 <g id="layerPx-01-B03$0$P-Pipe-Risr" inkscape:groupmode="layer" inkscape:label="Px-01-B03$0$P-Pipe-Risr">
  <path d="M 11.515798999999788,67.73577950000026 L 11.525799000000006,67.72577950000027" fill="none" stroke="rgb(0,0,0)" stroke-width="0.1"/>
  <path d="M 12.475798999999824,66.77577950000023 L 12.485799000000043,66.76577950000024" fill="none" stroke="rgb(0,0,0)" stroke-width="0.1"/>
  <path d="M 21.515798999999788,67.64577950000012 L 21.525799000000006,67.62577950000014" fill="none" stroke="rgb(0,0,0)" stroke-width="0.1"/>
  <path d="M 22.475798999999824,66.68577950000008 L 22.485799000000043,66.6657795000001" fill="none" stroke="rgb(0,0,0)" stroke-width="0.1"/>
  <path d="M 11.515798999999788,67.73577950000026 L 11.525799000000006,67.72577950000027" fill="none" stroke="rgb(0,0,0)" stroke-width="0.1"/>
  <path d="M 12.475798999999824,66.77577950000023 L 12.485799000000043,66.76577950000024" fill="none" stroke="rgb(0,0,0)" stroke-width="0.1"/>
  <path d="M 21.515798999999788,67.64577950000012 L 21.525799000000006,67.62577950000014" fill="none" stroke="rgb(0,0,0)" stroke-width="0.1"/>
  <path d="M 22.475798999999824,66.68577950000008 L 22.485799000000043,66.6657795000001" fill="none" stroke="rgb(0,0,0)" stroke-width="0.1"/>
  <circle cx="11.995798999999806" cy="67.24577950000025" fill="none" r="0.630391" stroke="rgb(142,107,0)" stroke-width="0.1"/>
  <circle cx="21.995798999999806" cy="67.15577950000011" fill="none" r="0.630391" stroke="rgb(142,107,0)" stroke-width="0.1"/>
  <circle cx="11.995798999999806" cy="67.24577950000025" fill="none" r="0.630391" stroke="rgb(142,107,0)" stroke-width="0.1"/>
  <circle cx="21.995798999999806" cy="67.15577950000011" fill="none" r="0.630391" stroke="rgb(142,107,0)" stroke-width="0.1"/>
 </g>
 <g id="layerPx-01-B03$0$P-Pipe-Risr-Arch" inkscape:groupmode="layer" inkscape:label="Px-01-B03$0$P-Pipe-Risr-Arch">
  <circle cx="11.995798999999806" cy="67.24577950000025" fill="none" r="0.49" stroke="rgb(178,0,178)" stroke-width="0.1"/>
  <circle cx="21.995798999999806" cy="67.15577950000011" fill="none" r="0.49" stroke="rgb(178,0,178)" stroke-width="0.1"/>
  <circle cx="11.995798999999806" cy="67.24577950000025" fill="none" r="0.49" stroke="rgb(178,0,178)" stroke-width="0.1"/>
  <circle cx="21.995798999999806" cy="67.15577950000011" fill="none" r="0.49" stroke="rgb(178,0,178)" stroke-width="0.1"/>
 </g>
 <g id="layerPx-01-B03-JSK$0$P-Sump" inkscape:groupmode="layer" inkscape:label="Px-01-B03-JSK$0$P-Sump">
  <path d="M 25.995798999999806,67.24577950000025 L 7.995798999999806,67.24577950000025" fill="none" stroke="rgb(178,0,178)" stroke-width="0.1"/>
  <path d="M 7.995798999999806,67.24577950000025 L 7.995798999999806,79.24577950000025" fill="none" stroke="rgb(178,0,178)" stroke-width="0.1"/>
  <path d="M 7.995798999999806,79.24577950000025 L 25.995798999999806,79.24577950000025" fill="none" stroke="rgb(178,0,178)" stroke-width="0.1"/>
  <path d="M 25.995798999999806,79.24577950000025 L 25.995798999999806,67.24577950000025" fill="none" stroke="rgb(178,0,178)" stroke-width="0.1"/>
  <path d="M 25.995798999999806,67.24577950000025 L 7.995798999999806,67.24577950000025" fill="none" stroke="rgb(178,0,178)" stroke-width="0.1"/>
  <path d="M 7.995798999999806,67.24577950000025 L 7.995798999999806,79.24577950000025" fill="none" stroke="rgb(178,0,178)" stroke-width="0.1"/>
  <path d="M 7.995798999999806,79.24577950000025 L 25.995798999999806,79.24577950000025" fill="none" stroke="rgb(178,0,178)" stroke-width="0.1"/>
  <path d="M 25.995798999999806,79.24577950000025 L 25.995798999999806,67.24577950000025" fill="none" stroke="rgb(178,0,178)" stroke-width="0.1"/>
  <path d="M 25.995798999999806,67.24577950000025 L 7.995798999999806,67.24577950000025" fill="none" stroke="rgb(178,0,178)" stroke-width="0.1"/>
  <path d="M 7.995798999999806,67.24577950000025 L 7.995798999999806,79.24577950000025" fill="none" stroke="rgb(178,0,178)" stroke-width="0.1"/>
  <path d="M 7.995798999999806,79.24577950000025 L 25.995798999999806,79.24577950000025" fill="none" stroke="rgb(178,0,178)" stroke-width="0.1"/>
  <path d="M 25.995798999999806,79.24577950000025 L 25.995798999999806,67.24577950000025" fill="none" stroke="rgb(178,0,178)" stroke-width="0.1"/>
  <path d="M 7.995798999999806,79.24577950000025 L 23.545798999999988,77.76577950000024" fill="none" stroke="rgb(178,0,178)" stroke-width="0.1"/>
  <path d="M 23.545798999999988,77.76577950000024 L 25.995798999999806,67.24577950000025" fill="none" stroke="rgb(178,0,178)" stroke-width="0.1"/>
  <path d="M 7.995798999999806,79.24577950000025 L 23.545798999999988,77.76577950000024" fill="none" stroke="rgb(178,0,178)" stroke-width="0.1"/>
  <path d="M 23.545798999999988,77.76577950000024 L 25.995798999999806,67.24577950000025" fill="none" stroke="rgb(178,0,178)" stroke-width="0.1"/>
  <path d="M 7.995798999999806,79.24577950000025 L 23.545798999999988,77.76577950000024" fill="none" stroke="rgb(178,0,178)" stroke-width="0.1"/>
  <path d="M 23.545798999999988,77.76577950000024 L 25.995798999999806,67.24577950000025" fill="none" stroke="rgb(178,0,178)" stroke-width="0.1"/>
 </g>
</svg>