<?xml version="1.0" encoding="utf-8"?>
<svg style="background-color: #000;" version="1.1" viewBox="0 0 100.0 100.0" xmlns="http://www.w3.org/2000/svg" xmlns:inkscape="http://www.inkscape.org/namespaces/inkscape">
 <g id="layerAX-01-B01-100$0$A-Spac-Area-Auto" inkscape:groupmode="layer" inkscape:label="AX-01-B01-100$0$A-Spac-Area-Auto">
  <text fill="rgb(178,0,0)" font-family="Noto Sans CJK SC" font-size="2" transform="rotate(-0.0,45.51452499999999,35.814077)" x="45.51452499999999" y="35.814077">
   109.22m2
  </text>
 </g>
 <g id="layerAX-01-B01-100$0$A-Spac-Iden-Auto" inkscape:groupmode="layer" inkscape:label="AX-01-B01-100$0$A-Spac-Iden-Auto">
  <text fill="rgb(255,12,133)" font-family="Noto Sans CJK SC" font-size="2" transform="rotate(-0.0,50.302525,31.064076999999997)" x="50.302525" y="31.064076999999997">
   消防控制室
  </text>
 </g>
 <g id="layerAx-01-Grid-100$0$A-Grid" inkscape:groupmode="layer" inkscape:label="Ax-01-Grid-100$0$A-Grid">
  <path d="M 38.761525000000006,0.0 L 38.761525000000006,100.0" fill="none" stroke="rgb(142,0,107)" stroke-width="0.1"/>
  <path d="M 80.761525,0.0 L 80.761525,100.0" fill="none" stroke="rgb(142,0,107)" stroke-width="0.1"/>
  <path d="M 0.0,47.064077 L 100.0,47.064077" fill="none" stroke="rgb(142,0,107)" stroke-width="0.1"/>
  <path d="M 0.0,71.564077 L 100.0,71.564077" fill="none" stroke="rgb(142,0,107)" stroke-width="0.1"/>
 </g>
 <g id="layerAx-01-Grid-B-100$0$A-Grid" inkscape:groupmode="layer" inkscape:label="Ax-01-Grid-B-100$0$A-Grid">
  <path d="M 0.0,23.064076999999997 L 100.0,23.064076999999997" fill="none" stroke="rgb(142,0,107)" stroke-width="0.1"/>
 </g>
 <g id="layerSX-01-M-COLU-B01$0$S-COLU" inkscape:groupmode="layer" inkscape:label="SX-01-M-COLU-B01$0$S-COLU">
  <path d="M 76.761525,75.564077 L 84.761525,75.564077" fill="none" stroke="rgb(178,88,0)" stroke-width="0.1"/>
  <path d="M 84.761525,75.564077 L 84.761525,67.564077" fill="none" stroke="rgb(178,88,0)" stroke-width="0.1"/>
  <path d="M 84.761525,67.564077 L 76.761525,67.564077" fill="none" stroke="rgb(178,88,0)" stroke-width="0.1"/>
  <path d="M 76.761525,67.564077 L 76.761525,75.564077" fill="none" stroke="rgb(178,88,0)" stroke-width="0.1"/>
 </g>
 <g id="layerSX-01-M-COLU-B01$0$S-PATT-WALL" inkscape:groupmode="layer" inkscape:label="SX-01-M-COLU-B01$0$S-PATT-WALL">
  <path d="M 76.761525,67.77107699999999 L 76.96752500000002,67.564077" fill="none" stroke="rgb(79,160,53)" stroke-width="0.1"/>
  <path d="M 76.761525,68.30107699999999 L 77.49852500000003,67.564077" fill="none" stroke="rgb(79,160,53)" stroke-width="0.1"/>
  <path d="M 76.761525,68.831077 L 78.028525,67.564077" fill="none" stroke="rgb(79,160,53)" stroke-width="0.1"/>
  <path d="M 76.761525,69.362077 L 78.55852500000003,67.564077" fill="none" stroke="rgb(79,160,53)" stroke-width="0.1"/>
  <path d="M 76.761525,69.892077 L 79.08952500000004,67.564077" fill="none" stroke="rgb(79,160,53)" stroke-width="0.1"/>
  <path d="M 76.761525,70.422077 L 79.61952500000001,67.564077" fill="none" stroke="rgb(79,160,53)" stroke-width="0.1"/>
  <path d="M 76.761525,70.95307700000001 L 80.14952500000004,67.564077" fill="none" stroke="rgb(79,160,53)" stroke-width="0.1"/>
  <path d="M 76.761525,71.48307700000001 L 80.68052500000005,67.564077" fill="none" stroke="rgb(79,160,53)" stroke-width="0.1"/>
  <path d="M 76.761525,72.01307700000001 L 81.21052500000002,67.564077" fill="none" stroke="rgb(79,160,53)" stroke-width="0.1"/>
  <path d="M 76.761525,72.54407699999999 L 81.74052500000005,67.564077" fill="none" stroke="rgb(79,160,53)" stroke-width="0.1"/>
  <path d="M 76.761525,73.07407699999999 L 82.271525,67.564077" fill="none" stroke="rgb(79,160,53)" stroke-width="0.1"/>
  <path d="M 76.761525,73.60407699999999 L 82.80152500000003,67.564077" fill="none" stroke="rgb(79,160,53)" stroke-width="0.1"/>
  <path d="M 76.761525,74.135077 L 83.331525,67.564077" fill="none" stroke="rgb(79,160,53)" stroke-width="0.1"/>
  <path d="M 76.761525,74.665077 L 83.862525,67.564077" fill="none" stroke="rgb(79,160,53)" stroke-width="0.1"/>
  <path d="M 76.761525,75.195077 L 84.39252500000003,67.564077" fill="none" stroke="rgb(79,160,53)" stroke-width="0.1"/>
  <path d="M 76.92252500000001,75.564077 L 84.761525,67.725077" fill="none" stroke="rgb(79,160,53)" stroke-width="0.1"/>
  <path d="M 77.45352500000001,75.564077 L 84.761525,68.256077" fill="none" stroke="rgb(79,160,53)" stroke-width="0.1"/>
  <path d="M 77.98352500000004,75.564077 L 84.761525,68.786077" fill="none" stroke="rgb(79,160,53)" stroke-width="0.1"/>
  <path d="M 78.51352500000002,75.564077 L 84.761525,69.316077" fill="none" stroke="rgb(79,160,53)" stroke-width="0.1"/>
  <path d="M 79.04452500000002,75.564077 L 84.761525,69.84707699999998" fill="none" stroke="rgb(79,160,53)" stroke-width="0.1"/>
  <path d="M 79.574525,75.564077 L 84.761525,70.37707699999999" fill="none" stroke="rgb(79,160,53)" stroke-width="0.1"/>
  <path d="M 80.10452500000002,75.564077 L 84.761525,70.90707699999999" fill="none" stroke="rgb(79,160,53)" stroke-width="0.1"/>
  <path d="M 80.63552500000003,75.564077 L 84.761525,71.43807699999999" fill="none" stroke="rgb(79,160,53)" stroke-width="0.1"/>
  <path d="M 81.165525,75.564077 L 84.761525,71.968077" fill="none" stroke="rgb(79,160,53)" stroke-width="0.1"/>
  <path d="M 81.69552500000003,75.564077 L 84.761525,72.498077" fill="none" stroke="rgb(79,160,53)" stroke-width="0.1"/>
  <path d="M 82.22652500000004,75.564077 L 84.761525,73.029077" fill="none" stroke="rgb(79,160,53)" stroke-width="0.1"/>
  <path d="M 82.75652500000001,75.564077 L 84.761525,73.559077" fill="none" stroke="rgb(79,160,53)" stroke-width="0.1"/>
  <path d="M 83.28652500000004,75.564077 L 84.761525,74.089077" fill="none" stroke="rgb(79,160,53)" stroke-width="0.1"/>
  <path d="M 83.81752500000005,75.564077 L 84.761525,74.62007700000001" fill="none" stroke="rgb(79,160,53)" stroke-width="0.1"/>
  <path d="M 84.34752500000002,75.564077 L 84.761525,75.15007700000001" fill="none" stroke="rgb(79,160,53)" stroke-width="0.1"/>
  <path d="M 77.31752500000005,67.910077 L 77.38952499999999,67.82307699999998" fill="none" stroke="rgb(79,160,53)" stroke-width="0.1"/>
  <path d="M 77.52552500000002,69.03807699999999 L 77.59752500000002,68.952077" fill="none" stroke="rgb(79,160,53)" stroke-width="0.1"/>
  <path d="M 78.39352500000001,68.004077 L 78.46552500000001,67.91807700000001" fill="none" stroke="rgb(79,160,53)" stroke-width="0.1"/>
  <path d="M 76.86652500000002,71.200077 L 76.93852500000003,71.11407700000001" fill="none" stroke="rgb(79,160,53)" stroke-width="0.1"/>
  <path d="M 77.73352500000004,70.166077 L 77.80652500000002,70.08007699999999" fill="none" stroke="rgb(79,160,53)" stroke-width="0.1"/>
  <path d="M 78.60152500000004,69.13207700000001 L 78.67352500000004,69.046077" fill="none" stroke="rgb(79,160,53)" stroke-width="0.1"/>
  <path d="M 79.46952500000003,68.09807699999999 L 79.54152500000004,68.012077" fill="none" stroke="rgb(79,160,53)" stroke-width="0.1"/>
  <path d="M 77.074525,72.32907699999998 L 77.146525,72.242077" fill="none" stroke="rgb(79,160,53)" stroke-width="0.1"/>
  <path d="M 77.94152500000001,71.29507699999999 L 78.01452499999999,71.208077" fill="none" stroke="rgb(79,160,53)" stroke-width="0.1"/>
  <path d="M 78.80952500000001,70.260077 L 78.88152500000001,70.17407700000001" fill="none" stroke="rgb(79,160,53)" stroke-width="0.1"/>
  <path d="M 79.677525,69.226077 L 79.749525,69.14007699999999" fill="none" stroke="rgb(79,160,53)" stroke-width="0.1"/>
  <path d="M 80.545525,68.19207699999998 L 80.617525,68.106077" fill="none" stroke="rgb(79,160,53)" stroke-width="0.1"/>
  <path d="M 77.28252500000002,73.457077 L 77.35452500000002,73.37107699999999" fill="none" stroke="rgb(79,160,53)" stroke-width="0.1"/>
  <path d="M 78.15052500000002,72.423077 L 78.22252500000002,72.337077" fill="none" stroke="rgb(79,160,53)" stroke-width="0.1"/>
  <path d="M 79.01752500000003,71.38907699999999 L 79.09052500000001,71.302077" fill="none" stroke="rgb(79,160,53)" stroke-width="0.1"/>
  <path d="M 79.88552500000003,70.35407699999999 L 79.95752500000003,70.268077" fill="none" stroke="rgb(79,160,53)" stroke-width="0.1"/>
  <path d="M 80.75352500000002,69.320077 L 80.82552500000003,69.23407699999998" fill="none" stroke="rgb(79,160,53)" stroke-width="0.1"/>
  <path d="M 81.62152500000002,68.286077 L 81.69352500000002,68.200077" fill="none" stroke="rgb(79,160,53)" stroke-width="0.1"/>
  <path d="M 77.49052500000005,74.58507699999998 L 77.562525,74.499077" fill="none" stroke="rgb(79,160,53)" stroke-width="0.1"/>
  <path d="M 78.35852500000004,73.55107699999999 L 78.43052500000005,73.46507700000001" fill="none" stroke="rgb(79,160,53)" stroke-width="0.1"/>
  <path d="M 79.225525,72.517077 L 79.29852500000004,72.43107699999999" fill="none" stroke="rgb(79,160,53)" stroke-width="0.1"/>
  <path d="M 80.093525,71.48307700000001 L 80.165525,71.397077" fill="none" stroke="rgb(79,160,53)" stroke-width="0.1"/>
  <path d="M 80.961525,70.44907699999999 L 81.033525,70.362077" fill="none" stroke="rgb(79,160,53)" stroke-width="0.1"/>
  <path d="M 81.82952500000005,69.41407699999999 L 81.90152499999999,69.32807700000001" fill="none" stroke="rgb(79,160,53)" stroke-width="0.1"/>
  <path d="M 82.69652500000001,68.380077 L 82.76952500000004,68.29407699999999" fill="none" stroke="rgb(79,160,53)" stroke-width="0.1"/>
  <path d="M 78.56652500000001,74.679077 L 78.63852500000002,74.593077" fill="none" stroke="rgb(79,160,53)" stroke-width="0.1"/>
  <path d="M 79.43452500000001,73.64507699999999 L 79.50652500000001,73.559077" fill="none" stroke="rgb(79,160,53)" stroke-width="0.1"/>
  <path d="M 80.30152500000003,72.611077 L 80.374525,72.52507700000001" fill="none" stroke="rgb(79,160,53)" stroke-width="0.1"/>
  <path d="M 81.16952500000002,71.577077 L 81.24152500000002,71.49107699999999" fill="none" stroke="rgb(79,160,53)" stroke-width="0.1"/>
  <path d="M 82.03752500000002,70.54307700000001 L 82.10952500000002,70.457077" fill="none" stroke="rgb(79,160,53)" stroke-width="0.1"/>
  <path d="M 82.90552500000001,69.50907699999999 L 82.97752500000001,69.422077" fill="none" stroke="rgb(79,160,53)" stroke-width="0.1"/>
  <path d="M 83.77252500000003,68.474077 L 83.84552500000001,68.38807700000001" fill="none" stroke="rgb(79,160,53)" stroke-width="0.1"/>
  <path d="M 79.64252500000003,74.773077 L 79.71452500000004,74.68707699999999" fill="none" stroke="rgb(79,160,53)" stroke-width="0.1"/>
  <path d="M 80.509525,73.73907700000001 L 80.58252500000003,73.653077" fill="none" stroke="rgb(79,160,53)" stroke-width="0.1"/>
  <path d="M 81.37752500000005,72.70507699999999 L 81.45052500000003,72.619077" fill="none" stroke="rgb(79,160,53)" stroke-width="0.1"/>
  <path d="M 82.24552500000004,71.671077 L 82.31752500000005,71.58507699999998" fill="none" stroke="rgb(79,160,53)" stroke-width="0.1"/>
  <path d="M 83.11352500000004,70.637077 L 83.18552500000004,70.55107699999999" fill="none" stroke="rgb(79,160,53)" stroke-width="0.1"/>
  <path d="M 83.980525,69.60307699999998 L 84.05352500000004,69.517077" fill="none" stroke="rgb(79,160,53)" stroke-width="0.1"/>
  <path d="M 80.718525,74.868077 L 80.790525,74.78107700000001" fill="none" stroke="rgb(79,160,53)" stroke-width="0.1"/>
  <path d="M 81.58552500000002,73.833077 L 81.658525,73.74707699999999" fill="none" stroke="rgb(79,160,53)" stroke-width="0.1"/>
  <path d="M 82.45352500000001,72.79907700000001 L 82.52552500000002,72.713077" fill="none" stroke="rgb(79,160,53)" stroke-width="0.1"/>
  <path d="M 83.32152500000001,71.76507699999999 L 83.39352500000001,71.679077" fill="none" stroke="rgb(79,160,53)" stroke-width="0.1"/>
  <path d="M 84.189525,70.731077 L 84.261525,70.64507699999999" fill="none" stroke="rgb(79,160,53)" stroke-width="0.1"/>
  <path d="M 81.79352500000005,74.962077 L 81.86652500000002,74.87607700000001" fill="none" stroke="rgb(79,160,53)" stroke-width="0.1"/>
  <path d="M 82.66152500000004,73.928077 L 82.73452500000002,73.84107699999998" fill="none" stroke="rgb(79,160,53)" stroke-width="0.1"/>
  <path d="M 83.52952500000004,72.893077 L 83.60152500000004,72.80707699999999" fill="none" stroke="rgb(79,160,53)" stroke-width="0.1"/>
  <path d="M 84.39752500000003,71.85907699999998 L 84.46952500000003,71.773077" fill="none" stroke="rgb(79,160,53)" stroke-width="0.1"/>
  <path d="M 82.86952500000001,75.05607699999999 L 82.94252500000005,74.970077" fill="none" stroke="rgb(79,160,53)" stroke-width="0.1"/>
  <path d="M 83.737525,74.022077 L 83.80952500000001,73.93607700000001" fill="none" stroke="rgb(79,160,53)" stroke-width="0.1"/>
  <path d="M 84.605525,72.988077 L 84.677525,72.90107699999999" fill="none" stroke="rgb(79,160,53)" stroke-width="0.1"/>
  <path d="M 83.94552500000003,75.15007700000001 L 84.01852500000001,75.064077" fill="none" stroke="rgb(79,160,53)" stroke-width="0.1"/>
  <path d="M 77.31752500000005,67.910077 L 77.40752500000002,67.917077" fill="none" stroke="rgb(79,160,53)" stroke-width="0.1"/>
  <path d="M 78.39352500000001,68.004077 L 78.48352500000004,68.012077" fill="none" stroke="rgb(79,160,53)" stroke-width="0.1"/>
  <path d="M 79.46952500000003,68.09807699999999 L 79.55852500000003,68.106077" fill="none" stroke="rgb(79,160,53)" stroke-width="0.1"/>
  <path d="M 80.545525,68.19207699999998 L 80.634525,68.200077" fill="none" stroke="rgb(79,160,53)" stroke-width="0.1"/>
  <path d="M 81.62152500000002,68.286077 L 81.71052500000002,68.29407699999999" fill="none" stroke="rgb(79,160,53)" stroke-width="0.1"/>
  <path d="M 82.69652500000001,68.380077 L 82.78652500000004,68.38807700000001" fill="none" stroke="rgb(79,160,53)" stroke-width="0.1"/>
  <path d="M 83.77252500000003,68.474077 L 83.862525,68.482077" fill="none" stroke="rgb(79,160,53)" stroke-width="0.1"/>
  <path d="M 77.52552500000002,69.03807699999999 L 77.61552500000005,69.046077" fill="none" stroke="rgb(79,160,53)" stroke-width="0.1"/>
  <path d="M 78.60152500000004,69.13207700000001 L 78.69152500000001,69.14007699999999" fill="none" stroke="rgb(79,160,53)" stroke-width="0.1"/>
  <path d="M 79.677525,69.226077 L 79.76752500000003,69.23407699999998" fill="none" stroke="rgb(79,160,53)" stroke-width="0.1"/>
  <path d="M 80.75352500000002,69.320077 L 80.84252500000002,69.32807700000001" fill="none" stroke="rgb(79,160,53)" stroke-width="0.1"/>
  <path d="M 81.82952500000005,69.41407699999999 L 81.91852500000005,69.422077" fill="none" stroke="rgb(79,160,53)" stroke-width="0.1"/>
  <path d="M 82.90552500000001,69.50907699999999 L 82.99452500000001,69.516077" fill="none" stroke="rgb(79,160,53)" stroke-width="0.1"/>
  <path d="M 83.980525,69.60307699999998 L 84.07052500000003,69.611077" fill="none" stroke="rgb(79,160,53)" stroke-width="0.1"/>
  <path d="M 77.73352500000004,70.166077 L 77.82352500000002,70.17407700000001" fill="none" stroke="rgb(79,160,53)" stroke-width="0.1"/>
  <path d="M 78.80952500000001,70.260077 L 78.89952500000004,70.268077" fill="none" stroke="rgb(79,160,53)" stroke-width="0.1"/>
  <path d="M 79.88552500000003,70.35407699999999 L 79.975525,70.362077" fill="none" stroke="rgb(79,160,53)" stroke-width="0.1"/>
  <path d="M 80.961525,70.44907699999999 L 81.05152500000003,70.456077" fill="none" stroke="rgb(79,160,53)" stroke-width="0.1"/>
  <path d="M 82.03752500000002,70.54307700000001 L 82.12652500000002,70.55107699999999" fill="none" stroke="rgb(79,160,53)" stroke-width="0.1"/>
  <path d="M 83.11352500000004,70.637077 L 83.20252500000004,70.64507699999999" fill="none" stroke="rgb(79,160,53)" stroke-width="0.1"/>
  <path d="M 84.189525,70.731077 L 84.278525,70.73907700000001" fill="none" stroke="rgb(79,160,53)" stroke-width="0.1"/>
  <path d="M 76.86652500000002,71.200077 L 76.95552500000002,71.208077" fill="none" stroke="rgb(79,160,53)" stroke-width="0.1"/>
  <path d="M 77.94152500000001,71.29507699999999 L 78.03152500000004,71.302077" fill="none" stroke="rgb(79,160,53)" stroke-width="0.1"/>
  <path d="M 79.01752500000003,71.38907699999999 L 79.10752500000001,71.39607699999999" fill="none" stroke="rgb(79,160,53)" stroke-width="0.1"/>
  <path d="M 80.093525,71.48307700000001 L 80.18352500000003,71.49107699999999" fill="none" stroke="rgb(79,160,53)" stroke-width="0.1"/>
  <path d="M 81.16952500000002,71.577077 L 81.259525,71.58507699999998" fill="none" stroke="rgb(79,160,53)" stroke-width="0.1"/>
  <path d="M 82.24552500000004,71.671077 L 82.33552500000002,71.679077" fill="none" stroke="rgb(79,160,53)" stroke-width="0.1"/>
  <path d="M 83.32152500000001,71.76507699999999 L 83.41152500000004,71.773077" fill="none" stroke="rgb(79,160,53)" stroke-width="0.1"/>
  <path d="M 84.39752500000003,71.85907699999998 L 84.48652500000003,71.867077" fill="none" stroke="rgb(79,160,53)" stroke-width="0.1"/>
  <path d="M 77.074525,72.32907699999998 L 77.16352499999999,72.337077" fill="none" stroke="rgb(79,160,53)" stroke-width="0.1"/>
  <path d="M 78.15052500000002,72.423077 L 78.23952500000001,72.43107699999999" fill="none" stroke="rgb(79,160,53)" stroke-width="0.1"/>
  <path d="M 79.225525,72.517077 L 79.31552500000004,72.52507700000001" fill="none" stroke="rgb(79,160,53)" stroke-width="0.1"/>
  <path d="M 80.30152500000003,72.611077 L 80.391525,72.619077" fill="none" stroke="rgb(79,160,53)" stroke-width="0.1"/>
  <path d="M 81.37752500000005,72.70507699999999 L 81.46752500000002,72.713077" fill="none" stroke="rgb(79,160,53)" stroke-width="0.1"/>
  <path d="M 82.45352500000001,72.79907700000001 L 82.54352500000005,72.80707699999999" fill="none" stroke="rgb(79,160,53)" stroke-width="0.1"/>
  <path d="M 83.52952500000004,72.893077 L 83.61952500000001,72.90107699999999" fill="none" stroke="rgb(79,160,53)" stroke-width="0.1"/>
  <path d="M 84.605525,72.988077 L 84.69552500000003,72.99507700000001" fill="none" stroke="rgb(79,160,53)" stroke-width="0.1"/>
  <path d="M 77.28252500000002,73.457077 L 77.37152500000002,73.46507700000001" fill="none" stroke="rgb(79,160,53)" stroke-width="0.1"/>
  <path d="M 78.35852500000004,73.55107699999999 L 78.44752500000004,73.559077" fill="none" stroke="rgb(79,160,53)" stroke-width="0.1"/>
  <path d="M 79.43452500000001,73.64507699999999 L 79.523525,73.653077" fill="none" stroke="rgb(79,160,53)" stroke-width="0.1"/>
  <path d="M 80.509525,73.73907700000001 L 80.59952500000003,73.74707699999999" fill="none" stroke="rgb(79,160,53)" stroke-width="0.1"/>
  <path d="M 81.58552500000002,73.833077 L 81.675525,73.84107699999998" fill="none" stroke="rgb(79,160,53)" stroke-width="0.1"/>
  <path d="M 82.66152500000004,73.928077 L 82.75152500000002,73.935077" fill="none" stroke="rgb(79,160,53)" stroke-width="0.1"/>
  <path d="M 83.737525,74.022077 L 83.82752500000004,74.030077" fill="none" stroke="rgb(79,160,53)" stroke-width="0.1"/>
  <path d="M 77.49052500000005,74.58507699999998 L 77.58052500000002,74.593077" fill="none" stroke="rgb(79,160,53)" stroke-width="0.1"/>
  <path d="M 78.56652500000001,74.679077 L 78.65552500000001,74.68707699999999" fill="none" stroke="rgb(79,160,53)" stroke-width="0.1"/>
  <path d="M 79.64252500000003,74.773077 L 79.73152500000003,74.78107700000001" fill="none" stroke="rgb(79,160,53)" stroke-width="0.1"/>
  <path d="M 80.718525,74.868077 L 80.807525,74.875077" fill="none" stroke="rgb(79,160,53)" stroke-width="0.1"/>
  <path d="M 81.79352500000005,74.962077 L 81.88352500000002,74.970077" fill="none" stroke="rgb(79,160,53)" stroke-width="0.1"/>
  <path d="M 82.86952500000001,75.05607699999999 L 82.95952500000004,75.064077" fill="none" stroke="rgb(79,160,53)" stroke-width="0.1"/>
  <path d="M 83.94552500000003,75.15007700000001 L 84.035525,75.15807699999999" fill="none" stroke="rgb(79,160,53)" stroke-width="0.1"/>
  <path d="M 77.58052500000002,74.594077 L 77.562525,74.500077" fill="none" stroke="rgb(79,160,53)" stroke-width="0.1"/>
  <path d="M 77.372525,73.46607699999998 L 77.35452500000002,73.37207699999999" fill="none" stroke="rgb(79,160,53)" stroke-width="0.1"/>
  <path d="M 77.16452500000003,72.337077 L 77.146525,72.243077" fill="none" stroke="rgb(79,160,53)" stroke-width="0.1"/>
  <path d="M 76.95552500000002,71.20907700000001 L 76.93852500000003,71.11507699999999" fill="none" stroke="rgb(79,160,53)" stroke-width="0.1"/>
  <path d="M 78.65652500000004,74.68807699999999 L 78.63852500000002,74.594077" fill="none" stroke="rgb(79,160,53)" stroke-width="0.1"/>
  <path d="M 78.44852500000002,73.560077 L 78.43052500000005,73.46607699999998" fill="none" stroke="rgb(79,160,53)" stroke-width="0.1"/>
  <path d="M 78.23952500000001,72.43207699999999 L 78.22252500000002,72.338077" fill="none" stroke="rgb(79,160,53)" stroke-width="0.1"/>
  <path d="M 78.03152500000004,71.303077 L 78.01452499999999,71.20907700000001" fill="none" stroke="rgb(79,160,53)" stroke-width="0.1"/>
  <path d="M 77.82352500000002,70.17507699999999 L 77.80652500000002,70.081077" fill="none" stroke="rgb(79,160,53)" stroke-width="0.1"/>
  <path d="M 77.61552500000005,69.047077 L 77.598525,68.95307700000001" fill="none" stroke="rgb(79,160,53)" stroke-width="0.1"/>
  <path d="M 77.40752500000002,67.91807700000001 L 77.39052500000003,67.82407699999999" fill="none" stroke="rgb(79,160,53)" stroke-width="0.1"/>
  <path d="M 79.73252500000001,74.78207699999999 L 79.71452500000004,74.68807699999999" fill="none" stroke="rgb(79,160,53)" stroke-width="0.1"/>
  <path d="M 79.523525,73.654077 L 79.50652500000001,73.560077" fill="none" stroke="rgb(79,160,53)" stroke-width="0.1"/>
  <path d="M 79.31552500000004,72.52607699999999 L 79.29852500000004,72.43207699999999" fill="none" stroke="rgb(79,160,53)" stroke-width="0.1"/>
  <path d="M 79.10752500000001,71.397077 L 79.09052500000001,71.303077" fill="none" stroke="rgb(79,160,53)" stroke-width="0.1"/>
  <path d="M 78.89952500000004,70.26907700000001 L 78.88252500000004,70.17507699999999" fill="none" stroke="rgb(79,160,53)" stroke-width="0.1"/>
  <path d="M 78.69152500000001,69.141077 L 78.67452500000002,69.047077" fill="none" stroke="rgb(79,160,53)" stroke-width="0.1"/>
  <path d="M 78.48352500000004,68.01307700000001 L 78.46652500000005,67.91907699999999" fill="none" stroke="rgb(79,160,53)" stroke-width="0.1"/>
  <path d="M 80.807525,74.87607700000001 L 80.790525,74.78207699999999" fill="none" stroke="rgb(79,160,53)" stroke-width="0.1"/>
  <path d="M 80.59952500000003,73.748077 L 80.58252500000003,73.654077" fill="none" stroke="rgb(79,160,53)" stroke-width="0.1"/>
  <path d="M 80.391525,72.62007700000001 L 80.374525,72.52607699999999" fill="none" stroke="rgb(79,160,53)" stroke-width="0.1"/>
  <path d="M 80.18352500000003,71.492077 L 80.16652500000004,71.397077" fill="none" stroke="rgb(79,160,53)" stroke-width="0.1"/>
  <path d="M 79.975525,70.363077 L 79.95852500000001,70.26907700000001" fill="none" stroke="rgb(79,160,53)" stroke-width="0.1"/>
  <path d="M 79.76752500000003,69.23507699999999 L 79.75052500000004,69.141077" fill="none" stroke="rgb(79,160,53)" stroke-width="0.1"/>
  <path d="M 79.55952500000001,68.107077 L 79.54152500000004,68.01307700000001" fill="none" stroke="rgb(79,160,53)" stroke-width="0.1"/>
  <path d="M 81.88352500000002,74.97107700000001 L 81.86652500000002,74.87607700000001" fill="none" stroke="rgb(79,160,53)" stroke-width="0.1"/>
  <path d="M 81.675525,73.84207699999999 L 81.658525,73.748077" fill="none" stroke="rgb(79,160,53)" stroke-width="0.1"/>
  <path d="M 81.46752500000002,72.714077 L 81.45052500000003,72.62007700000001" fill="none" stroke="rgb(79,160,53)" stroke-width="0.1"/>
  <path d="M 81.259525,71.58607699999999 L 81.242525,71.492077" fill="none" stroke="rgb(79,160,53)" stroke-width="0.1"/>
  <path d="M 81.05152500000003,70.457077 L 81.03452500000003,70.363077" fill="none" stroke="rgb(79,160,53)" stroke-width="0.1"/>
  <path d="M 80.843525,69.32907699999998 L 80.82552500000003,69.23507699999999" fill="none" stroke="rgb(79,160,53)" stroke-width="0.1"/>
  <path d="M 80.63552500000003,68.201077 L 80.617525,68.107077" fill="none" stroke="rgb(79,160,53)" stroke-width="0.1"/>
  <path d="M 82.95952500000004,75.065077 L 82.94252500000005,74.97107700000001" fill="none" stroke="rgb(79,160,53)" stroke-width="0.1"/>
  <path d="M 82.75152500000002,73.93607700000001 L 82.73452500000002,73.84207699999999" fill="none" stroke="rgb(79,160,53)" stroke-width="0.1"/>
  <path d="M 82.54352500000005,72.808077 L 82.52652499999999,72.714077" fill="none" stroke="rgb(79,160,53)" stroke-width="0.1"/>
  <path d="M 82.33552500000002,71.68007700000001 L 82.31852500000002,71.58607699999999" fill="none" stroke="rgb(79,160,53)" stroke-width="0.1"/>
  <path d="M 82.12752500000005,70.55107699999999 L 82.10952500000002,70.457077" fill="none" stroke="rgb(79,160,53)" stroke-width="0.1"/>
  <path d="M 81.91952500000002,69.423077 L 81.90152499999999,69.32907699999998" fill="none" stroke="rgb(79,160,53)" stroke-width="0.1"/>
  <path d="M 81.711525,68.29507699999999 L 81.69352500000002,68.201077" fill="none" stroke="rgb(79,160,53)" stroke-width="0.1"/>
  <path d="M 84.035525,75.159077 L 84.01852500000001,75.065077" fill="none" stroke="rgb(79,160,53)" stroke-width="0.1"/>
  <path d="M 83.82752500000004,74.030077 L 83.81052500000004,73.93607700000001" fill="none" stroke="rgb(79,160,53)" stroke-width="0.1"/>
  <path d="M 83.61952500000001,72.90207699999999 L 83.60252500000001,72.808077" fill="none" stroke="rgb(79,160,53)" stroke-width="0.1"/>
  <path d="M 83.41152500000004,71.774077 L 83.39352500000001,71.68007700000001" fill="none" stroke="rgb(79,160,53)" stroke-width="0.1"/>
  <path d="M 83.20352500000001,70.64607699999999 L 83.18552500000004,70.552077" fill="none" stroke="rgb(79,160,53)" stroke-width="0.1"/>
  <path d="M 82.99552500000004,69.517077 L 82.97752500000001,69.423077" fill="none" stroke="rgb(79,160,53)" stroke-width="0.1"/>
  <path d="M 82.78652500000004,68.38907699999999 L 82.76952500000004,68.29507699999999" fill="none" stroke="rgb(79,160,53)" stroke-width="0.1"/>
  <path d="M 84.69552500000003,72.99607699999999 L 84.677525,72.90207699999999" fill="none" stroke="rgb(79,160,53)" stroke-width="0.1"/>
  <path d="M 84.487525,71.868077 L 84.46952500000003,71.774077" fill="none" stroke="rgb(79,160,53)" stroke-width="0.1"/>
  <path d="M 84.27952500000004,70.74007699999999 L 84.261525,70.64607699999999" fill="none" stroke="rgb(79,160,53)" stroke-width="0.1"/>
  <path d="M 84.07052500000003,69.611077 L 84.05352500000004,69.517077" fill="none" stroke="rgb(79,160,53)" stroke-width="0.1"/>
  <path d="M 83.862525,68.48307700000001 L 83.84552500000001,68.38907699999999" fill="none" stroke="rgb(79,160,53)" stroke-width="0.1"/>
  <path d="M 76.80352500000004,70.27107699999999 L 76.920525,70.149077" fill="none" stroke="rgb(79,160,53)" stroke-width="0.1"/>
  <path d="M 78.20552500000002,68.809077 L 78.32252500000004,68.68807699999999" fill="none" stroke="rgb(79,160,53)" stroke-width="0.1"/>
  <path d="M 77.00252500000005,71.980077 L 77.11952500000001,71.85807700000001" fill="none" stroke="rgb(79,160,53)" stroke-width="0.1"/>
  <path d="M 78.40452500000004,70.51907700000001 L 78.521525,70.397077" fill="none" stroke="rgb(79,160,53)" stroke-width="0.1"/>
  <path d="M 79.80652500000002,69.058077 L 79.92352500000004,68.93607700000001" fill="none" stroke="rgb(79,160,53)" stroke-width="0.1"/>
  <path d="M 81.20852500000001,67.59607700000001 L 81.23952500000001,67.564077" fill="none" stroke="rgb(79,160,53)" stroke-width="0.1"/>
  <path d="M 77.201525,73.689077 L 77.31852500000002,73.56807699999999" fill="none" stroke="rgb(79,160,53)" stroke-width="0.1"/>
  <path d="M 78.60352500000005,72.22807699999998 L 78.72052500000001,72.107077" fill="none" stroke="rgb(79,160,53)" stroke-width="0.1"/>
  <path d="M 80.00552500000003,70.767077 L 80.122525,70.64507699999999" fill="none" stroke="rgb(79,160,53)" stroke-width="0.1"/>
  <path d="M 81.40752500000002,69.30607699999999 L 81.52452500000004,69.184077" fill="none" stroke="rgb(79,160,53)" stroke-width="0.1"/>
  <path d="M 82.80952500000001,67.845077 L 82.92652500000003,67.72307699999999" fill="none" stroke="rgb(79,160,53)" stroke-width="0.1"/>
  <path d="M 77.40052500000002,75.399077 L 77.51752500000003,75.27707699999999" fill="none" stroke="rgb(79,160,53)" stroke-width="0.1"/>
  <path d="M 78.802525,73.93807699999999 L 78.91952500000002,73.816077" fill="none" stroke="rgb(79,160,53)" stroke-width="0.1"/>
  <path d="M 80.20452500000005,72.47707700000001 L 80.32152500000001,72.355077" fill="none" stroke="rgb(79,160,53)" stroke-width="0.1"/>
  <path d="M 81.60652500000003,71.01507699999999 L 81.723525,70.89407700000001" fill="none" stroke="rgb(79,160,53)" stroke-width="0.1"/>
  <path d="M 83.00852500000002,69.554077 L 83.12552500000004,69.43207699999999" fill="none" stroke="rgb(79,160,53)" stroke-width="0.1"/>
  <path d="M 84.410525,68.093077 L 84.52752500000003,67.97107700000001" fill="none" stroke="rgb(79,160,53)" stroke-width="0.1"/>
  <path d="M 79.081525,75.564077 L 79.11852500000003,75.52507700000001" fill="none" stroke="rgb(79,160,53)" stroke-width="0.1"/>
  <path d="M 80.403525,74.18607700000001 L 80.52052500000002,74.064077" fill="none" stroke="rgb(79,160,53)" stroke-width="0.1"/>
  <path d="M 81.80552500000005,72.725077 L 81.92252500000001,72.60307699999998" fill="none" stroke="rgb(79,160,53)" stroke-width="0.1"/>
  <path d="M 83.20752500000003,71.26407699999999 L 83.324525,71.142077" fill="none" stroke="rgb(79,160,53)" stroke-width="0.1"/>
  <path d="M 84.60952500000002,69.802077 L 84.72652500000004,69.68107699999999" fill="none" stroke="rgb(79,160,53)" stroke-width="0.1"/>
  <path d="M 82.004525,74.434077 L 82.12052500000004,74.31307699999999" fill="none" stroke="rgb(79,160,53)" stroke-width="0.1"/>
  <path d="M 83.40652500000004,72.97307699999999 L 83.52252500000003,72.851077" fill="none" stroke="rgb(79,160,53)" stroke-width="0.1"/>
  <path d="M 83.605525,74.683077 L 83.72152500000004,74.56107700000001" fill="none" stroke="rgb(79,160,53)" stroke-width="0.1"/>
  <path d="M 77.53452500000003,75.42007699999999 L 77.51752500000003,75.278077" fill="none" stroke="rgb(79,160,53)" stroke-width="0.1"/>
  <path d="M 77.33552500000002,73.71107699999999 L 77.31852500000002,73.569077" fill="none" stroke="rgb(79,160,53)" stroke-width="0.1"/>
  <path d="M 77.136525,72.00207699999999 L 77.11952500000001,71.85907699999998" fill="none" stroke="rgb(79,160,53)" stroke-width="0.1"/>
  <path d="M 76.937525,70.292077 L 76.920525,70.15007700000001" fill="none" stroke="rgb(79,160,53)" stroke-width="0.1"/>
  <path d="M 79.122525,75.564077 L 79.11852500000003,75.52607699999999" fill="none" stroke="rgb(79,160,53)" stroke-width="0.1"/>
  <path d="M 78.93652500000002,73.95907700000001 L 78.91952500000002,73.81707699999998" fill="none" stroke="rgb(79,160,53)" stroke-width="0.1"/>
  <path d="M 78.737525,72.250077 L 78.72052500000001,72.107077" fill="none" stroke="rgb(79,160,53)" stroke-width="0.1"/>
  <path d="M 78.53852499999999,70.540077 L 78.521525,70.398077" fill="none" stroke="rgb(79,160,53)" stroke-width="0.1"/>
  <path d="M 78.33952500000004,68.831077 L 78.32252500000004,68.68807699999999" fill="none" stroke="rgb(79,160,53)" stroke-width="0.1"/>
  <path d="M 80.53652500000004,74.208077 L 80.52052500000002,74.065077" fill="none" stroke="rgb(79,160,53)" stroke-width="0.1"/>
  <path d="M 80.338525,72.498077 L 80.32152500000001,72.356077" fill="none" stroke="rgb(79,160,53)" stroke-width="0.1"/>
  <path d="M 80.13952499999999,70.78907699999999 L 80.122525,70.64607699999999" fill="none" stroke="rgb(79,160,53)" stroke-width="0.1"/>
  <path d="M 79.94052500000004,69.07907699999998 L 79.92352500000004,68.93707699999999" fill="none" stroke="rgb(79,160,53)" stroke-width="0.1"/>
  <path d="M 82.13752500000004,74.456077 L 82.12152500000002,74.31307699999999" fill="none" stroke="rgb(79,160,53)" stroke-width="0.1"/>
  <path d="M 81.93852500000003,72.74607699999999 L 81.92252500000001,72.60407699999999" fill="none" stroke="rgb(79,160,53)" stroke-width="0.1"/>
  <path d="M 81.74052500000005,71.03707700000001 L 81.723525,70.89407700000001" fill="none" stroke="rgb(79,160,53)" stroke-width="0.1"/>
  <path d="M 81.54152500000004,69.327077 L 81.52452500000004,69.185077" fill="none" stroke="rgb(79,160,53)" stroke-width="0.1"/>
  <path d="M 81.34252500000002,67.618077 L 81.336525,67.564077" fill="none" stroke="rgb(79,160,53)" stroke-width="0.1"/>
  <path d="M 83.73852500000004,74.70407699999998 L 83.72252500000002,74.56207699999999" fill="none" stroke="rgb(79,160,53)" stroke-width="0.1"/>
  <path d="M 83.53952500000003,72.99507700000001 L 83.523525,72.85207700000001" fill="none" stroke="rgb(79,160,53)" stroke-width="0.1"/>
  <path d="M 83.34052500000001,71.285077 L 83.324525,71.143077" fill="none" stroke="rgb(79,160,53)" stroke-width="0.1"/>
  <path d="M 83.14252500000003,69.576077 L 83.12552500000004,69.433077" fill="none" stroke="rgb(79,160,53)" stroke-width="0.1"/>
  <path d="M 82.94352500000002,67.86607699999999 L 82.92652500000003,67.724077" fill="none" stroke="rgb(79,160,53)" stroke-width="0.1"/>
  <path d="M 84.742525,69.82407699999999 L 84.72652500000004,69.68207699999999" fill="none" stroke="rgb(79,160,53)" stroke-width="0.1"/>
  <path d="M 84.54452500000002,68.11507699999999 L 84.52752500000003,67.97207699999998" fill="none" stroke="rgb(79,160,53)" stroke-width="0.1"/>
  <path d="M 81.20852500000001,67.59607700000001 L 81.34252500000002,67.617077" fill="none" stroke="rgb(79,160,53)" stroke-width="0.1"/>
  <path d="M 82.80952500000001,67.845077 L 82.94252500000005,67.86507699999999" fill="none" stroke="rgb(79,160,53)" stroke-width="0.1"/>
  <path d="M 84.410525,68.093077 L 84.54352500000005,68.11407700000001" fill="none" stroke="rgb(79,160,53)" stroke-width="0.1"/>
  <path d="M 78.20552500000002,68.809077 L 78.33952500000004,68.83007699999999" fill="none" stroke="rgb(79,160,53)" stroke-width="0.1"/>
  <path d="M 79.80652500000002,69.058077 L 79.94052500000004,69.07807700000001" fill="none" stroke="rgb(79,160,53)" stroke-width="0.1"/>
  <path d="M 81.40752500000002,69.30607699999999 L 81.540525,69.327077" fill="none" stroke="rgb(79,160,53)" stroke-width="0.1"/>
  <path d="M 83.00852500000002,69.554077 L 83.141525,69.575077" fill="none" stroke="rgb(79,160,53)" stroke-width="0.1"/>
  <path d="M 84.60952500000002,69.802077 L 84.742525,69.82307699999998" fill="none" stroke="rgb(79,160,53)" stroke-width="0.1"/>
  <path d="M 76.80352500000004,70.27107699999999 L 76.937525,70.291077" fill="none" stroke="rgb(79,160,53)" stroke-width="0.1"/>
  <path d="M 78.40452500000004,70.51907700000001 L 78.53852499999999,70.540077" fill="none" stroke="rgb(79,160,53)" stroke-width="0.1"/>
  <path d="M 80.00552500000003,70.767077 L 80.13852500000002,70.78807699999999" fill="none" stroke="rgb(79,160,53)" stroke-width="0.1"/>
  <path d="M 81.60652500000003,71.01507699999999 L 81.73952500000001,71.036077" fill="none" stroke="rgb(79,160,53)" stroke-width="0.1"/>
  <path d="M 83.20752500000003,71.26407699999999 L 83.34052500000001,71.284077" fill="none" stroke="rgb(79,160,53)" stroke-width="0.1"/>
  <path d="M 77.00252500000005,71.980077 L 77.136525,72.00107700000001" fill="none" stroke="rgb(79,160,53)" stroke-width="0.1"/>
  <path d="M 78.60352500000005,72.22807699999998 L 78.73652500000003,72.249077" fill="none" stroke="rgb(79,160,53)" stroke-width="0.1"/>
  <path d="M 80.20452500000005,72.47707700000001 L 80.33752500000003,72.49707699999999" fill="none" stroke="rgb(79,160,53)" stroke-width="0.1"/>
  <path d="M 81.80552500000005,72.725077 L 81.93852500000003,72.74607699999999" fill="none" stroke="rgb(79,160,53)" stroke-width="0.1"/>
  <path d="M 83.40652500000004,72.97307699999999 L 83.53952500000003,72.994077" fill="none" stroke="rgb(79,160,53)" stroke-width="0.1"/>
  <path d="M 77.201525,73.689077 L 77.33452500000004,73.71007699999998" fill="none" stroke="rgb(79,160,53)" stroke-width="0.1"/>
  <path d="M 78.802525,73.93807699999999 L 78.93552500000004,73.958077" fill="none" stroke="rgb(79,160,53)" stroke-width="0.1"/>
  <path d="M 80.403525,74.18607700000001 L 80.53652500000004,74.207077" fill="none" stroke="rgb(79,160,53)" stroke-width="0.1"/>
  <path d="M 82.004525,74.434077 L 82.13752500000004,74.45507699999999" fill="none" stroke="rgb(79,160,53)" stroke-width="0.1"/>
  <path d="M 83.605525,74.683077 L 83.73852500000004,74.70307700000001" fill="none" stroke="rgb(79,160,53)" stroke-width="0.1"/>
  <path d="M 77.40052500000002,75.399077 L 77.533525,75.42007699999999" fill="none" stroke="rgb(79,160,53)" stroke-width="0.1"/>
  <path d="M 77.10852500000004,68.61607699999999 L 77.213525,68.576077" fill="none" stroke="rgb(79,160,53)" stroke-width="0.1"/>
  <path d="M 78.36852500000003,68.13307699999999 L 78.473525,68.09207699999999" fill="none" stroke="rgb(79,160,53)" stroke-width="0.1"/>
  <path d="M 79.629525,67.649077 L 79.73452500000002,67.60807700000001" fill="none" stroke="rgb(79,160,53)" stroke-width="0.1"/>
  <path d="M 76.761525,69.69707700000001 L 76.848525,69.66407699999999" fill="none" stroke="rgb(79,160,53)" stroke-width="0.1"/>
  <path d="M 78.00352500000002,69.220077 L 78.10852500000004,69.18007700000001" fill="none" stroke="rgb(79,160,53)" stroke-width="0.1"/>
  <path d="M 79.26452499999999,68.737077 L 79.36952500000001,68.696077" fill="none" stroke="rgb(79,160,53)" stroke-width="0.1"/>
  <path d="M 80.52452500000004,68.25307699999999 L 80.629525,68.212077" fill="none" stroke="rgb(79,160,53)" stroke-width="0.1"/>
  <path d="M 81.78452500000003,67.76907700000001 L 81.88952499999999,67.72907699999999" fill="none" stroke="rgb(79,160,53)" stroke-width="0.1"/>
  <path d="M 77.63852500000002,70.308077 L 77.74352500000003,70.268077" fill="none" stroke="rgb(79,160,53)" stroke-width="0.1"/>
  <path d="M 78.89952500000004,69.82407699999999 L 79.004525,69.784077" fill="none" stroke="rgb(79,160,53)" stroke-width="0.1"/>
  <path d="M 80.15952500000003,69.34007700000001 L 80.26452499999999,69.30007699999999" fill="none" stroke="rgb(79,160,53)" stroke-width="0.1"/>
  <path d="M 81.41952500000002,68.857077 L 81.52452500000004,68.816077" fill="none" stroke="rgb(79,160,53)" stroke-width="0.1"/>
  <path d="M 82.68052500000005,68.373077 L 82.785525,68.333077" fill="none" stroke="rgb(79,160,53)" stroke-width="0.1"/>
  <path d="M 83.94052500000004,67.88907699999999 L 84.045525,67.849077" fill="none" stroke="rgb(79,160,53)" stroke-width="0.1"/>
  <path d="M 77.273525,71.39607699999999 L 77.37852500000002,71.355077" fill="none" stroke="rgb(79,160,53)" stroke-width="0.1"/>
  <path d="M 78.53452500000003,70.91207700000001 L 78.63952499999999,70.87207699999999" fill="none" stroke="rgb(79,160,53)" stroke-width="0.1"/>
  <path d="M 79.79452500000002,70.428077 L 79.89952500000004,70.38807700000001" fill="none" stroke="rgb(79,160,53)" stroke-width="0.1"/>
  <path d="M 81.05452500000001,69.944077 L 81.15952500000003,69.904077" fill="none" stroke="rgb(79,160,53)" stroke-width="0.1"/>
  <path d="M 82.31552500000004,69.46107699999999 L 82.420525,69.42007699999999" fill="none" stroke="rgb(79,160,53)" stroke-width="0.1"/>
  <path d="M 83.57552500000003,68.97707700000001 L 83.68052500000005,68.93607700000001" fill="none" stroke="rgb(79,160,53)" stroke-width="0.1"/>
  <path d="M 76.908525,72.48307700000001 L 77.01352500000002,72.44307699999999" fill="none" stroke="rgb(79,160,53)" stroke-width="0.1"/>
  <path d="M 78.16952500000002,72.000077 L 78.27452500000004,71.95907700000001" fill="none" stroke="rgb(79,160,53)" stroke-width="0.1"/>
  <path d="M 79.42952500000001,71.516077 L 79.53452500000003,71.476077" fill="none" stroke="rgb(79,160,53)" stroke-width="0.1"/>
  <path d="M 80.689525,71.03207699999999 L 80.79452500000002,70.992077" fill="none" stroke="rgb(79,160,53)" stroke-width="0.1"/>
  <path d="M 81.95052500000003,70.548077 L 82.05552500000005,70.50807699999999" fill="none" stroke="rgb(79,160,53)" stroke-width="0.1"/>
  <path d="M 83.21052500000002,70.065077 L 83.31552500000004,70.024077" fill="none" stroke="rgb(79,160,53)" stroke-width="0.1"/>
  <path d="M 84.47052500000001,69.581077 L 84.57552500000003,69.540077" fill="none" stroke="rgb(79,160,53)" stroke-width="0.1"/>
  <path d="M 77.80452500000001,73.087077 L 77.90952500000003,73.047077" fill="none" stroke="rgb(79,160,53)" stroke-width="0.1"/>
  <path d="M 79.064525,72.60407699999999 L 79.16952500000002,72.56307699999999" fill="none" stroke="rgb(79,160,53)" stroke-width="0.1"/>
  <path d="M 80.324525,72.12007700000001 L 80.42952500000001,72.08007699999999" fill="none" stroke="rgb(79,160,53)" stroke-width="0.1"/>
  <path d="M 81.58552500000002,71.636077 L 81.69052500000004,71.59607700000001" fill="none" stroke="rgb(79,160,53)" stroke-width="0.1"/>
  <path d="M 82.84552500000001,71.15207699999999 L 82.95052500000003,71.112077" fill="none" stroke="rgb(79,160,53)" stroke-width="0.1"/>
  <path d="M 84.105525,70.66807700000001 L 84.21052500000002,70.62807699999999" fill="none" stroke="rgb(79,160,53)" stroke-width="0.1"/>
  <path d="M 77.439525,74.17507699999999 L 77.54452500000002,74.135077" fill="none" stroke="rgb(79,160,53)" stroke-width="0.1"/>
  <path d="M 78.699525,73.691077 L 78.80452500000001,73.65107699999999" fill="none" stroke="rgb(79,160,53)" stroke-width="0.1"/>
  <path d="M 79.95952500000004,73.208077 L 80.064525,73.167077" fill="none" stroke="rgb(79,160,53)" stroke-width="0.1"/>
  <path d="M 81.22052500000001,72.724077 L 81.32552500000003,72.683077" fill="none" stroke="rgb(79,160,53)" stroke-width="0.1"/>
  <path d="M 82.480525,72.24007699999999 L 82.58552500000002,72.200077" fill="none" stroke="rgb(79,160,53)" stroke-width="0.1"/>
  <path d="M 83.74052500000005,71.756077 L 83.84552500000001,71.71607699999998" fill="none" stroke="rgb(79,160,53)" stroke-width="0.1"/>
  <path d="M 77.074525,75.26307700000001 L 77.17952500000001,75.22307699999999" fill="none" stroke="rgb(79,160,53)" stroke-width="0.1"/>
  <path d="M 78.33452500000004,74.779077 L 78.439525,74.73907700000001" fill="none" stroke="rgb(79,160,53)" stroke-width="0.1"/>
  <path d="M 79.59452500000003,74.29507699999999 L 79.70052500000003,74.255077" fill="none" stroke="rgb(79,160,53)" stroke-width="0.1"/>
  <path d="M 80.855525,73.81107700000001 L 80.96052500000002,73.77107699999999" fill="none" stroke="rgb(79,160,53)" stroke-width="0.1"/>
  <path d="M 82.11552500000005,73.32807700000001 L 82.22052500000001,73.28707700000001" fill="none" stroke="rgb(79,160,53)" stroke-width="0.1"/>
  <path d="M 83.37552500000004,72.844077 L 83.48152500000003,72.804077" fill="none" stroke="rgb(79,160,53)" stroke-width="0.1"/>
  <path d="M 84.636525,72.36007699999999 L 84.74152500000002,72.320077" fill="none" stroke="rgb(79,160,53)" stroke-width="0.1"/>
  <path d="M 79.230525,75.38307699999999 L 79.33552500000002,75.343077" fill="none" stroke="rgb(79,160,53)" stroke-width="0.1"/>
  <path d="M 80.49052500000005,74.899077 L 80.59552500000001,74.85907699999998" fill="none" stroke="rgb(79,160,53)" stroke-width="0.1"/>
  <path d="M 81.75052500000004,74.415077 L 81.855525,74.375077" fill="none" stroke="rgb(79,160,53)" stroke-width="0.1"/>
  <path d="M 83.011525,73.93207699999999 L 83.11652500000002,73.891077" fill="none" stroke="rgb(79,160,53)" stroke-width="0.1"/>
  <path d="M 84.271525,73.44807699999998 L 84.37652500000002,73.40807699999999" fill="none" stroke="rgb(79,160,53)" stroke-width="0.1"/>
  <path d="M 81.38552500000003,75.50307699999999 L 81.49052500000005,75.463077" fill="none" stroke="rgb(79,160,53)" stroke-width="0.1"/>
  <path d="M 82.646525,75.01907700000001 L 82.75152500000002,74.97907699999999" fill="none" stroke="rgb(79,160,53)" stroke-width="0.1"/>
  <path d="M 83.90652500000004,74.536077 L 84.011525,74.49507700000001" fill="none" stroke="rgb(79,160,53)" stroke-width="0.1"/>
  <path d="M 83.94052500000004,67.88907699999999 L 84.01552500000003,67.939077" fill="none" stroke="rgb(79,160,53)" stroke-width="0.1"/>
  <path d="M 81.78452500000003,67.76907700000001 L 81.85952500000002,67.819077" fill="none" stroke="rgb(79,160,53)" stroke-width="0.1"/>
  <path d="M 82.68052500000005,68.373077 L 82.754525,68.423077" fill="none" stroke="rgb(79,160,53)" stroke-width="0.1"/>
  <path d="M 83.57552500000003,68.97707700000001 L 83.65052500000002,69.02707699999999" fill="none" stroke="rgb(79,160,53)" stroke-width="0.1"/>
  <path d="M 84.47052500000001,69.581077 L 84.545525,69.631077" fill="none" stroke="rgb(79,160,53)" stroke-width="0.1"/>
  <path d="M 79.629525,67.649077 L 79.70352500000001,67.69907699999999" fill="none" stroke="rgb(79,160,53)" stroke-width="0.1"/>
  <path d="M 80.52452500000004,68.25307699999999 L 80.59952500000003,68.303077" fill="none" stroke="rgb(79,160,53)" stroke-width="0.1"/>
  <path d="M 81.41952500000002,68.857077 L 81.49452500000001,68.90707699999999" fill="none" stroke="rgb(79,160,53)" stroke-width="0.1"/>
  <path d="M 82.31552500000004,69.46107699999999 L 82.38952499999999,69.511077" fill="none" stroke="rgb(79,160,53)" stroke-width="0.1"/>
  <path d="M 83.21052500000002,70.065077 L 83.285525,70.11507699999999" fill="none" stroke="rgb(79,160,53)" stroke-width="0.1"/>
  <path d="M 84.105525,70.66807700000001 L 84.18052500000005,70.719077" fill="none" stroke="rgb(79,160,53)" stroke-width="0.1"/>
  <path d="M 77.52552500000002,67.564077 L 77.54852500000004,67.57907699999998" fill="none" stroke="rgb(79,160,53)" stroke-width="0.1"/>
  <path d="M 78.36852500000003,68.13307699999999 L 78.44352500000002,68.183077" fill="none" stroke="rgb(79,160,53)" stroke-width="0.1"/>
  <path d="M 79.26452499999999,68.737077 L 79.338525,68.78707700000001" fill="none" stroke="rgb(79,160,53)" stroke-width="0.1"/>
  <path d="M 80.15952500000003,69.34007700000001 L 80.23452500000002,69.391077" fill="none" stroke="rgb(79,160,53)" stroke-width="0.1"/>
  <path d="M 81.05452500000001,69.944077 L 81.129525,69.99507700000001" fill="none" stroke="rgb(79,160,53)" stroke-width="0.1"/>
  <path d="M 81.95052500000003,70.548077 L 82.02452500000004,70.599077" fill="none" stroke="rgb(79,160,53)" stroke-width="0.1"/>
  <path d="M 82.84552500000001,71.15207699999999 L 82.920525,71.20307700000001" fill="none" stroke="rgb(79,160,53)" stroke-width="0.1"/>
  <path d="M 83.74052500000005,71.756077 L 83.81552500000004,71.80607699999999" fill="none" stroke="rgb(79,160,53)" stroke-width="0.1"/>
  <path d="M 84.636525,72.36007699999999 L 84.71052500000002,72.410077" fill="none" stroke="rgb(79,160,53)" stroke-width="0.1"/>
  <path d="M 77.10852500000004,68.61607699999999 L 77.18352500000003,68.667077" fill="none" stroke="rgb(79,160,53)" stroke-width="0.1"/>
  <path d="M 78.00352500000002,69.220077 L 78.07852500000001,69.27107699999999" fill="none" stroke="rgb(79,160,53)" stroke-width="0.1"/>
  <path d="M 78.89952500000004,69.82407699999999 L 78.973525,69.875077" fill="none" stroke="rgb(79,160,53)" stroke-width="0.1"/>
  <path d="M 79.79452500000002,70.428077 L 79.86952500000001,70.47907699999999" fill="none" stroke="rgb(79,160,53)" stroke-width="0.1"/>
  <path d="M 80.689525,71.03207699999999 L 80.76452499999999,71.082077" fill="none" stroke="rgb(79,160,53)" stroke-width="0.1"/>
  <path d="M 81.58552500000002,71.636077 L 81.65952500000003,71.68607700000001" fill="none" stroke="rgb(79,160,53)" stroke-width="0.1"/>
  <path d="M 82.480525,72.24007699999999 L 82.55552500000005,72.290077" fill="none" stroke="rgb(79,160,53)" stroke-width="0.1"/>
  <path d="M 83.37552500000004,72.844077 L 83.45052500000003,72.89407700000001" fill="none" stroke="rgb(79,160,53)" stroke-width="0.1"/>
  <path d="M 84.271525,73.44807699999998 L 84.34552500000001,73.498077" fill="none" stroke="rgb(79,160,53)" stroke-width="0.1"/>
  <path d="M 76.761525,69.71607699999998 L 76.81852500000002,69.754077" fill="none" stroke="rgb(79,160,53)" stroke-width="0.1"/>
  <path d="M 77.63852500000002,70.308077 L 77.713525,70.35807700000001" fill="none" stroke="rgb(79,160,53)" stroke-width="0.1"/>
  <path d="M 78.53452500000003,70.91207700000001 L 78.60852500000004,70.962077" fill="none" stroke="rgb(79,160,53)" stroke-width="0.1"/>
  <path d="M 79.42952500000001,71.516077 L 79.504525,71.566077" fill="none" stroke="rgb(79,160,53)" stroke-width="0.1"/>
  <path d="M 80.324525,72.12007700000001 L 80.39952500000004,72.17007699999999" fill="none" stroke="rgb(79,160,53)" stroke-width="0.1"/>
  <path d="M 81.22052500000001,72.724077 L 81.29452500000002,72.774077" fill="none" stroke="rgb(79,160,53)" stroke-width="0.1"/>
  <path d="M 82.11552500000005,73.32807700000001 L 82.19052500000004,73.37807699999999" fill="none" stroke="rgb(79,160,53)" stroke-width="0.1"/>
  <path d="M 83.011525,73.93207699999999 L 83.08552500000002,73.982077" fill="none" stroke="rgb(79,160,53)" stroke-width="0.1"/>
  <path d="M 83.90652500000004,74.536077 L 83.980525,74.58607699999999" fill="none" stroke="rgb(79,160,53)" stroke-width="0.1"/>
  <path d="M 77.273525,71.39607699999999 L 77.348525,71.446077" fill="none" stroke="rgb(79,160,53)" stroke-width="0.1"/>
  <path d="M 78.16952500000002,72.000077 L 78.24352500000003,72.05007699999999" fill="none" stroke="rgb(79,160,53)" stroke-width="0.1"/>
  <path d="M 79.064525,72.60407699999999 L 79.13952499999999,72.654077" fill="none" stroke="rgb(79,160,53)" stroke-width="0.1"/>
  <path d="M 79.95952500000004,73.208077 L 80.03452500000003,73.25807699999999" fill="none" stroke="rgb(79,160,53)" stroke-width="0.1"/>
  <path d="M 80.855525,73.81107700000001 L 80.92952500000001,73.862077" fill="none" stroke="rgb(79,160,53)" stroke-width="0.1"/>
  <path d="M 81.75052500000004,74.415077 L 81.82552500000003,74.46607699999998" fill="none" stroke="rgb(79,160,53)" stroke-width="0.1"/>
  <path d="M 82.646525,75.01907700000001 L 82.72052500000001,75.070077" fill="none" stroke="rgb(79,160,53)" stroke-width="0.1"/>
  <path d="M 76.908525,72.48307700000001 L 76.98352500000004,72.534077" fill="none" stroke="rgb(79,160,53)" stroke-width="0.1"/>
  <path d="M 77.80452500000001,73.087077 L 77.87852500000002,73.13807700000001" fill="none" stroke="rgb(79,160,53)" stroke-width="0.1"/>
  <path d="M 78.699525,73.691077 L 78.77452500000004,73.742077" fill="none" stroke="rgb(79,160,53)" stroke-width="0.1"/>
  <path d="M 79.59452500000003,74.29507699999999 L 79.66952500000002,74.34607700000001" fill="none" stroke="rgb(79,160,53)" stroke-width="0.1"/>
  <path d="M 80.49052500000005,74.899077 L 80.564525,74.950077" fill="none" stroke="rgb(79,160,53)" stroke-width="0.1"/>
  <path d="M 81.38552500000003,75.50307699999999 L 81.46052500000002,75.553077" fill="none" stroke="rgb(79,160,53)" stroke-width="0.1"/>
  <path d="M 77.439525,74.17507699999999 L 77.51352500000002,74.225077" fill="none" stroke="rgb(79,160,53)" stroke-width="0.1"/>
  <path d="M 78.33452500000004,74.779077 L 78.40952500000003,74.82907699999998" fill="none" stroke="rgb(79,160,53)" stroke-width="0.1"/>
  <path d="M 79.230525,75.38307699999999 L 79.30452500000001,75.433077" fill="none" stroke="rgb(79,160,53)" stroke-width="0.1"/>
  <path d="M 77.074525,75.26307700000001 L 77.148525,75.31307699999999" fill="none" stroke="rgb(79,160,53)" stroke-width="0.1"/>
  <path d="M 76.81852500000002,69.755077 L 76.848525,69.665077" fill="none" stroke="rgb(79,160,53)" stroke-width="0.1"/>
  <path d="M 77.18352500000003,68.66807700000001 L 77.213525,68.577077" fill="none" stroke="rgb(79,160,53)" stroke-width="0.1"/>
  <path d="M 77.54852500000004,67.58007699999999 L 77.55352500000004,67.564077" fill="none" stroke="rgb(79,160,53)" stroke-width="0.1"/>
  <path d="M 76.98352500000004,72.535077 L 77.01452499999999,72.444077" fill="none" stroke="rgb(79,160,53)" stroke-width="0.1"/>
  <path d="M 77.348525,71.44707700000001 L 77.379525,71.356077" fill="none" stroke="rgb(79,160,53)" stroke-width="0.1"/>
  <path d="M 77.713525,70.35907699999998 L 77.74452500000001,70.26907700000001" fill="none" stroke="rgb(79,160,53)" stroke-width="0.1"/>
  <path d="M 78.07852500000001,69.272077 L 78.10952500000002,69.18107699999999" fill="none" stroke="rgb(79,160,53)" stroke-width="0.1"/>
  <path d="M 78.44352500000002,68.184077 L 78.47452500000003,68.093077" fill="none" stroke="rgb(79,160,53)" stroke-width="0.1"/>
  <path d="M 77.14952500000004,75.314077 L 77.17952500000001,75.22307699999999" fill="none" stroke="rgb(79,160,53)" stroke-width="0.1"/>
  <path d="M 77.51452499999999,74.226077 L 77.54452500000002,74.136077" fill="none" stroke="rgb(79,160,53)" stroke-width="0.1"/>
  <path d="M 77.879525,73.13907699999999 L 77.90952500000003,73.048077" fill="none" stroke="rgb(79,160,53)" stroke-width="0.1"/>
  <path d="M 78.24452500000001,72.05107699999999 L 78.27452500000004,71.96007699999998" fill="none" stroke="rgb(79,160,53)" stroke-width="0.1"/>
  <path d="M 78.60952500000002,70.963077 L 78.63952499999999,70.873077" fill="none" stroke="rgb(79,160,53)" stroke-width="0.1"/>
  <path d="M 78.97452500000003,69.875077 L 79.004525,69.785077" fill="none" stroke="rgb(79,160,53)" stroke-width="0.1"/>
  <path d="M 79.33952500000004,68.78807699999999 L 79.36952500000001,68.69707700000001" fill="none" stroke="rgb(79,160,53)" stroke-width="0.1"/>
  <path d="M 79.70452500000005,67.700077 L 79.73452500000002,67.60907699999998" fill="none" stroke="rgb(79,160,53)" stroke-width="0.1"/>
  <path d="M 78.40952500000003,74.83007699999999 L 78.439525,74.74007699999999" fill="none" stroke="rgb(79,160,53)" stroke-width="0.1"/>
  <path d="M 78.77452500000004,73.743077 L 78.80452500000001,73.65207699999999" fill="none" stroke="rgb(79,160,53)" stroke-width="0.1"/>
  <path d="M 79.13952499999999,72.655077 L 79.16952500000002,72.564077" fill="none" stroke="rgb(79,160,53)" stroke-width="0.1"/>
  <path d="M 79.504525,71.56707699999998 L 79.53452500000003,71.47707700000001" fill="none" stroke="rgb(79,160,53)" stroke-width="0.1"/>
  <path d="M 79.86952500000001,70.47907699999999 L 79.89952500000004,70.38907699999999" fill="none" stroke="rgb(79,160,53)" stroke-width="0.1"/>
  <path d="M 80.23452500000002,69.392077 L 80.26452499999999,69.30107699999999" fill="none" stroke="rgb(79,160,53)" stroke-width="0.1"/>
  <path d="M 80.59952500000003,68.304077 L 80.629525,68.213077" fill="none" stroke="rgb(79,160,53)" stroke-width="0.1"/>
  <path d="M 79.30452500000001,75.434077 L 79.33552500000002,75.344077" fill="none" stroke="rgb(79,160,53)" stroke-width="0.1"/>
  <path d="M 79.66952500000002,74.34707699999998 L 79.70052500000003,74.256077" fill="none" stroke="rgb(79,160,53)" stroke-width="0.1"/>
  <path d="M 80.03452500000003,73.25907699999999 L 80.06552500000004,73.16807700000001" fill="none" stroke="rgb(79,160,53)" stroke-width="0.1"/>
  <path d="M 80.39952500000004,72.171077 L 80.43052500000005,72.08007699999999" fill="none" stroke="rgb(79,160,53)" stroke-width="0.1"/>
  <path d="M 80.76452499999999,71.083077 L 80.795525,70.993077" fill="none" stroke="rgb(79,160,53)" stroke-width="0.1"/>
  <path d="M 81.129525,69.99607699999999 L 81.160525,69.905077" fill="none" stroke="rgb(79,160,53)" stroke-width="0.1"/>
  <path d="M 81.49452500000001,68.90807699999999 L 81.52552500000002,68.81707699999998" fill="none" stroke="rgb(79,160,53)" stroke-width="0.1"/>
  <path d="M 81.85952500000002,67.820077 L 81.89052500000003,67.730077" fill="none" stroke="rgb(79,160,53)" stroke-width="0.1"/>
  <path d="M 80.56552500000004,74.950077 L 80.59552500000001,74.86007699999999" fill="none" stroke="rgb(79,160,53)" stroke-width="0.1"/>
  <path d="M 80.93052500000005,73.863077 L 80.96052500000002,73.772077" fill="none" stroke="rgb(79,160,53)" stroke-width="0.1"/>
  <path d="M 81.295525,72.77507700000001 L 81.32552500000003,72.684077" fill="none" stroke="rgb(79,160,53)" stroke-width="0.1"/>
  <path d="M 81.660525,71.68707699999999 L 81.69052500000004,71.59707699999998" fill="none" stroke="rgb(79,160,53)" stroke-width="0.1"/>
  <path d="M 82.02552500000002,70.600077 L 82.05552500000005,70.50907699999999" fill="none" stroke="rgb(79,160,53)" stroke-width="0.1"/>
  <path d="M 82.39052500000003,69.512077 L 82.420525,69.421077" fill="none" stroke="rgb(79,160,53)" stroke-width="0.1"/>
  <path d="M 82.75552500000003,68.42407700000001 L 82.785525,68.333077" fill="none" stroke="rgb(79,160,53)" stroke-width="0.1"/>
  <path d="M 81.46052500000002,75.554077 L 81.49152500000002,75.464077" fill="none" stroke="rgb(79,160,53)" stroke-width="0.1"/>
  <path d="M 81.82552500000003,74.46707699999999 L 81.85652500000003,74.37607700000001" fill="none" stroke="rgb(79,160,53)" stroke-width="0.1"/>
  <path d="M 82.19052500000004,73.379077 L 82.22052500000001,73.28807699999999" fill="none" stroke="rgb(79,160,53)" stroke-width="0.1"/>
  <path d="M 82.55552500000005,72.291077 L 82.58552500000002,72.201077" fill="none" stroke="rgb(79,160,53)" stroke-width="0.1"/>
  <path d="M 82.920525,71.20307700000001 L 82.95052500000003,71.113077" fill="none" stroke="rgb(79,160,53)" stroke-width="0.1"/>
  <path d="M 83.285525,70.11607699999999 L 83.31552500000004,70.02507700000001" fill="none" stroke="rgb(79,160,53)" stroke-width="0.1"/>
  <path d="M 83.65052500000002,69.028077 L 83.68052500000005,68.93707699999999" fill="none" stroke="rgb(79,160,53)" stroke-width="0.1"/>
  <path d="M 84.01552500000003,67.940077 L 84.045525,67.850077" fill="none" stroke="rgb(79,160,53)" stroke-width="0.1"/>
  <path d="M 82.72052500000001,75.071077 L 82.75152500000002,74.980077" fill="none" stroke="rgb(79,160,53)" stroke-width="0.1"/>
  <path d="M 83.08552500000002,73.98307700000001 L 83.11652500000002,73.892077" fill="none" stroke="rgb(79,160,53)" stroke-width="0.1"/>
  <path d="M 83.45052500000003,72.89507699999999 L 83.48152500000003,72.804077" fill="none" stroke="rgb(79,160,53)" stroke-width="0.1"/>
  <path d="M 83.81552500000004,71.80707699999999 L 83.84652500000004,71.71707699999999" fill="none" stroke="rgb(79,160,53)" stroke-width="0.1"/>
  <path d="M 84.18052500000005,70.720077 L 84.211525,70.629077" fill="none" stroke="rgb(79,160,53)" stroke-width="0.1"/>
  <path d="M 84.545525,69.63207700000001 L 84.576525,69.541077" fill="none" stroke="rgb(79,160,53)" stroke-width="0.1"/>
  <path d="M 83.98152500000003,74.587077 L 84.011525,74.49607699999999" fill="none" stroke="rgb(79,160,53)" stroke-width="0.1"/>
  <path d="M 84.34652500000004,73.499077 L 84.37652500000002,73.40807699999999" fill="none" stroke="rgb(79,160,53)" stroke-width="0.1"/>
  <path d="M 84.711525,72.411077 L 84.74152500000002,72.321077" fill="none" stroke="rgb(79,160,53)" stroke-width="0.1"/>
  <path d="M 76.761525,75.564077 L 84.761525,75.564077" fill="none" stroke="rgb(79,160,53)" stroke-width="0.1"/>
  <path d="M 84.761525,75.564077 L 84.761525,67.564077" fill="none" stroke="rgb(79,160,53)" stroke-width="0.1"/>
  <path d="M 84.761525,67.564077 L 76.761525,67.564077" fill="none" stroke="rgb(79,160,53)" stroke-width="0.1"/>
  <path d="M 76.761525,67.564077 L 76.761525,75.564077" fill="none" stroke="rgb(79,160,53)" stroke-width="0.1"/>
 </g>
</svg>