<?xml version="1.0" encoding="utf-8"?>
<svg style="background-color: #000;" version="1.1" viewBox="0 0 100.0 100.0" xmlns="http://www.w3.org/2000/svg" xmlns:inkscape="http://www.inkscape.org/namespaces/inkscape">
 <g id="layerCAR" inkscape:groupmode="layer" inkscape:label="CAR">
  <path d="M 84.32501000000002,6.498461500000019 L 85.92501000000004,6.498461500000019" fill="none" instance-id="-1" semantic-id="35" stroke="rgb(26,39,53)" stroke-width="0.1"/>
  <path d="M 85.92501000000004,25.49846150000002 L 84.32501000000002,25.49846150000002" fill="none" instance-id="-1" semantic-id="35" stroke="rgb(26,39,53)" stroke-width="0.1"/>
  <path d="M 85.92501000000004,25.49846150000002 L 85.92501000000004,6.498461500000019" fill="none" instance-id="-1" semantic-id="35" stroke="rgb(26,39,53)" stroke-width="0.1"/>
  <path d="M 84.32501000000002,25.49846150000002 L 84.32501000000002,6.498461500000019" fill="none" instance-id="-1" semantic-id="35" stroke="rgb(26,39,53)" stroke-width="0.1"/>
  <path d="M 72.12501000000003,27.99846150000002 L 72.12501000000003,3.998461500000019" fill="none" instance-id="-1" semantic-id="35" stroke="rgb(26,39,53)" stroke-width="0.1"/>
  <path d="M 100.0,27.99846150000002 L 72.12501000000003,27.99846150000002" fill="none" instance-id="-1" semantic-id="35" stroke="rgb(26,39,53)" stroke-width="0.1"/>
  <path d="M 72.12501000000003,3.998461500000019 L 100.0,3.998461500000019" fill="none" instance-id="-1" semantic-id="35" stroke="rgb(26,39,53)" stroke-width="0.1"/>
  <path d="M 85.12501000000003,25.49846150000002 L 85.12501000000003,6.498461500000019" fill="none" instance-id="-1" semantic-id="35" stroke="rgb(26,39,53)" stroke-width="0.1"/>
  <path d="M 85.92501000000004,1.498461500000019 L 84.32501000000002,1.498461500000019" fill="none" instance-id="-1" semantic-id="35" stroke="rgb(26,39,53)" stroke-width="0.1"/>
  <path d="M 85.92501000000004,1.498461500000019 L 85.92501000000004,0.0" fill="none" instance-id="-1" semantic-id="35" stroke="rgb(26,39,53)" stroke-width="0.1"/>
  <path d="M 84.32501000000002,1.498461500000019 L 84.32501000000002,0.0" fill="none" instance-id="-1" semantic-id="35" stroke="rgb(26,39,53)" stroke-width="0.1"/>
  <path d="M 72.12501000000003,3.998461500000019 L 72.12501000000003,0.0" fill="none" instance-id="-1" semantic-id="35" stroke="rgb(26,39,53)" stroke-width="0.1"/>
  <path d="M 100.0,3.998461500000019 L 72.12501000000003,3.998461500000019" fill="none" instance-id="-1" semantic-id="35" stroke="rgb(26,39,53)" stroke-width="0.1"/>
  <path d="M 85.12501000000003,1.498461500000019 L 85.12501000000003,0.0" fill="none" instance-id="-1" semantic-id="35" stroke="rgb(26,39,53)" stroke-width="0.1"/>
  <path d="M 84.20401000000004,87.49846149999996 L 85.80401000000006,87.49846149999996" fill="none" instance-id="-1" semantic-id="35" stroke="rgb(26,39,53)" stroke-width="0.1"/>
  <path d="M 85.80401000000006,100.0 L 85.80401000000006,87.49846149999996" fill="none" instance-id="-1" semantic-id="35" stroke="rgb(26,39,53)" stroke-width="0.1"/>
  <path d="M 84.20401000000004,100.0 L 84.20401000000004,87.49846149999996" fill="none" instance-id="-1" semantic-id="35" stroke="rgb(26,39,53)" stroke-width="0.1"/>
  <path d="M 72.00401000000005,100.0 L 72.00401000000005,84.99846149999996" fill="none" instance-id="-1" semantic-id="35" stroke="rgb(26,39,53)" stroke-width="0.1"/>
  <path d="M 72.00401000000005,84.99846149999996 L 100.0,84.99846149999996" fill="none" instance-id="-1" semantic-id="35" stroke="rgb(26,39,53)" stroke-width="0.1"/>
  <path d="M 85.00401000000005,100.0 L 85.00401000000005,87.49846149999996" fill="none" instance-id="-1" semantic-id="35" stroke="rgb(26,39,53)" stroke-width="0.1"/>
  <path d="M 84.20401000000004,63.49846149999996 L 85.80401000000006,63.49846149999996" fill="none" instance-id="-1" semantic-id="35" stroke="rgb(26,39,53)" stroke-width="0.1"/>
  <path d="M 85.80401000000006,82.49846149999996 L 84.20401000000004,82.49846149999996" fill="none" instance-id="-1" semantic-id="35" stroke="rgb(26,39,53)" stroke-width="0.1"/>
  <path d="M 85.80401000000006,82.49846149999996 L 85.80401000000006,63.49846149999996" fill="none" instance-id="-1" semantic-id="35" stroke="rgb(26,39,53)" stroke-width="0.1"/>
  <path d="M 84.20401000000004,82.49846149999996 L 84.20401000000004,63.49846149999996" fill="none" instance-id="-1" semantic-id="35" stroke="rgb(26,39,53)" stroke-width="0.1"/>
  <path d="M 72.00401000000005,84.99846149999996 L 72.00401000000005,60.99846149999996" fill="none" instance-id="-1" semantic-id="35" stroke="rgb(26,39,53)" stroke-width="0.1"/>
  <path d="M 100.0,84.99846149999996 L 72.00401000000005,84.99846149999996" fill="none" instance-id="-1" semantic-id="35" stroke="rgb(26,39,53)" stroke-width="0.1"/>
  <path d="M 72.00401000000005,60.99846149999996 L 100.0,60.99846149999996" fill="none" instance-id="-1" semantic-id="35" stroke="rgb(26,39,53)" stroke-width="0.1"/>
  <path d="M 85.00401000000005,82.49846149999996 L 85.00401000000005,63.49846149999996" fill="none" instance-id="-1" semantic-id="35" stroke="rgb(26,39,53)" stroke-width="0.1"/>
  <path d="M 84.20401000000004,39.49846150000002 L 85.80401000000006,39.49846150000002" fill="none" instance-id="-1" semantic-id="35" stroke="rgb(26,39,53)" stroke-width="0.1"/>
  <path d="M 85.80401000000006,58.49846149999996 L 84.20401000000004,58.49846149999996" fill="none" instance-id="-1" semantic-id="35" stroke="rgb(26,39,53)" stroke-width="0.1"/>
  <path d="M 85.80401000000006,58.49846149999996 L 85.80401000000006,39.49846150000002" fill="none" instance-id="-1" semantic-id="35" stroke="rgb(26,39,53)" stroke-width="0.1"/>
  <path d="M 84.20401000000004,58.49846149999996 L 84.20401000000004,39.49846150000002" fill="none" instance-id="-1" semantic-id="35" stroke="rgb(26,39,53)" stroke-width="0.1"/>
  <path d="M 72.00401000000005,60.99846149999996 L 72.00401000000005,36.99846150000002" fill="none" instance-id="-1" semantic-id="35" stroke="rgb(26,39,53)" stroke-width="0.1"/>
  <path d="M 100.0,60.99846149999996 L 72.00401000000005,60.99846149999996" fill="none" instance-id="-1" semantic-id="35" stroke="rgb(26,39,53)" stroke-width="0.1"/>
  <path d="M 72.00401000000005,36.99846150000002 L 100.0,36.99846150000002" fill="none" instance-id="-1" semantic-id="35" stroke="rgb(26,39,53)" stroke-width="0.1"/>
  <path d="M 85.00401000000005,58.49846149999996 L 85.00401000000005,39.49846150000002" fill="none" instance-id="-1" semantic-id="35" stroke="rgb(26,39,53)" stroke-width="0.1"/>
  <path d="M 58.73401000000001,6.498461500000019 L 57.134010000000046,6.498461500000019" fill="none" instance-id="-1" semantic-id="35" stroke="rgb(26,39,53)" stroke-width="0.1"/>
  <path d="M 57.134010000000046,25.49846150000002 L 58.73401000000001,25.49846150000002" fill="none" instance-id="-1" semantic-id="35" stroke="rgb(26,39,53)" stroke-width="0.1"/>
  <path d="M 57.134010000000046,25.49846150000002 L 57.134010000000046,6.498461500000019" fill="none" instance-id="-1" semantic-id="35" stroke="rgb(26,39,53)" stroke-width="0.1"/>
  <path d="M 58.73401000000001,25.49846150000002 L 58.73401000000001,6.498461500000019" fill="none" instance-id="-1" semantic-id="35" stroke="rgb(26,39,53)" stroke-width="0.1"/>
  <path d="M 70.93401000000006,27.99846150000002 L 70.93401000000006,3.998461500000019" fill="none" instance-id="-1" semantic-id="35" stroke="rgb(26,39,53)" stroke-width="0.1"/>
  <path d="M 17.934010000000058,27.99846150000002 L 70.93401000000006,27.99846150000002" fill="none" instance-id="-1" semantic-id="35" stroke="rgb(26,39,53)" stroke-width="0.1"/>
  <path d="M 17.934010000000058,3.998461500000019 L 17.934010000000058,27.99846150000002" fill="none" instance-id="-1" semantic-id="35" stroke="rgb(26,39,53)" stroke-width="0.1"/>
  <path d="M 70.93401000000006,3.998461500000019 L 17.934010000000058,3.998461500000019" fill="none" instance-id="-1" semantic-id="35" stroke="rgb(26,39,53)" stroke-width="0.1"/>
  <path d="M 57.93401000000006,25.49846150000002 L 57.93401000000006,6.498461500000019" fill="none" instance-id="-1" semantic-id="35" stroke="rgb(26,39,53)" stroke-width="0.1"/>
  <path d="M 57.134010000000046,1.498461500000019 L 58.73401000000001,1.498461500000019" fill="none" instance-id="-1" semantic-id="35" stroke="rgb(26,39,53)" stroke-width="0.1"/>
  <path d="M 57.134010000000046,1.498461500000019 L 57.134010000000046,0.0" fill="none" instance-id="-1" semantic-id="35" stroke="rgb(26,39,53)" stroke-width="0.1"/>
  <path d="M 58.73401000000001,1.498461500000019 L 58.73401000000001,0.0" fill="none" instance-id="-1" semantic-id="35" stroke="rgb(26,39,53)" stroke-width="0.1"/>
  <path d="M 70.93401000000006,3.998461500000019 L 70.93401000000006,0.0" fill="none" instance-id="-1" semantic-id="35" stroke="rgb(26,39,53)" stroke-width="0.1"/>
  <path d="M 17.934010000000058,3.998461500000019 L 70.93401000000006,3.998461500000019" fill="none" instance-id="-1" semantic-id="35" stroke="rgb(26,39,53)" stroke-width="0.1"/>
  <path d="M 17.934010000000058,0.0 L 17.934010000000058,3.998461500000019" fill="none" instance-id="-1" semantic-id="35" stroke="rgb(26,39,53)" stroke-width="0.1"/>
  <path d="M 57.93401000000006,1.498461500000019 L 57.93401000000006,0.0" fill="none" instance-id="-1" semantic-id="35" stroke="rgb(26,39,53)" stroke-width="0.1"/>
  <path d="M 58.85501000000005,87.49846149999996 L 57.25501000000003,87.49846149999996" fill="none" instance-id="-1" semantic-id="35" stroke="rgb(26,39,53)" stroke-width="0.1"/>
  <path d="M 57.25501000000003,100.0 L 57.25501000000003,87.49846149999996" fill="none" instance-id="-1" semantic-id="35" stroke="rgb(26,39,53)" stroke-width="0.1"/>
  <path d="M 58.85501000000005,100.0 L 58.85501000000005,87.49846149999996" fill="none" instance-id="-1" semantic-id="35" stroke="rgb(26,39,53)" stroke-width="0.1"/>
  <path d="M 71.05501000000004,100.0 L 71.05501000000004,84.99846149999996" fill="none" instance-id="-1" semantic-id="35" stroke="rgb(26,39,53)" stroke-width="0.1"/>
  <path d="M 18.05501000000004,84.99846149999996 L 18.05501000000004,100.0" fill="none" instance-id="-1" semantic-id="35" stroke="rgb(26,39,53)" stroke-width="0.1"/>
  <path d="M 71.05501000000004,84.99846149999996 L 18.05501000000004,84.99846149999996" fill="none" instance-id="-1" semantic-id="35" stroke="rgb(26,39,53)" stroke-width="0.1"/>
  <path d="M 58.05501000000004,100.0 L 58.05501000000004,87.49846149999996" fill="none" instance-id="-1" semantic-id="35" stroke="rgb(26,39,53)" stroke-width="0.1"/>
  <path d="M 58.85501000000005,63.49846149999996 L 57.25501000000003,63.49846149999996" fill="none" instance-id="-1" semantic-id="35" stroke="rgb(26,39,53)" stroke-width="0.1"/>
  <path d="M 57.25501000000003,82.49846149999996 L 58.85501000000005,82.49846149999996" fill="none" instance-id="-1" semantic-id="35" stroke="rgb(26,39,53)" stroke-width="0.1"/>
  <path d="M 57.25501000000003,82.49846149999996 L 57.25501000000003,63.49846149999996" fill="none" instance-id="-1" semantic-id="35" stroke="rgb(26,39,53)" stroke-width="0.1"/>
  <path d="M 58.85501000000005,82.49846149999996 L 58.85501000000005,63.49846149999996" fill="none" instance-id="-1" semantic-id="35" stroke="rgb(26,39,53)" stroke-width="0.1"/>
  <path d="M 71.05501000000004,84.99846149999996 L 71.05501000000004,60.99846149999996" fill="none" instance-id="-1" semantic-id="35" stroke="rgb(26,39,53)" stroke-width="0.1"/>
  <path d="M 18.05501000000004,84.99846149999996 L 71.05501000000004,84.99846149999996" fill="none" instance-id="-1" semantic-id="35" stroke="rgb(26,39,53)" stroke-width="0.1"/>
  <path d="M 18.05501000000004,60.99846149999996 L 18.05501000000004,84.99846149999996" fill="none" instance-id="-1" semantic-id="35" stroke="rgb(26,39,53)" stroke-width="0.1"/>
  <path d="M 71.05501000000004,60.99846149999996 L 18.05501000000004,60.99846149999996" fill="none" instance-id="-1" semantic-id="35" stroke="rgb(26,39,53)" stroke-width="0.1"/>
  <path d="M 58.05501000000004,82.49846149999996 L 58.05501000000004,63.49846149999996" fill="none" instance-id="-1" semantic-id="35" stroke="rgb(26,39,53)" stroke-width="0.1"/>
  <path d="M 58.85501000000005,39.49846150000002 L 57.25501000000003,39.49846150000002" fill="none" instance-id="-1" semantic-id="35" stroke="rgb(26,39,53)" stroke-width="0.1"/>
  <path d="M 57.25501000000003,58.49846149999996 L 58.85501000000005,58.49846149999996" fill="none" instance-id="-1" semantic-id="35" stroke="rgb(26,39,53)" stroke-width="0.1"/>
  <path d="M 57.25501000000003,58.49846149999996 L 57.25501000000003,39.49846150000002" fill="none" instance-id="-1" semantic-id="35" stroke="rgb(26,39,53)" stroke-width="0.1"/>
  <path d="M 58.85501000000005,58.49846149999996 L 58.85501000000005,39.49846150000002" fill="none" instance-id="-1" semantic-id="35" stroke="rgb(26,39,53)" stroke-width="0.1"/>
  <path d="M 71.05501000000004,60.99846149999996 L 71.05501000000004,36.99846150000002" fill="none" instance-id="-1" semantic-id="35" stroke="rgb(26,39,53)" stroke-width="0.1"/>
  <path d="M 18.05501000000004,60.99846149999996 L 71.05501000000004,60.99846149999996" fill="none" instance-id="-1" semantic-id="35" stroke="rgb(26,39,53)" stroke-width="0.1"/>
  <path d="M 18.05501000000004,36.99846150000002 L 18.05501000000004,60.99846149999996" fill="none" instance-id="-1" semantic-id="35" stroke="rgb(26,39,53)" stroke-width="0.1"/>
  <path d="M 71.05501000000004,36.99846150000002 L 18.05501000000004,36.99846150000002" fill="none" instance-id="-1" semantic-id="35" stroke="rgb(26,39,53)" stroke-width="0.1"/>
  <path d="M 58.05501000000004,58.49846149999996 L 58.05501000000004,39.49846150000002" fill="none" instance-id="-1" semantic-id="35" stroke="rgb(26,39,53)" stroke-width="0.1"/>
  <path d="M 74.62501000000003,6.998461500000019 L 74.62501000000003,24.99846150000002" fill="none" instance-id="-1" semantic-id="35" stroke="rgb(26,39,53)" stroke-width="0.1"/>
  <path d="M 74.62501000000003,24.99846150000002 L 100.0,24.99846150000002" fill="none" instance-id="-1" semantic-id="35" stroke="rgb(26,39,53)" stroke-width="0.1"/>
  <path d="M 100.0,6.998461500000019 L 74.62501000000003,6.998461500000019" fill="none" instance-id="-1" semantic-id="35" stroke="rgb(26,39,53)" stroke-width="0.1"/>
  <path d="M 74.62501000000003,0.0 L 74.62501000000003,0.998461500000019" fill="none" instance-id="-1" semantic-id="35" stroke="rgb(26,39,53)" stroke-width="0.1"/>
  <path d="M 74.62501000000003,0.998461500000019 L 100.0,0.998461500000019" fill="none" instance-id="-1" semantic-id="35" stroke="rgb(26,39,53)" stroke-width="0.1"/>
  <path d="M 74.50401000000005,87.99846149999996 L 74.50401000000005,100.0" fill="none" instance-id="-1" semantic-id="35" stroke="rgb(26,39,53)" stroke-width="0.1"/>
  <path d="M 100.0,87.99846149999996 L 74.50401000000005,87.99846149999996" fill="none" instance-id="-1" semantic-id="35" stroke="rgb(26,39,53)" stroke-width="0.1"/>
  <path d="M 74.50401000000005,63.99846149999996 L 74.50401000000005,81.99846149999996" fill="none" instance-id="-1" semantic-id="35" stroke="rgb(26,39,53)" stroke-width="0.1"/>
  <path d="M 74.50401000000005,81.99846149999996 L 100.0,81.99846149999996" fill="none" instance-id="-1" semantic-id="35" stroke="rgb(26,39,53)" stroke-width="0.1"/>
  <path d="M 100.0,63.99846149999996 L 74.50401000000005,63.99846149999996" fill="none" instance-id="-1" semantic-id="35" stroke="rgb(26,39,53)" stroke-width="0.1"/>
  <path d="M 74.50401000000005,39.99846150000002 L 74.50401000000005,57.99846149999996" fill="none" instance-id="-1" semantic-id="35" stroke="rgb(26,39,53)" stroke-width="0.1"/>
  <path d="M 74.50401000000005,57.99846149999996 L 100.0,57.99846149999996" fill="none" instance-id="-1" semantic-id="35" stroke="rgb(26,39,53)" stroke-width="0.1"/>
  <path d="M 100.0,39.99846150000002 L 74.50401000000005,39.99846150000002" fill="none" instance-id="-1" semantic-id="35" stroke="rgb(26,39,53)" stroke-width="0.1"/>
  <path d="M 68.43401000000006,6.998461500000019 L 68.43401000000006,24.99846150000002" fill="none" instance-id="-1" semantic-id="35" stroke="rgb(26,39,53)" stroke-width="0.1"/>
  <path d="M 68.43401000000006,24.99846150000002 L 20.434010000000058,24.99846150000002" fill="none" instance-id="-1" semantic-id="35" stroke="rgb(26,39,53)" stroke-width="0.1"/>
  <path d="M 20.434010000000058,24.99846150000002 L 20.434010000000058,6.998461500000019" fill="none" instance-id="-1" semantic-id="35" stroke="rgb(26,39,53)" stroke-width="0.1"/>
  <path d="M 20.434010000000058,6.998461500000019 L 68.43401000000006,6.998461500000019" fill="none" instance-id="-1" semantic-id="35" stroke="rgb(26,39,53)" stroke-width="0.1"/>
  <path d="M 68.43401000000006,0.0 L 68.43401000000006,0.998461500000019" fill="none" instance-id="-1" semantic-id="35" stroke="rgb(26,39,53)" stroke-width="0.1"/>
  <path d="M 68.43401000000006,0.998461500000019 L 20.434010000000058,0.998461500000019" fill="none" instance-id="-1" semantic-id="35" stroke="rgb(26,39,53)" stroke-width="0.1"/>
  <path d="M 20.434010000000058,0.998461500000019 L 20.434010000000058,0.0" fill="none" instance-id="-1" semantic-id="35" stroke="rgb(26,39,53)" stroke-width="0.1"/>
  <path d="M 68.55501000000004,87.99846149999996 L 68.55501000000004,100.0" fill="none" instance-id="-1" semantic-id="35" stroke="rgb(26,39,53)" stroke-width="0.1"/>
  <path d="M 20.55501000000004,100.0 L 20.55501000000004,87.99846149999996" fill="none" instance-id="-1" semantic-id="35" stroke="rgb(26,39,53)" stroke-width="0.1"/>
  <path d="M 20.55501000000004,87.99846149999996 L 68.55501000000004,87.99846149999996" fill="none" instance-id="-1" semantic-id="35" stroke="rgb(26,39,53)" stroke-width="0.1"/>
  <path d="M 68.55501000000004,63.99846149999996 L 68.55501000000004,81.99846149999996" fill="none" instance-id="-1" semantic-id="35" stroke="rgb(26,39,53)" stroke-width="0.1"/>
  <path d="M 68.55501000000004,81.99846149999996 L 20.55501000000004,81.99846149999996" fill="none" instance-id="-1" semantic-id="35" stroke="rgb(26,39,53)" stroke-width="0.1"/>
  <path d="M 20.55501000000004,81.99846149999996 L 20.55501000000004,63.99846149999996" fill="none" instance-id="-1" semantic-id="35" stroke="rgb(26,39,53)" stroke-width="0.1"/>
  <path d="M 20.55501000000004,63.99846149999996 L 68.55501000000004,63.99846149999996" fill="none" instance-id="-1" semantic-id="35" stroke="rgb(26,39,53)" stroke-width="0.1"/>
  <path d="M 68.55501000000004,39.99846150000002 L 68.55501000000004,57.99846149999996" fill="none" instance-id="-1" semantic-id="35" stroke="rgb(26,39,53)" stroke-width="0.1"/>
  <path d="M 68.55501000000004,57.99846149999996 L 20.55501000000004,57.99846149999996" fill="none" instance-id="-1" semantic-id="35" stroke="rgb(26,39,53)" stroke-width="0.1"/>
  <path d="M 20.55501000000004,57.99846149999996 L 20.55501000000004,39.99846150000002" fill="none" instance-id="-1" semantic-id="35" stroke="rgb(26,39,53)" stroke-width="0.1"/>
  <path d="M 20.55501000000004,39.99846150000002 L 68.55501000000004,39.99846150000002" fill="none" instance-id="-1" semantic-id="35" stroke="rgb(26,39,53)" stroke-width="0.1"/>
 </g>
 <g id="layerCOLU" inkscape:groupmode="layer" inkscape:label="COLU">
  <path d="M 37.43401000000006,36.99846150000002 L 43.93401000000006,36.99846150000002" fill="none" stroke="rgb(255,73,12)" stroke-width="0.1"/>
  <path d="M 43.93401000000006,36.99846150000002 L 43.93401000000006,30.49846150000002" fill="none" stroke="rgb(255,73,12)" stroke-width="0.1"/>
  <path d="M 43.93401000000006,30.49846150000002 L 37.43401000000006,30.49846150000002" fill="none" stroke="rgb(255,73,12)" stroke-width="0.1"/>
  <path d="M 37.43401000000006,30.49846150000002 L 37.43401000000006,36.99846150000002" fill="none" stroke="rgb(255,73,12)" stroke-width="0.1"/>
  <path d="M 37.43401000000006,36.99846150000002 L 43.93401000000006,36.99846150000002" fill="none" stroke="rgb(255,73,12)" stroke-width="0.1"/>
  <path d="M 43.93401000000006,36.99846150000002 L 43.93401000000006,30.49846150000002" fill="none" stroke="rgb(255,73,12)" stroke-width="0.1"/>
  <path d="M 43.93401000000006,30.49846150000002 L 37.43401000000006,30.49846150000002" fill="none" stroke="rgb(255,73,12)" stroke-width="0.1"/>
  <path d="M 37.43401000000006,30.49846150000002 L 37.43401000000006,36.99846150000002" fill="none" stroke="rgb(255,73,12)" stroke-width="0.1"/>
  <path d="M 37.43401000000006,36.99846150000002 L 43.93401000000006,36.99846150000002" fill="none" stroke="rgb(255,73,12)" stroke-width="0.1"/>
  <path d="M 43.93401000000006,36.99846150000002 L 43.93401000000006,30.49846150000002" fill="none" stroke="rgb(255,73,12)" stroke-width="0.1"/>
  <path d="M 43.93401000000006,30.49846150000002 L 37.43401000000006,30.49846150000002" fill="none" stroke="rgb(255,73,12)" stroke-width="0.1"/>
  <path d="M 37.43401000000006,30.49846150000002 L 37.43401000000006,36.99846150000002" fill="none" stroke="rgb(255,73,12)" stroke-width="0.1"/>
 </g>
 <g id="layerCOLU_HATCH" inkscape:groupmode="layer" inkscape:label="COLU_HATCH">
  <path d="M 37.43401000000006,36.99846150000002 L 43.93401000000006,36.99846150000002" fill="none" stroke="rgb(92,92,92)" stroke-width="0.1"/>
  <path d="M 43.93401000000006,36.99846150000002 L 43.93401000000006,30.49846150000002" fill="none" stroke="rgb(92,92,92)" stroke-width="0.1"/>
  <path d="M 43.93401000000006,30.49846150000002 L 37.43401000000006,30.49846150000002" fill="none" stroke="rgb(92,92,92)" stroke-width="0.1"/>
  <path d="M 37.43401000000006,30.49846150000002 L 37.43401000000006,36.99846150000002" fill="none" stroke="rgb(92,92,92)" stroke-width="0.1"/>
  <path d="M 37.43401000000006,36.99846150000002 L 43.93401000000006,36.99846150000002" fill="none" stroke="rgb(92,92,92)" stroke-width="0.1"/>
  <path d="M 43.93401000000006,36.99846150000002 L 43.93401000000006,30.49846150000002" fill="none" stroke="rgb(92,92,92)" stroke-width="0.1"/>
  <path d="M 43.93401000000006,30.49846150000002 L 37.43401000000006,30.49846150000002" fill="none" stroke="rgb(92,92,92)" stroke-width="0.1"/>
  <path d="M 37.43401000000006,30.49846150000002 L 37.43401000000006,36.99846150000002" fill="none" stroke="rgb(92,92,92)" stroke-width="0.1"/>
  <path d="M 37.43401000000006,36.99846150000002 L 43.93401000000006,36.99846150000002" fill="none" stroke="rgb(92,92,92)" stroke-width="0.1"/>
  <path d="M 43.93401000000006,36.99846150000002 L 43.93401000000006,30.49846150000002" fill="none" stroke="rgb(92,92,92)" stroke-width="0.1"/>
  <path d="M 43.93401000000006,30.49846150000002 L 37.43401000000006,30.49846150000002" fill="none" stroke="rgb(92,92,92)" stroke-width="0.1"/>
  <path d="M 37.43401000000006,30.49846150000002 L 37.43401000000006,36.99846150000002" fill="none" stroke="rgb(92,92,92)" stroke-width="0.1"/>
 </g>
 <g id="layerDOTE" inkscape:groupmode="layer" inkscape:label="DOTE">
  <path d="M 0.0,33.74846150000002 L 100.0,33.74846150000002" fill="none" stroke="rgb(88,0,0)" stroke-width="0.1"/>
  <path d="M 40.68401000000006,0.0 L 40.68401000000006,100.0" fill="none" stroke="rgb(88,0,0)" stroke-width="0.1"/>
 </g>
 <g id="layerPUB_TEXT" inkscape:groupmode="layer" inkscape:label="PUB_TEXT">
  <text fill="rgb(255,12,73)" font-family="Noto Sans CJK SC" font-size="2" transform="rotate(-0.0,93.17901000000006,18.7564615)" x="93.17901000000006" y="18.7564615">
   防烟分区
  </text>
 </g>
</svg>