<?xml version="1.0" encoding="utf-8"?>
<svg style="background-color: #000;" version="1.1" viewBox="0 0 100.0 100.0" xmlns="http://www.w3.org/2000/svg" xmlns:inkscape="http://www.inkscape.org/namespaces/inkscape">
 <g id="layerCAR" inkscape:groupmode="layer" inkscape:label="CAR">
  <path d="M 31.819999999999993,31.035589500000015 L 31.819999999999993,0.0" fill="none" instance-id="-1" semantic-id="35" stroke="rgb(26,39,53)" stroke-width="0.1"/>
  <path d="M 7.819999999999993,31.035589500000015 L 31.819999999999993,31.035589500000015" fill="none" instance-id="-1" semantic-id="35" stroke="rgb(26,39,53)" stroke-width="0.1"/>
  <path d="M 7.819999999999993,0.0 L 7.819999999999993,31.035589500000015" fill="none" instance-id="-1" semantic-id="35" stroke="rgb(26,39,53)" stroke-width="0.1"/>
  <path d="M 55.81999999999999,31.035589500000015 L 55.81999999999999,0.0" fill="none" instance-id="-1" semantic-id="35" stroke="rgb(26,39,53)" stroke-width="0.1"/>
  <path d="M 31.819999999999993,31.035589500000015 L 55.81999999999999,31.035589500000015" fill="none" instance-id="-1" semantic-id="35" stroke="rgb(26,39,53)" stroke-width="0.1"/>
  <path d="M 31.819999999999993,0.0 L 31.819999999999993,31.035589500000015" fill="none" instance-id="-1" semantic-id="35" stroke="rgb(26,39,53)" stroke-width="0.1"/>
  <path d="M 87.57,31.035589500000015 L 87.57,0.0" fill="none" instance-id="-1" semantic-id="35" stroke="rgb(26,39,53)" stroke-width="0.1"/>
  <path d="M 63.56999999999999,31.035589500000015 L 87.57,31.035589500000015" fill="none" instance-id="-1" semantic-id="35" stroke="rgb(26,39,53)" stroke-width="0.1"/>
  <path d="M 63.56999999999999,0.0 L 63.56999999999999,31.035589500000015" fill="none" instance-id="-1" semantic-id="35" stroke="rgb(26,39,53)" stroke-width="0.1"/>
  <path d="M 87.57,31.035589500000015 L 100.0,31.035589500000015" fill="none" instance-id="-1" semantic-id="35" stroke="rgb(26,39,53)" stroke-width="0.1"/>
  <path d="M 87.57,0.0 L 87.57,31.035589500000015" fill="none" instance-id="-1" semantic-id="35" stroke="rgb(26,39,53)" stroke-width="0.1"/>
  <path d="M 31.819999999999993,85.33758950000004 L 31.819999999999993,100.0" fill="none" instance-id="-1" semantic-id="35" stroke="rgb(26,39,53)" stroke-width="0.1"/>
  <path d="M 7.819999999999993,85.33758950000004 L 31.819999999999993,85.33758950000004" fill="none" instance-id="-1" semantic-id="35" stroke="rgb(26,39,53)" stroke-width="0.1"/>
  <path d="M 7.819999999999993,100.0 L 7.819999999999993,85.33758950000004" fill="none" instance-id="-1" semantic-id="35" stroke="rgb(26,39,53)" stroke-width="0.1"/>
  <path d="M 55.81999999999999,85.33758950000004 L 55.81999999999999,100.0" fill="none" instance-id="-1" semantic-id="35" stroke="rgb(26,39,53)" stroke-width="0.1"/>
  <path d="M 31.819999999999993,85.33758950000004 L 55.81999999999999,85.33758950000004" fill="none" instance-id="-1" semantic-id="35" stroke="rgb(26,39,53)" stroke-width="0.1"/>
  <path d="M 31.819999999999993,100.0 L 31.819999999999993,85.33758950000004" fill="none" instance-id="-1" semantic-id="35" stroke="rgb(26,39,53)" stroke-width="0.1"/>
  <path d="M 87.57,86.03558950000001 L 87.57,100.0" fill="none" instance-id="-1" semantic-id="35" stroke="rgb(26,39,53)" stroke-width="0.1"/>
  <path d="M 63.56999999999999,86.03558950000001 L 87.57,86.03558950000001" fill="none" instance-id="-1" semantic-id="35" stroke="rgb(26,39,53)" stroke-width="0.1"/>
  <path d="M 63.56999999999999,100.0 L 63.56999999999999,86.03558950000001" fill="none" instance-id="-1" semantic-id="35" stroke="rgb(26,39,53)" stroke-width="0.1"/>
  <path d="M 87.57,86.03558950000001 L 100.0,86.03558950000001" fill="none" instance-id="-1" semantic-id="35" stroke="rgb(26,39,53)" stroke-width="0.1"/>
  <path d="M 87.57,100.0 L 87.57,86.03558950000001" fill="none" instance-id="-1" semantic-id="35" stroke="rgb(26,39,53)" stroke-width="0.1"/>
  <path d="M 7.75,0.0 L 7.75,9.200589500000035" fill="none" instance-id="-1" semantic-id="35" stroke="rgb(26,39,53)" stroke-width="0.1"/>
  <path d="M 7.75,9.200589500000035 L 0.0,9.200589500000035" fill="none" instance-id="-1" semantic-id="35" stroke="rgb(26,39,53)" stroke-width="0.1"/>
  <path d="M 8.069999999999993,100.0 L 8.069999999999993,99.20058949999998" fill="none" instance-id="-1" semantic-id="35" stroke="rgb(26,39,53)" stroke-width="0.1"/>
  <path d="M 8.069999999999993,99.20058949999998 L 0.0,99.20058949999998" fill="none" instance-id="-1" semantic-id="35" stroke="rgb(26,39,53)" stroke-width="0.1"/>
  <path d="M 28.819999999999993,0.0 L 28.819999999999993,28.535589500000015" fill="none" instance-id="-1" semantic-id="35" stroke="rgb(26,39,53)" stroke-width="0.1"/>
  <path d="M 28.819999999999993,28.535589500000015 L 10.819999999999993,28.535589500000015" fill="none" instance-id="-1" semantic-id="35" stroke="rgb(26,39,53)" stroke-width="0.1"/>
  <path d="M 10.819999999999993,28.535589500000015 L 10.819999999999993,0.0" fill="none" instance-id="-1" semantic-id="35" stroke="rgb(26,39,53)" stroke-width="0.1"/>
  <path d="M 52.81999999999999,0.0 L 52.81999999999999,28.535589500000015" fill="none" instance-id="-1" semantic-id="35" stroke="rgb(26,39,53)" stroke-width="0.1"/>
  <path d="M 52.81999999999999,28.535589500000015 L 34.81999999999999,28.535589500000015" fill="none" instance-id="-1" semantic-id="35" stroke="rgb(26,39,53)" stroke-width="0.1"/>
  <path d="M 34.81999999999999,28.535589500000015 L 34.81999999999999,0.0" fill="none" instance-id="-1" semantic-id="35" stroke="rgb(26,39,53)" stroke-width="0.1"/>
  <path d="M 84.57,0.0 L 84.57,28.535589500000015" fill="none" instance-id="-1" semantic-id="35" stroke="rgb(26,39,53)" stroke-width="0.1"/>
  <path d="M 84.57,28.535589500000015 L 66.57,28.535589500000015" fill="none" instance-id="-1" semantic-id="35" stroke="rgb(26,39,53)" stroke-width="0.1"/>
  <path d="M 66.57,28.535589500000015 L 66.57,0.0" fill="none" instance-id="-1" semantic-id="35" stroke="rgb(26,39,53)" stroke-width="0.1"/>
  <path d="M 100.0,28.535589500000015 L 90.57,28.535589500000015" fill="none" instance-id="-1" semantic-id="35" stroke="rgb(26,39,53)" stroke-width="0.1"/>
  <path d="M 90.57,28.535589500000015 L 90.57,0.0" fill="none" instance-id="-1" semantic-id="35" stroke="rgb(26,39,53)" stroke-width="0.1"/>
  <path d="M 28.819999999999993,100.0 L 28.819999999999993,87.83758950000004" fill="none" instance-id="-1" semantic-id="35" stroke="rgb(26,39,53)" stroke-width="0.1"/>
  <path d="M 28.819999999999993,87.83758950000004 L 10.819999999999993,87.83758950000004" fill="none" instance-id="-1" semantic-id="35" stroke="rgb(26,39,53)" stroke-width="0.1"/>
  <path d="M 10.819999999999993,87.83758950000004 L 10.819999999999993,100.0" fill="none" instance-id="-1" semantic-id="35" stroke="rgb(26,39,53)" stroke-width="0.1"/>
  <path d="M 52.81999999999999,100.0 L 52.81999999999999,87.83758950000004" fill="none" instance-id="-1" semantic-id="35" stroke="rgb(26,39,53)" stroke-width="0.1"/>
  <path d="M 52.81999999999999,87.83758950000004 L 34.81999999999999,87.83758950000004" fill="none" instance-id="-1" semantic-id="35" stroke="rgb(26,39,53)" stroke-width="0.1"/>
  <path d="M 34.81999999999999,87.83758950000004 L 34.81999999999999,100.0" fill="none" instance-id="-1" semantic-id="35" stroke="rgb(26,39,53)" stroke-width="0.1"/>
  <path d="M 84.57,100.0 L 84.57,88.53558950000001" fill="none" instance-id="-1" semantic-id="35" stroke="rgb(26,39,53)" stroke-width="0.1"/>
  <path d="M 84.57,88.53558950000001 L 66.57,88.53558950000001" fill="none" instance-id="-1" semantic-id="35" stroke="rgb(26,39,53)" stroke-width="0.1"/>
  <path d="M 66.57,88.53558950000001 L 66.57,100.0" fill="none" instance-id="-1" semantic-id="35" stroke="rgb(26,39,53)" stroke-width="0.1"/>
  <path d="M 100.0,88.53558950000001 L 90.57,88.53558950000001" fill="none" instance-id="-1" semantic-id="35" stroke="rgb(26,39,53)" stroke-width="0.1"/>
  <path d="M 90.57,88.53558950000001 L 90.57,100.0" fill="none" instance-id="-1" semantic-id="35" stroke="rgb(26,39,53)" stroke-width="0.1"/>
  <path d="M 5.25,6.200589500000035 L 5.25,0.0" fill="none" instance-id="-1" semantic-id="35" stroke="rgb(26,39,53)" stroke-width="0.1"/>
  <path d="M 0.0,6.200589500000035 L 5.25,6.200589500000035" fill="none" instance-id="-1" semantic-id="35" stroke="rgb(26,39,53)" stroke-width="0.1"/>
 </g>
 <g id="layerCOLU" inkscape:groupmode="layer" inkscape:label="COLU">
  <path d="M 55.75,15.700589500000035 L 62.25,15.700589500000035" fill="none" stroke="rgb(255,73,12)" stroke-width="0.1"/>
  <path d="M 62.25,15.700589500000035 L 62.25,9.200589500000035" fill="none" stroke="rgb(255,73,12)" stroke-width="0.1"/>
  <path d="M 62.25,9.200589500000035 L 55.75,9.200589500000035" fill="none" stroke="rgb(255,73,12)" stroke-width="0.1"/>
  <path d="M 55.75,9.200589500000035 L 55.75,15.700589500000035" fill="none" stroke="rgb(255,73,12)" stroke-width="0.1"/>
  <path d="M 55.75,96.70058949999998 L 62.25,96.70058949999998" fill="none" stroke="rgb(255,73,12)" stroke-width="0.1"/>
  <path d="M 62.25,96.70058949999998 L 62.25,90.20058949999998" fill="none" stroke="rgb(255,73,12)" stroke-width="0.1"/>
  <path d="M 62.25,90.20058949999998 L 55.75,90.20058949999998" fill="none" stroke="rgb(255,73,12)" stroke-width="0.1"/>
  <path d="M 55.75,90.20058949999998 L 55.75,96.70058949999998" fill="none" stroke="rgb(255,73,12)" stroke-width="0.1"/>
  <path d="M 55.75,15.700589500000035 L 62.25,15.700589500000035" fill="none" stroke="rgb(255,73,12)" stroke-width="0.1"/>
  <path d="M 62.25,15.700589500000035 L 62.25,9.200589500000035" fill="none" stroke="rgb(255,73,12)" stroke-width="0.1"/>
  <path d="M 62.25,9.200589500000035 L 55.75,9.200589500000035" fill="none" stroke="rgb(255,73,12)" stroke-width="0.1"/>
  <path d="M 55.75,9.200589500000035 L 55.75,15.700589500000035" fill="none" stroke="rgb(255,73,12)" stroke-width="0.1"/>
  <path d="M 55.75,96.70058949999998 L 62.25,96.70058949999998" fill="none" stroke="rgb(255,73,12)" stroke-width="0.1"/>
  <path d="M 62.25,96.70058949999998 L 62.25,90.20058949999998" fill="none" stroke="rgb(255,73,12)" stroke-width="0.1"/>
  <path d="M 62.25,90.20058949999998 L 55.75,90.20058949999998" fill="none" stroke="rgb(255,73,12)" stroke-width="0.1"/>
  <path d="M 55.75,90.20058949999998 L 55.75,96.70058949999998" fill="none" stroke="rgb(255,73,12)" stroke-width="0.1"/>
  <path d="M 55.75,15.700589500000035 L 62.25,15.700589500000035" fill="none" stroke="rgb(255,73,12)" stroke-width="0.1"/>
  <path d="M 62.25,15.700589500000035 L 62.25,9.200589500000035" fill="none" stroke="rgb(255,73,12)" stroke-width="0.1"/>
  <path d="M 62.25,9.200589500000035 L 55.75,9.200589500000035" fill="none" stroke="rgb(255,73,12)" stroke-width="0.1"/>
  <path d="M 55.75,9.200589500000035 L 55.75,15.700589500000035" fill="none" stroke="rgb(255,73,12)" stroke-width="0.1"/>
  <path d="M 55.75,96.70058949999998 L 62.25,96.70058949999998" fill="none" stroke="rgb(255,73,12)" stroke-width="0.1"/>
  <path d="M 62.25,96.70058949999998 L 62.25,90.20058949999998" fill="none" stroke="rgb(255,73,12)" stroke-width="0.1"/>
  <path d="M 62.25,90.20058949999998 L 55.75,90.20058949999998" fill="none" stroke="rgb(255,73,12)" stroke-width="0.1"/>
  <path d="M 55.75,90.20058949999998 L 55.75,96.70058949999998" fill="none" stroke="rgb(255,73,12)" stroke-width="0.1"/>
 </g>
 <g id="layerCOLU_HATCH" inkscape:groupmode="layer" inkscape:label="COLU_HATCH">
  <path d="M 55.75,96.70058949999998 L 62.25,96.70058949999998" fill="none" stroke="rgb(92,92,92)" stroke-width="0.1"/>
  <path d="M 62.25,96.70058949999998 L 62.25,90.20058949999998" fill="none" stroke="rgb(92,92,92)" stroke-width="0.1"/>
  <path d="M 62.25,90.20058949999998 L 55.75,90.20058949999998" fill="none" stroke="rgb(92,92,92)" stroke-width="0.1"/>
  <path d="M 55.75,90.20058949999998 L 55.75,96.70058949999998" fill="none" stroke="rgb(92,92,92)" stroke-width="0.1"/>
  <path d="M 55.75,15.700589500000035 L 62.25,15.700589500000035" fill="none" stroke="rgb(92,92,92)" stroke-width="0.1"/>
  <path d="M 62.25,15.700589500000035 L 62.25,9.200589500000035" fill="none" stroke="rgb(92,92,92)" stroke-width="0.1"/>
  <path d="M 62.25,9.200589500000035 L 55.75,9.200589500000035" fill="none" stroke="rgb(92,92,92)" stroke-width="0.1"/>
  <path d="M 55.75,9.200589500000035 L 55.75,15.700589500000035" fill="none" stroke="rgb(92,92,92)" stroke-width="0.1"/>
  <path d="M 55.75,96.70058949999998 L 62.25,96.70058949999998" fill="none" stroke="rgb(92,92,92)" stroke-width="0.1"/>
  <path d="M 62.25,96.70058949999998 L 62.25,90.20058949999998" fill="none" stroke="rgb(92,92,92)" stroke-width="0.1"/>
  <path d="M 62.25,90.20058949999998 L 55.75,90.20058949999998" fill="none" stroke="rgb(92,92,92)" stroke-width="0.1"/>
  <path d="M 55.75,90.20058949999998 L 55.75,96.70058949999998" fill="none" stroke="rgb(92,92,92)" stroke-width="0.1"/>
  <path d="M 55.75,15.700589500000035 L 62.25,15.700589500000035" fill="none" stroke="rgb(92,92,92)" stroke-width="0.1"/>
  <path d="M 62.25,15.700589500000035 L 62.25,9.200589500000035" fill="none" stroke="rgb(92,92,92)" stroke-width="0.1"/>
  <path d="M 62.25,9.200589500000035 L 55.75,9.200589500000035" fill="none" stroke="rgb(92,92,92)" stroke-width="0.1"/>
  <path d="M 55.75,9.200589500000035 L 55.75,15.700589500000035" fill="none" stroke="rgb(92,92,92)" stroke-width="0.1"/>
  <path d="M 55.75,96.70058949999998 L 62.25,96.70058949999998" fill="none" stroke="rgb(92,92,92)" stroke-width="0.1"/>
  <path d="M 62.25,96.70058949999998 L 62.25,90.20058949999998" fill="none" stroke="rgb(92,92,92)" stroke-width="0.1"/>
  <path d="M 62.25,90.20058949999998 L 55.75,90.20058949999998" fill="none" stroke="rgb(92,92,92)" stroke-width="0.1"/>
  <path d="M 55.75,90.20058949999998 L 55.75,96.70058949999998" fill="none" stroke="rgb(92,92,92)" stroke-width="0.1"/>
  <path d="M 55.75,15.700589500000035 L 62.25,15.700589500000035" fill="none" stroke="rgb(92,92,92)" stroke-width="0.1"/>
  <path d="M 62.25,15.700589500000035 L 62.25,9.200589500000035" fill="none" stroke="rgb(92,92,92)" stroke-width="0.1"/>
  <path d="M 62.25,9.200589500000035 L 55.75,9.200589500000035" fill="none" stroke="rgb(92,92,92)" stroke-width="0.1"/>
  <path d="M 55.75,9.200589500000035 L 55.75,15.700589500000035" fill="none" stroke="rgb(92,92,92)" stroke-width="0.1"/>
 </g>
 <g id="layerDOTE" inkscape:groupmode="layer" inkscape:label="DOTE">
  <path d="M 59.0,100.0 L 59.0,0.0" fill="none" stroke="rgb(88,0,0)" stroke-width="0.1"/>
  <path d="M 0.0,93.45058949999998 L 100.0,93.45058949999998" fill="none" stroke="rgb(88,0,0)" stroke-width="0.1"/>
  <path d="M 0.0,12.450589500000035 L 100.0,12.450589500000035" fill="none" stroke="rgb(88,0,0)" stroke-width="0.1"/>
  <path d="M 0.0,80.45058949999998 L 100.0,80.45058949999998" fill="none" stroke="rgb(88,0,0)" stroke-width="0.1"/>
 </g>
</svg>