<?xml version='1.0' encoding='UTF-8'?>
<svg xmlns="http://www.w3.org/2000/svg" viewBox="0 0 100.0 100.0">
  <g id="instance-20"><path d="M 53.729111500000016,89.03140199999999 L 52.74211150000002,89.03140199999999" fill="none" instance-id="20" semantic-id="29" stroke="rgb(92,92,92)" stroke-width="0.1"/>
  <path d="M 53.729111500000016,91.50040199999998 L 48.29811150000003,91.50040199999998" fill="none" instance-id="20" semantic-id="29" stroke="rgb(92,92,92)" stroke-width="0.1"/>
  <path d="M 53.729111500000016,91.50040199999998 L 53.729111500000016,89.03140199999999" fill="none" instance-id="20" semantic-id="29" stroke="rgb(92,92,92)" stroke-width="0.1"/>
  <path d="M 48.29811150000003,89.03140199999999 L 49.28511150000003,89.03140199999999" fill="none" instance-id="20" semantic-id="29" stroke="rgb(92,92,92)" stroke-width="0.1"/>
  <path d="M 49.77911150000003,89.52440199999998 L 49.28511150000003,89.03140199999999" fill="none" instance-id="20" semantic-id="29" stroke="rgb(92,92,92)" stroke-width="0.1"/>
  <path d="M 48.91511150000002,89.40140199999999 L 49.13211150000001,89.40140199999999" fill="none" instance-id="20" semantic-id="29" stroke="rgb(92,92,92)" stroke-width="0.1"/>
  <path d="M 48.66811150000001,89.64840199999998 L 48.91511150000002,89.40140199999999" fill="none" instance-id="20" semantic-id="29" stroke="rgb(92,92,92)" stroke-width="0.1"/>
  <path d="M 50.27311150000003,89.03140199999999 L 51.75411150000002,89.03140199999999" fill="none" instance-id="20" semantic-id="29" stroke="rgb(92,92,92)" stroke-width="0.1"/>
  <path d="M 51.75411150000002,89.03140199999999 L 51.75411150000002,88.753402" fill="none" instance-id="20" semantic-id="29" stroke="rgb(92,92,92)" stroke-width="0.1"/>
  <path d="M 50.27311150000003,89.03140199999999 L 50.27311150000003,88.753402" fill="none" instance-id="20" semantic-id="29" stroke="rgb(92,92,92)" stroke-width="0.1"/>
  <path d="M 48.66811150000001,90.88240199999998 L 48.66811150000001,89.64840199999998" fill="none" instance-id="20" semantic-id="29" stroke="rgb(92,92,92)" stroke-width="0.1"/>
  <path d="M 48.91511150000002,91.129402 L 48.66811150000001,90.88240199999998" fill="none" instance-id="20" semantic-id="29" stroke="rgb(92,92,92)" stroke-width="0.1"/>
  <path d="M 49.62611150000001,89.89540199999999 L 49.13211150000001,89.40140199999999" fill="none" instance-id="20" semantic-id="29" stroke="rgb(92,92,92)" stroke-width="0.1"/>
  <path d="M 52.24811150000002,89.52440199999998 L 52.74211150000002,89.03140199999999" fill="none" instance-id="20" semantic-id="29" stroke="rgb(92,92,92)" stroke-width="0.1"/>
  <path d="M 53.35911150000001,90.88240199999998 L 53.35911150000001,89.64840199999998" fill="none" instance-id="20" semantic-id="29" stroke="rgb(92,92,92)" stroke-width="0.1"/>
  <path d="M 53.112111500000026,89.40140199999999 L 52.89511150000001,89.40140199999999" fill="none" instance-id="20" semantic-id="29" stroke="rgb(92,92,92)" stroke-width="0.1"/>
  <path d="M 53.112111500000026,89.40140199999999 L 53.35911150000001,89.64840199999998" fill="none" instance-id="20" semantic-id="29" stroke="rgb(92,92,92)" stroke-width="0.1"/>
  <path d="M 53.35911150000001,90.88240199999998 L 53.112111500000026,91.129402" fill="none" instance-id="20" semantic-id="29" stroke="rgb(92,92,92)" stroke-width="0.1"/>
  <path d="M 52.40211150000002,89.89540199999999 L 52.89511150000001,89.40140199999999" fill="none" instance-id="20" semantic-id="29" stroke="rgb(92,92,92)" stroke-width="0.1"/>
  <path d="M 53.23611150000002,89.03140199999999 L 53.23611150000002,88.784402" fill="none" instance-id="20" semantic-id="29" stroke="rgb(92,92,92)" stroke-width="0.1"/>
  <path d="M 53.23611150000002,88.784402 L 52.618111500000026,88.784402" fill="none" instance-id="20" semantic-id="29" stroke="rgb(92,92,92)" stroke-width="0.1"/>
  <path d="M 52.24811150000002,89.52440199999998 L 49.77911150000003,89.52440199999998" fill="none" instance-id="20" semantic-id="29" stroke="rgb(92,92,92)" stroke-width="0.1"/>
  <path d="M 53.112111500000026,91.129402 L 48.91511150000002,91.129402" fill="none" instance-id="20" semantic-id="29" stroke="rgb(92,92,92)" stroke-width="0.1"/>
  <path d="M 52.40211150000002,89.89540199999999 L 49.62611150000001,89.89540199999999" fill="none" instance-id="20" semantic-id="29" stroke="rgb(92,92,92)" stroke-width="0.1"/>
  <path d="M 48.29811150000003,89.03140199999999 L 48.29811150000003,91.50040199999998" fill="none" instance-id="20" semantic-id="29" stroke="rgb(92,92,92)" stroke-width="0.1"/>
  <path d="M 52.86511150000001,87.05640199999999 A 2.22075,2.22075 0.0 0,0 53.606111500000026,89.03140199999999" fill="none" instance-id="20" semantic-id="29" stroke="rgb(92,92,92)" stroke-width="0.1"/>
  <path d="M 49.31311150000002,85.872402 A 4.72402,4.72402 0.0 0,0 49.16211150000001,87.05640199999999" fill="none" instance-id="20" semantic-id="29" stroke="rgb(92,92,92)" stroke-width="0.1"/>
  <path d="M 49.70411150000001,84.96140199999999 A 3.26074,3.26074 0.0 0,0 49.31311150000002,85.872402" fill="none" instance-id="20" semantic-id="29" stroke="rgb(92,92,92)" stroke-width="0.1"/>
  <path d="M 50.356111500000026,84.29140199999998 A 2.20625,2.20625 0.0 0,0 49.70411150000001,84.96140199999999" fill="none" instance-id="20" semantic-id="29" stroke="rgb(92,92,92)" stroke-width="0.1"/>
  <path d="M 51.01411150000001,84.093402 A 1.18971,1.18971 0.0 0,0 50.356111500000026,84.29140199999998" fill="none" instance-id="20" semantic-id="29" stroke="rgb(92,92,92)" stroke-width="0.1"/>
  <path d="M 51.67111150000002,84.29140199999998 A 1.18971,1.18971 0.0 0,0 51.01411150000001,84.093402" fill="none" instance-id="20" semantic-id="29" stroke="rgb(92,92,92)" stroke-width="0.1"/>
  <path d="M 52.32311150000001,84.96140199999999 A 2.20625,2.20625 0.0 0,0 51.67111150000002,84.29140199999998" fill="none" instance-id="20" semantic-id="29" stroke="rgb(92,92,92)" stroke-width="0.1"/>
  <path d="M 52.715111500000006,85.872402 A 3.26074,3.26074 0.0 0,0 52.32311150000001,84.96140199999999" fill="none" instance-id="20" semantic-id="29" stroke="rgb(92,92,92)" stroke-width="0.1"/>
  <path d="M 52.86511150000001,87.05640199999999 A 4.72402,4.72402 0.0 0,0 52.715111500000006,85.872402" fill="none" instance-id="20" semantic-id="29" stroke="rgb(92,92,92)" stroke-width="0.1"/>
  <path d="M 51.75411150000002,88.753402 A 1.85166,1.85166 0.0 0,0 52.86511150000001,87.05640199999999" fill="none" instance-id="20" semantic-id="29" stroke="rgb(92,92,92)" stroke-width="0.1"/>
  <path d="M 49.16211150000001,87.05640199999999 A 1.85166,1.85166 0.0 0,0 50.27311150000003,88.753402" fill="none" instance-id="20" semantic-id="29" stroke="rgb(92,92,92)" stroke-width="0.1"/>
  <path d="M 48.42111150000002,89.03140199999999 A 2.22075,2.22075 0.0 0,0 49.16211150000001,87.05640199999999" fill="none" instance-id="20" semantic-id="29" stroke="rgb(92,92,92)" stroke-width="0.1"/>
  <path d="M 52.618111500000026,88.784402 A 0.12349999999999284,0.12349999999999284 0.0 1,0 52.618111500000026,89.03140199999999" fill="none" instance-id="20" semantic-id="29" stroke="rgb(92,92,92)" stroke-width="0.1"/>
  <circle cx="50.02611150000001" cy="88.90740199999999" fill="none" instance-id="20" r="0.123444" semantic-id="29" stroke="rgb(92,92,92)" stroke-width="0.1"/>
  <circle cx="52.00111150000001" cy="88.90740199999999" fill="none" instance-id="20" r="0.123444" semantic-id="29" stroke="rgb(92,92,92)" stroke-width="0.1"/>
  </g>
</svg>
