<?xml version='1.0' encoding='UTF-8'?>
<svg xmlns="http://www.w3.org/2000/svg" viewBox="0 0 100.0 100.0">
  <g id="instance-54"><path d="M 64.60011150000003,72.51340199999999 L 64.60011150000003,66.500402" fill="none" instance-id="54" semantic-id="18" stroke="rgb(0,178,0)" stroke-width="0.1"/>
  <path d="M 64.60011150000003,66.500402 L 44.00011150000003,66.500402" fill="none" instance-id="54" semantic-id="18" stroke="rgb(0,178,0)" stroke-width="0.1"/>
  <path d="M 64.60011150000003,69.50740199999998 L 44.00011150000003,69.50740199999998" fill="none" instance-id="54" semantic-id="18" stroke="rgb(63,63,63)" stroke-width="0.1"/>
  <path d="M 51.23211150000003,68.08140199999998 A 3.55543,3.55543 0.0 0,0 51.36311150000003,71.628402" fill="none" instance-id="54" semantic-id="18" stroke="rgb(63,63,63)" stroke-width="0.1"/>
  <path d="M 51.36311150000003,71.628402 A 0.310844,0.310844 0.0 1,0 51.697111500000005,71.104402" fill="none" instance-id="54" semantic-id="18" stroke="rgb(63,63,63)" stroke-width="0.1"/>
  <path d="M 50.74111150000002,67.926402 A 3.05533,3.05533 0.0 0,0 51.697111500000005,71.104402" fill="none" instance-id="54" semantic-id="18" stroke="rgb(63,63,63)" stroke-width="0.1"/>
  <path d="M 51.23211150000003,68.08140199999998 A 0.267378,0.267378 0.0 1,0 50.74111150000002,67.926402" fill="none" instance-id="54" semantic-id="18" stroke="rgb(63,63,63)" stroke-width="0.1"/>
  <path d="M 55.51911150000001,71.18440199999999 A 3.55543,3.55543 0.0 0,0 55.38811150000001,67.637402" fill="none" instance-id="54" semantic-id="18" stroke="rgb(63,63,63)" stroke-width="0.1"/>
  <path d="M 55.38811150000001,67.637402 A 0.310844,0.310844 0.0 1,0 55.05411150000003,68.161402" fill="none" instance-id="54" semantic-id="18" stroke="rgb(63,63,63)" stroke-width="0.1"/>
  <path d="M 56.01011150000002,71.33940199999999 A 3.05533,3.05533 0.0 0,0 55.05411150000003,68.161402" fill="none" instance-id="54" semantic-id="18" stroke="rgb(63,63,63)" stroke-width="0.1"/>
  <path d="M 55.51911150000001,71.18440199999999 A 0.267378,0.267378 0.0 1,0 56.01011150000002,71.33940199999999" fill="none" instance-id="54" semantic-id="18" stroke="rgb(63,63,63)" stroke-width="0.1"/>
  <path d="M 57.25611150000003,68.08140199999998 A 3.55543,3.55543 0.0 0,0 57.38711150000003,71.628402" fill="none" instance-id="54" semantic-id="18" stroke="rgb(63,63,63)" stroke-width="0.1"/>
  <path d="M 57.38711150000003,71.628402 A 0.310844,0.310844 0.0 1,0 57.721111500000006,71.104402" fill="none" instance-id="54" semantic-id="18" stroke="rgb(63,63,63)" stroke-width="0.1"/>
  <path d="M 56.76511150000002,67.926402 A 3.05533,3.05533 0.0 0,0 57.721111500000006,71.104402" fill="none" instance-id="54" semantic-id="18" stroke="rgb(63,63,63)" stroke-width="0.1"/>
  <path d="M 57.25611150000003,68.08140199999998 A 0.267378,0.267378 0.0 1,0 56.76511150000002,67.926402" fill="none" instance-id="54" semantic-id="18" stroke="rgb(63,63,63)" stroke-width="0.1"/>
  <path d="M 61.356111500000026,71.18440199999999 A 3.55543,3.55543 0.0 0,0 61.225111500000025,67.637402" fill="none" instance-id="54" semantic-id="18" stroke="rgb(63,63,63)" stroke-width="0.1"/>
  <path d="M 61.225111500000025,67.637402 A 0.310844,0.310844 0.0 1,0 60.89211150000003,68.161402" fill="none" instance-id="54" semantic-id="18" stroke="rgb(63,63,63)" stroke-width="0.1"/>
  <path d="M 61.848111500000016,71.33940199999999 A 3.05533,3.05533 0.0 0,0 60.89211150000003,68.161402" fill="none" instance-id="54" semantic-id="18" stroke="rgb(63,63,63)" stroke-width="0.1"/>
  <path d="M 61.356111500000026,71.18440199999999 A 0.267378,0.267378 0.0 1,0 61.848111500000016,71.33940199999999" fill="none" instance-id="54" semantic-id="18" stroke="rgb(63,63,63)" stroke-width="0.1"/>
  <path d="M 63.094111500000025,68.08140199999998 A 3.55543,3.55543 0.0 0,0 63.225111500000025,71.628402" fill="none" instance-id="54" semantic-id="18" stroke="rgb(63,63,63)" stroke-width="0.1"/>
  <path d="M 63.225111500000025,71.628402 A 0.310844,0.310844 0.0 1,0 63.55911150000003,71.104402" fill="none" instance-id="54" semantic-id="18" stroke="rgb(63,63,63)" stroke-width="0.1"/>
  <path d="M 62.60311150000001,67.926402 A 3.05533,3.05533 0.0 0,0 63.55911150000003,71.104402" fill="none" instance-id="54" semantic-id="18" stroke="rgb(63,63,63)" stroke-width="0.1"/>
  <path d="M 63.094111500000025,68.08140199999998 A 0.267378,0.267378 0.0 1,0 62.60311150000001,67.926402" fill="none" instance-id="54" semantic-id="18" stroke="rgb(63,63,63)" stroke-width="0.1"/>
  <path d="M 53.63111150000003,68.08140199999998 A 3.55543,3.55543 0.0 0,0 53.76211150000003,71.628402" fill="none" instance-id="54" semantic-id="18" stroke="rgb(63,63,63)" stroke-width="0.1"/>
  <path d="M 53.76211150000003,71.628402 A 0.310844,0.310844 0.0 1,0 54.096111500000006,71.104402" fill="none" instance-id="54" semantic-id="18" stroke="rgb(63,63,63)" stroke-width="0.1"/>
  <path d="M 53.14011150000002,67.926402 A 3.05533,3.05533 0.0 0,0 54.096111500000006,71.104402" fill="none" instance-id="54" semantic-id="18" stroke="rgb(63,63,63)" stroke-width="0.1"/>
  <path d="M 53.63111150000003,68.08140199999998 A 0.267378,0.267378 0.0 1,0 53.14011150000002,67.926402" fill="none" instance-id="54" semantic-id="18" stroke="rgb(63,63,63)" stroke-width="0.1"/>
  <path d="M 59.75711150000001,68.08140199999998 A 3.55543,3.55543 0.0 0,0 59.88811150000001,71.628402" fill="none" instance-id="54" semantic-id="18" stroke="rgb(63,63,63)" stroke-width="0.1"/>
  <path d="M 59.88811150000001,71.628402 A 0.310844,0.310844 0.0 1,0 60.22211150000001,71.104402" fill="none" instance-id="54" semantic-id="18" stroke="rgb(63,63,63)" stroke-width="0.1"/>
  <path d="M 59.26511150000002,67.926402 A 3.05533,3.05533 0.0 0,0 60.22211150000001,71.104402" fill="none" instance-id="54" semantic-id="18" stroke="rgb(63,63,63)" stroke-width="0.1"/>
  <path d="M 59.75711150000001,68.08140199999998 A 0.267378,0.267378 0.0 1,0 59.26511150000002,67.926402" fill="none" instance-id="54" semantic-id="18" stroke="rgb(63,63,63)" stroke-width="0.1"/>
  <path d="M 47.431111500000014,68.08140199999998 A 3.55543,3.55543 0.0 0,0 47.562111500000015,71.628402" fill="none" instance-id="54" semantic-id="18" stroke="rgb(63,63,63)" stroke-width="0.1"/>
  <path d="M 47.562111500000015,71.628402 A 0.310844,0.310844 0.0 1,0 47.89611150000002,71.104402" fill="none" instance-id="54" semantic-id="18" stroke="rgb(63,63,63)" stroke-width="0.1"/>
  <path d="M 46.94011150000003,67.926402 A 3.05533,3.05533 0.0 0,0 47.89611150000002,71.104402" fill="none" instance-id="54" semantic-id="18" stroke="rgb(63,63,63)" stroke-width="0.1"/>
  <path d="M 47.431111500000014,68.08140199999998 A 0.267378,0.267378 0.0 1,0 46.94011150000003,67.926402" fill="none" instance-id="54" semantic-id="18" stroke="rgb(63,63,63)" stroke-width="0.1"/>
  <path d="M 49.830111500000015,68.08140199999998 A 3.55543,3.55543 0.0 0,0 49.961111500000015,71.628402" fill="none" instance-id="54" semantic-id="18" stroke="rgb(63,63,63)" stroke-width="0.1"/>
  <path d="M 49.961111500000015,71.628402 A 0.310844,0.310844 0.0 1,0 50.29511150000002,71.104402" fill="none" instance-id="54" semantic-id="18" stroke="rgb(63,63,63)" stroke-width="0.1"/>
  <path d="M 49.33911150000003,67.926402 A 3.05533,3.05533 0.0 0,0 50.29511150000002,71.104402" fill="none" instance-id="54" semantic-id="18" stroke="rgb(63,63,63)" stroke-width="0.1"/>
  <path d="M 49.830111500000015,68.08140199999998 A 0.267378,0.267378 0.0 1,0 49.33911150000003,67.926402" fill="none" instance-id="54" semantic-id="18" stroke="rgb(63,63,63)" stroke-width="0.1"/>
  </g>
</svg>
